<svg width="24" height="24" viewBox="0 0 24 24" fill="none" xmlns="http://www.w3.org/2000/svg">
<path fill-rule="evenodd" clip-rule="evenodd" d="M9.05001 21H7.42942C6.07537 21 4.95867 21.0001 4.07494 20.8813C3.14711 20.7565 2.32769 20.4845 1.67158 19.8284C1.01547 19.1723 0.743502 18.3529 0.618758 17.4251C0.499943 16.5413 0.499969 15.4247 0.500001 14.0706V9.92943C0.499969 8.57536 0.499943 7.45868 0.618758 6.57494C0.743501 5.64711 1.01547 4.82769 1.67158 4.17158C2.32769 3.51547 3.14711 3.2435 4.07494 3.11876C4.95869 2.99994 6.07532 2.99997 7.42942 3L9.05001 3C9.28164 1.85888 10.2905 1 11.5 1H12.5C13.7095 1 14.7184 1.85888 14.95 3L16 3C16.5523 3 17 3.44772 17 4C17 4.55229 16.5523 5 16 5H15V19L16 19C16.5523 19 17 19.4477 17 20C17 20.5523 16.5523 21 16 21L14.95 21C14.7184 22.1411 13.7095 23 12.5 23H11.5C10.2905 23 9.28165 22.1411 9.05001 21ZM11 3.5C11 3.22386 11.2239 3 11.5 3H12.5C12.7761 3 13 3.22386 13 3.5V20.5C13 20.7761 12.7761 21 12.5 21H11.5C11.2239 21 11 20.7761 11 20.5V3.5Z" fill="#080809" style="fill:#080809;fill:color(display-p3 0.0314 0.0314 0.0353);fill-opacity:1;"/>
<path d="M19.5979 3.08093C19.0483 3.02686 18.5589 3.4286 18.5048 3.97823C18.4507 4.52786 18.8525 5.01726 19.4021 5.07132C20.2895 5.15861 20.6666 5.33821 20.9142 5.58579C21.1618 5.83337 21.3414 6.21047 21.4287 7.09789C21.4828 7.64752 21.9721 8.04926 22.5218 7.9952C23.0714 7.94114 23.4731 7.45174 23.4191 6.90211C23.3146 5.83937 23.0606 4.90377 22.3284 4.17158C21.5962 3.43938 20.6606 3.18546 19.5979 3.08093Z" fill="#080809" style="fill:#080809;fill:color(display-p3 0.0314 0.0314 0.0353);fill-opacity:1;"/>
<path d="M22.5 9.5C23.0523 9.5 23.5 9.94772 23.5 10.5V13.5C23.5 14.0523 23.0523 14.5 22.5 14.5C21.9477 14.5 21.5 14.0523 21.5 13.5V10.5C21.5 9.94772 21.9477 9.5 22.5 9.5Z" fill="#080809" style="fill:#080809;fill:color(display-p3 0.0314 0.0314 0.0353);fill-opacity:1;"/>
<path d="M23.4191 17.0979C23.4731 16.5483 23.0714 16.0589 22.5218 16.0048C21.9721 15.9507 21.4828 16.3525 21.4287 16.9021C21.3414 17.7895 21.1618 18.1666 20.9142 18.4142C20.6666 18.6618 20.2895 18.8414 19.4021 18.9287C18.8525 18.9828 18.4507 19.4721 18.5048 20.0218C18.5589 20.5714 19.0483 20.9731 19.5979 20.9191C20.6606 20.8145 21.5962 20.5606 22.3284 19.8284C23.0606 19.0962 23.3146 18.1606 23.4191 17.0979Z" fill="#080809" style="fill:#080809;fill:color(display-p3 0.0314 0.0314 0.0353);fill-opacity:1;"/>
</svg>
