<svg width="24" height="24" viewBox="0 0 24 24" fill="none" xmlns="http://www.w3.org/2000/svg">
<g clip-path="url(#clip0_29901_28134)">
<path fill-rule="evenodd" clip-rule="evenodd" d="M12 0.5C5.64873 0.5 0.5 5.64873 0.5 12C0.5 18.3513 5.64873 23.5 12 23.5C18.3513 23.5 23.5 18.3513 23.5 12C23.5 5.64873 18.3513 0.5 12 0.5ZM3.10483 8.65712C2.71386 9.69696 2.5 10.8235 2.5 12C2.5 17.2467 6.75329 21.5 12 21.5C12 21.5 12 21.5 12 21.5L12.0001 20.0704C12.0001 19.4017 11.6659 18.7772 11.1095 18.4063L9.89069 17.5937C9.33429 17.2228 9.00009 16.5983 9.00009 15.9296V14.095C9.00009 13.4902 8.50986 13 7.90513 13C7.64376 13 7.391 12.9065 7.19255 12.7364L4.20956 10.1796C4.07057 10.0604 3.94859 9.92276 3.84704 9.77044L3.10483 8.65712ZM15.7075 20.7493C19.1121 19.3049 21.5 15.9313 21.5 12C21.5 7.53875 18.4249 3.79574 14.2786 2.77503L13.6425 5.00169C13.5491 5.3285 13.374 5.62612 13.1336 5.86646L12.447 6.55313C12.1697 6.83037 12.0583 7.23274 12.1534 7.6131L12.3449 8.37921C12.4237 8.69454 12.1852 9 11.8602 9C11.6451 9 11.4542 8.86239 11.3862 8.65838L11.2501 8.25C11.1008 7.80211 10.6816 7.5 10.2095 7.5H7.88609C6.97353 7.5 6.34188 8.41147 6.6623 9.26592L6.81101 9.66246C7.10916 10.4575 8.16809 10.6093 8.67758 9.93L8.91287 9.61629C8.96777 9.54309 9.05394 9.5 9.14545 9.5C9.32892 9.5 9.46652 9.66785 9.43054 9.84775L9.25009 10.75C9.12075 11.3967 9.61537 12 10.2748 12H13.1717C13.7021 12 14.2108 12.2107 14.5859 12.5858L15.4143 13.4142C15.7894 13.7893 16.2981 14 16.8285 14H17.7193C18.3699 14 18.8472 14.6114 18.6895 15.2425L18.1111 17.5558C18.038 17.8482 17.8999 18.1202 17.7069 18.3516L15.7075 20.7493Z" fill="#080809" style="fill:#080809;fill:color(display-p3 0.0314 0.0314 0.0353);fill-opacity:1;"/>
</g>
<defs>
<clipPath id="clip0_29901_28134">
<rect width="24" height="24" fill="white" style="fill:white;fill-opacity:1;"/>
</clipPath>
</defs>
</svg>
