<svg width="24" height="24" viewBox="0 0 24 24" fill="none" xmlns="http://www.w3.org/2000/svg">
<path fill-rule="evenodd" clip-rule="evenodd" d="M11.9252 1H12.0748C14.3683 0.999979 16.1914 0.999962 17.6196 1.19198C19.0921 1.38994 20.2936 1.80836 21.2426 2.75736C22.1916 3.70636 22.6101 4.90794 22.808 6.3804C23 7.8086 23 9.63167 23 11.9252V12.0748C23 14.3683 23 16.1914 22.808 17.6196C22.6101 19.0921 22.1916 20.2936 21.2426 21.2426C20.2936 22.1916 19.0921 22.6101 17.6196 22.808C16.1914 23 14.3683 23 12.0748 23H11.9252C9.63167 23 7.8086 23 6.3804 22.808C4.90794 22.6101 3.70636 22.1916 2.75736 21.2426C1.80836 20.2936 1.38994 19.0921 1.19198 17.6196C0.999962 16.1914 0.999979 14.3684 1 12.0748V11.9252C0.999979 9.63165 0.999962 7.80859 1.19198 6.3804C1.38994 4.90794 1.80836 3.70636 2.75736 2.75736C3.70636 1.80836 4.90794 1.38994 6.3804 1.19198C7.80859 0.999962 9.63166 0.999979 11.9252 1ZM7.5 7C5.84315 7 4.5 8.34315 4.5 10V14C4.5 15.6569 5.84315 17 7.5 17C9.15686 17 10.5 15.6569 10.5 14V12C10.5 11.4477 10.0523 11 9.5 11C8.94772 11 8.5 11.4477 8.5 12V14C8.5 14.5523 8.05229 15 7.5 15C6.94772 15 6.5 14.5523 6.5 14V10C6.5 9.44772 6.94772 9 7.5 9H8.5C9.05228 9 9.5 8.55229 9.5 8C9.5 7.44772 9.05228 7 8.5 7H7.5ZM12.5 7C13.0523 7 13.5 7.44772 13.5 8V16C13.5 16.5523 13.0523 17 12.5 17C11.9477 17 11.5 16.5523 11.5 16V8C11.5 7.44772 11.9477 7 12.5 7ZM16 7C15.4477 7 15 7.44772 15 8V16C15 16.5523 15.4477 17 16 17C16.5523 17 17 16.5523 17 16V13H18C18.5523 13 19 12.5523 19 12C19 11.4477 18.5523 11 18 11H17V9H18.5C19.0523 9 19.5 8.55229 19.5 8C19.5 7.44772 19.0523 7 18.5 7H16Z" fill="#080809" style="fill:#080809;fill:color(display-p3 0.0314 0.0314 0.0353);fill-opacity:1;"/>
</svg>
