<svg width="24" height="24" viewBox="0 0 24 24" fill="none" xmlns="http://www.w3.org/2000/svg">
<path d="M13 6.5C11.3431 6.5 10 5.15685 10 3.5C10 1.84315 11.3431 0.5 13 0.5C14.6568 0.5 16.0003 1.8363 16.0003 3.5V4.5C16.0003 5.73224 15.7229 6.97824 14.9776 7.93852C14.2012 8.93895 13.0168 9.5 11.5 9.5C10.9477 9.5 10.5 9.05228 10.5 8.5C10.5 7.94772 10.9477 7.5 11.5 7.5C12.4832 7.5 13.0489 7.16159 13.3976 6.7123C13.4611 6.63052 13.5202 6.54135 13.5746 6.44504C13.3886 6.48111 13.1965 6.5 13 6.5Z" fill="#080809" style="fill:#080809;fill:color(display-p3 0.0314 0.0314 0.0353);fill-opacity:1;"/>
<path d="M17.5 3.5C17.5 5.15685 18.8431 6.5 20.5 6.5C20.6965 6.5 20.8886 6.48111 21.0746 6.44504C21.0202 6.54136 20.9611 6.63052 20.8976 6.7123C20.5489 7.16159 19.9832 7.5 19 7.5C18.4477 7.5 18 7.94772 18 8.5C18 9.05228 18.4477 9.5 19 9.5C20.5168 9.5 21.7012 8.93895 22.4776 7.93852C23.2229 6.97824 23.5003 5.73224 23.5003 4.5V3.5C23.5003 1.83629 22.1568 0.5 20.5 0.5C18.8431 0.5 17.5 1.84315 17.5 3.5Z" fill="#080809" style="fill:#080809;fill:color(display-p3 0.0314 0.0314 0.0353);fill-opacity:1;"/>
<path fill-rule="evenodd" clip-rule="evenodd" d="M8 3.5C8 4.70018 8.42286 5.80159 9.12773 6.66338C8.73423 7.1709 8.5 7.80809 8.5 8.5C8.5 10.1568 9.84315 11.5 11.5 11.5C13.3557 11.5 15.0105 10.858 16.2014 9.583C16.6358 10.7046 17.725 11.5 19 11.5C20.7474 11.5 22.3167 10.9307 23.4883 9.79973C23.5 10.4473 23.5 11.1552 23.5 11.9263V14.0731C23.5 15.8966 23.5001 17.3664 23.3446 18.5223C23.1833 19.7225 22.8381 20.733 22.0355 21.5355C21.233 22.3381 20.2225 22.6833 19.0223 22.8446C17.8664 23 16.3966 23 14.5731 23H9.42687C7.6034 23 6.13363 23 4.97767 22.8446C3.77752 22.6833 2.76703 22.3381 1.96447 21.5355C1.16192 20.733 0.816723 19.7225 0.655368 18.5223C0.499956 17.3664 0.499976 15.8966 0.500001 14.0732V11.9268C0.499976 10.1034 0.499956 8.6336 0.655368 7.47766C0.816723 6.27752 1.16192 5.26702 1.96447 4.46446C2.76703 3.66191 3.77753 3.31672 4.97767 3.15536C5.82104 3.04197 6.83145 3.01132 8.02439 3.00305C8.00826 3.16651 8 3.33229 8 3.5ZM6 19.0001C5.44772 19.0001 5 18.5524 5 18.0001C5 17.4478 5.44772 17.0001 6 17.0001H18C18.5523 17.0001 19 17.4478 19 18.0001C19 18.5524 18.5523 19.0001 18 19.0001H6ZM5 14.0001C5 14.5524 5.44772 15.0001 6 15.0001H12C12.5523 15.0001 13 14.5524 13 14.0001C13 13.4478 12.5523 13.0001 12 13.0001H6C5.44772 13.0001 5 13.4478 5 14.0001Z" fill="#080809" style="fill:#080809;fill:color(display-p3 0.0314 0.0314 0.0353);fill-opacity:1;"/>
</svg>
