<svg width="24" height="24" viewBox="0 0 24 24" fill="none" xmlns="http://www.w3.org/2000/svg">
<path fill-rule="evenodd" clip-rule="evenodd" d="M8.3005 1.00003C6.6315 0.999591 5.55211 0.999304 4.64597 1.29373C2.81934 1.88724 1.38724 3.31934 0.79373 5.14597C0.499304 6.05211 0.499591 7.1315 0.500034 8.8005V9.19964C0.499591 10.8686 0.499304 11.948 0.79373 12.8542C1.38724 14.6808 2.81934 16.1129 4.64597 16.7064C4.9509 16.8055 5.26593 16.8696 5.60447 16.9119C6.0171 18.6817 7.60462 20.0001 9.50007 20.0001C11.3639 20.0001 12.93 18.7253 13.3741 17.0001L15.6996 17.0001C17.3686 17.0005 18.448 17.0008 19.3542 16.7064C21.1808 16.1129 22.6129 14.6808 23.2064 12.8542C23.5008 11.948 23.5005 10.8686 23.5001 9.19963V8.80051C23.5005 7.1315 23.5008 6.05212 23.2064 5.14597C22.6129 3.31934 21.1808 1.88724 19.3542 1.29373C18.448 0.999304 17.3686 0.999591 15.6996 1.00003H8.3005ZM5.264 3.19584C5.82856 3.01241 6.56095 3.00007 8.50007 3.00007H15.5001C17.4392 3.00007 18.1716 3.01241 18.7361 3.19584C19.9539 3.59151 20.9086 4.54625 21.3043 5.764C21.4877 6.32856 21.5001 7.06095 21.5001 9.00007C21.5001 10.9392 21.4877 11.6716 21.3043 12.2361C20.9086 13.4539 19.9539 14.4086 18.7361 14.8043C18.1716 14.9877 17.4392 15.0001 15.5001 15.0001H12.5001C11.9478 15.0001 11.5001 15.4478 11.5001 16.0001C11.5001 17.1046 10.6046 18.0001 9.50007 18.0001C8.3955 18.0001 7.50007 17.1046 7.50007 16.0001L7.50012 15.9855C7.50394 15.4465 7.07981 15.0014 6.54121 14.9793C5.91892 14.9537 5.55307 14.8982 5.264 14.8043C4.04625 14.4086 3.09151 13.4539 2.69584 12.2361C2.51241 11.6716 2.50007 10.9392 2.50007 9.00007C2.50007 7.06095 2.51241 6.32856 2.69584 5.764C3.09151 4.54625 4.04625 3.59151 5.264 3.19584Z" fill="#080809" style="fill:#080809;fill:color(display-p3 0.0314 0.0314 0.0353);fill-opacity:1;"/>
<path d="M16 23.5C17.1046 23.5 18 22.6046 18 21.5C18 20.3954 17.1046 19.5 16 19.5C14.8954 19.5 14 20.3954 14 21.5C14 22.6046 14.8954 23.5 16 23.5Z" fill="#080809" style="fill:#080809;fill:color(display-p3 0.0314 0.0314 0.0353);fill-opacity:1;"/>
</svg>
