<svg width="24" height="24" viewBox="0 0 24 24" fill="none" xmlns="http://www.w3.org/2000/svg">
<path d="M18.5506 1.10465C18.9268 0.298449 20.0732 0.298453 20.4495 1.10465L20.6639 1.56402C21.0281 2.34454 21.6555 2.97193 22.4361 3.3362L22.8954 3.55059C23.7016 3.92684 23.7016 5.07323 22.8954 5.44948L22.436 5.66387C21.6555 6.02814 21.0281 6.65553 20.6639 7.43605L20.4495 7.89542C20.0732 8.70162 18.9268 8.70162 18.5506 7.89542L18.3362 7.43605C17.9719 6.65553 17.3445 6.02814 16.564 5.66387L16.1046 5.44948C15.2985 5.07322 15.2985 3.92684 16.1046 3.55059L16.564 3.3362C17.3445 2.97193 17.9719 2.34454 18.3362 1.56402L18.5506 1.10465Z" fill="#080809" style="fill:#080809;fill:color(display-p3 0.0314 0.0314 0.0353);fill-opacity:1;"/>
<path fill-rule="evenodd" clip-rule="evenodd" d="M23 11.9986L23 12.0748C23 14.3684 23 16.1914 22.808 17.6196C22.6101 19.0921 22.1916 20.2936 21.2426 21.2426C20.2936 22.1916 19.0921 22.6101 17.6196 22.808C16.1914 23 14.3684 23 12.0748 23H11.9252C9.63165 23 7.80859 23 6.3804 22.808C4.90794 22.6101 3.70636 22.1916 2.75736 21.2426C1.80836 20.2936 1.38994 19.0921 1.19198 17.6196C0.999961 16.1914 0.999979 14.3683 1 12.0748V11.9252C0.999979 9.63167 0.999961 7.8086 1.19198 6.38039C1.38994 4.90794 1.80836 3.70636 2.75736 2.75736C3.70636 1.80836 4.90794 1.38994 6.3804 1.19198C7.8086 0.99996 9.63167 0.999978 11.9252 1H12.0015C12.5284 1 13.0286 1 13.5017 1.00207C13.8352 1.00353 14.1461 1.17121 14.3306 1.44916C14.515 1.72711 14.5487 2.07872 14.4204 2.38663C14.1499 3.03597 14 3.74922 14 4.5C14 7.53757 16.4624 10 19.5 10C20.2508 10 20.964 9.85013 21.6134 9.5796C21.9213 9.45132 22.2729 9.48502 22.5508 9.66945C22.8288 9.85388 22.9965 10.1648 22.9979 10.4983C23 10.9714 23 11.4716 23 11.9986ZM13 7C13 6.44772 12.5523 6 12 6C11.4477 6 11 6.44772 11 7V11H7C6.44772 11 6 11.4477 6 12C6 12.5523 6.44772 13 7 13H11V17C11 17.5523 11.4477 18 12 18C12.5523 18 13 17.5523 13 17V13H17C17.5523 13 18 12.5523 18 12C18 11.4477 17.5523 11 17 11H13V7Z" fill="#080809" style="fill:#080809;fill:color(display-p3 0.0314 0.0314 0.0353);fill-opacity:1;"/>
</svg>
