<svg width="24" height="24" viewBox="0 0 24 24" fill="none" xmlns="http://www.w3.org/2000/svg">
<path d="M21.0002 5.41421C21.7812 4.63316 21.7812 3.36683 21.0002 2.58579L19.2073 0.792893C18.8167 0.402369 18.1836 0.402369 17.793 0.792893C17.4025 1.18342 17.4025 1.81658 17.793 2.20711L18.5859 3L10.9269 3C9.10343 2.99997 7.63367 2.99995 6.47771 3.15537C5.27757 3.31672 4.26707 3.66191 3.46451 4.46447C2.73759 5.19139 2.38484 6.09029 2.20515 7.1493C2.0304 8.17922 2.0055 9.45331 2.00098 10.9971C1.99936 11.5494 2.44577 11.9984 2.99805 12C3.55033 12.0016 3.99936 11.5552 4.00097 11.0029C4.00557 9.43239 4.03445 8.32381 4.17697 7.48387C4.31455 6.67302 4.54256 6.21485 4.87873 5.87868C5.24775 5.50966 5.76584 5.26907 6.74421 5.13753C7.75134 5.00213 9.08616 5 11 5H18.5859L17.793 5.79289C17.4025 6.18342 17.4025 6.81658 17.793 7.20711C18.1836 7.59763 18.8167 7.59763 19.2073 7.20711L21.0002 5.41421Z" fill="#080809" style="fill:#080809;fill:color(display-p3 0.0314 0.0314 0.0353);fill-opacity:1;"/>
<path d="M2.99985 21.4142C2.2188 20.6332 2.2188 19.3668 2.99985 18.5858L4.79274 16.7929C5.18327 16.4024 5.81643 16.4024 6.20696 16.7929C6.59748 17.1834 6.59748 17.8166 6.20696 18.2071L5.41406 19H13C14.9139 19 16.2488 18.9979 17.2559 18.8625C18.2343 18.7309 18.7523 18.4903 19.1214 18.1213C19.4575 17.7851 19.6855 17.327 19.8231 16.5161C19.9656 15.6762 19.9945 14.5676 19.9991 12.9971C20.0007 12.4448 20.4498 11.9984 21.002 12C21.5543 12.0016 22.0007 12.4506 21.9991 13.0029C21.9946 14.5467 21.9697 15.8208 21.7949 16.8507C21.6153 17.9097 21.2625 18.8086 20.5356 19.5355C19.733 20.3381 18.7225 20.6833 17.5224 20.8446C16.3664 21.0001 14.8967 21 13.0732 21H5.41406L6.20696 21.7929C6.59748 22.1834 6.59748 22.8166 6.20696 23.2071C5.81643 23.5976 5.18327 23.5976 4.79274 23.2071L2.99985 21.4142Z" fill="#080809" style="fill:#080809;fill:color(display-p3 0.0314 0.0314 0.0353);fill-opacity:1;"/>
</svg>
