<svg width="24" height="24" viewBox="0 0 24 24" fill="none" xmlns="http://www.w3.org/2000/svg">
<path fill-rule="evenodd" clip-rule="evenodd" d="M4.98032 4.0384C5.52984 3.40305 6.34222 3 7.24996 3C8.15771 3 8.97009 3.40305 9.51961 4.0384C9.67625 4.01312 9.83674 4 9.99996 4C10.7683 4 11.4692 4.28887 12 4.76393C12.5308 4.28887 13.2317 4 14 4C14.1633 4 14.3237 4.01312 14.4804 4.0384C15.0299 3.40305 15.8423 3 16.75 3C17.6578 3 18.4702 3.40305 19.0197 4.0384C19.1763 4.01312 19.3368 4 19.5 4C21.1569 4 22.5 5.34315 22.5 7V10.4972C23.3831 10.8832 24 11.7647 24 12.7896V13.5004C24 17.0903 21.0898 20 17.5 20C15.1843 20 13.1513 18.7892 12 16.9661C10.8487 18.7892 8.81572 20 6.5 20C2.91024 20 0 17.0903 0 13.5004V12.7896C0 11.7647 0.616879 10.8832 1.49996 10.4972V7C1.49996 5.34315 2.84311 4 4.49996 4C4.66319 4 4.82367 4.01312 4.98032 4.0384ZM13 7C13 6.44772 13.4478 6 14 6C14.1654 6 14.3187 6.03938 14.4538 6.10839C14.4691 6.1162 14.4845 6.1236 14.5001 6.13059V10.75C14.5001 11.1642 14.8359 11.5 15.2501 11.5C15.6643 11.5 16.0001 11.1642 16.0001 10.75V5.33817C16.1839 5.13016 16.4524 5 16.75 5C17.0478 5 17.3163 5.13024 17.5001 5.33836V10.75C17.5001 11.1642 17.8359 11.5 18.2501 11.5C18.6643 11.5 19.0001 11.1642 19.0001 10.75V6.13051C19.0157 6.12355 19.0311 6.11617 19.0463 6.10838C19.1814 6.03938 19.3347 6 19.5 6C20.0523 6 20.5 6.44772 20.5 7V11C20.5 11.0465 20.4969 11.0918 20.491 11.1357C19.9036 11.3503 19.4199 11.806 19.1788 12.4086L18.5538 13.9715C18.3999 14.3561 18.587 14.7926 18.9716 14.9464C19.3562 15.1002 19.7927 14.9131 19.9465 14.5285L20.5716 12.9657C20.684 12.6844 20.9564 12.5 21.2593 12.5C21.6652 12.5 21.9949 12.8265 22 13.2311V13.5004C22 15.9856 19.9854 18 17.5 18C15.0188 18 13.0068 15.9925 13 13.5131L13 7ZM11 7V11.2885L11 11.3018L11 13.5005C11 15.9857 8.9854 18 6.5 18C4.01463 18 2 15.9856 2 13.5004V13.2311C2.00515 12.8264 2.33479 12.5 2.74068 12.5C3.04358 12.5 3.31596 12.6844 3.42844 12.9657L4.05351 14.5285C4.20733 14.9131 4.6438 15.1002 5.02839 14.9464C5.41299 14.7926 5.60007 14.3561 5.44625 13.9715L4.82118 12.4086C4.58014 11.806 4.09636 11.3503 3.50898 11.1357C3.50307 11.0918 3.49996 11.0465 3.49996 11V7C3.49996 6.44772 3.94768 6 4.49996 6C4.66535 6 4.81863 6.03938 4.95369 6.10838C4.96894 6.11617 4.98434 6.12355 4.99988 6.13051V10.75C4.99988 11.1642 5.33566 11.5 5.74988 11.5C6.16409 11.5 6.49988 11.1642 6.49988 10.75V5.33836C6.68368 5.13024 6.95221 5 7.24996 5C7.54762 5 7.81608 5.13016 7.99988 5.33817V10.75C7.99988 11.1642 8.33566 11.5 8.74988 11.5C9.16409 11.5 9.49988 11.1642 9.49988 10.75V6.13059C9.51548 6.1236 9.53093 6.1162 9.54623 6.10839C9.6813 6.03938 9.83458 6 9.99996 6C10.5522 6 11 6.44772 11 7Z" fill="#080809" style="fill:#080809;fill:color(display-p3 0.0314 0.0314 0.0353);fill-opacity:1;"/>
</svg>
