<svg width="24" height="24" viewBox="0 0 24 24" fill="none" xmlns="http://www.w3.org/2000/svg">
<path d="M7 2C7 1.44772 6.55228 1 6 1C5.44772 1 5 1.44772 5 2V5H2C1.44772 5 1 5.44772 1 6C1 6.55228 1.44772 7 2 7H5V16.5C5 17.8807 6.11929 19 7.5 19H14.5C15.0523 19 15.5 18.5523 15.5 18C15.5 17.4477 15.0523 17 14.5 17H7.5C7.22386 17 7 16.7761 7 16.5V2Z" fill="#080809" style="fill:#080809;fill:color(display-p3 0.0314 0.0314 0.0353);fill-opacity:1;"/>
<path d="M19 19V22C19 22.5523 18.5523 23 18 23C17.4477 23 17 22.5523 17 22V7.5C17 7.22386 16.7761 7 16.5 7H9.5C8.94771 7 8.5 6.55229 8.5 6C8.5 5.44772 8.94771 5 9.5 5H16.5C17.8807 5 19 6.11929 19 7.5V17H22C22.5523 17 23 17.4477 23 18C23 18.5523 22.5523 19 22 19H19Z" fill="#080809" style="fill:#080809;fill:color(display-p3 0.0314 0.0314 0.0353);fill-opacity:1;"/>
</svg>
