<svg width="24" height="24" viewBox="0 0 24 24" fill="none" xmlns="http://www.w3.org/2000/svg">
<path fill-rule="evenodd" clip-rule="evenodd" d="M8.2929 3.29289C8.68342 2.90237 9.31659 2.90237 9.70711 3.2929C10.5945 4.18027 11.4847 5.06784 12.3756 5.95604C13.8044 7.38048 15.2348 8.80656 16.6575 10.2361C17.6292 11.2124 17.6253 12.7894 16.6533 13.7624C15.2323 15.1847 13.8098 16.6063 12.3876 18.0276C11.4939 18.9209 10.6002 19.814 9.70711 20.7071C9.31659 21.0976 8.68342 21.0976 8.2929 20.7071C7.90237 20.3166 7.90237 19.6834 8.29289 19.2929C9.18689 18.3989 10.0809 17.5055 10.9747 16.6121C12.3964 15.1913 13.8177 13.7708 15.2384 12.3488C15.4329 12.1542 15.4325 11.8404 15.2399 11.6469C13.8191 10.2192 12.3946 8.7991 10.9686 7.3774C10.0771 6.48866 9.18509 5.59931 8.29289 4.7071C7.90237 4.31658 7.90237 3.68341 8.2929 3.29289Z" fill="#080809" style="fill:#080809;fill:color(display-p3 0.0314 0.0314 0.0353);fill-opacity:1;"/>
</svg>
