<svg width="24" height="24" viewBox="0 0 24 24" fill="none" xmlns="http://www.w3.org/2000/svg">
<g clip-path="url(#clip0_29901_26742)">
<path d="M2.5 12C2.5 6.75329 6.75329 2.5 12 2.5C12.4488 2.5 12.8898 2.53105 13.3211 2.591C13.8681 2.66703 14.3732 2.28521 14.4492 1.73818C14.5253 1.19116 14.1434 0.686069 13.5964 0.610038C13.0742 0.537452 12.5412 0.5 12 0.5C5.64873 0.5 0.5 5.64873 0.5 12C0.5 18.3513 5.64873 23.5 12 23.5C18.3513 23.5 23.5 18.3513 23.5 12C23.5 11.4588 23.4625 10.9258 23.39 10.4036C23.3139 9.85656 22.8088 9.47474 22.2618 9.55077C21.7148 9.6268 21.333 10.1319 21.409 10.6789C21.4689 11.1102 21.5 11.5512 21.5 12C21.5 17.2467 17.2467 21.5 12 21.5C6.75329 21.5 2.5 17.2467 2.5 12Z" fill="#080809" style="fill:#080809;fill:color(display-p3 0.0314 0.0314 0.0353);fill-opacity:1;"/>
<path fill-rule="evenodd" clip-rule="evenodd" d="M19 1C16.7909 1 15 2.79086 15 5C15 7.20914 16.7909 9 19 9C21.2091 9 23 7.20914 23 5C23 2.79086 21.2091 1 19 1ZM17 5C17 3.89543 17.8954 3 19 3C20.1046 3 21 3.89543 21 5C21 6.10457 20.1046 7 19 7C17.8954 7 17 6.10457 17 5Z" fill="#080809" style="fill:#080809;fill:color(display-p3 0.0314 0.0314 0.0353);fill-opacity:1;"/>
</g>
<defs>
<clipPath id="clip0_29901_26742">
<rect width="24" height="24" fill="white" style="fill:white;fill-opacity:1;"/>
</clipPath>
</defs>
</svg>
