<svg width="24" height="24" viewBox="0 0 24 24" fill="none" xmlns="http://www.w3.org/2000/svg">
<path d="M18.0002 8.74658C18.0002 9.71308 17.2167 10.4966 16.2502 10.4966C15.2837 10.4966 14.5002 9.71308 14.5002 8.74658C14.5002 7.78008 15.2837 6.99658 16.2502 6.99658C17.2167 6.99658 18.0002 7.78008 18.0002 8.74658Z" fill="#080809" style="fill:#080809;fill:color(display-p3 0.0314 0.0314 0.0353);fill-opacity:1;"/>
<path d="M7.75 10.5005C8.7165 10.5005 9.5 9.71699 9.5 8.75049C9.5 7.78399 8.7165 7.00049 7.75 7.00049C6.7835 7.00049 6 7.78399 6 8.75049C6 9.71699 6.7835 10.5005 7.75 10.5005Z" fill="#080809" style="fill:#080809;fill:color(display-p3 0.0314 0.0314 0.0353);fill-opacity:1;"/>
<path fill-rule="evenodd" clip-rule="evenodd" d="M11.9252 0.996583H12.6753C14.6819 0.996566 16.2772 0.996553 17.5402 1.14633C18.839 1.30037 19.9165 1.62471 20.8171 2.36738C21.1132 2.61148 21.3851 2.88342 21.6292 3.17945C22.3719 4.08012 22.6962 5.15755 22.8502 6.45641C23 7.7194 23 9.31467 23 11.3212L23 11.5533C23.0006 12.8261 23.001 13.7094 22.7056 14.5316C22.6516 14.682 22.5904 14.8297 22.5223 14.9742C22.1496 15.7643 21.5247 16.3886 20.6241 17.2881L17.2887 20.6225C16.3894 21.5223 15.7653 22.1467 14.9756 22.5191C14.831 22.5873 14.6831 22.6485 14.5326 22.7025C13.7109 22.9975 12.8281 22.9972 11.5559 22.9966L11.3241 22.9966C9.31783 22.9966 7.72273 22.9966 6.45991 22.8469C5.16126 22.6929 4.08397 22.3686 3.18336 21.6262C2.88697 21.3818 2.61473 21.1096 2.37039 20.8132C1.62794 19.9126 1.30369 18.8353 1.14971 17.5367C0.99997 16.2738 0.999984 14.6788 1 12.6726V11.9218C0.999978 9.62824 0.999961 7.80517 1.19198 6.37698C1.38994 4.90452 1.80836 3.70295 2.75736 2.75394C3.70636 1.80494 4.90794 1.38653 6.38039 1.18856C7.80859 0.996543 9.63165 0.99656 11.9252 0.996583ZM4.17157 4.16816C3.65611 4.68362 3.34229 5.39279 3.17414 6.64347C3.00213 7.92292 3 9.61129 3 11.9966V12.6075C3 14.6935 3.00165 16.1698 3.13579 17.3012C3.26731 18.4103 3.51406 19.0564 3.91359 19.541C4.07649 19.7386 4.25798 19.9201 4.45558 20.083C4.94022 20.4825 5.58629 20.7293 6.69541 20.8608C7.82674 20.9949 9.30307 20.9966 11.3891 20.9966C11.6139 20.9966 11.8165 20.9963 12 20.9952C12 19.8217 11.9874 18.645 12.061 17.4731L11.9997 17.4734C10.2195 17.4734 8.59094 16.8154 7.35699 15.7311C6.95302 15.3761 6.91331 14.7608 7.2683 14.3569C7.62328 13.9529 8.23854 13.9132 8.64251 14.2682C9.53158 15.0494 10.7065 15.5259 11.9997 15.5259C12.1142 15.5259 12.2276 15.5222 12.3399 15.5148C12.5457 14.7279 12.8864 14.042 13.4645 13.464C14.267 12.6614 15.2775 12.3162 16.4777 12.1549C17.6336 11.9995 19.1034 11.9995 20.9268 11.9995H20.9986C20.9997 11.8154 21 11.6121 21 11.3864C21 9.3 20.9984 7.82344 20.8642 6.69194C20.7326 5.58266 20.4858 4.93651 20.0861 4.45183C19.9234 4.25447 19.7421 4.07318 19.5448 3.91045C19.0601 3.51079 18.4139 3.26397 17.3046 3.13242C16.1731 2.99823 14.6966 2.99658 12.6102 2.99658H12C9.61471 2.99658 7.92634 2.99871 6.64689 3.17072C5.39621 3.33887 4.68704 3.65269 4.17157 4.16816ZM14.1227 20.7101C14.0822 20.7292 14.0413 20.7473 14 20.7646C14.0004 18.9756 14.0077 17.7091 14.1375 16.7437C14.2691 15.7653 14.5097 15.2472 14.8787 14.8782C15.2477 14.5092 15.7658 14.2686 16.7442 14.137C17.71 14.0072 18.9772 13.9999 20.7674 13.9995C20.7503 14.0404 20.7323 14.081 20.7134 14.1211C20.5078 14.557 20.1566 14.9274 19.0921 15.9916L15.9926 19.0901C14.9287 20.1538 14.5584 20.5046 14.1227 20.7101Z" fill="#080809" style="fill:#080809;fill:color(display-p3 0.0314 0.0314 0.0353);fill-opacity:1;"/>
</svg>
