<svg width="24" height="24" viewBox="0 0 24 24" fill="none" xmlns="http://www.w3.org/2000/svg">
<path d="M4 0.75C2.20507 0.75 0.75 2.20507 0.75 4V6C0.75 6.69036 1.30964 7.25 2 7.25C2.69036 7.25 3.25 6.69036 3.25 6V4C3.25 3.58579 3.58579 3.25 4 3.25H6C6.69036 3.25 7.25 2.69036 7.25 2C7.25 1.30964 6.69036 0.75 6 0.75H4Z" fill="#080809" style="fill:#080809;fill:color(display-p3 0.0314 0.0314 0.0353);fill-opacity:1;"/>
<path d="M18 0.75C17.3096 0.75 16.75 1.30964 16.75 2C16.75 2.69036 17.3096 3.25 18 3.25H20C20.4142 3.25 20.75 3.58579 20.75 4V6C20.75 6.69036 21.3096 7.25 22 7.25C22.6904 7.25 23.25 6.69036 23.25 6V4C23.25 2.20507 21.7949 0.75 20 0.75H18Z" fill="#080809" style="fill:#080809;fill:color(display-p3 0.0314 0.0314 0.0353);fill-opacity:1;"/>
<path d="M3.25 18C3.25 17.3096 2.69036 16.75 2 16.75C1.30964 16.75 0.75 17.3096 0.75 18V20C0.75 21.7949 2.20507 23.25 4 23.25H6C6.69036 23.25 7.25 22.6904 7.25 22C7.25 21.3096 6.69036 20.75 6 20.75H4C3.58579 20.75 3.25 20.4142 3.25 20V18Z" fill="#080809" style="fill:#080809;fill:color(display-p3 0.0314 0.0314 0.0353);fill-opacity:1;"/>
<path d="M23.25 18C23.25 17.3096 22.6904 16.75 22 16.75C21.3096 16.75 20.75 17.3096 20.75 18V20C20.75 20.4142 20.4142 20.75 20 20.75H18C17.3096 20.75 16.75 21.3096 16.75 22C16.75 22.6904 17.3096 23.25 18 23.25H20C21.7949 23.25 23.25 21.7949 23.25 20V18Z" fill="#080809" style="fill:#080809;fill:color(display-p3 0.0314 0.0314 0.0353);fill-opacity:1;"/>
<path fill-rule="evenodd" clip-rule="evenodd" d="M5.25488 11.4991C5.25488 8.04782 8.0527 5.25 11.504 5.25C14.9553 5.25 17.7531 8.04782 17.7531 11.4991C17.7531 12.7731 17.3719 13.958 16.7173 14.946L18.388 16.6153C18.8767 17.1035 18.877 17.8955 18.3888 18.3841C17.9005 18.8728 17.1086 18.8731 16.62 18.3849L14.948 16.7143C13.9605 17.3677 12.7767 17.7482 11.504 17.7482C8.0527 17.7482 5.25488 14.9504 5.25488 11.4991ZM11.504 7.7482C9.43242 7.7482 7.75309 9.42754 7.75309 11.4991C7.75309 13.5707 9.43242 15.25 11.504 15.25C13.5755 15.25 15.2549 13.5707 15.2549 11.4991C15.2549 9.42754 13.5755 7.7482 11.504 7.7482Z" fill="#080809" style="fill:#080809;fill:color(display-p3 0.0314 0.0314 0.0353);fill-opacity:1;"/>
</svg>
