<svg width="24" height="24" viewBox="0 0 24 24" fill="none" xmlns="http://www.w3.org/2000/svg">
<path fill-rule="evenodd" clip-rule="evenodd" d="M16.7997 5.63561C16.4375 4.65286 15.5012 4 14.4539 4H12.4997C11.9474 4 11.4997 4.44772 11.4997 5C11.4997 5.55228 11.9474 6 12.4997 6H14.4539C14.6633 6 14.8506 6.13057 14.923 6.32712L15.171 7H13.2796C12.201 7 11.2131 7.57808 10.6811 8.50063L9.85029 8.50156L9.26818 8.03587C8.02699 7.04292 6.48481 6.50195 4.89531 6.50195H3C2.44772 6.50195 2 6.94967 2 7.50195C2 8.05424 2.44772 8.50195 3 8.50195H4.89531C6.03067 8.50195 7.13222 8.88836 8.01879 9.59761L8.87531 10.2828C9.05292 10.4249 9.27366 10.5022 9.50112 10.502L9.74375 10.5017L8.9194 12.2874C8.1468 10.9218 6.68104 10 5 10C2.51472 10 0.5 12.0147 0.5 14.5C0.5 16.9853 2.51472 19 5 19C7.14201 19 8.93447 17.5034 9.38876 15.4988L12.4999 15.4992C12.7651 15.4993 13.0194 15.394 13.207 15.2064C13.3946 15.0189 13.5 14.7646 13.5 14.4994C13.5002 12.4892 14.5791 10.7293 16.1916 9.7698L16.5447 10.7282C15.3137 11.5312 14.5 12.9206 14.5 14.5C14.5 16.9853 16.5147 19 19 19C21.4853 19 23.5 16.9853 23.5 14.5C23.5 12.0147 21.4853 10 19 10C18.804 10 18.6109 10.0125 18.4214 10.0368L17.6709 8H18C18.5523 8 19 7.55228 19 7C19 6.44772 18.5523 6 18 6H16.9339L16.7997 5.63561ZM16.5 14.5C16.5 13.7908 16.7953 13.1506 17.2697 12.6956L18.0614 14.8442C18.2524 15.3625 18.8273 15.6278 19.3455 15.4368C19.8637 15.2458 20.129 14.6709 19.9381 14.1527L19.1464 12.0042C20.459 12.08 21.5 13.1684 21.5 14.5C21.5 15.8807 20.3807 17 19 17C17.6193 17 16.5 15.8807 16.5 14.5ZM7.29138 13.4986L5.00007 13.4985C4.44779 13.4984 4.00004 13.9461 4 14.4984C3.99996 15.0507 4.44764 15.4984 4.99993 15.4985L7.29257 15.4986C6.9071 16.3823 6.02569 17 5 17C3.61929 17 2.5 15.8807 2.5 14.5C2.5 13.1193 3.61929 12 5 12C6.02463 12 6.9053 12.6164 7.29138 13.4986Z" fill="#080809" style="fill:#080809;fill:color(display-p3 0.0314 0.0314 0.0353);fill-opacity:1;"/>
</svg>
