<svg width="24" height="24" viewBox="0 0 24 24" fill="none" xmlns="http://www.w3.org/2000/svg">
<path fill-rule="evenodd" clip-rule="evenodd" d="M5.99982 4.5C5.99982 2.29086 7.79068 0.5 9.99982 0.5C12.209 0.5 13.9998 2.29086 13.9998 4.5C13.9998 5.88866 13.2922 7.11204 12.2179 7.82922C14.6093 8.54191 16.6059 10.308 17.9498 12.0999C18.8611 13.3149 18.6149 15.0386 17.3998 15.9499C16.8647 16.3512 16.231 16.528 15.6114 16.4965C16.0623 17.8993 16.3958 19.3531 16.4909 20.5282C16.6116 22.0206 15.5161 23.3354 14.0263 23.4859C12.5366 23.6365 11.2002 22.5675 11.0198 21.0811C10.9389 20.4139 10.7065 19.5568 10.3551 18.9551C10.1797 18.6549 10.0553 18.5444 10.0065 18.5099L9.99982 18.5054L9.99315 18.5099C9.94432 18.5444 9.81999 18.6549 9.64459 18.9551C9.29313 19.5568 9.06075 20.4139 8.9798 21.0811C8.79946 22.5675 7.46305 23.6365 5.97331 23.4859C4.48356 23.3354 3.38806 22.0206 3.50877 20.5282C3.60382 19.3531 3.93737 17.8993 4.3882 16.4965C3.76865 16.528 3.13492 16.3512 2.59984 15.9499C1.38481 15.0386 1.13857 13.3149 2.04984 12.0999C3.39376 10.308 5.39035 8.54193 7.78179 7.82923C6.70745 7.11204 5.99982 5.88866 5.99982 4.5ZM9.99982 2.5C8.89525 2.5 7.99982 3.39543 7.99982 4.5C7.99982 5.60457 8.89525 6.5 9.99982 6.5C11.1044 6.5 11.9998 5.60457 11.9998 4.5C11.9998 3.39543 11.1044 2.5 9.99982 2.5ZM16.3498 13.2999C16.5984 13.6312 16.5312 14.1013 16.1998 14.3499C15.8685 14.5984 15.3984 14.5312 15.1498 14.1999C14.822 13.7627 14.4743 13.3649 14.1137 13.0099C13.7638 12.6656 13.2158 12.6261 12.8202 12.9166C12.4246 13.2072 12.2984 13.7419 12.5222 14.1787C12.7075 14.5402 12.8829 14.9229 13.0462 15.3119C13.7882 17.0803 14.3787 19.2225 14.4974 20.6894C14.5303 21.0964 14.2315 21.455 13.8252 21.4961C13.4189 21.5371 13.0545 21.2456 13.0053 20.8402C12.903 19.997 12.6123 18.8542 12.082 17.9464C11.5421 17.0221 10.859 16.4999 9.99982 16.4999C9.14068 16.4999 8.45754 17.0221 7.91765 17.9464C7.38732 18.8542 7.09666 19.997 6.99436 20.8402C6.94518 21.2456 6.5807 21.5371 6.17441 21.4961C5.76812 21.455 5.46934 21.0964 5.50226 20.6894C5.62091 19.2225 6.21142 17.0803 6.95346 15.3119C7.1167 14.9229 7.2921 14.5402 7.47737 14.1788C7.70125 13.742 7.57501 13.2072 7.17939 12.9167C6.78378 12.6261 6.23577 12.6657 5.88595 13.01C5.52532 13.365 5.1777 13.7627 4.84984 14.1999C4.60131 14.5312 4.13121 14.5984 3.79984 14.3499C3.46847 14.1013 3.40131 13.6312 3.64984 13.2999C5.21717 11.2101 7.53347 9.49988 9.99984 9.49988C12.4662 9.49988 14.7825 11.2101 16.3498 13.2999Z" fill="#080809" style="fill:#080809;fill:color(display-p3 0.0314 0.0314 0.0353);fill-opacity:1;"/>
<path d="M22.5607 1.14646C21.9749 0.560673 21.0251 0.56067 20.4393 1.14646L16.2929 5.2929C16.1054 5.48044 16 5.7348 16 6.00001V7.00001C16 7.5523 16.4477 8.00001 17 8.00001H18C18.2652 8.00001 18.5196 7.89465 18.7071 7.70712L22.8536 3.56067C23.4393 2.97489 23.4393 2.02514 22.8536 1.43935L22.5607 1.14646Z" fill="#080809" style="fill:#080809;fill:color(display-p3 0.0314 0.0314 0.0353);fill-opacity:1;"/>
</svg>
