<svg width="24" height="24" viewBox="0 0 24 24" fill="none" xmlns="http://www.w3.org/2000/svg">
<path d="M15.3576 2.01485C15.5887 1.63053 15.5385 1.12433 15.2071 0.792893C14.8166 0.402369 14.1834 0.402369 13.7929 0.792893L12.2929 2.29289C12.0069 2.57889 11.9213 3.00901 12.0761 3.38268C12.2309 3.75636 12.5955 4 13 4C14.9139 4 16.2487 4.00212 17.2558 4.13753C18.2342 4.26907 18.7523 4.50966 19.1213 4.87868C19.4903 5.2477 19.7309 5.76579 19.8625 6.74416C19.9979 7.75129 20 9.08611 20 11V12.0855L17.7678 9.85333C16.7915 8.87702 15.2086 8.87702 14.2323 9.85333L10.7499 13.3357L9.76767 12.3536C8.79136 11.3772 7.20845 11.3772 6.23214 12.3536L4.00419 14.5815C4.0002 14.1025 4 13.5776 4 13V11C4 9.08611 4.00213 7.75129 4.13753 6.74416C4.26907 5.76579 4.50966 5.2477 4.87868 4.87868C5.39262 4.36474 6.18139 4.11135 8.0415 4.0341C8.59331 4.01119 9.02206 3.54528 8.99914 2.99347C8.97622 2.44166 8.51032 2.01291 7.95851 2.03582C6.07402 2.11409 4.56687 2.36206 3.46447 3.46447C2.66191 4.26702 2.31672 5.27752 2.15537 6.47767C1.99995 7.63362 1.99997 9.10337 2 10.9268V13.0732C1.99997 14.8966 1.99995 16.3664 2.15537 17.5223C2.31672 18.7225 2.66191 19.733 3.46447 20.5355C4.26702 21.3381 5.27752 21.6833 6.47767 21.8446C7.10478 21.9289 7.82425 21.9675 8.64245 21.9852C8.41132 22.3695 8.46146 22.8757 8.7929 23.2071C9.18342 23.5976 9.81659 23.5976 10.2071 23.2071L11.7071 21.7071C11.9931 21.4211 12.0787 20.991 11.9239 20.6173C11.7691 20.2436 11.4045 20 11 20C9.08611 20 7.7513 19.9979 6.74416 19.8625C5.7658 19.7309 5.2477 19.4903 4.87868 19.1213C4.51197 18.7546 4.27208 18.2407 4.14001 17.2741L7.64635 13.7678C7.84161 13.5725 8.15819 13.5725 8.35346 13.7678L9.33564 14.7499C10.1167 15.531 11.383 15.531 12.1641 14.7499L15.6465 11.2675C15.8417 11.0723 16.1583 11.0723 16.3536 11.2675L19.9924 14.9064C19.98 15.8605 19.9476 16.6229 19.8625 17.2558C19.7309 18.2342 19.4903 18.7523 19.1213 19.1213C18.6074 19.6353 17.8186 19.8886 15.9585 19.9659C15.4067 19.9888 14.9779 20.4547 15.0009 21.0065C15.0238 21.5583 15.4897 21.9871 16.0415 21.9642C17.926 21.8859 19.4331 21.6379 20.5355 20.5355C21.3381 19.733 21.6833 18.7225 21.8446 17.5223C22.0001 16.3664 22 14.8966 22 13.0731V10.9269C22 9.1034 22.0001 7.63363 21.8446 6.47766C21.6833 5.27752 21.3381 4.26702 20.5355 3.46447C19.733 2.66191 18.7225 2.31672 17.5223 2.15536C16.8952 2.07105 16.1758 2.03248 15.3576 2.01485Z" fill="#080809" style="fill:#080809;fill:color(display-p3 0.0314 0.0314 0.0353);fill-opacity:1;"/>
<path d="M9 7.5C9 8.32843 8.32843 9 7.5 9C6.67157 9 6 8.32843 6 7.5C6 6.67157 6.67157 6 7.5 6C8.32843 6 9 6.67157 9 7.5Z" fill="#080809" style="fill:#080809;fill:color(display-p3 0.0314 0.0314 0.0353);fill-opacity:1;"/>
</svg>
