<svg width="24" height="24" viewBox="0 0 24 24" fill="none" xmlns="http://www.w3.org/2000/svg">
<g clip-path="url(#clip0_29901_28056)">
<path fill-rule="evenodd" clip-rule="evenodd" d="M0.5 12C0.5 5.64873 5.64873 0.5 12 0.5C18.3513 0.5 23.5 5.64873 23.5 12C23.5 18.3513 18.3513 23.5 12 23.5C5.64873 23.5 0.5 18.3513 0.5 12ZM9.5 8.5C9.5 9.32843 8.82843 10 8 10C7.17157 10 6.5 9.32843 6.5 8.5C6.5 7.67157 7.17157 7 8 7C8.82843 7 9.5 7.67157 9.5 8.5ZM14.5 8.5C14.5 9.32843 15.1716 10 16 10C16.8284 10 17.5 9.32843 17.5 8.5C17.5 7.67157 16.8284 7 16 7C15.1716 7 14.5 7.67157 14.5 8.5ZM14.5311 15.8396C13.3522 13.9871 10.648 13.9871 9.46914 15.8396L9.34379 16.0366C9.04728 16.5025 8.42919 16.6398 7.96325 16.3433C7.49731 16.0468 7.35996 15.4287 7.65646 14.9628L7.78182 14.7658C9.74659 11.6783 14.2537 11.6783 16.2184 14.7658L16.3438 14.9628C16.6403 15.4287 16.5029 16.0468 16.037 16.3433C15.5711 16.6398 14.953 16.5025 14.6565 16.0366L14.5311 15.8396Z" fill="#080809" style="fill:#080809;fill:color(display-p3 0.0314 0.0314 0.0353);fill-opacity:1;"/>
</g>
<defs>
<clipPath id="clip0_29901_28056">
<rect width="24" height="24" fill="white" style="fill:white;fill-opacity:1;"/>
</clipPath>
</defs>
</svg>
