<svg width="24" height="24" viewBox="0 0 24 24" fill="none" xmlns="http://www.w3.org/2000/svg">
<path fill-rule="evenodd" clip-rule="evenodd" d="M14.6547 14.6644C14.9157 14.8194 15.2077 14.8974 15.4997 14.8974C15.7907 14.8974 16.0817 14.8204 16.3417 14.6664C19.5757 12.7474 23.4427 9.64942 23.4997 5.78542C23.5457 2.73342 21.2257 1.04342 19.0187 1.00142C17.6357 0.984419 16.5037 1.45642 15.4997 2.53942C14.4967 1.45842 13.3697 0.984419 11.9807 1.00342C9.77367 1.04542 7.45467 2.73642 7.50067 5.78442C7.55567 9.64942 11.4237 12.7474 14.6547 14.6644ZM12.0187 3.00242H12.0967C12.9837 3.00242 13.7317 3.30842 14.6657 4.71942C14.8517 4.99942 15.1637 5.16742 15.4997 5.16742C15.8357 5.16742 16.1477 4.99842 16.3337 4.71942C17.2947 3.26542 18.0387 2.98942 18.9807 3.00142C20.2527 3.02542 21.5257 3.97842 21.4997 5.75542C21.4557 8.77042 17.8047 11.4474 15.5007 12.8384C13.1957 11.4474 9.54367 8.76942 9.50067 5.75442C9.47367 3.97942 10.7467 3.02642 12.0187 3.00242Z" fill="#080809" style="fill:#080809;fill:color(display-p3 0.0314 0.0314 0.0353);fill-opacity:1;"/>
<path fill-rule="evenodd" clip-rule="evenodd" d="M6.83657 22.9802C6.96257 23.0152 7.09057 23.0332 7.21757 23.0332C7.59457 23.0332 7.96057 22.8832 8.23157 22.6072C10.7456 20.0332 11.8036 17.5972 11.2896 15.5642C10.7736 13.5152 8.84657 12.6902 7.27957 13.0802C6.30257 13.3222 5.69857 13.8772 5.30557 14.4812C4.66457 14.1542 3.86557 13.9762 2.89657 14.2552C1.34657 14.7012 0.0875703 16.3782 0.66557 18.4092C1.23657 20.4262 3.37057 22.0072 6.83657 22.9802ZM3.45057 16.1762C3.57257 16.1412 3.69757 16.1132 3.83657 16.1132C4.13657 16.1132 4.50157 16.2452 5.04457 16.7252C5.29557 16.9492 5.64257 17.0322 5.96557 16.9422C6.28957 16.8562 6.54857 16.6122 6.65457 16.2942C6.99157 15.2882 7.36957 15.1182 7.76057 15.0212C8.37857 14.8662 9.12757 15.1702 9.34957 16.0532C9.66557 17.3032 8.84757 19.0372 7.04057 20.9582C4.51657 20.1962 2.94057 19.1042 2.58857 17.8632C2.34057 16.9892 2.83357 16.3542 3.45057 16.1762Z" fill="#080809" style="fill:#080809;fill:color(display-p3 0.0314 0.0314 0.0353);fill-opacity:1;"/>
</svg>
