<svg width="24" height="24" viewBox="0 0 24 24" fill="none" xmlns="http://www.w3.org/2000/svg">
<path d="M23 3.5C23 2.11929 21.8807 1 20.5 1H3.5C2.11929 1 1 2.11929 1 3.5V4.5C1 5.88071 2.11929 7 3.5 7L20.5 7C21.8807 7 23 5.88071 23 4.5V3.5Z" fill="#080809" style="fill:#080809;fill:color(display-p3 0.0314 0.0314 0.0353);fill-opacity:1;"/>
<path d="M19 19.5C19 18.1193 17.8807 17 16.5 17L7.5 17C6.11929 17 5 18.1193 5 19.5L5 20.5C5 21.8807 6.11929 23 7.5 23H16.5C17.8807 23 19 21.8807 19 20.5V19.5Z" fill="#080809" style="fill:#080809;fill:color(display-p3 0.0314 0.0314 0.0353);fill-opacity:1;"/>
<path d="M21 11.5C21 10.1193 19.8807 9 18.5 9L5.5 9C4.11929 9 3 10.1193 3 11.5V12.5C3 13.8807 4.11929 15 5.5 15L18.5 15C19.8807 15 21 13.8807 21 12.5V11.5Z" fill="#080809" style="fill:#080809;fill:color(display-p3 0.0314 0.0314 0.0353);fill-opacity:1;"/>
</svg>
