<svg width="24" height="24" viewBox="0 0 24 24" fill="none" xmlns="http://www.w3.org/2000/svg">
<g clip-path="url(#clip0_29901_27771)">
<path d="M19.5414 1.37303C20.0164 0.81891 20.7097 0.5 21.4396 0.5H22.4997C23.0519 0.5 23.4997 0.947715 23.4997 1.5C23.4997 2.05228 23.0519 2.5 22.4997 2.5H21.4396C21.2936 2.5 21.1549 2.56378 21.0599 2.67461L18.5228 5.6346L18.5092 5.65079L16.7065 7.75396C15.7566 8.86219 14.3699 9.5 12.9102 9.5H10.9844C8.77139 9.5 6.82652 8.03299 6.21857 5.90515C5.94578 4.9504 6.66267 4 7.65563 4H17.2897L19.5414 1.37303Z" fill="#080809" style="fill:#080809;fill:color(display-p3 0.0314 0.0314 0.0353);fill-opacity:1;"/>
<path d="M0.5 13C0.5 11.8954 1.39543 11 2.5 11H21.5C22.6046 11 23.5 11.8954 23.5 13V14C23.5 14.1678 23.4954 14.3345 23.4863 14.5H24C24.4142 14.5 24.75 14.8358 24.75 15.25C24.75 15.6642 24.4142 16 24 16H23.277C22.3675 20.008 18.7832 23 14.5 23H9.5C5.21683 23 1.63247 20.008 0.723017 16H0C-0.414214 16 -0.75 15.6642 -0.75 15.25C-0.75 14.8358 -0.414214 14.5 0 14.5H0.513654C0.504591 14.3345 0.5 14.1678 0.5 14V13Z" fill="#080809" style="fill:#080809;fill:color(display-p3 0.0314 0.0314 0.0353);fill-opacity:1;"/>
</g>
<defs>
<clipPath id="clip0_29901_27771">
<rect width="24" height="24" fill="white" style="fill:white;fill-opacity:1;"/>
</clipPath>
</defs>
</svg>
