<svg width="24" height="24" viewBox="0 0 24 24" fill="none" xmlns="http://www.w3.org/2000/svg">
<path d="M6 6C6 3.23858 8.23858 1 11 1C13.7614 1 16 3.23858 16 6C16 8.76142 13.7614 11 11 11C8.23858 11 6 8.76142 6 6Z" fill="#080809" style="fill:#080809;fill:color(display-p3 0.0314 0.0314 0.0353);fill-opacity:1;"/>
<path d="M2 19.3333C2 15.8355 4.83553 13 8.33333 13H13.4098C13.8042 13 14.1617 13.2318 14.3227 13.5919C14.4837 13.952 14.4179 14.373 14.1549 14.6669C13.125 15.8176 12.5 17.3346 12.5 19C12.5 19.9263 12.6931 20.8048 13.0404 21.5996C13.1755 21.9088 13.1456 22.2652 12.9608 22.5476C12.7761 22.8299 12.4614 23 12.1241 23H5.66667C3.64162 23 2 21.3584 2 19.3333Z" fill="#080809" style="fill:#080809;fill:color(display-p3 0.0314 0.0314 0.0353);fill-opacity:1;"/>
<path fill-rule="evenodd" clip-rule="evenodd" d="M16.4333 15C15.6417 15 15 15.6417 15 16.4333V18.5299C15 19.025 15.1967 19.4998 15.5467 19.8498L18.904 23.2071C19.0915 23.3946 19.3459 23.5 19.6111 23.5C19.8763 23.5 20.1307 23.3946 20.3182 23.2071L23.2071 20.3182C23.3946 20.1307 23.5 19.8763 23.5 19.6111C23.5 19.3459 23.3946 19.0915 23.2071 18.904L19.8498 15.5467C19.4998 15.1967 19.025 15 18.5299 15H16.4333ZM18 17.25C18 17.6642 17.6642 18 17.25 18C16.8358 18 16.5 17.6642 16.5 17.25C16.5 16.8358 16.8358 16.5 17.25 16.5C17.6642 16.5 18 16.8358 18 17.25Z" fill="#080809" style="fill:#080809;fill:color(display-p3 0.0314 0.0314 0.0353);fill-opacity:1;"/>
</svg>
