<svg width="24" height="24" viewBox="0 0 24 24" fill="none" xmlns="http://www.w3.org/2000/svg">
<path d="M9 8.49999C10.1046 8.49999 11 7.60457 11 6.5C11 5.39543 10.1046 4.5 9 4.5C7.89543 4.5 7 5.39543 7 6.5C7 7.60457 7.89543 8.49999 9 8.49999Z" fill="#080809" style="fill:#080809;fill:color(display-p3 0.0314 0.0314 0.0353);fill-opacity:1;"/>
<path fill-rule="evenodd" clip-rule="evenodd" d="M9.92943 0.500001H14.0706C15.4247 0.499967 16.5413 0.499939 17.4251 0.618756C18.3529 0.743499 19.1723 1.01547 19.8284 1.67158C20.4845 2.32769 20.7565 3.14711 20.8813 4.07494C21.0001 4.95868 21 6.07527 21 7.42936V14.479C21.0002 14.486 21.0002 14.493 21.0002 14.5V16.5706C21.0003 17.9247 21.0003 19.0413 20.8815 19.9251C20.7567 20.8529 20.4848 21.6723 19.8287 22.3284C19.1725 22.9846 18.3531 23.2565 17.4253 23.3813C16.5415 23.5001 15.4249 23.5001 14.0708 23.5H9.92965C9.42176 23.5 8.94727 23.5 8.50596 23.4938C7.77548 23.4834 7.13587 23.4559 6.58602 23.3827C6.58232 23.3822 6.57863 23.3817 6.57494 23.3813C5.64711 23.2565 4.82769 22.9845 4.17158 22.3284C3.51547 21.6723 3.2435 20.8529 3.11876 19.9251C2.99994 19.0413 2.99997 17.9247 3 16.5706V7.42943C2.99997 6.07533 2.99994 4.95869 3.11876 4.07494C3.2435 3.14711 3.51547 2.32769 4.17158 1.67158C4.82769 1.01547 5.64711 0.743499 6.57494 0.618756C7.45869 0.499939 8.57533 0.499967 9.92943 0.500001ZM7.12896 21.4318C7.54057 21.471 8.02455 21.4876 8.6102 21.4948C9.02027 21.4997 9.48019 21.5 10 21.5H14C15.4425 21.5 16.4238 21.4979 17.1586 21.3991C17.8646 21.3042 18.1916 21.1368 18.4142 20.9142C18.6368 20.6916 18.8042 20.3646 18.8991 19.6586C18.9979 18.9238 19 17.9425 19 16.5V14.914L16.3538 12.2678C16.1585 12.0725 15.8419 12.0725 15.6467 12.2678L11.9143 16.0001C11.1333 16.7812 9.86693 16.7812 9.08589 16.0001L8.48634 15.4006C8.21785 15.1321 7.78255 15.1321 7.51407 15.4006L5.00565 17.909C5.01691 18.7846 5.05044 19.4177 5.14031 19.9071C5.23857 20.4423 5.38943 20.7177 5.58601 20.9142C5.80858 21.1368 6.1356 21.3042 6.84166 21.3991C6.93344 21.4114 7.02907 21.4223 7.12896 21.4318ZM19 12.0856L17.768 10.8536C16.7917 9.87726 15.2088 9.87726 14.2325 10.8536L10.5001 14.5859L9.90055 13.9864C8.85102 12.9368 7.14939 12.9368 6.09985 13.9864L5 15.0862L5 7.5C5 6.05752 5.00213 5.07626 5.10092 4.34144C5.19585 3.63538 5.36322 3.30836 5.58579 3.08579C5.80836 2.86322 6.13538 2.69585 6.84144 2.60092C7.57626 2.50213 8.55752 2.5 10 2.5H14C15.4425 2.5 16.4238 2.50213 17.1586 2.60092C17.8646 2.69585 18.1916 2.86322 18.4142 3.08579C18.6368 3.30836 18.8042 3.63538 18.8991 4.34144C18.9979 5.07626 19 6.05752 19 7.5V12.0856Z" fill="#080809" style="fill:#080809;fill:color(display-p3 0.0314 0.0314 0.0353);fill-opacity:1;"/>
</svg>
