<svg width="24" height="24" viewBox="0 0 24 24" fill="none" xmlns="http://www.w3.org/2000/svg">
<path fill-rule="evenodd" clip-rule="evenodd" d="M0.5 6C0.5 4.34315 1.84315 3 3.5 3H20.5C22.1569 3 23.5 4.34315 23.5 6V18C23.5 19.6569 22.1569 21 20.5 21H3.5C1.84315 21 0.5 19.6569 0.5 18V6ZM3.5 5C2.94772 5 2.5 5.44772 2.5 6V18C2.5 18.5523 2.94772 19 3.5 19H7.5L7.5 5H3.5ZM9.5 5L9.5 19H14.5L14.5 5H9.5ZM20.5 19H16.5L16.5 5H20.5C21.0523 5 21.5 5.44772 21.5 6V18C21.5 18.5523 21.0523 19 20.5 19Z" fill="#080809" style="fill:#080809;fill:color(display-p3 0.0314 0.0314 0.0353);fill-opacity:1;"/>
</svg>
