<svg width="24" height="24" viewBox="0 0 24 24" fill="none" xmlns="http://www.w3.org/2000/svg">
<path fill-rule="evenodd" clip-rule="evenodd" d="M14.5732 3H9.42684C7.60342 2.99998 6.13361 2.99996 4.97767 3.15537C3.77752 3.31672 2.76703 3.66191 1.96447 4.46447C1.16191 5.26703 0.816723 6.27752 0.655368 7.47767C0.499955 8.63361 0.499975 10.1034 0.500001 11.9268V12.0732C0.499975 13.8966 0.499955 15.3664 0.655368 16.5223C0.816723 17.7225 1.16191 18.733 1.96447 19.5355C2.76703 20.3381 3.77752 20.6833 4.97767 20.8446C6.13363 21.0001 7.6034 21 9.42687 21H12.0709C12.3608 21 12.6365 20.8742 12.8264 20.6551C13.0163 20.4361 13.1019 20.1454 13.0608 19.8584C13.0208 19.5786 13 19.292 13 19C13 15.6863 15.6863 13 19 13C20.0943 13 21.1173 13.292 21.9986 13.8017C22.3076 13.9804 22.6884 13.9808 22.9978 13.8029C23.3073 13.6249 23.4983 13.2955 23.4992 12.9386C23.5 12.6386 23.5 12.3256 23.5 12V11.9269C23.5 10.1034 23.5001 8.63363 23.3446 7.47767C23.1833 6.27752 22.8381 5.26703 22.0355 4.46447C21.233 3.66191 20.2225 3.31672 19.0223 3.15537C17.8664 2.99996 16.3966 2.99998 14.5732 3ZM6 9C5.44772 9 5 9.44772 5 10C5 10.5523 5.44772 11 6 11H18C18.5523 11 19 10.5523 19 10C19 9.44772 18.5523 9 18 9H6ZM6 13C5.44772 13 5 13.4477 5 14C5 14.5523 5.44772 15 6 15H12C12.5523 15 13 14.5523 13 14C13 13.4477 12.5523 13 12 13H6Z" fill="#080809" style="fill:#080809;fill:color(display-p3 0.0314 0.0314 0.0353);fill-opacity:1;"/>
<path d="M22.7071 17.7071C23.0976 17.3166 23.0976 16.6834 22.7071 16.2929C22.3166 15.9024 21.6834 15.9024 21.2929 16.2929L18.25 19.3358L16.7071 17.7929C16.3166 17.4024 15.6834 17.4024 15.2929 17.7929C14.9024 18.1834 14.9024 18.8166 15.2929 19.2071L16.8358 20.75C17.6168 21.531 18.8832 21.531 19.6642 20.75L22.7071 17.7071Z" fill="#080809" style="fill:#080809;fill:color(display-p3 0.0314 0.0314 0.0353);fill-opacity:1;"/>
</svg>
