<svg width="24" height="24" viewBox="0 0 24 24" fill="none" xmlns="http://www.w3.org/2000/svg">
<path fill-rule="evenodd" clip-rule="evenodd" d="M14.9994 4H6.61265C5.9578 4 5.32909 4.25694 4.86169 4.71558L1.3301 8.18095C0.370877 9.12219 0.32739 10.6534 1.23164 11.6475L10.1502 21.4529C11.142 22.5433 12.8572 22.5433 13.849 21.4529L22.7676 11.6475C23.6719 10.6534 23.6284 9.12219 22.6691 8.18095L19.1376 4.71558C18.6702 4.25694 18.0415 4 17.3866 4H14.9994C14.9994 4 14.9994 4 14.9994 4ZM14.3226 6H9.67741L8.47741 9H15.5226L14.3226 6ZM17.6767 9L16.4767 6H17.3866C17.5176 6 17.6433 6.05139 17.7368 6.14312L20.6483 9H17.6767ZM15.4468 11H8.55315L12 18.5831L15.4468 11ZM14.6376 17.6135L17.6438 11H20.653L14.6376 17.6135ZM3.35098 9H6.32334L7.52334 6H6.61265C6.48168 6 6.35593 6.05139 6.26245 6.14312L3.35098 9ZM9.36312 17.6152L6.35623 11H3.34623L9.36312 17.6152Z" fill="#080809" style="fill:#080809;fill:color(display-p3 0.0314 0.0314 0.0353);fill-opacity:1;"/>
</svg>
