<svg width="24" height="24" viewBox="0 0 24 24" fill="none" xmlns="http://www.w3.org/2000/svg">
<path fill-rule="evenodd" clip-rule="evenodd" d="M10.25 8.25C10.25 6.45507 11.7051 5 13.5 5C15.2949 5 16.75 6.45507 16.75 8.25C16.75 10.0449 15.2949 11.5 13.5 11.5C11.7051 11.5 10.25 10.0449 10.25 8.25ZM13.5 7C12.8096 7 12.25 7.55964 12.25 8.25C12.25 8.94036 12.8096 9.5 13.5 9.5C14.1904 9.5 14.75 8.94036 14.75 8.25C14.75 7.55964 14.1904 7 13.5 7Z" fill="#080809" style="fill:#080809;fill:color(display-p3 0.0314 0.0314 0.0353);fill-opacity:1;"/>
<path fill-rule="evenodd" clip-rule="evenodd" d="M13.5755 1.50195H13.4291C11.6061 1.50193 10.1366 1.50191 8.98085 1.65729C7.78093 1.81862 6.77058 2.16375 5.96814 2.96619C5.1657 3.76863 4.82057 4.77897 4.65924 5.9789C4.50386 7.13464 4.50388 8.60412 4.50391 10.4272V10.5735C4.50388 12.3966 4.50386 13.8661 4.65924 15.0218C4.82057 16.2217 5.1657 17.2321 5.96814 18.0345C6.77058 18.837 7.78093 19.1821 8.98085 19.3434C10.1366 19.4988 11.606 19.4988 13.4291 19.4988H13.5755C15.3986 19.4988 16.868 19.4988 18.0238 19.3434C19.2237 19.1821 20.234 18.837 21.0365 18.0345C21.8389 17.2321 22.184 16.2217 22.3454 15.0218C22.5008 13.8661 22.5007 12.3966 22.5007 10.5736V10.4272C22.5007 8.6041 22.5008 7.13463 22.3454 5.9789C22.184 4.77897 21.8389 3.76862 21.0365 2.96619C20.234 2.16375 19.2237 1.81862 18.0238 1.65729C16.868 1.50191 15.3985 1.50193 13.5755 1.50195ZM7.38235 4.3804C7.75125 4.0115 8.2692 3.77096 9.24735 3.63946C10.2543 3.50408 11.5888 3.50196 13.5023 3.50196C15.4158 3.50196 16.7504 3.50408 17.7573 3.63946C18.7354 3.77096 19.2534 4.0115 19.6223 4.3804C19.9912 4.7493 20.2317 5.26724 20.3632 6.24539C20.4986 7.25231 20.5007 8.58684 20.5007 10.5004C20.5007 12.4139 20.4986 13.7484 20.3632 14.7553C20.2317 15.7335 19.9912 16.2514 19.6223 16.6203C19.4415 16.801 19.225 16.951 18.9362 17.0723C18.9793 16.8884 19.0021 16.6967 19.0021 16.4996C19.0021 14.2909 17.2116 12.5 15.0027 12.5H12.0033C9.79441 12.5 8.00391 14.2909 8.00391 16.4996C8.00391 16.6969 8.02677 16.8889 8.06998 17.073C7.78035 16.9515 7.5634 16.8014 7.38235 16.6203C7.01345 16.2514 6.77292 15.7335 6.64141 14.7553C6.50603 13.7484 6.50391 12.4139 6.50391 10.5004C6.50391 8.58684 6.50603 7.25231 6.64141 6.24539C6.77292 5.26724 7.01345 4.7493 7.38235 4.3804ZM10.0039 16.4996C10.0039 15.3953 10.8992 14.5 12.0033 14.5H15.0027C16.1069 14.5 17.0021 15.3953 17.0021 16.4996C17.0021 16.7756 16.7784 16.9993 16.5025 16.9994H10.5035C10.2277 16.9993 10.0039 16.7756 10.0039 16.4996Z" fill="#080809" style="fill:#080809;fill:color(display-p3 0.0314 0.0314 0.0353);fill-opacity:1;"/>
<path d="M3 8.5C3 7.94772 2.55229 7.5 2 7.5C1.44772 7.5 1 7.94772 1 8.5V14.0732C0.999974 15.8966 0.999952 17.3664 1.15537 18.5223C1.31672 19.7225 1.66191 20.733 2.46447 21.5355C3.26702 22.3381 4.27752 22.6833 5.47767 22.8446C6.63361 23 8.10336 23 9.92678 23H15.5C16.0523 23 16.5 22.5523 16.5 22C16.5 21.4477 16.0523 21 15.5 21H10C8.08611 21 6.7513 20.9979 5.74416 20.8625C4.7658 20.7309 4.2477 20.4903 3.87868 20.1213C3.50966 19.7523 3.26907 19.2342 3.13753 18.2558C3.00213 17.2487 3 15.9139 3 14V8.5Z" fill="#080809" style="fill:#080809;fill:color(display-p3 0.0314 0.0314 0.0353);fill-opacity:1;"/>
</svg>
