<svg width="24" height="24" viewBox="0 0 24 24" fill="none" xmlns="http://www.w3.org/2000/svg">
<g clip-path="url(#clip0_29901_26513)">
<path fill-rule="evenodd" clip-rule="evenodd" d="M12 5C9.79086 5 8 6.79086 8 9C8 11.2091 9.79086 13 12 13C14.2091 13 16 11.2091 16 9C16 6.79086 14.2091 5 12 5ZM10 9C10 7.89543 10.8954 7 12 7C13.1046 7 14 7.89543 14 9C14 10.1046 13.1046 11 12 11C10.8954 11 10 10.1046 10 9Z" fill="#080809" style="fill:#080809;fill:color(display-p3 0.0314 0.0314 0.0353);fill-opacity:1;"/>
<path fill-rule="evenodd" clip-rule="evenodd" d="M12 0.5C5.64873 0.5 0.5 5.64873 0.5 12C0.5 18.3513 5.64873 23.5 12 23.5C18.3513 23.5 23.5 18.3513 23.5 12C23.5 5.64873 18.3513 0.5 12 0.5ZM2.5 12C2.5 11.3177 2.57192 10.6523 2.7086 10.0107C3.71514 10.1151 4.5 10.9659 4.5 12C4.5 13.0341 3.71514 13.8849 2.7086 13.9893C2.57192 13.3477 2.5 12.6823 2.5 12ZM6.5 12C6.5 10.079 5.14588 8.47434 3.34012 8.08837C4.83102 4.79289 8.14774 2.5 12 2.5C15.8523 2.5 19.169 4.79289 20.6599 8.08838C18.8541 8.47434 17.5 10.079 17.5 12C17.5 13.921 18.8541 15.5257 20.6599 15.9116C20.2217 16.8802 19.6258 17.7621 18.9049 18.5247C18.4513 16.2302 16.4277 14.5 14 14.5H10C7.57231 14.5 5.54872 16.2302 5.09506 18.5247C4.3742 17.7621 3.7783 16.8802 3.34012 15.9116C5.14588 15.5257 6.5 13.921 6.5 12ZM19.5 12C19.5 10.9659 20.2849 10.1151 21.2914 10.0107C21.4281 10.6523 21.5 11.3177 21.5 12C21.5 12.6823 21.4281 13.3477 21.2914 13.9893C20.2849 13.8849 19.5 13.0341 19.5 12ZM16.9891 20.086C15.5391 20.9826 13.83 21.5 12 21.5C10.17 21.5 8.46086 20.9826 7.01089 20.086C7.00371 20.0377 7 19.9884 7 19.9384V19.5C7 17.8431 8.34315 16.5 10 16.5H14C15.6569 16.5 17 17.8431 17 19.5V19.9384C17 19.9884 16.9963 20.0377 16.9891 20.086Z" fill="#080809" style="fill:#080809;fill:color(display-p3 0.0314 0.0314 0.0353);fill-opacity:1;"/>
</g>
<defs>
<clipPath id="clip0_29901_26513">
<rect width="24" height="24" fill="white" style="fill:white;fill-opacity:1;"/>
</clipPath>
</defs>
</svg>
