<svg width="24" height="24" viewBox="0 0 24 24" fill="none" xmlns="http://www.w3.org/2000/svg">
<path d="M17.7295 2.70507C19.021 1.68223 20.874 1.78923 22.0391 2.95409C23.204 4.11901 23.3117 5.97214 22.2891 7.26366L20.8017 9.13964C18.9843 11.4338 16.9074 13.5106 14.6133 15.3281L11.3428 17.9189C10.5642 19.4991 9.73495 20.5524 8.7412 21.1924C7.6861 21.8717 6.58223 22.001 5.50487 22.001C4.34217 22.001 3.3384 21.7115 2.63378 21.4297C2.27934 21.2879 1.99316 21.1449 1.79198 21.0351C1.6915 20.9803 1.61111 20.9334 1.5537 20.8984C1.52518 20.8811 1.50158 20.8664 1.48436 20.8555L1.45116 20.834L1.45018 20.833C1.12094 20.6135 0.952121 20.22 1.01952 19.8301C1.08714 19.4402 1.37882 19.1273 1.76268 19.0312H1.76073L1.75878 19.0322H1.75585C1.76027 19.0309 1.76702 19.0291 1.77538 19.0264C1.80455 19.0166 1.8562 18.9981 1.92284 18.9687C2.05704 18.9097 2.24842 18.8085 2.45311 18.6494C2.85 18.3407 3.32701 17.7915 3.5244 16.8057C3.85532 15.1513 4.947 14.2886 5.8955 13.8691C6.36082 13.6634 6.80024 13.5575 7.12011 13.5029C7.14751 13.4982 7.17432 13.4942 7.20018 13.4902L9.66503 10.3799C11.4825 8.08574 13.5594 6.00883 15.8535 4.1914L17.7295 2.70507ZM7.35546 15.4932C7.16644 15.5314 6.9368 15.5953 6.70409 15.6982C6.17029 15.9344 5.65438 16.3525 5.48534 17.1973C5.24582 18.3944 4.71081 19.2391 4.13768 19.8203C4.54654 19.9256 5.00963 20.001 5.50487 20.001C6.42726 20.001 7.07589 19.8856 7.65819 19.5107C8.16879 19.1819 8.7211 18.5886 9.32714 17.4658L7.35546 15.4932ZM20.625 4.36815C20.178 3.92136 19.4672 3.88026 18.9717 4.27245L17.0947 5.75878C14.9213 7.4806 12.9542 9.44862 11.2324 11.6221L9.05858 14.3652L10.6279 15.9346L13.3721 13.7607C15.5454 12.039 17.5126 10.0718 19.2344 7.89843L20.7207 6.02245C21.1131 5.52686 21.072 4.81517 20.625 4.36815Z" fill="#080809" style="fill:#080809;fill:color(display-p3 0.0314 0.0314 0.0353);fill-opacity:1;"/>
<path d="M3.55077 1.10448C3.92709 0.298519 5.07292 0.298494 5.44921 1.10448L5.66405 1.56347C6.02826 2.34385 6.6552 2.97163 7.43554 3.33593L7.8955 3.55077C8.70134 3.92712 8.70136 5.07289 7.8955 5.44921L7.43554 5.66405C6.65537 6.02828 6.02828 6.65536 5.66405 7.43554L5.44921 7.8955C5.07289 8.70137 3.92712 8.70133 3.55077 7.8955L3.33593 7.43554C2.97163 6.6552 2.34385 6.02826 1.56347 5.66405L1.10448 5.44921C0.29849 5.07292 0.298522 3.92709 1.10448 3.55077L1.56347 3.33593C2.34398 2.97166 2.97166 2.34398 3.33593 1.56347L3.55077 1.10448Z" fill="#080809" style="fill:#080809;fill:color(display-p3 0.0314 0.0314 0.0353);fill-opacity:1;"/>
</svg>
