<svg width="24" height="24" viewBox="0 0 24 24" fill="none" xmlns="http://www.w3.org/2000/svg">
<path d="M18.5 3.50001C18.5 4.05229 18.0523 4.50001 17.5 4.50001L7.50001 4.5C6.05752 4.5 5.07626 4.50213 4.34144 4.60092C3.63538 4.69585 3.30836 4.86322 3.08579 5.08579C2.86322 5.30836 2.69585 5.63538 2.60092 6.34144C2.50213 7.07626 2.5 8.05752 2.5 9.5L2.5 16C2.5 16.5523 2.05229 17 1.5 17C0.947718 17 0.500005 16.5523 0.500005 16L0.500001 9.42946C0.499968 8.07537 0.49994 6.95868 0.618756 6.07494C0.7435 5.14711 1.01547 4.32769 1.67158 3.67158C2.32769 3.01547 3.14711 2.7435 4.07494 2.61876C4.95869 2.49994 6.07528 2.49997 7.42937 2.5L17.5 2.50001C18.0523 2.50001 18.5 2.94772 18.5 3.50001Z" fill="#080809" style="fill:#080809;fill:color(display-p3 0.0314 0.0314 0.0353);fill-opacity:1;"/>
<path d="M14 10C13.4477 10 13 10.4477 13 11C13 11.5523 13.4477 12 14 12H18.5C19.0523 12 19.5 11.5523 19.5 11C19.5 10.4477 19.0523 10 18.5 10H14Z" fill="#080809" style="fill:#080809;fill:color(display-p3 0.0314 0.0314 0.0353);fill-opacity:1;"/>
<path d="M9.5 12.5C10.3284 12.5 11 11.8284 11 11C11 10.1716 10.3284 9.5 9.5 9.5C8.67157 9.5 8 10.1716 8 11C8 11.8284 8.67157 12.5 9.5 12.5Z" fill="#080809" style="fill:#080809;fill:color(display-p3 0.0314 0.0314 0.0353);fill-opacity:1;"/>
<path fill-rule="evenodd" clip-rule="evenodd" d="M23.5 15.0706V12.9294C23.5 11.5753 23.5001 10.4587 23.3813 9.57494C23.2565 8.64711 22.9845 7.82769 22.3284 7.17158C21.6723 6.51547 20.8529 6.2435 19.9251 6.11876C19.0413 5.99994 17.9247 5.99997 16.5706 6H10.9294C9.57533 5.99997 8.45869 5.99994 7.57494 6.11876C6.64711 6.2435 5.82769 6.51547 5.17158 7.17158C4.51547 7.82769 4.2435 8.64711 4.11876 9.57494C3.99994 10.4587 3.99997 11.5753 4.00001 12.9294V15.0706C3.99997 16.4247 3.99994 17.5413 4.11876 18.4251C4.2435 19.3529 4.51547 20.1723 5.17158 20.8284C5.82769 21.4845 6.64711 21.7565 7.57494 21.8813C8.45868 22.0001 9.57527 22 10.9294 22H16.5706C17.9247 22 19.0413 22.0001 19.9251 21.8813C20.8529 21.7565 21.6723 21.4845 22.3284 20.8284C22.9845 20.1723 23.2565 19.3529 23.3813 18.4251C23.5001 17.5413 23.5 16.4247 23.5 15.0706ZM20.9142 8.58579C21.1368 8.80836 21.3042 9.13539 21.3991 9.84144C21.4979 10.5763 21.5 11.5575 21.5 13V14H6.00001V13C6.00001 11.5575 6.00213 10.5763 6.10092 9.84144C6.19585 9.13538 6.36322 8.80836 6.58579 8.58579C6.80836 8.36322 7.13538 8.19585 7.84144 8.10092C8.57626 8.00213 9.55752 8.00001 11 8.00001H16.5C17.9425 8.00001 18.9238 8.00213 19.6586 8.10092C20.3646 8.19585 20.6917 8.36322 20.9142 8.58579Z" fill="#080809" style="fill:#080809;fill:color(display-p3 0.0314 0.0314 0.0353);fill-opacity:1;"/>
</svg>
