<svg width="24" height="24" viewBox="0 0 24 24" fill="none" xmlns="http://www.w3.org/2000/svg">
<path fill-rule="evenodd" clip-rule="evenodd" d="M23 11.9252V12.0748C23 14.3684 23 16.1914 22.808 17.6196C22.6101 19.0921 22.1916 20.2936 21.2426 21.2426C20.2936 22.1916 19.0921 22.6101 17.6196 22.808C16.1914 23 14.3684 23 12.0748 23H11.9252C11.7819 23 11.6403 23 11.5007 23C9.40531 22.9993 7.71933 22.988 6.3804 22.808C6.28837 22.7957 6.1974 22.7824 6.10748 22.7682C4.75873 22.5557 3.64705 22.1323 2.75736 21.2426C2.63874 21.124 2.5284 21.0014 2.42575 20.8749C1.7072 19.989 1.3652 18.908 1.19198 17.6196C0.999959 16.1914 0.999978 14.3684 1 12.0748L1 11.9252C0.99998 9.63167 0.999962 7.8086 1.19198 6.38039C1.38994 4.90794 1.80836 3.70636 2.75736 2.75736C3.70636 1.80836 4.90794 1.38994 6.3804 1.19198C7.8086 0.99996 9.63167 0.999978 11.9252 1H12.0748C14.3683 0.999978 16.1914 0.99996 17.6196 1.19198C19.0921 1.38994 20.2936 1.80836 21.2426 2.75736C22.1916 3.70636 22.6101 4.90794 22.808 6.38039C23 7.80859 23 9.63165 23 11.9252ZM13 20.9993C14.869 20.9958 16.2603 20.9728 17.3531 20.8259C18.6038 20.6577 19.313 20.3439 19.8284 19.8284C20.3439 19.313 20.6577 18.6038 20.8259 17.3531C20.9979 16.0737 21 14.3853 21 12C21 9.61471 20.9979 7.92634 20.8259 6.64689C20.6577 5.39621 20.3439 4.68704 19.8284 4.17157C19.313 3.65611 18.6038 3.34229 17.3531 3.17414C16.0737 3.00212 14.3853 3 12 3C9.61471 3 7.92634 3.00212 6.64689 3.17414C5.39621 3.34229 4.68704 3.65611 4.17158 4.17157C3.65611 4.68704 3.34229 5.39621 3.17414 6.64689C3.02721 7.73975 3.00424 9.13096 3.00066 11L6.07058 11C7.42469 11 8.54131 10.9999 9.42507 11.1188C10.3529 11.2435 11.1723 11.5155 11.8284 12.1716C12.4845 12.8277 12.7565 13.6471 12.8812 14.5749C13.0001 15.4587 13 16.5753 13 17.9294L13 20.9993Z" fill="#080809" style="fill:#080809;fill:color(display-p3 0.0314 0.0314 0.0353);fill-opacity:1;"/>
</svg>
