<svg width="24" height="24" viewBox="0 0 24 24" fill="none" xmlns="http://www.w3.org/2000/svg">
<path d="M20.4495 1.10465C20.0732 0.298453 18.9268 0.298449 18.5506 1.10465L18.3362 1.56402C17.9719 2.34454 17.3445 2.97193 16.564 3.3362L16.1046 3.55059C15.2985 3.92684 15.2984 5.07322 16.1046 5.44948L16.564 5.66387C17.3445 6.02814 17.9719 6.65553 18.3362 7.43605L18.5506 7.89542C18.9268 8.70162 20.0732 8.70162 20.4495 7.89542L20.6639 7.43605C21.0281 6.65553 21.6555 6.02814 22.436 5.66387L22.8954 5.44948C23.7016 5.07323 23.7016 3.92684 22.8954 3.55059L22.436 3.3362C21.6555 2.97193 21.0281 2.34454 20.6639 1.56402L20.4495 1.10465Z" fill="#080809" style="fill:#080809;fill:color(display-p3 0.0314 0.0314 0.0353);fill-opacity:1;"/>
<path d="M13 7C13 6.44772 12.5523 6 12 6C11.4477 6 11 6.44772 11 7V11H7C6.44772 11 6 11.4477 6 12C6 12.5523 6.44772 13 7 13H11V17C11 17.5523 11.4477 18 12 18C12.5523 18 13 17.5523 13 17V13H17C17.5523 13 18 12.5523 18 12C18 11.4477 17.5523 11 17 11H13V7Z" fill="#080809" style="fill:#080809;fill:color(display-p3 0.0314 0.0314 0.0353);fill-opacity:1;"/>
<path d="M13.5 1L11.9252 1C9.63165 0.999978 7.80859 0.99996 6.38039 1.19198C4.90794 1.38994 3.70636 1.80836 2.75736 2.75736C1.80836 3.70636 1.38994 4.90794 1.19198 6.38039C0.999961 7.80859 0.999978 9.63164 1 11.9252V12.0748C0.999978 14.3683 0.999961 16.1914 1.19198 17.6196C1.38994 19.0921 1.80836 20.2936 2.75736 21.2426C3.70636 22.1916 4.90794 22.6101 6.38039 22.808C7.8086 23 9.63167 23 11.9252 23H12.0748C14.3683 23 16.1914 23 17.6196 22.808C19.0921 22.6101 20.2936 22.1916 21.2426 21.2426C22.1916 20.2936 22.6101 19.0921 22.808 17.6196C23 16.1914 23 14.3683 23 12.0748V10.5C23 9.94772 22.5523 9.5 22 9.5C21.4477 9.5 21 9.94772 21 10.5V12C21 14.3853 20.9979 16.0737 20.8259 17.3531C20.6577 18.6038 20.3439 19.313 19.8284 19.8284C19.313 20.3439 18.6038 20.6577 17.3531 20.8259C16.0737 20.9979 14.3853 21 12 21C9.61471 21 7.92634 20.9979 6.64689 20.8259C5.39621 20.6577 4.68704 20.3439 4.17157 19.8284C3.65611 19.313 3.34229 18.6038 3.17414 17.3531C3.00213 16.0737 3 14.3853 3 12C3 9.61471 3.00213 7.92634 3.17414 6.64689C3.34229 5.39621 3.65611 4.68704 4.17157 4.17157C4.68704 3.65611 5.39621 3.34229 6.64689 3.17414C7.92634 3.00212 9.61471 3 12 3H13.5C14.0523 3 14.5 2.55229 14.5 2C14.5 1.44772 14.0523 1 13.5 1Z" fill="#080809" style="fill:#080809;fill:color(display-p3 0.0314 0.0314 0.0353);fill-opacity:1;"/>
</svg>
