<svg width="24" height="24" viewBox="0 0 24 24" fill="none" xmlns="http://www.w3.org/2000/svg">
<g clip-path="url(#clip0_29901_26507)">
<path d="M9.91618 12.0248C9.24944 12.1423 9.05233 12.6582 8.92494 12.9916C8.8641 13.1509 8.81917 13.2685 8.74657 13.2812C8.67419 13.2939 8.59272 13.1991 8.48232 13.0707C8.2501 12.8006 7.8899 12.3817 7.21721 12.5005C6.31786 12.6594 5.8732 13.5113 6.14621 14.3193C6.63012 15.7473 9.1967 16.8229 9.3647 16.791C9.53361 16.7636 11.5779 14.8745 11.5441 13.3679C11.525 12.5069 10.8155 11.866 9.91618 12.0248Z" fill="#080809" style="fill:#080809;fill:color(display-p3 0.0314 0.0314 0.0353);fill-opacity:1;"/>
<path d="M15.0766 12.9916C14.9493 12.6582 14.7521 12.1423 14.0854 12.0248C13.1861 11.866 12.4766 12.5069 12.4574 13.3679C12.4237 14.8745 14.468 16.7636 14.6369 16.791C14.8049 16.8229 17.3715 15.7473 17.8554 14.3193C18.1284 13.5113 17.6837 12.6594 16.7844 12.5005C16.1117 12.3817 15.7515 12.8006 15.5193 13.0707C15.4089 13.1991 15.3274 13.2939 15.255 13.2812C15.1824 13.2685 15.1375 13.1509 15.0766 12.9916Z" fill="#080809" style="fill:#080809;fill:color(display-p3 0.0314 0.0314 0.0353);fill-opacity:1;"/>
<path fill-rule="evenodd" clip-rule="evenodd" d="M12.2283 0.5C10.5167 0.5 8.13027 1.19406 6.80041 3.03817C4.95064 3.02056 3.40703 3.72422 2.3077 4.91711C1.1065 6.22053 0.5 8.03441 0.5 9.94569C0.5 10.8059 0.620883 11.8387 0.890459 12.8004C0.979425 13.1178 1.10398 13.4009 1.23088 13.6552C1.05575 14.0447 0.956705 14.4845 0.957032 14.9679C0.958282 16.8121 2.44021 18.4362 4.33586 18.4773C5.70933 21.4001 8.35716 23.4998 12.0006 23.4998C15.6437 23.4998 18.2925 21.4003 19.6654 18.4773C21.561 18.4361 23.0428 16.8121 23.0441 14.9679C23.0444 14.4382 22.9255 13.9608 22.7178 13.5447C22.8602 13.265 22.9923 12.951 23.1121 12.5998C23.1219 12.5739 23.1307 12.5475 23.1384 12.5205C23.3813 11.6708 23.5001 10.7481 23.5001 9.94569C23.5001 7.01107 22.008 4.62534 19.8784 3.00426C17.7609 1.3924 14.9767 0.5 12.2283 0.5ZM21.0009 15.3218C20.648 15.4748 20.3242 15.5224 20.0695 15.5252C19.8348 15.5277 19.6856 15.5034 19.5354 15.4596C19.1142 15.3357 18.8167 14.9393 18.8167 14.5C18.8167 11.8999 18.0692 10.3494 17.3962 9.46832C17.1303 9.12004 16.8682 8.86628 16.653 8.68869C16.448 8.85141 16.1949 9.03795 15.8965 9.23167C15.0297 9.79444 13.7617 10.4302 12.1689 10.7031C11.765 10.7723 11.3598 10.5881 11.1464 10.2383C10.9428 9.90453 10.7282 9.63231 10.5078 9.41196C9.92927 8.83363 9.3109 8.61272 8.74612 8.57464C7.91215 8.5184 7.065 8.85442 6.47721 9.3443C5.73383 9.96341 5.40438 10.6746 5.26887 12.0335C5.2038 12.6859 5.18345 13.4875 5.18345 14.5C5.18345 14.9674 4.83308 15.381 4.38125 15.4807C4.29309 15.5002 4.14325 15.526 3.94543 15.5295C3.6993 15.5339 3.37323 15.5032 3.01383 15.3732C3.19343 16.0066 3.77485 16.4781 4.40948 16.4781H4.99383C5.40501 16.4781 5.77428 16.7298 5.9246 17.1125C6.95696 19.7407 9.06719 21.4998 12.0006 21.4998C14.9341 21.4998 17.045 19.7406 18.0764 17.1127C18.2267 16.7299 18.596 16.4781 19.0073 16.4781H19.5916C20.2433 16.4781 20.8389 15.9809 21.0009 15.3218ZM5.19675 7.80794C3.60348 9.13502 3.26771 10.8184 3.1999 13.0688C3.07048 12.8845 2.93409 12.6208 2.81118 12.2425C2.59851 11.4761 2.5 10.6341 2.5 9.94569C2.5 8.43853 2.97866 7.14028 3.77841 6.27247C4.55804 5.42649 5.70512 4.91759 7.23966 5.06217C7.6393 5.09982 8.02273 4.89485 8.21342 4.54163C8.94713 3.18255 10.7469 2.5 12.2283 2.5C14.5693 2.5 16.921 3.2666 18.667 4.59567C20.4009 5.91552 21.5001 7.75264 21.5001 9.94569C21.5001 10.5593 21.4083 11.2826 21.2246 11.9381C21.0628 12.4164 20.8925 12.7485 20.737 12.9791C20.5001 10.7984 19.768 9.2787 18.9857 8.25438C18.5145 7.63738 18.0368 7.21551 17.6648 6.94266C17.4485 6.78397 17.2191 6.63252 16.9737 6.52201L16.9724 6.52142C16.5876 6.34993 16.1367 6.43801 15.8448 6.74135C15.7677 6.81921 15.6855 6.89214 15.6023 6.96339C15.1308 7.36742 14.0081 8.19589 12.4464 8.59971C11.9947 8.00841 11.4882 7.55704 10.9492 7.23173C10.2941 6.83627 9.5911 6.62708 8.88068 6.57917C7.45705 6.48317 6.11639 7.04159 5.19675 7.80794Z" fill="#080809" style="fill:#080809;fill:color(display-p3 0.0314 0.0314 0.0353);fill-opacity:1;"/>
</g>
<defs>
<clipPath id="clip0_29901_26507">
<rect width="24" height="24" fill="white" style="fill:white;fill-opacity:1;"/>
</clipPath>
</defs>
</svg>
