<svg width="24" height="24" viewBox="0 0 24 24" fill="none" xmlns="http://www.w3.org/2000/svg">
<path fill-rule="evenodd" clip-rule="evenodd" d="M6.04553 4.59726C7.67453 3.28529 9.74556 2.5 12 2.5C14.2632 2.5 16.3416 3.29144 17.9735 4.61264L15.4767 7.1094C15.4364 7.08068 15.3957 7.05245 15.3547 7.02471C14.3971 6.37776 13.2426 6 12 6C11.9935 6 11.9871 6.00001 11.9806 6.00003C10.6923 6.00411 9.49956 6.41422 8.52368 7.1091L6.02689 4.61231C6.0331 4.60728 6.03931 4.60227 6.04553 4.59726ZM4.61264 6.02648C3.29741 7.65098 2.50718 9.71795 2.50005 11.9693C2.50002 11.9795 2.5 11.9898 2.5 12C2.5 14.2544 3.28529 16.3255 4.59726 17.9545C4.60238 17.9608 4.6075 17.9672 4.61264 17.9735L7.1094 15.4767C7.10941 15.4768 7.1094 15.4767 7.1094 15.4767C6.41085 14.4959 6 13.2959 6 12C6 10.7574 6.37776 9.60295 7.02471 8.64534C7.05245 8.60428 7.08068 8.56358 7.1094 8.52325L4.61264 6.02648ZM8.52368 16.8909L6.02689 19.3877C7.65871 20.7087 9.73695 21.5 12 21.5C14.2544 21.5 16.3255 20.7147 17.9545 19.4027C17.9608 19.3976 17.9672 19.3925 17.9735 19.3874L15.4767 16.8906C14.4959 17.5891 13.2959 18 12 18C10.7574 18 9.60295 17.6222 8.64534 16.9753C8.60443 16.9477 8.56387 16.9195 8.52368 16.8909ZM16.8909 15.4763L19.3877 17.9731C20.7087 16.3413 21.5 14.2631 21.5 12C21.5 9.74556 20.7147 7.67453 19.4027 6.04553C19.3977 6.03931 19.3927 6.0331 19.3877 6.02689L16.8909 8.52368C17.5858 9.49956 17.9959 10.6923 18 11.9806C18 11.9871 18 11.9935 18 12C18 13.2426 17.6222 14.3971 16.9753 15.3547C16.9477 15.3956 16.9195 15.4361 16.8909 15.4763ZM10.8242 0.559373C5.02525 1.14829 0.5 6.04568 0.5 12C0.5 18.3513 5.64873 23.5 12 23.5C18.3513 23.5 23.5 18.3513 23.5 12C23.5 11.2061 23.4196 10.431 23.2664 9.68235C22.194 4.44199 17.5574 0.5 12 0.5C11.603 0.5 11.2108 0.520112 10.8242 0.559373ZM8.08127 11.1939C8.45425 9.37113 10.067 8 12 8C12.1381 8 12.2745 8.007 12.409 8.02065C14.426 8.22549 16 9.92893 16 12C16 14.2091 14.2091 16 12 16C9.79086 16 8 14.2091 8 12C8 11.7239 8.02798 11.4543 8.08127 11.1939Z" fill="#080809" style="fill:#080809;fill:color(display-p3 0.0314 0.0314 0.0353);fill-opacity:1;"/>
</svg>
