<svg width="24" height="24" viewBox="0 0 24 24" fill="none" xmlns="http://www.w3.org/2000/svg">
<path fill-rule="evenodd" clip-rule="evenodd" d="M9.32416 3.19551C8.7855 3.0416 8.2145 3.0416 7.67584 3.19551L1.58792 4.93491C0.943966 5.1189 0.5 5.70748 0.5 6.3772V19.3372C0.5 20.3337 1.45386 21.0532 2.41208 20.7795L8.5 19.0401L14.6758 20.8046C15.2145 20.9585 15.7855 20.9585 16.3242 20.8046L22.4121 19.0652C23.056 18.8812 23.5 18.2926 23.5 17.6229V4.66291C23.5 3.66634 22.5461 2.94685 21.5879 3.22063L15.5 4.96003L15.0681 4.83663C15.0619 4.83479 15.0557 4.83298 15.0494 4.8312L10.0494 3.40263C10.0431 3.40083 10.0368 3.39905 10.0305 3.39731L9.32416 3.19551ZM9.5 5.32578V17.2456L14.5 18.6742V6.75435L9.5 5.32578ZM16.5 6.75435V18.6742C16.5 18.6742 16.5 18.6743 16.5 18.6742L21.5 17.2457V5.32578L16.5 6.75435ZM7.5 17.2457C7.5 17.2458 7.5 17.2457 7.5 17.2457V5.32578L2.5 6.75435V18.6743L7.5 17.2457Z" fill="#080809" style="fill:#080809;fill:color(display-p3 0.0314 0.0314 0.0353);fill-opacity:1;"/>
</svg>
