<svg width="24" height="24" viewBox="0 0 24 24" fill="none" xmlns="http://www.w3.org/2000/svg">
<path fill-rule="evenodd" clip-rule="evenodd" d="M17.2688 3.00143C16.022 2.97781 14.9006 3.24605 13.8667 3.88616C13.188 4.30638 12.5753 4.86935 11.9998 5.56478C11.4242 4.86945 10.8113 4.30694 10.1324 3.88728C9.09829 3.24813 7.97708 2.98114 6.73101 3.00471C3.54459 3.065 0.438622 5.55948 0.500922 9.67016C0.542421 12.5472 2.06638 15.101 4.05983 17.227C6.06158 19.3618 8.63245 21.1692 10.9924 22.5692C11.6138 22.9379 12.386 22.9379 13.0075 22.5692C15.3674 21.1692 17.9383 19.3618 19.9401 17.227C21.9337 15.1009 23.4578 12.5469 23.4991 9.66971C23.5612 5.56056 20.4559 3.06181 17.2688 3.00143ZM12.8338 7.80199C13.5594 6.70571 14.2363 6.00966 14.9195 5.58662C15.5848 5.17471 16.3171 4.98376 17.2309 5.00107C19.4119 5.04239 21.5436 6.72477 21.4993 9.64014C21.4681 11.8102 20.3107 13.9079 18.4812 15.8589C16.6633 17.7976 14.2751 19.4907 11.9999 20.8415C9.72478 19.4907 7.33661 17.7976 5.51877 15.859C3.68931 13.9079 2.53189 11.811 2.50071 9.64097C2.45639 6.72586 4.58711 5.04563 6.76884 5.00435C7.68325 4.98705 8.4157 5.17743 9.08083 5.58854C9.76382 6.01069 10.4405 6.70574 11.166 7.80196C11.3512 8.08175 11.6644 8.25003 11.9999 8.25004C12.3354 8.25004 12.6486 8.08178 12.8338 7.80199Z" fill="#080809" style="fill:#080809;fill:color(display-p3 0.0314 0.0314 0.0353);fill-opacity:1;"/>
</svg>
