<svg width="24" height="24" viewBox="0 0 24 24" fill="none" xmlns="http://www.w3.org/2000/svg">
<path fill-rule="evenodd" clip-rule="evenodd" d="M14.5634 1H14.4366C12.8467 0.999981 11.5649 0.999965 10.5459 1.12041C9.49133 1.24507 8.58891 1.51052 7.82804 2.13495C7.57487 2.34272 7.34272 2.57487 7.13495 2.82804C6.51052 3.58891 6.24506 4.49133 6.12041 5.5459C5.99996 6.56488 5.99998 7.84668 6 9.43653V9.56344C5.99998 11.1533 5.99996 12.4351 6.12041 13.4541C6.24506 14.5087 6.51052 15.4111 7.13495 16.172C7.34272 16.4251 7.57487 16.6573 7.82804 16.865C8.58891 17.4895 9.49133 17.7549 10.5459 17.8796C11.5649 18 12.8467 18 14.4366 18H14.5634C16.1533 18 17.4351 18 18.4541 17.8796C19.5087 17.7549 20.4111 17.4895 21.172 16.865C21.4251 16.6573 21.6573 16.4251 21.865 16.172C22.4895 15.4111 22.7549 14.5087 22.8796 13.4541C23 12.4351 23 11.1533 23 9.56352V9.43656C23 7.84674 23 6.56487 22.8796 5.5459C22.7549 4.49133 22.4895 3.58891 21.865 2.82804C21.6573 2.57487 21.4251 2.34272 21.172 2.13495C20.4111 1.51052 19.5087 1.24507 18.4541 1.12041C17.4351 0.999965 16.1533 0.999981 14.5634 1ZM13.4961 6.63176C13.1866 6.4549 12.8064 6.45617 12.4981 6.63509C12.1898 6.81401 12 7.14353 12 7.5V11.5C12 11.8565 12.1898 12.186 12.4981 12.3649C12.8064 12.5438 13.1866 12.5451 13.4961 12.3682L16.9961 10.3682C17.3077 10.1902 17.5 9.85886 17.5 9.5C17.5 9.14114 17.3077 8.8098 16.9961 8.63176L13.4961 6.63176Z" fill="#080809" style="fill:#080809;fill:color(display-p3 0.0314 0.0314 0.0353);fill-opacity:1;"/>
<path d="M4.2071 14.2929C4.59763 14.6834 4.59763 15.3166 4.2071 15.7071L2.20711 17.7071C1.81658 18.0976 1.18342 18.0976 0.792893 17.7071C0.402369 17.3166 0.402369 16.6834 0.792893 16.2929L2.79289 14.2929C3.18342 13.9024 3.81658 13.9024 4.2071 14.2929Z" fill="#080809" style="fill:#080809;fill:color(display-p3 0.0314 0.0314 0.0353);fill-opacity:1;"/>
<path d="M6.0821 19.3321C6.47263 18.9416 6.47263 18.3084 6.0821 17.9179C5.69158 17.5274 5.05842 17.5274 4.66789 17.9179L0.792893 21.7929C0.402369 22.1834 0.402369 22.8166 0.792893 23.2071C1.18342 23.5976 1.81658 23.5976 2.20711 23.2071L6.0821 19.3321Z" fill="#080809" style="fill:#080809;fill:color(display-p3 0.0314 0.0314 0.0353);fill-opacity:1;"/>
<path d="M9.7071 21.2071C10.0976 20.8166 10.0976 20.1834 9.7071 19.7929C9.31658 19.4024 8.68342 19.4024 8.29289 19.7929L6.29289 21.7929C5.90237 22.1834 5.90237 22.8166 6.29289 23.2071C6.68342 23.5976 7.31658 23.5976 7.70711 23.2071L9.7071 21.2071Z" fill="#080809" style="fill:#080809;fill:color(display-p3 0.0314 0.0314 0.0353);fill-opacity:1;"/>
</svg>
