<svg width="24" height="24" viewBox="0 0 24 24" fill="none" xmlns="http://www.w3.org/2000/svg">
<g clip-path="url(#clip0_29901_26517)">
<path fill-rule="evenodd" clip-rule="evenodd" d="M8.86785 3.81819L3.81831 8.86773C2.86078 9.82521 2.07118 10.6148 1.53029 11.3237C0.962424 12.068 0.575314 12.8397 0.575314 13.7676C0.575314 14.6955 0.962424 15.4672 1.53029 16.2115C2.07118 16.9204 2.86076 17.7099 3.81829 18.6674L5.33232 20.1814C6.28978 21.139 7.07936 21.9286 7.78828 22.4695C8.53256 23.0373 9.30429 23.4244 10.2322 23.4244C11.16 23.4244 11.9318 23.0373 12.6761 22.4695C13.385 21.9286 14.1745 21.139 15.132 20.1815L20.1816 15.1319C21.1391 14.1744 21.9287 13.3849 22.4696 12.6759C23.0374 11.9317 23.4246 11.1599 23.4246 10.232C23.4246 9.30417 23.0374 8.53244 22.4696 7.78816C21.9287 7.07923 21.1391 6.28968 20.1815 5.33218L18.6676 3.8182C17.7101 2.86066 16.9205 2.07107 16.2116 1.53017C15.4673 0.962305 14.6956 0.575195 13.7677 0.575195C12.8398 0.575195 12.0681 0.962304 11.3238 1.53017C10.6149 2.07107 9.82534 2.86065 8.86785 3.81819ZM2.57531 13.7676C2.57531 13.4528 2.6882 13.1032 3.12034 12.5369C3.57007 11.9474 4.26243 11.252 5.28242 10.232L10.2322 5.2823C11.2522 4.26231 11.9475 3.56995 12.537 3.12022C13.1033 2.68808 13.4529 2.57519 13.7677 2.57519C14.0825 2.57519 14.4321 2.68808 14.9984 3.12022C15.1588 3.24254 15.3269 3.38281 15.5073 3.54274L3.54286 15.5072C3.38293 15.3268 3.24266 15.1586 3.12034 14.9983C2.6882 14.4319 2.57531 14.0823 2.57531 13.7676ZM5.636 17.6567L6.69663 18.7173C7.71662 19.7373 8.41198 20.4297 9.00144 20.8794C9.56782 21.3115 9.91741 21.4244 10.2322 21.4244C10.5469 21.4244 10.8965 21.3115 11.4629 20.8794C12.0524 20.4297 12.7477 19.7373 13.7677 18.7173L18.7174 13.7676C19.7374 12.7476 20.4298 12.0522 20.8795 11.4628C21.3117 10.8964 21.4246 10.5468 21.4246 10.232C21.4246 9.91729 21.3117 9.5677 20.8795 9.00132C20.4298 8.41186 19.7374 7.71651 18.7174 6.69652L17.6568 5.63588L5.636 17.6567Z" fill="#080809" style="fill:#080809;fill:color(display-p3 0.0314 0.0314 0.0353);fill-opacity:1;"/>
</g>
<defs>
<clipPath id="clip0_29901_26517">
<rect width="24" height="24" fill="white" style="fill:white;fill-opacity:1;"/>
</clipPath>
</defs>
</svg>
