<svg width="24" height="24" viewBox="0 0 24 24" fill="none" xmlns="http://www.w3.org/2000/svg">
<path fill-rule="evenodd" clip-rule="evenodd" d="M14.2709 1.92359C13.3773 -0.0135895 10.6241 -0.0135938 9.73059 1.92359L7.71266 6.29845L2.70711 1.29289C2.31658 0.902369 1.68342 0.902369 1.29289 1.29289C0.902369 1.68342 0.902369 2.31658 1.29289 2.70711C7.96372 9.37794 14.6485 16.0627 21.2929 22.7071C21.6834 23.0976 22.3166 23.0976 22.7071 22.7071C23.0976 22.3166 23.0976 21.6834 22.7071 21.2929L19.8301 18.4159L19.1471 14.9783L22.9097 11.4988C24.4759 10.0503 23.6251 7.43186 21.5066 7.18068L16.4174 6.57727L14.2709 1.92359ZM17.2854 15.8712L17.0763 14.8191C17.0086 14.4779 17.1229 14.1261 17.3782 13.89L21.5518 10.0304C21.865 9.7407 21.6949 9.21701 21.2712 9.16677L15.6261 8.49745C15.2807 8.45651 14.9814 8.23906 14.8358 7.92326L12.4548 2.76128C12.2761 2.37384 11.7254 2.37385 11.5467 2.76128L9.21993 7.80572L17.2854 15.8712Z" fill="#080809" style="fill:#080809;fill:color(display-p3 0.0314 0.0314 0.0353);fill-opacity:1;"/>
<path d="M3.32331 9.09646C3.87176 9.03143 4.26364 8.53412 4.19862 7.98567C4.13359 7.43723 3.63627 7.04535 3.08783 7.11037L2.49482 7.18068C0.376339 7.43186 -0.474455 10.0503 1.0918 11.4987L4.8544 14.9783L3.85561 20.0049C3.43985 22.0973 5.66725 23.7156 7.52878 22.6736L12.0007 20.1704L16.3243 22.5906C16.8062 22.8603 17.4156 22.6883 17.6854 22.2064C17.9551 21.7245 17.7831 21.1151 17.3012 20.8454L12.4892 18.1518C12.1857 17.9819 11.8158 17.9819 11.5123 18.1518L6.5519 20.9284C6.17959 21.1368 5.73411 20.8132 5.81727 20.3947L6.92514 14.8191C6.99292 14.4779 6.8786 14.1261 6.62326 13.89L2.4497 10.0304C2.13645 9.7407 2.30661 9.21701 2.7303 9.16677L3.32331 9.09646Z" fill="#080809" style="fill:#080809;fill:color(display-p3 0.0314 0.0314 0.0353);fill-opacity:1;"/>
</svg>
