<svg width="24" height="24" viewBox="0 0 24 24" fill="none" xmlns="http://www.w3.org/2000/svg">
<path fill-rule="evenodd" clip-rule="evenodd" d="M11.7472 1H12.2528C12.8765 1 13.4622 1 14.0088 1.00383C14.6991 1.00866 15.2548 1.57221 15.25 2.26255C15.2451 2.95289 14.6816 3.5086 13.9912 3.50377C13.4543 3.50001 12.8768 3.5 12.25 3.5H11.75C11.1232 3.5 10.5457 3.50001 10.0088 3.50377C9.31841 3.5086 8.75486 2.95289 8.75003 2.26255C8.7452 1.57221 9.30091 1.00866 9.99125 1.00383C10.5378 1 11.1235 1 11.7472 1ZM7.22752 2.27489C7.35785 2.95283 6.91393 3.60807 6.23599 3.7384C5.38352 3.90229 4.89115 4.1591 4.52513 4.52513C4.15912 4.89113 3.9023 5.38357 3.7384 6.23609C3.60807 6.91403 2.95283 7.35796 2.27489 7.22763C1.59695 7.0973 1.15303 6.44206 1.28336 5.76412C1.50928 4.58896 1.9335 3.58122 2.75736 2.75736C3.5812 1.93352 4.58881 1.50929 5.76401 1.28336C6.44195 1.15303 7.09719 1.59695 7.22752 2.27489ZM16.7725 2.27489C16.9028 1.59695 17.558 1.15303 18.236 1.28336C19.4112 1.50929 20.4188 1.93352 21.2426 2.75736C22.0665 3.58119 22.4907 4.58881 22.7166 5.76401C22.847 6.44195 22.403 7.09719 21.7251 7.22752C21.0472 7.35785 20.3919 6.91393 20.2616 6.23599C20.0977 5.38352 19.8409 4.89116 19.4749 4.52513C19.1088 4.1591 18.6165 3.90229 17.764 3.7384C17.0861 3.60807 16.6421 2.95283 16.7725 2.27489ZM2.26255 8.75003C2.95289 8.75486 3.5086 9.31841 3.50377 10.0088C3.50001 10.5457 3.5 11.1232 3.5 11.75V12.25C3.5 12.8768 3.50001 13.4543 3.50377 13.9912C3.5086 14.6816 2.95289 15.2451 2.26255 15.25C1.57221 15.2548 1.00866 14.6991 1.00383 14.0088C1 13.4622 1 12.8765 1 12.2528V11.7472C1 11.1235 1 10.5378 1.00383 9.99125C1.00866 9.30091 1.57221 8.7452 2.26255 8.75003ZM21.7375 8.75003C22.4278 8.7452 22.9913 9.30091 22.9962 9.99125C23 10.5378 23 11.1235 23 11.7472V12.2528C23 12.8765 23 13.4622 22.9962 14.0088C22.9913 14.6991 22.4278 15.2548 21.7375 15.25C21.0471 15.2451 20.4914 14.6816 20.4962 13.9912C20.5 13.4543 20.5 12.8768 20.5 12.25V11.75C20.5 11.1232 20.5 10.5457 20.4962 10.0088C20.4914 9.31841 21.0471 8.75486 21.7375 8.75003ZM2.27489 16.7725C2.95283 16.6421 3.60807 17.0861 3.7384 17.764C3.90229 18.6165 4.1591 19.1088 4.52513 19.4749C4.89115 19.8409 5.38352 20.0977 6.23599 20.2616C6.91393 20.3919 7.35785 21.0472 7.22752 21.7251C7.09719 22.403 6.44195 22.847 5.76401 22.7166C4.58881 22.4907 3.5812 22.0665 2.75736 21.2426C1.93352 20.4188 1.50929 19.4112 1.28336 18.236C1.15303 17.558 1.59695 16.9028 2.27489 16.7725ZM21.7251 16.7725C22.403 16.9028 22.847 17.558 22.7166 18.236C22.4907 19.4112 22.0665 20.4188 21.2426 21.2426C20.4188 22.0665 19.4112 22.4907 18.236 22.7166C17.558 22.847 16.9028 22.403 16.7725 21.7251C16.6421 21.0472 17.0861 20.3919 17.764 20.2616C18.6165 20.0977 19.1088 19.8409 19.4749 19.4749C19.8409 19.1088 20.0977 18.6165 20.2616 17.764C20.3919 17.0861 21.0472 16.6421 21.7251 16.7725ZM8.75003 21.7375C8.75486 21.0471 9.31841 20.4914 10.0088 20.4962C10.5457 20.5 11.1232 20.5 11.75 20.5H12.25C12.8768 20.5 13.4543 20.5 13.9912 20.4962C14.6816 20.4914 15.2451 21.0471 15.25 21.7375C15.2548 22.4278 14.6991 22.9913 14.0088 22.9962C13.4622 23 12.8765 23 12.2528 23H11.7472C11.1235 23 10.5378 23 9.99125 22.9962C9.30091 22.9913 8.7452 22.4278 8.75003 21.7375Z" fill="#080809" style="fill:#080809;fill:color(display-p3 0.0314 0.0314 0.0353);fill-opacity:1;"/>
</svg>
