<svg width="24" height="24" viewBox="0 0 24 24" fill="none" xmlns="http://www.w3.org/2000/svg">
<g clip-path="url(#clip0_29901_26302)">
<path fill-rule="evenodd" clip-rule="evenodd" d="M18.7641 14.8713C19.0556 13.9969 18.4969 13.0689 17.5877 12.9174L16.1105 12.6712C13.3892 12.2177 10.6117 12.2177 7.8905 12.6712L6.41326 12.9174C5.50407 13.0689 4.94536 13.9969 5.23683 14.8713L5.35969 15.2399C7.48698 21.6218 16.514 21.6218 18.6413 15.2399L18.7641 14.8713ZM15.7817 14.644L16.6783 14.7934C15.0703 19.104 8.93062 19.104 7.32269 14.7934L8.2193 14.644C10.7228 14.2267 13.2781 14.2267 15.7817 14.644Z" fill="#080809" style="fill:#080809;fill:color(display-p3 0.0314 0.0314 0.0353);fill-opacity:1;"/>
<path d="M16 8.5C15.4477 8.5 15 8.94771 15 9.5C15 10.0523 14.5523 10.5 14 10.5C13.4477 10.5 13 10.0523 13 9.5C13 7.84315 14.3431 6.5 16 6.5C17.6569 6.5 19 7.84315 19 9.5C19 10.0523 18.5523 10.5 18 10.5C17.4477 10.5 17 10.0523 17 9.5C17 8.94771 16.5523 8.5 16 8.5Z" fill="#080809" style="fill:#080809;fill:color(display-p3 0.0314 0.0314 0.0353);fill-opacity:1;"/>
<path d="M7 9.5C7 8.94771 7.44772 8.5 8 8.5C8.55228 8.5 9 8.94771 9 9.5C9 10.0523 9.44772 10.5 10 10.5C10.5523 10.5 11 10.0523 11 9.5C11 7.84315 9.65685 6.5 8 6.5C6.34315 6.5 5 7.84315 5 9.5C5 10.0523 5.44772 10.5 6 10.5C6.55228 10.5 7 10.0523 7 9.5Z" fill="#080809" style="fill:#080809;fill:color(display-p3 0.0314 0.0314 0.0353);fill-opacity:1;"/>
<path fill-rule="evenodd" clip-rule="evenodd" d="M12 0.5C5.64873 0.5 0.5 5.64873 0.5 12C0.5 18.3513 5.64873 23.5 12 23.5C18.3513 23.5 23.5 18.3513 23.5 12C23.5 5.64873 18.3513 0.5 12 0.5ZM2.5 12C2.5 6.75329 6.75329 2.5 12 2.5C17.2467 2.5 21.5 6.75329 21.5 12C21.5 17.2467 17.2467 21.5 12 21.5C6.75329 21.5 2.5 17.2467 2.5 12Z" fill="#080809" style="fill:#080809;fill:color(display-p3 0.0314 0.0314 0.0353);fill-opacity:1;"/>
</g>
<defs>
<clipPath id="clip0_29901_26302">
<rect width="24" height="24" fill="white" style="fill:white;fill-opacity:1;"/>
</clipPath>
</defs>
</svg>
