<svg width="24" height="24" viewBox="0 0 24 24" fill="none" xmlns="http://www.w3.org/2000/svg">
<path d="M15 11.2501H15.438C14.8594 9.92561 13.5378 9 12 9C11.1312 9 10.334 9.29419 9.69855 9.78901C9.26279 10.1283 8.63447 10.0501 8.29516 9.61438C7.95585 9.17862 8.03403 8.5503 8.46979 8.21099C9.44402 7.45239 10.6706 7 12 7C14.6567 7 16.8926 8.8018 17.5524 11.2501H18C18.4045 11.2501 18.7691 11.4937 18.9239 11.8674C19.0787 12.2411 18.9931 12.6712 18.7071 12.9572L17.5607 14.1036C16.9749 14.6894 16.0252 14.6894 15.4394 14.1036L14.2929 12.9572C14.0069 12.6712 13.9214 12.2411 14.0762 11.8674C14.2309 11.4937 14.5956 11.2501 15 11.2501Z" fill="#080809" style="fill:#080809;fill:color(display-p3 0.0314 0.0314 0.0353);fill-opacity:1;"/>
<path d="M6.00003 14.2499H6.4476C7.10735 16.6982 9.34326 18.5 12 18.5C13.3294 18.5 14.556 18.0476 15.5302 17.289C15.966 16.9497 16.0442 16.3214 15.7048 15.8856C15.3655 15.4499 14.7372 15.3717 14.3015 15.711C13.666 16.2058 12.8688 16.5 12 16.5C10.4622 16.5 9.14065 15.5744 8.562 14.2499H9.00003C9.40449 14.2499 9.76913 14.0063 9.92391 13.6326C10.0787 13.2589 9.99313 12.8288 9.70714 12.5428L8.56069 11.3964C7.9749 10.8106 7.02516 10.8106 6.43937 11.3964L5.29292 12.5428C5.00693 12.8288 4.92137 13.2589 5.07615 13.6326C5.23093 14.0063 5.59557 14.2499 6.00003 14.2499Z" fill="#080809" style="fill:#080809;fill:color(display-p3 0.0314 0.0314 0.0353);fill-opacity:1;"/>
<path fill-rule="evenodd" clip-rule="evenodd" d="M10.6569 2.00028L10.518 2.00014C9.83923 1.9991 9.23679 1.99817 8.68038 2.22864C8.12397 2.45911 7.69864 2.88576 7.21938 3.36649L7.12132 3.46475L6.58579 4.00028C5.62887 4.00026 4.83883 4.00045 4.19922 4.06254C3.53109 4.12739 2.92234 4.26711 2.37013 4.61448C1.86266 4.93371 1.43343 5.36293 1.1142 5.87041C0.766829 6.42262 0.627118 7.03136 0.562263 7.69949C0.499971 8.34121 0.499985 9.13435 0.500001 10.0955V15.0709C0.499967 16.425 0.499939 17.5416 0.618756 18.4253C0.743499 19.3532 1.01547 20.1726 1.67158 20.8287C2.32769 21.4848 3.14711 21.7568 4.07494 21.8815C4.9587 22.0003 6.07531 22.0003 7.42944 22.0003H16.5705C17.9247 22.0003 19.0413 22.0003 19.9251 21.8815C20.8529 21.7568 21.6723 21.4848 22.3284 20.8287C22.9845 20.1726 23.2565 19.3532 23.3813 18.4253C23.5001 17.5416 23.5 16.425 23.5 15.0708V10.0956C23.5 9.13437 23.5 8.34122 23.4377 7.69949C23.3729 7.03136 23.2332 6.42262 22.8858 5.87041C22.5666 5.36293 22.1374 4.93371 21.6299 4.61448C21.0777 4.26711 20.4689 4.12739 19.8008 4.06254C19.1612 4.00045 18.3711 4.00026 17.4142 4.00028L16.8787 3.46475L16.7806 3.36648C16.3014 2.88576 15.876 2.45911 15.3196 2.22864C14.7632 1.99817 14.1608 1.9991 13.482 2.00014L13.3431 2.00028H10.6569ZM9.44575 4.0764C9.58679 4.01798 9.75776 4.00028 10.6569 4.00028H13.3431C14.2422 4.00028 14.4132 4.01798 14.5543 4.0764C14.6953 4.13482 14.8287 4.2432 15.4645 4.87896L16.0417 5.45624L16.0618 5.47649C16.1352 5.55113 16.2874 5.70591 16.4819 5.8133C16.58 5.86748 16.6838 5.9105 16.7915 5.94155C17.0049 6.00309 17.222 6.00131 17.3267 6.00045L17.3552 6.00028C18.3783 6.00028 19.0739 6.00138 19.6076 6.05318C20.1258 6.10349 20.3849 6.1941 20.5649 6.30738C20.8187 6.467 21.0333 6.68161 21.1929 6.93534C21.3062 7.11541 21.3968 7.37447 21.4471 7.89273C21.4989 8.42639 21.5 9.12199 21.5 10.1451V15.0003C21.5 16.4428 21.4979 17.424 21.3991 18.1588C21.3042 18.8649 21.1368 19.1919 20.9142 19.4145C20.6916 19.6371 20.3646 19.8044 19.6586 19.8994C18.9238 19.9982 17.9425 20.0003 16.5 20.0003H7.5C6.05752 20.0003 5.07626 19.9982 4.34144 19.8994C3.63538 19.8044 3.30836 19.6371 3.08579 19.4145C2.86322 19.1919 2.69585 18.8649 2.60092 18.1588C2.50213 17.424 2.5 16.4428 2.5 15.0003V10.1451C2.5 9.12199 2.5011 8.42639 2.55291 7.89273C2.60321 7.37447 2.69383 7.11541 2.8071 6.93534C2.96672 6.68161 3.18133 6.467 3.43507 6.30738C3.61514 6.1941 3.87419 6.10349 4.39245 6.05318C4.92612 6.00138 5.62172 6.00028 6.64483 6.00028L6.6733 6.00045C6.77799 6.00131 6.9951 6.00309 7.20852 5.94155C7.31619 5.9105 7.42005 5.86748 7.51814 5.8133C7.71256 5.70591 7.86482 5.55113 7.93824 5.47649L7.95826 5.45624L8.53554 4.87896C9.17129 4.2432 9.30471 4.13482 9.44575 4.0764Z" fill="#080809" style="fill:#080809;fill:color(display-p3 0.0314 0.0314 0.0353);fill-opacity:1;"/>
</svg>
