<svg width="24" height="24" viewBox="0 0 24 24" fill="none" xmlns="http://www.w3.org/2000/svg">
<path fill-rule="evenodd" clip-rule="evenodd" d="M12 3.5C9.79086 3.5 8 5.29086 8 7.5C8 9.70914 9.79086 11.5 12 11.5C14.2091 11.5 16 9.70914 16 7.5C16 5.29086 14.2091 3.5 12 3.5ZM10 7.5C10 6.39543 10.8954 5.5 12 5.5C13.1046 5.5 14 6.39543 14 7.5C14 8.60457 13.1046 9.5 12 9.5C10.8954 9.5 10 8.60457 10 7.5Z" fill="#080809" style="fill:#080809;fill:color(display-p3 0.0314 0.0314 0.0353);fill-opacity:1;"/>
<path fill-rule="evenodd" clip-rule="evenodd" d="M10.75 13C8.12665 13 6 15.1266 6 17.75C6 19.5449 7.45508 21 9.25 21H14.75C16.5449 21 18 19.5449 18 17.75C18 15.1266 15.8734 13 13.25 13H10.75ZM8 17.75C8 16.2312 9.23122 15 10.75 15H13.25C14.7688 15 16 16.2312 16 17.75C16 18.4404 15.4404 19 14.75 19H9.25C8.55964 19 8 18.4404 8 17.75Z" fill="#080809" style="fill:#080809;fill:color(display-p3 0.0314 0.0314 0.0353);fill-opacity:1;"/>
<path fill-rule="evenodd" clip-rule="evenodd" d="M16.75 9.75C16.75 7.95507 18.2051 6.5 20 6.5C21.7949 6.5 23.25 7.95507 23.25 9.75C23.25 11.5449 21.7949 13 20 13C18.2051 13 16.75 11.5449 16.75 9.75ZM20 8.5C19.3096 8.5 18.75 9.05964 18.75 9.75C18.75 10.4404 19.3096 11 20 11C20.6904 11 21.25 10.4404 21.25 9.75C21.25 9.05964 20.6904 8.5 20 8.5Z" fill="#080809" style="fill:#080809;fill:color(display-p3 0.0314 0.0314 0.0353);fill-opacity:1;"/>
<path d="M20 14.5C19.4477 14.5 19 14.9477 19 15.5C19 16.0523 19.4477 16.5 20 16.5H20.3C21.2389 16.5 22 17.2611 22 18.2C22 18.6418 21.6418 19 21.2 19H20C19.4477 19 19 19.4477 19 20C19 20.5523 19.4477 21 20 21H21.2C22.7464 21 24 19.7464 24 18.2C24 16.1565 22.3435 14.5 20.3 14.5H20Z" fill="#080809" style="fill:#080809;fill:color(display-p3 0.0314 0.0314 0.0353);fill-opacity:1;"/>
<path fill-rule="evenodd" clip-rule="evenodd" d="M7.25 9.75C7.25 7.95507 5.79493 6.5 4 6.5C2.20507 6.5 0.75 7.95507 0.75 9.75C0.75 11.5449 2.20507 13 4 13C5.79493 13 7.25 11.5449 7.25 9.75ZM4 8.5C4.69036 8.5 5.25 9.05964 5.25 9.75C5.25 10.4404 4.69036 11 4 11C3.30964 11 2.75 10.4404 2.75 9.75C2.75 9.05964 3.30964 8.5 4 8.5Z" fill="#080809" style="fill:#080809;fill:color(display-p3 0.0314 0.0314 0.0353);fill-opacity:1;"/>
<path d="M4 14.5C4.55228 14.5 5 14.9477 5 15.5C5 16.0523 4.55228 16.5 4 16.5H3.7C2.76112 16.5 2 17.2611 2 18.2C2 18.6418 2.35817 19 2.8 19H4C4.55228 19 5 19.4477 5 20C5 20.5523 4.55228 21 4 21H2.8C1.2536 21 0 19.7464 0 18.2C0 16.1565 1.65655 14.5 3.7 14.5H4Z" fill="#080809" style="fill:#080809;fill:color(display-p3 0.0314 0.0314 0.0353);fill-opacity:1;"/>
</svg>
