<svg width="24" height="24" viewBox="0 0 24 24" fill="none" xmlns="http://www.w3.org/2000/svg">
<path d="M17.5 8.5C16.3955 8.5 15.5 7.60457 15.5 6.5C15.5 5.39543 16.3955 4.5 17.5 4.5C18.6046 4.5 19.5 5.39543 19.5 6.5C19.5 7.60457 18.6046 8.5 17.5 8.5Z" fill="#080809" style="fill:#080809;fill:color(display-p3 0.0314 0.0314 0.0353);fill-opacity:1;"/>
<path d="M9.07604 10.616C9.23116 10.243 9.59543 10 9.99936 10C10.4033 10 10.7676 10.243 10.9227 10.616L11.4816 11.9598L12.9324 12.0761C13.3351 12.1084 13.6788 12.3798 13.8036 12.7639C13.9284 13.1481 13.8099 13.5696 13.5031 13.8324L12.3977 14.7793L12.7354 16.195C12.8292 16.5879 12.6773 16.9986 12.3505 17.2361C12.0237 17.4735 11.5862 17.491 11.2415 17.2805L9.99936 16.5218L8.75726 17.2805C8.41255 17.491 7.97501 17.4735 7.64822 17.2361C7.32143 16.9986 7.16957 16.5879 7.2633 16.195L7.60101 14.7793L6.49564 13.8324C6.18887 13.5696 6.07031 13.1481 6.19514 12.7639C6.31996 12.3798 6.66364 12.1084 7.06628 12.0761L8.5171 11.9598L9.07604 10.616Z" fill="#080809" style="fill:#080809;fill:color(display-p3 0.0314 0.0314 0.0353);fill-opacity:1;"/>
<path fill-rule="evenodd" clip-rule="evenodd" d="M20.5 1C21.8807 1 23 2.11929 23 3.5V10.7574C23 11.8182 22.5786 12.8356 21.8285 13.5858L13.0785 22.3358C11.5164 23.8979 8.98371 23.8979 7.42161 22.3358L1.66425 16.5784C0.102151 15.0163 0.102153 12.4837 1.66425 10.9216L10.4142 2.17157C11.1644 1.42143 12.1818 1 13.2427 1H20.5ZM21 3.5C21 3.22386 20.7762 3 20.5 3H13.2427C12.7122 3 12.2035 3.21071 11.8285 3.58579L3.07846 12.3358C2.29741 13.1168 2.29741 14.3832 3.07846 15.1642L8.83582 20.9216C9.61687 21.7026 10.8832 21.7026 11.6642 20.9216L20.4142 12.1716C20.7893 11.7965 21 11.2878 21 10.7574V3.5Z" fill="#080809" style="fill:#080809;fill:color(display-p3 0.0314 0.0314 0.0353);fill-opacity:1;"/>
</svg>
