<svg width="24" height="24" viewBox="0 0 24 24" fill="none" xmlns="http://www.w3.org/2000/svg">
<path fill-rule="evenodd" clip-rule="evenodd" d="M12 3C13.8573 3 15.3511 2.99779 16.5225 3.15528C17.7226 3.31664 18.7326 3.66232 19.5352 4.46485C20.3377 5.26737 20.6834 6.27745 20.8447 7.47754C21.0022 8.64892 21 10.1427 21 12C21 13.8573 21.0022 15.3511 20.8447 16.5225C20.6834 17.7226 20.3377 18.7326 19.5352 19.5352C18.7326 20.3377 17.7226 20.6834 16.5225 20.8447C15.3511 21.0022 13.8573 21 12 21C10.1427 21 8.64892 21.0022 7.47754 20.8447C6.27745 20.6834 5.26737 20.3377 4.46485 19.5352C3.66232 18.7326 3.31664 17.7226 3.15528 16.5225C2.99779 15.3511 3 13.8573 3 12C3 10.1427 2.99779 8.64892 3.15528 7.47754C3.31664 6.27745 3.66232 5.26737 4.46485 4.46485C5.26737 3.66232 6.27745 3.31664 7.47754 3.15528C8.64892 2.99779 10.1427 3 12 3ZM9.25 7.75C8.98479 7.75 8.73051 7.85543 8.54297 8.04297C8.35547 8.2305 8.25 8.48482 8.25 8.75V15.25L8.25488 15.3525C8.30626 15.8566 8.73237 16.25 9.25 16.25C9.28629 16.25 9.32213 16.2479 9.35742 16.2441L14.749 16.25L14.8516 16.2451C15.3555 16.1943 15.7492 15.7694 15.75 15.252C15.7506 14.7342 15.3576 14.3077 14.8535 14.2559L14.751 14.251L10.25 14.2451V12.998H13.75L13.8525 12.9932C14.3567 12.9419 14.7499 12.5157 14.75 11.998C14.75 11.4803 14.3567 11.0542 13.8525 11.0029L13.75 10.998H10.25V9.75H14.75C15.3023 9.75 15.75 9.30224 15.75 8.75C15.75 8.19772 15.3023 7.75 14.75 7.75H9.25Z" fill="#080809" style="fill:#080809;fill:color(display-p3 0.0314 0.0314 0.0353);fill-opacity:1;"/>
</svg>
