<svg width="24" height="24" viewBox="0 0 24 24" fill="none" xmlns="http://www.w3.org/2000/svg">
<path fill-rule="evenodd" clip-rule="evenodd" d="M19 4.80303C19 2.80629 16.7746 1.61532 15.1132 2.72291L10.203 5.99641C9.7102 6.32494 9.13118 6.50026 8.5389 6.50026L5 6.50025C2.51472 6.50025 0.5 8.51497 0.5 11.0003C0.5 12.7004 1.44285 14.1804 2.83419 14.9457L4.23532 20.1499C4.52919 21.2415 5.51896 22 6.64936 22H6.99979C8.3805 22 9.49979 20.8807 9.49979 19.5V15.6583C9.74699 15.7419 9.98354 15.8578 10.203 16.0041L15.1133 19.2776C16.7746 20.3852 19 19.1942 19 17.1975V4.80303ZM6.16655 19.63L5.0547 15.5003H7.49979V19.5C7.49979 19.7761 7.27593 20 6.99979 20H6.64936C6.42328 20 6.22533 19.8483 6.16655 19.63ZM16.2226 4.38701C16.5549 4.16549 17 4.40368 17 4.80303V17.1975C17 17.5968 16.5549 17.835 16.2226 17.6135L11.3124 14.34C10.491 13.7924 9.52601 13.5003 8.53888 13.5003H5C3.61929 13.5003 2.5 12.381 2.5 11.0003C2.5 9.61954 3.61929 8.50025 5 8.50025L8.5389 8.50026C9.52602 8.50026 10.4911 8.20807 11.3124 7.66051L16.2226 4.38701Z" fill="#080809" style="fill:#080809;fill:color(display-p3 0.0314 0.0314 0.0353);fill-opacity:1;"/>
<path d="M21 10C20.4477 10 20 10.4477 20 11C20 11.5523 20.4477 12 21 12H22.5C23.0523 12 23.5 11.5523 23.5 11C23.5 10.4477 23.0523 10 22.5 10H21Z" fill="#080809" style="fill:#080809;fill:color(display-p3 0.0314 0.0314 0.0353);fill-opacity:1;"/>
<path d="M20.1684 7.0547C19.862 6.59517 19.9862 5.9743 20.4457 5.66795L21.4457 5.00128C21.9053 4.69493 22.5261 4.8191 22.8325 5.27863C23.1388 5.73816 23.0147 6.35903 22.5551 6.66538L21.5551 7.33205C21.0956 7.6384 20.4747 7.51423 20.1684 7.0547Z" fill="#080809" style="fill:#080809;fill:color(display-p3 0.0314 0.0314 0.0353);fill-opacity:1;"/>
<path d="M21.555 14.6681C21.0955 14.3618 20.4746 14.4859 20.1682 14.9455C19.8619 15.405 19.9861 16.0259 20.4456 16.3322L21.4456 16.9989C21.9051 17.3052 22.526 17.1811 22.8323 16.7215C23.1387 16.262 23.0145 15.6411 22.555 15.3348L21.555 14.6681Z" fill="#080809" style="fill:#080809;fill:color(display-p3 0.0314 0.0314 0.0353);fill-opacity:1;"/>
</svg>
