<svg width="24" height="24" viewBox="0 0 24 24" fill="none" xmlns="http://www.w3.org/2000/svg">
<path d="M17.6196 22.8075C16.389 22.973 14.8653 22.9959 13 22.999V12.9995H22.9995C22.9964 14.8648 22.9735 16.3885 22.808 17.6191C22.6101 19.0916 22.1916 20.2931 21.2426 21.2421C20.2936 22.1911 19.0921 22.6096 17.6196 22.8075Z" fill="#080809" style="fill:#080809;fill:color(display-p3 0.0314 0.0314 0.0353);fill-opacity:1;"/>
<path d="M22.9995 10.9995H13V1C14.8653 1.00315 16.389 1.02603 17.6196 1.19148C19.0921 1.38944 20.2936 1.80786 21.2426 2.75686C22.1916 3.70586 22.6101 4.90744 22.808 6.37989C22.9735 7.61049 22.9964 9.13423 22.9995 10.9995Z" fill="#080809" style="fill:#080809;fill:color(display-p3 0.0314 0.0314 0.0353);fill-opacity:1;"/>
<path d="M6.3804 1.19148C7.61098 1.02603 9.13473 1.00315 11 1V22.999C9.13473 22.9959 7.61099 22.973 6.3804 22.8075C4.90794 22.6096 3.70636 22.1911 2.75736 21.2421C1.80836 20.2931 1.38994 19.0916 1.19198 17.6191C0.999962 16.1909 0.999979 14.3679 1 12.0743V11.9247C0.999979 9.63115 0.999962 7.80809 1.19198 6.37989C1.38994 4.90744 1.80836 3.70586 2.75736 2.75686C3.70636 1.80786 4.90794 1.38944 6.3804 1.19148Z" fill="#080809" style="fill:#080809;fill:color(display-p3 0.0314 0.0314 0.0353);fill-opacity:1;"/>
</svg>
