<svg width="24" height="24" viewBox="0 0 24 24" fill="none" xmlns="http://www.w3.org/2000/svg">
<path fill-rule="evenodd" clip-rule="evenodd" d="M21.4396 0.5C20.7097 0.5 20.0164 0.81891 19.5414 1.37303L17.2897 4H7.65563C6.66267 4 5.94578 4.9504 6.21857 5.90515C6.82652 8.03299 8.77139 9.5 10.9844 9.5H12.9102C14.3699 9.5 15.7566 8.86219 16.7065 7.75396L18.5092 5.65079L18.5228 5.6346L21.0599 2.67461C21.1549 2.56378 21.2936 2.5 21.4396 2.5H22.4997C23.0519 2.5 23.4997 2.05228 23.4997 1.5C23.4997 0.947715 23.0519 0.5 22.4997 0.5H21.4396ZM15.5755 6L15.4904 6.09921L15.477 6.11516L15.188 6.45237C14.6181 7.11731 13.786 7.5 12.9102 7.5H10.9844C9.90196 7.5 8.92709 6.91162 8.41125 6H15.5755Z" fill="#080809" style="fill:#080809;fill:color(display-p3 0.0314 0.0314 0.0353);fill-opacity:1;"/>
<path fill-rule="evenodd" clip-rule="evenodd" d="M0.5 13.5C0.5 12.1193 1.61929 11 3 11H21C22.3807 11 23.5 12.1193 23.5 13.5V14C23.5 18.9706 19.4706 23 14.5 23H9.5C4.52944 23 0.5 18.9706 0.5 14V13.5ZM3 13C2.72386 13 2.5 13.2239 2.5 13.5V14C2.5 14.1681 2.50593 14.3348 2.51758 14.5H21.4824C21.4941 14.3348 21.5 14.1681 21.5 14V13.5C21.5 13.2239 21.2761 13 21 13H3ZM21.0404 16.5H2.95963C3.96605 19.1314 6.5148 21 9.5 21H14.5C17.4852 21 20.0339 19.1314 21.0404 16.5Z" fill="#080809" style="fill:#080809;fill:color(display-p3 0.0314 0.0314 0.0353);fill-opacity:1;"/>
</svg>
