<svg width="24" height="24" viewBox="0 0 24 24" fill="none" xmlns="http://www.w3.org/2000/svg">
<path d="M17.5 4.50001C18.0523 4.50001 18.5 4.05229 18.5 3.50001C18.5 2.94772 18.0523 2.50001 17.5 2.50001L7.42943 2.5C6.07533 2.49997 4.95869 2.49994 4.07494 2.61876C3.14711 2.7435 2.32769 3.01547 1.67158 3.67158C1.01547 4.32768 0.743499 5.14711 0.618754 6.07494C0.499938 6.95869 0.499967 8.07529 0.500001 9.42939L0.500004 16C0.500004 16.5523 0.947717 17 1.5 17C2.05229 17 2.5 16.5523 2.5 16L2.5 9.5C2.5 8.05752 2.50213 7.07626 2.60092 6.34144C2.69585 5.63538 2.86322 5.30836 3.08579 5.08579C3.30836 4.86322 3.63538 4.69585 4.34144 4.60092C5.07626 4.50213 6.05752 4.5 7.5 4.5L17.5 4.50001Z" fill="#080809" style="fill:#080809;fill:color(display-p3 0.0314 0.0314 0.0353);fill-opacity:1;"/>
<path d="M14 10C13.4477 10 13 10.4477 13 11C13 11.5523 13.4477 12 14 12H18.5C19.0523 12 19.5 11.5523 19.5 11C19.5 10.4477 19.0523 10 18.5 10H14Z" fill="#080809" style="fill:#080809;fill:color(display-p3 0.0314 0.0314 0.0353);fill-opacity:1;"/>
<path d="M9.50001 12.5C10.3284 12.5 11 11.8284 11 11C11 10.1716 10.3284 9.5 9.50001 9.5C8.67158 9.5 8.00001 10.1716 8.00001 11C8.00001 11.8284 8.67158 12.5 9.50001 12.5Z" fill="#080809" style="fill:#080809;fill:color(display-p3 0.0314 0.0314 0.0353);fill-opacity:1;"/>
<path fill-rule="evenodd" clip-rule="evenodd" d="M23.5 15.0706V12.9294C23.5 11.5753 23.5001 10.4587 23.3813 9.57494C23.2565 8.64711 22.9845 7.82769 22.3284 7.17158C21.6723 6.51547 20.8529 6.2435 19.9251 6.11876C19.0413 5.99994 17.9247 5.99997 16.5706 6H10.9294C9.57533 5.99997 8.45869 5.99994 7.57494 6.11876C6.64711 6.2435 5.82769 6.51547 5.17158 7.17158C4.51547 7.82769 4.2435 8.64711 4.11876 9.57494C3.99994 10.4587 3.99997 11.5753 4 12.9294V15.0706C3.99997 16.4247 3.99994 17.5413 4.11876 18.4251C4.2435 19.3529 4.51547 20.1723 5.17158 20.8284C5.82769 21.4845 6.64711 21.7565 7.57494 21.8813C8.45868 22.0001 9.57527 22 10.9294 22H16.5706C17.9247 22 19.0413 22.0001 19.9251 21.8813C20.8529 21.7565 21.6723 21.4845 22.3284 20.8284C22.9845 20.1723 23.2565 19.3529 23.3813 18.4251C23.5001 17.5413 23.5 16.4247 23.5 15.0706ZM20.9142 8.58579C21.1368 8.80836 21.3042 9.13538 21.3991 9.84144C21.4979 10.5763 21.5 11.5575 21.5 13V14H6.00001V13C6.00001 11.5575 6.00213 10.5763 6.10092 9.84144C6.19585 9.13538 6.36322 8.80836 6.58579 8.58579C6.80836 8.36322 7.13538 8.19585 7.84144 8.10092C8.57626 8.00213 9.55752 8 11 8H16.5C17.9425 8 18.9238 8.00213 19.6586 8.10092C20.3646 8.19585 20.6916 8.36322 20.9142 8.58579ZM6.10092 18.1586C6.02686 17.6077 6.00713 16.9183 6.00189 16H21.4981C21.4929 16.9183 21.4731 17.6077 21.3991 18.1586C21.3042 18.8646 21.1368 19.1916 20.9142 19.4142C20.6916 19.6368 20.3646 19.8042 19.6586 19.8991C18.9238 19.9979 17.9425 20 16.5 20H11C9.55752 20 8.57626 19.9979 7.84144 19.8991C7.13538 19.8042 6.80836 19.6368 6.58579 19.4142C6.36322 19.1916 6.19585 18.8646 6.10092 18.1586Z" fill="#080809" style="fill:#080809;fill:color(display-p3 0.0314 0.0314 0.0353);fill-opacity:1;"/>
</svg>
