<svg width="24" height="24" viewBox="0 0 24 24" fill="none" xmlns="http://www.w3.org/2000/svg">
<path fill-rule="evenodd" clip-rule="evenodd" d="M9.57317 3H9.42684C7.6034 2.99997 6.13362 2.99995 4.97767 3.15537C3.77752 3.31672 2.76702 3.66191 1.96447 4.46447C1.16191 5.26702 0.816722 6.27752 0.655367 7.47767C0.499954 8.63362 0.499975 10.1034 0.500001 11.9268V12.0732C0.499975 13.8966 0.499954 15.3664 0.655367 16.5223C0.816722 17.7225 1.16191 18.733 1.96447 19.5355C2.76702 20.3381 3.77752 20.6833 4.97767 20.8446C6.13363 21.0001 7.6034 21 9.42687 21H9.57314C11.3966 21 12.8664 21.0001 14.0223 20.8446C15.2225 20.6833 16.233 20.3381 17.0355 19.5355C17.8381 18.733 18.1833 17.7225 18.3446 16.5223C18.3961 16.1392 18.4306 15.7217 18.4536 15.2682L21.1119 17.2212C22.1025 17.9491 23.5 17.2417 23.5 16.0124V7.95572C23.5 6.745 22.1396 6.03313 21.1449 6.72334L18.4463 8.59583C18.4235 8.19453 18.391 7.82217 18.3446 7.47767C18.1833 6.27752 17.8381 5.26702 17.0355 4.46447C16.233 3.66191 15.2225 3.31672 14.0223 3.15537C12.8664 2.99995 11.3966 2.99997 9.57317 3ZM9.5 7.0001C10.0523 7.0001 10.5 7.44781 10.5 8.0001V11H13.5C14.0523 11 14.5 11.4477 14.5 12C14.5 12.5523 14.0523 13 13.5 13H10.5V16.0001C10.5 16.5524 10.0523 17.0001 9.5 17.0001C8.94772 17.0001 8.5 16.5524 8.5 16.0001V13H5.5C4.94772 13 4.5 12.5523 4.5 12C4.5 11.4477 4.94772 11 5.5 11H8.5V8.0001C8.5 7.44781 8.94772 7.0001 9.5 7.0001Z" fill="#080809" style="fill:#080809;fill:color(display-p3 0.0314 0.0314 0.0353);fill-opacity:1;"/>
</svg>
