<svg width="24" height="24" viewBox="0 0 24 24" fill="none" xmlns="http://www.w3.org/2000/svg">
<g clip-path="url(#clip0_29901_26404)">
<path fill-rule="evenodd" clip-rule="evenodd" d="M4.60581 3.1916C6.60436 1.51252 9.18452 0.5 11.9995 0.5C18.3508 0.5 23.4995 5.64873 23.4995 12C23.4995 14.8152 22.487 17.3952 20.8079 19.3937L22.7071 21.2929C23.0976 21.6834 23.0976 22.3166 22.7071 22.7071C22.3166 23.0976 21.6834 23.0976 21.2929 22.7071L1.29289 2.70711C0.902369 2.31658 0.902369 1.68342 1.29289 1.29289C1.68342 0.902369 2.31658 0.902369 2.70711 1.29289L4.60581 3.1916ZM6.02645 4.61223C7.65873 3.2906 9.73605 2.5 11.9995 2.5C17.2463 2.5 21.4995 6.75329 21.4995 12C21.4995 14.2634 20.709 16.3408 19.3873 17.9731L17.0708 15.6566C17.7534 15.3986 18.3662 15.0837 18.8785 14.7156C19.7709 14.0742 20.5 13.1572 20.5 12C20.5 10.4142 19.1621 9.28904 17.7262 8.61894C17.2059 8.37614 16.6258 8.16828 16.0001 7.99994C15.8317 7.37419 15.6239 6.7941 15.3811 6.27381C14.711 4.8379 13.5858 3.5 12 3.5C10.8428 3.5 9.92582 4.22912 9.28445 5.12153C8.9163 5.63376 8.60142 6.24664 8.34342 6.92921L6.02645 4.61223ZM10.9505 9.53627L14.4637 13.0495C14.4876 12.708 14.5 12.3575 14.5 12C14.5 11.1792 14.4346 10.3995 14.3174 9.68256C13.6005 9.56543 12.8208 9.5 12 9.5C11.6425 9.5 11.292 9.51243 10.9505 9.53627ZM12 7.5C11.3941 7.5 10.8022 7.5316 10.2312 7.59196C10.4328 7.06771 10.6639 6.62914 10.9085 6.28875C11.3629 5.65646 11.7533 5.5 12 5.5C12.3472 5.5 12.972 5.84104 13.5687 7.11958C13.6384 7.26903 13.7053 7.42669 13.7688 7.59198C13.1963 7.53147 12.6042 7.5 12 7.5ZM16.5 12C16.5 11.3958 16.4685 10.8037 16.408 10.2312C16.5733 10.2947 16.731 10.3616 16.8804 10.4313C18.159 11.028 18.5 11.6528 18.5 12C18.5 12.2467 18.3435 12.6371 17.7112 13.0915C17.3709 13.3361 16.9323 13.5672 16.408 13.7688C16.4684 13.1978 16.5 12.6059 16.5 12Z" fill="#080809" style="fill:#080809;fill:color(display-p3 0.0314 0.0314 0.0353);fill-opacity:1;"/>
<path d="M6.03713 11.1073C6.45287 10.7438 6.49517 10.112 6.1316 9.69626C5.76804 9.28052 5.13629 9.23822 4.72055 9.60178C4.02685 10.2084 3.5 11.021 3.5 12C3.5 13.1572 4.22913 14.0742 5.12153 14.7155C5.88953 15.2675 6.88379 15.6998 7.99995 16C8.30023 17.1162 8.73247 18.1105 9.28444 18.8785C9.92582 19.7709 10.8428 20.5 12 20.5C12.979 20.5 13.7916 19.9731 14.3982 19.2794C14.7618 18.8637 14.7195 18.232 14.3037 17.8684C13.888 17.5048 13.2562 17.5471 12.8927 17.9629C12.5183 18.391 12.2106 18.5 12 18.5C11.7533 18.5 11.3629 18.3435 10.9085 17.7112C10.4641 17.0929 10.0645 16.1506 9.80462 14.9592C9.72127 14.5772 9.42283 14.2787 9.04074 14.1954C7.84939 13.9355 6.90707 13.5359 6.28875 13.0915C5.65646 12.637 5.5 12.2467 5.5 12C5.5 11.7894 5.60903 11.4817 6.03713 11.1073Z" fill="#080809" style="fill:#080809;fill:color(display-p3 0.0314 0.0314 0.0353);fill-opacity:1;"/>
<path d="M2.9449 6.58959C3.44352 6.82706 3.65522 7.42379 3.41774 7.92241C2.82965 9.15721 2.5 10.5396 2.5 12.0018C2.5 17.2485 6.75329 21.5018 12 21.5018C13.4622 21.5018 14.8446 21.1722 16.0794 20.5841C16.578 20.3466 17.1747 20.5583 17.4122 21.0569C17.6497 21.5555 17.438 22.1523 16.9394 22.3897C15.4416 23.1031 13.766 23.5018 12 23.5018C5.64873 23.5018 0.5 18.3531 0.5 12.0018C0.5 10.2358 0.898754 8.56016 1.61208 7.06243C1.84955 6.56381 2.44628 6.35211 2.9449 6.58959Z" fill="#080809" style="fill:#080809;fill:color(display-p3 0.0314 0.0314 0.0353);fill-opacity:1;"/>
</g>
<defs>
<clipPath id="clip0_29901_26404">
<rect width="24" height="24" fill="white" style="fill:white;fill-opacity:1;"/>
</clipPath>
</defs>
</svg>
