<svg width="24" height="24" viewBox="0 0 24 24" fill="none" xmlns="http://www.w3.org/2000/svg">
<path d="M12 1C10.3431 1 9 2.34315 9 4C9 5.65685 10.3431 7 12 7C13.6569 7 15 5.65685 15 4C15 2.34315 13.6569 1 12 1Z" fill="#080809" style="fill:#080809;fill:color(display-p3 0.0314 0.0314 0.0353);fill-opacity:1;"/>
<path d="M4 9C2.34315 9 1 10.3431 1 12C1 13.6569 2.34315 15 4 15C5.65685 15 7 13.6569 7 12C7 10.3431 5.65685 9 4 9Z" fill="#080809" style="fill:#080809;fill:color(display-p3 0.0314 0.0314 0.0353);fill-opacity:1;"/>
<path d="M12 9C10.3431 9 9 10.3431 9 12C9 13.6569 10.3431 15 12 15C13.6569 15 15 13.6569 15 12C15 10.3431 13.6569 9 12 9Z" fill="#080809" style="fill:#080809;fill:color(display-p3 0.0314 0.0314 0.0353);fill-opacity:1;"/>
<path d="M20 9C18.3431 9 17 10.3431 17 12C17 13.6569 18.3431 15 20 15C21.6569 15 23 13.6569 23 12C23 10.3431 21.6569 9 20 9Z" fill="#080809" style="fill:#080809;fill:color(display-p3 0.0314 0.0314 0.0353);fill-opacity:1;"/>
<path d="M20 1C18.3431 1 17 2.34315 17 4C17 5.65685 18.3431 7 20 7C21.6569 7 23 5.65685 23 4C23 2.34315 21.6569 1 20 1Z" fill="#080809" style="fill:#080809;fill:color(display-p3 0.0314 0.0314 0.0353);fill-opacity:1;"/>
<path d="M4 1C2.34315 1 1 2.34315 1 4C1 5.65685 2.34315 7 4 7C5.65685 7 7 5.65685 7 4C7 2.34315 5.65685 1 4 1Z" fill="#080809" style="fill:#080809;fill:color(display-p3 0.0314 0.0314 0.0353);fill-opacity:1;"/>
<path d="M12 17C10.3431 17 9 18.3431 9 20C9 21.6569 10.3431 23 12 23C13.6569 23 15 21.6569 15 20C15 18.3431 13.6569 17 12 17Z" fill="#080809" style="fill:#080809;fill:color(display-p3 0.0314 0.0314 0.0353);fill-opacity:1;"/>
<path d="M20 17C18.3431 17 17 18.3431 17 20C17 21.6569 18.3431 23 20 23C21.6569 23 23 21.6569 23 20C23 18.3431 21.6569 17 20 17Z" fill="#080809" style="fill:#080809;fill:color(display-p3 0.0314 0.0314 0.0353);fill-opacity:1;"/>
<path d="M4 17C2.34315 17 1 18.3431 1 20C1 21.6569 2.34315 23 4 23C5.65685 23 7 21.6569 7 20C7 18.3431 5.65685 17 4 17Z" fill="#080809" style="fill:#080809;fill:color(display-p3 0.0314 0.0314 0.0353);fill-opacity:1;"/>
</svg>
