<svg width="24" height="24" viewBox="0 0 24 24" fill="none" xmlns="http://www.w3.org/2000/svg">
<path d="M13 0.500005L9.92943 0.500001C8.57535 0.499968 7.45868 0.499941 6.57494 0.618757C5.64711 0.7435 4.82769 1.01547 4.17158 1.67158C3.51547 2.32769 3.2435 3.14711 3.11876 4.07494C2.99994 4.95868 2.99997 6.07528 3 7.42937V16.5706C2.99997 17.9247 2.99994 19.0413 3.11876 19.9251C3.2435 20.8529 3.51547 21.6723 4.17158 22.3284C4.82769 22.9845 5.64711 23.2565 6.57494 23.3813C7.45869 23.5001 8.57529 23.5 9.92939 23.5H14.0706C15.4246 23.5 16.5413 23.5001 17.4251 23.3813C18.3529 23.2565 19.1723 22.9845 19.8284 22.3284C20.4845 21.6723 20.7565 20.8529 20.8813 19.9251C21.0001 19.0413 21 17.9247 21 16.5706V11.5C21 10.9477 20.5523 10.5 20 10.5C19.4477 10.5 19 10.9477 19 11.5V16.5C19 17.9425 18.9979 18.9238 18.8991 19.6586C18.8042 20.3646 18.6368 20.6916 18.4142 20.9142C18.1916 21.1368 17.8646 21.3042 17.1586 21.3991C16.4238 21.4979 15.4425 21.5 14 21.5H10C8.55752 21.5 7.57626 21.4979 6.84144 21.3991C6.13538 21.3042 5.80836 21.1368 5.58579 20.9142C5.36322 20.6916 5.19585 20.3646 5.10092 19.6586C5.00213 18.9238 5 17.9425 5 16.5L5 7.5C5 6.05752 5.00213 5.07626 5.10092 4.34144C5.19585 3.63538 5.36322 3.30836 5.58579 3.08579C5.80836 2.86322 6.13538 2.69585 6.84144 2.60092C7.57626 2.50213 8.55752 2.5 10 2.5L13 2.5C13.5523 2.5 14 2.05229 14 1.5C14 0.94772 13.5523 0.500005 13 0.500005Z" fill="#080809" style="fill:#080809;fill:color(display-p3 0.0314 0.0314 0.0353);fill-opacity:1;"/>
<path d="M8 17C7.44772 17 7 17.4477 7 18C7 18.5523 7.44772 19 8 19H13C13.5523 19 14 18.5523 14 18C14 17.4477 13.5523 17 13 17H8Z" fill="#080809" style="fill:#080809;fill:color(display-p3 0.0314 0.0314 0.0353);fill-opacity:1;"/>
<path d="M7 13C7 12.4477 7.44772 12 8 12H16C16.5523 12 17 12.4477 17 13C17 13.5523 16.5523 14 16 14H8C7.44772 14 7 13.5523 7 13Z" fill="#080809" style="fill:#080809;fill:color(display-p3 0.0314 0.0314 0.0353);fill-opacity:1;"/>
<path d="M17.0506 1.60465C17.4268 0.79845 18.5732 0.798454 18.9495 1.60465L19.1639 2.06402C19.5281 2.84454 20.1555 3.47193 20.9361 3.8362L21.3954 4.05059C22.2016 4.42684 22.2016 5.57323 21.3954 5.94948L20.9361 6.16387C20.1555 6.52814 19.5281 7.15553 19.1639 7.93605L18.9495 8.39542C18.5732 9.20162 17.4268 9.20162 17.0506 8.39542L16.8362 7.93605C16.4719 7.15553 15.8445 6.52814 15.064 6.16387L14.6046 5.94948C13.7984 5.57323 13.7985 4.42684 14.6046 4.05059L15.064 3.8362C15.8445 3.47193 16.4719 2.84454 16.8362 2.06402L17.0506 1.60465Z" fill="#080809" style="fill:#080809;fill:color(display-p3 0.0314 0.0314 0.0353);fill-opacity:1;"/>
</svg>
