<svg width="24" height="24" viewBox="0 0 24 24" fill="none" xmlns="http://www.w3.org/2000/svg">
<path d="M4 7C5.10457 7 6 6.10457 6 5C6 3.89543 5.10457 3 4 3C2.89543 3 2 3.89543 2 5C2 6.10457 2.89543 7 4 7Z" fill="#080809" style="fill:#080809;fill:color(display-p3 0.0314 0.0314 0.0353);fill-opacity:1;"/>
<path d="M9 3.75C8.30964 3.75 7.75 4.30964 7.75 5C7.75 5.69036 8.30964 6.25 9 6.25L21 6.25C21.6904 6.25 22.25 5.69036 22.25 5C22.25 4.30965 21.6904 3.75 21 3.75L9 3.75Z" fill="#080809" style="fill:#080809;fill:color(display-p3 0.0314 0.0314 0.0353);fill-opacity:1;"/>
<path d="M6 19C6 20.1046 5.10457 21 4 21C2.89543 21 2 20.1046 2 19C2 17.8954 2.89543 17 4 17C5.10457 17 6 17.8954 6 19Z" fill="#080809" style="fill:#080809;fill:color(display-p3 0.0314 0.0314 0.0353);fill-opacity:1;"/>
<path d="M9 17.75C8.30964 17.75 7.75 18.3096 7.75 19C7.75 19.6904 8.30964 20.25 9 20.25L21 20.25C21.6904 20.25 22.25 19.6904 22.25 19C22.25 18.3096 21.6904 17.75 21 17.75L9 17.75Z" fill="#080809" style="fill:#080809;fill:color(display-p3 0.0314 0.0314 0.0353);fill-opacity:1;"/>
<path d="M6 12C6 13.1046 5.10457 14 4 14C2.89543 14 2 13.1046 2 12C2 10.8954 2.89543 10 4 10C5.10457 10 6 10.8954 6 12Z" fill="#080809" style="fill:#080809;fill:color(display-p3 0.0314 0.0314 0.0353);fill-opacity:1;"/>
<path d="M9 10.75C8.30964 10.75 7.75 11.3096 7.75 12C7.75 12.6904 8.30964 13.25 9 13.25L21 13.25C21.6904 13.25 22.25 12.6904 22.25 12C22.25 11.3096 21.6904 10.75 21 10.75L9 10.75Z" fill="#080809" style="fill:#080809;fill:color(display-p3 0.0314 0.0314 0.0353);fill-opacity:1;"/>
</svg>
