<svg width="24" height="24" viewBox="0 0 24 24" fill="none" xmlns="http://www.w3.org/2000/svg">
<path d="M8.75 13.5C9.44036 13.5 10 12.9404 10 12.25C10 11.5596 9.44036 11 8.75 11C8.05964 11 7.5 11.5596 7.5 12.25C7.5 12.9404 8.05964 13.5 8.75 13.5Z" fill="#080809" style="fill:#080809;fill:color(display-p3 0.0314 0.0314 0.0353);fill-opacity:1;"/>
<path d="M16.5 12.25C16.5 12.9404 15.9404 13.5 15.25 13.5C14.5596 13.5 14 12.9404 14 12.25C14 11.5596 14.5596 11 15.25 11C15.9404 11 16.5 11.5596 16.5 12.25Z" fill="#080809" style="fill:#080809;fill:color(display-p3 0.0314 0.0314 0.0353);fill-opacity:1;"/>
<path d="M9.29289 15.7929C8.90237 16.1834 8.90237 16.8166 9.29289 17.2071C9.68342 17.5976 10.3166 17.5976 10.7071 17.2071C11.4212 16.4931 12.5788 16.4931 13.2929 17.2071C13.6834 17.5976 14.3166 17.5976 14.7071 17.2071C15.0976 16.8166 15.0976 16.1834 14.7071 15.7929C13.212 14.2978 10.788 14.2978 9.29289 15.7929Z" fill="#080809" style="fill:#080809;fill:color(display-p3 0.0314 0.0314 0.0353);fill-opacity:1;"/>
<path fill-rule="evenodd" clip-rule="evenodd" d="M12 3C8.4124 3 5.45515 5.6989 5.04786 9.17712C2.43542 9.82669 0.5 12.1868 0.5 15C0.5 18.0301 2.74546 20.5347 5.66379 20.9421C5.76886 20.9796 5.88205 21 6 21H17C17.1036 21 17.2036 20.9842 17.2976 20.955C20.7885 20.5585 23.5 17.5964 23.5 14C23.5 10.8099 21.3669 8.11994 18.4496 7.27537C17.3873 4.76388 14.9008 3 12 3ZM7 10V9.99899C7.00055 7.23803 9.23891 5 12 5C14.2127 5 16.0921 6.43793 16.7498 8.43303C16.8622 8.77401 17.1488 9.02856 17.5007 9.09996C19.7827 9.563 21.5 11.5821 21.5 14C21.5 16.6206 19.4832 18.7712 16.9178 18.9828C16.8771 18.9862 16.8371 18.992 16.798 19H6.22118C6.18129 18.991 6.14045 18.9843 6.0988 18.9802C4.07854 18.7796 2.5 17.0735 2.5 15C2.5 12.9264 4.07856 11.2204 6.09884 11.0198C6.61112 10.9689 7.00108 10.5375 7.00005 10.0227L7 10Z" fill="#080809" style="fill:#080809;fill:color(display-p3 0.0314 0.0314 0.0353);fill-opacity:1;"/>
</svg>
