<svg width="24" height="24" viewBox="0 0 24 24" fill="none" xmlns="http://www.w3.org/2000/svg">
<path d="M3.99951 3C3.44723 3 2.99951 3.44772 2.99951 4V16C2.99951 16.5523 3.44723 17 3.99951 17H6.49951C7.0518 17 7.49951 17.4477 7.49951 18C7.49951 18.5523 7.0518 19 6.49951 19H3.99951C2.34266 19 0.999512 17.6569 0.999512 16V4C0.999512 2.34315 2.34266 1 3.99951 1H11.9995C12.7597 1 13.4559 1.28402 13.9842 1.75026C14.3982 2.11573 14.4376 2.74766 14.0722 3.16173C13.7067 3.5758 13.0748 3.6152 12.6607 3.24974C12.4838 3.09361 12.2538 3 11.9995 3H3.99951Z" fill="#080809" style="fill:#080809;fill:color(display-p3 0.0314 0.0314 0.0353);fill-opacity:1;"/>
<path d="M7.4989 7.75C7.4989 8.44036 6.93925 9 6.2489 9C5.55854 9 4.9989 8.44036 4.9989 7.75C4.9989 7.05964 5.55854 6.5 6.2489 6.5C6.93925 6.5 7.4989 7.05964 7.4989 7.75Z" fill="#080809" style="fill:#080809;fill:color(display-p3 0.0314 0.0314 0.0353);fill-opacity:1;"/>
<path d="M16.9992 11.5C16.9992 10.9477 16.5515 10.5 15.9992 10.5C15.4469 10.5 14.9992 10.9477 14.9992 11.5V13H13.4992C12.9469 13 12.4992 13.4477 12.4992 14C12.4992 14.5523 12.9469 15 13.4992 15H14.9992V16.5C14.9992 17.0523 15.4469 17.5 15.9992 17.5C16.5515 17.5 16.9992 17.0523 16.9992 16.5V15H18.4992C19.0515 15 19.4992 14.5523 19.4992 14C19.4992 13.4477 19.0515 13 18.4992 13H16.9992V11.5Z" fill="#080809" style="fill:#080809;fill:color(display-p3 0.0314 0.0314 0.0353);fill-opacity:1;"/>
<path fill-rule="evenodd" clip-rule="evenodd" d="M4.79082 11.2929C5.18134 10.9024 5.8145 10.9024 6.20503 11.2929C6.9728 12.0607 7.99246 12.4226 9.00017 12.3769V8C9.00017 6.34315 10.3433 5 12.0002 5H20.0002C21.657 5 23.0002 6.34315 23.0002 8V20C23.0002 21.6569 21.657 23 20.0002 23H12.0002C10.3433 23 9.00017 21.6569 9.00017 20V14.3782C7.48364 14.4227 5.9499 13.8662 4.79082 12.7071C4.40029 12.3166 4.40029 11.6834 4.79082 11.2929ZM20.0002 7C20.5525 7 21.0002 7.44772 21.0002 8V20C21.0002 20.5523 20.5525 21 20.0002 21H12.0002C11.4479 21 11.0002 20.5523 11.0002 20V8C11.0002 7.44772 11.4479 7 12.0002 7H20.0002Z" fill="#080809" style="fill:#080809;fill:color(display-p3 0.0314 0.0314 0.0353);fill-opacity:1;"/>
</svg>
