<svg width="24" height="24" viewBox="0 0 24 24" fill="none" xmlns="http://www.w3.org/2000/svg">
<path fill-rule="evenodd" clip-rule="evenodd" d="M10.6871 15.0003L12.0752 18.3803C12.2851 18.8911 12.8693 19.1352 13.3802 18.9254C13.8911 18.7155 14.1351 18.1313 13.9253 17.6204L8.63779 4.74653C8.12844 3.50636 6.37208 3.50637 5.86273 4.74653L0.575243 17.6204C0.36542 18.1313 0.60947 18.7155 1.12034 18.9254C1.63122 19.1352 2.21546 18.8911 2.42528 18.3803L3.81346 15.0003H10.6871ZM9.86563 13.0003L7.25026 6.63248L4.63489 13.0003H9.86563Z" fill="#080809" style="fill:#080809;fill:color(display-p3 0.0314 0.0314 0.0353);fill-opacity:1;"/>
<path fill-rule="evenodd" clip-rule="evenodd" d="M22.5 10.0065C23.0523 10.0065 23.5 10.4542 23.5 11.0065V17.9993C23.5 18.5516 23.0523 19.0002 22.5 19.0002C22.0252 19.0002 21.6277 18.6692 21.5255 18.2254C20.8054 18.7145 19.9361 19.0004 19 19.0004C16.5148 19.0004 14.5 16.9856 14.5 14.5004C14.5 12.0151 16.5148 10.0004 19 10.0004C19.9366 10.0004 20.8064 10.2865 21.5267 10.7761C21.6307 10.3349 22.027 10.0065 22.5 10.0065ZM21.5 14.5004C21.5 13.1196 20.3807 12.0004 19 12.0004C17.6193 12.0004 16.5 13.1196 16.5 14.5004C16.5 15.8811 17.6193 17.0004 19 17.0004C20.3807 17.0004 21.5 15.8811 21.5 14.5004Z" fill="#080809" style="fill:#080809;fill:color(display-p3 0.0314 0.0314 0.0353);fill-opacity:1;"/>
</svg>
