<svg width="24" height="24" viewBox="0 0 24 24" fill="none" xmlns="http://www.w3.org/2000/svg">
<g clip-path="url(#clip0_29901_28371)">
<path d="M13.9993 12.0002C13.9993 13.1048 13.1039 14.0002 11.9993 14.0002C10.8947 14.0002 9.99929 13.1048 9.99929 12.0002C9.99929 10.8956 10.8947 10.0002 11.9993 10.0002C13.1039 10.0002 13.9993 10.8956 13.9993 12.0002Z" fill="#080809" style="fill:#080809;fill:color(display-p3 0.0314 0.0314 0.0353);fill-opacity:1;"/>
<path fill-rule="evenodd" clip-rule="evenodd" d="M11.9977 21.0805C13.0257 21.6965 14.044 22.1918 15.0227 22.5524C17.5189 23.472 20.2502 23.669 21.9596 21.9596C23.669 20.2501 23.4721 17.5189 22.5524 15.0227C22.1919 14.0443 21.6968 13.0264 21.0811 11.9986C21.6973 10.9704 22.1928 9.95183 22.5534 8.97292C23.4731 6.47671 23.6701 3.74544 21.9606 2.036C20.2512 0.326567 17.5199 0.523556 15.0237 1.44321C14.0447 1.8039 13.0261 2.29945 11.9977 2.91574C10.9704 2.30035 9.95286 1.80545 8.97487 1.44514C6.47867 0.525485 3.74739 0.328496 2.03796 2.03793C0.32852 3.74737 0.52551 6.47864 1.44516 8.97484C1.80559 9.95315 2.30069 10.971 2.91636 11.9986C2.30116 13.0257 1.80641 14.043 1.44618 15.0207C0.526531 17.5169 0.329543 20.2482 2.03898 21.9577C3.74842 23.6671 6.47969 23.4701 8.97589 22.5504C9.95356 22.1903 10.9707 21.6956 11.9977 21.0805ZM19.5056 9.69205C19.7854 9.14785 20.02 8.61765 20.2076 8.10865C21.0569 5.8034 20.7971 4.40805 20.1929 3.80377C19.5886 3.19949 18.1932 2.93976 15.888 3.78907C15.3789 3.97661 14.8487 4.21126 14.3044 4.4911C15.2451 5.21364 16.1752 6.02874 17.072 6.92552C17.9685 7.82195 18.7833 8.75177 19.5056 9.69205ZM18.0995 11.9985C17.3232 10.895 16.3868 9.77581 15.3043 8.69328C14.2214 7.6104 13.1018 6.67375 11.9979 5.89724C10.8949 6.67337 9.77632 7.60936 8.69433 8.69135C7.61117 9.77451 6.67433 10.8944 5.8977 11.9985C6.67413 13.1022 7.61062 14.2215 8.69331 15.3042C9.77563 16.3866 10.8946 17.3228 11.9979 18.0991C13.1021 17.3224 14.2221 16.3855 15.3053 15.3023C16.3873 14.2202 17.3234 13.1016 18.0995 11.9985ZM14.3046 19.5051C15.2455 18.7824 16.176 17.9671 17.073 17.0701C17.969 16.1741 18.7834 15.2449 19.5054 14.3051C19.7849 14.8488 20.0192 15.3784 20.2065 15.8869C21.0558 18.1922 20.7961 19.5875 20.1918 20.1918C19.5876 20.7961 18.1922 21.0558 15.887 20.2065C15.3783 20.0191 14.8485 19.7847 14.3046 19.5051ZM9.69096 19.5047C8.75106 18.7826 7.82162 17.9681 6.92554 17.072C6.02912 16.1756 5.21432 15.2458 4.49199 14.3055C4.21307 14.8483 3.97912 15.3772 3.79204 15.885C2.94274 18.1903 3.20246 19.5856 3.80675 20.1899C4.41103 20.7942 5.80637 21.0539 8.11163 20.2046C8.61936 20.0175 9.14818 19.7836 9.69096 19.5047ZM4.49179 9.69167C4.2125 9.14827 3.97828 8.61886 3.79102 8.11058C2.94172 5.80533 3.20144 4.40998 3.80572 3.8057C4.41001 3.20142 5.80535 2.94169 8.1106 3.791C8.61872 3.9782 9.14795 4.21233 9.69116 4.49149C8.75154 5.21345 7.82238 6.02777 6.92656 6.92359C6.02964 7.82051 5.21442 8.75086 4.49179 9.69167Z" fill="#080809" style="fill:#080809;fill:color(display-p3 0.0314 0.0314 0.0353);fill-opacity:1;"/>
</g>
<defs>
<clipPath id="clip0_29901_28371">
<rect width="24" height="24" fill="white" style="fill:white;fill-opacity:1;"/>
</clipPath>
</defs>
</svg>
