<svg width="24" height="24" viewBox="0 0 24 24" fill="none" xmlns="http://www.w3.org/2000/svg">
<path d="M6.9 5.79945C4.26305 3.82174 0.5 5.70327 0.5 8.99945V14.9994C0.5 18.2956 4.26306 20.1772 6.9 18.1994L9.97923 15.89C8.83561 15.5568 8 14.5007 8 13.2495V12.9995H7C6.44772 12.9995 6 12.5518 6 11.9995C6 11.4472 6.44772 10.9995 7 10.9995H8V10.7495C8 9.49826 8.83567 8.44218 9.97934 8.10896L6.9 5.79945Z" fill="#080809" style="fill:#080809;fill:color(display-p3 0.0314 0.0314 0.0353);fill-opacity:1;"/>
<path d="M14.0207 8.10896C15.1643 8.44218 16 9.49826 16 10.7495V10.9995H17C17.5523 10.9995 18 11.4472 18 11.9995C18 12.5518 17.5523 12.9995 17 12.9995H16V13.2495C16 14.5007 15.1644 15.5568 14.0208 15.89L17.1 18.1994C19.7369 20.1772 23.5 18.2956 23.5 14.9994V8.99945C23.5 5.70327 19.7369 3.82174 17.1 5.79945L14.0207 8.10896Z" fill="#080809" style="fill:#080809;fill:color(display-p3 0.0314 0.0314 0.0353);fill-opacity:1;"/>
<path d="M9.5 10.7495C9.5 10.0592 10.0596 9.49951 10.75 9.49951H13.25C13.9404 9.49951 14.5 10.0592 14.5 10.7495V13.2495C14.5 13.9399 13.9404 14.4995 13.25 14.4995H10.75C10.0596 14.4995 9.5 13.9399 9.5 13.2495V10.7495Z" fill="#080809" style="fill:#080809;fill:color(display-p3 0.0314 0.0314 0.0353);fill-opacity:1;"/>
</svg>
