<svg width="24" height="24" viewBox="0 0 24 24" fill="none" xmlns="http://www.w3.org/2000/svg">
<g clip-path="url(#clip0_29901_26102)">
<path fill-rule="evenodd" clip-rule="evenodd" d="M22.1867 2.2728L21.7232 1.80931C20.4935 0.579643 18.4792 0.64986 17.3381 1.96217L13.7452 6.09404C13.402 6.48882 13.421 7.08148 13.7889 7.45343L14.4569 8.12884L12.7855 9.80027L9.02842 6.04321C8.6394 5.65419 8.00921 5.65248 7.61807 6.03937L2.72346 10.8809C1.44934 12.1412 0.805288 13.905 0.967541 15.6898L1.50401 21.5909C1.54771 22.0717 1.92862 22.4526 2.40937 22.4963L8.31049 23.0327C10.0953 23.195 11.8592 22.5509 13.1195 21.2768L17.9609 16.3821C18.3477 15.991 18.346 15.3608 17.957 14.9718L14.1997 11.2145L15.8634 9.55081L16.5089 10.2034C16.8791 10.5777 17.476 10.6009 17.8741 10.2565L22.0281 6.66305C23.3457 5.52328 23.4186 3.50466 22.1867 2.2728ZM20.309 3.22356L20.7725 3.68704C21.1832 4.09766 21.1589 4.77054 20.7197 5.15046L17.2731 8.13196L15.8631 6.70645L18.8473 3.27451C19.2277 2.83707 19.8991 2.81367 20.309 3.22356ZM8.31747 8.16069L11.3712 11.2145L8.04263 14.543C7.6521 14.9336 7.65209 15.5667 8.04262 15.9572C8.43314 16.3478 9.0663 16.3478 9.45683 15.9573L12.7855 12.6287L15.8395 15.6828L11.6976 19.8703C10.8574 20.7197 9.68143 21.1491 8.49156 21.041L3.42035 20.5799L2.95933 15.5087C2.85116 14.3189 3.28053 13.143 4.12994 12.3028L8.31747 8.16069Z" fill="#080809" style="fill:#080809;fill:color(display-p3 0.0314 0.0314 0.0353);fill-opacity:1;"/>
</g>
<defs>
<clipPath id="clip0_29901_26102">
<rect width="24" height="24" fill="white" style="fill:white;fill-opacity:1;"/>
</clipPath>
</defs>
</svg>
