<svg width="24" height="24" viewBox="0 0 24 24" fill="none" xmlns="http://www.w3.org/2000/svg">
<path d="M4.07494 20.8813C4.9587 21.0001 6.07531 21 7.42943 21L16.7363 21H16V10.5H13V21H11V10.5H0.500001V14.0705C0.499967 15.4246 0.499938 16.5413 0.618754 17.4251C0.743499 18.3529 1.01547 19.1723 1.67158 19.8284C2.32768 20.4845 3.14711 20.7565 4.07494 20.8813Z" fill="#080809" style="fill:#080809;fill:color(display-p3 0.0314 0.0314 0.0353);fill-opacity:1;"/>
<path d="M18 10.5V20.9937C18.7329 20.9832 19.3742 20.9553 19.9251 20.8813C20.8529 20.7565 21.6723 20.4845 22.3284 19.8284C22.9845 19.1723 23.2565 18.3529 23.3813 17.4251C23.5001 16.5413 23.5 15.4247 23.5 14.0706V9.92943C23.5 8.57535 23.5001 7.45868 23.3813 6.57494C23.2565 5.64711 22.9845 4.82768 22.3284 4.17158C21.6723 3.51547 20.8529 3.2435 19.9251 3.11876C19.0413 2.99994 17.9247 2.99997 16.5706 3H7.42946C6.07536 2.99997 4.95869 2.99994 4.07494 3.11875C3.14711 3.2435 2.32769 3.51547 1.67158 4.17157C1.01547 4.82768 0.7435 5.64711 0.618755 6.57494C0.544696 7.12578 0.51681 7.7671 0.506317 8.5H16C17.1046 8.5 18 9.39543 18 10.5Z" fill="#080809" style="fill:#080809;fill:color(display-p3 0.0314 0.0314 0.0353);fill-opacity:1;"/>
</svg>
