<svg width="24" height="24" viewBox="0 0 24 24" fill="none" xmlns="http://www.w3.org/2000/svg">
<path d="M8.44767 0.605792C8.94165 0.852781 9.14187 1.45345 8.89488 1.94743C8.40613 2.92493 8.40613 4.0755 8.89488 5.05301C9.14187 5.54698 8.94165 6.14766 8.44767 6.39465C7.95369 6.64164 7.35302 6.44141 7.10603 5.94743C6.33575 4.40688 6.33575 2.59356 7.10603 1.05301C7.35302 0.559027 7.95369 0.358803 8.44767 0.605792Z" fill="#080809" style="fill:#080809;fill:color(display-p3 0.0314 0.0314 0.0353);fill-opacity:1;"/>
<path fill-rule="evenodd" clip-rule="evenodd" d="M1 10.5C1 9.11929 2.11929 8 3.5 8H19.5C21.7091 8 23.5 9.79086 23.5 12C23.5 14.2091 21.7091 16 19.5 16H18.777C17.8675 20.008 14.2832 23 10 23C5.02944 23 1 18.9706 1 14V10.5ZM19 14H19.5C20.6046 14 21.5 13.1046 21.5 12C21.5 10.8954 20.6046 10 19.5 10H19V14Z" fill="#080809" style="fill:#080809;fill:color(display-p3 0.0314 0.0314 0.0353);fill-opacity:1;"/>
<path d="M13.3949 1.94743C13.6419 1.45345 13.4416 0.852781 12.9477 0.605792C12.4537 0.358803 11.853 0.559027 11.606 1.05301C10.8358 2.59356 10.8358 4.40688 11.606 5.94743C11.853 6.44141 12.4537 6.64164 12.9477 6.39465C13.4416 6.14766 13.6419 5.54698 13.3949 5.05301C12.9061 4.0755 12.9061 2.92493 13.3949 1.94743Z" fill="#080809" style="fill:#080809;fill:color(display-p3 0.0314 0.0314 0.0353);fill-opacity:1;"/>
</svg>
