<svg width="24" height="24" viewBox="0 0 24 24" fill="none" xmlns="http://www.w3.org/2000/svg">
<path d="M13.93 0.540099C14.7365 0.729577 15.2366 1.53695 15.0472 2.34342C14.5764 4.34708 13.7249 7.77752 12.8129 10.9942C13.0597 11.0792 13.3039 11.1661 13.5447 11.2543C14.479 8.37215 15.2582 5.66649 15.8001 3.61695C16.0119 2.81604 16.8328 2.33844 17.6337 2.5502C18.4346 2.76196 18.9122 3.58289 18.7005 4.38379C18.1328 6.53071 17.3144 9.36819 16.3326 12.3822C16.6065 12.5033 16.8705 12.623 17.1226 12.7399C17.8093 10.789 18.3101 9.22483 18.8832 7.24043C19.1131 6.44453 19.9446 5.98567 20.7405 6.21554C21.5364 6.4454 21.9953 7.27695 21.7654 8.07285C20.9348 10.9489 20.2477 12.9775 18.9974 16.3839C18.9837 16.4214 18.9686 16.458 18.9522 16.4937C18.2214 18.5197 17.3697 20.2431 16.1604 21.4765C14.8421 22.8212 13.1675 23.5155 10.998 23.5155C6.67533 23.5155 3.87618 20.755 2.7458 18.3867C1.64547 16.0813 1.39949 13.6028 1.00313 8.57518C0.962476 8.05948 1.32185 7.59789 1.83178 7.51085C2.61504 7.37715 3.34695 7.49395 3.90738 8.01615C4.39464 8.47017 4.59438 9.10167 4.71515 9.55457C4.77495 9.77881 4.8515 10.1902 4.93184 10.6229L4.9521 10.7321C5.10115 11.5356 5.22446 12.343 5.36108 13.1487C5.4459 13.6489 5.88081 13.9862 6.35146 14.0036C6.99282 14.0274 8.2896 14.1534 9.64305 14.729C9.89717 14.8371 10.1908 14.7187 10.2988 14.4646C10.4069 14.2105 10.2885 13.9168 10.0344 13.8088C8.52803 13.1682 7.09812 13.0306 6.38852 13.0043C6.37575 13.0039 6.36349 12.9988 6.35486 12.9916C6.3509 12.9882 6.34885 12.9854 6.34796 12.9839C6.34723 12.9826 6.3471 12.982 6.347 12.9815C6.19556 12.0884 6.05747 11.1931 5.91392 10.2987C6.57803 8.07241 7.34488 5.29004 7.82639 3.16835C8.00973 2.36047 8.81328 1.85418 9.62117 2.03753C10.4291 2.22087 10.9353 3.02442 10.752 3.8323C10.3371 5.66039 9.72419 7.93902 9.13745 9.96854C9.40228 10.0221 9.66857 10.0812 9.93537 10.1451C10.8275 6.99602 11.6637 3.62768 12.1267 1.65726C12.3162 0.85079 13.1235 0.350621 13.93 0.540099Z" fill="#080809" style="fill:#080809;fill:color(display-p3 0.0314 0.0314 0.0353);fill-opacity:1;"/>
<path d="M6.26006 3.21074C6.37634 2.67084 6.03292 2.1389 5.49301 2.02262C4.9531 1.90635 4.42117 2.24977 4.30489 2.78967C4.16685 3.43064 3.98968 4.10757 3.81782 4.73669C3.67229 5.26946 3.9862 5.81933 4.51896 5.96486C5.05173 6.1104 5.6016 5.79649 5.74713 5.26372C5.92164 4.62491 6.11033 3.90603 6.26006 3.21074Z" fill="#080809" style="fill:#080809;fill:color(display-p3 0.0314 0.0314 0.0353);fill-opacity:1;"/>
<path d="M22.8224 13.0539C23.3451 13.2324 23.6241 13.8008 23.4456 14.3234C23.3106 14.7188 23.1942 15.0109 23.0816 15.2936L23.0692 15.3249C22.9541 15.6138 22.8394 15.9038 22.6953 16.3243C22.5164 16.8468 21.9477 17.1253 21.4253 16.9463C20.9028 16.7674 20.6243 16.1987 20.8033 15.6762C20.9635 15.2085 21.0927 14.8822 21.2111 14.5849L21.2207 14.5608C21.3337 14.2771 21.4343 14.0246 21.5529 13.6771C21.7314 13.1545 22.2997 12.8755 22.8224 13.0539Z" fill="#080809" style="fill:#080809;fill:color(display-p3 0.0314 0.0314 0.0353);fill-opacity:1;"/>
</svg>
