<svg width="24" height="24" viewBox="0 0 24 24" fill="none" xmlns="http://www.w3.org/2000/svg">
<path d="M0.25 12C0.25 5.51065 5.51065 0.25 12 0.25C12.6378 0.25 13.2646 0.300932 13.8763 0.399186C14.5579 0.508668 15.0217 1.14998 14.9123 1.8316C14.8028 2.51322 14.1615 2.97703 13.4798 2.86755C12.9987 2.79027 12.5045 2.75 12 2.75C6.89137 2.75 2.75 6.89137 2.75 12C2.75 17.1086 6.89137 21.25 12 21.25C17.1086 21.25 21.25 17.1086 21.25 12C21.25 11.4955 21.2097 11.0013 21.1325 10.5203C21.023 9.83865 21.4868 9.19734 22.1684 9.08787C22.8501 8.97839 23.4914 9.44221 23.6008 10.1238C23.6991 10.7355 23.75 11.3622 23.75 12C23.75 18.4893 18.4893 23.75 12 23.75C5.51065 23.75 0.25 18.4893 0.25 12Z" fill="#080809" style="fill:#080809;fill:color(display-p3 0.0314 0.0314 0.0353);fill-opacity:1;"/>
<path d="M20.4494 1.10465C20.0731 0.298453 18.9267 0.298449 18.5505 1.10465L18.3361 1.56402C17.9718 2.34454 17.3444 2.97193 16.5639 3.3362L16.1045 3.55059C15.2983 3.92684 15.2983 5.07322 16.1045 5.44948L16.5639 5.66387C17.3444 6.02814 17.9718 6.65553 18.3361 7.43605L18.5505 7.89542C18.9267 8.70162 20.0731 8.70162 20.4494 7.89542L20.6637 7.43605C21.028 6.65553 21.6554 6.02814 22.4359 5.66387L22.8953 5.44948C23.7015 5.07323 23.7015 3.92684 22.8953 3.55059L22.4359 3.3362C21.6554 2.97193 21.028 2.34454 20.6637 1.56402L20.4494 1.10465Z" fill="#080809" style="fill:#080809;fill:color(display-p3 0.0314 0.0314 0.0353);fill-opacity:1;"/>
<path d="M16 11.5C16.8284 11.5 17.5 10.8284 17.5 10C17.5 9.17157 16.8284 8.5 16 8.5C15.1716 8.5 14.5 9.17157 14.5 10C14.5 10.8284 15.1716 11.5 16 11.5Z" fill="#080809" style="fill:#080809;fill:color(display-p3 0.0314 0.0314 0.0353);fill-opacity:1;"/>
<path d="M9.5 10C9.5 10.8284 8.82843 11.5 8 11.5C7.17157 11.5 6.5 10.8284 6.5 10C6.5 9.17157 7.17157 8.5 8 8.5C8.82843 8.5 9.5 9.17157 9.5 10Z" fill="#080809" style="fill:#080809;fill:color(display-p3 0.0314 0.0314 0.0353);fill-opacity:1;"/>
<path d="M9.13388 14.8661C8.64573 14.378 7.85427 14.378 7.36612 14.8661C6.87796 15.3543 6.87796 16.1457 7.36612 16.6339C9.92534 19.1931 14.0747 19.1931 16.6339 16.6339C17.122 16.1457 17.122 15.3543 16.6339 14.8661C16.1457 14.378 15.3543 14.378 14.8661 14.8661C13.2832 16.449 10.7168 16.449 9.13388 14.8661Z" fill="#080809" style="fill:#080809;fill:color(display-p3 0.0314 0.0314 0.0353);fill-opacity:1;"/>
</svg>
