<svg width="24" height="24" viewBox="0 0 24 24" fill="none" xmlns="http://www.w3.org/2000/svg">
<path d="M15.7071 3.29289C15.3166 2.90237 14.6834 2.90237 14.2929 3.29289C13.9024 3.68342 13.9024 4.31658 14.2929 4.70711L20.1716 10.5858C20.9526 11.3668 20.9526 12.6332 20.1716 13.4142L14.2929 19.2929C13.9024 19.6834 13.9024 20.3166 14.2929 20.7071C14.6834 21.0976 15.3166 21.0976 15.7071 20.7071L21.5858 14.8284C23.1479 13.2663 23.1479 10.7337 21.5858 9.17158L15.7071 3.29289Z" fill="#080809" style="fill:#080809;fill:color(display-p3 0.0314 0.0314 0.0353);fill-opacity:1;"/>
<path d="M7 5.62123C7 3.39397 9.69285 2.27854 11.2678 3.85346L17.6464 10.2321C18.6228 11.2084 18.6228 12.7914 17.6464 13.7677L11.2678 20.1464C9.69285 21.7213 7 20.6058 7 18.3786V16.1028C6.24088 16.2167 5.63374 16.4202 5.13518 16.6877C4.43378 17.064 3.88956 17.5978 3.4272 18.3037C2.98744 18.975 2.21929 19.063 1.72202 18.9511C1.2249 18.8392 0.5 18.396 0.5 17.5001C0.5 15.1497 0.991995 12.8703 2.19064 11.1157C3.2649 9.54318 4.86504 8.45749 7 8.11542V5.62123Z" fill="#080809" style="fill:#080809;fill:color(display-p3 0.0314 0.0314 0.0353);fill-opacity:1;"/>
</svg>
