<svg width="24" height="24" viewBox="0 0 24 24" fill="none" xmlns="http://www.w3.org/2000/svg">
<path d="M4.89518 1H8.00195V6H1.61487L2.48467 2.83711C2.78308 1.75198 3.76977 1 4.89518 1Z" fill="#080809" style="fill:#080809;fill:color(display-p3 0.0314 0.0314 0.0353);fill-opacity:1;"/>
<path d="M10.002 1V6H22.3891L21.5193 2.83711C21.2209 1.75198 20.2342 1 19.1088 1H10.002Z" fill="#080809" style="fill:#080809;fill:color(display-p3 0.0314 0.0314 0.0353);fill-opacity:1;"/>
<path fill-rule="evenodd" clip-rule="evenodd" d="M14.002 8H1.06487L0.55967 9.83711C0.213826 11.0947 0.88901 12.3397 2.00196 12.8068L2.00195 16.0706C2.00192 17.4247 2.00189 18.5413 2.12071 19.4251C2.24545 20.3529 2.51742 21.1723 3.17353 21.8284C3.82964 22.4845 4.64906 22.7565 5.57689 22.8812C6.46065 23.0001 7.57726 23 8.93138 23H15.0725C16.4266 23 17.5433 23.0001 18.427 22.8812C19.3549 22.7565 20.1743 22.4845 20.8304 21.8284C21.4865 21.1723 21.7585 20.3529 21.8832 19.4251C22.002 18.5413 22.002 17.4247 22.002 16.0706V12.8068C23.115 12.3398 23.7902 11.0948 23.4443 9.83711L22.9391 8H16.002V13H20.002V16C20.002 17.4425 19.9998 18.4237 19.901 19.1586C19.8061 19.8646 19.6387 20.1916 19.4162 20.4142C19.1936 20.6368 18.8666 20.8042 18.1605 20.8991C17.6097 20.9731 16.9203 20.9929 16.002 20.9981V17.5C16.002 16.1193 14.8827 15 13.502 15H10.502C9.12124 15 8.00195 16.1193 8.00195 17.5V20.9981C7.08361 20.9929 6.39425 20.9731 5.84339 20.8991C5.13733 20.8042 4.81031 20.6368 4.58774 20.4142C4.36517 20.1916 4.1978 19.8646 4.10287 19.1586C4.00408 18.4237 4.00196 17.4425 4.00196 16V13H14.002V8ZM14.002 21H10.002V17.5C10.002 17.2239 10.2258 17 10.502 17H13.502C13.7781 17 14.002 17.2239 14.002 17.5V21Z" fill="#080809" style="fill:#080809;fill:color(display-p3 0.0314 0.0314 0.0353);fill-opacity:1;"/>
</svg>
