<svg width="24" height="24" viewBox="0 0 24 24" fill="none" xmlns="http://www.w3.org/2000/svg">
<g clip-path="url(#clip0_29901_26522)">
<path fill-rule="evenodd" clip-rule="evenodd" d="M3.34013 8.08834C5.14598 8.47425 6.50017 10.079 6.50017 12C6.50017 13.921 5.14598 15.5258 3.34013 15.9117C3.77834 16.8803 4.37429 17.7623 5.09521 18.5249C5.54881 16.2303 7.57243 14.5 10.0002 14.5H12.3652C12.9175 14.5 13.3652 14.9477 13.3652 15.5C13.3652 16.0523 12.9175 16.5 12.3652 16.5H10.0002C8.34332 16.5 7.00017 17.8431 7.00017 19.5V20.0794C8.45244 20.98 10.1655 21.5 12 21.5C12.1098 21.5 12.2191 21.4981 12.328 21.4945C12.8799 21.4758 13.3426 21.9081 13.3612 22.46C13.3799 23.012 12.9476 23.4746 12.3957 23.4933C12.2643 23.4978 12.1324 23.5 12 23.5C5.64873 23.5 0.5 18.3513 0.5 12C0.5 5.64873 5.64873 0.5 12 0.5C18.3513 0.5 23.5 5.64873 23.5 12C23.5 12.1324 23.4978 12.2643 23.4933 12.3957C23.4746 12.9476 23.012 13.3799 22.46 13.3612C21.9081 13.3426 21.4758 12.8799 21.4945 12.328C21.4981 12.2191 21.5 12.1098 21.5 12C21.5 11.3177 21.4281 10.6523 21.2914 10.0108C20.3931 10.1041 19.6701 10.7925 19.5264 11.6747C19.4376 12.2198 18.9237 12.5897 18.3786 12.5009C17.8335 12.4121 17.4636 11.8982 17.5524 11.3531C17.8173 9.72696 19.0611 8.43009 20.6599 8.08838C19.169 4.79289 15.8523 2.5 12 2.5C8.14775 2.5 4.83104 4.79287 3.34013 8.08834ZM2.7086 10.0107C2.57192 10.6522 2.5 11.3177 2.5 12C2.5 12.6823 2.57192 13.3478 2.7086 13.9893C3.71522 13.885 4.50017 13.0342 4.50017 12C4.50017 10.9658 3.71522 10.115 2.7086 10.0107Z" fill="#080809" style="fill:#080809;fill:color(display-p3 0.0314 0.0314 0.0353);fill-opacity:1;"/>
<path d="M19.0015 14.5003C19.5538 14.5003 20.0015 14.948 20.0015 15.5003V18.0003H22.5015C23.0538 18.0003 23.5015 18.448 23.5015 19.0003C23.5015 19.5526 23.0538 20.0003 22.5015 20.0003H20.0015V22.5003C20.0015 23.0526 19.5538 23.5003 19.0015 23.5003C18.4492 23.5003 18.0015 23.0526 18.0015 22.5003V20.0003H15.5015C14.9492 20.0003 14.5015 19.5526 14.5015 19.0003C14.5015 18.448 14.9492 18.0003 15.5015 18.0003H18.0015V15.5003C18.0015 14.948 18.4492 14.5003 19.0015 14.5003Z" fill="#080809" style="fill:#080809;fill:color(display-p3 0.0314 0.0314 0.0353);fill-opacity:1;"/>
<path fill-rule="evenodd" clip-rule="evenodd" d="M12.0002 5C9.79104 5 8.00017 6.79086 8.00017 9C8.00017 11.2091 9.79104 13 12.0002 13C14.2093 13 16.0002 11.2091 16.0002 9C16.0002 6.79086 14.2093 5 12.0002 5ZM10.0002 9C10.0002 7.89543 10.8956 7 12.0002 7C13.1047 7 14.0002 7.89543 14.0002 9C14.0002 10.1046 13.1047 11 12.0002 11C10.8956 11 10.0002 10.1046 10.0002 9Z" fill="#080809" style="fill:#080809;fill:color(display-p3 0.0314 0.0314 0.0353);fill-opacity:1;"/>
</g>
<defs>
<clipPath id="clip0_29901_26522">
<rect width="24" height="24" fill="white" style="fill:white;fill-opacity:1;"/>
</clipPath>
</defs>
</svg>
