<svg width="24" height="24" viewBox="0 0 24 24" fill="none" xmlns="http://www.w3.org/2000/svg">
<path d="M11 14.75C9.55045 14.75 8.58904 14.7473 7.87475 14.6513C7.19642 14.5601 6.93095 14.4058 6.76257 14.2374C6.59419 14.0691 6.43989 13.8036 6.34869 13.1253C6.25266 12.411 6.25 11.4496 6.25 10V4C6.25 3.30964 5.69036 2.75 5 2.75C4.30965 2.75 3.75 3.30964 3.75 4L3.75 10.0852C3.74995 11.4267 3.7499 12.5578 3.87099 13.4584C3.99946 14.4139 4.2845 15.2949 4.9948 16.0052C5.7051 16.7155 6.58608 17.0005 7.54163 17.129C8.44223 17.2501 9.57331 17.2501 10.9148 17.25L16.9825 17.25L15.1163 19.1161C14.6282 19.6043 14.6282 20.3957 15.1163 20.8839C15.6045 21.372 16.396 21.372 16.8841 20.8839L19.8235 17.9445C20.8974 16.8706 20.8974 15.1294 19.8235 14.0555L16.8841 11.1161C16.396 10.628 15.6045 10.628 15.1163 11.1161C14.6282 11.6043 14.6282 12.3957 15.1163 12.8839L16.9825 14.75H11Z" fill="#080809" style="fill:#080809;fill:color(display-p3 0.0314 0.0314 0.0353);fill-opacity:1;"/>
</svg>
