<svg width="24" height="24" viewBox="0 0 24 24" fill="none" xmlns="http://www.w3.org/2000/svg">
<path fill-rule="evenodd" clip-rule="evenodd" d="M11.9252 23C9.63165 23 7.80859 23 6.38039 22.808C4.90794 22.6101 3.70636 22.1916 2.75736 21.2426C1.80836 20.2936 1.38994 19.0921 1.19198 17.6196C0.999961 16.1914 0.999978 14.3683 1 12.0748V11.9252C0.999978 9.63167 0.999961 7.8086 1.19198 6.38039C1.38994 4.90794 1.80836 3.70636 2.75736 2.75736C3.70636 1.80836 4.90794 1.38994 6.38039 1.19198C7.8086 0.999961 9.63167 0.999978 11.9252 1H12.0748C14.3683 0.999978 16.1914 0.999961 17.6196 1.19198C19.0921 1.38994 20.2936 1.80836 21.2426 2.75736C22.1916 3.70636 22.6101 4.90794 22.808 6.38039C23 7.80859 23 9.63165 23 11.9252V12.0748C23 14.3684 23 16.1914 22.808 17.6196C22.6101 19.0921 22.1916 20.2936 21.2426 21.2426C20.2936 22.1916 19.0921 22.6101 17.6196 22.808C16.1914 23 14.3684 23 12.0748 23H11.9252ZM17.3531 20.8259C18.6038 20.6577 19.313 20.3439 19.8284 19.8284C20.3439 19.313 20.6577 18.6038 20.8259 17.3531C20.9979 16.0737 21 14.3853 21 12C21 9.61471 20.9979 7.92634 20.8259 6.64689C20.6577 5.39621 20.3439 4.68704 19.8284 4.17157C19.313 3.65611 18.6038 3.34229 17.3531 3.17414C16.0737 3.00212 14.3853 3 12 3C11.6521 3 11.3191 3.00005 11 3.00066V20.9993C11.3191 21 11.6521 21 12 21C14.3853 21 16.0737 20.9979 17.3531 20.8259ZM4.5 14C4.5 14.5523 4.94772 15 5.5 15H6.5C7.05229 15 7.5 14.5523 7.5 14C7.5 13.4477 7.05229 13 6.5 13H5.5C4.94772 13 4.5 13.4477 4.5 14ZM5.5 11C4.94772 11 4.5 10.5523 4.5 10C4.5 9.44772 4.94772 9 5.5 9H6.5C7.05229 9 7.5 9.44772 7.5 10C7.5 10.5523 7.05229 11 6.5 11H5.5Z" fill="#080809" style="fill:#080809;fill:color(display-p3 0.0314 0.0314 0.0353);fill-opacity:1;"/>
</svg>
