<svg width="24" height="24" viewBox="0 0 24 24" fill="none" xmlns="http://www.w3.org/2000/svg">
<path d="M14.9997 8.92373C14.9689 11.0629 12.7511 12.8698 10.7792 14.0503C10.607 14.1534 10.3929 14.1534 10.2207 14.0503C8.2488 12.8698 6.03109 11.0629 6.00034 8.92373C5.97746 7.41815 7.09962 6.52371 8.24996 6.50194C9.17588 6.48443 9.83882 6.89397 10.5 7.89288C11.161 6.89413 11.824 6.48299 12.7499 6.50054C13.9003 6.52233 15.0225 7.41836 14.9997 8.92373Z" fill="#080809" style="fill:#080809;fill:color(display-p3 0.0314 0.0314 0.0353);fill-opacity:1;"/>
<path fill-rule="evenodd" clip-rule="evenodd" d="M6.68056 1C5.22322 1 3.97669 2.04734 3.72547 3.48286L0.515135 21.8276C0.419932 22.3716 0.783768 22.8898 1.32779 22.985C1.8718 23.0802 2.38999 22.7164 2.4852 22.1724L3.04036 19H15.01L14.5151 21.8276C14.4199 22.3716 14.7838 22.8898 15.3278 22.985C15.8718 23.0802 16.39 22.7164 16.4852 22.1724L17.0404 19H20.9596L21.5148 22.1724C21.61 22.7164 22.1282 23.0802 22.6722 22.985C23.2162 22.8898 23.5801 22.3716 23.4849 21.8276L20.2745 3.48286C20.0233 2.04733 18.7768 1 17.3194 1H6.68056ZM19 7.80207L20.6096 17H17.3904L19 7.80207ZM6.68056 3C6.19478 3 5.77927 3.34911 5.69553 3.82762L3.39036 17H15.36L17.6048 4.17238C17.7119 3.56046 17.241 3 16.6198 3H6.68056Z" fill="#080809" style="fill:#080809;fill:color(display-p3 0.0314 0.0314 0.0353);fill-opacity:1;"/>
</svg>
