<svg width="24" height="24" viewBox="0 0 24 24" fill="none" xmlns="http://www.w3.org/2000/svg">
<path d="M10.5 7.15296V9.55001C10.3384 9.51722 10.1712 9.5 10 9.5C8.61929 9.5 7.5 10.6193 7.5 12C7.5 13.3807 8.61929 14.5 10 14.5C11.3807 14.5 12.5 13.3807 12.5 11.9999V4.57645C12.5 3.66363 11.6915 2.96244 10.7879 3.09153L4.78787 3.94867C4.04889 4.05424 3.5 4.68712 3.5 5.4336V10.55C3.33844 10.5172 3.17123 10.5 3 10.5C1.61929 10.5 0.5 11.6193 0.5 13C0.5 14.3807 1.61929 15.5 3 15.5C4.38071 15.5 5.5 14.3807 5.5 12.9999V7.86724L10.5 7.15296Z" fill="#080809" style="fill:#080809;fill:color(display-p3 0.0314 0.0314 0.0353);fill-opacity:1;"/>
<path d="M13.75 5C13.75 4.30964 14.3096 3.75 15 3.75L21 3.75C21.6904 3.75 22.25 4.30964 22.25 5C22.25 5.69036 21.6904 6.25 21 6.25L15 6.25C14.3096 6.25 13.75 5.69036 13.75 5Z" fill="#080809" style="fill:#080809;fill:color(display-p3 0.0314 0.0314 0.0353);fill-opacity:1;"/>
<path d="M1.75 19C1.75 18.3096 2.30964 17.75 3 17.75L21 17.75C21.6904 17.75 22.25 18.3096 22.25 19C22.25 19.6904 21.6904 20.25 21 20.25L3 20.25C2.30964 20.25 1.75 19.6904 1.75 19Z" fill="#080809" style="fill:#080809;fill:color(display-p3 0.0314 0.0314 0.0353);fill-opacity:1;"/>
<path d="M15 10.75C14.3096 10.75 13.75 11.3096 13.75 12C13.75 12.6904 14.3096 13.25 15 13.25L21 13.25C21.6904 13.25 22.25 12.6904 22.25 12C22.25 11.3096 21.6904 10.75 21 10.75L15 10.75Z" fill="#080809" style="fill:#080809;fill:color(display-p3 0.0314 0.0314 0.0353);fill-opacity:1;"/>
</svg>
