<svg width="24" height="24" viewBox="0 0 24 24" fill="none" xmlns="http://www.w3.org/2000/svg">
<path d="M8.88463 3.11612C9.37279 3.60427 9.37279 4.39573 8.88463 4.88388L7.01851 6.75L13.0861 6.75C14.4277 6.74995 15.5588 6.7499 16.4594 6.87099C17.4149 6.99946 18.2959 7.2845 19.0062 7.9948C19.7165 8.7051 20.0015 9.58608 20.13 10.5416C20.2511 11.4422 20.251 12.5733 20.251 13.9148L20.251 20C20.251 20.6904 19.6913 21.25 19.001 21.25C18.3106 21.25 17.751 20.6904 17.751 20V14C17.751 12.5505 17.7483 11.589 17.6523 10.8747C17.5611 10.1964 17.4068 9.93095 17.2384 9.76257C17.07 9.59419 16.8046 9.43989 16.1262 9.34869C15.4119 9.25266 14.4505 9.25 13.001 9.25H7.01852L8.88463 11.1161C9.37279 11.6043 9.37279 12.3957 8.88463 12.8839C8.39648 13.372 7.60502 13.372 7.11687 12.8839L4.17753 9.94454C3.10359 8.8706 3.10358 7.1294 4.17753 6.05546L7.11687 3.11612C7.60502 2.62796 8.39648 2.62796 8.88463 3.11612Z" fill="#080809" style="fill:#080809;fill:color(display-p3 0.0314 0.0314 0.0353);fill-opacity:1;"/>
<path d="M7.29485 15.2929C7.68537 14.9024 8.31854 14.9024 8.70906 15.2929C9.09958 15.6834 9.09958 16.3166 8.70906 16.7071L6.41617 19L8.70906 21.2929C9.09958 21.6834 9.09958 22.3166 8.70906 22.7071C8.31854 23.0976 7.68537 23.0976 7.29485 22.7071L5.00195 20.4142L2.70906 22.7071C2.31854 23.0976 1.68537 23.0976 1.29485 22.7071C0.904322 22.3166 0.904322 21.6834 1.29485 21.2929L3.58774 19L1.29485 16.7071C0.904323 16.3166 0.904323 15.6834 1.29485 15.2929C1.68537 14.9024 2.31854 14.9024 2.70906 15.2929L5.00195 17.5858L7.29485 15.2929Z" fill="#080809" style="fill:#080809;fill:color(display-p3 0.0314 0.0314 0.0353);fill-opacity:1;"/>
</svg>
