<svg width="24" height="24" viewBox="0 0 24 24" fill="none" xmlns="http://www.w3.org/2000/svg">
<path fill-rule="evenodd" clip-rule="evenodd" d="M8.92943 1H15.0706C16.4247 0.999968 17.5413 0.999941 18.4251 1.11876C19.3529 1.2435 20.1723 1.51547 20.8284 2.17158C21.4845 2.82769 21.7565 3.64711 21.8813 4.57494C22.0001 5.45868 22 6.57532 22 7.9294V16.032C22 16.4706 22 16.8491 21.9787 17.1624C21.9562 17.4922 21.9066 17.8221 21.7716 18.1481C21.5977 18.568 21.3325 18.9387 21 19.2361V22C21 22.5523 20.5523 23 20 23H18C17.4477 23 17 22.5523 17 22V20H7V22C7 22.5523 6.55229 23 6 23H4C3.44772 23 3 22.5523 3 22V19.2361C2.66752 18.9387 2.40232 18.568 2.22837 18.1481C2.09336 17.8221 2.04386 17.4922 2.02135 17.1624C1.99998 16.8492 1.99999 16.4706 2 16.032V7.92939C1.99997 6.57531 1.99994 5.45868 2.11876 4.57494C2.2435 3.64711 2.51547 2.82769 3.17158 2.17158C3.82769 1.51547 4.64711 1.2435 5.57494 1.11876C6.45868 0.999941 7.57535 0.999968 8.92943 1ZM17 16.5C17.8284 16.5 18.5 15.8284 18.5 15C18.5 14.1716 17.8284 13.5 17 13.5C16.1716 13.5 15.5 14.1716 15.5 15C15.5 15.8284 16.1716 16.5 17 16.5ZM8.5 15C8.5 15.8284 7.82843 16.5 7 16.5C6.17157 16.5 5.5 15.8284 5.5 15C5.5 14.1716 6.17157 13.5 7 13.5C7.82843 13.5 8.5 14.1716 8.5 15ZM20 6H4V11H20V6Z" fill="#080809" style="fill:#080809;fill:color(display-p3 0.0314 0.0314 0.0353);fill-opacity:1;"/>
</svg>
