<svg width="24" height="24" viewBox="0 0 24 24" fill="none" xmlns="http://www.w3.org/2000/svg">
<path fill-rule="evenodd" clip-rule="evenodd" d="M20.9142 4.49985C20.1332 3.7188 18.8668 3.7188 18.0858 4.49985L10.4393 12.1463C10.158 12.4276 10 12.8091 10 13.207V14.9998C10 15.8283 10.6716 16.4998 11.5 16.4998H13.2929C13.6907 16.4998 14.0722 16.3418 14.3536 16.0605L22 8.41406C22.781 7.63301 22.781 6.36668 22 5.58564L20.9142 4.49985ZM12 14.4998V13.4141L19.5 5.91406L20.5858 6.99985L13.0858 14.4998H12Z" fill="#080809" style="fill:#080809;fill:color(display-p3 0.0314 0.0314 0.0353);fill-opacity:1;"/>
<path d="M5.41406 10.9998C4.63301 10.2188 3.36669 10.2188 2.58564 10.9998L1.49985 12.0856C0.7188 12.8667 0.7188 14.133 1.49985 14.9141L6.73208 20.1463C7.7084 21.1226 9.29131 21.1226 10.2676 20.1463L11.207 19.207C11.5975 18.8164 11.5975 18.1833 11.207 17.7927C10.8164 17.4022 10.1833 17.4022 9.79274 17.7927L8.8534 18.7321C8.65814 18.9273 8.34156 18.9273 8.1463 18.7321L2.91406 13.4998L3.99985 12.4141L7.29274 15.707C7.68327 16.0975 8.31643 16.0975 8.70696 15.707C9.09748 15.3164 9.09748 14.6833 8.70696 14.2927L5.41406 10.9998Z" fill="#080809" style="fill:#080809;fill:color(display-p3 0.0314 0.0314 0.0353);fill-opacity:1;"/>
</svg>
