<svg width="24" height="24" viewBox="0 0 24 24" fill="none" xmlns="http://www.w3.org/2000/svg">
<path fill-rule="evenodd" clip-rule="evenodd" d="M9.92943 0.500001H14.0706C15.4247 0.499968 16.5413 0.499941 17.4251 0.618757C18.3529 0.7435 19.1723 1.01547 19.8284 1.67158C20.4845 2.32769 20.7565 3.14711 20.8813 4.07494C21.0001 4.9587 21 6.0753 21 7.42942V16.5706C21 17.9247 21.0001 19.0413 20.8813 19.9251C20.7565 20.8529 20.4845 21.6723 19.8284 22.3284C19.1723 22.9845 18.3529 23.2565 17.4251 23.3813C16.5413 23.5001 15.4247 23.5 14.0706 23.5H9.92946C8.57535 23.5 7.4587 23.5001 6.57494 23.3813C5.64711 23.2565 4.82769 22.9845 4.17158 22.3284C3.51547 21.6723 3.2435 20.8529 3.11876 19.9251C2.99994 19.0413 2.99997 17.9247 3 16.5706V7.42943C2.99997 6.07535 2.99994 4.95868 3.11876 4.07494C3.2435 3.14711 3.51547 2.32769 4.17158 1.67158C4.82769 1.01547 5.64711 0.7435 6.57494 0.618757C7.45868 0.499941 8.57535 0.499968 9.92943 0.500001ZM14.7071 6.20711C15.0976 5.81658 15.0976 5.18342 14.7071 4.79289C14.3166 4.40237 13.6834 4.40237 13.2929 4.79289L12 6.08579L10.7071 4.79289C10.3166 4.40237 9.68342 4.40237 9.29289 4.79289C8.90237 5.18342 8.90237 5.81658 9.29289 6.20711L10.5858 7.5L9.29289 8.79289C8.90237 9.18342 8.90237 9.81658 9.29289 10.2071C9.68342 10.5976 10.3166 10.5976 10.7071 10.2071L12 8.91421L13.2929 10.2071C13.6834 10.5976 14.3166 10.5976 14.7071 10.2071C15.0976 9.81658 15.0976 9.18342 14.7071 8.79289L13.4142 7.5L14.7071 6.20711ZM7 14C7 13.4477 7.44772 13 8 13H16C16.5523 13 17 13.4477 17 14C17 14.5523 16.5523 15 16 15H8C7.44772 15 7 14.5523 7 14ZM7 18C7 17.4477 7.44772 17 8 17H16C16.5523 17 17 17.4477 17 18C17 18.5523 16.5523 19 16 19H8C7.44772 19 7 18.5523 7 18Z" fill="#080809" style="fill:#080809;fill:color(display-p3 0.0314 0.0314 0.0353);fill-opacity:1;"/>
</svg>
