<svg width="24" height="24" viewBox="0 0 24 24" fill="none" xmlns="http://www.w3.org/2000/svg">
<path fill-rule="evenodd" clip-rule="evenodd" d="M20.3713 2.4568C19.1997 1.28523 17.3003 1.28523 16.1287 2.45681L2.58579 15.9997C2.21071 16.3748 2 16.8835 2 17.4139V20.4996C2 21.328 2.67157 21.9996 3.5 21.9996H6.58579C7.11622 21.9996 7.62493 21.7889 8 21.4138C12.5144 16.8994 17.0286 12.3853 21.5429 7.87102C22.7145 6.69945 22.7145 4.79995 21.5429 3.62837L20.3713 2.4568ZM18.9998 7.58563L20.1287 6.4568C20.5192 6.06628 20.5192 5.43311 20.1287 5.04259L18.9571 3.87102C18.5666 3.48049 17.9334 3.48049 17.5429 3.87102L16.4141 4.99985L18.9998 7.58563ZM14.9998 6.41406L4 17.4139L4 19.9996H6.58579L17.5856 8.99984L14.9998 6.41406Z" fill="#080809" style="fill:#080809;fill:color(display-p3 0.0314 0.0314 0.0353);fill-opacity:1;"/>
</svg>
