<svg width="24" height="24" viewBox="0 0 24 24" fill="none" xmlns="http://www.w3.org/2000/svg">
<path d="M9.73223 2.85443C11.3071 1.27952 14 2.39493 14 4.6222V7.30957C12.7673 8.4925 12 10.1566 12 12C12 13.8434 12.7673 15.5075 14 16.6904V19.3796C14 21.6068 11.3071 22.7222 9.73223 21.1473L5.58441 16.9995H3.5C1.84315 16.9995 0.5 15.6564 0.5 13.9995V9.99951C0.5 8.34265 1.84315 6.99951 3.5 6.99951H5.58716L9.73223 2.85443Z" fill="#080809" style="fill:#080809;fill:color(display-p3 0.0314 0.0314 0.0353);fill-opacity:1;"/>
<path fill-rule="evenodd" clip-rule="evenodd" d="M13.5 12C13.5 9.23858 15.7386 7 18.5 7C21.2614 7 23.5 9.23858 23.5 12C23.5 14.7614 21.2614 17 18.5 17C15.7386 17 13.5 14.7614 13.5 12ZM15.7928 10.7057C15.6051 11.0976 15.5 11.5365 15.5 12C15.5 13.6569 16.8431 15 18.5 15C18.9635 15 19.4024 14.8949 19.7943 14.7072L15.7928 10.7057ZM17.2075 9.29195L21.208 13.2925C21.3952 12.9011 21.5 12.4628 21.5 12C21.5 10.3431 20.1569 9 18.5 9C18.0372 9 17.5989 9.10479 17.2075 9.29195Z" fill="#080809" style="fill:#080809;fill:color(display-p3 0.0314 0.0314 0.0353);fill-opacity:1;"/>
</svg>
