<svg width="24" height="24" viewBox="0 0 24 24" fill="none" xmlns="http://www.w3.org/2000/svg">
<path d="M13.3868 2.22261C12.547 1.66278 11.453 1.66278 10.6132 2.22261L0.9453 8.66791C0.667101 8.85337 0.5 9.16561 0.5 9.49996C0.5 9.83431 0.667101 10.1465 0.9453 10.332L10.6132 16.7773C10.6183 16.7807 10.6234 16.784 10.6284 16.7874L11.168 17.1471C11.6718 17.483 12.3282 17.483 12.8321 17.1471L13.3784 16.7829C13.3812 16.781 13.384 16.7792 13.3868 16.7773L21.5 11.3685V14C21.5 14.5523 21.9477 15 22.5 15C23.0523 15 23.5 14.5523 23.5 14V9.5C23.5 9.26418 23.4184 9.04743 23.2818 8.87645C23.2346 8.81722 23.1804 8.76307 23.12 8.71533C23.0956 8.696 23.0702 8.6778 23.044 8.66078L13.3868 2.22261Z" fill="#080809" style="fill:#080809;fill:color(display-p3 0.0314 0.0314 0.0353);fill-opacity:1;"/>
<path d="M4 16.8333V14.1712L10.3359 18.3951C11.3436 19.0669 12.6564 19.0669 13.6641 18.3951L20 14.1712V16.8333C20 17.1677 19.8329 17.4799 19.5547 17.6654L13.3868 21.7773C12.547 22.3372 11.453 22.3372 10.6132 21.7773L4.4453 17.6654C4.1671 17.4799 4 17.1677 4 16.8333Z" fill="#080809" style="fill:#080809;fill:color(display-p3 0.0314 0.0314 0.0353);fill-opacity:1;"/>
</svg>
