<svg width="24" height="24" viewBox="0 0 24 24" fill="none" xmlns="http://www.w3.org/2000/svg">
<path fill-rule="evenodd" clip-rule="evenodd" d="M9.76131 1.79656C10.1264 1.00557 10.918 0.499018 11.7892 0.499023C14.067 0.499033 15.7258 2.65822 15.1389 4.85911L14.3577 7.78859C14.3294 7.89482 14.4095 7.99904 14.5194 7.99904C14.5469 7.99904 14.5744 7.99936 14.6019 8H18.5C20.7091 8 22.5 9.79086 22.5 12C22.5 12.8368 22.2422 13.6147 21.8028 14.2569C21.9309 14.6489 22 15.067 22 15.5C22 16.7717 21.4063 17.9037 20.4836 18.6356C20.4945 18.7556 20.5 18.877 20.5 18.9995C20.5 21.2087 18.7091 22.9995 16.5 22.9995H12.25L12.2469 22.9995L12.2311 22.9995L6.99956 22.9994C4.23831 22.9991 2 20.7606 2 17.9994V13.4416C2 12.2265 2.55232 11.0773 3.50112 10.3182L5.16328 8.98837C6.49673 7.92154 7.56349 6.5589 8.27906 5.00836L9.76131 1.79656ZM11.7892 2.49902C11.6981 2.49902 11.6154 2.55196 11.5773 2.63462L10.095 5.84642C9.24933 7.67888 7.98862 9.28927 6.41272 10.5501L4.75056 11.8799C4.27616 12.2594 4 12.834 4 13.4416V17.9994C4 19.6561 5.34299 20.9992 6.99974 20.9994L12.2341 20.9995L12.25 20.9995H16.5C17.6046 20.9995 18.5 20.1041 18.5 18.9995C18.5 18.8044 18.4724 18.6175 18.4214 18.4416C18.2888 17.9838 18.4978 17.4961 18.9207 17.2762C19.5641 16.9417 20 16.2709 20 15.5C20 15.1591 19.9155 14.8409 19.7672 14.5622C19.5629 14.1784 19.63 13.7064 19.9333 13.3948C20.285 13.0335 20.5 12.5429 20.5 12C20.5 10.8954 19.6046 10 18.5 10H14.5892C14.58 10 14.5708 9.99987 14.5616 9.99962C14.5476 9.99923 14.5335 9.99904 14.5194 9.99904C13.0954 9.99904 12.0583 8.64918 12.4252 7.27326L13.2065 4.34378C13.4548 3.41258 12.7529 2.49903 11.7892 2.49902Z" fill="#080809" style="fill:#080809;fill:color(display-p3 0.0314 0.0314 0.0353);fill-opacity:1;"/>
</svg>
