<svg width="24" height="24" viewBox="0 0 24 24" fill="none" xmlns="http://www.w3.org/2000/svg">
<path fill-rule="evenodd" clip-rule="evenodd" d="M20.5 4C22.1569 4 23.5 5.34315 23.5 7V17C23.5 18.6569 22.1569 20 20.5 20H3.5C1.84315 20 0.5 18.6569 0.5 17V7C0.5 5.34315 1.84315 4 3.5 4H20.5ZM2.5 13V17C2.5 17.5523 2.94772 18 3.5 18H20.5C21.0523 18 21.5 17.5523 21.5 17V13H16.3867C15.9318 15.0038 14.1415 16.5 12 16.5C9.85855 16.5 8.06815 15.0038 7.61328 13H2.5ZM12 9.5C10.6193 9.5 9.5 10.6193 9.5 12C9.5 13.3807 10.6193 14.5 12 14.5C13.3807 14.5 14.5 13.3807 14.5 12C14.5 10.6193 13.3807 9.5 12 9.5ZM3.5 6C2.94772 6 2.5 6.44772 2.5 7V11H7.61328C8.06815 8.9962 9.85855 7.5 12 7.5C14.1415 7.5 15.9318 8.9962 16.3867 11H21.5V7C21.5 6.44772 21.0523 6 20.5 6H3.5Z" fill="#080809" style="fill:#080809;fill:color(display-p3 0.0314 0.0314 0.0353);fill-opacity:1;"/>
</svg>
