<svg width="24" height="24" viewBox="0 0 24 24" fill="none" xmlns="http://www.w3.org/2000/svg">
<path fill-rule="evenodd" clip-rule="evenodd" d="M13.3171 1.34658C12.7989 0.223018 11.202 0.223013 10.6838 1.34658L9.45532 4.00988L6.54276 4.35521C5.31404 4.50089 4.82058 6.0196 5.729 6.85969L7.88233 8.85102L7.31073 11.7277C7.06959 12.9413 8.36148 13.88 9.44117 13.2756L12.0005 11.843L14.5598 13.2756C15.6394 13.88 16.9313 12.9414 16.6902 11.7277L16.1186 8.85102L18.2719 6.85969C19.1803 6.0196 18.6869 4.50089 17.4582 4.35521L14.5456 4.00988L13.3171 1.34658ZM11.037 5.35586L12.0005 3.26704L12.9639 5.35586C13.1096 5.67167 13.4089 5.88911 13.7543 5.93006L16.0386 6.2009L14.3497 7.76271C14.0944 7.99883 13.9801 8.35066 14.0478 8.69178L14.4962 10.948L12.4889 9.82442C12.1854 9.65454 11.8155 9.65454 11.512 9.82442L9.50477 10.948L9.95307 8.69178C10.0209 8.35066 9.90654 7.99883 9.6512 7.76271L7.96235 6.2009L10.2467 5.93006C10.592 5.88911 10.8913 5.67167 11.037 5.35586Z" fill="#080809" style="fill:#080809;fill:color(display-p3 0.0314 0.0314 0.0353);fill-opacity:1;"/>
<path d="M17 21H16.5V16.5C16.5 15.9477 16.0523 15.5 15.5 15.5C14.9477 15.5 14.5 15.9477 14.5 16.5V21H13L13 15C13 14.4477 12.5523 14 12 14C11.4477 14 11 14.4477 11 15L11 21H9.5L9.5 16.5C9.5 15.9477 9.05229 15.5 8.5 15.5C7.94772 15.5 7.5 15.9477 7.5 16.5L7.5 21H7C6.44772 21 6 21.4477 6 22C6 22.5523 6.44772 23 7 23H17C17.5523 23 18 22.5523 18 22C18 21.4477 17.5523 21 17 21Z" fill="#080809" style="fill:#080809;fill:color(display-p3 0.0314 0.0314 0.0353);fill-opacity:1;"/>
</svg>
