<svg width="24" height="24" viewBox="0 0 24 24" fill="none" xmlns="http://www.w3.org/2000/svg">
<path d="M13.5 5.00037C11.7051 5.00037 10.25 6.45544 10.25 8.25037C10.25 10.0453 11.7051 11.5004 13.5 11.5004C15.2949 11.5004 16.75 10.0453 16.75 8.25037C16.75 6.45544 15.2949 5.00037 13.5 5.00037Z" fill="#080809" style="fill:#080809;fill:color(display-p3 0.0314 0.0314 0.0353);fill-opacity:1;"/>
<path fill-rule="evenodd" clip-rule="evenodd" d="M13.4291 1.50195H13.5755C15.3985 1.50193 16.868 1.50191 18.0238 1.65729C19.2237 1.81862 20.234 2.16375 21.0365 2.96619C21.8389 3.76862 22.184 4.77897 22.3454 5.9789C22.5008 7.13463 22.5007 8.6041 22.5007 10.4272V10.5736C22.5007 12.3966 22.5008 13.8661 22.3454 15.0218C22.184 16.2217 21.8389 17.2321 21.0365 18.0345C20.234 18.837 19.2237 19.1821 18.0238 19.3434C16.868 19.4988 15.3986 19.4988 13.5755 19.4988H13.4291C11.606 19.4988 10.1366 19.4988 8.98085 19.3434C7.78092 19.1821 6.77058 18.837 5.96814 18.0345C5.1657 17.2321 4.82057 16.2217 4.65924 15.0218C4.50386 13.8661 4.50388 12.3966 4.50391 10.5735V10.4272C4.50388 8.60412 4.50386 7.13463 4.65924 5.9789C4.82057 4.77897 5.1657 3.76863 5.96814 2.96619C6.77058 2.16375 7.78092 1.81862 8.98085 1.65729C10.1366 1.50191 11.6061 1.50193 13.4291 1.50195ZM9.24735 3.63946C8.2692 3.77096 7.75125 4.0115 7.38235 4.3804C7.01345 4.7493 6.77292 5.26724 6.64141 6.24539C6.50603 7.25231 6.50391 8.58684 6.50391 10.5004C6.50391 12.4139 6.50603 13.7484 6.64141 14.7553C6.77292 15.7335 7.01345 16.2514 7.38235 16.6203C7.56338 16.8013 7.7803 16.9515 8.06989 17.0729C8.02673 16.8889 8.00391 16.6971 8.00391 16.5C8.00391 14.2912 9.79441 12.5004 12.0033 12.5004H15.0027C17.2116 12.5004 19.0021 14.2912 19.0021 16.5C19.0021 16.6969 18.9793 16.8885 18.9363 17.0723C19.2251 16.9509 19.4416 16.801 19.6223 16.6203C19.9912 16.2514 20.2317 15.7335 20.3632 14.7553C20.4986 13.7484 20.5007 12.4139 20.5007 10.5004C20.5007 8.58684 20.4986 7.25231 20.3632 6.24539C20.2317 5.26724 19.9912 4.7493 19.6223 4.3804C19.2534 4.0115 18.7354 3.77096 17.7573 3.63946C16.7504 3.50408 15.4158 3.50196 13.5023 3.50196C11.5888 3.50196 10.2543 3.50408 9.24735 3.63946Z" fill="#080809" style="fill:#080809;fill:color(display-p3 0.0314 0.0314 0.0353);fill-opacity:1;"/>
<path d="M3 8.5C3 7.94772 2.55229 7.5 2 7.5C1.44772 7.5 1 7.94772 1 8.5V14.0732C0.999974 15.8966 0.999952 17.3664 1.15537 18.5223C1.31672 19.7225 1.66191 20.733 2.46447 21.5355C3.26702 22.3381 4.27752 22.6833 5.47767 22.8446C6.63361 23 8.10336 23 9.92678 23H15.5C16.0523 23 16.5 22.5523 16.5 22C16.5 21.4477 16.0523 21 15.5 21H10C8.08611 21 6.7513 20.9979 5.74416 20.8625C4.7658 20.7309 4.2477 20.4903 3.87868 20.1213C3.50966 19.7523 3.26907 19.2342 3.13753 18.2558C3.00213 17.2487 3 15.9139 3 14V8.5Z" fill="#080809" style="fill:#080809;fill:color(display-p3 0.0314 0.0314 0.0353);fill-opacity:1;"/>
</svg>
