<svg width="24" height="24" viewBox="0 0 24 24" fill="none" xmlns="http://www.w3.org/2000/svg">
<path d="M12 12.75C12.6904 12.75 13.25 12.1904 13.25 11.5C13.25 10.8096 12.6904 10.25 12 10.25C11.3096 10.25 10.75 10.8096 10.75 11.5C10.75 12.1904 11.3096 12.75 12 12.75Z" fill="#080809" style="fill:#080809;fill:color(display-p3 0.0314 0.0314 0.0353);fill-opacity:1;"/>
<path fill-rule="evenodd" clip-rule="evenodd" d="M8 3C8 1.61946 9.11892 0.5 10.4998 0.5H13.5005C14.8816 0.5 16 1.61968 16 3V4H20.5C22.1569 4 23.5 5.34315 23.5 7V12C23.5 13.0144 23.1224 13.9407 22.5 14.6458V18C22.5 20.2091 20.7091 22 18.5 22H5.5C3.29086 22 1.5 20.2091 1.5 18V14.6458C0.877637 13.9407 0.5 13.0144 0.5 12V7C0.5 5.34315 1.84315 4 3.5 4H8V3ZM14 3V4H10V3C10 2.72369 10.2238 2.5 10.4998 2.5H13.5005C13.7762 2.5 14 2.72346 14 3ZM20.5 15.874C20.1804 15.9562 19.8453 16 19.5 16H4.5C4.1547 16 3.81962 15.9562 3.5 15.874V18C3.5 19.1046 4.39543 20 5.5 20H18.5C19.6046 20 20.5 19.1046 20.5 18V15.874ZM2.5 7C2.5 6.44772 2.94772 6 3.5 6H20.5C21.0523 6 21.5 6.44772 21.5 7V12C21.5 13.1046 20.6046 14 19.5 14H4.5C3.39543 14 2.5 13.1046 2.5 12V7Z" fill="#080809" style="fill:#080809;fill:color(display-p3 0.0314 0.0314 0.0353);fill-opacity:1;"/>
</svg>
