<svg width="24" height="24" viewBox="0 0 24 24" fill="none" xmlns="http://www.w3.org/2000/svg">
<path fill-rule="evenodd" clip-rule="evenodd" d="M1.29289 1.29289C1.68342 0.902369 2.31658 0.902369 2.70711 1.29289L4.62381 3.20959C5.84342 2.99983 7.40927 2.99991 9.37096 3L9.57297 3.00001C11.3964 2.99998 12.8662 2.99996 14.0221 3.15537C15.2223 3.31673 16.2328 3.66192 17.0353 4.46447C17.8379 5.26703 18.1831 6.27753 18.3444 7.47767C18.3908 7.82221 18.4233 8.19462 18.4461 8.59596L21.1449 6.72334C22.1396 6.03313 23.5 6.745 23.5 7.95572V16.0124C23.5 17.2417 22.1025 17.9491 21.1119 17.2212L18.4534 15.2681C18.4231 15.8599 18.373 16.3949 18.2902 16.876L22.7071 21.2929C23.0976 21.6834 23.0976 22.3166 22.7071 22.7071C22.3166 23.0976 21.6834 23.0976 21.2929 22.7071L1.29289 2.70711C0.902369 2.31658 0.902369 1.68342 1.29289 1.29289ZM16.4619 15.0477L6.45208 5.03786C7.26478 5.00165 8.25817 5.00001 9.4998 5.00001C11.4137 5.00001 12.7485 5.00213 13.7556 5.13754C14.734 5.26908 15.2521 5.50967 15.6211 5.87869C15.9901 6.24771 16.2307 6.7658 16.3623 7.74417C16.4977 8.7513 16.4998 10.0861 16.4998 12C16.4998 13.2416 16.4982 14.235 16.4619 15.0477ZM21.5 15.0246V8.91123L18.5 10.9929V12.8206L21.5 15.0246Z" fill="#080809" style="fill:#080809;fill:color(display-p3 0.0314 0.0314 0.0353);fill-opacity:1;"/>
<path d="M2.76834 7.04616C2.9048 6.511 2.5816 5.96654 2.04644 5.83008C1.51128 5.69361 0.966818 6.01682 0.830355 6.55198C0.499711 7.84865 0.49984 9.58845 0.500007 11.8458L0.500014 12.0729C0.499987 13.8964 0.499965 15.3661 0.655379 16.5221C0.816734 17.7222 1.16193 18.7327 1.96448 19.5353C2.76704 20.3378 3.77754 20.683 4.97768 20.8444C6.13363 20.9998 7.60337 20.9998 9.4268 20.9997L9.65397 20.9997C11.9113 20.9999 13.6511 21 14.9478 20.6694C15.4829 20.5329 15.8061 19.9885 15.6697 19.4533C15.5332 18.9182 14.9888 18.5949 14.4536 18.7314C13.4318 18.992 11.9537 18.9997 9.50002 18.9997C7.58613 18.9997 6.25131 18.9976 5.24418 18.8622C4.26581 18.7307 3.74771 18.4901 3.37869 18.1211C3.00968 17.752 2.76908 17.2339 2.63754 16.2556C2.50214 15.2484 2.50002 13.9136 2.50002 11.9997C2.50002 9.54607 2.5078 8.06792 2.76834 7.04616Z" fill="#080809" style="fill:#080809;fill:color(display-p3 0.0314 0.0314 0.0353);fill-opacity:1;"/>
</svg>
