<svg width="24" height="24" viewBox="0 0 24 24" fill="none" xmlns="http://www.w3.org/2000/svg">
<path d="M3.5 5C3.5 2.79086 5.29086 1 7.5 1C9.70914 1 11.5 2.79086 11.5 5C11.5 7.20914 9.70914 9 7.5 9C5.29086 9 3.5 7.20914 3.5 5Z" fill="#080809" style="fill:#080809;fill:color(display-p3 0.0314 0.0314 0.0353);fill-opacity:1;"/>
<path d="M19.7058 15.7071C20.0963 15.3166 20.0963 14.6834 19.7058 14.2929C19.3153 13.9023 18.6821 13.9023 18.2916 14.2929L15.4987 17.0858L14.7058 16.2929C14.3153 15.9023 13.6821 15.9023 13.2916 16.2929C12.9011 16.6834 12.9011 17.3166 13.2916 17.7071L14.0845 18.5C14.8655 19.281 16.1319 19.281 16.9129 18.5L19.7058 15.7071Z" fill="#080809" style="fill:#080809;fill:color(display-p3 0.0314 0.0314 0.0353);fill-opacity:1;"/>
<path fill-rule="evenodd" clip-rule="evenodd" d="M13 10C11.3431 10 10 11.3431 10 13V20C10 21.6569 11.3431 23 13 23H20C21.6569 23 23 21.6569 23 20V13C23 11.3431 21.6569 10 20 10H13ZM12 13C12 12.4477 12.4477 12 13 12H20C20.5523 12 21 12.4477 21 13V20C21 20.5523 20.5523 21 20 21H13C12.4477 21 12 20.5523 12 20V13Z" fill="#080809" style="fill:#080809;fill:color(display-p3 0.0314 0.0314 0.0353);fill-opacity:1;"/>
<path d="M0.5 15.5C0.5 12.7386 2.73858 10.5 5.5 10.5H7C7.55228 10.5 8 10.9477 8 11.5V17.5C8 18.0523 7.55228 18.5 7 18.5H3.5C1.84315 18.5 0.5 17.1569 0.5 15.5Z" fill="#080809" style="fill:#080809;fill:color(display-p3 0.0314 0.0314 0.0353);fill-opacity:1;"/>
</svg>
