<svg width="24" height="24" viewBox="0 0 24 24" fill="none" xmlns="http://www.w3.org/2000/svg">
<path fill-rule="evenodd" clip-rule="evenodd" d="M18.868 7.67284C14.3792 6.3903 9.62084 6.3903 5.13197 7.67284L4.12639 7.96015C1.97989 8.57343 0.5 10.5354 0.5 12.7678V14.6145C0.5 16.0806 1.75591 17.2321 3.21657 17.1051L6.23216 16.8428C7.32616 16.7477 8.23 15.9498 8.46009 14.8761L8.78191 13.3743C8.82188 13.1877 8.96449 13.0402 9.14954 12.994L9.33211 12.9483C11.0837 12.5104 12.9163 12.5104 14.6679 12.9483L14.8491 12.9936C15.0344 13.0399 15.1771 13.1878 15.2169 13.3746L15.5398 14.8917C15.7695 15.9707 16.6792 16.7716 17.7785 16.8627L20.7935 17.1126C22.2507 17.2333 23.5 16.0833 23.5 14.6211V12.7678C23.5 10.5354 22.0201 8.57343 19.8736 7.96015L18.868 7.67284ZM5.68141 9.59589C9.81118 8.41595 14.1888 8.41595 18.3186 9.59589L19.3242 9.88319C20.6121 10.2512 21.5 11.4283 21.5 12.7678V14.6211C21.5 14.9135 21.2501 15.1436 20.9587 15.1194L17.9437 14.8695C17.7238 14.8513 17.5419 14.6911 17.496 14.4754L17.173 12.9582C16.9742 12.0241 16.2606 11.2849 15.3341 11.0533L15.153 11.008C13.0828 10.4905 10.9172 10.4905 8.84704 11.008L8.66447 11.0537C7.73919 11.285 7.02614 12.0226 6.8263 12.9552L6.50449 14.457C6.45847 14.6718 6.2777 14.8313 6.0589 14.8504L3.04331 15.1126C2.75118 15.138 2.5 14.9077 2.5 14.6145V12.7678C2.5 11.4283 3.38793 10.2512 4.67584 9.88319L5.68141 9.59589Z" fill="#080809" style="fill:#080809;fill:color(display-p3 0.0314 0.0314 0.0353);fill-opacity:1;"/>
</svg>
