<svg width="24" height="24" viewBox="0 0 24 24" fill="none" xmlns="http://www.w3.org/2000/svg">
<path fill-rule="evenodd" clip-rule="evenodd" d="M12 0.5C8.68629 0.5 6 3.18629 6 6.5C6 9.81371 8.68629 12.5 12 12.5C15.3137 12.5 18 9.81371 18 6.5C18 3.18629 15.3137 0.5 12 0.5ZM8 6.5C8 4.29086 9.79086 2.5 12 2.5C14.2091 2.5 16 4.29086 16 6.5C16 8.70914 14.2091 10.5 12 10.5C9.79086 10.5 8 8.70914 8 6.5Z" fill="#080809" style="fill:#080809;fill:color(display-p3 0.0314 0.0314 0.0353);fill-opacity:1;"/>
<path d="M8.2842 13.0163C8.10085 13.4751 8 13.9758 8 14.5C8 16.7091 9.79086 18.5 12 18.5C14.2091 18.5 16 16.7091 16 14.5C16 13.9758 15.8992 13.4751 15.7158 13.0163C14.6204 13.6423 13.352 14 12 14C10.648 14 9.37959 13.6423 8.2842 13.0163Z" fill="#080809" style="fill:#080809;fill:color(display-p3 0.0314 0.0314 0.0353);fill-opacity:1;"/>
<path d="M9.26234 19.2715C9.09378 19.6465 9 20.0624 9 20.5002C9 22.157 10.3431 23.5002 12 23.5002C13.6569 23.5002 15 22.157 15 20.5002C15 20.0624 14.9062 19.6465 14.7377 19.2715C13.9315 19.7351 12.9967 20.0002 12 20.0002C11.0033 20.0002 10.0685 19.7351 9.26234 19.2715Z" fill="#080809" style="fill:#080809;fill:color(display-p3 0.0314 0.0314 0.0353);fill-opacity:1;"/>
</svg>
