<svg width="24" height="24" viewBox="0 0 24 24" fill="none" xmlns="http://www.w3.org/2000/svg">
<path d="M20 3C20.5523 3 21 3.44772 21 4V16C21 16.5523 20.5523 17 20 17H17.5C16.9477 17 16.5 17.4477 16.5 18C16.5 18.5523 16.9477 19 17.5 19H20C21.6569 19 23 17.6569 23 16V4C23 2.34315 21.6569 1 20 1H12C11.2398 1 10.5436 1.28402 10.0154 1.75026C9.60128 2.11573 9.56188 2.74766 9.92735 3.16173C10.2928 3.5758 10.9248 3.6152 11.3388 3.24974C11.5157 3.09361 11.7457 3 12 3H20Z" fill="#080809" style="fill:#080809;fill:color(display-p3 0.0314 0.0314 0.0353);fill-opacity:1;"/>
<path d="M5.5 13.5C4.94772 13.5 4.5 13.9477 4.5 14.5C4.5 15.0523 4.94772 15.5 5.5 15.5C6.05228 15.5 6.5 15.9477 6.5 16.5C6.5 17.0523 6.94772 17.5 7.5 17.5C8.05228 17.5 8.5 17.0523 8.5 16.5C8.5 14.8431 7.15685 13.5 5.5 13.5Z" fill="#080809" style="fill:#080809;fill:color(display-p3 0.0314 0.0314 0.0353);fill-opacity:1;"/>
<path d="M4.5 11C4.5 10.4477 4.94772 10 5.5 10C9.08985 10 12 12.9101 12 16.5C12 17.0523 11.5523 17.5 11 17.5C10.4477 17.5 10 17.0523 10 16.5C10 14.0147 7.98528 12 5.5 12C4.94772 12 4.5 11.5523 4.5 11Z" fill="#080809" style="fill:#080809;fill:color(display-p3 0.0314 0.0314 0.0353);fill-opacity:1;"/>
<path fill-rule="evenodd" clip-rule="evenodd" d="M4 5C2.34315 5 1 6.34315 1 8V20C1 21.6569 2.34315 23 4 23H12C13.6569 23 15 21.6569 15 20V8C15 6.34315 13.6569 5 12 5H4ZM3 8C3 7.44772 3.44772 7 4 7H12C12.5523 7 13 7.44772 13 8V20C13 20.5523 12.5523 21 12 21H4C3.44772 21 3 20.5523 3 20V8Z" fill="#080809" style="fill:#080809;fill:color(display-p3 0.0314 0.0314 0.0353);fill-opacity:1;"/>
</svg>
