<svg width="24" height="24" viewBox="0 0 24 24" fill="none" xmlns="http://www.w3.org/2000/svg">
<path d="M15.2071 0.792893C15.5385 1.12433 15.5887 1.63053 15.3576 2.01485C16.1758 2.03248 16.8952 2.07105 17.5223 2.15536C18.7225 2.31672 19.733 2.66191 20.5355 3.46447C21.3381 4.26702 21.6833 5.27752 21.8446 6.47766C22.0001 7.63363 22 9.1034 22 10.9269V13.0731C22 14.8966 22.0001 16.3664 21.8446 17.5223C21.6833 18.7225 21.3381 19.733 20.5355 20.5355C19.4331 21.6379 17.926 21.8859 16.0415 21.9642C15.4897 21.9871 15.0238 21.5583 15.0009 21.0065C14.9779 20.4547 15.4067 19.9888 15.9585 19.9659C17.8186 19.8886 18.6074 19.6353 19.1213 19.1213C19.4903 18.7523 19.7309 18.2342 19.8625 17.2558C19.9979 16.2487 20 14.9139 20 13V11C20 9.08611 19.9979 7.75129 19.8625 6.74416C19.7309 5.76579 19.4903 5.2477 19.1213 4.87868C18.7523 4.50966 18.2342 4.26907 17.2558 4.13753C16.2487 4.00212 14.9139 4 13 4C12.5955 4 12.2309 3.75636 12.0761 3.38268C11.9213 3.00901 12.0069 2.57889 12.2929 2.29289L13.7929 0.792893C14.1834 0.402369 14.8166 0.402369 15.2071 0.792893Z" fill="#080809" style="fill:#080809;fill:color(display-p3 0.0314 0.0314 0.0353);fill-opacity:1;"/>
<path d="M8.0415 4.0341C8.59331 4.01119 9.02206 3.54528 8.99914 2.99347C8.97622 2.44166 8.51032 2.01291 7.95851 2.03582C6.07402 2.11409 4.56687 2.36206 3.46447 3.46447C2.66191 4.26702 2.31672 5.27752 2.15537 6.47767C1.99995 7.63362 1.99997 9.10337 2 10.9268V13.0732C1.99997 14.8966 1.99995 16.3664 2.15537 17.5223C2.31672 18.7225 2.66191 19.733 3.46447 20.5355C4.26702 21.3381 5.27752 21.6833 6.47767 21.8446C7.10478 21.9289 7.82425 21.9675 8.64245 21.9852C8.41132 22.3695 8.46146 22.8757 8.7929 23.2071C9.18342 23.5976 9.81659 23.5976 10.2071 23.2071L11.7071 21.7071C11.9931 21.4211 12.0787 20.991 11.9239 20.6173C11.7691 20.2436 11.4045 20 11 20C9.08611 20 7.7513 19.9979 6.74416 19.8625C5.7658 19.7309 5.2477 19.4903 4.87868 19.1213C4.50966 18.7523 4.26907 18.2342 4.13753 17.2558C4.00213 16.2487 4 14.9139 4 13V11C4 9.08611 4.00213 7.75129 4.13753 6.74416C4.26907 5.76579 4.50966 5.2477 4.87868 4.87868C5.39262 4.36474 6.18139 4.11135 8.0415 4.0341Z" fill="#080809" style="fill:#080809;fill:color(display-p3 0.0314 0.0314 0.0353);fill-opacity:1;"/>
<path d="M7.5 9C8.32843 9 9 8.32843 9 7.5C9 6.67157 8.32843 6 7.5 6C6.67157 6 6 6.67157 6 7.5C6 8.32843 6.67157 9 7.5 9Z" fill="#080809" style="fill:#080809;fill:color(display-p3 0.0314 0.0314 0.0353);fill-opacity:1;"/>
<path d="M17.7677 9.85333C16.7913 8.87702 15.2084 8.87702 14.2321 9.85333L10.7498 13.3357L9.76768 12.3536C8.79137 11.3772 7.20846 11.3772 6.23215 12.3536L5.79291 12.7928C5.60537 12.9803 5.50002 13.2347 5.50002 13.4999L5.50001 15.5544C5.49992 15.9784 5.49984 16.3906 5.54554 16.7305C5.59706 17.1137 5.72259 17.551 6.0858 17.9142C6.44902 18.2774 6.88629 18.4029 7.2695 18.4544C7.60941 18.5001 8.02154 18.5001 8.4456 18.5H15.5544C15.9785 18.5001 16.3906 18.5001 16.7305 18.4544C17.1137 18.4029 17.551 18.2774 17.9142 17.9142C18.2774 17.551 18.403 17.1137 18.4545 16.7305C18.5002 16.3906 18.5001 15.9785 18.5 15.5544L18.5 10.9999C18.5 10.7347 18.3947 10.4803 18.2071 10.2928L17.7677 9.85333Z" fill="#080809" style="fill:#080809;fill:color(display-p3 0.0314 0.0314 0.0353);fill-opacity:1;"/>
</svg>
