<svg width="24" height="24" viewBox="0 0 24 24" fill="none" xmlns="http://www.w3.org/2000/svg">
<path fill-rule="evenodd" clip-rule="evenodd" d="M6.94144 2.23167C7.07112 1.51844 7.69232 1 8.41725 1H15.3596C16.3354 1 17.0515 1.91708 16.8148 2.8638L15.5307 8H19.0902C20.2732 8 20.9906 9.30536 20.3566 10.304L12.3336 22.9401C11.4373 24.3519 9.25213 23.4596 9.60014 21.824L11.2648 14H6.59907C5.66321 14 4.95585 13.1524 5.12326 12.2317L6.94144 2.23167ZM8.83454 3L7.19817 12H12.5C12.8017 12 13.0873 12.1362 13.2772 12.3708C13.467 12.6053 13.5409 12.913 13.4781 13.2081L12.1346 19.5222L18.1805 10H14.25C13.942 10 13.6513 9.85813 13.4618 9.61541C13.2722 9.3727 13.2051 9.05621 13.2798 8.75746L14.7192 3H8.83454Z" fill="#080809" style="fill:#080809;fill:color(display-p3 0.0314 0.0314 0.0353);fill-opacity:1;"/>
</svg>
