<svg width="24" height="24" viewBox="0 0 24 24" fill="none" xmlns="http://www.w3.org/2000/svg">
<path d="M7.30078 14.9707C9.23378 14.9707 10.8008 16.5377 10.8008 18.4707C10.8008 20.4037 9.23378 21.9707 7.30078 21.9707C5.36778 21.9707 3.80078 20.4037 3.80078 18.4707C3.80078 16.5377 5.36778 14.9707 7.30078 14.9707Z" fill="#080809" style="fill:#080809;fill:color(display-p3 0.0314 0.0314 0.0353);fill-opacity:1;"/>
<path d="M16.7012 14.9707C18.6342 14.9707 20.2012 16.5377 20.2012 18.4707C20.2012 20.4037 18.6342 21.9707 16.7012 21.9707C14.7682 21.9707 13.2012 20.4037 13.2012 18.4707C13.2012 16.5377 14.7682 14.9707 16.7012 14.9707Z" fill="#080809" style="fill:#080809;fill:color(display-p3 0.0314 0.0314 0.0353);fill-opacity:1;"/>
<path d="M4.39062 6.0293C6.32362 6.0293 7.89062 7.5963 7.89062 9.5293C7.89062 11.4623 6.32362 13.0293 4.39062 13.0293C2.45763 13.0293 0.890625 11.4623 0.890625 9.5293C0.890625 7.5963 2.45763 6.0293 4.39062 6.0293Z" fill="#080809" style="fill:#080809;fill:color(display-p3 0.0314 0.0314 0.0353);fill-opacity:1;"/>
<path d="M19.6113 6.0293C21.5443 6.0293 23.1113 7.5963 23.1113 9.5293C23.1113 11.4623 21.5443 13.0293 19.6113 13.0293C17.6783 13.0293 16.1113 11.4623 16.1113 9.5293C16.1113 7.5963 17.6783 6.0293 19.6113 6.0293Z" fill="#080809" style="fill:#080809;fill:color(display-p3 0.0314 0.0314 0.0353);fill-opacity:1;"/>
<path d="M12.001 0.5C13.934 0.5 15.501 2.067 15.501 4C15.501 5.933 13.934 7.5 12.001 7.5C10.068 7.5 8.50098 5.933 8.50098 4C8.50098 2.067 10.068 0.5 12.001 0.5Z" fill="#080809" style="fill:#080809;fill:color(display-p3 0.0314 0.0314 0.0353);fill-opacity:1;"/>
</svg>
