<svg width="24" height="24" viewBox="0 0 24 24" fill="none" xmlns="http://www.w3.org/2000/svg">
<path fill-rule="evenodd" clip-rule="evenodd" d="M12.3179 2.00009C11.2567 1.99925 10.4508 1.99862 9.71118 2.3054C8.97155 2.61219 8.40274 3.18302 7.65364 3.93476L3.24184 8.35531C2.28702 9.31195 1.4996 10.1009 0.960184 10.8091C0.393826 11.5528 0.00782394 12.3237 0.0078125 13.2502C0.00780106 14.1767 0.393785 14.9476 0.960129 15.6912C1.49954 16.3995 2.28696 17.1885 3.24179 18.1452L4.84879 19.7554C5.80621 20.7148 6.59566 21.5059 7.30463 22.0479C8.04894 22.6169 8.82092 23.0049 9.74948 23.0054C10.678 23.0059 11.4504 22.6186 12.1953 22.0503C12.5695 21.7649 12.9661 21.4101 13.398 20.998C15.926 23.3468 19.6779 23.6282 22.5002 21.8456C22.9672 21.5507 23.1066 20.933 22.8117 20.4661C22.5168 19.9991 21.8991 19.8597 21.4322 20.1546C19.3866 21.4466 16.6743 21.2576 14.8229 19.5909L19.0693 15.3445C19.8193 14.5957 20.3888 14.0271 20.6949 13.2883C21.0009 12.5494 21.0003 11.7447 20.9994 10.6848L20.9994 9.79631L23.0474 7.74829C24.3166 6.47909 24.3166 4.4213 23.0474 3.1521C21.9833 2.08799 20.3649 1.91604 19.1216 2.63623C18.6151 2.35114 18.0439 2.20222 17.4244 2.11893C16.5407 2.00011 15.4241 2.00014 14.0699 2.00017L12.3179 2.00009ZM20.5315 4.21921C20.7104 4.63647 20.8155 5.09104 20.8806 5.57511C20.9368 5.99294 20.9664 6.46283 20.982 6.98525L21.6332 6.33408C22.1213 5.84592 22.1213 5.05447 21.6332 4.56631C21.3335 4.26661 20.9195 4.15092 20.5315 4.21921ZM15.4993 9.25C14.5328 9.25 13.7493 8.4665 13.7493 7.5C13.7493 6.5335 14.5328 5.75 15.4993 5.75C16.4658 5.75 17.2493 6.5335 17.2493 7.5C17.2493 8.4665 16.4658 9.25 15.4993 9.25Z" fill="#080809" style="fill:#080809;fill:color(display-p3 0.0314 0.0314 0.0353);fill-opacity:1;"/>
</svg>
