<svg width="24" height="24" viewBox="0 0 24 24" fill="none" xmlns="http://www.w3.org/2000/svg">
<path fill-rule="evenodd" clip-rule="evenodd" d="M21 3C22.3807 3 23.5 4.11929 23.5 5.5V8.19527C23.5 9.21213 22.7636 9.89219 22.1314 10.1977C21.4598 10.5223 21 11.2084 21 12C21 12.7916 21.4598 13.4777 22.1314 13.8023C22.7636 14.1078 23.5 14.7879 23.5 15.8047V18.5C23.5 19.8807 22.3807 21 21 21H3C1.61929 21 0.5 19.8807 0.5 18.5V15.8047C0.5 14.7879 1.23644 14.1078 1.86861 13.8023C2.54019 13.4777 3 12.7916 3 12C3 11.2084 2.54019 10.5223 1.86861 10.1977C1.23644 9.89219 0.5 9.21213 0.5 8.19527V5.5C0.5 4.11929 1.61929 3 3 3H21ZM17 7C17 6.44772 16.5523 6 16 6C15.4477 6 15 6.44772 15 7V8C15 8.55228 15.4477 9 16 9C16.5523 9 17 8.55228 17 8V7ZM16 10.5C16.5523 10.5 17 10.9477 17 11.5V12.5C17 13.0523 16.5523 13.5 16 13.5C15.4477 13.5 15 13.0523 15 12.5V11.5C15 10.9477 15.4477 10.5 16 10.5ZM17 16C17 15.4477 16.5523 15 16 15C15.4477 15 15 15.4477 15 16V17C15 17.5523 15.4477 18 16 18C16.5523 18 17 17.5523 17 17V16Z" fill="#080809" style="fill:#080809;fill:color(display-p3 0.0314 0.0314 0.0353);fill-opacity:1;"/>
</svg>
