<svg width="24" height="24" viewBox="0 0 24 24" fill="none" xmlns="http://www.w3.org/2000/svg">
<path d="M11.9999 2.5C8.57955 2.5 5.58039 4.30687 3.90625 7.02293C3.61645 7.49308 3.0004 7.63928 2.53025 7.34949C2.0601 7.0597 1.9139 6.44365 2.20369 5.9735C4.22674 2.69139 7.85696 0.5 11.9999 0.5C12.8268 0.5 13.6344 0.587443 14.4136 0.753943C14.9537 0.869352 15.298 1.40074 15.1826 1.94083C15.0672 2.48092 14.5358 2.8252 13.9957 2.70979C13.353 2.57246 12.6855 2.5 11.9999 2.5Z" fill="#080809" style="fill:#080809;fill:color(display-p3 0.0314 0.0314 0.0353);fill-opacity:1;"/>
<path d="M22.059 8.8173C22.5991 8.7019 23.1305 9.04617 23.2459 9.58626C23.4124 10.3654 23.4999 11.1731 23.4999 12C23.4999 16.1423 21.3091 19.7721 18.0278 21.7953C17.5577 22.0852 16.9416 21.939 16.6518 21.4689C16.3619 20.9988 16.508 20.3828 16.9781 20.0929C19.6935 18.4186 21.4999 15.4198 21.4999 12C21.4999 11.3144 21.4274 10.6469 21.2901 10.0042C21.1747 9.4641 21.5189 8.93271 22.059 8.8173Z" fill="#080809" style="fill:#080809;fill:color(display-p3 0.0314 0.0314 0.0353);fill-opacity:1;"/>
<path d="M1.47641 11.2946C2.02848 11.2795 2.48834 11.7147 2.50354 12.2668C2.64208 17.3017 6.69941 21.3586 11.7345 21.4964C12.2866 21.5115 12.7219 21.9713 12.7068 22.5234C12.6917 23.0754 12.2319 23.5107 11.6798 23.4956C5.58312 23.3287 0.67205 18.4182 0.504292 12.3218C0.489101 11.7697 0.924331 11.3098 1.47641 11.2946Z" fill="#080809" style="fill:#080809;fill:color(display-p3 0.0314 0.0314 0.0353);fill-opacity:1;"/>
<path fill-rule="evenodd" clip-rule="evenodd" d="M5 12C5 8.13401 8.13401 5 12 5C15.866 5 19 8.13401 19 12C19 15.866 15.866 19 12 19C8.13401 19 5 15.866 5 12ZM12 7C9.23858 7 7 9.23858 7 12C7 14.7614 9.23858 17 12 17C14.7614 17 17 14.7614 17 12C17 9.23858 14.7614 7 12 7Z" fill="#080809" style="fill:#080809;fill:color(display-p3 0.0314 0.0314 0.0353);fill-opacity:1;"/>
<path d="M21 1.5C21 0.947715 20.5523 0.5 20 0.5C19.4477 0.5 19 0.947715 19 1.5V3H17.5C16.9477 3 16.5 3.44772 16.5 4C16.5 4.55228 16.9477 5 17.5 5H19V6.5C19 7.05228 19.4477 7.5 20 7.5C20.5523 7.5 21 7.05228 21 6.5V5H22.5C23.0523 5 23.5 4.55228 23.5 4C23.5 3.44772 23.0523 3 22.5 3H21V1.5Z" fill="#080809" style="fill:#080809;fill:color(display-p3 0.0314 0.0314 0.0353);fill-opacity:1;"/>
</svg>
