<svg width="24" height="24" viewBox="0 0 24 24" fill="none" xmlns="http://www.w3.org/2000/svg">
<path d="M8.70688 3.29289C9.0974 3.68342 9.0974 4.31658 8.70688 4.70711L6.41399 7L13.0706 7C14.4247 6.99997 15.5413 6.99994 16.4251 7.11875C17.3529 7.2435 18.1723 7.51547 18.8284 8.17158C19.4845 8.82768 19.7565 9.64711 19.8812 10.5749C20.0001 11.4587 20 12.5753 20 13.9294L20 20C20 20.5523 19.5523 21 19 21C18.4477 21 18 20.5523 18 20V14C18 12.5575 17.9979 11.5763 17.8991 10.8414C17.8042 10.1354 17.6368 9.80836 17.4142 9.58579C17.1916 9.36322 16.8646 9.19585 16.1586 9.10092C15.4237 9.00213 14.4425 9 13 9H6.41399L8.70688 11.2929C9.0974 11.6834 9.0974 12.3166 8.70688 12.7071C8.31636 13.0976 7.68319 13.0976 7.29267 12.7071L4.35333 9.76777C3.37702 8.79146 3.37701 7.20855 4.35333 6.23223L7.29267 3.29289C7.68319 2.90237 8.31636 2.90237 8.70688 3.29289Z" fill="#080809" style="fill:#080809;fill:color(display-p3 0.0314 0.0314 0.0353);fill-opacity:1;"/>
<path d="M7.29387 15.2929C7.68439 14.9024 8.31756 14.9024 8.70808 15.2929C9.09861 15.6834 9.09861 16.3166 8.70808 16.7071L6.41519 19L8.70808 21.2929C9.09861 21.6834 9.09861 22.3166 8.70808 22.7071C8.31756 23.0976 7.68439 23.0976 7.29387 22.7071L5.00098 20.4142L2.70808 22.7071C2.31756 23.0976 1.68439 23.0976 1.29387 22.7071C0.903345 22.3166 0.903345 21.6834 1.29387 21.2929L3.58676 19L1.29387 16.7071C0.903346 16.3166 0.903346 15.6834 1.29387 15.2929C1.68439 14.9024 2.31756 14.9024 2.70808 15.2929L5.00098 17.5858L7.29387 15.2929Z" fill="#080809" style="fill:#080809;fill:color(display-p3 0.0314 0.0314 0.0353);fill-opacity:1;"/>
</svg>
