<svg width="24" height="24" viewBox="0 0 24 24" fill="none" xmlns="http://www.w3.org/2000/svg">
<path d="M12 7C12.5523 7 13 7.44772 13 8V12C13 12.5523 12.5523 13 12 13C11.4477 13 11 12.5523 11 12V8C11 7.44772 11.4477 7 12 7Z" fill="#080809" style="fill:#080809;fill:color(display-p3 0.0314 0.0314 0.0353);fill-opacity:1;"/>
<path d="M12 17C12.6904 17 13.25 16.4404 13.25 15.75C13.25 15.0596 12.6904 14.5 12 14.5C11.3096 14.5 10.75 15.0596 10.75 15.75C10.75 16.4404 11.3096 17 12 17Z" fill="#080809" style="fill:#080809;fill:color(display-p3 0.0314 0.0314 0.0353);fill-opacity:1;"/>
<path fill-rule="evenodd" clip-rule="evenodd" d="M9.42684 3H14.5732C16.3966 2.99997 17.8664 2.99995 19.0223 3.15537C20.2225 3.31672 21.233 3.66191 22.0355 4.46447C22.8381 5.26702 23.1833 6.27752 23.3446 7.47767C23.5001 8.63363 23.5 10.1034 23.5 11.9269V12.0731C23.5 13.8966 23.5001 15.3664 23.3446 16.5223C23.1833 17.7225 22.8381 18.733 22.0355 19.5355C21.233 20.3381 20.2225 20.6833 19.0223 20.8446C17.8664 21.0001 16.3966 21 14.5731 21H9.42686C7.6034 21 6.13363 21.0001 4.97767 20.8446C3.77752 20.6833 2.76702 20.3381 1.96447 19.5355C1.16191 18.733 0.816721 17.7225 0.655366 16.5223C0.499952 15.3664 0.499974 13.8966 0.500001 12.0732V11.9268C0.499974 10.1034 0.499952 8.63362 0.655366 7.47767C0.816721 6.27752 1.16191 5.26702 1.96447 4.46447C2.76702 3.66191 3.77752 3.31672 4.97767 3.15537C6.13362 2.99995 7.60339 2.99997 9.42684 3ZM5.24416 5.13753C4.2658 5.26907 3.7477 5.50966 3.37868 5.87868C3.00966 6.2477 2.76907 6.7658 2.63753 7.74416C2.50213 8.7513 2.5 10.0861 2.5 12C2.5 13.9139 2.50213 15.2487 2.63753 16.2558C2.76907 17.2342 3.00966 17.7523 3.37868 18.1213C3.7477 18.4903 4.26579 18.7309 5.24416 18.8625C6.2513 18.9979 7.58611 19 9.5 19H14.5C16.4139 19 17.7487 18.9979 18.7558 18.8625C19.7342 18.7309 20.2523 18.4903 20.6213 18.1213C20.9903 17.7523 21.2309 17.2342 21.3625 16.2558C21.4979 15.2487 21.5 13.9139 21.5 12C21.5 10.0861 21.4979 8.7513 21.3625 7.74416C21.2309 6.7658 20.9903 6.2477 20.6213 5.87868C20.2523 5.50966 19.7342 5.26907 18.7558 5.13753C17.7487 5.00213 16.4139 5 14.5 5H9.5C7.58611 5 6.2513 5.00213 5.24416 5.13753Z" fill="#080809" style="fill:#080809;fill:color(display-p3 0.0314 0.0314 0.0353);fill-opacity:1;"/>
</svg>
