<svg width="24" height="24" viewBox="0 0 24 24" fill="none" xmlns="http://www.w3.org/2000/svg">
<path fill-rule="evenodd" clip-rule="evenodd" d="M13.3716 0.952849C12.5389 0.406341 11.4611 0.406343 10.6284 0.952849L4.12836 5.21847C3.42415 5.68061 3 6.46629 3 7.30859V9.04903C1.85888 9.28067 1 10.2895 1 11.499V20.499C1 21.8797 2.11929 22.999 3.5 22.999H20.5C21.8807 22.999 23 21.8797 23 20.499V11.499C23 10.2895 22.1411 9.28067 21 9.04903V7.30859C21 6.46629 20.5758 5.68061 19.8716 5.21847L13.3716 0.952849ZM11.7257 2.62495C11.8922 2.51564 12.1078 2.51564 12.2743 2.62494L16.6539 5.49902H7.34612L11.7257 2.62495ZM5 7.49902V8.99881H19V7.49902H5ZM8 13.999V20.999H11V13.999C11 13.4467 11.4477 12.999 12 12.999C12.5523 12.999 13 13.4467 13 13.999V20.999H16V13.999C16 13.4467 16.4477 12.999 17 12.999C17.5523 12.999 18 13.4467 18 13.999V20.999H20.5C20.7761 20.999 21 20.7752 21 20.499V11.499C21 11.2229 20.7761 10.999 20.5 10.999H3.5C3.22386 10.999 3 11.2229 3 11.499V20.499C3 20.7752 3.22386 20.999 3.5 20.999H6V13.999C6 13.4467 6.44772 12.999 7 12.999C7.55228 12.999 8 13.4467 8 13.999Z" fill="#080809" style="fill:#080809;fill:color(display-p3 0.0314 0.0314 0.0353);fill-opacity:1;"/>
</svg>
