<svg width="24" height="24" viewBox="0 0 24 24" fill="none" xmlns="http://www.w3.org/2000/svg">
<g clip-path="url(#clip0_29901_26042)">
<path d="M9.5 12C9.5 10.6193 10.6193 9.5 12 9.5C13.3807 9.5 14.5 10.6193 14.5 12C14.5 13.3807 13.3807 14.5 12 14.5C10.6193 14.5 9.5 13.3807 9.5 12Z" fill="#080809" style="fill:#080809;fill:color(display-p3 0.0314 0.0314 0.0353);fill-opacity:1;"/>
<path fill-rule="evenodd" clip-rule="evenodd" d="M12 0.5C5.64873 0.5 0.5 5.64873 0.5 12C0.5 18.3513 5.64873 23.5 12 23.5C18.3513 23.5 23.5 18.3513 23.5 12C23.5 5.64873 18.3513 0.5 12 0.5ZM2.98338 9.00007C4.23929 5.22346 7.8016 2.5 12 2.5C16.1984 2.5 19.7607 5.22346 21.0166 9.00007H20.4853C19.1592 9.00007 17.8874 8.47329 16.9497 7.5356C14.2161 4.80193 9.78392 4.80193 7.05025 7.5356C6.11257 8.47329 4.8408 9.00007 3.51472 9.00007H2.98338ZM2.50456 11.7027C2.51183 11.4662 2.52775 11.2319 2.552 11.0001H3.51472C5.37123 11.0001 7.15171 10.2626 8.46447 8.94982C10.4171 6.9972 13.5829 6.9972 15.5355 8.94982C16.8483 10.2626 18.6288 11.0001 20.4853 11.0001H21.448C21.4699 11.209 21.4849 11.42 21.493 11.6328C21.4977 11.7546 21.5 11.877 21.5 12C21.5 12.6861 21.4273 13.3552 21.2891 14.0001H18C15.2386 14.0001 13 16.2386 13 19.0001V21.448C12.6714 21.4824 12.3377 21.5 12 21.5C11.6623 21.5 11.3286 21.4824 11 21.448V19.0001C11 16.2386 8.76142 14.0001 6 14.0001H2.71091C2.57274 13.3552 2.5 12.6862 2.5 12.0001M3.38068 16.0001C4.47596 18.3562 6.50886 20.1881 9 21.0166V19.0001C9 17.3432 7.65685 16.0001 6 16.0001H3.38068ZM15 21.0166C17.4911 20.1881 19.524 18.3562 20.6193 16.0001H18C16.3431 16.0001 15 17.3432 15 19.0001V21.0166ZM2.50456 11.7027C2.50153 11.8014 2.5 11.9006 2.5 12.0001Z" fill="#080809" style="fill:#080809;fill:color(display-p3 0.0314 0.0314 0.0353);fill-opacity:1;"/>
</g>
<defs>
<clipPath id="clip0_29901_26042">
<rect width="24" height="24" fill="white" style="fill:white;fill-opacity:1;"/>
</clipPath>
</defs>
</svg>
