<svg width="24" height="24" viewBox="0 0 24 24" fill="none" xmlns="http://www.w3.org/2000/svg">
<path d="M11.7892 0.499023C10.918 0.499018 10.1264 1.00557 9.76131 1.79656L8.27906 5.00836C7.56349 6.5589 6.49673 7.92154 5.16328 8.98837L3.50112 10.3182C2.55232 11.0773 2 12.2265 2 13.4416V17.9994C2 20.7606 4.23831 22.9991 6.99956 22.9994L12.2311 22.9995L12.2469 22.9995L12.25 22.9995H16.5C18.7091 22.9995 20.5 21.2087 20.5 18.9995C20.5 18.877 20.4945 18.7556 20.4836 18.6356C21.4063 17.9037 22 16.7717 22 15.5C22 15.067 21.9309 14.6489 21.8028 14.2569C22.2422 13.6147 22.5 12.8368 22.5 12C22.5 9.79086 20.7091 8 18.5 8H14.6019C14.5744 7.99936 14.5469 7.99904 14.5194 7.99904C14.4095 7.99904 14.3294 7.89482 14.3577 7.78859L15.1389 4.85911C15.7258 2.65822 14.067 0.499033 11.7892 0.499023Z" fill="#080809" style="fill:#080809;fill:color(display-p3 0.0314 0.0314 0.0353);fill-opacity:1;"/>
</svg>
