<svg width="24" height="24" viewBox="0 0 24 24" fill="none" xmlns="http://www.w3.org/2000/svg">
<g clip-path="url(#clip0_29901_26824)">
<path fill-rule="evenodd" clip-rule="evenodd" d="M21.5768 0.725726C20.9614 0.420827 20.2388 0.420853 19.6234 0.725796C19.2932 0.889433 19.014 1.17022 18.7619 1.42382L18.6929 1.49317L10.4806 9.70661L10.4685 9.71853C10.4204 9.76575 10.2984 9.88556 10.2066 10.0354C10.1298 10.1606 10.0733 10.2972 10.039 10.44C9.99798 10.6108 9.99957 10.7818 10.0002 10.8492L10.0003 10.8662V13.0013C10.0003 13.5536 10.448 14.0013 11.0003 14.0013H13.1354L13.1524 14.0014C13.2198 14.0021 13.3908 14.0036 13.5617 13.9626C13.7045 13.9283 13.8411 13.8718 13.9664 13.795C14.1162 13.7032 14.236 13.5811 14.2832 13.533L14.2951 13.5209L22.5075 5.3073L22.5769 5.23824C22.8304 4.98613 23.1111 4.70699 23.2747 4.37675C23.5795 3.76136 23.5795 3.0389 23.2746 2.42352C23.111 2.0933 22.8303 1.81418 22.5767 1.56209L22.5074 1.49303L22.4383 1.42369C22.1862 1.17011 21.9071 0.889337 21.5768 0.725726ZM20.4563 2.567C20.4916 2.53549 20.5117 2.51996 20.5201 2.51379C20.5711 2.4915 20.6292 2.4915 20.6802 2.51379C20.6886 2.51995 20.7088 2.53549 20.7441 2.56699C20.8219 2.6365 20.9216 2.73562 21.0932 2.90724C21.2648 3.07884 21.3639 3.17847 21.4334 3.25633C21.4649 3.2916 21.4804 3.31175 21.4866 3.32015C21.5089 3.37118 21.5089 3.42923 21.4866 3.48026C21.4804 3.48866 21.4649 3.50881 21.4334 3.54408C21.3639 3.62194 21.2648 3.72158 21.0932 3.89319L12.9863 12.0013H12.0003V11.0153L20.1072 2.90728C20.2788 2.73565 20.3784 2.63652 20.4563 2.567Z" fill="#080809" style="fill:#080809;fill:color(display-p3 0.0314 0.0314 0.0353);fill-opacity:1;"/>
<path d="M11 22.498C11 23.0503 11.4477 23.498 12 23.498C18.3513 23.498 23.5 18.3493 23.5 11.998C23.5 11.2503 23.4285 10.5182 23.2917 9.80869C23.1871 9.26639 22.6627 8.91156 22.1204 9.01614C21.5781 9.12072 21.2233 9.64511 21.3278 10.1874C21.4407 10.7728 21.5 11.378 21.5 11.998C21.5 17.2448 17.2467 21.498 12 21.498C11.4477 21.498 11 21.9458 11 22.498Z" fill="#080809" style="fill:#080809;fill:color(display-p3 0.0314 0.0314 0.0353);fill-opacity:1;"/>
<path d="M2.5 11.998C2.5 15.1939 4.07716 18.0215 6.5 19.745V17.998C6.5 17.4458 6.94771 16.998 7.5 16.998C8.05228 16.998 8.5 17.4458 8.5 17.998V21.498C8.5 22.3265 7.82843 22.998 7 22.998H3.5C2.94771 22.998 2.5 22.5503 2.5 21.998C2.5 21.4458 2.94771 20.998 3.5 20.998H4.84047C2.19701 18.8924 0.5 15.6435 0.5 11.998C0.5 5.64677 5.64873 0.498047 12 0.498046C12.7478 0.498046 13.4798 0.569553 14.1894 0.706386C14.7317 0.810966 15.0865 1.33536 14.9819 1.87765C14.8773 2.41995 14.3529 2.77478 13.8106 2.6702C13.2253 2.55731 12.62 2.49805 12 2.49805C6.75329 2.49805 2.5 6.75134 2.5 11.998Z" fill="#080809" style="fill:#080809;fill:color(display-p3 0.0314 0.0314 0.0353);fill-opacity:1;"/>
</g>
<defs>
<clipPath id="clip0_29901_26824">
<rect width="24" height="24" fill="white" style="fill:white;fill-opacity:1;"/>
</clipPath>
</defs>
</svg>
