<svg width="24" height="24" viewBox="0 0 24 24" fill="none" xmlns="http://www.w3.org/2000/svg">
<path d="M10.2929 3.2929C10.6834 2.90237 11.3166 2.90237 11.7071 3.29289C12.0976 3.68341 12.0977 4.31658 11.7071 4.7071C10.8149 5.5993 9.92289 6.48865 9.03145 7.37738C7.60543 8.79907 6.18095 10.2192 4.76008 11.6469C4.56752 11.8404 4.56717 12.1542 4.76164 12.3488C6.18157 13.7701 7.60217 15.1898 9.02309 16.6099L9.02967 16.6165C9.92206 17.5084 10.8146 18.4003 11.7071 19.2929C12.0977 19.6834 12.0976 20.3166 11.7071 20.7071C11.3166 21.0976 10.6834 21.0976 10.2929 20.7071C9.40152 19.8157 8.50955 18.9243 7.61746 18.0327L7.61238 18.0276C6.19022 16.6063 4.76774 15.1847 3.34677 13.7624C2.37473 12.7894 2.37079 11.2124 3.34249 10.2361C4.76516 8.80659 6.19553 7.38055 7.62427 5.95615C8.51513 5.06799 9.40559 4.18022 10.2929 3.2929Z" fill="#080809" style="fill:#080809;fill:color(display-p3 0.0314 0.0314 0.0353);fill-opacity:1;"/>
<path d="M18.2929 3.2929C18.6834 2.90237 19.3166 2.90237 19.7071 3.29289C20.0976 3.68341 20.0977 4.31658 19.7071 4.7071C18.8149 5.59931 17.9229 6.48866 17.0314 7.3774C15.6055 8.79903 14.1809 10.2193 12.7601 11.6469C12.5675 11.8404 12.5672 12.1542 12.7616 12.3488C14.1809 13.7695 15.6009 15.1886 17.0212 16.608L17.0253 16.6121C17.9192 17.5055 18.8131 18.3989 19.7071 19.2929C20.0977 19.6834 20.0976 20.3166 19.7071 20.7071C19.3166 21.0976 18.6834 21.0976 18.2929 20.7071C17.3999 19.8141 16.5064 18.9211 15.6127 18.028C14.1906 16.6067 12.7677 15.1847 11.3468 13.7624C10.3747 12.7894 10.3708 11.2124 11.3425 10.2361C12.7651 8.80665 14.1954 7.38067 15.6241 5.95633C16.515 5.06813 17.4055 4.18027 18.2929 3.2929Z" fill="#080809" style="fill:#080809;fill:color(display-p3 0.0314 0.0314 0.0353);fill-opacity:1;"/>
</svg>
