<svg width="24" height="24" viewBox="0 0 24 24" fill="none" xmlns="http://www.w3.org/2000/svg">
<path fill-rule="evenodd" clip-rule="evenodd" d="M13.4812 0.901028C12.5625 0.379338 11.4372 0.379345 10.5185 0.901048L3.01858 5.16001C2.07992 5.69305 1.5 6.68927 1.5 7.76872V16.2296C1.5 17.3091 2.07992 18.3053 3.01858 18.8384L10.5185 23.0973C11.4372 23.619 12.5625 23.619 13.4812 23.0973L20.9814 18.8384C21.9201 18.3053 22.5 17.3091 22.5 16.2296V7.76874C22.5 6.68928 21.9201 5.69304 20.9814 5.16001L13.4812 0.901028ZM12.9234 8.11548C12.7683 7.74252 12.4041 7.49951 12.0001 7.49951C11.5962 7.49951 11.2319 7.74252 11.0768 8.11548L10.3856 9.77732L8.59152 9.92115C8.18888 9.95343 7.8452 10.2248 7.72037 10.6089C7.59555 10.9931 7.71411 11.4146 8.02087 11.6774L9.38778 12.8483L8.97017 14.599C8.87645 14.992 9.02831 15.4027 9.35509 15.6401C9.68188 15.8775 10.1194 15.895 10.4641 15.6845L12.0001 14.7463L13.5361 15.6845C13.8808 15.895 14.3184 15.8775 14.6452 15.6401C14.9719 15.4027 15.1238 14.992 15.0301 14.599L14.6125 12.8483L15.9794 11.6774C16.2862 11.4146 16.4047 10.9931 16.2799 10.6089C16.1551 10.2248 15.8114 9.95343 15.4087 9.92115L13.6146 9.77732L12.9234 8.11548Z" fill="#080809" style="fill:#080809;fill:color(display-p3 0.0314 0.0314 0.0353);fill-opacity:1;"/>
</svg>
