<svg width="24" height="24" viewBox="0 0 24 24" fill="none" xmlns="http://www.w3.org/2000/svg">
<path fill-rule="evenodd" clip-rule="evenodd" d="M6 6C6 3.23858 8.23858 1 11 1C13.7614 1 16 3.23858 16 6C16 8.76142 13.7614 11 11 11C8.23858 11 6 8.76142 6 6ZM11 3C9.34315 3 8 4.34315 8 6C8 7.65685 9.34315 9 11 9C12.6569 9 14 7.65685 14 6C14 4.34315 12.6569 3 11 3Z" fill="#080809" style="fill:#080809;fill:color(display-p3 0.0314 0.0314 0.0353);fill-opacity:1;"/>
<path d="M2 19.3333C2 15.8355 4.83553 13 8.33333 13H13.4098C13.9621 13 14.4098 13.4477 14.4098 14C14.4098 14.5523 13.9621 15 13.4098 15H8.33333C5.9401 15 4 16.9401 4 19.3333C4 20.2538 4.74619 21 5.66667 21H12.124C12.6763 21 13.124 21.4477 13.124 22C13.124 22.5523 12.6763 23 12.124 23H5.66667C3.64162 23 2 21.3584 2 19.3333Z" fill="#080809" style="fill:#080809;fill:color(display-p3 0.0314 0.0314 0.0353);fill-opacity:1;"/>
<path d="M20 15.5C20 14.9477 19.5523 14.5 19 14.5C18.4477 14.5 18 14.9477 18 15.5V18H15.5C14.9477 18 14.5 18.4477 14.5 19C14.5 19.5523 14.9477 20 15.5 20H18V22.5C18 23.0523 18.4477 23.5 19 23.5C19.5523 23.5 20 23.0523 20 22.5V20H22.5C23.0523 20 23.5 19.5523 23.5 19C23.5 18.4477 23.0523 18 22.5 18H20V15.5Z" fill="#080809" style="fill:#080809;fill:color(display-p3 0.0314 0.0314 0.0353);fill-opacity:1;"/>
</svg>
