<svg width="24" height="24" viewBox="0 0 24 24" fill="none" xmlns="http://www.w3.org/2000/svg">
<path d="M21 2C21.5523 2 22 2.44772 22 3C22 3.55228 21.5523 4 21 4H3C2.44772 4 2 3.55228 2 3C2 2.44772 2.44772 2 3 2H21Z" fill="#080809" style="fill:#080809;fill:color(display-p3 0.0314 0.0314 0.0353);fill-opacity:1;"/>
<path d="M21 8C21.5523 8 22 8.44772 22 9C22 9.55228 21.5523 10 21 10H11C10.4477 10 10 9.55228 10 9C10 8.44772 10.4477 8 11 8H21Z" fill="#080809" style="fill:#080809;fill:color(display-p3 0.0314 0.0314 0.0353);fill-opacity:1;"/>
<path d="M21 14C21.5523 14 22 14.4477 22 15C22 15.5523 21.5523 16 21 16H3C2.44772 16 2 15.5523 2 15C2 14.4477 2.44772 14 3 14H21Z" fill="#080809" style="fill:#080809;fill:color(display-p3 0.0314 0.0314 0.0353);fill-opacity:1;"/>
<path d="M22 21C22 20.4477 21.5523 20 21 20H11C10.4477 20 10 20.4477 10 21C10 21.5523 10.4477 22 11 22H21C21.5523 22 22 21.5523 22 21Z" fill="#080809" style="fill:#080809;fill:color(display-p3 0.0314 0.0314 0.0353);fill-opacity:1;"/>
</svg>
