<svg width="24" height="24" viewBox="0 0 24 24" fill="none" xmlns="http://www.w3.org/2000/svg">
<g clip-path="url(#clip0_29901_27791)">
<path d="M21.6411 5.62546C22.4908 3.56564 20.4299 1.50483 18.3701 2.35451L14.0272 4.14592L10.4506 1.1002C8.75409 -0.344413 6.15727 0.978711 6.32886 3.20028L6.69061 7.88406L2.68866 10.3445C0.790488 11.5114 1.24641 14.39 3.41231 14.9133L7.97871 16.0166L9.08205 20.583C9.60537 22.7488 12.484 23.2047 13.651 21.3066L16.1114 17.3047L20.7953 17.6665C23.0169 17.838 24.34 15.2413 22.8954 13.5448L19.8496 9.9682L21.6411 5.62546Z" fill="#080809" style="fill:#080809;fill:color(display-p3 0.0314 0.0314 0.0353);fill-opacity:1;"/>
<path d="M2.20711 17.7072C2.59763 17.3167 2.59763 16.6835 2.20711 16.293C1.81658 15.9024 1.18342 15.9024 0.792893 16.293L0.292893 16.793C-0.0976311 17.1835 -0.0976311 17.8167 0.292893 18.2072C0.683417 18.5977 1.31658 18.5977 1.70711 18.2072L2.20711 17.7072Z" fill="#080809" style="fill:#080809;fill:color(display-p3 0.0314 0.0314 0.0353);fill-opacity:1;"/>
<path d="M5.70711 18.293C6.09763 18.6835 6.09763 19.3167 5.70711 19.7072L2.20713 23.2072C1.81661 23.5977 1.18344 23.5977 0.79292 23.2072C0.402395 22.8166 0.402395 22.1835 0.79292 21.7929L4.29289 18.293C4.68342 17.9024 5.31658 17.9024 5.70711 18.293Z" fill="#080809" style="fill:#080809;fill:color(display-p3 0.0314 0.0314 0.0353);fill-opacity:1;"/>
<path d="M7.70711 21.793C8.09763 22.1835 8.09763 22.8167 7.70711 23.2072L7.20711 23.7072C6.81658 24.0977 6.18342 24.0977 5.79289 23.7072C5.40237 23.3167 5.40237 22.6835 5.79289 22.293L6.29289 21.793C6.68342 21.4024 7.31658 21.4024 7.70711 21.793Z" fill="#080809" style="fill:#080809;fill:color(display-p3 0.0314 0.0314 0.0353);fill-opacity:1;"/>
</g>
<defs>
<clipPath id="clip0_29901_27791">
<rect width="24" height="24" fill="white" style="fill:white;fill-opacity:1;"/>
</clipPath>
</defs>
</svg>
