<svg width="24" height="24" viewBox="0 0 24 24" fill="none" xmlns="http://www.w3.org/2000/svg">
<path fill-rule="evenodd" clip-rule="evenodd" d="M8 3C8 1.61946 9.11892 0.5 10.4998 0.5H13.5005C14.8816 0.5 16 1.61968 16 3V4H20.5C22.1569 4 23.5 5.34315 23.5 7V11C23.5 13.2091 21.7091 15 19.5 15H4.5C2.29086 15 0.5 13.2091 0.5 11V7C0.5 5.34315 1.84315 4 3.5 4H8V3ZM10 4H14V3C14 2.72346 13.7762 2.5 13.5005 2.5H10.4998C10.2238 2.5 10 2.72369 10 3V4ZM13.25 11.5C13.25 12.1904 12.6904 12.75 12 12.75C11.3096 12.75 10.75 12.1904 10.75 11.5C10.75 10.8096 11.3096 10.25 12 10.25C12.6904 10.25 13.25 10.8096 13.25 11.5Z" fill="#080809" style="fill:#080809;fill:color(display-p3 0.0314 0.0314 0.0353);fill-opacity:1;"/>
<path d="M1.5 15.6105V18C1.5 20.2091 3.29086 22 5.5 22H18.5C20.7091 22 22.5 20.2091 22.5 18V15.6105C21.6372 16.1731 20.6068 16.5 19.5 16.5H4.5C3.39321 16.5 2.36278 16.1731 1.5 15.6105Z" fill="#080809" style="fill:#080809;fill:color(display-p3 0.0314 0.0314 0.0353);fill-opacity:1;"/>
</svg>
