<svg width="24" height="24" viewBox="0 0 24 24" fill="none" xmlns="http://www.w3.org/2000/svg">
<g clip-path="url(#clip0_29901_26707)">
<path fill-rule="evenodd" clip-rule="evenodd" d="M4 12C4 7.58172 7.58172 4 12 4C16.4183 4 20 7.58172 20 12C20 16.4183 16.4183 20 12 20C7.58172 20 4 16.4183 4 12ZM6.05417 11.1903C6.01845 11.4551 6 11.7254 6 12C6 13.61 6.63411 15.0719 7.66621 16.1495L8.56673 14.7402C9.24511 13.6785 8.78473 12.2616 7.61188 11.8015L6.05417 11.1903ZM6.71329 9.16016L8.33321 9.58145C9.55255 9.89856 10.7578 9.02287 10.833 7.76522L10.9329 6.0946C9.1052 6.42267 7.5647 7.57847 6.71329 9.16016ZM13.0674 6.09466L13.1673 7.76522C13.2425 9.02287 14.4478 9.89856 15.6671 9.58145L17.2868 9.16024C16.4354 7.57861 14.895 6.42283 13.0674 6.09466ZM17.9459 11.1905L16.3885 11.8015C15.2156 12.2616 14.7552 13.6785 15.4336 14.7402L16.334 16.1493C17.366 15.0717 18 13.6099 18 12C18 11.7255 17.9816 11.4552 17.9459 11.1905ZM14.6079 17.4051L13.5451 16.1123C12.7451 15.139 11.2553 15.139 10.4552 16.1123L9.3923 17.4052C10.1808 17.7863 11.0655 18 12 18C12.9346 18 13.8193 17.7863 14.6079 17.4051ZM10.189 11.4116C10.9036 11.1536 11.534 10.6957 12.0002 10.0958C12.4664 10.6957 13.0967 11.1536 13.8113 11.4116C13.3849 12.0404 13.1441 12.7814 13.1195 13.5408C12.3897 13.3295 11.6106 13.3295 10.8808 13.5408C10.8563 12.7814 10.6155 12.0404 10.189 11.4116Z" fill="#080809" style="fill:#080809;fill:color(display-p3 0.0314 0.0314 0.0353);fill-opacity:1;"/>
<path fill-rule="evenodd" clip-rule="evenodd" d="M0.5 12C0.5 5.64873 5.64873 0.5 12 0.5C18.3513 0.5 23.5 5.64873 23.5 12C23.5 18.3513 18.3513 23.5 12 23.5C5.64873 23.5 0.5 18.3513 0.5 12ZM12 2.5C6.75329 2.5 2.5 6.75329 2.5 12C2.5 17.2467 6.75329 21.5 12 21.5C17.2467 21.5 21.5 17.2467 21.5 12C21.5 6.75329 17.2467 2.5 12 2.5Z" fill="#080809" style="fill:#080809;fill:color(display-p3 0.0314 0.0314 0.0353);fill-opacity:1;"/>
</g>
<defs>
<clipPath id="clip0_29901_26707">
<rect width="24" height="24" fill="white" style="fill:white;fill-opacity:1;"/>
</clipPath>
</defs>
</svg>
