<svg width="24" height="24" viewBox="0 0 24 24" fill="none" xmlns="http://www.w3.org/2000/svg">
<path fill-rule="evenodd" clip-rule="evenodd" d="M20 6C20 3.79086 18.2091 2 16 2C15.8621 2 15.7256 2.00702 15.5909 2.02075C14.683 1.08409 13.4096 0.5 12 0.5C10.5904 0.5 9.31702 1.08409 8.40913 2.02074C8.27442 2.00702 8.13792 2 8 2C5.79086 2 4 3.79086 4 6L4 9H3.5C1.84315 9 0.5 10.3431 0.5 12V16C0.5 17.6569 1.84315 19 3.5 19H4.03704C4.05462 19.3325 4.08054 19.6408 4.11875 19.9251C4.2435 20.8529 4.51547 21.6723 5.17158 22.3284C5.82768 22.9845 6.64711 23.2565 7.57494 23.3812C8.4587 23.5001 9.57531 23.5 10.9294 23.5H13.0706C14.4247 23.5 15.5413 23.5001 16.4251 23.3812C17.3529 23.2565 18.1723 22.9845 18.8284 22.3284C19.4845 21.6723 19.7565 20.8529 19.8813 19.9251C20.0001 19.0413 20 17.9247 20 16.5706L20 6ZM12 2.5C11.017 2.5 10.1444 2.97173 9.59565 3.70541C9.34946 4.03455 8.92695 4.17952 8.53055 4.07087C8.36271 4.02487 8.18505 4 8 4C6.89543 4 6 4.89543 6 6H18C18 4.89543 17.1046 4 16 4C15.8149 4 15.6373 4.02487 15.4695 4.07087C15.0731 4.17952 14.6505 4.03454 14.4044 3.70541C13.8556 2.97173 12.983 2.5 12 2.5ZM4 11H3.5C2.94772 11 2.5 11.4477 2.5 12V16C2.5 16.5523 2.94772 17 3.5 17H4.00014C3.99807 15 4 13 4 11ZM9.5 10C10.0523 10 10.5 10.4477 10.5 11V18.5C10.5 19.0523 10.0523 19.5 9.5 19.5C8.94771 19.5 8.5 19.0523 8.5 18.5V11C8.5 10.4477 8.94771 10 9.5 10ZM15.5 11C15.5 10.4477 15.0523 10 14.5 10C13.9477 10 13.5 10.4477 13.5 11V18.5C13.5 19.0523 13.9477 19.5 14.5 19.5C15.0523 19.5 15.5 19.0523 15.5 18.5V11Z" fill="#080809" style="fill:#080809;fill:color(display-p3 0.0314 0.0314 0.0353);fill-opacity:1;"/>
</svg>
