<svg width="24" height="24" viewBox="0 0 24 24" fill="none" xmlns="http://www.w3.org/2000/svg">
<path fill-rule="evenodd" clip-rule="evenodd" d="M12 0.5C12.5523 0.5 13 0.947715 13 1.5V4.00082C14.4024 4.00475 15.5691 4.0272 16.5223 4.15537C17.7225 4.31672 18.733 4.66191 19.5355 5.46447C20.3381 6.26702 20.6833 7.27752 20.8446 8.47767C20.9426 9.20651 20.9788 10.0601 20.9922 11.0484C22.1372 11.277 23 12.2878 23 13.5V14.5C23 15.7095 22.1411 16.7184 21 16.95V18.0616C21.0001 18.7157 21.0001 19.3034 20.9362 19.7792C20.8663 20.2985 20.7042 20.8313 20.2678 21.2678C19.8313 21.7042 19.2985 21.8663 18.7792 21.9362C18.3034 22.0001 17.7157 22.0001 17.0616 22H6.93842C6.28428 22.0001 5.69656 22.0001 5.22084 21.9362C4.70149 21.8663 4.16867 21.7042 3.73223 21.2678C3.29579 20.8313 3.13366 20.2985 3.06383 19.7792C2.99988 19.3035 2.99993 18.7157 3 18.0616L3 16.95C1.85888 16.7184 1 15.7095 1 14.5V13.5C1 12.2878 1.8628 11.277 3.00781 11.0484C3.02118 10.0601 3.05737 9.20651 3.15536 8.47767C3.31672 7.27752 3.66191 6.26702 4.46447 5.46447C5.26702 4.66191 6.27752 4.31672 7.47767 4.15537C8.43092 4.0272 9.59757 4.00392 11 4V1.5C11 0.947715 11.4477 0.5 12 0.5ZM8.5 13.5C9.60457 13.5 10.5 12.6046 10.5 11.5C10.5 10.3954 9.60457 9.5 8.5 9.5C7.39543 9.5 6.5 10.3954 6.5 11.5C6.5 12.6046 7.39543 13.5 8.5 13.5ZM17.5 11.5C17.5 12.6046 16.6046 13.5 15.5 13.5C14.3954 13.5 13.5 12.6046 13.5 11.5C13.5 10.3954 14.3954 9.5 15.5 9.5C16.6046 9.5 17.5 10.3954 17.5 11.5ZM8 17C8 16.4477 8.44772 16 9 16H15C15.5523 16 16 16.4477 16 17C16 17.5523 15.5523 18 15 18H9C8.44772 18 8 17.5523 8 17Z" fill="#080809" style="fill:#080809;fill:color(display-p3 0.0314 0.0314 0.0353);fill-opacity:1;"/>
</svg>
