<svg width="24" height="24" viewBox="0 0 24 24" fill="none" xmlns="http://www.w3.org/2000/svg">
<g clip-path="url(#clip0_29901_28307)">
<path d="M11.9999 0.5C5.64883 0.5 0.5 5.64868 0.5 11.9998C0.5 18.3509 5.64883 23.5 11.9999 23.5C18.351 23.5 23.4999 18.3516 23.4999 11.9998C23.4999 5.648 18.3513 0.5 11.9999 0.5ZM17.2739 17.0869C17.0673 17.4257 16.626 17.5319 16.2883 17.3255C13.5878 15.675 10.1888 15.3021 6.18577 16.2166C5.80002 16.305 5.41552 16.0632 5.32763 15.6776C5.23933 15.2918 5.48006 14.9073 5.86676 14.8194C10.2474 13.8179 14.005 14.249 17.0362 16.1012C17.3741 16.3076 17.4805 16.7491 17.2739 17.0869ZM18.681 13.9555C18.4209 14.3775 17.8692 14.5099 17.4477 14.2508C14.3572 12.3511 9.64468 11.8008 5.98843 12.9106C5.51425 13.0539 5.01343 12.7866 4.86951 12.3133C4.7267 11.8391 4.99407 11.3392 5.46742 11.1951C9.64414 9.9277 14.8365 10.5415 18.386 12.7228C18.8075 12.9823 18.9402 13.5345 18.681 13.9555ZM18.8024 10.6949C15.0955 8.49349 8.981 8.29107 5.44229 9.36508C4.87405 9.53742 4.27312 9.21663 4.10091 8.64839C3.92871 8.07987 4.24922 7.47935 4.81788 7.3066C8.88006 6.07343 15.633 6.31168 19.9005 8.8449C20.4116 9.14825 20.5793 9.80836 20.2763 10.3188C19.9731 10.8299 19.3123 10.9984 18.8024 10.6949Z" fill="#080809" style="fill:#080809;fill:color(display-p3 0.0314 0.0314 0.0353);fill-opacity:1;"/>
</g>
<defs>
<clipPath id="clip0_29901_28307">
<rect width="24" height="24" fill="white" style="fill:white;fill-opacity:1;"/>
</clipPath>
</defs>
</svg>
