<svg width="24" height="24" viewBox="0 0 24 24" fill="none" xmlns="http://www.w3.org/2000/svg">
<path d="M4 8.25H17.9825L16.1163 10.1161C15.6282 10.6043 15.6282 11.3957 16.1163 11.8839C16.6045 12.372 17.396 12.372 17.8841 11.8839L20.8235 8.94454C21.8974 7.8706 21.8974 6.1294 20.8235 5.05546L17.8841 2.11612C17.396 1.62796 16.6045 1.62796 16.1163 2.11612C15.6282 2.60427 15.6282 3.39573 16.1163 3.88388L17.9825 5.75H4C3.30964 5.75 2.75 6.30964 2.75 7C2.75 7.69036 3.30964 8.25 4 8.25Z" fill="#080809" style="fill:#080809;fill:color(display-p3 0.0314 0.0314 0.0353);fill-opacity:1;"/>
<path d="M6.01754 18.25L7.88366 20.1161C8.37181 20.6043 8.37181 21.3957 7.88366 21.8839C7.3955 22.372 6.60405 22.372 6.11589 21.8839L3.17655 18.9445C2.10261 17.8706 2.10261 16.1294 3.17655 15.0555L6.11589 12.1161C6.60405 11.628 7.3955 11.628 7.88366 12.1161C8.37181 12.6043 8.37181 13.3957 7.88366 13.8839L6.01754 15.75H20C20.6904 15.75 21.25 16.3096 21.25 17C21.25 17.6904 20.6904 18.25 20 18.25H6.01754Z" fill="#080809" style="fill:#080809;fill:color(display-p3 0.0314 0.0314 0.0353);fill-opacity:1;"/>
</svg>
