<svg width="24" height="24" viewBox="0 0 24 24" fill="none" xmlns="http://www.w3.org/2000/svg">
<path d="M9.00006 0.5C9.55235 0.5 10.0001 0.947715 10.0001 1.5V4.24782C11.3142 4.56651 12.6859 4.56651 14.0001 4.24782V1.5C14.0001 0.947715 14.4478 0.5 15.0001 0.5C15.5523 0.5 16.0001 0.947715 16.0001 1.5V4.62789C16.927 5.84457 16.8999 7.57007 15.8788 8.76142L15.46 9.25002L8.54013 9.25L8.12134 8.76142C7.10018 7.57006 7.07311 5.84457 8.00006 4.62789V1.5C8.00006 0.947715 8.44778 0.5 9.00006 0.5Z" fill="#080809" style="fill:#080809;fill:color(display-p3 0.0314 0.0314 0.0353);fill-opacity:1;"/>
<path d="M8.43221 10.75L8.34429 10.8352C6.20662 12.9071 5 15.757 5 18.734V22.05C5 22.8508 5.64919 23.5 6.45 23.5C7.05949 23.5 7.66233 23.3468 8.19628 23.062C8.7072 22.7895 9.32425 22.7802 9.83357 23.0348L10.2111 23.2236C11.3373 23.7867 12.6627 23.7867 13.7889 23.2236L14.1664 23.0348C14.6758 22.7802 15.2928 22.7895 15.8037 23.062C16.3377 23.3468 16.9405 23.5 17.55 23.5C18.3508 23.5 19 22.8508 19 22.05V18.734C19 15.757 17.7934 12.9071 15.6557 10.8352L15.5678 10.75L8.43221 10.75Z" fill="#080809" style="fill:#080809;fill:color(display-p3 0.0314 0.0314 0.0353);fill-opacity:1;"/>
</svg>
