<svg width="24" height="24" viewBox="0 0 24 24" fill="none" xmlns="http://www.w3.org/2000/svg">
<path d="M7.88366 3.88388C8.37181 3.39573 8.37181 2.60427 7.88366 2.11612C7.3955 1.62796 6.60405 1.62796 6.11589 2.11612L3.17655 5.05546C2.10261 6.1294 2.10261 7.8706 3.17655 8.94454L6.11589 11.8839C6.60405 12.372 7.3955 12.372 7.88366 11.8839C8.37181 11.3957 8.37181 10.6043 7.88366 10.1161L6.01754 8.25H15C17.6234 8.25 19.75 10.3766 19.75 13C19.75 15.6234 17.6234 17.75 15 17.75H6C5.30964 17.75 4.75 18.3096 4.75 19C4.75 19.6904 5.30964 20.25 6 20.25H15C19.0041 20.25 22.25 17.0041 22.25 13C22.25 8.99594 19.0041 5.75 15 5.75H6.01754L7.88366 3.88388Z" fill="#080809" style="fill:#080809;fill:color(display-p3 0.0314 0.0314 0.0353);fill-opacity:1;"/>
</svg>
