<svg width="24" height="24" viewBox="0 0 24 24" fill="none" xmlns="http://www.w3.org/2000/svg">
<path fill-rule="evenodd" clip-rule="evenodd" d="M11.4294 1H16.0706C17.4246 0.999969 18.5413 0.999943 19.4251 1.11876C20.3529 1.2435 21.1723 1.51547 21.8284 2.17158C22.4845 2.82769 22.7565 3.64711 22.8813 4.57494C23.0001 5.4587 23 6.57531 23 7.92943V12.5706C23 13.9247 23.0001 15.0413 22.8813 15.9251C22.7565 16.8529 22.4845 17.6723 21.8284 18.3284C21.1723 18.9845 20.3529 19.2565 19.4251 19.3813C18.5413 19.5001 17.4247 19.5 16.0706 19.5H11.4295C10.0754 19.5 8.95869 19.5001 8.07494 19.3813C7.14711 19.2565 6.32769 18.9845 5.67158 18.3284C5.01547 17.6723 4.7435 16.8529 4.61876 15.9251C4.49994 15.0413 4.49997 13.9247 4.5 12.5707L4.5 7.92946C4.49997 6.57538 4.49994 5.45868 4.61876 4.57494C4.7435 3.64711 5.01547 2.82769 5.67158 2.17158C6.32769 1.51547 7.14711 1.2435 8.07494 1.11876C8.95868 0.999943 10.0754 0.999969 11.4294 1ZM15 5C15.4277 5 15.8081 5.27205 15.9463 5.67684L16.5514 7.44862L18.3232 8.05366C18.728 8.19189 19 8.57226 19 9C19 9.42774 18.728 9.80812 18.3232 9.94635L16.5514 10.5514L15.9463 12.3232C15.8081 12.728 15.4277 13 15 13C14.5723 13 14.1919 12.728 14.0537 12.3232L13.4486 10.5514L11.6768 9.94635C11.2721 9.80812 11 9.42774 11 9C11 8.57226 11.2721 8.19189 11.6768 8.05366L13.4486 7.44862L14.0537 5.67684C14.1919 5.27205 14.5723 5 15 5ZM10.5 11.25C10.8208 11.25 11.1061 11.454 11.2098 11.7576L11.4726 12.5274L12.2424 12.7902C12.546 12.8939 12.75 13.1792 12.75 13.5C12.75 13.8208 12.546 14.1061 12.2424 14.2098L11.4726 14.4726L11.2098 15.2424C11.1061 15.546 10.8208 15.75 10.5 15.75C10.1792 15.75 9.89392 15.546 9.79024 15.2424L9.52738 14.4726L8.75763 14.2098C8.45404 14.1061 8.25 13.8208 8.25 13.5C8.25 13.1792 8.45404 12.8939 8.75763 12.7902L9.52738 12.5274L9.79024 11.7576C9.89392 11.454 10.1792 11.25 10.5 11.25Z" fill="#080809" style="fill:#080809;fill:color(display-p3 0.0314 0.0314 0.0353);fill-opacity:1;"/>
<path d="M3 7C3 6.44772 2.55229 6 2 6C1.44772 6 1 6.44772 1 7L1 16.0706C0.999967 17.4247 0.999939 18.5413 1.11876 19.4251C1.2435 20.3529 1.51547 21.1723 2.17158 21.8284C2.82769 22.4845 3.64711 22.7565 4.57494 22.8813C5.4587 23.0001 6.57533 23 7.92946 23H17C17.5523 23 18 22.5523 18 22C18 21.4477 17.5523 21 17 21H8C6.55752 21 5.57626 20.9979 4.84144 20.8991C4.13538 20.8042 3.80836 20.6368 3.58579 20.4142C3.36322 20.1916 3.19585 19.8646 3.10092 19.1586C3.00213 18.4237 3 17.4425 3 16V7Z" fill="#080809" style="fill:#080809;fill:color(display-p3 0.0314 0.0314 0.0353);fill-opacity:1;"/>
</svg>
