<svg width="24" height="24" viewBox="0 0 24 24" fill="none" xmlns="http://www.w3.org/2000/svg">
<g clip-path="url(#clip0_29901_26298)">
<path fill-rule="evenodd" clip-rule="evenodd" d="M15.0856 1.49985C15.8667 0.718801 17.133 0.718799 17.9141 1.49985L22.4999 6.08564C23.2809 6.86668 23.2809 8.13301 22.4999 8.91406L8.91406 22.4999C8.13301 23.2809 6.86669 23.2809 6.08564 22.4999L1.49985 17.9141C0.718801 17.133 0.7188 15.8667 1.49985 15.0856L3.78242 12.8031C3.78583 12.7996 3.78927 12.7961 3.79275 12.7926C3.79622 12.7891 3.79971 12.7857 3.80322 12.7823L6.78237 9.80312L6.79274 9.79259L6.80327 9.78222L9.78239 6.8031L9.79274 6.79259L9.80325 6.78224L12.7824 3.80314L12.7927 3.79259L12.8033 3.7822L15.0856 1.49985ZM4.49993 14.914L5.79275 16.2068C6.18327 16.5973 6.81643 16.5973 7.20696 16.2068C7.59748 15.8163 7.59748 15.1831 7.20696 14.7926L5.91414 13.4998L7.49993 11.914L9.79274 14.2068C10.1833 14.5973 10.8164 14.5973 11.207 14.2068C11.5975 13.8163 11.5975 13.1831 11.207 12.7926L8.91414 10.4998L10.4999 8.91399L11.7927 10.2068C12.1833 10.5973 12.8164 10.5973 13.207 10.2068C13.5975 9.81628 13.5975 9.18312 13.207 8.79259L11.9141 7.49977L13.4999 5.91399L15.7927 8.2068C16.1833 8.59733 16.8164 8.59733 17.207 8.2068C17.5975 7.81628 17.5975 7.18312 17.207 6.79259L14.9141 4.49977L16.4999 2.91406L21.0856 7.49985L7.49985 21.0856L2.91406 16.4999L4.49993 14.914Z" fill="#080809" style="fill:#080809;fill:color(display-p3 0.0314 0.0314 0.0353);fill-opacity:1;"/>
</g>
<defs>
<clipPath id="clip0_29901_26298">
<rect width="24" height="24" fill="white" style="fill:white;fill-opacity:1;"/>
</clipPath>
</defs>
</svg>
