<svg width="24" height="24" viewBox="0 0 24 24" fill="none" xmlns="http://www.w3.org/2000/svg">
<g clip-path="url(#clip0_29901_28057)">
<path fill-rule="evenodd" clip-rule="evenodd" d="M12 0.5C5.64873 0.5 0.5 5.64873 0.5 12C0.5 13.6117 0.832126 15.1484 1.43262 16.5434C1.62831 16.998 2.12711 17.241 2.60574 17.115C2.89012 17.0402 3.18962 17 3.5 17C5.433 17 7 18.567 7 20.5C7 20.8104 6.95984 21.1099 6.88497 21.3943C6.75896 21.8729 7.00202 22.3717 7.45662 22.5674C8.85161 23.1679 10.3883 23.5 12 23.5C18.3513 23.5 23.5 18.3513 23.5 12C23.5 11.3803 23.4509 10.7713 23.3562 10.177C23.3062 9.86338 23.1102 9.59217 22.8282 9.44623C22.5462 9.3003 22.2116 9.29698 21.9267 9.43731C21.1959 9.7973 20.3731 10 19.5 10C18.7743 10 18.0815 9.85946 17.4472 9.60412C17.4816 9.73024 17.5 9.86297 17.5 10C17.5 10.8284 16.8284 11.5 16 11.5C15.1716 11.5 14.5 10.8284 14.5 10C14.5 9.25759 15.0393 8.64116 15.7476 8.52115C14.6723 7.51726 14 6.08714 14 4.5C14 3.62693 14.2027 2.80406 14.5627 2.07328C14.703 1.78842 14.6997 1.45384 14.5538 1.17181C14.4078 0.889777 14.1366 0.693824 13.823 0.643842C13.2287 0.549113 12.6197 0.5 12 0.5ZM9.5 10C9.5 10.8284 8.82843 11.5 8 11.5C7.17157 11.5 6.5 10.8284 6.5 10C6.5 9.17157 7.17157 8.5 8 8.5C8.82843 8.5 9.5 9.17157 9.5 10ZM8.7179 15.3039C8.33343 14.9074 7.70034 14.8976 7.30385 15.2821C6.90737 15.6666 6.89763 16.2997 7.2821 16.6961C9.8086 19.3016 13.9692 19.3647 16.5735 16.837L16.6965 16.7176C17.0928 16.3329 17.1022 15.6998 16.7176 15.3035C16.3329 14.9072 15.6998 14.8978 15.3035 15.2824L15.1805 15.4018C13.3691 17.1599 10.4752 17.1161 8.7179 15.3039Z" fill="#080809" style="fill:#080809;fill:color(display-p3 0.0314 0.0314 0.0353);fill-opacity:1;"/>
<path d="M4.20974 18.5094C4.10601 18.2059 3.82078 18.002 3.50004 18.002C3.17931 18.002 2.89407 18.2059 2.79034 18.5094L2.46357 19.4655L1.50642 19.7921C1.20274 19.8958 0.998617 20.1811 0.998617 20.502C0.998617 20.8228 1.20274 21.1082 1.50642 21.2118L2.46357 21.5384L2.79034 22.4945C2.89407 22.798 3.17931 23.002 3.50004 23.002C3.82078 23.002 4.10601 22.798 4.20974 22.4945L4.53651 21.5384L5.49366 21.2118C5.79734 21.1082 6.00147 20.8228 6.00147 20.502C6.00147 20.1811 5.79734 19.8958 5.49366 19.7921L4.53651 19.4655L4.20974 18.5094Z" fill="#080809" style="fill:#080809;fill:color(display-p3 0.0314 0.0314 0.0353);fill-opacity:1;"/>
<path d="M19.4984 0.5C19.9261 0.5 20.3064 0.771935 20.4447 1.1766L21.0502 2.94842L22.8238 3.55358C23.2287 3.69173 23.5009 4.07217 23.5009 4.5C23.5009 4.92783 23.2287 5.30827 22.8238 5.44642L21.0502 6.05158L20.4447 7.8234C20.3064 8.22806 19.9261 8.5 19.4984 8.5C19.0708 8.5 18.6905 8.22806 18.5522 7.8234L17.9466 6.05158L16.173 5.44642C15.7681 5.30827 15.496 4.92783 15.496 4.5C15.496 4.07217 15.7681 3.69173 16.173 3.55358L17.9466 2.94842L18.5522 1.1766C18.6905 0.771935 19.0708 0.5 19.4984 0.5Z" fill="#080809" style="fill:#080809;fill:color(display-p3 0.0314 0.0314 0.0353);fill-opacity:1;"/>
</g>
<defs>
<clipPath id="clip0_29901_28057">
<rect width="24" height="24" fill="white" style="fill:white;fill-opacity:1;"/>
</clipPath>
</defs>
</svg>
