<svg width="24" height="24" viewBox="0 0 24 24" fill="none" xmlns="http://www.w3.org/2000/svg">
<path d="M11.5 9C10.9477 9 10.5 9.44771 10.5 10V11.5H9C8.44772 11.5 8 11.9477 8 12.5V13.5C8 14.0523 8.44772 14.5 9 14.5H10.5V16C10.5 16.5523 10.9477 17 11.5 17H12.5C13.0523 17 13.5 16.5523 13.5 16V14.5H15C15.5523 14.5 16 14.0523 16 13.5V12.5C16 11.9477 15.5523 11.5 15 11.5H13.5V10C13.5 9.44771 13.0523 9 12.5 9H11.5Z" fill="#080809" style="fill:#080809;fill:color(display-p3 0.0314 0.0314 0.0353);fill-opacity:1;"/>
<path fill-rule="evenodd" clip-rule="evenodd" d="M7 4.00014V3C7 1.61929 8.11929 0.5 9.5 0.5H14.5C15.8807 0.5 17 1.61929 17 3V4.00014C18.1626 4.00134 19.1365 4.01274 19.9251 4.11875C20.8529 4.2435 21.6723 4.51547 22.3284 5.17158C22.9845 5.82768 23.2565 6.64711 23.3813 7.57494C23.5001 8.45869 23.5 9.5753 23.5 10.9294V15.0705C23.5 16.4247 23.5001 17.5413 23.3813 18.4251C23.2565 19.3529 22.9845 20.1723 22.3284 20.8284C21.6723 21.4845 20.8529 21.7565 19.9251 21.8813C19.0413 22.0001 17.9247 22 16.5706 22H7.42946C6.07535 22 4.95869 22.0001 4.07494 21.8813C3.14711 21.7565 2.32769 21.4845 1.67158 20.8284C1.01547 20.1723 0.743499 19.3529 0.618756 18.4251C0.499939 17.5413 0.499967 16.4247 0.500001 15.0706V10.9294C0.499967 9.57533 0.499939 8.45869 0.618756 7.57494C0.743499 6.64711 1.01547 5.82768 1.67158 5.17158C2.32769 4.51547 3.14711 4.2435 4.07494 4.11875C4.86348 4.01274 5.8374 4.00134 7 4.00014ZM9 3C9 2.72386 9.22386 2.5 9.5 2.5H14.5C14.7761 2.5 15 2.72386 15 3V4H9V3ZM4.34144 6.10092C3.63538 6.19585 3.30836 6.36322 3.08579 6.58579C2.86322 6.80836 2.69585 7.13538 2.60092 7.84143C2.50213 8.57625 2.5 9.55752 2.5 11V15C2.5 16.4425 2.50213 17.4238 2.60092 18.1586C2.69585 18.8646 2.86322 19.1916 3.08579 19.4142C3.30836 19.6368 3.63538 19.8042 4.34144 19.8991C5.07626 19.9979 6.05752 20 7.5 20H16.5C17.9425 20 18.9238 19.9979 19.6586 19.8991C20.3646 19.8042 20.6916 19.6368 20.9142 19.4142C21.1368 19.1916 21.3042 18.8646 21.3991 18.1586C21.4979 17.4238 21.5 16.4425 21.5 15V11C21.5 9.55752 21.4979 8.57625 21.3991 7.84143C21.3042 7.13538 21.1368 6.80836 20.9142 6.58579C20.6916 6.36322 20.3646 6.19585 19.6586 6.10092C18.9238 6.00213 17.9425 6 16.5 6H7.5C6.05752 6 5.07626 6.00213 4.34144 6.10092Z" fill="#080809" style="fill:#080809;fill:color(display-p3 0.0314 0.0314 0.0353);fill-opacity:1;"/>
</svg>
