<svg width="24" height="24" viewBox="0 0 24 24" fill="none" xmlns="http://www.w3.org/2000/svg">
<path fill-rule="evenodd" clip-rule="evenodd" d="M12 0.5C10.3431 0.5 9 1.84315 9 3.5C9 4.80565 9.83408 5.91649 10.9985 6.32876L10.9965 9.67194C10.4462 9.86721 9.9698 10.2186 9.62051 10.6727L6.49869 9.66042C6.45131 8.045 5.12689 6.75 3.5 6.75C1.84315 6.75 0.5 8.09315 0.5 9.75C0.5 11.4069 1.84315 12.75 3.5 12.75C4.47337 12.75 5.33847 12.2864 5.88657 11.568L9.0011 12.582C9.01718 13.1811 9.20889 13.7364 9.52661 14.1982L7.58872 16.8688C7.32256 16.7915 7.04112 16.75 6.75 16.75C5.09315 16.75 3.75 18.0931 3.75 19.75C3.75 21.4069 5.09315 22.75 6.75 22.75C8.40685 22.75 9.75 21.4069 9.75 19.75C9.75 19.1141 9.55217 18.5245 9.21471 18.0392L11.1505 15.378C11.4199 15.4574 11.705 15.5 12 15.5C12.2951 15.5 12.5803 15.4574 12.8497 15.378L14.7854 18.039C14.4479 18.5243 14.25 19.114 14.25 19.75C14.25 21.4069 15.5931 22.75 17.25 22.75C18.9069 22.75 20.25 21.4069 20.25 19.75C20.25 18.0931 18.9069 16.75 17.25 16.75C16.959 16.75 16.6776 16.7914 16.4115 16.8687L14.4735 14.198C14.7911 13.7362 14.9828 13.1811 14.9989 12.5821L18.1135 11.5681C18.6616 12.2865 19.5267 12.75 20.5 12.75C22.1569 12.75 23.5 11.4069 23.5 9.75C23.5 8.09315 22.1569 6.75 20.5 6.75C18.8731 6.75 17.5486 8.04505 17.5013 9.66051L14.3795 10.6728C14.0303 10.2187 13.554 9.86734 13.0038 9.67204L13.0018 6.32866C14.1661 5.91631 15 4.80554 15 3.5C15 1.84315 13.6569 0.5 12 0.5ZM11 3.5C11 2.94772 11.4477 2.5 12 2.5C12.5523 2.5 13 2.94772 13 3.5C13 4.05228 12.5523 4.5 12 4.5C11.4477 4.5 11 4.05228 11 3.5ZM6.75 18.75C6.19772 18.75 5.75 19.1977 5.75 19.75C5.75 20.3023 6.19772 20.75 6.75 20.75C7.30228 20.75 7.75 20.3023 7.75 19.75C7.75 19.1977 7.30228 18.75 6.75 18.75ZM17.25 18.75C16.6977 18.75 16.25 19.1977 16.25 19.75C16.25 20.3023 16.6977 20.75 17.25 20.75C17.8023 20.75 18.25 20.3023 18.25 19.75C18.25 19.1977 17.8023 18.75 17.25 18.75ZM20.5 8.75C19.9477 8.75 19.5 9.19772 19.5 9.75C19.5 10.3023 19.9477 10.75 20.5 10.75C21.0523 10.75 21.5 10.3023 21.5 9.75C21.5 9.19772 21.0523 8.75 20.5 8.75ZM11 12.5C11 11.9477 11.4477 11.5 12 11.5C12.5523 11.5 13 11.9477 13 12.5C13 13.0523 12.5523 13.5 12 13.5C11.4477 13.5 11 13.0523 11 12.5ZM2.5 9.75C2.5 9.19772 2.94772 8.75 3.5 8.75C4.05228 8.75 4.5 9.19772 4.5 9.75C4.5 10.3023 4.05228 10.75 3.5 10.75C2.94772 10.75 2.5 10.3023 2.5 9.75Z" fill="#080809" style="fill:#080809;fill:color(display-p3 0.0314 0.0314 0.0353);fill-opacity:1;"/>
</svg>
