<svg width="24" height="24" viewBox="0 0 24 24" fill="none" xmlns="http://www.w3.org/2000/svg">
<g clip-path="url(#clip0_29901_26158)">
<path fill-rule="evenodd" clip-rule="evenodd" d="M12.5034 1.03725C12.683 1.37496 12.6542 1.78553 12.4293 2.0949C11.5301 3.33164 11 4.8525 11 6.5001C11 10.6422 14.3579 14.0001 18.5 14.0001C19.7026 14.0001 20.8364 13.7178 21.8414 13.2167C22.1837 13.0461 22.5933 13.0856 22.8966 13.3185C23.2 13.5514 23.3439 13.937 23.2674 14.3117C22.1969 19.555 17.5603 23.5001 12 23.5001C5.64873 23.5001 0.5 18.3514 0.5 12.0001C0.5 5.78776 5.42559 0.726287 11.585 0.507469C11.9673 0.49389 12.3238 0.69955 12.5034 1.03725ZM9.76273 2.76496C5.59583 3.77076 2.5 7.52406 2.5 12.0001C2.5 17.2468 6.75329 21.5001 12 21.5001C15.9202 21.5001 19.2873 19.1249 20.7381 15.7347C20.0199 15.9082 19.2703 16.0001 18.5 16.0001C13.2533 16.0001 9 11.7468 9 6.5001C9 5.17485 9.27184 3.9119 9.76273 2.76496Z" fill="#080809" style="fill:#080809;fill:color(display-p3 0.0314 0.0314 0.0353);fill-opacity:1;"/>
</g>
<defs>
<clipPath id="clip0_29901_26158">
<rect width="24" height="24" fill="white" style="fill:white;fill-opacity:1;"/>
</clipPath>
</defs>
</svg>
