<svg width="24" height="24" viewBox="0 0 24 24" fill="none" xmlns="http://www.w3.org/2000/svg">
<path d="M10.2376 7.34637C11.2105 6.37463 12.7877 6.37103 13.764 7.34246C16.0848 9.65222 18.3969 11.9823 20.7073 14.2927C21.0978 14.6831 21.0976 15.3162 20.7073 15.7067C20.3168 16.0972 19.6838 16.0972 19.2933 15.7067C16.9739 13.3874 14.6739 11.0685 12.3538 8.75945C12.1604 8.56718 11.8463 8.56728 11.6517 8.76141C9.33571 11.0752 7.0232 13.3909 4.70734 15.7067C4.31682 16.0972 3.6838 16.0972 3.29328 15.7067C2.90296 15.3162 2.90282 14.6831 3.29328 14.2927C5.60731 11.9787 7.92156 9.66026 10.2376 7.34637Z" fill="#080809" style="fill:#080809;fill:color(display-p3 0.0314 0.0314 0.0353);fill-opacity:1;"/>
</svg>
