<svg width="24" height="24" viewBox="0 0 24 24" fill="none" xmlns="http://www.w3.org/2000/svg">
<path fill-rule="evenodd" clip-rule="evenodd" d="M7 4.00014V3C7 1.61929 8.11929 0.5 9.5 0.5H14.5C15.8807 0.5 17 1.61929 17 3V4.00014C18.1626 4.00134 19.1365 4.01274 19.9251 4.11875C20.8529 4.2435 21.6723 4.51547 22.3284 5.17158C22.9845 5.82768 23.2565 6.64711 23.3813 7.57494C23.5001 8.45868 23.5 9.57528 23.5 10.9294V15.0705C23.5 16.4246 23.5001 17.5413 23.3813 18.4251C23.2565 19.3529 22.9845 20.1723 22.3284 20.8284C21.6723 21.4845 20.8529 21.7565 19.9251 21.8813C19.0413 22.0001 17.9247 22 16.5706 22H7.42946C6.07537 22 4.95869 22.0001 4.07494 21.8813C3.14711 21.7565 2.32769 21.4845 1.67158 20.8284C1.01547 20.1723 0.7435 19.3529 0.618757 18.4251C0.499941 17.5413 0.499968 16.4247 0.500001 15.0706V10.9294C0.499968 9.57535 0.499941 8.45868 0.618757 7.57494C0.7435 6.64711 1.01547 5.82768 1.67158 5.17158C2.32769 4.51547 3.14711 4.2435 4.07494 4.11875C4.86348 4.01274 5.8374 4.00134 7 4.00014ZM9 3C9 2.72386 9.22386 2.5 9.5 2.5H14.5C14.7761 2.5 15 2.72386 15 3V4H9V3ZM11.5 9C10.9477 9 10.5 9.44771 10.5 10V11.5H9C8.44772 11.5 8 11.9477 8 12.5V13.5C8 14.0523 8.44772 14.5 9 14.5H10.5V16C10.5 16.5523 10.9477 17 11.5 17H12.5C13.0523 17 13.5 16.5523 13.5 16V14.5H15C15.5523 14.5 16 14.0523 16 13.5V12.5C16 11.9477 15.5523 11.5 15 11.5H13.5V10C13.5 9.44771 13.0523 9 12.5 9H11.5Z" fill="#080809" style="fill:#080809;fill:color(display-p3 0.0314 0.0314 0.0353);fill-opacity:1;"/>
</svg>
