<svg width="24" height="24" viewBox="0 0 24 24" fill="none" xmlns="http://www.w3.org/2000/svg">
<path d="M13.9997 8.50016C14.552 8.50016 14.9997 8.94788 14.9997 9.50016V11.0002H16.4997C17.052 11.0002 17.4997 11.4479 17.4997 12.0002C17.4997 12.5524 17.052 13.0002 16.4997 13.0002H14.9997V14.5002C14.9997 15.0524 14.552 15.5002 13.9997 15.5002C13.4474 15.5002 12.9997 15.0524 12.9997 14.5002V13.0002H11.4997C10.9474 13.0002 10.4997 12.5524 10.4997 12.0002C10.4997 11.4479 10.9474 11.0002 11.4997 11.0002H12.9997V9.50016C12.9997 8.94788 13.4474 8.50016 13.9997 8.50016Z" fill="#080809" style="fill:#080809;fill:color(display-p3 0.0314 0.0314 0.0353);fill-opacity:1;"/>
<path fill-rule="evenodd" clip-rule="evenodd" d="M3 3.5C3 1.84315 4.34315 0.5 6 0.5H18C19.6569 0.5 21 1.84315 21 3.5V20.5C21 22.1569 19.6569 23.5 18 23.5H6C4.34315 23.5 3 22.1569 3 20.5V20H2C1.44772 20 1 19.5523 1 19C1 18.4477 1.44772 18 2 18H3V13H2C1.44772 13 1 12.5523 1 12C1 11.4477 1.44772 11 2 11H3V6H2C1.44772 6 1 5.55228 1 5C1 4.44772 1.44772 4 2 4H3V3.5ZM5 20.5C5 21.0523 5.44772 21.5 6 21.5H7.00488V2.5H6C5.44772 2.5 5 2.94772 5 3.5V20.5ZM18 21.5H9.00488V2.5H18C18.5523 2.5 19 2.94772 19 3.5V20.5C19 21.0523 18.5523 21.5 18 21.5Z" fill="#080809" style="fill:#080809;fill:color(display-p3 0.0314 0.0314 0.0353);fill-opacity:1;"/>
</svg>
