<svg width="24" height="24" viewBox="0 0 24 24" fill="none" xmlns="http://www.w3.org/2000/svg">
<path d="M11.5 6C11.0858 6 10.75 6.33579 10.75 6.75C10.75 7.16421 11.0858 7.5 11.5 7.5H12.5C12.9142 7.5 13.25 7.16421 13.25 6.75C13.25 6.33579 12.9142 6 12.5 6H11.5Z" fill="#080809" style="fill:#080809;fill:color(display-p3 0.0314 0.0314 0.0353);fill-opacity:1;"/>
<path fill-rule="evenodd" clip-rule="evenodd" d="M2 6C2 4.34315 3.34315 3 5 3H19C20.6569 3 22 4.34315 22 6V14.5C22 16.1569 20.6569 17.5 19 17.5H5C3.34315 17.5 2 16.1569 2 14.5V6ZM5 5C4.44772 5 4 5.44772 4 6V14.5C4 15.0523 4.44772 15.5 5 15.5H19C19.5523 15.5 20 15.0523 20 14.5V6C20 5.44772 19.5523 5 19 5H5Z" fill="#080809" style="fill:#080809;fill:color(display-p3 0.0314 0.0314 0.0353);fill-opacity:1;"/>
<path d="M0.5 20C0.5 19.4477 0.947715 19 1.5 19H22.5C23.0523 19 23.5 19.4477 23.5 20C23.5 20.5523 23.0523 21 22.5 21H1.5C0.947715 21 0.5 20.5523 0.5 20Z" fill="#080809" style="fill:#080809;fill:color(display-p3 0.0314 0.0314 0.0353);fill-opacity:1;"/>
</svg>
