<svg width="24" height="24" viewBox="0 0 24 24" fill="none" xmlns="http://www.w3.org/2000/svg">
<path fill-rule="evenodd" clip-rule="evenodd" d="M20.0138 18.5996C20.6441 17.3697 21 15.9756 21 14.4996C21 11.8601 19.6487 9.07729 18.1412 6.76324C16.6123 4.41633 14.8163 2.39316 13.7233 1.24134C12.7803 0.247677 11.2197 0.247681 10.2767 1.24134C9.4042 2.16079 8.08205 3.63723 6.80553 5.39132L2.70711 1.29289C2.31658 0.902369 1.68342 0.902369 1.29289 1.29289C0.902369 1.68342 0.902369 2.31658 1.29289 2.70711L5.65941 7.07362L5.65875 7.07465L7.05325 8.46916L7.05424 8.46846L17.4628 18.877L17.4621 18.878L18.8805 20.2964L18.8814 20.2956L21.2929 22.7071C21.6834 23.0976 22.3166 23.0976 22.7071 22.7071C23.0976 22.3166 23.0976 21.6834 22.7071 21.2929L20.0138 18.5996ZM12.2725 2.61806C12.1182 2.45544 11.8818 2.45544 11.7275 2.61806C10.8425 3.55063 9.49706 5.05866 8.23826 6.82404L18.505 17.0908C18.8245 16.2896 19 15.4155 19 14.4996C19 12.464 17.9227 10.092 16.4654 7.85492C15.0295 5.65074 13.3244 3.72654 12.2725 2.61806Z" fill="#080809" style="fill:#080809;fill:color(display-p3 0.0314 0.0314 0.0353);fill-opacity:1;"/>
<path d="M5.5569 9.18059C5.66399 9.2303 5.75813 9.29656 5.83769 9.37492L5.84842 9.38565C6.13261 9.67421 6.22345 10.1197 6.04288 10.5087C5.38999 11.9151 5 13.2768 5 14.4996C5 18.3656 8.13401 21.4996 12 21.4996C13.3813 21.4996 14.6664 21.1005 15.7498 20.4118C16.2158 20.1155 16.8339 20.2531 17.1302 20.7191C17.4265 21.1852 17.2888 21.8032 16.8228 22.0995C15.4282 22.9862 13.7725 23.4996 12 23.4996C7.02944 23.4996 3 19.4702 3 14.4996C3 12.8773 3.50939 11.2163 4.22881 9.66657C4.46135 9.16562 5.05596 8.94805 5.5569 9.18059Z" fill="#080809" style="fill:#080809;fill:color(display-p3 0.0314 0.0314 0.0353);fill-opacity:1;"/>
<path d="M7.4262 15.0881C7.94564 14.9004 8.51882 15.1695 8.70643 15.6889C9.02158 16.5614 9.67557 17.2748 10.5094 17.6679C11.009 17.9034 11.223 18.4993 10.9875 18.9988C10.752 19.4984 10.1562 19.7125 9.6566 19.477C8.34745 18.8598 7.32157 17.7421 6.82536 16.3683C6.63775 15.8488 6.90676 15.2757 7.4262 15.0881Z" fill="#080809" style="fill:#080809;fill:color(display-p3 0.0314 0.0314 0.0353);fill-opacity:1;"/>
</svg>
