<svg width="24" height="24" viewBox="0 0 24 24" fill="none" xmlns="http://www.w3.org/2000/svg">
<path fill-rule="evenodd" clip-rule="evenodd" d="M14.0706 0.500001H9.92943C8.57535 0.499968 7.45868 0.499941 6.57494 0.618757C5.64711 0.7435 4.82769 1.01547 4.17158 1.67158C3.51547 2.32769 3.2435 3.14711 3.11876 4.07494C2.99994 4.95868 2.99997 6.07527 3 7.42936V16.5706C2.99997 17.9247 2.99994 19.0413 3.11876 19.9251C3.2435 20.8529 3.51547 21.6723 4.17158 22.3284C4.82769 22.9845 5.64711 23.2565 6.57494 23.3813C7.45869 23.5001 8.57529 23.5 9.92939 23.5H14.0706C15.4246 23.5 16.5413 23.5001 17.4251 23.3813C18.3529 23.2565 19.1723 22.9845 19.8284 22.3284C20.4845 21.6723 20.7565 20.8529 20.8813 19.9251C21.0001 19.0413 21 17.9247 21 16.5706L21 7.42946C21 6.07536 21.0001 4.95869 20.8813 4.07494C20.7565 3.14711 20.4845 2.32769 19.8284 1.67158C19.1723 1.01547 18.3529 0.7435 17.4251 0.618757C16.5413 0.499941 15.4247 0.499968 14.0706 0.500001ZM7 12C7 11.4477 7.44772 11 8 11H13C13.5523 11 14 11.4477 14 12C14 12.5523 13.5523 13 13 13H8C7.44772 13 7 12.5523 7 12ZM8 6C7.44772 6 7 6.44772 7 7C7 7.55229 7.44772 8 8 8H16C16.5523 8 17 7.55229 17 7C17 6.44772 16.5523 6 16 6H8Z" fill="#080809" style="fill:#080809;fill:color(display-p3 0.0314 0.0314 0.0353);fill-opacity:1;"/>
</svg>
