<svg width="24" height="24" viewBox="0 0 24 24" fill="none" xmlns="http://www.w3.org/2000/svg">
<g clip-path="url(#clip0_29901_26524)">
<path d="M11.989 4.81517C15.9697 4.81517 19.1845 8.04076 19.1845 12.0107H23.5105C23.5105 5.65663 18.3538 0.5 11.9997 0.5C5.64566 0.5 0.489025 5.65663 0.489025 12.0107H4.79341C4.79341 8.02998 8.00821 4.81517 11.989 4.81517Z" fill="#080809" style="fill:#080809;fill:color(display-p3 0.0314 0.0314 0.0353);fill-opacity:1;"/>
<path d="M11.9999 19.1956C14.9235 19.1956 17.4478 17.4372 18.5698 14.9236L22.5182 16.6712C20.7274 20.6951 16.6927 23.5 11.9999 23.5C7.30718 23.5 3.2725 20.6951 1.4817 16.6712L5.43008 14.9236C6.54124 17.4372 9.07641 19.1956 11.9999 19.1956Z" fill="#080809" style="fill:#080809;fill:color(display-p3 0.0314 0.0314 0.0353);fill-opacity:1;"/>
</g>
<defs>
<clipPath id="clip0_29901_26524">
<rect width="24" height="24" fill="white" style="fill:white;fill-opacity:1;"/>
</clipPath>
</defs>
</svg>
