<svg width="24" height="24" viewBox="0 0 24 24" fill="none" xmlns="http://www.w3.org/2000/svg">
<path fill-rule="evenodd" clip-rule="evenodd" d="M22 9.76571V16.0701C22.0001 17.4242 22.0001 18.5409 21.8813 19.4247C21.7565 20.3525 21.4846 21.1719 20.8285 21.828C20.1724 22.4841 19.3529 22.7561 18.4251 22.8808C17.5413 22.9997 16.4247 22.9996 15.0706 22.9996H8.92947C7.57536 22.9996 6.45873 22.9997 5.57497 22.8808C4.64714 22.7561 3.82772 22.4841 3.17161 21.828C2.5155 21.1719 2.24353 20.3525 2.11879 19.4247C1.99997 18.5409 2 17.4243 2.00004 16.0702L2.00004 9.76571C1.57921 10.0093 1.03218 9.91549 0.719166 9.52422C0.374158 9.09296 0.444081 8.46366 0.875345 8.11866L3 6.41894V3C3 2.44772 3.44772 2 4 2C4.55228 2 5 2.44772 5 3V4.81896L6.42736 3.67707C7.58339 2.75223 8.52139 2.00181 9.3475 1.4906C10.2085 0.957777 11.0434 0.62207 12 0.62207C12.9567 0.62207 13.7916 0.957775 14.6526 1.49059C15.4787 2.0018 16.4167 2.75222 17.5727 3.67705L23.1247 8.11866C23.556 8.46367 23.6259 9.09296 23.2809 9.52422C22.9679 9.91549 22.4209 10.0093 22 9.76571ZM10.5 13C9.67157 13 9 13.6716 9 14.5V21H15V14.5C15 13.6716 14.3284 13 13.5 13H10.5Z" fill="#080809" style="fill:#080809;fill:color(display-p3 0.0314 0.0314 0.0353);fill-opacity:1;"/>
</svg>
