<svg width="24" height="24" viewBox="0 0 24 24" fill="none" xmlns="http://www.w3.org/2000/svg">
<path fill-rule="evenodd" clip-rule="evenodd" d="M3 14.4996C3 19.4702 7.02944 23.4996 12 23.4996C16.9706 23.4996 21 19.4702 21 14.4996C21 11.8601 19.6487 9.0773 18.1412 6.76324C16.6123 4.41633 14.8163 2.39316 13.7233 1.24134C12.7803 0.247682 11.2197 0.247676 10.2767 1.24134C9.18369 2.39316 7.3877 4.41633 5.8588 6.76324C4.35131 9.0773 3 11.8601 3 14.4996ZM7.29579 16.1987C7.10818 15.6792 6.535 15.4102 6.01555 15.5978C5.49611 15.7854 5.22711 16.3586 5.41472 16.8781C6.04615 18.6263 7.35201 20.0491 9.01832 20.8347C9.51788 21.0702 10.1138 20.8561 10.3493 20.3565C10.5848 19.857 10.3707 19.2611 9.87113 19.0256C8.68013 18.4641 7.74616 17.4456 7.29579 16.1987Z" fill="#080809" style="fill:#080809;fill:color(display-p3 0.0314 0.0314 0.0353);fill-opacity:1;"/>
</svg>
