<svg width="24" height="24" viewBox="0 0 24 24" fill="none" xmlns="http://www.w3.org/2000/svg">
<g clip-path="url(#clip0_29901_27909)">
<path d="M12.4293 2.0949C12.6542 1.78553 12.683 1.37496 12.5034 1.03725C12.3238 0.69955 11.9673 0.49389 11.585 0.507469C5.42559 0.726287 0.5 5.78776 0.5 12.0001C0.5 18.3514 5.64873 23.5001 12 23.5001C17.5603 23.5001 22.1969 19.555 23.2674 14.3117C23.3439 13.937 23.2 13.5514 22.8966 13.3185C22.5933 13.0856 22.1837 13.0461 21.8414 13.2167C20.8364 13.7178 19.7026 14.0001 18.5 14.0001C14.3579 14.0001 11 10.6422 11 6.5001C11 4.8525 11.5301 3.33164 12.4293 2.0949Z" fill="#080809" style="fill:#080809;fill:color(display-p3 0.0314 0.0314 0.0353);fill-opacity:1;"/>
</g>
<defs>
<clipPath id="clip0_29901_27909">
<rect width="24" height="24" fill="white" style="fill:white;fill-opacity:1;"/>
</clipPath>
</defs>
</svg>
