<svg width="24" height="24" viewBox="0 0 24 24" fill="none" xmlns="http://www.w3.org/2000/svg">
<path fill-rule="evenodd" clip-rule="evenodd" d="M18.7641 14.8713C19.0556 13.9969 18.4969 13.0689 17.5877 12.9174L16.1105 12.6712C13.3892 12.2177 10.6117 12.2177 7.8905 12.6712L6.41326 12.9174C5.50407 13.0689 4.94536 13.9969 5.23683 14.8713L5.35969 15.2399C7.48699 21.6218 16.514 21.6218 18.6413 15.2399L18.7641 14.8713ZM15.7817 14.644L16.6783 14.7934C15.0703 19.104 8.93062 19.104 7.3227 14.7934L8.2193 14.644C10.7228 14.2267 13.2781 14.2267 15.7817 14.644Z" fill="#080809" style="fill:#080809;fill:color(display-p3 0.0314 0.0314 0.0353);fill-opacity:1;"/>
<path d="M6.03009 6.7577C6.16404 6.22191 6.70698 5.89615 7.24277 6.03009C8.35784 6.30886 9.20397 6.72957 9.78024 7.08974C10.1065 7.29363 10.4338 7.52004 10.7073 7.79313C10.9346 8.02043 11.0388 8.34313 10.9873 8.66042C10.9358 8.97771 10.735 9.25091 10.4474 9.39466L7.44745 10.8947C6.95347 11.1417 6.3528 10.9414 6.10581 10.4475C5.85882 9.95347 6.05904 9.3528 6.55302 9.10581L7.9804 8.39212C7.63896 8.23822 7.23144 8.08881 6.7577 7.97038C6.22191 7.83643 5.89615 7.2935 6.03009 6.7577Z" fill="#080809" style="fill:#080809;fill:color(display-p3 0.0314 0.0314 0.0353);fill-opacity:1;"/>
<path d="M16.7577 6.03009C17.2935 5.89615 17.8364 6.22191 17.9704 6.7577C18.1043 7.2935 17.7786 7.83643 17.2428 7.97038C16.769 8.08881 16.3615 8.23822 16.0201 8.39212L17.4475 9.10581C17.9414 9.3528 18.1417 9.95347 17.8947 10.4475C17.6477 10.9414 17.047 11.1417 16.553 10.8947L13.553 9.39466C13.2655 9.25091 13.0646 8.97771 13.0132 8.66042C12.9617 8.34313 13.0658 8.02043 13.2931 7.79313C13.301 7.79313 13.3016 7.78478 13.2931 7.79313C13.5666 7.51995 13.8941 7.2936 14.2202 7.08974C14.7965 6.72957 15.6426 6.30886 16.7577 6.03009Z" fill="#080809" style="fill:#080809;fill:color(display-p3 0.0314 0.0314 0.0353);fill-opacity:1;"/>
<path fill-rule="evenodd" clip-rule="evenodd" d="M12 0.5C5.64873 0.5 0.5 5.64873 0.5 12C0.5 18.3513 5.64873 23.5 12 23.5C18.3513 23.5 23.5 18.3513 23.5 12C23.5 5.64873 18.3513 0.5 12 0.5ZM2.5 12C2.5 6.75329 6.75329 2.5 12 2.5C17.2467 2.5 21.5 6.75329 21.5 12C21.5 17.2467 17.2467 21.5 12 21.5C6.75329 21.5 2.5 17.2467 2.5 12Z" fill="#080809" style="fill:#080809;fill:color(display-p3 0.0314 0.0314 0.0353);fill-opacity:1;"/>
</svg>
