<svg width="24" height="24" viewBox="0 0 24 24" fill="none" xmlns="http://www.w3.org/2000/svg">
<path d="M13.2071 8.29289C13.5976 8.68342 13.5976 9.31658 13.2071 9.70711L10.9142 12L13.2071 14.2929C13.5976 14.6834 13.5976 15.3166 13.2071 15.7071C12.8166 16.0976 12.1834 16.0976 11.7929 15.7071L9.5 13.4142L7.20711 15.7071C6.81658 16.0976 6.18342 16.0976 5.79289 15.7071C5.40237 15.3166 5.40237 14.6834 5.79289 14.2929L8.08579 12L5.79289 9.70711C5.40237 9.31658 5.40237 8.68342 5.79289 8.29289C6.18342 7.90237 6.81658 7.90237 7.20711 8.29289L9.5 10.5858L11.7929 8.29289C12.1834 7.90237 12.8166 7.90237 13.2071 8.29289Z" fill="#080809" style="fill:#080809;fill:color(display-p3 0.0314 0.0314 0.0353);fill-opacity:1;"/>
<path fill-rule="evenodd" clip-rule="evenodd" d="M9.57317 3H9.42684C7.6034 2.99997 6.13362 2.99995 4.97767 3.15537C3.77752 3.31672 2.76702 3.66191 1.96447 4.46447C1.16191 5.26702 0.816722 6.27752 0.655367 7.47767C0.499954 8.63362 0.499975 10.1034 0.500001 11.9268V12.0732C0.499975 13.8966 0.499954 15.3664 0.655367 16.5223C0.816722 17.7225 1.16191 18.733 1.96447 19.5355C2.76702 20.3381 3.77752 20.6833 4.97767 20.8446C6.13363 21.0001 7.6034 21 9.42687 21H9.57314C11.3966 21 12.8664 21.0001 14.0223 20.8446C15.2225 20.6833 16.233 20.3381 17.0355 19.5355C17.8381 18.733 18.1833 17.7225 18.3446 16.5223C18.3962 16.1392 18.4306 15.7215 18.4536 15.268L21.1119 17.221C22.1025 17.9488 23.5 17.2414 23.5 16.0122V7.95548C23.5 6.74475 22.1396 6.03289 21.1449 6.72309L18.4463 8.59559C18.4235 8.19439 18.3909 7.8221 18.3446 7.47767C18.1833 6.27752 17.8381 5.26702 17.0355 4.46447C16.233 3.66191 15.2225 3.31672 14.0223 3.15537C12.8664 2.99995 11.3966 2.99997 9.57317 3ZM18.5 12.8203L21.5 15.0244V8.91099L18.5 10.9926V12.8203ZM16.5 11.9136C16.4999 10.0459 16.4958 8.73608 16.3625 7.74416C16.2309 6.7658 15.9903 6.2477 15.6213 5.87868C15.2523 5.50967 14.7342 5.26907 13.7558 5.13753C12.7487 5.00213 11.4139 5 9.5 5C7.58612 5 6.2513 5.00213 5.24416 5.13753C4.2658 5.26907 3.7477 5.50967 3.37868 5.87868C3.00967 6.2477 2.76907 6.7658 2.63753 7.74416C2.50213 8.7513 2.5 10.0861 2.5 12C2.5 13.9139 2.50213 15.2487 2.63753 16.2558C2.76907 17.2342 3.00967 17.7523 3.37868 18.1213C3.7477 18.4903 4.2658 18.7309 5.24416 18.8625C6.2513 18.9979 7.58612 19 9.5 19C11.4139 19 12.7487 18.9979 13.7558 18.8625C14.7342 18.7309 15.2523 18.4903 15.6213 18.1213C15.9903 17.7523 16.2309 17.2342 16.3625 16.2558C16.4958 15.2639 16.4999 13.9542 16.5 12.0864V11.9136Z" fill="#080809" style="fill:#080809;fill:color(display-p3 0.0314 0.0314 0.0353);fill-opacity:1;"/>
</svg>
