<svg width="24" height="24" viewBox="0 0 24 24" fill="none" xmlns="http://www.w3.org/2000/svg">
<path fill-rule="evenodd" clip-rule="evenodd" d="M8.99992 3C8.99992 1.89543 9.89535 1 10.9999 1H12.9999C14.1045 1 14.9999 1.89543 14.9999 3V7.87041L19.6319 6.36538C20.6824 6.02405 21.8108 6.59895 22.1521 7.64946L22.7701 9.55157C23.1115 10.6021 22.5365 11.7304 21.486 12.0717L16.8541 13.5767L19.7171 17.5173C20.3664 18.4109 20.1683 19.6617 19.2746 20.3109L17.6566 21.4865C16.763 22.1357 15.5122 21.9376 14.863 21.044L12.0002 17.1037L9.13703 21.0444C8.48778 21.938 7.23704 22.1361 6.34343 21.4869L4.72539 20.3113C3.83178 19.6621 3.63368 18.4113 4.28293 17.5177L7.14587 13.5772L2.51337 12.072C1.46286 11.7307 0.887955 10.6024 1.22929 9.55187L1.84732 7.64976C2.18865 6.59925 3.31696 6.02435 4.36747 6.36568L8.99992 7.87085V3ZM12.9999 3L10.9999 3V9.24724C10.9999 9.56734 10.8467 9.8681 10.5877 10.0563C10.3287 10.2444 9.99535 10.2972 9.69091 10.1983L3.74943 8.26779L3.1314 10.1699L9.07292 12.1004C9.37736 12.1993 9.61604 12.438 9.71496 12.7425C9.81388 13.0469 9.76108 13.3803 9.57292 13.6393L5.90096 18.6933L7.519 19.8689L11.1911 14.8146C11.3793 14.5556 11.6801 14.4024 12.0002 14.4024C12.3203 14.4024 12.621 14.5556 12.8092 14.8146L16.481 19.8685L18.0991 18.6929L14.427 13.6388C14.2389 13.3798 14.1861 13.0464 14.285 12.742C14.3839 12.4375 14.6226 12.1989 14.927 12.0999L20.868 10.1696L20.25 8.2675L14.3089 10.1979C14.0045 10.2968 13.6711 10.244 13.4121 10.0558C13.1532 9.86766 12.9999 9.5669 12.9999 9.2468V3Z" fill="#080809" style="fill:#080809;fill:color(display-p3 0.0314 0.0314 0.0353);fill-opacity:1;"/>
</svg>
