<svg width="24" height="24" viewBox="0 0 24 24" fill="none" xmlns="http://www.w3.org/2000/svg">
<path fill-rule="evenodd" clip-rule="evenodd" d="M12.0748 1H11.9252C9.63166 0.999979 7.80859 0.999962 6.3804 1.19198C4.90794 1.38994 3.70636 1.80836 2.75736 2.75736C1.80836 3.70636 1.38994 4.90794 1.19198 6.3804C0.999962 7.80859 0.999979 9.63164 1 11.9252V12.0748C0.999979 14.3683 0.999962 16.1914 1.19198 17.6196C1.38994 19.0921 1.80836 20.2936 2.75736 21.2426C3.70636 22.1916 4.90794 22.6101 6.3804 22.808C7.8086 23 9.63167 23 11.9252 23H12.0748C14.3683 23 16.1914 23 17.6196 22.808C19.0921 22.6101 20.2936 22.1916 21.2426 21.2426C22.1916 20.2936 22.6101 19.0921 22.808 17.6196C23 16.1914 23 14.3683 23 12.0748V11.9252C23 9.63167 23 7.8086 22.808 6.3804C22.6101 4.90794 22.1916 3.70636 21.2426 2.75736C20.2936 1.80836 19.0921 1.38994 17.6196 1.19198C16.1914 0.999962 14.3683 0.999979 12.0748 1ZM18.5 7.5C18.5 6.39543 17.6046 5.5 16.5 5.5C15.3954 5.5 14.5 6.39543 14.5 7.5C14.5 8.60457 15.3954 9.5 16.5 9.5C17.6046 9.5 18.5 8.60457 18.5 7.5ZM13.5447 15.5447C14.0873 15.002 14.762 14.5987 15.488 14.3713C16.236 14.144 16.5 13.4913 16.5 13C16.5 12.5087 16.236 11.856 15.488 11.6287C14.7547 11.4013 14.08 10.998 13.5447 10.4553C13.002 9.91267 12.5987 9.238 12.3713 8.512C12.144 7.764 11.4913 7.5 11 7.5C10.5087 7.5 9.856 7.764 9.62867 8.512C9.40133 9.24533 8.998 9.91267 8.45533 10.4553C7.91267 10.998 7.238 11.4013 6.512 11.6287C5.764 11.856 5.5 12.5087 5.5 13C5.5 13.4913 5.764 14.144 6.512 14.3713C7.24533 14.5987 7.92 15.002 8.45533 15.5447C8.998 16.08 9.40133 16.7547 9.62867 17.488C9.856 18.236 10.5087 18.5 11 18.5C11.4913 18.5 12.144 18.236 12.3713 17.488C12.5987 16.7547 13.002 16.0873 13.5447 15.5447Z" fill="#080809" style="fill:#080809;fill:color(display-p3 0.0314 0.0314 0.0353);fill-opacity:1;"/>
</svg>
