<svg width="24" height="24" viewBox="0 0 24 24" fill="none" xmlns="http://www.w3.org/2000/svg">
<path fill-rule="evenodd" clip-rule="evenodd" d="M9 2C9 1.44772 9.44772 1 10 1H14C14.5523 1 15 1.44772 15 2C15 2.55228 14.5523 3 14 3H10C9.44772 3 9 2.55228 9 2ZM6.98313 2.0818C7.08412 2.62477 6.72581 3.14681 6.18284 3.24779C5.21683 3.42745 4.62164 3.72149 4.17156 4.17156C3.72149 4.62164 3.42745 5.21683 3.24779 6.18284C3.14681 6.72581 2.62477 7.08412 2.0818 6.98313C1.53883 6.88215 1.18052 6.36012 1.28151 5.81714C1.50875 4.59528 1.93443 3.58027 2.75735 2.75735C3.58027 1.93443 4.59528 1.50875 5.81714 1.28151C6.36012 1.18052 6.88215 1.53883 6.98313 2.0818ZM17.0168 2.0818C17.1178 1.53883 17.6399 1.18052 18.1828 1.28151C19.4047 1.50875 20.4197 1.93443 21.2426 2.75735C22.0655 3.58027 22.4912 4.59527 22.7185 5.81714C22.8195 6.36012 22.4612 6.88215 21.9182 6.98313C21.3752 7.08412 20.8532 6.72581 20.7522 6.18284C20.5725 5.21683 20.2785 4.62164 19.8284 4.17156C19.3783 3.72149 18.7832 3.42745 17.8171 3.24779C17.2742 3.14681 16.9159 2.62477 17.0168 2.0818ZM2 9C2.55228 9 3 9.44772 3 10V14C3 14.5523 2.55228 15 2 15C1.44772 15 1 14.5523 1 14L1 10C1 9.44772 1.44772 9 2 9ZM22 9C22.5523 9 23 9.44772 23 10V14C23 14.5523 22.5523 15 22 15C21.4477 15 21 14.5523 21 14V10C21 9.44772 21.4477 9 22 9ZM2.0818 17.0168C2.62477 16.9159 3.14681 17.2742 3.24779 17.8171C3.42745 18.7832 3.72149 19.3783 4.17156 19.8284C4.62164 20.2785 5.21683 20.5725 6.18284 20.7522C6.72581 20.8532 7.08412 21.3752 6.98313 21.9182C6.88215 22.4612 6.36012 22.8195 5.81714 22.7185C4.59528 22.4912 3.58027 22.0655 2.75735 21.2426C1.93443 20.4197 1.50875 19.4047 1.28151 18.1828C1.18052 17.6399 1.53883 17.1178 2.0818 17.0168ZM21.9182 17.0168C22.4612 17.1178 22.8195 17.6399 22.7185 18.1828C22.4912 19.4047 22.0655 20.4197 21.2426 21.2426C20.4197 22.0655 19.4047 22.4912 18.1828 22.7185C17.6399 22.8195 17.1178 22.4612 17.0168 21.9182C16.9159 21.3752 17.2742 20.8532 17.8171 20.7522C18.7832 20.5725 19.3783 20.2785 19.8284 19.8284C20.2785 19.3783 20.5725 18.7832 20.7522 17.8171C20.8532 17.2742 21.3752 16.9159 21.9182 17.0168ZM9 22C9 21.4477 9.44772 21 10 21H14C14.5523 21 15 21.4477 15 22C15 22.5523 14.5523 23 14 23H10C9.44772 23 9 22.5523 9 22Z" fill="#080809" style="fill:#080809;fill:color(display-p3 0.0314 0.0314 0.0353);fill-opacity:1;"/>
</svg>
