<svg width="24" height="24" viewBox="0 0 24 24" fill="none" xmlns="http://www.w3.org/2000/svg">
<path fill-rule="evenodd" clip-rule="evenodd" d="M16.1287 2.45681C17.3003 1.28523 19.1997 1.28523 20.3713 2.4568L21.5429 3.62837C22.7145 4.79995 22.7145 6.69945 21.5429 7.87102L8 21.4138C7.62493 21.7889 7.11622 21.9996 6.58579 21.9996H3.5C2.67157 21.9996 2 21.328 2 20.4996V17.4139C2 16.8835 2.21071 16.3748 2.58579 15.9997L16.1287 2.45681ZM20.1287 6.4568L18.9998 7.58563L16.4141 4.99985L17.5429 3.87102C17.9334 3.48049 18.5666 3.48049 18.9571 3.87102L20.1287 5.04259C20.5192 5.43311 20.5192 6.06628 20.1287 6.4568ZM4 17.4139L14.9998 6.41406L17.5856 8.99984L6.58579 19.9996H4L4 17.4139Z" fill="#080809" style="fill:#080809;fill:color(display-p3 0.0314 0.0314 0.0353);fill-opacity:1;"/>
<path d="M18.5506 16.1046C18.9268 15.2985 20.0732 15.2985 20.4494 16.1046L20.6638 16.564C21.0281 17.3445 21.6555 17.9719 22.436 18.3362L22.8954 18.5506C23.7015 18.9268 23.7015 20.0732 22.8954 20.4494L22.436 20.6638C21.6555 21.0281 21.0281 21.6555 20.6638 22.436L20.4494 22.8954C20.0732 23.7015 18.9268 23.7015 18.5506 22.8954L18.3362 22.436C17.9719 21.6555 17.3445 21.0281 16.564 20.6638L16.1046 20.4494C15.2985 20.0732 15.2985 18.9268 16.1046 18.5506L16.564 18.3362C17.3445 17.9719 17.9719 17.3445 18.3362 16.564L18.5506 16.1046Z" fill="#080809" style="fill:#080809;fill:color(display-p3 0.0314 0.0314 0.0353);fill-opacity:1;"/>
</svg>
