<svg width="24" height="24" viewBox="0 0 24 24" fill="none" xmlns="http://www.w3.org/2000/svg">
<path fill-rule="evenodd" clip-rule="evenodd" d="M22.9998 12.0748V11.9252C22.9998 9.63165 22.9998 7.80859 22.8078 6.38039C22.6098 4.90794 22.1914 3.70636 21.2424 2.75736C20.2934 1.80836 19.0918 1.38994 17.6194 1.19198C16.1912 0.999961 14.3681 0.999978 12.0746 1H11.925C9.63142 0.999978 7.80835 0.999961 6.38015 1.19198C4.9077 1.38994 3.70612 1.80836 2.75712 2.75736C1.80812 3.70636 1.3897 4.90794 1.19173 6.38039C0.99972 7.8086 0.999737 9.63167 0.99976 11.9252V12.0748C0.999757 12.3921 0.999753 12.7005 1.00026 13H0.996094L1.00464 14.0085C1.01908 15.7116 1.0724 17.1207 1.29843 18.2746C1.52992 19.4564 1.9551 20.441 2.75675 21.2426C3.70575 22.1916 4.90733 22.6101 6.37979 22.808C7.09398 22.904 7.90692 22.952 8.82806 22.976C9.74893 23 10.7779 23 11.9245 23C11.9247 23 11.9244 23 11.9245 23L12.0742 23C12.0743 23 12.0741 23 12.0742 23C13.4001 23 14.5691 23 15.5951 22.9629C16.3439 22.9359 17.0168 22.889 17.6194 22.808C19.0918 22.6101 20.2934 22.1916 21.2424 21.2426C22.1914 20.2936 22.6098 19.0921 22.8078 17.6196C22.9528 16.5412 22.9883 15.2376 22.997 13.6763L23.0027 13H22.9993C22.9998 12.7005 22.9998 12.3921 22.9998 12.0748ZM20.9991 13C20.9997 12.6809 20.9998 12.3479 20.9998 12C20.9998 9.61471 20.9976 7.92634 20.8256 6.64689C20.6575 5.39621 20.3437 4.68704 19.8282 4.17157C19.3127 3.65611 18.6036 3.34229 17.3529 3.17414C16.0734 3.00213 14.3851 3 11.9998 3C9.61447 3 7.9261 3.00213 6.64665 3.17414C5.39597 3.34229 4.6868 3.65611 4.17133 4.17157C3.65587 4.68704 3.34205 5.39621 3.1739 6.64689C3.00188 7.92634 2.99976 9.61471 2.99976 12C2.99976 12.3479 2.9998 12.6809 3.00042 13H20.9991ZM15.091 20.9774C15.971 20.9554 16.7129 20.9119 17.3525 20.8259C18.6032 20.6577 19.3124 20.3439 19.8278 19.8284C20.267 19.3893 20.557 18.8126 20.7377 17.8902C20.8851 17.1377 20.9508 16.2047 20.979 15H3.02013C3.04141 15.9203 3.08494 16.6914 3.1739 17.3531C3.34205 18.6038 3.65587 19.313 4.17133 19.8284C4.6868 20.3439 5.39597 20.6577 6.64665 20.8259C7.08238 20.8844 7.56554 20.9233 8.1075 20.9491C9.05745 20.9943 10.1881 20.9994 11.5606 20.9999C11.7042 21 11.8504 21 11.9994 21C11.9993 21 11.9995 21 11.9994 21" fill="#080809" style="fill:#080809;fill:color(display-p3 0.0314 0.0314 0.0353);fill-opacity:1;"/>
</svg>
