<svg width="24" height="24" viewBox="0 0 24 24" fill="none" xmlns="http://www.w3.org/2000/svg">
<path d="M15.752 6C15.752 7.24264 14.7446 8.25 13.502 8.25C12.2593 8.25 11.252 7.24264 11.252 6C11.252 4.75736 12.2593 3.75 13.502 3.75C14.7446 3.75 15.752 4.75736 15.752 6Z" fill="#080809" style="fill:#080809;fill:color(display-p3 0.0314 0.0314 0.0353);fill-opacity:1;"/>
<path d="M9.17593 10.4754C10.4466 9.44222 12.296 9.53172 13.4705 10.6696C14.5482 11.7136 14.7807 13.3672 14.0201 14.6628L12.552 17.1634C12.4277 17.3751 12.4232 17.6364 12.5402 17.8522C12.7154 18.1755 13.1105 18.3084 13.4455 18.1568L13.5237 18.1214C13.7733 18.0085 14.0668 18.1261 14.1692 18.3802L14.2001 18.4569C14.2873 18.6731 14.2317 18.9207 14.0605 19.0789L13.7983 19.3211C12.5701 20.4558 10.6693 20.4333 9.46827 19.2698C8.42218 18.2564 8.20706 16.6581 8.94801 15.4042L10.7222 12.4017C10.8487 12.1876 10.815 11.9151 10.6401 11.7383C10.5078 11.6046 10.3162 11.5481 10.1326 11.5888L9.6674 11.6918C9.43488 11.7433 9.19262 11.6659 9.03299 11.4892C8.77888 11.2078 8.81247 10.771 9.10662 10.5318L9.17593 10.4754Z" fill="#080809" style="fill:#080809;fill:color(display-p3 0.0314 0.0314 0.0353);fill-opacity:1;"/>
</svg>
