<svg width="24" height="24" viewBox="0 0 24 24" fill="none" xmlns="http://www.w3.org/2000/svg">
<path fill-rule="evenodd" clip-rule="evenodd" d="M1.492 11.7973C7.08919 9.35872 10.8215 7.75104 12.689 6.97429C18.0211 4.75651 19.129 4.37126 19.8512 4.35853C20.01 4.35574 20.3651 4.3951 20.5952 4.58176C20.7894 4.73937 20.8428 4.95229 20.8684 5.10172C20.894 5.25115 20.9258 5.59157 20.9005 5.85756C20.6116 8.89353 19.3613 16.261 18.7253 19.6614C18.4561 21.1002 17.9262 21.5826 17.4131 21.6298C16.2981 21.7324 15.4515 20.893 14.3716 20.1851C12.6817 19.0774 11.727 18.3878 10.0868 17.3069C8.19112 16.0577 9.41998 15.3711 10.5003 14.249C10.783 13.9554 15.6957 9.48697 15.7907 9.08161C15.8026 9.03092 15.8137 8.84194 15.7014 8.74216C15.5891 8.64237 15.4234 8.6765 15.3039 8.70363C15.1344 8.7421 12.4348 10.5264 7.2052 14.0566C6.43894 14.5827 5.74489 14.8391 5.12304 14.8257C4.4375 14.8109 3.1188 14.438 2.13848 14.1194C0.936075 13.7285 -0.0195701 13.5219 0.0636451 12.8581C0.106989 12.5124 0.583109 12.1588 1.492 11.7973Z" fill="#080809" style="fill:#080809;fill:color(display-p3 0.0314 0.0314 0.0353);fill-opacity:1;"/>
</svg>
