<svg width="24" height="24" viewBox="0 0 24 24" fill="none" xmlns="http://www.w3.org/2000/svg">
<g clip-path="url(#clip0_29901_26139)">
<path d="M9.4995 4.5C7.84573 4.50027 6.5 5.84617 6.5 7.499C6.5 8.052 6.947 8.499 7.5 8.499C8.053 8.499 8.5 8.052 8.5 7.499C8.5 6.946 8.948 6.5 9.5 6.5C10.052 6.5 10.5 6.948 10.5 7.499C10.5 7.865 10.301 8.201 9.979 8.377C9.04 8.893 8.5 9.669 8.5 10.508C8.5 11.061 8.947 11.512 9.5 11.512C10.053 11.512 10.499 11.068 10.499 10.515C10.512 10.463 10.64 10.295 10.937 10.132C11.901 9.607 12.499 8.598 12.499 7.499C12.499 5.84617 11.1533 4.50027 9.4995 4.5Z" fill="#080809" style="fill:#080809;fill:color(display-p3 0.0314 0.0314 0.0353);fill-opacity:1;"/>
<path d="M9.5 15C10.1904 15 10.75 14.4404 10.75 13.75C10.75 13.0596 10.1904 12.5 9.5 12.5C8.80964 12.5 8.25 13.0596 8.25 13.75C8.25 14.4404 8.80964 15 9.5 15Z" fill="#080809" style="fill:#080809;fill:color(display-p3 0.0314 0.0314 0.0353);fill-opacity:1;"/>
<path fill-rule="evenodd" clip-rule="evenodd" d="M9.5 0.5C4.52944 0.5 0.5 4.52944 0.5 9.5C0.5 10.675 0.725688 11.7997 1.137 12.8315C1.29016 13.2156 1.39204 13.4719 1.4589 13.6646C1.50945 13.8104 1.52264 13.8733 1.52565 13.8876L1.52597 13.8891C1.52521 13.9036 1.52083 13.9471 1.49734 14.0445C1.46381 14.1836 1.40912 14.3646 1.3189 14.661L0.816546 16.3111C0.467046 17.4591 1.54014 18.5323 2.68819 18.183L4.33871 17.6807C4.63501 17.5906 4.81602 17.5359 4.95511 17.5024C5.05251 17.4789 5.09604 17.4745 5.11048 17.4738L5.11199 17.4741C5.12631 17.4771 5.1892 17.4903 5.33492 17.5409C5.52767 17.6077 5.78388 17.7096 6.16799 17.8628C7.19986 18.2742 8.32478 18.5 9.5 18.5C14.4706 18.5 18.5 14.4706 18.5 9.5C18.5 4.52944 14.4706 0.5 9.5 0.5ZM9.5 2.5C5.63401 2.5 2.5 5.63401 2.5 9.5C2.5 10.4172 2.67587 11.2908 2.99481 12.0908L3.00364 12.113C3.14565 12.4692 3.26487 12.7682 3.34849 13.0093C3.42986 13.244 3.5125 13.5176 3.52434 13.7998C3.54246 14.2318 3.40557 14.678 3.26697 15.1298L3.2322 15.2434L3.0029 15.9966L3.75648 15.7673L3.8701 15.7326C4.32185 15.5941 4.76803 15.4573 5.20002 15.4754C5.48213 15.4873 5.75576 15.5699 5.99036 15.6513C6.23149 15.735 6.53044 15.8542 6.88662 15.9962L6.90876 16.005C7.70888 16.3241 8.58268 16.5 9.5 16.5C13.366 16.5 16.5 13.366 16.5 9.5C16.5 5.63401 13.366 2.5 9.5 2.5Z" fill="#080809" style="fill:#080809;fill:color(display-p3 0.0314 0.0314 0.0353);fill-opacity:1;"/>
<path d="M21.8117 9.25131C21.4893 8.80288 20.8645 8.7007 20.416 9.02309C19.9676 9.34547 19.8654 9.97034 20.1878 10.4188C21.0136 11.5675 21.4998 12.9754 21.4998 14.4998C21.4998 15.4169 21.3239 16.2906 21.005 17.0906L20.9961 17.1127C20.8541 17.4689 20.7349 17.7679 20.6513 18.0091C20.5699 18.2437 20.4873 18.5174 20.4754 18.7995C20.4573 19.2316 20.5942 19.6778 20.7328 20.1296L20.7676 20.2432L20.9969 20.9964L20.2433 20.7671L20.1297 20.7324C19.6779 20.5938 19.2317 20.457 18.7997 20.4752C18.5176 20.487 18.244 20.5697 18.0094 20.6511C17.7683 20.7347 17.4693 20.8539 17.1131 20.996L17.091 21.0048C16.2909 21.3238 15.4171 21.4998 14.4998 21.4998C12.9754 21.4998 11.5675 21.0136 10.4188 20.1878C9.97034 19.8654 9.34547 19.9676 9.02309 20.416C8.7007 20.8645 8.80288 21.4893 9.25131 21.8117C10.7289 22.874 12.5427 23.4998 14.4998 23.4998C15.675 23.4998 16.7999 23.274 17.8318 22.8625C18.2159 22.7094 18.4721 22.6075 18.6648 22.5406C18.8106 22.4901 18.8734 22.4769 18.8878 22.4739L18.8893 22.4735C18.9037 22.4743 18.9473 22.4787 19.0446 22.5021C19.1837 22.5357 19.3647 22.5903 19.6611 22.6805L21.3116 23.1827C22.4596 23.5321 23.5327 22.4588 23.1832 21.3108L22.6809 19.6607C22.5906 19.3644 22.536 19.1834 22.5024 19.0443C22.4789 18.9469 22.4746 18.9033 22.4738 18.8889L22.4741 18.8874C22.4771 18.8731 22.4903 18.8102 22.5409 18.6644C22.6077 18.4716 22.7096 18.2154 22.8628 17.8312C23.2741 16.7995 23.4998 15.6748 23.4998 14.4998C23.4998 12.5427 22.874 10.7289 21.8117 9.25131Z" fill="#080809" style="fill:#080809;fill:color(display-p3 0.0314 0.0314 0.0353);fill-opacity:1;"/>
</g>
<defs>
<clipPath id="clip0_29901_26139">
<rect width="24" height="24" fill="white" style="fill:white;fill-opacity:1;"/>
</clipPath>
</defs>
</svg>
