<svg width="24" height="24" viewBox="0 0 24 24" fill="none" xmlns="http://www.w3.org/2000/svg">
<path d="M3.36065 7.836L3.19365 8.836C3.09165 9.446 3.56165 10 4.17965 10H7.45565L6.74765 14H3.34665C2.85765 14 2.44065 14.353 2.36065 14.836L2.19365 15.836C2.09165 16.446 2.56165 17 3.17965 17H6.21565L5.36065 21.826C5.25265 22.439 5.72365 23 6.34565 23H7.36065C7.84565 23 8.26065 22.652 8.34565 22.174L9.26165 17H12.9656L12.1106 21.826C12.0026 22.439 12.4736 23 13.0956 23H14.1106C14.5956 23 15.0106 22.652 15.0956 22.174L16.0116 17H19.6516C20.1406 17 20.5576 16.647 20.6376 16.164L20.8046 15.164C20.9066 14.554 20.4366 14 19.8186 14H16.5426L17.2506 10H20.6516C21.1406 10 21.5576 9.647 21.6376 9.164L21.8046 8.164C21.9066 7.554 21.4366 7 20.8186 7H17.7826L18.6376 2.174C18.7456 1.561 18.2746 1 17.6526 1H16.6376C16.1526 1 15.7376 1.348 15.6526 1.826L14.7366 7H11.0326L11.8876 2.174C11.9956 1.561 11.5246 1 10.9026 1H9.88765C9.40265 1 8.98765 1.348 8.90265 1.826L7.98665 7H4.34665C3.85765 7 3.44065 7.353 3.36065 7.836ZM10.5016 10H14.2056L13.4976 14H9.79365L10.5016 10Z" fill="#080809" style="fill:#080809;fill:color(display-p3 0.0314 0.0314 0.0353);fill-opacity:1;"/>
</svg>
