<svg width="24" height="24" viewBox="0 0 24 24" fill="none" xmlns="http://www.w3.org/2000/svg">
<path d="M10 3C9.44771 3 9 3.44772 9 4C9 4.55228 9.44771 5 10 5H11V6.04938C5.94668 6.5511 2 10.8147 2 16C2 16.5523 2.44772 17 3 17H11V19H2C1.44772 19 1 19.4477 1 20C1 20.5523 1.44772 21 2 21H22C22.5523 21 23 20.5523 23 20C23 19.4477 22.5523 19 22 19H13V17H21C21.5523 17 22 16.5523 22 16C22 10.8147 18.0533 6.5511 13 6.04938V5H14C14.5523 5 15 4.55228 15 4C15 3.44772 14.5523 3 14 3H10Z" fill="#080809" style="fill:#080809;fill:color(display-p3 0.0314 0.0314 0.0353);fill-opacity:1;"/>
</svg>
