<svg width="24" height="24" viewBox="0 0 24 24" fill="none" xmlns="http://www.w3.org/2000/svg">
<path d="M14 4.6222C14 2.39493 11.3071 1.27952 9.73223 2.85443L5.58716 6.99951H3.5C1.84315 6.99951 0.5 8.34265 0.5 9.99951V13.9995C0.5 15.6564 1.84315 16.9995 3.5 16.9995H5.58441L9.73223 21.1473C11.3071 22.7222 14 21.6068 14 19.3796V18.3582L13.9033 18.0967L13.3059 17.8757C12.5211 17.5853 12 16.8369 12 16C12 15.1631 12.5211 14.4147 13.3059 14.1243L13.9033 13.9033L14 13.6418V4.6222Z" fill="#080809" style="fill:#080809;fill:color(display-p3 0.0314 0.0314 0.0353);fill-opacity:1;"/>
<path d="M20.4379 4.65296C20.2926 4.26053 19.9184 4 19.5 4C19.0816 4 18.7074 4.26053 18.5621 4.65296L17.7764 6.7764L15.653 7.56215C15.2605 7.70736 15 8.08156 15 8.5C15 8.91844 15.2605 9.29264 15.653 9.43785L17.7764 10.2236L18.5621 12.347C18.7074 12.7395 19.0816 13 19.5 13C19.9184 13 20.2926 12.7395 20.4379 12.347L21.2236 10.2236L23.347 9.43785C23.7395 9.29264 24 8.91844 24 8.5C24 8.08156 23.7395 7.70736 23.347 7.56215L21.2236 6.7764L20.4379 4.65296Z" fill="#080809" style="fill:#080809;fill:color(display-p3 0.0314 0.0314 0.0353);fill-opacity:1;"/>
<path d="M16.5862 13.7831C16.4954 13.5378 16.2615 13.375 16 13.375C15.7385 13.375 15.5046 13.5378 15.4138 13.7831L14.9734 14.9734L13.7831 15.4138C13.5378 15.5046 13.375 15.7385 13.375 16C13.375 16.2615 13.5378 16.4954 13.7831 16.5862L14.9734 17.0266L15.4138 18.2169C15.5046 18.4622 15.7385 18.625 16 18.625C16.2615 18.625 16.4954 18.4622 16.5862 18.2169L17.0266 17.0266L18.2169 16.5862C18.4622 16.4954 18.625 16.2615 18.625 16C18.625 15.7385 18.4622 15.5046 18.2169 15.4138L17.0266 14.9734L16.5862 13.7831Z" fill="#080809" style="fill:#080809;fill:color(display-p3 0.0314 0.0314 0.0353);fill-opacity:1;"/>
</svg>
