<svg width="24" height="24" viewBox="0 0 24 24" fill="none" xmlns="http://www.w3.org/2000/svg">
<path d="M3 4C2.44772 4 2 4.44772 2 5C2 5.55228 2.44772 6 3 6L21 6C21.5523 6 22 5.55229 22 5C22 4.44772 21.5523 4 21 4L3 4Z" fill="#080809" style="fill:#080809;fill:color(display-p3 0.0314 0.0314 0.0353);fill-opacity:1;"/>
<path d="M3 20L9.5 20C10.0523 20 10.5 19.5523 10.5 19C10.5 18.4477 10.0523 18 9.5 18L3 18C2.44771 18 2 18.4477 2 19C2 19.5523 2.44772 20 3 20Z" fill="#080809" style="fill:#080809;fill:color(display-p3 0.0314 0.0314 0.0353);fill-opacity:1;"/>
<path d="M9.5 13L3 13C2.44772 13 2 12.5523 2 12C2 11.4477 2.44771 11 3 11L9.5 11C10.0523 11 10.5 11.4477 10.5 12C10.5 12.5523 10.0523 13 9.5 13Z" fill="#080809" style="fill:#080809;fill:color(display-p3 0.0314 0.0314 0.0353);fill-opacity:1;"/>
<path fill-rule="evenodd" clip-rule="evenodd" d="M16.4075 11.3091L16.7188 10.4789C16.8285 10.1861 17.1084 9.99219 17.421 9.99219H18.5809C18.8936 9.99219 19.1735 10.1861 19.2832 10.4789L19.6047 11.3364C19.7928 11.8382 20.3007 12.1453 20.8324 12.0788L21.6651 11.9747C21.947 11.9395 22.2246 12.0665 22.3822 12.3029L22.9378 13.1365C23.1106 13.3958 23.1051 13.7348 22.9241 13.9884L22.3306 14.8194C22.0432 15.2219 22.0432 15.7625 22.3306 16.165L22.9241 16.996C23.1051 17.2495 23.1106 17.5886 22.9378 17.8478L22.3822 18.6814C22.2246 18.9178 21.947 19.0449 21.6651 19.0097L20.8324 18.9056C20.3007 18.8391 19.7928 19.1462 19.6047 19.6479L19.2832 20.5055C19.1735 20.7982 18.8936 20.9922 18.5809 20.9922H17.421C17.1084 20.9922 16.8285 20.7982 16.7188 20.5055L16.4075 19.6752C16.2147 19.161 15.6872 18.853 15.1446 18.9378L14.3606 19.0603C14.0667 19.1063 13.7734 18.9741 13.613 18.7236L13.0505 17.8445C12.8854 17.5864 12.8939 17.2537 13.0719 17.0044L13.6625 16.1774C13.9542 15.7689 13.9495 15.2189 13.6507 14.8155L13.0789 14.0434C12.8966 13.7973 12.8823 13.465 13.0429 13.2041L13.6154 12.2735C13.7738 12.016 14.0713 11.8788 14.37 11.9255L15.1446 12.0466C15.6872 12.1314 16.2147 11.8233 16.4075 11.3091ZM19.9996 15.5C19.9996 16.6046 19.1047 17.5 18.0008 17.5C16.8968 17.5 16.002 16.6046 16.002 15.5C16.002 14.3954 16.8968 13.5 18.0008 13.5C19.1047 13.5 19.9996 14.3954 19.9996 15.5Z" fill="#080809" style="fill:#080809;fill:color(display-p3 0.0314 0.0314 0.0353);fill-opacity:1;"/>
</svg>
