<svg width="24" height="24" viewBox="0 0 24 24" fill="none" xmlns="http://www.w3.org/2000/svg">
<g clip-path="url(#clip0_29901_27802)">
<path d="M5.1806 5.75C6.87249 3.9049 9.30192 2.75 12 2.75C17.1086 2.75 21.25 6.89137 21.25 12C21.25 14.5885 20.1884 16.9268 18.4736 18.6072C17.9805 19.0904 17.9725 19.8818 18.4557 20.3749C18.9389 20.868 19.7303 20.876 20.2233 20.3928C22.3982 18.2616 23.75 15.2875 23.75 12C23.75 5.51065 18.4893 0.25 12 0.25C8.52321 0.25 5.4003 1.76034 3.25 4.15791V3C3.25 2.30964 2.69036 1.75 2 1.75C1.30964 1.75 0.75 2.30964 0.75 3V6.5C0.75 7.4665 1.5335 8.25 2.5 8.25H2.74193C2.75636 8.25025 2.77076 8.25025 2.78516 8.25H6C6.69036 8.25 7.25 7.69036 7.25 7C7.25 6.30964 6.69036 5.75 6 5.75H5.1806Z" fill="#080809" style="fill:#080809;fill:color(display-p3 0.0314 0.0314 0.0353);fill-opacity:1;"/>
<path d="M2.75 12C2.75 11.3096 2.19036 10.75 1.5 10.75C0.809644 10.75 0.25 11.3096 0.25 12C0.25 12.3766 0.267758 12.7494 0.302542 13.1176C0.367476 13.8049 0.977278 14.3094 1.66457 14.2445C2.35187 14.1795 2.85639 13.5697 2.79146 12.8824C2.76405 12.5923 2.75 12.298 2.75 12Z" fill="#080809" style="fill:#080809;fill:color(display-p3 0.0314 0.0314 0.0353);fill-opacity:1;"/>
<path d="M3.86336 16.4039C3.53415 15.7971 2.77535 15.5721 2.16855 15.9013C1.56175 16.2305 1.33672 16.9893 1.66594 17.5961C2.22838 18.6328 2.94189 19.5748 3.77668 20.3928C4.26976 20.876 5.06118 20.868 5.54436 20.3749C6.02754 19.8818 6.01951 19.0904 5.52643 18.6072C4.86807 17.9621 4.30597 17.2197 3.86336 16.4039Z" fill="#080809" style="fill:#080809;fill:color(display-p3 0.0314 0.0314 0.0353);fill-opacity:1;"/>
<path d="M9.35656 20.8671C8.69489 20.6702 7.99886 21.0469 7.80193 21.7086C7.60501 22.3703 7.98176 23.0663 8.64344 23.2632C9.70849 23.5802 10.8355 23.75 12 23.75C13.1645 23.75 14.2915 23.5802 15.3566 23.2632C16.0182 23.0663 16.395 22.3703 16.1981 21.7086C16.0011 21.0469 15.3051 20.6702 14.6434 20.8671C13.8074 21.1159 12.9204 21.25 12 21.25C11.0796 21.25 10.1926 21.1159 9.35656 20.8671Z" fill="#080809" style="fill:#080809;fill:color(display-p3 0.0314 0.0314 0.0353);fill-opacity:1;"/>
<path d="M12 5.75C12.6904 5.75 13.25 6.30964 13.25 7V11.4822L15.8839 14.1161C16.372 14.6043 16.372 15.3957 15.8839 15.8839C15.3957 16.372 14.6043 16.372 14.1161 15.8839L11.1161 12.8839C10.8817 12.6495 10.75 12.3315 10.75 12V7C10.75 6.30964 11.3096 5.75 12 5.75Z" fill="#080809" style="fill:#080809;fill:color(display-p3 0.0314 0.0314 0.0353);fill-opacity:1;"/>
</g>
<defs>
<clipPath id="clip0_29901_27802">
<rect width="24" height="24" fill="white" style="fill:white;fill-opacity:1;"/>
</clipPath>
</defs>
</svg>
