<svg width="24" height="24" viewBox="0 0 24 24" fill="none" xmlns="http://www.w3.org/2000/svg">
<path d="M14 4.6222C14 2.39493 11.3071 1.27952 9.73223 2.85443L5.58716 6.99951H3.5C1.84315 6.99951 0.5 8.34265 0.5 9.99951V13.9995C0.5 15.6564 1.84315 16.9995 3.5 16.9995H5.58441L9.73223 21.1473C11.3071 22.7222 14 21.6068 14 19.3796V4.6222Z" fill="#080809" style="fill:#080809;fill:color(display-p3 0.0314 0.0314 0.0353);fill-opacity:1;"/>
<path d="M23.2071 8.79289C23.5976 9.18342 23.5976 9.81658 23.2071 10.2071L21.4142 12L23.2071 13.7929C23.5976 14.1834 23.5976 14.8166 23.2071 15.2071C22.8166 15.5976 22.1834 15.5976 21.7929 15.2071L20 13.4142L18.2071 15.2071C17.8166 15.5976 17.1834 15.5976 16.7929 15.2071C16.4024 14.8166 16.4024 14.1834 16.7929 13.7929L18.5858 12L16.7929 10.2071C16.4024 9.81658 16.4024 9.18342 16.7929 8.79289C17.1834 8.40237 17.8166 8.40237 18.2071 8.79289L20 10.5858L21.7929 8.79289C22.1834 8.40237 22.8166 8.40237 23.2071 8.79289Z" fill="#080809" style="fill:#080809;fill:color(display-p3 0.0314 0.0314 0.0353);fill-opacity:1;"/>
</svg>
