<svg width="24" height="24" viewBox="0 0 24 24" fill="none" xmlns="http://www.w3.org/2000/svg">
<path d="M3 4C3 3.44772 3.44772 3 4 3H12C12.2543 3 12.4843 3.09361 12.6612 3.24974C13.0752 3.6152 13.7072 3.5758 14.0727 3.16173C14.4381 2.74766 14.3987 2.11573 13.9846 1.75026C13.4564 1.28402 12.7602 1 12 1H4C2.34315 1 1 2.34315 1 4V16C1 17.6569 2.34315 19 4 19H6.5C7.05229 19 7.5 18.5523 7.5 18C7.5 17.4477 7.05229 17 6.5 17H4C3.44772 17 3 16.5523 3 16V4Z" fill="#080809" style="fill:#080809;fill:color(display-p3 0.0314 0.0314 0.0353);fill-opacity:1;"/>
<path d="M6.24939 9C6.93974 9 7.49939 8.44036 7.49939 7.75C7.49939 7.05964 6.93974 6.5 6.24939 6.5C5.55903 6.5 4.99939 7.05964 4.99939 7.75C4.99939 8.44036 5.55903 9 6.24939 9Z" fill="#080809" style="fill:#080809;fill:color(display-p3 0.0314 0.0314 0.0353);fill-opacity:1;"/>
<path fill-rule="evenodd" clip-rule="evenodd" d="M6.20552 11.2929C5.81499 10.9024 5.18183 10.9024 4.7913 11.2929C4.40078 11.6834 4.40078 12.3166 4.7913 12.7071C5.95038 13.8662 7.48413 14.4227 9.00066 14.3782V20C9.00066 21.6569 10.3438 23 12.0007 23H20.0007C21.6575 23 23.0007 21.6569 23.0007 20V8C23.0007 6.34315 21.6575 5 20.0007 5H12.0007C10.3438 5 9.00066 6.34315 9.00066 8V12.3769C7.99295 12.4226 6.97329 12.0607 6.20552 11.2929ZM15.9997 10.5002C16.552 10.5002 16.9997 10.9479 16.9997 11.5002V13.0002H18.4997C19.052 13.0002 19.4997 13.4479 19.4997 14.0002C19.4997 14.5524 19.052 15.0002 18.4997 15.0002H16.9997V16.5002C16.9997 17.0524 16.552 17.5002 15.9997 17.5002C15.4474 17.5002 14.9997 17.0524 14.9997 16.5002V15.0002H13.4997C12.9474 15.0002 12.4997 14.5524 12.4997 14.0002C12.4997 13.4479 12.9474 13.0002 13.4997 13.0002H14.9997V11.5002C14.9997 10.9479 15.4474 10.5002 15.9997 10.5002Z" fill="#080809" style="fill:#080809;fill:color(display-p3 0.0314 0.0314 0.0353);fill-opacity:1;"/>
</svg>
