<svg width="24" height="24" viewBox="0 0 24 24" fill="none" xmlns="http://www.w3.org/2000/svg">
<path d="M11 18C10.4477 18 10 18.4477 10 19C10 19.5523 10.4477 20 11 20H13C13.5523 20 14 19.5523 14 19C14 18.4477 13.5523 18 13 18H11Z" fill="#080809" style="fill:#080809;fill:color(display-p3 0.0314 0.0314 0.0353);fill-opacity:1;"/>
<path fill-rule="evenodd" clip-rule="evenodd" d="M13.0706 0.500001H10.9294C9.57533 0.499967 8.45869 0.499939 7.57494 0.618756C6.64711 0.743499 5.82769 1.01547 5.17158 1.67158C4.51547 2.32769 4.2435 3.14711 4.11876 4.07494C3.99994 4.95869 3.99997 6.07529 4 7.4294V16.5706C3.99997 17.9247 3.99994 19.0413 4.11876 19.9251C4.2435 20.8529 4.51547 21.6723 5.17158 22.3284C5.82769 22.9845 6.64711 23.2565 7.57494 23.3813C8.4587 23.5001 9.57531 23.5 10.9294 23.5H13.0705C14.4247 23.5 15.5413 23.5001 16.4251 23.3813C17.3529 23.2565 18.1723 22.9845 18.8284 22.3284C19.4845 21.6723 19.7565 20.8529 19.8813 19.9251C20.0001 19.0413 20 17.9247 20 16.5707V7.42943C20 6.07534 20.0001 4.95868 19.8813 4.07494C19.7565 3.14711 19.4845 2.32769 18.8284 1.67158C18.1723 1.01547 17.3529 0.743499 16.4251 0.618756C15.5413 0.499939 14.4247 0.499967 13.0706 0.500001ZM6.58579 3.08579C6.80836 2.86322 7.13538 2.69585 7.84144 2.60092C8.57626 2.50213 9.55752 2.5 11 2.5H13C14.4425 2.5 15.4238 2.50213 16.1586 2.60092C16.8646 2.69585 17.1916 2.86322 17.4142 3.08579C17.6368 3.30836 17.8042 3.63538 17.8991 4.34144C17.9979 5.07626 18 6.05752 18 7.5V16.5C18 17.9425 17.9979 18.9238 17.8991 19.6586C17.8042 20.3646 17.6368 20.6916 17.4142 20.9142C17.1916 21.1368 16.8646 21.3042 16.1586 21.3991C15.4238 21.4979 14.4425 21.5 13 21.5H11C9.55752 21.5 8.57626 21.4979 7.84144 21.3991C7.13538 21.3042 6.80836 21.1368 6.58579 20.9142C6.36322 20.6916 6.19585 20.3646 6.10092 19.6586C6.00213 18.9238 6 17.9425 6 16.5V7.5C6 6.05752 6.00213 5.07626 6.10092 4.34144C6.19585 3.63538 6.36322 3.30836 6.58579 3.08579Z" fill="#080809" style="fill:#080809;fill:color(display-p3 0.0314 0.0314 0.0353);fill-opacity:1;"/>
</svg>
