<svg width="24" height="24" viewBox="0 0 24 24" fill="none" xmlns="http://www.w3.org/2000/svg">
<path fill-rule="evenodd" clip-rule="evenodd" d="M16 0.5C16.5523 0.5 17 0.947715 17 1.5C17 2.05228 16.5523 2.5 16 2.5C15.0399 2.5 14.3207 2.8737 13.8259 3.45844C13.3939 3.96894 13.1002 4.6826 13.0213 5.53312C13.1708 5.46908 13.3115 5.38984 13.4394 5.29539C14.9074 4.2115 16.669 3.69582 18.4137 4.18374C20.3736 4.73187 21.7268 6.37812 22.4218 8.37194C23.1199 10.3749 23.2056 12.8413 22.5706 15.315C21.9357 17.788 20.6781 19.8868 19.1039 21.2659C17.533 22.6421 15.5539 23.3658 13.5863 22.8155C13.1036 22.6805 12.6529 22.4764 12.2383 22.2138C12.1006 22.1266 11.8994 22.1266 11.7617 22.2138C11.347 22.4764 10.8964 22.6805 10.4137 22.8155C8.44602 23.3658 6.46699 22.6421 4.89612 21.2659C3.32184 19.8868 2.06429 17.788 1.4294 15.315C0.794361 12.8413 0.880055 10.3749 1.57821 8.37194C2.2732 6.37812 3.62638 4.73187 5.5863 4.18374C7.33096 3.69582 9.09258 4.2115 10.5605 5.29539C10.6986 5.39732 10.8516 5.48153 11.0143 5.54803C11.0957 4.27351 11.524 3.08265 12.2991 2.16656C13.1793 1.1263 14.4601 0.5 16 0.5ZM9 12C9.55229 12 10 12.4477 10 13V14C10 14.5523 9.55229 15 9 15C8.44772 15 8 14.5523 8 14V13C8 12.4477 8.44772 12 9 12ZM16 13C16 12.4477 15.5523 12 15 12C14.4477 12 14 12.4477 14 13V14C14 14.5523 14.4477 15 15 15C15.5523 15 16 14.5523 16 14V13Z" fill="#080809" style="fill:#080809;fill:color(display-p3 0.0314 0.0314 0.0353);fill-opacity:1;"/>
</svg>
