<svg width="24" height="24" viewBox="0 0 24 24" fill="none" xmlns="http://www.w3.org/2000/svg">
<g clip-path="url(#clip0_29901_26138)">
<path fill-rule="evenodd" clip-rule="evenodd" d="M9.5 2.5C5.63401 2.5 2.5 5.63401 2.5 9.5C2.5 10.4172 2.67587 11.2908 2.99481 12.0908L3.00363 12.1129C3.14566 12.4692 3.26486 12.7682 3.34849 13.0093C3.42987 13.244 3.5125 13.5176 3.52434 13.7998C3.54246 14.2318 3.40557 14.678 3.26697 15.1298C3.25536 15.1677 3.24374 15.2055 3.2322 15.2434L3.0029 15.9966L3.75648 15.7673C3.79439 15.7558 3.83226 15.7442 3.8701 15.7326C4.32185 15.5941 4.76803 15.4573 5.20002 15.4754C5.48213 15.4873 5.75576 15.5699 5.99036 15.6513C6.23149 15.735 6.53044 15.8542 6.88662 15.9962L6.90876 16.005C7.70888 16.3241 8.58268 16.5 9.5 16.5C13.366 16.5 16.5 13.366 16.5 9.5C16.5 5.63401 13.366 2.5 9.5 2.5ZM0.5 9.5C0.5 4.52944 4.52944 0.5 9.5 0.5C14.4706 0.5 18.5 4.52944 18.5 9.5C18.5 14.4706 14.4706 18.5 9.5 18.5C8.32478 18.5 7.19986 18.2742 6.16799 17.8628C5.78388 17.7096 5.52767 17.6077 5.33492 17.5409C5.18326 17.4883 5.12133 17.4761 5.11048 17.4738C5.09603 17.4745 5.05251 17.4789 4.95511 17.5024C4.81602 17.5359 4.63501 17.5906 4.3387 17.6807L2.68819 18.183C1.54014 18.5323 0.467046 17.4591 0.816546 16.3111L1.3189 14.661C1.40912 14.3646 1.46381 14.1836 1.49734 14.0445C1.52083 13.9471 1.52521 13.9036 1.52597 13.8891C1.52365 13.8783 1.5115 13.8163 1.4589 13.6646C1.39204 13.4719 1.29016 13.2156 1.137 12.8315C0.725688 11.7997 0.5 10.675 0.5 9.5ZM5.11632 17.4737C5.11631 17.4737 5.1162 17.4737 5.11601 17.4737Z" fill="#080809" style="fill:#080809;fill:color(display-p3 0.0314 0.0314 0.0353);fill-opacity:1;"/>
<path fill-rule="evenodd" clip-rule="evenodd" d="M20.416 9.02333C20.8645 8.70095 21.4893 8.80313 21.8117 9.25155C22.874 10.7291 23.4998 12.543 23.4998 14.5C23.4998 15.675 23.2741 16.7997 22.8628 17.8315C22.7096 18.2156 22.6077 18.4719 22.5409 18.6646C22.4883 18.8163 22.4761 18.8783 22.4738 18.8891C22.4746 18.9036 22.4789 18.9471 22.5024 19.0445C22.536 19.1836 22.5906 19.3646 22.6809 19.661L23.1832 21.3111C23.5327 22.4591 22.4596 23.5323 21.3116 23.183L19.6611 22.6807C19.3647 22.5906 19.1837 22.5359 19.0446 22.5024C18.9473 22.4789 18.9037 22.4745 18.8893 22.4738C18.8784 22.4761 18.8165 22.4883 18.6648 22.5409C18.4721 22.6077 18.2159 22.7096 17.8318 22.8628C16.7999 23.2742 15.675 23.5 14.4998 23.5C12.5427 23.5 10.7289 22.8742 9.25131 21.812C8.80288 21.4896 8.7007 20.8647 9.02309 20.4163C9.34547 19.9679 9.97034 19.8657 10.4188 20.1881C11.5675 21.0139 12.9754 21.5 14.4998 21.5C15.4171 21.5 16.2909 21.3241 17.091 21.005L17.1131 20.9962C17.4693 20.8542 17.7683 20.735 18.0094 20.6513C18.244 20.5699 18.5176 20.4873 18.7997 20.4754C19.2317 20.4573 19.6779 20.5941 20.1297 20.7326C20.1675 20.7442 20.2054 20.7558 20.2433 20.7673L20.9969 20.9967L20.7676 20.2435C20.756 20.2055 20.7444 20.1677 20.7328 20.1298C20.5942 19.678 20.4573 19.2318 20.4754 18.7998C20.4873 18.5176 20.5699 18.244 20.6513 18.0093C20.7349 17.7682 20.8541 17.4692 20.9961 17.1129L21.005 17.0908C21.3239 16.2908 21.4998 15.4172 21.4998 14.5C21.4998 12.9756 21.0136 11.5677 20.1878 10.419C19.8654 9.97058 19.9676 9.34571 20.416 9.02333Z" fill="#080809" style="fill:#080809;fill:color(display-p3 0.0314 0.0314 0.0353);fill-opacity:1;"/>
</g>
<defs>
<clipPath id="clip0_29901_26138">
<rect width="24" height="24" fill="white" style="fill:white;fill-opacity:1;"/>
</clipPath>
</defs>
</svg>
