<svg width="24" height="24" viewBox="0 0 24 24" fill="none" xmlns="http://www.w3.org/2000/svg">
<g clip-path="url(#clip0_29901_26040)">
<path fill-rule="evenodd" clip-rule="evenodd" d="M21.6411 5.62546C22.4908 3.56564 20.4299 1.50483 18.3701 2.35451L14.0272 4.14592L10.4506 1.1002C8.75409 -0.344413 6.15727 0.978711 6.32886 3.20028L6.69061 7.88406L2.68866 10.3445C0.790488 11.5114 1.24641 14.39 3.41231 14.9133L7.97871 16.0166L9.08205 20.583C9.60537 22.7488 12.484 23.2047 13.651 21.3066L16.1114 17.3047L20.7953 17.6665C23.0169 17.838 24.34 15.2413 22.8954 13.5448L19.8496 9.9682L21.6411 5.62546ZM19.1343 4.20707C19.5462 4.03714 19.9584 4.4493 19.7885 4.86126L17.7636 9.76978C17.6204 10.1171 17.6834 10.5154 17.927 10.8015L21.3696 14.8441C21.6585 15.1834 21.3939 15.7027 20.9496 15.6684L15.6555 15.2595C15.2809 15.2306 14.9216 15.4137 14.7248 15.7338L11.9438 20.257C11.7104 20.6367 11.1347 20.5455 11.03 20.1123L9.78293 14.9511C9.69468 14.5859 9.40952 14.3007 9.04428 14.2124L3.88298 12.9654C3.4498 12.8607 3.35862 12.285 3.73825 12.0516L8.26157 9.27067C8.58166 9.07388 8.76474 8.71456 8.73581 8.33994L8.32693 3.04596C8.29261 2.60165 8.81197 2.33702 9.15127 2.62595L13.1939 6.06846C13.48 6.31206 13.8783 6.37515 14.2257 6.23187L19.1343 4.20707Z" fill="#080809" style="fill:#080809;fill:color(display-p3 0.0314 0.0314 0.0353);fill-opacity:1;"/>
<path d="M2.20711 16.293C2.59763 16.6835 2.59763 17.3167 2.20711 17.7072L1.70711 18.2072C1.31658 18.5977 0.683417 18.5977 0.292893 18.2072C-0.0976311 17.8167 -0.0976311 17.1835 0.292893 16.793L0.792893 16.293C1.18342 15.9024 1.81658 15.9024 2.20711 16.293Z" fill="#080809" style="fill:#080809;fill:color(display-p3 0.0314 0.0314 0.0353);fill-opacity:1;"/>
<path d="M5.70711 19.7072C6.09763 19.3167 6.09763 18.6835 5.70711 18.293C5.31658 17.9024 4.68342 17.9024 4.29289 18.293L0.79292 21.7929C0.402395 22.1835 0.402395 22.8166 0.79292 23.2072C1.18344 23.5977 1.81661 23.5977 2.20713 23.2072L5.70711 19.7072Z" fill="#080809" style="fill:#080809;fill:color(display-p3 0.0314 0.0314 0.0353);fill-opacity:1;"/>
<path d="M7.70711 23.2072C8.09763 22.8167 8.09763 22.1835 7.70711 21.793C7.31658 21.4024 6.68342 21.4024 6.29289 21.793L5.79289 22.293C5.40237 22.6835 5.40237 23.3167 5.79289 23.7072C6.18342 24.0977 6.81658 24.0977 7.20711 23.7072L7.70711 23.2072Z" fill="#080809" style="fill:#080809;fill:color(display-p3 0.0314 0.0314 0.0353);fill-opacity:1;"/>
</g>
<defs>
<clipPath id="clip0_29901_26040">
<rect width="24" height="24" fill="white" style="fill:white;fill-opacity:1;"/>
</clipPath>
</defs>
</svg>
