<svg width="24" height="24" viewBox="0 0 24 24" fill="none" xmlns="http://www.w3.org/2000/svg">
<path fill-rule="evenodd" clip-rule="evenodd" d="M12.5 9.5C14.1569 9.5 15.5 10.8431 15.5 12.5V17C15.5 18.3057 14.6645 19.413 13.5 19.8252V21.5H14C14.5523 21.5 15 21.9477 15 22.5C15 23.0523 14.5523 23.5 14 23.5H11C10.4477 23.5 10 23.0523 10 22.5C10 21.9477 10.4477 21.5 11 21.5H11.5V19.8252C10.3355 19.413 9.5 18.3057 9.5 17V12.5C9.5 10.8431 10.8431 9.5 12.5 9.5ZM12.5 11.5C11.9477 11.5 11.5 11.9477 11.5 12.5V17C11.5 17.5523 11.9477 18 12.5 18C13.0523 18 13.5 17.5523 13.5 17V12.5C13.5 11.9477 13.0523 11.5 12.5 11.5Z" fill="#080809" style="fill:#080809;fill:color(display-p3 0.0314 0.0314 0.0353);fill-opacity:1;"/>
<path d="M12.5 0.5C18.8513 0.5 24 5.64873 24 12C24 15.9088 22.0491 19.3621 19.0723 21.4385C18.6194 21.7544 17.9957 21.6432 17.6797 21.1904C17.3638 20.7375 17.4749 20.1138 17.9277 19.7979C20.3913 18.0794 22 15.2274 22 12C22 6.75329 17.7467 2.5 12.5 2.5C7.25329 2.5 3 6.75329 3 12C3 15.1267 4.50948 17.9012 6.84375 19.6338L7.07227 19.7979L7.15332 19.8604C7.53752 20.1909 7.6165 20.7658 7.32031 21.1904C7.02403 21.615 6.45749 21.7387 6.01465 21.4922L5.92773 21.4385L5.65137 21.2393C2.83077 19.1452 1 15.7864 1 12C1 5.64873 6.14873 0.5 12.5 0.5Z" fill="#080809" style="fill:#080809;fill:color(display-p3 0.0314 0.0314 0.0353);fill-opacity:1;"/>
<path d="M12.5 5C16.366 5 19.5 8.13401 19.5 12C19.5 12.5523 19.0523 13 18.5 13C17.9477 13 17.5 12.5523 17.5 12C17.5 9.23858 15.2614 7 12.5 7C9.73858 7 7.5 9.23858 7.5 12C7.5 12.5523 7.05228 13 6.5 13C5.94772 13 5.5 12.5523 5.5 12C5.5 8.13401 8.63401 5 12.5 5Z" fill="#080809" style="fill:#080809;fill:color(display-p3 0.0314 0.0314 0.0353);fill-opacity:1;"/>
</svg>
