<svg width="24" height="24" viewBox="0 0 24 24" fill="none" xmlns="http://www.w3.org/2000/svg">
<g clip-path="url(#clip0_29901_28510)">
<path fill-rule="evenodd" clip-rule="evenodd" d="M22.8115 2.02335L18.3115 0.549663C18.1093 0.483446 17.8913 0.483446 17.6891 0.549663L13.1891 2.02335C12.7782 2.15791 12.5003 2.54131 12.5003 2.97368V7.57895C12.5003 10.5895 14.9795 13 18.0003 13C21.0211 13 23.5003 10.5895 23.5003 7.57895V2.97368C23.5003 2.54131 23.2224 2.15791 22.8115 2.02335ZM18.462 4.14137C18.3844 3.95489 18.2023 3.83338 18.0003 3.83338C17.7984 3.83338 17.6162 3.95489 17.5387 4.14137L16.9506 5.55524L15.4242 5.67761C15.2229 5.69375 15.0511 5.82942 14.9886 6.0215C14.9262 6.21358 14.9855 6.42435 15.1389 6.55574L16.3018 7.55192L15.9465 9.04142C15.8997 9.23787 15.9756 9.44323 16.139 9.56194C16.3024 9.68065 16.5212 9.68941 16.6935 9.58413L18.0003 8.78594L19.3071 9.58413C19.4795 9.68941 19.6982 9.68065 19.8616 9.56194C20.025 9.44323 20.101 9.23787 20.0541 9.04142L19.6988 7.55192L20.8617 6.55574C21.0151 6.42435 21.0744 6.21358 21.012 6.0215C20.9496 5.82942 20.7777 5.69375 20.5764 5.67761L19.05 5.55524L18.462 4.14137Z" fill="#080809" style="fill:#080809;fill:color(display-p3 0.0314 0.0314 0.0353);fill-opacity:1;"/>
<path d="M9.47076 0.779197C9.82056 0.70066 10.1856 0.815385 10.4276 1.0799C10.6696 1.34441 10.7515 1.71823 10.6423 2.05968C10.5496 2.34936 10.4999 2.6567 10.4999 2.97362V7.57888C10.4999 11.7284 13.9093 14.9999 17.9999 14.9999C19.2959 14.9999 20.5241 14.6712 21.5981 14.0893C21.9533 13.8968 22.3893 13.937 22.7034 14.191C23.0175 14.4451 23.1479 14.8632 23.0338 15.2507C22.8203 15.9766 22.5371 16.6725 22.1922 17.3308C22.105 17.4972 22.092 17.6558 22.1233 17.7765L23.0047 21.1762C23.2918 22.2835 22.2835 23.2917 21.1762 23.0046L17.7765 22.1232C17.6559 22.0919 17.4973 22.105 17.3308 22.1922C15.7363 23.0277 13.9218 23.4999 12 23.4999C5.64873 23.4999 0.5 18.3512 0.5 11.9999C0.5 6.51672 4.33654 1.93193 9.47076 0.779197Z" fill="#080809" style="fill:#080809;fill:color(display-p3 0.0314 0.0314 0.0353);fill-opacity:1;"/>
</g>
<defs>
<clipPath id="clip0_29901_28510">
<rect width="24" height="24" fill="white" style="fill:white;fill-opacity:1;"/>
</clipPath>
</defs>
</svg>
