<svg width="24" height="24" viewBox="0 0 24 24" fill="none" xmlns="http://www.w3.org/2000/svg">
<path d="M8 7C8.82843 7 9.5 6.32843 9.5 5.5C9.5 4.67157 8.82843 4 8 4C7.17157 4 6.5 4.67157 6.5 5.5C6.5 6.32843 7.17157 7 8 7Z" fill="#080809" style="fill:#080809;fill:color(display-p3 0.0314 0.0314 0.0353);fill-opacity:1;"/>
<path fill-rule="evenodd" clip-rule="evenodd" d="M3 3.5C3 1.84315 4.34315 0.5 6 0.5H18.5C19.8807 0.5 21 1.61929 21 3V18.5C21 19.0523 20.5523 19.5 20 19.5H19.5V21.5H20C20.5523 21.5 21 21.9477 21 22.5C21 23.0523 20.5523 23.5 20 23.5H6C4.34315 23.5 3 22.1569 3 20.5V3.5ZM19 10.0856L17.7677 8.85333C16.7914 7.87702 15.2085 7.87702 14.2322 8.85333L10.4998 12.5857L9.90025 11.9861C8.85071 10.9366 7.14908 10.9366 6.09955 11.9861L5 13.0857V3.5C5 2.94772 5.44772 2.5 6 2.5H18.5C18.7761 2.5 19 2.72386 19 3V10.0856ZM17.5 19.5H6C5.44772 19.5 5 19.9477 5 20.5C5 21.0523 5.44772 21.5 6 21.5H17.5V19.5Z" fill="#080809" style="fill:#080809;fill:color(display-p3 0.0314 0.0314 0.0353);fill-opacity:1;"/>
</svg>
