<svg width="24" height="24" viewBox="0 0 24 24" fill="none" xmlns="http://www.w3.org/2000/svg">
<path fill-rule="evenodd" clip-rule="evenodd" d="M7.5 4C3.63401 4 0.5 7.13401 0.5 11V13C0.5 16.866 3.63401 20 7.5 20H16.5C20.366 20 23.5 16.866 23.5 13V11C23.5 7.13401 20.366 4 16.5 4H7.5ZM8 8C8.55229 8 9 8.44772 9 9V11H11C11.5523 11 12 11.4477 12 12C12 12.5523 11.5523 13 11 13H9V15C9 15.5523 8.55229 16 8 16C7.44772 16 7 15.5523 7 15V13H5C4.44772 13 4 12.5523 4 12C4 11.4477 4.44772 11 5 11H7V9C7 8.44772 7.44772 8 8 8ZM16 10C16 10.8284 16.6716 11.5 17.5 11.5C18.3284 11.5 19 10.8284 19 10C19 9.17157 18.3284 8.5 17.5 8.5C16.6716 8.5 16 9.17157 16 10ZM15.5 15.5C14.6716 15.5 14 14.8284 14 14C14 13.1716 14.6716 12.5 15.5 12.5C16.3284 12.5 17 13.1716 17 14C17 14.8284 16.3284 15.5 15.5 15.5Z" fill="#080809" style="fill:#080809;fill:color(display-p3 0.0314 0.0314 0.0353);fill-opacity:1;"/>
</svg>
