<svg width="24" height="24" viewBox="0 0 24 24" fill="none" xmlns="http://www.w3.org/2000/svg">
<path d="M8.91484 0.250002H11.0852C12.4267 0.249949 13.5578 0.249904 14.4584 0.370986C15.4139 0.499457 16.2949 0.784499 17.0052 1.4948C18.031 2.52063 18.1859 3.92765 18.2321 5.46236C18.2529 6.1524 17.7104 6.72865 17.0203 6.74944C16.3303 6.77023 15.754 6.22769 15.7332 5.53765C15.6859 3.96546 15.4942 3.51934 15.2374 3.26257C15.0691 3.09419 14.8036 2.93989 14.1253 2.84869C13.411 2.75266 12.4496 2.75 11 2.75H9C7.55045 2.75 6.58904 2.75266 5.87475 2.84869C5.19642 2.93989 4.93095 3.09419 4.76257 3.26257C4.59419 3.43095 4.43989 3.69642 4.34869 4.37475C4.25266 5.08904 4.25 6.05045 4.25 7.5V16.5C4.25 17.9496 4.25266 18.911 4.34869 19.6253C4.43989 20.3036 4.59419 20.5691 4.76257 20.7374C4.93095 20.9058 5.19642 21.0601 5.87475 21.1513C6.58904 21.2473 7.55045 21.25 9 21.25H11C12.4496 21.25 13.411 21.2473 14.1253 21.1513C14.8036 21.0601 15.0691 20.9058 15.2374 20.7374C15.4942 20.4807 15.6859 20.0345 15.7332 18.4624C15.754 17.7723 16.3303 17.2298 17.0203 17.2506C17.7104 17.2714 18.2529 17.8476 18.2321 18.5377C18.1859 20.0724 18.031 21.4794 17.0052 22.5052C16.2949 23.2155 15.4139 23.5006 14.4584 23.629C13.5578 23.7501 12.4268 23.7501 11.0853 23.75H8.91483C7.57335 23.7501 6.4422 23.7501 5.54163 23.629C4.58608 23.5006 3.7051 23.2155 2.9948 22.5052C2.2845 21.7949 1.99946 20.9139 1.87099 19.9584C1.7499 19.0578 1.74995 17.9267 1.75 16.5852L1.75 7.41484C1.74995 6.07331 1.7499 4.94223 1.87099 4.04163C1.99946 3.08608 2.2845 2.2051 2.9948 1.4948C3.7051 0.7845 4.58608 0.499457 5.54163 0.370986C6.44223 0.249904 7.57331 0.249949 8.91484 0.250002Z" fill="#080809" style="fill:#080809;fill:color(display-p3 0.0314 0.0314 0.0353);fill-opacity:1;"/>
<path d="M13.7498 12C13.7498 12.6904 14.3094 13.25 14.9998 13.25L19.9836 13.25C19.6911 13.5417 19.3992 13.8329 19.1159 14.1161C18.6277 14.6043 18.6277 15.3957 19.1159 15.8839C19.6041 16.372 20.3955 16.372 20.8837 15.8839C21.2234 15.5442 21.5526 15.216 21.8825 14.887C22.1947 14.5758 22.5076 14.2639 22.8306 13.9409C23.9045 12.8674 23.899 11.1306 22.8291 10.0608L20.8837 8.11612C20.3955 7.62796 19.6041 7.62796 19.1159 8.11611C18.6277 8.60427 18.6277 9.39572 19.1159 9.88388L19.9824 10.75L14.9998 10.75C14.3094 10.75 13.7498 11.3096 13.7498 12Z" fill="#080809" style="fill:#080809;fill:color(display-p3 0.0314 0.0314 0.0353);fill-opacity:1;"/>
</svg>
