<svg width="24" height="24" viewBox="0 0 24 24" fill="none" xmlns="http://www.w3.org/2000/svg">
<path fill-rule="evenodd" clip-rule="evenodd" d="M9.7233 1.27148C11.5491 1.27148 13.1406 2.27623 13.9748 3.76289C14.7212 3.07011 15.7209 2.64648 16.8195 2.64648C19.1294 2.64648 21.0023 4.51936 21.0023 6.82928C21.0023 9.1392 19.1294 11.0121 16.8195 11.0121C15.4309 11.0121 14.2002 10.3352 13.4394 9.29347C12.5457 10.3466 11.2125 11.015 9.7233 11.015C7.03301 11.015 4.85156 8.83351 4.85156 6.14322C4.85156 3.45294 7.03301 1.27148 9.7233 1.27148ZM6.81134 6.14196C6.81134 4.53359 8.11492 3.23 9.7233 3.23C11.3317 3.23 12.6353 4.53359 12.6353 6.14196C12.6353 7.75034 11.3317 9.05393 9.7233 9.05393C8.11492 9.05393 6.81134 7.75034 6.81134 6.14196ZM16.8195 4.60501C15.5915 4.60501 14.5952 5.60127 14.5952 6.82928C14.5952 8.05729 15.5915 9.05356 16.8195 9.05356C18.0475 9.05356 19.0438 8.05729 19.0438 6.82928C19.0438 5.60127 18.0475 4.60501 16.8195 4.60501Z" fill="#080809" style="fill:#080809;fill:color(display-p3 0.0314 0.0314 0.0353);fill-opacity:1;"/>
<path fill-rule="evenodd" clip-rule="evenodd" d="M21.0026 15.4622C21.0026 13.4735 19.3904 11.8613 17.4017 11.8613H12.1068C10.5006 11.8613 9.14002 12.9129 8.67603 14.3652L5.53565 12.7761C5.29005 12.6514 5.02052 12.5872 4.74595 12.5872V12.5859C3.78117 12.5859 2.99902 13.3681 2.99902 14.3329V19.4615C2.99902 19.7336 3.062 20.0019 3.18417 20.2449C3.61618 21.1077 4.6666 21.4566 5.52936 21.0246L8.68415 19.4435C9.15574 20.8827 10.5098 21.9222 12.1068 21.9222H17.4017C19.3904 21.9222 21.0026 20.31 21.0026 18.3213V15.4622ZM12.1597 13.714H17.379C18.3602 13.7292 19.1499 14.5289 19.1499 15.5139V18.2974C19.1348 19.2785 18.335 20.0682 17.3501 20.0682H12.1307C11.1495 20.0531 10.3598 19.2533 10.3598 18.2684V15.4849C10.375 14.5038 11.1747 13.714 12.1597 13.714ZM8.50586 16.3714V17.4398L5.54573 18.9489L5.53817 18.9527C5.30517 19.0661 5.02304 18.9729 4.90465 18.7411C4.87064 18.6744 4.85301 18.6 4.85301 18.5245V15.3002C4.85678 15.042 5.06838 14.8329 5.3291 14.8329V14.8341C5.40341 14.8341 5.47646 14.8518 5.54321 14.8845L8.50586 16.3714Z" fill="#080809" style="fill:#080809;fill:color(display-p3 0.0314 0.0314 0.0353);fill-opacity:1;"/>
</svg>
