<svg width="24" height="24" viewBox="0 0 24 24" fill="none" xmlns="http://www.w3.org/2000/svg">
<path d="M7.42943 3H9V7.62868C8.4618 7.22303 7.80305 7 7.12132 7C5.39748 7 4 8.39745 4 10.1213C4 10.803 4.22303 11.4618 4.62869 12H0.500001V9.92939C0.499968 8.57531 0.499941 7.45868 0.618757 6.57494C0.743501 5.64711 1.01547 4.82769 1.67158 4.17158C2.32769 3.51547 3.14711 3.2435 4.07494 3.11876C4.95868 2.99994 6.07535 2.99997 7.42943 3Z" fill="#080809" style="fill:#080809;fill:color(display-p3 0.0314 0.0314 0.0353);fill-opacity:1;"/>
<path d="M11 11.9999H11.1145C12.0565 11.9999 12.96 11.6257 13.6262 10.9595L13.6716 10.9142C13.8819 10.7039 14 10.4187 14 10.1213C14 9.50203 13.498 9 12.8787 9C12.5813 9 12.2961 9.11814 12.0858 9.32843L12.0404 9.37377C11.3743 10.04 11 10.9435 11 11.8856V11.9999Z" fill="#080809" style="fill:#080809;fill:color(display-p3 0.0314 0.0314 0.0353);fill-opacity:1;"/>
<path d="M7.95956 9.37377C8.62574 10.04 9 10.9435 9 11.8856V11.9999H8.88555C7.94346 11.9999 7.03996 11.6257 6.37379 10.9595L6.32844 10.9142C6.11814 10.7039 6 10.4187 6 10.1213C6 9.50203 6.50203 9 7.12132 9C7.41871 9 7.70393 9.11814 7.91421 9.32843L7.95956 9.37377Z" fill="#080809" style="fill:#080809;fill:color(display-p3 0.0314 0.0314 0.0353);fill-opacity:1;"/>
<path d="M12.8787 7C12.1969 7 11.5382 7.22303 11 7.62868V3H16.5706C17.9247 2.99997 19.0413 2.99994 19.9251 3.11876C20.8529 3.2435 21.6723 3.51547 22.3284 4.17158C22.9845 4.82769 23.2565 5.64711 23.3813 6.57494C23.5001 7.45867 23.5 8.5754 23.5 9.92946V14.0707C23.5 15.4248 23.5001 16.5413 23.3813 17.4251C23.2565 18.3529 22.9845 19.1723 22.3284 19.8284C21.6723 20.4845 20.8529 20.7565 19.9251 20.8813C19.0413 21.0001 17.9246 21 16.5706 21L11 20.9998V15.4142L12.7929 17.2071C13.1834 17.5976 13.8166 17.5976 14.2071 17.2071C14.5976 16.8166 14.5976 16.1834 14.2071 15.7929L12.4142 14L23.5 14V12L15.3713 12C15.777 11.4618 16 10.803 16 10.1213C16 8.39745 14.6025 7 12.8787 7Z" fill="#080809" style="fill:#080809;fill:color(display-p3 0.0314 0.0314 0.0353);fill-opacity:1;"/>
<path d="M9 15.4142V20.9998L7.42931 21C6.07525 21 4.95867 21.0001 4.07494 20.8813C3.14711 20.7565 2.32769 20.4845 1.67158 19.8284C1.01547 19.1723 0.743501 18.3529 0.618757 17.4251C0.499941 16.5413 0.499968 15.4247 0.500001 14.0706V14L7.58579 14L5.79289 15.7929C5.40237 16.1834 5.40237 16.8166 5.79289 17.2071C6.18342 17.5976 6.81658 17.5976 7.20711 17.2071L9 15.4142Z" fill="#080809" style="fill:#080809;fill:color(display-p3 0.0314 0.0314 0.0353);fill-opacity:1;"/>
</svg>
