<svg width="24" height="24" viewBox="0 0 24 24" fill="none" xmlns="http://www.w3.org/2000/svg">
<path fill-rule="evenodd" clip-rule="evenodd" d="M13.0665 23.3273C12.4192 23.6699 11.65 23.6989 10.9784 23.4045C7.23103 21.7616 4.75021 19.5308 3.40527 18.0726C2.39576 16.978 2 15.5556 2 14.1942V4.03307C2 3.00326 2.64128 2.03448 3.69248 1.71976C5.22137 1.26203 8.31984 0.498047 12 0.498047C15.6802 0.498047 18.7786 1.26203 20.3075 1.71976C21.3587 2.03448 22 3.00326 22 4.03307V13.6475C22 15.404 21.3411 17.148 19.9839 18.3765C18.4412 19.7729 15.9662 21.7925 13.0665 23.3273ZM12.923 6.61597C12.7678 6.24301 12.4036 6 11.9996 6C11.5957 6 11.2314 6.24301 11.0763 6.61597L10.3851 8.27781L8.59103 8.42164C8.18839 8.45392 7.84471 8.72526 7.71989 9.10942C7.59506 9.49358 7.71362 9.91512 8.02039 10.1779L9.3873 11.3488L8.96968 13.0995C8.87596 13.4924 9.02782 13.9032 9.35461 14.1406C9.68139 14.378 10.1189 14.3955 10.4636 14.185L11.9996 13.2468L13.5356 14.185C13.8803 14.3955 14.3179 14.378 14.6447 14.1406C14.9715 13.9032 15.1233 13.4924 15.0296 13.0995L14.612 11.3488L15.9789 10.1779C16.2857 9.91512 16.4042 9.49358 16.2794 9.10942C16.1546 8.72526 15.8109 8.45392 15.4083 8.42164L13.6142 8.27781L12.923 6.61597Z" fill="#080809" style="fill:#080809;fill:color(display-p3 0.0314 0.0314 0.0353);fill-opacity:1;"/>
</svg>
