<svg width="24" height="24" viewBox="0 0 24 24" fill="none" xmlns="http://www.w3.org/2000/svg">
<path fill-rule="evenodd" clip-rule="evenodd" d="M0.5 6.5C0.5 5.11929 1.61929 4 3 4H15.0109C16.011 4 16.9148 4.59599 17.3088 5.5152L19.7616 11.2384L21.9848 12.1912C22.904 12.5852 23.5 13.489 23.5 14.4891V16.5C23.5 17.8807 22.3807 19 21 19H20.5933C20.1715 20.3056 18.946 21.25 17.5 21.25C16.054 21.25 14.8285 20.3056 14.4067 19H9.09325C8.67147 20.3056 7.44602 21.25 6 21.25C4.55334 21.25 3.32745 20.3048 2.9062 18.9983C1.56895 18.9489 0.5 17.8493 0.5 16.5V6.5ZM13 6V11H17.4835L15.4705 6.30304C15.3917 6.1192 15.2109 6 15.0109 6H13ZM6 16.75C5.30964 16.75 4.75 17.3096 4.75 18C4.75 18.6904 5.30964 19.25 6 19.25C6.69036 19.25 7.25 18.6904 7.25 18C7.25 17.3096 6.69036 16.75 6 16.75ZM16.25 18C16.25 17.3096 16.8096 16.75 17.5 16.75C18.1904 16.75 18.75 17.3096 18.75 18C18.75 18.6904 18.1904 19.25 17.5 19.25C16.8096 19.25 16.25 18.6904 16.25 18Z" fill="#080809" style="fill:#080809;fill:color(display-p3 0.0314 0.0314 0.0353);fill-opacity:1;"/>
</svg>
