<svg width="24" height="24" viewBox="0 0 24 24" fill="none" xmlns="http://www.w3.org/2000/svg">
<path d="M10.5 7.15296V9.54996C10.3384 9.51716 10.1712 9.49995 10 9.49995C8.61929 9.49995 7.5 10.6192 7.5 11.9999C7.5 13.3807 8.61929 14.4999 10 14.4999C11.3807 14.4999 12.5 13.3807 12.5 11.9999V4.57645C12.5 3.66363 11.6915 2.96244 10.7879 3.09153L4.78787 3.94867C4.04889 4.05424 3.5 4.68712 3.5 5.4336V10.55C3.33844 10.5172 3.17123 10.5 3 10.5C1.61929 10.5 0.5 11.6193 0.5 13C0.5 14.3807 1.61929 15.5 3 15.5C4.38071 15.5 5.5 14.3807 5.5 12.9999V7.86724L10.5 7.15296Z" fill="#080809" style="fill:#080809;fill:color(display-p3 0.0314 0.0314 0.0353);fill-opacity:1;"/>
<path d="M15 4C14.4477 4 14 4.44772 14 5C14 5.55228 14.4477 6 15 6L21 6C21.5523 6 22 5.55229 22 5C22 4.44772 21.5523 4 21 4L15 4Z" fill="#080809" style="fill:#080809;fill:color(display-p3 0.0314 0.0314 0.0353);fill-opacity:1;"/>
<path d="M3 18C2.44772 18 2 18.4477 2 19C2 19.5523 2.44771 20 3 20L21 20C21.5523 20 22 19.5523 22 19C22 18.4477 21.5523 18 21 18L3 18Z" fill="#080809" style="fill:#080809;fill:color(display-p3 0.0314 0.0314 0.0353);fill-opacity:1;"/>
<path d="M14 12C14 11.4477 14.4477 11 15 11L21 11C21.5523 11 22 11.4477 22 12C22 12.5523 21.5523 13 21 13L15 13C14.4477 13 14 12.5523 14 12Z" fill="#080809" style="fill:#080809;fill:color(display-p3 0.0314 0.0314 0.0353);fill-opacity:1;"/>
</svg>
