<svg width="24" height="24" viewBox="0 0 24 24" fill="none" xmlns="http://www.w3.org/2000/svg">
<path d="M17.293 0.292893C17.6835 -0.0976311 18.3165 -0.0976311 18.707 0.292893L20.3535 1.93938C20.9392 2.52516 20.9392 3.47471 20.3535 4.06047L18.707 5.70696L18.6309 5.77532C18.2381 6.09562 17.6591 6.07302 17.293 5.70696C16.9269 5.34085 16.9043 4.76184 17.2246 4.36907L17.293 4.29289L17.5859 3.99992H12C7.58172 3.99992 4 7.58165 4 11.9999C4.00004 16.4182 7.58175 19.9999 12 19.9999C16.4183 19.9999 20 16.4182 20 11.9999C20 11.4476 20.4477 10.9999 21 10.9999C21.5523 10.9999 22 11.4476 22 11.9999C22 17.5227 17.5228 21.9999 12 21.9999C6.47718 21.9999 2.00004 17.5227 2 11.9999C2 6.47708 6.47715 1.99992 12 1.99992H17.5859L17.293 1.70696C16.9025 1.31644 16.9025 0.683421 17.293 0.292893Z" fill="#080809" style="fill:#080809;fill:color(display-p3 0.0314 0.0314 0.0353);fill-opacity:1;"/>
<path d="M9.0459 8.55168C9.4688 8.55168 9.83648 8.62448 10.1484 8.77141C10.4604 8.9154 10.702 9.11227 10.873 9.36125C11.044 9.60725 11.1299 9.88526 11.1299 10.1943C11.1298 10.527 11.0317 10.8222 10.8369 11.08C10.6419 11.338 10.3779 11.5293 10.0449 11.6523C10.4768 11.7572 10.81 11.9561 11.0439 12.2499C11.2779 12.5408 11.3944 12.8816 11.3945 13.2714C11.3945 13.6434 11.2929 13.9709 11.0889 14.2529C10.8879 14.5318 10.6061 14.7511 10.2432 14.9101C9.88316 15.0691 9.4643 15.1484 8.9873 15.1484C8.54338 15.1483 8.12627 15.0765 7.73633 14.9325C7.34636 14.7885 6.99836 14.5814 6.69238 14.3114L7.2998 13.3847C7.54879 13.5887 7.8147 13.7351 8.09668 13.8251C8.37848 13.9121 8.64373 13.9559 8.89258 13.956C9.23458 13.956 9.50513 13.8823 9.70312 13.7353C9.90394 13.5854 10.0048 13.377 10.0049 13.1103C10.0049 12.8613 9.90224 12.6672 9.69824 12.5292C9.4943 12.3884 9.17954 12.3183 8.75391 12.3183H8.1416V11.2021H8.62793C8.97872 11.202 9.25046 11.1311 9.44238 10.9902C9.63715 10.8492 9.73438 10.6615 9.73438 10.4277C9.73433 10.1998 9.64758 10.027 9.47363 9.91008C9.29964 9.79309 9.08039 9.73528 8.81641 9.73528C8.55544 9.73529 8.30352 9.78752 8.06055 9.8925C7.82055 9.9945 7.60878 10.1326 7.42578 10.3066L6.82715 9.3886C7.13315 9.1186 7.4774 8.9115 7.8584 8.7675C8.23928 8.62359 8.63504 8.55169 9.0459 8.55168Z" fill="#080809" style="fill:#080809;fill:color(display-p3 0.0314 0.0314 0.0353);fill-opacity:1;"/>
<path fill-rule="evenodd" clip-rule="evenodd" d="M14.6562 8.55168C15.4512 8.55172 16.0688 8.84277 16.5098 9.42473C16.9537 10.0037 17.1757 10.8117 17.1758 11.8495C17.1758 12.8875 16.9538 13.6982 16.5098 14.2802C16.0688 14.8589 15.451 15.1483 14.6562 15.1484C13.8614 15.1484 13.2418 14.859 12.7979 14.2802C12.3569 13.6982 12.1357 12.8875 12.1357 11.8495C12.1358 10.8118 12.357 10.0037 12.7979 9.42473C13.2419 8.84273 13.8612 8.55168 14.6562 8.55168ZM14.6562 9.74407C14.2873 9.74407 14.0065 9.92225 13.8145 10.2792C13.6225 10.6362 13.5264 11.1597 13.5264 11.8495C13.5264 12.5395 13.6225 13.0638 13.8145 13.4208C14.0064 13.7776 14.2874 13.956 14.6562 13.956C15.0251 13.9559 15.3061 13.7777 15.498 13.4208C15.69 13.0638 15.7852 12.5395 15.7852 11.8495C15.7851 11.1597 15.69 10.6362 15.498 10.2792C15.3061 9.92227 15.0252 9.74412 14.6562 9.74407Z" fill="#080809" style="fill:#080809;fill:color(display-p3 0.0314 0.0314 0.0353);fill-opacity:1;"/>
</svg>
