<svg width="24" height="24" viewBox="0 0 24 24" fill="none" xmlns="http://www.w3.org/2000/svg">
<g clip-path="url(#clip0_29901_28194)">
<path fill-rule="evenodd" clip-rule="evenodd" d="M12 0.5C5.64873 0.5 0.5 5.64873 0.5 12C0.5 18.3513 5.64873 23.5 12 23.5C18.3513 23.5 23.5 18.3513 23.5 12C23.5 5.64873 18.3513 0.5 12 0.5ZM2.98341 9C2.6698 9.943 2.5 10.9517 2.5 12C2.5 13.0483 2.6698 14.057 2.98341 15H7.1595C7.05514 14.0416 7 13.0351 7 12C7 10.9649 7.05514 9.95837 7.1595 9H2.98341ZM3.92072 7L7.46166 7C7.66243 5.97839 7.92401 5.04122 8.23709 4.21938C8.39127 3.81465 8.56102 3.42973 8.74674 3.07165C6.73145 3.80615 5.03485 5.20353 3.92072 7ZM9.17232 9C9.06094 9.94157 9 10.949 9 12C9 13.051 9.06094 14.0584 9.17232 15L14.8277 15C14.9391 14.0584 15 13.051 15 12C15 10.949 14.9391 9.94157 14.8277 9L9.17232 9ZM14.4959 7H9.50407C9.67126 6.23418 9.87467 5.53877 10.1061 4.93137C10.4426 4.04792 10.819 3.40193 11.1861 2.99438C11.5533 2.5866 11.8301 2.5 12 2.5C12.1699 2.5 12.4467 2.5866 12.8139 2.99438C13.181 3.40193 13.5574 4.04792 13.8939 4.93137C14.1253 5.53877 14.3287 6.23418 14.4959 7ZM16.8405 9C16.9449 9.95837 17 10.9649 17 12C17 13.0351 16.9449 14.0416 16.8405 15H21.0166C21.3302 14.057 21.5 13.0483 21.5 12C21.5 10.9517 21.3302 9.943 21.0166 9H16.8405ZM20.0793 7L16.5383 7C16.3376 5.97839 16.076 5.04122 15.7629 4.21938C15.6087 3.81465 15.439 3.42973 15.2533 3.07165C17.2685 3.80615 18.9651 5.20353 20.0793 7ZM8.74674 20.9283C6.73145 20.1938 5.03485 18.7965 3.92072 17H7.46166C7.66243 18.0216 7.92401 18.9588 8.23709 19.7806C8.39127 20.1853 8.56102 20.5703 8.74674 20.9283ZM10.1061 19.0686C9.87467 18.4612 9.67126 17.7658 9.50407 17H14.4959C14.3287 17.7658 14.1253 18.4612 13.8939 19.0686C13.5574 19.9521 13.181 20.5981 12.8139 21.0056C12.4467 21.4134 12.1699 21.5 12 21.5C11.8301 21.5 11.5533 21.4134 11.1861 21.0056C10.819 20.5981 10.4426 19.9521 10.1061 19.0686ZM15.7629 19.7806C16.076 18.9588 16.3376 18.0216 16.5383 17H20.0793C18.9651 18.7965 17.2685 20.1938 15.2533 20.9283C15.439 20.5703 15.6087 20.1853 15.7629 19.7806Z" fill="#080809" style="fill:#080809;fill:color(display-p3 0.0314 0.0314 0.0353);fill-opacity:1;"/>
</g>
<defs>
<clipPath id="clip0_29901_28194">
<rect width="24" height="24" fill="white" style="fill:white;fill-opacity:1;"/>
</clipPath>
</defs>
</svg>
