<svg width="24" height="24" viewBox="0 0 24 24" fill="none" xmlns="http://www.w3.org/2000/svg">
<g clip-path="url(#clip0_29901_28426)">
<path fill-rule="evenodd" clip-rule="evenodd" d="M22.5816 1.41798C21.1695 0.00597155 18.8053 0.302895 17.7863 2.02022L16.289 4.54372C16.1225 4.82433 15.7361 4.87285 15.5054 4.64213L14.603 3.7397C13.0409 2.1776 10.5082 2.1776 8.94614 3.7397L7.17837 5.50747L7.17427 5.51159L0.917893 11.768C0.527369 12.1585 0.527369 12.7917 0.917894 13.1822L2.19475 14.459C2.79368 15.058 3.59199 15.3561 4.3895 15.3369C4.35858 16.1214 4.64619 16.9105 5.23541 17.4997C5.75241 18.0167 6.42238 18.3009 7.10757 18.3425C7.15908 19.0385 7.45244 19.7167 7.97807 20.2424L10.8174 23.0817C11.2079 23.4722 11.8411 23.4722 12.2316 23.0817L18.492 16.8213L18.496 16.8172L20.2598 15.0534C21.8219 13.4913 21.8219 10.9587 20.2598 9.39655L19.3574 8.49413C19.1267 8.2634 19.1752 7.87708 19.4558 7.71057L21.9793 6.21321C23.6966 5.19421 23.9936 2.82999 22.5816 1.41798ZM16.3707 16.1142L11.5245 20.9604L9.39228 18.8281C9.04039 18.4762 9.0008 17.9192 9.29939 17.521L9.31929 17.4945C9.61788 17.0964 9.57829 16.5393 9.2264 16.1874C8.87451 15.8355 8.31741 15.7959 7.91929 16.0945L7.82037 16.1687C7.46378 16.4361 6.9648 16.4007 6.64962 16.0855C6.34002 15.7759 6.29962 15.2878 6.55411 14.9315L7.38848 13.7634C7.67261 13.3656 7.62752 12.8207 7.28185 12.4751C6.93619 12.1294 6.39129 12.0843 5.99351 12.3684L4.89731 13.1515C4.49952 13.4356 3.95462 13.3905 3.60896 13.0448L3.03921 12.4751L7.88541 7.62888L16.3707 16.1142Z" fill="#080809" style="fill:#080809;fill:color(display-p3 0.0314 0.0314 0.0353);fill-opacity:1;"/>
</g>
<defs>
<clipPath id="clip0_29901_28426">
<rect width="24" height="24" fill="white" style="fill:white;fill-opacity:1;"/>
</clipPath>
</defs>
</svg>
