<svg width="24" height="24" viewBox="0 0 24 24" fill="none" xmlns="http://www.w3.org/2000/svg">
<path d="M12.3643 2.38388L12.7304 2.75L11.1591 2.75C9.34924 2.74996 7.86521 2.74992 6.69247 2.9076C5.4646 3.07268 4.39255 3.43094 3.53581 4.28769C2.78165 5.04185 2.41197 5.96513 2.2221 7.01962C2.0387 8.03818 2.00706 9.279 2.00001 10.744C1.99669 11.4343 2.55364 11.9967 3.24399 12C3.93434 12.0033 4.49667 11.4464 4.49999 10.756C4.50714 9.26764 4.54321 8.23639 4.68253 7.46265C4.81538 6.72483 5.02345 6.33559 5.30357 6.05546C5.6184 5.74063 6.07494 5.51311 7.02559 5.3853C8.01219 5.25266 9.32716 5.25 11.2481 5.25H12.7304L12.3643 5.61612C11.8762 6.10427 11.8762 6.89573 12.3643 7.38388C12.8525 7.87204 13.6439 7.87204 14.1321 7.38388L15.925 5.59099C16.8037 4.71231 16.8037 3.28769 15.925 2.40901L14.1321 0.616116C13.6439 0.127961 12.8525 0.127961 12.3643 0.616117C11.8762 1.10427 11.8762 1.89573 12.3643 2.38388Z" fill="#080809" style="fill:#080809;fill:color(display-p3 0.0314 0.0314 0.0353);fill-opacity:1;"/>
<path d="M6.63178 18.3839L6.26566 18.75H12.7481C14.6691 18.75 15.984 18.7473 16.9706 18.6147C17.9213 18.4869 18.3778 18.2594 18.6927 17.9445C18.9728 17.6644 19.1808 17.2752 19.3137 16.5374C19.453 15.7636 19.4891 14.7324 19.4962 13.244C19.4996 12.5536 20.0619 11.9967 20.7522 12C21.4426 12.0033 21.9995 12.5657 21.9962 13.256C21.9892 14.721 21.9575 15.9618 21.7741 16.9804C21.5843 18.0349 21.2146 18.9582 20.4604 19.7123C19.6037 20.5691 18.5316 20.9273 17.3038 21.0924C16.131 21.2501 14.647 21.25 12.8372 21.25H6.26567L6.63178 21.6161C7.11994 22.1043 7.11994 22.8957 6.63178 23.3839C6.14362 23.872 5.35217 23.872 4.86401 23.3839L3.07112 21.591C2.19244 20.7123 2.19244 19.2877 3.07112 18.409L4.86401 16.6161C5.35217 16.128 6.14362 16.128 6.63178 16.6161C7.11993 17.1043 7.11993 17.8957 6.63178 18.3839Z" fill="#080809" style="fill:#080809;fill:color(display-p3 0.0314 0.0314 0.0353);fill-opacity:1;"/>
<path d="M19.248 1.5C18.5577 1.5 17.998 2.05964 17.998 2.75C17.998 3.44036 18.5577 4 19.248 4H19.498V8.25C19.498 8.94036 20.0577 9.5 20.748 9.5C21.4384 9.5 21.998 8.94036 21.998 8.25V3.25C21.998 2.2835 21.2145 1.5 20.248 1.5H19.248Z" fill="#080809" style="fill:#080809;fill:color(display-p3 0.0314 0.0314 0.0353);fill-opacity:1;"/>
</svg>
