<svg width="24" height="24" viewBox="0 0 24 24" fill="none" xmlns="http://www.w3.org/2000/svg">
<path d="M12 2.5C6.75329 2.5 2.5 6.75329 2.5 12C2.5 17.2467 6.75329 21.5 12 21.5C12.5523 21.5 13 21.9477 13 22.5C13 23.0523 12.5523 23.5 12 23.5C5.64873 23.5 0.5 18.3513 0.5 12C0.5 5.64873 5.64873 0.5 12 0.5C12.5523 0.5 13 0.947715 13 1.5C13 2.05228 12.5523 2.5 12 2.5Z" fill="#080809" style="fill:#080809;fill:color(display-p3 0.0314 0.0314 0.0353);fill-opacity:1;"/>
<path d="M22.5 13.25C21.8096 13.25 21.25 12.6904 21.25 12C21.25 11.3097 21.8096 10.75 22.5 10.75C23.1904 10.75 23.75 11.3097 23.75 12C23.75 12.6904 23.1904 13.25 22.5 13.25Z" fill="#080809" style="fill:#080809;fill:color(display-p3 0.0314 0.0314 0.0353);fill-opacity:1;"/>
<path d="M20.3085 5.4593C19.8204 5.94746 19.0289 5.94746 18.5408 5.4593C18.0526 4.97115 18.0526 4.17969 18.5408 3.69153C19.0289 3.20338 19.8204 3.20338 20.3085 3.69153C20.7967 4.17969 20.7967 4.97115 20.3085 5.4593Z" fill="#080809" style="fill:#080809;fill:color(display-p3 0.0314 0.0314 0.0353);fill-opacity:1;"/>
<path d="M18.5408 20.3085C18.0526 19.8204 18.0526 19.0289 18.5408 18.5408C19.029 18.0526 19.8204 18.0526 20.3086 18.5408C20.7967 19.0289 20.7967 19.8204 20.3086 20.3085C19.8204 20.7967 19.029 20.7967 18.5408 20.3085Z" fill="#080809" style="fill:#080809;fill:color(display-p3 0.0314 0.0314 0.0353);fill-opacity:1;"/>
<path d="M15.5397 3.45401C14.9019 3.18982 14.5991 2.45861 14.8633 1.82081C15.1274 1.183 15.8587 0.880124 16.4965 1.14431C17.1343 1.4085 17.4371 2.13971 17.173 2.77752C16.9088 3.41532 16.1776 3.7182 15.5397 3.45401Z" fill="#080809" style="fill:#080809;fill:color(display-p3 0.0314 0.0314 0.0353);fill-opacity:1;"/>
<path d="M22.1791 9.1366C21.5413 9.40079 20.8101 9.09791 20.5459 8.4601C20.2817 7.8223 20.5846 7.09109 21.2224 6.8269C21.8602 6.56271 22.5914 6.86559 22.8556 7.50339C23.1198 8.1412 22.8169 8.87241 22.1791 9.1366Z" fill="#080809" style="fill:#080809;fill:color(display-p3 0.0314 0.0314 0.0353);fill-opacity:1;"/>
<path d="M21.2224 17.173C20.5846 16.9088 20.2817 16.1776 20.5459 15.5398C20.8101 14.902 21.5413 14.5991 22.1791 14.8633C22.8169 15.1275 23.1198 15.8587 22.8556 16.4965C22.5914 17.1343 21.8602 17.4372 21.2224 17.173Z" fill="#080809" style="fill:#080809;fill:color(display-p3 0.0314 0.0314 0.0353);fill-opacity:1;"/>
<path d="M14.8633 22.1792C14.5991 21.5414 14.902 20.8102 15.5398 20.546C16.1776 20.2818 16.9088 20.5847 17.173 21.2225C17.4372 21.8603 17.1343 22.5915 16.4965 22.8557C15.8587 23.1199 15.1275 22.817 14.8633 22.1792Z" fill="#080809" style="fill:#080809;fill:color(display-p3 0.0314 0.0314 0.0353);fill-opacity:1;"/>
<path d="M11.4985 15.9996H13.3285V7.59961H10.1005L9.89648 9.16561H11.4985V15.9996Z" fill="#080809" style="fill:#080809;fill:color(display-p3 0.0314 0.0314 0.0353);fill-opacity:1;"/>
</svg>
