<svg width="24" height="24" viewBox="0 0 24 24" fill="none" xmlns="http://www.w3.org/2000/svg">
<path d="M5.5 1C4.11929 1 3 2.11929 3 3.5V8C3 8.55228 3.44772 9 4 9C4.55229 9 5 8.55228 5 8V3.5C5 3.22386 5.22386 3 5.5 3H18.5C18.7761 3 19 3.22386 19 3.5V8C19 8.55228 19.4477 9 20 9C20.5523 9 21 8.55228 21 8V3.5C21 2.11929 19.8807 1 18.5 1H5.5Z" fill="#080809" style="fill:#080809;fill:color(display-p3 0.0314 0.0314 0.0353);fill-opacity:1;"/>
<path fill-rule="evenodd" clip-rule="evenodd" d="M2.08122 9.68625C1.7764 9.46854 1.37547 9.43944 1.04241 9.61084C0.709344 9.78225 0.500001 10.1254 0.500001 10.5V14.0732C0.499974 15.8967 0.499952 17.3664 0.655366 18.5224C0.816721 19.7225 1.16191 20.733 1.96447 21.5356C2.76702 22.3382 3.77752 22.6833 4.97767 22.8447C6.13362 23.0001 7.60338 23.0001 9.42683 23.0001H14.5732C16.3966 23.0001 17.8664 23.0001 19.0223 22.8447C20.2225 22.6833 21.233 22.3382 22.0355 21.5356C22.8381 20.733 23.1833 19.7225 23.3446 18.5224C23.5001 17.3664 23.5 15.8967 23.5 14.0732V10.5001C23.5 10.1255 23.2907 9.78231 22.9576 9.61091C22.6245 9.4395 22.2236 9.4686 21.9188 9.68631L14.9061 14.6951C14.0455 15.3097 13.4671 15.721 12.987 15.9878C12.5292 16.2421 12.2491 16.3129 12 16.3129C11.7509 16.3129 11.4708 16.2421 11.013 15.9878C10.5329 15.721 9.95454 15.3097 9.09394 14.695L2.08122 9.68625ZM2.5 14.0001V12.4431L7.97723 16.3552C8.78026 16.9288 9.45063 17.4076 10.0416 17.736C10.6662 18.083 11.2878 18.3129 12 18.3129C12.7122 18.3129 13.3338 18.0831 13.9584 17.736C14.5494 17.4076 15.2198 16.9288 16.0228 16.3552L21.5 12.4432V14.0001C21.5 15.914 21.4979 17.2488 21.3625 18.2559C21.2309 19.2343 20.9903 19.7524 20.6213 20.1214C20.2523 20.4904 19.7342 20.731 18.7558 20.8625C17.7487 20.9979 16.4139 21.0001 14.5 21.0001H9.5C7.58611 21.0001 6.2513 20.9979 5.24416 20.8625C4.26579 20.731 3.7477 20.4904 3.37868 20.1214C3.00966 19.7524 2.76907 19.2343 2.63753 18.2559C2.50213 17.2488 2.5 15.914 2.5 14.0001Z" fill="#080809" style="fill:#080809;fill:color(display-p3 0.0314 0.0314 0.0353);fill-opacity:1;"/>
<path d="M7 6C7 5.44772 7.44772 5 8 5H16C16.5523 5 17 5.44772 17 6C17 6.55228 16.5523 7 16 7H8C7.44772 7 7 6.55228 7 6Z" fill="#080809" style="fill:#080809;fill:color(display-p3 0.0314 0.0314 0.0353);fill-opacity:1;"/>
<path d="M8 9C7.44772 9 7 9.44771 7 10C7 10.5523 7.44772 11 8 11H16C16.5523 11 17 10.5523 17 10C17 9.44771 16.5523 9 16 9H8Z" fill="#080809" style="fill:#080809;fill:color(display-p3 0.0314 0.0314 0.0353);fill-opacity:1;"/>
</svg>
