<svg width="24" height="24" viewBox="0 0 24 24" fill="none" xmlns="http://www.w3.org/2000/svg">
<path d="M3.25 1.75C2.55964 1.75 2 2.30964 2 3C2 3.69036 2.55964 4.25 3.25 4.25H20.75C21.4404 4.25 22 3.69036 22 3C22 2.30964 21.4404 1.75 20.75 1.75H3.25Z" fill="#080809" style="fill:#080809;fill:color(display-p3 0.0314 0.0314 0.0353);fill-opacity:1;"/>
<path d="M3.25 7.75C2.55964 7.75 2 8.30964 2 9C2 9.69036 2.55964 10.25 3.25 10.25H12.75C13.4404 10.25 14 9.69036 14 9C14 8.30964 13.4404 7.75 12.75 7.75H3.25Z" fill="#080809" style="fill:#080809;fill:color(display-p3 0.0314 0.0314 0.0353);fill-opacity:1;"/>
<path d="M3.25 13.75C2.55964 13.75 2 14.3096 2 15C2 15.6904 2.55964 16.25 3.25 16.25H20.75C21.4404 16.25 22 15.6904 22 15C22 14.3096 21.4404 13.75 20.75 13.75H3.25Z" fill="#080809" style="fill:#080809;fill:color(display-p3 0.0314 0.0314 0.0353);fill-opacity:1;"/>
<path d="M2 21C2 20.3096 2.55964 19.75 3.25 19.75H12.75C13.4404 19.75 14 20.3096 14 21C14 21.6904 13.4404 22.25 12.75 22.25H3.25C2.55964 22.25 2 21.6904 2 21Z" fill="#080809" style="fill:#080809;fill:color(display-p3 0.0314 0.0314 0.0353);fill-opacity:1;"/>
</svg>
