<svg width="24" height="24" viewBox="0 0 24 24" fill="none" xmlns="http://www.w3.org/2000/svg">
<path fill-rule="evenodd" clip-rule="evenodd" d="M5.49985 1C4.11914 1 2.99985 2.11929 2.99985 3.5V7.5C2.99985 8.88071 4.11914 10 5.49985 10H10.9998V12H5.12117C4.45813 12 3.82224 12.2634 3.3534 12.7322L0.999849 15.0858C0.218799 15.8668 0.218801 17.1332 0.999849 17.9142L3.3534 20.2678C3.82224 20.7366 4.45813 21 5.12117 21H10.9998V22.5C10.9998 23.0523 11.4476 23.5 11.9998 23.5C12.5521 23.5 12.9998 23.0523 12.9998 22.5V21H18.4998C19.8806 21 20.9998 19.8807 20.9998 18.5V14.5C20.9998 13.1193 19.8806 12 18.4998 12H12.9998V10H18.8785C19.5416 10 20.1775 9.73661 20.6463 9.26777L22.9999 6.91421C23.7809 6.13316 23.7809 4.86683 22.9998 4.08579L20.6463 1.73223C20.1775 1.26339 19.5416 1 18.8785 1H5.49985ZM17 16.5C17 15.9477 16.5523 15.5 16 15.5H8C7.44771 15.5 7 15.9477 7 16.5C7 17.0523 7.44771 17.5 8 17.5H16C16.5523 17.5 17 17.0523 17 16.5ZM8 4.5C7.44772 4.5 7 4.94772 7 5.5C7 6.05228 7.44772 6.5 8 6.5H16C16.5523 6.5 17 6.05228 17 5.5C17 4.94772 16.5523 4.5 16 4.5H8Z" fill="#080809" style="fill:#080809;fill:color(display-p3 0.0314 0.0314 0.0353);fill-opacity:1;"/>
</svg>
