<svg width="24" height="24" viewBox="0 0 24 24" fill="none" xmlns="http://www.w3.org/2000/svg">
<path d="M12 0.5C10.3431 0.5 9 1.84315 9 3.5C9 4.80558 9.83399 5.91636 10.9983 6.32869L10.9963 9.67201C10.4463 9.86724 9.97007 10.2184 9.62084 10.6723L6.49867 9.65987C6.45101 8.04471 5.1267 6.75 3.5 6.75C1.84315 6.75 0.5 8.09315 0.5 9.75C0.5 11.4069 1.84315 12.75 3.5 12.75C4.47357 12.75 5.33882 12.2862 5.8869 11.5676L9.00109 12.5815C9.01706 13.1806 9.20867 13.7359 9.5263 14.1978L7.58819 16.8687C7.32218 16.7914 7.04093 16.75 6.75 16.75C5.09315 16.75 3.75 18.0931 3.75 19.75C3.75 21.4069 5.09315 22.75 6.75 22.75C8.40685 22.75 9.75 21.4069 9.75 19.75C9.75 19.1139 9.55205 18.5241 9.21439 18.0388L11.15 15.3779C11.4195 15.4574 11.7048 15.5 12 15.5C12.2952 15.5 12.5804 15.4574 12.8499 15.3779L14.7856 18.0388C14.4479 18.5242 14.25 19.114 14.25 19.75C14.25 21.4069 15.5931 22.75 17.25 22.75C18.9069 22.75 20.25 21.4069 20.25 19.75C20.25 18.0931 18.9069 16.75 17.25 16.75C16.959 16.75 16.6777 16.7914 16.4117 16.8687L14.4736 14.1979C14.7913 13.7359 14.9829 13.1806 14.9989 12.5814L18.1131 11.5676C18.6612 12.2862 19.5264 12.75 20.5 12.75C22.1569 12.75 23.5 11.4069 23.5 9.75C23.5 8.09315 22.1569 6.75 20.5 6.75C18.8733 6.75 17.549 8.04469 17.5013 9.65983L14.3791 10.6723C14.0299 10.2183 13.5536 9.86718 13.0036 9.67197L13.0016 6.32873C14.166 5.91644 15 4.80562 15 3.5C15 1.84315 13.6569 0.5 12 0.5Z" fill="#080809" style="fill:#080809;fill:color(display-p3 0.0314 0.0314 0.0353);fill-opacity:1;"/>
</svg>
