<svg width="24" height="24" viewBox="0 0 24 24" fill="none" xmlns="http://www.w3.org/2000/svg">
<path d="M18.8575 8.99993C20.151 8.99993 20.893 10.473 20.1231 11.5124L19.672 12.1214C19.5007 12.3526 19.2381 12.4988 18.9514 12.5227C15.6183 12.8001 12.9989 15.5947 12.9989 19C12.9989 19.4699 13.0486 19.9271 13.1427 20.3669C13.2027 20.6476 13.1392 20.9406 12.9684 21.1713L12.1982 22.211C11.2177 23.5346 9.11998 22.655 9.37687 21.0279L10.3286 14.9999H5.14034C3.84677 14.9999 3.10478 13.5269 3.87474 12.4874L11.7997 1.78888C12.7802 0.465234 14.8779 1.3449 14.621 2.97201L13.6693 8.99993H18.8575Z" fill="#080809" style="fill:#080809;fill:color(display-p3 0.0314 0.0314 0.0353);fill-opacity:1;"/>
<path fill-rule="evenodd" clip-rule="evenodd" d="M18.5378 15.5288C18.6348 15.2144 18.9254 14.9999 19.2545 14.9999H19.7538C20.0832 14.9999 20.374 15.2148 20.4707 15.5296L22.4682 22.0296C22.5899 22.4256 22.3676 22.8452 21.9716 22.9669C21.5757 23.0885 21.1561 22.8662 21.0344 22.4703L20.6956 21.3677H18.3059L17.9655 22.4711C17.8433 22.8669 17.4235 23.0887 17.0277 22.9666C16.6319 22.8445 16.41 22.4246 16.5321 22.0288L18.5378 15.5288ZM18.7688 19.8677H20.2346L19.5032 17.4875L18.7688 19.8677Z" fill="#080809" style="fill:#080809;fill:color(display-p3 0.0314 0.0314 0.0353);fill-opacity:1;"/>
</svg>
