<svg width="24" height="24" viewBox="0 0 24 24" fill="none" xmlns="http://www.w3.org/2000/svg">
<path d="M19.5858 18H16C15.4477 18 15 18.4477 15 19C15 19.5523 15.4477 20 16 20H20.5C21.8807 20 23 18.8807 23 17.5V13C23 12.4477 22.5523 12 22 12C21.4477 12 21 12.4477 21 13V16.5858L14.7678 10.3536C13.7915 9.37724 12.2085 9.37724 11.2322 10.3536L9.35355 12.2322C9.15829 12.4275 8.84171 12.4275 8.64645 12.2322L2.70711 6.29289C2.31658 5.90237 1.68342 5.90237 1.29289 6.29289C0.902369 6.68342 0.902369 7.31658 1.29289 7.70711L7.23223 13.6464C8.20854 14.6228 9.79145 14.6228 10.7678 13.6464L12.6464 11.7678C12.8417 11.5725 13.1583 11.5725 13.3536 11.7678L19.5858 18Z" fill="#080809" style="fill:#080809;fill:color(display-p3 0.0314 0.0314 0.0353);fill-opacity:1;"/>
</svg>
