<svg width="24" height="24" viewBox="0 0 24 24" fill="none" xmlns="http://www.w3.org/2000/svg">
<path fill-rule="evenodd" clip-rule="evenodd" d="M12.5376 0.656481C12.2297 0.460425 11.8394 0.447719 11.5194 0.623331C11.1994 0.798945 11.0005 1.13497 11.0005 1.5C11.0005 1.82744 10.8653 2.51674 10.6002 3.29889C10.5175 3.54292 10.4282 3.77812 10.3356 3.99727L10.0086 3.60738C9.80605 3.36592 9.50156 3.23405 9.1869 3.25154C8.87224 3.26903 8.58423 3.43382 8.40972 3.69624C8.17255 4.05285 7.8758 4.47482 7.63264 4.76512C7.08662 5.417 5.75049 7.02924 5.75049 9.53572C5.75049 13.0109 8.50549 16 12.0005 16C15.4955 16 18.2505 13.0109 18.2505 9.53572C18.2505 6.84458 16.695 3.30362 12.5376 0.656481ZM12.5273 8.21622C12.2353 7.92793 11.7657 7.92793 11.4736 8.21622L11.4725 8.21735L11.4707 8.21912L11.4652 8.22456L11.4471 8.24283C11.4319 8.25824 11.4106 8.28005 11.384 8.30774C11.3309 8.36308 11.2567 8.44218 11.1683 8.54091C10.9923 8.73751 10.7563 9.0162 10.5187 9.3433C10.2825 9.66841 10.0347 10.055 9.84356 10.4671C9.65542 10.8727 9.50049 11.3489 9.50049 11.8409C9.50049 13.2467 10.5597 14.5 12.0005 14.5C13.4413 14.5 14.5005 13.2467 14.5005 11.8409C14.5005 11.3489 14.3456 10.8727 14.1574 10.4671C13.9663 10.055 13.7184 9.66841 13.4823 9.3433C13.2447 9.0162 13.0087 8.73751 12.8327 8.54091C12.7443 8.44218 12.67 8.36308 12.617 8.30774C12.5904 8.28005 12.5691 8.25824 12.5539 8.24283L12.5357 8.22456L12.5303 8.21912L12.5285 8.21735L12.5273 8.21622Z" fill="#080809" style="fill:#080809;fill:color(display-p3 0.0314 0.0314 0.0353);fill-opacity:1;"/>
<path d="M21.949 16.1841C22.1236 16.708 21.8404 17.2744 21.3165 17.449L15.1628 19.5003L21.3169 21.5516C21.8409 21.7263 22.124 22.2926 21.9494 22.8166C21.7747 23.3405 21.2084 23.6237 20.6845 23.449L12.0005 20.5544L3.3165 23.449C2.79256 23.6237 2.22624 23.3405 2.05159 22.8166C1.87694 22.2926 2.1601 21.7263 2.68404 21.5516L8.83821 19.5003L2.68448 17.449C2.16054 17.2744 1.87737 16.708 2.05202 16.1841C2.22667 15.6602 2.79299 15.377 3.31693 15.5516L12.0005 18.4462L20.684 15.5516C21.208 15.377 21.7743 15.6602 21.949 16.1841Z" fill="#080809" style="fill:#080809;fill:color(display-p3 0.0314 0.0314 0.0353);fill-opacity:1;"/>
</svg>
