<svg width="24" height="24" viewBox="0 0 24 24" fill="none" xmlns="http://www.w3.org/2000/svg">
<path d="M6.11612 5.11603C5.62796 5.60419 5.62796 6.39564 6.11611 6.8838C6.60427 7.37196 7.39572 7.37196 7.88388 6.88381C8.44337 6.32433 8.99939 5.76661 9.55463 5.20968C9.95297 4.81012 10.3515 4.41041 10.75 4.0113L10.75 14.9999C10.75 15.6903 11.3096 16.2499 12 16.2499C12.6903 16.2499 13.25 15.6903 13.25 14.9999L13.25 4.01644C13.6464 4.41298 14.0427 4.80953 14.4391 5.20616L14.4421 5.20916C14.9998 5.76715 15.5576 6.3253 16.1161 6.88381C16.6043 7.37196 17.3957 7.37196 17.8839 6.8838C18.372 6.39564 18.372 5.60419 17.8839 5.11603C17.3261 4.55821 16.7679 3.99968 16.2095 3.441L16.2061 3.4376C15.4506 2.68161 14.6947 1.92533 13.9391 1.17012C12.8691 0.100659 11.1334 0.0956445 10.0594 1.16678C9.29943 1.92474 8.53837 2.68812 7.77878 3.45002C7.22351 4.00696 6.66879 4.56337 6.11612 5.11603Z" fill="#080809" style="fill:#080809;fill:color(display-p3 0.0314 0.0314 0.0353);fill-opacity:1;"/>
<path d="M8.24393 10.3767C8.31193 11.0637 7.81014 11.6758 7.12314 11.7438C6.25907 11.8293 5.95262 12.0002 5.76537 12.1886C5.59558 12.3595 5.44034 12.6292 5.34883 13.3142C5.25263 14.0344 5.25 15.0032 5.25 16.4615V16.9647C5.25 18.1739 5.25184 18.9768 5.31973 19.5828C5.38485 20.1642 5.49738 20.4078 5.61397 20.5607C5.70745 20.6833 5.81633 20.7929 5.93772 20.8866C6.08758 21.0023 6.32631 21.1146 6.90116 21.1798C7.50172 21.248 8.29796 21.2498 9.5 21.2498H14.5C15.702 21.2498 16.4983 21.248 17.0989 21.1798C17.6737 21.1146 17.9124 21.0023 18.0623 20.8866C18.1837 20.7929 18.2926 20.6833 18.386 20.5607C18.5026 20.4078 18.6152 20.1642 18.6803 19.5828C18.7482 18.9768 18.75 18.1739 18.75 16.9647V16.4615C18.75 15.0032 18.7474 14.0344 18.6512 13.3142C18.5597 12.6292 18.4044 12.3595 18.2346 12.1886C18.0474 12.0002 17.7409 11.8293 16.8769 11.7438C16.1899 11.6758 15.6881 11.0637 15.7561 10.3767C15.8241 9.68971 16.4361 9.18792 17.1231 9.25593C18.2092 9.36344 19.2155 9.62887 20.008 10.4265C20.7169 11.1399 21.001 12.0239 21.1292 12.9832C21.2501 13.8885 21.2501 15.0258 21.25 16.3766L21.25 17.0346C21.25 18.1553 21.2501 19.0994 21.1647 19.8611C21.0749 20.6633 20.8774 21.4164 20.3741 22.0765C20.1484 22.3726 19.8849 22.6378 19.5903 22.8653C18.9322 23.3735 18.1806 23.5731 17.3807 23.6639C16.6224 23.7499 15.6832 23.7499 14.5705 23.7499H9.4295C8.31684 23.7499 7.37757 23.7499 6.61933 23.6639C5.81941 23.5731 5.06778 23.3735 4.40972 22.8653C4.11512 22.6378 3.85164 22.3726 3.62592 22.0765C3.12257 21.4164 2.92513 20.6633 2.83527 19.8611C2.74994 19.0994 2.74997 18.1553 2.75 17.0346L2.75 16.3767C2.74995 15.0259 2.74991 13.8885 2.87085 12.9832C2.99901 12.0239 3.28311 11.1399 3.99199 10.4265C4.78453 9.62887 5.79077 9.36344 6.87687 9.25593C7.56387 9.18792 8.17592 9.68971 8.24393 10.3767Z" fill="#080809" style="fill:#080809;fill:color(display-p3 0.0314 0.0314 0.0353);fill-opacity:1;"/>
</svg>
