<svg width="24" height="24" viewBox="0 0 24 24" fill="none" xmlns="http://www.w3.org/2000/svg">
<path d="M15.2122 4.30347C15.3797 3.63372 14.9725 2.95505 14.3027 2.78762C13.633 2.62018 12.9543 3.02738 12.7869 3.69713L8.78689 19.6971C8.61945 20.3669 9.02666 21.0455 9.6964 21.213C10.3661 21.3804 11.0448 20.9732 11.2122 20.3035L15.2122 4.30347Z" fill="#080809" style="fill:#080809;fill:color(display-p3 0.0314 0.0314 0.0353);fill-opacity:1;"/>
<path d="M6.88364 6.11636C6.39549 5.6282 5.60403 5.62821 5.11588 6.11636L1.17655 10.0557C0.102608 11.1296 0.102611 12.8708 1.17655 13.9448L5.11588 17.8841C5.60403 18.3723 6.39549 18.3723 6.88364 17.8841C7.3718 17.396 7.3718 16.6045 6.88365 16.1164L2.94432 12.177C2.84669 12.0794 2.84669 11.9211 2.94432 11.8235L6.88365 7.88413C7.3718 7.39597 7.3718 6.60451 6.88364 6.11636Z" fill="#080809" style="fill:#080809;fill:color(display-p3 0.0314 0.0314 0.0353);fill-opacity:1;"/>
<path d="M17.1154 6.11636C17.6035 5.6282 18.395 5.62821 18.8832 6.11636L22.8225 10.0557C23.8964 11.1296 23.8964 12.8708 22.8225 13.9448L18.8832 17.8841C18.395 18.3723 17.6035 18.3723 17.1154 17.8841C16.6272 17.396 16.6272 16.6045 17.1154 16.1164L21.0547 12.177C21.1523 12.0794 21.1523 11.9211 21.0547 11.8235L17.1154 7.88413C16.6272 7.39597 16.6272 6.60451 17.1154 6.11636Z" fill="#080809" style="fill:#080809;fill:color(display-p3 0.0314 0.0314 0.0353);fill-opacity:1;"/>
</svg>
