<svg width="24" height="24" viewBox="0 0 24 24" fill="none" xmlns="http://www.w3.org/2000/svg">
<path d="M18.5505 1.10465C18.9267 0.298449 20.0731 0.298453 20.4494 1.10465L20.6637 1.56402C21.028 2.34454 21.6554 2.97193 22.4359 3.3362L22.8953 3.55059C23.7015 3.92684 23.7015 5.07323 22.8953 5.44948L22.4359 5.66387C21.6554 6.02814 21.028 6.65553 20.6637 7.43605L20.4494 7.89542C20.0731 8.70162 18.9267 8.70162 18.5505 7.89542L18.3361 7.43605C17.9718 6.65553 17.3444 6.02814 16.5639 5.66387L16.1045 5.44948C15.2983 5.07322 15.2983 3.92684 16.1045 3.55059L16.5639 3.3362C17.3444 2.97193 17.9718 2.34454 18.3361 1.56402L18.5505 1.10465Z" fill="#080809" style="fill:#080809;fill:color(display-p3 0.0314 0.0314 0.0353);fill-opacity:1;"/>
<path d="M11 3C6.58172 3 3 6.58172 3 11C3 15.4183 6.58172 19 11 19C15.2774 19 18.7713 15.6425 18.9892 11.4199C19.0177 10.8683 19.4878 10.4443 20.0394 10.4727C20.591 10.5012 21.015 10.9714 20.9865 11.5229C20.8731 13.7207 20.0504 15.7308 18.7429 17.3287L22.7071 21.2929C23.0976 21.6834 23.0976 22.3166 22.7071 22.7071C22.3166 23.0976 21.6834 23.0976 21.2929 22.7071L17.3287 18.743C15.6049 20.1537 13.4014 21 11 21C5.47715 21 1 16.5228 1 11C1 5.47715 5.47715 1 11 1C11.8271 1 12.6321 1.10063 13.4028 1.2908C13.939 1.4231 14.2665 1.96503 14.1342 2.50124C14.0019 3.03744 13.4599 3.36487 12.9237 3.23257C12.3085 3.08078 11.6644 3 11 3Z" fill="#080809" style="fill:#080809;fill:color(display-p3 0.0314 0.0314 0.0353);fill-opacity:1;"/>
</svg>
