<svg width="24" height="24" viewBox="0 0 24 24" fill="none" xmlns="http://www.w3.org/2000/svg">
<path d="M17.3827 9.07615C17.7564 9.23093 18 9.59557 18 10V14C18 14.4045 17.7564 14.7691 17.3827 14.9239C17.009 15.0787 16.5789 14.9931 16.2929 14.7071L14.2929 12.7071C13.9024 12.3166 13.9024 11.6834 14.2929 11.2929L16.2929 9.29292C16.5789 9.00692 17.009 8.92137 17.3827 9.07615Z" fill="#080809" style="fill:#080809;fill:color(display-p3 0.0314 0.0314 0.0353);fill-opacity:1;"/>
<path d="M4.5 10C4.5 9.44771 4.94772 9 5.5 9H6.5C7.05229 9 7.5 9.44772 7.5 10C7.5 10.5523 7.05229 11 6.5 11H5.5C4.94772 11 4.5 10.5523 4.5 10Z" fill="#080809" style="fill:#080809;fill:color(display-p3 0.0314 0.0314 0.0353);fill-opacity:1;"/>
<path d="M5.5 13C4.94772 13 4.5 13.4477 4.5 14C4.5 14.5523 4.94772 15 5.5 15H6.5C7.05229 15 7.5 14.5523 7.5 14C7.5 13.4477 7.05229 13 6.5 13H5.5Z" fill="#080809" style="fill:#080809;fill:color(display-p3 0.0314 0.0314 0.0353);fill-opacity:1;"/>
<path fill-rule="evenodd" clip-rule="evenodd" d="M11 0.996582V1.0005C11.2995 0.999994 11.6079 0.999997 11.9252 1H12.0748C14.3684 0.999978 16.1914 0.99996 17.6196 1.19198C19.0921 1.38994 20.2936 1.80836 21.2426 2.75736C22.1916 3.70636 22.6101 4.90794 22.808 6.38039C23 7.80859 23 9.63165 23 11.9252V12.0748C23 14.3684 23 16.1914 22.808 17.6196C22.6101 19.0921 22.1916 20.2936 21.2426 21.2426C20.2936 22.1916 19.0921 22.6101 17.6196 22.808C16.1914 23 14.3683 23 12.0748 23H11.9252C11.6079 23 11.2995 23 11 22.9995V23.0032L10.2256 22.9966C9.68019 22.9932 9.16658 22.9862 8.68337 22.972C7.82178 22.9468 7.0568 22.899 6.38039 22.808C4.90794 22.6101 3.70636 22.1916 2.75736 21.2426C1.80836 20.2936 1.38994 19.0921 1.19198 17.6196C0.99996 16.1914 0.999978 14.3683 1 12.0748V11.9252C0.999989 10.7381 0.999978 9.67702 1.0266 8.7315C1.0514 7.8502 1.09934 7.06928 1.19198 6.38027C1.38995 4.90782 1.80836 3.70624 2.75736 2.75724C3.55902 1.95559 4.54356 1.53041 5.7254 1.29891C6.87932 1.07288 8.28842 1.01957 9.99153 1.00513L11 0.996582ZM11 20.9993C11.3191 21 11.6521 21 12 21C14.3853 21 16.0737 20.9979 17.3531 20.8259C18.6038 20.6577 19.313 20.3439 19.8284 19.8284C20.3439 19.313 20.6577 18.6038 20.8259 17.3531C20.9979 16.0737 21 14.3853 21 12C21 9.61471 20.9979 7.92634 20.8259 6.64689C20.6577 5.39621 20.3439 4.68704 19.8284 4.17157C19.313 3.65611 18.6038 3.34229 17.3531 3.17414C16.0737 3.00212 14.3853 3 12 3C11.6521 3 11.3191 3.00005 11 3.00066V20.9993ZM8.73522 3.02725C8.82209 3.02473 8.91034 3.02244 9 3.02037V20.9795C7.79529 20.9513 6.86233 20.8855 6.10985 20.7381C5.18741 20.5575 4.61074 20.2675 4.17158 19.8283C3.65611 19.3128 3.3423 18.6037 3.17415 17.353C3.08659 16.7018 3.04305 15.9446 3.0214 15.0436C3.00317 14.285 3.00046 13.4243 3.00007 12.439C3.00001 12.2953 3 12.149 3 11.9999C3 10.5091 3.00083 9.2905 3.04345 8.27385C3.06902 7.66391 3.10964 7.12665 3.17414 6.64689C3.34229 5.39621 3.65611 4.68704 4.17157 4.17157C4.68704 3.65611 5.39621 3.34229 6.64689 3.17414C6.91785 3.13771 7.20715 3.1089 7.51753 3.08612C7.88853 3.05899 8.29276 3.04017 8.73522 3.02725Z" fill="#080809" style="fill:#080809;fill:color(display-p3 0.0314 0.0314 0.0353);fill-opacity:1;"/>
</svg>
