<svg width="24" height="24" viewBox="0 0 24 24" fill="none" xmlns="http://www.w3.org/2000/svg">
<g clip-path="url(#clip0_29901_26470)">
<path d="M12 0.5C5.64873 0.5 0.5 5.64873 0.5 12C0.5 14.4805 1.28647 16.7803 2.62355 18.6597C2.94371 19.1097 3.56806 19.215 4.01808 18.8948C4.4681 18.5747 4.57337 17.9503 4.25322 17.5003C3.14909 15.9483 2.5 14.0514 2.5 12C2.5 6.7533 6.75329 2.5 12 2.5C17.2467 2.5 21.5 6.7533 21.5 12C21.5 14.0514 20.8509 15.9483 19.7468 17.5003C19.4266 17.9503 19.5319 18.5747 19.9819 18.8948C20.4319 19.215 21.0563 19.1097 21.3764 18.6597C22.7135 16.7803 23.5 14.4805 23.5 12C23.5 5.64873 18.3513 0.5 12 0.5Z" fill="#080809" style="fill:#080809;fill:color(display-p3 0.0314 0.0314 0.0353);fill-opacity:1;"/>
<path d="M4.5 12C4.5 7.85787 7.85786 4.5 12 4.5C16.1421 4.5 19.5 7.85787 19.5 12C19.5 13.0773 19.2722 14.1041 18.8613 15.0327C18.6378 15.5377 18.0472 15.766 17.5421 15.5424C17.0371 15.3189 16.8089 14.7283 17.0324 14.2233C17.3327 13.5447 17.5 12.7932 17.5 12C17.5 8.96243 15.0376 6.5 12 6.5C8.96243 6.5 6.5 8.96243 6.5 12C6.5 12.7932 6.66731 13.5447 6.96762 14.2233C7.19113 14.7283 6.96291 15.3189 6.45787 15.5424C5.95284 15.766 5.36223 15.5377 5.13872 15.0327C4.72776 14.1041 4.5 13.0773 4.5 12Z" fill="#080809" style="fill:#080809;fill:color(display-p3 0.0314 0.0314 0.0353);fill-opacity:1;"/>
<path fill-rule="evenodd" clip-rule="evenodd" d="M12 8.5C10.067 8.5 8.5 10.067 8.5 12C8.5 13.933 10.067 15.5 12 15.5C13.933 15.5 15.5 13.933 15.5 12C15.5 10.067 13.933 8.5 12 8.5ZM10.5 12C10.5 11.1716 11.1716 10.5 12 10.5C12.8284 10.5 13.5 11.1716 13.5 12C13.5 12.8284 12.8284 13.5 12 13.5C11.1716 13.5 10.5 12.8284 10.5 12Z" fill="#080809" style="fill:#080809;fill:color(display-p3 0.0314 0.0314 0.0353);fill-opacity:1;"/>
<path fill-rule="evenodd" clip-rule="evenodd" d="M10.3333 16.5C7.9401 16.5 6 18.4401 6 20.8333C6 22.3061 7.19391 23.5 8.66667 23.5H15.3333C16.8061 23.5 18 22.3061 18 20.8333C18 18.4401 16.0599 16.5 13.6667 16.5H10.3333ZM8 20.8333C8 19.5447 9.04467 18.5 10.3333 18.5H13.6667C14.9553 18.5 16 19.5447 16 20.8333C16 21.2015 15.7015 21.5 15.3333 21.5H8.66667C8.29848 21.5 8 21.2015 8 20.8333Z" fill="#080809" style="fill:#080809;fill:color(display-p3 0.0314 0.0314 0.0353);fill-opacity:1;"/>
</g>
<defs>
<clipPath id="clip0_29901_26470">
<rect width="24" height="24" fill="white" style="fill:white;fill-opacity:1;"/>
</clipPath>
</defs>
</svg>
