<svg width="24" height="24" viewBox="0 0 24 24" fill="none" xmlns="http://www.w3.org/2000/svg">
<path fill-rule="evenodd" clip-rule="evenodd" d="M11 22C11 22.553 11.447 23 12 23C12.553 23 13 22.553 13 22V21C14.9087 20.9977 16.659 19.8762 17.4612 18.141C18.0702 16.821 18.0662 15.309 17.4502 13.992C16.8332 12.676 15.6752 11.704 14.2712 11.326L13 10.984V5.0925C14.756 5.42283 15.6514 6.5379 15.7042 6.606C16.0382 7.044 16.6622 7.132 17.1002 6.8C17.5422 6.469 17.6322 5.842 17.3002 5.4C17.2346 5.31193 15.8009 3.44397 13 3.06624V2C13 1.448 12.553 1 12 1C11.447 1 11 1.448 11 2V3H10.7502C8.98218 3 7.39118 3.983 6.59918 5.566C5.97318 6.818 5.94318 8.268 6.51618 9.544C7.08918 10.821 8.19218 11.762 9.54418 12.126L11 12.5177V18.9166C8.85231 18.543 7.89927 17.0524 7.85818 16.986C7.57418 16.512 6.96118 16.358 6.48618 16.643C6.01218 16.927 5.85918 17.541 6.14318 18.015C6.20981 18.1264 7.6855 20.5217 11 20.9385V22ZM11 10.4458V5.001H10.7502C9.74318 5.001 8.83818 5.561 8.38818 6.461C8.03218 7.173 8.01518 7.999 8.34118 8.725C8.66718 9.451 9.29518 9.987 10.0642 10.194L11 10.4458ZM13 13.0559V19.001C14.1317 18.9987 15.169 18.3332 15.6442 17.304C16.0062 16.52 16.0032 15.622 15.6382 14.84C15.2722 14.059 14.5842 13.483 13.7512 13.258L13 13.0559Z" fill="#080809" style="fill:#080809;fill:color(display-p3 0.0314 0.0314 0.0353);fill-opacity:1;"/>
</svg>
