<svg width="24" height="24" viewBox="0 0 24 24" fill="none" xmlns="http://www.w3.org/2000/svg">
<path fill-rule="evenodd" clip-rule="evenodd" d="M17.8032 5.79707L12.3032 4.04707C12.1059 3.98431 11.8941 3.98431 11.6968 4.04707L6.1968 5.79707C5.78182 5.92911 5.5 6.31452 5.5 6.75V13.5C5.5 17.0899 8.41015 20 12 20C15.5899 20 18.5 17.0899 18.5 13.5V6.75C18.5 6.31452 18.2182 5.92911 17.8032 5.79707ZM7.5 13.5V7.48122L12 6.0494L16.5 7.48122V13.5C16.5 15.9853 14.4853 18 12 18C9.51472 18 7.5 15.9853 7.5 13.5Z" fill="#080809" style="fill:#080809;fill:color(display-p3 0.0314 0.0314 0.0353);fill-opacity:1;"/>
<path fill-rule="evenodd" clip-rule="evenodd" d="M12.3162 0.551317C12.111 0.482894 11.889 0.482894 11.6838 0.551317L2.68377 3.55132C2.27543 3.68743 2 4.06957 2 4.5V13.5C2 19.0228 6.47715 23.5 12 23.5C17.5228 23.5 22 19.0228 22 13.5V4.5C22 4.06957 21.7246 3.68743 21.3162 3.55132L12.3162 0.551317ZM4 13.5V5.22076L12 2.55409L20 5.22076V13.5C20 17.9183 16.4183 21.5 12 21.5C7.58172 21.5 4 17.9183 4 13.5Z" fill="#080809" style="fill:#080809;fill:color(display-p3 0.0314 0.0314 0.0353);fill-opacity:1;"/>
</svg>
