<svg width="24" height="24" viewBox="0 0 24 24" fill="none" xmlns="http://www.w3.org/2000/svg">
<path d="M10.5 7.5C11.1904 7.5 11.75 6.94036 11.75 6.25C11.75 5.55964 11.1904 5 10.5 5C9.80964 5 9.25 5.55964 9.25 6.25C9.25 6.94036 9.80964 7.5 10.5 7.5Z" fill="#080809" style="fill:#080809;fill:color(display-p3 0.0314 0.0314 0.0353);fill-opacity:1;"/>
<path d="M6.75 6.25C6.75 6.94036 6.19036 7.5 5.5 7.5C4.80964 7.5 4.25 6.94036 4.25 6.25C4.25 5.55964 4.80964 5 5.5 5C6.19036 5 6.75 5.55964 6.75 6.25Z" fill="#080809" style="fill:#080809;fill:color(display-p3 0.0314 0.0314 0.0353);fill-opacity:1;"/>
<path d="M19.75 13.75C19.75 14.4404 19.1904 15 18.5 15C17.8096 15 17.25 14.4404 17.25 13.75C17.25 13.0596 17.8096 12.5 18.5 12.5C19.1904 12.5 19.75 13.0596 19.75 13.75Z" fill="#080809" style="fill:#080809;fill:color(display-p3 0.0314 0.0314 0.0353);fill-opacity:1;"/>
<path d="M13.5 15C14.1904 15 14.75 14.4404 14.75 13.75C14.75 13.0596 14.1904 12.5 13.5 12.5C12.8096 12.5 12.25 13.0596 12.25 13.75C12.25 14.4404 12.8096 15 13.5 15Z" fill="#080809" style="fill:#080809;fill:color(display-p3 0.0314 0.0314 0.0353);fill-opacity:1;"/>
<path d="M13.0895 17.5866C13.2516 17.2294 13.6077 17 14 17H18C18.3923 17 18.7484 17.2294 18.9106 17.5866C19.0727 17.9438 19.0111 18.3629 18.7529 18.6582C18.0113 19.5064 17.0413 20 16 20C14.9588 20 13.9888 19.5064 13.2472 18.6582C12.989 18.3629 12.9273 17.9438 13.0895 17.5866Z" fill="#080809" style="fill:#080809;fill:color(display-p3 0.0314 0.0314 0.0353);fill-opacity:1;"/>
<path fill-rule="evenodd" clip-rule="evenodd" d="M3 1C1.89543 1 1 1.89543 1 3V9C1 12.866 4.13401 16 8 16C8.33952 16 8.6734 15.9758 9 15.9291V16.5C9 20.366 12.134 23.5 16 23.5C19.866 23.5 23 20.366 23 16.5V10.5C23 9.39543 22.1046 8.5 21 8.5H15V3C15 1.89543 14.1046 1 13 1H3ZM13 8.5V3H3V9C3 11.7614 5.23858 14 8 14C8.34247 14 8.67689 13.9656 9 13.9V11.1505C8.19219 10.8942 7.1993 10.967 6.49662 11.3689C6.0172 11.6431 5.40629 11.4767 5.13211 10.9973C4.85792 10.5178 5.0243 9.90692 5.50372 9.63274C6.65944 8.97178 8.1678 8.82931 9.47554 9.20533C9.84239 8.77379 10.3892 8.5 11 8.5H13ZM21 10.5H11V16.5C11 19.2614 13.2386 21.5 16 21.5C18.7614 21.5 21 19.2614 21 16.5V10.5Z" fill="#080809" style="fill:#080809;fill:color(display-p3 0.0314 0.0314 0.0353);fill-opacity:1;"/>
</svg>
