<svg width="24" height="24" viewBox="0 0 24 24" fill="none" xmlns="http://www.w3.org/2000/svg">
<g clip-path="url(#clip0_29901_28046)">
<path fill-rule="evenodd" clip-rule="evenodd" d="M13.1876 0.931446C12.4529 0.507227 11.5476 0.507226 10.8128 0.931445L6.68837 3.3127C5.95361 3.73692 5.50098 4.5209 5.50098 5.36934V10.1319C5.50098 10.9803 5.95361 11.7643 6.68837 12.1885L10.8128 14.5698C11.5476 14.994 12.4529 14.994 13.1876 14.5698L17.3121 12.1885C18.0468 11.7643 18.4995 10.9803 18.4995 10.1319V5.36934C18.4995 4.5209 18.0468 3.73692 17.3121 3.3127L13.1876 0.931446ZM16.9006 4.92201C17.1077 5.28074 16.9848 5.73943 16.6261 5.94653L12.7509 8.18378V12.6572C12.7509 13.0714 12.4151 13.4072 12.0009 13.4072C11.5866 13.4072 11.2509 13.0714 11.2509 12.6572V8.18378L7.37612 5.94682C7.01739 5.73972 6.89448 5.28103 7.10157 4.92231C7.30867 4.56358 7.76736 4.44067 8.12609 4.64776L12.0009 6.88475L15.8761 4.64747C16.2348 4.44037 16.6935 4.56329 16.9006 4.92201Z" fill="#080809" style="fill:#080809;fill:color(display-p3 0.0314 0.0314 0.0353);fill-opacity:1;"/>
<path d="M3.72616 9.72016C4.10615 10.1209 4.08931 10.7539 3.68853 11.1339C2.8766 11.9037 2.5 12.7154 2.5 13.5009C2.5 14.644 3.31993 15.8744 5.07152 16.8753C6.70697 17.8098 8.99464 18.4347 11.5807 18.4959L10.7929 17.7081C10.4024 17.3176 10.4024 16.6844 10.7929 16.2939C11.1834 15.9033 11.8166 15.9033 12.2071 16.2939L14 18.0868C14.781 18.8678 14.781 20.1341 14 20.9152L12.2071 22.7081C11.8166 23.0986 11.1834 23.0986 10.7929 22.7081C10.4024 22.3176 10.4024 21.6844 10.7929 21.2939L11.5901 20.4966C8.70748 20.4366 6.06255 19.7451 4.07924 18.6118C2.03058 17.4411 0.5 15.6715 0.5 13.5009C0.5 12.0237 1.21931 10.719 2.31245 9.68253C2.71322 9.30254 3.34616 9.31939 3.72616 9.72016Z" fill="#080809" style="fill:#080809;fill:color(display-p3 0.0314 0.0314 0.0353);fill-opacity:1;"/>
<path d="M20.2738 9.72016C20.6538 9.31939 21.2868 9.30254 21.6876 9.68253C22.7807 10.719 23.5 12.0237 23.5 13.5009C23.5 16.1696 21.2129 18.2212 18.3708 19.3542C17.8578 19.5587 17.2761 19.3086 17.0716 18.7955C16.8671 18.2825 17.1172 17.7008 17.6302 17.4963C20.228 16.4608 21.5 14.9097 21.5 13.5009C21.5 12.7154 21.1234 11.9037 20.3115 11.1339C19.9107 10.7539 19.8938 10.1209 20.2738 9.72016Z" fill="#080809" style="fill:#080809;fill:color(display-p3 0.0314 0.0314 0.0353);fill-opacity:1;"/>
</g>
<defs>
<clipPath id="clip0_29901_28046">
<rect width="24" height="24" fill="white" style="fill:white;fill-opacity:1;"/>
</clipPath>
</defs>
</svg>
