<svg width="24" height="25" viewBox="0 0 24 25" fill="none" xmlns="http://www.w3.org/2000/svg">
<path d="M11 18H9V12H11V18Z" fill="#080809" style="fill:#080809;fill:color(display-p3 0.0314 0.0314 0.0353);fill-opacity:1;"/>
<path d="M15 18H13V12H15V18Z" fill="#080809" style="fill:#080809;fill:color(display-p3 0.0314 0.0314 0.0353);fill-opacity:1;"/>
<path fill-rule="evenodd" clip-rule="evenodd" d="M13.1572 1C13.558 1.00476 13.9584 1.03456 14.335 1.19043C14.7115 1.34641 15.0159 1.60864 15.3027 1.88867L20.1113 6.69727C20.3914 6.98404 20.6536 7.28853 20.8096 7.66504C20.9655 8.0416 20.9952 8.44198 21 8.84277V17C21 18.3857 21.0017 19.5258 20.8809 20.4248C20.7561 21.3526 20.4842 22.172 19.8281 22.8281C19.172 23.4842 18.3526 23.7561 17.4248 23.8809C16.5258 24.0017 15.3858 24 14 24H10C8.61418 24 7.47422 24.0017 6.5752 23.8809C5.64739 23.7561 4.82797 23.4842 4.17188 22.8281C3.51589 22.172 3.24388 21.3526 3.11914 20.4248C2.99833 19.5258 3 18.3857 3 17V8C3 6.61425 2.9983 5.47419 3.11914 4.5752C3.2439 3.64744 3.51581 2.82794 4.17188 2.17188C4.82797 1.51583 5.64741 1.24388 6.5752 1.11914C7.47422 0.998298 8.61419 1 10 1H13.1572ZM8 10C7.44776 10 7.00004 10.4478 7 11V19C7 19.5523 7.44773 20 8 20H16C16.5523 20 17 19.5523 17 19V11C17 10.4477 16.5523 10 16 10H8Z" fill="#080809" style="fill:#080809;fill:color(display-p3 0.0314 0.0314 0.0353);fill-opacity:1;"/>
</svg>
