<svg width="24" height="24" viewBox="0 0 24 24" fill="none" xmlns="http://www.w3.org/2000/svg">
<path d="M0.5 4C0.5 2.89543 1.39543 2 2.5 2H21.5C22.6046 2 23.5 2.89543 23.5 4V7.5C23.5 8.32843 22.8284 9 22 9H2C1.17158 9 0.5 8.32843 0.5 7.5V4Z" fill="#080809" style="fill:#080809;fill:color(display-p3 0.0314 0.0314 0.0353);fill-opacity:1;"/>
<path fill-rule="evenodd" clip-rule="evenodd" d="M1.5 11.5C1.5 10.9477 1.94772 10.5 2.5 10.5H21.5C22.0523 10.5 22.5 10.9477 22.5 11.5L22.5 17.0658C22.5001 17.9523 22.5001 18.7161 22.4179 19.3278C22.3297 19.9833 22.131 20.6117 21.6213 21.1213C21.1117 21.631 20.4833 21.8297 19.8278 21.9179C19.2161 22.0001 18.4523 22.0001 17.5658 22H6.43417C5.54769 22.0001 4.78387 22.0001 4.17221 21.9179C3.5167 21.8297 2.88835 21.631 2.37868 21.1213C1.86902 20.6117 1.67028 19.9833 1.58215 19.3278C1.49991 18.7161 1.49995 17.9523 1.5 17.0658L1.5 11.5ZM10 12C9.44771 12 9 12.4477 9 13C9 13.5523 9.44771 14 10 14H14C14.5523 14 15 13.5523 15 13C15 12.4477 14.5523 12 14 12H10Z" fill="#080809" style="fill:#080809;fill:color(display-p3 0.0314 0.0314 0.0353);fill-opacity:1;"/>
</svg>
