<svg width="24" height="24" viewBox="0 0 24 24" fill="none" xmlns="http://www.w3.org/2000/svg">
<g clip-path="url(#clip0_29901_28033)">
<path d="M16.2558 5.13753C15.2487 5.00213 13.9139 5 12 5H10.5C9.94771 5 9.5 4.55229 9.5 4C9.5 3.44772 9.94771 3 10.5 3H12.0732C13.8966 2.99997 15.3664 2.99995 16.5223 3.15537C17.7225 3.31672 18.733 3.66191 19.5355 4.46447C20.3381 5.26702 20.6833 6.27752 20.8446 7.47767C21 8.63361 21 10.1034 21 11.9268V17.5859L21.7929 16.793C22.1834 16.4025 22.8166 16.4025 23.2071 16.793C23.5976 17.1836 23.5976 17.8167 23.2071 18.2073L21.4142 20.0002C20.6332 20.7812 19.3668 20.7812 18.5858 20.0002L16.7929 18.2073C16.4024 17.8167 16.4024 17.1836 16.7929 16.793C17.1834 16.4025 17.8166 16.4025 18.2071 16.793L19 17.5859V12C19 10.0861 18.9979 8.7513 18.8625 7.74416C18.7309 6.7658 18.4903 6.2477 18.1213 5.87868C17.7523 5.50966 17.2342 5.26907 16.2558 5.13753Z" fill="#080809" style="fill:#080809;fill:color(display-p3 0.0314 0.0314 0.0353);fill-opacity:1;"/>
<path d="M5.41421 3.99985C4.63317 3.2188 3.36684 3.2188 2.58579 3.99985L0.792893 5.79274C0.402369 6.18327 0.402369 6.81643 0.792893 7.20696C1.18342 7.59748 1.81658 7.59748 2.20711 7.20696L3 6.41406V12.0732C2.99997 13.8966 2.99995 15.3664 3.15536 16.5223C3.31672 17.7225 3.66191 18.733 4.46447 19.5355C5.26702 20.3381 6.27752 20.6833 7.47766 20.8446C8.63361 21 10.1034 21 11.9268 21L13.5 21C14.0523 21 14.5 20.5523 14.5 20C14.5 19.4477 14.0523 19 13.5 19H12C10.0861 19 8.7513 18.9979 7.74416 18.8625C6.76579 18.7309 6.2477 18.4903 5.87868 18.1213C5.50966 17.7523 5.26907 17.2342 5.13753 16.2558C5.00212 15.2487 5 13.9139 5 12V6.41406L5.79289 7.20696C6.18342 7.59748 6.81658 7.59748 7.20711 7.20696C7.59763 6.81643 7.59763 6.18327 7.20711 5.79274L5.41421 3.99985Z" fill="#080809" style="fill:#080809;fill:color(display-p3 0.0314 0.0314 0.0353);fill-opacity:1;"/>
</g>
<defs>
<clipPath id="clip0_29901_28033">
<rect width="24" height="24" fill="white" style="fill:white;fill-opacity:1;"/>
</clipPath>
</defs>
</svg>
