<svg width="24" height="24" viewBox="0 0 24 24" fill="none" xmlns="http://www.w3.org/2000/svg">
<path fill-rule="evenodd" clip-rule="evenodd" d="M0.5 5C0.5 4.30431 0.907537 3.78561 1.3167 3.44913C1.73279 3.10696 2.27448 2.84342 2.85562 2.64129C4.02728 2.23375 5.58095 2 7.25 2C8.91905 2 10.4727 2.23375 11.6444 2.64129C12.2255 2.84342 12.7672 3.10696 13.1833 3.44913C13.5925 3.78561 14 4.30431 14 5C14 5.69569 13.5925 6.21439 13.1833 6.55087C12.7672 6.89304 12.2255 7.15658 11.6444 7.35871C10.4727 7.76625 8.91905 8 7.25 8C5.58095 8 4.02728 7.76625 2.85562 7.35871C2.73757 7.31765 2.62116 7.27406 2.50709 7.22779L2.5 7.22491V8.924C2.5162 8.94245 2.54335 8.96976 2.58703 9.00568C2.75287 9.14206 3.05324 9.30949 3.51266 9.46928C4.42208 9.78561 5.74341 9.99957 7.25 9.99957C7.25995 9.99957 7.26987 9.99971 7.27975 10H7.5C8.05228 10 8.5 10.4477 8.5 11C8.5 11.5523 8.05228 12 7.5 12H7.25C5.58095 12 4.02728 11.7662 2.85562 11.3587C2.73513 11.3168 2.61633 11.2723 2.5 11.2249V12.924C2.5162 12.9424 2.54335 12.9698 2.58703 13.0057C2.75287 13.1421 3.05324 13.3095 3.51266 13.4693C4.42208 13.7856 5.74341 13.9996 7.25 13.9996H7.5C8.01777 13.9996 8.44363 14.3931 8.49484 14.8973C8.49825 14.9309 8.5 14.965 8.5 14.9996C8.5 15.5519 8.05228 15.9996 7.5 15.9996H7.25C5.58095 15.9996 4.02728 15.7658 2.85562 15.3583C2.73757 15.3172 2.62116 15.2736 2.50709 15.2274L2.5 15.2245V16.924C2.5162 16.9424 2.54335 16.9698 2.58703 17.0057C2.75287 17.1421 3.05324 17.3095 3.51266 17.4693C4.42208 17.7856 5.74341 17.9996 7.25 17.9996H7.5C8.05228 17.9996 8.5 18.4473 8.5 18.9996C8.5 19.5519 8.05228 19.9996 7.5 19.9996H7.25C5.58095 19.9996 4.02728 19.7658 2.85562 19.3583C2.27448 19.1561 1.73279 18.8926 1.3167 18.5504C0.907537 18.214 0.5 17.6953 0.5 16.9996V5ZM2.57965 5L2.58703 4.99389C2.75287 4.8575 3.05324 4.69008 3.51266 4.53028C4.42208 4.21396 5.74341 4 7.25 4C8.75659 4 10.0779 4.21396 10.9873 4.53028C11.4468 4.69008 11.7471 4.8575 11.913 4.99389L11.9203 5L11.913 5.00611C11.7471 5.1425 11.4468 5.30992 10.9873 5.46972C10.0779 5.78604 8.75659 6 7.25 6C5.74341 6 4.42208 5.78604 3.51266 5.46972C3.05324 5.30992 2.75287 5.1425 2.58703 5.00611L2.57965 5ZM2.47875 8.89594C2.47875 8.89594 2.47953 8.898 2.48227 8.90205L2.48144 8.90037C2.48004 8.89823 2.47875 8.89594 2.47875 8.89594Z" fill="#080809" style="fill:#080809;fill:color(display-p3 0.0314 0.0314 0.0353);fill-opacity:1;"/>
<path fill-rule="evenodd" clip-rule="evenodd" d="M23.5 11V18.9996C23.5 19.6953 23.0925 20.214 22.6833 20.5504C22.2672 20.8926 21.7255 21.1561 21.1444 21.3583C19.9727 21.7658 18.419 21.9996 16.75 21.9996C15.081 21.9996 13.5273 21.7658 12.3556 21.3583C11.7745 21.1561 11.2328 20.8926 10.8167 20.5504C10.4075 20.214 10 19.6953 10 18.9996V11C10.0002 10.3045 10.4076 9.78554 10.8167 9.44913C11.2328 9.10696 11.7745 8.84342 12.3556 8.64129C13.5273 8.23375 15.081 8 16.75 8C18.419 8 19.9727 8.23375 21.1444 8.64129C21.7255 8.84342 22.2672 9.10696 22.6833 9.44913C23.0924 9.78554 23.4998 10.3045 23.5 11ZM16.75 15.9996C15.4317 15.9996 14.2553 15.8358 13.3726 15.5829C13.2464 15.5468 13.1263 15.5088 13.0127 15.4693C12.5532 15.3095 12.2529 15.1421 12.087 15.0057C12.0447 14.9708 12.0179 14.9441 12.0015 14.9257L12 14.924V13.2249C12.1163 13.2723 12.2351 13.3168 12.3556 13.3587C13.5273 13.7662 15.081 14 16.75 14C18.419 14 19.9727 13.7662 21.1444 13.3587C21.2649 13.3168 21.3837 13.2723 21.5 13.2249V14.924C21.4838 14.9424 21.4566 14.9698 21.413 15.0057C21.2471 15.1421 20.9468 15.3095 20.4873 15.4693C19.5779 15.7856 18.2566 15.9996 16.75 15.9996ZM21.5186 10.9004L21.5177 10.9021C21.5205 10.898 21.5213 10.8959 21.5213 10.8959L21.5199 10.8982L21.5186 10.9004ZM12.0799 10.9998L12.087 10.9939C12.2529 10.8575 12.5532 10.6901 13.0127 10.5303C13.9221 10.214 15.2434 10 16.75 10C18.2566 10 19.5779 10.214 20.4873 10.5303C20.9468 10.6901 21.2471 10.8575 21.413 10.9939L21.4201 10.9998C21.4178 11.0017 21.4154 11.0037 21.413 11.0057C21.2471 11.1421 20.9468 11.3095 20.4873 11.4693C19.5779 11.7856 18.2566 11.9996 16.75 11.9996C15.2434 11.9996 13.9221 11.7856 13.0127 11.4693C12.5532 11.3095 12.2529 11.1421 12.087 11.0057C12.0846 11.0037 12.0822 11.0017 12.0799 10.9998ZM21.1444 17.3583C21.2649 17.3164 21.3837 17.2718 21.5 17.2245V18.924C21.4838 18.9424 21.4566 18.9698 21.413 19.0057C21.2471 19.1421 20.9468 19.3095 20.4873 19.4693C19.5779 19.7856 18.2566 19.9996 16.75 19.9996C15.2434 19.9996 13.9221 19.7856 13.0127 19.4693C12.5532 19.3095 12.2529 19.1421 12.087 19.0057C12.0434 18.9698 12.0162 18.9424 12 18.924V17.2245C12.1163 17.2718 12.2351 17.3164 12.3556 17.3583C13.5273 17.7658 15.081 17.9996 16.75 17.9996C18.419 17.9996 19.9727 17.7658 21.1444 17.3583ZM11.9787 10.8959C11.9787 10.8959 11.9795 10.898 11.9823 10.9021L11.9814 10.9004C11.98 10.8982 11.9787 10.8959 11.9787 10.8959Z" fill="#080809" style="fill:#080809;fill:color(display-p3 0.0314 0.0314 0.0353);fill-opacity:1;"/>
</svg>
