<svg width="24" height="24" viewBox="0 0 24 24" fill="none" xmlns="http://www.w3.org/2000/svg">
<path fill-rule="evenodd" clip-rule="evenodd" d="M12.7273 4.77796C14.0367 3.52326 15.5012 2.96794 17.2688 3.00143C20.4559 3.06181 23.5611 5.56056 23.4991 9.66971C23.4678 11.8457 22.5866 13.8372 21.306 15.5889L21.2918 15.608L20.5655 16.5534C20.5354 17.234 20.2598 17.9044 19.7429 18.4214L19.707 18.4573C19.2318 18.9325 18.6267 19.1988 18.006 19.2562C17.9487 19.877 17.6824 20.4821 17.2071 20.9574C16.4153 21.7492 15.263 21.9609 14.2784 21.5926C14.1478 21.8632 13.9703 22.1168 13.7458 22.3412L13.3923 22.6948C12.3183 23.7687 10.5771 23.7687 9.50317 22.6948C9.18333 22.3749 8.95875 21.9959 8.82942 21.5929C7.98205 21.7353 7.08083 21.4795 6.42696 20.8256C5.95643 20.3551 5.69205 19.7565 5.63384 19.142C5.02012 19.0834 4.42234 18.8191 3.95235 18.3491C3.36053 17.7573 3.09485 16.9628 3.1553 16.189C1.62239 14.287 0.535873 12.0932 0.500922 9.67005C0.438622 5.55937 3.54459 3.06489 6.73101 3.0046C7.97708 2.98103 9.09829 3.24802 10.1324 3.88718C10.8028 4.30159 11.4088 4.85531 11.9783 5.53869L12.7064 4.79866C12.7132 4.79166 12.7202 4.78476 12.7273 4.77796ZM9.34167 15.4365C9.95539 15.4952 10.5532 15.7595 11.0232 16.2295C11.4254 16.6317 11.6769 17.1275 11.7779 17.6468C12.4894 17.6407 13.2029 17.9092 13.7458 18.4521C14.0897 18.796 14.3598 19.1958 14.7071 19.5431C15.0069 19.843 15.4931 19.843 15.7929 19.5431C16.0928 19.2433 16.0928 18.7572 15.793 18.4573L14.5429 17.2074C14.1524 16.8169 14.1524 16.1837 14.5429 15.7932C14.9334 15.4027 15.5665 15.4026 15.9571 15.7932L17.2072 17.0431C17.5069 17.3429 17.993 17.3429 18.2927 17.0431L18.3286 17.0072C18.6223 16.7135 18.6477 16.2493 18.3959 15.9262L14.4597 11.5538C13.9854 11.0269 13.2069 10.904 12.5933 11.2593L10.9187 12.2288C10.1328 12.6838 9.1393 12.5536 8.49721 11.9115C7.71897 11.1332 7.71385 9.87305 8.48572 9.08852L10.5672 6.97295C10.0612 6.33798 9.57268 5.89244 9.08083 5.58843C8.4157 5.17732 7.68325 4.98695 6.76884 5.00425C4.58711 5.04552 2.45638 6.72492 2.5007 9.64003C2.52337 11.2182 3.14172 12.7585 4.18102 14.2313L4.65946 13.7529C5.7334 12.679 7.47461 12.679 8.54855 13.7529C9.01908 14.2234 9.28346 14.8221 9.34167 15.4365Z" fill="#080809" style="fill:#080809;fill:color(display-p3 0.0314 0.0314 0.0353);fill-opacity:1;"/>
</svg>
