<svg width="24" height="24" viewBox="0 0 24 24" fill="none" xmlns="http://www.w3.org/2000/svg">
<path d="M9.71377 1.75079C11.2866 0.157745 13.9998 1.27147 13.9998 3.51011V7.0128C17.3161 7.14929 19.8199 8.64553 21.4869 10.9097C23.2104 13.2509 23.9998 16.3519 23.9998 19.5026C23.9998 20.4291 23.2447 20.8862 22.7302 21.0034C22.2141 21.1209 21.4078 21.0361 20.9512 20.3334C20.2452 19.247 19.368 18.4332 18.2087 17.8804C17.1357 17.3688 15.7729 17.0581 13.9998 17.0093V20.4902C13.9998 22.7289 11.2866 23.8426 9.71378 22.2496L1.33153 13.7595C0.368656 12.7843 0.368658 11.2162 1.33153 10.2409L9.71377 1.75079Z" fill="#080809" style="fill:#080809;fill:color(display-p3 0.0314 0.0314 0.0353);fill-opacity:1;"/>
</svg>
