<svg width="24" height="24" viewBox="0 0 24 24" fill="none" xmlns="http://www.w3.org/2000/svg">
<path fill-rule="evenodd" clip-rule="evenodd" d="M7.92943 1H10.0706C11.4247 0.999966 12.5413 0.999936 13.4251 1.11875C14.3529 1.2435 15.1723 1.51547 15.8284 2.17158C16.4261 2.76925 16.706 3.5037 16.8451 4.33485C16.9363 4.87955 16.5687 5.39506 16.024 5.48627C15.4793 5.57748 14.9638 5.20985 14.8726 4.66515C14.7748 4.08092 14.6186 3.79019 14.4142 3.58579C14.1916 3.36322 13.8646 3.19585 13.1586 3.10092C12.4238 3.00213 11.4425 3 10 3H8C6.55752 3 5.57625 3.00213 4.84143 3.10092C4.13538 3.19585 3.80836 3.36322 3.58579 3.58579C3.36322 3.80836 3.19585 4.13538 3.10092 4.84143C3.00213 5.57625 3 6.55752 3 8V10C3 11.4425 3.00213 12.4238 3.10092 13.1586C3.19585 13.8646 3.36322 14.1916 3.58579 14.4142C3.79019 14.6186 4.08092 14.7748 4.66515 14.8726C5.20985 14.9638 5.57748 15.4793 5.48627 16.024C5.39506 16.5687 4.87955 16.9363 4.33485 16.8451C3.5037 16.706 2.76925 16.4261 2.17158 15.8284C1.51547 15.1723 1.2435 14.3529 1.11875 13.4251C0.999936 12.5413 0.999966 11.4247 1 10.0706V7.92943C0.999966 6.57531 0.999936 5.4587 1.11875 4.57494C1.2435 3.64711 1.51547 2.82768 2.17158 2.17158C2.82768 1.51547 3.64711 1.2435 4.57494 1.11875C5.4587 0.999936 6.57531 0.999966 7.92943 1Z" fill="#080809" style="fill:#080809;fill:color(display-p3 0.0314 0.0314 0.0353);fill-opacity:1;"/>
<path fill-rule="evenodd" clip-rule="evenodd" d="M13.9294 7H16.0706C17.4247 6.99997 18.5413 6.99994 19.4251 7.11875C20.3529 7.2435 21.1723 7.51547 21.8284 8.17158C22.4845 8.82768 22.7565 9.64711 22.8813 10.5749C23.0001 11.4587 23 12.5753 23 13.9294V16.0706C23 17.4247 23.0001 18.5413 22.8813 19.4251C22.7565 20.3529 22.4845 21.1723 21.8284 21.8284C21.1723 22.4845 20.3529 22.7565 19.4251 22.8813C18.5413 23.0001 17.4247 23 16.0706 23H13.9294C12.5753 23 11.4587 23.0001 10.5749 22.8813C9.64711 22.7565 8.82768 22.4845 8.17158 21.8284C7.51547 21.1723 7.2435 20.3529 7.11875 19.4251C6.99994 18.5413 6.99997 17.4247 7 16.0706V13.9294C6.99997 12.5753 6.99994 11.4587 7.11875 10.5749C7.2435 9.64711 7.51547 8.82768 8.17158 8.17158C8.82768 7.51547 9.64711 7.2435 10.5749 7.11875C11.4587 6.99994 12.5753 6.99997 13.9294 7ZM10.8414 9.10092C10.1354 9.19585 9.80836 9.36322 9.58579 9.58579C9.36322 9.80836 9.19585 10.1354 9.10092 10.8414C9.00213 11.5763 9 12.5575 9 14V16C9 17.4425 9.00213 18.4238 9.10092 19.1586C9.19585 19.8646 9.36322 20.1916 9.58579 20.4142C9.80836 20.6368 10.1354 20.8042 10.8414 20.8991C11.5763 20.9979 12.5575 21 14 21H16C17.4425 21 18.4238 20.9979 19.1586 20.8991C19.8646 20.8042 20.1916 20.6368 20.4142 20.4142C20.6368 20.1916 20.8042 19.8646 20.8991 19.1586C20.9979 18.4238 21 17.4425 21 16V14C21 12.5575 20.9979 11.5763 20.8991 10.8414C20.8042 10.1354 20.6368 9.80836 20.4142 9.58579C20.1916 9.36322 19.8646 9.19585 19.1586 9.10092C18.4238 9.00213 17.4425 9 16 9H14C12.5575 9 11.5763 9.00213 10.8414 9.10092Z" fill="#080809" style="fill:#080809;fill:color(display-p3 0.0314 0.0314 0.0353);fill-opacity:1;"/>
</svg>
