<svg width="24" height="24" viewBox="0 0 24 24" fill="none" xmlns="http://www.w3.org/2000/svg">
<path d="M8 5C7.44772 5 7 5.44772 7 6C7 6.55229 7.44772 7 8 7H16C16.5523 7 17 6.55229 17 6C17 5.44772 16.5523 5 16 5H8Z" fill="#080809" style="fill:#080809;fill:color(display-p3 0.0314 0.0314 0.0353);fill-opacity:1;"/>
<path d="M12.9234 10.116C12.7683 9.74301 12.4041 9.5 12.0001 9.5C11.5962 9.5 11.2319 9.74301 11.0768 10.116L10.3856 11.7778L8.59152 11.9216C8.18888 11.9539 7.8452 12.2253 7.72037 12.6094C7.59555 12.9936 7.71411 13.4151 8.02087 13.6779L9.38778 14.8488L8.97017 16.5995C8.87645 16.9924 9.02831 17.4032 9.35509 17.6406C9.68188 17.878 10.1194 17.8955 10.4641 17.685L12.0001 16.7468L13.5361 17.685C13.8808 17.8955 14.3184 17.878 14.6452 17.6406C14.9719 17.4032 15.1238 16.9924 15.0301 16.5995L14.6125 14.8488L15.9794 13.6779C16.2862 13.4151 16.4047 12.9936 16.2799 12.6094C16.1551 12.2253 15.8114 11.9539 15.4087 11.9216L13.6146 11.7778L12.9234 10.116Z" fill="#080809" style="fill:#080809;fill:color(display-p3 0.0314 0.0314 0.0353);fill-opacity:1;"/>
<path fill-rule="evenodd" clip-rule="evenodd" d="M12.0748 1H11.9252C9.63166 0.999978 7.80859 0.999961 6.38039 1.19198C4.90794 1.38994 3.70636 1.80836 2.75736 2.75736C1.80836 3.70636 1.38994 4.90794 1.19198 6.38039C0.999961 7.80859 0.999978 9.63164 1 11.9252V12.0748C0.999978 14.3683 0.999961 16.1914 1.19198 17.6196C1.38994 19.0921 1.80836 20.2936 2.75736 21.2426C3.70636 22.1916 4.90794 22.6101 6.38039 22.808C7.8086 23 9.63167 23 11.9252 23H12.0748C14.3683 23 16.1914 23 17.6196 22.808C19.0921 22.6101 20.2936 22.1916 21.2426 21.2426C22.1916 20.2936 22.6101 19.0921 22.808 17.6196C23 16.1914 23 14.3683 23 12.0748V11.9252C23 9.63167 23 7.8086 22.808 6.38039C22.6101 4.90794 22.1916 3.70636 21.2426 2.75736C20.2936 1.80836 19.0921 1.38994 17.6196 1.19198C16.1914 0.999961 14.3683 0.999978 12.0748 1ZM3.17414 17.3531C3.00213 16.0737 3 14.3853 3 12C3 9.61471 3.00213 7.92634 3.17414 6.64689C3.34229 5.39621 3.65611 4.68704 4.17157 4.17157C4.68704 3.65611 5.39621 3.34229 6.64689 3.17414C7.92634 3.00213 9.61471 3 12 3C14.3853 3 16.0737 3.00213 17.3531 3.17414C18.6038 3.34229 19.313 3.65611 19.8284 4.17157C20.3439 4.68704 20.6577 5.39621 20.8259 6.64689C20.9979 7.92634 21 9.61471 21 12C21 14.3853 20.9979 16.0737 20.8259 17.3531C20.6577 18.6038 20.3439 19.313 19.8284 19.8284C19.313 20.3439 18.6038 20.6577 17.3531 20.8259C16.0737 20.9979 14.3853 21 12 21C9.61471 21 7.92634 20.9979 6.64689 20.8259C5.39621 20.6577 4.68704 20.3439 4.17157 19.8284C3.65611 19.313 3.34229 18.6038 3.17414 17.3531Z" fill="#080809" style="fill:#080809;fill:color(display-p3 0.0314 0.0314 0.0353);fill-opacity:1;"/>
</svg>
