<svg width="24" height="24" viewBox="0 0 24 24" fill="none" xmlns="http://www.w3.org/2000/svg">
<path fill-rule="evenodd" clip-rule="evenodd" d="M10.0418 8.15579L6.9 5.79945C4.26305 3.82174 0.5 5.70327 0.5 8.99945V14.9994C0.5 18.2956 4.26306 20.1772 6.9 18.1994L10.0417 15.8432C10.3426 15.9446 10.6649 15.9995 11 15.9995H13C13.3351 15.9995 13.6574 15.9446 13.9583 15.8432L17.1 18.1994C19.7369 20.1772 23.5 18.2956 23.5 14.9994V8.99945C23.5 5.70327 19.7369 3.82174 17.1 5.79945L13.9582 8.15579C13.6573 8.05444 13.3351 7.99951 13 7.99951H11C10.6649 7.99951 10.3427 8.05444 10.0418 8.15579ZM8.43165 14.5507C8.15769 14.0981 8 13.5672 8 12.9995H7C6.44772 12.9995 6 12.5518 6 11.9995C6 11.4472 6.44772 10.9995 7 10.9995H8C8 10.4318 8.15771 9.90087 8.4317 9.44822L5.7 7.39945C4.38153 6.4106 2.5 7.35136 2.5 8.99945V14.9994C2.5 16.6475 4.38153 17.5883 5.7 16.5995L8.43165 14.5507ZM15.5683 9.44822C15.8423 9.90087 16 10.4318 16 10.9995H17C17.5523 10.9995 18 11.4472 18 11.9995C18 12.5518 17.5523 12.9995 17 12.9995H16C16 13.5672 15.8423 14.0981 15.5684 14.5507L18.3 16.5995C19.6185 17.5883 21.5 16.6475 21.5 14.9994V8.99945C21.5 7.35136 19.6185 6.4106 18.3 7.39945L15.5683 9.44822ZM10 10.9995C10 10.4472 10.4477 9.99951 11 9.99951H13C13.5523 9.99951 14 10.4472 14 10.9995V12.9995C14 13.5518 13.5523 13.9995 13 13.9995H11C10.4477 13.9995 10 13.5518 10 12.9995V10.9995Z" fill="#080809" style="fill:#080809;fill:color(display-p3 0.0314 0.0314 0.0353);fill-opacity:1;"/>
</svg>
