<svg width="24" height="24" viewBox="0 0 24 24" fill="none" xmlns="http://www.w3.org/2000/svg">
<path fill-rule="evenodd" clip-rule="evenodd" d="M2 6C2 4.34315 3.34315 3 5 3H19C20.6569 3 22 4.34315 22 6V14.5C22 16.1569 20.6569 17.5 19 17.5H5C3.34315 17.5 2 16.1569 2 14.5V6ZM11.25 5C10.8358 5 10.5 5.33579 10.5 5.75C10.5 6.16421 10.8358 6.5 11.25 6.5H12.75C13.1642 6.5 13.5 6.16421 13.5 5.75C13.5 5.33579 13.1642 5 12.75 5H11.25Z" fill="#080809" style="fill:#080809;fill:color(display-p3 0.0314 0.0314 0.0353);fill-opacity:1;"/>
<path d="M1.5 19C0.947715 19 0.5 19.4477 0.5 20C0.5 20.5523 0.947715 21 1.5 21H22.5C23.0523 21 23.5 20.5523 23.5 20C23.5 19.4477 23.0523 19 22.5 19H1.5Z" fill="#080809" style="fill:#080809;fill:color(display-p3 0.0314 0.0314 0.0353);fill-opacity:1;"/>
</svg>
