<svg width="24" height="24" viewBox="0 0 24 24" fill="none" xmlns="http://www.w3.org/2000/svg">
<path d="M16.1163 3.88388C15.6282 3.39573 15.6282 2.60427 16.1163 2.11612C16.6045 1.62796 17.396 1.62796 17.8841 2.11612L20.8235 5.05546C21.8974 6.1294 21.8974 7.8706 20.8235 8.94454L17.8841 11.8839C17.396 12.372 16.6045 12.372 16.1163 11.8839C15.6282 11.3957 15.6282 10.6043 16.1163 10.1161L17.9825 8.25H9C6.37665 8.25 4.25 10.3766 4.25 13C4.25 15.6234 6.37665 17.75 9 17.75H18C18.6904 17.75 19.25 18.3096 19.25 19C19.25 19.6904 18.6904 20.25 18 20.25H9C4.99594 20.25 1.75 17.0041 1.75 13C1.75 8.99594 4.99594 5.75 9 5.75H17.9825L16.1163 3.88388Z" fill="#080809" style="fill:#080809;fill:color(display-p3 0.0314 0.0314 0.0353);fill-opacity:1;"/>
</svg>
