<svg width="24" height="24" viewBox="0 0 24 24" fill="none" xmlns="http://www.w3.org/2000/svg">
<path fill-rule="evenodd" clip-rule="evenodd" d="M1.39637 5.31058C0.810583 4.72479 0.810586 3.77505 1.39637 3.18926L3.18926 1.39637C3.77505 0.810585 4.7248 0.810584 5.31058 1.39637L7.56059 3.64637C7.84189 3.92768 7.99992 4.30921 7.99992 4.70703L7.99993 6.49992C7.99993 6.52792 7.99916 6.55574 7.99764 6.58336L10.1769 8.76264L8.76271 10.1769L6.5835 7.99764C6.55583 7.99916 6.52797 7.99992 6.49992 7.99992H4.70703C4.30921 7.99992 3.92768 7.84189 3.64637 7.56058L1.39637 5.31058ZM3.16414 4.24992L4.91414 5.99992H5.99993L5.99992 4.91414L4.24992 3.16414L3.16414 4.24992Z" fill="#080809" style="fill:#080809;fill:color(display-p3 0.0314 0.0314 0.0353);fill-opacity:1;"/>
<path d="M13.8234 15.2375L14.5864 16.0005L13.8963 16.6909C13.3106 17.2767 13.3108 18.2264 13.8965 18.8121L17.0406 21.9557C18.398 23.3129 20.5987 23.3126 21.9557 21.955C23.3124 20.5977 23.3121 18.3976 21.955 17.0406L18.8106 13.8967C18.2247 13.3109 17.2749 13.311 16.6892 13.8969L16.0003 14.586L15.2376 13.8233L13.8234 15.2375Z" fill="#080809" style="fill:#080809;fill:color(display-p3 0.0314 0.0314 0.0353);fill-opacity:1;"/>
<path d="M13 6C13 3.23858 15.2386 1 18 1C18.199 1 18.3956 1.01167 18.5893 1.03445C18.9699 1.07924 19.2914 1.33761 19.4171 1.69966C19.5428 2.06171 19.4505 2.46375 19.1795 2.73473L16.9445 4.96956C16.6516 5.26243 16.6516 5.7373 16.9445 6.0302L17.9764 7.06216C18.2696 7.34848 18.7397 7.34632 19.0304 7.05561L21.2653 4.8207C21.5363 4.54971 21.9384 4.45743 22.3004 4.58312C22.6624 4.70882 22.9208 5.03038 22.9656 5.41101C22.9883 5.60456 23 5.80113 23 6C23 8.76142 20.7614 11 18 11C17.3794 11 16.7838 10.8865 16.234 10.6789L10.679 16.2343C10.8865 16.784 11 17.3795 11 18C11 20.7614 8.76142 23 6 23C5.80095 23 5.60421 22.9883 5.4105 22.9655C5.0299 22.9207 4.70837 22.6623 4.5827 22.3003C4.45703 21.9383 4.54931 21.5363 4.82029 21.2653L7.05547 19.0301C7.34058 18.745 7.34815 18.287 7.07821 17.9932L6.00669 16.9216C5.71281 16.6516 5.25481 16.6592 4.96967 16.9443L2.73469 19.1793C2.46369 19.4503 2.06164 19.5426 1.6996 19.4169C1.33755 19.2912 1.07918 18.9696 1.03442 18.589C1.01166 18.3954 1 18.1989 1 18C1 15.2386 3.23858 13 6 13C6.62042 13 7.2158 13.1134 7.76546 13.3209L13.3208 7.76515C13.1134 7.21557 13 6.6203 13 6Z" fill="#080809" style="fill:#080809;fill:color(display-p3 0.0314 0.0314 0.0353);fill-opacity:1;"/>
</svg>
