<svg width="24" height="24" viewBox="0 0 24 24" fill="none" xmlns="http://www.w3.org/2000/svg">
<g clip-path="url(#clip0_29901_26807)">
<path d="M13.0002 5V6.10003C13.6926 6.24212 14.2489 6.51604 14.6642 6.79295C14.962 6.99146 15.1881 7.19175 15.344 7.34758C15.4885 7.49212 15.5613 7.58193 15.6115 7.64844C15.9394 8.08449 15.8495 8.72235 15.4127 9.05C14.974 9.37897 14.3531 9.2931 14.0199 8.85953C13.8882 8.70249 13.7246 8.57022 13.5548 8.45705C13.2167 8.23164 12.7033 8 12.0002 8H11.2191C10.7359 8 10.2942 8.27298 10.0779 8.7055C9.717 9.42736 10.1083 10.2988 10.8877 10.5086L13.5165 11.2164C15.5816 11.7724 16.649 14.0534 15.7528 15.9951C15.2425 17.1008 14.1933 17.8474 13.0002 17.9791V19C13.0002 19.5523 12.5524 20 12.0002 20C11.4479 20 11.0002 19.5523 11.0002 19V17.9058C10.1475 17.7402 9.48612 17.3794 9.00763 17.0114C8.68566 16.7637 8.44811 16.5145 8.28759 16.3218C8.20705 16.2252 8.14497 16.1417 8.10047 16.0781C8.06354 16.0253 8.04173 15.9916 8.01992 15.9557L8.01874 15.9538L8.01819 15.9529C8.01819 15.9529 8.02256 15.9601 8.01766 15.952C7.73351 15.4784 7.88707 14.8642 8.36066 14.58C8.83083 14.2979 9.43967 14.4472 9.72646 14.9128C9.73925 14.9324 9.90851 15.1811 10.227 15.4261C10.5912 15.7063 11.1633 16 12.0002 16H12.6207C13.1861 16 13.6995 15.6715 13.9369 15.157C14.3137 14.3405 13.8649 13.3814 12.9966 13.1476L10.3677 12.4399C8.36713 11.9012 7.36253 9.66416 8.28908 7.81107C8.81116 6.7669 9.84591 6.08438 11.0002 6.0073V5C11.0002 4.44772 11.4479 4 12.0002 4C12.5524 4 13.0002 4.44772 13.0002 5Z" fill="#080809" style="fill:#080809;fill:color(display-p3 0.0314 0.0314 0.0353);fill-opacity:1;"/>
<path fill-rule="evenodd" clip-rule="evenodd" d="M12 0.5C5.64873 0.5 0.5 5.64873 0.5 12C0.5 18.3513 5.64873 23.5 12 23.5C18.3513 23.5 23.5 18.3513 23.5 12C23.5 5.64873 18.3513 0.5 12 0.5ZM2.5 12C2.5 6.75329 6.75329 2.5 12 2.5C17.2467 2.5 21.5 6.75329 21.5 12C21.5 17.2467 17.2467 21.5 12 21.5C6.75329 21.5 2.5 17.2467 2.5 12Z" fill="#080809" style="fill:#080809;fill:color(display-p3 0.0314 0.0314 0.0353);fill-opacity:1;"/>
</g>
<defs>
<clipPath id="clip0_29901_26807">
<rect width="24" height="24" fill="white" style="fill:white;fill-opacity:1;"/>
</clipPath>
</defs>
</svg>
