<svg width="24" height="24" viewBox="0 0 24 24" fill="none" xmlns="http://www.w3.org/2000/svg">
<g clip-path="url(#clip0_29901_28182)">
<path fill-rule="evenodd" clip-rule="evenodd" d="M0.5 12C0.5 5.64873 5.64873 0.5 12 0.5C18.3513 0.5 23.5 5.64873 23.5 12C23.5 18.3513 18.3513 23.5 12 23.5C5.64873 23.5 0.5 18.3513 0.5 12ZM13.5 6.5C13.5 7.32843 12.8284 8 12 8C11.1716 8 10.5 7.32843 10.5 6.5C10.5 5.67157 11.1716 5 12 5C12.8284 5 13.5 5.67157 13.5 6.5ZM10 10.5C10 9.94772 10.4477 9.5 11 9.5H11.5008C12.6054 9.5 13.5008 10.3954 13.5008 11.5V18C13.5008 18.5523 13.0531 19 12.5008 19C11.9485 19 11.5008 18.5523 11.5008 18L11.5008 11.5H11C10.4477 11.5 10 11.0523 10 10.5Z" fill="#080809" style="fill:#080809;fill:color(display-p3 0.0314 0.0314 0.0353);fill-opacity:1;"/>
</g>
<defs>
<clipPath id="clip0_29901_28182">
<rect width="24" height="24" fill="white" style="fill:white;fill-opacity:1;"/>
</clipPath>
</defs>
</svg>
