<svg width="24" height="24" viewBox="0 0 24 24" fill="none" xmlns="http://www.w3.org/2000/svg">
<path d="M17.4993 14C19.9846 14 21.9993 16.0147 21.9993 18.5C21.9992 20.9852 19.9845 23 17.4993 23C15.0919 22.9998 13.1256 21.109 13.0051 18.7314L12.9993 18.5L12.9944 18.3975C12.9431 17.8933 12.517 17.5 11.9993 17.5C11.4818 17.5002 11.0555 17.8935 11.0042 18.3975L10.9993 18.5L10.9934 18.7314C10.8729 21.1091 8.9069 23 6.49929 23C4.01424 22.9998 1.99934 20.9851 1.99929 18.5C1.99929 16.0149 4.01421 14.0002 6.49929 14C8.08019 14 9.47008 14.8158 10.2727 16.0488C10.7611 15.7041 11.356 15.5001 11.9993 15.5C12.6425 15.5 13.2374 15.7042 13.7259 16.0488C14.5284 14.8157 15.9184 14.0001 17.4993 14Z" fill="#080809" style="fill:#080809;fill:color(display-p3 0.0314 0.0314 0.0353);fill-opacity:1;"/>
<path d="M15.094 1C16.9685 1.0002 18.5915 2.30207 18.9983 4.13184L20.2796 9.89746C20.4509 9.86679 20.6231 9.83923 20.7942 9.80664L22.3128 9.51758C22.855 9.41442 23.3791 9.77037 23.4827 10.3125C23.586 10.8548 23.2299 11.3788 22.6878 11.4824L21.1692 11.7715C15.1114 12.9254 8.88915 12.9253 2.83132 11.7715L1.31276 11.4824C0.770437 11.3789 0.414526 10.8549 0.517842 10.3125C0.621475 9.77034 1.14545 9.41428 1.68776 9.51758L3.20632 9.80664C3.37718 9.83918 3.54887 9.86683 3.71999 9.89746L5.00222 4.13184C5.40908 2.30203 7.032 1.00012 8.90651 1H15.094Z" fill="#080809" style="fill:#080809;fill:color(display-p3 0.0314 0.0314 0.0353);fill-opacity:1;"/>
</svg>
