<svg width="24" height="24" viewBox="0 0 24 24" fill="none" xmlns="http://www.w3.org/2000/svg">
<path fill-rule="evenodd" clip-rule="evenodd" d="M11 6C11 3.23858 8.76142 1 6 1C3.23858 1 1 3.23858 1 6V18C1 20.7614 3.23858 23 6 23C8.76142 23 11 20.7614 11 18V16C11 15.4477 11.4477 15 12 15C12.5523 15 13 15.4477 13 16V18C13 20.7614 15.2386 23 18 23C20.7614 23 23 20.7614 23 18V6C23 3.23858 20.7614 1 18 1C15.2386 1 13 3.23858 13 6V6.17071C12.6872 6.06015 12.3506 6 12 6C11.6494 6 11.3128 6.06015 11 6.17071V6ZM13 13.1707V9C13 8.44772 12.5523 8 12 8C11.4477 8 11 8.44772 11 9V13.1707C11.3128 13.0602 11.6494 13 12 13C12.3506 13 12.6872 13.0602 13 13.1707ZM3 18C3 16.3431 4.34315 15 6 15C7.65685 15 9 16.3431 9 18C9 19.6569 7.65685 21 6 21C4.34315 21 3 19.6569 3 18ZM18 15C16.3431 15 15 16.3431 15 18C15 19.6569 16.3431 21 18 21C19.6569 21 21 19.6569 21 18C21 16.3431 19.6569 15 18 15Z" fill="#080809" style="fill:#080809;fill:color(display-p3 0.0314 0.0314 0.0353);fill-opacity:1;"/>
</svg>
