<svg width="24" height="24" viewBox="0 0 24 24" fill="none" xmlns="http://www.w3.org/2000/svg">
<path d="M2 5C2 4.44772 2.44772 4 3 4L21 4C21.5523 4 22 4.44772 22 5C22 5.55229 21.5523 6 21 6L3 6C2.44772 6 2 5.55228 2 5Z" fill="#080809" style="fill:#080809;fill:color(display-p3 0.0314 0.0314 0.0353);fill-opacity:1;"/>
<path d="M9 20L3 20C2.44772 20 2 19.5523 2 19C2 18.4477 2.44772 18 3 18L9 18C9.55228 18 10 18.4477 10 19C10 19.5523 9.55229 20 9 20Z" fill="#080809" style="fill:#080809;fill:color(display-p3 0.0314 0.0314 0.0353);fill-opacity:1;"/>
<path d="M3 11C2.44772 11 2 11.4477 2 12C2 12.5523 2.44771 13 3 13L9 13C9.55228 13 10 12.5523 10 12C10 11.4477 9.55229 11 9 11L3 11Z" fill="#080809" style="fill:#080809;fill:color(display-p3 0.0314 0.0314 0.0353);fill-opacity:1;"/>
<path d="M18.4142 20.5L21.7071 17.2071C22.0976 16.8166 22.0976 16.1834 21.7071 15.7929C21.3166 15.4024 20.6834 15.4024 20.2929 15.7929L18 18.0858V11.5C18 10.9477 17.5523 10.5 17 10.5C16.4477 10.5 16 10.9477 16 11.5V18.0858L13.7071 15.7929C13.3166 15.4024 12.6834 15.4024 12.2929 15.7929C11.9024 16.1834 11.9024 16.8166 12.2929 17.2071L15.5858 20.5C16.3668 21.281 17.6332 21.281 18.4142 20.5Z" fill="#080809" style="fill:#080809;fill:color(display-p3 0.0314 0.0314 0.0353);fill-opacity:1;"/>
</svg>
