<svg width="24" height="24" viewBox="0 0 24 24" fill="none" xmlns="http://www.w3.org/2000/svg">
<path d="M21.8058 8.28272C21.311 7.51551 20.577 6.94867 19.6573 6.61011C19.7086 5.19818 19.3534 3.94141 18.5978 2.97559C17.8927 2.07422 16.4933 1 13.8253 1H5.9083C5.07529 1 4.37412 1.58838 4.24131 2.39844L1.49912 19.1621C1.42002 19.6401 1.55576 20.1275 1.87119 20.4986C2.19346 20.8775 2.66611 21.0952 3.16807 21.0952H6.75035L6.73546 21.187C6.66026 21.6367 6.78722 22.0938 7.08214 22.4419C7.38292 22.7964 7.8253 23 8.29601 23H11.8468C12.631 23 13.2911 22.4478 13.4132 21.7075L14.09 18.0625H15.0226C18.9991 18.0625 21.381 16.2759 22.3038 12.6016C22.7179 10.9561 22.5411 9.42237 21.8058 8.28272ZM6.17002 3.00001H13.8253C15.3204 3.00001 16.3956 3.40626 17.0226 4.20802C17.6847 5.05421 17.8448 6.34376 17.4737 7.83839C16.6339 11.2227 14.711 12.6665 11.044 12.6665H9.56064C8.72373 12.6665 8.01865 13.2578 7.88486 14.0728L7.06259 19.0952H3.53623L6.17002 3.00001ZM20.3644 12.1138C19.6593 14.9185 18.1114 16.0625 15.0226 16.0625H13.7569C12.9698 16.0625 12.3077 16.6162 12.1866 17.3579L11.5108 21H8.79112L9.79698 14.7788L9.81456 14.6665H11.044C15.4919 14.6665 18.1908 12.6848 19.3114 8.6465C19.6532 8.82826 19.9303 9.06483 20.1251 9.3672C20.5567 10.0357 20.6417 11.0112 20.3644 12.1138Z" fill="#080809" style="fill:#080809;fill:color(display-p3 0.0314 0.0314 0.0353);fill-opacity:1;"/>
</svg>
