<svg width="24" height="24" viewBox="0 0 24 24" fill="none" xmlns="http://www.w3.org/2000/svg">
<path d="M12 11C12.5523 11 13 11.4477 13 12V14H15C15.5523 14 16 14.4477 16 15C16 15.5523 15.5523 16 15 16H13V18C13 18.5523 12.5523 19 12 19C11.4477 19 11 18.5523 11 18V16H9C8.44772 16 8 15.5523 8 15C8 14.4477 8.44772 14 9 14H11V12C11 11.4477 11.4477 11 12 11Z" fill="#080809" style="fill:#080809;fill:color(display-p3 0.0314 0.0314 0.0353);fill-opacity:1;"/>
<path fill-rule="evenodd" clip-rule="evenodd" d="M21.9983 7.883C21.9569 6.4398 21.151 5.18813 19.9713 4.51871C19.7336 2.5365 18.0463 1 16 1H8C5.95375 1 4.26637 2.5365 4.02866 4.51871C2.84904 5.18813 2.04313 6.4398 2.00168 7.883C1.88755 7.96986 1.77744 8.06572 1.67158 8.17158C1.01547 8.82768 0.743499 9.64711 0.618756 10.5749C0.499939 11.4587 0.499967 12.5753 0.500001 13.9294V16.0706C0.499967 17.4247 0.499939 18.5413 0.618756 19.4251C0.743499 20.3529 1.01547 21.1723 1.67158 21.8284C2.32769 22.4845 3.14711 22.7565 4.07494 22.8813C4.95868 23.0001 6.07527 23 7.42935 23H16.5706C17.9247 23 19.0413 23.0001 19.9251 22.8813C20.8529 22.7565 21.6723 22.4845 22.3284 21.8284C22.9845 21.1723 23.2565 20.3529 23.3813 19.4251C23.5001 18.5413 23.5 17.4247 23.5 16.0706V13.9295C23.5 12.5754 23.5001 11.4587 23.3813 10.5749C23.2565 9.64711 22.9845 8.82768 22.3284 8.17158C22.2226 8.06571 22.1125 7.96986 21.9983 7.883ZM17.7324 4H6.26757C6.61337 3.4022 7.25972 3 8 3H16C16.7403 3 17.3866 3.4022 17.7324 4ZM19.7872 7.10139C19.4581 6.44812 18.7814 6 18 6H6C5.2186 6 4.54186 6.44812 4.21276 7.1014C5.07386 6.99994 6.14476 6.99997 7.42943 7H16.5706C17.8552 6.99997 18.9261 6.99994 19.7872 7.10139ZM3.08579 9.58579C3.30836 9.36322 3.63538 9.19585 4.34144 9.10092C5.07626 9.00213 6.05752 9 7.5 9H16.5C17.9425 9 18.9238 9.00213 19.6586 9.10092C20.3646 9.19585 20.6916 9.36322 20.9142 9.58579C21.1368 9.80836 21.3042 10.1354 21.3991 10.8414C21.4979 11.5763 21.5 12.5575 21.5 14V16C21.5 17.4425 21.4979 18.4238 21.3991 19.1586C21.3042 19.8646 21.1368 20.1916 20.9142 20.4142C20.6916 20.6368 20.3646 20.8042 19.6586 20.8991C18.9238 20.9979 17.9425 21 16.5 21H7.5C6.05752 21 5.07626 20.9979 4.34144 20.8991C3.63538 20.8042 3.30836 20.6368 3.08579 20.4142C2.86322 20.1916 2.69585 19.8646 2.60092 19.1586C2.50213 18.4238 2.5 17.4425 2.5 16V14C2.5 12.5575 2.50213 11.5763 2.60092 10.8414C2.69585 10.1354 2.86322 9.80836 3.08579 9.58579Z" fill="#080809" style="fill:#080809;fill:color(display-p3 0.0314 0.0314 0.0353);fill-opacity:1;"/>
</svg>
