<svg width="24" height="24" viewBox="0 0 24 24" fill="none" xmlns="http://www.w3.org/2000/svg">
<path d="M9 0.5C8.44772 0.5 8 0.947715 8 1.5C8 2.05228 8.44772 2.5 9 2.5H15C15.5523 2.5 16 2.05228 16 1.5C16 0.947715 15.5523 0.5 15 0.5H9Z" fill="#080809" style="fill:#080809;fill:color(display-p3 0.0314 0.0314 0.0353);fill-opacity:1;"/>
<path fill-rule="evenodd" clip-rule="evenodd" d="M2 13.5C2 7.97715 6.47715 3.5 12 3.5C17.5228 3.5 22 7.97715 22 13.5C22 19.0229 17.5228 23.5 12 23.5C6.47715 23.5 2 19.0229 2 13.5ZM12.7071 12.7929L9.70711 9.79289C9.31658 9.40237 8.68342 9.40237 8.29289 9.79289C7.90237 10.1834 7.90237 10.8166 8.29289 11.2071L11.2929 14.2071C11.6834 14.5976 12.3166 14.5976 12.7071 14.2071C13.0976 13.8166 13.0976 13.1834 12.7071 12.7929Z" fill="#080809" style="fill:#080809;fill:color(display-p3 0.0314 0.0314 0.0353);fill-opacity:1;"/>
<path d="M19.2477 3.67366C19.6383 3.28314 20.2714 3.28314 20.6619 3.67366L22.0762 5.08787C22.4667 5.4784 22.4667 6.11156 22.0762 6.50209C21.6856 6.89261 21.0525 6.89261 20.6619 6.50209L19.2477 5.08787C18.8572 4.69735 18.8572 4.06418 19.2477 3.67366Z" fill="#080809" style="fill:#080809;fill:color(display-p3 0.0314 0.0314 0.0353);fill-opacity:1;"/>
</svg>
