<svg width="24" height="24" viewBox="0 0 24 24" fill="none" xmlns="http://www.w3.org/2000/svg">
<path d="M1.75 5C1.75 4.30964 2.30964 3.75 3 3.75H21C21.6904 3.75 22.25 4.30965 22.25 5C22.25 5.69036 21.6904 6.25 21 6.25L3 6.25C2.30964 6.25 1.75 5.69036 1.75 5Z" fill="#080809" style="fill:#080809;fill:color(display-p3 0.0314 0.0314 0.0353);fill-opacity:1;"/>
<path d="M9 20.25L3 20.25C2.30964 20.25 1.75 19.6904 1.75 19C1.75 18.3096 2.30964 17.75 3 17.75L9 17.75C9.69036 17.75 10.25 18.3096 10.25 19C10.25 19.6904 9.69036 20.25 9 20.25Z" fill="#080809" style="fill:#080809;fill:color(display-p3 0.0314 0.0314 0.0353);fill-opacity:1;"/>
<path d="M3 10.75C2.30964 10.75 1.75 11.3096 1.75 12C1.75 12.6904 2.30964 13.25 3 13.25L9 13.25C9.69036 13.25 10.25 12.6904 10.25 12C10.25 11.3096 9.69036 10.75 9 10.75L3 10.75Z" fill="#080809" style="fill:#080809;fill:color(display-p3 0.0314 0.0314 0.0353);fill-opacity:1;"/>
<path d="M18.25 17.4822L20.1161 15.6161C20.6043 15.128 21.3957 15.128 21.8839 15.6161C22.372 16.1043 22.372 16.8957 21.8839 17.3839L18.591 20.6768C17.7123 21.5555 16.2877 21.5555 15.409 20.6768L12.1161 17.3839C11.628 16.8957 11.628 16.1043 12.1161 15.6161C12.6043 15.128 13.3957 15.128 13.8839 15.6161L15.75 17.4822V11.5C15.75 10.8096 16.3096 10.25 17 10.25C17.6904 10.25 18.25 10.8096 18.25 11.5V17.4822Z" fill="#080809" style="fill:#080809;fill:color(display-p3 0.0314 0.0314 0.0353);fill-opacity:1;"/>
</svg>
