<svg width="24" height="24" viewBox="0 0 24 24" fill="none" xmlns="http://www.w3.org/2000/svg">
<path d="M16.52 1.78883C15.7186 0.0716871 13.2768 0.0716958 12.4755 1.78883L12.0002 2.80724C11.1381 4.65436 9.65338 6.13909 7.80626 7.00114L6.78785 7.47644C5.07071 8.27783 5.07072 10.7195 6.78786 11.5209L7.80626 11.9962C9.65338 12.8583 11.1381 14.343 12.0002 16.1901L12.4755 17.2085C13.2769 18.9257 15.7186 18.9257 16.52 17.2085L16.9953 16.1901C17.8573 14.343 19.342 12.8583 21.1892 11.9962L22.2076 11.5209C23.9247 10.7195 23.9247 8.27783 22.2076 7.47643L21.1892 7.00114C19.342 6.13909 17.8573 4.65436 16.9953 2.80724L16.52 1.78883Z" fill="#080809" style="fill:#080809;fill:color(display-p3 0.0314 0.0314 0.0353);fill-opacity:1;"/>
<path d="M5.5 14.5C3.29086 14.5 1.5 16.2909 1.5 18.5C1.5 20.7091 3.29086 22.5 5.5 22.5C7.70914 22.5 9.5 20.7091 9.5 18.5C9.5 16.2909 7.70914 14.5 5.5 14.5Z" fill="#080809" style="fill:#080809;fill:color(display-p3 0.0314 0.0314 0.0353);fill-opacity:1;"/>
</svg>
