<svg width="24" height="24" viewBox="0 0 24 24" fill="none" xmlns="http://www.w3.org/2000/svg">
<path d="M14 9C13.4477 9 13 9.44772 13 10C13 10.5523 13.4477 11 14 11H19C19.5523 11 20 10.5523 20 10C20 9.44772 19.5523 9 19 9H14Z" fill="#080809" style="fill:#080809;fill:color(display-p3 0.0314 0.0314 0.0353);fill-opacity:1;"/>
<path d="M13 14C13 13.4477 13.4477 13 14 13H17C17.5523 13 18 13.4477 18 14C18 14.5523 17.5523 15 17 15H14C13.4477 15 13 14.5523 13 14Z" fill="#080809" style="fill:#080809;fill:color(display-p3 0.0314 0.0314 0.0353);fill-opacity:1;"/>
<path d="M7.5 7.5C6.39543 7.5 5.5 8.39543 5.5 9.5C5.5 10.6046 6.39543 11.5 7.5 11.5C8.60457 11.5 9.5 10.6046 9.5 9.5C9.5 8.39543 8.60457 7.5 7.5 7.5Z" fill="#080809" style="fill:#080809;fill:color(display-p3 0.0314 0.0314 0.0353);fill-opacity:1;"/>
<path d="M4 15C4 13.6193 5.11929 12.5 6.5 12.5H8.5C9.88071 12.5 11 13.6193 11 15V15.25C11 15.9404 10.4404 16.5 9.75 16.5H5.25C4.55964 16.5 4 15.9404 4 15.25V15Z" fill="#080809" style="fill:#080809;fill:color(display-p3 0.0314 0.0314 0.0353);fill-opacity:1;"/>
<path fill-rule="evenodd" clip-rule="evenodd" d="M16.5706 3H7.42943C6.07533 2.99997 4.95869 2.99994 4.07494 3.11876C3.14711 3.2435 2.32769 3.51547 1.67158 4.17158C1.01547 4.82769 0.743499 5.64711 0.618756 6.57494C0.499939 7.45869 0.499967 8.57529 0.500001 9.92939V14.0706C0.499967 15.4247 0.499939 16.5413 0.618756 17.4251C0.743499 18.3529 1.01547 19.1723 1.67158 19.8284C2.32769 20.4845 3.14711 20.7565 4.07494 20.8813C4.95869 21.0001 6.07529 21 7.42939 21H16.5705C17.9246 21 19.0413 21.0001 19.9251 20.8813C20.8529 20.7565 21.6723 20.4845 22.3284 19.8284C22.9845 19.1723 23.2565 18.3529 23.3813 17.4251C23.5001 16.5413 23.5 15.4247 23.5 14.0706V9.92946C23.5 8.57536 23.5001 7.45869 23.3813 6.57494C23.2565 5.64711 22.9845 4.82769 22.3284 4.17158C21.6723 3.51547 20.8529 3.2435 19.9251 3.11876C19.0413 2.99994 17.9247 2.99997 16.5706 3ZM3.08579 5.58579C3.30836 5.36322 3.63538 5.19585 4.34144 5.10092C5.07626 5.00213 6.05752 5 7.5 5H16.5C17.9425 5 18.9238 5.00213 19.6586 5.10092C20.3646 5.19585 20.6916 5.36322 20.9142 5.58579C21.1368 5.80836 21.3042 6.13538 21.3991 6.84144C21.4979 7.57626 21.5 8.55752 21.5 10V14C21.5 15.4425 21.4979 16.4238 21.3991 17.1586C21.3042 17.8646 21.1368 18.1916 20.9142 18.4142C20.6916 18.6368 20.3646 18.8042 19.6586 18.8991C18.9238 18.9979 17.9425 19 16.5 19H7.5C6.05752 19 5.07626 18.9979 4.34144 18.8991C3.63538 18.8042 3.30836 18.6368 3.08579 18.4142C2.86322 18.1916 2.69585 17.8646 2.60092 17.1586C2.50213 16.4238 2.5 15.4425 2.5 14V10C2.5 8.55752 2.50213 7.57626 2.60092 6.84144C2.69585 6.13538 2.86322 5.80836 3.08579 5.58579Z" fill="#080809" style="fill:#080809;fill:color(display-p3 0.0314 0.0314 0.0353);fill-opacity:1;"/>
</svg>
