<svg width="24" height="24" viewBox="0 0 24 24" fill="none" xmlns="http://www.w3.org/2000/svg">
<g clip-path="url(#clip0_29901_28518)">
<path d="M20.8085 4.60638C20.8087 4.60651 20.8084 4.60625 20.8085 4.60638L4.60638 20.8085C4.60625 20.8084 4.60651 20.8087 4.60638 20.8085L2.70711 22.7071C2.31658 23.0976 1.68342 23.0976 1.29289 22.7071C0.902369 22.3166 0.902369 21.6834 1.29289 21.2929L3.19178 19.394C1.51186 17.3949 0.5 14.8156 0.5 12C0.5 5.64873 5.64873 0.5 12 0.5C14.8156 0.5 17.3949 1.51186 19.394 3.19178L21.2929 1.29289C21.6834 0.902369 22.3166 0.902369 22.7071 1.29289C23.0976 1.68342 23.0976 2.31658 22.7071 2.70711L20.8085 4.60638Z" fill="#080809" style="fill:#080809;fill:color(display-p3 0.0314 0.0314 0.0353);fill-opacity:1;"/>
<path d="M23.5 12C23.5 9.72953 22.842 7.61273 21.7063 5.8299L5.8299 21.7063C7.61274 22.842 9.72953 23.5 12 23.5C13.9218 23.5 15.7363 23.0278 17.3308 22.1922C17.4973 22.105 17.6559 22.092 17.7765 22.1233L21.1762 23.0047C22.2835 23.2918 23.2918 22.2835 23.0047 21.1762L22.1233 17.7765C22.092 17.6559 22.105 17.4973 22.1922 17.3308C23.0278 15.7363 23.5 13.9218 23.5 12Z" fill="#080809" style="fill:#080809;fill:color(display-p3 0.0314 0.0314 0.0353);fill-opacity:1;"/>
</g>
<defs>
<clipPath id="clip0_29901_28518">
<rect width="24" height="24" fill="white" style="fill:white;fill-opacity:1;"/>
</clipPath>
</defs>
</svg>
