<svg width="24" height="24" viewBox="0 0 24 24" fill="none" xmlns="http://www.w3.org/2000/svg">
<path d="M18.5 3.50001C18.5 4.05229 18.0523 4.50001 17.5 4.50001L7.5 4.5C6.05752 4.5 5.07626 4.50213 4.34144 4.60092C3.63538 4.69585 3.30836 4.86322 3.08579 5.08579C2.86322 5.30836 2.69585 5.63538 2.60092 6.34144C2.50213 7.07626 2.5 8.05752 2.5 9.5L2.5 16C2.5 16.5523 2.05229 17 1.5 17C0.947717 17 0.500004 16.5523 0.500004 16L0.500001 9.42946C0.499967 8.07536 0.499938 6.95869 0.618754 6.07494C0.743499 5.14711 1.01547 4.32768 1.67158 3.67158C2.32769 3.01547 3.14711 2.7435 4.07494 2.61876C4.95869 2.49994 6.07529 2.49997 7.4294 2.5L17.5 2.50001C18.0523 2.50001 18.5 2.94772 18.5 3.50001Z" fill="#080809" style="fill:#080809;fill:color(display-p3 0.0314 0.0314 0.0353);fill-opacity:1;"/>
<path fill-rule="evenodd" clip-rule="evenodd" d="M23.5 12.9294V15.0706C23.5 16.4247 23.5001 17.5413 23.3812 18.4251C23.2565 19.3529 22.9845 20.1723 22.3284 20.8284C21.6723 21.4845 20.8529 21.7565 19.9251 21.8813C19.0413 22.0001 17.9247 22 16.5706 22H10.9294C9.57534 22 8.45868 22.0001 7.57494 21.8813C6.64711 21.7565 5.82768 21.4845 5.17157 20.8284C4.51547 20.1723 4.2435 19.3529 4.11875 18.4251C3.99993 17.5413 3.99996 16.4247 4 15.0706V12.9295C3.99996 11.5753 3.99993 10.4587 4.11875 9.57494C4.2435 8.64711 4.51547 7.82768 5.17157 7.17158C5.82768 6.51547 6.64711 6.2435 7.57494 6.11876C8.45869 5.99994 9.5753 5.99997 10.9294 6L16.5706 6C17.9247 5.99997 19.0413 5.99994 19.9251 6.11876C20.8529 6.2435 21.6723 6.51547 22.3284 7.17158C22.9845 7.82769 23.2565 8.64711 23.3812 9.57494C23.5001 10.4587 23.5 11.5753 23.5 12.9294ZM21.3991 9.84144C21.3042 9.13538 21.1368 8.80836 20.9142 8.58579C20.6916 8.36322 20.3646 8.19585 19.6586 8.10092C18.9237 8.00213 17.9425 8 16.5 8H11C9.55752 8 8.57625 8.00213 7.84143 8.10092C7.13538 8.19585 6.80836 8.36322 6.58579 8.58579C6.36322 8.80836 6.19585 9.13538 6.10092 9.84144C6.00212 10.5763 6 11.5575 6 13V14H21.5V13C21.5 11.5575 21.4979 10.5763 21.3991 9.84144Z" fill="#080809" style="fill:#080809;fill:color(display-p3 0.0314 0.0314 0.0353);fill-opacity:1;"/>
</svg>
