<svg width="24" height="24" viewBox="0 0 24 24" fill="none" xmlns="http://www.w3.org/2000/svg">
<path d="M15 2C15.5523 2 16 2.44772 16 3V6.58579L20.2929 2.29289C20.6834 1.90237 21.3166 1.90237 21.7071 2.29289C22.0976 2.68342 22.0976 3.31658 21.7071 3.70711L17.4142 8H21C21.5523 8 22 8.44772 22 9C22 9.55228 21.5523 10 21 10H16.5C15.1193 10 14 8.88071 14 7.5V3C14 2.44772 14.4477 2 15 2Z" fill="#080809" style="fill:#080809;fill:color(display-p3 0.0314 0.0314 0.0353);fill-opacity:1;"/>
<path d="M8 17.4142V21C8 21.5523 8.44772 22 9 22C9.55228 22 10 21.5523 10 21V16.5C10 15.1193 8.88071 14 7.5 14H3C2.44772 14 2 14.4477 2 15C2 15.5523 2.44772 16 3 16H6.58579L2.29289 20.2929C1.90237 20.6834 1.90237 21.3166 2.29289 21.7071C2.68342 22.0976 3.31658 22.0976 3.70711 21.7071L8 17.4142Z" fill="#080809" style="fill:#080809;fill:color(display-p3 0.0314 0.0314 0.0353);fill-opacity:1;"/>
<path d="M2 9C2 8.44772 2.44772 8 3 8L6.58579 8L2.29289 3.70711C1.90237 3.31658 1.90237 2.68342 2.29289 2.29289C2.68342 1.90237 3.31658 1.90237 3.70711 2.29289L8 6.58579L8 3C8 2.44772 8.44772 2 9 2C9.55229 2 10 2.44772 10 3V7.5C10 8.88071 8.88071 10 7.5 10H3C2.44772 10 2 9.55228 2 9Z" fill="#080809" style="fill:#080809;fill:color(display-p3 0.0314 0.0314 0.0353);fill-opacity:1;"/>
<path d="M17.4142 16H21C21.5523 16 22 15.5523 22 15C22 14.4477 21.5523 14 21 14H16.5C15.1193 14 14 15.1193 14 16.5V21C14 21.5523 14.4477 22 15 22C15.5523 22 16 21.5523 16 21V17.4142L20.2929 21.7071C20.6834 22.0976 21.3166 22.0976 21.7071 21.7071C22.0976 21.3166 22.0976 20.6834 21.7071 20.2929L17.4142 16Z" fill="#080809" style="fill:#080809;fill:color(display-p3 0.0314 0.0314 0.0353);fill-opacity:1;"/>
</svg>
