<svg width="24" height="24" viewBox="0 0 24 24" fill="none" xmlns="http://www.w3.org/2000/svg">
<path fill-rule="evenodd" clip-rule="evenodd" d="M8.61443 11.8345C8.85864 11.4483 9 10.9907 9 10.5V9.5C9 8.11929 7.88071 7 6.5 7H5.25C4.69772 7 4.25 7.44772 4.25 8V16C4.25 16.5523 4.69772 17 5.25 17H6.75C8.13071 17 9.25 15.8807 9.25 14.5V13.5C9.25 12.8602 9.0097 12.2766 8.61443 11.8345ZM6.25 11H6.5C6.77614 11 7 10.7761 7 10.5V9.5C7 9.22386 6.77614 9 6.5 9H6.25V11ZM6.25 13V15H6.75C7.02614 15 7.25 14.7761 7.25 14.5V13.5C7.25 13.2239 7.02614 13 6.75 13H6.25Z" fill="#080809" style="fill:#080809;fill:color(display-p3 0.0314 0.0314 0.0353);fill-opacity:1;"/>
<path fill-rule="evenodd" clip-rule="evenodd" d="M10 9.5C10 8.11929 11.1193 7 12.5 7C13.8807 7 15 8.11929 15 9.5V14.5C15 15.8807 13.8807 17 12.5 17C11.1193 17 10 15.8807 10 14.5V9.5ZM12.5 9C12.2239 9 12 9.22386 12 9.5V14.5C12 14.7761 12.2239 15 12.5 15C12.7761 15 13 14.7761 13 14.5V9.5C13 9.22386 12.7761 9 12.5 9Z" fill="#080809" style="fill:#080809;fill:color(display-p3 0.0314 0.0314 0.0353);fill-opacity:1;"/>
<path d="M16.25 7C15.6977 7 15.25 7.44772 15.25 8C15.25 8.55229 15.6977 9 16.25 9H16.5V16C16.5 16.5523 16.9477 17 17.5 17C18.0523 17 18.5 16.5523 18.5 16V9H18.75C19.3023 9 19.75 8.55229 19.75 8C19.75 7.44772 19.3023 7 18.75 7H16.25Z" fill="#080809" style="fill:#080809;fill:color(display-p3 0.0314 0.0314 0.0353);fill-opacity:1;"/>
<path fill-rule="evenodd" clip-rule="evenodd" d="M11.9252 1H12.0748C14.3683 0.999978 16.1914 0.999961 17.6196 1.19198C19.0921 1.38994 20.2936 1.80836 21.2426 2.75736C22.1916 3.70636 22.6101 4.90794 22.808 6.38039C23 7.8086 23 9.63167 23 11.9252V12.0748C23 14.3683 23 16.1914 22.808 17.6196C22.6101 19.0921 22.1916 20.2936 21.2426 21.2426C20.2936 22.1916 19.0921 22.6101 17.6196 22.808C16.1914 23 14.3683 23 12.0748 23H11.9252C9.63167 23 7.8086 23 6.38039 22.808C4.90794 22.6101 3.70636 22.1916 2.75736 21.2426C1.80836 20.2936 1.38994 19.0921 1.19198 17.6196C0.999961 16.1914 0.999978 14.3684 1 12.0748V11.9252C0.999978 9.63166 0.999961 7.80859 1.19198 6.38039C1.38994 4.90794 1.80836 3.70636 2.75736 2.75736C3.70636 1.80836 4.90794 1.38994 6.38039 1.19198C7.80859 0.999961 9.63166 0.999978 11.9252 1ZM6.64689 3.17414C5.39621 3.34229 4.68704 3.65611 4.17157 4.17157C3.65611 4.68704 3.34229 5.39621 3.17414 6.64689C3.00213 7.92634 3 9.61471 3 12C3 14.3853 3.00213 16.0737 3.17414 17.3531C3.34229 18.6038 3.65611 19.313 4.17157 19.8284C4.68704 20.3439 5.39621 20.6577 6.64689 20.8259C7.92634 20.9979 9.61471 21 12 21C14.3853 21 16.0737 20.9979 17.3531 20.8259C18.6038 20.6577 19.313 20.3439 19.8284 19.8284C20.3439 19.313 20.6577 18.6038 20.8259 17.3531C20.9979 16.0737 21 14.3853 21 12C21 9.61471 20.9979 7.92634 20.8259 6.64689C20.6577 5.39621 20.3439 4.68704 19.8284 4.17157C19.313 3.65611 18.6038 3.34229 17.3531 3.17414C16.0737 3.00213 14.3853 3 12 3C9.61471 3 7.92634 3.00213 6.64689 3.17414Z" fill="#080809" style="fill:#080809;fill:color(display-p3 0.0314 0.0314 0.0353);fill-opacity:1;"/>
</svg>
