<svg width="24" height="24" viewBox="0 0 24 24" fill="none" xmlns="http://www.w3.org/2000/svg">
<g clip-path="url(#clip0_29901_26760)">
<path fill-rule="evenodd" clip-rule="evenodd" d="M13.1888 2.02335L17.6888 0.549662C17.891 0.483446 18.109 0.483446 18.3112 0.549662L22.8112 2.02335C23.2221 2.15791 23.5 2.54131 23.5 2.97368V7.57895C23.5 10.5895 21.0208 13 18 13C14.9792 13 12.5 10.5895 12.5 7.57895V2.97368C12.5 2.54131 12.7779 2.15791 13.1888 2.02335ZM18 3.83333C18.202 3.83333 18.3841 3.95484 18.4617 4.14132L19.0497 5.55518L20.5761 5.67755C20.7774 5.69369 20.9493 5.82937 21.0117 6.02145C21.0741 6.21353 21.0148 6.42429 20.8614 6.55568L19.6985 7.55187L20.0538 9.04136C20.1006 9.23782 20.0247 9.44317 19.8613 9.56189C19.6979 9.6806 19.4792 9.68935 19.3068 9.58408L18 8.78589L16.6932 9.58408C16.5208 9.68935 16.3021 9.6806 16.1387 9.56189C15.9753 9.44317 15.8994 9.23782 15.9462 9.04136L16.3015 7.55187L15.1386 6.55568C14.9852 6.42429 14.9259 6.21353 14.9883 6.02145C15.0507 5.82937 15.2226 5.69369 15.4239 5.67755L16.9503 5.55518L17.5383 4.14132C17.6159 3.95484 17.798 3.83333 18 3.83333Z" fill="#080809" style="fill:#080809;fill:color(display-p3 0.0314 0.0314 0.0353);fill-opacity:1;"/>
<path d="M10.4054 2.63268C10.95 2.54072 11.3169 2.0247 11.225 1.48013C11.133 0.935554 10.617 0.56864 10.0724 0.660603C4.63868 1.57821 0.5 6.3046 0.5 11.9996C0.5 18.3509 5.64873 23.4996 12 23.4996C13.9218 23.4996 15.7363 23.0274 17.3308 22.1918C17.4973 22.1046 17.6559 22.0916 17.7765 22.1229L21.1762 23.0043C22.2835 23.2914 23.2918 22.2831 23.0047 21.1758L22.1233 17.7761C22.092 17.6555 22.105 17.4969 22.1922 17.3304C22.6518 16.4535 23.0016 15.5097 23.2233 14.5174C23.3437 13.9784 23.0044 13.4438 22.4654 13.3234C21.9265 13.203 21.3919 13.5423 21.2714 14.0813C21.0886 14.8997 20.8 15.6782 20.4207 16.4021C20.1333 16.9507 20.016 17.6173 20.1873 18.2781L20.8554 20.855L18.2785 20.1869C17.6177 20.0156 16.9511 20.1329 16.4025 20.4203C15.0875 21.1094 13.5908 21.4996 12 21.4996C6.75329 21.4996 2.5 17.2463 2.5 11.9996C2.5 7.29686 5.91807 3.39047 10.4054 2.63268Z" fill="#080809" style="fill:#080809;fill:color(display-p3 0.0314 0.0314 0.0353);fill-opacity:1;"/>
</g>
<defs>
<clipPath id="clip0_29901_26760">
<rect width="24" height="24" fill="white" style="fill:white;fill-opacity:1;"/>
</clipPath>
</defs>
</svg>
