<svg width="24" height="24" viewBox="0 0 24 24" fill="none" xmlns="http://www.w3.org/2000/svg">
<path d="M8 7.5C8 5.29086 9.79086 3.5 12 3.5C14.2091 3.5 16 5.29086 16 7.5C16 9.70914 14.2091 11.5 12 11.5C9.79086 11.5 8 9.70914 8 7.5Z" fill="#080809" style="fill:#080809;fill:color(display-p3 0.0314 0.0314 0.0353);fill-opacity:1;"/>
<path d="M7.25 9.75C7.25 7.95507 5.79493 6.5 4 6.5C2.20507 6.5 0.75 7.95507 0.75 9.75C0.75 11.5449 2.20507 13 4 13C5.79493 13 7.25 11.5449 7.25 9.75Z" fill="#080809" style="fill:#080809;fill:color(display-p3 0.0314 0.0314 0.0353);fill-opacity:1;"/>
<path d="M16.75 9.75C16.75 7.95507 18.2051 6.5 20 6.5C21.7949 6.5 23.25 7.95507 23.25 9.75C23.25 11.5449 21.7949 13 20 13C18.2051 13 16.75 11.5449 16.75 9.75Z" fill="#080809" style="fill:#080809;fill:color(display-p3 0.0314 0.0314 0.0353);fill-opacity:1;"/>
<path d="M0 18.2C0 16.1565 1.65655 14.5 3.7 14.5H3.85591C4.17622 14.5 4.47714 14.6534 4.66526 14.9127C4.85338 15.1719 4.90594 15.5056 4.80663 15.8101C4.60786 16.4195 4.5 17.0712 4.5 17.75C4.5 18.4114 4.63462 19.0389 4.87701 19.6084C5.00848 19.9173 4.97619 20.2715 4.79104 20.5515C4.60589 20.8316 4.29259 21 3.95689 21H2.8C1.2536 21 0 19.7464 0 18.2Z" fill="#080809" style="fill:#080809;fill:color(display-p3 0.0314 0.0314 0.0353);fill-opacity:1;"/>
<path d="M6 17.75C6 15.1266 8.12665 13 10.75 13H13.25C13.3163 13 13.3823 13.0014 13.448 13.0041C13.8345 13.02 14.1772 13.2574 14.3279 13.6137C14.4786 13.97 14.4102 14.3813 14.1524 14.6697C13.124 15.82 12.5 17.3359 12.5 19C12.5 19.2948 12.5196 19.5845 12.5573 19.8679C12.5954 20.1536 12.5083 20.4419 12.3184 20.6588C12.1286 20.8756 11.8543 21 11.5661 21H9.25C7.45508 21 6 19.5449 6 17.75Z" fill="#080809" style="fill:#080809;fill:color(display-p3 0.0314 0.0314 0.0353);fill-opacity:1;"/>
<path d="M20 15.5C20 14.9477 19.5523 14.5 19 14.5C18.4477 14.5 18 14.9477 18 15.5V18H15.5C14.9477 18 14.5 18.4477 14.5 19C14.5 19.5523 14.9477 20 15.5 20H18V22.5C18 23.0523 18.4477 23.5 19 23.5C19.5523 23.5 20 23.0523 20 22.5V20H22.5C23.0523 20 23.5 19.5523 23.5 19C23.5 18.4477 23.0523 18 22.5 18H20V15.5Z" fill="#080809" style="fill:#080809;fill:color(display-p3 0.0314 0.0314 0.0353);fill-opacity:1;"/>
</svg>
