<svg width="24" height="24" viewBox="0 0 24 24" fill="none" xmlns="http://www.w3.org/2000/svg">
<path d="M3.29289 12.7071C3.57889 12.9931 4.00901 13.0787 4.38268 12.9239C4.75636 12.7691 5 12.4045 5 12V8C5 5.23858 7.23858 3 10 3H14C14.5523 3 15 2.55229 15 2C15 1.44771 14.5523 1 14 1H10C6.13401 1 3 4.13401 3 8V9.58579L2.70711 9.29289C2.31658 8.90237 1.68342 8.90237 1.29289 9.29289C0.902369 9.68342 0.902369 10.3166 1.29289 10.7071L3.29289 12.7071Z" fill="#080809" style="fill:#080809;fill:color(display-p3 0.0314 0.0314 0.0353);fill-opacity:1;"/>
<path d="M10 5.00003C8.34315 5.00003 7 6.34318 7 8.00003V16C7 17.6569 8.34315 19 10 19H14C15.6569 19 17 17.6569 17 16V8.00003C17 6.34318 15.6569 5.00003 14 5.00003H10Z" fill="#080809" style="fill:#080809;fill:color(display-p3 0.0314 0.0314 0.0353);fill-opacity:1;"/>
<path d="M19.6173 12.0762C19.991 11.9214 20.4211 12.007 20.7071 12.293L22.7071 14.293C23.0976 14.6835 23.0976 15.3166 22.7071 15.7072C22.3166 16.0977 21.6834 16.0977 21.2929 15.7072L21 15.4143V16.0001C21 19.8661 17.866 23.0001 14 23.0001H11C10.4477 23.0001 10 22.5523 10 22.0001C10 21.4478 10.4477 21.0001 11 21.0001H14C16.7614 21.0001 19 18.7615 19 16.0001V13.0001C19 12.5956 19.2436 12.231 19.6173 12.0762Z" fill="#080809" style="fill:#080809;fill:color(display-p3 0.0314 0.0314 0.0353);fill-opacity:1;"/>
</svg>
