<svg width="24" height="24" viewBox="0 0 24 24" fill="none" xmlns="http://www.w3.org/2000/svg">
<path fill-rule="evenodd" clip-rule="evenodd" d="M9.57317 3H9.42684C7.6034 2.99997 6.13362 2.99995 4.97767 3.15537C3.77752 3.31672 2.76702 3.66191 1.96447 4.46447C1.16191 5.26702 0.816722 6.27752 0.655367 7.47767C0.499954 8.63362 0.499975 10.1034 0.500001 11.9268V12.0732C0.499975 13.8966 0.499954 15.3664 0.655367 16.5223C0.816722 17.7225 1.16191 18.733 1.96447 19.5355C2.76702 20.3381 3.77752 20.6833 4.97767 20.8446C6.13363 21.0001 7.6034 21 9.42687 21H9.57314C11.3966 21 12.8664 21.0001 14.0223 20.8446C15.2225 20.6833 16.233 20.3381 17.0355 19.5355C17.8381 18.733 18.1833 17.7225 18.3446 16.5223C18.3962 16.1392 18.4306 15.7215 18.4536 15.268L21.1119 17.221C22.1025 17.9488 23.5 17.2414 23.5 16.0122V7.95548C23.5 6.74475 22.1396 6.03289 21.1449 6.72309L18.4463 8.59559C18.4235 8.19439 18.3909 7.8221 18.3446 7.47767C18.1833 6.27752 17.8381 5.26702 17.0355 4.46447C16.233 3.66191 15.2225 3.31672 14.0223 3.15537C12.8664 2.99995 11.3966 2.99997 9.57317 3ZM13.2071 8.29289C13.5976 8.68342 13.5976 9.31658 13.2071 9.70711L10.9142 12L13.2071 14.2929C13.5976 14.6834 13.5976 15.3166 13.2071 15.7071C12.8166 16.0976 12.1834 16.0976 11.7929 15.7071L9.5 13.4142L7.20711 15.7071C6.81658 16.0976 6.18342 16.0976 5.79289 15.7071C5.40237 15.3166 5.40237 14.6834 5.79289 14.2929L8.08579 12L5.79289 9.70711C5.40237 9.31658 5.40237 8.68342 5.79289 8.29289C6.18342 7.90237 6.81658 7.90237 7.20711 8.29289L9.5 10.5858L11.7929 8.29289C12.1834 7.90237 12.8166 7.90237 13.2071 8.29289Z" fill="#080809" style="fill:#080809;fill:color(display-p3 0.0314 0.0314 0.0353);fill-opacity:1;"/>
</svg>
