<svg width="24" height="24" viewBox="0 0 24 24" fill="none" xmlns="http://www.w3.org/2000/svg">
<g clip-path="url(#clip0_29901_25970)">
<path d="M13.455 2.08132C13.526 1.23007 12.8542 0.5 12 0.5C11.1458 0.5 10.474 1.23007 10.545 2.08132L11.0035 7.58305C11.0466 8.10134 11.4799 8.5 12 8.5C12.5201 8.5 12.9534 8.10134 12.9965 7.58305L13.455 2.08132Z" fill="#080809" style="fill:#080809;fill:color(display-p3 0.0314 0.0314 0.0353);fill-opacity:1;"/>
<path d="M8.92449 1.90763C9.13503 2.41821 8.89179 3.00279 8.38121 3.21333C4.92774 4.63734 2.5 8.03637 2.5 12.0001C2.5 17.2468 6.75329 21.5001 12 21.5001C17.2467 21.5001 21.5 17.2468 21.5 12.0001C21.5 8.03637 19.0723 4.63734 15.6188 3.21333C15.1082 3.00279 14.865 2.41821 15.0755 1.90763C15.286 1.39705 15.8706 1.15381 16.3812 1.36435C20.5575 3.08642 23.5 7.19843 23.5 12.0001C23.5 18.3513 18.3513 23.5001 12 23.5001C5.64873 23.5001 0.5 18.3513 0.5 12.0001C0.5 7.19843 3.44249 3.08642 7.61879 1.36435C8.12937 1.15381 8.71395 1.39705 8.92449 1.90763Z" fill="#080809" style="fill:#080809;fill:color(display-p3 0.0314 0.0314 0.0353);fill-opacity:1;"/>
<path d="M9.31178 6.54208C9.63429 6.99041 9.5323 7.61531 9.08397 7.93783C7.81987 8.84718 7 10.3278 7 12C7 14.7614 9.23858 17 12 17C14.7614 17 17 14.7614 17 12C17 10.3278 16.1801 8.84718 14.916 7.93783C14.4677 7.61531 14.3657 6.99041 14.6882 6.54208C15.0107 6.09375 15.6356 5.99176 16.084 6.31428C17.848 7.58328 19 9.65712 19 12C19 15.866 15.866 19 12 19C8.13401 19 5 15.866 5 12C5 9.65712 6.15199 7.58328 7.91603 6.31428C8.36436 5.99176 8.98926 6.09375 9.31178 6.54208Z" fill="#080809" style="fill:#080809;fill:color(display-p3 0.0314 0.0314 0.0353);fill-opacity:1;"/>
<path d="M10 12C10 10.8954 10.8954 10 12 10C13.1046 10 14 10.8954 14 12C14 13.1046 13.1046 14 12 14C10.8954 14 10 13.1046 10 12Z" fill="#080809" style="fill:#080809;fill:color(display-p3 0.0314 0.0314 0.0353);fill-opacity:1;"/>
</g>
<defs>
<clipPath id="clip0_29901_25970">
<rect width="24" height="24" fill="white" style="fill:white;fill-opacity:1;"/>
</clipPath>
</defs>
</svg>
