<svg width="24" height="24" viewBox="0 0 24 24" fill="none" xmlns="http://www.w3.org/2000/svg">
<path d="M10 14C10 14.4044 9.75636 14.7691 9.38268 14.9239C9.00901 15.0786 8.57889 14.9931 8.29289 14.7071L6.29289 12.7071C5.90237 12.3166 5.90237 11.6834 6.29289 11.2929L8.29289 9.29287C8.57889 9.00687 9.00901 8.92132 9.38268 9.0761C9.75636 9.23088 10 9.59551 10 9.99998V14Z" fill="#080809" style="fill:#080809;fill:color(display-p3 0.0314 0.0314 0.0353);fill-opacity:1;"/>
<path fill-rule="evenodd" clip-rule="evenodd" d="M13.953 22.9953L13 23.0034V22.9995C12.7005 23 12.3921 23 12.0748 23H11.9252C9.63165 23 7.80859 23 6.3804 22.808C4.90794 22.6101 3.70636 22.1916 2.75736 21.2426C1.80836 20.2936 1.38994 19.0921 1.19198 17.6196C0.999962 16.1914 0.999979 14.3684 1 12.0748V11.9252C0.999979 9.63167 0.999962 7.80859 1.19198 6.3804C1.38994 4.90794 1.80836 3.70637 2.75736 2.75736C3.70636 1.80836 4.90794 1.38995 6.3804 1.19198C7.8086 0.999964 9.63167 0.999981 11.9252 1H12.0748C12.3921 1 12.7005 0.999998 13 1.0005V0.996826L13.7744 1.00339C14.3197 1.00685 14.8333 1.01385 15.3164 1.02797C16.1781 1.05317 16.9431 1.10103 17.6196 1.19198C19.0921 1.38995 20.2936 1.80836 21.2426 2.75736C22.1916 3.70637 22.6101 4.90794 22.808 6.3804C22.832 6.55896 22.853 6.74369 22.8714 6.93475C23 8.2718 23 9.9184 23 11.9252L23 12.0748C23 14.3668 23 16.1892 22.8084 17.617L22.808 17.6197C22.6101 19.0922 22.1916 20.2938 21.2426 21.2428C20.441 22.0444 19.4564 22.4696 18.2746 22.7011C17.1684 22.9178 15.8277 22.9757 14.2183 22.9929C14.1307 22.9938 14.0423 22.9946 13.953 22.9953ZM13 3.00066C12.6809 3.00005 12.3479 3 12 3C9.61471 3 7.92634 3.00213 6.64689 3.17414C5.39621 3.34229 4.68704 3.65611 4.17157 4.17158C3.65611 4.68704 3.34229 5.39621 3.17414 6.64689C3.00213 7.92634 3 9.61471 3 12C3 14.3853 3.00213 16.0737 3.17414 17.3531C3.34229 18.6038 3.65611 19.313 4.17157 19.8284C4.68704 20.3439 5.39621 20.6577 6.64689 20.8259C7.92634 20.9979 9.61471 21 12 21C12.3479 21 12.6809 21 13 20.9993V3.00066ZM19.5 14C19.5 14.5523 19.0523 15 18.5 15H17.5C16.9477 15 16.5 14.5523 16.5 14C16.5 13.4477 16.9477 13 17.5 13H18.5C19.0523 13 19.5 13.4477 19.5 14ZM18.5 11C19.0523 11 19.5 10.5523 19.5 10C19.5 9.44771 19.0523 9 18.5 9H17.5C16.9477 9 16.5 9.44771 16.5 10C16.5 10.5523 16.9477 11 17.5 11H18.5Z" fill="#080809" style="fill:#080809;fill:color(display-p3 0.0314 0.0314 0.0353);fill-opacity:1;"/>
</svg>
