<svg width="24" height="24" viewBox="0 0 24 24" fill="none" xmlns="http://www.w3.org/2000/svg">
<path fill-rule="evenodd" clip-rule="evenodd" d="M9.46377 1.28575C10.2931 0.803007 11.092 0.5 12.0002 0.5C12.9083 0.5 13.7072 0.803007 14.5366 1.28575C15.3317 1.74856 16.2373 2.42784 17.3517 3.26363L19.5842 4.93795C20.9752 5.97995 21.9427 6.70471 22.4723 7.76393C23.0019 8.82315 23.0012 10.032 23.0003 11.77L23.0002 16.0708C23.0002 17.4249 23.0002 18.5415 22.8814 19.4253C22.7567 20.3531 22.4847 21.1725 21.8286 21.8286C21.1725 22.4847 20.3531 22.7567 19.4252 22.8814C18.5415 23.0003 17.4248 23.0002 16.0707 23.0002H7.9296C6.57549 23.0002 5.45886 23.0003 4.57511 22.8814C3.64728 22.7567 2.82785 22.4847 2.17174 21.8286C1.51563 21.1725 1.24366 20.3531 1.11892 19.4253C1.0001 18.5415 1.00013 17.4249 1.00017 16.0708L1.00008 11.77C0.999104 10.032 0.998423 8.82315 1.52803 7.76393C2.05764 6.70471 3.02513 5.97995 4.41609 4.93795L6.64866 3.26363C7.763 2.42785 8.66868 1.74856 9.46377 1.28575ZM11.9999 10.7637C11.9999 10.7637 12.1188 10.5733 12.4759 10.2161C12.9521 9.73995 13.6906 9.4847 14.3809 9.50071C15.8478 9.53474 17.0221 10.762 16.9997 12.2399C16.9665 14.5587 14.639 16.4679 12.4971 17.7771C12.1916 17.9638 11.8082 17.9638 11.5027 17.7771C9.36058 16.468 7.0335 14.5598 7.00031 12.2399C6.97794 10.7619 8.15196 9.53474 9.61895 9.50071C10.3092 9.4847 11.0474 9.73995 11.5236 10.2161C11.8807 10.5733 11.9999 10.7637 11.9999 10.7637Z" fill="#080809" style="fill:#080809;fill:color(display-p3 0.0314 0.0314 0.0353);fill-opacity:1;"/>
</svg>
