<svg width="24" height="24" viewBox="0 0 24 24" fill="none" xmlns="http://www.w3.org/2000/svg">
<path fill-rule="evenodd" clip-rule="evenodd" d="M16.5706 21H7.42943C6.07531 21 4.95869 21.0001 4.07494 20.8813C3.14711 20.7565 2.32768 20.4845 1.67157 19.8284C1.01546 19.1723 0.743495 18.3529 0.618751 17.4251C0.499934 16.5413 0.499963 15.4247 0.499997 14.0706V9.92946C0.499962 8.57535 0.499933 7.45869 0.61875 6.57494C0.743494 5.64711 1.01546 4.82768 1.67157 4.17157C2.32768 3.51547 3.1471 3.2435 4.07494 3.11875C4.95868 2.99994 6.07529 2.99997 7.42939 3H16.5705C17.9247 2.99997 19.0413 2.99994 19.9251 3.11875C20.8529 3.2435 21.6723 3.51547 22.3284 4.17157C22.9845 4.82768 23.2565 5.64711 23.3812 6.57494C23.5001 7.45868 23.5 8.57527 23.5 9.92935V14.0706C23.5 15.4247 23.5001 16.5413 23.3812 17.4251C23.2565 18.3529 22.9845 19.1723 22.3284 19.8284C21.6723 20.4845 20.8529 20.7565 19.9251 20.8813C19.0413 21.0001 17.9247 21 16.5706 21ZM19.6586 18.8991C20.3646 18.8042 20.6916 18.6368 20.9142 18.4142C21.1368 18.1916 21.3042 17.8646 21.3991 17.1586C21.4979 16.4237 21.5 15.4425 21.5 14V10C21.5 8.55752 21.4979 7.57625 21.3991 6.84143C21.3042 6.13538 21.1368 5.80836 20.9142 5.58579C20.6916 5.36322 20.3646 5.19584 19.6586 5.10092C18.9237 5.00212 17.9425 5 16.5 5L7.5 5C6.05751 5 5.07625 5.00213 4.34143 5.10092C3.63538 5.19585 3.30836 5.36322 3.08578 5.58579C2.86321 5.80836 2.69584 6.13538 2.60092 6.84143C2.54095 7.28747 2.5166 7.82432 2.50672 8.5H16C17.1046 8.5 18 9.39543 18 10.5V18.9933C18.6757 18.9834 19.2125 18.9591 19.6586 18.8991ZM11 10.5H2.5L2.5 14C2.5 15.4425 2.50212 16.4237 2.60092 17.1586C2.69584 17.8646 2.86322 18.1916 3.08579 18.4142C3.30836 18.6368 3.63538 18.8042 4.34143 18.8991C5.07625 18.9979 6.05752 19 7.5 19H11V10.5ZM16 10.5H13V19H16V10.5Z" fill="#080809" style="fill:#080809;fill:color(display-p3 0.0314 0.0314 0.0353);fill-opacity:1;"/>
</svg>
