<svg width="24" height="24" viewBox="0 0 24 24" fill="none" xmlns="http://www.w3.org/2000/svg">
<path d="M2.5 4C2.5 3.44772 2.05228 3 1.5 3C0.947715 3 0.5 3.44772 0.5 4V20C0.5 20.5523 0.947715 21 1.5 21C2.05228 21 2.5 20.5523 2.5 20V18H21.5V20C21.5 20.5523 21.9477 21 22.5 21C23.0523 21 23.5 20.5523 23.5 20V16.9268C23.5 15.1034 23.5 13.6336 23.3446 12.4777C23.1833 11.2775 22.8381 10.267 22.0355 9.46447C21.233 8.66191 20.2225 8.31672 19.0223 8.15537C17.8664 7.99995 16.3966 7.99997 14.5732 8L11 8C10.4477 8 10 8.44772 10 9V16H2.5V4Z" fill="#080809" style="fill:#080809;fill:color(display-p3 0.0314 0.0314 0.0353);fill-opacity:1;"/>
<path d="M3.5 11.75C3.5 10.2312 4.73122 9 6.25 9C7.76878 9 9 10.2312 9 11.75C9 13.2688 7.76878 14.5 6.25 14.5C4.73122 14.5 3.5 13.2688 3.5 11.75Z" fill="#080809" style="fill:#080809;fill:color(display-p3 0.0314 0.0314 0.0353);fill-opacity:1;"/>
</svg>
