<svg width="24" height="24" viewBox="0 0 24 24" fill="none" xmlns="http://www.w3.org/2000/svg">
<path d="M7 10C6.44772 10 6 10.4477 6 11C6 11.5523 6.44772 12 7 12H15C15.5523 12 16 11.5523 16 11C16 10.4477 15.5523 10 15 10H7Z" fill="#080809" style="fill:#080809;fill:color(display-p3 0.0314 0.0314 0.0353);fill-opacity:1;"/>
<path fill-rule="evenodd" clip-rule="evenodd" d="M1 11C1 5.47715 5.47715 1 11 1C16.5228 1 21 5.47715 21 11C21 13.4013 20.1536 15.6049 18.7429 17.3287L22.7071 21.2929C23.0976 21.6834 23.0976 22.3166 22.7071 22.7071C22.3166 23.0976 21.6834 23.0976 21.2929 22.7071L17.3287 18.7429C15.6049 20.1536 13.4013 21 11 21C5.47715 21 1 16.5228 1 11ZM11 3C6.58172 3 3 6.58172 3 11C3 15.4183 6.58172 19 11 19C15.4183 19 19 15.4183 19 11C19 6.58172 15.4183 3 11 3Z" fill="#080809" style="fill:#080809;fill:color(display-p3 0.0314 0.0314 0.0353);fill-opacity:1;"/>
</svg>
