<svg width="24" height="24" viewBox="0 0 24 24" fill="none" xmlns="http://www.w3.org/2000/svg">
<path d="M17.2688 3.00143C16.022 2.97781 14.9006 3.24605 13.8667 3.88616C13.188 4.30638 12.5753 4.86935 11.9998 5.56478C11.4242 4.86945 10.8113 4.30694 10.1324 3.88728C9.09829 3.24813 7.97708 2.98114 6.73101 3.00471C3.54459 3.065 0.438622 5.55948 0.500922 9.67016C0.542421 12.5472 2.06638 15.101 4.05983 17.227C6.06158 19.3618 8.63245 21.1692 10.9924 22.5692C11.6138 22.9379 12.386 22.9379 13.0075 22.5692C15.3674 21.1692 17.9383 19.3618 19.9401 17.227C21.9337 15.1009 23.4578 12.5469 23.4991 9.66971C23.5612 5.56056 20.4559 3.06181 17.2688 3.00143Z" fill="#080809" style="fill:#080809;fill:color(display-p3 0.0314 0.0314 0.0353);fill-opacity:1;"/>
</svg>
