<svg width="24" height="24" viewBox="0 0 24 24" fill="none" xmlns="http://www.w3.org/2000/svg">
<path fill-rule="evenodd" clip-rule="evenodd" d="M12 0.5C5.64873 0.5 0.5 5.64873 0.5 12C0.5 13.9218 0.972204 15.7363 1.80777 17.3308C1.89499 17.4973 1.908 17.6559 1.87673 17.7765L0.995321 21.1762C0.708248 22.2835 1.71647 23.2918 2.82376 23.0047L6.22347 22.1233C6.34411 22.092 6.50272 22.105 6.66917 22.1922C8.26373 23.0278 10.0782 23.5 12 23.5C18.3513 23.5 23.5 18.3513 23.5 12C23.5 5.64873 18.3513 0.5 12 0.5ZM8.10994 6.69621C8.50046 7.08674 8.50046 7.7199 8.10994 8.11043C7.11354 9.10683 6.49902 10.4805 6.49902 11.9995C6.49902 13.5186 7.11354 14.8922 8.10994 15.8886C8.50046 16.2791 8.50046 16.9123 8.10994 17.3028C7.71941 17.6933 7.08625 17.6933 6.69572 17.3028C5.33958 15.9467 4.49902 14.0703 4.49902 11.9995C4.49902 9.92872 5.33958 8.05235 6.69572 6.69621C7.08625 6.30569 7.71941 6.30569 8.10994 6.69621ZM15.8881 6.69621C16.2786 6.30569 16.9118 6.30569 17.3023 6.69621C18.6585 8.05235 19.499 9.92872 19.499 11.9995C19.499 14.0703 18.6585 15.9467 17.3023 17.3028C16.9118 17.6933 16.2786 17.6933 15.8881 17.3028C15.4976 16.9123 15.4976 16.2791 15.8881 15.8886C16.8845 14.8922 17.499 13.5186 17.499 11.9995C17.499 10.4805 16.8845 9.10683 15.8881 8.11043C15.4976 7.7199 15.4976 7.08674 15.8881 6.69621ZM11.999 14C13.1036 14 13.999 13.1046 13.999 12C13.999 10.8954 13.1036 10 11.999 10C10.8945 10 9.99902 10.8954 9.99902 12C9.99902 13.1046 10.8945 14 11.999 14Z" fill="#080809" style="fill:#080809;fill:color(display-p3 0.0314 0.0314 0.0353);fill-opacity:1;"/>
</svg>
