<svg width="24" height="24" viewBox="0 0 24 24" fill="none" xmlns="http://www.w3.org/2000/svg">
<path fill-rule="evenodd" clip-rule="evenodd" d="M14 4.6222C14 2.39493 11.3071 1.27952 9.73223 2.85443L5.58716 6.99951H3.5C1.84315 6.99951 0.5 8.34265 0.5 9.99951V13.9995C0.5 15.6564 1.84315 16.9995 3.5 16.9995H5.58441L9.73223 21.1473C11.3071 22.7222 14 21.6068 14 19.3796V4.6222ZM11.1464 4.26865C11.4614 3.95366 12 4.17675 12 4.6222V19.3796C12 19.825 11.4614 20.0481 11.1464 19.7331L6.70573 15.2924C6.5182 15.1049 6.26384 14.9995 5.99863 14.9995H3.5C2.94772 14.9995 2.5 14.5518 2.5 13.9995V9.99951C2.5 9.44722 2.94772 8.99951 3.5 8.99951H6.00137C6.26659 8.99951 6.52094 8.89415 6.70848 8.70661L11.1464 4.26865Z" fill="#080809" style="fill:#080809;fill:color(display-p3 0.0314 0.0314 0.0353);fill-opacity:1;"/>
<path d="M17.9119 7.38415C17.5717 6.94904 16.9433 6.87207 16.5082 7.21222C16.0731 7.55237 15.9961 8.18084 16.3362 8.61594C17.0659 9.5493 17.5002 10.7226 17.5002 12C17.5002 13.2775 17.0659 14.4508 16.3362 15.3841C15.9961 15.8192 16.0731 16.4477 16.5082 16.7879C16.9433 17.128 17.5717 17.051 17.9119 16.6159C18.9068 15.3434 19.5002 13.7396 19.5002 12C19.5002 10.2605 18.9068 8.65672 17.9119 7.38415Z" fill="#080809" style="fill:#080809;fill:color(display-p3 0.0314 0.0314 0.0353);fill-opacity:1;"/>
</svg>
