<svg width="24" height="24" viewBox="0 0 24 24" fill="none" xmlns="http://www.w3.org/2000/svg">
<path d="M3.25 2.75C2.55964 2.75 2 3.30964 2 4C2 4.69036 2.55964 5.25 3.25 5.25H20.75C21.4404 5.25 22 4.69036 22 4C22 3.30964 21.4404 2.75 20.75 2.75H3.25Z" fill="#080809" style="fill:#080809;fill:color(display-p3 0.0314 0.0314 0.0353);fill-opacity:1;"/>
<path d="M2 12C2 11.3096 2.55964 10.75 3.25 10.75H20.75C21.4404 10.75 22 11.3096 22 12C22 12.6904 21.4404 13.25 20.75 13.25H3.25C2.55964 13.25 2 12.6904 2 12Z" fill="#080809" style="fill:#080809;fill:color(display-p3 0.0314 0.0314 0.0353);fill-opacity:1;"/>
<path d="M2 20C2 19.3096 2.55964 18.75 3.25 18.75H20.75C21.4404 18.75 22 19.3096 22 20C22 20.6904 21.4404 21.25 20.75 21.25H3.25C2.55964 21.25 2 20.6904 2 20Z" fill="#080809" style="fill:#080809;fill:color(display-p3 0.0314 0.0314 0.0353);fill-opacity:1;"/>
</svg>
