<svg width="24" height="24" viewBox="0 0 24 24" fill="none" xmlns="http://www.w3.org/2000/svg">
<path fill-rule="evenodd" clip-rule="evenodd" d="M13.4812 0.901028C12.5625 0.379338 11.4372 0.379345 10.5185 0.901048L3.01858 5.16001C2.07992 5.69305 1.5 6.68927 1.5 7.76872V16.2296C1.5 17.3091 2.07992 18.3053 3.01858 18.8384L10.5185 23.0973C11.4372 23.619 12.5625 23.619 13.4812 23.0973L20.9814 18.8384C21.9201 18.3053 22.5 17.3091 22.5 16.2296V7.76874C22.5 6.68928 21.9201 5.69304 20.9814 5.16001L13.4812 0.901028ZM11.5061 2.64019C11.8123 2.46629 12.1874 2.46629 12.4937 2.64019L19.4066 6.56574L11.9998 10.8446L4.59194 6.56653L11.5061 2.64019ZM3.5 8.24548V16.2296C3.5 16.5895 3.69331 16.9215 4.00619 17.0992L10.9999 21.0707V12.5767L3.5 8.24548ZM12.9999 21.0707L19.9938 17.0992C20.3067 16.9215 20.5 16.5894 20.5 16.2296V8.24385L12.9999 12.5766V21.0707Z" fill="#080809" style="fill:#080809;fill:color(display-p3 0.0314 0.0314 0.0353);fill-opacity:1;"/>
</svg>
