<svg width="24" height="24" viewBox="0 0 24 24" fill="none" xmlns="http://www.w3.org/2000/svg">
<g clip-path="url(#clip0_29901_28478)">
<path fill-rule="evenodd" clip-rule="evenodd" d="M0.5 12C0.5 5.64873 5.64873 0.5 12 0.5C18.3513 0.5 23.5 5.64873 23.5 12C23.5 18.3513 18.3513 23.5 12 23.5C5.64873 23.5 0.5 18.3513 0.5 12ZM15.2929 10.2931L12.3536 13.2325C12.1583 13.4277 11.8417 13.4277 11.6464 13.2325L8.70711 10.2931C8.31658 9.9026 7.68342 9.9026 7.29289 10.2931C6.90237 10.6836 6.90237 11.3168 7.29289 11.7073L10.2322 14.6467C11.2085 15.623 12.7915 15.623 13.7678 14.6467L16.7071 11.7073C17.0976 11.3168 17.0976 10.6836 16.7071 10.2931C16.3166 9.9026 15.6834 9.9026 15.2929 10.2931Z" fill="#080809" style="fill:#080809;fill:color(display-p3 0.0314 0.0314 0.0353);fill-opacity:1;"/>
</g>
<defs>
<clipPath id="clip0_29901_28478">
<rect width="24" height="24" fill="white" style="fill:white;fill-opacity:1;"/>
</clipPath>
</defs>
</svg>
