<svg width="24" height="24" viewBox="0 0 24 24" fill="none" xmlns="http://www.w3.org/2000/svg">
<path fill-rule="evenodd" clip-rule="evenodd" d="M19.6339 7.36612C20.122 7.85427 20.122 8.64573 19.6339 9.13388L13.0052 15.7626C12.9881 15.7796 12.9711 15.7967 12.9541 15.8137C12.4984 16.2695 12.0722 16.6959 11.6769 16.9975C11.238 17.3323 10.6939 17.6287 10 17.6287C9.30614 17.6287 8.76197 17.3323 8.32312 16.9975C7.92784 16.6959 7.50163 16.2695 7.04589 15.8137C7.0289 15.7967 7.01187 15.7796 6.9948 15.7626L4.36612 13.1339C3.87796 12.6457 3.87796 11.8543 4.36612 11.3661C4.85427 10.878 5.64573 10.878 6.13388 11.3661L8.76256 13.9948C9.28755 14.5198 9.59425 14.8227 9.83957 15.0099C9.91685 15.0689 9.96865 15.1009 10 15.1176C10.0314 15.1009 10.0831 15.0689 10.1604 15.0099C10.4057 14.8227 10.7124 14.5198 11.2374 13.9948L17.8661 7.36612C18.3543 6.87796 19.1457 6.87796 19.6339 7.36612ZM9.96125 15.1346C9.96141 15.1342 9.96496 15.1328 9.97139 15.1314C9.9643 15.1343 9.96109 15.135 9.96125 15.1346ZM10.0286 15.1314C10.035 15.1328 10.0386 15.1342 10.0388 15.1346C10.0389 15.135 10.0357 15.1343 10.0286 15.1314Z" fill="#080809" style="fill:#080809;fill:color(display-p3 0.0314 0.0314 0.0353);fill-opacity:1;"/>
</svg>
