<svg width="24" height="24" viewBox="0 0 24 24" fill="none" xmlns="http://www.w3.org/2000/svg">
<path d="M12.4981 6.63509C12.8064 6.45617 13.1866 6.4549 13.4961 6.63176L16.9961 8.63176C17.3077 8.8098 17.5 9.14114 17.5 9.5C17.5 9.85886 17.3077 10.1902 16.9961 10.3682L13.4961 12.3682C13.1866 12.5451 12.8064 12.5438 12.4981 12.3649C12.1898 12.186 12 11.8565 12 11.5V7.5C12 7.14353 12.1898 6.81401 12.4981 6.63509Z" fill="#080809" style="fill:#080809;fill:color(display-p3 0.0314 0.0314 0.0353);fill-opacity:1;"/>
<path fill-rule="evenodd" clip-rule="evenodd" d="M14.4366 1H14.5634C16.1533 0.99998 17.4351 0.999963 18.4541 1.12041C19.5087 1.24506 20.4111 1.51052 21.172 2.13495C21.4251 2.34272 21.6573 2.57486 21.865 2.82804C22.4895 3.58891 22.7549 4.49133 22.8796 5.5459C23 6.56488 23 7.8467 23 9.43656V9.56343C23 11.1533 23 12.4351 22.8796 13.4541C22.7549 14.5087 22.4895 15.4111 21.865 16.172C21.6573 16.4251 21.4251 16.6573 21.172 16.865C20.4111 17.4895 19.5087 17.7549 18.4541 17.8796C17.4351 18 16.1533 18 14.5634 18H14.4366C12.8467 18 11.5649 18 10.5459 17.8796C9.49133 17.7549 8.58891 17.4895 7.82804 16.865C7.57486 16.6573 7.34272 16.4251 7.13495 16.172C6.51052 15.4111 6.24506 14.5087 6.12041 13.4541C5.99996 12.4351 5.99998 11.1533 6 9.56345V9.43656C5.99998 7.8467 5.99996 6.56488 6.12041 5.5459C6.24506 4.49133 6.51052 3.58891 7.13495 2.82804C7.34272 2.57486 7.57486 2.34272 7.82804 2.13495C8.58891 1.51052 9.49133 1.24506 10.5459 1.12041C11.5649 0.999963 12.8467 0.99998 14.4366 1ZM10.7807 3.10658C9.91492 3.20892 9.4423 3.39744 9.09682 3.68097C8.94492 3.80563 8.80563 3.94492 8.68097 4.09682C8.39744 4.4423 8.20892 4.91492 8.10658 5.78068C8.00164 6.6685 8 7.83176 8 9.5C8 11.1682 8.00164 12.3315 8.10658 13.2193C8.20892 14.0851 8.39744 14.5577 8.68097 14.9032C8.80563 15.0551 8.94492 15.1944 9.09682 15.319C9.4423 15.6026 9.91492 15.7911 10.7807 15.8934C11.6685 15.9984 12.8318 16 14.5 16C16.1682 16 17.3315 15.9984 18.2193 15.8934C19.0851 15.7911 19.5577 15.6026 19.9032 15.319C20.0551 15.1944 20.1944 15.0551 20.319 14.9032C20.6026 14.5577 20.7911 14.0851 20.8934 13.2193C20.9984 12.3315 21 11.1682 21 9.5C21 7.83176 20.9984 6.6685 20.8934 5.78068C20.7911 4.91492 20.6026 4.4423 20.319 4.09682C20.1944 3.94492 20.0551 3.80563 19.9032 3.68097C19.5577 3.39744 19.0851 3.20892 18.2193 3.10658C17.3315 3.00164 16.1682 3 14.5 3C12.8318 3 11.6685 3.00164 10.7807 3.10658Z" fill="#080809" style="fill:#080809;fill:color(display-p3 0.0314 0.0314 0.0353);fill-opacity:1;"/>
<path d="M4.2071 15.7071C4.59763 15.3166 4.59763 14.6834 4.2071 14.2929C3.81658 13.9024 3.18342 13.9024 2.79289 14.2929L0.792893 16.2929C0.402369 16.6834 0.402369 17.3166 0.792893 17.7071C1.18342 18.0976 1.81658 18.0976 2.20711 17.7071L4.2071 15.7071Z" fill="#080809" style="fill:#080809;fill:color(display-p3 0.0314 0.0314 0.0353);fill-opacity:1;"/>
<path d="M6.0821 17.9179C6.47263 18.3084 6.47263 18.9416 6.0821 19.3321L2.20711 23.2071C1.81658 23.5976 1.18342 23.5976 0.792893 23.2071C0.402369 22.8166 0.402369 22.1834 0.792893 21.7929L4.66789 17.9179C5.05842 17.5274 5.69158 17.5274 6.0821 17.9179Z" fill="#080809" style="fill:#080809;fill:color(display-p3 0.0314 0.0314 0.0353);fill-opacity:1;"/>
<path d="M9.7071 19.7929C10.0976 20.1834 10.0976 20.8166 9.7071 21.2071L7.70711 23.2071C7.31658 23.5976 6.68342 23.5976 6.29289 23.2071C5.90237 22.8166 5.90237 22.1834 6.29289 21.7929L8.29289 19.7929C8.68342 19.4024 9.31658 19.4024 9.7071 19.7929Z" fill="#080809" style="fill:#080809;fill:color(display-p3 0.0314 0.0314 0.0353);fill-opacity:1;"/>
</svg>
