<svg width="24" height="24" viewBox="0 0 24 24" fill="none" xmlns="http://www.w3.org/2000/svg">
<path fill-rule="evenodd" clip-rule="evenodd" d="M14.1275 0.786625C12.6275 -0.0817975 10.7502 1.00059 10.7502 2.73384V9.59092L4.64331 5.92679C4.05133 5.57161 3.28351 5.76356 2.92832 6.35554C2.57314 6.94752 2.76509 7.71534 3.35707 8.07053L9.90457 11.999L3.35707 15.9275C2.76509 16.2827 2.57314 17.0505 2.92832 17.6425C3.28351 18.2345 4.05133 18.4264 4.64331 18.0713L10.7502 14.4071V21.2642C10.7502 22.9975 12.6275 24.0798 14.1275 23.2114L19.9241 19.8555C21.7372 18.8058 21.7576 16.1953 19.9611 15.1175L14.7637 11.999L19.9611 8.88057C21.7576 7.80271 21.7372 5.19221 19.9241 4.14254L14.1275 0.786625ZM13.2502 14.0064V20.8306L18.6715 17.6919C18.8363 17.5965 18.8382 17.3592 18.6749 17.2612L13.2502 14.0064ZM13.2502 9.99165L18.6749 6.73684C18.8382 6.63885 18.8363 6.40153 18.6715 6.30611L13.2502 3.16745V9.99165Z" fill="#080809" style="fill:#080809;fill:color(display-p3 0.0314 0.0314 0.0353);fill-opacity:1;"/>
</svg>
