<svg width="24" height="24" viewBox="0 0 24 24" fill="none" xmlns="http://www.w3.org/2000/svg">
<path d="M8 1C8.55228 1 9 1.44772 9 2C9 2.55228 8.55228 3 8 3H6C4.34315 3 3 4.34315 3 6V8C3 8.55228 2.55228 9 2 9C1.44772 9 1 8.55228 1 8V6C1 3.23858 3.23858 1 6 1H8Z" fill="#080809" style="fill:#080809;fill:color(display-p3 0.0314 0.0314 0.0353);fill-opacity:1;"/>
<path d="M16 1C15.4477 1 15 1.44772 15 2C15 2.55228 15.4477 3 16 3H18C19.6569 3 21 4.34315 21 6V8C21 8.55228 21.4477 9 22 9C22.5523 9 23 8.55228 23 8V6C23 3.23858 20.7614 1 18 1H16Z" fill="#080809" style="fill:#080809;fill:color(display-p3 0.0314 0.0314 0.0353);fill-opacity:1;"/>
<path d="M9 22C9 22.5523 8.55228 23 8 23H6C3.23858 23 1 20.7614 1 18V16C1 15.4477 1.44772 15 2 15C2.55228 15 3 15.4477 3 16V18C3 19.6569 4.34315 21 6 21H8C8.55228 21 9 21.4477 9 22Z" fill="#080809" style="fill:#080809;fill:color(display-p3 0.0314 0.0314 0.0353);fill-opacity:1;"/>
<path d="M16 23C15.4477 23 15 22.5523 15 22C15 21.4477 15.4477 21 16 21H18C19.6569 21 21 19.6569 21 18V16C21 15.4477 21.4477 15 22 15C22.5523 15 23 15.4477 23 16V18C23 20.7614 20.7614 23 18 23H16Z" fill="#080809" style="fill:#080809;fill:color(display-p3 0.0314 0.0314 0.0353);fill-opacity:1;"/>
<path d="M7 5C5.89543 5 5 5.89543 5 7V9C5 10.1046 5.89543 11 7 11H9C10.1046 11 11 10.1046 11 9V7C11 5.89543 10.1046 5 9 5H7Z" fill="#080809" style="fill:#080809;fill:color(display-p3 0.0314 0.0314 0.0353);fill-opacity:1;"/>
<path d="M15 5C13.8954 5 13 5.89543 13 7V9C13 10.1046 13.8954 11 15 11H17C18.1046 11 19 10.1046 19 9V7C19 5.89543 18.1046 5 17 5H15Z" fill="#080809" style="fill:#080809;fill:color(display-p3 0.0314 0.0314 0.0353);fill-opacity:1;"/>
<path d="M7 13C5.89543 13 5 13.8954 5 15V17C5 18.1046 5.89543 19 7 19H9C10.1046 19 11 18.1046 11 17V15C11 13.8954 10.1046 13 9 13H7Z" fill="#080809" style="fill:#080809;fill:color(display-p3 0.0314 0.0314 0.0353);fill-opacity:1;"/>
<path d="M15 13C13.8954 13 13 13.8954 13 15V17C13 18.1046 13.8954 19 15 19H17C18.1046 19 19 18.1046 19 17V15C19 13.8954 18.1046 13 17 13H15Z" fill="#080809" style="fill:#080809;fill:color(display-p3 0.0314 0.0314 0.0353);fill-opacity:1;"/>
</svg>
