<svg width="24" height="24" viewBox="0 0 24 24" fill="none" xmlns="http://www.w3.org/2000/svg">
<g clip-path="url(#clip0_29901_25975)">
<path d="M4.20512 5.23412C4.61933 4.51669 5.53672 4.27087 6.25416 4.68509C6.9716 5.0993 7.21741 6.01669 6.80319 6.73412C6.38898 7.45156 5.4716 7.69738 4.75416 7.28316C4.03672 6.86895 3.7909 5.95156 4.20512 5.23412Z" fill="#080809" style="fill:#080809;fill:color(display-p3 0.0314 0.0314 0.0353);fill-opacity:1;"/>
<path d="M4.20512 18.7581C4.61933 19.4755 5.53672 19.7213 6.25416 19.3071C6.9716 18.8929 7.21741 17.9755 6.80319 17.2581C6.38898 16.5406 5.4716 16.2948 4.75416 16.709C4.03672 17.1232 3.7909 18.0406 4.20512 18.7581Z" fill="#080809" style="fill:#080809;fill:color(display-p3 0.0314 0.0314 0.0353);fill-opacity:1;"/>
<path fill-rule="evenodd" clip-rule="evenodd" d="M3.00474 10.3134L5.92011 11.9966L3.00474 13.6798C0.613278 15.0605 -0.206098 18.1184 1.17461 20.5099C2.55533 22.9014 5.61328 23.7207 8.00474 22.34C10.2481 21.0448 11.1081 18.2736 10.0662 15.9612L11.4331 15.172L19.3613 19.7493C20.6766 20.5087 22.3585 20.0581 23.1178 18.7427C23.8772 17.4274 23.4266 15.7456 22.1113 14.9862L16.9331 11.9966L22.1113 9.00697C23.4266 8.24758 23.8772 6.5657 23.1179 5.2504C22.3585 3.93509 20.6766 3.48444 19.3613 4.24383L11.4331 8.82115L10.0662 8.03194C11.1081 5.71955 10.2481 2.94835 8.00474 1.65313C5.61328 0.272418 2.55533 1.09179 1.17461 3.48326C-0.206098 5.87472 0.613278 8.93267 3.00474 10.3134ZM2.90666 4.48326C3.73509 3.04838 5.56986 2.55675 7.00474 3.38518C8.43962 4.21361 8.93124 6.04838 8.10282 7.48326C7.6904 8.19758 7.93515 9.11099 8.64947 9.5234L10.9331 10.8419C11.2425 11.0205 11.6237 11.0205 11.9331 10.8419L20.3613 5.97588C20.72 5.76877 21.1787 5.89168 21.3858 6.2504C21.5929 6.60912 21.47 7.06781 21.1113 7.27492L15.4792 10.5266C15.4608 10.5358 15.4425 10.5456 15.4245 10.556L9.50017 13.9764C9.4821 13.9868 9.46448 13.9977 9.44732 14.0091L8.64947 14.4697C7.93515 14.8822 7.6904 15.7956 8.10282 16.5099C8.93124 17.9448 8.43962 19.7795 7.00474 20.608C5.56986 21.4364 3.73509 20.9448 2.90666 19.5099C2.07824 18.075 2.56986 16.2402 4.00474 15.4118L7.36947 13.4692C7.40423 13.4541 7.43849 13.4369 7.4721 13.4175L8.43313 12.8626C8.74253 12.684 8.93313 12.3538 8.93313 11.9966C8.93313 11.6393 8.74254 11.3092 8.43313 11.1305L7.4721 10.5757C7.43849 10.5563 7.40423 10.5391 7.36947 10.524L4.00474 8.58133C2.56986 7.75291 2.07824 5.91813 2.90666 4.48326ZM13.4312 14.0162L14.9312 13.1502L21.1113 16.7182C21.47 16.9253 21.5929 17.384 21.3858 17.7427C21.1787 18.1015 20.72 18.2244 20.3613 18.0173L13.4312 14.0162Z" fill="#080809" style="fill:#080809;fill:color(display-p3 0.0314 0.0314 0.0353);fill-opacity:1;"/>
</g>
<defs>
<clipPath id="clip0_29901_25975">
<rect width="24" height="24" fill="white" style="fill:white;fill-opacity:1;"/>
</clipPath>
</defs>
</svg>
