<svg width="24" height="24" viewBox="0 0 24 24" fill="none" xmlns="http://www.w3.org/2000/svg">
<path d="M9.38268 14.9239C9.75636 14.7691 10 14.4044 10 14V9.99997C10 9.59551 9.75636 9.23088 9.38268 9.07609C9.00901 8.92131 8.57889 9.00687 8.29289 9.29287L6.29289 11.2929C5.90237 11.6834 5.90237 12.3166 6.29289 12.7071L8.29289 14.7071C8.57889 14.9931 9.00901 15.0786 9.38268 14.9239Z" fill="#080809" style="fill:#080809;fill:color(display-p3 0.0314 0.0314 0.0353);fill-opacity:1;"/>
<path d="M19.5 14C19.5 14.5523 19.0523 15 18.5 15H17.5C16.9477 15 16.5 14.5523 16.5 14C16.5 13.4477 16.9477 13 17.5 13H18.5C19.0523 13 19.5 13.4477 19.5 14Z" fill="#080809" style="fill:#080809;fill:color(display-p3 0.0314 0.0314 0.0353);fill-opacity:1;"/>
<path d="M18.5 11C19.0523 11 19.5 10.5523 19.5 10C19.5 9.44772 19.0523 9 18.5 9H17.5C16.9477 9 16.5 9.44772 16.5 10C16.5 10.5523 16.9477 11 17.5 11H18.5Z" fill="#080809" style="fill:#080809;fill:color(display-p3 0.0314 0.0314 0.0353);fill-opacity:1;"/>
<path fill-rule="evenodd" clip-rule="evenodd" d="M11.9252 23H12.0748C14.3684 23 16.1914 23 17.6196 22.808C19.0921 22.6101 20.2936 22.1916 21.2426 21.2426C22.1916 20.2936 22.6101 19.0921 22.808 17.6196C23 16.1914 23 14.3683 23 12.0748V11.9252C23 9.63167 23 7.8086 22.808 6.38039C22.6101 4.90794 22.1916 3.70636 21.2426 2.75736C20.2936 1.80836 19.0921 1.38994 17.6196 1.19198C16.1914 0.99996 14.3683 0.999978 12.0748 1H11.9252C9.63167 0.999978 7.8086 0.99996 6.38039 1.19198C4.90794 1.38994 3.70636 1.80836 2.75736 2.75736C1.80836 3.70636 1.38994 4.90794 1.19198 6.38039C0.999961 7.80859 0.999978 9.63165 1 11.9252V12.0748C0.999978 14.3683 0.999961 16.1914 1.19198 17.6196C1.38994 19.0921 1.80836 20.2936 2.75736 21.2426C3.70636 22.1916 4.90794 22.6101 6.38039 22.808C7.80859 23 9.63165 23 11.9252 23ZM6.64689 20.8259C5.39621 20.6577 4.68704 20.3439 4.17157 19.8284C3.65611 19.313 3.34229 18.6038 3.17414 17.3531C3.00213 16.0737 3 14.3853 3 12C3 9.61471 3.00213 7.92634 3.17414 6.64689C3.34229 5.39621 3.65611 4.68704 4.17157 4.17157C4.68704 3.65611 5.39621 3.34229 6.64689 3.17414C7.92634 3.00212 9.61471 3 12 3C12.3479 3 12.6809 3.00005 13 3.00066V20.9993C12.6809 21 12.3479 21 12 21C9.61471 21 7.92634 20.9979 6.64689 20.8259ZM15 20.9796C15.9203 20.9583 16.6914 20.9148 17.3531 20.8259C18.6038 20.6577 19.313 20.3439 19.8284 19.8284C20.3439 19.313 20.6577 18.6038 20.8259 17.3531C20.9979 16.0737 21 14.3853 21 12C21 9.61471 20.9979 7.92634 20.8259 6.64689C20.6577 5.39621 20.3439 4.68704 19.8284 4.17157C19.313 3.65611 18.6038 3.34229 17.3531 3.17414C16.6914 3.08518 15.9203 3.04165 15 3.02037V20.9796Z" fill="#080809" style="fill:#080809;fill:color(display-p3 0.0314 0.0314 0.0353);fill-opacity:1;"/>
</svg>
