<svg width="24" height="24" viewBox="0 0 24 24" fill="none" xmlns="http://www.w3.org/2000/svg">
<g clip-path="url(#clip0_29901_26819)">
<path d="M12 2.5C6.75329 2.5 2.5 6.75329 2.5 12C2.5 17.2467 6.75329 21.5 12 21.5C12.5523 21.5 13 21.9477 13 22.5C13 23.0523 12.5523 23.5 12 23.5C5.64873 23.5 0.5 18.3513 0.5 12C0.5 5.64873 5.64873 0.5 12 0.5C12.5523 0.5 13 0.947715 13 1.5C13 2.05228 12.5523 2.5 12 2.5Z" fill="#080809" style="fill:#080809;fill:color(display-p3 0.0314 0.0314 0.0353);fill-opacity:1;"/>
<path d="M16.7071 7.29289C17.0976 7.68342 17.0976 8.31658 16.7071 8.70711L12.7071 12.7071C12.3166 13.0976 11.6834 13.0976 11.2929 12.7071C10.9024 12.3166 10.9024 11.6834 11.2929 11.2929L15.2929 7.29289C15.6834 6.90237 16.3166 6.90237 16.7071 7.29289Z" fill="#080809" style="fill:#080809;fill:color(display-p3 0.0314 0.0314 0.0353);fill-opacity:1;"/>
<path d="M21.25 12C21.25 12.6904 21.8096 13.25 22.5 13.25C23.1904 13.25 23.75 12.6904 23.75 12C23.75 11.3096 23.1904 10.75 22.5 10.75C21.8096 10.75 21.25 11.3096 21.25 12Z" fill="#080809" style="fill:#080809;fill:color(display-p3 0.0314 0.0314 0.0353);fill-opacity:1;"/>
<path d="M18.5408 5.45927C19.0289 5.94743 19.8204 5.94743 20.3085 5.45927C20.7967 4.97112 20.7967 4.17966 20.3085 3.6915C19.8204 3.20335 19.0289 3.20335 18.5408 3.6915C18.0526 4.17966 18.0526 4.97112 18.5408 5.45927Z" fill="#080809" style="fill:#080809;fill:color(display-p3 0.0314 0.0314 0.0353);fill-opacity:1;"/>
<path d="M18.5408 18.5407C18.0526 19.0289 18.0526 19.8203 18.5408 20.3085C19.029 20.7967 19.8204 20.7967 20.3086 20.3085C20.7967 19.8203 20.7967 19.0289 20.3086 18.5407C19.8204 18.0526 19.029 18.0526 18.5408 18.5407Z" fill="#080809" style="fill:#080809;fill:color(display-p3 0.0314 0.0314 0.0353);fill-opacity:1;"/>
<path d="M14.8633 1.82078C14.5991 2.45858 14.9019 3.18979 15.5397 3.45398C16.1776 3.71817 16.9088 3.41529 17.173 2.77749C17.4371 2.13968 17.1343 1.40847 16.4965 1.14428C15.8587 0.880094 15.1274 1.18297 14.8633 1.82078Z" fill="#080809" style="fill:#080809;fill:color(display-p3 0.0314 0.0314 0.0353);fill-opacity:1;"/>
<path d="M20.5459 8.46007C20.8101 9.09788 21.5413 9.40075 22.1791 9.13657C22.8169 8.87238 23.1198 8.14117 22.8556 7.50336C22.5914 6.86556 21.8602 6.56268 21.2224 6.82687C20.5846 7.09106 20.2817 7.82227 20.5459 8.46007Z" fill="#080809" style="fill:#080809;fill:color(display-p3 0.0314 0.0314 0.0353);fill-opacity:1;"/>
<path d="M20.5459 15.5397C20.2817 16.1775 20.5846 16.9087 21.2224 17.1729C21.8602 17.4371 22.5914 17.1342 22.8556 16.4964C23.1198 15.8586 22.8169 15.1274 22.1791 14.8632C21.5413 14.5991 20.8101 14.9019 20.5459 15.5397Z" fill="#080809" style="fill:#080809;fill:color(display-p3 0.0314 0.0314 0.0353);fill-opacity:1;"/>
<path d="M15.5398 20.546C14.902 20.8102 14.5991 21.5414 14.8633 22.1792C15.1275 22.817 15.8587 23.1199 16.4965 22.8557C17.1343 22.5915 17.4372 21.8603 17.173 21.2225C16.9088 20.5847 16.1776 20.2818 15.5398 20.546Z" fill="#080809" style="fill:#080809;fill:color(display-p3 0.0314 0.0314 0.0353);fill-opacity:1;"/>
</g>
<defs>
<clipPath id="clip0_29901_26819">
<rect width="24" height="24" fill="white" style="fill:white;fill-opacity:1;"/>
</clipPath>
</defs>
</svg>
