<svg width="24" height="24" viewBox="0 0 24 24" fill="none" xmlns="http://www.w3.org/2000/svg">
<path fill-rule="evenodd" clip-rule="evenodd" d="M6 0.5C4.34315 0.5 3 1.84315 3 3.5V20.5C3 22.1569 4.34315 23.5 6 23.5H20C20.5523 23.5 21 23.0523 21 22.5C21 21.9477 20.5523 21.5 20 21.5H19.5V19.5H20C20.5523 19.5 21 19.0523 21 18.5V3C21 1.61929 19.8807 0.5 18.5 0.5H6ZM17.5 19.5H6C5.44771 19.5 5 19.9477 5 20.5C5 21.0523 5.44772 21.5 6 21.5H17.5V19.5Z" fill="#080809" style="fill:#080809;fill:color(display-p3 0.0314 0.0314 0.0353);fill-opacity:1;"/>
</svg>
