<svg width="24" height="24" viewBox="0 0 24 24" fill="none" xmlns="http://www.w3.org/2000/svg">
<path d="M14.5732 3H9.42684C7.60339 2.99997 6.13362 2.99995 4.97767 3.15537C3.77752 3.31672 2.76702 3.66191 1.96447 4.46447C1.16191 5.26702 0.816721 6.27752 0.655366 7.47767C0.499952 8.63362 0.499974 10.1034 0.500001 11.9268V12.0732C0.499974 13.8966 0.499952 15.3664 0.655366 16.5223C0.816721 17.7225 1.16191 18.733 1.96447 19.5355C2.76702 20.3381 3.77752 20.6833 4.97767 20.8446C6.13363 21.0001 7.6034 21 9.42686 21H12C12.5523 21 13 20.5523 13 20C13 19.4477 12.5523 19 12 19H9.5C7.58611 19 6.2513 18.9979 5.24416 18.8625C4.26579 18.7309 3.7477 18.4903 3.37868 18.1213C3.00966 17.7523 2.76907 17.2342 2.63753 16.2558C2.50213 15.2487 2.5 13.9139 2.5 12C2.5 10.0861 2.50213 8.7513 2.63753 7.74416C2.76907 6.76579 3.00966 6.2477 3.37868 5.87868C3.7477 5.50966 4.26579 5.26907 5.24416 5.13753C6.2513 5.00213 7.58611 5 9.5 5H14.5C16.4139 5 17.7487 5.00213 18.7558 5.13753C19.7342 5.26907 20.2523 5.50966 20.6213 5.87868C20.9903 6.2477 21.2309 6.76579 21.3625 7.74416C21.4979 8.7513 21.5 10.0861 21.5 12V13C21.5 13.5523 21.9477 14 22.5 14C23.0523 14 23.5 13.5523 23.5 13V11.9269C23.5 10.1034 23.5001 8.63363 23.3446 7.47767C23.1833 6.27752 22.8381 5.26702 22.0355 4.46447C21.233 3.66191 20.2225 3.31672 19.0223 3.15537C17.8664 2.99995 16.3966 2.99997 14.5732 3Z" fill="#080809" style="fill:#080809;fill:color(display-p3 0.0314 0.0314 0.0353);fill-opacity:1;"/>
<path d="M22.7071 17.7071C23.0976 17.3166 23.0976 16.6834 22.7071 16.2929C22.3166 15.9024 21.6834 15.9024 21.2929 16.2929L18.25 19.3358L16.7071 17.7929C16.3166 17.4024 15.6834 17.4024 15.2929 17.7929C14.9024 18.1834 14.9024 18.8166 15.2929 19.2071L16.8358 20.75C17.6168 21.531 18.8832 21.531 19.6642 20.75L22.7071 17.7071Z" fill="#080809" style="fill:#080809;fill:color(display-p3 0.0314 0.0314 0.0353);fill-opacity:1;"/>
<path d="M5 10C5 9.44772 5.44772 9 6 9H18C18.5523 9 19 9.44772 19 10C19 10.5523 18.5523 11 18 11H6C5.44772 11 5 10.5523 5 10Z" fill="#080809" style="fill:#080809;fill:color(display-p3 0.0314 0.0314 0.0353);fill-opacity:1;"/>
<path d="M6 13C5.44772 13 5 13.4477 5 14C5 14.5523 5.44772 15 6 15H12C12.5523 15 13 14.5523 13 14C13 13.4477 12.5523 13 12 13H6Z" fill="#080809" style="fill:#080809;fill:color(display-p3 0.0314 0.0314 0.0353);fill-opacity:1;"/>
</svg>
