<svg width="24" height="24" viewBox="0 0 24 24" fill="none" xmlns="http://www.w3.org/2000/svg">
<g clip-path="url(#clip0_29901_26113)">
<path d="M12.1956 8.49918C11.9663 8.16662 11.5595 8.00465 11.1644 8.08864C10.7693 8.17262 10.4635 8.48606 10.3893 8.88311L10.122 10.3138L8.72707 10.7292C8.33994 10.8445 8.06019 11.1814 8.01796 11.5831C7.97574 11.9848 8.17935 12.3725 8.53405 12.5658L9.81213 13.2621L9.77615 14.7171C9.76616 15.121 10.0001 15.4911 10.3691 15.6554C10.7381 15.8197 11.1697 15.7459 11.4631 15.4682L12.5204 14.4679L13.8931 14.9517C14.274 15.086 14.6983 14.9779 14.9686 14.6777C15.2389 14.3776 15.3021 13.9443 15.1287 13.5794L14.504 12.2648L15.3884 11.1088C15.6338 10.788 15.6621 10.351 15.4602 10.0012C15.2582 9.65141 14.8656 9.45745 14.465 9.50959L13.0218 9.69746L12.1956 8.49918Z" fill="#080809" style="fill:#080809;fill:color(display-p3 0.0314 0.0314 0.0353);fill-opacity:1;"/>
<path fill-rule="evenodd" clip-rule="evenodd" d="M0.746339 14.3924C-0.574165 8.17988 3.39157 2.07319 9.60405 0.752687C15.8165 -0.567818 21.9232 3.39792 23.2437 9.6104C24.5642 15.8229 20.5985 21.9296 14.386 23.2501C8.17354 24.5706 2.06684 20.6049 0.746339 14.3924ZM10.0199 2.70898C7.60974 3.22127 5.60894 4.60556 4.27754 6.4614L16.792 3.80136C14.8209 2.64751 12.43 2.19669 10.0199 2.70898ZM2.70263 13.9765C2.31915 12.1724 2.47535 10.379 3.06215 8.76442L18.839 5.41094C20.0318 6.64726 20.904 8.22205 21.2874 10.0262C21.6668 11.8111 21.518 13.5853 20.9466 15.1864L5.11279 18.552C3.93961 17.3217 3.08201 15.7614 2.70263 13.9765ZM7.13827 20.1661C9.12074 21.346 11.5356 21.8113 13.9702 21.2938C16.4048 20.7763 18.4216 19.3691 19.7528 17.4848L7.13827 20.1661Z" fill="#080809" style="fill:#080809;fill:color(display-p3 0.0314 0.0314 0.0353);fill-opacity:1;"/>
</g>
<defs>
<clipPath id="clip0_29901_26113">
<rect width="24" height="24" fill="white" style="fill:white;fill-opacity:1;"/>
</clipPath>
</defs>
</svg>
