<svg width="24" height="24" viewBox="0 0 24 24" fill="none" xmlns="http://www.w3.org/2000/svg">
<path d="M18.5505 1.10465C18.9267 0.298449 20.0731 0.298453 20.4494 1.10465L20.6637 1.56402C21.028 2.34454 21.6554 2.97193 22.4359 3.3362L22.8953 3.55059C23.7015 3.92684 23.7015 5.07323 22.8953 5.44948L22.4359 5.66387C21.6554 6.02814 21.028 6.65553 20.6637 7.43605L20.4494 7.89542C20.0731 8.70162 18.9267 8.70162 18.5505 7.89542L18.3361 7.43605C17.9718 6.65553 17.3444 6.02814 16.5639 5.66387L16.1045 5.44948C15.2983 5.07322 15.2983 3.92684 16.1045 3.55059L16.5639 3.3362C17.3444 2.97193 17.9718 2.34454 18.3361 1.56402L18.5505 1.10465Z" fill="#080809" style="fill:#080809;fill:color(display-p3 0.0314 0.0314 0.0353);fill-opacity:1;"/>
<path d="M11 3.5C6.85786 3.5 3.5 6.85786 3.5 11C3.5 15.1421 6.85786 18.5 11 18.5C14.9998 18.5 18.269 15.3683 18.4883 11.424C18.5266 10.7347 19.1164 10.207 19.8057 10.2453C20.495 10.2836 21.0227 10.8734 20.9844 11.5627C20.8681 13.6559 20.1084 15.5771 18.8998 17.132L22.6339 20.8661C23.122 21.3543 23.122 22.1457 22.6339 22.6339C22.1457 23.122 21.3543 23.122 20.8661 22.6339L17.1321 18.8998C15.4388 20.2162 13.311 21 11 21C5.47715 21 1 16.5228 1 11C1 5.47715 5.47715 1 11 1C11.7953 1 12.5704 1.09308 13.3145 1.26949C13.9862 1.42874 14.4017 2.10239 14.2424 2.77413C14.0832 3.44586 13.4095 3.86131 12.7378 3.70206C12.1813 3.57012 11.5996 3.5 11 3.5Z" fill="#080809" style="fill:#080809;fill:color(display-p3 0.0314 0.0314 0.0353);fill-opacity:1;"/>
</svg>
