<svg width="24" height="24" viewBox="0 0 24 24" fill="none" xmlns="http://www.w3.org/2000/svg">
<path fill-rule="evenodd" clip-rule="evenodd" d="M9.99978 1.5C9.99978 0.947715 9.55206 0.5 8.99978 0.5C8.44749 0.5 7.99978 0.947715 7.99978 1.5V4.67607C7.01658 6.14264 7.10921 8.0934 8.25036 9.46278L8.61538 9.9008L7.64139 10.7774C5.32354 12.8635 4 15.8353 4 18.9536V22C4 22.8284 4.67157 23.5 5.5 23.5H5.7918C6.41278 23.5 7.02523 23.3554 7.58065 23.0777L7.70271 23.0167C8.2289 22.7536 8.84424 22.7355 9.38498 22.9672L10.4243 23.4127C11.4305 23.8439 12.5695 23.8439 13.5757 23.4127L14.615 22.9672C15.1558 22.7355 15.7711 22.7536 16.2973 23.0167L16.4193 23.0777C16.9748 23.3554 17.5872 23.5 18.2082 23.5H18.5C19.3284 23.5 20 22.8284 20 22V18.9536C20 15.8353 18.6765 12.8635 16.3586 10.7774L15.3844 9.90056L15.7492 9.46278C16.8903 8.09341 16.983 6.14264 15.9998 4.67607V1.5C15.9998 0.947715 15.5521 0.5 14.9998 0.5C14.4475 0.5 13.9998 0.947715 13.9998 1.5V4.24782C12.6856 4.56651 11.314 4.56651 9.99978 4.24782V1.5ZM10.3837 11L13.6163 11L15.0207 12.264C16.9171 13.9708 18 16.4022 18 18.9536V21.4891C17.7617 21.4642 17.5291 21.3965 17.3138 21.2889L17.1917 21.2278C16.1393 20.7016 14.9087 20.6655 13.8272 21.129L12.7878 21.5744C12.2847 21.79 11.7153 21.79 11.2122 21.5744L10.1728 21.129C9.09135 20.6655 7.86067 20.7016 6.80828 21.2278L6.68622 21.2889C6.47086 21.3965 6.23835 21.4642 6 21.4891V18.9536C6 16.4022 7.08289 13.9708 8.97932 12.264L10.3837 11ZM13.5314 9L14.2127 8.18241C14.6879 7.61219 14.7995 6.84035 14.5396 6.17464C12.8721 6.5909 11.1275 6.5909 9.45999 6.17464C9.20005 6.84035 9.31162 7.61219 9.7868 8.18241L10.4681 9L13.5314 9Z" fill="#080809" style="fill:#080809;fill:color(display-p3 0.0314 0.0314 0.0353);fill-opacity:1;"/>
</svg>
