<svg width="24" height="24" viewBox="0 0 24 24" fill="none" xmlns="http://www.w3.org/2000/svg">
<path d="M19.9832 4.74407C18.4721 4.05224 16.8768 3.56143 15.2381 3.28418C15.0139 3.68504 14.811 4.09747 14.6303 4.51975C12.8848 4.25672 11.1097 4.25672 9.36423 4.51975C9.18343 4.09751 8.98054 3.68509 8.75639 3.28418C7.11666 3.56377 5.52034 4.05574 4.00769 4.74768C1.0047 9.19066 0.190639 13.5233 0.59767 17.7944C2.3563 19.0938 4.3247 20.0819 6.41732 20.716C6.88851 20.0822 7.30546 19.4099 7.66374 18.7062C6.98324 18.452 6.32644 18.1384 5.70094 17.7691C5.86556 17.6497 6.02657 17.5267 6.18214 17.4073C8.0022 18.2632 9.98871 18.707 12 18.707C14.0113 18.707 15.9978 18.2632 17.8178 17.4073C17.9752 17.5357 18.1362 17.6587 18.299 17.7691C17.6723 18.139 17.0143 18.4532 16.3326 18.708C16.6904 19.4114 17.1074 20.0832 17.579 20.716C19.6734 20.0845 21.6433 19.0968 23.4023 17.7962C23.8799 12.8431 22.5864 8.55026 19.9832 4.74407ZM8.17931 15.1677C7.04505 15.1677 6.10797 14.1384 6.10797 12.872C6.10797 11.6057 7.01249 10.5673 8.17569 10.5673C9.3389 10.5673 10.2687 11.6057 10.2488 12.872C10.2289 14.1384 9.33528 15.1677 8.17931 15.1677ZM15.8207 15.1677C14.6846 15.1677 13.7511 14.1384 13.7511 12.872C13.7511 11.6057 14.6556 10.5673 15.8207 10.5673C16.9857 10.5673 17.9083 11.6057 17.8884 12.872C17.8685 14.1384 16.9766 15.1677 15.8207 15.1677Z" fill="#080809" style="fill:#080809;fill:color(display-p3 0.0314 0.0314 0.0353);fill-opacity:1;"/>
</svg>
