<svg width="24" height="24" viewBox="0 0 24 24" fill="none" xmlns="http://www.w3.org/2000/svg">
<g clip-path="url(#clip0_29901_28017)">
<path fill-rule="evenodd" clip-rule="evenodd" d="M12 0.5C5.64873 0.5 0.5 5.64873 0.5 12C0.5 18.3513 5.64873 23.5 12 23.5C18.3513 23.5 23.5 18.3513 23.5 12C23.5 5.64873 18.3513 0.5 12 0.5ZM12 7C10.8954 7 10 7.89543 10 9C10 9.55228 9.55229 10 9 10C8.44772 10 8 9.55228 8 9C8 6.79086 9.79086 5 12 5C14.2091 5 16 6.79086 16 9C16 10.5155 15.1568 11.8327 13.9186 12.5105C13.6233 12.6721 13.3721 12.8622 13.2058 13.0562C13.0438 13.245 13 13.39 13 13.5V14C13 14.5523 12.5523 15 12 15C11.4477 15 11 14.5523 11 14V13.5C11 12.7816 11.3121 12.1921 11.6877 11.7542C12.0589 11.3213 12.5269 10.9923 12.9583 10.7561C13.5812 10.4151 14 9.75575 14 9C14 7.89543 13.1046 7 12 7ZM12 19C12.6904 19 13.25 18.4404 13.25 17.75C13.25 17.0596 12.6904 16.5 12 16.5C11.3096 16.5 10.75 17.0596 10.75 17.75C10.75 18.4404 11.3096 19 12 19Z" fill="#080809" style="fill:#080809;fill:color(display-p3 0.0314 0.0314 0.0353);fill-opacity:1;"/>
</g>
<defs>
<clipPath id="clip0_29901_28017">
<rect width="24" height="24" fill="white" style="fill:white;fill-opacity:1;"/>
</clipPath>
</defs>
</svg>
