<svg width="24" height="24" viewBox="0 0 24 24" fill="none" xmlns="http://www.w3.org/2000/svg">
<path fill-rule="evenodd" clip-rule="evenodd" d="M13.6614 2.33456C12.0611 2.76339 11.1113 4.4084 11.5401 6.0088L12.8342 10.8384C13.263 12.4388 14.9081 13.3886 16.5085 12.9597L21.3381 11.6657C22.9385 11.2368 23.8882 9.59181 23.4594 7.99142L22.1653 3.16179C21.7365 1.56139 20.0915 0.611642 18.4911 1.04047L13.6614 2.33456ZM16.0164 5.32695C16.1593 5.86042 15.8427 6.40875 15.3092 6.55169C14.7758 6.69464 14.2274 6.37805 14.0845 5.84459C13.9416 5.31112 14.2581 4.76278 14.7916 4.61984C15.3251 4.4769 15.8734 4.79348 16.0164 5.32695ZM20.2082 9.38012C20.7417 9.23718 21.0583 8.68884 20.9153 8.15538C20.7724 7.62191 20.2241 7.30533 19.6906 7.44827C19.1571 7.59121 18.8405 8.13955 18.9835 8.67302C19.1264 9.20648 19.6748 9.52306 20.2082 9.38012Z" fill="#080809" style="fill:#080809;fill:color(display-p3 0.0314 0.0314 0.0353);fill-opacity:1;"/>
<path fill-rule="evenodd" clip-rule="evenodd" d="M4 12.0002C2.34315 12.0002 1 13.3433 1 15.0002V20.0002C1 21.657 2.34315 23.0002 4 23.0002H9C10.6569 23.0002 12 21.657 12 20.0002V15.0002C12 13.3433 10.6569 12.0002 9 12.0002H4ZM5.5 15.5C5.5 16.0523 5.05228 16.5 4.5 16.5C3.94772 16.5 3.5 16.0523 3.5 15.5C3.5 14.9477 3.94772 14.5 4.5 14.5C5.05228 14.5 5.5 14.9477 5.5 15.5ZM8.5 20.5C9.05229 20.5 9.5 20.0523 9.5 19.5C9.5 18.9477 9.05229 18.5 8.5 18.5C7.94772 18.5 7.5 18.9477 7.5 19.5C7.5 20.0523 7.94772 20.5 8.5 20.5ZM7.5 15.5C7.5 16.0523 7.94772 16.5 8.5 16.5C9.05229 16.5 9.5 16.0523 9.5 15.5C9.5 14.9477 9.05229 14.5 8.5 14.5C7.94772 14.5 7.5 14.9477 7.5 15.5ZM4.5 20.5C3.94772 20.5 3.5 20.0523 3.5 19.5C3.5 18.9477 3.94772 18.5 4.5 18.5C5.05228 18.5 5.5 18.9477 5.5 19.5C5.5 20.0523 5.05228 20.5 4.5 20.5Z" fill="#080809" style="fill:#080809;fill:color(display-p3 0.0314 0.0314 0.0353);fill-opacity:1;"/>
</svg>
