<svg width="24" height="24" viewBox="0 0 24 24" fill="none" xmlns="http://www.w3.org/2000/svg">
<path d="M23.75 12C23.75 14.0234 23.2373 15.9307 22.334 17.5957C22.0048 18.2024 21.2464 18.4277 20.6396 18.0986C20.0329 17.7695 19.8077 17.0111 20.1367 16.4043C20.8465 15.0961 21.25 13.5969 21.25 12C21.25 6.89137 17.1086 2.75 12 2.75C11.3096 2.75 10.75 2.19036 10.75 1.5C10.75 0.809645 11.3096 0.25 12 0.25C18.4893 0.25 23.75 5.51065 23.75 12ZM7.5957 3.86328C6.98895 4.19227 6.23053 3.96706 5.90137 3.36035C5.57235 2.75359 5.79758 1.99519 6.4043 1.66602C6.76627 1.46964 7.13961 1.29108 7.52344 1.13281C8.16165 0.869701 8.89212 1.1743 9.15527 1.8125C9.41838 2.45069 9.11472 3.18116 8.47656 3.44434C8.17481 3.56876 7.88056 3.70873 7.5957 3.86328ZM2.77246 4.72559C3.20012 4.18396 3.98552 4.09119 4.52734 4.51855C5.06925 4.94626 5.16208 5.73251 4.73438 6.27441L2.77246 4.72559ZM3.86328 7.5957C3.53412 8.20241 2.7757 8.42762 2.16895 8.09863C1.56223 7.76946 1.337 7.01106 1.66602 6.4043C1.98731 5.8121 2.3582 5.25046 2.77246 4.72559L4.73438 6.27441C4.40794 6.688 4.11604 7.12986 3.86328 7.5957ZM2.75 12C2.75 13.4969 3.10435 14.9079 3.7334 16.1562L3.86328 16.4043L3.91895 16.5195C4.16306 17.104 3.92913 17.79 3.36035 18.0986C2.79143 18.4071 2.08917 18.2287 1.73242 17.7051L1.66602 17.5957L1.50098 17.2812C0.700302 15.6923 0.25 13.8971 0.25 12C0.25 11.6235 0.267973 11.2509 0.302734 10.8828C0.367668 10.1955 0.977743 9.69093 1.66504 9.75586C2.35197 9.82103 2.85574 10.4302 2.79102 11.1172C2.76361 11.4073 2.75 11.702 2.75 12ZM17.9912 19.0479C18.5169 18.6008 19.3055 18.6641 19.7529 19.1895C20.2003 19.7152 20.1371 20.5047 19.6113 20.9521L17.9912 19.0479ZM12 23.75C9.09784 23.75 6.43843 22.6964 4.38867 20.9521L4.2959 20.8643C3.85724 20.407 3.82759 19.6824 4.24707 19.1895C4.69445 18.6641 5.48314 18.6008 6.00879 19.0479L6.31738 19.2988C7.88579 20.522 9.8564 21.25 12 21.25C14.2865 21.25 16.3766 20.4218 17.9912 19.0479L19.6113 20.9521C17.5616 22.6964 14.9022 23.75 12 23.75Z" fill="#080809" style="fill:#080809;fill:color(display-p3 0.0314 0.0314 0.0353);fill-opacity:1;"/>
</svg>
