<svg width="24" height="24" viewBox="0 0 24 24" fill="none" xmlns="http://www.w3.org/2000/svg">
<path d="M13.8563 12.9884L11.9997 8.24397L10.1432 12.9884H13.8563Z" fill="#080809" style="fill:#080809;fill:color(display-p3 0.0314 0.0314 0.0353);fill-opacity:1;"/>
<path fill-rule="evenodd" clip-rule="evenodd" d="M12.0748 1H11.9252C9.63166 0.999979 7.80859 0.999962 6.3804 1.19198C4.90794 1.38994 3.70636 1.80836 2.75736 2.75736C1.80836 3.70636 1.38994 4.90794 1.19198 6.3804C0.999962 7.80859 0.999979 9.63164 1 11.9252V12.0748C0.999979 14.3683 0.999962 16.1914 1.19198 17.6196C1.38994 19.0921 1.80836 20.2936 2.75736 21.2426C3.70636 22.1916 4.90794 22.6101 6.3804 22.808C7.8086 23 9.63167 23 11.9252 23H12.0748C14.3683 23 16.1914 23 17.6196 22.808C19.0921 22.6101 20.2936 22.1916 21.2426 21.2426C22.1916 20.2936 22.6101 19.0921 22.808 17.6196C23 16.1914 23 14.3683 23 12.0748V11.9252C23 9.63167 23 7.8086 22.808 6.3804C22.6101 4.90794 22.1916 3.70636 21.2426 2.75736C20.2936 1.80836 19.0921 1.38994 17.6196 1.19198C16.1914 0.999962 14.3683 0.999979 12.0748 1ZM14.6389 14.9884L15.5685 17.3641C15.7697 17.8784 16.3498 18.1322 16.8641 17.931C17.3784 17.7297 17.6322 17.1496 17.431 16.6353L13.3966 6.32525C12.8992 5.05405 11.1003 5.05405 10.6029 6.32525L6.56849 16.6353C6.36724 17.1496 6.62102 17.7297 7.13533 17.931C7.64964 18.1322 8.22972 17.8784 8.43098 17.3641L9.3606 14.9884H14.6389Z" fill="#080809" style="fill:#080809;fill:color(display-p3 0.0314 0.0314 0.0353);fill-opacity:1;"/>
</svg>
