<svg width="24" height="24" viewBox="0 0 24 24" fill="none" xmlns="http://www.w3.org/2000/svg">
<path d="M9.5 5.5C9.5 6.32843 8.82843 7 8 7C7.17157 7 6.5 6.32843 6.5 5.5C6.5 4.67157 7.17157 4 8 4C8.82843 4 9.5 4.67157 9.5 5.5Z" fill="#080809" style="fill:#080809;fill:color(display-p3 0.0314 0.0314 0.0353);fill-opacity:1;"/>
<path fill-rule="evenodd" clip-rule="evenodd" d="M6 0.5C4.34315 0.5 3 1.84315 3 3.5V20.5C3 22.1569 4.34315 23.5 6 23.5H20C20.5523 23.5 21 23.0523 21 22.5C21 21.9477 20.5523 21.5 20 21.5H19.5V19.5H20C20.5523 19.5 21 19.0523 21 18.5V3C21 1.61929 19.8807 0.5 18.5 0.5H6ZM5 17.6705V15.9141L7.51376 13.4003C7.78225 13.1319 8.21755 13.1319 8.48603 13.4003L9.08558 13.9999C9.86663 14.7809 11.133 14.7809 11.914 13.9999L15.6464 10.2675C15.8416 10.0723 16.1582 10.0723 16.3535 10.2675L19 12.9141V17.4998H6C5.64936 17.4998 5.31278 17.5599 5 17.6705ZM17.7677 8.85333L19 10.0856V3C19 2.72386 18.7761 2.5 18.5 2.5H6C5.44772 2.5 5 2.94772 5 3.5V13.0857L6.09955 11.9861C7.14908 10.9366 8.85071 10.9366 9.90025 11.9861L10.4998 12.5857L14.2322 8.85333C15.2085 7.87702 16.7914 7.87702 17.7677 8.85333ZM17.5 19.5H6C5.44772 19.5 5 19.9477 5 20.5C5 21.0523 5.44772 21.5 6 21.5H17.5V19.5Z" fill="#080809" style="fill:#080809;fill:color(display-p3 0.0314 0.0314 0.0353);fill-opacity:1;"/>
</svg>
