<svg width="24" height="24" viewBox="0 0 24 24" fill="none" xmlns="http://www.w3.org/2000/svg">
<path d="M10.6421 0.678448C7.9748 1.39316 6.39189 4.13484 7.1066 6.80217L7.70283 9.02733C7.29198 9.04461 6.91611 9.07277 6.57494 9.11864C5.64711 9.24338 4.82769 9.51535 4.17158 10.1715C3.51547 10.8276 3.2435 11.647 3.11876 12.5748C2.99994 13.4586 2.99997 14.5752 3 15.9293V16.0705C2.99997 17.4246 2.99994 18.5412 3.11876 19.425C3.2435 20.3528 3.51547 21.1722 4.17158 21.8283C4.82769 22.4844 5.64711 22.7564 6.57494 22.8811C7.4587 23 8.57531 22.9999 9.92943 22.9999H14.0706C15.4247 22.9999 16.5413 23 17.4251 22.8811C18.3529 22.7564 19.1723 22.4844 19.8284 21.8283C20.4845 21.1722 20.7565 20.3528 20.8813 19.425C21.0001 18.5412 21 17.4246 21 16.0705V15.9293C21 14.5752 21.0001 13.4586 20.8813 12.5748C20.7565 11.647 20.4845 10.8276 19.8284 10.1715C19.1723 9.51535 18.3529 9.24338 17.4251 9.11864C16.5413 8.99982 15.4247 8.99985 14.0706 8.99989H9.92943C9.87458 8.99989 9.82009 8.99988 9.76603 8.99989L9.03845 6.28453C8.60962 4.68413 9.55937 3.03913 11.1598 2.6103C12.7602 2.18147 14.4052 3.13122 14.834 4.73162L14.8987 4.9731C15.0416 5.50657 15.59 5.82315 16.1235 5.68021C16.6569 5.53727 16.9735 4.98893 16.8306 4.45546L16.7659 4.21398C16.0511 1.54665 13.3095 -0.0362612 10.6421 0.678448Z" fill="#080809" style="fill:#080809;fill:color(display-p3 0.0314 0.0314 0.0353);fill-opacity:1;"/>
</svg>
