<svg width="24" height="24" viewBox="0 0 24 24" fill="none" xmlns="http://www.w3.org/2000/svg">
<path d="M7 9C8.10457 9 9 8.10457 9 7C9 5.89543 8.10457 5 7 5C5.89543 5 5 5.89543 5 7C5 8.10457 5.89543 9 7 9Z" fill="#080809" style="fill:#080809;fill:color(display-p3 0.0314 0.0314 0.0353);fill-opacity:1;"/>
<path fill-rule="evenodd" clip-rule="evenodd" d="M12.0748 1H11.9252C9.63166 0.999978 7.80859 0.999961 6.38039 1.19198C4.90794 1.38994 3.70636 1.80836 2.75736 2.75736C1.80836 3.70636 1.38994 4.90794 1.19198 6.38039C0.999961 7.80859 0.999978 9.63164 1 11.9252V12.0748C0.999978 14.3683 0.999961 16.1914 1.19198 17.6196C1.25008 18.0518 1.32717 18.4606 1.43109 18.8465C1.43247 18.852 1.43389 18.8574 1.43536 18.8628C1.68795 19.793 2.09651 20.5822 2.75745 21.2432C3.70645 22.1922 4.90803 22.6106 6.38048 22.8086C7.80868 23.0006 9.63174 23.0006 11.9253 23.0005H12.0749C14.3684 23.0006 16.1915 23.0006 17.6197 22.8086C19.0922 22.6106 20.2937 22.1922 21.2427 21.2432C22.5115 19.9744 22.8385 18.245 22.9464 15.9958C22.9468 15.9881 22.9471 15.9804 22.9473 15.9726C23 14.8584 23 13.566 23 12.0748V11.9252C23 9.63167 23 7.8086 22.808 6.38039C22.6101 4.90794 22.1916 3.70636 21.2426 2.75736C20.2936 1.80836 19.0921 1.38994 17.6196 1.19198C16.1914 0.999961 14.3683 0.999978 12.0748 1ZM20.9974 13.5835C20.9999 13.0923 21 12.5658 21 12C21 9.61471 20.9979 7.92634 20.8259 6.64689C20.6577 5.39621 20.3439 4.68704 19.8284 4.17157C19.313 3.65611 18.6038 3.34229 17.3531 3.17414C16.0737 3.00213 14.3853 3 12 3C9.61471 3 7.92634 3.00213 6.64689 3.17414C5.39621 3.34229 4.68704 3.65611 4.17157 4.17157C3.65611 4.68704 3.34229 5.39621 3.17414 6.64689C3.00213 7.92634 3 9.61471 3 12C3 13.8894 3.00133 15.3416 3.08738 16.4996L5.23265 14.3543C6.20896 13.378 7.79187 13.378 8.76818 14.3543L9.14686 14.733C9.34212 14.9282 9.65871 14.9282 9.85397 14.733L14.2327 10.3543C15.209 9.37799 16.7919 9.37799 17.7682 10.3543L20.9974 13.5835Z" fill="#080809" style="fill:#080809;fill:color(display-p3 0.0314 0.0314 0.0353);fill-opacity:1;"/>
</svg>
