<svg width="24" height="24" viewBox="0 0 24 24" fill="none" xmlns="http://www.w3.org/2000/svg">
<path fill-rule="evenodd" clip-rule="evenodd" d="M12.0748 1H11.9252C9.63166 0.999979 7.80859 0.999962 6.3804 1.19198C4.90794 1.38994 3.70636 1.80836 2.75736 2.75736C1.80836 3.70636 1.38994 4.90794 1.19198 6.3804C0.999962 7.80859 0.999979 9.63164 1 11.9252V12.0748C0.999979 14.3683 0.999962 16.1914 1.19198 17.6196C1.38994 19.0921 1.80836 20.2936 2.75736 21.2426C3.70636 22.1916 4.90794 22.6101 6.3804 22.808C7.8086 23 9.63167 23 11.9252 23H12.0748C14.3683 23 16.1914 23 17.6196 22.808C19.0921 22.6101 20.2936 22.1916 21.2426 21.2426C22.1916 20.2936 22.6101 19.0921 22.808 17.6196C23 16.1914 23 14.3683 23 12.0748V11.9252C23 9.63167 23 7.8086 22.808 6.3804C22.6101 4.90794 22.1916 3.70636 21.2426 2.75736C20.2936 1.80836 19.0921 1.38994 17.6196 1.19198C16.1914 0.999962 14.3683 0.999979 12.0748 1ZM7.5 7C7.5 7.69036 6.94036 8.25 6.25 8.25C5.55964 8.25 5 7.69036 5 7C5 6.30964 5.55964 5.75 6.25 5.75C6.94036 5.75 7.5 6.30964 7.5 7ZM6.25 13.25C6.94036 13.25 7.5 12.6904 7.5 12C7.5 11.3096 6.94036 10.75 6.25 10.75C5.55964 10.75 5 11.3096 5 12C5 12.6904 5.55964 13.25 6.25 13.25ZM7.5 17C7.5 17.6904 6.94036 18.25 6.25 18.25C5.55964 18.25 5 17.6904 5 17C5 16.3096 5.55964 15.75 6.25 15.75C6.94036 15.75 7.5 16.3096 7.5 17ZM10 11C9.44771 11 9 11.4477 9 12C9 12.5523 9.44771 13 10 13H18C18.5523 13 19 12.5523 19 12C19 11.4477 18.5523 11 18 11H10ZM9 7C9 6.44772 9.44771 6 10 6H18C18.5523 6 19 6.44772 19 7C19 7.55229 18.5523 8 18 8H10C9.44771 8 9 7.55229 9 7ZM10 16C9.44771 16 9 16.4477 9 17C9 17.5523 9.44771 18 10 18H18C18.5523 18 19 17.5523 19 17C19 16.4477 18.5523 16 18 16H10Z" fill="#080809" style="fill:#080809;fill:color(display-p3 0.0314 0.0314 0.0353);fill-opacity:1;"/>
</svg>
