<svg width="24" height="24" viewBox="0 0 24 24" fill="none" xmlns="http://www.w3.org/2000/svg">
<path fill-rule="evenodd" clip-rule="evenodd" d="M12.0748 1H11.9252C9.63166 0.999979 7.80859 0.999962 6.3804 1.19198C4.90794 1.38994 3.70636 1.80836 2.75736 2.75736C1.80836 3.70636 1.38994 4.90794 1.19198 6.3804C0.999962 7.80859 0.999979 9.63164 1 11.9252V12.0748C0.999979 14.3683 0.999962 16.1914 1.19198 17.6196C1.38994 19.0921 1.80836 20.2936 2.75736 21.2426C3.70636 22.1916 4.90794 22.6101 6.3804 22.808C7.8086 23 9.63167 23 11.9252 23H12.0748C14.3683 23 16.1914 23 17.6196 22.808C19.0921 22.6101 20.2936 22.1916 21.2426 21.2426C22.1916 20.2936 22.6101 19.0921 22.808 17.6196C23 16.1914 23 14.3683 23 12.0748V11.9252C23 9.63167 23 7.8086 22.808 6.3804C22.6101 4.90794 22.1916 3.70636 21.2426 2.75736C20.2936 1.80836 19.0921 1.38994 17.6196 1.19198C16.1914 0.999962 14.3683 0.999979 12.0748 1ZM11.9995 9C10.3457 9.00027 9 10.3462 9 11.999C9 12.552 9.447 12.999 10 12.999C10.553 12.999 11 12.552 11 11.999C11 11.446 11.448 11 12 11C12.552 11 13 11.448 13 11.999C13 12.365 12.801 12.701 12.479 12.877C11.54 13.393 11 14.169 11 15.008C11 15.561 11.447 16.012 12 16.012C12.553 16.012 12.999 15.568 12.999 15.015C13.012 14.963 13.14 14.795 13.437 14.632C14.401 14.107 14.999 13.098 14.999 11.999C14.999 10.3462 13.6533 9.00027 11.9995 9ZM12 19.5C12.6904 19.5 13.25 18.9404 13.25 18.25C13.25 17.5596 12.6904 17 12 17C11.3096 17 10.75 17.5596 10.75 18.25C10.75 18.9404 11.3096 19.5 12 19.5ZM8 5C7.44772 5 7 5.44772 7 6C7 6.55229 7.44772 7 8 7H16C16.5523 7 17 6.55229 17 6C17 5.44772 16.5523 5 16 5H8Z" fill="#080809" style="fill:#080809;fill:color(display-p3 0.0314 0.0314 0.0353);fill-opacity:1;"/>
</svg>
