<svg width="24" height="24" viewBox="0 0 24 24" fill="none" xmlns="http://www.w3.org/2000/svg">
<path fill-rule="evenodd" clip-rule="evenodd" d="M16.0706 1H7.92943C6.57535 0.999968 5.45868 0.999941 4.57494 1.11876C3.64711 1.2435 2.82769 1.51547 2.17158 2.17158C1.51547 2.82769 1.2435 3.64711 1.11876 4.57494C0.999941 5.45868 0.999968 6.57527 1 7.92936V16.0706C0.999968 17.4247 0.999941 18.5413 1.11876 19.4251C1.2435 20.3529 1.51547 21.1723 2.17158 21.8284C2.82769 22.4845 3.64711 22.7565 4.57494 22.8813C5.45867 23.0001 6.57525 23 7.92931 23H12C12.5523 23 13 22.5523 13 22C13 21.4477 12.5523 21 12 21H8C6.55752 21 5.57626 20.9979 4.84144 20.8991C4.13538 20.8042 3.80836 20.6368 3.58579 20.4142C3.36322 20.1916 3.19585 19.8646 3.10092 19.1586C3.00213 18.4238 3 17.4425 3 16V9H21V12C21 12.5523 21.4477 13 22 13C22.5523 13 23 12.5523 23 12V7.92946C23 6.5754 23.0001 5.45867 22.8813 4.57494C22.7565 3.64711 22.4845 2.82769 21.8284 2.17158C21.1723 1.51547 20.3529 1.2435 19.4251 1.11876C18.5413 0.999941 17.4247 0.999968 16.0706 1ZM6 5C6 5.55229 5.55229 6 5 6C4.44772 6 4 5.55229 4 5C4 4.44772 4.44772 4 5 4C5.55229 4 6 4.44772 6 5ZM8 6C8.55229 6 9 5.55229 9 5C9 4.44772 8.55229 4 8 4C7.44772 4 7 4.44772 7 5C7 5.55229 7.44772 6 8 6Z" fill="#080809" style="fill:#080809;fill:color(display-p3 0.0314 0.0314 0.0353);fill-opacity:1;"/>
<path fill-rule="evenodd" clip-rule="evenodd" d="M19 23.5C21.4853 23.5 23.5 21.4853 23.5 19C23.5 16.5147 21.4853 14.5 19 14.5C16.5147 14.5 14.5 16.5147 14.5 19C14.5 21.4853 16.5147 23.5 19 23.5ZM19.75 17.25C19.75 16.8358 19.4142 16.5 19 16.5C18.5858 16.5 18.25 16.8358 18.25 17.25V19C18.25 19.1989 18.329 19.3897 18.4697 19.5303L19.7197 20.7803C20.0126 21.0732 20.4874 21.0732 20.7803 20.7803C21.0732 20.4874 21.0732 20.0126 20.7803 19.7197L19.75 18.6893V17.25Z" fill="#080809" style="fill:#080809;fill:color(display-p3 0.0314 0.0314 0.0353);fill-opacity:1;"/>
</svg>
