<svg width="24" height="24" viewBox="0 0 24 24" fill="none" xmlns="http://www.w3.org/2000/svg">
<path d="M7.78051 4.41906C7.51372 3.17404 8.46283 2 9.73612 2H10.9532C11.6337 2 12.2675 2.34604 12.6355 2.91848L15.5808 7.5H8.44071L7.78051 4.41906Z" fill="#080809" style="fill:#080809;fill:color(display-p3 0.0314 0.0314 0.0353);fill-opacity:1;"/>
<path d="M2.45373 6C1.20146 6 0.257209 7.13775 0.487989 8.36858L1.3071 12.7372C1.66183 14.629 3.31373 16 5.23859 16H8.76182L7.78019 20.5809C7.5134 21.826 8.4625 23 9.73579 23H10.9529C11.6334 23 12.2672 22.654 12.6352 22.0815L16.5448 16H19.9988C21.9318 16 23.4988 14.433 23.4988 12.5C23.4988 10.567 21.9318 9 19.9988 9H5.78399L4.37772 6.8906C4.00679 6.3342 3.38233 6 2.71362 6H2.45373Z" fill="#080809" style="fill:#080809;fill:color(display-p3 0.0314 0.0314 0.0353);fill-opacity:1;"/>
</svg>
