<svg width="24" height="24" viewBox="0 0 24 24" fill="none" xmlns="http://www.w3.org/2000/svg">
<path d="M8 8C8 5.79086 9.79086 4 12 4C14.2091 4 16 5.79086 16 8C16 9.51284 15.1605 10.8311 13.9172 11.5117C13.2437 11.8804 12.5359 12.3825 11.9855 13.0243C11.4307 13.6711 11 14.5054 11 15.5V16C11 16.5523 11.4477 17 12 17C12.5523 17 13 16.5523 13 16V15.5C13 15.1139 13.1624 14.7241 13.5036 14.3263C13.8492 13.9234 14.3401 13.5602 14.8776 13.266C16.7361 12.2486 18 10.2726 18 8C18 4.68629 15.3137 2 12 2C8.68629 2 6 4.68629 6 8C6 8.55229 6.44772 9 7 9C7.55228 9 8 8.55229 8 8Z" fill="#080809" style="fill:#080809;fill:color(display-p3 0.0314 0.0314 0.0353);fill-opacity:1;"/>
<path d="M12 22C12.8284 22 13.5 21.3284 13.5 20.5C13.5 19.6716 12.8284 19 12 19C11.1716 19 10.5 19.6716 10.5 20.5C10.5 21.3284 11.1716 22 12 22Z" fill="#080809" style="fill:#080809;fill:color(display-p3 0.0314 0.0314 0.0353);fill-opacity:1;"/>
</svg>
