<svg width="24" height="24" viewBox="0 0 24 24" fill="none" xmlns="http://www.w3.org/2000/svg">
<g clip-path="url(#clip0_29901_26822)">
<path fill-rule="evenodd" clip-rule="evenodd" d="M11.5553 12.9753C11.5553 13.4103 11.4563 13.7913 11.2583 14.1183C11.0633 14.4423 10.7903 14.6958 10.4393 14.8788C10.0883 15.0588 9.67727 15.1488 9.20627 15.1488C8.41127 15.1488 7.79777 14.8773 7.36577 14.3343C6.93377 13.7883 6.71777 13.0143 6.71777 12.0123C6.71777 11.2983 6.82577 10.6833 7.04177 10.1673C7.25777 9.65126 7.56677 9.25376 7.96877 8.97476C8.37377 8.69276 8.85677 8.55176 9.41777 8.55176C9.77777 8.55176 10.1213 8.60876 10.4483 8.72276C10.7783 8.83376 11.0768 8.99126 11.3438 9.19526L10.7633 10.1403C10.5773 10.0083 10.3733 9.90326 10.1513 9.82526C9.92927 9.74726 9.70877 9.70826 9.48977 9.70826C9.06077 9.70826 8.70527 9.86876 8.42327 10.1898C8.14127 10.5078 7.99277 10.9563 7.97777 11.5353C8.13077 11.3223 8.33627 11.1558 8.59427 11.0358C8.85527 10.9158 9.14927 10.8558 9.47627 10.8558C9.88127 10.8558 10.2398 10.9473 10.5518 11.1303C10.8638 11.3133 11.1083 11.5653 11.2853 11.8863C11.4653 12.2043 11.5553 12.5673 11.5553 12.9753ZM9.18827 13.9923C9.48827 13.9923 9.73127 13.8978 9.91727 13.7088C10.1063 13.5168 10.2008 13.2678 10.2008 12.9618C10.2008 12.6558 10.1063 12.4098 9.91727 12.2238C9.72827 12.0348 9.47927 11.9403 9.17027 11.9403C8.86427 11.9403 8.61677 12.0318 8.42777 12.2148C8.23877 12.3978 8.14427 12.6408 8.14427 12.9438C8.14427 13.2468 8.24027 13.4973 8.43227 13.6953C8.62727 13.8933 8.87927 13.9923 9.18827 13.9923Z" fill="#080809" style="fill:#080809;fill:color(display-p3 0.0314 0.0314 0.0353);fill-opacity:1;"/>
<path fill-rule="evenodd" clip-rule="evenodd" d="M14.7661 15.1488C13.9711 15.1488 13.3516 14.8593 12.9076 14.2803C12.4666 13.6983 12.2461 12.8883 12.2461 11.8503C12.2461 10.8123 12.4666 10.0038 12.9076 9.42476C13.3516 8.84276 13.9711 8.55176 14.7661 8.55176C15.5611 8.55176 16.1791 8.84276 16.6201 9.42476C17.0641 10.0038 17.2861 10.8123 17.2861 11.8503C17.2861 12.8883 17.0641 13.6983 16.6201 14.2803C16.1791 14.8593 15.5611 15.1488 14.7661 15.1488ZM14.7661 13.9563C15.1351 13.9563 15.4156 13.7778 15.6076 13.4208C15.7996 13.0638 15.8956 12.5403 15.8956 11.8503C15.8956 11.1603 15.7996 10.6368 15.6076 10.2798C15.4156 9.92276 15.1351 9.74426 14.7661 9.74426C14.3971 9.74426 14.1166 9.92276 13.9246 10.2798C13.7326 10.6368 13.6366 11.1603 13.6366 11.8503C13.6366 12.5403 13.7326 13.0638 13.9246 13.4208C14.1166 13.7778 14.3971 13.9563 14.7661 13.9563Z" fill="#080809" style="fill:#080809;fill:color(display-p3 0.0314 0.0314 0.0353);fill-opacity:1;"/>
<path fill-rule="evenodd" clip-rule="evenodd" d="M12 0.5C5.64873 0.5 0.5 5.64873 0.5 12C0.5 18.3513 5.64873 23.5 12 23.5C18.3513 23.5 23.5 18.3513 23.5 12C23.5 5.64873 18.3513 0.5 12 0.5ZM2.5 12C2.5 6.75329 6.75329 2.5 12 2.5C17.2467 2.5 21.5 6.75329 21.5 12C21.5 17.2467 17.2467 21.5 12 21.5C6.75329 21.5 2.5 17.2467 2.5 12Z" fill="#080809" style="fill:#080809;fill:color(display-p3 0.0314 0.0314 0.0353);fill-opacity:1;"/>
</g>
<defs>
<clipPath id="clip0_29901_26822">
<rect width="24" height="24" fill="white" style="fill:white;fill-opacity:1;"/>
</clipPath>
</defs>
</svg>
