<svg width="24" height="24" viewBox="0 0 24 24" fill="none" xmlns="http://www.w3.org/2000/svg">
<path d="M20 0.5C20.4277 0.5 20.8081 0.77205 20.9463 1.17684L21.4241 2.5759L22.8232 3.05366C23.228 3.19189 23.5 3.57226 23.5 4C23.5 4.42774 23.228 4.80811 22.8232 4.94634L21.4241 5.4241L20.9463 6.82316C20.8081 7.22795 20.4277 7.5 20 7.5C19.5723 7.5 19.1919 7.22795 19.0537 6.82316L18.5759 5.4241L17.1768 4.94634C16.772 4.80811 16.5 4.42774 16.5 4C16.5 3.57226 16.772 3.19189 17.1768 3.05366L18.5759 2.5759L19.0537 1.17684C19.1919 0.77205 19.5723 0.5 20 0.5Z" fill="#080809" style="fill:#080809;fill:color(display-p3 0.0314 0.0314 0.0353);fill-opacity:1;"/>
<path d="M15.75 6C16.0708 6 16.3561 6.20404 16.4598 6.50763L16.7226 7.27738L17.4924 7.54024C17.796 7.64391 18 7.9292 18 8.25C18 8.5708 17.796 8.85608 17.4924 8.95976L16.7226 9.22262L16.4598 9.99237C16.3561 10.296 16.0708 10.5 15.75 10.5C15.4292 10.5 15.1439 10.296 15.0402 9.99237L14.7774 9.22262L14.0076 8.95976C13.704 8.85608 13.5 8.5708 13.5 8.25C13.5 7.9292 13.704 7.64391 14.0076 7.54024L14.7774 7.27738L15.0402 6.50763C15.1439 6.20404 15.4292 6 15.75 6Z" fill="#080809" style="fill:#080809;fill:color(display-p3 0.0314 0.0314 0.0353);fill-opacity:1;"/>
<path d="M15.056 3.24842C15.1052 2.92105 14.9893 2.59052 14.7463 2.36567C14.5033 2.14082 14.1648 2.05079 13.8422 2.12523L8.93785 3.25701C7.80352 3.51878 7 4.52885 7 5.69299V15.5351C6.41165 15.1948 5.72857 15 5 15C2.79086 15 1 16.7909 1 19C1 21.2091 2.79086 23 5 23C7.20914 23 9 21.2091 9 19V10.2952L11.747 9.6613C12.2382 9.54796 12.5682 9.08678 12.517 8.58532C12.5058 8.47538 12.5 8.36353 12.5 8.25001C12.5 6.93033 13.2866 5.79222 14.4208 5.28309C14.8003 5.11272 15.0347 4.72517 15.0094 4.30992C15.0032 4.2075 15 4.10412 15 3.99988C15 3.74388 15.0192 3.49299 15.056 3.24842Z" fill="#080809" style="fill:#080809;fill:color(display-p3 0.0314 0.0314 0.0353);fill-opacity:1;"/>
<path d="M22 9.91693C22 9.36464 21.5523 8.91693 21 8.91693C20.4477 8.91693 20 9.36464 20 9.91693V13.5351C19.4117 13.1948 18.7286 13 18 13C15.7909 13 14 14.7909 14 17C14 19.2091 15.7909 21 18 21C20.2091 21 22 19.2091 22 17V9.91693Z" fill="#080809" style="fill:#080809;fill:color(display-p3 0.0314 0.0314 0.0353);fill-opacity:1;"/>
</svg>
