<svg width="24" height="24" viewBox="0 0 24 24" fill="none" xmlns="http://www.w3.org/2000/svg">
<path d="M15.7881 21.0527C15.5219 22.4712 14.2836 23.5 12.8398 23.5H11.1602C11.0741 23.5 10.9888 23.4955 10.9043 23.4883C10.8682 23.4852 10.8326 23.4799 10.7969 23.4756C10.7448 23.4693 10.6929 23.4631 10.6416 23.4541C10.6144 23.4493 10.5875 23.443 10.5605 23.4375C10.5047 23.4261 10.4493 23.4139 10.3945 23.3994C10.3623 23.3909 10.3307 23.3806 10.2988 23.3711C10.251 23.3567 10.2031 23.3428 10.1562 23.3262C10.1216 23.3139 10.0878 23.2997 10.0537 23.2861C10.0097 23.2686 9.96587 23.251 9.92285 23.2314C9.89111 23.217 9.86026 23.201 9.8291 23.1855C9.78598 23.1641 9.74313 23.1425 9.70117 23.1191C9.66772 23.1005 9.63521 23.0804 9.60254 23.0605C9.56662 23.0387 9.53103 23.0165 9.49609 22.9932C9.46279 22.9709 9.42983 22.9484 9.39746 22.9248C9.36136 22.8985 9.3259 22.8716 9.29102 22.8438C9.26226 22.8208 9.23395 22.7974 9.20605 22.7734C9.1695 22.742 9.13365 22.7099 9.09863 22.6768C9.07389 22.6533 9.04934 22.6297 9.02539 22.6055C8.99044 22.5701 8.95702 22.5332 8.92383 22.4961C8.90247 22.4722 8.88096 22.4484 8.86035 22.4238C8.82779 22.3849 8.79624 22.3453 8.76562 22.3047C8.74571 22.2783 8.72609 22.2517 8.70703 22.2246C8.67308 22.1764 8.64151 22.1265 8.61035 22.0762C8.59896 22.0578 8.5862 22.0402 8.5752 22.0215C8.54406 21.9686 8.51526 21.9143 8.4873 21.8594C8.47603 21.8372 8.46387 21.8155 8.45312 21.793C8.42756 21.7394 8.40529 21.6843 8.38281 21.6289C8.373 21.6047 8.36174 21.5811 8.35254 21.5566C8.32269 21.4772 8.29572 21.3962 8.27246 21.3135L8.26172 21.2695C8.24284 21.1983 8.22569 21.1261 8.21191 21.0527L8.01465 20H15.9863L15.7881 21.0527Z" fill="#080809" style="fill:#080809;fill:color(display-p3 0.0314 0.0314 0.0353);fill-opacity:1;"/>
<path d="M12.4258 0.509766L12.5586 0.520508C13.2087 0.596267 13.6963 0.993357 13.9678 1.47266C14.2119 1.90399 14.2974 2.41773 14.2188 2.91113L14.1748 3.12109C14.061 3.56081 14 4.02261 14 4.5C14 7.44253 16.3109 9.84572 19.2168 9.99316L19.5 10C20.2088 10.0002 20.8755 10.6133 20.7861 11.4102L20.7578 11.5713C20.2209 13.8493 18.8209 15.7905 16.9238 17.0332L16.5371 17.2725C16.5155 17.2852 16.502 17.2993 16.4951 17.3086C16.4928 17.3118 16.4902 17.3154 16.4902 17.3154L16.3613 18H13V12.2891C13.8811 11.9025 14.4971 11.0238 14.4971 10C14.4971 8.61929 13.3778 7.5 11.9971 7.5C10.6164 7.5 9.49707 8.61929 9.49707 10C9.49707 11.026 10.1159 11.9057 11 12.291V18H7.63965L7.51074 17.3145L7.50586 17.3076C7.499 17.2983 7.48468 17.2843 7.46289 17.2715L7.21582 17.1211C4.68616 15.5305 3 12.7139 3 9.5C3 4.6847 6.78173 0.752701 11.5371 0.511719L12 0.5L12.4258 0.509766Z" fill="#080809" style="fill:#080809;fill:color(display-p3 0.0314 0.0314 0.0353);fill-opacity:1;"/>
<path d="M18.5508 1.10449C18.9271 0.298571 20.0729 0.298592 20.4492 1.10449L20.6641 1.56445C21.0284 2.34477 21.6561 2.97173 22.4365 3.33594L22.8955 3.55078C23.7015 3.92708 23.7015 5.07291 22.8955 5.44922L22.4365 5.66406C21.656 6.02833 21.0283 6.656 20.6641 7.43652L20.4492 7.89551C20.0729 8.70149 18.9271 8.7015 18.5508 7.89551L18.3359 7.43652C17.9717 6.65615 17.3448 6.02836 16.5645 5.66406L16.1045 5.44922C15.2986 5.07289 15.2986 3.92709 16.1045 3.55078L16.5645 3.33594C17.3446 2.97171 17.9717 2.34461 18.3359 1.56445L18.5508 1.10449Z" fill="#080809" style="fill:#080809;fill:color(display-p3 0.0314 0.0314 0.0353);fill-opacity:1;"/>
</svg>
