<svg width="24" height="24" viewBox="0 0 24 24" fill="none" xmlns="http://www.w3.org/2000/svg">
<path fill-rule="evenodd" clip-rule="evenodd" d="M9.72928 1.9234C10.623 -0.0128671 13.3756 -0.0128901 14.2693 1.9234L16.4148 6.57672L21.5047 7.18024C23.6229 7.43147 24.4737 10.0501 22.908 11.4986L19.1453 14.9771L20.1443 20.0045C20.5601 22.0968 18.3329 23.7151 16.4715 22.6734L11.9988 20.1705L7.52713 22.6734C5.66561 23.7153 3.43852 22.0968 3.85428 20.0045L4.85232 14.9771L1.09061 11.4986C-0.474987 10.0502 0.374952 7.43169 2.49295 7.18024L7.58279 6.57672L9.72928 1.9234ZM10.7058 14.2925C10.3154 13.9022 9.68229 13.9023 9.29178 14.2925C8.90129 14.683 8.90135 15.3161 9.29178 15.7066C10.7402 17.155 13.0604 17.2003 14.5633 15.8423L14.7058 15.7066L14.7742 15.6304C15.0943 15.2377 15.0719 14.6586 14.7058 14.2925C14.3398 13.9266 13.7607 13.9041 13.3679 14.2242L13.2918 14.2925L13.1531 14.4175C12.4349 15.0036 11.3754 14.9621 10.7058 14.2925ZM9.24881 9.99957C8.55857 9.99957 7.999 10.5594 7.99881 11.2496C7.99881 11.9399 8.55845 12.4996 9.24881 12.4996C9.9391 12.4995 10.4988 11.9399 10.4988 11.2496C10.4986 10.5594 9.93898 9.99965 9.24881 9.99957ZM14.7488 9.99957C14.0586 9.99957 13.499 10.5594 13.4988 11.2496C13.4988 11.9399 14.0585 12.4996 14.7488 12.4996C15.4391 12.4995 15.9988 11.9399 15.9988 11.2496C15.9986 10.5594 15.439 9.99965 14.7488 9.99957Z" fill="#080809" style="fill:#080809;fill:color(display-p3 0.0314 0.0314 0.0353);fill-opacity:1;"/>
</svg>
