<svg width="24" height="24" viewBox="0 0 24 24" fill="none" xmlns="http://www.w3.org/2000/svg">
<g clip-path="url(#clip0_29901_26241)">
<path fill-rule="evenodd" clip-rule="evenodd" d="M10.1146 0.5C9.02358 0.5 8.05036 1.18584 7.68342 2.21329L5.55828 8.16366C5.55103 8.18398 5.54443 8.20453 5.5385 8.22528L3.84703 14.1454C3.09707 14.0408 2.30871 14.2769 1.73201 14.8536L1.35333 15.2322C0.377015 16.2085 0.377017 17.7915 1.35333 18.7678L5.23201 22.6464C6.20832 23.6228 7.79123 23.6228 8.76754 22.6464L9.14622 22.2678C9.75777 21.6562 9.98625 20.8067 9.83167 20.0173L10.5756 19.6984C11.1324 19.4598 11.6151 19.1042 12 18.6676C12.3849 19.1042 12.8676 19.4598 13.4244 19.6984L14.1683 20.0173C14.0137 20.8067 14.2422 21.6562 14.8538 22.2678L15.2325 22.6464C16.2088 23.6228 17.7917 23.6228 18.768 22.6464L22.6467 18.7678C23.623 17.7915 23.623 16.2085 22.6467 15.2322L22.268 14.8536C21.6913 14.2769 20.9029 14.0408 20.153 14.1454L18.4615 8.22528C18.4556 8.20453 18.449 8.18398 18.4417 8.16366L16.3166 2.21329C15.9496 1.18584 14.9764 0.5 13.8854 0.5C13.1338 0.5 12.4675 0.817807 12 1.3181C11.5326 0.817807 10.8662 0.5 10.1146 0.5ZM9.82042 8.09635L10.6873 3.1826C10.7501 2.82649 10.4762 2.5 10.1146 2.5C9.8688 2.5 9.64956 2.6545 9.5669 2.88596L7.45265 8.80585L5.6232 15.209L8.7284 18.3142L9.78776 17.8601C10.5232 17.545 11 16.8218 10.9999 16.0218L10.9996 10.471C10.9885 10.209 10.7726 10 10.5078 10C10.2722 10 10.0696 10.167 10.0246 10.3983L9.48137 13.1909C9.37592 13.7331 8.85095 14.0871 8.30883 13.9816C7.76671 13.8761 7.41272 13.3512 7.51817 12.8091L8.06142 10.0164C8.24387 9.07842 8.93822 8.34939 9.82042 8.09635ZM3.14622 16.2678C3.34148 16.0725 3.65807 16.0725 3.85333 16.2678L7.73201 20.1464C7.92727 20.3417 7.92727 20.6583 7.73201 20.8536L7.35333 21.2322C7.15807 21.4275 6.84148 21.4275 6.64622 21.2322L2.76754 17.3536C2.57228 17.1583 2.57228 16.8417 2.76754 16.6464L3.14622 16.2678ZM14.4331 2.88596C14.3504 2.6545 14.1312 2.5 13.8854 2.5C13.5238 2.5 13.2499 2.82649 13.3127 3.1826L14.1796 8.09635C15.0618 8.34939 15.7561 9.07842 15.9386 10.0164L16.4818 12.8091C16.5873 13.3512 16.2333 13.8761 15.6912 13.9816C15.149 14.0871 14.6241 13.7331 14.5186 13.1909L13.9754 10.3983C13.9304 10.167 13.7278 10 13.4922 10C13.2274 10 13.0115 10.209 13.0004 10.4711L13.0001 16.0218C13 16.8218 13.4768 17.545 14.2122 17.8601L15.2716 18.3142L18.3768 15.209L16.5473 8.80585L14.4331 2.88596ZM20.1467 16.2678C20.3419 16.0725 20.6585 16.0725 20.8538 16.2678L21.2325 16.6464C21.4277 16.8417 21.4277 17.1583 21.2325 17.3536L17.3538 21.2322C17.1585 21.4275 16.8419 21.4275 16.6467 21.2322L16.268 20.8536C16.0727 20.6583 16.0727 20.3417 16.268 20.1464L20.1467 16.2678Z" fill="#080809" style="fill:#080809;fill:color(display-p3 0.0314 0.0314 0.0353);fill-opacity:1;"/>
</g>
<defs>
<clipPath id="clip0_29901_26241">
<rect width="24" height="24" fill="white" style="fill:white;fill-opacity:1;"/>
</clipPath>
</defs>
</svg>
