<svg width="24" height="24" viewBox="0 0 24 24" fill="none" xmlns="http://www.w3.org/2000/svg">
<path d="M5 15C4.44772 15 4 15.4477 4 16C4 16.5523 4.44772 17 5 17H11C11.5523 17 12 16.5523 12 16C12 15.4477 11.5523 15 11 15H5Z" fill="#080809" style="fill:#080809;fill:color(display-p3 0.0314 0.0314 0.0353);fill-opacity:1;"/>
<path fill-rule="evenodd" clip-rule="evenodd" d="M7.42943 3H16.5706C17.9247 2.99997 19.0413 2.99994 19.9251 3.11876C20.8529 3.2435 21.6723 3.51547 22.3284 4.17158C22.9845 4.82769 23.2565 5.64711 23.3813 6.57494C23.5001 7.45869 23.5 8.5753 23.5 9.92942V14.0705C23.5 15.4247 23.5001 16.5413 23.3813 17.4251C23.2565 18.3529 22.9845 19.1723 22.3284 19.8284C21.6723 20.4845 20.8529 20.7565 19.9251 20.8813C19.0413 21.0001 17.9247 21 16.5706 21H7.42946C6.07535 21 4.95869 21.0001 4.07494 20.8813C3.14711 20.7565 2.32769 20.4845 1.67158 19.8284C1.01547 19.1723 0.743499 18.3529 0.618756 17.4251C0.499939 16.5413 0.499967 15.4247 0.500001 14.0706V9.92943C0.499967 8.57533 0.499939 7.45869 0.618756 6.57494C0.743499 5.64711 1.01547 4.82769 1.67158 4.17158C2.32769 3.51547 3.14711 3.2435 4.07494 3.11876C4.95869 2.99994 6.07533 2.99997 7.42943 3ZM4.34144 5.10092C3.63538 5.19585 3.30836 5.36322 3.08579 5.58579C2.86322 5.80836 2.69585 6.13538 2.60092 6.84144C2.55655 7.17144 2.53168 7.55114 2.51775 8H21.4823C21.4683 7.55114 21.4435 7.17144 21.3991 6.84144C21.3042 6.13538 21.1368 5.80836 20.9142 5.58579C20.6916 5.36322 20.3646 5.19585 19.6586 5.10092C18.9238 5.00213 17.9425 5 16.5 5H7.5C6.05752 5 5.07626 5.00213 4.34144 5.10092ZM2.5 14V11H21.5V14C21.5 15.4425 21.4979 16.4238 21.3991 17.1586C21.3042 17.8646 21.1368 18.1916 20.9142 18.4142C20.6916 18.6368 20.3646 18.8042 19.6586 18.8991C18.9238 18.9979 17.9425 19 16.5 19H7.5C6.05752 19 5.07626 18.9979 4.34144 18.8991C3.63538 18.8042 3.30836 18.6368 3.08579 18.4142C2.86322 18.1916 2.69585 17.8646 2.60092 17.1586C2.50213 16.4238 2.5 15.4425 2.5 14Z" fill="#080809" style="fill:#080809;fill:color(display-p3 0.0314 0.0314 0.0353);fill-opacity:1;"/>
</svg>
