<svg width="24" height="24" viewBox="0 0 24 24" fill="none" xmlns="http://www.w3.org/2000/svg">
<path d="M15.7881 21.0527C15.5219 22.4712 14.2836 23.5 12.8398 23.5H11.1602C11.0741 23.5 10.9888 23.4955 10.9043 23.4883C10.8682 23.4852 10.8326 23.4799 10.7969 23.4756C10.7448 23.4693 10.6929 23.4631 10.6416 23.4541C10.6156 23.4496 10.5902 23.4427 10.5645 23.4375C10.5064 23.4257 10.4485 23.4145 10.3916 23.3994C10.3643 23.3922 10.3376 23.383 10.3105 23.375C10.2587 23.3597 10.207 23.3442 10.1562 23.3262C10.1229 23.3143 10.0905 23.3001 10.0576 23.2871C10.0106 23.2685 9.96387 23.2494 9.91797 23.2285C9.8913 23.2164 9.86513 23.2033 9.83887 23.1904C9.79199 23.1674 9.7457 23.1436 9.7002 23.1182C9.66715 23.0997 9.63483 23.0802 9.60254 23.0605C9.56662 23.0387 9.53103 23.0165 9.49609 22.9932C9.4628 22.9709 9.42982 22.9484 9.39746 22.9248C9.36136 22.8985 9.3259 22.8716 9.29102 22.8438C9.26298 22.8214 9.23523 22.7987 9.20801 22.7754C9.16688 22.7401 9.12707 22.7035 9.08789 22.666C9.07008 22.649 9.05255 22.6317 9.03516 22.6143C8.99567 22.5746 8.95719 22.5341 8.91992 22.4922C8.89983 22.4696 8.87977 22.447 8.86035 22.4238C8.82779 22.3849 8.79624 22.3453 8.76562 22.3047C8.74572 22.2783 8.72609 22.2517 8.70703 22.2246C8.67308 22.1764 8.64151 22.1265 8.61035 22.0762C8.59896 22.0578 8.5862 22.0402 8.5752 22.0215C8.54406 21.9686 8.51526 21.9143 8.4873 21.8594C8.47603 21.8372 8.46386 21.8155 8.45312 21.793C8.42756 21.7394 8.40529 21.6843 8.38281 21.6289C8.37416 21.6076 8.36365 21.587 8.35547 21.5654L8.34961 21.5498C8.32081 21.4726 8.29504 21.3938 8.27246 21.3135L8.21191 21.0527L8.01465 20H15.9854L15.7881 21.0527Z" fill="#080809" style="fill:#080809;fill:color(display-p3 0.0314 0.0314 0.0353);fill-opacity:1;"/>
<path d="M12 0.5C16.9706 0.5 21 4.52944 21 9.5C21 12.617 19.4143 15.3619 17.0107 16.9756L16.7754 17.1289C16.6231 17.2244 16.5275 17.3405 16.4785 17.4512L16.4443 17.5586L16.3613 18H13V12.2891C13.8811 11.9025 14.4971 11.0238 14.4971 10C14.4971 8.61929 13.3778 7.5 11.9971 7.5C10.6164 7.5 9.49707 8.61929 9.49707 10C9.49707 11.026 10.1159 11.9057 11 12.291V18H7.63965L7.55664 17.5586L7.52246 17.4512C7.47344 17.3405 7.37781 17.2244 7.22559 17.1289L6.99023 16.9756C4.58628 15.362 3 12.6174 3 9.5C3 4.52944 7.02944 0.5 12 0.5Z" fill="#080809" style="fill:#080809;fill:color(display-p3 0.0314 0.0314 0.0353);fill-opacity:1;"/>
</svg>
