<svg width="24" height="24" viewBox="0 0 24 24" fill="none" xmlns="http://www.w3.org/2000/svg">
<path fill-rule="evenodd" clip-rule="evenodd" d="M8.68629 1C7.89064 1 7.12758 1.31607 6.56497 1.87868L1.87868 6.56497C1.31607 7.12758 1 7.89064 1 8.68629V15.3137C1 16.1094 1.31607 16.8724 1.87868 17.435L6.56497 22.1213C7.12758 22.6839 7.89064 23 8.68629 23H15.3137C16.1094 23 16.8724 22.6839 17.435 22.1213L22.1213 17.435C22.6839 16.8724 23 16.1094 23 15.3137V8.68629C23 7.89064 22.6839 7.12758 22.1213 6.56497L17.435 1.87868C16.8724 1.31607 16.1094 1 15.3137 1H8.68629ZM12 5.5C12.5523 5.5 13 5.94772 13 6.5V13.5C13 14.0523 12.5523 14.5 12 14.5C11.4477 14.5 11 14.0523 11 13.5V6.5C11 5.94772 11.4477 5.5 12 5.5ZM12 18.5C12.6904 18.5 13.25 17.9404 13.25 17.25C13.25 16.5596 12.6904 16 12 16C11.3096 16 10.75 16.5596 10.75 17.25C10.75 17.9404 11.3096 18.5 12 18.5Z" fill="#080809" style="fill:#080809;fill:color(display-p3 0.0314 0.0314 0.0353);fill-opacity:1;"/>
</svg>
