<svg width="24" height="24" viewBox="0 0 24 24" fill="none" xmlns="http://www.w3.org/2000/svg">
<path d="M13.0002 6C13.0002 6.82843 13.6718 7.5 14.5002 7.5C15.3286 7.5 16.0002 6.82843 16.0002 6C16.0002 5.17157 15.3286 4.5 14.5002 4.5C13.6718 4.5 13.0002 5.17157 13.0002 6Z" fill="#080809" style="fill:#080809;fill:color(display-p3 0.0314 0.0314 0.0353);fill-opacity:1;"/>
<path fill-rule="evenodd" clip-rule="evenodd" d="M19.5002 3C19.5002 1.89543 18.6048 1 17.5002 1H11.0528C10.2571 1 9.49404 1.31607 8.93143 1.87868L1.20729 9.60282C0.0357189 10.7744 0.0357208 12.6739 1.20729 13.8455L6.65473 19.2929C7.8263 20.4645 9.72579 20.4645 10.8974 19.2929L18.6215 11.5688C19.1841 11.0061 19.5002 10.2431 19.5002 9.44744V3ZM11.0528 3H17.5002V9.44744C17.5002 9.71265 17.3948 9.96701 17.2073 10.1545L9.48316 17.8787C9.09263 18.2692 8.45947 18.2692 8.06894 17.8787L2.62151 12.4312C2.23098 12.0407 2.23098 11.4076 2.62151 11.017L10.3456 3.29289C10.5332 3.10536 10.7875 3 11.0528 3Z" fill="#080809" style="fill:#080809;fill:color(display-p3 0.0314 0.0314 0.0353);fill-opacity:1;"/>
<path d="M21.0002 5.5C21.0002 4.94772 21.4479 4.5 22.0002 4.5C22.5525 4.5 23.0002 4.94772 23.0002 5.5V10.7574C23.0002 11.8182 22.5788 12.8356 21.8286 13.5858L12.2073 23.2071C11.8168 23.5976 11.1836 23.5976 10.7931 23.2071C10.4026 22.8166 10.4026 22.1834 10.7931 21.7929L20.4144 12.1716C20.7895 11.7965 21.0002 11.2878 21.0002 10.7574V5.5Z" fill="#080809" style="fill:#080809;fill:color(display-p3 0.0314 0.0314 0.0353);fill-opacity:1;"/>
</svg>
