<svg width="24" height="24" viewBox="0 0 24 24" fill="none" xmlns="http://www.w3.org/2000/svg">
<path fill-rule="evenodd" clip-rule="evenodd" d="M6.49902 6.99951C6.49902 5.6188 7.61831 4.49951 8.99902 4.49951H14.999C16.3797 4.49951 17.499 5.6188 17.499 6.99951V11.9263C17.499 12.4786 17.0513 12.9263 16.499 12.9263C15.9467 12.9263 15.499 12.4786 15.499 11.9263V6.99951C15.499 6.72337 15.2752 6.49951 14.999 6.49951H8.99902C8.72288 6.49951 8.49902 6.72337 8.49902 6.99951V16.9995C8.49902 17.2757 8.72288 17.4995 8.99902 17.4995H11.5154C12.0677 17.4995 12.5154 17.9472 12.5154 18.4995C12.5154 19.0518 12.0677 19.4995 11.5154 19.4995H8.99902C7.61831 19.4995 6.49902 18.3802 6.49902 16.9995V6.99951Z" fill="#080809" style="fill:#080809;fill:color(display-p3 0.0314 0.0314 0.0353);fill-opacity:1;"/>
<path fill-rule="evenodd" clip-rule="evenodd" d="M13.3728 2.67596C12.4957 2.30007 11.5029 2.30007 10.6259 2.67596C9.27072 3.25674 7.73885 3.26768 6.37554 2.70631L6.0843 2.58639C4.701 2.0168 3.35183 3.46829 4.02086 4.80633L4.80872 6.38205C5.30614 7.3769 5.36687 8.53394 4.97633 9.5754L4.33068 11.2971C4.16089 11.7499 4.16089 12.2488 4.33068 12.7016L4.97633 14.4233C5.36687 15.4648 5.30614 16.6218 4.80872 17.6167L4.02085 19.1924C3.35183 20.5304 4.701 21.9819 6.0843 21.4123L6.37553 21.2924C7.73885 20.731 9.27073 20.742 10.6259 21.3228C11.1643 21.5535 11.7464 21.6426 12.3187 21.59C12.8686 21.5395 13.3555 21.9443 13.406 22.4943C13.4566 23.0443 13.0517 23.5311 12.5018 23.5816C11.6015 23.6644 10.6854 23.5242 9.83804 23.1611C8.97687 22.792 8.00339 22.785 7.13704 23.1418L6.8458 23.2617C3.75279 24.5353 0.736085 21.2898 2.232 18.298L3.01986 16.7222C3.26858 16.2248 3.29894 15.6463 3.10367 15.1256L2.45802 13.4039C2.11845 12.4983 2.11845 11.5004 2.45802 10.5949L3.10367 8.87315C3.29894 8.35243 3.26858 7.7739 3.01986 7.27648L2.232 5.70076C0.736087 2.70893 3.75278 -0.53656 6.84579 0.737034L7.13704 0.856958C8.00339 1.21369 8.97687 1.20674 9.83804 0.837666C11.2182 0.246169 12.7805 0.246169 14.1606 0.837666C15.0218 1.20674 15.9953 1.21369 16.8616 0.856958L17.1529 0.737035C20.2459 -0.53656 23.2626 2.70893 21.7667 5.70076L20.9788 7.27648C20.7301 7.7739 20.6997 8.35243 20.895 8.87315L21.5407 10.5949C21.6649 10.9262 21.7437 11.2699 21.777 11.617C21.8298 12.1667 21.4269 12.6552 20.8772 12.708C20.3274 12.7608 19.839 12.3579 19.7862 11.8081C19.7695 11.6346 19.7301 11.4628 19.668 11.2971L19.0224 9.5754C18.6318 8.53394 18.6925 7.3769 19.19 6.38205L19.9778 4.80633C20.6468 3.46829 19.2977 2.0168 17.9144 2.58639L17.6231 2.70631C16.2598 3.26768 14.728 3.25674 13.3728 2.67596Z" fill="#080809" style="fill:#080809;fill:color(display-p3 0.0314 0.0314 0.0353);fill-opacity:1;"/>
<path d="M16.7061 15.2924C16.3156 14.9019 15.6824 14.9019 15.2919 15.2924C14.9014 15.6829 14.9014 16.3161 15.2919 16.7066L17.5848 18.9995L15.2919 21.2924C14.9014 21.6829 14.9014 22.3161 15.2919 22.7066C15.6824 23.0971 16.3156 23.0971 16.7061 22.7066L18.999 20.4137L21.2919 22.7066C21.6824 23.0971 22.3156 23.0971 22.7061 22.7066C23.0967 22.3161 23.0967 21.6829 22.7061 21.2924L20.4132 18.9995L22.7061 16.7066C23.0967 16.3161 23.0967 15.6829 22.7061 15.2924C22.3156 14.9019 21.6824 14.9019 21.2919 15.2924L18.999 17.5853L16.7061 15.2924Z" fill="#080809" style="fill:#080809;fill:color(display-p3 0.0314 0.0314 0.0353);fill-opacity:1;"/>
</svg>
