<svg width="24" height="24" viewBox="0 0 24 24" fill="none" xmlns="http://www.w3.org/2000/svg">
<path d="M14 0.500034L12.9294 0.500033C11.5753 0.499998 10.4587 0.49997 9.57494 0.618787C8.64711 0.743531 7.82769 1.0155 7.17158 1.67161C6.51547 2.32772 6.2435 3.14714 6.11876 4.07497C5.99994 4.95873 5.99997 6.07535 6 7.42946L6 13.0706C5.99997 14.4247 5.99994 15.5413 6.11876 16.4251C6.2435 17.3529 6.51547 18.1724 7.17158 18.8285C7.82769 19.4846 8.64711 19.7565 9.57494 19.8813C10.4587 20.0001 11.5753 20.0001 12.9294 20H15.0706C16.4247 20.0001 17.5413 20.0001 18.4251 19.8813C19.3529 19.7565 20.1723 19.4846 20.8284 18.8285C21.4845 18.1724 21.7565 17.3529 21.8813 16.4251C22.0001 15.5413 22 14.4247 22 13.0706L22 8.49993H16.25C15.0074 8.49993 14 7.49257 14 6.24993V0.500034C14 0.500154 14 0.499915 14 0.500034Z" fill="#080809" style="fill:#080809;fill:color(display-p3 0.0314 0.0314 0.0353);fill-opacity:1;"/>
<path d="M21.9164 6.99993C21.89 6.88653 21.8552 6.77458 21.8097 6.66465C21.6168 6.19897 21.261 5.84488 20.9106 5.49614L20.8284 5.41425L17.0858 1.67161L17.0039 1.58945C16.6552 1.23903 16.3011 0.88323 15.8354 0.690337C15.7254 0.644786 15.6134 0.61006 15.5 0.583601V6.24993C15.5 6.66414 15.8358 6.99993 16.25 6.99993H21.9164Z" fill="#080809" style="fill:#080809;fill:color(display-p3 0.0314 0.0314 0.0353);fill-opacity:1;"/>
<path d="M3.5 7.9999C4.05229 7.9999 4.5 8.44762 4.5 8.9999V16.4999C4.5 17.9424 4.50213 18.9237 4.60092 19.6585C4.69585 20.3645 4.86322 20.6915 5.08579 20.9141C5.30836 21.1367 5.63538 21.3041 6.34144 21.399C7.07626 21.4978 8.05752 21.4999 9.5 21.4999H14C14.5523 21.4999 15 21.9476 15 22.4999C15 23.0522 14.5523 23.4999 14 23.4999L9.42943 23.4999C8.07531 23.4999 6.9587 23.5 6.07494 23.3812C5.14711 23.2564 4.32769 22.9844 3.67158 22.3283C3.01547 21.6722 2.7435 20.8528 2.61876 19.925C2.49994 19.0412 2.49997 17.9246 2.5 16.5705L2.5 8.9999C2.5 8.44762 2.94772 7.9999 3.5 7.9999Z" fill="#080809" style="fill:#080809;fill:color(display-p3 0.0314 0.0314 0.0353);fill-opacity:1;"/>
</svg>
