<svg width="24" height="24" viewBox="0 0 24 24" fill="none" xmlns="http://www.w3.org/2000/svg">
<path d="M18.5505 1.10465C18.7386 0.701526 19.1193 0.499978 19.5 0.5C19.8807 0.499979 20.2613 0.701529 20.4495 1.10465L20.6639 1.56402C21.0281 2.34454 21.6555 2.97193 22.436 3.3362L22.8954 3.55059C23.7016 3.92684 23.7016 5.07323 22.8954 5.44948L22.436 5.66387C21.6555 6.02814 21.0281 6.65553 20.6639 7.43605L20.4495 7.89542C20.2613 8.29854 19.8807 8.50009 19.5 8.50007C19.458 8.50007 19.416 8.49762 19.3742 8.49271C19.0376 8.45316 18.7178 8.25406 18.5505 7.89542L18.3361 7.43605C17.9718 6.65553 17.3444 6.02814 16.5639 5.66387L16.1045 5.44948C15.2983 5.07322 15.2983 3.92684 16.1045 3.55059L16.5639 3.3362C17.3444 2.97193 17.9718 2.34454 18.3361 1.56402L18.5505 1.10465Z" fill="#080809" style="fill:#080809;fill:color(display-p3 0.0314 0.0314 0.0353);fill-opacity:1;"/>
<path fill-rule="evenodd" clip-rule="evenodd" d="M8 1C8.55228 1 9 1.44772 9 2V3L11.9774 3C11.9919 2.99968 12.0065 2.99968 12.0211 3L13.043 3C13.5953 3 14.043 3.44772 14.043 4C14.043 4.55229 13.5953 5 13.043 5H12.7781L12.6638 5.45096C12.0708 7.78994 10.9422 9.9176 9.40593 11.6899C9.91501 12.1345 10.4592 12.541 11.0345 12.9048C11.5013 13.2 11.6404 13.8177 11.3452 14.2845C11.05 14.7513 10.4323 14.8904 9.96553 14.5952C9.26784 14.154 8.60993 13.6583 7.99719 13.1143C6.64997 14.3083 5.08472 15.2696 3.35898 15.9333C2.84351 16.1316 2.26491 15.8745 2.06665 15.359C1.8684 14.8435 2.12555 14.2649 2.64102 14.0667C4.10589 13.5032 5.43766 12.6931 6.58971 11.6887C5.0555 9.91555 3.92858 7.78752 3.33621 5.45096L3.22189 5H2C1.44772 5 1 4.55228 1 4C1 3.44772 1.44772 3 2 3L3.97893 3C3.9935 2.99968 4.00804 2.99968 4.02253 3L7 3V2C7 1.44772 7.44772 1 8 1ZM10.7148 5C10.2105 6.9632 9.27153 8.75385 7.99846 10.2587C6.72707 8.75313 5.78916 6.96183 5.28523 5L10.7148 5Z" fill="#080809" style="fill:#080809;fill:color(display-p3 0.0314 0.0314 0.0353);fill-opacity:1;"/>
<path fill-rule="evenodd" clip-rule="evenodd" d="M21.0692 22.3657L20.1363 19.9908C20.0917 19.9969 20.0462 20 20 20H13C12.9538 20 12.9083 19.9969 12.8637 19.9908L11.9308 22.3657C11.7288 22.8797 11.1484 23.1327 10.6343 22.9308C10.1203 22.7288 9.8673 22.1484 10.0692 21.6343L15.0374 8.98817C15.5595 7.65906 17.4405 7.65906 17.9626 8.98817L22.9308 21.6343C23.1327 22.1484 22.8797 22.7288 22.3657 22.9308C21.8516 23.1327 21.2712 22.8797 21.0692 22.3657ZM16.5 10.7348L19.3542 18H13.6458L16.5 10.7348Z" fill="#080809" style="fill:#080809;fill:color(display-p3 0.0314 0.0314 0.0353);fill-opacity:1;"/>
</svg>
