<svg width="24" height="24" viewBox="0 0 24 24" fill="none" xmlns="http://www.w3.org/2000/svg">
<path fill-rule="evenodd" clip-rule="evenodd" d="M11.3709 2.14305C11.8878 1.06504 13.1147 0.475679 14.3103 0.796054C15.2308 1.04268 15.9059 1.77089 16.1158 2.64631C16.5741 2.48805 17.0826 2.46044 17.5852 2.59512C18.7843 2.91639 19.5466 4.05243 19.4397 5.24524C19.6046 5.25539 19.7711 5.28212 19.9371 5.3266C21.3049 5.69312 22.1041 7.12264 21.6764 8.48399C21.1552 10.1432 20.2747 12.8941 19.4825 15.1188C19.1555 16.0369 18.7798 17.0666 18.4016 18.0912C16.9619 21.9915 12.7814 24.1148 8.7793 23.0424C4.7725 21.9688 1.86557 18.503 1.50575 14.3705L1.08636 9.55392C1.01436 8.72702 1.4838 7.94802 2.24855 7.62537C3.87204 6.94041 5.71966 7.89194 6.10487 9.61139L6.11417 9.65289C6.33452 8.92318 6.55409 8.16814 6.7385 7.47988C7.07144 6.23733 7.38377 4.90097 7.61027 3.88749C7.93173 2.44916 9.3875 1.54344 10.8282 1.92948C11.02 1.98088 11.2017 2.05304 11.3709 2.14305ZM10.2469 6.34003C10.4396 5.57058 10.5868 4.95373 10.6974 4.47313C10.7572 4.21352 10.6062 3.94054 10.3106 3.86133C9.98563 3.77426 9.63936 3.97812 9.56212 4.32371C9.33282 5.3497 9.0136 6.7165 8.67036 7.99751C8.33393 9.25306 7.88948 10.706 7.53154 11.8382C7.44898 12.0993 7.37082 12.3441 7.29941 12.5661C8.08028 12.665 9.13093 12.8799 10.2301 13.3474C10.7384 13.5635 10.9752 14.1507 10.759 14.659C10.5429 15.1672 9.95569 15.404 9.44745 15.1879C8.54516 14.8042 7.66841 14.6264 7.0132 14.5459C6.68737 14.5058 6.4213 14.4905 6.24083 14.4849C6.11428 14.4811 6.04735 14.4815 5.98656 14.4831C5.50433 14.5019 5.07737 14.1735 4.97184 13.7024L4.15325 10.0486C4.04525 9.56656 3.54403 9.29098 3.08452 9.4459L3.49821 14.197C3.78507 17.4916 6.10258 20.2546 9.29694 21.1106C12.3145 21.9191 15.4485 20.316 16.5254 17.3986C16.9021 16.3781 17.2749 15.3561 17.5984 14.4478C18.3772 12.2607 19.2484 9.53983 19.7684 7.88455C19.8518 7.6192 19.6986 7.33325 19.4194 7.25846C19.1622 7.18953 18.8853 7.3337 18.7967 7.60327C18.7607 7.7126 18.7245 7.82182 18.6877 7.93214C18.3081 9.11761 17.8292 10.4678 16.9939 12.6661C16.7985 13.1804 16.2242 13.4403 15.7088 13.2475C15.1935 13.0548 14.9306 12.4819 15.1206 11.9655C16.0189 9.5245 16.4348 8.36331 16.7868 7.31034C17.0169 6.59096 17.2087 5.93566 17.4292 5.16445C17.5079 4.8895 17.3452 4.60135 17.0676 4.52697C16.801 4.45554 16.5233 4.6079 16.4408 4.87471C16.2188 5.59337 15.9424 6.48208 15.693 7.26805C15.4246 8.11365 15.025 9.2686 14.6954 10.204C14.5301 10.6735 14.3812 11.0908 14.2738 11.3907C14.216 11.5518 14.1581 11.7129 14.0999 11.8739C13.9188 12.374 13.3776 12.6454 12.8687 12.4907C12.3597 12.336 12.061 11.8099 12.1888 11.2936L12.3401 10.6842C12.4335 10.3089 12.5625 9.79201 12.7047 9.22561C12.9885 8.09551 13.3272 6.75955 13.5412 5.96117C13.7494 5.18403 13.9863 4.16702 14.1714 3.34204C14.2311 3.07578 14.0706 2.80236 13.7927 2.72791C13.5044 2.65065 13.2122 2.82236 13.1383 3.10687C12.8694 4.14248 12.5046 5.55734 12.1869 6.82589C11.8881 8.01932 11.6001 9.06172 11.3867 9.80616C11.28 10.1785 11.1918 10.4768 11.1301 10.6826C11.0979 10.79 11.0653 10.8972 11.0324 11.0043C10.8684 11.5317 10.3078 11.8269 9.78041 11.663C9.25302 11.4991 8.95838 10.9386 9.12231 10.4112C9.24037 10.0271 9.35339 9.6414 9.46412 9.25508C9.6728 8.52704 9.95464 7.5069 10.2469 6.34003Z" fill="#080809" style="fill:#080809;fill:color(display-p3 0.0314 0.0314 0.0353);fill-opacity:1;"/>
<path d="M22.8224 13.0539C23.3451 13.2324 23.6241 13.8008 23.4456 14.3234C23.3106 14.7188 23.1942 15.0109 23.0816 15.2936L23.0692 15.3249C22.9541 15.6138 22.8394 15.9038 22.6953 16.3243C22.5164 16.8468 21.9477 17.1253 21.4253 16.9463C20.9028 16.7674 20.6243 16.1987 20.8033 15.6762C20.9635 15.2085 21.0927 14.8822 21.2111 14.5849L21.2207 14.5608C21.3337 14.2771 21.4343 14.0246 21.5529 13.6771C21.7314 13.1545 22.2997 12.8755 22.8224 13.0539Z" fill="#080809" style="fill:#080809;fill:color(display-p3 0.0314 0.0314 0.0353);fill-opacity:1;"/>
<path d="M6.22784 3.21074C6.34411 2.67084 6.00069 2.1389 5.46078 2.02262C4.92088 1.90635 4.38894 2.24977 4.27266 2.78967C4.13462 3.43064 3.95745 4.10757 3.7856 4.73669C3.64006 5.26946 3.95397 5.81933 4.48674 5.96486C5.0195 6.1104 5.56937 5.79649 5.71491 5.26372C5.88941 4.62491 6.0781 3.90603 6.22784 3.21074Z" fill="#080809" style="fill:#080809;fill:color(display-p3 0.0314 0.0314 0.0353);fill-opacity:1;"/>
</svg>
