<svg width="24" height="24" viewBox="0 0 24 24" fill="none" xmlns="http://www.w3.org/2000/svg">
<path d="M12 3C11.1931 3 10.4622 3.00001 9.79344 3.00725C9.24119 3.01322 8.78866 2.57038 8.78268 2.01813C8.7767 1.46588 9.21955 1.01334 9.7718 1.00737C10.4524 1 11.1936 1 11.9963 1H12.0037C12.8064 1 13.5476 1 14.2282 1.00737C14.7805 1.01334 15.2233 1.46588 15.2173 2.01813C15.2113 2.57038 14.7588 3.01322 14.2066 3.00725C13.5378 3.00001 12.8069 3 12 3Z" fill="#080809" style="fill:#080809;fill:color(display-p3 0.0314 0.0314 0.0353);fill-opacity:1;"/>
<path d="M17.6546 2.14045C17.8009 1.60791 18.3513 1.29482 18.8838 1.44116C19.8049 1.69426 20.587 2.10172 21.2426 2.75736C21.8983 3.413 22.3057 4.19509 22.5588 5.11616C22.7052 5.64871 22.3921 6.19905 21.8595 6.34539C21.327 6.49172 20.7767 6.17864 20.6303 5.64609C20.4501 4.9904 20.1928 4.53596 19.8284 4.17157C19.464 3.80719 19.0096 3.54985 18.3539 3.36968C17.8214 3.22334 17.5083 2.673 17.6546 2.14045Z" fill="#080809" style="fill:#080809;fill:color(display-p3 0.0314 0.0314 0.0353);fill-opacity:1;"/>
<path d="M6.34539 2.14045C6.49172 2.673 6.17864 3.22334 5.64609 3.36968C4.9904 3.54985 4.53596 3.80719 4.17157 4.17157C3.80719 4.53596 3.54985 4.9904 3.36968 5.64609C3.22334 6.17864 2.673 6.49172 2.14045 6.34539C1.60791 6.19905 1.29482 5.64871 1.44116 5.11616C1.69426 4.1951 2.10172 3.413 2.75736 2.75736C3.413 2.10172 4.19509 1.69426 5.11616 1.44116C5.64871 1.29482 6.19905 1.60791 6.34539 2.14045Z" fill="#080809" style="fill:#080809;fill:color(display-p3 0.0314 0.0314 0.0353);fill-opacity:1;"/>
<path d="M2.01813 8.78268C2.57038 8.78866 3.01322 9.24119 3.00725 9.79344C3.00001 10.4622 3 11.1931 3 12C3 12.8069 3.00001 13.5378 3.00725 14.2066C3.01322 14.7588 2.57038 15.2113 2.01813 15.2173C1.46588 15.2233 1.01334 14.7805 1.00737 14.2282C1 13.5476 1 12.8064 1 12.0037V11.9963C1 11.1936 1 10.4524 1.00737 9.7718C1.01334 9.21955 1.46588 8.7767 2.01813 8.78268Z" fill="#080809" style="fill:#080809;fill:color(display-p3 0.0314 0.0314 0.0353);fill-opacity:1;"/>
<path d="M21.9819 8.78268C22.5341 8.7767 22.9867 9.21955 22.9926 9.7718C23 10.4524 23 11.1936 23 11.9963V12.0037C23 12.8064 23 13.5476 22.9926 14.2282C22.9867 14.7805 22.5341 15.2233 21.9819 15.2173C21.4296 15.2113 20.9868 14.7588 20.9928 14.2066C21 13.5378 21 12.8069 21 12C21 11.1931 21 10.4622 20.9928 9.79344C20.9868 9.24119 21.4296 8.78866 21.9819 8.78268Z" fill="#080809" style="fill:#080809;fill:color(display-p3 0.0314 0.0314 0.0353);fill-opacity:1;"/>
<path d="M21.8595 17.6546C22.3921 17.8009 22.7052 18.3513 22.5588 18.8838C22.3057 19.8049 21.8983 20.587 21.2426 21.2426C20.587 21.8983 19.8049 22.3057 18.8838 22.5588C18.3513 22.7052 17.801 22.3921 17.6546 21.8595C17.5083 21.327 17.8214 20.7767 18.3539 20.6303C19.0096 20.4501 19.464 20.1928 19.8284 19.8284C20.1928 19.464 20.4501 19.0096 20.6303 18.3539C20.7767 17.8214 21.327 17.5083 21.8595 17.6546Z" fill="#080809" style="fill:#080809;fill:color(display-p3 0.0314 0.0314 0.0353);fill-opacity:1;"/>
<path d="M2.14045 17.6546C2.673 17.5083 3.22334 17.8214 3.36968 18.3539C3.54985 19.0096 3.80719 19.464 4.17157 19.8284C4.53596 20.1928 4.9904 20.4501 5.64609 20.6303C6.17864 20.7767 6.49172 21.327 6.34539 21.8595C6.19905 22.3921 5.64871 22.7052 5.11616 22.5588C4.1951 22.3057 3.413 21.8983 2.75736 21.2426C2.10172 20.587 1.69426 19.8049 1.44116 18.8838C1.29482 18.3513 1.60791 17.801 2.14045 17.6546Z" fill="#080809" style="fill:#080809;fill:color(display-p3 0.0314 0.0314 0.0353);fill-opacity:1;"/>
<path d="M8.78268 21.9819C8.78866 21.4296 9.24119 20.9868 9.79344 20.9928C10.4622 21 11.1931 21 12 21C12.8069 21 13.5378 21 14.2066 20.9928C14.7588 20.9868 15.2113 21.4296 15.2173 21.9819C15.2233 22.5341 14.7805 22.9867 14.2282 22.9926C13.5476 23 12.8064 23 12.0037 23H11.9963C11.1936 23 10.4524 23 9.7718 22.9926C9.21955 22.9867 8.7767 22.5341 8.78268 21.9819Z" fill="#080809" style="fill:#080809;fill:color(display-p3 0.0314 0.0314 0.0353);fill-opacity:1;"/>
<path d="M10.5033 12.5C8.29441 12.5 6.50391 14.2909 6.50391 16.4996C6.50391 17.8799 7.62267 18.9991 9.00311 18.9994L15.0029 18.9994C16.3833 18.9991 17.5021 17.8799 17.5021 16.4996C17.5021 14.2909 15.7116 12.5 13.5027 12.5H10.5033Z" fill="#080809" style="fill:#080809;fill:color(display-p3 0.0314 0.0314 0.0353);fill-opacity:1;"/>
<path d="M12 5C10.2051 5 8.75 6.45507 8.75 8.25C8.75 10.0449 10.2051 11.5 12 11.5C13.7949 11.5 15.25 10.0449 15.25 8.25C15.25 6.45507 13.7949 5 12 5Z" fill="#080809" style="fill:#080809;fill:color(display-p3 0.0314 0.0314 0.0353);fill-opacity:1;"/>
</svg>
