<svg width="24" height="24" viewBox="0 0 24 24" fill="none" xmlns="http://www.w3.org/2000/svg">
<path d="M1 3C1 1.89543 1.89543 1 3 1H13C14.1046 1 15 1.89543 15 3V6.5C15 7.05228 14.5523 7.5 14 7.5C13.4477 7.5 13 7.05228 13 6.5V3H3V9C3 11.6206 5.01679 13.7712 7.58222 13.9828C8.13263 14.0283 8.54202 14.5113 8.49661 15.0617C8.45121 15.6121 7.9682 16.0215 7.41778 15.9761C3.82368 15.6796 1 12.6701 1 9V3Z" fill="#080809" style="fill:#080809;fill:color(display-p3 0.0314 0.0314 0.0353);fill-opacity:1;"/>
<path d="M11.75 6.25C11.75 6.94036 11.1904 7.5 10.5 7.5C9.80964 7.5 9.25 6.94036 9.25 6.25C9.25 5.55964 9.80964 5 10.5 5C11.1904 5 11.75 5.55964 11.75 6.25Z" fill="#080809" style="fill:#080809;fill:color(display-p3 0.0314 0.0314 0.0353);fill-opacity:1;"/>
<path d="M5.5 7.5C6.19036 7.5 6.75 6.94036 6.75 6.25C6.75 5.55964 6.19036 5 5.5 5C4.80964 5 4.25 5.55964 4.25 6.25C4.25 6.94036 4.80964 7.5 5.5 7.5Z" fill="#080809" style="fill:#080809;fill:color(display-p3 0.0314 0.0314 0.0353);fill-opacity:1;"/>
<path d="M5.13211 10.9973C5.40629 11.4767 6.0172 11.6431 6.49662 11.3689C6.8083 11.1906 7.19261 11.0694 7.6116 11.0224C8.16044 10.9609 8.55548 10.4661 8.49394 9.91723C8.4324 9.36838 7.93759 8.97334 7.38874 9.03488C6.73571 9.1081 6.08264 9.30165 5.50372 9.63274C5.0243 9.90692 4.85792 10.5178 5.13211 10.9973Z" fill="#080809" style="fill:#080809;fill:color(display-p3 0.0314 0.0314 0.0353);fill-opacity:1;"/>
<path fill-rule="evenodd" clip-rule="evenodd" d="M12 9C10.8954 9 10 9.89543 10 11V17C10 20.5899 12.9101 23.5 16.5 23.5C20.0899 23.5 23 20.5899 23 17V11C23 9.89543 22.1046 9 21 9H12ZM15.25 14.25C15.25 14.9404 14.6904 15.5 14 15.5C13.3096 15.5 12.75 14.9404 12.75 14.25C12.75 13.5596 13.3096 13 14 13C14.6904 13 15.25 13.5596 15.25 14.25ZM20.25 14.25C20.25 14.9404 19.6904 15.5 19 15.5C18.3096 15.5 17.75 14.9404 17.75 14.25C17.75 13.5596 18.3096 13 19 13C19.6904 13 20.25 13.5596 20.25 14.25ZM14.5 17.5C14.1077 17.5 13.7516 17.7294 13.5895 18.0866C13.4273 18.4438 13.489 18.8629 13.7472 19.1582C14.4888 20.0064 15.4588 20.5 16.5 20.5C17.5413 20.5 18.5113 20.0064 19.2529 19.1582C19.5111 18.8629 19.5727 18.4438 19.4106 18.0866C19.2484 17.7294 18.8923 17.5 18.5 17.5H14.5Z" fill="#080809" style="fill:#080809;fill:color(display-p3 0.0314 0.0314 0.0353);fill-opacity:1;"/>
</svg>
