<svg width="24" height="24" viewBox="0 0 24 24" fill="none" xmlns="http://www.w3.org/2000/svg">
<g clip-path="url(#clip0_29901_27992)">
<path fill-rule="evenodd" clip-rule="evenodd" d="M7.68317 2.21329C8.05011 1.18584 9.02333 0.5 10.1143 0.5C10.8661 0.5 11.5325 0.81792 12 1.31836C12.4675 0.81792 13.1339 0.5 13.8857 0.5C14.9767 0.5 15.9499 1.18584 16.3168 2.21329L18.442 8.16366C18.4492 8.18398 18.4558 8.20453 18.4618 8.22528L20.1532 14.1454C20.9031 14.0409 21.6914 14.2769 22.268 14.8536L22.6467 15.2322C23.623 16.2085 23.623 17.7915 22.6467 18.7678L18.768 22.6464C17.7917 23.6228 16.2088 23.6228 15.2325 22.6464L14.8538 22.2678C14.2422 21.6562 14.0137 20.8066 14.1684 20.0172L13.4246 19.6984C12.8677 19.4597 12.3849 19.1041 12 18.6673C11.6151 19.1041 11.1323 19.4597 10.5754 19.6984L9.83165 20.0172C9.98627 20.8066 9.7578 21.6562 9.14622 22.2678L8.76754 22.6464C7.79123 23.6228 6.20832 23.6228 5.23201 22.6464L1.35333 18.7678C0.377017 17.7915 0.377015 16.2085 1.35333 15.2322L1.73201 14.8536C2.30865 14.2769 3.0969 14.0409 3.84679 14.1454L5.53825 8.22528C5.54418 8.20453 5.55078 8.18398 5.55803 8.16366L7.68317 2.21329ZM15.2719 18.3142L18.3771 15.209L16.5476 8.80585L14.4333 2.88596C14.3507 2.6545 14.1314 2.5 13.8857 2.5C13.5241 2.5 13.2501 2.82649 13.313 3.1826L14.1798 8.09643C15.0619 8.34953 15.7561 9.07852 15.9386 10.0164L16.4818 12.8091C16.5873 13.3512 16.2333 13.8761 15.6912 13.9816C15.149 14.0871 14.6241 13.7331 14.5186 13.1909L13.9754 10.3983C13.9304 10.167 13.7278 10 13.4922 10C13.2292 10 13.0144 10.2062 13.0006 10.4658L13.0003 16.0218C13.0003 16.8218 13.4771 17.545 14.2125 17.8601L15.2719 18.3142ZM10.687 3.1826L9.82016 8.09643C8.93809 8.34953 8.24386 9.07852 8.06142 10.0164L7.51817 12.8091C7.41272 13.3512 7.76671 13.8761 8.30883 13.9816C8.85095 14.0871 9.37592 13.7331 9.48137 13.1909L10.0246 10.3983C10.0696 10.167 10.2722 10 10.5078 10C10.7708 10 10.9856 10.2062 10.9994 10.4658L10.9997 16.0218C10.9997 16.8218 10.5229 17.545 9.78751 17.8601L8.72815 18.3142L5.62295 15.209L7.4524 8.80585L9.56665 2.88596C9.64931 2.6545 9.86855 2.5 10.1143 2.5C10.4759 2.5 10.7499 2.82649 10.687 3.1826Z" fill="#080809" style="fill:#080809;fill:color(display-p3 0.0314 0.0314 0.0353);fill-opacity:1;"/>
</g>
<defs>
<clipPath id="clip0_29901_27992">
<rect width="24" height="24" fill="white" style="fill:white;fill-opacity:1;"/>
</clipPath>
</defs>
</svg>
