<svg width="24" height="24" viewBox="0 0 24 24" fill="none" xmlns="http://www.w3.org/2000/svg">
<path d="M12 5.50023C12.5523 5.50023 13 5.94794 13 6.50023V13.5C13 14.0523 12.5523 14.5 12 14.5C11.4477 14.5 11 14.0523 11 13.5V6.50023C11 5.94794 11.4477 5.50023 12 5.50023Z" fill="#080809" style="fill:#080809;fill:color(display-p3 0.0314 0.0314 0.0353);fill-opacity:1;"/>
<path d="M12 18.5C12.6904 18.5 13.25 17.9404 13.25 17.25C13.25 16.5596 12.6904 16 12 16C11.3096 16 10.75 16.5596 10.75 17.25C10.75 17.9404 11.3096 18.5 12 18.5Z" fill="#080809" style="fill:#080809;fill:color(display-p3 0.0314 0.0314 0.0353);fill-opacity:1;"/>
<path fill-rule="evenodd" clip-rule="evenodd" d="M6.56497 1.87868C7.12758 1.31607 7.89064 1 8.68629 1H15.3137C16.1094 1 16.8724 1.31607 17.435 1.87868L22.1213 6.56497C22.6839 7.12758 23 7.89064 23 8.68629V15.3137C23 16.1094 22.6839 16.8724 22.1213 17.435L17.435 22.1213C16.8724 22.6839 16.1094 23 15.3137 23H8.68629C7.89064 23 7.12758 22.6839 6.56497 22.1213L1.87868 17.435C1.31607 16.8724 1 16.1094 1 15.3137V8.68629C1 7.89064 1.31607 7.12758 1.87868 6.56497L6.56497 1.87868ZM8.68629 3C8.42108 3 8.16672 3.10536 7.97919 3.29289L3.29289 7.97918C3.10536 8.16672 3 8.42107 3 8.68629L3 15.3137C3 15.5789 3.10536 15.8333 3.29289 16.0208L7.97918 20.7071C8.16672 20.8946 8.42107 21 8.68629 21H15.3137C15.5789 21 15.8333 20.8946 16.0208 20.7071L20.7071 16.0208C20.8946 15.8333 21 15.5789 21 15.3137V8.68629C21 8.42107 20.8946 8.16672 20.7071 7.97919L16.0208 3.29289C15.8333 3.10536 15.5789 3 15.3137 3H8.68629Z" fill="#080809" style="fill:#080809;fill:color(display-p3 0.0314 0.0314 0.0353);fill-opacity:1;"/>
</svg>
