<svg width="24" height="24" viewBox="0 0 24 24" fill="none" xmlns="http://www.w3.org/2000/svg">
<g clip-path="url(#clip0_29901_27864)">
<path fill-rule="evenodd" clip-rule="evenodd" d="M4.48594 20.7283L4.20092 20.4599C2.50567 18.9005 1.26123 16.818 0.745851 14.3933C0.230793 11.9702 0.519963 9.56312 1.433 7.44989L1.61348 7.02605L1.62784 7.023C3.11921 3.9237 5.979 1.52409 9.60356 0.753663C13.2281 -0.0167624 16.8167 1.01222 19.4397 3.23696L19.455 3.23372L19.8356 3.58782C21.5068 5.14268 22.7333 7.2102 23.2436 9.61077C23.5057 10.8438 23.5594 12.0734 23.4284 13.2624C23.3065 14.3704 23.0242 15.4429 22.6006 16.4504L22.404 16.9196L22.3894 16.9228C20.9061 20.0506 18.0331 22.4758 14.3855 23.2511C10.738 24.0264 7.12695 22.9794 4.49965 20.7253L4.48594 20.7283ZM10.0194 2.70996C7.61052 3.22198 5.61056 4.60508 4.27916 6.45944L16.7884 3.80052C14.8179 2.64801 12.4283 2.19794 10.0194 2.70996ZM13.9697 21.2948C16.4055 20.777 18.4233 19.3686 19.7544 17.4828L7.1347 20.1652C9.11774 21.3465 11.5339 21.8125 13.9697 21.2948ZM11.1632 8.08977C11.5583 8.00579 11.9651 8.16775 12.1944 8.50031L13.0205 9.6986L14.4638 9.51073C14.8644 9.45859 15.257 9.65254 15.4589 10.0024C15.6609 10.3522 15.6326 10.7891 15.3871 11.11L14.5028 12.266L15.1275 13.5806C15.3008 13.9454 15.2377 14.3787 14.9674 14.6789C14.6971 14.9791 14.2728 15.0872 13.8918 14.9529L12.5191 14.469L11.4619 15.4694C11.1685 15.747 10.7369 15.8208 10.3679 15.6565C9.99886 15.4922 9.76493 15.1221 9.77491 14.7183L9.81089 13.2633L8.53281 12.5669C8.17811 12.3736 7.97451 11.986 8.01673 11.5842C8.05895 11.1825 8.33871 10.8457 8.72584 10.7304L10.1208 10.315L10.3881 8.88425C10.4623 8.48719 10.7681 8.17375 11.1632 8.08977Z" fill="#080809" style="fill:#080809;fill:color(display-p3 0.0314 0.0314 0.0353);fill-opacity:1;"/>
</g>
<defs>
<clipPath id="clip0_29901_27864">
<rect width="24" height="24" fill="white" style="fill:white;fill-opacity:1;"/>
</clipPath>
</defs>
</svg>
