<svg width="24" height="24" viewBox="0 0 24 24" fill="none" xmlns="http://www.w3.org/2000/svg">
<path d="M20.5447 8.54467C21.0873 8.002 21.762 7.59867 22.488 7.37133C23.236 7.144 23.5 6.49133 23.5 6C23.5 5.50867 23.236 4.856 22.488 4.62867C21.7547 4.40133 21.08 3.998 20.5447 3.45533C20.002 2.91267 19.5987 2.238 19.3713 1.512C19.144 0.764 18.4913 0.5 18 0.5C17.5087 0.5 16.856 0.764 16.6287 1.512C16.4013 2.24533 15.998 2.91267 15.4553 3.45533C14.9127 3.998 14.238 4.40133 13.512 4.62867C12.764 4.856 12.5 5.50867 12.5 6C12.5 6.49133 12.764 7.144 13.512 7.37133C14.2453 7.59867 14.92 8.002 15.4553 8.54467C15.998 9.08 16.4013 9.75467 16.6287 10.488C16.856 11.236 17.5087 11.5 18 11.5C18.4913 11.5 19.144 11.236 19.3713 10.488C19.5987 9.75467 20.002 9.08733 20.5447 8.54467Z" fill="#080809" style="fill:#080809;fill:color(display-p3 0.0314 0.0314 0.0353);fill-opacity:1;"/>
<path d="M1 6C1 8.76142 3.23858 11 6 11C8.76142 11 11 8.76142 11 6C11 3.23858 8.76142 1 6 1C3.23858 1 1 3.23858 1 6Z" fill="#080809" style="fill:#080809;fill:color(display-p3 0.0314 0.0314 0.0353);fill-opacity:1;"/>
<path d="M1 18C1 20.7614 3.23858 23 6 23C8.76142 23 11 20.7614 11 18C11 15.2386 8.76142 13 6 13C3.23858 13 1 15.2386 1 18Z" fill="#080809" style="fill:#080809;fill:color(display-p3 0.0314 0.0314 0.0353);fill-opacity:1;"/>
<path d="M13 18C13 20.7614 15.2386 23 18 23C20.7614 23 23 20.7614 23 18C23 15.2386 20.7614 13 18 13C15.2386 13 13 15.2386 13 18Z" fill="#080809" style="fill:#080809;fill:color(display-p3 0.0314 0.0314 0.0353);fill-opacity:1;"/>
</svg>
