<svg width="24" height="24" viewBox="0 0 24 24" fill="none" xmlns="http://www.w3.org/2000/svg">
<path fill-rule="evenodd" clip-rule="evenodd" d="M12.3545 2.3535L13.8772 3.87622C14.7871 3.3203 15.8566 2.99995 17.0009 2.99995C20.3146 2.99995 23.0009 5.68624 23.0009 8.99995V22C23.0009 22.5522 22.5532 23 22.0009 23H18.0009C14.1349 23 11.0009 19.8659 11.0009 16V8.99995C11.0009 8.39378 11.0908 7.8086 11.258 7.25702L9.35448 5.3535C9.0395 5.03852 9.26258 4.49995 9.70803 4.49995H11.5009V2.70706C11.5009 2.2616 12.0395 2.03852 12.3545 2.3535ZM16.9965 8.24995C16.9965 8.94031 16.4369 9.49995 15.7465 9.49995C15.0562 9.49995 14.4965 8.94031 14.4965 8.24995C14.4965 7.55959 15.0562 6.99995 15.7465 6.99995C16.4369 6.99995 16.9965 7.55959 16.9965 8.24995Z" fill="#080809" style="fill:#080809;fill:color(display-p3 0.0314 0.0314 0.0353);fill-opacity:1;"/>
<path fill-rule="evenodd" clip-rule="evenodd" d="M9.50093 9.54399C8.73987 9.19469 7.89314 8.99995 7.00093 8.99995C6.39475 8.99995 5.80958 9.08984 5.258 9.25702L3.85448 7.8535C3.5395 7.53852 3.00093 7.7616 3.00093 8.20706V9.99995H1.20803C0.762581 9.99995 0.539498 10.5385 0.85448 10.8535L1.87719 11.8762C1.32128 12.7861 1.00093 13.8556 1.00093 15V16C1.00093 19.8659 4.13493 23 8.00093 23H12.0009C12.2928 23 12.5555 22.8749 12.7384 22.6754C10.7665 21.1188 9.50093 18.7072 9.50093 16V9.54399ZM7.00093 14.25C7.00093 14.9403 6.44128 15.5 5.75093 15.5C5.06057 15.5 4.50093 14.9403 4.50093 14.25C4.50093 13.5596 5.06057 13 5.75093 13C6.44128 13 7.00093 13.5596 7.00093 14.25Z" fill="#080809" style="fill:#080809;fill:color(display-p3 0.0314 0.0314 0.0353);fill-opacity:1;"/>
</svg>
