<svg width="24" height="24" viewBox="0 0 24 24" fill="none" xmlns="http://www.w3.org/2000/svg">
<path d="M7.99997 4.5C7.44769 4.5 6.99997 4.94772 6.99997 5.5C6.99997 6.05228 7.44769 6.5 7.99997 6.5H16C16.5523 6.5 17 6.05228 17 5.5C17 4.94772 16.5523 4.5 16 4.5H7.99997Z" fill="#080809" style="fill:#080809;fill:color(display-p3 0.0314 0.0314 0.0353);fill-opacity:1;"/>
<path d="M17 16.5C17 15.9477 16.5523 15.5 16 15.5H7.99997C7.44769 15.5 6.99997 15.9477 6.99997 16.5C6.99997 17.0523 7.44769 17.5 7.99997 17.5H16C16.5523 17.5 17 17.0523 17 16.5Z" fill="#080809" style="fill:#080809;fill:color(display-p3 0.0314 0.0314 0.0353);fill-opacity:1;"/>
<path fill-rule="evenodd" clip-rule="evenodd" d="M2.99997 3.5C2.99997 2.11929 4.11926 1 5.49997 1H18.8787C19.5417 1 20.1776 1.26339 20.6464 1.73223L23 4.08579C23.781 4.86683 23.781 6.13316 23 6.91421L20.6464 9.26777C20.1776 9.73661 19.5417 10 18.8787 10H13V12H18.5C19.8807 12 21 13.1193 21 14.5V18.5C21 19.8807 19.8807 21 18.5 21H13V22.5C13 23.0523 12.5523 23.5 12 23.5C11.4477 23.5 11 23.0523 11 22.5V21H5.12129C4.45825 21 3.82237 20.7366 3.35352 20.2678L0.999971 17.9142C0.218923 17.1332 0.218921 15.8668 0.999971 15.0858L3.35352 12.7322C3.82237 12.2634 4.45825 12 5.12129 12H11V10H5.49997C4.11926 10 2.99997 8.88071 2.99997 7.5V3.5ZM5.49997 3C5.22383 3 4.99997 3.22386 4.99997 3.5V7.5C4.99997 7.77614 5.22383 8 5.49997 8H18.8787C19.0113 8 19.1384 7.94732 19.2322 7.85355L21.5858 5.5L19.2322 3.14645C19.1384 3.05268 19.0113 3 18.8787 3H5.49997ZM19 14.5C19 14.2239 18.7761 14 18.5 14H5.12129C4.98868 14 4.86151 14.0527 4.76774 14.1464L2.41418 16.5L4.76774 18.8536C4.86151 18.9473 4.98868 19 5.12129 19H18.5C18.7761 19 19 18.7761 19 18.5V14.5Z" fill="#080809" style="fill:#080809;fill:color(display-p3 0.0314 0.0314 0.0353);fill-opacity:1;"/>
</svg>
