<svg width="24" height="24" viewBox="0 0 24 24" fill="none" xmlns="http://www.w3.org/2000/svg">
<path fill-rule="evenodd" clip-rule="evenodd" d="M17.5099 1.31919C16.2064 0.0156822 14.0466 0.185135 12.9624 1.676L8.94566 7.19898L5.47 7.54655C3.3714 7.75641 2.45965 10.3106 3.95099 11.8019L7.36681 15.2177L1.29192 21.2926C0.901392 21.6831 0.901392 22.3163 1.29192 22.7068C1.68244 23.0974 2.31561 23.0974 2.70613 22.7068L8.78102 16.6319L12.2024 20.0533C13.6937 21.5447 16.2479 20.6329 16.4578 18.5343L16.8053 15.0587L22.3283 11.0419C23.8192 9.95768 23.9886 7.79793 22.6851 6.49441L17.5099 1.31919ZM14.5798 2.85234C14.9413 2.35539 15.6612 2.2989 16.0957 2.73341L21.2709 7.90863C21.7054 8.34313 21.6489 9.06305 21.152 9.42447L15.2667 13.7047C15.0362 13.8723 14.8882 14.1303 14.8598 14.4139L14.4677 18.3353C14.4257 18.755 13.9149 18.9374 13.6166 18.6391L5.3652 10.3877C5.06693 10.0894 5.24928 9.5786 5.669 9.53662L9.59042 9.14448C9.874 9.11612 10.132 8.96811 10.2996 8.73762L14.5798 2.85234Z" fill="#080809" style="fill:#080809;fill:color(display-p3 0.0314 0.0314 0.0353);fill-opacity:1;"/>
</svg>
