<svg width="24" height="24" viewBox="0 0 24 24" fill="none" xmlns="http://www.w3.org/2000/svg">
<path d="M12 2C11.4477 2 11 2.44772 11 3V14.5947C9.2334 12.8314 7.47628 11.062 5.7071 9.29289C5.31658 8.90237 4.68341 8.90237 4.29289 9.2929C3.90237 9.68342 3.90237 10.3166 4.2929 10.7071C6.50447 12.9187 8.71689 15.1503 10.9424 17.3595C11.5287 17.9415 12.4746 17.9393 13.0585 17.3563C15.2763 15.1417 17.491 12.9232 19.7071 10.7071C20.0976 10.3166 20.0976 9.68342 19.7071 9.2929C19.3166 8.90237 18.6834 8.90237 18.2929 9.29289C16.5276 11.0582 14.7647 12.8234 13 14.5875V3C13 2.44772 12.5523 2 12 2Z" fill="#080809" style="fill:#080809;fill:color(display-p3 0.0314 0.0314 0.0353);fill-opacity:1;"/>
<path d="M4.29289 14.2929C3.90237 14.6834 3.90237 15.3166 4.2929 15.7071C5.91262 17.3268 7.55522 18.9798 9.17863 20.6022C10.738 22.1607 13.2616 22.1542 14.8178 20.5983C16.4485 18.9677 18.0796 17.3346 19.7071 15.7071C20.0976 15.3166 20.0976 14.6834 19.7071 14.2929C19.3166 13.9024 18.6834 13.9024 18.2929 14.2929C16.6606 15.9252 15.0354 17.5524 13.4036 19.184C12.6255 19.962 11.3679 19.9626 10.5924 19.1876C8.96445 17.5606 7.3492 15.935 5.7071 14.2929C5.31658 13.9024 4.68341 13.9024 4.29289 14.2929Z" fill="#080809" style="fill:#080809;fill:color(display-p3 0.0314 0.0314 0.0353);fill-opacity:1;"/>
</svg>
