<svg width="24" height="24" viewBox="0 0 24 24" fill="none" xmlns="http://www.w3.org/2000/svg">
<path fill-rule="evenodd" clip-rule="evenodd" d="M3.72547 3.48286C3.97669 2.04734 5.22322 1 6.68056 1H17.3194C18.7768 1 20.0233 2.04733 20.2745 3.48286L23.4849 21.8276C23.5801 22.3716 23.2162 22.8898 22.6722 22.985C22.1282 23.0802 21.61 22.7164 21.5148 22.1724L20.9596 19H17.0404L16.4852 22.1724C16.39 22.7164 15.8718 23.0802 15.3278 22.985C14.7838 22.8898 14.4199 22.3716 14.5151 21.8276L15.01 19H3.04036L2.4852 22.1724C2.38999 22.7164 1.8718 23.0802 1.32779 22.985C0.783768 22.8898 0.419932 22.3716 0.515135 21.8276L3.72547 3.48286ZM19 7.80207L20.6096 17H17.3904L19 7.80207ZM14.9997 8.92373C14.9689 11.0629 12.7511 12.8698 10.7792 14.0503C10.607 14.1534 10.3929 14.1534 10.2207 14.0503C8.2488 12.8698 6.03109 11.0629 6.00034 8.92373C5.97746 7.41815 7.09962 6.52371 8.24996 6.50194C9.17588 6.48443 9.83882 6.89397 10.5 7.89288C11.161 6.89413 11.824 6.48299 12.7499 6.50054C13.9003 6.52233 15.0225 7.41836 14.9997 8.92373Z" fill="#080809" style="fill:#080809;fill:color(display-p3 0.0314 0.0314 0.0353);fill-opacity:1;"/>
</svg>
