<svg width="24" height="24" viewBox="0 0 24 24" fill="none" xmlns="http://www.w3.org/2000/svg">
<path fill-rule="evenodd" clip-rule="evenodd" d="M12 0.5C16.6944 0.5 20.5 4.30558 20.5 9C20.5 10.607 19.856 12.1396 19.0094 13.4716C18.3929 14.4415 17.6438 15.3448 16.8841 16.1443L19.7276 18.0992C20.6494 18.7329 20.8722 19.9995 20.222 20.9097L18.9 22.7605C18.2541 23.6648 16.9949 23.8691 16.0962 23.2155L12 20.2365L7.90388 23.2155C7.00517 23.8691 5.74597 23.6648 5.10007 22.7605L3.78435 20.9185C3.12934 20.0015 3.36091 18.7247 4.29622 18.0961L7.14892 16.1789C6.3856 15.3789 5.63131 14.4738 5.00966 13.5014C4.15342 12.1621 3.50003 10.6188 3.50003 9C3.50003 4.30558 7.30561 0.5 12 0.5ZM18.5 9C18.5 5.41015 15.5899 2.5 12 2.5C8.41018 2.5 5.50003 5.41015 5.50003 9C5.50003 10.0893 5.94668 11.2541 6.69474 12.4242C7.43768 13.5863 8.43023 14.6792 9.40539 15.6044L9.4845 15.6794C10.2777 16.4255 11.0382 17.0433 11.6065 17.4784C13.4543 18.8935 15.3859 20.2259 17.2725 21.598L18.5945 19.7472L13.7458 16.4137L14.6374 15.5638C15.6063 14.64 16.5879 13.553 17.3215 12.3988C18.06 11.2368 18.5 10.0812 18.5 9ZM10.3021 18.9984C9.83045 18.6343 9.24582 18.1605 8.61981 17.6001L5.41181 19.756L6.72753 21.598L10.3021 18.9984Z" fill="#080809" style="fill:#080809;fill:color(display-p3 0.0314 0.0314 0.0353);fill-opacity:1;"/>
<path fill-rule="evenodd" clip-rule="evenodd" d="M16.5001 9.07812C16.5001 6.59284 14.4854 4.57812 12.0001 4.57812C9.51485 4.57812 7.50013 6.59284 7.50013 9.07812C7.50013 9.8768 7.81318 10.6379 8.18265 11.2729C8.55948 11.9206 9.04748 12.526 9.5121 13.0341C9.9799 13.5458 10.4444 13.981 10.7903 14.2873C10.964 14.441 11.1095 14.5639 11.2129 14.6493C11.4704 14.8619 11.7372 15.0633 12.0001 15.269C12.2631 15.0633 12.5299 14.8619 12.7873 14.6493C12.8907 14.5639 13.0362 14.441 13.2099 14.2873C13.5559 13.981 14.0204 13.5458 14.4882 13.0341C14.9528 12.526 15.4408 11.9206 15.8176 11.2729C16.1871 10.6379 16.5001 9.8768 16.5001 9.07812ZM12.0001 12.6861C11.7073 12.4217 11.3464 12.0765 10.9882 11.6846C10.5778 11.2358 10.1908 10.7474 9.91135 10.2671C9.62458 9.77423 9.50013 9.3732 9.50013 9.07812C9.50013 7.69741 10.6194 6.57812 12.0001 6.57812C13.3808 6.57812 14.5001 7.69741 14.5001 9.07812C14.5001 9.3732 14.3757 9.77423 14.0889 10.2671C13.8095 10.7474 13.4225 11.2358 13.0121 11.6846C12.6538 12.0765 12.293 12.4217 12.0001 12.6861Z" fill="#080809" style="fill:#080809;fill:color(display-p3 0.0314 0.0314 0.0353);fill-opacity:1;"/>
</svg>
