<svg width="24" height="24" viewBox="0 0 24 24" fill="none" xmlns="http://www.w3.org/2000/svg">
<path d="M12.0428 3.04343C14.5045 0.581839 18.4955 0.581882 20.9571 3.04353C23.4187 5.50516 23.4187 9.49621 20.9571 11.9578L18.707 14.2079C18.3164 14.5985 17.6833 14.5985 17.2928 14.2079C16.9022 13.8174 16.9022 13.1843 17.2928 12.7937L19.5429 10.5436C21.2234 8.86304 21.2235 6.13831 19.5429 4.45773C17.8623 2.77714 15.1376 2.77711 13.457 4.45766L11.2068 6.7078C10.8163 7.09832 10.1831 7.09832 9.7926 6.70779C9.40208 6.31726 9.40209 5.68409 9.79261 5.29357L12.0428 3.04343Z" fill="#080809" style="fill:#080809;fill:color(display-p3 0.0314 0.0314 0.0353);fill-opacity:1;"/>
<path d="M6.70709 9.79398C7.09761 10.1845 7.09759 10.8177 6.70705 11.2082L4.45728 13.4578C2.77665 15.1384 2.77661 17.8631 4.45718 19.5437C6.13769 21.2242 8.86232 21.2243 10.5429 19.5438L12.7929 17.2939C13.1834 16.9034 13.8166 16.9034 14.2071 17.294C14.5976 17.6845 14.5976 18.3177 14.207 18.7082L11.957 20.9581C9.49543 23.4195 5.50451 23.4195 3.04297 20.9579C0.581326 18.4963 0.581388 14.5051 3.04311 12.0436L5.29288 9.79393C5.68342 9.40342 6.31658 9.40344 6.70709 9.79398Z" fill="#080809" style="fill:#080809;fill:color(display-p3 0.0314 0.0314 0.0353);fill-opacity:1;"/>
<path d="M15.7071 9.70816C16.0976 9.31764 16.0976 8.68447 15.7071 8.29395C15.3166 7.90342 14.6834 7.90342 14.2929 8.29395L8.29286 14.2939C7.90234 14.6845 7.90234 15.3176 8.29286 15.7082C8.68339 16.0987 9.31655 16.0987 9.70708 15.7082L15.7071 9.70816Z" fill="#080809" style="fill:#080809;fill:color(display-p3 0.0314 0.0314 0.0353);fill-opacity:1;"/>
</svg>
