<svg width="24" height="24" viewBox="0 0 24 24" fill="none" xmlns="http://www.w3.org/2000/svg">
<path fill-rule="evenodd" clip-rule="evenodd" d="M10 1C7.23858 1 5 3.23858 5 6C5 8.76142 7.23858 11 10 11C12.7614 11 15 8.76142 15 6C15 3.23858 12.7614 1 10 1ZM7 6C7 4.34315 8.34315 3 10 3C11.6569 3 13 4.34315 13 6C13 7.65685 11.6569 9 10 9C8.34315 9 7 7.65685 7 6Z" fill="#080809" style="fill:#080809;fill:color(display-p3 0.0314 0.0314 0.0353);fill-opacity:1;"/>
<path fill-rule="evenodd" clip-rule="evenodd" d="M17.4961 9C15.7012 9 14.2461 10.4551 14.2461 12.25C14.2461 14.0449 15.7012 15.5 17.4961 15.5C19.291 15.5 20.7461 14.0449 20.7461 12.25C20.7461 10.4551 19.291 9 17.4961 9ZM16.2461 12.25C16.2461 11.5596 16.8057 11 17.4961 11C18.1864 11 18.7461 11.5596 18.7461 12.25C18.7461 12.9404 18.1864 13.5 17.4961 13.5C16.8057 13.5 16.2461 12.9404 16.2461 12.25Z" fill="#080809" style="fill:#080809;fill:color(display-p3 0.0314 0.0314 0.0353);fill-opacity:1;"/>
<path fill-rule="evenodd" clip-rule="evenodd" d="M15.9994 16.5C13.7905 16.5 12 18.2909 12 20.4996C12 21.8799 13.1188 22.9991 14.4992 22.9994L20.499 22.9994C21.8794 22.9991 22.9982 21.8799 22.9982 20.4996C22.9982 18.2909 21.2077 16.5 18.9988 16.5H15.9994ZM14 20.4996C14 19.3953 14.8952 18.5 15.9994 18.5H18.9988C20.103 18.5 20.9982 19.3953 20.9982 20.4996C20.9982 20.7756 20.7745 20.9993 20.4986 20.9994H14.4996C14.2237 20.9993 14 20.7756 14 20.4996Z" fill="#080809" style="fill:#080809;fill:color(display-p3 0.0314 0.0314 0.0353);fill-opacity:1;"/>
<path d="M1 19.3333C1 15.8355 3.83553 13 7.33333 13H11.4944C12.0467 13 12.4944 13.4477 12.4944 14C12.4944 14.5523 12.0467 15 11.4944 15H7.33333C4.9401 15 3 16.9401 3 19.3333C3 20.2538 3.74619 21 4.66667 21H9.20716C9.75944 21 10.2072 21.4477 10.2072 22C10.2072 22.5523 9.75944 23 9.20716 23H4.66667C2.64162 23 1 21.3584 1 19.3333Z" fill="#080809" style="fill:#080809;fill:color(display-p3 0.0314 0.0314 0.0353);fill-opacity:1;"/>
</svg>
