<svg width="24" height="24" viewBox="0 0 24 24" fill="none" xmlns="http://www.w3.org/2000/svg">
<path fill-rule="evenodd" clip-rule="evenodd" d="M12 0.5C10.3431 0.5 9 1.84315 9 3.5C9 4.23711 9.26584 4.91213 9.70688 5.43442L4.06799 15.0537C3.88407 15.0185 3.69419 15 3.5 15C1.84315 15 0.5 16.3431 0.5 18C0.5 19.6569 1.84315 21 3.5 21C4.80622 21 5.91746 20.1652 6.32929 19H17.6707C18.0825 20.1652 19.1938 21 20.5 21C22.1569 21 23.5 19.6569 23.5 18C23.5 16.3431 22.1569 15 20.5 15C20.3058 15 20.1159 15.0185 19.932 15.0537L14.2931 5.43442C14.7342 4.91213 15 4.23711 15 3.5C15 1.84315 13.6569 0.5 12 0.5ZM18.2069 16.0656L12.568 6.4463C12.3841 6.48155 12.1942 6.5 12 6.5C11.8058 6.5 11.6159 6.48155 11.432 6.4463L5.79312 16.0656C6.02436 16.3394 6.20744 16.6552 6.32929 17H17.6707C17.7926 16.6553 17.9756 16.3394 18.2069 16.0656Z" fill="#080809" style="fill:#080809;fill:color(display-p3 0.0314 0.0314 0.0353);fill-opacity:1;"/>
</svg>
