<svg width="24" height="24" viewBox="0 0 24 24" fill="none" xmlns="http://www.w3.org/2000/svg">
<path d="M6 5C6 5.55228 5.55228 6 5 6C4.44772 6 4 5.55228 4 5C4 4.44772 4.44772 4 5 4C5.55228 4 6 4.44772 6 5Z" fill="#080809" style="fill:#080809;fill:color(display-p3 0.0314 0.0314 0.0353);fill-opacity:1;"/>
<path d="M8 6C8.55229 6 9 5.55228 9 5C9 4.44772 8.55229 4 8 4C7.44772 4 7 4.44772 7 5C7 5.55228 7.44772 6 8 6Z" fill="#080809" style="fill:#080809;fill:color(display-p3 0.0314 0.0314 0.0353);fill-opacity:1;"/>
<path fill-rule="evenodd" clip-rule="evenodd" d="M7.92943 1H16.0706C17.4247 0.999966 18.5413 0.999936 19.4251 1.11875C20.3529 1.2435 21.1723 1.51547 21.8284 2.17158C22.4845 2.82768 22.7565 3.64711 22.8813 4.57494C23.0001 5.45868 23 6.57528 23 7.92937V12C23 12.5523 22.5523 13 22 13C21.4477 13 21 12.5523 21 12V9H3V16C3 17.4425 3.00213 18.4237 3.10092 19.1586C3.19585 19.8646 3.36322 20.1916 3.58579 20.4142C3.80836 20.6368 4.13538 20.8042 4.84143 20.8991C5.57625 20.9979 6.55752 21 8 21H12C12.5523 21 13 21.4477 13 22C13 22.5523 12.5523 23 12 23H7.92946C6.57537 23 5.45868 23.0001 4.57494 22.8813C3.64711 22.7565 2.82768 22.4845 2.17158 21.8284C1.51547 21.1723 1.2435 20.3529 1.11875 19.4251C0.999936 18.5413 0.999966 17.4247 1 16.0706V7.92943C0.999966 6.57531 0.999937 5.4587 1.11875 4.57494C1.2435 3.64711 1.51547 2.82768 2.17158 2.17158C2.82768 1.51547 3.64711 1.2435 4.57494 1.11875C5.4587 0.999937 6.57531 0.999966 7.92943 1ZM3.00189 7H20.9981C20.9929 6.08166 20.9731 5.3923 20.8991 4.84143C20.8042 4.13538 20.6368 3.80836 20.4142 3.58579C20.1916 3.36322 19.8646 3.19585 19.1586 3.10092C18.4237 3.00213 17.4425 3 16 3H8C6.55752 3 5.57625 3.00213 4.84143 3.10092C4.13538 3.19585 3.80836 3.36322 3.58579 3.58579C3.36322 3.80836 3.19585 4.13538 3.10092 4.84143C3.02686 5.3923 3.00712 6.08166 3.00189 7Z" fill="#080809" style="fill:#080809;fill:color(display-p3 0.0314 0.0314 0.0353);fill-opacity:1;"/>
<path fill-rule="evenodd" clip-rule="evenodd" d="M19 23.5C21.4853 23.5 23.5 21.4853 23.5 19C23.5 16.5147 21.4853 14.5 19 14.5C16.5147 14.5 14.5 16.5147 14.5 19C14.5 21.4853 16.5147 23.5 19 23.5ZM19.75 17.25C19.75 16.8358 19.4142 16.5 19 16.5C18.5858 16.5 18.25 16.8358 18.25 17.25V19C18.25 19.1989 18.329 19.3897 18.4697 19.5303L19.7197 20.7803C20.0126 21.0732 20.4874 21.0732 20.7803 20.7803C21.0732 20.4874 21.0732 20.0126 20.7803 19.7197L19.75 18.6893V17.25Z" fill="#080809" style="fill:#080809;fill:color(display-p3 0.0314 0.0314 0.0353);fill-opacity:1;"/>
</svg>
