<svg width="24" height="24" viewBox="0 0 24 24" fill="none" xmlns="http://www.w3.org/2000/svg">
<g clip-path="url(#clip0_29901_28490)">
<path fill-rule="evenodd" clip-rule="evenodd" d="M12 0.5C18.3513 0.5 23.5 5.64873 23.5 12C23.5 18.3513 18.3513 23.5 12 23.5C5.64873 23.5 0.5 18.3513 0.5 12C0.5 5.64873 5.64873 0.5 12 0.5ZM12.2217 6C9.00854 6.0002 6.5 8.74107 6.5 12C6.5 15.2589 9.00854 17.9998 12.2217 18C14.0649 18 15.901 17.1085 16.8574 15.5146C17.1415 15.0411 16.9881 14.4268 16.5146 14.1426C16.0411 13.8585 15.4268 14.0119 15.1426 14.4854C14.599 15.3914 13.4682 16 12.2217 16C10.2193 15.9998 8.5 14.2637 8.5 12C8.5 9.73633 10.2193 8.0002 12.2217 8C13.3905 8 14.4576 8.53496 15.0342 9.34863L15.1426 9.51465L15.1992 9.59961C15.5026 10.0057 16.0706 10.1238 16.5146 9.85742C16.9585 9.59102 17.1207 9.03484 16.9053 8.57617L16.8574 8.48535L16.668 8.19531C15.6715 6.78385 13.9498 6 12.2217 6Z" fill="#080809" style="fill:#080809;fill:color(display-p3 0.0314 0.0314 0.0353);fill-opacity:1;"/>
</g>
<defs>
<clipPath id="clip0_29901_28490">
<rect width="24" height="24" fill="white" style="fill:white;fill-opacity:1;"/>
</clipPath>
</defs>
</svg>
