<svg width="24" height="24" viewBox="0 0 24 24" fill="none" xmlns="http://www.w3.org/2000/svg">
<path d="M8 1C8.55228 1 9 1.44771 9 2L9 11.5926C9.54182 11.0507 10.0821 10.5088 10.6229 9.9663C11.1782 9.40935 11.7341 8.85178 12.2929 8.29296C12.6834 7.90244 13.3166 7.90244 13.7071 8.29297C14.0976 8.6835 14.0976 9.31666 13.7071 9.70718C13.1543 10.26 12.6003 10.8157 12.0456 11.3721L12.0436 11.374C11.2844 12.1355 10.524 12.8983 9.76406 13.6562C8.78803 14.6297 7.21034 14.6253 6.23759 13.6531C5.48087 12.8967 4.72404 12.1394 3.96744 11.3824C3.40909 10.8237 2.85086 10.2651 2.2929 9.70718C1.90237 9.31666 1.90237 8.6835 2.29289 8.29297C2.68341 7.90244 3.31658 7.90244 3.7071 8.29296C4.26182 8.84767 4.81595 9.40213 5.36995 9.95646L5.38657 9.9731C5.92436 10.5112 6.46203 11.0492 7 11.5872L7 2C7 1.44772 7.44771 1 8 1Z" fill="#080809" style="fill:#080809;fill:color(display-p3 0.0314 0.0314 0.0353);fill-opacity:1;"/>
<path d="M1 18.0658C0.999953 18.9523 0.99991 19.7161 1.08215 20.3278C1.17028 20.9833 1.36902 21.6117 1.87869 22.1213C2.38835 22.631 3.0167 22.8297 3.67221 22.9179C4.28387 23.0001 5.04769 23 5.93417 23L18.0658 23C18.9523 23 19.7161 23.0001 20.3278 22.9179C20.9833 22.8297 21.6117 22.631 22.1213 22.1213C22.631 21.6116 22.8297 20.9833 22.9179 20.3278C23.0001 19.7161 23.0001 18.9523 23 18.0658V15.9342C23.0001 15.0477 23.0001 14.2839 22.9179 13.6722C22.8297 13.0167 22.631 12.3883 22.1213 11.8787C21.6117 11.369 20.9833 11.1703 20.3278 11.0821C19.7161 10.9999 18.9523 10.9999 18.0658 11L16 11C15.4477 11 15 11.4477 15 12C15 12.5523 15.4477 13 16 13H18C18.9711 13 19.5988 13.0021 20.0613 13.0643C20.495 13.1226 20.631 13.2168 20.7071 13.2929C20.7832 13.369 20.8774 13.505 20.9357 13.9387C20.9979 14.4012 21 15.0289 21 16V18C21 18.9711 20.9979 19.5988 20.9357 20.0613C20.8774 20.495 20.7832 20.631 20.7071 20.7071C20.631 20.7832 20.495 20.8774 20.0613 20.9357C19.5988 20.9979 18.9711 21 18 21H6.00001C5.02893 21 4.40122 20.9979 3.93871 20.9357C3.50497 20.8774 3.36902 20.7832 3.2929 20.7071C3.21677 20.631 3.12263 20.495 3.06431 20.0613C3.00213 19.5988 3.00001 18.9711 3 18L3 14.5C3 13.9477 2.55229 13.5 2 13.5C1.44772 13.5 1 13.9477 1 14.5L1 18.0658Z" fill="#080809" style="fill:#080809;fill:color(display-p3 0.0314 0.0314 0.0353);fill-opacity:1;"/>
</svg>
