<svg width="24" height="24" viewBox="0 0 24 24" fill="none" xmlns="http://www.w3.org/2000/svg">
<path d="M7 10.5C7 10.7761 6.77614 11 6.5 11H6.25V9H6.5C6.77614 9 7 9.22386 7 9.5V10.5Z" fill="#080809" style="fill:#080809;fill:color(display-p3 0.0314 0.0314 0.0353);fill-opacity:1;"/>
<path d="M6.25 15V13H6.75C7.02614 13 7.25 13.2239 7.25 13.5V14.5C7.25 14.7761 7.02614 15 6.75 15H6.25Z" fill="#080809" style="fill:#080809;fill:color(display-p3 0.0314 0.0314 0.0353);fill-opacity:1;"/>
<path d="M12 9.5C12 9.22386 12.2239 9 12.5 9C12.7761 9 13 9.22386 13 9.5V14.5C13 14.7761 12.7761 15 12.5 15C12.2239 15 12 14.7761 12 14.5V9.5Z" fill="#080809" style="fill:#080809;fill:color(display-p3 0.0314 0.0314 0.0353);fill-opacity:1;"/>
<path fill-rule="evenodd" clip-rule="evenodd" d="M11.9252 1H12.0748C14.3683 0.999979 16.1914 0.999962 17.6196 1.19198C19.0921 1.38994 20.2936 1.80836 21.2426 2.75736C22.1916 3.70636 22.6101 4.90794 22.808 6.3804C23 7.8086 23 9.63167 23 11.9252V12.0748C23 14.3683 23 16.1914 22.808 17.6196C22.6101 19.0921 22.1916 20.2936 21.2426 21.2426C20.2936 22.1916 19.0921 22.6101 17.6196 22.808C16.1914 23 14.3683 23 12.0748 23H11.9252C9.63167 23 7.8086 23 6.3804 22.808C4.90794 22.6101 3.70636 22.1916 2.75736 21.2426C1.80836 20.2936 1.38994 19.0921 1.19198 17.6196C0.999962 16.1914 0.999979 14.3684 1 12.0748V11.9252C0.999979 9.63166 0.999962 7.80859 1.19198 6.3804C1.38994 4.90794 1.80836 3.70636 2.75736 2.75736C3.70636 1.80836 4.90794 1.38994 6.3804 1.19198C7.80859 0.999962 9.63166 0.999979 11.9252 1ZM4.25 8C4.25 7.44772 4.69772 7 5.25 7H6.5C7.88071 7 9 8.11929 9 9.5V10.5C9 10.9907 8.85864 11.4483 8.61443 11.8345C9.0097 12.2766 9.25 12.8602 9.25 13.5V14.5C9.25 15.8807 8.13071 17 6.75 17H5.25C4.69772 17 4.25 16.5523 4.25 16V8ZM12.5 7C11.1193 7 10 8.11929 10 9.5V14.5C10 15.8807 11.1193 17 12.5 17C13.8807 17 15 15.8807 15 14.5V9.5C15 8.11929 13.8807 7 12.5 7ZM15.25 8C15.25 7.44772 15.6977 7 16.25 7H18.75C19.3023 7 19.75 7.44772 19.75 8C19.75 8.55229 19.3023 9 18.75 9H18.5V16C18.5 16.5523 18.0523 17 17.5 17C16.9477 17 16.5 16.5523 16.5 16V9H16.25C15.6977 9 15.25 8.55229 15.25 8Z" fill="#080809" style="fill:#080809;fill:color(display-p3 0.0314 0.0314 0.0353);fill-opacity:1;"/>
</svg>
