<svg width="24" height="24" viewBox="0 0 24 24" fill="none" xmlns="http://www.w3.org/2000/svg">
<g clip-path="url(#clip0_29901_27806)">
<path fill-rule="evenodd" clip-rule="evenodd" d="M12 0.5C5.64873 0.5 0.5 5.64873 0.5 12C0.5 13.9218 0.972204 15.7363 1.80777 17.3308C1.89499 17.4973 1.908 17.6559 1.87673 17.7765L0.995321 21.1762C0.708248 22.2835 1.71647 23.2918 2.82376 23.0047L6.22347 22.1233C6.34411 22.092 6.50272 22.105 6.66917 22.1922C8.26373 23.0278 10.0782 23.5 12 23.5C12.3366 23.5 12.6701 23.4855 12.9999 23.4571C13.3395 23.4278 13.6409 23.2275 13.7994 22.9256C13.9578 22.6237 13.9516 22.2619 13.7828 21.9657C13.2848 21.0918 13 20.0807 13 19C13 15.6863 15.6863 13 19 13C20.0807 13 21.0918 13.2848 21.9657 13.7828C22.2619 13.9516 22.6237 13.9578 22.9256 13.7994C23.2275 13.6409 23.4278 13.3395 23.4571 12.9999C23.4855 12.6701 23.5 12.3366 23.5 12C23.5 5.64873 18.3513 0.5 12 0.5ZM18.0593 10.5711C18.3112 10.2451 18.2817 9.7827 17.9903 9.49139C17.7073 9.20835 17.2611 9.17143 16.9354 9.40408L13.9999 11.5009L10.9234 9.32932C10.2672 8.86612 9.36263 9.00203 8.8715 9.6376L5.94044 13.4307C5.68854 13.7567 5.71806 14.2191 6.00937 14.5104C6.29241 14.7934 6.73859 14.8304 7.06431 14.5977L9.99986 12.5009L13.0763 14.6725C13.7325 15.1357 14.6371 14.9998 15.1282 14.3642L18.0593 10.5711Z" fill="#080809" style="fill:#080809;fill:color(display-p3 0.0314 0.0314 0.0353);fill-opacity:1;"/>
<path d="M18.2094 16.9416L18.493 18H21C21.8284 18 22.5 18.6716 22.5 19.5V21.5C22.5 22.3284 21.8284 23 21 23H17C16.1716 23 15.5 22.3284 15.5 21.5V19.5C15.5 18.6915 16.1396 18.0325 16.9404 18.0012L16.7605 17.3298C16.4389 16.1295 17.1512 14.8958 18.3515 14.5741C19.2989 14.3203 20.2653 14.7106 20.7892 15.4739C21.0236 15.8154 20.9368 16.2823 20.5953 16.5167C20.2538 16.7511 19.7869 16.6643 19.5525 16.3228C19.3771 16.0672 19.054 15.9388 18.7397 16.023C18.3396 16.1302 18.1022 16.5415 18.2094 16.9416Z" fill="#080809" style="fill:#080809;fill:color(display-p3 0.0314 0.0314 0.0353);fill-opacity:1;"/>
</g>
<defs>
<clipPath id="clip0_29901_27806">
<rect width="24" height="24" fill="white" style="fill:white;fill-opacity:1;"/>
</clipPath>
</defs>
</svg>
