<svg width="24" height="24" viewBox="0 0 24 24" fill="none" xmlns="http://www.w3.org/2000/svg">
<path fill-rule="evenodd" clip-rule="evenodd" d="M15.5 5.5C15.5 3.29086 17.2909 1.5 19.5 1.5C21.7091 1.5 23.5 3.29086 23.5 5.5C23.5 7.70914 21.7091 9.5 19.5 9.5C17.2909 9.5 15.5 7.70914 15.5 5.5ZM19.5 3.5C18.3954 3.5 17.5 4.39543 17.5 5.5C17.5 6.60457 18.3954 7.5 19.5 7.5C20.6046 7.5 21.5 6.60457 21.5 5.5C21.5 4.39543 20.6046 3.5 19.5 3.5Z" fill="#080809" style="fill:#080809;fill:color(display-p3 0.0314 0.0314 0.0353);fill-opacity:1;"/>
<path d="M9.42684 3L13.25 3C13.8023 3 14.25 3.44772 14.25 4C14.25 4.55229 13.8023 5 13.25 5H9.5C7.58611 5 6.2513 5.00213 5.24416 5.13753C4.26579 5.26907 3.7477 5.50966 3.37868 5.87868C3.00966 6.2477 2.76907 6.76579 2.63753 7.74416C2.50213 8.7513 2.5 10.0861 2.5 12C2.5 13.9139 2.50213 15.2487 2.63753 16.2558C2.76907 17.2342 3.00966 17.7523 3.37868 18.1213C3.7477 18.4903 4.26579 18.7309 5.24416 18.8625C6.2513 18.9979 7.58611 19 9.5 19H14.5C16.4139 19 17.7487 18.9979 18.7558 18.8625C19.7342 18.7309 20.2523 18.4903 20.6213 18.1213C20.9903 17.7523 21.2309 17.2342 21.3625 16.2558C21.4979 15.2487 21.5 13.9139 21.5 12V11.25C21.5 10.6977 21.9477 10.25 22.5 10.25C23.0523 10.25 23.5 10.6977 23.5 11.25V12.0731C23.5 13.8966 23.5001 15.3664 23.3446 16.5223C23.1833 17.7225 22.8381 18.733 22.0355 19.5355C21.233 20.3381 20.2225 20.6833 19.0223 20.8446C17.8664 21.0001 16.3966 21 14.5731 21H9.42686C7.6034 21 6.13363 21.0001 4.97767 20.8446C3.77752 20.6833 2.76702 20.3381 1.96447 19.5355C1.16191 18.733 0.816721 17.7225 0.655366 16.5223C0.499952 15.3664 0.499974 13.8966 0.500001 12.0732V11.9268C0.499974 10.1034 0.499952 8.63362 0.655366 7.47767C0.816721 6.27752 1.16191 5.26702 1.96447 4.46447C2.76702 3.66191 3.77752 3.31672 4.97767 3.15537C6.13362 2.99995 7.60338 2.99997 9.42684 3Z" fill="#080809" style="fill:#080809;fill:color(display-p3 0.0314 0.0314 0.0353);fill-opacity:1;"/>
<path d="M5.58212 8.18692C5.13303 7.86547 4.50837 7.96894 4.18692 8.41803C3.86547 8.86713 3.96894 9.49178 4.41803 9.81324L7.96548 12.3524C8.76767 12.9267 9.43736 13.406 10.0279 13.7349C10.6519 14.0825 11.2731 14.313 11.9851 14.3138C12.6971 14.3147 13.3188 14.0857 13.9437 13.7395C14.5349 13.412 15.2057 12.9342 16.0093 12.3619L16.7017 11.8687C17.1516 11.5483 17.2565 10.9239 16.9361 10.474C16.6157 10.0242 15.9913 9.91925 15.5414 10.2396L14.8948 10.7002C14.0336 11.3136 13.4549 11.724 12.9746 11.99C12.5166 12.2437 12.2365 12.3141 11.9874 12.3139C11.7384 12.3136 11.4584 12.2425 11.0011 11.9877C10.5214 11.7205 9.9436 11.3088 9.08389 10.6934L5.58212 8.18692Z" fill="#080809" style="fill:#080809;fill:color(display-p3 0.0314 0.0314 0.0353);fill-opacity:1;"/>
</svg>
