<svg width="24" height="24" viewBox="0 0 24 24" fill="none" xmlns="http://www.w3.org/2000/svg">
<g clip-path="url(#clip0_29901_26828)">
<path d="M16 11.75C16.9665 11.75 17.75 10.9665 17.75 10C17.75 9.0335 16.9665 8.25 16 8.25C15.0335 8.25 14.25 9.0335 14.25 10C14.25 10.9665 15.0335 11.75 16 11.75Z" fill="#080809" style="fill:#080809;fill:color(display-p3 0.0314 0.0314 0.0353);fill-opacity:1;"/>
<path d="M9.75 10C9.75 10.9665 8.9665 11.75 8 11.75C7.0335 11.75 6.25 10.9665 6.25 10C6.25 9.0335 7.0335 8.25 8 8.25C8.9665 8.25 9.75 9.0335 9.75 10Z" fill="#080809" style="fill:#080809;fill:color(display-p3 0.0314 0.0314 0.0353);fill-opacity:1;"/>
<path d="M8.66692 14.7275C8.2554 14.3592 7.6232 14.3942 7.25487 14.8058C6.88655 15.2173 6.92157 15.8495 7.3331 16.2178C8.57086 17.3256 10.2078 18.0005 12 18.0005C13.7922 18.0005 15.4292 17.3256 16.6669 16.2178C17.0784 15.8495 17.1135 15.2173 16.7451 14.8058C16.3768 14.3942 15.7446 14.3592 15.3331 14.7275C14.4478 15.5199 13.2812 16.0005 12 16.0005C10.7188 16.0005 9.55218 15.5199 8.66692 14.7275Z" fill="#080809" style="fill:#080809;fill:color(display-p3 0.0314 0.0314 0.0353);fill-opacity:1;"/>
<path fill-rule="evenodd" clip-rule="evenodd" d="M12 0.5C5.64873 0.5 0.5 5.64873 0.5 12C0.5 18.3513 5.64873 23.5 12 23.5C18.3513 23.5 23.5 18.3513 23.5 12C23.5 5.64873 18.3513 0.5 12 0.5ZM2.5 12C2.5 6.75329 6.75329 2.5 12 2.5C17.2467 2.5 21.5 6.75329 21.5 12C21.5 17.2467 17.2467 21.5 12 21.5C6.75329 21.5 2.5 17.2467 2.5 12Z" fill="#080809" style="fill:#080809;fill:color(display-p3 0.0314 0.0314 0.0353);fill-opacity:1;"/>
</g>
<defs>
<clipPath id="clip0_29901_26828">
<rect width="24" height="24" fill="white" style="fill:white;fill-opacity:1;"/>
</clipPath>
</defs>
</svg>
