<svg width="24" height="24" viewBox="0 0 24 24" fill="none" xmlns="http://www.w3.org/2000/svg">
<path d="M13.9997 9.00016C13.9997 8.44788 13.552 8.00016 12.9997 8.00016C12.4474 8.00016 11.9997 8.44788 11.9997 9.00016V10.5002H10.4997C9.94739 10.5002 9.49967 10.9479 9.49967 11.5002C9.49967 12.0524 9.94739 12.5002 10.4997 12.5002H11.9997V14.0002C11.9997 14.5524 12.4474 15.0002 12.9997 15.0002C13.552 15.0002 13.9997 14.5524 13.9997 14.0002V12.5002H15.4997C16.052 12.5002 16.4997 12.0524 16.4997 11.5002C16.4997 10.9479 16.052 10.5002 15.4997 10.5002H13.9997V9.00016Z" fill="#080809" style="fill:#080809;fill:color(display-p3 0.0314 0.0314 0.0353);fill-opacity:1;"/>
<path fill-rule="evenodd" clip-rule="evenodd" d="M2.78102 2C4.03091 2 5.08875 2.9231 5.25799 4.16148L5.37259 5H20.9272C21.8362 5 22.5363 5.80203 22.4134 6.70267L21.3446 14.5405C21.0744 16.5224 19.3816 18 17.3813 18H8.61867C6.61839 18 4.92562 16.5224 4.65535 14.5405L3.51038 6.14399C3.50997 6.14113 3.50956 6.13827 3.50917 6.13541L3.27641 4.4323C3.24256 4.18462 3.031 4 2.78102 4H2C1.44772 4 1 3.55228 1 3C1 2.44772 1.44772 2 2 2H2.78102ZM20.3544 7L19.363 14.2702C19.2279 15.2612 18.3815 16 17.3813 16H8.61867C7.61853 16 6.77215 15.2612 6.63701 14.2702L5.64562 7H20.3544Z" fill="#080809" style="fill:#080809;fill:color(display-p3 0.0314 0.0314 0.0353);fill-opacity:1;"/>
<path d="M9.25 21.25C9.25 22.2165 8.4665 23 7.5 23C6.5335 23 5.75 22.2165 5.75 21.25C5.75 20.2835 6.5335 19.5 7.5 19.5C8.4665 19.5 9.25 20.2835 9.25 21.25Z" fill="#080809" style="fill:#080809;fill:color(display-p3 0.0314 0.0314 0.0353);fill-opacity:1;"/>
<path d="M20.25 21.25C20.25 22.2165 19.4665 23 18.5 23C17.5335 23 16.75 22.2165 16.75 21.25C16.75 20.2835 17.5335 19.5 18.5 19.5C19.4665 19.5 20.25 20.2835 20.25 21.25Z" fill="#080809" style="fill:#080809;fill:color(display-p3 0.0314 0.0314 0.0353);fill-opacity:1;"/>
</svg>
