<svg width="24" height="24" viewBox="0 0 24 24" fill="none" xmlns="http://www.w3.org/2000/svg">
<path fill-rule="evenodd" clip-rule="evenodd" d="M16.1287 2.45681C17.3003 1.28523 19.1997 1.28523 20.3713 2.4568L21.5429 3.62837C22.7145 4.79995 22.7145 6.69945 21.5429 7.87102L19.7221 9.69175C19.7172 9.69691 19.7122 9.70203 19.7071 9.70711C19.702 9.71219 19.6969 9.7172 19.6917 9.72215L8 21.4138C7.62493 21.7889 7.11622 21.9996 6.58579 21.9996H3.5C2.67157 21.9996 2 21.328 2 20.4996V17.4139C2 16.8835 2.21071 16.3748 2.58579 15.9997L16.1287 2.45681ZM18.9998 7.58563L20.1287 6.4568C20.5192 6.06628 20.5192 5.43311 20.1287 5.04259L18.9571 3.87102C18.5666 3.48049 17.9334 3.48049 17.5429 3.87102L16.4141 4.99985L18.9998 7.58563ZM14.9998 6.41406L17.5856 8.99984L6.58579 19.9996H4L4 17.4139L14.9998 6.41406Z" fill="#080809" style="fill:#080809;fill:color(display-p3 0.0314 0.0314 0.0353);fill-opacity:1;"/>
<path d="M11 21C11 20.4477 11.4477 20 12 20L21 20C21.5523 20 22 20.4477 22 21C22 21.5523 21.5523 22 21 22H12C11.4477 22 11 21.5523 11 21Z" fill="#080809" style="fill:#080809;fill:color(display-p3 0.0314 0.0314 0.0353);fill-opacity:1;"/>
</svg>
