<svg width="24" height="24" viewBox="0 0 24 24" fill="none" xmlns="http://www.w3.org/2000/svg">
<path fill-rule="evenodd" clip-rule="evenodd" d="M11.999 1C9.58006 1 7.5623 2.71777 7.09904 5.00003L4.96605 5.00001C4.83436 4.99993 4.70468 4.99985 4.5833 5.01155C3.5073 5.11519 2.61979 5.89867 2.38348 6.95351C2.35682 7.0725 2.34082 7.20119 2.32456 7.33188L1.80056 11.524C1.52944 13.6928 1.31463 15.4112 1.30872 16.7797C1.30267 18.1821 1.51151 19.3644 2.2085 20.3846C2.48838 20.7943 2.818 21.1677 3.18979 21.4962C4.1157 22.3144 5.26294 22.6682 6.65532 22.8362C8.01395 23.0001 9.7457 23 11.9314 23H12.0663C14.252 23 15.9837 23.0001 17.3424 22.8362C18.7347 22.6682 19.882 22.3144 20.8079 21.4962C21.1797 21.1677 21.5093 20.7943 21.7892 20.3846C22.4862 19.3644 22.695 18.1821 22.689 16.7797C22.683 15.4112 22.4682 13.6928 22.1971 11.524L21.6731 7.33187C21.6569 7.20119 21.6409 7.0725 21.6142 6.95351C21.3779 5.89867 20.4904 5.11519 19.4144 5.01155C19.293 4.99985 19.1633 4.99993 19.0316 5.00001L16.899 5.00003C16.4358 2.71777 14.418 1 11.999 1ZM11.999 3C10.6928 3 9.58155 3.83482 9.16972 5.00003H14.8283C14.4165 3.83482 13.3053 3 11.999 3ZM14.999 10C14.999 11.6569 13.6559 13 11.999 13C10.3422 13 8.99902 11.6569 8.99902 10C8.99902 9.44772 8.55131 9 7.99902 9C7.44674 9 6.99902 9.44772 6.99902 10C6.99902 12.7614 9.2376 15 11.999 15C14.7604 15 16.999 12.7614 16.999 10C16.999 9.44772 16.5513 9 15.999 9C15.4467 9 14.999 9.44772 14.999 10Z" fill="#080809" style="fill:#080809;fill:color(display-p3 0.0314 0.0314 0.0353);fill-opacity:1;"/>
</svg>
