<svg width="24" height="24" viewBox="0 0 24 24" fill="none" xmlns="http://www.w3.org/2000/svg">
<path fill-rule="evenodd" clip-rule="evenodd" d="M17.4993 14C19.9846 14 21.9993 16.0147 21.9993 18.5C21.9992 20.9852 19.9845 23 17.4993 23C15.0919 22.9998 13.1256 21.109 13.0051 18.7314L12.9993 18.5L12.9944 18.3975C12.9431 17.8933 12.517 17.5 11.9993 17.5C11.4818 17.5002 11.0555 17.8935 11.0042 18.3975L10.9993 18.5L10.9934 18.7314C10.8729 21.1091 8.9069 23 6.49929 23C4.01424 22.9998 1.99934 20.9851 1.99929 18.5C1.99929 16.0149 4.01421 14.0002 6.49929 14C8.08019 14 9.47008 14.8158 10.2727 16.0488C10.7611 15.7041 11.356 15.5001 11.9993 15.5C12.6425 15.5 13.2374 15.7042 13.7259 16.0488C14.5284 14.8157 15.9184 14.0001 17.4993 14ZM6.49929 16C5.11878 16.0002 3.99929 17.1194 3.99929 18.5C3.99934 19.8805 5.11881 20.9998 6.49929 21C7.87996 21 8.99923 19.8807 8.99929 18.5C8.99929 17.1193 7.87999 16 6.49929 16ZM17.4993 16C16.1188 16.0002 14.9993 17.1194 14.9993 18.5C14.9993 19.8805 16.1188 20.9998 17.4993 21C18.88 21 19.9992 19.8807 19.9993 18.5C19.9993 17.1193 18.88 16 17.4993 16Z" fill="#080809" style="fill:#080809;fill:color(display-p3 0.0314 0.0314 0.0353);fill-opacity:1;"/>
<path fill-rule="evenodd" clip-rule="evenodd" d="M15.093 1C16.9675 1.00013 18.5905 2.30203 18.9973 4.13184L20.2786 9.89746C20.4503 9.86674 20.6228 9.83929 20.7942 9.80664L22.3128 9.51758C22.855 9.41442 23.3791 9.77037 23.4827 10.3125C23.586 10.8548 23.2299 11.3788 22.6878 11.4824L21.1692 11.7715C15.1114 12.9254 8.88915 12.9253 2.83132 11.7715L1.31276 11.4824C0.770437 11.3789 0.414526 10.8549 0.517842 10.3125C0.621475 9.77034 1.14545 9.41428 1.68776 9.51758L3.20632 9.80664C3.37686 9.83912 3.54821 9.86689 3.71901 9.89746L5.00124 4.13184C5.40809 2.30203 7.03103 1.00014 8.90554 1H15.093ZM8.90554 3C7.96827 3.00014 7.15672 3.65143 6.95339 4.56641L5.69948 10.209C9.88026 10.7746 14.1173 10.7753 18.2981 10.21L17.0452 4.56641C16.8419 3.65143 16.0303 3.00013 15.093 3H8.90554Z" fill="#080809" style="fill:#080809;fill:color(display-p3 0.0314 0.0314 0.0353);fill-opacity:1;"/>
</svg>
