<svg width="24" height="24" viewBox="0 0 24 24" fill="none" xmlns="http://www.w3.org/2000/svg">
<path fill-rule="evenodd" clip-rule="evenodd" d="M5.11585 3.70163C6.76562 1.74519 9.23691 0.5 11.9993 0.5C16.9698 0.5 20.9993 4.52944 20.9993 9.5V12.4273C20.9993 14.1168 21.4741 15.7723 22.3695 17.205C22.9939 18.2041 22.2756 19.5 21.0975 19.5H20.9142L22.7071 21.2929C23.0976 21.6834 23.0976 22.3166 22.7071 22.7071C22.3166 23.0976 21.6834 23.0976 21.2929 22.7071L1.29289 2.70711C0.902369 2.31658 0.902369 1.68342 1.29289 1.29289C1.68342 0.902369 2.31658 0.902369 2.70711 1.29289L5.11585 3.70163ZM6.53659 5.12238C7.82078 3.52199 9.7908 2.5 11.9993 2.5C15.8653 2.5 18.9993 5.63401 18.9993 9.5V12.4273C18.9993 14.1972 19.4257 15.9366 20.2369 17.5H18.9142L6.53659 5.12238Z" fill="#080809" style="fill:#080809;fill:color(display-p3 0.0314 0.0314 0.0353);fill-opacity:1;"/>
<path fill-rule="evenodd" clip-rule="evenodd" d="M5.0111 9.07351C5.04412 8.52221 4.62399 8.04852 4.07269 8.01549C3.52139 7.98246 3.0477 8.4026 3.01468 8.9539C3.00385 9.13453 2.99837 9.31649 2.99837 9.49961V12.4293C2.99837 14.118 2.52382 15.7726 1.62884 17.2046C1.00442 18.2037 1.72269 19.4996 2.90084 19.4996H7.52742C7.77597 21.7498 9.68359 23.5 12 23.5C13.9224 23.5 15.5608 22.295 16.206 20.6026C16.3463 20.2344 16.2573 19.818 15.9787 19.5393L14.2322 17.7929C14.0451 17.6058 13.7916 17.5005 13.527 17.5C13.5208 17.4998 13.5146 17.4997 13.5083 17.4997C13.5051 17.4996 13.502 17.4996 13.4988 17.4996H3.76142C4.57216 15.9369 4.99837 14.1984 4.99837 12.4293V9.49961C4.99837 9.35642 5.00266 9.21434 5.0111 9.07351ZM9.55001 19.5C9.78164 20.6411 10.7905 21.5 12 21.5C12.8453 21.5 13.5941 21.0802 14.0469 20.436L13.1109 19.5H9.55001Z" fill="#080809" style="fill:#080809;fill:color(display-p3 0.0314 0.0314 0.0353);fill-opacity:1;"/>
</svg>
