<svg width="24" height="24" viewBox="0 0 24 24" fill="none" xmlns="http://www.w3.org/2000/svg">
<path d="M5 5C5 4.44772 5.44772 4 6 4C6.55228 4 7 4.44772 7 5V6C7 6.55228 7.44772 7 8 7C8.55228 7 9 6.55228 9 6V5C9 3.34315 7.65685 2 6 2C4.34315 2 3 3.34315 3 5L3.00001 10H1.5C0.947715 10 0.5 10.4477 0.5 11C0.5 11.5523 0.947715 12 1.5 12H2.11722L2.35885 13.933C2.50833 15.1291 2.63222 16.1205 2.83264 16.9019C3.04371 17.7249 3.36817 18.4399 4.00114 18.9987C4.44594 19.3914 4.94842 19.6233 5.50032 19.7637L5.10579 20.5528C4.8588 21.0468 5.05903 21.6474 5.55301 21.8944C6.04698 22.1414 6.64766 21.9412 6.89465 21.4472L7.62403 19.9885C8.11192 20 8.64736 20 9.23123 20H14.7686C15.3527 20 15.8883 20 16.3764 19.9884L17.1058 21.4472C17.3528 21.9412 17.9535 22.1414 18.4474 21.8944C18.9414 21.6474 19.1416 21.0468 18.8946 20.5528L18.5001 19.7636C19.0518 19.6232 19.5542 19.3913 19.9989 18.9987C20.6318 18.4399 20.9563 17.7249 21.1674 16.9019C21.3678 16.1205 21.4917 15.1291 21.6412 13.933L21.8828 12H22.5C23.0523 12 23.5 11.5523 23.5 11C23.5 10.4477 23.0523 10 22.5 10H5V5Z" fill="#080809" style="fill:#080809;fill:color(display-p3 0.0314 0.0314 0.0353);fill-opacity:1;"/>
</svg>
