<svg width="24" height="24" viewBox="0 0 24 24" fill="none" xmlns="http://www.w3.org/2000/svg">
<path d="M11.9252 1H12.0748C14.3683 0.999979 16.1914 0.999962 17.6196 1.19198C19.0921 1.38994 20.2936 1.80836 21.2426 2.75736C22.1916 3.70636 22.6101 4.90794 22.808 6.3804C22.8348 6.57921 22.8578 6.78568 22.8776 7H9.5C8.11929 7 7 8.11929 7 9.5V14.5C7 15.8807 8.11929 17 9.5 17H13.5C13.7761 17 14 17.2239 14 17.5V22.995C13.3986 23 12.7575 23 12.0748 23H11.9252C9.63167 23 7.8086 23 6.3804 22.808C4.90794 22.6101 3.70636 22.1916 2.75736 21.2426C1.80836 20.2936 1.38994 19.0921 1.19198 17.6196C0.999962 16.1914 0.999979 14.3684 1 12.0748V11.9252C0.999979 9.63165 0.999962 7.80859 1.19198 6.3804C1.38994 4.90794 1.80836 3.70636 2.75736 2.75736C3.70636 1.80836 4.90794 1.38994 6.3804 1.19198C7.80859 0.999962 9.63166 0.999979 11.9252 1Z" fill="#080809" style="fill:#080809;fill:color(display-p3 0.0314 0.0314 0.0353);fill-opacity:1;"/>
<path d="M16 22.9459C16.5888 22.9175 17.1276 22.8742 17.6196 22.808C19.0921 22.6101 20.2936 22.1916 21.2426 21.2426C22.1916 20.2936 22.6101 19.0921 22.808 17.6196C23 16.1914 23 14.3683 23 12.0748V11.9252C23 10.8492 23 9.87673 22.9802 9H9.5C9.22386 9 9 9.22386 9 9.5V14.5C9 14.7761 9.22386 15 9.5 15H13.5C14.8807 15 16 16.1193 16 17.5V22.9459Z" fill="#080809" style="fill:#080809;fill:color(display-p3 0.0314 0.0314 0.0353);fill-opacity:1;"/>
</svg>
