<svg width="24" height="24" viewBox="0 0 24 24" fill="none" xmlns="http://www.w3.org/2000/svg">
<path fill-rule="evenodd" clip-rule="evenodd" d="M22.9995 3.5C22.9995 2.11929 21.8803 1 20.4995 1H13.2422C12.1813 1 11.1639 1.42143 10.4138 2.17157L1.66376 10.9216C0.101663 12.4837 0.101663 15.0163 1.66376 16.5784L7.42112 22.3358C8.98322 23.8979 11.5159 23.8979 13.078 22.3358L21.828 13.5858C22.5781 12.8356 22.9995 11.8182 22.9995 10.7574V3.5ZM17.5 8.5C16.3954 8.5 15.5 7.60457 15.5 6.5C15.5 5.39543 16.3954 4.5 17.5 4.5C18.6046 4.5 19.5 5.39543 19.5 6.5C19.5 7.60457 18.6046 8.5 17.5 8.5ZM9.07601 10.616C9.23113 10.243 9.59539 10 9.99933 10C10.4033 10 10.7675 10.243 10.9226 10.616L11.4816 11.9598L12.9324 12.0761C13.335 12.1084 13.6787 12.3798 13.8036 12.7639C13.9284 13.1481 13.8098 13.5696 13.5031 13.8324L12.3977 14.7793L12.7354 16.195C12.8291 16.5879 12.6773 16.9986 12.3505 17.2361C12.0237 17.4735 11.5861 17.491 11.2414 17.2805L9.99933 16.5218L8.75723 17.2805C8.41251 17.491 7.97497 17.4735 7.64819 17.2361C7.3214 16.9986 7.16954 16.5879 7.26326 16.195L7.60097 14.7793L6.4956 13.8324C6.18883 13.5696 6.07028 13.1481 6.1951 12.7639C6.31992 12.3798 6.6636 12.1084 7.06624 12.0761L8.51706 11.9598L9.07601 10.616Z" fill="#080809" style="fill:#080809;fill:color(display-p3 0.0314 0.0314 0.0353);fill-opacity:1;"/>
</svg>
