<svg width="24" height="24" viewBox="0 0 24 24" fill="none" xmlns="http://www.w3.org/2000/svg">
<path d="M15.7071 13.2929C16.0976 13.6834 16.0976 14.3166 15.7071 14.7071L13.4142 17C12.6332 17.781 11.3668 17.781 10.5858 17L8.29289 14.7071C7.90237 14.3166 7.90237 13.6834 8.29289 13.2929C8.68342 12.9024 9.31658 12.9024 9.70711 13.2929L11 14.5858L11 10C11 9.44772 11.4477 9 12 9C12.5523 9 13 9.44772 13 10L13 14.5858L14.2929 13.2929C14.6834 12.9024 15.3166 12.9024 15.7071 13.2929Z" fill="#080809" style="fill:#080809;fill:color(display-p3 0.0314 0.0314 0.0353);fill-opacity:1;"/>
<path fill-rule="evenodd" clip-rule="evenodd" d="M0.5 7C0.5 4.79086 2.29086 3 4.5 3H9.37868C10.0417 3 10.6776 3.26339 11.1464 3.73223L12.4142 5H19.5C21.7091 5 23.5 6.79086 23.5 9V17C23.5 19.2091 21.7091 21 19.5 21H4.5C2.29086 21 0.5 19.2091 0.5 17V7ZM4.5 5C3.39543 5 2.5 5.89543 2.5 7V17C2.5 18.1046 3.39543 19 4.5 19H19.5C20.6046 19 21.5 18.1046 21.5 17V9C21.5 7.89543 20.6046 7 19.5 7H12C11.7348 7 11.4804 6.89464 11.2929 6.70711L9.73223 5.14645C9.63846 5.05268 9.51129 5 9.37868 5H4.5Z" fill="#080809" style="fill:#080809;fill:color(display-p3 0.0314 0.0314 0.0353);fill-opacity:1;"/>
</svg>
