<svg width="24" height="24" viewBox="0 0 24 24" fill="none" xmlns="http://www.w3.org/2000/svg">
<path d="M14.2699 1.92359C13.3764 -0.0135896 10.6231 -0.0135939 9.72962 1.92359L7.58308 6.57727L2.49385 7.18068C0.375363 7.43186 -0.475431 10.0503 1.09082 11.4987L4.85342 14.9783L3.85464 20.0049C3.43888 22.0973 5.66627 23.7156 7.52781 22.6736L11.9938 20.1738C12.3221 19.99 12.5194 19.6376 12.5046 19.2616C12.5011 19.1748 12.4994 19.0874 12.4994 18.9995C12.4994 15.4097 15.4095 12.4995 18.9994 12.4995C19.636 12.4995 20.2496 12.5908 20.8287 12.7602C21.166 12.859 21.5305 12.7733 21.7885 12.5347L22.9087 11.4988C24.4749 10.0503 23.6242 7.43186 21.5057 7.18068L16.4164 6.57727L14.2699 1.92359Z" fill="#080809" style="fill:#080809;fill:color(display-p3 0.0314 0.0314 0.0353);fill-opacity:1;"/>
<path d="M22.7057 15.2927C23.0962 15.6832 23.0962 16.3164 22.7057 16.7069L20.4128 18.9998L22.7057 21.2927C23.0962 21.6832 23.0962 22.3164 22.7057 22.7069C22.3152 23.0974 21.682 23.0974 21.2915 22.7069L18.9986 20.414L16.7057 22.7069C16.3152 23.0974 15.682 23.0974 15.2915 22.7069C14.901 22.3164 14.901 21.6832 15.2915 21.2927L17.5844 18.9998L15.2915 16.7069C14.901 16.3164 14.901 15.6832 15.2915 15.2927C15.682 14.9022 16.3152 14.9022 16.7057 15.2927L18.9986 17.5856L21.2915 15.2927C21.682 14.9022 22.3152 14.9022 22.7057 15.2927Z" fill="#080809" style="fill:#080809;fill:color(display-p3 0.0314 0.0314 0.0353);fill-opacity:1;"/>
</svg>
