<svg width="24" height="24" viewBox="0 0 24 24" fill="none" xmlns="http://www.w3.org/2000/svg">
<path d="M2 3C2 2.44772 2.44772 2 3 2C13.4934 2 22 10.5066 22 21C22 21.5523 21.5523 22 21 22C20.4477 22 20 21.5523 20 21C20 11.6112 12.3888 4 3 4C2.44772 4 2 3.55228 2 3Z" fill="#080809" style="fill:#080809;fill:color(display-p3 0.0314 0.0314 0.0353);fill-opacity:1;"/>
<path d="M2 11C2 10.4477 2.44772 10 3 10C9.07513 10 14 14.9249 14 21C14 21.5523 13.5523 22 13 22C12.4477 22 12 21.5523 12 21C12 16.0294 7.97056 12 3 12C2.44772 12 2 11.5523 2 11Z" fill="#080809" style="fill:#080809;fill:color(display-p3 0.0314 0.0314 0.0353);fill-opacity:1;"/>
<path d="M4 18C2.89543 18 2 18.8954 2 20C2 21.1046 2.89543 22 4 22C5.10457 22 6 21.1046 6 20C6 18.8954 5.10457 18 4 18Z" fill="#080809" style="fill:#080809;fill:color(display-p3 0.0314 0.0314 0.0353);fill-opacity:1;"/>
</svg>
