<svg width="24" height="24" viewBox="0 0 24 24" fill="none" xmlns="http://www.w3.org/2000/svg">
<path d="M11 15C9.55752 15 8.57625 14.9979 7.84143 14.8991C7.13538 14.8042 6.80836 14.6368 6.58579 14.4142C6.36321 14.1916 6.19584 13.8646 6.10092 13.1586C6.00212 12.4237 6 11.4425 6 10V4C6 3.44771 5.55228 3 5 3C4.44771 3 4 3.44771 4 4L4 10.0706C3.99996 11.4247 3.99993 12.5413 4.11875 13.4251C4.2435 14.3529 4.51546 15.1723 5.17157 15.8284C5.82768 16.4845 6.64711 16.7565 7.57494 16.8812C8.45869 17.0001 9.5753 17 10.9294 17L17.586 17L15.2931 19.2929C14.9026 19.6834 14.9026 20.3166 15.2931 20.7071C15.6836 21.0976 16.3168 21.0976 16.7073 20.7071L19.6467 17.7678C20.623 16.7915 20.623 15.2085 19.6467 14.2322L16.7073 11.2929C16.3168 10.9024 15.6836 10.9024 15.2931 11.2929C14.9026 11.6834 14.9026 12.3166 15.2931 12.7071L17.586 15H11Z" fill="#080809" style="fill:#080809;fill:color(display-p3 0.0314 0.0314 0.0353);fill-opacity:1;"/>
</svg>
