<svg width="24" height="24" viewBox="0 0 24 24" fill="none" xmlns="http://www.w3.org/2000/svg">
<path fill-rule="evenodd" clip-rule="evenodd" d="M11.9252 1H12.0748C14.3683 0.999978 16.1914 0.999961 17.6196 1.19198C19.0921 1.38994 20.2937 1.80836 21.2427 2.75736C22.1917 3.70636 22.6101 4.90793 22.8081 6.38038C23.0001 7.80858 23.0001 9.63164 23.0001 11.9252V12.0747C23.0001 14.3683 23.0001 16.1914 22.8081 17.6196C22.661 18.7136 22.3923 19.658 21.8746 20.4604L22.7071 21.2929C23.0976 21.6834 23.0976 22.3166 22.7071 22.7071C22.3166 23.0976 21.6834 23.0976 21.2929 22.7071L19.8285 21.2427C17.3592 18.7734 14.9692 16.4085 12.5 13.9393V13.9142L11.441 12.8552C11.4429 12.8654 11.4447 12.8756 11.4465 12.8859L5.63103 7.07037C5.63704 7.06798 5.64309 7.06564 5.64916 7.06336L1.29289 2.70711C0.902369 2.31658 0.902369 1.68342 1.29289 1.29289C1.68342 0.902369 2.31658 0.902369 2.70711 1.29289L3.53963 2.12541C4.34204 1.60781 5.28646 1.33905 6.38039 1.19198C7.80858 0.999961 9.63164 0.999978 11.9252 1ZM10.4439 9.02967L10.7685 8.64018C11.0169 8.3421 11.0704 7.92723 10.9058 7.57585C10.7412 7.22446 10.3883 7 10.0002 7H8.41421L5.01029 3.59608C5.42949 3.4046 5.95543 3.26711 6.64689 3.17414C7.92633 3.00213 9.61469 3 12 3C14.3853 3 16.0737 3.00213 17.3531 3.17414C18.6038 3.34229 19.313 3.65611 19.8285 4.17158C20.3439 4.68704 20.6578 5.39621 20.8259 6.64688C20.9979 7.92632 21.0001 9.61468 21.0001 12C21.0001 14.3853 20.9979 16.0737 20.8259 17.3531C20.7329 18.0446 20.5955 18.5706 20.404 18.9898L17.7332 16.319C18.799 15.6005 19.5 14.3821 19.5 13V11C19.5 8.79086 17.7091 7 15.5 7H13.5C12.9477 7 12.5 7.44772 12.5 8V11.0858L10.4439 9.02967ZM16.2634 14.8492L14.5 13.0858V9H15.5C16.6046 9 17.5 9.89543 17.5 11V13C17.5 13.8342 16.9892 14.5492 16.2634 14.8492Z" fill="#080809" style="fill:#080809;fill:color(display-p3 0.0314 0.0314 0.0353);fill-opacity:1;"/>
<path d="M2.21019 6.09714C2.76012 6.14805 3.16466 6.63513 3.11375 7.18506C3.00099 8.40313 3 9.94595 3 12C3 14.3853 3.00213 16.0737 3.17415 17.3531C3.34231 18.6038 3.65613 19.313 4.17159 19.8285C4.68706 20.344 5.39622 20.6578 6.64689 20.8259C7.92633 20.9979 9.61469 21.0001 12 21.0001C14.054 21.0001 15.5969 20.9991 16.815 20.8863C17.3649 20.8354 17.852 21.2399 17.9029 21.7899C17.9538 22.3398 17.5493 22.8269 16.9994 22.8778C15.6785 23.0001 14.044 23.0001 12.0474 23.0001H11.9252C9.63165 23.0001 7.80859 23.0001 6.38039 22.8081C4.90794 22.6101 3.70638 22.1917 2.75738 21.2427C1.80838 20.2937 1.38996 19.0921 1.19199 17.6196C0.999961 16.1914 0.999979 14.3682 1 12.0746V11.9527C0.999994 9.9561 0.999988 8.32153 1.12227 7.0007C1.17318 6.45077 1.66026 6.04623 2.21019 6.09714Z" fill="#080809" style="fill:#080809;fill:color(display-p3 0.0314 0.0314 0.0353);fill-opacity:1;"/>
<path d="M6.73202 10.3598L6.76253 10.3232L8.539 12.0997C8.37179 12.0353 8.19013 12 8.00024 12H7.50024C7.11222 12 6.75923 11.7755 6.59465 11.4242C6.43007 11.0728 6.48361 10.6579 6.73202 10.3598Z" fill="#080809" style="fill:#080809;fill:color(display-p3 0.0314 0.0314 0.0353);fill-opacity:1;"/>
<path d="M9.50024 13.5C9.50024 13.3101 9.46495 13.1284 9.40057 12.9612L11.2462 14.8069C10.7232 16.0955 9.45141 17 7.98515 17C6.37236 17 4.94545 15.904 4.55157 14.3284L4.53009 14.2425C4.39615 13.7067 4.72191 13.1638 5.2577 13.0299C5.7935 12.8959 6.33643 13.2217 6.47038 13.7575L6.49185 13.8434C6.66044 14.5177 7.27884 15 7.98515 15C8.82142 15 9.50024 14.3206 9.50024 13.5Z" fill="#080809" style="fill:#080809;fill:color(display-p3 0.0314 0.0314 0.0353);fill-opacity:1;"/>
</svg>
