<svg width="24" height="24" viewBox="0 0 24 24" fill="none" xmlns="http://www.w3.org/2000/svg">
<g clip-path="url(#clip0_29901_27775)">
<path fill-rule="evenodd" clip-rule="evenodd" d="M22.0663 1.00003C22.5233 1.03103 22.9013 1.36803 22.9833 1.81903C23.9943 7.38003 24.0513 13.347 19.6853 17.724C17.8707 19.5433 15.4787 20.6201 13.001 20.9095V22.5002C13.001 23.0525 12.5533 23.5002 12.001 23.5002C11.4487 23.5002 11.001 23.0525 11.001 22.5002V20.9716C8.15531 20.8163 5.36971 19.6153 3.37934 17.301C1.28034 14.86 0.712344 11.941 0.647344 9.70103C0.614344 8.57503 0.708344 7.59803 0.810344 6.90303C0.861344 6.55303 0.914344 6.27203 0.956344 6.07403C0.977344 5.97503 0.995344 5.89703 1.00834 5.84203C1.01285 5.82463 1.01653 5.80931 1.01965 5.79634L1.02434 5.77703L1.02934 5.75803L1.03134 5.75203L1.03234 5.75003V5.74803C1.14734 5.31103 1.54334 5.00603 1.99534 5.00403H2.04534C2.0683 5.00403 2.0977 5.00461 2.13399 5.00534L2.16934 5.00603C2.27534 5.00803 2.42534 5.01303 2.61134 5.02303C2.98234 5.04303 3.50134 5.08403 4.09534 5.16803C5.26334 5.33303 6.81434 5.67603 8.11534 6.41603C9.12434 6.99003 9.87634 7.49703 10.4123 7.89503C10.4713 7.78903 10.5363 7.67703 10.6073 7.56103C11.1943 6.59303 12.1803 5.28003 13.8003 3.80003C15.5363 2.21303 17.6163 1.52303 19.2153 1.22303C20.0213 1.07203 20.7213 1.01603 21.2243 0.998029C21.4763 0.989029 21.6793 0.989029 21.8233 0.992029C21.8953 0.993029 21.9523 0.995029 21.9933 0.997029C22.0046 0.997029 22.0149 0.997664 22.0239 0.998218C22.0309 0.998647 22.0371 0.999029 22.0423 0.999029L22.0573 1.00003H22.0663ZM18.7819 6.37569C19.1269 6.80696 19.0569 7.43625 18.6257 7.78124C17.5742 8.62238 16.2215 10.3715 15.089 12.4536C13.9585 14.532 13.1358 16.7804 13.0161 18.5672C12.9802 19.1027 12.529 19.5114 11.9979 19.5001C11.4787 19.5113 11.0314 19.1194 10.9819 18.5942C10.8551 17.2503 10.1062 15.9269 9.02253 14.7233C7.94696 13.5287 6.61455 12.5345 5.48663 11.8578C5.01305 11.5736 4.85949 10.9594 5.14363 10.4858C5.42778 10.0122 6.04204 9.85863 6.51562 10.1428C7.76781 10.8941 9.26869 12.0077 10.5088 13.3851C10.9624 13.8888 11.3912 14.4393 11.7611 15.0305C12.1739 13.8241 12.7239 12.6161 13.3321 11.4979C14.5247 9.30551 16.0299 7.29654 17.3763 6.21947C17.8076 5.87447 18.4369 5.94441 18.7819 6.37569Z" fill="#080809" style="fill:#080809;fill:color(display-p3 0.0314 0.0314 0.0353);fill-opacity:1;"/>
</g>
<defs>
<clipPath id="clip0_29901_27775">
<rect width="24" height="24" fill="white" style="fill:white;fill-opacity:1;"/>
</clipPath>
</defs>
</svg>
