<svg width="24" height="24" viewBox="0 0 24 24" fill="none" xmlns="http://www.w3.org/2000/svg">
<path d="M10.0604 7.17051C11.1306 6.10129 12.866 6.09657 13.9403 7.16563C16.2612 9.47548 18.5743 11.8075 20.8836 14.1168C21.3716 14.605 21.3717 15.3963 20.8836 15.8844C20.3955 16.3723 19.6042 16.3723 19.116 15.8844C16.7956 13.5639 14.4965 11.247 12.1766 8.93809C12.081 8.84296 11.9253 8.84192 11.828 8.93907C9.51197 11.2529 7.19973 13.5683 4.88362 15.8844C4.39552 16.3723 3.60416 16.3723 3.11604 15.8844C2.62794 15.3963 2.62803 14.605 3.11604 14.1168C5.42985 11.803 7.7443 9.48442 10.0604 7.17051Z" fill="#080809" style="fill:#080809;fill:color(display-p3 0.0314 0.0314 0.0353);fill-opacity:1;"/>
</svg>
