<svg width="24" height="24" viewBox="0 0 24 24" fill="none" xmlns="http://www.w3.org/2000/svg">
<path d="M12 5C13.9139 5 15.2487 5.00213 16.2558 5.13753C17.2342 5.26907 17.7523 5.50966 18.1213 5.87868C18.4903 6.2477 18.7309 6.7658 18.8625 7.74416C18.9979 8.7513 19 10.0861 19 12V15.0859L18.2071 14.293C17.8166 13.9025 17.1834 13.9025 16.7929 14.293C16.4024 14.6836 16.4024 15.3167 16.7929 15.7073L18.5858 17.5002C19.3668 18.2812 20.6332 18.2812 21.4142 17.5002L23.2071 15.7073C23.5976 15.3167 23.5976 14.6836 23.2071 14.293C22.8166 13.9025 22.1834 13.9025 21.7929 14.293L21 15.0859V11.9268C21 10.1034 21 8.63361 20.8446 7.47767C20.6833 6.27752 20.3381 5.26702 19.5355 4.46447C18.733 3.66191 17.7225 3.31672 16.5223 3.15537C15.3664 2.99995 13.8966 2.99997 12.0732 3H10C9.44772 3 9 3.44772 9 4C9 4.55229 9.44772 5 10 5H12Z" fill="#080809" style="fill:#080809;fill:color(display-p3 0.0314 0.0314 0.0353);fill-opacity:1;"/>
<path d="M8.07057 9H7.92943C6.57531 8.99997 5.4587 8.99994 4.57494 9.11875C3.64711 9.2435 2.82769 9.51547 2.17158 10.1716C1.51547 10.8277 1.2435 11.6471 1.11876 12.5749C0.999939 13.4587 0.999967 14.5753 1 15.9294V16.0706C0.999967 17.4247 0.999939 18.5413 1.11876 19.4251C1.2435 20.3529 1.51547 21.1723 2.17158 21.8284C2.82769 22.4845 3.64711 22.7565 4.57494 22.8813C5.4587 23.0001 6.57531 23 7.92943 23H8.07058C9.4247 23 10.5413 23.0001 11.4251 22.8813C12.3529 22.7565 13.1723 22.4845 13.8284 21.8284C14.4845 21.1723 14.7565 20.3529 14.8813 19.4251C15.0001 18.5413 15 17.4247 15 16.0706V15.9294C15 14.5753 15.0001 13.4587 14.8813 12.5749C14.7565 11.6471 14.4845 10.8277 13.8284 10.1716C13.1723 9.51547 12.3529 9.2435 11.4251 9.11875C10.5413 8.99994 9.4247 8.99997 8.07057 9Z" fill="#080809" style="fill:#080809;fill:color(display-p3 0.0314 0.0314 0.0353);fill-opacity:1;"/>
</svg>
