<svg width="24" height="24" viewBox="0 0 24 24" fill="none" xmlns="http://www.w3.org/2000/svg">
<path fill-rule="evenodd" clip-rule="evenodd" d="M11 1C8.23858 1 6 3.23858 6 6C6 8.76142 8.23858 11 11 11C13.7614 11 16 8.76142 16 6C16 3.23858 13.7614 1 11 1ZM8 6C8 4.34315 9.34315 3 11 3C12.6569 3 14 4.34315 14 6C14 7.65685 12.6569 9 11 9C9.34315 9 8 7.65685 8 6Z" fill="#080809" style="fill:#080809;fill:color(display-p3 0.0314 0.0314 0.0353);fill-opacity:1;"/>
<path d="M2 19.3333C2 15.8355 4.83553 13 8.33333 13H13.4098C13.9621 13 14.4098 13.4477 14.4098 14C14.4098 14.5523 13.9621 15 13.4098 15H8.33333C5.9401 15 4 16.9401 4 19.3333C4 20.2538 4.74619 21 5.66667 21H12.124C12.6763 21 13.124 21.4477 13.124 22C13.124 22.5523 12.6763 23 12.124 23H5.66667C3.64162 23 2 21.3584 2 19.3333Z" fill="#080809" style="fill:#080809;fill:color(display-p3 0.0314 0.0314 0.0353);fill-opacity:1;"/>
<path d="M22.7071 16.7071C23.0976 16.3166 23.0976 15.6834 22.7071 15.2929C22.3166 14.9024 21.6834 14.9024 21.2929 15.2929L19 17.5858L16.7071 15.2929C16.3166 14.9024 15.6834 14.9024 15.2929 15.2929C14.9024 15.6834 14.9024 16.3166 15.2929 16.7071L17.5858 19L15.2929 21.2929C14.9024 21.6834 14.9024 22.3166 15.2929 22.7071C15.6834 23.0976 16.3166 23.0976 16.7071 22.7071L19 20.4142L21.2929 22.7071C21.6834 23.0976 22.3166 23.0976 22.7071 22.7071C23.0976 22.3166 23.0976 21.6834 22.7071 21.2929L20.4142 19L22.7071 16.7071Z" fill="#080809" style="fill:#080809;fill:color(display-p3 0.0314 0.0314 0.0353);fill-opacity:1;"/>
</svg>
