<svg width="24" height="24" viewBox="0 0 24 24" fill="none" xmlns="http://www.w3.org/2000/svg">
<path d="M6.41355 2.71271C6.59991 1.90552 7.40534 1.40223 8.21253 1.58858L21.8537 4.7379C22.6609 4.92425 23.1642 5.72968 22.9778 6.53688L22.303 9.45999C22.1166 10.2672 21.3112 10.7705 20.504 10.5841L6.86283 7.4348C6.05563 7.24845 5.55234 6.44302 5.7387 5.63582L6.41355 2.71271Z" fill="#080809" style="fill:#080809;fill:color(display-p3 0.0314 0.0314 0.0353);fill-opacity:1;"/>
<path fill-rule="evenodd" clip-rule="evenodd" d="M6.25867 9.13537C6.48358 8.99483 6.75512 8.94939 7.01354 9.00905L19.6803 11.9334C20.2185 12.0577 20.554 12.5946 20.4298 13.1327L20.1828 14.2023C21.8138 13.812 23.5 15.0372 23.5 16.8329C23.5 17.7424 23.042 18.5908 22.2816 19.0898L22.1512 19.1754C17.3864 22.3023 11.5506 23.346 5.9973 22.0645L5.02713 21.8406C2.37716 21.2291 0.5 18.8694 0.5 16.1498V16.0137C0.5 13.7839 2.01758 11.8402 4.18084 11.2994C4.61586 11.1906 5.05925 11.1231 5.50514 11.0972L5.81422 9.75847C5.87388 9.50005 6.03375 9.27591 6.25867 9.13537ZM6.22729 13.0942C5.70298 13.0631 5.17646 13.112 4.66591 13.2397C3.39299 13.5579 2.5 14.7016 2.5 16.0137V16.1498C2.5 17.9381 3.73434 19.4897 5.47685 19.8918L6.44702 20.1157C11.4685 21.2745 16.7454 20.3307 21.0539 17.5033L21.1843 17.4177C21.3813 17.2884 21.5 17.0686 21.5 16.8329C21.5 16.3048 20.9373 15.9672 20.4713 16.2157L19.8885 16.5265C19.6592 16.6488 19.4275 16.7655 19.1936 16.8767C19.1869 16.88 19.1802 16.8833 19.1735 16.8865C16.294 18.25 13.0802 18.7682 9.90793 18.3717C9.7954 18.3576 9.69063 18.3332 9.59363 18.3C8.29199 17.8537 8.38815 15.8064 9.8963 15.6053L12.8974 15.2052C13.2424 15.1592 13.5 14.8649 13.5 14.5169C13.5 14.2185 13.3107 13.9603 13.0405 13.8633C13.0327 13.8605 13.0248 13.8578 13.0168 13.8553C12.9738 13.8417 12.929 13.832 12.8826 13.8269L6.49284 13.1169C6.40841 13.1075 6.32385 13.1002 6.23923 13.095C6.23524 13.0948 6.23126 13.0945 6.22729 13.0942Z" fill="#080809" style="fill:#080809;fill:color(display-p3 0.0314 0.0314 0.0353);fill-opacity:1;"/>
</svg>
