<svg width="24" height="24" viewBox="0 0 24 24" fill="none" xmlns="http://www.w3.org/2000/svg">
<path fill-rule="evenodd" clip-rule="evenodd" d="M15.5651 1.36666C10.2305 -0.0627569 4.74711 3.10307 3.31769 8.43773C3.17475 8.9712 3.49133 9.51953 4.0248 9.66247L11.7625 11.7358L9.78144 19H2C1.44772 19 1 19.4477 1 20C1 20.5523 1.44772 21 2 21H9.23601L9.03557 21.7349C8.89026 22.2678 9.2044 22.8175 9.73723 22.9628C10.2701 23.1081 10.8198 22.794 10.9651 22.2612L13.6944 12.2534L21.4115 14.3212C21.9449 14.4642 22.4933 14.1476 22.6362 13.6141C24.0656 8.27945 20.8998 2.79608 15.5651 1.36666ZM16.6525 5.92329C17.0154 7.32578 17.115 9.11547 16.7601 11.0043L9.7125 9.11594C10.3506 7.31486 11.3283 5.81859 12.3408 4.78388C12.9364 4.17523 13.5196 3.75106 14.023 3.51033C14.5413 3.26247 14.8772 3.25291 15.0468 3.29834C15.2189 3.34448 15.5058 3.52123 15.8308 3.99147C16.1466 4.4486 16.4403 5.10318 16.6525 5.92329Z" fill="#080809" style="fill:#080809;fill:color(display-p3 0.0314 0.0314 0.0353);fill-opacity:1;"/>
<path d="M22 21.0039H14C13.4477 21.0039 13 20.5562 13 20.0039C13 19.4516 13.4477 19.0039 14 19.0039H22C22.5523 19.0039 23 19.4516 23 20.0039C23 20.5562 22.5523 21.0039 22 21.0039Z" fill="#080809" style="fill:#080809;fill:color(display-p3 0.0314 0.0314 0.0353);fill-opacity:1;"/>
</svg>
