<svg width="24" height="24" viewBox="0 0 24 24" fill="none" xmlns="http://www.w3.org/2000/svg">
<g clip-path="url(#clip0_29901_28536)">
<path fill-rule="evenodd" clip-rule="evenodd" d="M12 0.5C5.64873 0.5 0.5 5.64873 0.5 12C0.5 18.3513 5.64873 23.5 12 23.5C18.3513 23.5 23.5 18.3513 23.5 12C23.5 5.64873 18.3513 0.5 12 0.5ZM7.29289 16.704C6.90237 16.3135 6.90237 15.6803 7.29289 15.2898L10.5877 11.995L7.29304 8.70027C6.90252 8.30975 6.90252 7.67658 7.29304 7.28606C7.68357 6.89553 8.31673 6.89553 8.70726 7.28606L12.002 10.5808L15.2972 7.28547C15.6878 6.89494 16.3209 6.89495 16.7114 7.28547C17.102 7.67599 17.102 8.30916 16.7114 8.69968L13.4162 11.995L16.7116 15.2904C17.1021 15.6809 17.1021 16.3141 16.7116 16.7046C16.3211 17.0951 15.6879 17.0951 15.2974 16.7046L12.002 13.4092L8.70711 16.704C8.31658 17.0946 7.68342 17.0946 7.29289 16.704Z" fill="#080809" style="fill:#080809;fill:color(display-p3 0.0314 0.0314 0.0353);fill-opacity:1;"/>
</g>
<defs>
<clipPath id="clip0_29901_28536">
<rect width="24" height="24" fill="white" style="fill:white;fill-opacity:1;"/>
</clipPath>
</defs>
</svg>
