<svg width="24" height="24" viewBox="0 0 24 24" fill="none" xmlns="http://www.w3.org/2000/svg">
<path d="M21.3716 1H2.62383C1.72797 1 1 1.71024 1 2.58532V21.4121C1 22.2881 1.72797 22.9993 2.62383 22.9993H21.3716C22.269 22.9993 23 22.2883 23 21.4121V2.58532C23 1.71024 22.269 1 21.3716 1ZM7.52496 19.7463H4.26187V9.2476H7.52496V19.7463ZM5.8941 7.81245C4.84821 7.81245 4.00169 6.96471 4.00169 5.92005C4.00169 4.87539 4.84821 4.02888 5.8941 4.02888C6.93999 4.02888 7.78498 4.87661 7.78498 5.92005C7.78498 6.96349 6.93724 7.81245 5.8941 7.81245ZM19.7465 19.7463H16.4857V14.6406C16.4857 13.4232 16.4633 11.8571 14.7901 11.8571C13.0923 11.8571 12.8317 13.1833 12.8317 14.5526V19.7463H9.57151V9.2476H12.7011V10.6821H12.7448C13.1805 9.8567 14.2447 8.98651 15.8322 8.98651C19.1364 8.98651 19.7464 11.1611 19.7464 13.9877V19.7462L19.7465 19.7463Z" fill="#080809" style="fill:#080809;fill:color(display-p3 0.0314 0.0314 0.0353);fill-opacity:1;"/>
</svg>
