<svg width="24" height="24" viewBox="0 0 24 24" fill="none" xmlns="http://www.w3.org/2000/svg">
<path d="M20 13.5351V7.75708L9 10.2955V19C9 21.2091 7.20914 23 5 23C2.79086 23 1 21.2091 1 19C1 16.7909 2.79086 15 5 15C5.72857 15 6.41165 15.1948 7 15.5351V5.69329C7 4.52915 7.80352 3.51908 8.93785 3.25732L18.9379 0.949624C20.5044 0.588114 22 1.77789 22 3.3856V17C22 19.2092 20.2091 21 18 21C15.7909 21 14 19.2091 14 17C14 14.7909 15.7909 13 18 13C18.7286 13 19.4117 13.1948 20 13.5351Z" fill="#080809" style="fill:#080809;fill:color(display-p3 0.0314 0.0314 0.0353);fill-opacity:1;"/>
</svg>
