<svg width="24" height="24" viewBox="0 0 24 24" fill="none" xmlns="http://www.w3.org/2000/svg">
<path d="M20.5 2C22.1569 2 23.5 3.34315 23.5 5C23.5 6.6535 22.1623 7.99456 20.5101 7.99998L18.8787 12.661C19.5624 13.2108 20 14.0543 20 15C20 16.6569 18.6569 18 17 18C15.3431 18 14 16.6569 14 15C14 14.7763 14.0245 14.5583 14.0709 14.3486L10.8686 12.3471C10.356 12.7558 9.70653 13 9 13C8.78696 13 8.57911 12.9778 8.37863 12.9356L5.82859 17.1084C6.24837 17.6245 6.5 18.2829 6.5 19C6.5 20.6569 5.15685 22 3.5 22C1.84315 22 0.5 20.6569 0.5 19C0.5 17.3431 1.84315 16 3.5 16C3.71344 16 3.92168 16.0223 4.12251 16.0647L6.67215 11.8925C6.25192 11.3763 6 10.7176 6 10C6 8.34315 7.34315 7 9 7C10.6569 7 12 8.34315 12 10C12 10.2237 11.9755 10.4417 11.9291 10.6514L15.1314 12.6529C15.6419 12.2459 16.288 12.0021 16.9911 12L18.6222 7.33975C17.9379 6.7899 17.5 5.94609 17.5 5C17.5 3.34315 18.8431 2 20.5 2Z" fill="#080809" style="fill:#080809;fill:color(display-p3 0.0314 0.0314 0.0353);fill-opacity:1;"/>
</svg>
