<svg width="24" height="24" viewBox="0 0 24 24" fill="none" xmlns="http://www.w3.org/2000/svg">
<path d="M13 8V8.52204C13.4506 8.57697 13.8846 8.73369 14.2682 8.98224L14.5437 9.16075C15.0072 9.46105 15.1396 10.0802 14.8393 10.5437C14.539 11.0072 13.9198 11.1396 13.4563 10.8393L13.1807 10.6607C13.0188 10.5558 12.83 10.5 12.637 10.5H11.5C11.0858 10.5 10.75 10.8358 10.75 11.25C10.75 11.6642 11.0858 12 11.5 12H12.5C14.0188 12 15.25 13.2312 15.25 14.75C15.25 16.098 14.2801 17.2195 13 17.4547V18C13 18.5523 12.5523 19 12 19C11.4477 19 11 18.5523 11 18V17.4305C10.2154 17.2822 9.4869 16.9011 8.91421 16.3284L8.79289 16.2071C8.40237 15.8166 8.40237 15.1834 8.79289 14.7929C9.18342 14.4024 9.81658 14.4024 10.2071 14.7929L10.3284 14.9142C10.7035 15.2893 11.2122 15.5 11.7426 15.5H12.5C12.9142 15.5 13.25 15.1642 13.25 14.75C13.25 14.3358 12.9142 14 12.5 14H11.5C9.98122 14 8.75 12.7688 8.75 11.25C8.75 9.90197 9.71994 8.78047 11 8.54534V8C11 7.44772 11.4477 7 12 7C12.5523 7 13 7.44772 13 8Z" fill="#080809" style="fill:#080809;fill:color(display-p3 0.0314 0.0314 0.0353);fill-opacity:1;"/>
<path fill-rule="evenodd" clip-rule="evenodd" d="M22 9.76571C22.4209 10.0093 22.9679 9.91549 23.2809 9.52422C23.6259 9.09296 23.556 8.46367 23.1247 8.11866L17.5727 3.67706C16.4167 2.75223 15.4787 2.0018 14.6526 1.49059C13.7916 0.957775 12.9567 0.62207 12 0.62207C11.0434 0.62207 10.2085 0.957777 9.3475 1.4906C8.5214 2.00181 7.58339 2.75223 6.42737 3.67707L5 4.81896V3C5 2.44772 4.55228 2 4 2C3.44772 2 3 2.44772 3 3V6.41894L0.875345 8.11866C0.444081 8.46366 0.374158 9.09296 0.719166 9.52422C1.03218 9.91549 1.57921 10.0093 2.00004 9.76571L2.00004 16.0702C2 17.4243 1.99997 18.5409 2.11879 19.4247C2.24353 20.3525 2.5155 21.1719 3.17161 21.828C3.82772 22.4841 4.64714 22.7561 5.57497 22.8808C6.45872 22.9997 7.57531 22.9996 8.9294 22.9996H15.0706C16.4247 22.9996 17.5414 22.9997 18.4251 22.8808C19.3529 22.7561 20.1724 22.4841 20.8285 21.828C21.4846 21.1719 21.7565 20.3525 21.8813 19.4247C22.0001 18.5409 22.0001 17.4243 22 16.0702V9.76571ZM10.3999 3.1913C9.68888 3.63131 8.84467 4.30449 7.6272 5.27845L4.00004 8.18016V15.9996C4.00004 17.4421 4.00216 18.4233 4.10095 19.1582C4.19588 19.8642 4.36325 20.1912 4.58582 20.4138C4.80839 20.6364 5.13542 20.8037 5.84147 20.8987C6.57629 20.9975 7.55755 20.9996 9.00004 20.9996H15C16.4425 20.9996 17.4238 20.9975 18.1586 20.8987C18.8647 20.8037 19.1917 20.6364 19.4142 20.4138C19.6368 20.1912 19.8042 19.8642 19.8991 19.1582C19.9979 18.4233 20 17.4421 20 15.9996V8.18016L16.3729 5.27844C15.1554 4.30448 14.3112 3.6313 13.6002 3.1913C12.9123 2.76562 12.4465 2.62207 12 2.62207C11.5536 2.62207 11.0878 2.76562 10.3999 3.1913Z" fill="#080809" style="fill:#080809;fill:color(display-p3 0.0314 0.0314 0.0353);fill-opacity:1;"/>
</svg>
