<svg width="24" height="24" viewBox="0 0 24 24" fill="none" xmlns="http://www.w3.org/2000/svg">
<path d="M9 17C8.44772 17 8 17.4477 8 18C8 18.5523 8.44772 19 9 19H15C15.5523 19 16 18.5523 16 18C16 17.4477 15.5523 17 15 17H9Z" fill="#080809" style="fill:#080809;fill:color(display-p3 0.0314 0.0314 0.0353);fill-opacity:1;"/>
<path d="M15 15H9C8.44772 15 8 14.5523 8 14C8 13.4477 8.44772 13 9 13H15C15.5523 13 16 13.4477 16 14C16 14.5523 15.5523 15 15 15Z" fill="#080809" style="fill:#080809;fill:color(display-p3 0.0314 0.0314 0.0353);fill-opacity:1;"/>
<path d="M15.7071 6.20711C16.0976 5.81658 16.0976 5.18342 15.7071 4.79289C15.3166 4.40237 14.6834 4.40237 14.2929 4.79289L11 8.08579L9.70711 6.79289C9.31658 6.40237 8.68342 6.40237 8.29289 6.79289C7.90237 7.18342 7.90237 7.81658 8.29289 8.20711L9.58579 9.5C10.3668 10.2811 11.6332 10.281 12.4142 9.5L15.7071 6.20711Z" fill="#080809" style="fill:#080809;fill:color(display-p3 0.0314 0.0314 0.0353);fill-opacity:1;"/>
<path fill-rule="evenodd" clip-rule="evenodd" d="M14.0706 0.500001H9.92943C8.57533 0.499967 7.45869 0.499939 6.57494 0.618756C5.64711 0.743499 4.82769 1.01547 4.17158 1.67158C3.51547 2.32769 3.2435 3.14711 3.11876 4.07494C2.99994 4.95869 2.99997 6.07529 3 7.42939V16.5706C2.99997 17.9247 2.99994 19.0413 3.11876 19.9251C3.2435 20.8529 3.51547 21.6723 4.17158 22.3284C4.82769 22.9845 5.64711 23.2565 6.57494 23.3813C7.45869 23.5001 8.57529 23.5 9.92939 23.5H14.0705C15.4246 23.5 16.5413 23.5001 17.4251 23.3813C18.3529 23.2565 19.1723 22.9845 19.8284 22.3284C20.4845 21.6723 20.7565 20.8529 20.8813 19.9251C21.0001 19.0413 21 17.9247 21 16.5706V7.42946C21 6.07536 21.0001 4.95869 20.8813 4.07494C20.7565 3.14711 20.4845 2.32769 19.8284 1.67158C19.1723 1.01547 18.3529 0.743499 17.4251 0.618756C16.5413 0.499939 15.4247 0.499967 14.0706 0.500001ZM5.58579 3.08579C5.80836 2.86322 6.13538 2.69585 6.84144 2.60092C7.57626 2.50213 8.55752 2.5 10 2.5H14C15.4425 2.5 16.4238 2.50213 17.1586 2.60092C17.8646 2.69585 18.1916 2.86322 18.4142 3.08579C18.6368 3.30836 18.8042 3.63538 18.8991 4.34144C18.9979 5.07626 19 6.05752 19 7.5V16.5C19 17.9425 18.9979 18.9238 18.8991 19.6586C18.8042 20.3646 18.6368 20.6916 18.4142 20.9142C18.1916 21.1368 17.8646 21.3042 17.1586 21.3991C16.4238 21.4979 15.4425 21.5 14 21.5H10C8.55752 21.5 7.57626 21.4979 6.84144 21.3991C6.13538 21.3042 5.80836 21.1368 5.58579 20.9142C5.36322 20.6916 5.19585 20.3646 5.10092 19.6586C5.00213 18.9238 5 17.9425 5 16.5V7.5C5 6.05752 5.00213 5.07626 5.10092 4.34144C5.19585 3.63538 5.36322 3.30836 5.58579 3.08579Z" fill="#080809" style="fill:#080809;fill:color(display-p3 0.0314 0.0314 0.0353);fill-opacity:1;"/>
</svg>
