<svg width="24" height="24" viewBox="0 0 24 24" fill="none" xmlns="http://www.w3.org/2000/svg">
<g clip-path="url(#clip0_29901_28240)">
<path d="M12 0.5C7.62995 0.5 3.83078 2.93789 1.88565 6.52312C1.62228 7.00857 1.8023 7.6156 2.28774 7.87897C2.77319 8.14234 3.38022 7.96232 3.64359 7.47688C5.25298 4.51049 8.39244 2.5 12 2.5C16.723 2.5 20.6411 5.94663 21.3761 10.4619L20.7071 9.79289C20.3166 9.40237 19.6834 9.40237 19.2929 9.79289C18.9024 10.1834 18.9024 10.8166 19.2929 11.2071L21.7929 13.7071C22.0789 13.9931 22.509 14.0787 22.8827 13.9239C23.2564 13.7691 23.5 13.4045 23.5 13V12C23.5 5.64873 18.3513 0.5 12 0.5Z" fill="#080809" style="fill:#080809;fill:color(display-p3 0.0314 0.0314 0.0353);fill-opacity:1;"/>
<path d="M2.20711 10.2929C1.92111 10.0069 1.49099 9.92134 1.11732 10.0761C0.743642 10.2309 0.5 10.5955 0.5 11V12C0.5 18.3513 5.64873 23.5 12 23.5C16.37 23.5 20.1692 21.0621 22.1144 17.4769C22.3777 16.9914 22.1977 16.3844 21.7123 16.121C21.2268 15.8577 20.6198 16.0377 20.3564 16.5231C19.9601 17.2536 19.471 17.9261 18.905 18.5249C18.4514 16.2303 16.4278 14.5 14 14.5H10C7.57231 14.5 5.54873 16.2302 5.09506 18.5247C3.81979 17.1756 2.9356 15.453 2.62387 13.5381L3.29289 14.2071C3.68342 14.5976 4.31658 14.5976 4.70711 14.2071C5.09763 13.8166 5.09763 13.1834 4.70711 12.7929L2.20711 10.2929Z" fill="#080809" style="fill:#080809;fill:color(display-p3 0.0314 0.0314 0.0353);fill-opacity:1;"/>
<path d="M8 9C8 6.79086 9.79086 5 12 5C14.2091 5 16 6.79086 16 9C16 11.2091 14.2091 13 12 13C9.79086 13 8 11.2091 8 9Z" fill="#080809" style="fill:#080809;fill:color(display-p3 0.0314 0.0314 0.0353);fill-opacity:1;"/>
</g>
<defs>
<clipPath id="clip0_29901_28240">
<rect width="24" height="24" fill="white" style="fill:white;fill-opacity:1;"/>
</clipPath>
</defs>
</svg>
