<svg width="24" height="24" viewBox="0 0 24 24" fill="none" xmlns="http://www.w3.org/2000/svg">
<path fill-rule="evenodd" clip-rule="evenodd" d="M9 3.5C9 1.84315 10.3431 0.5 12 0.5H19C20.6569 0.5 22 1.84315 22 3.5V13.5C22 15.1569 20.6569 16.5 19 16.5H12C10.3431 16.5 9 15.1569 9 13.5V3.5ZM12 2.5C11.4477 2.5 11 2.94772 11 3.5V13.5C11 14.0523 11.4477 14.5 12 14.5H19C19.5523 14.5 20 14.0523 20 13.5V3.5C20 2.94772 19.5523 2.5 19 2.5H12Z" fill="#080809" style="fill:#080809;fill:color(display-p3 0.0314 0.0314 0.0353);fill-opacity:1;"/>
<path d="M6.5 5C7.05228 5 7.5 5.44772 7.5 6V17C7.5 17.5523 7.94772 18 8.5 18H16.5C17.0523 18 17.5 18.4477 17.5 19C17.5 19.5523 17.0523 20 16.5 20H8.5C6.84315 20 5.5 18.6569 5.5 17V6C5.5 5.44772 5.94772 5 6.5 5Z" fill="#080809" style="fill:#080809;fill:color(display-p3 0.0314 0.0314 0.0353);fill-opacity:1;"/>
<path d="M4 9.5C4 8.94771 3.55228 8.5 3 8.5C2.44772 8.5 2 8.94771 2 9.5V20.5C2 22.1569 3.34315 23.5 5 23.5H13C13.5523 23.5 14 23.0523 14 22.5C14 21.9477 13.5523 21.5 13 21.5H5C4.44772 21.5 4 21.0523 4 20.5V9.5Z" fill="#080809" style="fill:#080809;fill:color(display-p3 0.0314 0.0314 0.0353);fill-opacity:1;"/>
</svg>
