<svg width="24" height="24" viewBox="0 0 24 24" fill="none" xmlns="http://www.w3.org/2000/svg">
<path d="M9.29282 14.2933C9.68335 13.9028 10.3164 13.9028 10.7069 14.2933C11.3764 14.9627 12.436 15.0042 13.1542 14.4183L13.2928 14.2933L13.369 14.225C13.7618 13.9046 14.3408 13.9272 14.7069 14.2933C15.0729 14.6594 15.0956 15.2385 14.7752 15.6312L14.7069 15.7074L14.5643 15.8431C13.0615 17.2009 10.7412 17.1556 9.29282 15.7074C8.90236 15.3169 8.90247 14.6839 9.29282 14.2933Z" fill="#080809" style="fill:#080809;fill:color(display-p3 0.0314 0.0314 0.0353);fill-opacity:1;"/>
<path d="M9.24985 10.0004C9.94021 10.0004 10.4999 10.56 10.4999 11.2504C10.4997 11.9406 9.94012 12.5004 9.24985 12.5004C8.55962 12.5003 8 11.9406 7.99985 11.2504C7.99985 10.56 8.55953 10.0004 9.24985 10.0004Z" fill="#080809" style="fill:#080809;fill:color(display-p3 0.0314 0.0314 0.0353);fill-opacity:1;"/>
<path d="M14.7499 10.0004C15.4402 10.0004 15.9999 10.56 15.9999 11.2504C15.9997 11.9406 15.4401 12.5004 14.7499 12.5004C14.0596 12.5003 13.5 11.9406 13.4999 11.2504C13.4999 10.56 14.0595 10.0004 14.7499 10.0004Z" fill="#080809" style="fill:#080809;fill:color(display-p3 0.0314 0.0314 0.0353);fill-opacity:1;"/>
<path fill-rule="evenodd" clip-rule="evenodd" d="M9.73032 1.92418C10.624 -0.0125124 13.3767 -0.0124609 14.2704 1.92418L16.4159 6.5775L21.5057 7.18102C23.6242 7.43219 24.4751 10.0509 22.909 11.4994L19.1463 14.9779L20.1454 20.0052C20.5611 22.0976 18.334 23.7159 16.4725 22.6742L11.9999 20.1712L7.52817 22.6742C5.66665 23.7161 3.43957 22.0976 3.85532 20.0052L4.85337 14.9779L1.09165 11.4994C-0.474072 10.051 0.375953 7.43247 2.49399 7.18102L7.58384 6.5775L9.73032 1.92418ZM12.454 2.76207C12.2751 2.37515 11.7245 2.37505 11.5458 2.76207L9.16489 7.92418C9.01915 8.23976 8.72007 8.45747 8.37485 8.4984L2.72935 9.16734C2.3063 9.21795 2.13668 9.74097 2.44907 10.0306L6.6229 13.891C6.87793 14.127 6.99225 14.4788 6.92466 14.8197L5.81626 20.3949C5.73311 20.8134 6.17931 21.1375 6.55161 20.9291L11.5116 18.1527L11.6288 18.097C11.9069 17.9857 12.2237 18.0043 12.4891 18.1527L17.4491 20.9291C17.8214 21.1374 18.2666 20.8133 18.1834 20.3949L17.076 14.8197C17.0084 14.4788 17.1227 14.127 17.3778 13.891L21.5516 10.0306C21.8642 9.74085 21.6938 9.21755 21.2704 9.16734L15.6258 8.4984C15.2806 8.45738 14.9805 8.23984 14.8348 7.92418L12.454 2.76207Z" fill="#080809" style="fill:#080809;fill:color(display-p3 0.0314 0.0314 0.0353);fill-opacity:1;"/>
</svg>
