<svg width="24" height="24" viewBox="0 0 24 24" fill="none" xmlns="http://www.w3.org/2000/svg">
<path d="M7.80017 4.9C8.97467 4.01912 9.7876 3.41141 10.4699 3.01425C11.1295 2.63033 11.575 2.5 12.0002 2.5C12.4254 2.5 12.8709 2.63033 13.5304 3.01425C14.2127 3.41141 15.0257 4.01912 16.2002 4.9L18.2002 6.4C19.8508 7.63794 20.3915 8.07453 20.6835 8.65836C20.9746 9.24064 21.0002 9.93386 21.0002 11.9879V12C21.0002 12.5523 21.4479 13 22.0002 13C22.5525 13 23.0002 12.5521 23.0002 11.9998L23.0002 11.7666C23.0012 10.0309 23.0018 8.82289 22.4723 7.76393C21.9427 6.70472 20.9752 5.97996 19.5843 4.93797L17.3517 3.26364C16.2373 2.42785 15.3317 1.74857 14.5366 1.28575C13.7072 0.803007 12.9083 0.5 12.0002 0.5C11.092 0.5 10.2931 0.803007 9.46377 1.28575C8.66868 1.74856 7.763 2.42785 6.64866 3.26363L4.41609 4.93795C3.02513 5.97995 2.05764 6.70471 1.52803 7.76393C0.998423 8.82315 0.999104 10.032 1.00008 11.77L1.00017 16.0708C1.00013 17.4249 1.0001 18.5415 1.11892 19.4253C1.24366 20.3531 1.51563 21.1725 2.17174 21.8286C3.15424 22.8111 4.53054 22.9493 6.16008 22.9875C6.71221 23.0004 7.17029 22.5633 7.18322 22.0112C7.19614 21.459 6.75903 21.001 6.2069 20.988C4.50729 20.9482 3.93573 20.7642 3.58595 20.4144C3.36338 20.1918 3.19601 19.8648 3.10109 19.1588C3.00229 18.4239 3.00017 17.4427 3.00017 16.0002V12C3.00017 9.93677 3.02497 9.24219 3.31689 8.65836C3.6088 8.07453 4.14958 7.63794 5.80017 6.4L7.80017 4.9Z" fill="#080809" style="fill:#080809;fill:color(display-p3 0.0314 0.0314 0.0353);fill-opacity:1;"/>
<path d="M11.5 12.251C11.5 10.4561 12.9551 9.00098 14.75 9.00098C16.5449 9.00098 18 10.4561 18 12.251C18 14.0459 16.5449 15.501 14.75 15.501C12.9551 15.501 11.5 14.0459 11.5 12.251Z" fill="#080809" style="fill:#080809;fill:color(display-p3 0.0314 0.0314 0.0353);fill-opacity:1;"/>
<path d="M17.75 16.2451C17.75 15.2096 18.5895 14.3701 19.625 14.3701C20.6605 14.3701 21.5 15.2096 21.5 16.2451C21.5 17.2807 20.6605 18.1201 19.625 18.1201C18.5895 18.1201 17.75 17.2807 17.75 16.2451Z" fill="#080809" style="fill:#080809;fill:color(display-p3 0.0314 0.0314 0.0353);fill-opacity:1;"/>
<path d="M13.0833 16.5001C10.8282 16.5001 9 18.3283 9 20.5835C9 21.9181 10.082 23.0001 11.4167 23.0001H13.7768C14.4311 23.0001 14.8525 22.4113 14.777 21.8455C14.7592 21.7121 14.75 21.5756 14.75 21.4366C14.75 20.2222 15.2813 19.1328 16.1265 18.3864C16.4342 18.1148 16.5461 17.6874 16.4192 17.3031C16.4103 17.276 16.4017 17.2488 16.3934 17.2214C16.2708 16.8154 15.8946 16.5001 15.4284 16.5001H13.0833Z" fill="#080809" style="fill:#080809;fill:color(display-p3 0.0314 0.0314 0.0353);fill-opacity:1;"/>
<path d="M16.25 21.4374C16.25 20.0195 17.3994 18.8701 18.8173 18.8701H20.4327C21.8506 18.8701 23 20.0195 23 21.4374C23 22.2977 22.3026 22.9951 21.4423 22.9951H17.8077C16.9474 22.9951 16.25 22.2977 16.25 21.4374Z" fill="#080809" style="fill:#080809;fill:color(display-p3 0.0314 0.0314 0.0353);fill-opacity:1;"/>
</svg>
