<svg width="24" height="24" viewBox="0 0 24 24" fill="none" xmlns="http://www.w3.org/2000/svg">
<path fill-rule="evenodd" clip-rule="evenodd" d="M14.3734 0.500188C14.8677 0.498994 15.3697 0.497782 15.8354 0.690676C16.3011 0.883569 16.6552 1.23936 17.0039 1.58978L17.0858 1.67195L20.8284 5.41459L20.9106 5.49648C21.261 5.84522 21.6168 6.1993 21.8097 6.66499C22.0026 7.13067 22.0014 7.63263 22.0002 8.12701L22 8.24301L22 13.0709C22 14.4251 22.0001 15.5417 21.8813 16.4254C21.7565 17.3533 21.4845 18.1727 20.8284 18.8288C20.1723 19.4849 19.3529 19.7569 18.4251 19.8816C17.5413 20.0004 16.4247 20.0004 15.0706 20.0004H12.9295C11.5753 20.0004 10.4587 20.0004 9.57494 19.8816C8.64711 19.7569 7.82769 19.4849 7.17158 18.8288C6.51547 18.1727 6.2435 17.3533 6.11876 16.4254C5.99994 15.5417 5.99997 14.4251 6 13.0709L6 7.4298C5.99997 6.07569 5.99994 4.95907 6.11876 4.07531C6.2435 3.14748 6.51547 2.32806 7.17158 1.67195C7.82769 1.01584 8.64711 0.74387 9.57494 0.619127C10.4587 0.500309 11.5753 0.500338 12.9294 0.500373L14.2574 0.500374L14.3734 0.500188ZM13 2.50037H13.5V6.50037C13.5 7.88109 14.6193 9.00037 16 9.00037H20V13.0004C20 14.4429 19.9979 15.4241 19.8991 16.1589C19.8042 16.865 19.6368 17.192 19.4142 17.4146C19.1916 17.6372 18.8646 17.8045 18.1586 17.8995C17.4238 17.9983 16.4425 18.0004 15 18.0004H13C11.5575 18.0004 10.5763 17.9983 9.84144 17.8995C9.13538 17.8045 8.80836 17.6372 8.58579 17.4146C8.36322 17.192 8.19585 16.865 8.10092 16.1589C8.00213 15.4241 8 14.4429 8 13.0004V7.50037C8 6.05789 8.00213 5.07663 8.10092 4.34181C8.19585 3.63575 8.36322 3.30873 8.58579 3.08616C8.80836 2.86359 9.13538 2.69622 9.84144 2.60129C10.5763 2.5025 11.5575 2.50037 13 2.50037ZM19.4142 6.8288C19.4785 6.89303 19.5349 6.94991 19.5846 7.00037H16C15.7239 7.00037 15.5 6.77652 15.5 6.50037V2.91582C15.5505 2.96548 15.6073 3.02193 15.6716 3.08616L19.4142 6.8288Z" fill="#080809" style="fill:#080809;fill:color(display-p3 0.0314 0.0314 0.0353);fill-opacity:1;"/>
<path d="M4.5 9.00049C4.5 8.4482 4.05229 8.00049 3.5 8.00049C2.94772 8.00049 2.5 8.4482 2.5 9.00049L2.5 16.5711C2.49997 17.9252 2.49994 19.0418 2.61876 19.9256C2.7435 20.8534 3.01547 21.6728 3.67158 22.3289C4.32769 22.985 5.14711 23.257 6.07494 23.3817C6.9587 23.5006 8.07531 23.5005 9.42943 23.5005L14 23.5005C14.5523 23.5005 15 23.0528 15 22.5005C15 21.9482 14.5523 21.5005 14 21.5005H9.5C8.05752 21.5005 7.07626 21.4984 6.34144 21.3996C5.63538 21.3046 5.30836 21.1373 5.08579 20.9147C4.86322 20.6921 4.69585 20.3651 4.60092 19.6591C4.50213 18.9242 4.5 17.943 4.5 16.5005V9.00049Z" fill="#080809" style="fill:#080809;fill:color(display-p3 0.0314 0.0314 0.0353);fill-opacity:1;"/>
</svg>
