<svg width="24" height="24" viewBox="0 0 24 24" fill="none" xmlns="http://www.w3.org/2000/svg">
<path d="M12.0001 7.49951C12.4041 7.49951 12.7683 7.74252 12.9234 8.11548L13.6146 9.77732L15.4087 9.92115C15.8114 9.95343 16.1551 10.2248 16.2799 10.6089C16.4047 10.9931 16.2862 11.4146 15.9794 11.6774L14.6125 12.8483L15.0301 14.599C15.1238 14.992 14.9719 15.4027 14.6452 15.6401C14.3184 15.8775 13.8808 15.895 13.5361 15.6845L12.0001 14.7463L10.4641 15.6845C10.1194 15.895 9.68188 15.8775 9.35509 15.6401C9.02831 15.4027 8.87645 14.992 8.97017 14.599L9.38778 12.8483L8.02087 11.6774C7.71411 11.4146 7.59555 10.9931 7.72037 10.6089C7.8452 10.2248 8.18888 9.95343 8.59152 9.92115L10.3856 9.77732L11.0768 8.11548C11.2319 7.74252 11.5962 7.49951 12.0001 7.49951Z" fill="#080809" style="fill:#080809;fill:color(display-p3 0.0314 0.0314 0.0353);fill-opacity:1;"/>
<path fill-rule="evenodd" clip-rule="evenodd" d="M13.4812 0.901028C12.5625 0.379338 11.4372 0.379345 10.5185 0.901048L3.01858 5.16001C2.07992 5.69305 1.5 6.68927 1.5 7.76872V16.2296C1.5 17.3091 2.07992 18.3053 3.01858 18.8384L10.5185 23.0973C11.4372 23.619 12.5625 23.619 13.4812 23.0973L20.9814 18.8384C21.9201 18.3053 22.5 17.3091 22.5 16.2296V7.76874C22.5 6.68928 21.9201 5.69304 20.9814 5.16001L13.4812 0.901028ZM11.5061 2.64019C11.8123 2.46629 12.1874 2.46629 12.4937 2.64019L19.9938 6.89916C20.3067 7.07684 20.5 7.40892 20.5 7.76874V16.2296C20.5 16.5894 20.3067 16.9215 19.9938 17.0992L12.4937 21.3582C12.1874 21.5321 11.8123 21.5321 11.5061 21.3582L4.00619 17.0992C3.69331 16.9215 3.5 16.5895 3.5 16.2296V7.76872C3.5 7.40891 3.69331 7.07683 4.00619 6.89915L11.5061 2.64019Z" fill="#080809" style="fill:#080809;fill:color(display-p3 0.0314 0.0314 0.0353);fill-opacity:1;"/>
</svg>
