<svg width="24" height="24" viewBox="0 0 24 24" fill="none" xmlns="http://www.w3.org/2000/svg">
<path fill-rule="evenodd" clip-rule="evenodd" d="M12 0.5C18.3513 0.5 23.5 5.64873 23.5 12C23.5 18.3513 18.3513 23.5 12 23.5C5.64873 23.5 0.5 18.3513 0.5 12C0.5 5.64873 5.64873 0.5 12 0.5ZM12 2.5C6.75329 2.5 2.5 6.75329 2.5 12C2.5 16.3674 5.44788 20.0438 9.46191 21.1543V15.2109H7.29492V12.0029H9.46191V10.6211C9.46191 7.04701 11.0792 5.39174 14.5859 5.3916C15.2495 5.3916 16.3968 5.52214 16.8672 5.65234V8.55859C16.6194 8.5334 16.1867 8.52051 15.6533 8.52051C13.9314 8.52051 13.2677 9.17156 13.2676 10.8682V12.0029H16.6992L16.1113 15.2109H13.2715V21.4121C17.9168 20.7905 21.5 16.8154 21.5 12C21.5 6.75329 17.2467 2.5 12 2.5Z" fill="#080809" style="fill:#080809;fill:color(display-p3 0.0314 0.0314 0.0353);fill-opacity:1;"/>
</svg>
