<svg width="24" height="24" viewBox="0 0 24 24" fill="none" xmlns="http://www.w3.org/2000/svg">
<path d="M11.9252 1H12.0748C14.3683 0.999979 16.1914 0.999962 17.6196 1.19198C19.0921 1.38994 20.2936 1.80836 21.2426 2.75736C22.1916 3.70636 22.6101 4.90794 22.808 6.3804C23 7.8086 23 9.63167 23 11.9252V12.0748C23 14.3683 23 16.1914 22.808 17.6196C22.6101 19.0921 22.1916 20.2936 21.2426 21.2426C20.2936 22.1916 19.0921 22.6101 17.6196 22.808C16.1914 23 14.3683 23 12.0748 23H11.9252C9.63167 23 7.8086 23 6.3804 22.808C4.90794 22.6101 3.70636 22.1916 2.75736 21.2426C2.11276 20.598 1.71296 19.8369 1.46076 18.9535L8.00015 12.4141L9.58594 13.9999C10.367 14.781 11.6333 14.781 12.4144 13.9999L17 9.41427V11C17 11.5523 17.4477 12 18 12C18.5523 12 19 11.5523 19 11V8C19 6.89543 18.1046 6 17 6H14C13.4477 6 13 6.44772 13 7C13 7.55229 13.4477 8 14 8H15.5858L11.0002 12.5857L9.41436 10.9999C8.63332 10.2189 7.36699 10.2189 6.58594 10.9999L1.08295 16.5029C0.99997 15.274 0.999984 13.8089 1 12.0748V11.9252C0.999979 9.63165 0.999962 7.80859 1.19198 6.3804C1.38994 4.90794 1.80836 3.70636 2.75736 2.75736C3.70636 1.80836 4.90794 1.38994 6.3804 1.19198C7.80859 0.999962 9.63166 0.999979 11.9252 1Z" fill="#080809" style="fill:#080809;fill:color(display-p3 0.0314 0.0314 0.0353);fill-opacity:1;"/>
</svg>
