<svg width="24" height="24" viewBox="0 0 24 24" fill="none" xmlns="http://www.w3.org/2000/svg">
<g clip-path="url(#clip0_29901_28049)">
<path fill-rule="evenodd" clip-rule="evenodd" d="M15.0856 1.49985C15.8667 0.718801 17.133 0.718799 17.9141 1.49985L22.4999 6.08564C23.2809 6.86668 23.2809 8.13301 22.4999 8.91406L8.91406 22.4999C8.13301 23.2809 6.86669 23.2809 6.08564 22.4999L1.49985 17.9141C0.718801 17.133 0.7188 15.8667 1.49985 15.0856L15.0856 1.49985ZM17.2071 8.20662C16.8166 8.59714 16.1834 8.59714 15.7929 8.20662L13.7929 6.20662C13.4024 5.81609 13.4024 5.18293 13.7929 4.7924C14.1834 4.40188 14.8166 4.40188 15.2071 4.7924L17.2071 6.79241C17.5976 7.18293 17.5976 7.81609 17.2071 8.20662ZM13.2071 10.2066C12.8166 10.5971 12.1834 10.5971 11.7929 10.2066L10.7929 9.20662C10.4024 8.81609 10.4024 8.18293 10.7929 7.79241C11.1834 7.40188 11.8166 7.40188 12.2071 7.79241L13.2071 8.79241C13.5976 9.18293 13.5976 9.81609 13.2071 10.2066ZM11.2071 14.2066C10.8166 14.5971 10.1834 14.5971 9.79289 14.2066L7.79289 12.2066C7.40237 11.8161 7.40237 11.1829 7.79289 10.7924C8.18342 10.4019 8.81658 10.4019 9.20711 10.7924L11.2071 12.7924C11.5976 13.1829 11.5976 13.8161 11.2071 14.2066ZM7.20711 16.2066C6.81658 16.5971 6.18342 16.5971 5.79289 16.2066L4.79289 15.2066C4.40237 14.8161 4.40237 14.1829 4.79289 13.7924C5.18342 13.4019 5.81658 13.4019 6.20711 13.7924L7.20711 14.7924C7.59763 15.1829 7.59763 15.8161 7.20711 16.2066Z" fill="#080809" style="fill:#080809;fill:color(display-p3 0.0314 0.0314 0.0353);fill-opacity:1;"/>
</g>
<defs>
<clipPath id="clip0_29901_28049">
<rect width="24" height="24" fill="white" style="fill:white;fill-opacity:1;"/>
</clipPath>
</defs>
</svg>
