<svg width="24" height="24" viewBox="0 0 24 24" fill="none" xmlns="http://www.w3.org/2000/svg">
<path d="M11.9999 9.26373C11.9999 9.26373 12.1188 9.07326 12.4759 8.71612C12.9521 8.23995 13.6906 7.9847 14.3809 8.00071C15.8478 8.03474 17.0221 9.26196 16.9997 10.7399C16.9665 13.0587 14.639 14.9679 12.4971 16.2771C12.1916 16.4638 11.8082 16.4638 11.5027 16.2771C9.36058 14.968 7.0335 13.0598 7.00031 10.7399C6.97794 9.26192 8.15196 8.03474 9.61895 8.00071C10.3092 7.9847 11.0474 8.23995 11.5236 8.71612C11.8807 9.07326 11.9999 9.26373 11.9999 9.26373Z" fill="#080809" style="fill:#080809;fill:color(display-p3 0.0314 0.0314 0.0353);fill-opacity:1;"/>
<path fill-rule="evenodd" clip-rule="evenodd" d="M13.0383 1.5H10.9609C9.60779 1.49998 8.50724 1.49996 7.61684 1.60218C6.68778 1.70883 5.88579 1.93555 5.16957 2.4565C4.45336 2.97745 3.99065 3.67062 3.60304 4.52167C3.23156 5.33731 2.89261 6.38434 2.47589 7.67166L1.81488 9.7135C1.39973 10.9958 1.06204 12.0389 0.885417 12.9144C0.701124 13.8279 0.669307 14.6579 0.941784 15.4975C1.21426 16.337 1.72744 16.9902 2.41307 17.6214C3.07016 18.2263 3.95604 18.8722 5.04511 19.6664L6.74485 20.9058C7.84074 21.705 8.73202 22.3549 9.51345 22.7978C10.3288 23.2599 11.1121 23.5495 11.9996 23.5495C12.8871 23.5495 13.6704 23.2599 14.4857 22.7978C15.2672 22.3549 16.1585 21.705 17.2544 20.9058L18.9541 19.6664C20.0431 18.8722 20.929 18.2263 21.5861 17.6214C22.2717 16.9902 22.7849 16.337 23.0574 15.4975C23.3299 14.6579 23.2981 13.8279 23.1138 12.9144C22.9372 12.0389 22.5995 10.9958 22.1843 9.71351L21.5233 7.67171C21.1066 6.38437 20.7676 5.33732 20.3961 4.52167C20.0085 3.67062 19.5458 2.97745 18.8296 2.4565C18.1134 1.93555 17.3114 1.70883 16.3823 1.60218C15.4919 1.49996 14.3914 1.49998 13.0383 1.5ZM6.34601 4.0739C6.68181 3.82965 7.10754 3.67377 7.84493 3.58913C8.60801 3.50153 9.59351 3.5 11.0201 3.5H12.9791C14.4057 3.5 15.3912 3.50153 16.1543 3.58913C16.8916 3.67377 17.3174 3.82965 17.6532 4.0739C17.989 4.31814 18.2684 4.67517 18.576 5.35064C18.8944 6.04964 19.1994 6.98676 19.6388 8.34404L20.2633 10.2733C20.701 11.6254 21.0019 12.5597 21.1533 13.3099C21.2995 14.0348 21.2829 14.4864 21.1551 14.8801C21.0273 15.2738 20.7756 15.6491 20.2315 16.1499C19.6685 16.6683 18.8763 17.2478 17.728 18.0852L16.124 19.2549C14.9685 20.0974 14.1694 20.6782 13.4996 21.0578C12.8524 21.4246 12.4156 21.5495 11.9996 21.5495C11.5835 21.5495 11.1468 21.4246 10.4996 21.0578C9.8298 20.6782 9.03068 20.0974 7.87524 19.2549L6.27121 18.0852C5.12293 17.2478 4.33068 16.6683 3.76766 16.1499C3.22362 15.6491 2.97188 15.2738 2.8441 14.8801C2.71633 14.4864 2.69969 14.0348 2.84592 13.3099C2.99726 12.5597 3.29814 11.6254 3.73585 10.2733L4.36041 8.34404C4.79981 6.98677 5.10479 6.04964 5.42315 5.35064C5.73079 4.67517 6.01022 4.31814 6.34601 4.0739Z" fill="#080809" style="fill:#080809;fill:color(display-p3 0.0314 0.0314 0.0353);fill-opacity:1;"/>
</svg>
