<svg width="24" height="24" viewBox="0 0 24 24" fill="none" xmlns="http://www.w3.org/2000/svg">
<path fill-rule="evenodd" clip-rule="evenodd" d="M11.6836 0.550317C11.8888 0.481926 12.1112 0.481926 12.3164 0.550317L21.3164 3.55032C21.7245 3.68649 21.9999 4.06833 22 4.49856V13.4986C22 19.0214 17.5228 23.4986 12 23.4986C6.47715 23.4986 2 19.0214 2 13.4986V4.49856C2.0001 4.06833 2.27549 3.68649 2.68359 3.55032L11.6836 0.550317ZM12 7.49954C10.6193 7.49954 9.50003 8.61885 9.5 9.99954C9.50017 10.9436 10.0243 11.7647 10.7969 12.19L10.0312 15.2573C9.95683 15.5559 10.0236 15.8722 10.2129 16.1148C10.4024 16.3572 10.6932 16.4995 11.001 16.4995H13.001C13.3087 16.4995 13.5996 16.3573 13.7891 16.1148C13.9784 15.8722 14.0452 15.5549 13.9707 15.2564L13.2041 12.19C13.9762 11.7646 14.4998 10.9433 14.5 9.99954C14.5 8.61885 13.3807 7.49954 12 7.49954Z" fill="#080809" style="fill:#080809;fill:color(display-p3 0.0314 0.0314 0.0353);fill-opacity:1;"/>
</svg>
