<svg width="24" height="24" viewBox="0 0 24 24" fill="none" xmlns="http://www.w3.org/2000/svg">
<path fill-rule="evenodd" clip-rule="evenodd" d="M11 1C8.23858 1 6 3.23858 6 6C6 8.76142 8.23858 11 11 11C13.7614 11 16 8.76142 16 6C16 3.23858 13.7614 1 11 1ZM8 6C8 4.34315 9.34315 3 11 3C12.6569 3 14 4.34315 14 6C14 7.65685 12.6569 9 11 9C9.34315 9 8 7.65685 8 6Z" fill="#080809" style="fill:#080809;fill:color(display-p3 0.0314 0.0314 0.0353);fill-opacity:1;"/>
<path d="M8.33333 13C4.83553 13 2 15.8355 2 19.3333C2 21.3584 3.64162 23 5.66667 23H12.124C12.6763 23 13.124 22.5523 13.124 22C13.124 21.4477 12.6763 21 12.124 21H5.66667C4.74619 21 4 20.2538 4 19.3333C4 16.9401 5.9401 15 8.33333 15H13.4098C13.9621 15 14.4098 14.5523 14.4098 14C14.4098 13.4477 13.9621 13 13.4098 13H8.33333Z" fill="#080809" style="fill:#080809;fill:color(display-p3 0.0314 0.0314 0.0353);fill-opacity:1;"/>
<path d="M19.9588 14.749C19.3287 14.1193 18.2519 14.5656 18.2519 15.4563V16.9403C17.0556 17.0713 16.138 17.6582 15.5124 18.5114C14.8154 19.4618 14.5 20.7128 14.5 21.9756C14.5 22.4214 14.8643 22.6365 15.102 22.6912C15.3409 22.7461 15.7236 22.711 15.9444 22.378C16.2171 21.9666 16.5516 21.6529 16.9865 21.4374C17.3228 21.2708 17.7356 21.1547 18.2519 21.1088V22.5421C18.2519 23.4332 19.3293 23.8793 19.9592 23.249L23.1487 20.0575C23.7343 19.4715 23.734 18.5218 23.148 17.9362L19.9588 14.749Z" fill="#080809" style="fill:#080809;fill:color(display-p3 0.0314 0.0314 0.0353);fill-opacity:1;"/>
</svg>
