<svg width="12" height="12" viewBox="0 0 12 12" fill="none" xmlns="http://www.w3.org/2000/svg">
<g clip-path="url(#clip0_2661_46848)">
<path fill-rule="evenodd" clip-rule="evenodd" d="M0 6C0 2.68629 2.68629 0 6 0C9.31371 0 12 2.68629 12 6C12 9.31371 9.31371 12 6 12C2.68629 12 0 9.31371 0 6ZM4.50004 7.96482V7.04748C4.50004 6.74511 4.25493 6.5 3.95257 6.5C3.82188 6.5 3.6955 6.45325 3.59627 6.3682L2.10478 5.08978C2.03528 5.03021 1.9743 4.96138 1.92352 4.88522L1.38379 4.07562C2.13761 2.26943 3.92058 1 6.00004 1C6.41658 1 6.82121 1.05093 7.20807 1.14691L6.82123 2.50084C6.77454 2.66425 6.68698 2.81306 6.56681 2.93323L6.22348 3.27656C6.08486 3.41518 6.02913 3.61637 6.07668 3.80655L6.17244 4.1896C6.21186 4.34727 6.09261 4.5 5.93009 4.5C5.82257 4.5 5.72711 4.4312 5.69311 4.32919L5.62504 4.125C5.55039 3.90105 5.34082 3.75 5.10476 3.75H3.94304C3.48677 3.75 3.17094 4.20573 3.33115 4.63296L3.4055 4.83123C3.55458 5.22877 4.08405 5.30466 4.33879 4.965L4.45643 4.80815C4.48389 4.77154 4.52697 4.75 4.57273 4.75C4.66446 4.75 4.73326 4.83392 4.71527 4.92387L4.62504 5.375C4.56038 5.69833 4.80768 6 5.13742 6H6.58583C6.85105 6 7.1054 6.10536 7.29294 6.29289L7.70715 6.70711C7.89469 6.89464 8.14904 7 8.41426 7H8.85965C9.18494 7 9.42362 7.30569 9.34473 7.62127L9.05556 8.77792C9.01902 8.92408 8.94993 9.0601 8.85344 9.17581L7.53155 10.7611C7.04889 10.9162 6.53425 11 6.00004 11V10.0352C6.00004 9.70083 5.83294 9.3886 5.55474 9.20313L4.94534 8.79687C4.66714 8.6114 4.50004 8.29917 4.50004 7.96482Z" fill="#080809" style="fill:#080809;fill:color(display-p3 0.0314 0.0314 0.0353);fill-opacity:1;"/>
</g>
<defs>
<clipPath id="clip0_2661_46848">
<rect width="12" height="12" fill="white" style="fill:white;fill-opacity:1;"/>
</clipPath>
</defs>
</svg>
