<svg width="24" height="24" viewBox="0 0 24 24" fill="none" xmlns="http://www.w3.org/2000/svg">
<path fill-rule="evenodd" clip-rule="evenodd" d="M3.5 2C1.84315 2 0.5 3.34315 0.5 5C0.5 6.65685 1.84315 8 3.5 8C3.82794 8 4.14359 7.94738 4.43897 7.85012L9.47922 14.3728C9.17602 14.8415 9 15.4002 9 16C9 17.6569 10.3431 19 12 19C12.943 19 13.7844 18.5649 14.3343 17.8845L17.5 19.0018C17.501 20.6578 18.8438 22 20.5 22C22.1569 22 23.5 20.6569 23.5 19C23.5 17.3431 22.1569 16 20.5 16C19.5569 16 18.7154 16.4352 18.1654 17.1158L15 15.9986C14.9992 14.3424 13.6564 13 12 13C11.6723 13 11.3568 13.0525 11.0616 13.1497L6.02112 6.62668C6.32411 6.15806 6.5 5.59957 6.5 5C6.5 3.34315 5.15685 2 3.5 2ZM2.5 5C2.5 4.44772 2.94772 4 3.5 4C4.05228 4 4.5 4.44772 4.5 5C4.5 5.55228 4.05228 6 3.5 6C2.94772 6 2.5 5.55228 2.5 5ZM11 16C11 15.4477 11.4477 15 12 15C12.5523 15 13 15.4477 13 16C13 16.5523 12.5523 17 12 17C11.4477 17 11 16.5523 11 16ZM19.5 19C19.5 18.4477 19.9477 18 20.5 18C21.0523 18 21.5 18.4477 21.5 19C21.5 19.5523 21.0523 20 20.5 20C19.9477 20 19.5 19.5523 19.5 19Z" fill="#080809" style="fill:#080809;fill:color(display-p3 0.0314 0.0314 0.0353);fill-opacity:1;"/>
</svg>
