<svg width="24" height="24" viewBox="0 0 24 24" fill="none" xmlns="http://www.w3.org/2000/svg">
<path d="M12 8.5C11.1716 8.5 10.5 9.17157 10.5 10C10.5 10.8284 11.1716 11.5 12 11.5C12.8284 11.5 13.5 10.8284 13.5 10C13.5 9.17157 12.8284 8.5 12 8.5Z" fill="#080809" style="fill:#080809;fill:color(display-p3 0.0314 0.0314 0.0353);fill-opacity:1;"/>
<path fill-rule="evenodd" clip-rule="evenodd" d="M6.5 10C6.5 6.96243 8.96243 4.5 12 4.5C15.0376 4.5 17.5 6.96243 17.5 10C17.5 13.0376 15.0376 15.5 12 15.5C8.96243 15.5 6.5 13.0376 6.5 10ZM12 6.5C10.067 6.5 8.5 8.067 8.5 10C8.5 11.933 10.067 13.5 12 13.5C13.933 13.5 15.5 11.933 15.5 10C15.5 8.067 13.933 6.5 12 6.5Z" fill="#080809" style="fill:#080809;fill:color(display-p3 0.0314 0.0314 0.0353);fill-opacity:1;"/>
<path fill-rule="evenodd" clip-rule="evenodd" d="M11.4572 23.3392L11.4543 23.3373L11.4477 23.3331L11.4256 23.3185C11.4068 23.3061 11.3802 23.2884 11.3463 23.2656C11.2785 23.2198 11.1814 23.1533 11.0591 23.067C10.8145 22.8944 10.4689 22.6422 10.0557 22.3181C9.23097 21.6712 8.1291 20.7318 7.02396 19.5616C4.84667 17.2563 2.50098 13.8909 2.50098 10C2.50098 4.75329 6.75427 0.5 12.001 0.5C17.2477 0.5 21.501 4.75329 21.501 10C21.501 13.8909 19.1553 17.2563 16.978 19.5616C15.8729 20.7318 14.771 21.6712 13.9462 22.3181C13.5331 22.6422 13.1874 22.8944 12.9429 23.067C12.8206 23.1533 12.7234 23.2198 12.6556 23.2656C12.6217 23.2884 12.5951 23.3061 12.5764 23.3185L12.5542 23.3331L12.5477 23.3373L12.5456 23.3387L12.5444 23.337L12.5442 23.3396C12.2136 23.5535 11.7877 23.5531 11.4572 23.3392ZM12.001 2.5C7.85884 2.5 4.50098 5.85786 4.50098 10C4.50098 13.1091 6.40528 15.9937 8.47799 18.1884C9.49786 19.2682 10.521 20.1413 11.29 20.7444C11.5644 20.9596 11.8054 21.1396 12.001 21.2816C12.1966 21.1396 12.4376 20.9596 12.712 20.7444C13.481 20.1413 14.5041 19.2682 15.524 18.1884C17.5967 15.9937 19.501 13.1091 19.501 10C19.501 5.85786 16.1431 2.5 12.001 2.5Z" fill="#080809" style="fill:#080809;fill:color(display-p3 0.0314 0.0314 0.0353);fill-opacity:1;"/>
</svg>
