<svg width="24" height="24" viewBox="0 0 24 24" fill="none" xmlns="http://www.w3.org/2000/svg">
<path d="M6 6C6 3.23858 8.23858 1 11 1C13.7614 1 16 3.23858 16 6C16 8.76142 13.7614 11 11 11C8.23858 11 6 8.76142 6 6Z" fill="#080809" style="fill:#080809;fill:color(display-p3 0.0314 0.0314 0.0353);fill-opacity:1;"/>
<path d="M2 19.3333C2 15.8355 4.83553 13 8.33333 13H13.4098C13.8042 13 14.1617 13.2318 14.3227 13.5919C14.4837 13.952 14.4179 14.373 14.1549 14.6669C13.125 15.8176 12.5 17.3346 12.5 19C12.5 19.9263 12.6931 20.8048 13.0404 21.5996C13.1755 21.9088 13.1456 22.2652 12.9608 22.5476C12.7761 22.8299 12.4614 23 12.1241 23H5.66667C3.64162 23 2 21.3584 2 19.3333Z" fill="#080809" style="fill:#080809;fill:color(display-p3 0.0314 0.0314 0.0353);fill-opacity:1;"/>
<path d="M23.2071 17.7071C23.5976 17.3166 23.5976 16.6834 23.2071 16.2929C22.8166 15.9024 22.1834 15.9024 21.7929 16.2929L17.8536 20.2322C17.6583 20.4275 17.3417 20.4275 17.1464 20.2322L16.2071 19.2929C15.8166 18.9024 15.1834 18.9024 14.7929 19.2929C14.4024 19.6834 14.4024 20.3166 14.7929 20.7071L15.7322 21.6464C16.7085 22.6228 18.2915 22.6228 19.2678 21.6464L23.2071 17.7071Z" fill="#080809" style="fill:#080809;fill:color(display-p3 0.0314 0.0314 0.0353);fill-opacity:1;"/>
</svg>
