<svg width="24" height="24" viewBox="0 0 24 24" fill="none" xmlns="http://www.w3.org/2000/svg">
<path d="M6.16577 17.0002H19.646C20.9917 17.0002 21.9533 15.6982 21.5576 14.4121L20.0463 9.50024L21.5576 4.58842C21.9533 3.30231 20.9917 2.00024 19.646 2.00024H3.02345C2.96573 1.99897 2.90712 2.00269 2.84808 2.01177C2.61093 2.04825 2.40613 2.16527 2.25722 2.33071C2.25176 2.33677 2.24637 2.34291 2.24104 2.34911C2.18756 2.41146 2.14249 2.4795 2.10632 2.55153C2.03785 2.68768 1.9999 2.84043 2 2.99954C1.99997 3.05033 2.0038 3.10139 2.01164 3.1523L4.01164 16.1523C4.01251 16.158 4.01344 16.1637 4.01441 16.1694L5.01177 22.6522C5.09575 23.1981 5.60634 23.5725 6.1522 23.4885C6.69806 23.4045 7.07249 22.8939 6.98851 22.3481L6.16577 17.0002Z" fill="#080809" style="fill:#080809;fill:color(display-p3 0.0314 0.0314 0.0353);fill-opacity:1;"/>
</svg>
