<svg width="24" height="24" viewBox="0 0 24 24" fill="none" xmlns="http://www.w3.org/2000/svg">
<path fill-rule="evenodd" clip-rule="evenodd" d="M2 2C1.44772 2 1 2.44772 1 3C1 3.55228 1.44772 4 2 4H3.87868C4.01129 4 4.13846 4.05268 4.23223 4.14645L5 4.91421V13.5C5 15.7092 6.79086 17.5 9 17.5H14.3787C16.6059 17.5 17.7214 14.8072 16.1464 13.2323L7.2117 4.29751C7.21017 4.29597 7.20864 4.29443 7.20711 4.29289L5.64645 2.73223C5.17761 2.26339 4.54172 2 3.87868 2H2ZM7 6.91424V13.5C7 14.6046 7.89543 15.5 9 15.5H14.3787C14.8241 15.5 15.0472 14.9615 14.7322 14.6465L7 6.91424Z" fill="#080809" style="fill:#080809;fill:color(display-p3 0.0314 0.0314 0.0353);fill-opacity:1;"/>
<path d="M7 23C8.10457 23 9 22.1046 9 21C9 19.8954 8.10457 19 7 19C5.89543 19 5 19.8954 5 21C5 22.1046 5.89543 23 7 23Z" fill="#080809" style="fill:#080809;fill:color(display-p3 0.0314 0.0314 0.0353);fill-opacity:1;"/>
<path d="M18 23C19.1046 23 20 22.1046 20 21C20 19.8954 19.1046 19 18 19C16.8954 19 16 19.8954 16 21C16 22.1046 16.8954 23 18 23Z" fill="#080809" style="fill:#080809;fill:color(display-p3 0.0314 0.0314 0.0353);fill-opacity:1;"/>
</svg>
