<svg width="24" height="24" viewBox="0 0 24 24" fill="none" xmlns="http://www.w3.org/2000/svg">
<path fill-rule="evenodd" clip-rule="evenodd" d="M8.30369 0.519612C7.76213 0.627924 7.41091 1.15475 7.51923 1.69631L7.90516 3.62599C6.28167 4.59519 5.03038 6.12322 4.41684 7.94452C3.78916 7.57597 3.19063 7.16304 2.62551 6.71002C2.19459 6.36458 1.56523 6.43388 1.21979 6.8648C0.874351 7.29572 0.943647 7.92508 1.37457 8.27052C2.19554 8.92864 3.07905 9.5122 4.01471 10.0109C4.00495 10.1727 4 10.3358 4 10.5V12H2C1.44772 12 1 12.4477 1 13C1 13.5523 1.44772 14 2 14H4V15.5C4 15.6641 4.00494 15.8271 4.01468 15.9887C3.08376 16.4849 2.20446 17.0651 1.387 17.7192C0.955767 18.0642 0.885891 18.6935 1.23093 19.1248C1.57597 19.556 2.20527 19.6259 2.63651 19.2808C3.19836 18.8313 3.79317 18.4213 4.41673 18.0552C5.48286 21.2204 8.47522 23.5 12 23.5C15.5248 23.5 18.5173 21.2204 19.5833 18.055C20.207 18.4212 20.8019 18.8312 21.3639 19.2808C21.7951 19.6259 22.4244 19.556 22.7695 19.1248C23.1145 18.6935 23.0446 18.0642 22.6134 17.7192C21.7958 17.065 20.9164 16.4848 19.9853 15.9885C19.9951 15.8269 20 15.664 20 15.5V14H22C22.5523 14 23 13.5523 23 13C23 12.4477 22.5523 12 22 12H20V10.5C20 10.3358 19.9951 10.1727 19.9853 10.0109C20.921 9.51223 21.8045 8.92865 22.6255 8.27052C23.0564 7.92508 23.1257 7.29572 22.7803 6.8648C22.4348 6.43388 21.8055 6.36458 21.3746 6.71002C20.8094 7.16306 20.2109 7.576 19.5832 7.94456C18.9696 6.12324 17.7183 4.5952 16.0948 3.62599L16.4808 1.69631C16.5891 1.15475 16.2379 0.627924 15.6963 0.519612C15.1547 0.4113 14.6279 0.762517 14.5196 1.30408L14.2181 2.8115C13.5138 2.60867 12.7696 2.5 12 2.5C11.2304 2.5 10.4862 2.60867 9.78187 2.8115L9.48039 1.30408C9.37208 0.762517 8.84525 0.4113 8.30369 0.519612ZM12.0001 10C14.0466 10 15.9953 9.5907 17.7706 8.85012C17.0542 6.33886 14.7411 4.5 12.0001 4.5C9.25901 4.5 6.94593 6.33886 6.22949 8.85012C8.00477 9.5907 9.95352 10 12.0001 10ZM12 13.5C12.5523 13.5 13 13.9477 13 14.5V19C13 19.5523 12.5523 20 12 20C11.4477 20 11 19.5523 11 19V14.5C11 13.9477 11.4477 13.5 12 13.5Z" fill="#080809" style="fill:#080809;fill:color(display-p3 0.0314 0.0314 0.0353);fill-opacity:1;"/>
</svg>
