<svg width="24" height="24" viewBox="0 0 24 24" fill="none" xmlns="http://www.w3.org/2000/svg">
<path fill-rule="evenodd" clip-rule="evenodd" d="M14.501 0.5C9.53041 0.5 5.50098 4.52944 5.50098 9.5C5.50098 14.4706 9.53041 18.5 14.501 18.5C19.4715 18.5 23.501 14.4706 23.501 9.5C23.501 4.52944 19.4715 0.5 14.501 0.5ZM14.4989 4.66797C14.1136 4.66797 13.8013 4.98042 13.8014 5.36575L13.8016 5.8154C13.8019 6.38849 13.6686 6.95375 13.4123 7.46634L13.1267 8.03754C12.9403 8.41032 12.8433 8.82137 12.8433 9.23815V12.7219C12.8433 13.0396 13.1008 13.2972 13.4185 13.2972H16.4131C17.4771 13.2972 18.4023 12.5677 18.6506 11.5331L19.1078 9.62823C19.3393 8.66356 18.6081 7.73613 17.6161 7.73613H15.8206C15.7648 7.73613 15.7196 7.69094 15.7196 7.6352V5.88871C15.7196 5.21451 15.1731 4.66797 14.4989 4.66797ZM10.0996 9.26704C10.0996 8.84342 10.443 8.5 10.8666 8.5H11.6337C11.8455 8.5 12.0172 8.67171 12.0172 8.88352V12.9105C12.0172 13.1223 11.8455 13.294 11.6337 13.294H10.8666C10.443 13.294 10.0996 12.9506 10.0996 12.527V9.26704Z" fill="#080809" style="fill:#080809;fill:color(display-p3 0.0314 0.0314 0.0353);fill-opacity:1;"/>
<path d="M4.00098 9.49975C4.00098 8.70392 4.08952 7.92876 4.25728 7.18359C1.98206 8.8169 0.5 11.4852 0.5 14.4998C0.5 19.4703 4.52944 23.4998 9.5 23.4998C12.5139 23.4998 15.1817 22.0183 16.8151 19.7439C16.0706 19.9114 15.2961 19.9998 14.501 19.9998C8.70199 19.9998 4.00098 15.2987 4.00098 9.49975Z" fill="#080809" style="fill:#080809;fill:color(display-p3 0.0314 0.0314 0.0353);fill-opacity:1;"/>
</svg>
