<svg width="24" height="24" viewBox="0 0 24 24" fill="none" xmlns="http://www.w3.org/2000/svg">
<path fill-rule="evenodd" clip-rule="evenodd" d="M23.1353 1.78742L22.242 0.894331C21.6562 0.308571 20.7064 0.308674 20.1206 0.89456L19.052 1.96347C18.6883 2.32729 18.5954 2.85932 18.7732 3.30909L15.1232 6.95919L14.8637 6.69973C13.0501 4.88609 9.98772 5.4129 8.88439 7.72833C8.64852 8.22333 8.19008 8.57562 7.65105 8.67611L6.09806 8.96562C4.92885 9.18359 3.853 9.75034 3.01201 10.5913C0.329328 13.274 0.329334 17.6235 3.01201 20.3062L3.76328 21.0574C6.44595 23.7401 10.7954 23.7401 13.4781 21.0574C14.3191 20.2164 14.8859 19.1406 15.1038 17.9714L15.3933 16.4184C15.4938 15.8794 15.8461 15.4209 16.3411 15.1851C18.6565 14.0817 19.1834 11.0194 17.3697 9.20572L17.0708 8.90679L20.7208 5.25677C21.1707 5.43462 21.7028 5.34161 22.0666 4.97775L23.1354 3.90875C23.7212 3.32292 23.7211 2.37317 23.1353 1.78742ZM13.0549 14.0236C12.1762 14.9023 10.7516 14.9023 9.87288 14.0236C8.9942 13.1449 8.9942 11.7203 9.87288 10.8416C10.7516 9.96295 12.1762 9.96295 13.0549 10.8416C13.9335 11.7203 13.9335 13.1449 13.0549 14.0236ZM6.58149 14.9182C6.87438 14.6253 7.34925 14.6253 7.64215 14.9182L9.15079 16.4268C9.44369 16.7197 9.44369 17.1946 9.15079 17.4875C8.8579 17.7804 8.38303 17.7804 8.09013 17.4875L6.58149 15.9788C6.28859 15.6859 6.28859 15.2111 6.58149 14.9182Z" fill="#080809" style="fill:#080809;fill:color(display-p3 0.0314 0.0314 0.0353);fill-opacity:1;"/>
</svg>
