<svg width="24" height="24" viewBox="0 0 24 24" fill="none" xmlns="http://www.w3.org/2000/svg">
<g clip-path="url(#clip0_29901_26740)">
<path d="M12.2217 6C13.9498 6 15.6715 6.78385 16.668 8.19531L16.8574 8.48535L16.9053 8.57617C17.1207 9.03484 16.9585 9.59102 16.5146 9.85742C16.0706 10.1238 15.5026 10.0057 15.1992 9.59961L15.1426 9.51465L15.0342 9.34863C14.4576 8.53496 13.3905 8 12.2217 8C10.2193 8.0002 8.5 9.73633 8.5 12C8.5 14.2637 10.2193 15.9998 12.2217 16C13.4682 16 14.599 15.3914 15.1426 14.4854C15.4268 14.0119 16.0411 13.8585 16.5146 14.1426C16.9881 14.4268 17.1415 15.0411 16.8574 15.5146C15.901 17.1085 14.0649 18 12.2217 18C9.00854 17.9998 6.5 15.2589 6.5 12C6.5 8.74107 9.00854 6.0002 12.2217 6Z" fill="#080809" style="fill:#080809;fill:color(display-p3 0.0314 0.0314 0.0353);fill-opacity:1;"/>
<path fill-rule="evenodd" clip-rule="evenodd" d="M12 0.5C18.3513 0.5 23.5 5.64873 23.5 12C23.5 18.3513 18.3513 23.5 12 23.5C5.64873 23.5 0.5 18.3513 0.5 12C0.5 5.64873 5.64873 0.5 12 0.5ZM12 2.5C6.75329 2.5 2.5 6.75329 2.5 12C2.5 17.2467 6.75329 21.5 12 21.5C17.2467 21.5 21.5 17.2467 21.5 12C21.5 6.75329 17.2467 2.5 12 2.5Z" fill="#080809" style="fill:#080809;fill:color(display-p3 0.0314 0.0314 0.0353);fill-opacity:1;"/>
</g>
<defs>
<clipPath id="clip0_29901_26740">
<rect width="24" height="24" fill="white" style="fill:white;fill-opacity:1;"/>
</clipPath>
</defs>
</svg>
