<svg width="24" height="24" viewBox="0 0 24 24" fill="none" xmlns="http://www.w3.org/2000/svg">
<path d="M5.70711 3.2929C5.31659 2.90237 4.68342 2.90237 4.2929 3.29289C3.90237 3.68341 3.90237 4.31658 4.29289 4.7071C5.18504 5.59926 6.07706 6.48857 6.96845 7.37726C8.39447 8.79895 9.81907 10.2192 11.2399 11.6469C11.4325 11.8404 11.4329 12.1542 11.2384 12.3488C9.81829 13.7702 8.39754 15.1902 6.97646 16.6104L6.97329 16.6136C6.07992 17.5064 5.18642 18.3994 4.29289 19.2929C3.90237 19.6834 3.90237 20.3166 4.2929 20.7071C4.68342 21.0976 5.31659 21.0976 5.70711 20.7071C6.59811 19.8161 7.48968 18.9251 8.38138 18.0339L8.38764 18.0276C9.8098 16.6063 11.2323 15.1847 12.6533 13.7624C13.6253 12.7894 13.6292 11.2124 12.6575 10.2361C11.2349 8.80665 9.80461 7.38067 8.37594 5.95633C7.48508 5.06817 6.59443 4.18022 5.70711 3.2929Z" fill="#080809" style="fill:#080809;fill:color(display-p3 0.0314 0.0314 0.0353);fill-opacity:1;"/>
<path d="M13.7071 3.2929C13.3166 2.90237 12.6834 2.90237 12.2929 3.29289C11.9024 3.68341 11.9024 4.31658 12.2929 4.7071C13.1851 5.59931 14.0771 6.48866 14.9686 7.3774C16.3945 8.79903 17.8191 10.2193 19.2399 11.6469C19.4325 11.8404 19.4329 12.1542 19.2384 12.3488C17.8191 13.7695 16.3991 15.1886 14.9788 16.608L14.9747 16.6121C14.0809 17.5055 13.1869 18.3989 12.2929 19.2929C11.9024 19.6834 11.9024 20.3166 12.2929 20.7071C12.6834 21.0976 13.3166 21.0976 13.7071 20.7071C14.6001 19.8141 15.4936 18.9211 16.3873 18.028C17.8094 16.6067 19.2323 15.1847 20.6533 13.7624C21.6253 12.7894 21.6292 11.2124 20.6575 10.2361C19.2349 8.80665 17.8046 7.38067 16.3759 5.95633C15.485 5.06813 14.5945 4.18027 13.7071 3.2929Z" fill="#080809" style="fill:#080809;fill:color(display-p3 0.0314 0.0314 0.0353);fill-opacity:1;"/>
</svg>
