<svg width="24" height="24" viewBox="0 0 24 24" fill="none" xmlns="http://www.w3.org/2000/svg">
<path fill-rule="evenodd" clip-rule="evenodd" d="M14.874 1C12.7401 1 10.76 2.11052 9.64729 3.93134L2.88311 15H9.99951C10.5518 15 10.9995 15.4477 10.9995 16C10.9995 16.5523 10.5518 17 9.99951 17H1.66089L0.611103 18.7178C0.000278383 19.7174 0.719632 21 1.89103 21H7.99951V22.5C7.99951 23.0523 8.44723 23.5 8.99951 23.5C9.5518 23.5 9.99951 23.0523 9.99951 22.5V21C10.6825 21 11.351 20.9378 11.9995 20.8186V22.5C11.9995 23.0523 12.4472 23.5 12.9995 23.5C13.5518 23.5 13.9995 23.0523 13.9995 22.5V20.2501C18.0969 18.65 20.9995 14.664 20.9995 10V9.11804L22.9467 8.14443C23.2855 7.97504 23.4995 7.62877 23.4995 7.25C23.4995 6.87123 23.2855 6.52497 22.9467 6.35557L20.7016 5.23299C19.9043 2.77619 17.5966 1 14.874 1ZM16.9995 6.5C16.9995 7.32843 16.3279 8 15.4995 8C14.6711 8 13.9995 7.32843 13.9995 6.5C13.9995 5.67157 14.6711 5 15.4995 5C16.3279 5 16.9995 5.67157 16.9995 6.5Z" fill="#080809" style="fill:#080809;fill:color(display-p3 0.0314 0.0314 0.0353);fill-opacity:1;"/>
</svg>
