<svg width="24" height="24" viewBox="0 0 24 24" fill="none" xmlns="http://www.w3.org/2000/svg">
<path fill-rule="evenodd" clip-rule="evenodd" d="M6 6C6 3.23858 8.23858 1 11 1C13.7614 1 16 3.23858 16 6C16 8.76142 13.7614 11 11 11C8.23858 11 6 8.76142 6 6ZM11 3C9.34315 3 8 4.34315 8 6C8 7.65685 9.34315 9 11 9C12.6569 9 14 7.65685 14 6C14 4.34315 12.6569 3 11 3Z" fill="#080809" style="fill:#080809;fill:color(display-p3 0.0314 0.0314 0.0353);fill-opacity:1;"/>
<path d="M2 19.3333C2 15.8355 4.83553 13 8.33333 13H13.4098C13.9621 13 14.4098 13.4477 14.4098 14C14.4098 14.5523 13.9621 15 13.4098 15H8.33333C5.9401 15 4 16.9401 4 19.3333C4 20.2538 4.74619 21 5.66667 21H12.124C12.6763 21 13.124 21.4477 13.124 22C13.124 22.5523 12.6763 23 12.124 23H5.66667C3.64162 23 2 21.3584 2 19.3333Z" fill="#080809" style="fill:#080809;fill:color(display-p3 0.0314 0.0314 0.0353);fill-opacity:1;"/>
<path d="M23.2071 17.7071C23.5976 17.3166 23.5976 16.6834 23.2071 16.2929C22.8166 15.9024 22.1834 15.9024 21.7929 16.2929L17.8536 20.2322C17.6583 20.4275 17.3417 20.4275 17.1464 20.2322L16.2071 19.2929C15.8166 18.9024 15.1834 18.9024 14.7929 19.2929C14.4024 19.6834 14.4024 20.3166 14.7929 20.7071L15.7322 21.6464C16.7085 22.6228 18.2915 22.6228 19.2678 21.6464L23.2071 17.7071Z" fill="#080809" style="fill:#080809;fill:color(display-p3 0.0314 0.0314 0.0353);fill-opacity:1;"/>
</svg>
