<svg width="24" height="24" viewBox="0 0 24 24" fill="none" xmlns="http://www.w3.org/2000/svg">
<path d="M6.5 2C5.11929 2 4 3.11929 4 4.5V6.02746C6.24998 6.27619 8 8.18372 8 10.5V12H16V10.5C16 8.18372 17.75 6.27619 20 6.02746V4.5C20 3.11929 18.8807 2 17.5 2H6.5Z" fill="#080809" style="fill:#080809;fill:color(display-p3 0.0314 0.0314 0.0353);fill-opacity:1;"/>
<path d="M20.5 8C19.1193 8 18 9.11929 18 10.5V13C18 13.5523 17.5523 14 17 14H7C6.44772 14 6 13.5523 6 13V10.5C6 9.11929 4.88071 8 3.5 8C2.11929 8 1 9.11929 1 10.5V16.5C1 17.8807 2.11929 19 3.5 19H4V21C4 21.5523 4.44772 22 5 22C5.55228 22 6 21.5523 6 21V19H18V21C18 21.5523 18.4477 22 19 22C19.5523 22 20 21.5523 20 21V19H20.5C21.8807 19 23 17.8807 23 16.5V10.5C23 9.11929 21.8807 8 20.5 8Z" fill="#080809" style="fill:#080809;fill:color(display-p3 0.0314 0.0314 0.0353);fill-opacity:1;"/>
</svg>
