<svg width="24" height="24" viewBox="0 0 24 24" fill="none" xmlns="http://www.w3.org/2000/svg">
<path d="M13 2C13 1.44772 12.5523 1 12 1C11.4477 1 11 1.44772 11 2V4.99999C11 5.55228 11.4477 5.99999 12 5.99999C12.5523 5.99999 13 5.55228 13 4.99999V2Z" fill="#080809" style="fill:#080809;fill:color(display-p3 0.0314 0.0314 0.0353);fill-opacity:1;"/>
<path d="M2 11C1.44772 11 1 11.4477 1 12C1 12.5523 1.44772 13 2 13H5C5.55228 13 6 12.5523 6 12C6 11.4477 5.55228 11 5 11H2Z" fill="#080809" style="fill:#080809;fill:color(display-p3 0.0314 0.0314 0.0353);fill-opacity:1;"/>
<path d="M22 13C22.5523 13 23 12.5523 23 12C23 11.4477 22.5523 11 22 11H19C18.4477 11 18 11.4477 18 12C18 12.5523 18.4477 13 19 13H22Z" fill="#080809" style="fill:#080809;fill:color(display-p3 0.0314 0.0314 0.0353);fill-opacity:1;"/>
<path d="M12 23C11.4477 23 11 22.5523 11 22V19C11 18.4477 11.4477 18 12 18C12.5523 18 13 18.4477 13 19V22C13 22.5523 12.5523 23 12 23Z" fill="#080809" style="fill:#080809;fill:color(display-p3 0.0314 0.0314 0.0353);fill-opacity:1;"/>
<path d="M20.4578 3.54363C20.8483 3.93421 20.8482 4.56737 20.4576 4.95784L16.9216 8.49289C16.531 8.88336 15.8979 8.88327 15.5074 8.49269C15.1169 8.10212 15.117 7.46895 15.5076 7.07848L19.0436 3.54343C19.4342 3.15296 20.0674 3.15305 20.4578 3.54363Z" fill="#080809" style="fill:#080809;fill:color(display-p3 0.0314 0.0314 0.0353);fill-opacity:1;"/>
<path d="M3.54304 19.043C3.15252 19.4336 3.15252 20.0667 3.54304 20.4573C3.93357 20.8478 4.56673 20.8478 4.95726 20.4573L8.49279 16.9217C8.88332 16.5312 8.88332 15.898 8.49279 15.5075C8.10227 15.117 7.4691 15.117 7.07858 15.5075L3.54304 19.043Z" fill="#080809" style="fill:#080809;fill:color(display-p3 0.0314 0.0314 0.0353);fill-opacity:1;"/>
<path d="M3.54304 3.54304C3.93357 3.15252 4.56673 3.15252 4.95726 3.54304L8.49279 7.07858C8.88332 7.4691 8.88332 8.10227 8.49279 8.49279C8.10227 8.88332 7.4691 8.88332 7.07858 8.49279L3.54304 4.95726C3.15252 4.56673 3.15252 3.93357 3.54304 3.54304Z" fill="#080809" style="fill:#080809;fill:color(display-p3 0.0314 0.0314 0.0353);fill-opacity:1;"/>
<path d="M19.043 20.4573C19.4336 20.8478 20.0667 20.8478 20.4573 20.4573C20.8478 20.0667 20.8478 19.4336 20.4573 19.043L16.9217 15.5075C16.5312 15.117 15.898 15.117 15.5075 15.5075C15.117 15.898 15.117 16.5312 15.5075 16.9217L19.043 20.4573Z" fill="#080809" style="fill:#080809;fill:color(display-p3 0.0314 0.0314 0.0353);fill-opacity:1;"/>
</svg>
