<svg width="24" height="24" viewBox="0 0 24 24" fill="none" xmlns="http://www.w3.org/2000/svg">
<path d="M20 7.5C20 8.05229 19.5523 8.5 19 8.5C18.4477 8.5 18 8.05229 18 7.5C18 6.94772 18.4477 6.5 19 6.5C19.5523 6.5 20 6.94772 20 7.5Z" fill="#080809" style="fill:#080809;fill:color(display-p3 0.0314 0.0314 0.0353);fill-opacity:1;"/>
<path d="M19 12C19.5523 12 20 11.5523 20 11C20 10.4477 19.5523 10 19 10C18.4477 10 18 10.4477 18 11C18 11.5523 18.4477 12 19 12Z" fill="#080809" style="fill:#080809;fill:color(display-p3 0.0314 0.0314 0.0353);fill-opacity:1;"/>
<path fill-rule="evenodd" clip-rule="evenodd" d="M19 19V20C19 20.5523 19.4477 21 20 21C20.5523 21 21 20.5523 21 20V18.9585C22.4189 18.7205 23.5 17.4865 23.5 16V6C23.5 4.34315 22.1569 3 20.5 3L3.5 3C1.84315 3 0.5 4.34315 0.5 6L0.5 16C0.500001 17.4865 1.58114 18.7205 3 18.9585V20C3 20.5523 3.44772 21 4 21C4.55229 21 5 20.5523 5 20V19H19ZM16.5 17H20.5C21.0523 17 21.5 16.5523 21.5 16V6C21.5 5.44771 21.0523 5 20.5 5H16.5V17ZM14.5 5V17H3.5C2.94772 17 2.5 16.5523 2.5 16L2.5 6C2.5 5.44772 2.94772 5 3.5 5L14.5 5Z" fill="#080809" style="fill:#080809;fill:color(display-p3 0.0314 0.0314 0.0353);fill-opacity:1;"/>
</svg>
