<svg width="24" height="24" viewBox="0 0 24 24" fill="none" xmlns="http://www.w3.org/2000/svg">
<path fill-rule="evenodd" clip-rule="evenodd" d="M16.5706 3H7.42943C6.07535 2.99997 4.95868 2.99994 4.07494 3.11876C3.14711 3.2435 2.32769 3.51547 1.67158 4.17158C1.01547 4.82769 0.7435 5.64711 0.618757 6.57494C0.499941 7.45868 0.499968 8.57527 0.500001 9.92936V14.0706C0.499968 15.4247 0.499941 16.5413 0.618757 17.4251C0.7435 18.3529 1.01547 19.1723 1.67158 19.8284C2.32769 20.4845 3.14711 20.7565 4.07494 20.8813C4.95868 21.0001 6.07527 21 7.42935 21H16.5706C17.9246 21 19.0413 21.0001 19.9251 20.8813C20.8529 20.7565 21.6723 20.4845 22.3284 19.8284C22.9845 19.1723 23.2565 18.3529 23.3813 17.4251C23.5001 16.5413 23.5 15.4247 23.5 14.0707V9.92946C23.5 8.57538 23.5001 7.45868 23.3813 6.57494C23.2565 5.64711 22.9845 4.82769 22.3284 4.17158C21.6723 3.51547 20.8529 3.2435 19.9251 3.11876C19.0413 2.99994 17.9247 2.99997 16.5706 3ZM13 10C13 9.44772 13.4477 9 14 9H19C19.5523 9 20 9.44772 20 10C20 10.5523 19.5523 11 19 11H14C13.4477 11 13 10.5523 13 10ZM14 13C13.4477 13 13 13.4477 13 14C13 14.5523 13.4477 15 14 15H17C17.5523 15 18 14.5523 18 14C18 13.4477 17.5523 13 17 13H14ZM8 8C5.79086 8 4 9.79086 4 12C4 14.2091 5.79086 16 8 16C10.2091 16 12 14.2091 12 12C12 9.79086 10.2091 8 8 8Z" fill="#080809" style="fill:#080809;fill:color(display-p3 0.0314 0.0314 0.0353);fill-opacity:1;"/>
</svg>
