<svg width="24" height="24" viewBox="0 0 24 24" fill="none" xmlns="http://www.w3.org/2000/svg">
<path d="M6.61732 14.9239C6.24364 14.7691 6 14.4044 6 14V9.99998C6 9.59551 6.24364 9.23088 6.61732 9.0761C6.99099 8.92132 7.42111 9.00687 7.7071 9.29287L9.7071 11.2929C10.0976 11.6834 10.0976 12.3166 9.7071 12.7071L7.7071 14.7071C7.42111 14.9931 6.99099 15.0786 6.61732 14.9239Z" fill="#080809" style="fill:#080809;fill:color(display-p3 0.0314 0.0314 0.0353);fill-opacity:1;"/>
<path fill-rule="evenodd" clip-rule="evenodd" d="M13 23.0034V22.9995C12.7005 23 12.3921 23 12.0748 23H11.9252C9.63165 23 7.80859 23 6.38039 22.808C4.90794 22.6101 3.70636 22.1916 2.75736 21.2426C1.80836 20.2936 1.38994 19.0921 1.19198 17.6196C0.99996 16.1914 0.999978 14.3684 1 12.0748V11.9252C0.999978 9.63166 0.99996 7.8086 1.19198 6.3804C1.38994 4.90794 1.80836 3.70637 2.75736 2.75736C3.70636 1.80836 4.90794 1.38995 6.38039 1.19198C7.8086 0.999964 9.63167 0.999981 11.9252 1H12.0748C12.3921 1 12.7005 0.999998 13 1.0005V0.996826L13.7744 1.00339C14.3198 1.00686 14.8334 1.01385 15.3166 1.02798C16.1782 1.05317 16.9432 1.10104 17.6196 1.19198C19.0921 1.38995 20.2936 1.80836 21.2426 2.75736C22.1916 3.70637 22.6101 4.90794 22.808 6.3804C23 7.8086 23 9.63167 23 11.9252V12.0748C23 13.2619 23 14.323 22.9734 15.2685C22.9486 16.1498 22.9007 16.9307 22.808 17.6197C22.6101 19.0922 22.1916 20.2938 21.2426 21.2428C20.441 22.0444 19.4564 22.4696 18.2746 22.7011C17.1207 22.9271 15.7116 22.9804 14.0085 22.9949L13 23.0034ZM13 3.00066C12.6809 3.00005 12.3479 3 12 3C9.61471 3 7.92634 3.00213 6.64689 3.17414C5.39621 3.34229 4.68704 3.65611 4.17157 4.17158C3.65611 4.68704 3.34229 5.39621 3.17414 6.64689C3.00213 7.92634 3 9.61471 3 12C3 14.3853 3.00213 16.0737 3.17414 17.3531C3.34229 18.6038 3.65611 19.313 4.17157 19.8284C4.68704 20.3439 5.39621 20.6577 6.64689 20.8259C7.92634 20.9979 9.61471 21 12 21C12.3479 21 12.6809 21 13 20.9993V3.00066ZM19.5 14C19.5 14.5523 19.0523 15 18.5 15H17.5C16.9477 15 16.5 14.5523 16.5 14C16.5 13.4477 16.9477 13 17.5 13H18.5C19.0523 13 19.5 13.4477 19.5 14ZM18.5 11C19.0523 11 19.5 10.5523 19.5 10C19.5 9.44772 19.0523 9.00001 18.5 9.00001H17.5C16.9477 9.00001 16.5 9.44772 16.5 10C16.5 10.5523 16.9477 11 17.5 11H18.5Z" fill="#080809" style="fill:#080809;fill:color(display-p3 0.0314 0.0314 0.0353);fill-opacity:1;"/>
</svg>
