<svg width="24" height="24" viewBox="0 0 24 24" fill="none" xmlns="http://www.w3.org/2000/svg">
<path d="M12.9294 0.500001H15.0706C16.4247 0.499967 17.5413 0.499939 18.4251 0.618756C19.3529 0.743499 20.1723 1.01547 20.8284 1.67158C21.4845 2.32769 21.7565 3.14711 21.8813 4.07494C22.0001 4.9587 22 6.07531 22 7.42943V13.0706C22 14.4247 22.0001 15.5413 21.8813 16.4251C21.7565 17.3529 21.4845 18.1723 20.8284 18.8284C20.1723 19.4845 19.3529 19.7565 18.4251 19.8813C17.5413 20.0001 16.4247 20 15.0706 20H12.9295C11.5753 20 10.4587 20.0001 9.57494 19.8813C8.64711 19.7565 7.82769 19.4845 7.17158 18.8284C6.51547 18.1723 6.2435 17.3529 6.11876 16.4251C5.99994 15.5413 5.99997 14.4247 6 13.0706L6 7.42943C5.99997 6.07531 5.99994 4.9587 6.11876 4.07494C6.2435 3.14711 6.51547 2.32769 7.17158 1.67158C7.82768 1.01547 8.64711 0.743499 9.57494 0.618756C10.4587 0.499939 11.5753 0.499967 12.9294 0.500001Z" fill="#080809" style="fill:#080809;fill:color(display-p3 0.0314 0.0314 0.0353);fill-opacity:1;"/>
<path d="M4.5 9C4.5 8.44772 4.05229 8 3.5 8C2.94772 8 2.5 8.44772 2.5 9L2.5 16.5706C2.49997 17.9247 2.49994 19.0413 2.61876 19.9251C2.7435 20.8529 3.01547 21.6723 3.67158 22.3284C4.32769 22.9845 5.14711 23.2565 6.07494 23.3813C6.9587 23.5001 8.07531 23.5 9.42943 23.5L14 23.5C14.5523 23.5 15 23.0523 15 22.5C15 21.9477 14.5523 21.5 14 21.5H9.5C8.05752 21.5 7.07626 21.4979 6.34144 21.3991C5.63538 21.3042 5.30836 21.1368 5.08579 20.9142C4.86322 20.6916 4.69585 20.3646 4.60092 19.6586C4.50213 18.9237 4.5 17.9425 4.5 16.5V9Z" fill="#080809" style="fill:#080809;fill:color(display-p3 0.0314 0.0314 0.0353);fill-opacity:1;"/>
</svg>
