<svg width="24" height="24" viewBox="0 0 24 24" fill="none" xmlns="http://www.w3.org/2000/svg">
<path fill-rule="evenodd" clip-rule="evenodd" d="M15.9142 1.99995C14.6543 0.740024 12.5 1.63235 12.5 3.41417V6H7.5C3.63401 6 0.5 9.13401 0.5 13V18C0.5 20.7614 2.73858 23 5.5 23H6C6.55228 23 7 22.5523 7 22C7 21.4477 6.55228 21 6 21H5.5C3.84327 21 2.5002 19.6571 2.5 18.0004C3.33566 18.6281 4.37439 19 5.5 19H22.5C23.0523 19 23.5 18.5523 23.5 18C23.5 17.4477 23.0523 17 22.5 17H12V16C12 13.2386 9.76142 11 7 11C6.44772 11 6 11.4477 6 12C6 12.5523 6.44772 13 7 13C8.65685 13 10 14.3431 10 16V17H5.5C3.84315 17 2.5 15.6569 2.5 14V13C2.5 10.2386 4.73858 8 7.5 8H12.5224C12.7751 10.8032 15.131 13 18 13C18.0965 13 18.1925 12.9975 18.2878 12.9926C18.8793 14.4624 20.3185 15.5 22 15.5H22.5C23.0523 15.5 23.5 15.0523 23.5 14.5C23.5 13.9477 23.0523 13.5 22.5 13.5H22C21.2637 13.5 20.6204 13.1021 20.2732 12.5097C22.1765 11.6447 23.5 9.72686 23.5 7.49995V3.41417C23.5 1.63235 21.3457 0.740025 20.0858 1.99995L19.197 2.88879C18.8816 2.82119 18.4479 2.74995 18 2.74995C17.5521 2.74995 17.1184 2.82119 16.8031 2.88879L15.9142 1.99995ZM15.7929 4.70706C16.0592 4.97339 16.4526 5.06747 16.8106 4.95049L16.8269 4.94544C16.8427 4.9406 16.8683 4.93294 16.9022 4.92339C16.9703 4.90419 17.0701 4.87786 17.1898 4.85143C17.4375 4.79672 17.7338 4.74995 18 4.74995C18.2662 4.74995 18.5625 4.79672 18.8102 4.85143C18.9299 4.87786 19.0297 4.90419 19.0978 4.92339C19.1317 4.93294 19.1573 4.9406 19.1731 4.94544L19.1896 4.95055L19.1911 4.95104C19.5486 5.06718 19.9412 4.97297 20.2071 4.70706L21.5 3.41417V7.49995C21.5 9.43295 19.933 11 18 11C16.067 11 14.5 9.43295 14.5 7.49995V3.41417L15.7929 4.70706Z" fill="#080809" style="fill:#080809;fill:color(display-p3 0.0314 0.0314 0.0353);fill-opacity:1;"/>
</svg>
