<svg width="24" height="24" viewBox="0 0 24 24" fill="none" xmlns="http://www.w3.org/2000/svg">
<path fill-rule="evenodd" clip-rule="evenodd" d="M1.06954 22.9836C1.45146 23.3744 1.97668 23.592 2.52312 23.5856C3.09777 23.579 3.55136 23.2523 3.85629 23.001C4.17974 22.7345 4.56064 22.3536 5.00011 21.9141L6.32843 20.5858C6.81967 20.0945 6.88083 20.0584 6.92998 20.0381C6.97913 20.0177 7.04792 20 7.74264 20H14.5732C16.3966 20 17.8664 20 19.0223 19.8446C20.2225 19.6833 21.233 19.3381 22.0355 18.5355C22.8381 17.733 23.1833 16.7225 23.3446 15.5223C23.5001 14.3664 23.5 12.8966 23.5 11.0732V10.9268C23.5 9.10341 23.5001 7.63361 23.3446 6.47767C23.1833 5.27752 22.8381 4.26702 22.0355 3.46447C21.233 2.66191 20.2225 2.31672 19.0223 2.15536C17.8664 1.99995 16.3966 1.99997 14.5731 2L9.42686 2C7.6034 1.99998 6.13363 1.99996 4.97767 2.15537C3.77753 2.31672 2.76703 2.66191 1.96447 3.46447C1.16191 4.26703 0.816724 5.27752 0.655368 6.47767C0.499956 7.63363 0.499977 9.1034 0.500005 10.9269L0.500001 20.0501C0.499976 20.6715 0.499954 21.2104 0.54023 21.6275C0.578204 22.0207 0.667897 22.5725 1.06954 22.9836ZM12 6.00003C12.5523 6.00003 13 6.44774 13 7.00003V11C13 11.5523 12.5523 12 12 12C11.4477 12 11 11.5523 11 11V7.00003C11 6.44774 11.4477 6.00003 12 6.00003ZM12 16C12.6904 16 13.25 15.4404 13.25 14.75C13.25 14.0596 12.6904 13.5 12 13.5C11.3096 13.5 10.75 14.0596 10.75 14.75C10.75 15.4404 11.3096 16 12 16Z" fill="#080809" style="fill:#080809;fill:color(display-p3 0.0314 0.0314 0.0353);fill-opacity:1;"/>
</svg>
