<svg width="24" height="24" viewBox="0 0 24 24" fill="none" xmlns="http://www.w3.org/2000/svg">
<path fill-rule="evenodd" clip-rule="evenodd" d="M3 3.5C3 1.84315 4.34315 0.5 6 0.5H18C19.6569 0.5 21 1.84315 21 3.5V5.5H3V3.5ZM7 3C7 3.55228 6.55228 4 6 4C5.44772 4 5 3.55228 5 3C5 2.44772 5.44772 2 6 2C6.55228 2 7 2.44772 7 3ZM10 3C10 3.55228 9.55228 4 9 4C8.44772 4 8 3.55228 8 3C8 2.44772 8.44772 2 9 2C9.55228 2 10 2.44772 10 3Z" fill="#080809" style="fill:#080809;fill:color(display-p3 0.0314 0.0314 0.0353);fill-opacity:1;"/>
<path d="M15.25 15C15.25 15.3489 15.195 15.685 15.0933 16H14.2426C13.6459 16 13.0736 15.7629 12.6517 15.341L12.409 15.0983C11.7057 14.3951 10.7519 14 9.75736 14H8.90675C9.32853 12.6944 10.554 11.75 12 11.75C13.7949 11.75 15.25 13.2051 15.25 15Z" fill="#080809" style="fill:#080809;fill:color(display-p3 0.0314 0.0314 0.0353);fill-opacity:1;"/>
<path fill-rule="evenodd" clip-rule="evenodd" d="M3 7.5V20.5C3 22.1569 4.34315 23.5 6 23.5H18C19.6569 23.5 21 22.1569 21 20.5V7.5H3ZM6.75 15C6.75 12.1005 9.1005 9.75 12 9.75C14.8995 9.75 17.25 12.1005 17.25 15C17.25 17.8995 14.8995 20.25 12 20.25C9.1005 20.25 6.75 17.8995 6.75 15Z" fill="#080809" style="fill:#080809;fill:color(display-p3 0.0314 0.0314 0.0353);fill-opacity:1;"/>
</svg>
