<svg width="24" height="24" viewBox="0 0 24 24" fill="none" xmlns="http://www.w3.org/2000/svg">
<path fill-rule="evenodd" clip-rule="evenodd" d="M2 5C2 2.79086 3.79086 1 6 1H18C20.2091 1 22 2.79086 22 5V7C22 8.31045 21.1598 9.42466 19.9887 9.83328L20.4996 11.877C21.4143 12.61 22 13.7366 22 15V17C22 18.0144 21.6224 18.9407 21 19.6458V22C21 22.5523 20.5523 23 20 23H19C18.4477 23 18 22.5523 18 22V21H6L6 22C6 22.5523 5.55228 23 5 23H4C3.44772 23 3 22.5523 3 22V19.6458C2.37764 18.9407 2 18.0144 2 17V15C2 13.7371 2.58524 12.611 3.49929 11.8779L4.01054 9.833C2.83984 9.42415 2 8.31015 2 7V5ZM18.2188 11L17.4082 7.75748C17.2969 7.3123 16.8969 7 16.438 7H7.56115C7.10228 7 6.7023 7.31229 6.59101 7.75745L5.78033 11H18.2188ZM18.5 16C18.5 16.8284 17.8284 17.5 17 17.5C16.1716 17.5 15.5 16.8284 15.5 16C15.5 15.1716 16.1716 14.5 17 14.5C17.8284 14.5 18.5 15.1716 18.5 16ZM7 17.5C7.82843 17.5 8.5 16.8284 8.5 16C8.5 15.1716 7.82843 14.5 7 14.5C6.17157 14.5 5.5 15.1716 5.5 16C5.5 16.8284 6.17157 17.5 7 17.5ZM10 16C10 15.4477 10.4477 15 11 15H13C13.5523 15 14 15.4477 14 16C14 16.5523 13.5523 17 13 17H11C10.4477 17 10 16.5523 10 16Z" fill="#080809" style="fill:#080809;fill:color(display-p3 0.0314 0.0314 0.0353);fill-opacity:1;"/>
</svg>
