<svg width="24" height="24" viewBox="0 0 24 24" fill="none" xmlns="http://www.w3.org/2000/svg">
<path d="M10 5C11.1046 5 12 4.10457 12 3C12 1.89543 11.1046 1 10 1C8.89543 1 8 1.89543 8 3C8 4.10457 8.89543 5 10 5Z" fill="#080809" style="fill:#080809;fill:color(display-p3 0.0314 0.0314 0.0353);fill-opacity:1;"/>
<path d="M6 6C6 6.55228 5.55228 7 5 7C4.44772 7 4 6.55228 4 6C4 5.44772 4.44772 5 5 5C5.55228 5 6 5.44772 6 6Z" fill="#080809" style="fill:#080809;fill:color(display-p3 0.0314 0.0314 0.0353);fill-opacity:1;"/>
<path fill-rule="evenodd" clip-rule="evenodd" d="M16.0011 5.08091L3.12816 10.032C1.10188 10.8114 0.548662 13.4183 2.08377 14.9534L9.0452 21.9148C10.5803 23.4499 13.1872 22.8967 13.9666 20.8704L18.9172 7.99888C18.9447 7.99962 18.9723 8 19 8C20.6569 8 22 6.65685 22 5C22 3.34315 20.6569 2 19 2C17.3431 2 16 3.34315 16 5C16 5.02706 16.0004 5.05403 16.0011 5.08091ZM6.15252 11.0116L10.9539 9.16497L15.3497 11.7029L13.8961 15.4824L6.15252 11.0116ZM13.3546 8.24162L16.0765 9.81315L17.0507 7.28044C16.9314 7.17841 16.8203 7.06719 16.7183 6.94788L13.3546 8.24162ZM3.75689 11.9379L13.1692 17.3721L12.0999 20.1525C11.8401 20.8279 10.9711 21.0123 10.4594 20.5006L3.49799 13.5392C3.00959 13.0508 3.15533 12.2369 3.75689 11.9379ZM18 5C18 4.44772 18.4477 4 19 4C19.5523 4 20 4.44772 20 5C20 5.55228 19.5523 6 19 6C18.4477 6 18 5.55228 18 5Z" fill="#080809" style="fill:#080809;fill:color(display-p3 0.0314 0.0314 0.0353);fill-opacity:1;"/>
<path d="M21.5 15C22.3284 15 23 14.3284 23 13.5C23 12.6716 22.3284 12 21.5 12C20.6716 12 20 12.6716 20 13.5C20 14.3284 20.6716 15 21.5 15Z" fill="#080809" style="fill:#080809;fill:color(display-p3 0.0314 0.0314 0.0353);fill-opacity:1;"/>
</svg>
