<svg width="24" height="24" viewBox="0 0 24 24" fill="none" xmlns="http://www.w3.org/2000/svg">
<path d="M15.7071 3.29289C15.3166 2.90237 14.6834 2.90237 14.2929 3.2929C13.4055 4.18027 12.5153 5.06784 11.6244 5.95604C10.1956 7.38048 8.7652 8.80656 7.34249 10.2361C6.37079 11.2124 6.37473 12.7894 7.34677 13.7624C8.76774 15.1847 10.1902 16.6063 11.6124 18.0276C12.5062 18.9209 13.3998 19.814 14.2929 20.7071C14.6834 21.0976 15.3166 21.0976 15.7071 20.7071C16.0976 20.3166 16.0977 19.6834 15.7071 19.2929C14.8131 18.3989 13.9192 17.5055 13.0253 16.6121C11.6037 15.1913 10.1823 13.7708 8.76164 12.3488C8.56717 12.1542 8.56752 11.8404 8.76008 11.6469C10.181 10.2192 11.6054 8.7991 13.0314 7.3774C13.9229 6.48866 14.8149 5.59931 15.7071 4.7071C16.0977 4.31658 16.0976 3.68341 15.7071 3.29289Z" fill="#080809" style="fill:#080809;fill:color(display-p3 0.0314 0.0314 0.0353);fill-opacity:1;"/>
</svg>
