<svg width="24" height="24" viewBox="0 0 24 24" fill="none" xmlns="http://www.w3.org/2000/svg">
<path d="M7.5581 5.78863C7.96359 5.57733 8.34818 5.64943 8.60986 5.95758C8.61831 5.96734 9.15531 6.61228 9.38623 6.92828C9.62577 7.26464 9.84789 7.6134 10.0522 7.97223C10.3188 8.45109 10.1518 8.94112 9.89014 9.14313L9.36182 9.56305C9.09571 9.77754 9.13013 10.1756 9.13037 10.1783C9.13396 10.1918 9.91962 13.1426 12.8374 13.8873C12.8499 13.8882 13.2409 13.9166 13.4526 13.6558L13.8726 13.1265C14.0751 12.8649 14.5637 12.698 15.0425 12.9644C15.4015 13.1694 15.7499 13.3917 16.0864 13.6314C16.4044 13.8653 17.0571 14.4078 17.0571 14.4078C17.367 14.6694 17.4381 15.0532 17.227 15.4586L17.2261 15.4673C16.9937 15.8704 16.6979 16.2334 16.3511 16.5435C16.3476 16.5454 16.347 16.5475 16.3433 16.5494C16.042 16.8007 15.7461 16.9448 15.4556 16.9791C15.4133 16.9863 15.3699 16.9888 15.3267 16.9869C15.1986 16.9879 15.071 16.9688 14.9487 16.9293L14.939 16.9156C14.4914 16.7894 13.7439 16.4722 12.4995 15.7857C11.7795 15.3929 11.0924 14.9404 10.4487 14.4322C10.1259 14.1774 9.81835 13.9039 9.52685 13.6138L9.46533 13.5523L9.43408 13.5201C9.42383 13.5103 9.41308 13.5001 9.40283 13.4898C9.11287 13.1984 8.84021 12.8902 8.58545 12.5679C8.07684 11.9239 7.62368 11.238 7.23096 10.5181C6.54422 9.2728 6.22824 8.52525 6.10205 8.07672L6.08838 8.06793C6.04876 7.94614 6.02881 7.81815 6.02978 7.69C6.02784 7.647 6.03027 7.60312 6.0376 7.56012C6.07385 7.27028 6.21711 6.97447 6.46728 6.67242C6.46919 6.66908 6.47123 6.6687 6.47314 6.66461C6.78325 6.31831 7.14725 6.02243 7.55029 5.79059C7.55029 5.79059 7.55609 5.78881 7.5581 5.78863Z" fill="#080809" style="fill:#080809;fill:color(display-p3 0.0314 0.0314 0.0353);fill-opacity:1;"/>
<path d="M11.8491 5.02789C13.5007 5.04012 14.9034 5.59563 16.0181 6.68121C17.1328 7.76708 17.707 9.27318 17.7222 11.148C17.7231 11.305 17.5969 11.4327 17.4399 11.4341H17.437C17.2812 11.4334 17.1543 11.3068 17.1528 11.1509C17.1395 9.41134 16.6384 8.08275 15.6206 7.08942C14.6155 6.11019 13.3454 5.60799 11.8452 5.59723C11.6882 5.59674 11.5605 5.46811 11.561 5.3111C11.5616 5.15362 11.6902 5.0274 11.8472 5.02789H11.8491Z" fill="#080809" style="fill:#080809;fill:color(display-p3 0.0314 0.0314 0.0353);fill-opacity:1;"/>
<path d="M12.3696 6.50348C13.5827 6.5925 14.5442 7.01732 15.228 7.7652C15.9118 8.51306 16.252 9.45861 16.227 10.5699C16.2241 10.7249 16.0979 10.8487 15.9429 10.8492H15.936C15.7791 10.8457 15.6553 10.7151 15.6587 10.5582C15.6807 9.58531 15.4029 8.79756 14.8091 8.14996C14.2158 7.5024 13.4065 7.1516 12.3286 7.07281C12.1716 7.06107 12.0532 6.92416 12.0649 6.76715C12.0763 6.61038 12.2128 6.49243 12.3696 6.50348Z" fill="#080809" style="fill:#080809;fill:color(display-p3 0.0314 0.0314 0.0353);fill-opacity:1;"/>
<path d="M12.7964 8.0318C14.0216 8.09929 14.7034 8.79882 14.7661 10.0601C14.7739 10.2171 14.6535 10.3511 14.4966 10.3589H14.4819C14.3305 10.3588 14.2056 10.2399 14.1978 10.0884C14.1492 9.12269 13.6947 8.6501 12.7661 8.60016C12.6096 8.58793 12.4922 8.45004 12.5044 8.29352C12.5167 8.14254 12.6449 8.02808 12.7964 8.0318Z" fill="#080809" style="fill:#080809;fill:color(display-p3 0.0314 0.0314 0.0353);fill-opacity:1;"/>
<path fill-rule="evenodd" clip-rule="evenodd" d="M3.58154 3.31207C6.47474 0.658059 12.4106 1.01617 12.4106 1.01617C17.4435 1.03876 19.7031 2.67887 20.2622 3.19488C22.1187 4.80421 23.1461 8.37445 22.4536 14.0181C21.7827 19.4934 17.6591 20.023 16.9292 20.2593C16.6137 20.3621 13.8363 21.0563 10.2261 20.7525C9.82744 21.2157 9.2985 21.8221 8.91553 22.2349C8.2182 22.9866 7.78974 23.6835 7.05908 23.4566C6.45716 23.2703 6.48855 22.3584 6.48877 22.3521L6.49267 20.0865H6.48681C1.20826 18.6015 1.28554 13.1248 1.34521 10.2027C1.40489 7.28023 1.97142 4.92277 3.58154 3.31207ZM12.3169 2.60504C12.2643 2.60165 7.26335 2.28529 4.82861 4.48981C3.46688 5.83491 3.0079 7.83519 2.95752 10.2759C2.90663 12.7168 2.64732 17.3769 7.11279 18.6168C7.11279 18.6168 7.09522 22.0785 7.09326 22.3824C7.09179 22.595 7.12506 22.741 7.24756 22.7711C7.33511 22.7936 7.46709 22.7473 7.57861 22.6353C8.29277 21.918 10.5767 19.1617 10.5767 19.1617C13.6435 19.3622 16.083 18.7556 16.3452 18.6714C16.9629 18.4734 20.3072 18.1853 20.8735 13.6138V13.6119C21.4584 8.8974 20.6579 5.67911 19.0874 4.33453C18.6135 3.90464 16.5728 2.62362 12.3169 2.60504Z" fill="#080809" style="fill:#080809;fill:color(display-p3 0.0314 0.0314 0.0353);fill-opacity:1;"/>
</svg>
