<svg width="24" height="24" viewBox="0 0 24 24" fill="none" xmlns="http://www.w3.org/2000/svg">
<path d="M16.5707 3H7.42956C6.07545 2.99997 4.95881 2.99994 4.07506 3.11876C3.14723 3.2435 2.32781 3.51547 1.6717 4.17158C0.939503 4.90377 0.685582 5.83937 0.581047 6.90211C0.526984 7.45175 0.928722 7.94114 1.47835 7.9952C2.02799 8.04926 2.51738 7.64753 2.57144 7.09789C2.65873 6.21047 2.83833 5.83337 3.08591 5.58579C3.30848 5.36322 3.6355 5.19585 4.34156 5.10092C5.07638 5.00213 6.05764 5 7.50013 5H16.5001C17.9426 5 18.9239 5.00213 19.6587 5.10092C20.3647 5.19585 20.6918 5.36322 20.9143 5.58579C21.1369 5.80836 21.3043 6.13538 21.3992 6.84144C21.498 7.57626 21.5001 8.55752 21.5001 10V14C21.5001 15.4425 21.498 16.4238 21.3992 17.1586C21.3043 17.8646 21.1369 18.1916 20.9143 18.4142C20.6918 18.6368 20.3647 18.8042 19.6587 18.8991C18.9239 18.9979 17.9426 19 16.5001 19H14.502C13.9497 19 13.502 19.4477 13.502 20C13.502 20.5523 13.9497 21 14.502 21H16.5707C17.9248 21 19.0414 21.0001 19.9252 20.8813C20.853 20.7565 21.6724 20.4845 22.3286 19.8284C22.9847 19.1723 23.2566 18.3529 23.3814 17.4251C23.5002 16.5413 23.5002 15.4247 23.5001 14.0706V9.92946C23.5002 8.57534 23.5002 7.4587 23.3814 6.57494C23.2566 5.64711 22.9847 4.82769 22.3286 4.17158C21.6724 3.51547 20.853 3.2435 19.9252 3.11876C19.0414 2.99994 17.9248 2.99997 16.5707 3Z" fill="#080809" style="fill:#080809;fill:color(display-p3 0.0314 0.0314 0.0353);fill-opacity:1;"/>
<path d="M1.5 10C0.947715 10 0.5 10.4477 0.5 11C0.5 11.5523 0.947715 12 1.5 12C5.91828 12 9.5 15.5817 9.5 20C9.5 20.5523 9.94771 21 10.5 21C11.0523 21 11.5 20.5523 11.5 20C11.5 14.4772 7.02285 10 1.5 10Z" fill="#080809" style="fill:#080809;fill:color(display-p3 0.0314 0.0314 0.0353);fill-opacity:1;"/>
<path d="M1.5 14C0.947715 14 0.5 14.4477 0.5 15C0.5 15.5523 0.947715 16 1.5 16C3.70914 16 5.5 17.7909 5.5 20C5.5 20.5523 5.94772 21 6.5 21C7.05228 21 7.5 20.5523 7.5 20C7.5 16.6863 4.81371 14 1.5 14Z" fill="#080809" style="fill:#080809;fill:color(display-p3 0.0314 0.0314 0.0353);fill-opacity:1;"/>
<path d="M3.5 19.5C3.5 20.3284 2.82843 21 2 21C1.17157 21 0.5 20.3284 0.5 19.5C0.5 18.6716 1.17157 18 2 18C2.82843 18 3.5 18.6716 3.5 19.5Z" fill="#080809" style="fill:#080809;fill:color(display-p3 0.0314 0.0314 0.0353);fill-opacity:1;"/>
</svg>
