<svg width="24" height="24" viewBox="0 0 24 24" fill="none" xmlns="http://www.w3.org/2000/svg">
<path d="M12 7.50053C13.3807 7.50053 14.5 8.61981 14.5 10.0005C14.4998 10.9443 13.9762 11.7656 13.2041 12.191L13.9707 15.2574C14.0452 15.5559 13.9784 15.8731 13.7891 16.1158C13.5996 16.3583 13.3087 16.5005 13.001 16.5005H11.001C10.6932 16.5005 10.4024 16.3582 10.2129 16.1158C10.0236 15.8732 9.95683 15.5569 10.0312 15.2583L10.7969 12.191C10.0243 11.7657 9.50016 10.9446 9.5 10.0005C9.5 8.61981 10.6193 7.50053 12 7.50053Z" fill="#080809" style="fill:#080809;fill:color(display-p3 0.0314 0.0314 0.0353);fill-opacity:1;"/>
<path fill-rule="evenodd" clip-rule="evenodd" d="M11.6836 0.551307C11.8888 0.482898 12.1112 0.482898 12.3164 0.551307L21.3164 3.55131C21.7246 3.6875 22 4.06926 22 4.49955V13.4995C22 19.0224 17.5228 23.4995 12 23.4995C6.47715 23.4995 2 19.0224 2 13.4995V4.49955C2.00004 4.06926 2.27544 3.6875 2.68359 3.55131L11.6836 0.551307ZM4 5.21928V13.4995C4 17.9178 7.58172 21.4995 12 21.4995C16.4183 21.4995 20 17.9178 20 13.4995V5.21928L12 2.55326L4 5.21928Z" fill="#080809" style="fill:#080809;fill:color(display-p3 0.0314 0.0314 0.0353);fill-opacity:1;"/>
</svg>
