<svg width="24" height="24" viewBox="0 0 24 24" fill="none" xmlns="http://www.w3.org/2000/svg">
<g clip-path="url(#clip0_29901_28513)">
<path fill-rule="evenodd" clip-rule="evenodd" d="M12 0.5C18.3513 0.5 23.5 5.64873 23.5 12C23.5 13.9218 23.0278 15.7363 22.1922 17.3308C22.105 17.4973 22.092 17.6559 22.1233 17.7765L23.0047 21.1762C23.2918 22.2835 22.2835 23.2918 21.1762 23.0047L17.7765 22.1233C17.6559 22.092 17.4973 22.105 17.3308 22.1922C15.7363 23.0278 13.9218 23.5 12 23.5C5.64873 23.5 0.5 18.3513 0.5 12C0.5 5.64873 5.64873 0.5 12 0.5ZM7 10C7 9.44771 7.44772 9 8 9H16C16.5523 9 17 9.44772 17 10C17 10.5523 16.5523 11 16 11H8C7.44772 11 7 10.5523 7 10ZM8 13C7.44772 13 7 13.4477 7 14C7 14.5523 7.44772 15 8 15H14C14.5523 15 15 14.5523 15 14C15 13.4477 14.5523 13 14 13H8Z" fill="#080809" style="fill:#080809;fill:color(display-p3 0.0314 0.0314 0.0353);fill-opacity:1;"/>
</g>
<defs>
<clipPath id="clip0_29901_28513">
<rect width="24" height="24" fill="white" style="fill:white;fill-opacity:1;"/>
</clipPath>
</defs>
</svg>
