<svg width="24" height="24" viewBox="0 0 24 24" fill="none" xmlns="http://www.w3.org/2000/svg">
<path d="M2 3C2 2.44772 2.44772 2 3 2H21C21.5523 2 22 2.44772 22 3C22 3.55228 21.5523 4 21 4H3C2.44772 4 2 3.55228 2 3Z" fill="#080809" style="fill:#080809;fill:color(display-p3 0.0314 0.0314 0.0353);fill-opacity:1;"/>
<path d="M10 9C10 8.44772 10.4477 8 11 8H21C21.5523 8 22 8.44772 22 9C22 9.55228 21.5523 10 21 10H11C10.4477 10 10 9.55228 10 9Z" fill="#080809" style="fill:#080809;fill:color(display-p3 0.0314 0.0314 0.0353);fill-opacity:1;"/>
<path d="M10 15C10 14.4477 10.4477 14 11 14H21C21.5523 14 22 14.4477 22 15C22 15.5523 21.5523 16 21 16H11C10.4477 16 10 15.5523 10 15Z" fill="#080809" style="fill:#080809;fill:color(display-p3 0.0314 0.0314 0.0353);fill-opacity:1;"/>
<path d="M3 20C2.44772 20 2 20.4477 2 21C2 21.5523 2.44772 22 3 22H21C21.5523 22 22 21.5523 22 21C22 20.4477 21.5523 20 21 20H3Z" fill="#080809" style="fill:#080809;fill:color(display-p3 0.0314 0.0314 0.0353);fill-opacity:1;"/>
<path fill-rule="evenodd" clip-rule="evenodd" d="M2.00015 8.20711C2.00015 6.87076 3.61586 6.2015 4.56081 7.14645L8.00015 10.5858C8.7812 11.3668 8.7812 12.6332 8.00015 13.4142L4.56081 16.8536C3.61586 17.7985 2.00015 17.1293 2.00015 15.7929V8.20711ZM6.58594 12L4.00015 9.41422V14.5858L6.58594 12Z" fill="#080809" style="fill:#080809;fill:color(display-p3 0.0314 0.0314 0.0353);fill-opacity:1;"/>
</svg>
