<svg width="24" height="24" viewBox="0 0 24 24" fill="none" xmlns="http://www.w3.org/2000/svg">
<path d="M12.2217 5.99991C13.9498 5.99991 15.6715 6.78378 16.668 8.19523L16.8574 8.48527L16.9053 8.57609C17.1207 9.03475 16.9585 9.59093 16.5146 9.85734C16.0706 10.1237 15.5026 10.0056 15.1992 9.59952L15.1426 9.51456L15.0342 9.34855C14.4576 8.53489 13.3905 7.99991 12.2217 7.99991C10.2193 8.00012 8.50002 9.73626 8.5 11.9999C8.5 14.2636 10.2193 15.9997 12.2217 15.9999C13.4682 15.9999 14.599 15.3913 15.1426 14.4853C15.4268 14.0118 16.0411 13.8584 16.5146 14.1425C16.9881 14.4267 17.1415 15.041 16.8574 15.5146C15.901 17.1084 14.0649 17.9999 12.2217 17.9999C9.00854 17.9997 6.5 15.2588 6.5 11.9999C6.50002 8.741 9.00855 6.00011 12.2217 5.99991Z" fill="#080809" style="fill:#080809;fill:color(display-p3 0.0314 0.0314 0.0353);fill-opacity:1;"/>
<path fill-rule="evenodd" clip-rule="evenodd" d="M11.8398 0.512609C11.9986 0.486858 12.1623 0.500315 12.3164 0.551672L21.3164 3.55167C21.7246 3.68786 22 4.06962 22 4.49991V13.4999C22 19.0228 17.5228 23.4999 12 23.4999C6.47715 23.4999 2 19.0228 2 13.4999V4.49991C2.00003 4.06962 2.27544 3.68786 2.68359 3.55167L11.6836 0.551672L11.8398 0.512609ZM4 5.21964V13.4999C4 17.9182 7.58172 21.4999 12 21.4999C16.4183 21.4999 20 17.9182 20 13.4999V5.21964L12 2.55362L4 5.21964Z" fill="#080809" style="fill:#080809;fill:color(display-p3 0.0314 0.0314 0.0353);fill-opacity:1;"/>
</svg>
