<svg width="24" height="24" viewBox="0 0 24 24" fill="none" xmlns="http://www.w3.org/2000/svg">
<g clip-path="url(#clip0_29901_28578)">
<path fill-rule="evenodd" clip-rule="evenodd" d="M0.5 12C0.5 5.64873 5.64873 0.5 12 0.5C18.3513 0.5 23.5 5.64873 23.5 12C23.5 18.3513 18.3513 23.5 12 23.5C5.64873 23.5 0.5 18.3513 0.5 12ZM16 11.75C16.9665 11.75 17.75 10.9665 17.75 10C17.75 9.0335 16.9665 8.25 16 8.25C15.0335 8.25 14.25 9.0335 14.25 10C14.25 10.9665 15.0335 11.75 16 11.75ZM9.75 10C9.75 10.9665 8.9665 11.75 8 11.75C7.0335 11.75 6.25 10.9665 6.25 10C6.25 9.0335 7.0335 8.25 8 8.25C8.9665 8.25 9.75 9.0335 9.75 10ZM8.17357 15.0109C7.76536 14.6389 7.13288 14.6682 6.76088 15.0764C6.38888 15.4847 6.41823 16.1171 6.82644 16.4891C8.19597 17.7372 10.0103 18.5 12 18.5C13.9897 18.5 15.804 17.7372 17.1736 16.4891C17.5818 16.1171 17.6111 15.4847 17.2391 15.0764C16.8671 14.6682 16.2347 14.6389 15.8264 15.0109C14.8076 15.9394 13.4679 16.5 12 16.5C10.5321 16.5 9.19245 15.9394 8.17357 15.0109Z" fill="#080809" style="fill:#080809;fill:color(display-p3 0.0314 0.0314 0.0353);fill-opacity:1;"/>
</g>
<defs>
<clipPath id="clip0_29901_28578">
<rect width="24" height="24" fill="white" style="fill:white;fill-opacity:1;"/>
</clipPath>
</defs>
</svg>
