<svg width="24" height="24" viewBox="0 0 24 24" fill="none" xmlns="http://www.w3.org/2000/svg">
<path d="M12 6.00005C12.5523 6.00005 13 6.44777 13 7.00005V11C13 11.5523 12.5523 12 12 12C11.4477 12 11 11.5523 11 11V7.00005C11 6.44777 11.4477 6.00005 12 6.00005Z" fill="#080809" style="fill:#080809;fill:color(display-p3 0.0314 0.0314 0.0353);fill-opacity:1;"/>
<path d="M12 16C12.6904 16 13.25 15.4404 13.25 14.75C13.25 14.0597 12.6904 13.5 12 13.5C11.3097 13.5 10.75 14.0597 10.75 14.75C10.75 15.4404 11.3097 16 12 16Z" fill="#080809" style="fill:#080809;fill:color(display-p3 0.0314 0.0314 0.0353);fill-opacity:1;"/>
<path fill-rule="evenodd" clip-rule="evenodd" d="M2.52312 23.5858C1.97668 23.5921 1.45146 23.3746 1.06954 22.9837C0.667896 22.5727 0.578203 22.0209 0.540229 21.6277C0.499951 21.2105 0.499974 20.6719 0.500001 20.0504L0.500004 10.927C0.499975 9.10355 0.499954 7.6338 0.655367 6.47785C0.816723 5.27771 1.16191 4.26721 1.96447 3.46465C2.76702 2.6621 3.77752 2.31691 4.97767 2.15555C6.13362 2.00014 7.60336 2.00016 9.4268 2.00019L14.5731 2.00018C16.3966 2.00016 17.8664 2.00013 19.0223 2.15555C20.2225 2.3169 21.233 2.6621 22.0355 3.46465C22.8381 4.2672 23.1833 5.27771 23.3446 6.47785C23.5001 7.6338 23.5 9.10354 23.5 10.927V11.0733C23.5 12.8968 23.5001 14.3666 23.3446 15.5225C23.1833 16.7227 22.8381 17.7332 22.0355 18.5357C21.233 19.3383 20.2225 19.6835 19.0223 19.8448C17.8664 20.0002 16.3966 20.0002 14.5732 20.0002H7.74264C7.04792 20.0002 6.97913 20.0179 6.92998 20.0382C6.88083 20.0586 6.81967 20.0947 6.32843 20.586L5.0001 21.9143C4.56067 22.3538 4.17972 22.7347 3.85629 23.0012C3.55136 23.2524 3.09777 23.5792 2.52312 23.5858ZM2.58455 21.4576C2.82411 21.2603 3.13616 20.9498 3.62133 20.4646L4.91422 19.1718L4.99611 19.0896C5.34484 18.7392 5.69893 18.3834 6.16461 18.1905C6.6303 17.9976 7.13226 17.9988 7.62664 18L7.74264 18.0002L14.5 18.0002C16.4139 18.0002 17.7487 17.9981 18.7558 17.8627C19.7342 17.7311 20.2523 17.4905 20.6213 17.1215C20.9903 16.7525 21.2309 16.2344 21.3625 15.256C21.4979 14.2489 21.5 12.9141 21.5 11.0002C21.5 9.0863 21.4979 7.75148 21.3625 6.74435C21.2309 5.76598 20.9903 5.24788 20.6213 4.87886C20.2523 4.50985 19.7342 4.26925 18.7558 4.13771C17.7487 4.00231 16.4139 4.00018 14.5 4.00018L9.5 4.00019C7.58611 4.00019 6.2513 4.00231 5.24416 4.13772C4.2658 4.26926 3.7477 4.50985 3.37868 4.87887C3.00967 5.24788 2.76907 5.76598 2.63753 6.74435C2.50213 7.75148 2.5 9.0863 2.5 11.0002L2.5 20.0002C2.5 20.6863 2.50114 21.1265 2.53097 21.4354C2.53306 21.4571 2.53524 21.4771 2.53744 21.4956C2.55205 21.4841 2.56774 21.4715 2.58455 21.4576Z" fill="#080809" style="fill:#080809;fill:color(display-p3 0.0314 0.0314 0.0353);fill-opacity:1;"/>
</svg>
