<svg width="24" height="24" viewBox="0 0 24 24" fill="none" xmlns="http://www.w3.org/2000/svg">
<path d="M12.923 8.61597C12.7679 8.24301 12.4036 8 11.9997 8C11.5958 8 11.2315 8.24301 11.0764 8.61597L10.5174 9.95984L9.06661 10.0761C8.66397 10.1084 8.32029 10.3798 8.19547 10.7639C8.07065 11.1481 8.1892 11.5696 8.49597 11.8324L9.60134 12.7793L9.26363 14.195C9.16991 14.5879 9.32177 14.9986 9.64856 15.2361C9.97534 15.4735 10.4129 15.491 10.7576 15.2805L11.9997 14.5218L13.2418 15.2805C13.5865 15.491 14.024 15.4735 14.3508 15.2361C14.6776 14.9986 14.8295 14.5879 14.7358 14.195L14.3981 12.7793L15.5034 11.8324C15.8102 11.5696 15.9287 11.1481 15.8039 10.7639C15.6791 10.3798 15.3354 10.1084 14.9328 10.0761L13.482 9.95984L12.923 8.61597Z" fill="#080809" style="fill:#080809;fill:color(display-p3 0.0314 0.0314 0.0353);fill-opacity:1;"/>
<path fill-rule="evenodd" clip-rule="evenodd" d="M1.96396 15.3079C-0.577824 13.8349 -0.577833 10.1647 1.96395 8.69164L4.04487 7.48566V4.89958C4.04487 1.95344 7.2366 0.114219 9.78559 1.59152L12.0004 2.87513L14.2154 1.59144C16.7644 0.114174 19.9561 1.95342 19.9561 4.89958V7.486L22.0365 8.69172C24.5782 10.1648 24.5782 13.8348 22.0365 15.3078L19.9561 16.5136V19.1C19.9561 22.0461 16.7644 23.8854 14.2154 22.4081L12.0004 21.1244L9.78559 22.408C7.2366 23.8853 4.04487 22.0461 4.04487 19.1V16.5139L1.96396 15.3079ZM6.04487 17.673V19.1C6.04487 20.505 7.56706 21.3822 8.78271 20.6776L10.0061 19.9686L6.04487 17.673ZM12.0003 18.8128L6.04487 15.3614V8.63818L12.0003 5.18673L17.9561 8.63849V15.3611L12.0003 18.8128ZM13.9947 19.9686L15.2182 20.6777C16.4339 21.3823 17.9561 20.5051 17.9561 19.1V17.6727L13.9947 19.9686ZM19.9561 14.2019L21.0336 13.5774C22.2458 12.8749 22.2458 11.1246 21.0336 10.4221L19.9561 9.79762V14.2019ZM17.9561 6.32687V4.89958C17.9561 3.49448 16.4339 2.6173 15.2182 3.32184L13.9947 4.03095L17.9561 6.32687ZM10.0061 4.03091L8.78271 3.32191C7.56706 2.61736 6.04487 3.49451 6.04487 4.89958V6.32658L10.0061 4.03091ZM4.04487 9.79726V14.2023L2.9668 13.5775C1.75456 12.875 1.75456 11.1246 2.96679 10.422L4.04487 9.79726Z" fill="#080809" style="fill:#080809;fill:color(display-p3 0.0314 0.0314 0.0353);fill-opacity:1;"/>
</svg>
