<svg width="24" height="24" viewBox="0 0 24 24" fill="none" xmlns="http://www.w3.org/2000/svg">
<path d="M5.99969 4C5.99969 4.55228 6.4474 5 6.99969 5C7.55197 5 7.99969 4.55228 7.99969 4V2C7.99969 1.44771 7.55197 1 6.99969 1C6.4474 1 5.99969 1.44771 5.99969 2V4Z" fill="#080809" style="fill:#080809;fill:color(display-p3 0.0314 0.0314 0.0353);fill-opacity:1;"/>
<path d="M20.9572 3.04344C18.4956 0.581793 14.5046 0.58175 12.0429 3.04334L9.79272 5.29348C9.40219 5.684 9.40218 6.31717 9.7927 6.7077C10.1832 7.09823 10.8164 7.09823 11.2069 6.70771L13.4571 4.45757C15.1377 2.77702 17.8624 2.77705 19.543 4.45764C21.2236 6.13822 21.2235 8.86295 19.543 10.5435L17.2929 12.7936C16.9023 13.1842 16.9023 13.8173 17.2929 14.2079C17.6834 14.5984 18.3165 14.5984 18.7071 14.2079L20.9572 11.9577C23.4188 9.49612 23.4188 5.50507 20.9572 3.04344Z" fill="#080809" style="fill:#080809;fill:color(display-p3 0.0314 0.0314 0.0353);fill-opacity:1;"/>
<path d="M6.70709 11.2079C7.09762 10.8174 7.09764 10.1842 6.70713 9.7937C6.31662 9.40316 5.68345 9.40314 5.29292 9.79365L3.04314 12.0433C0.581424 14.5049 0.581362 18.496 3.04301 20.9576C5.50455 23.4192 9.49547 23.4192 11.9571 20.9578L14.2071 18.7079C14.5976 18.3174 14.5976 17.6842 14.2071 17.2937C13.8166 16.9032 13.1835 16.9031 12.7929 17.2937L10.5429 19.5435C8.86236 21.224 6.13773 21.2239 4.45722 19.5434C2.77664 17.8628 2.77668 15.1381 4.45731 13.4575L6.70709 11.2079Z" fill="#080809" style="fill:#080809;fill:color(display-p3 0.0314 0.0314 0.0353);fill-opacity:1;"/>
<path d="M18.9995 16.9998C18.9995 16.4475 19.4472 15.9998 19.9995 15.9998H22.0005C22.5528 15.9998 23.0005 16.4475 23.0005 16.9998C23.0005 17.5521 22.5528 17.9998 22.0005 17.9998H19.9995C19.4472 17.9998 18.9995 17.5521 18.9995 16.9998Z" fill="#080809" style="fill:#080809;fill:color(display-p3 0.0314 0.0314 0.0353);fill-opacity:1;"/>
<path d="M17.9998 20C17.9998 19.4478 17.5521 19 16.9998 19C16.4475 19 15.9998 19.4478 15.9998 20V22C15.9998 22.5523 16.4475 23 16.9998 23C17.5521 23 17.9998 22.5523 17.9998 22V20Z" fill="#080809" style="fill:#080809;fill:color(display-p3 0.0314 0.0314 0.0353);fill-opacity:1;"/>
<path d="M5 7.00027C5 7.55255 4.55228 8.00027 4 8.00027H2C1.44772 8.00027 1 7.55255 1 7.00027C1 6.44798 1.44772 6.00027 2 6.00027H4C4.55228 6.00027 5 6.44798 5 7.00027Z" fill="#080809" style="fill:#080809;fill:color(display-p3 0.0314 0.0314 0.0353);fill-opacity:1;"/>
</svg>
