<svg width="24" height="24" viewBox="0 0 24 24" fill="none" xmlns="http://www.w3.org/2000/svg">
<path fill-rule="evenodd" clip-rule="evenodd" d="M19.7071 7.29289C20.0976 7.68342 20.0976 8.31658 19.7071 8.70711L12.8284 15.5858C12.8139 15.6004 12.7993 15.6149 12.7849 15.6294C12.3224 16.0919 11.9068 16.5076 11.5252 16.7987C11.1086 17.1166 10.6172 17.3787 10 17.3787C9.38278 17.3787 8.89138 17.1166 8.47476 16.7987C8.09317 16.5076 7.67763 16.0919 7.21514 15.6294C7.20067 15.6149 7.18614 15.6004 7.17158 15.5858L4.29289 12.7071C3.90237 12.3166 3.90237 11.6834 4.29289 11.2929C4.68342 10.9024 5.31658 10.9024 5.70711 11.2929L8.58579 14.1716C9.10578 14.6916 9.42614 15.0089 9.68793 15.2087C9.91803 15.3842 9.99068 15.3793 9.9993 15.3787C9.99962 15.3787 9.99985 15.3787 10 15.3787C10.0001 15.3787 10.0004 15.3787 10.0007 15.3787C10.0093 15.3793 10.082 15.3842 10.3121 15.2087C10.5739 15.0089 10.8942 14.6916 11.4142 14.1716L18.2929 7.29289C18.6834 6.90237 19.3166 6.90237 19.7071 7.29289Z" fill="#080809" style="fill:#080809;fill:color(display-p3 0.0314 0.0314 0.0353);fill-opacity:1;"/>
</svg>
