<svg width="24" height="24" viewBox="0 0 24 24" fill="none" xmlns="http://www.w3.org/2000/svg">
<path d="M9.42684 2H14.5732C16.3966 1.99997 17.8664 1.99995 19.0223 2.15537C20.2225 2.31672 21.233 2.66191 22.0355 3.46447C22.8381 4.26702 23.1833 5.27752 23.3446 6.47767C23.5001 7.63363 23.5 9.1034 23.5 10.9269V11.0731C23.5 12.8966 23.5001 14.3664 23.3446 15.5223C23.1833 16.7225 22.8381 17.733 22.0355 18.5355C21.5452 19.0259 20.9701 19.3517 20.3078 19.566C19.7823 19.736 19.2185 19.4478 19.0485 18.9223C18.8786 18.3968 19.1667 17.8331 19.6922 17.6631C20.0988 17.5315 20.3862 17.3565 20.6213 17.1213C20.9903 16.7523 21.2309 16.2342 21.3625 15.2558C21.4979 14.2487 21.5 12.9139 21.5 11C21.5 9.08611 21.4979 7.7513 21.3625 6.74416C21.2309 5.7658 20.9903 5.2477 20.6213 4.87868C20.2523 4.50966 19.7342 4.26907 18.7558 4.13753C17.7487 4.00213 16.4139 4 14.5 4H9.5C7.58611 4 6.2513 4.00213 5.24416 4.13753C4.2658 4.26907 3.7477 4.50966 3.37868 4.87868C3.00966 5.2477 2.76907 5.7658 2.63753 6.74416C2.50213 7.7513 2.5 9.08611 2.5 11C2.5 12.9139 2.50213 14.2487 2.63753 15.2558C2.76907 16.2342 3.00966 16.7523 3.37868 17.1213C3.61382 17.3565 3.90121 17.5315 4.30779 17.6631C4.83327 17.8331 5.12144 18.3968 4.95146 18.9223C4.78147 19.4478 4.21769 19.736 3.69221 19.566C3.02988 19.3517 2.45485 19.0259 1.96447 18.5355C1.16191 17.733 0.816721 16.7225 0.655366 15.5223C0.499952 14.3664 0.499974 12.8966 0.500001 11.0732V10.9268C0.499974 9.10339 0.499952 7.63362 0.655366 6.47767C0.816721 5.27752 1.16191 4.26702 1.96447 3.46447C2.76702 2.66191 3.77752 2.31672 4.97767 2.15537C6.13362 1.99995 7.60339 1.99997 9.42684 2Z" fill="#080809" style="fill:#080809;fill:color(display-p3 0.0314 0.0314 0.0353);fill-opacity:1;"/>
<path d="M15.7929 22C17.1292 22 17.7985 20.3843 16.8536 19.4393L13.4142 16C12.6332 15.219 11.3668 15.219 10.5858 16L7.14644 19.4393C6.2015 20.3843 6.87075 22 8.2071 22H15.7929Z" fill="#080809" style="fill:#080809;fill:color(display-p3 0.0314 0.0314 0.0353);fill-opacity:1;"/>
</svg>
