<svg width="24" height="24" viewBox="0 0 24 24" fill="none" xmlns="http://www.w3.org/2000/svg">
<g clip-path="url(#clip0_29901_26403)">
<path fill-rule="evenodd" clip-rule="evenodd" d="M7.99994 7.99994C7.37419 8.16828 6.7941 8.37614 6.27381 8.61894C4.8379 9.28904 3.5 10.4142 3.5 12C3.5 13.5858 4.8379 14.711 6.27381 15.3811C6.7941 15.6239 7.37419 15.8317 7.99994 16.0001C8.16828 16.6258 8.37614 17.2059 8.61894 17.7262C9.28904 19.1621 10.4142 20.5 12 20.5C13.5858 20.5 14.711 19.1621 15.3811 17.7262C15.6239 17.2059 15.8317 16.6258 16.0001 16.0001C16.6258 15.8317 17.2059 15.6239 17.7262 15.3811C19.1621 14.711 20.5 13.5858 20.5 12C20.5 10.4142 19.1621 9.28904 17.7262 8.61894C17.2059 8.37614 16.6258 8.16828 16.0001 7.99994C15.8317 7.37419 15.6239 6.7941 15.3811 6.27381C14.711 4.8379 13.5858 3.5 12 3.5C10.4142 3.5 9.28904 4.8379 8.61894 6.27381C8.37614 6.7941 8.16828 7.37419 7.99994 7.99994ZM7.11958 10.4313C5.84104 11.028 5.5 11.6528 5.5 12C5.5 12.3472 5.84104 12.972 7.11958 13.5687C7.26903 13.6384 7.42668 13.7053 7.59198 13.7688C7.53147 13.1963 7.5 12.6042 7.5 12C7.5 11.3958 7.53147 10.8037 7.59198 10.2312C7.42668 10.2947 7.26903 10.3616 7.11958 10.4313ZM9.68256 9.68256C9.56543 10.3995 9.5 11.1792 9.5 12C9.5 12.8208 9.56543 13.6005 9.68256 14.3174C10.3995 14.4346 11.1792 14.5 12 14.5C12.8208 14.5 13.6005 14.4346 14.3174 14.3174C14.4346 13.6005 14.5 12.8208 14.5 12C14.5 11.1792 14.4346 10.3995 14.3174 9.68256C13.6005 9.56542 12.8208 9.5 12 9.5C11.1792 9.5 10.3995 9.56542 9.68256 9.68256ZM13.7688 7.59198C13.1963 7.53146 12.6042 7.5 12 7.5C11.3958 7.5 10.8037 7.53146 10.2312 7.59198C10.2947 7.42668 10.3616 7.26903 10.4313 7.11959C11.028 5.84104 11.6528 5.5 12 5.5C12.3472 5.5 12.972 5.84104 13.5687 7.11958C13.6384 7.26903 13.7053 7.42668 13.7688 7.59198ZM16.408 10.2312C16.4685 10.8037 16.5 11.3958 16.5 12C16.5 12.6042 16.4685 13.1963 16.408 13.7688C16.5733 13.7053 16.731 13.6384 16.8804 13.5687C18.159 12.972 18.5 12.3472 18.5 12C18.5 11.6528 18.159 11.028 16.8804 10.4313C16.731 10.3616 16.5733 10.2947 16.408 10.2312ZM13.7688 16.408C13.1963 16.4685 12.6042 16.5 12 16.5C11.3958 16.5 10.8037 16.4685 10.2312 16.408C10.2947 16.5733 10.3616 16.731 10.4313 16.8804C11.028 18.159 11.6528 18.5 12 18.5C12.3472 18.5 12.972 18.159 13.5687 16.8804C13.6384 16.731 13.7053 16.5733 13.7688 16.408Z" fill="#080809" style="fill:#080809;fill:color(display-p3 0.0314 0.0314 0.0353);fill-opacity:1;"/>
<path fill-rule="evenodd" clip-rule="evenodd" d="M0.5 12C0.5 5.64873 5.64873 0.5 12 0.5C18.3513 0.5 23.5 5.64873 23.5 12C23.5 18.3513 18.3513 23.5 12 23.5C5.64873 23.5 0.5 18.3513 0.5 12ZM12 2.5C6.75329 2.5 2.5 6.75329 2.5 12C2.5 17.2467 6.75329 21.5 12 21.5C17.2467 21.5 21.5 17.2467 21.5 12C21.5 6.75329 17.2467 2.5 12 2.5Z" fill="#080809" style="fill:#080809;fill:color(display-p3 0.0314 0.0314 0.0353);fill-opacity:1;"/>
</g>
<defs>
<clipPath id="clip0_29901_26403">
<rect width="24" height="24" fill="white" style="fill:white;fill-opacity:1;"/>
</clipPath>
</defs>
</svg>
