<svg width="24" height="24" viewBox="0 0 24 24" fill="none" xmlns="http://www.w3.org/2000/svg">
<path fill-rule="evenodd" clip-rule="evenodd" d="M5 8.82929C6.16519 8.41746 7 7.30622 7 6C7 4.34315 5.65685 3 4 3C2.34315 3 1 4.34315 1 6C1 7.30622 1.83481 8.41746 3 8.82929V20C3 20.5523 3.44772 21 4 21C4.55228 21 5 20.5523 5 20V14H11V20C11 20.5523 11.4477 21 12 21C12.5523 21 13 20.5523 13 20V14H18.5C19.8807 14 21 12.8807 21 11.5V6C21 5.44772 20.5523 5 20 5C19.4477 5 19 5.44772 19 6V11.5C19 11.7761 18.7761 12 18.5 12H13V6C13 5.44772 12.5523 5 12 5C11.4477 5 11 5.44772 11 6V12H5V8.82929ZM3 6C3 5.44772 3.44772 5 4 5C4.55228 5 5 5.44772 5 6C5 6.55228 4.55228 7 4 7C3.44772 7 3 6.55228 3 6Z" fill="#080809" style="fill:#080809;fill:color(display-p3 0.0314 0.0314 0.0353);fill-opacity:1;"/>
</svg>
