<svg width="24" height="24" viewBox="0 0 24 24" fill="none" xmlns="http://www.w3.org/2000/svg">
<path fill-rule="evenodd" clip-rule="evenodd" d="M11.624 5H7.5C3.63401 5 0.5 8.13401 0.5 12C0.5 15.866 3.63401 19 7.5 19H11.624C12.7722 19.6372 14.0937 20 15.5 20C19.9183 20 23.5 16.4183 23.5 12C23.5 7.58172 19.9183 4 15.5 4C14.0937 4 12.7722 4.36284 11.624 5ZM9.25463 7C8.15672 8.3696 7.5 10.1081 7.5 12C7.5 13.8919 8.15672 15.6304 9.25463 17H7.5C4.73858 17 2.5 14.7614 2.5 12C2.5 9.23858 4.73858 7 7.5 7H9.25463ZM9.5 12C9.5 8.68629 12.1863 6 15.5 6C18.8137 6 21.5 8.68629 21.5 12C21.5 15.3137 18.8137 18 15.5 18C12.1863 18 9.5 15.3137 9.5 12Z" fill="#080809" style="fill:#080809;fill:color(display-p3 0.0314 0.0314 0.0353);fill-opacity:1;"/>
</svg>
