<svg width="24" height="24" viewBox="0 0 24 24" fill="none" xmlns="http://www.w3.org/2000/svg">
<path fill-rule="evenodd" clip-rule="evenodd" d="M5.25799 4.16148C5.08875 2.9231 4.03091 2 2.78102 2H2C1.44772 2 1 2.44772 1 3C1 3.55228 1.44772 4 2 4H2.78102C3.031 4 3.24256 4.18462 3.27641 4.4323L3.50917 6.13541C3.51045 6.14478 3.51186 6.15411 3.51339 6.16338L4.65572 14.5405C4.92598 16.5224 6.61875 18 8.61904 18H17.3817C19.382 18 21.0747 16.5224 21.345 14.5405L22.4138 6.70267C22.5366 5.80203 21.8365 5 20.9276 5H5.37259L5.25799 4.16148ZM13 8C13.5523 8 14 8.44772 14 9V10.5H15.5C16.0523 10.5 16.5 10.9477 16.5 11.5C16.5 12.0523 16.0523 12.5 15.5 12.5H14V14C14 14.5523 13.5523 15 13 15C12.4477 15 12 14.5523 12 14V12.5H10.5C9.94772 12.5 9.5 12.0523 9.5 11.5C9.5 10.9477 9.94771 10.5 10.5 10.5H12V9C12 8.44772 12.4477 8 13 8Z" fill="#080809" style="fill:#080809;fill:color(display-p3 0.0314 0.0314 0.0353);fill-opacity:1;"/>
<path d="M9.25008 21.25C9.25008 22.2165 8.46658 23 7.50008 23C6.53358 23 5.75008 22.2165 5.75008 21.25C5.75008 20.2835 6.53358 19.5 7.50008 19.5C8.46658 19.5 9.25008 20.2835 9.25008 21.25Z" fill="#080809" style="fill:#080809;fill:color(display-p3 0.0314 0.0314 0.0353);fill-opacity:1;"/>
<path d="M18.5001 23C19.4666 23 20.2501 22.2165 20.2501 21.25C20.2501 20.2835 19.4666 19.5 18.5001 19.5C17.5336 19.5 16.7501 20.2835 16.7501 21.25C16.7501 22.2165 17.5336 23 18.5001 23Z" fill="#080809" style="fill:#080809;fill:color(display-p3 0.0314 0.0314 0.0353);fill-opacity:1;"/>
</svg>
