<svg width="24" height="24" viewBox="0 0 24 24" fill="none" xmlns="http://www.w3.org/2000/svg">
<path d="M9 3.30827L9 10.9986Z" fill="#080809" style="fill:#080809;fill:color(display-p3 0.0314 0.0314 0.0353);fill-opacity:1;"/>
<path fill-rule="evenodd" clip-rule="evenodd" d="M7 3.30827C7 1.7573 8.2573 0.5 9.80827 0.5C11.2867 0.5 12.512 1.64629 12.6103 3.12147L12.9493 8.20655L17.2127 9.27239C19.4385 9.82885 21 11.8287 21 14.123V16C21 20.3776 17.1542 23.5 12.9775 23.5H11.6937C8.43834 23.5 5.46233 21.6607 4.00647 18.749C3.6734 18.0829 3.5 17.3483 3.5 16.6036V15.0172C3.5 12.8289 4.92201 10.9005 7 10.2475L7 3.30827ZM9 3.30827C9 2.86187 9.36187 2.5 9.80827 2.5C10.2338 2.5 10.5864 2.82992 10.6147 3.2545L11.0022 9.06652C11.0311 9.49975 11.3362 9.86484 11.7575 9.97014L16.7276 11.2127C18.0631 11.5466 19 12.7464 19 14.123V16C19 19.0775 16.2559 21.5 12.9775 21.5H11.6937C9.19588 21.5 6.9124 20.0887 5.79532 17.8546C5.60111 17.4662 5.5 17.0378 5.5 16.6036L5.5 15.0172C5.5 13.9276 6.08755 12.9454 7 12.4188L7 15C7 15.5523 7.44772 16 8 16C8.55228 16 9 15.5523 9 15L9 10.9986L9 3.30827Z" fill="#080809" style="fill:#080809;fill:color(display-p3 0.0314 0.0314 0.0353);fill-opacity:1;"/>
</svg>
