<svg width="24" height="24" viewBox="0 0 24 24" fill="none" xmlns="http://www.w3.org/2000/svg">
<path d="M15.7071 9.70711C16.0976 9.31658 16.0976 8.68342 15.7071 8.29289C15.3166 7.90237 14.6834 7.90237 14.2929 8.29289L13.5 9.08579L12.7071 8.29289C12.3166 7.90237 11.6834 7.90237 11.2929 8.29289C10.9024 8.68342 10.9024 9.31658 11.2929 9.70711L12.0858 10.5L10.5 12.0858L9.70711 11.2929C9.31658 10.9024 8.68342 10.9024 8.29289 11.2929C7.90237 11.6834 7.90237 12.3166 8.29289 12.7071L9.08579 13.5L8.29289 14.2929C7.90237 14.6834 7.90237 15.3166 8.29289 15.7071C8.68342 16.0976 9.31658 16.0976 9.70711 15.7071L10.5 14.9142L11.2929 15.7071C11.6834 16.0976 12.3166 16.0976 12.7071 15.7071C13.0976 15.3166 13.0976 14.6834 12.7071 14.2929L11.9142 13.5L13.5 11.9142L14.2929 12.7071C14.6834 13.0976 15.3166 13.0976 15.7071 12.7071C16.0976 12.3166 16.0976 11.6834 15.7071 11.2929L14.9142 10.5L15.7071 9.70711Z" fill="#080809" style="fill:#080809;fill:color(display-p3 0.0314 0.0314 0.0353);fill-opacity:1;"/>
<path fill-rule="evenodd" clip-rule="evenodd" d="M21.1477 1.30218C19.9914 1.10981 17.4154 0.795867 14.4619 1.18531C11.5083 1.57477 8.10175 2.67881 5.38974 5.3908C2.67746 8.10305 1.57422 11.5096 1.18573 14.4631C0.797261 17.4163 1.11236 19.9919 1.3052 21.1477C1.43843 21.9462 2.05529 22.5631 2.85379 22.6963C4.00956 22.8892 6.58503 23.2044 9.53822 22.816C12.4916 22.4275 15.8982 21.3242 18.6106 18.6118C21.323 15.8995 22.4267 12.4923 22.8157 9.53827C23.2046 6.58438 22.8901 4.00797 22.6974 2.85155C22.5643 2.05245 21.9468 1.43513 21.1477 1.30218ZM13.8847 3.29869C11.4384 3.73944 8.86544 4.74354 6.80395 6.80502C4.74259 8.86636 3.73909 11.4388 3.29905 13.8846L10.1171 20.7026C12.5627 20.2625 15.135 19.259 17.1964 17.1976C19.258 15.136 20.2619 12.5629 20.7023 10.1163L13.8847 3.29869ZM3.26455 20.737C3.1286 19.8964 2.93895 18.32 3.02072 16.4347L7.56699 20.9809C5.68158 21.0627 4.10521 20.873 3.26455 20.737ZM20.981 7.56654C21.0632 5.68024 20.8738 4.10297 20.738 3.26171C19.8969 3.12609 18.32 2.93711 16.4341 3.01962L20.981 7.56654Z" fill="#080809" style="fill:#080809;fill:color(display-p3 0.0314 0.0314 0.0353);fill-opacity:1;"/>
</svg>
