<svg width="24" height="24" viewBox="0 0 24 24" fill="none" xmlns="http://www.w3.org/2000/svg">
<path d="M12.9232 8.11597C12.7681 7.74301 12.4038 7.5 11.9999 7.5C11.596 7.5 11.2317 7.74301 11.0766 8.11597L10.3854 9.77781L8.59127 9.92164C8.18863 9.95392 7.84495 10.2253 7.72013 10.6094C7.59531 10.9936 7.71386 11.4151 8.02063 11.6779L9.38754 12.8488L8.96993 14.5995C8.8762 14.9924 9.02806 15.4032 9.35485 15.6406C9.68164 15.878 10.1192 15.8955 10.4639 15.685L11.9999 14.7468L13.5359 15.685C13.8806 15.8955 14.3181 15.878 14.6449 15.6406C14.9717 15.4032 15.1236 14.9924 15.0298 14.5995L14.6122 12.8488L15.9791 11.6779C16.2859 11.4151 16.4045 10.9936 16.2796 10.6094C16.1548 10.2253 15.8111 9.95392 15.4085 9.92164L13.6144 9.77781L12.9232 8.11597Z" fill="#080809" style="fill:#080809;fill:color(display-p3 0.0314 0.0314 0.0353);fill-opacity:1;"/>
<path fill-rule="evenodd" clip-rule="evenodd" d="M11.6838 0.551317C11.889 0.482894 12.111 0.482894 12.3162 0.551317L21.3162 3.55132C21.7246 3.68743 22 4.06957 22 4.5V13.5C22 19.0228 17.5228 23.5 12 23.5C6.47715 23.5 2 19.0228 2 13.5V4.5C2 4.06957 2.27543 3.68743 2.68377 3.55132L11.6838 0.551317ZM4 5.22076V13.5C4 17.9183 7.58172 21.5 12 21.5C16.4183 21.5 20 17.9183 20 13.5V5.22076L12 2.55409L4 5.22076Z" fill="#080809" style="fill:#080809;fill:color(display-p3 0.0314 0.0314 0.0353);fill-opacity:1;"/>
</svg>
