<svg width="24" height="24" viewBox="0 0 24 24" fill="none" xmlns="http://www.w3.org/2000/svg">
<path d="M23.032 10.6113C23.032 5.03436 18.5097 0.520508 12.9412 0.520508C11.3972 0.520508 9.887 0.824242 8.478 1.43171C7.10275 2.01387 5.87935 2.84071 4.82474 3.89535C3.7701 4.94156 2.94327 6.17336 2.36111 7.54017C1.76207 8.95761 1.45833 10.4594 1.45833 12.0118C1.45833 13.5642 1.76207 15.066 2.36111 16.4835C2.94327 17.8503 3.7701 19.0737 4.82474 20.1283C5.87935 21.1829 7.11119 22.0098 8.478 22.5919C9.887 23.191 11.3972 23.4947 12.9497 23.4947C14.443 23.4947 15.8689 23.2078 17.1766 22.6932L16.3076 20.4995C15.2699 20.9129 14.1393 21.1407 12.9497 21.1407C10.5113 21.1407 8.21644 20.1874 6.49527 18.4662C4.77411 16.745 3.82071 14.4502 3.82071 12.0118C3.82071 9.5735 4.77411 7.27861 6.49527 5.55745C8.22488 3.83628 10.5113 2.88289 12.9497 2.88289C17.2188 2.88289 20.678 6.34209 20.678 10.6113C20.678 12.1806 20.2056 13.6486 19.3956 14.872L17.3876 9.92786C17.0923 9.20226 16.7379 8.11389 15.4049 8.11389C14.0718 8.11389 13.7174 9.2107 13.4306 9.92786L11.5828 14.4923L9.10233 8.23201H6.49527L9.58325 15.8422C9.89544 16.61 10.2413 17.6562 11.5828 17.6562C12.9243 17.6562 13.2618 16.61 13.574 15.8422L15.4049 11.32L17.2441 15.8422C17.6154 16.7788 18.0119 17.6562 19.2353 17.6562C20.1043 17.6562 20.6527 17.0994 20.9564 16.7366C22.2558 15.0407 23.032 12.9146 23.032 10.6113Z" fill="#080809" style="fill:#080809;fill:color(display-p3 0.0314 0.0314 0.0353);fill-opacity:1;"/>
</svg>
