<svg width="24" height="24" viewBox="0 0 24 24" fill="none" xmlns="http://www.w3.org/2000/svg">
<path d="M10.2627 11.748H8.68945L9.47656 9.63184L10.2627 11.748Z" fill="#080809" style="fill:#080809;fill:color(display-p3 0.0314 0.0314 0.0353);fill-opacity:1;"/>
<path fill-rule="evenodd" clip-rule="evenodd" d="M12 1.9375C18.3513 1.9375 23.5 6.0141 23.5 11.042C23.4998 16.0697 18.3512 20.1455 12 20.1455C11.4611 20.1455 10.9313 20.1134 10.4121 20.0566L5.36621 23.4385C5.09362 23.6205 4.73853 23.3704 4.82617 23.0586L6.0166 18.8174C2.70859 17.2186 0.500149 14.3346 0.5 11.042C0.5 6.0141 5.64865 1.9375 12 1.9375ZM9.47656 8.16699C9.11772 8.16705 8.79694 8.3887 8.67285 8.72168L7.0166 13.1738C6.916 13.444 7.03161 13.7604 7.29883 13.873C7.58393 13.9933 7.90776 13.852 8.0127 13.5684L8.34473 12.6777H10.6094L10.9404 13.5684C11.0205 13.783 11.2258 13.917 11.4443 13.917C11.5198 13.917 11.5973 13.901 11.6709 13.8662C11.9277 13.7479 12.0362 13.4413 11.9385 13.1777L10.2812 8.72168C10.1571 8.38866 9.83594 8.16699 9.47656 8.16699ZM13.0898 8.16992C12.8112 8.19593 12.6066 8.44301 12.6064 8.71973V13.3857C12.6067 13.6792 12.8466 13.916 13.1436 13.916H15.2441C15.5577 13.9159 15.8082 13.65 15.7783 13.334C15.7515 13.058 15.5005 12.8545 15.2207 12.8545H13.6797V8.69727C13.6797 8.38725 13.4099 8.13926 13.0898 8.16992ZM20.3799 8.33984C20.171 8.11368 19.8153 8.10957 19.6006 8.3252L17.4355 10.499V8.69727C17.4355 8.38736 17.1656 8.13947 16.8457 8.16992C16.567 8.19579 16.3625 8.44292 16.3623 8.71973V13.3623C16.3623 13.6402 16.5668 13.8877 16.8457 13.9141C17.1654 13.944 17.4353 13.6959 17.4355 13.3857V12.0107L17.9414 11.502L19.5488 13.6963C19.6533 13.84 19.8171 13.916 19.9834 13.916C20.0984 13.916 20.2143 13.8799 20.3125 13.8037C20.5445 13.6254 20.5738 13.2869 20.4014 13.0518L18.7051 10.7354L20.3438 9.09082C20.5477 8.88676 20.5756 8.55209 20.3799 8.33984ZM3.73242 8.25488C3.44109 8.25488 3.21161 8.51741 3.27246 8.81641C3.317 9.03337 3.52048 9.18346 3.74414 9.18359H4.96191V13.3623C4.96194 13.6402 5.16645 13.8877 5.44531 13.9141C5.76508 13.944 6.03488 13.6959 6.03516 13.3857V9.18359H7.26367C7.55444 9.18359 7.78431 8.92146 7.72363 8.62305C7.67907 8.40551 7.47524 8.25489 7.25195 8.25488H3.73242Z" fill="#080809" style="fill:#080809;fill:color(display-p3 0.0314 0.0314 0.0353);fill-opacity:1;"/>
</svg>
