<svg width="24" height="24" viewBox="0 0 24 24" fill="none" xmlns="http://www.w3.org/2000/svg">
<path d="M5.5 1C4.11929 1 3 2.11929 3 3.5V8C3 8.55228 3.44772 9 4 9C4.55229 9 5 8.55228 5 8V3.5C5 3.22386 5.22386 3 5.5 3H18.5C18.7761 3 19 3.22386 19 3.5V8C19 8.55228 19.4477 9 20 9C20.5523 9 21 8.55228 21 8V3.5C21 2.11929 19.8807 1 18.5 1H5.5Z" fill="#080809" style="fill:#080809;fill:color(display-p3 0.0314 0.0314 0.0353);fill-opacity:1;"/>
<path d="M1.04241 9.61084C1.37547 9.43944 1.7764 9.46854 2.08122 9.68625L9.09394 14.695C9.95454 15.3097 10.5329 15.721 11.013 15.9878C11.4708 16.2421 11.7509 16.3129 12 16.3129C12.2491 16.3129 12.5292 16.2421 12.987 15.9878C13.4671 15.721 14.0455 15.3097 14.9061 14.6951L21.9188 9.68631C22.2236 9.4686 22.6245 9.4395 22.9576 9.61091C23.2907 9.78231 23.5 10.1255 23.5 10.5001V14.0732C23.5 15.8967 23.5001 17.3664 23.3446 18.5224C23.1833 19.7225 22.8381 20.733 22.0355 21.5356C21.233 22.3382 20.2225 22.6833 19.0223 22.8447C17.8664 23.0001 16.3966 23.0001 14.5732 23.0001H9.42683C7.60338 23.0001 6.13362 23.0001 4.97767 22.8447C3.77752 22.6833 2.76702 22.3382 1.96447 21.5356C1.16191 20.733 0.816721 19.7225 0.655366 18.5224C0.499952 17.3664 0.499974 15.8967 0.500001 14.0733V10.5C0.500001 10.1254 0.709344 9.78225 1.04241 9.61084Z" fill="#080809" style="fill:#080809;fill:color(display-p3 0.0314 0.0314 0.0353);fill-opacity:1;"/>
<path d="M7 6C7 5.44772 7.44772 5 8 5H16C16.5523 5 17 5.44772 17 6C17 6.55228 16.5523 7 16 7H8C7.44772 7 7 6.55228 7 6Z" fill="#080809" style="fill:#080809;fill:color(display-p3 0.0314 0.0314 0.0353);fill-opacity:1;"/>
<path d="M8 9C7.44772 9 7 9.44771 7 10C7 10.5523 7.44772 11 8 11H16C16.5523 11 17 10.5523 17 10C17 9.44771 16.5523 9 16 9H8Z" fill="#080809" style="fill:#080809;fill:color(display-p3 0.0314 0.0314 0.0353);fill-opacity:1;"/>
</svg>
