<svg width="24" height="24" viewBox="0 0 24 24" fill="none" xmlns="http://www.w3.org/2000/svg">
<path d="M4.07615 12.8827C4.23093 13.2564 4.59557 13.5 5.00003 13.5H9.00003C9.40449 13.5 9.76913 13.2564 9.92391 12.8827C10.0787 12.509 9.99313 12.0789 9.70714 11.7929L7.70714 9.79289C7.31661 9.40237 6.68345 9.40237 6.29292 9.79289L4.29292 11.7929C4.00692 12.0789 3.92137 12.509 4.07615 12.8827Z" fill="#080809" style="fill:#080809;fill:color(display-p3 0.0314 0.0314 0.0353);fill-opacity:1;"/>
<path d="M15 9.5C14.5956 9.5 14.2309 9.74364 14.0761 10.1173C13.9214 10.491 14.0069 10.9211 14.2929 11.2071L16.2929 13.2071C16.6834 13.5976 17.3166 13.5976 17.7071 13.2071L19.7071 11.2071C19.9931 10.9211 20.0787 10.491 19.9239 10.1173C19.7691 9.74364 19.4045 9.5 19 9.5H15Z" fill="#080809" style="fill:#080809;fill:color(display-p3 0.0314 0.0314 0.0353);fill-opacity:1;"/>
<path fill-rule="evenodd" clip-rule="evenodd" d="M4 1C2.34315 1 1 2.34315 1 4V20C1 21.6569 2.34315 23 4 23H20C21.6569 23 23 21.6569 23 20V4C23 2.34315 21.6569 1 20 1H4ZM11 3H4C3.44772 3 3 3.44772 3 4V20C3 20.5523 3.44772 21 4 21H11V3ZM13 21V3H20C20.5523 3 21 3.44772 21 4V20C21 20.5523 20.5523 21 20 21H13Z" fill="#080809" style="fill:#080809;fill:color(display-p3 0.0314 0.0314 0.0353);fill-opacity:1;"/>
</svg>
