<svg width="24" height="24" viewBox="0 0 24 24" fill="none" xmlns="http://www.w3.org/2000/svg">
<g clip-path="url(#clip0_29901_28551)">
<path fill-rule="evenodd" clip-rule="evenodd" d="M12.7584 0.119505C12.2543 0.0552172 11.7442 0.0552172 11.2401 0.119505C10.1372 0.260174 9.19562 0.782712 8.21762 1.56147C7.26592 2.31929 6.18965 3.39558 4.83598 4.74927L4.74831 4.83694C3.39462 6.19061 2.31832 7.26689 1.5605 8.2186C0.781736 9.19659 0.259197 10.1382 0.118528 11.2411C0.0542407 11.7451 0.0542407 12.2553 0.118528 12.7593C0.259197 13.8622 0.781736 14.8039 1.5605 15.7818C2.31832 16.7335 3.3946 17.8098 4.74829 19.1635L4.83597 19.2512C6.18959 20.6048 7.26595 21.6812 8.21762 22.439C9.19562 23.2177 10.1372 23.7403 11.2401 23.8809C11.7442 23.9452 12.2543 23.9452 12.7584 23.8809C13.8613 23.7403 14.8029 23.2177 15.7809 22.439C16.7326 21.6812 17.8088 20.6049 19.1625 19.2512L19.2502 19.1635C20.6039 17.8098 21.6802 16.7335 22.438 15.7818C23.2168 14.8039 23.7393 13.8622 23.88 12.7593C23.9443 12.2553 23.9443 11.7451 23.88 11.2411C23.7393 10.1382 23.2168 9.19659 22.438 8.2186C21.6802 7.26691 20.6039 6.19067 19.2503 4.83704L19.1625 4.74929C17.8089 3.3956 16.7326 2.31929 15.7809 1.56147C14.8029 0.782712 13.8613 0.260174 12.7584 0.119505ZM9.99902 12C9.44674 12 8.99902 12.4477 8.99902 13V15C8.99902 15.5523 8.55131 16 7.99902 16C7.44674 16 6.99902 15.5523 6.99902 15V13C6.99902 11.3431 8.34217 10 9.99902 10H14.5848L13.2919 8.70711C12.9014 8.31658 12.9014 7.68342 13.2919 7.29289C13.6824 6.90237 14.3156 6.90237 14.7061 7.29289L16.6455 9.23223C17.6218 10.2085 17.6218 11.7915 16.6455 12.7678L14.7061 14.7071C14.3156 15.0976 13.6824 15.0976 13.2919 14.7071C12.9014 14.3166 12.9014 13.6834 13.2919 13.2929L14.5848 12H9.99902Z" fill="#080809" style="fill:#080809;fill:color(display-p3 0.0314 0.0314 0.0353);fill-opacity:1;"/>
</g>
<defs>
<clipPath id="clip0_29901_28551">
<rect width="24" height="24" fill="white" style="fill:white;fill-opacity:1;"/>
</clipPath>
</defs>
</svg>
