<svg width="24" height="24" viewBox="0 0 24 24" fill="none" xmlns="http://www.w3.org/2000/svg">
<path fill-rule="evenodd" clip-rule="evenodd" d="M11.9252 1H12.0748C14.3683 0.999979 16.1914 0.999962 17.6196 1.19198C19.0921 1.38994 20.2936 1.80836 21.2426 2.75736C22.1916 3.70636 22.6101 4.90794 22.808 6.3804C23 7.8086 23 9.63167 23 11.9252V12.0748C23 14.3683 23 16.1914 22.808 17.6196C22.6101 19.0921 22.1916 20.2936 21.2426 21.2426C20.2936 22.1916 19.0921 22.6101 17.6196 22.808C16.1914 23 14.3683 23 12.0748 23H11.9252C9.63167 23 7.8086 23 6.3804 22.808C4.90794 22.6101 3.70636 22.1916 2.75736 21.2426C1.80836 20.2936 1.38994 19.0921 1.19198 17.6196C0.999962 16.1914 0.999979 14.3684 1 12.0748V11.9252C0.999979 9.63165 0.999962 7.80859 1.19198 6.3804C1.38994 4.90794 1.80836 3.70636 2.75736 2.75736C3.70636 1.80836 4.90794 1.38994 6.3804 1.19198C7.80859 0.999962 9.63166 0.999979 11.9252 1ZM7.5 5C6.11929 5 5 6.11929 5 7.5V11.5C5 12.8807 6.11929 14 7.5 14H16.5C17.8807 14 19 12.8807 19 11.5V7.5C19 6.11929 17.8807 5 16.5 5H7.5ZM5 18C5 17.4477 5.44772 17 6 17H12C12.5523 17 13 17.4477 13 18C13 18.5523 12.5523 19 12 19H6C5.44772 19 5 18.5523 5 18ZM15 18C15 17.4477 15.4477 17 16 17H18C18.5523 17 19 17.4477 19 18C19 18.5523 18.5523 19 18 19H16C15.4477 19 15 18.5523 15 18Z" fill="#080809" style="fill:#080809;fill:color(display-p3 0.0314 0.0314 0.0353);fill-opacity:1;"/>
</svg>
