<svg width="24" height="24" viewBox="0 0 24 24" fill="none" xmlns="http://www.w3.org/2000/svg">
<path fill-rule="evenodd" clip-rule="evenodd" d="M12 0.5C12.5523 0.5 13 0.947715 13 1.5V2.62602C14.7252 3.07006 16 4.63616 16 6.5C16 7.83955 15.3415 9.0253 14.3306 9.75125L17.0575 16.7956C17.8854 16.3747 18.6517 15.8536 19.3399 15.2488C19.7548 14.8843 20.3866 14.9251 20.7512 15.3399C21.1158 15.7548 21.075 16.3866 20.6601 16.7512C19.7968 17.5099 18.8297 18.1567 17.7826 18.6688L18.9323 21.639C19.1317 22.1541 18.8758 22.7332 18.3608 22.9326C17.8457 23.132 17.2666 22.8761 17.0672 22.361L15.9238 19.4072C14.9901 19.6976 14.011 19.8871 13 19.9627V20.5C13 21.0523 12.5523 21.5 12 21.5C11.4477 21.5 11 21.0523 11 20.5V19.9627C9.98898 19.8871 9.00993 19.6976 8.07623 19.4073L6.93284 22.361C6.73347 22.8761 6.15432 23.132 5.63927 22.9326C5.12423 22.7332 4.86833 22.1541 5.0677 21.639L6.21746 18.6688C5.17038 18.1567 4.20327 17.5099 3.33992 16.7512C2.92505 16.3866 2.88427 15.7548 3.24883 15.3399C3.61339 14.9251 4.24524 14.8843 4.66011 15.2488C5.34829 15.8536 6.11459 16.3747 6.94257 16.7956L9.66942 9.75128C8.65848 9.02533 8 7.83956 8 6.5C8 4.63616 9.27477 3.07006 11 2.62602V1.5C11 0.947715 11.4477 0.5 12 0.5ZM11.5346 10.4732L8.8002 17.537C9.50584 17.7469 10.2417 17.8892 11 17.9561V17.5C11 16.9477 11.4477 16.5 12 16.5C12.5523 16.5 13 16.9477 13 17.5V17.9561C13.7583 17.8892 14.4942 17.7469 15.1998 17.537L12.4655 10.4732C12.3128 10.4909 12.1574 10.5 12 10.5C11.8426 10.5 11.6873 10.4909 11.5346 10.4732ZM10 6.5C10 5.39543 10.8954 4.5 12 4.5C13.1046 4.5 14 5.39543 14 6.5C14 7.60457 13.1046 8.5 12 8.5C10.8954 8.5 10 7.60457 10 6.5Z" fill="#080809" style="fill:#080809;fill:color(display-p3 0.0314 0.0314 0.0353);fill-opacity:1;"/>
</svg>
