<svg width="24" height="24" viewBox="0 0 24 24" fill="none" xmlns="http://www.w3.org/2000/svg">
<path fill-rule="evenodd" clip-rule="evenodd" d="M1.16309 21.4522L4.40446 16.266C4.41508 16.2478 4.42628 16.2299 4.43805 16.2123L10.9521 5.78986C11.1709 5.43967 11.4732 5.14914 11.8317 4.94425L14.8296 3.23119C14.8682 3.20914 14.9036 3.18205 14.9351 3.15062L16.7324 1.35333C17.7087 0.377017 19.2916 0.377015 20.2679 1.35333L22.6466 3.73201C23.6229 4.70832 23.6229 6.29123 22.6466 7.26754L21.1466 8.76754C21.0528 8.86131 21.0001 8.98849 21.0001 9.12109V13.025C21.0001 14.0129 20.4183 14.9082 19.5155 15.3095L6.71231 20.9998L22 20.9998C22.5523 20.9998 23 21.4475 23 21.9998C23 22.5521 22.5523 22.9998 22 22.9998L2 22.9998C1.44772 22.9998 1 22.5521 1 21.9998C1 21.7977 1.05997 21.6095 1.16309 21.4522ZM18.8537 2.76754C18.6584 2.57228 18.3418 2.57228 18.1466 2.76754L16.3493 4.56484C16.1922 4.72196 16.0148 4.85743 15.8219 4.96768L12.824 6.68074C12.7523 6.72172 12.6918 6.77982 12.6481 6.84986L7.84413 14.5362L19.0001 9.5986V9.12109C19.0001 8.45805 19.2635 7.82217 19.7324 7.35333L21.2324 5.85333C21.4276 5.65806 21.4276 5.34148 21.2324 5.14622L18.8537 2.76754ZM19.0001 11.7857L5.95444 17.5597L4.57994 19.7589L18.7032 13.4819C18.8838 13.4016 19.0001 13.2226 19.0001 13.025V11.7857Z" fill="#080809" style="fill:#080809;fill:color(display-p3 0.0314 0.0314 0.0353);fill-opacity:1;"/>
</svg>
