<svg width="24" height="24" viewBox="0 0 24 24" fill="none" xmlns="http://www.w3.org/2000/svg">
<path d="M12 2.4165C5.64875 2.4165 0.5 6.69418 0.5 11.9709C0.5 15.2665 2.50996 18.1706 5.56536 19.8877C5.9294 20.0923 6.11326 20.531 5.92165 20.9025C5.58017 21.5645 5.12027 22.1456 4.57228 22.6117C4.39164 22.7654 4.51948 23.1084 4.75138 23.0595C6.14187 22.7664 7.35647 22.2055 8.26347 21.4667C8.51874 21.2588 8.85266 21.1659 9.17465 21.2336C10.0785 21.4237 11.0248 21.5254 12 21.5254C18.3512 21.5254 23.5 17.2477 23.5 11.9709C23.5 6.69418 18.3512 2.4165 12 2.4165Z" fill="#080809" style="fill:#080809;fill:color(display-p3 0.0314 0.0314 0.0353);fill-opacity:1;"/>
</svg>
