<svg width="24" height="24" viewBox="0 0 24 24" fill="none" xmlns="http://www.w3.org/2000/svg">
<path d="M11.9999 10.7637C11.9999 10.7637 12.1188 10.5733 12.4759 10.2161C12.9521 9.73995 13.6906 9.4847 14.3809 9.50071C15.8478 9.53474 17.0221 10.762 16.9997 12.2399C16.9665 14.5587 14.639 16.4679 12.4971 17.7771C12.1916 17.9638 11.8082 17.9638 11.5027 17.7771C9.36058 16.468 7.0335 14.5598 7.00031 12.2399C6.97794 10.7619 8.15196 9.53474 9.61895 9.50071C10.3092 9.4847 11.0474 9.73995 11.5236 10.2161C11.8807 10.5733 11.9999 10.7637 11.9999 10.7637Z" fill="#080809" style="fill:#080809;fill:color(display-p3 0.0314 0.0314 0.0353);fill-opacity:1;"/>
<path fill-rule="evenodd" clip-rule="evenodd" d="M12.0002 0.5C11.092 0.5 10.2931 0.803007 9.46377 1.28575C8.66868 1.74856 7.763 2.42785 6.64866 3.26363L4.41609 4.93795C3.02513 5.97995 2.05764 6.70471 1.52803 7.76393C0.998423 8.82315 0.999104 10.032 1.00008 11.77L1.00017 16.0708C1.00013 17.4249 1.0001 18.5415 1.11892 19.4253C1.24366 20.3531 1.51563 21.1725 2.17174 21.8286C2.82785 22.4847 3.64728 22.7567 4.57511 22.8814C5.45886 23.0003 6.57548 23.0002 7.9296 23.0002H16.0707C17.4248 23.0002 18.5415 23.0003 19.4252 22.8814C20.3531 22.7567 21.1725 22.4847 21.8286 21.8286C22.4847 21.1725 22.7567 20.3531 22.8814 19.4253C23.0002 18.5415 23.0002 17.4249 23.0002 16.0708L23.0003 11.77C23.0012 10.032 23.0019 8.82315 22.4723 7.76393C21.9427 6.70471 20.9752 5.97995 19.5842 4.93795L17.3517 3.26363C16.2373 2.42784 15.3317 1.74856 14.5366 1.28575C13.7072 0.803007 12.9083 0.5 12.0002 0.5ZM7.80017 4.9C8.97467 4.01912 9.7876 3.41141 10.4699 3.01425C11.1295 2.63033 11.575 2.5 12.0002 2.5C12.4254 2.5 12.8709 2.63033 13.5304 3.01425C14.2127 3.41141 15.0257 4.01912 16.2002 4.9L18.2002 6.4C19.8508 7.63794 20.3915 8.07453 20.6834 8.65836C20.9754 9.24219 21.0002 9.93677 21.0002 12V16.0002C21.0002 17.4427 20.998 18.4239 20.8993 19.1588C20.8043 19.8648 20.637 20.1918 20.4144 20.4144C20.1918 20.637 19.8648 20.8043 19.1587 20.8993C18.4239 20.9981 17.4427 21.0002 16.0002 21.0002H8.00017C6.55768 21.0002 5.57642 20.9981 4.8416 20.8993C4.13555 20.8043 3.80853 20.637 3.58595 20.4144C3.36338 20.1918 3.19601 19.8648 3.10109 19.1588C3.00229 18.4239 3.00017 17.4427 3.00017 16.0002V12C3.00017 9.93677 3.02497 9.24219 3.31689 8.65836C3.6088 8.07453 4.14958 7.63794 5.80017 6.4L7.80017 4.9Z" fill="#080809" style="fill:#080809;fill:color(display-p3 0.0314 0.0314 0.0353);fill-opacity:1;"/>
</svg>
