<svg width="24" height="24" viewBox="0 0 24 24" fill="none" xmlns="http://www.w3.org/2000/svg">
<path fill-rule="evenodd" clip-rule="evenodd" d="M4.05707 15.5285L4.23622 14.2743C4.28211 13.953 4.43098 13.6553 4.66049 13.4257L6.33561 11.7507L6.06043 11.4755C4.69359 10.1086 4.69359 7.89256 6.06043 6.52572L11.0249 1.56126C12.3917 0.194425 14.6078 0.194423 15.9746 1.56126L19.4391 5.02572C20.8059 6.39256 20.8059 8.60864 19.4391 9.97547L14.4746 14.9399C13.1078 16.3068 10.8917 16.3068 9.52489 14.9399L9.24983 14.6649L7.57469 16.34C7.34519 16.5695 7.04746 16.7183 6.72617 16.7642L5.47033 16.9436L4.32818 18.0858C4.1179 18.2961 3.99976 18.5813 3.99976 18.8787C3.99976 19.498 4.50179 20 5.12108 20H20.9998C21.552 20 21.9998 20.4477 21.9998 21C21.9998 21.5523 21.552 22 20.9998 22H5.12108C3.39722 22 1.99976 20.6025 1.99976 18.8787C1.99976 18.0509 2.32861 17.2569 2.91397 16.6716L4.05707 15.5285ZM12.4391 2.97547C13.0249 2.38969 13.9746 2.38969 14.5604 2.97547L18.0249 6.43994C18.6107 7.02572 18.6107 7.97547 18.0249 8.56126L13.0604 13.5257C12.4746 14.1115 11.5249 14.1115 10.9391 13.5257L7.47464 10.0613C6.88885 9.47547 6.88885 8.52573 7.47464 7.93994L12.4391 2.97547Z" fill="#080809" style="fill:#080809;fill:color(display-p3 0.0314 0.0314 0.0353);fill-opacity:1;"/>
</svg>
