<svg width="24" height="24" viewBox="0 0 24 24" fill="none" xmlns="http://www.w3.org/2000/svg">
<g clip-path="url(#clip0_29901_28214)">
<path d="M11.8646 2.86568C14.4238 0.306454 18.5732 0.306499 21.1324 2.86578C23.6917 5.42504 23.6916 9.57438 21.1324 12.1336L18.8823 14.3837C18.3941 14.8719 17.6027 14.8719 17.1145 14.3837C16.6264 13.8956 16.6264 13.1041 17.1145 12.616L19.3646 10.3659C20.9476 8.78292 20.9476 6.21648 19.3647 4.63353C17.7817 3.05057 15.2153 3.05054 13.6323 4.63347L11.3821 6.88361C10.894 7.37176 10.1025 7.37175 9.61435 6.88358C9.1262 6.39542 9.12621 5.60397 9.61437 5.11582L11.8646 2.86568Z" fill="#080809" style="fill:#080809;fill:color(display-p3 0.0314 0.0314 0.0353);fill-opacity:1;"/>
<path d="M6.88241 9.61623C7.37055 10.1044 7.37053 10.8959 6.88236 11.384L4.63258 13.6336C3.04959 15.2165 3.04955 17.783 4.6325 19.366C6.21538 20.9488 8.78171 20.9489 10.3646 19.366L12.6146 17.1162C13.1028 16.628 13.8943 16.6281 14.3824 17.1162C14.8706 17.6044 14.8705 18.3959 14.3824 18.884L12.1324 21.1339C9.57311 23.693 5.4239 23.6929 2.86473 21.1337C0.305451 18.5744 0.305515 14.425 2.86487 11.8658L5.11464 9.61618C5.60281 9.12804 6.39427 9.12806 6.88241 9.61623Z" fill="#080809" style="fill:#080809;fill:color(display-p3 0.0314 0.0314 0.0353);fill-opacity:1;"/>
<path d="M15.8824 9.88393C16.3705 9.39577 16.3705 8.60432 15.8824 8.11616C15.3942 7.62801 14.6027 7.62802 14.1146 8.11617L8.11459 14.1162C7.62643 14.6044 7.62644 15.3958 8.1146 15.884C8.60275 16.3722 9.39421 16.3721 9.88236 15.884L15.8824 9.88393Z" fill="#080809" style="fill:#080809;fill:color(display-p3 0.0314 0.0314 0.0353);fill-opacity:1;"/>
</g>
<defs>
<clipPath id="clip0_29901_28214">
<rect width="24" height="24" fill="white" style="fill:white;fill-opacity:1;"/>
</clipPath>
</defs>
</svg>
