<svg width="24" height="24" viewBox="0 0 24 24" fill="none" xmlns="http://www.w3.org/2000/svg">
<path fill-rule="evenodd" clip-rule="evenodd" d="M7.5 2.5H8.00003V9.42811L3.33972 17.5C1.80012 20.1667 3.72462 23.5 6.80382 23.5H17.1961C20.2753 23.5 22.1998 20.1667 20.6602 17.5L16 9.4283V2.5H16.5C17.0523 2.5 17.5 2.05228 17.5 1.5C17.5 0.947715 17.0523 0.5 16.5 0.5H7.5C6.94772 0.5 6.5 0.947715 6.5 1.5C6.5 2.05228 6.94772 2.5 7.5 2.5ZM10 9.69606V2.5H14V9.69625C14 9.87179 14.0462 10.0442 14.134 10.1962L16.3796 14.0857C14.9215 13.939 13.4396 14.2526 12.1513 15.0041L10.6057 15.9057C9.47874 16.5631 8.13943 16.754 6.87368 16.4375L6.33962 16.304L9.86605 10.1961C9.95382 10.044 10 9.87159 10 9.69606ZM5.29951 18.1055L5.07177 18.5C4.30197 19.8333 5.26422 21.5 6.80382 21.5H17.1961C18.7357 21.5 19.698 19.8333 18.9282 18.5L17.756 16.4697C17.7319 16.4636 17.7079 16.4566 17.684 16.4486L17.2596 16.3071C15.8953 15.8524 14.4012 16.0071 13.1591 16.7317L11.6135 17.6333C10.0357 18.5536 8.16066 18.8208 6.38861 18.3778L5.29951 18.1055Z" fill="#080809" style="fill:#080809;fill:color(display-p3 0.0314 0.0314 0.0353);fill-opacity:1;"/>
</svg>
