<svg width="24" height="24" viewBox="0 0 24 24" fill="none" xmlns="http://www.w3.org/2000/svg">
<path d="M18.1533 19.2383C18.5738 18.8807 19.2046 18.9313 19.5625 19.3516C19.9204 19.7722 19.8698 20.4038 19.4492 20.7617C17.443 22.4689 14.8406 23.5 12 23.5C9.15942 23.5 6.55702 22.4689 4.55078 20.7617L4.47656 20.6914C4.12561 20.3256 4.10191 19.7459 4.4375 19.3516C4.79539 18.9313 5.42616 18.8807 5.84668 19.2383L6.16309 19.4961C7.77388 20.7524 9.79853 21.5 12 21.5C14.348 21.5 16.4952 20.6493 18.1533 19.2383Z" fill="#080809" style="fill:#080809;fill:color(display-p3 0.0314 0.0314 0.0353);fill-opacity:1;"/>
<path d="M1.64062 10.0049C2.19035 10.0568 2.59472 10.5441 2.54297 11.0938C2.51482 11.3917 2.5 11.6942 2.5 12C2.5 13.537 2.8645 14.9861 3.51074 16.2686L3.64355 16.5234L3.6875 16.6152C3.88316 17.0829 3.69641 17.6319 3.24121 17.8789C2.78611 18.1257 2.22389 17.9833 1.93848 17.5645L1.88574 17.4766L1.72461 17.1689C0.941 15.614 0.5 13.8572 0.5 12C0.5 11.6314 0.517729 11.2665 0.551758 10.9062C0.603693 10.3565 1.09095 9.95316 1.64062 10.0049Z" fill="#080809" style="fill:#080809;fill:color(display-p3 0.0314 0.0314 0.0353);fill-opacity:1;"/>
<path d="M12 0.5C18.3513 0.5 23.5 5.64873 23.5 12C23.5 13.9808 22.9982 15.8472 22.1143 17.4766C21.8509 17.9619 21.2442 18.1421 20.7588 17.8789C20.2734 17.6156 20.0933 17.0088 20.3564 16.5234C21.0855 15.1796 21.5 13.6395 21.5 12C21.5 6.7533 17.2467 2.5 12 2.5C11.4477 2.5 11 2.05228 11 1.5C11 0.947716 11.4477 0.5 12 0.5Z" fill="#080809" style="fill:#080809;fill:color(display-p3 0.0314 0.0314 0.0353);fill-opacity:1;"/>
<path d="M2.96875 4.88086C3.31091 4.44734 3.93953 4.37268 4.37305 4.71484C4.80644 5.05697 4.88006 5.68565 4.53809 6.11914C4.20286 6.54387 3.90318 6.99806 3.64355 7.47656C3.38023 7.96193 2.77349 8.14209 2.28809 7.87891C1.80271 7.61557 1.62253 7.00885 1.88574 6.52344C2.20018 5.94387 2.56327 5.39461 2.96875 4.88086Z" fill="#080809" style="fill:#080809;fill:color(display-p3 0.0314 0.0314 0.0353);fill-opacity:1;"/>
<path d="M7.61914 1.36426C8.12959 1.15397 8.71425 1.39687 8.9248 1.90723C9.13534 2.41781 8.89144 3.00236 8.38086 3.21289C8.07095 3.34069 7.76909 3.48485 7.47656 3.64355C6.99116 3.90675 6.38442 3.72658 6.12109 3.24121C5.85788 2.7558 6.03806 2.14908 6.52344 1.88574C6.87771 1.69354 7.24351 1.51914 7.61914 1.36426Z" fill="#080809" style="fill:#080809;fill:color(display-p3 0.0314 0.0314 0.0353);fill-opacity:1;"/>
</svg>
