<svg width="24" height="24" viewBox="0 0 24 24" fill="none" xmlns="http://www.w3.org/2000/svg">
<path fill-rule="evenodd" clip-rule="evenodd" d="M18.5 1C17.6716 1 17 1.67157 17 2.5V5.5C17 6.32843 17.6716 7 18.5 7H21.5C22.3284 7 23 6.32843 23 5.5V2.5C23 1.67157 22.3284 1 21.5 1H18.5ZM19 5V3H21V5H19Z" fill="#080809" style="fill:#080809;fill:color(display-p3 0.0314 0.0314 0.0353);fill-opacity:1;"/>
<path d="M12 8.75C10.2051 8.75 8.75 10.2051 8.75 12C8.75 13.7949 10.2051 15.25 12 15.25C13.7949 15.25 15.25 13.7949 15.25 12C15.25 10.2051 13.7949 8.75 12 8.75Z" fill="#080809" style="fill:#080809;fill:color(display-p3 0.0314 0.0314 0.0353);fill-opacity:1;"/>
<path fill-rule="evenodd" clip-rule="evenodd" d="M9 18.5C9 17.6716 9.67157 17 10.5 17H13.5C14.3284 17 15 17.6716 15 18.5V21.5C15 22.3284 14.3284 23 13.5 23H10.5C9.67157 23 9 22.3284 9 21.5V18.5ZM11 19V21H13V19H11Z" fill="#080809" style="fill:#080809;fill:color(display-p3 0.0314 0.0314 0.0353);fill-opacity:1;"/>
<path fill-rule="evenodd" clip-rule="evenodd" d="M18.5 17C17.6716 17 17 17.6716 17 18.5V21.5C17 22.3284 17.6716 23 18.5 23H21.5C22.3284 23 23 22.3284 23 21.5V18.5C23 17.6716 22.3284 17 21.5 17H18.5ZM19 21V19H21V21H19Z" fill="#080809" style="fill:#080809;fill:color(display-p3 0.0314 0.0314 0.0353);fill-opacity:1;"/>
<path fill-rule="evenodd" clip-rule="evenodd" d="M1 18.5C1 17.6716 1.67157 17 2.5 17H5.5C6.32843 17 7 17.6716 7 18.5V21.5C7 22.3284 6.32843 23 5.5 23H2.5C1.67157 23 1 22.3284 1 21.5V18.5ZM3 19V21H5V19H3Z" fill="#080809" style="fill:#080809;fill:color(display-p3 0.0314 0.0314 0.0353);fill-opacity:1;"/>
<path fill-rule="evenodd" clip-rule="evenodd" d="M18.5 9C17.6716 9 17 9.67157 17 10.5V13.5C17 14.3284 17.6716 15 18.5 15H21.5C22.3284 15 23 14.3284 23 13.5V10.5C23 9.67157 22.3284 9 21.5 9H18.5ZM21 13H19V11H21V13Z" fill="#080809" style="fill:#080809;fill:color(display-p3 0.0314 0.0314 0.0353);fill-opacity:1;"/>
<path fill-rule="evenodd" clip-rule="evenodd" d="M1 10.5C1 9.67157 1.67157 9 2.5 9H5.5C6.32843 9 7 9.67157 7 10.5V13.5C7 14.3284 6.32843 15 5.5 15H2.5C1.67157 15 1 14.3284 1 13.5V10.5ZM3 11V13H5V11H3Z" fill="#080809" style="fill:#080809;fill:color(display-p3 0.0314 0.0314 0.0353);fill-opacity:1;"/>
<path fill-rule="evenodd" clip-rule="evenodd" d="M1 2.5C1 1.67157 1.67157 1 2.5 1H5.5C6.32843 1 7 1.67157 7 2.5V5.5C7 6.32843 6.32843 7 5.5 7H2.5C1.67157 7 1 6.32843 1 5.5V2.5ZM3 3V5H5V3H3Z" fill="#080809" style="fill:#080809;fill:color(display-p3 0.0314 0.0314 0.0353);fill-opacity:1;"/>
<path fill-rule="evenodd" clip-rule="evenodd" d="M10.5 1C9.67157 1 9 1.67157 9 2.5V5.5C9 6.32843 9.67157 7 10.5 7H13.5C14.3284 7 15 6.32843 15 5.5V2.5C15 1.67157 14.3284 1 13.5 1H10.5ZM11 5V3H13V5H11Z" fill="#080809" style="fill:#080809;fill:color(display-p3 0.0314 0.0314 0.0353);fill-opacity:1;"/>
</svg>
