<svg width="24" height="24" viewBox="0 0 24 24" fill="none" xmlns="http://www.w3.org/2000/svg">
<path fill-rule="evenodd" clip-rule="evenodd" d="M3 9.56061C3 4.5637 7.02234 0.5 12 0.5C16.9777 0.5 21 4.5637 21 9.56061C21 13.0021 19.6038 15.9589 17.8351 18.0509C16.9501 19.0977 15.9573 19.9459 14.9702 20.5387C14.4859 20.8294 13.9854 21.0691 13.4862 21.2364L13.8944 22.0528C14.0494 22.3628 14.0329 22.7309 13.8506 23.0257C13.6684 23.3205 13.3466 23.5 13 23.5H11C10.6534 23.5 10.3316 23.3205 10.1493 23.0257C9.96714 22.7309 9.95058 22.3628 10.1056 22.0528L10.5138 21.2364C10.0146 21.0691 9.5141 20.8294 9.02985 20.5387C8.04274 19.9459 7.04987 19.0977 6.16492 18.0509C4.39625 15.9589 3 13.0021 3 9.56061ZM8.49534 5.31328C8.80643 5.03979 8.83691 4.5659 8.56342 4.25481C8.28993 3.94372 7.81603 3.91324 7.50494 4.18673C6.37665 5.17866 5.57032 6.54187 5.26438 8.08978C5.18406 8.49613 5.44837 8.89066 5.85472 8.97097C6.26107 9.05128 6.65559 8.78698 6.73591 8.38063C6.97696 7.16104 7.61166 6.09017 8.49534 5.31328Z" fill="#080809" style="fill:#080809;fill:color(display-p3 0.0314 0.0314 0.0353);fill-opacity:1;"/>
</svg>
