<svg width="24" height="24" viewBox="0 0 24 24" fill="none" xmlns="http://www.w3.org/2000/svg">
<path d="M8.11091 6.69328C8.50144 7.08381 8.50144 7.71697 8.11091 8.1075C7.11451 9.1039 6.5 10.4775 6.5 11.9966C6.5 13.5156 7.11451 14.8893 8.11091 15.8857C8.50144 16.2762 8.50144 16.9094 8.11091 17.2999C7.72039 17.6904 7.08722 17.6904 6.6967 17.2999C5.34056 15.9437 4.5 14.0674 4.5 11.9966C4.5 9.92579 5.34056 8.04942 6.6967 6.69328C7.08722 6.30276 7.72039 6.30276 8.11091 6.69328Z" fill="#080809" style="fill:#080809;fill:color(display-p3 0.0314 0.0314 0.0353);fill-opacity:1;"/>
<path d="M15.8891 6.69328C16.2796 6.30276 16.9128 6.30276 17.3033 6.69328C18.6594 8.04942 19.5 9.92579 19.5 11.9966C19.5 14.0674 18.6594 15.9437 17.3033 17.2999C16.9128 17.6904 16.2796 17.6904 15.8891 17.2999C15.4986 16.9094 15.4986 16.2762 15.8891 15.8857C16.8855 14.8893 17.5 13.5156 17.5 11.9966C17.5 10.4775 16.8855 9.1039 15.8891 8.1075C15.4986 7.71697 15.4986 7.08381 15.8891 6.69328Z" fill="#080809" style="fill:#080809;fill:color(display-p3 0.0314 0.0314 0.0353);fill-opacity:1;"/>
<path d="M12 14C13.1046 14 14 13.1046 14 12C14 10.8954 13.1046 10 12 10C10.8954 10 10 10.8954 10 12C10 13.1046 10.8954 14 12 14Z" fill="#080809" style="fill:#080809;fill:color(display-p3 0.0314 0.0314 0.0353);fill-opacity:1;"/>
<path fill-rule="evenodd" clip-rule="evenodd" d="M0.5 12C0.5 5.64873 5.64873 0.5 12 0.5C18.3513 0.5 23.5 5.64873 23.5 12C23.5 18.3513 18.3513 23.5 12 23.5C10.0782 23.5 8.26373 23.0278 6.66917 22.1922C6.50272 22.105 6.34411 22.092 6.22347 22.1233L2.82376 23.0047C1.71647 23.2918 0.708248 22.2835 0.995321 21.1762L1.87673 17.7765C1.908 17.6559 1.89499 17.4973 1.80777 17.3308C0.972204 15.7363 0.5 13.9218 0.5 12ZM12 2.5C6.75329 2.5 2.5 6.75329 2.5 12C2.5 13.5908 2.89021 15.0875 3.57929 16.4025C3.86675 16.9511 3.98403 17.6177 3.81272 18.2785L3.14463 20.8554L5.72155 20.1873C6.38232 20.016 7.04889 20.1333 7.59747 20.4207C8.91247 21.1098 10.4092 21.5 12 21.5C17.2467 21.5 21.5 17.2467 21.5 12C21.5 6.75329 17.2467 2.5 12 2.5Z" fill="#080809" style="fill:#080809;fill:color(display-p3 0.0314 0.0314 0.0353);fill-opacity:1;"/>
</svg>
