<svg width="24" height="24" viewBox="0 0 24 24" fill="none" xmlns="http://www.w3.org/2000/svg">
<path d="M1.68791 9.33183C-0.84335 6.81538 0.938748 2.49512 4.50803 2.49512H19.4969C22.5755 2.49512 24.5001 5.8272 22.9618 8.49387L22.8278 8.72602C22.4121 8.57963 21.9649 8.5 21.499 8.5C19.2899 8.5 17.499 10.2909 17.499 12.5C17.499 12.9476 17.5725 13.378 17.7081 13.7798C17.0972 14.0601 16.5669 14.5511 16.2385 15.2527L16.0255 15.7053L16.0165 15.7246C15.8551 16.0774 15.5764 16.3561 15.2236 16.5175L15.2043 16.5265L14.7517 16.7395C12.4149 17.8334 12.4148 21.1664 14.7515 22.2604L14.7553 22.2622L14.8475 22.3056C12.7862 24.4156 8.9628 23.6046 8.14054 20.5048L6.90124 15.833L12.5439 11.6508C12.9524 11.348 13.0687 10.7869 12.8142 10.3468C12.5596 9.90663 12.0154 9.72754 11.5492 9.93056L5.11076 12.7347L1.68791 9.33183Z" fill="#080809" style="fill:#080809;fill:color(display-p3 0.0314 0.0314 0.0353);fill-opacity:1;"/>
<path d="M23.499 12.5C23.499 11.3954 22.6036 10.5 21.499 10.5C20.3945 10.5 19.499 11.3954 19.499 12.5C19.499 13.6046 20.3945 14.5 21.499 14.5C22.6036 14.5 23.499 13.6046 23.499 12.5Z" fill="#080809" style="fill:#080809;fill:color(display-p3 0.0314 0.0314 0.0353);fill-opacity:1;"/>
<path d="M21.9422 18.3361L22.397 18.5502C23.1997 18.9247 23.1997 20.0753 22.397 20.4498L21.9422 20.6639C21.1529 21.0251 20.5241 21.6538 20.1629 22.4431L19.9489 22.898C19.5743 23.7007 18.4238 23.7007 18.0492 22.898L17.8351 22.4431C17.4739 21.6538 16.8452 21.0251 16.0559 20.6639L15.601 20.4498C14.7984 20.0753 14.7984 18.9247 15.601 18.5502L16.0559 18.3361C16.8452 17.9749 17.4739 17.3462 17.8351 16.5569L18.0492 16.102C18.4238 15.2993 19.5743 15.2993 19.9489 16.102L20.1629 16.5569C20.5241 17.3462 21.1529 17.9749 21.9422 18.3361Z" fill="#080809" style="fill:#080809;fill:color(display-p3 0.0314 0.0314 0.0353);fill-opacity:1;"/>
</svg>
