<svg width="24" height="24" viewBox="0 0 24 24" fill="none" xmlns="http://www.w3.org/2000/svg">
<path fill-rule="evenodd" clip-rule="evenodd" d="M12 2.50141C11.8542 2.5005 11.6933 2.50017 11.515 2.50017H10.0003C8.55784 2.50017 7.57657 2.5023 6.84175 2.60109C6.1357 2.69602 5.80868 2.86339 5.58611 3.08596C5.20832 3.46375 5.03464 4.0855 5.00673 6.01464C4.99874 6.56687 4.5446 7.00806 3.99237 7.00007C3.44015 6.99208 2.99895 6.53794 3.00694 5.98571C3.03284 4.1955 3.13505 2.70859 4.17189 1.67175C4.828 1.01564 5.64743 0.743669 6.57526 0.618926C7.45901 0.500108 8.57563 0.500137 9.92975 0.500172L11.685 0.500085C12.7448 0.499253 13.5496 0.498621 14.2884 0.804655C15.0272 1.11069 15.5959 1.6802 16.3447 2.43021L19.0703 5.15581C19.8203 5.90464 20.3898 6.47325 20.6958 7.21208C21.0019 7.95091 21.0012 8.75567 21.0004 9.8155L21.0003 13.0002C21.0003 13.5525 20.5526 14.0002 20.0003 14.0002C19.448 14.0002 19.0003 13.5525 19.0003 13.0002V9.98545C19.0003 9.80703 19 9.64596 18.9991 9.5H14.5C13.1193 9.5 12 8.38071 12 7V2.50141ZM18.5406 7.5C18.3462 7.26773 18.0414 6.95549 17.5359 6.44992L15.0506 3.96464C14.5446 3.45872 14.2323 3.15388 14 2.9595V7C14 7.27614 14.2239 7.5 14.5 7.5H18.5406Z" fill="#080809" style="fill:#080809;fill:color(display-p3 0.0314 0.0314 0.0353);fill-opacity:1;"/>
<path d="M3.99237 17.0001C4.5446 16.9921 4.99874 17.4333 5.00673 17.9855C5.03464 19.9147 5.20832 20.5364 5.58611 20.9142C5.80868 21.1368 6.1357 21.3042 6.84175 21.3991C7.57657 21.4979 8.55784 21.5 10.0003 21.5H14.0003C15.4428 21.5 16.4241 21.4979 17.1589 21.3991C17.8649 21.3042 18.192 21.1368 18.4145 20.9142C18.7923 20.5364 18.966 19.9147 18.9939 17.9855C19.0019 17.4333 19.456 16.9921 20.0083 17.0001C20.5605 17.0081 21.0017 17.4622 20.9937 18.0145C20.9678 19.8047 20.8656 21.2916 19.8287 22.3284C19.1726 22.9845 18.3532 23.2565 17.4254 23.3813C16.5416 23.5001 15.4251 23.5 14.071 23.5H9.92975C8.57566 23.5 7.459 23.5001 6.57526 23.3813C5.64743 23.2565 4.828 22.9845 4.17189 22.3284C3.13505 21.2916 3.03284 19.8047 3.00694 18.0145C2.99895 17.4622 3.44015 17.0081 3.99237 17.0001Z" fill="#080809" style="fill:#080809;fill:color(display-p3 0.0314 0.0314 0.0353);fill-opacity:1;"/>
<path d="M5 11C5 10.4477 4.55228 10 4 10C3.44772 10 3 10.4477 3 11V13C3 13.5523 3.44772 14 4 14C4.55228 14 5 13.5523 5 13V11Z" fill="#080809" style="fill:#080809;fill:color(display-p3 0.0314 0.0314 0.0353);fill-opacity:1;"/>
</svg>
