<svg width="24" height="24" viewBox="0 0 24 24" fill="none" xmlns="http://www.w3.org/2000/svg">
<path fill-rule="evenodd" clip-rule="evenodd" d="M16.1287 2.45681C17.3003 1.28523 19.1997 1.28523 20.3713 2.4568L21.5429 3.62837C22.7145 4.79995 22.7145 6.69945 21.5429 7.87102L19.7221 9.69176C19.7172 9.69692 19.7122 9.70203 19.7071 9.70711C19.702 9.71218 19.6969 9.71719 19.6918 9.72213L19.221 10.1929L19.2071 10.2071L8 21.4141C7.62493 21.7892 7.11622 21.9999 6.58579 21.9999H3.5C2.67157 21.9999 2 21.3283 2 20.4999V17.4142C2 16.8838 2.21071 16.3748 2.58579 15.9997L16.1287 2.45681ZM18.9998 7.58563L16.4141 4.99985L17.5429 3.87102C17.9334 3.48049 18.5666 3.48049 18.9571 3.87102L20.1287 5.04259C20.5192 5.43311 20.5192 6.06628 20.1287 6.4568L18.9998 7.58563Z" fill="#080809" style="fill:#080809;fill:color(display-p3 0.0314 0.0314 0.0353);fill-opacity:1;"/>
<path d="M11 21C11 20.4477 11.4477 20 12 20L21 20C21.5523 20 22 20.4477 22 21C22 21.5523 21.5523 22 21 22H12C11.4477 22 11 21.5523 11 21Z" fill="#080809" style="fill:#080809;fill:color(display-p3 0.0314 0.0314 0.0353);fill-opacity:1;"/>
</svg>
