<svg width="24" height="24" viewBox="0 0 24 24" fill="none" xmlns="http://www.w3.org/2000/svg">
<path fill-rule="evenodd" clip-rule="evenodd" d="M9 11.5C9 10.9477 9.44772 10.5 10 10.5H18.5C19.0523 10.5 19.5 10.9477 19.5 11.5V15C19.5 15.5523 19.0523 16 18.5 16H10C9.44772 16 9 15.5523 9 15V11.5ZM11 12.5V14H17.5V12.5H11Z" fill="#080809" style="fill:#080809;fill:color(display-p3 0.0314 0.0314 0.0353);fill-opacity:1;"/>
<path d="M5 6C5.55229 6 6 5.55229 6 5C6 4.44772 5.55229 4 5 4C4.44772 4 4 4.44772 4 5C4 5.55229 4.44772 6 5 6Z" fill="#080809" style="fill:#080809;fill:color(display-p3 0.0314 0.0314 0.0353);fill-opacity:1;"/>
<path d="M9 5C9 5.55229 8.55229 6 8 6C7.44772 6 7 5.55229 7 5C7 4.44772 7.44772 4 8 4C8.55229 4 9 4.44772 9 5Z" fill="#080809" style="fill:#080809;fill:color(display-p3 0.0314 0.0314 0.0353);fill-opacity:1;"/>
<path fill-rule="evenodd" clip-rule="evenodd" d="M7.92943 1H16.0706C17.4247 0.999967 18.5413 0.999939 19.4251 1.11876C20.3529 1.2435 21.1723 1.51547 21.8284 2.17158C22.4845 2.82769 22.7565 3.64711 22.8813 4.57494C23.0001 5.45868 23 6.57526 23 7.92933V16.0705C23 17.4246 23.0001 18.5413 22.8813 19.4251C22.7565 20.3529 22.4845 21.1723 21.8284 21.8284C21.1723 22.4845 20.3529 22.7565 19.4251 22.8813C19.1623 22.9166 18.879 22.9414 18.575 22.9588C18.5687 22.9593 18.5624 22.9597 18.556 22.9601C18.3741 22.9703 18.1835 22.9779 17.9844 22.9835C17.4098 23 16.7721 23 16.0707 23H7.92946C6.57539 23 5.45868 23.0001 4.57494 22.8813C3.64711 22.7565 2.82769 22.4845 2.17158 21.8284C1.51547 21.1723 1.2435 20.3529 1.11876 19.4251C0.999939 18.5413 0.999967 17.4247 1 16.0706V7.92943C0.999967 6.57533 0.999939 5.45869 1.11876 4.57494C1.2435 3.64711 1.51547 2.82769 2.17158 2.17158C2.82769 1.51547 3.64711 1.2435 4.57494 1.11876C5.45869 0.999939 6.57533 0.999967 7.92943 1ZM11 21L16 21C16.0315 21 16.0628 21 16.0939 21C16.6218 20.9999 17.0869 20.9993 17.5 20.9933V19.5H11V21ZM19.5 20.8418V18.5C19.5 17.9477 19.0523 17.5 18.5 17.5H10C9.44772 17.5 9 17.9477 9 18.5V21H8C7.82681 21 7.66027 21 7.5 20.9997V9H21V16C21 17.4425 20.9979 18.4238 20.8991 19.1586C20.8042 19.8646 20.6368 20.1916 20.4142 20.4142C20.2311 20.5973 19.9773 20.7431 19.5 20.8418ZM4.84144 3.10092C4.13538 3.19585 3.80836 3.36322 3.58579 3.58579C3.36322 3.80836 3.19585 4.13538 3.10092 4.84144C3.02686 5.3923 3.00713 6.08166 3.00189 7H20.9981C20.9929 6.08166 20.9731 5.3923 20.8991 4.84144C20.8042 4.13538 20.6368 3.80836 20.4142 3.58579C20.1916 3.36322 19.8646 3.19585 19.1586 3.10092C18.4238 3.00213 17.4425 3 16 3H8C6.55752 3 5.57626 3.00213 4.84144 3.10092ZM3 16V9H5.5V20.9601C5.25937 20.9457 5.04129 20.926 4.84144 20.8991C4.13538 20.8042 3.80836 20.6368 3.58579 20.4142C3.36322 20.1916 3.19585 19.8646 3.10092 19.1586C3.00213 18.4238 3 17.4425 3 16Z" fill="#080809" style="fill:#080809;fill:color(display-p3 0.0314 0.0314 0.0353);fill-opacity:1;"/>
</svg>
