<svg width="24" height="24" viewBox="0 0 24 24" fill="none" xmlns="http://www.w3.org/2000/svg">
<path fill-rule="evenodd" clip-rule="evenodd" d="M0.5 12C0.5 5.64873 5.64873 0.5 12 0.5C18.3513 0.5 23.5 5.64873 23.5 12C23.5 18.3513 18.3513 23.5 12 23.5C5.64873 23.5 0.5 18.3513 0.5 12ZM17.5877 12.9174C18.4969 13.0689 19.0556 13.9969 18.7641 14.8713L18.6413 15.2399C16.514 21.6218 7.48701 21.6218 5.35971 15.2399L5.23685 14.8713C4.94538 13.9969 5.50409 13.0689 6.41328 12.9174L7.89052 12.6712C10.6117 12.2177 13.3893 12.2177 16.1105 12.6712L17.5877 12.9174ZM6.03009 6.7577C6.16404 6.22191 6.70698 5.89615 7.24277 6.03009C8.35784 6.30886 9.20397 6.72957 9.78024 7.08974C10.1071 7.29403 10.4319 7.52123 10.7073 7.79313C10.9346 8.02043 11.0388 8.34313 10.9873 8.66042C10.9358 8.97771 10.735 9.25091 10.4474 9.39466L7.44745 10.8947C6.95347 11.1417 6.3528 10.9414 6.10581 10.4475C5.85882 9.95347 6.05904 9.3528 6.55302 9.10581L7.9804 8.39212C7.63896 8.23822 7.23144 8.08881 6.7577 7.97038C6.22191 7.83643 5.89615 7.2935 6.03009 6.7577ZM16.7577 6.03009C17.2935 5.89615 17.8364 6.22191 17.9704 6.7577C18.1043 7.2935 17.7786 7.83643 17.2428 7.97038C16.769 8.08881 16.3615 8.23822 16.0201 8.39212L17.4475 9.10581C17.9414 9.3528 18.1417 9.95347 17.8947 10.4475C17.6477 10.9414 17.047 11.1417 16.553 10.8947L13.553 9.39466C13.2655 9.25091 13.0646 8.97771 13.0132 8.66042C12.9617 8.34313 13.0658 8.02043 13.2931 7.79313C13.5666 7.51995 13.8941 7.2936 14.2202 7.08974C14.7965 6.72957 15.6426 6.30886 16.7577 6.03009Z" fill="#080809" style="fill:#080809;fill:color(display-p3 0.0314 0.0314 0.0353);fill-opacity:1;"/>
</svg>
