<svg width="24" height="24" viewBox="0 0 24 24" fill="none" xmlns="http://www.w3.org/2000/svg">
<path d="M6.00648 3.03279C6.54026 3.17457 6.85803 3.72222 6.71624 4.25599L3.86256 14.9993H4.99976C5.55204 14.9993 5.99976 15.447 5.99976 15.9993C5.99976 16.5516 5.55204 16.9993 4.99976 16.9993H3.33131L2.46624 20.256C2.32446 20.7898 1.77681 21.1075 1.24304 20.9658C0.709261 20.824 0.391489 20.2763 0.533273 19.7425L4.78327 3.74255C4.92506 3.20877 5.47271 2.891 6.00648 3.03279Z" fill="#080809" style="fill:#080809;fill:color(display-p3 0.0314 0.0314 0.0353);fill-opacity:1;"/>
<path d="M12.0065 3.03279C12.5403 3.17457 12.858 3.72222 12.7162 4.25599L9.86256 14.9993H10.9998C11.552 14.9993 11.9998 15.447 11.9998 15.9993C11.9998 16.5516 11.552 16.9993 10.9998 16.9993H9.33131L8.46624 20.256C8.32446 20.7898 7.77681 21.1075 7.24304 20.9658C6.70926 20.824 6.39149 20.2763 6.53327 19.7425L10.7833 3.74255C10.9251 3.20877 11.4727 2.891 12.0065 3.03279Z" fill="#080809" style="fill:#080809;fill:color(display-p3 0.0314 0.0314 0.0353);fill-opacity:1;"/>
<path fill-rule="evenodd" clip-rule="evenodd" d="M20.6712 16.9993L21.5331 20.2552C21.6744 20.7891 22.2218 21.1073 22.7557 20.966C23.2895 20.8246 23.6078 20.2773 23.4665 19.7434L19.3048 4.02158C18.9503 2.68219 17.0493 2.68218 16.6947 4.02158L12.5331 19.7434C12.3917 20.2773 12.71 20.8246 13.2439 20.966C13.7778 21.1073 14.3251 20.7891 14.4665 20.2552L15.3283 16.9993H20.6712ZM20.1418 14.9993L17.9998 6.90716L15.8577 14.9993H20.1418Z" fill="#080809" style="fill:#080809;fill:color(display-p3 0.0314 0.0314 0.0353);fill-opacity:1;"/>
</svg>
