<svg width="24" height="24" viewBox="0 0 24 24" fill="none" xmlns="http://www.w3.org/2000/svg">
<path d="M6.44895 1.18404C6.27431 0.6601 5.70799 0.37694 5.18404 0.551588C4.6601 0.726236 4.37694 1.29256 4.55159 1.8165L5.05159 3.3165C5.22624 3.84044 5.79256 4.1236 6.3165 3.94895C6.84044 3.77431 7.1236 3.20799 6.94895 2.68404L6.44895 1.18404Z" fill="#080809" style="fill:#080809;fill:color(display-p3 0.0314 0.0314 0.0353);fill-opacity:1;"/>
<path fill-rule="evenodd" clip-rule="evenodd" d="M18.0196 2.0384C17.4701 1.40305 16.6577 1 15.75 1C14.8423 1 14.0299 1.40305 13.4804 2.0384C13.3237 2.01312 13.1632 2 13 2C11.3431 2 10 3.34315 10 5V6.01027C9.91755 6.00347 9.83415 6 9.74992 6C8.84218 6 8.02979 6.40305 7.48027 7.0384C7.32363 7.01312 7.16315 7 6.99992 7C5.34307 7 3.99992 8.34315 3.99992 10V11.5355C2.30376 11.7781 1 13.237 1 15.0001V16.0002C1 19.8662 4.13405 23 8 23H8.49995C11.7153 23 14.4245 20.8329 15.2452 17.879C15.6512 17.9584 16.0707 18 16.4999 18C20.0897 18 22.9999 15.0903 22.9999 11.5004V10.7896C22.9999 9.76467 22.3831 8.88317 21.5 8.49718V5C21.5 3.34315 20.1569 2 18.5 2C18.3368 2 18.1763 2.01312 18.0196 2.0384ZM12.0196 7.0384L12 7.016V5C12 4.44772 12.4477 4 13 4C13.1654 4 13.3187 4.03938 13.4537 4.10839C13.469 4.11618 13.4844 4.12356 13.4999 4.13052V7.17071C13.1872 7.06016 12.8506 7 12.4999 7C12.3367 7 12.1762 7.01312 12.0196 7.0384ZM15.4999 10C15.4999 9.38665 15.3159 8.81628 14.9999 8.34114V3.33833C15.1837 3.13022 15.4523 3 15.75 3C16.0477 3 16.3161 3.13017 16.4999 3.3382V7.75C16.4999 8.16421 16.8357 8.5 17.2499 8.5C17.6642 8.5 17.9999 8.16421 17.9999 7.75V4.13057C18.0155 4.12359 18.031 4.1162 18.0463 4.10838C18.1813 4.03938 18.3346 4 18.5 4C19.0523 4 19.5 4.44772 19.5 5V9C19.5 9.04653 19.4969 9.09181 19.491 9.13576C18.9036 9.35029 18.4199 9.80598 18.1788 10.4086L17.5538 11.9715C17.4 12.3561 17.587 12.7926 17.9716 12.9464C18.3562 13.1002 18.7927 12.9131 18.9465 12.5285L19.5716 10.9657C19.6841 10.6844 19.9564 10.5 20.2593 10.5C20.6636 10.5 20.9922 10.8238 20.9999 11.2263V11.5004C20.9999 13.9856 18.9853 16 16.4999 16C16.1562 16 15.8216 15.9615 15.5 15.8885L15.5 12.5L15.4999 12.4873V10ZM13.5 12.5128L13.4999 12.5V10C13.4999 9.44772 13.0522 9 12.4999 9C12.3345 9 12.1813 9.03938 12.0462 9.10839C12.0309 9.11617 12.0155 9.12355 12 9.13051V13.75C12 14.1642 11.6642 14.5 11.25 14.5C10.8358 14.5 10.5 14.1642 10.5 13.75V8.33836C10.3162 8.13024 10.0477 8 9.74992 8C9.45226 8 9.1838 8.13016 9 8.33817V13.75C9 14.1642 8.66421 14.5 8.25 14.5C7.83579 14.5 7.5 14.1642 7.5 13.75V9.13058C7.4844 9.1236 7.46895 9.1162 7.45365 9.10838C7.31859 9.03938 7.16531 9 6.99992 9C6.44764 9 5.99992 9.44772 5.99992 10V11.4889L6 11.5V15.8C6 16.2142 5.66421 16.55 5.25 16.55C4.83579 16.55 4.5 16.2142 4.5 15.8V13.5C3.67164 13.5 3 14.1716 3 15.0001V16.0002C3 18.7616 5.23853 21 8 21H8.49995C11.2616 21 13.4999 18.7624 13.5 16.0012L13.5 12.5128Z" fill="#080809" style="fill:#080809;fill:color(display-p3 0.0314 0.0314 0.0353);fill-opacity:1;"/>
<path d="M0.550611 4.68404C0.725259 4.1601 1.29158 3.87694 1.81552 4.05159L3.31552 4.55159C3.83947 4.72624 4.12263 5.29256 3.94798 5.8165C3.77333 6.34044 3.20701 6.6236 2.68307 6.44895L1.18307 5.94895C0.659124 5.77431 0.375964 5.20799 0.550611 4.68404Z" fill="#080809" style="fill:#080809;fill:color(display-p3 0.0314 0.0314 0.0353);fill-opacity:1;"/>
<path d="M23.4494 19.3169C23.2747 19.8409 22.7084 20.124 22.1845 19.9494L20.6845 19.4494C20.1605 19.2747 19.8774 18.7084 20.052 18.1845C20.2267 17.6605 20.793 17.3774 21.3169 17.552L22.8169 18.052C23.3409 18.2267 23.624 18.793 23.4494 19.3169Z" fill="#080809" style="fill:#080809;fill:color(display-p3 0.0314 0.0314 0.0353);fill-opacity:1;"/>
<path d="M17.551 22.8169C17.7257 23.3409 18.292 23.624 18.816 23.4494C19.3399 23.2747 19.6231 22.7084 19.4484 22.1845L18.9484 20.6845C18.7738 20.1605 18.2074 19.8774 17.6835 20.052C17.1596 20.2267 16.8764 20.793 17.051 21.3169L17.551 22.8169Z" fill="#080809" style="fill:#080809;fill:color(display-p3 0.0314 0.0314 0.0353);fill-opacity:1;"/>
</svg>
