<svg width="24" height="24" viewBox="0 0 24 24" fill="none" xmlns="http://www.w3.org/2000/svg">
<path fill-rule="evenodd" clip-rule="evenodd" d="M13.5 14.8776C13.5 16.5344 12.1569 17.8776 10.5 17.8776C8.84315 17.8776 7.5 16.5344 7.5 14.8776C7.5 13.2207 8.84315 11.8776 10.5 11.8776C10.7437 11.8776 10.981 11.9067 11.2086 11.9619L14 9.17046C14.1875 8.98292 14.4419 8.87756 14.7071 8.87756H15.5C16.0523 8.87756 16.5 9.32528 16.5 9.87756V10.6705C16.5 10.9357 16.3946 11.19 16.2071 11.3776L13.4157 14.169C13.4708 14.3965 13.5 14.6339 13.5 14.8776ZM9.75 16.3776C10.1642 16.3776 10.5 16.0418 10.5 15.6276C10.5 15.2134 10.1642 14.8776 9.75 14.8776C9.33579 14.8776 9 15.2134 9 15.6276C9 16.0418 9.33579 16.3776 9.75 16.3776Z" fill="#080809" style="fill:#080809;fill:color(display-p3 0.0314 0.0314 0.0353);fill-opacity:1;"/>
<path fill-rule="evenodd" clip-rule="evenodd" d="M22 10.1436C22.4209 10.3873 22.9679 10.2934 23.2809 9.90215C23.6259 9.47089 23.556 8.8416 23.1247 8.49659L17.5727 4.05499C16.4167 3.13016 15.4787 2.37973 14.6526 1.86852C13.7916 1.3357 12.9567 1 12 1C11.0434 1 10.2085 1.33571 9.3475 1.86853C8.5214 2.37974 7.58339 3.13016 6.42737 4.055L5 5.19689V3.37756C5 2.82528 4.55228 2.37756 4 2.37756C3.44772 2.37756 3 2.82528 3 3.37756V6.79687L0.875345 8.49659C0.444081 8.84159 0.374158 9.47089 0.719166 9.90215C1.03218 10.2934 1.57921 10.3873 2.00004 10.1436L2.00004 16.4481C2 17.8022 1.99997 18.9188 2.11879 19.8026C2.24353 20.7304 2.5155 21.5498 3.17161 22.2059C3.82772 22.8621 4.64714 23.134 5.57497 23.2588C6.45873 23.3776 7.57534 23.3776 8.92945 23.3775H15.0706C16.4247 23.3776 17.5413 23.3776 18.4251 23.2588C19.3529 23.134 20.1724 22.8621 20.8285 22.2059C21.4846 21.5498 21.7565 20.7304 21.8813 19.8026C22.0001 18.9188 22.0001 17.8022 22 16.4481V10.1436ZM10.3999 3.56923C9.68888 4.00924 8.84467 4.68242 7.6272 5.65638L4.00004 8.55809V16.3775C4.00004 17.82 4.00216 18.8013 4.10095 19.5361C4.19588 20.2421 4.36325 20.5692 4.58582 20.7917C4.80839 21.0143 5.13542 21.1817 5.84147 21.2766C6.57629 21.3754 7.55755 21.3775 9.00004 21.3775H15C16.4425 21.3775 17.4238 21.3754 18.1586 21.2766C18.8647 21.1817 19.1917 21.0143 19.4142 20.7917C19.6368 20.5692 19.8042 20.2421 19.8991 19.5361C19.9979 18.8013 20 17.82 20 16.3775V8.55808L16.3729 5.65637C15.1554 4.68241 14.3112 4.00923 13.6002 3.56923C12.9123 3.14354 12.4465 3 12 3C11.5536 3 11.0878 3.14355 10.3999 3.56923Z" fill="#080809" style="fill:#080809;fill:color(display-p3 0.0314 0.0314 0.0353);fill-opacity:1;"/>
</svg>
