<svg width="24" height="24" viewBox="0 0 24 24" fill="none" xmlns="http://www.w3.org/2000/svg">
<path d="M1.29289 1.29289C1.68342 0.902369 2.31658 0.902369 2.70711 1.29289L4.62371 3.2095C4.73979 3.18944 4.85778 3.17148 4.97767 3.15537C6.13362 2.99995 7.6034 2.99997 9.42684 3H9.57317C11.3966 2.99997 12.8664 2.99995 14.0223 3.15537C15.2225 3.31672 16.233 3.66191 17.0355 4.46447C17.8381 5.26702 18.1833 6.27752 18.3446 7.47767C18.391 7.82217 18.4235 8.19453 18.4463 8.59583L21.1449 6.72334C22.1396 6.03313 23.5 6.745 23.5 7.95572V16.0124C23.5 17.2417 22.1025 17.9491 21.1119 17.2212L18.4536 15.2682C18.4306 15.7217 18.3961 16.1392 18.3446 16.5223C18.3285 16.6422 18.3106 16.7602 18.2905 16.8763L22.7071 21.2929C23.0976 21.6834 23.0976 22.3166 22.7071 22.7071C22.3166 23.0976 21.6834 23.0976 21.2929 22.7071L17.526 18.9402C17.5259 18.9403 17.5261 18.9401 17.526 18.9402L2.55939 3.97431C2.55953 3.97422 2.55925 3.97441 2.55939 3.97431L1.29289 2.70711C0.90237 2.31658 0.90237 1.68342 1.29289 1.29289Z" fill="#080809" style="fill:#080809;fill:color(display-p3 0.0314 0.0314 0.0353);fill-opacity:1;"/>
<path d="M1.49406 5.0303C1.01753 5.72565 0.780854 6.54431 0.655367 7.47767C0.499955 8.63361 0.499975 10.1034 0.500001 11.9268V12.0732C0.499975 13.8966 0.499955 15.3664 0.655367 16.5223C0.816722 17.7225 1.16191 18.733 1.96447 19.5355C2.76703 20.3381 3.77752 20.6833 4.97767 20.8446C6.13363 21.0001 7.6034 21 9.42687 21H9.57314C11.3966 21 12.8664 21.0001 14.0223 20.8446C14.9557 20.7192 15.7744 20.4825 16.4697 20.0059L1.49406 5.0303Z" fill="#080809" style="fill:#080809;fill:color(display-p3 0.0314 0.0314 0.0353);fill-opacity:1;"/>
</svg>
