<svg width="24" height="24" viewBox="0 0 24 24" fill="none" xmlns="http://www.w3.org/2000/svg">
<path d="M19.1161 8.11611C19.6043 7.62796 20.3955 7.62796 20.8837 8.11611C21.3716 8.60429 21.3718 9.3956 20.8837 9.88369C18.5698 12.1975 16.2555 14.516 13.9394 16.83C12.8692 17.8991 11.1337 17.9037 10.0595 16.8349C7.73856 14.525 5.4254 12.193 3.11611 9.88369C2.62796 9.39554 2.62796 8.60427 3.11611 8.11611C3.60427 7.62796 4.39554 7.62796 4.88369 8.11611C7.20417 10.4366 9.50319 12.7535 11.8231 15.0624C11.9187 15.1573 12.0745 15.1585 12.1718 15.0614C14.4878 12.7476 16.8 10.4323 19.1161 8.11611Z" fill="#080809" style="fill:#080809;fill:color(display-p3 0.0314 0.0314 0.0353);fill-opacity:1;"/>
</svg>
