<svg width="24" height="24" viewBox="0 0 24 24" fill="none" xmlns="http://www.w3.org/2000/svg">
<path d="M4.00293 10C4.55521 10 5.00293 10.4477 5.00293 11C5.00293 14.866 8.13694 18 12.0029 18C15.4309 18 18.2857 15.5347 18.8867 12.2803C18.9871 11.7375 19.508 11.3785 20.0508 11.4785C20.5938 11.5788 20.9528 12.1005 20.8525 12.6436C20.1386 16.5092 16.9562 19.5063 13 19.9424V21.5H15C15.5523 21.5 16 21.9477 16 22.5C16 23.0523 15.5523 23.5 15 23.5H9C8.44772 23.5 8 23.0523 8 22.5C8 21.9477 8.44772 21.5 9 21.5H11V19.9424C6.50158 19.4435 3.00293 15.6315 3.00293 11C3.00293 10.4477 3.45064 10 4.00293 10Z" fill="#080809" style="fill:#080809;fill:color(display-p3 0.0314 0.0314 0.0353);fill-opacity:1;"/>
<path d="M12 0.5C12.1494 0.5 12.2978 0.506603 12.4443 0.519531C12.9943 0.568215 13.4011 1.05348 13.3525 1.60352C13.304 2.15357 12.8186 2.5601 12.2686 2.51172C12.1804 2.50394 12.0906 2.5 12 2.5C10.3431 2.5 9 3.84315 9 5.5V11C9 12.6569 10.3431 14 12 14C13.4399 14 14.6446 12.9845 14.9336 11.6299C15.0488 11.0899 15.5802 10.7454 16.1201 10.8604C16.6602 10.9756 17.0047 11.5068 16.8896 12.0469C16.4079 14.3054 14.4031 16 12 16C9.23858 16 7 13.7614 7 11V5.5C7 2.73858 9.23858 0.5 12 0.5Z" fill="#080809" style="fill:#080809;fill:color(display-p3 0.0314 0.0314 0.0353);fill-opacity:1;"/>
<path d="M21.292 1.29297C21.6825 0.902445 22.3155 0.902445 22.7061 1.29297C23.0965 1.6835 23.0966 2.31653 22.7061 2.70703L20.4131 5L22.7061 7.29297C23.0965 7.6835 23.0966 8.31653 22.7061 8.70703C22.3155 9.09735 21.6825 9.09743 21.292 8.70703L18.999 6.41406L16.7061 8.70703C16.3155 9.09735 15.6825 9.09743 15.292 8.70703C14.9015 8.31657 14.9017 7.68351 15.292 7.29297L17.585 5L15.292 2.70703C14.9015 2.31657 14.9017 1.68351 15.292 1.29297C15.6825 0.902444 16.3155 0.902444 16.7061 1.29297L18.999 3.58594L21.292 1.29297Z" fill="#080809" style="fill:#080809;fill:color(display-p3 0.0314 0.0314 0.0353);fill-opacity:1;"/>
</svg>
