<svg width="24" height="24" viewBox="0 0 24 24" fill="none" xmlns="http://www.w3.org/2000/svg">
<path d="M13.0552 14.0234C12.1765 14.9021 10.7519 14.9021 9.87325 14.0234C8.99457 13.1447 8.99457 11.7201 9.87325 10.8414C10.7519 9.96274 12.1765 9.96274 13.0552 10.8414C13.9339 11.7201 13.9339 13.1447 13.0552 14.0234Z" fill="#080809" style="fill:#080809;fill:color(display-p3 0.0314 0.0314 0.0353);fill-opacity:1;"/>
<path d="M7.64251 14.9182C7.34962 14.6253 6.87475 14.6253 6.58185 14.9182C6.28896 15.2111 6.28896 15.686 6.58185 15.9789L8.0905 17.4875C8.3834 17.7804 8.85827 17.7804 9.15116 17.4875C9.44406 17.1946 9.44406 16.7198 9.15116 16.4269L7.64251 14.9182Z" fill="#080809" style="fill:#080809;fill:color(display-p3 0.0314 0.0314 0.0353);fill-opacity:1;"/>
<path fill-rule="evenodd" clip-rule="evenodd" d="M23.1357 1.78743L22.2425 0.894332C21.6567 0.308571 20.7069 0.308673 20.1211 0.89456L19.0525 1.96347C18.6888 2.32729 18.5959 2.85932 18.7737 3.30909L15.1234 6.95943L14.8637 6.69973C13.0501 4.88609 9.98772 5.4129 8.88439 7.72833C8.64852 8.22333 8.19008 8.57562 7.65105 8.67611L6.09806 8.96562C4.92885 9.18359 3.853 9.75034 3.01201 10.5913C0.329328 13.274 0.329334 17.6235 3.01201 20.3062L3.76328 21.0574C6.44596 23.7401 10.7954 23.7401 13.4781 21.0574C14.3191 20.2164 14.8859 19.1406 15.1038 17.9714L15.3933 16.4184C15.4938 15.8794 15.8461 15.4209 16.3411 15.1851C18.6565 14.0817 19.1834 11.0194 17.3697 9.20572L17.071 8.90704L20.7213 5.25677C21.1712 5.43462 21.7033 5.34161 22.0671 4.97775L23.1359 3.90875C23.7217 3.32292 23.7216 2.37317 23.1357 1.78743ZM13.4495 8.11394C12.6125 7.2769 11.1991 7.52004 10.6899 8.58867C10.1788 9.66119 9.18552 10.4245 8.01758 10.6422L6.46459 10.9317C5.69232 11.0757 4.98171 11.4501 4.42622 12.0055C2.52459 13.9072 2.52459 16.9903 4.42622 18.892L5.17749 19.6432C7.07912 21.5449 10.1623 21.5449 12.0639 19.6432C12.6194 19.0877 12.9937 18.3771 13.1377 17.6049L13.4272 16.0519C13.6449 14.8839 14.4083 13.8906 15.4808 13.3796C16.5494 12.8703 16.7925 11.457 15.9555 10.6199L13.4495 8.11394Z" fill="#080809" style="fill:#080809;fill:color(display-p3 0.0314 0.0314 0.0353);fill-opacity:1;"/>
</svg>
