<svg width="24" height="24" viewBox="0 0 24 24" fill="none" xmlns="http://www.w3.org/2000/svg">
<path fill-rule="evenodd" clip-rule="evenodd" d="M22 9.76571V16.0701C22.0001 17.4242 22.0001 18.5409 21.8813 19.4247C21.7565 20.3525 21.4846 21.1719 20.8285 21.828C20.1724 22.4841 19.3529 22.7561 18.4251 22.8808C17.5414 22.9997 16.4247 22.9996 15.0707 22.9996H8.92947C7.57538 22.9996 6.45872 22.9997 5.57497 22.8808C4.64714 22.7561 3.82772 22.4841 3.17161 21.828C2.5155 21.1719 2.24353 20.3525 2.11879 19.4247C1.99997 18.5409 2 17.4243 2.00004 16.0702L2.00004 9.76571C1.57921 10.0093 1.03218 9.91549 0.719166 9.52422C0.374158 9.09296 0.444081 8.46366 0.875345 8.11866L3 6.41894V3C3 2.44772 3.44772 2 4 2C4.55228 2 5 2.44772 5 3V4.81896L6.42736 3.67707C7.58339 2.75223 8.52139 2.00181 9.3475 1.4906C10.2085 0.957777 11.0434 0.62207 12 0.62207C12.9567 0.62207 13.7916 0.957775 14.6526 1.49059C15.4787 2.00179 16.4167 2.75221 17.5727 3.67702L23.1247 8.11866C23.556 8.46367 23.6259 9.09296 23.2809 9.52422C22.9679 9.91549 22.4209 10.0093 22 9.76571ZM13 8V8.52204C13.4506 8.57697 13.8846 8.73369 14.2682 8.98224L14.5437 9.16075C15.0072 9.46105 15.1396 10.0802 14.8393 10.5437C14.539 11.0072 13.9198 11.1396 13.4563 10.8393L13.1807 10.6607C13.0188 10.5558 12.83 10.5 12.637 10.5H11.5C11.0858 10.5 10.75 10.8358 10.75 11.25C10.75 11.6642 11.0858 12 11.5 12H12.5C14.0188 12 15.25 13.2312 15.25 14.75C15.25 16.098 14.2801 17.2195 13 17.4547V18C13 18.5523 12.5523 19 12 19C11.4477 19 11 18.5523 11 18V17.4305C10.2154 17.2822 9.4869 16.9011 8.91421 16.3284L8.79289 16.2071C8.40237 15.8166 8.40237 15.1834 8.79289 14.7929C9.18342 14.4024 9.81658 14.4024 10.2071 14.7929L10.3284 14.9142C10.7035 15.2893 11.2122 15.5 11.7426 15.5H12.5C12.9142 15.5 13.25 15.1642 13.25 14.75C13.25 14.3358 12.9142 14 12.5 14H11.5C9.98122 14 8.75 12.7688 8.75 11.25C8.75 9.90197 9.71994 8.78047 11 8.54534V8C11 7.44772 11.4477 7 12 7C12.5523 7 13 7.44772 13 8Z" fill="#080809" style="fill:#080809;fill:color(display-p3 0.0314 0.0314 0.0353);fill-opacity:1;"/>
</svg>
