<svg width="24" height="24" viewBox="0 0 24 24" fill="none" xmlns="http://www.w3.org/2000/svg">
<path fill-rule="evenodd" clip-rule="evenodd" d="M21 2C22.3807 2 23.5 3.11929 23.5 4.5V18.5C23.5 19.8807 22.3807 21 21 21H18.0326C16.307 21 14.6361 21.605 13.3105 22.7096C12.5513 23.3423 11.4487 23.3423 10.6895 22.7096C9.36391 21.605 7.69296 21 5.96739 21H3C1.61929 21 0.5 19.8807 0.5 18.5V4.5C0.5 3.11929 1.61929 2 3 2H5.09487C7.58106 2 9.99629 2.78595 12 4.23456C14.0037 2.78595 16.4189 2 18.9051 2H21ZM13 5.98241V20.465C14.4972 19.5126 16.2418 19 18.0326 19H21C21.2761 19 21.5 18.7761 21.5 18.5V4.5C21.5 4.22386 21.2761 4 21 4H18.9051C16.7693 4 14.6965 4.6986 13 5.98241ZM11 20.465V5.98241C9.3035 4.6986 7.23072 4 5.09487 4H3C2.72386 4 2.5 4.22386 2.5 4.5V18.5C2.5 18.7761 2.72386 19 3 19H5.96739C7.75825 19 9.50283 19.5126 11 20.465Z" fill="#080809" style="fill:#080809;fill:color(display-p3 0.0314 0.0314 0.0353);fill-opacity:1;"/>
</svg>
