<svg width="24" height="24" viewBox="0 0 24 24" fill="none" xmlns="http://www.w3.org/2000/svg">
<path d="M15.25 4.75C15.6777 4.75 16.0581 5.02205 16.1963 5.42684L16.8014 7.19862L18.5732 7.80366C18.978 7.94189 19.25 8.32226 19.25 8.75C19.25 9.17774 18.978 9.55812 18.5732 9.69635L16.8014 10.3014L16.1963 12.0732C16.0581 12.478 15.6777 12.75 15.25 12.75C14.8223 12.75 14.4419 12.478 14.3037 12.0732L13.6986 10.3014L11.9268 9.69635C11.5221 9.55812 11.25 9.17774 11.25 8.75C11.25 8.32226 11.5221 7.94189 11.9268 7.80366L13.6986 7.19862L14.3037 5.42684C14.4419 5.02205 14.8223 4.75 15.25 4.75Z" fill="#080809" style="fill:#080809;fill:color(display-p3 0.0314 0.0314 0.0353);fill-opacity:1;"/>
<path d="M10.75 11C11.0708 11 11.3561 11.204 11.4598 11.5076L11.7226 12.2774L12.4924 12.5402C12.796 12.6439 13 12.9292 13 13.25C13 13.5708 12.796 13.8561 12.4924 13.9598L11.7226 14.2226L11.4598 14.9924C11.3561 15.296 11.0708 15.5 10.75 15.5C10.4292 15.5 10.1439 15.296 10.0402 14.9924L9.77739 14.2226L9.00763 13.9598C8.70404 13.8561 8.50001 13.5708 8.50001 13.25C8.50001 12.9292 8.70404 12.6439 9.00763 12.5402L9.77739 12.2774L10.0402 11.5076C10.1439 11.204 10.4292 11 10.75 11Z" fill="#080809" style="fill:#080809;fill:color(display-p3 0.0314 0.0314 0.0353);fill-opacity:1;"/>
<path fill-rule="evenodd" clip-rule="evenodd" d="M16.0706 1H11.4294C10.0753 0.999968 8.95868 0.999941 8.07494 1.11876C7.14711 1.2435 6.32769 1.51547 5.67158 2.17158C5.01547 2.82769 4.7435 3.64711 4.61876 4.57494C4.49994 5.45869 4.49997 6.57529 4.5 7.92939L4.5 12.5705C4.49997 13.9246 4.49994 15.0413 4.61876 15.9251C4.7435 16.8529 5.01547 17.6723 5.67158 18.3284C6.32769 18.9845 7.14711 19.2565 8.07494 19.3813C8.95869 19.5001 10.0753 19.5 11.4294 19.5H16.0705C17.4247 19.5 18.5413 19.5001 19.4251 19.3813C20.3529 19.2565 21.1723 18.9845 21.8284 18.3284C22.4845 17.6723 22.7565 16.8529 22.8813 15.9251C23.0001 15.0413 23 13.9247 23 12.5706V7.92943C23 6.57531 23.0001 5.4587 22.8813 4.57494C22.7565 3.64711 22.4845 2.82769 21.8284 2.17158C21.1723 1.51547 20.3529 1.2435 19.4251 1.11876C18.5413 0.999941 17.4247 0.999968 16.0706 1ZM19.1586 3.10092C19.8646 3.19585 20.1916 3.36322 20.4142 3.58579C20.6368 3.80836 20.8042 4.13538 20.8991 4.84144C20.9979 5.57626 21 6.55752 21 8V12.5C21 13.9425 20.9979 14.9238 20.8991 15.6586C20.8042 16.3646 20.6368 16.6916 20.4142 16.9142C20.1916 17.1368 19.8646 17.3042 19.1586 17.3991C18.4238 17.4979 17.4425 17.5 16 17.5H11.5C10.0575 17.5 9.07625 17.4979 8.34144 17.3991C7.63538 17.3042 7.30836 17.1368 7.08579 16.9142C6.86322 16.6916 6.69585 16.3646 6.60092 15.6586C6.50213 14.9238 6.5 13.9425 6.5 12.5V8C6.5 6.55752 6.50213 5.57626 6.60092 4.84144C6.69585 4.13538 6.86322 3.80836 7.08579 3.58579C7.30836 3.36322 7.63538 3.19585 8.34144 3.10092C9.07625 3.00213 10.0575 3 11.5 3H16C17.4425 3 18.4238 3.00213 19.1586 3.10092Z" fill="#080809" style="fill:#080809;fill:color(display-p3 0.0314 0.0314 0.0353);fill-opacity:1;"/>
<path d="M3 7C3 6.44772 2.55229 6 2 6C1.44772 6 1 6.44772 1 7L1 16.0706C0.999967 17.4247 0.999939 18.5413 1.11876 19.4251C1.2435 20.3529 1.51547 21.1723 2.17158 21.8284C2.82769 22.4845 3.64711 22.7565 4.57494 22.8813C5.45868 23.0001 6.57528 23 7.92937 23H17C17.5523 23 18 22.5523 18 22C18 21.4477 17.5523 21 17 21H8C6.55752 21 5.57626 20.9979 4.84144 20.8991C4.13538 20.8042 3.80836 20.6368 3.58579 20.4142C3.36322 20.1916 3.19585 19.8646 3.10092 19.1586C3.00213 18.4237 3 17.4425 3 16V7Z" fill="#080809" style="fill:#080809;fill:color(display-p3 0.0314 0.0314 0.0353);fill-opacity:1;"/>
</svg>
