<svg width="24" height="24" viewBox="0 0 24 24" fill="none" xmlns="http://www.w3.org/2000/svg">
<path d="M10.9961 12.1318C10.6866 11.9549 10.3064 11.9562 9.99807 12.1351C9.68976 12.314 9.5 12.6435 9.5 13V17C9.5 17.3565 9.68976 17.686 9.99807 17.8649C10.3064 18.0438 10.6866 18.0451 10.9961 17.8682L14.4961 15.8682C14.8077 15.6902 15 15.3589 15 15C15 14.6411 14.8077 14.3098 14.4961 14.1318L10.9961 12.1318Z" fill="#080809" style="fill:#080809;fill:color(display-p3 0.0314 0.0314 0.0353);fill-opacity:1;"/>
<path fill-rule="evenodd" clip-rule="evenodd" d="M12.0748 1H11.9252C9.63166 0.999978 7.80859 0.999961 6.38039 1.19198C4.90794 1.38994 3.70636 1.80836 2.75736 2.75736C1.80836 3.70636 1.38994 4.90794 1.19198 6.38039C0.999961 7.80859 0.999978 9.63164 1 11.9252V12.0748C0.999978 14.3683 0.999961 16.1914 1.19198 17.6196C1.38994 19.0921 1.80836 20.2936 2.75736 21.2426C3.70636 22.1916 4.90794 22.6101 6.38039 22.808C7.8086 23 9.63167 23 11.9252 23H12.0748C14.3683 23 16.1914 23 17.6196 22.808C19.0921 22.6101 20.2936 22.1916 21.2426 21.2426C22.1916 20.2936 22.6101 19.0921 22.808 17.6196C23 16.1914 23 14.3683 23 12.0748V11.9252C23 9.63167 23 7.8086 22.808 6.38039C22.6101 4.90794 22.1916 3.70636 21.2426 2.75736C20.2936 1.80836 19.0921 1.38994 17.6196 1.19198C16.1914 0.999961 14.3683 0.999978 12.0748 1ZM4.17157 4.17157C4.68704 3.65611 5.39621 3.34229 6.64689 3.17414C6.70687 3.16608 6.76774 3.15839 6.82955 3.15105L8.11253 7H3.13197C3.14475 6.87889 3.15877 6.76126 3.17414 6.64689C3.34229 5.39621 3.65611 4.68704 4.17157 4.17157ZM10.2207 7L8.89502 3.02291C9.77834 3.00054 10.8011 3 12 3C12.6422 3 13.2338 3.00016 13.7806 3.00374L15.1127 7H10.2207ZM16.4744 9C16.4914 9.00044 16.5085 9.00044 16.5256 9H20.9796C20.9995 9.85915 21 10.8483 21 12C21 14.3853 20.9979 16.0737 20.8259 17.3531C20.6577 18.6038 20.3439 19.313 19.8284 19.8284C19.313 20.3439 18.6038 20.6577 17.3531 20.8259C16.0737 20.9979 14.3853 21 12 21C9.61471 21 7.92634 20.9979 6.64689 20.8259C5.39621 20.6577 4.68704 20.3439 4.17157 19.8284C3.65611 19.313 3.34229 18.6038 3.17414 17.3531C3.00213 16.0737 3 14.3853 3 12C3 10.8483 3.0005 9.85915 3.02037 9H9.47928C9.49292 9.00028 9.50661 9.00028 9.52031 9H16.4744ZM17.2209 7L15.9047 3.05148C16.4416 3.07728 16.9207 3.11601 17.3531 3.17414C18.6038 3.34229 19.313 3.65611 19.8284 4.17157C20.3439 4.68704 20.6577 5.39621 20.8259 6.64689C20.8412 6.76126 20.8553 6.87889 20.868 7H17.2209Z" fill="#080809" style="fill:#080809;fill:color(display-p3 0.0314 0.0314 0.0353);fill-opacity:1;"/>
</svg>
