<svg width="24" height="24" viewBox="0 0 24 24" fill="none" xmlns="http://www.w3.org/2000/svg">
<path fill-rule="evenodd" clip-rule="evenodd" d="M5.09489 17.4909C2.09381 13.7835 2.31718 8.33229 5.76499 4.88448C8.48793 2.16154 12.6235 1.30146 15.892 1.07238C17.553 0.955974 19.0508 0.998666 20.1329 1.07005C20.6749 1.1058 21.1149 1.14891 21.4217 1.18343C21.5855 1.20185 21.7494 1.22116 21.9124 1.24535L21.9123 1.24659L21.9139 1.24558C22.3503 1.31108 22.6922 1.66355 22.7561 2.09777C22.7791 2.25757 22.7985 2.41786 22.8166 2.57828C22.8511 2.88513 22.8942 3.32515 22.93 3.8671C23.0013 4.94916 23.044 6.44703 22.9276 8.10801C22.6985 11.3765 21.8385 15.5121 19.1155 18.235C15.6677 21.6828 10.2165 21.9062 6.5091 18.9051L2.70711 22.7071C2.31658 23.0976 1.68342 23.0976 1.29289 22.7071C0.902369 22.3166 0.902369 21.6834 1.29289 21.2929L5.09489 17.4909ZM7.1792 6.2987C9.37121 4.10669 12.8824 3.28822 16.0318 3.06749C17.5798 2.959 18.9837 2.99859 20.0012 3.06571C20.3341 3.08767 20.6246 3.11251 20.8641 3.13588C20.8875 3.37537 20.9123 3.66588 20.9343 3.99876C21.0014 5.01625 21.041 6.42018 20.9325 7.96818C20.7118 11.1176 19.8933 14.6288 17.7013 16.8208C15.0355 19.4866 10.85 19.7066 7.93342 17.4808L10.4142 15H16C16.5523 15 17 14.5523 17 14C17 13.4477 16.5523 13 16 13H12.4142L18.7071 6.70711C19.0976 6.31658 19.0976 5.68342 18.7071 5.29289C18.3166 4.90237 17.6834 4.90237 17.2929 5.29289L11 11.5858V8C11 7.44772 10.5523 7 10 7C9.44771 7 9 7.44772 9 8V13.5858L6.5192 16.0666C4.29339 13.15 4.51339 8.96451 7.1792 6.2987Z" fill="#080809" style="fill:#080809;fill:color(display-p3 0.0314 0.0314 0.0353);fill-opacity:1;"/>
</svg>
