<svg width="24" height="24" viewBox="0 0 24 24" fill="none" xmlns="http://www.w3.org/2000/svg">
<path fill-rule="evenodd" clip-rule="evenodd" d="M18.6368 4.00029L16.5254 4.00034C16.5081 3.99989 16.4908 3.99989 16.4734 4.00034L11.5254 4.00034C11.5081 3.99989 11.4908 3.99989 11.4734 4.00034L6.52538 4.00034C6.5081 3.99989 6.49077 3.99989 6.47341 4.00034L5.36165 4.00029C4.56626 3.99986 3.97561 3.99954 3.46395 4.13664C2.08359 4.5065 1.00539 5.5847 0.635527 6.96506C0.49843 7.47672 0.498749 8.06738 0.49918 8.86277L0.499229 9.00034L0.499126 9.09341C0.498512 9.46213 0.497909 9.82455 0.584415 10.1474C0.783055 10.8887 1.30858 11.4906 1.99992 11.792V13.7087C1.28093 14.0223 0.741028 14.6615 0.56245 15.4439C0.498802 15.7227 0.499245 16.0329 0.499697 16.3489L0.499773 16.4287L0.499716 16.5246C0.499319 16.9597 0.498979 17.3347 0.574989 17.6677C0.831417 18.7912 1.70872 19.6685 2.83221 19.9249C3.16523 20.0009 3.54021 20.0006 3.97533 20.0002L20.0242 20.0002C20.4593 20.0006 20.8343 20.0009 21.1673 19.9249C22.2908 19.6685 23.1681 18.7912 23.4246 17.6677C23.5006 17.3347 23.5002 16.9597 23.4998 16.5246L23.4998 16.4287L23.4998 16.3489C23.5003 16.0329 23.5007 15.7227 23.4371 15.4438C23.2585 14.6616 22.7188 14.0225 21.9999 13.7088V11.7914C22.6906 11.4898 23.2155 10.8882 23.414 10.1474C23.5005 9.82455 23.4999 9.46214 23.4993 9.09342L23.4992 9.00034L23.4993 8.86276C23.4997 8.06738 23.5 7.47672 23.3629 6.96506C22.9931 5.5847 21.9149 4.50651 20.5345 4.13664C20.0229 3.99954 19.4322 3.99986 18.6368 4.00029ZM19.9999 12.0003L3.99992 12.0003V13.5002H12.4998C12.765 13.5002 13.0194 13.6055 13.2069 13.793L14.6463 15.2324C14.8416 15.4277 15.1582 15.4277 15.3534 15.2324L16.7928 13.793C16.9803 13.6055 17.2347 13.5002 17.4999 13.5002H19.9999V12.0003ZM21.4939 9.50173C21.499 9.38971 21.4992 9.2419 21.4992 9.00034C21.4992 8.00599 21.4906 7.70498 21.4311 7.4827C21.2461 6.79252 20.7071 6.25342 20.0169 6.06849C19.7946 6.00893 19.4936 6.00034 18.4992 6.00034H17.9768L18.4282 7.12888C18.6333 7.64166 18.3839 8.22363 17.8711 8.42874C17.3583 8.63386 16.7763 8.38444 16.5712 7.87166L15.8227 6.00034L12.9768 6.00034L13.4282 7.12888C13.6333 7.64166 13.3839 8.22363 12.8711 8.42874C12.3583 8.63386 11.7763 8.38444 11.5712 7.87166L10.8227 6.00034L7.97676 6.00034L8.42818 7.12888C8.63329 7.64166 8.38388 8.22363 7.87109 8.42874C7.35831 8.63386 6.77634 8.38444 6.57122 7.87166L5.8227 6.00034H5.49923C4.50488 6.00034 4.20387 6.00893 3.98159 6.06849C3.29141 6.25342 2.75231 6.79252 2.56738 7.4827C2.50782 7.70498 2.49923 8.00599 2.49923 9.00034C2.49923 9.2419 2.49947 9.38971 2.50458 9.50173C2.50944 9.60839 2.51727 9.63349 2.51627 9.62975C2.5625 9.8023 2.69727 9.93707 2.86982 9.9833C2.86608 9.9823 2.89118 9.99012 2.99783 9.99499C3.10986 10.0001 3.25767 10.0003 3.49923 10.0003L20.4992 10.0003C20.7408 10.0003 20.8886 10.0001 21.0006 9.99499C21.101 9.99041 21.1288 9.9833 21.1286 9.9833C21.3012 9.93707 21.4359 9.80265 21.4821 9.6301C21.4821 9.63024 21.4893 9.60209 21.4939 9.50173ZM21.4872 15.8889C21.4865 15.8855 21.4923 15.9074 21.4958 15.999C21.4996 16.0951 21.4998 16.2218 21.4998 16.4287C21.4998 17.0148 21.4935 17.1405 21.4747 17.2227C21.3892 17.5972 21.0968 17.8896 20.7223 17.9751C20.6401 17.9938 20.5145 18.0002 19.9283 18.0002L4.0712 18.0002C3.48508 18.0002 3.35941 17.9938 3.27725 17.9751C2.90276 17.8896 2.61032 17.5972 2.52484 17.2227C2.50609 17.1405 2.49977 17.0148 2.49977 16.4287C2.49977 16.2218 2.49995 16.0951 2.50371 15.999C2.50729 15.9074 2.51308 15.8855 2.51231 15.8889C2.55505 15.7016 2.70127 15.5554 2.88851 15.5127C2.88515 15.5135 2.90702 15.5077 2.99864 15.5041C3.09476 15.5003 3.22139 15.5002 3.42834 15.5002H12.0856L13.2321 16.6466C14.2085 17.6229 15.7913 17.6229 16.7676 16.6466L17.9141 15.5002L20.5712 15.5002C20.7782 15.5002 20.9048 15.5003 21.0009 15.5041C21.0925 15.5077 21.1144 15.5135 21.111 15.5127C21.2983 15.5554 21.4445 15.7016 21.4872 15.8889Z" fill="#080809" style="fill:#080809;fill:color(display-p3 0.0314 0.0314 0.0353);fill-opacity:1;"/>
</svg>
