<svg width="24" height="24" viewBox="0 0 24 24" fill="none" xmlns="http://www.w3.org/2000/svg">
<path fill-rule="evenodd" clip-rule="evenodd" d="M12 0.5C12.3211 0.5 12.6227 0.654197 12.8107 0.914509L14.1578 2.7798C15.4291 4.5401 14.1714 7 12 7C9.8286 7 8.57082 4.5401 9.84215 2.7798L11.1893 0.914509C11.3773 0.654197 11.6789 0.5 12 0.5Z" fill="#080809" style="fill:#080809;fill:color(display-p3 0.0314 0.0314 0.0353);fill-opacity:1;"/>
<path fill-rule="evenodd" clip-rule="evenodd" d="M3 10.8074C3 9.24205 4.42219 8.06175 5.96072 8.35022L7.57707 8.65329C10.5002 9.20138 13.4998 9.20138 16.4229 8.65329L18.0393 8.35022C19.5778 8.06175 21 9.24205 21 10.8074V20.5C21 21.8807 19.8807 23 18.5 23H5.5C4.11929 23 3 21.8807 3 20.5V10.8074ZM19 12H17C15.8954 12 15 12.8954 15 14V16.5C15 17.0523 14.5523 17.5 14 17.5C13.4477 17.5 13 17.0523 13 16.5V15.5C13 14.3954 12.1046 13.5 11 13.5H9C8.44772 13.5 8 13.9477 8 14.5C8 15.0523 8.44772 15.5 9 15.5H11V16.5C11 18.1569 12.3431 19.5 14 19.5C15.6569 19.5 17 18.1569 17 16.5V14H19V20.5C19 20.7762 18.7761 21 18.5 21H5.5C5.22386 21 5 20.7762 5 20.5V10.8074C5 10.4943 5.28444 10.2583 5.59214 10.316L7.2085 10.619C10.3752 11.2128 13.6248 11.2128 16.7915 10.619L18.4079 10.316C18.7156 10.2583 19 10.4943 19 10.8074V12Z" fill="#080809" style="fill:#080809;fill:color(display-p3 0.0314 0.0314 0.0353);fill-opacity:1;"/>
</svg>
