<svg width="24" height="24" viewBox="0 0 24 24" fill="none" xmlns="http://www.w3.org/2000/svg">
<path fill-rule="evenodd" clip-rule="evenodd" d="M13.8667 3.88616C14.9006 3.24605 16.022 2.97781 17.2688 3.00143C20.4559 3.06181 23.5612 5.56056 23.4991 9.66971C23.4578 12.5469 21.9337 15.1009 19.9401 17.227C17.9383 19.3618 15.3674 21.1692 13.0075 22.5692C12.386 22.9379 11.6138 22.9379 10.9924 22.5692C8.63245 21.1692 6.06158 19.3618 4.05983 17.227C2.06638 15.101 0.542421 12.5472 0.500922 9.67016C0.438622 5.55948 3.54459 3.065 6.73101 3.00471C7.97708 2.98114 9.09829 3.24813 10.1324 3.88728C10.8113 4.30694 11.4242 4.86945 11.9998 5.56478C12.5753 4.86935 13.188 4.30638 13.8667 3.88616ZM14.9195 5.58662C14.2363 6.00966 13.5594 6.70571 12.8338 7.80199C12.6486 8.08178 12.3354 8.25004 11.9999 8.25004C11.6644 8.25003 11.3512 8.08175 11.166 7.80196C10.4405 6.70574 9.76382 6.01069 9.08083 5.58854C8.4157 5.17743 7.68325 4.98705 6.76884 5.00435C4.58711 5.04563 2.45639 6.72586 2.50071 9.64097C2.53189 11.811 3.68931 13.9079 5.51877 15.859C7.33661 17.7976 9.72478 19.4907 11.9999 20.8415C14.2751 19.4907 16.6633 17.7976 18.4812 15.8589C20.3107 13.9079 21.4681 11.8102 21.4993 9.64014C21.5436 6.72477 19.4119 5.04239 17.2309 5.00107C16.3171 4.98376 15.5848 5.17471 14.9195 5.58662Z" fill="#080809" style="fill:#080809;fill:color(display-p3 0.0314 0.0314 0.0353);fill-opacity:1;"/>
<path d="M0.77051 17.2314C1.19502 16.8781 1.82555 16.9358 2.17883 17.3604C2.50999 17.7583 2.85378 18.1383 3.20334 18.4997C4.1452 19.4735 5.19089 20.3776 6.27343 21.2058C6.71206 21.5414 6.79558 22.169 6.45999 22.6077C6.1244 23.0463 5.49676 23.1298 5.05814 22.7942C3.91348 21.9185 2.78998 20.9491 1.76575 19.8901C1.38488 19.4964 1.00743 19.0794 0.641534 18.6397C0.288253 18.2152 0.345997 17.5847 0.77051 17.2314Z" fill="#080809" style="fill:#080809;fill:color(display-p3 0.0314 0.0314 0.0353);fill-opacity:1;"/>
<path d="M23.2322 17.2314C23.6567 17.5847 23.7145 18.2152 23.3612 18.6397C22.9953 19.0794 22.6179 19.4964 22.237 19.8901C21.2128 20.9491 20.0893 21.9185 18.9446 22.7942C18.506 23.1298 17.8784 23.0463 17.5428 22.6077C17.2072 22.169 17.2907 21.5414 17.7293 21.2058C18.8119 20.3776 19.8575 19.4735 20.7994 18.4997C21.149 18.1383 21.4928 17.7583 21.8239 17.3604C22.1772 16.9358 22.8077 16.8781 23.2322 17.2314Z" fill="#080809" style="fill:#080809;fill:color(display-p3 0.0314 0.0314 0.0353);fill-opacity:1;"/>
</svg>
