<svg width="24" height="24" viewBox="0 0 24 24" fill="none" xmlns="http://www.w3.org/2000/svg">
<path fill-rule="evenodd" clip-rule="evenodd" d="M11 18.4451C6.50005 17.9476 3 14.1326 3 9.5C3 4.52944 7.02944 0.5 12 0.5C16.9706 0.5 21 4.52944 21 9.5C21 14.1326 17.5 17.9476 13 18.4451V22.5C13 23.0523 12.5523 23.5 12 23.5C11.4477 23.5 11 23.0523 11 22.5V18.4451ZM5 9.5C5 5.63401 8.13401 2.5 12 2.5C15.866 2.5 19 5.63401 19 9.5C19 13.0265 16.3923 15.9439 13 16.4291V13.0012C13 13.0014 13 13.001 13 13.0012V10.5352L15.5548 8.83203C16.0143 8.52568 16.1385 7.90481 15.8322 7.44528C15.5258 6.98576 14.9049 6.86158 14.4454 7.16793L13 8.13154V6C13 5.44772 12.5523 5 12 5C11.4477 5 11 5.44772 11 6V11.1315L9.55459 10.1679C9.09507 9.86158 8.4742 9.98575 8.16784 10.4453C7.86149 10.9048 7.98567 11.5257 8.44519 11.832L11 13.5352V16.4291C7.60771 15.9439 5 13.0265 5 9.5Z" fill="#080809" style="fill:#080809;fill:color(display-p3 0.0314 0.0314 0.0353);fill-opacity:1;"/>
</svg>
