<svg width="24" height="24" viewBox="0 0 24 24" fill="none" xmlns="http://www.w3.org/2000/svg">
<g clip-path="url(#clip0_29901_28286)">
<path d="M0.5 7.91551C0.5 4.08458 3.60558 0.979004 7.43651 0.979004H14.7381C17.1413 0.979004 19.259 2.20108 20.5037 4.05768C19.3308 3.41464 17.9841 3.04898 16.5521 3.04898H9.36459C4.96654 3.04898 1.37404 6.49791 1.14419 10.8387C0.730804 9.95035 0.5 8.95988 0.5 7.91551Z" fill="#080809" style="fill:#080809;fill:color(display-p3 0.0314 0.0314 0.0353);fill-opacity:1;"/>
<path d="M2.41634 11.2812C2.41634 7.44395 5.52703 4.33327 9.36426 4.33327H16.5518C20.389 4.33327 23.4997 7.44395 23.4997 11.2812C23.4997 15.1184 20.389 18.2291 16.5518 18.2291H12.5945V23.1404C12.5945 23.5779 12.0656 23.797 11.7562 23.4876L4.69428 16.4256C3.29495 15.1546 2.41634 13.3205 2.41634 11.2812Z" fill="#080809" style="fill:#080809;fill:color(display-p3 0.0314 0.0314 0.0353);fill-opacity:1;"/>
</g>
<defs>
<clipPath id="clip0_29901_28286">
<rect width="24" height="24" fill="white" style="fill:white;fill-opacity:1;"/>
</clipPath>
</defs>
</svg>
