<svg width="24" height="24" viewBox="0 0 24 24" fill="none" xmlns="http://www.w3.org/2000/svg">
<g clip-path="url(#clip0_29901_28520)">
<path d="M12.0002 2.75C9.26079 2.75 6.80078 3.93925 5.10526 5.83364C4.64485 6.34805 3.85461 6.39183 3.3402 5.93142C2.82579 5.47101 2.78201 4.68077 3.24242 4.16636C5.39214 1.7645 8.52014 0.25 12.0002 0.25C18.4896 0.25 23.7502 5.51065 23.7502 12C23.7502 13.9632 23.2678 15.8174 22.4139 17.4469C22.3517 17.5656 22.3517 17.6607 22.3655 17.7138L23.2469 21.1135C23.5818 22.4053 22.4055 23.5816 21.1137 23.2467L17.714 22.3653C17.6609 22.3515 17.5658 22.3515 17.4471 22.4137C15.8176 23.2675 13.9634 23.75 12.0002 23.75C8.52014 23.75 5.39214 22.2355 3.24242 19.8336C2.78201 19.3192 2.82579 18.529 3.3402 18.0686C3.85461 17.6082 4.64485 17.6519 5.10526 18.1664C6.80078 20.0607 9.26079 21.25 12.0002 21.25C13.5496 21.25 15.0067 20.87 16.2867 20.1993C16.883 19.8868 17.6131 19.7565 18.3414 19.9453L20.5069 20.5067L19.9455 18.3412C19.7567 17.6129 19.887 16.8828 20.1995 16.2865C20.8702 15.0064 21.2502 13.5494 21.2502 12C21.2502 6.89137 17.1088 2.75 12.0002 2.75Z" fill="#080809" style="fill:#080809;fill:color(display-p3 0.0314 0.0314 0.0353);fill-opacity:1;"/>
<path d="M0.25 10C0.25 9.30964 0.809644 8.75 1.5 8.75H10C10.6904 8.75 11.25 9.30964 11.25 10C11.25 10.6904 10.6904 11.25 10 11.25H1.5C0.809644 11.25 0.25 10.6904 0.25 10Z" fill="#080809" style="fill:#080809;fill:color(display-p3 0.0314 0.0314 0.0353);fill-opacity:1;"/>
<path d="M3 12.75C2.30964 12.75 1.75 13.3096 1.75 14C1.75 14.6904 2.30964 15.25 3 15.25H8C8.69036 15.25 9.25 14.6904 9.25 14C9.25 13.3096 8.69036 12.75 8 12.75H3Z" fill="#080809" style="fill:#080809;fill:color(display-p3 0.0314 0.0314 0.0353);fill-opacity:1;"/>
</g>
<defs>
<clipPath id="clip0_29901_28520">
<rect width="24" height="24" fill="white" style="fill:white;fill-opacity:1;"/>
</clipPath>
</defs>
</svg>
