<svg width="24" height="24" viewBox="0 0 24 24" fill="none" xmlns="http://www.w3.org/2000/svg">
<g clip-path="url(#clip0_29901_26598)">
<path d="M5.29289 10.2071C5.68342 10.5976 6.31658 10.5976 6.70711 10.2071L7.50002 9.41419L7.5 16.5005C7.5 17.0527 7.94771 17.5005 8.5 17.5005C9.05228 17.5005 9.5 17.0527 9.5 16.5005L9.50002 9.41424L10.2929 10.2071C10.6834 10.5976 11.3166 10.5976 11.7071 10.2071C12.0976 9.81658 12.0976 9.18342 11.7071 8.79289L10.2678 7.35355C9.29145 6.37724 7.70854 6.37724 6.73223 7.35355L5.29289 8.79289C4.90237 9.18342 4.90237 9.81658 5.29289 10.2071Z" fill="#080809" style="fill:#080809;fill:color(display-p3 0.0314 0.0314 0.0353);fill-opacity:1;"/>
<path d="M13.7071 13.7929C13.3166 13.4024 12.6834 13.4024 12.2929 13.7929C11.9024 14.1834 11.9024 14.8166 12.2929 15.2071L13.7322 16.6464C14.7085 17.6228 16.2915 17.6228 17.2678 16.6464L18.7071 15.2071C19.0976 14.8166 19.0976 14.1834 18.7071 13.7929C18.3166 13.4024 17.6834 13.4024 17.2929 13.7929L16.5 14.5858V7.50024C16.5 6.94796 16.0523 6.50024 15.5 6.50024C14.9477 6.50024 14.5 6.94796 14.5 7.50024V14.5858L13.7071 13.7929Z" fill="#080809" style="fill:#080809;fill:color(display-p3 0.0314 0.0314 0.0353);fill-opacity:1;"/>
<path fill-rule="evenodd" clip-rule="evenodd" d="M12 23.5C5.64873 23.5 0.5 18.3513 0.5 12C0.5 5.64873 5.64873 0.5 12 0.5C18.3513 0.5 23.5 5.64872 23.5 12C23.5 18.3513 18.3513 23.5 12 23.5ZM2.5 12C2.5 17.2467 6.7533 21.5 12 21.5C17.2467 21.5 21.5 17.2467 21.5 12C21.5 6.75329 17.2467 2.5 12 2.5C6.75329 2.5 2.5 6.75329 2.5 12Z" fill="#080809" style="fill:#080809;fill:color(display-p3 0.0314 0.0314 0.0353);fill-opacity:1;"/>
</g>
<defs>
<clipPath id="clip0_29901_26598">
<rect width="24" height="24" fill="white" style="fill:white;fill-opacity:1;"/>
</clipPath>
</defs>
</svg>
