<svg width="24" height="24" viewBox="0 0 24 24" fill="none" xmlns="http://www.w3.org/2000/svg">
<path d="M19.7485 9.33681C19.9672 9.58368 20.0502 9.92255 19.9702 10.2425L19.9092 10.4863C19.3184 12.8495 16.3063 13.5606 14.721 11.7111L14.2408 11.1508C14.0012 10.8713 13.9345 10.4828 14.0673 10.1394C14.2 9.79606 14.5107 9.55339 14.876 9.50773L18.876 9.00773C19.2033 8.96682 19.5297 9.08994 19.7485 9.33681Z" fill="#080809" style="fill:#080809;fill:color(display-p3 0.0314 0.0314 0.0353);fill-opacity:1;"/>
<path d="M4.02984 10.2425C3.94984 9.92255 4.03279 9.58368 4.25154 9.33681C4.4703 9.08994 4.79672 8.96682 5.12402 9.00773L9.12402 9.50773C9.4893 9.55339 9.79996 9.79606 9.93271 10.1394C10.0655 10.4828 9.99881 10.8713 9.75924 11.1508L9.27899 11.7111C7.69371 13.5606 4.68159 12.8495 4.09079 10.4863L4.02984 10.2425Z" fill="#080809" style="fill:#080809;fill:color(display-p3 0.0314 0.0314 0.0353);fill-opacity:1;"/>
<path fill-rule="evenodd" clip-rule="evenodd" d="M5.38892 4.76853C2.90409 4.32692 0.5 6.19924 0.5 8.79018V10.953C0.5 12.5664 1.07892 13.9612 2 15.0199V22.5C2 23.0523 2.44772 23.5 3 23.5C3.55228 23.5 4 23.0523 4 22.5V16.549C5.98049 17.5134 8.46036 17.4541 10.4955 15.9035C11.3842 15.2264 12.6158 15.2264 13.5045 15.9035C17.6012 19.0248 23.5 16.1033 23.5 10.953V8.79018C23.5 6.19924 21.0959 4.32692 18.6111 4.76853C16.5172 5.14065 13.9729 5.50003 12 5.50003C10.0271 5.50003 7.48279 5.14065 5.38892 4.76853ZM2.5 8.79018C2.5 7.51053 3.71294 6.50201 5.03897 6.73767C7.1537 7.1135 9.84206 7.50003 12 7.50003C14.1579 7.50003 16.8463 7.1135 18.961 6.73767C20.2871 6.50201 21.5 7.51053 21.5 8.79018V10.953C21.5 14.4482 17.4968 16.4309 14.7166 14.3126C13.1119 13.09 10.8881 13.09 9.28343 14.3126C6.50318 16.4309 2.5 14.4482 2.5 10.953V8.79018Z" fill="#080809" style="fill:#080809;fill:color(display-p3 0.0314 0.0314 0.0353);fill-opacity:1;"/>
</svg>
