<svg width="24" height="24" viewBox="0 0 24 24" fill="none" xmlns="http://www.w3.org/2000/svg">
<path fill-rule="evenodd" clip-rule="evenodd" d="M7.5 3C6.11929 3 5 4.11929 5 5.5V18.5C5 19.8807 6.11929 21 7.5 21H8.5C9.88071 21 11 19.8807 11 18.5V5.5C11 4.11929 9.88071 3 8.5 3H7.5ZM7 5.5C7 5.22386 7.22386 5 7.5 5H8.5C8.77614 5 9 5.22386 9 5.5V18.5C9 18.7761 8.77614 19 8.5 19H7.5C7.22386 19 7 18.7761 7 18.5V5.5Z" fill="#080809" style="fill:#080809;fill:color(display-p3 0.0314 0.0314 0.0353);fill-opacity:1;"/>
<path fill-rule="evenodd" clip-rule="evenodd" d="M15.5 3C14.1193 3 13 4.11929 13 5.5V18.5C13 19.8807 14.1193 21 15.5 21H16.5C17.8807 21 19 19.8807 19 18.5V5.5C19 4.11929 17.8807 3 16.5 3H15.5ZM15 5.5C15 5.22386 15.2239 5 15.5 5H16.5C16.7761 5 17 5.22386 17 5.5V18.5C17 18.7761 16.7761 19 16.5 19H15.5C15.2239 19 15 18.7761 15 18.5V5.5Z" fill="#080809" style="fill:#080809;fill:color(display-p3 0.0314 0.0314 0.0353);fill-opacity:1;"/>
</svg>
