<svg width="24" height="24" viewBox="0 0 24 24" fill="none" xmlns="http://www.w3.org/2000/svg">
<path d="M20.4494 1.10465C20.0731 0.298453 18.9267 0.298449 18.5505 1.10465L18.3361 1.56402C17.9718 2.34454 17.3444 2.97193 16.5639 3.3362L16.1045 3.55059C15.2983 3.92684 15.2983 5.07322 16.1045 5.44948L16.5639 5.66387C17.3444 6.02814 17.9718 6.65553 18.3361 7.43605L18.5505 7.89542C18.9267 8.70162 20.0731 8.70162 20.4494 7.89542L20.6637 7.43605C21.028 6.65553 21.6554 6.02814 22.4359 5.66387L22.8953 5.44948C23.7015 5.07323 23.7015 3.92684 22.8953 3.55059L22.4359 3.3362C21.6554 2.97193 21.028 2.34454 20.6637 1.56402L20.4494 1.10465Z" fill="#080809" style="fill:#080809;fill:color(display-p3 0.0314 0.0314 0.0353);fill-opacity:1;"/>
<path d="M7 9C8.10457 9 9 8.10457 9 7C9 5.89543 8.10457 5 7 5C5.89543 5 5 5.89543 5 7C5 8.10457 5.89543 9 7 9Z" fill="#080809" style="fill:#080809;fill:color(display-p3 0.0314 0.0314 0.0353);fill-opacity:1;"/>
<path fill-rule="evenodd" clip-rule="evenodd" d="M3.08731 16.4986L5.23262 14.3533C6.20893 13.377 7.79184 13.377 8.76815 14.3533L9.14683 14.732C9.34209 14.9273 9.65867 14.9273 9.85394 14.732L14.2326 10.3533C15.2089 9.37702 16.7918 9.37702 17.7682 10.3533L20.9974 13.5826C20.9999 13.0917 21 12.5654 21 12V10.5C21 9.94772 21.4477 9.5 22 9.5C22.5523 9.5 23 9.94772 23 10.5V12.0748C23 13.5664 23 14.859 22.9472 15.9734C22.947 15.9805 22.9468 15.9877 22.9464 15.9949C22.8903 17.1634 22.7751 18.1916 22.4995 19.0879C22.2456 19.9143 21.8543 20.631 21.2426 21.2426C20.2936 22.1916 19.0921 22.6101 17.6196 22.808C16.1914 23 14.3683 23 12.0748 23H11.9252C9.63167 23 7.8086 23 6.38039 22.808C4.90794 22.6101 3.70636 22.1916 2.75736 21.2426C1.80836 20.2936 1.38994 19.0921 1.19198 17.6196C0.999961 16.1914 0.999978 14.3684 1 12.0748V11.9252C0.999978 9.63166 0.999961 7.80859 1.19198 6.38039C1.38994 4.90794 1.80836 3.70636 2.75736 2.75736C3.70636 1.80836 4.90794 1.38994 6.38039 1.19198C7.80859 0.99996 9.63165 0.999978 11.9252 1L13.5 1C14.0523 1 14.5 1.44772 14.5 2C14.5 2.55229 14.0523 3 13.5 3H12C9.61471 3 7.92634 3.00212 6.64689 3.17414C5.39621 3.34229 4.68704 3.65611 4.17157 4.17157C3.65611 4.68704 3.34229 5.39621 3.17414 6.64689C3.00213 7.92634 3 9.61471 3 12C3 13.8889 3.00133 15.3408 3.08731 16.4986ZM15.6468 11.7675C15.8421 11.5723 16.1587 11.5723 16.3539 11.7675L20.9238 16.3374C20.8533 17.3969 20.722 18.1586 20.5079 18.7373C20.4422 18.9144 20.369 19.0742 20.2875 19.22C20.1569 19.4536 20.0047 19.6518 19.8285 19.828C19.3131 20.3434 18.6039 20.6573 17.3532 20.8254C16.0738 20.9974 14.3854 20.9996 12.0001 20.9996C9.61481 20.9996 7.92644 20.9974 6.64699 20.8254C5.39631 20.6573 4.68714 20.3434 4.17167 19.828C3.91177 19.5681 3.70623 19.2623 3.54432 18.87L6.64683 15.7675C6.84209 15.5723 7.15867 15.5723 7.35394 15.7675L7.73262 16.1462C8.70893 17.1225 10.2918 17.1225 11.2682 16.1462L15.6468 11.7675Z" fill="#080809" style="fill:#080809;fill:color(display-p3 0.0314 0.0314 0.0353);fill-opacity:1;"/>
</svg>
