<svg width="24" height="24" viewBox="0 0 24 24" fill="none" xmlns="http://www.w3.org/2000/svg">
<g clip-path="url(#clip0_29901_26781)">
<path d="M16.2071 9.20682C16.5976 8.8163 16.5976 8.18313 16.2071 7.79261C15.8165 7.40208 15.1834 7.40208 14.7928 7.79261L7.79285 14.7926C7.40233 15.1831 7.40233 15.8163 7.79285 16.2068C8.18337 16.5973 8.81654 16.5973 9.20706 16.2068L16.2071 9.20682Z" fill="#080809" style="fill:#080809;fill:color(display-p3 0.0314 0.0314 0.0353);fill-opacity:1;"/>
<path d="M8.99996 10.4997C9.82838 10.4997 10.5 9.82814 10.5 8.99971C10.5 8.17129 9.82838 7.49971 8.99996 7.49971C8.17153 7.49971 7.49996 8.17129 7.49996 8.99971C7.49996 9.82814 8.17153 10.4997 8.99996 10.4997Z" fill="#080809" style="fill:#080809;fill:color(display-p3 0.0314 0.0314 0.0353);fill-opacity:1;"/>
<path d="M16.5 14.9997C16.5 15.8281 15.8284 16.4997 15 16.4997C14.1715 16.4997 13.5 15.8281 13.5 14.9997C13.5 14.1713 14.1715 13.4997 15 13.4997C15.8284 13.4997 16.5 14.1713 16.5 14.9997Z" fill="#080809" style="fill:#080809;fill:color(display-p3 0.0314 0.0314 0.0353);fill-opacity:1;"/>
<path fill-rule="evenodd" clip-rule="evenodd" d="M22.9425 10.2321C23.9188 11.2084 23.9188 12.7913 22.9425 13.7676L21 15.7102V18.4997C21 19.8804 19.8807 20.9997 18.5 20.9997H15.7104L13.7669 22.9433C12.7906 23.9196 11.2077 23.9196 10.2314 22.9433L8.28781 20.9997H5.49996C4.11925 20.9997 2.99996 19.8804 2.99996 18.4997V15.7119L1.05572 13.7676C0.0794067 12.7913 0.0794106 11.2084 1.05572 10.2321L2.99996 8.28785V5.49971C2.99996 4.119 4.11925 2.99971 5.49996 2.99971H8.2881L10.2314 1.05645C11.2077 0.080138 12.7906 0.0801437 13.7669 1.05645L15.7101 2.99971H18.5C19.8807 2.99971 21 4.119 21 5.49971V8.28952L22.9425 10.2321ZM21.5283 12.3534C21.7236 12.1581 21.7236 11.8416 21.5283 11.6463L19.2929 9.41084C19.1053 9.2233 19 8.96895 19 8.70373V5.49971C19 5.22357 18.7761 4.99971 18.5 4.99971H15.2959C15.0307 4.99971 14.7764 4.89436 14.5888 4.70682L12.3527 2.47067C12.1574 2.2754 11.8408 2.2754 11.6456 2.47066L9.40942 4.70682C9.22188 4.89436 8.96753 4.99971 8.70231 4.99971H5.49996C5.22381 4.99971 4.99996 5.22357 4.99996 5.49971V8.70207C4.99996 8.96728 4.8946 9.22164 4.70706 9.40917L2.46993 11.6463C2.27467 11.8416 2.27467 12.1581 2.46993 12.3534L4.70706 14.5905C4.8946 14.7781 4.99996 15.0324 4.99996 15.2976V18.4997C4.99996 18.7759 5.22381 18.9997 5.49996 18.9997H8.70202C8.96724 18.9997 9.22159 19.1051 9.40913 19.2926L11.6456 21.529C11.8408 21.7243 12.1574 21.7243 12.3527 21.529L14.5891 19.2926C14.7767 19.1051 15.031 18.9997 15.2962 18.9997H18.5C18.7761 18.9997 19 18.7759 19 18.4997V15.296C19 15.0308 19.1053 14.7764 19.2929 14.5889L21.5283 12.3534Z" fill="#080809" style="fill:#080809;fill:color(display-p3 0.0314 0.0314 0.0353);fill-opacity:1;"/>
</g>
<defs>
<clipPath id="clip0_29901_26781">
<rect width="24" height="24" fill="white" style="fill:white;fill-opacity:1;"/>
</clipPath>
</defs>
</svg>
