<svg width="24" height="24" viewBox="0 0 24 24" fill="none" xmlns="http://www.w3.org/2000/svg">
<g clip-path="url(#clip0_29901_26765)">
<path d="M10.5 7.5C10.5 8.60457 9.60457 9.5 8.5 9.5C7.39543 9.5 6.5 8.60457 6.5 7.5C6.5 6.39543 7.39543 5.5 8.5 5.5C9.60457 5.5 10.5 6.39543 10.5 7.5Z" fill="#080809" style="fill:#080809;fill:color(display-p3 0.0314 0.0314 0.0353);fill-opacity:1;"/>
<path fill-rule="evenodd" clip-rule="evenodd" d="M23.5 12C23.5 5.64873 18.3513 0.5 12 0.5C5.64873 0.5 0.5 5.64873 0.5 12C0.5 14.4651 1.27561 16.749 2.5961 18.6211C2.6026 18.631 2.6093 18.6408 2.61619 18.6505C4.69816 21.5837 8.12509 23.501 11.9999 23.501C13.9217 23.501 15.7362 23.0288 17.3307 22.1932C17.4972 22.106 17.6558 22.093 17.7764 22.1243L21.1761 23.0057C22.0965 23.2443 22.9485 22.588 23.045 21.7237C23.0647 21.5479 23.0532 21.3635 23.0047 21.1762L22.1233 17.7765C22.1084 17.7192 22.1035 17.6532 22.1119 17.5819C22.1212 17.5036 22.1466 17.4188 22.1921 17.3318C22.326 17.0763 22.4506 16.8151 22.5654 16.5487C22.5687 16.541 22.5719 16.5332 22.5751 16.5255C23.1705 15.1356 23.5 13.6053 23.5 12ZM21.2176 14.3093C21.402 13.5705 21.5 12.7971 21.5 12C21.5 6.75329 17.2467 2.5 12 2.5C6.75329 2.5 2.5 6.75329 2.5 12C2.5 13.617 2.904 15.1397 3.61656 16.4725L5.23087 14.8582C6.20718 13.8819 7.79009 13.8819 8.7664 14.8582L9.14515 15.237C9.34041 15.4322 9.65699 15.4322 9.85225 15.237L14.231 10.8582C15.2073 9.8819 16.7902 9.8819 17.7666 10.8582L21.2176 14.3093ZM20.855 20.8553L18.2785 20.1873C17.6177 20.016 16.9511 20.1333 16.4025 20.4207C15.0875 21.1098 13.5908 21.5 12 21.5C9.10111 21.5 6.50548 20.2016 4.76295 18.1546L6.64508 16.2724C6.84034 16.0772 7.15693 16.0772 7.35219 16.2724L7.73093 16.6512C8.70724 17.6275 10.2902 17.6275 11.2665 16.6512L15.6452 12.2724C15.8405 12.0772 16.1571 12.0772 16.3523 12.2724L20.4419 16.3619C20.4348 16.3755 20.4278 16.389 20.4207 16.4025C20.2669 16.6961 20.1618 17.0236 20.1236 17.3658C20.0902 17.6633 20.1075 17.972 20.1872 18.2794L20.855 20.8553Z" fill="#080809" style="fill:#080809;fill:color(display-p3 0.0314 0.0314 0.0353);fill-opacity:1;"/>
</g>
<defs>
<clipPath id="clip0_29901_26765">
<rect width="24" height="24" fill="white" style="fill:white;fill-opacity:1;"/>
</clipPath>
</defs>
</svg>
