<svg width="24" height="24" viewBox="0 0 24 24" fill="none" xmlns="http://www.w3.org/2000/svg">
<path d="M20 10C20.5523 10 21 10.4477 21 11C21 15.6325 17.4998 19.4448 13 19.9424V21.5H15L15.1025 21.5049C15.6067 21.5562 16 21.9823 16 22.5C16 23.0523 15.5523 23.5 15 23.5H9C8.44772 23.5 8 23.0523 8 22.5C8 21.9477 8.44772 21.5 9 21.5H11V19.9424C6.50019 19.4448 3 15.6325 3 11C3 10.4477 3.44772 10 4 10C4.55228 10 5 10.4477 5 11C5 14.866 8.13401 18 12 18C15.866 18 19 14.866 19 11C19 10.4477 19.4477 10 20 10Z" fill="#080809" style="fill:#080809;fill:color(display-p3 0.0314 0.0314 0.0353);fill-opacity:1;"/>
<path d="M12 0.5C14.7614 0.5 17 2.73858 17 5.5H14.5C13.9477 5.5 13.5 5.94772 13.5 6.5C13.5 7.05228 13.9477 7.5 14.5 7.5H17V9H14.5C13.9477 9 13.5 9.44772 13.5 10C13.5 10.5523 13.9477 11 14.5 11H17C17 13.7614 14.7614 16 12 16C9.23858 16 7 13.7614 7 11H9.5C10.0523 11 10.5 10.5523 10.5 10C10.5 9.44772 10.0523 9 9.5 9H7V7.5H9.5C10.0523 7.5 10.5 7.05228 10.5 6.5C10.5 5.94772 10.0523 5.5 9.5 5.5H7C7 2.73858 9.23858 0.5 12 0.5Z" fill="#080809" style="fill:#080809;fill:color(display-p3 0.0314 0.0314 0.0353);fill-opacity:1;"/>
</svg>
