<svg width="24" height="24" viewBox="0 0 24 24" fill="none" xmlns="http://www.w3.org/2000/svg">
<g clip-path="url(#clip0_29901_26514)">
<path d="M18.153 19.2384C16.4948 20.6494 14.348 21.5 12 21.5C9.65197 21.5 7.50516 20.6494 5.84701 19.2384C5.4264 18.8805 4.79528 18.9313 4.43736 19.3519C4.07944 19.7725 4.13026 20.4037 4.55087 20.7616C6.55711 22.4688 9.15941 23.5 12 23.5C14.8406 23.5 17.4429 22.4688 19.4491 20.7616C19.8697 20.4037 19.9206 19.7725 19.5626 19.3519C19.2047 18.9313 18.5736 18.8805 18.153 19.2384Z" fill="#080809" style="fill:#080809;fill:color(display-p3 0.0314 0.0314 0.0353);fill-opacity:1;"/>
<path d="M20.3564 16.5231C20.093 17.0086 20.2731 17.6156 20.7585 17.879C21.2439 18.1423 21.851 17.9623 22.1143 17.4769C22.9983 15.8475 23.5 13.9808 23.5 12C23.5 5.64873 18.3513 0.5 12 0.5C11.4477 0.5 11 0.947716 11 1.5C11 2.05228 11.4477 2.5 12 2.5C17.2467 2.5 21.5 6.75329 21.5 12C21.5 13.6395 21.0855 15.1793 20.3564 16.5231Z" fill="#080809" style="fill:#080809;fill:color(display-p3 0.0314 0.0314 0.0353);fill-opacity:1;"/>
<path d="M1.88565 17.4769C2.14902 17.9623 2.75605 18.1423 3.2415 17.879C3.72694 17.6156 3.90696 17.0086 3.64359 16.5231C2.91449 15.1793 2.5 13.6395 2.5 12C2.5 11.6942 2.51442 11.392 2.54257 11.0941C2.59451 10.5442 2.1909 10.0564 1.64106 10.0044C1.09122 9.95249 0.603382 10.3561 0.551434 10.9059C0.517387 11.2663 0.5 11.6313 0.5 12C0.5 13.9808 1.00165 15.8475 1.88565 17.4769Z" fill="#080809" style="fill:#080809;fill:color(display-p3 0.0314 0.0314 0.0353);fill-opacity:1;"/>
<path d="M1.88565 6.52313C1.62228 7.00857 1.8023 7.6156 2.28774 7.87897C2.77319 8.14234 3.38022 7.96232 3.64359 7.47688C3.90324 6.9983 4.20292 6.54434 4.5382 6.11954C4.88036 5.68602 4.8063 5.05721 4.37278 4.71504C3.93926 4.37287 3.31044 4.44693 2.96828 4.88046C2.56279 5.39421 2.20009 5.94355 1.88565 6.52313Z" fill="#080809" style="fill:#080809;fill:color(display-p3 0.0314 0.0314 0.0353);fill-opacity:1;"/>
<path d="M6.52312 1.88565C6.03768 2.14902 5.85766 2.75605 6.12103 3.2415C6.3844 3.72694 6.99144 3.90696 7.47688 3.64359C7.76945 3.48485 8.07124 3.34108 8.38121 3.21327C8.89179 3.00273 9.13502 2.41815 8.92449 1.90757C8.71396 1.39699 8.12938 1.15375 7.61879 1.36429C7.24309 1.5192 6.87746 1.69341 6.52312 1.88565Z" fill="#080809" style="fill:#080809;fill:color(display-p3 0.0314 0.0314 0.0353);fill-opacity:1;"/>
<path fill-rule="evenodd" clip-rule="evenodd" d="M12.0005 17.498C11.7415 17.498 11.4825 17.43 11.2515 17.292C7.84949 15.273 6.03449 12.996 6.00149 10.707C5.96649 8.431 7.74349 7.035 9.48149 7.002C10.6195 7.007 11.4155 7.428 12.0005 7.978C12.5855 7.426 13.3905 7.007 14.5195 7C16.2565 7.033 18.0345 8.429 17.9995 10.708C17.9675 12.996 16.1505 15.273 12.7475 17.293C12.5175 17.43 12.2595 17.498 12.0005 17.498ZM9.56749 9.002H9.51949V9.003C8.75149 9.018 7.98349 9.598 8.00049 10.678C8.02249 12.161 9.43949 13.834 12.0005 15.408C14.5625 13.834 15.9795 12.161 16.0005 10.679C16.0165 9.597 15.2485 9.016 14.4815 9.001C13.8865 9.003 13.4515 9.166 12.8345 10.1C12.4635 10.661 11.5375 10.661 11.1665 10.1C10.5665 9.194 10.1205 9.002 9.56749 9.002Z" fill="#080809" style="fill:#080809;fill:color(display-p3 0.0314 0.0314 0.0353);fill-opacity:1;"/>
</g>
<defs>
<clipPath id="clip0_29901_26514">
<rect width="24" height="24" fill="white" style="fill:white;fill-opacity:1;"/>
</clipPath>
</defs>
</svg>
