<svg width="24" height="24" viewBox="0 0 24 24" fill="none" xmlns="http://www.w3.org/2000/svg">
<path fill-rule="evenodd" clip-rule="evenodd" d="M12.4889 0.627688C12.1733 0.450781 11.7868 0.458153 11.4781 0.646966C4.90714 4.66687 2.5 10.0072 2.5 14C2.5 19.1618 6.74728 23.5 12 23.5C17.2527 23.5 21.5 19.1618 21.5 14C21.5 10.2953 19.4499 7.91365 18.5844 6.92078C17.9583 6.20261 17.1652 5.0449 16.8436 4.54814C16.6621 4.26771 16.3526 4.09643 16.0186 4.0916C15.6846 4.08677 15.3702 4.24904 15.1807 4.5241L14.0637 6.14519C13.8453 5.64917 13.6487 5.07898 13.4838 4.47756C13.1596 3.29487 13 2.1504 13 1.5C13 1.13819 12.8046 0.804596 12.4889 0.627688ZM12.7089 11.7946C12.5212 11.606 12.2661 11.5 12 11.5C11.7339 11.5 11.4788 11.606 11.2911 11.7946L11.2896 11.7962L11.287 11.7989L11.2788 11.8071L11.2512 11.8355C11.2279 11.8595 11.195 11.8937 11.1539 11.9373C11.0718 12.0245 10.9567 12.1494 10.8194 12.3056C10.5458 12.6167 10.1794 13.0573 9.81094 13.5738C9.44432 14.0876 9.06267 14.6946 8.76967 15.3377C8.48049 15.9725 8.25 16.7022 8.25 17.4455C8.25 19.5833 9.83273 21.5 12 21.5C14.1673 21.5 15.75 19.5833 15.75 17.4455C15.75 16.7022 15.5195 15.9725 15.2303 15.3377C14.9373 14.6946 14.5557 14.0876 14.1891 13.5738C13.8206 13.0573 13.4542 12.6167 13.1806 12.3056C13.0433 12.1494 12.9282 12.0245 12.8461 11.9373C12.805 11.8937 12.7721 11.8595 12.7488 11.8355L12.7212 11.8071L12.713 11.7989L12.7104 11.7962L12.7089 11.7946Z" fill="#080809" style="fill:#080809;fill:color(display-p3 0.0314 0.0314 0.0353);fill-opacity:1;"/>
</svg>
