<svg width="24" height="24" viewBox="0 0 24 24" fill="none" xmlns="http://www.w3.org/2000/svg">
<path d="M4.36328 2.5C7.0315 2.5 9.41605 3.7108 11 5.6123V20.7812C9.94106 21.7766 8.54155 22.4136 6.99316 22.4922L6.66699 22.5C4.64195 22.5 3 20.8581 3 18.833C3.0001 17.1938 3.62416 15.7015 4.64453 14.5781C2.15292 12.9785 0.5 10.1834 0.5 7V6.36328L0.504883 6.16406C0.608727 4.12314 2.2966 2.50025 4.36328 2.5Z" fill="#080809" style="fill:#080809;fill:color(display-p3 0.0314 0.0314 0.0353);fill-opacity:1;"/>
<path d="M19.6367 2.5C21.7034 2.50025 23.3913 4.12314 23.4951 6.16406L23.5 6.36328V7C23.5 10.1834 21.8471 12.9785 19.3555 14.5781C20.3758 15.7015 20.9999 17.1938 21 18.833C21 20.8581 19.3581 22.5 17.333 22.5L17.0068 22.4922C15.4584 22.4136 14.0589 21.7766 13 20.7812V5.6123C14.5839 3.7108 16.9685 2.5 19.6367 2.5Z" fill="#080809" style="fill:#080809;fill:color(display-p3 0.0314 0.0314 0.0353);fill-opacity:1;"/>
</svg>
