<svg width="24" height="24" viewBox="0 0 24 24" fill="none" xmlns="http://www.w3.org/2000/svg">
<path d="M12 5C12.4039 5 12.7677 5.2433 12.9229 5.61621L13.6133 7.27734L15.4082 7.42188L15.5566 7.44434C15.8938 7.52314 16.17 7.77337 16.2793 8.10938C16.4041 8.49345 16.2861 8.91494 15.9795 9.17773L14.6123 10.3486L15.0303 12.0996L15.0537 12.2471C15.0831 12.5921 14.9313 12.9328 14.6455 13.1406C14.3595 13.3483 13.9881 13.3875 13.6689 13.2529L13.5361 13.1846L12 12.2461L10.4639 13.1846C10.1192 13.395 9.68122 13.378 9.35449 13.1406C9.02807 12.9032 8.87614 12.4923 8.96973 12.0996L9.38672 10.3486L8.02051 9.17773C7.71402 8.91495 7.59597 8.49337 7.7207 8.10938C7.84555 7.72538 8.18932 7.45424 8.5918 7.42188L10.3857 7.27734L11.0771 5.61621L11.1445 5.48242C11.3237 5.18618 11.6467 5.00008 12 5Z" fill="#080809" style="fill:#080809;fill:color(display-p3 0.0314 0.0314 0.0353);fill-opacity:1;"/>
<path fill-rule="evenodd" clip-rule="evenodd" d="M12 0.5C16.9706 0.5 21 4.52944 21 9.5C21 12.165 19.8406 14.5581 18 16.2061V20.8506C18 22.7938 15.8802 23.9939 14.2139 22.9941L12.2568 21.8203C12.0987 21.7256 11.9013 21.7256 11.7432 21.8203L9.78613 22.9941C8.11982 23.9939 6 22.7938 6 20.8506V16.2061C4.15941 14.5581 3 12.165 3 9.5C3 4.52944 7.02944 0.5 12 0.5ZM16 17.5615C14.7947 18.1607 13.4373 18.5 12 18.5C10.5627 18.5 9.20525 18.1607 8 17.5615V20.8506C8 21.2391 8.42361 21.479 8.75684 21.2793L10.7139 20.1055C11.5055 19.6305 12.4945 19.6305 13.2861 20.1055L15.2432 21.2793C15.5764 21.479 16 21.2391 16 20.8506V17.5615ZM12 2.5C8.13401 2.5 5 5.63401 5 9.5C5 13.366 8.13401 16.5 12 16.5C15.866 16.5 19 13.366 19 9.5C19 5.63401 15.866 2.5 12 2.5Z" fill="#080809" style="fill:#080809;fill:color(display-p3 0.0314 0.0314 0.0353);fill-opacity:1;"/>
</svg>
