<svg width="24" height="24" viewBox="0 0 24 24" fill="none" xmlns="http://www.w3.org/2000/svg">
<path fill-rule="evenodd" clip-rule="evenodd" d="M19.9754 8.36785C19.653 4.24498 16.2055 1 12 1C7.79425 1 4.34651 4.24544 4.02456 8.36854C1.89973 9.80513 0.5 12.2388 0.5 15.0004C0.5 19.4187 4.08172 23.0004 8.5 23.0004C9.75545 23.0004 10.9434 22.7112 12.0007 22.1958C13.0586 22.7111 14.2468 23 15.5002 23C19.9184 23 23.5002 19.4183 23.5002 15C23.5002 12.2396 22.1021 9.80571 19.9754 8.36785ZM12 2.99999C8.71027 2.99999 6.0389 5.64755 6.00042 8.92816C6.0005 8.93924 6.0004 8.95031 6.00012 8.96136L6 9C6 11.2197 7.20482 13.1592 9.00097 14.1981C9.47904 14.4746 9.64243 15.0863 9.36591 15.5644C9.08939 16.0424 8.47767 16.2058 7.9996 15.9293C6.11277 14.838 4.71131 12.9958 4.20565 10.8099C3.14948 11.892 2.49999 13.3706 2.49999 15.0004C2.49999 18.3141 5.18629 21.0004 8.5 21.0004C9.58505 21.0004 10.6028 20.7124 11.4811 20.2086C11.4928 20.2015 11.5046 20.1946 11.5166 20.188C13.3009 19.1483 14.5 17.2144 14.5 15.0004C14.5 14.4481 14.9477 14.0004 15.5 14.0004C16.0523 14.0004 16.5 14.4481 16.5 15.0004C16.5 17.2888 15.5392 19.3528 13.9989 20.8109C14.4783 20.9343 14.9812 21 15.5002 21C18.8139 21 21.5002 18.3137 21.5002 15C21.5002 12.7831 20.2978 10.847 18.5097 9.80821C18.5031 9.80447 18.4965 9.80067 18.4899 9.79679C17.6097 9.28993 16.5888 9 15.5002 9C14.4056 9 13.3824 9.29216 12.5009 9.80208C12.0228 10.0786 11.4111 9.91526 11.1346 9.4372C10.858 8.95914 11.0214 8.34741 11.4994 8.07087C12.6772 7.3896 14.0447 7 15.5002 7C16.286 7 17.0455 7.11332 17.763 7.32451C17.0379 4.82623 14.7322 2.99999 12 2.99999Z" fill="#080809" style="fill:#080809;fill:color(display-p3 0.0314 0.0314 0.0353);fill-opacity:1;"/>
</svg>
