<svg width="24" height="24" viewBox="0 0 24 24" fill="none" xmlns="http://www.w3.org/2000/svg">
<path d="M4 1C2.34315 1 1 2.34315 1 4V6C1 6.55228 1.44772 7 2 7C2.55228 7 3 6.55228 3 6V4C3 3.44772 3.44772 3 4 3H6C6.55228 3 7 2.55228 7 2C7 1.44772 6.55228 1 6 1H4Z" fill="#080809" style="fill:#080809;fill:color(display-p3 0.0314 0.0314 0.0353);fill-opacity:1;"/>
<path d="M18 1C17.4477 1 17 1.44772 17 2C17 2.55228 17.4477 3 18 3H20C20.5523 3 21 3.44772 21 4V6C21 6.55228 21.4477 7 22 7C22.5523 7 23 6.55228 23 6V4C23 2.34315 21.6569 1 20 1H18Z" fill="#080809" style="fill:#080809;fill:color(display-p3 0.0314 0.0314 0.0353);fill-opacity:1;"/>
<path d="M3 18C3 17.4477 2.55228 17 2 17C1.44772 17 1 17.4477 1 18V20C1 21.6569 2.34315 23 4 23H6C6.55228 23 7 22.5523 7 22C7 21.4477 6.55228 21 6 21H4C3.44772 21 3 20.5523 3 20V18Z" fill="#080809" style="fill:#080809;fill:color(display-p3 0.0314 0.0314 0.0353);fill-opacity:1;"/>
<path d="M23 18C23 17.4477 22.5523 17 22 17C21.4477 17 21 17.4477 21 18V20C21 20.5523 20.5523 21 20 21H18C17.4477 21 17 21.4477 17 22C17 22.5523 17.4477 23 18 23H20C21.6569 23 23 21.6569 23 20V18Z" fill="#080809" style="fill:#080809;fill:color(display-p3 0.0314 0.0314 0.0353);fill-opacity:1;"/>
<path fill-rule="evenodd" clip-rule="evenodd" d="M5.50684 11.502C5.50684 8.18824 8.19313 5.50195 11.5068 5.50195C14.8205 5.50195 17.5068 8.18824 17.5068 11.502C17.5068 12.7987 17.0955 13.9993 16.3961 14.9805L18.21 16.7929C18.6007 17.1833 18.601 17.8164 18.2107 18.2071C17.8203 18.5978 17.1871 18.5981 16.7964 18.2077L14.9813 16.3942C14.0009 17.0917 12.8018 17.502 11.5068 17.502C8.19313 17.502 5.50684 14.8157 5.50684 11.502ZM11.5068 7.50195C9.2977 7.50195 7.50684 9.29281 7.50684 11.502C7.50684 13.7111 9.2977 15.502 11.5068 15.502C13.716 15.502 15.5068 13.7111 15.5068 11.502C15.5068 9.29281 13.716 7.50195 11.5068 7.50195Z" fill="#080809" style="fill:#080809;fill:color(display-p3 0.0314 0.0314 0.0353);fill-opacity:1;"/>
</svg>
