<svg width="24" height="24" viewBox="0 0 24 24" fill="none" xmlns="http://www.w3.org/2000/svg">
<path fill-rule="evenodd" clip-rule="evenodd" d="M11 0.5C9.34315 0.5 8 1.84315 8 3.5V4H2C1.44772 4 1 4.44772 1 5C1 5.55228 1.44772 6 2 6H3.05551L3.68222 16.9674C3.75544 18.2493 3.81596 19.309 3.97493 20.146C4.14208 21.0262 4.44051 21.7975 5.08691 22.408C5.7333 23.0185 6.52038 23.2724 7.40863 23.3891C8.25337 23.5001 9.31469 23.5 10.5987 23.5H13.4012C14.6852 23.5 15.7466 23.5001 16.5914 23.3891C17.4796 23.2724 18.2667 23.0185 18.9131 22.408C19.5595 21.7975 19.8579 21.0262 20.0251 20.146C20.184 19.309 20.2446 18.2494 20.3178 16.9675L20.9445 6H22C22.5523 6 23 5.55228 23 5C23 4.44772 22.5523 4 22 4H16V3.5C16 1.84315 14.6569 0.5 13 0.5H11ZM14 4V3.5C14 2.94772 13.5523 2.5 13 2.5H11C10.4477 2.5 10 2.94772 10 3.5V4H14Z" fill="#080809" style="fill:#080809;fill:color(display-p3 0.0314 0.0314 0.0353);fill-opacity:1;"/>
</svg>
