<svg width="24" height="24" viewBox="0 0 24 24" fill="none" xmlns="http://www.w3.org/2000/svg">
<path d="M1 11.5C1 5.42487 5.92487 0.5 12 0.5C18.0751 0.5 23 5.42487 23 11.5V17C23 19.7614 20.7614 22 18 22C16.3431 22 15 20.6569 15 19V15C15 13.3431 16.3431 12 18 12C19.1256 12 20.1643 12.3719 21 12.9996V11.5C21 6.52944 16.9706 2.5 12 2.5C7.02944 2.5 3 6.52944 3 11.5V12.9996C3.83566 12.3719 4.87439 12 6 12C7.65685 12 9 13.3431 9 15V19C9 20.6569 7.65685 22 6 22C3.23858 22 1 19.7614 1 17V11.5Z" fill="#080809" style="fill:#080809;fill:color(display-p3 0.0314 0.0314 0.0353);fill-opacity:1;"/>
</svg>
