<svg width="24" height="24" viewBox="0 0 24 24" fill="none" xmlns="http://www.w3.org/2000/svg">
<path fill-rule="evenodd" clip-rule="evenodd" d="M14.2695 3.43532C13.376 1.49812 10.6227 1.49812 9.7292 3.43532L8.20655 6.73645L4.59647 7.16449C2.478 7.41567 1.6272 10.0341 3.19343 11.4825L5.86249 13.9508L5.15399 17.5166C4.73824 19.609 6.96565 21.2273 8.82717 20.1853L11.9993 18.4096L15.1715 20.1853C17.033 21.2273 19.2605 19.609 18.8447 17.5166L18.1362 13.9508L20.8053 11.4825C22.3715 10.0341 21.5207 7.41567 19.4022 7.16449L15.7921 6.73645L14.2695 3.43532ZM11.5453 4.273C11.724 3.88556 12.2747 3.88556 12.4534 4.273L14.2105 8.08243C14.3561 8.39824 14.6554 8.61568 15.0008 8.65663L19.1667 9.15058C19.5904 9.20082 19.7606 9.72451 19.4473 10.0142L16.3673 12.8625C16.112 13.0987 15.9977 13.4505 16.0655 13.7916L16.883 17.9063C16.9662 18.3248 16.5207 18.6485 16.1484 18.4401L12.4878 16.391C12.1843 16.2211 11.8144 16.2211 11.5109 16.391L7.85028 18.4401C7.47797 18.6485 7.03249 18.3248 7.11564 17.9063L7.93323 13.7916C8.001 13.4505 7.88669 13.0987 7.63136 12.8625L4.55135 10.0142C4.2381 9.72451 4.40826 9.20082 4.83195 9.15058L8.99791 8.65663C9.34327 8.61568 9.64256 8.39824 9.78822 8.08243L11.5453 4.273Z" fill="#080809" style="fill:#080809;fill:color(display-p3 0.0314 0.0314 0.0353);fill-opacity:1;"/>
<path d="M5.21243 2.59972C5.65924 2.2751 6.28461 2.37415 6.60924 2.82095L7.19703 3.62997C7.52165 4.07677 7.42261 4.70214 6.9758 5.02676C6.52899 5.35138 5.90361 5.25233 5.57899 4.80553L4.9912 3.99651C4.66657 3.54971 4.76562 2.92434 5.21243 2.59972Z" fill="#080809" style="fill:#080809;fill:color(display-p3 0.0314 0.0314 0.0353);fill-opacity:1;"/>
<path d="M19.0128 3.99825C19.3374 3.55144 19.2383 2.92608 18.7915 2.60145C18.3447 2.27683 17.7193 2.37588 17.3947 2.82269L16.8069 3.6317C16.4823 4.07851 16.5814 4.70387 17.0282 5.02849C17.475 5.35312 18.1003 5.25407 18.425 4.80726L19.0128 3.99825Z" fill="#080809" style="fill:#080809;fill:color(display-p3 0.0314 0.0314 0.0353);fill-opacity:1;"/>
<path d="M13.0001 21.5C13.0001 20.9477 12.5524 20.5 12.0001 20.5C11.4478 20.5 11.0001 20.9477 11.0001 21.5V22.499C11.0001 23.0513 11.4478 23.499 12.0001 23.499C12.5524 23.499 13.0001 23.0513 13.0001 22.499V21.5Z" fill="#080809" style="fill:#080809;fill:color(display-p3 0.0314 0.0314 0.0353);fill-opacity:1;"/>
<path d="M3.22078 15.8498C3.74603 15.6791 4.03348 15.115 3.86282 14.5897C3.69215 14.0645 3.128 13.777 2.60274 13.9477L1.6561 14.2553C1.13084 14.4259 0.843392 14.9901 1.01406 15.5153C1.18472 16.0406 1.74888 16.3281 2.27413 16.1574L3.22078 15.8498Z" fill="#080809" style="fill:#080809;fill:color(display-p3 0.0314 0.0314 0.0353);fill-opacity:1;"/>
<path d="M20.1196 14.5897C20.2903 14.0644 20.8544 13.777 21.3797 13.9477L22.3263 14.2552C22.8516 14.4259 23.139 14.9901 22.9684 15.5153C22.7977 16.0406 22.2336 16.328 21.7083 16.1573L20.7617 15.8498C20.2364 15.6791 19.9489 15.1149 20.1196 14.5897Z" fill="#080809" style="fill:#080809;fill:color(display-p3 0.0314 0.0314 0.0353);fill-opacity:1;"/>
</svg>
