<svg width="24" height="24" viewBox="0 0 24 24" fill="none" xmlns="http://www.w3.org/2000/svg">
<path d="M17.7071 8.29289C18.0976 8.68342 18.0976 9.31658 17.7071 9.70711L15.4142 12L17.7071 14.2929C18.0976 14.6834 18.0976 15.3166 17.7071 15.7071C17.3166 16.0976 16.6834 16.0976 16.2929 15.7071L14 13.4142L11.7071 15.7071C11.3166 16.0976 10.6834 16.0976 10.2929 15.7071C9.90237 15.3166 9.90237 14.6834 10.2929 14.2929L12.5858 12L10.2929 9.70711C9.90237 9.31658 9.90237 8.68342 10.2929 8.29289C10.6834 7.90237 11.3166 7.90237 11.7071 8.29289L14 10.5858L16.2929 8.29289C16.6834 7.90237 17.3166 7.90237 17.7071 8.29289Z" fill="#080809" style="fill:#080809;fill:color(display-p3 0.0314 0.0314 0.0353);fill-opacity:1;"/>
<path fill-rule="evenodd" clip-rule="evenodd" d="M11.1239 3.00006L14.5735 3.00012C16.397 3.00009 17.8668 3.00007 19.0227 3.15548C20.2229 3.31684 21.2334 3.66203 22.0359 4.46458C22.8385 5.26714 23.1837 6.27764 23.345 7.47778C23.5004 8.63374 23.5004 10.1035 23.5004 11.927V12.0733C23.5004 13.8967 23.5004 15.3665 23.345 16.5225C23.1837 17.7226 22.8385 18.7331 22.0359 19.5357C21.2334 20.3382 20.2229 20.6834 19.0227 20.8448C17.8667 21.0002 16.397 21.0001 14.5735 21.0001L11.1239 21.0002C9.67358 21.0009 8.66564 21.0014 7.74381 20.6195C6.82197 20.2377 6.1096 19.5246 5.08452 18.4986L4.89838 18.3123C3.60899 17.023 2.5697 15.9837 1.8622 15.0564C1.12767 14.0937 0.657227 13.1351 0.657227 12.0001C0.657227 10.8651 1.12767 9.90651 1.8622 8.94379C2.56969 8.01651 3.60898 6.97725 4.89837 5.6879L5.08453 5.50166C6.1096 4.47561 6.82198 3.76256 7.74381 3.38072C8.66564 2.99888 9.67358 2.99937 11.1239 3.00006ZM11.3141 5.00012C9.59748 5.00012 9.01776 5.01782 8.50918 5.22848C8.0006 5.43914 7.57815 5.83655 6.36433 7.05037C5.01101 8.40369 4.06865 9.34905 3.45225 10.157C2.85345 10.9418 2.65723 11.4782 2.65723 12.0001C2.65723 12.522 2.85345 13.0585 3.45225 13.8433C4.06865 14.6512 5.01101 15.5965 6.36433 16.9499C7.57815 18.1637 8.0006 18.5611 8.50918 18.7718C9.01776 18.9824 9.59748 19.0001 11.3141 19.0001H14.5004C16.4143 19.0001 17.7491 18.998 18.7562 18.8626C19.7346 18.7311 20.2527 18.4905 20.6217 18.1214C20.9907 17.7524 21.2313 17.2343 21.3628 16.256C21.4982 15.2488 21.5004 13.914 21.5004 12.0001C21.5004 10.0862 21.4982 8.75141 21.3628 7.74428C21.2313 6.76591 20.9907 6.24781 20.6217 5.8788C20.2527 5.50978 19.7346 5.26919 18.7562 5.13765C17.7491 5.00224 16.4143 5.00012 14.5004 5.00012H11.3141Z" fill="#080809" style="fill:#080809;fill:color(display-p3 0.0314 0.0314 0.0353);fill-opacity:1;"/>
</svg>
