<svg width="24" height="24" viewBox="0 0 24 24" fill="none" xmlns="http://www.w3.org/2000/svg">
<g clip-path="url(#clip0_29901_28019)">
<path fill-rule="evenodd" clip-rule="evenodd" d="M12 21.25C9.89618 21.25 7.9564 20.5477 6.40234 19.3646L19.3646 6.40234C20.5477 7.9564 21.25 9.89618 21.25 12C21.25 12.2009 21.2438 12.498 21.2331 12.6751C21.1918 13.3642 21.7169 13.9564 22.406 13.9978C23.0951 14.0391 23.6873 13.514 23.7286 12.8249C23.7434 12.5794 23.75 12.2281 23.75 12C23.75 5.51065 18.4893 0.25 12 0.25C5.51065 0.25 0.25 5.51065 0.25 12C0.25 18.4893 5.51065 23.75 12 23.75C12.2281 23.75 12.5794 23.7434 12.8249 23.7286C13.514 23.6873 14.0391 23.0951 13.9978 22.406C13.9564 21.7169 13.3642 21.1918 12.6751 21.2331C12.498 21.2438 12.2009 21.25 12 21.25ZM12 2.75C6.89137 2.75 2.75 6.89137 2.75 12C2.75 14.1034 3.45208 16.0429 4.63468 17.5968L17.5968 4.63468C16.0429 3.45208 14.1034 2.75 12 2.75Z" fill="#080809" style="fill:#080809;fill:color(display-p3 0.0314 0.0314 0.0353);fill-opacity:1;"/>
<path fill-rule="evenodd" clip-rule="evenodd" d="M23.5 19C23.5 21.4853 21.4853 23.5 19 23.5C16.5147 23.5 14.5 21.4853 14.5 19C14.5 16.5147 16.5147 14.5 19 14.5C21.4853 14.5 23.5 16.5147 23.5 19ZM19 16.5C19.4142 16.5 19.75 16.8358 19.75 17.25V18.6893L20.7803 19.7197C21.0732 20.0126 21.0732 20.4874 20.7803 20.7803C20.4874 21.0732 20.0126 21.0732 19.7197 20.7803L18.4697 19.5303C18.329 19.3897 18.25 19.1989 18.25 19V17.25C18.25 16.8358 18.5858 16.5 19 16.5Z" fill="#080809" style="fill:#080809;fill:color(display-p3 0.0314 0.0314 0.0353);fill-opacity:1;"/>
</g>
<defs>
<clipPath id="clip0_29901_28019">
<rect width="24" height="24" fill="white" style="fill:white;fill-opacity:1;"/>
</clipPath>
</defs>
</svg>
