<svg width="24" height="24" viewBox="0 0 24 24" fill="none" xmlns="http://www.w3.org/2000/svg">
<path d="M21.793 16.293C22.1835 15.9024 22.8165 15.9024 23.207 16.293C23.5976 16.6835 23.5976 17.3165 23.207 17.707L19.2676 21.6465C18.3523 22.5617 16.9038 22.6192 15.9219 21.8184L15.7324 21.6465L14.793 20.707L14.7246 20.6309C14.4043 20.2381 14.4269 19.6591 14.793 19.293C15.1591 18.9269 15.7381 18.9043 16.1309 19.2246L16.207 19.293L17.1465 20.2324L17.2246 20.2959C17.4187 20.4243 17.6825 20.4033 17.8535 20.2324L21.793 16.293Z" fill="#080809" style="fill:#080809;fill:color(display-p3 0.0314 0.0314 0.0353);fill-opacity:1;"/>
<path d="M4.5 7.5C5.05212 7.5 5.49974 7.94696 5.5 8.49902V19C5.49974 19.5521 5.05212 20 4.5 20H2.5C1.39559 20 0.500264 19.1043 0.5 18V9.5C0.5 8.39543 1.39543 7.5 2.5 7.5H4.5Z" fill="#080809" style="fill:#080809;fill:color(display-p3 0.0314 0.0314 0.0353);fill-opacity:1;"/>
<path d="M15.2207 4C15.7902 4 16.359 4.0433 16.9219 4.12988L21.5107 4.83594L21.7217 4.87891C22.7574 5.1363 23.4999 6.06893 23.5 7.1543C23.5 8.44973 22.4497 9.5 21.1543 9.5H18.0957C18.3511 9.94134 18.5 10.4525 18.5 10.999C18.5 11.2453 18.4696 11.4842 18.4131 11.7129C18.2712 12.2868 17.7092 12.6019 17.1426 12.7705C14.4579 13.5696 12.5 16.0557 12.5 19C12.5 19.5278 12.101 20 11.5732 20H8.49902C7.6706 20 6.99805 19.3284 6.99805 18.5V11.3848C6.99805 11.3678 6.99983 11.3509 7 11.334V8.84863C7 8.14104 7.24579 7.45854 7.69043 6.91602L7.89258 6.69336C9.5091 5.07683 11.6659 4.1244 13.9385 4.01172L14.3945 4H15.2207Z" fill="#080809" style="fill:#080809;fill:color(display-p3 0.0314 0.0314 0.0353);fill-opacity:1;"/>
</svg>
