<svg width="24" height="24" viewBox="0 0 24 24" fill="none" xmlns="http://www.w3.org/2000/svg">
<path d="M7.5 4C8.05228 4 8.5 4.44772 8.5 5V7C8.5 7.55228 8.05228 8 7.5 8C6.94772 8 6.5 7.55228 6.5 7V5C6.5 4.44772 6.94772 4 7.5 4Z" fill="#080809" style="fill:#080809;fill:color(display-p3 0.0314 0.0314 0.0353);fill-opacity:1;"/>
<path d="M8.5 14C8.5 13.4477 8.05228 13 7.5 13C6.94772 13 6.5 13.4477 6.5 14V16C6.5 16.5523 6.94772 17 7.5 17C8.05228 17 8.5 16.5523 8.5 16V14Z" fill="#080809" style="fill:#080809;fill:color(display-p3 0.0314 0.0314 0.0353);fill-opacity:1;"/>
<path fill-rule="evenodd" clip-rule="evenodd" d="M6 0.5C4.34315 0.5 3 1.84315 3 3.5V20.5C3 22.1569 4.34315 23.5 6 23.5H18C19.6569 23.5 21 22.1569 21 20.5V3.5C21 1.84315 19.6569 0.5 18 0.5H6ZM19 9.5V3.5C19 2.94772 18.5523 2.5 18 2.5H6C5.44772 2.5 5 2.94772 5 3.5V9.5H19ZM5 11.5H19V20.5C19 21.0523 18.5523 21.5 18 21.5H6C5.44772 21.5 5 21.0523 5 20.5V11.5Z" fill="#080809" style="fill:#080809;fill:color(display-p3 0.0314 0.0314 0.0353);fill-opacity:1;"/>
</svg>
