<svg width="24" height="24" viewBox="0 0 24 24" fill="none" xmlns="http://www.w3.org/2000/svg">
<path d="M12.923 6.61596C12.7678 6.243 12.4036 5.99999 11.9996 5.99999C11.5957 5.99999 11.2314 6.243 11.0763 6.61596L10.3851 8.27779L8.59103 8.42163C8.18839 8.4539 7.84471 8.72525 7.71989 9.10941C7.59506 9.49357 7.71362 9.9151 8.02039 10.1779L9.3873 11.3488L8.96968 13.0995C8.87596 13.4924 9.02782 13.9031 9.35461 14.1406C9.68139 14.378 10.1189 14.3955 10.4636 14.1849L11.9996 13.2468L13.5356 14.1849C13.8803 14.3955 14.3179 14.378 14.6447 14.1406C14.9715 13.9031 15.1233 13.4924 15.0296 13.0995L14.612 11.3488L15.9789 10.1779C16.2857 9.9151 16.4042 9.49357 16.2794 9.10941C16.1546 8.72525 15.8109 8.4539 15.4083 8.42163L13.6142 8.27779L12.923 6.61596Z" fill="#080809" style="fill:#080809;fill:color(display-p3 0.0314 0.0314 0.0353);fill-opacity:1;"/>
<path fill-rule="evenodd" clip-rule="evenodd" d="M10.9784 23.4045C11.65 23.6989 12.4192 23.6699 13.0665 23.3273C15.9662 21.7925 18.4412 19.7729 19.9839 18.3765C21.3411 17.148 22 15.404 22 13.6475V4.03307C22 3.00326 21.3587 2.03448 20.3075 1.71976C18.7786 1.26203 15.6802 0.498047 12 0.498047C8.31984 0.498047 5.22137 1.26203 3.69248 1.71976C2.64128 2.03448 2 3.00326 2 4.03307V14.1942C2 15.5556 2.39576 16.978 3.40527 18.0726C4.75021 19.5308 7.23103 21.7616 10.9784 23.4045ZM12.1309 21.5596C12.0221 21.6172 11.8931 21.6218 11.7814 21.5728C8.34647 20.0669 6.08303 18.026 4.87545 16.7166C4.28821 16.0799 4 15.1881 4 14.1942V4.03307C4 3.81847 4.12519 3.67793 4.26611 3.63573C5.68477 3.211 8.58001 2.49805 12 2.49805C15.42 2.49805 18.3152 3.211 19.7339 3.63573C19.8748 3.67793 20 3.81847 20 4.03307V13.6475C20 14.9153 19.5267 16.0927 18.6418 16.8937C17.162 18.2331 14.8262 20.1331 12.1309 21.5596Z" fill="#080809" style="fill:#080809;fill:color(display-p3 0.0314 0.0314 0.0353);fill-opacity:1;"/>
</svg>
