<svg width="24" height="24" viewBox="0 0 24 24" fill="none" xmlns="http://www.w3.org/2000/svg">
<path d="M11 3.5C11 4.05228 11.4477 4.5 12 4.5C12.5523 4.5 13 4.05228 13 3.5V2.5C13 1.94772 12.5523 1.5 12 1.5C11.4477 1.5 11 1.94772 11 2.5V3.5Z" fill="#080809" style="fill:#080809;fill:color(display-p3 0.0314 0.0314 0.0353);fill-opacity:1;"/>
<path d="M18.1568 5.42961C17.7663 5.82014 17.7663 6.4533 18.1568 6.84383C18.5473 7.23435 19.1805 7.23435 19.571 6.84383L20.2077 6.20711C20.5983 5.81658 20.5983 5.18342 20.2077 4.79289C19.8172 4.40237 19.1841 4.40237 18.7935 4.79289L18.1568 5.42961Z" fill="#080809" style="fill:#080809;fill:color(display-p3 0.0314 0.0314 0.0353);fill-opacity:1;"/>
<path d="M5.84319 6.84187C6.23371 6.45135 6.23371 5.81818 5.84319 5.42766L5.20708 4.79155C4.81655 4.40103 4.18339 4.40103 3.79286 4.79155C3.40234 5.18207 3.40234 5.81524 3.79286 6.20576L4.42897 6.84187C4.8195 7.2324 5.45266 7.2324 5.84319 6.84187Z" fill="#080809" style="fill:#080809;fill:color(display-p3 0.0314 0.0314 0.0353);fill-opacity:1;"/>
<path d="M21.5 11C20.9477 11 20.5 11.4477 20.5 12C20.5 12.5523 20.9477 13 21.5 13H22.5C23.0523 13 23.5 12.5523 23.5 12C23.5 11.4477 23.0523 11 22.5 11H21.5Z" fill="#080809" style="fill:#080809;fill:color(display-p3 0.0314 0.0314 0.0353);fill-opacity:1;"/>
<path d="M0.5 12C0.5 11.4477 0.947715 11 1.5 11H2.5C3.05228 11 3.5 11.4477 3.5 12C3.5 12.5523 3.05228 13 2.5 13H1.5C0.947715 13 0.5 12.5523 0.5 12Z" fill="#080809" style="fill:#080809;fill:color(display-p3 0.0314 0.0314 0.0353);fill-opacity:1;"/>
<path fill-rule="evenodd" clip-rule="evenodd" d="M18.7101 15C18.8987 14.3663 19 13.695 19 13C19 9.13401 15.866 6 12 6C8.13401 6 5 9.13401 5 13C5 13.695 5.10128 14.3663 5.28988 15H1.5C0.947715 15 0.5 15.4477 0.5 16C0.5 16.5523 0.947715 17 1.5 17H22.5C23.0523 17 23.5 16.5523 23.5 16C23.5 15.4477 23.0523 15 22.5 15H18.7101ZM12 8C9.23858 8 7 10.2386 7 13C7 13.7111 7.14845 14.3875 7.41604 15H16.584C16.8516 14.3875 17 13.7111 17 13C17 10.2386 14.7614 8 12 8Z" fill="#080809" style="fill:#080809;fill:color(display-p3 0.0314 0.0314 0.0353);fill-opacity:1;"/>
<path d="M5 20C5 19.4477 5.44772 19 6 19H18C18.5523 19 19 19.4477 19 20C19 20.5523 18.5523 21 18 21H6C5.44772 21 5 20.5523 5 20Z" fill="#080809" style="fill:#080809;fill:color(display-p3 0.0314 0.0314 0.0353);fill-opacity:1;"/>
</svg>
