<svg width="24" height="24" viewBox="0 0 24 24" fill="none" xmlns="http://www.w3.org/2000/svg">
<path fill-rule="evenodd" clip-rule="evenodd" d="M10.5 0.5C9.11929 0.5 8 1.61929 8 3V15H16V3C16 1.61929 14.8807 0.5 13.5 0.5H10.5ZM14 4V3C14 2.72386 13.7761 2.5 13.5 2.5H10.5C10.2239 2.5 10 2.72386 10 3V4H14Z" fill="#080809" style="fill:#080809;fill:color(display-p3 0.0314 0.0314 0.0353);fill-opacity:1;"/>
<path d="M18 15C20.2091 15 22 13.2091 22 11V7C22 5.34315 20.6569 4 19 4H18V15Z" fill="#080809" style="fill:#080809;fill:color(display-p3 0.0314 0.0314 0.0353);fill-opacity:1;"/>
<path d="M5 4H6L6 15C3.79086 15 2 13.2091 2 11V7C2 5.34315 3.34315 4 5 4Z" fill="#080809" style="fill:#080809;fill:color(display-p3 0.0314 0.0314 0.0353);fill-opacity:1;"/>
<path d="M16 16.5V18C16 18.5523 16.4477 19 17 19C17.5523 19 18 18.5523 18 18V16.5C19.1068 16.5 20.1372 16.1731 21 15.6105V19C21 21.2091 19.2091 23 17 23H7C4.79086 23 3 21.2091 3 19V15.6105C3.86278 16.1731 4.89321 16.5 6 16.5L6 18C6 18.5523 6.44772 19 7 19C7.55228 19 8 18.5523 8 18V16.5H16Z" fill="#080809" style="fill:#080809;fill:color(display-p3 0.0314 0.0314 0.0353);fill-opacity:1;"/>
</svg>
