<svg width="24" height="24" viewBox="0 0 24 24" fill="none" xmlns="http://www.w3.org/2000/svg">
<path fill-rule="evenodd" clip-rule="evenodd" d="M8 0.5C6.20507 0.5 4.75 1.95507 4.75 3.75C4.75 5.54493 6.20507 7 8 7C9.79493 7 11.25 5.54493 11.25 3.75C11.25 1.95507 9.79493 0.5 8 0.5ZM6.75 3.75C6.75 3.05964 7.30964 2.5 8 2.5C8.69036 2.5 9.25 3.05964 9.25 3.75C9.25 4.44036 8.69036 5 8 5C7.30964 5 6.75 4.44036 6.75 3.75Z" fill="#080809" style="fill:#080809;fill:color(display-p3 0.0314 0.0314 0.0353);fill-opacity:1;"/>
<path fill-rule="evenodd" clip-rule="evenodd" d="M7 8C4.79086 8 3 9.79086 3 12V13.7608C3 14.8693 3.55402 15.9045 4.47639 16.5194C4.51672 16.5463 4.54245 16.5903 4.54617 16.6386L4.89641 21.1917C4.9966 22.4942 6.08271 23.5 7.38905 23.5H8.61095C9.9173 23.5 11.0034 22.4942 11.1036 21.1917L11.4538 16.6386C11.4575 16.5903 11.4833 16.5463 11.5236 16.5194C12.446 15.9045 13 14.8693 13 13.7608V12C13 9.79086 11.2091 8 9 8H7ZM5 12C5 10.8954 5.89543 10 7 10H9C10.1046 10 11 10.8954 11 12V13.7608C11 14.2006 10.7802 14.6114 10.4142 14.8553C9.86253 15.2231 9.51057 15.8241 9.45972 16.4852L9.10948 21.0383C9.08944 21.2988 8.87222 21.5 8.61095 21.5H7.38905C7.12778 21.5 6.91056 21.2988 6.89052 21.0383L6.54028 16.4852C6.48943 15.8241 6.13747 15.2231 5.58579 14.8553C5.21982 14.6114 5 14.2006 5 13.7608V12Z" fill="#080809" style="fill:#080809;fill:color(display-p3 0.0314 0.0314 0.0353);fill-opacity:1;"/>
<path d="M15 2C15 1.44772 15.4477 1 16 1H17.5C18.8807 1 20 2.11929 20 3.5V20.5C20 21.8807 18.8807 23 17.5 23H16C15.4477 23 15 22.5523 15 22C15 21.4477 15.4477 21 16 21H17.5C17.7761 21 18 20.7761 18 20.5V18H17C16.4477 18 16 17.5523 16 17C16 16.4477 16.4477 16 17 16H18V13H16C15.4477 13 15 12.5523 15 12C15 11.4477 15.4477 11 16 11H18V8H17C16.4477 8 16 7.55228 16 7C16 6.44772 16.4477 6 17 6H18V3.5C18 3.22386 17.7761 3 17.5 3H16C15.4477 3 15 2.55228 15 2Z" fill="#080809" style="fill:#080809;fill:color(display-p3 0.0314 0.0314 0.0353);fill-opacity:1;"/>
</svg>
