<svg width="24" height="24" viewBox="0 0 24 24" fill="none" xmlns="http://www.w3.org/2000/svg">
<path fill-rule="evenodd" clip-rule="evenodd" d="M6.41355 2.71271C6.59991 1.90552 7.40534 1.40223 8.21253 1.58858L21.8537 4.7379C22.6609 4.92425 23.1642 5.72968 22.9778 6.53688L22.078 10.4344C21.9312 11.0704 21.4 11.5177 20.7865 11.5877L20.1829 14.2023C21.8139 13.8121 23.5 15.0372 23.5 16.8329C23.5 17.7424 23.042 18.5908 22.2816 19.0898L22.1512 19.1754C17.3864 22.3023 11.5506 23.346 5.9973 22.0645L5.02713 21.8406C2.37716 21.2291 0.5 18.8694 0.5 16.1498V16.0137C0.5 13.7839 2.01758 11.8402 4.18084 11.2994C4.61587 11.1906 5.05926 11.1231 5.50516 11.0972L6.17078 8.2141C5.64887 7.88256 5.36674 7.24692 5.51375 6.61019L6.41355 2.71271ZM13.661 11.9615C13.4831 11.902 13.2964 11.8605 13.1032 11.839L7.52949 11.2197L8.09971 8.74979L18.8178 11.2243L17.8823 15.2762C16.9212 15.6939 15.9215 16.0068 14.9005 16.2118C15.2772 15.7465 15.5003 15.155 15.5003 14.517C15.5003 13.3384 14.7396 12.3217 13.661 11.9615ZM6.22711 13.0942C5.70286 13.0631 5.1764 13.112 4.66591 13.2397C3.39299 13.5579 2.5 14.7016 2.5 16.0137V16.1498C2.5 17.9381 3.73434 19.4897 5.47685 19.8918L6.44702 20.1157C11.4685 21.2745 16.7454 20.3307 21.0539 17.5033L21.1843 17.4177C21.3813 17.2884 21.5 17.0686 21.5 16.8329C21.5 16.3048 20.9373 15.9672 20.4713 16.2157L19.8885 16.5265C19.6592 16.6488 19.4275 16.7655 19.1936 16.8767C19.1869 16.88 19.1802 16.8833 19.1735 16.8865C16.2941 18.25 13.0802 18.7682 9.90795 18.3717C9.79858 18.358 9.69655 18.3346 9.60185 18.3028C8.29159 17.8623 8.38498 15.8068 9.8963 15.6053L12.8974 15.2052C13.2424 15.1592 13.5 14.8649 13.5 14.5169C13.5 14.2185 13.3107 13.9603 13.0405 13.8633C13.0319 13.8602 13.0232 13.8573 13.0144 13.8546C12.9722 13.8413 12.9281 13.8319 12.8826 13.8269L6.49286 13.1169C6.40843 13.1075 6.32386 13.1002 6.23924 13.095C6.23519 13.0948 6.23115 13.0945 6.22711 13.0942ZM8.24981 3.6498L7.57496 6.57291L20.2418 9.49727L20.9166 6.57416L8.24981 3.6498Z" fill="#080809" style="fill:#080809;fill:color(display-p3 0.0314 0.0314 0.0353);fill-opacity:1;"/>
</svg>
