<svg width="24" height="24" viewBox="0 0 24 24" fill="none" xmlns="http://www.w3.org/2000/svg">
<path fill-rule="evenodd" clip-rule="evenodd" d="M12.0748 1H11.9252C9.63166 0.999979 7.80859 0.999962 6.3804 1.19198C4.90794 1.38994 3.70636 1.80836 2.75736 2.75736C1.80836 3.70636 1.38994 4.90794 1.19198 6.3804C0.999962 7.80859 0.999979 9.63165 1 11.9252V12.0748C0.999979 14.3684 0.999962 16.1914 1.19198 17.6196C1.38994 19.0921 1.80836 20.2936 2.75736 21.2426C3.70636 22.1916 4.90794 22.6101 6.3804 22.808C7.8086 23 9.63167 23 11.9252 23H12.0748C14.3683 23 16.1914 23 17.6196 22.808C19.0921 22.6101 20.2936 22.1916 21.2426 21.2426C22.1916 20.2936 22.6101 19.0921 22.808 17.6196C23 16.1914 23 14.3683 23 12.0748V11.9252C23 9.63167 23 7.8086 22.808 6.3804C22.6101 4.90794 22.1916 3.70636 21.2426 2.75736C20.2936 1.80836 19.0921 1.38994 17.6196 1.19198C16.1914 0.999962 14.3683 0.999979 12.0748 1ZM3.00066 11C3.00005 11.3191 3 11.6521 3 12C3 13.1517 3.0005 14.1409 3.02037 15H7.5V11H3.00066ZM3.17414 17.3531C3.15877 17.2387 3.14475 17.1211 3.13197 17H7.5V20.9126C7.19625 20.89 6.91274 20.8616 6.64689 20.8259C5.39621 20.6577 4.68704 20.3439 4.17157 19.8284C3.65611 19.313 3.34229 18.6038 3.17414 17.3531ZM9.5 20.9889V17H14.5V20.9889C13.7621 20.9997 12.9345 21 12 21C11.0655 21 10.2379 20.9997 9.5 20.9889ZM16.5 20.9126V17H20.868C20.8553 17.1211 20.8412 17.2387 20.8259 17.3531C20.6577 18.6038 20.3439 19.313 19.8284 19.8284C19.313 20.3439 18.6038 20.6577 17.3531 20.8259C17.0873 20.8616 16.8037 20.89 16.5 20.9126ZM16.5 15H20.9796C20.9995 14.1409 21 13.1517 21 12C21 11.6521 21 11.3191 20.9993 11H16.5V15ZM9.5 15H14.5V11H9.5V15ZM8 5C7.44772 5 7 5.44772 7 6C7 6.55229 7.44772 7 8 7H16C16.5523 7 17 6.55229 17 6C17 5.44772 16.5523 5 16 5H8Z" fill="#080809" style="fill:#080809;fill:color(display-p3 0.0314 0.0314 0.0353);fill-opacity:1;"/>
</svg>
