<svg width="24" height="24" viewBox="0 0 24 24" fill="none" xmlns="http://www.w3.org/2000/svg">
<path d="M18 6.5C18 9.81371 15.3137 12.5 12 12.5C8.68629 12.5 6 9.81371 6 6.5C6 3.18629 8.68629 0.5 12 0.5C15.3137 0.5 18 3.18629 18 6.5Z" fill="#080809" style="fill:#080809;fill:color(display-p3 0.0314 0.0314 0.0353);fill-opacity:1;"/>
<path d="M9.26234 19.2715C9.09378 19.6465 9 20.0624 9 20.5002C9 22.157 10.3431 23.5002 12 23.5002C13.6569 23.5002 15 22.157 15 20.5002C15 20.0624 14.9062 19.6465 14.7377 19.2715C13.9315 19.7351 12.9967 20.0002 12 20.0002C11.0033 20.0002 10.0685 19.7351 9.26234 19.2715Z" fill="#080809" style="fill:#080809;fill:color(display-p3 0.0314 0.0314 0.0353);fill-opacity:1;"/>
<path d="M8 14.5C8 13.9758 8.10085 13.4751 8.2842 13.0163C9.37959 13.6423 10.648 14 12 14C13.352 14 14.6204 13.6423 15.7158 13.0163C15.8992 13.4751 16 13.9758 16 14.5C16 16.7091 14.2091 18.5 12 18.5C9.79086 18.5 8 16.7091 8 14.5Z" fill="#080809" style="fill:#080809;fill:color(display-p3 0.0314 0.0314 0.0353);fill-opacity:1;"/>
</svg>
