<svg width="24" height="24" viewBox="0 0 24 24" fill="none" xmlns="http://www.w3.org/2000/svg">
<path fill-rule="evenodd" clip-rule="evenodd" d="M13 11.5C13 9.84315 14.3431 8.5 16 8.5C17.6569 8.5 19 9.84315 19 11.5C19 13.1569 17.6569 14.5 16 14.5C14.3431 14.5 13 13.1569 13 11.5ZM16 9.5C14.8954 9.5 14 10.3954 14 11.5C14 12.6046 14.8954 13.5 16 13.5C17.1046 13.5 18 12.6046 18 11.5C18 10.3954 17.1046 9.5 16 9.5Z" fill="#080809" style="fill:#080809;fill:color(display-p3 0.0314 0.0314 0.0353);fill-opacity:1;"/>
<path d="M9.75182 16.5076C9.61791 16.2661 9.31357 16.1789 9.07207 16.3128C8.83058 16.4467 8.74336 16.7511 8.87727 16.9926C9.52863 18.1672 10.662 19.0001 11.9995 19.0001C13.3371 19.0001 14.4705 18.1672 15.1218 16.9926C15.2557 16.7511 15.1685 16.4467 14.927 16.3128C14.6855 16.1789 14.3812 16.2661 14.2473 16.5076C13.7286 17.4429 12.892 18.0001 11.9995 18.0001C11.1071 18.0001 10.2705 17.4429 9.75182 16.5076Z" fill="#080809" style="fill:#080809;fill:color(display-p3 0.0314 0.0314 0.0353);fill-opacity:1;"/>
<path fill-rule="evenodd" clip-rule="evenodd" d="M7.5 2.25C7.5 2.43218 7.46103 2.60526 7.39096 2.76135L8.51814 4H15.4818L16.609 2.76132C16.539 2.60523 16.5 2.43217 16.5 2.25C16.5 1.55964 17.0596 1 17.75 1C18.4404 1 19 1.55964 19 2.25C19 2.94036 18.4404 3.5 17.75 3.5C17.6096 3.5 17.4747 3.47687 17.3488 3.43421L16.8339 4H18.25C20.3211 4 22 5.67893 22 7.75V19.25C22 21.3211 20.3211 23 18.25 23H5.75C3.67893 23 2 21.3211 2 19.25V7.75C2 5.67893 3.67893 4 5.75 4H7.16606L6.65121 3.43422C6.52527 3.47687 6.39034 3.5 6.25 3.5C5.55964 3.5 5 2.94036 5 2.25C5 1.55964 5.55964 1 6.25 1C6.94036 1 7.5 1.55964 7.5 2.25ZM3.5 7.75C3.5 6.50736 4.50736 5.5 5.75 5.5H10.4958C10.4538 6.74054 10.1006 7.90177 9.51164 8.90811C9.06776 8.64867 8.55124 8.5 8 8.5C6.34315 8.5 5 9.84315 5 11.5C5 11.7635 5.03398 12.0191 5.0978 12.2627C4.58522 12.3972 4.05042 12.4771 3.5 12.4958V7.75ZM3.5 13.9965V19.25C3.5 20.4926 4.50736 21.5 5.75 21.5H18.25C19.4926 21.5 20.5 20.4926 20.5 19.25V7.75C20.5 6.50736 19.4926 5.5 18.25 5.5H11.9965C11.9501 7.1572 11.4433 8.69881 10.5996 10.0016C10.8543 10.4425 11 10.9542 11 11.5C11 13.1569 9.65685 14.5 8 14.5C7.1628 14.5 6.40569 14.1571 5.8615 13.604C5.11263 13.8377 4.32048 13.9735 3.5 13.9965Z" fill="#080809" style="fill:#080809;fill:color(display-p3 0.0314 0.0314 0.0353);fill-opacity:1;"/>
</svg>
