<svg width="24" height="24" viewBox="0 0 24 24" fill="none" xmlns="http://www.w3.org/2000/svg">
<path d="M9.47188 3.2929C9.8624 2.90237 10.4956 2.90237 10.8861 3.29289C11.2766 3.68341 11.2766 4.31658 10.8861 4.7071C9.9938 5.59941 9.10189 6.48861 8.21061 7.3772C7.00027 8.58386 5.79106 9.7894 4.5836 11H20.9993C21.5516 11 21.9993 11.4477 21.9993 12C21.9993 12.5523 21.5516 13 20.9993 13H4.59132C5.79524 14.2045 6.99948 15.4081 8.20395 16.6118C9.09789 17.5052 9.99195 18.3987 10.8861 19.2929C11.2766 19.6834 11.2766 20.3166 10.8861 20.7071C10.4956 21.0976 9.8624 21.0976 9.47188 20.7071C8.57878 19.814 7.68504 18.9208 6.79119 18.0275L6.78897 18.0252C5.48483 16.7219 4.18042 15.4183 2.87731 14.1142C1.71072 12.9468 1.70592 11.0543 2.8728 9.88328C4.17891 8.57253 5.49165 7.26377 6.80301 5.95638C7.69406 5.06803 8.58463 4.18016 9.47188 3.2929Z" fill="#080809" style="fill:#080809;fill:color(display-p3 0.0314 0.0314 0.0353);fill-opacity:1;"/>
</svg>
