<svg width="24" height="24" viewBox="0 0 24 24" fill="none" xmlns="http://www.w3.org/2000/svg">
<path fill-rule="evenodd" clip-rule="evenodd" d="M4.08156 18.6685C2.88427 17.4712 2.88427 15.53 4.08156 14.3328L12.9566 5.45775C14.9133 3.50106 18.0857 3.50106 20.0424 5.45775C21.999 7.41444 21.999 10.5869 20.0424 12.5435L12.7924 19.7935C12.4018 20.1841 12.4018 20.8172 12.7924 21.2078C13.1829 21.5983 13.816 21.5983 14.2066 21.2078L21.4566 13.9578C24.1943 11.22 24.1943 6.78127 21.4566 4.04354C18.7188 1.3058 14.2801 1.3058 11.5424 4.04353L2.66735 12.9185C0.689008 14.8969 0.689008 18.1044 2.66735 20.0828C4.64569 22.0611 7.85322 22.0611 9.83156 20.0828L16.7066 13.2078C17.9255 11.9888 17.9255 10.0125 16.7066 8.79354C15.4876 7.57459 13.5113 7.57459 12.2924 8.79354L6.79235 14.2935C6.40183 14.6841 6.40183 15.3172 6.79235 15.7078C7.18288 16.0983 7.81604 16.0983 8.20656 15.7078L13.7066 10.2078C14.1445 9.76985 14.8544 9.76985 15.2924 10.2078C15.7303 10.6457 15.7303 11.3556 15.2924 11.7935L8.41735 18.6685C7.22006 19.8658 5.27886 19.8658 4.08156 18.6685Z" fill="#080809" style="fill:#080809;fill:color(display-p3 0.0314 0.0314 0.0353);fill-opacity:1;"/>
</svg>
