<svg width="24" height="24" viewBox="0 0 24 24" fill="none" xmlns="http://www.w3.org/2000/svg">
<path fill-rule="evenodd" clip-rule="evenodd" d="M14.1569 21.1572C11.0327 24.2814 5.96734 24.2814 2.84314 21.1572C-0.281048 18.033 -0.281048 12.9676 2.84314 9.84345C4.98692 7.69968 8.04326 7.02818 10.758 7.82424L16.9989 1.56712C17.3741 1.19092 17.8836 0.979492 18.415 0.979492H21C22.1046 0.979492 23 1.87492 23 2.97949V5.58609C23 6.11652 22.7893 6.62523 22.4142 7.00031L21.7071 7.70741C21.5196 7.89495 21.2652 8.00031 21 8.00031H20V9.00031C20 9.26552 19.8946 9.51988 19.7071 9.70741L19.2071 10.2074C19.0196 10.3949 18.7652 10.5003 18.5 10.5003H17.5V11.5003C17.5 11.7655 17.3946 12.0199 17.2071 12.2074L16.1752 13.2393C16.9726 15.9548 16.3014 19.0126 14.1569 21.1572ZM7 15.0002C5.89543 15.0002 5 15.8957 5 17.0002C5 18.1048 5.89543 19.0002 7 19.0002C8.10457 19.0002 9 18.1048 9 17.0002C9 15.8957 8.10457 15.0002 7 15.0002Z" fill="#080809" style="fill:#080809;fill:color(display-p3 0.0314 0.0314 0.0353);fill-opacity:1;"/>
</svg>
