<svg width="24" height="24" viewBox="0 0 24 24" fill="none" xmlns="http://www.w3.org/2000/svg">
<path fill-rule="evenodd" clip-rule="evenodd" d="M10.9808 2.19631C11.0891 1.65475 10.7379 1.12792 10.1963 1.01961C9.65475 0.9113 9.12792 1.26252 9.01961 1.80408L7.98043 7H3.5C2.94772 7 2.5 7.44772 2.5 8C2.5 8.55228 2.94772 9 3.5 9H7.58043L6.38043 15H2C1.44772 15 1 15.4477 1 16C1 16.5523 1.44772 17 2 17H5.98043L5.01961 21.8041C4.9113 22.3456 5.26252 22.8725 5.80408 22.9808C6.34564 23.0891 6.87246 22.7379 6.98077 22.1963L8.02004 17H13.9804L13.0196 21.8041C12.9113 22.3456 13.2625 22.8725 13.8041 22.9808C14.3456 23.0891 14.8725 22.7379 14.9808 22.1963L16.02 17H20.5C21.0523 17 21.5 16.5523 21.5 16C21.5 15.4477 21.0523 15 20.5 15H16.42L17.62 9H22C22.5523 9 23 8.55228 23 8C23 7.44772 22.5523 7 22 7H18.02L18.9808 2.19631C19.0891 1.65475 18.7379 1.12792 18.1963 1.01961C17.6547 0.9113 17.1279 1.26252 17.0196 1.80408L15.9804 7H10.02L10.9808 2.19631ZM14.3804 15L15.5804 9H9.62004L8.42004 15H14.3804Z" fill="#080809" style="fill:#080809;fill:color(display-p3 0.0314 0.0314 0.0353);fill-opacity:1;"/>
</svg>
