<svg width="24" height="24" viewBox="0 0 24 24" fill="none" xmlns="http://www.w3.org/2000/svg">
<path fill-rule="evenodd" clip-rule="evenodd" d="M9 1C6.19764 1 3.88479 3.09585 3.54342 5.8056L3.31536 5.89682C1.91696 6.45618 1 7.81057 1 9.31669C1 10.7673 1.83851 12.022 3.05727 12.6226L3.47127 16.7625C3.594 17.9902 3.69562 19.0067 3.88156 19.8086C4.07726 20.6527 4.3928 21.3883 5.03094 21.9658C5.66908 22.5433 6.43247 22.7841 7.29179 22.8948C8.10821 23.0001 9.12978 23 10.3636 23H13.6364C14.8702 23 15.8918 23.0001 16.7082 22.8948C17.5675 22.7841 18.3309 22.5433 18.9691 21.9658C19.6072 21.3883 19.9227 20.6527 20.1184 19.8086C20.3044 19.0067 20.406 17.9902 20.5287 16.7626L20.9427 12.6226C22.1615 12.022 23 10.7673 23 9.31669C23 7.81057 22.083 6.45618 20.6846 5.89682L20.4566 5.8056C20.1152 3.09585 17.8024 1 15 1H9ZM18.895 13H13C13 14.6569 11.6569 16 10 16C8.34315 16 7 14.6569 7 13H5.10499L5.45474 16.4975C5.58579 17.808 5.67647 18.6953 5.82987 19.3569C5.97682 19.9906 6.15402 20.2848 6.37295 20.4829C6.59189 20.681 6.90219 20.8281 7.54744 20.9112C8.221 20.9981 9.11289 21 10.4299 21H13.5701C14.8871 21 15.779 20.9981 16.4526 20.9112C17.0978 20.8281 17.4081 20.681 17.627 20.4829C17.846 20.2848 18.0232 19.9906 18.1701 19.3569C18.3235 18.6953 18.4142 17.808 18.5453 16.4975L18.895 13Z" fill="#080809" style="fill:#080809;fill:color(display-p3 0.0314 0.0314 0.0353);fill-opacity:1;"/>
</svg>
