<svg width="24" height="24" viewBox="0 0 24 24" fill="none" xmlns="http://www.w3.org/2000/svg">
<g clip-path="url(#clip0_29901_28523)">
<path d="M12 13.75C12.9665 13.75 13.75 12.9665 13.75 12C13.75 11.0335 12.9665 10.25 12 10.25C11.0335 10.25 10.25 11.0335 10.25 12C10.25 12.9665 11.0335 13.75 12 13.75Z" fill="#080809" style="fill:#080809;fill:color(display-p3 0.0314 0.0314 0.0353);fill-opacity:1;"/>
<path fill-rule="evenodd" clip-rule="evenodd" d="M12 0.499512C5.64873 0.499512 0.5 5.64824 0.5 11.9995C0.5 18.3508 5.64873 23.4995 12 23.4995C18.3513 23.4995 23.5 18.3508 23.5 11.9995C23.5 5.64824 18.3513 0.499512 12 0.499512ZM18.4511 7.34722C18.7003 6.26711 17.7323 5.29909 16.6522 5.54835L9.1528 7.27897C8.2213 7.49394 7.49394 8.2213 7.27897 9.1528L5.54835 16.6522C5.29909 17.7323 6.26712 18.7003 7.34722 18.4511L14.8466 16.7204C15.7781 16.5055 16.5055 15.7781 16.7204 14.8466L18.4511 7.34722Z" fill="#080809" style="fill:#080809;fill:color(display-p3 0.0314 0.0314 0.0353);fill-opacity:1;"/>
</g>
<defs>
<clipPath id="clip0_29901_28523">
<rect width="24" height="24" fill="white" style="fill:white;fill-opacity:1;"/>
</clipPath>
</defs>
</svg>
