<svg width="24" height="24" viewBox="0 0 24 24" fill="none" xmlns="http://www.w3.org/2000/svg">
<g clip-path="url(#clip0_29901_26773)">
<path d="M12 13.5005C12.8284 13.5005 13.5 12.8289 13.5 12.0005C13.5 11.1721 12.8284 10.5005 12 10.5005C11.1716 10.5005 10.5 11.1721 10.5 12.0005C10.5 12.8289 11.1716 13.5005 12 13.5005Z" fill="#080809" style="fill:#080809;fill:color(display-p3 0.0314 0.0314 0.0353);fill-opacity:1;"/>
<path fill-rule="evenodd" clip-rule="evenodd" d="M15.8732 5.72889C17.3133 5.39655 18.604 6.68724 18.2717 8.12739L16.7209 14.8473C16.506 15.7788 15.7786 16.5061 14.8471 16.7211L8.12722 18.2718C6.68708 18.6042 5.39638 17.3135 5.72872 15.8733L7.27946 9.15346C7.49442 8.22195 8.22178 7.49459 9.15329 7.27963L15.8732 5.72889ZM14.7721 14.3975L16.3229 7.67767L9.60301 9.22841C9.4167 9.2714 9.27123 9.41687 9.22824 9.60318L7.6775 16.323L14.3974 14.7723C14.5837 14.7293 14.7291 14.5838 14.7721 14.3975Z" fill="#080809" style="fill:#080809;fill:color(display-p3 0.0314 0.0314 0.0353);fill-opacity:1;"/>
<path fill-rule="evenodd" clip-rule="evenodd" d="M0.5 12C0.5 5.64873 5.64873 0.5 12 0.5C18.3513 0.5 23.5 5.64873 23.5 12C23.5 18.3513 18.3513 23.5 12 23.5C5.64873 23.5 0.5 18.3513 0.5 12ZM12 2.5C6.75329 2.5 2.5 6.75329 2.5 12C2.5 17.2467 6.75329 21.5 12 21.5C17.2467 21.5 21.5 17.2467 21.5 12C21.5 6.75329 17.2467 2.5 12 2.5Z" fill="#080809" style="fill:#080809;fill:color(display-p3 0.0314 0.0314 0.0353);fill-opacity:1;"/>
</g>
<defs>
<clipPath id="clip0_29901_26773">
<rect width="24" height="24" fill="white" style="fill:white;fill-opacity:1;"/>
</clipPath>
</defs>
</svg>
