<svg width="24" height="24" viewBox="0 0 24 24" fill="none" xmlns="http://www.w3.org/2000/svg">
<path d="M3 2C2.44772 2 2 2.44772 2 3C2 3.55228 2.44772 4 3 4H21C21.5523 4 22 3.55228 22 3C22 2.44772 21.5523 2 21 2H3Z" fill="#080809" style="fill:#080809;fill:color(display-p3 0.0314 0.0314 0.0353);fill-opacity:1;"/>
<path d="M7 8C6.44772 8 6 8.44772 6 9C6 9.55228 6.44772 10 7 10H17C17.5523 10 18 9.55228 18 9C18 8.44772 17.5523 8 17 8H7Z" fill="#080809" style="fill:#080809;fill:color(display-p3 0.0314 0.0314 0.0353);fill-opacity:1;"/>
<path d="M3 14C2.44772 14 2 14.4477 2 15C2 15.5523 2.44772 16 3 16H21C21.5523 16 22 15.5523 22 15C22 14.4477 21.5523 14 21 14H3Z" fill="#080809" style="fill:#080809;fill:color(display-p3 0.0314 0.0314 0.0353);fill-opacity:1;"/>
<path d="M6 21C6 20.4477 6.44772 20 7 20H17C17.5523 20 18 20.4477 18 21C18 21.5523 17.5523 22 17 22H7C6.44772 22 6 21.5523 6 21Z" fill="#080809" style="fill:#080809;fill:color(display-p3 0.0314 0.0314 0.0353);fill-opacity:1;"/>
</svg>
