<svg width="24" height="24" viewBox="0 0 24 24" fill="none" xmlns="http://www.w3.org/2000/svg">
<path fill-rule="evenodd" clip-rule="evenodd" d="M6.96178 1.99964C5.30612 1.97686 3.64676 2.58219 2.38091 3.93484L2.37897 3.93979C1.21408 5.18782 0.476645 7.07263 0.502618 8.74289C0.514731 9.59708 0.657138 10.4478 0.929137 11.2941C1.5527 13.2418 2.80232 14.9868 4.2859 16.5028C5.70367 17.9515 7.38345 19.2412 9.06275 20.3547C9.82526 20.8615 10.6383 21.3652 11.5016 21.8659C11.6566 21.9559 11.8296 22.0009 12.0026 22.0009C12.1756 22.0009 12.3496 21.9559 12.5046 21.8659C13.1955 21.4651 13.8543 21.0622 14.4809 20.6573C16.0193 19.6655 17.5768 18.5252 18.9519 17.2498C20.7035 15.625 22.2215 13.7245 22.9831 11.573C23.0752 11.3136 23.1551 11.0539 23.2226 10.7939C23.2226 10.7899 23.2246 10.7869 23.2256 10.7829C23.3996 10.1069 23.4936 9.42089 23.5026 8.74389C23.5276 7.07089 22.7896 5.18389 21.6226 3.93589H21.6196C20.4776 2.71589 18.9146 2.02889 17.2186 2.00089C15.4166 1.97289 13.5986 2.70489 12.2916 4.01489C12.1859 4.12062 12.0881 4.22138 12.0003 4.31419C11.9115 4.22032 11.8144 4.12038 11.7086 4.01453C11.7084 4.0143 11.7088 4.01476 11.7086 4.01453C11.5991 3.90483 11.4854 3.79855 11.3692 3.69719C10.1448 2.62529 8.56936 2.00236 6.96178 1.99964ZM17.3103 12.5698C17.2159 12.4964 17.1224 12.4131 17.0289 12.3198C16.5439 11.8348 16.0999 11.1178 15.6039 10.1838C15.4456 9.88622 15.2836 9.56677 15.1145 9.23329L15.0882 9.1815C14.5702 8.1601 13.986 7.00806 13.2491 5.91319C13.3729 5.77555 13.5234 5.61313 13.7076 5.42889L13.7066 5.42789C14.6316 4.49989 15.8666 3.97389 17.1856 4.00089C18.3346 4.01989 19.3906 4.48189 20.1586 5.30289C20.9786 6.17789 21.5166 7.54889 21.4996 8.71489C21.4926 9.22789 21.4216 9.74989 21.2896 10.2669C21.0946 10.8969 20.7776 11.5457 20.3436 12.0522C19.8336 12.6396 19.1999 12.9888 18.5019 12.9888C18.3085 12.9888 18.1283 12.9636 17.9568 12.9124C17.7283 12.8424 17.5148 12.7272 17.3103 12.5698Z" fill="#080809" style="fill:#080809;fill:color(display-p3 0.0314 0.0314 0.0353);fill-opacity:1;"/>
</svg>
