<svg width="24" height="24" viewBox="0 0 24 24" fill="none" xmlns="http://www.w3.org/2000/svg">
<path d="M10.0002 0.5C7.79103 0.5 6.00017 2.29086 6.00017 4.5C6.00017 6.0194 6.84732 7.34094 8.09505 8.01805C6.87777 8.36103 5.7978 8.99633 4.89344 9.70619C3.53543 10.7722 2.45923 12.093 1.74704 13.1756C1.29173 13.8677 1.48366 14.7978 2.17574 15.2531C2.86783 15.7084 3.79798 15.5165 4.25329 14.8244C4.7662 14.0448 5.4982 13.137 6.37328 12.3745C6.23079 12.7906 6.09563 13.2227 5.96831 13.6621C5.19679 16.3248 4.62676 19.5637 4.50226 21.9209C4.45937 22.7328 5.07121 23.4311 5.88177 23.4953C6.69233 23.5595 7.40645 22.9662 7.49187 22.1576C7.59663 21.1659 7.90182 19.865 8.42834 18.8619C8.97498 17.8204 9.52219 17.5 10.0002 17.5C10.4781 17.5 11.0254 17.8204 11.572 18.8619C12.0985 19.865 12.4037 21.1659 12.5085 22.1576C12.5944 22.9713 13.3166 23.566 14.1317 23.4942C14.9467 23.4225 15.5539 22.7108 15.4965 21.8946C15.3702 20.1015 14.8008 16.8762 14.0377 14.0996C13.8629 13.4639 13.6737 12.8356 13.4719 12.2421C14.4157 13.0302 15.2041 13.9992 15.747 14.8244C16.2024 15.5165 17.1325 15.7084 17.8246 15.2531C18.5167 14.7978 18.7086 13.8677 18.2533 13.1756C17.5411 12.093 16.4649 10.7722 15.1069 9.70619C14.2025 8.99633 13.1226 8.36103 11.9053 8.01805C13.153 7.34094 14.0002 6.0194 14.0002 4.5C14.0002 2.29086 12.2093 0.5 10.0002 0.5Z" fill="#080809" style="fill:#080809;fill:color(display-p3 0.0314 0.0314 0.0353);fill-opacity:1;"/>
<path d="M22.561 1.14644C21.9752 0.560658 21.0255 0.560655 20.4397 1.14644L16.2932 5.29289C16.1057 5.48043 16.0003 5.73478 16.0003 6V7C16.0003 7.55228 16.4481 8 17.0003 8H18.0003C18.2656 8 18.5199 7.89464 18.7074 7.7071L22.8539 3.56066C23.4397 2.97487 23.4397 2.02512 22.8539 1.43934L22.561 1.14644Z" fill="#080809" style="fill:#080809;fill:color(display-p3 0.0314 0.0314 0.0353);fill-opacity:1;"/>
</svg>
