<svg width="24" height="24" viewBox="0 0 24 24" fill="none" xmlns="http://www.w3.org/2000/svg">
<path d="M16.1299 14.0088C16.43 14.0481 16.6992 14.2218 16.8574 14.4854C17.0155 14.7489 17.0429 15.0683 16.9365 15.3516L16.8828 15.4707L16.8086 15.6084C14.8209 19.3351 9.58432 19.4517 7.39355 15.958L7.19141 15.6084L7.11719 15.4707C6.952 15.1608 6.96194 14.7865 7.14258 14.4854C7.32329 14.1843 7.64886 14.0001 8 14H16L16.1299 14.0088Z" fill="#080809" style="fill:#080809;fill:color(display-p3 0.0314 0.0314 0.0353);fill-opacity:1;"/>
<path d="M8 6C9.10457 6 10 7.11929 10 8.5C10 9.88071 9.10457 11 8 11C6.89543 11 6 9.88071 6 8.5C6 7.11929 6.89543 6 8 6Z" fill="#080809" style="fill:#080809;fill:color(display-p3 0.0314 0.0314 0.0353);fill-opacity:1;"/>
<path d="M16 6C17.1046 6 18 7.11929 18 8.5C18 9.88071 17.1046 11 16 11C14.8954 11 14 9.88071 14 8.5C14 7.11929 14.8954 6 16 6Z" fill="#080809" style="fill:#080809;fill:color(display-p3 0.0314 0.0314 0.0353);fill-opacity:1;"/>
<path fill-rule="evenodd" clip-rule="evenodd" d="M18 0.5C20.2091 0.5 22 2.29086 22 4.5V13.5C22 19.0228 17.5228 23.5 12 23.5C6.47715 23.5 2 19.0228 2 13.5V4.5C2 2.29086 3.79086 0.5 6 0.5H18ZM6 2.5C4.89543 2.5 4 3.39543 4 4.5V13.5C4 17.9183 7.58172 21.5 12 21.5C16.4183 21.5 20 17.9183 20 13.5V4.5C20 3.39543 19.1046 2.5 18 2.5H6Z" fill="#080809" style="fill:#080809;fill:color(display-p3 0.0314 0.0314 0.0353);fill-opacity:1;"/>
</svg>
