<svg width="24" height="24" viewBox="0 0 24 24" fill="none" xmlns="http://www.w3.org/2000/svg">
<path d="M4 3L5 3C5.55229 3 6 2.55228 6 2C6 1.44771 5.55228 1 5 1H4C2.34315 1 1 2.34315 1 4V5C1 5.55228 1.44772 6 2 6C2.55228 6 3 5.55228 3 5V4C3 3.44772 3.44772 3 4 3Z" fill="#080809" style="fill:#080809;fill:color(display-p3 0.0314 0.0314 0.0353);fill-opacity:1;"/>
<path d="M9 3H10C10.5523 3 11 3.44771 11 4V5C11 5.55228 11.4477 6 12 6C12.5523 6 13 5.55228 13 5V4C13 2.34314 11.6569 1 10 1H9C8.44772 1 8 1.44772 8 2C8 2.55228 8.44772 3 9 3Z" fill="#080809" style="fill:#080809;fill:color(display-p3 0.0314 0.0314 0.0353);fill-opacity:1;"/>
<path fill-rule="evenodd" clip-rule="evenodd" d="M11 11H3V9C3 8.44772 2.55228 8 2 8C1.44772 8 1 8.44772 1 9V20C1 21.6569 2.34315 23 4 23H20C21.6569 23 23 21.6569 23 20V14C23 12.3431 21.6569 11 20 11H13V9C13 8.44772 12.5523 8 12 8C11.4477 8 11 8.44772 11 9V11ZM3 20C3 20.5523 3.44772 21 4 21H20C20.5523 21 21 20.5523 21 20V14C21 13.4477 20.5523 13 20 13H3V20Z" fill="#080809" style="fill:#080809;fill:color(display-p3 0.0314 0.0314 0.0353);fill-opacity:1;"/>
</svg>
