<svg width="24" height="24" viewBox="0 0 24 24" fill="none" xmlns="http://www.w3.org/2000/svg">
<g clip-path="url(#clip0_29901_27947)">
<path fill-rule="evenodd" clip-rule="evenodd" d="M12 0.5C5.64873 0.5 0.5 5.64873 0.5 12C0.5 18.3513 5.64873 23.5 12 23.5C18.3513 23.5 23.5 18.3513 23.5 12C23.5 5.64873 18.3513 0.5 12 0.5ZM7.5 8C7.5 7.44772 7.94772 7 8.5 7H9.5C10.0523 7 10.5 7.44772 10.5 8V16C10.5 16.5523 10.0523 17 9.5 17H8.5C7.94772 17 7.5 16.5523 7.5 16V8ZM14.5 7C13.9477 7 13.5 7.44772 13.5 8V16C13.5 16.5523 13.9477 17 14.5 17H15.5C16.0523 17 16.5 16.5523 16.5 16V8C16.5 7.44772 16.0523 7 15.5 7H14.5Z" fill="#080809" style="fill:#080809;fill:color(display-p3 0.0314 0.0314 0.0353);fill-opacity:1;"/>
</g>
<defs>
<clipPath id="clip0_29901_27947">
<rect width="24" height="24" fill="white" style="fill:white;fill-opacity:1;"/>
</clipPath>
</defs>
</svg>
