<svg width="24" height="24" viewBox="0 0 24 24" fill="none" xmlns="http://www.w3.org/2000/svg">
<path d="M18.5 1C17.6716 1 17 1.67157 17 2.5V5.5C17 6.32843 17.6716 7 18.5 7H21.5C22.3284 7 23 6.32843 23 5.5V2.5C23 1.67157 22.3284 1 21.5 1H18.5Z" fill="#080809" style="fill:#080809;fill:color(display-p3 0.0314 0.0314 0.0353);fill-opacity:1;"/>
<path d="M18.5 9C17.6716 9 17 9.67157 17 10.5V13.5C17 14.3284 17.6716 15 18.5 15H21.5C22.3284 15 23 14.3284 23 13.5V10.5C23 9.67157 22.3284 9 21.5 9H18.5Z" fill="#080809" style="fill:#080809;fill:color(display-p3 0.0314 0.0314 0.0353);fill-opacity:1;"/>
<path d="M2.5 17C1.67157 17 1 17.6716 1 18.5V21.5C1 22.3284 1.67157 23 2.5 23H5.5C6.32843 23 7 22.3284 7 21.5V18.5C7 17.6716 6.32843 17 5.5 17H2.5Z" fill="#080809" style="fill:#080809;fill:color(display-p3 0.0314 0.0314 0.0353);fill-opacity:1;"/>
<path d="M10.5 17C9.67157 17 9 17.6716 9 18.5V21.5C9 22.3284 9.67157 23 10.5 23H13.5C14.3284 23 15 22.3284 15 21.5V18.5C15 17.6716 14.3284 17 13.5 17H10.5Z" fill="#080809" style="fill:#080809;fill:color(display-p3 0.0314 0.0314 0.0353);fill-opacity:1;"/>
<path d="M18.5 17C17.6716 17 17 17.6716 17 18.5V21.5C17 22.3284 17.6716 23 18.5 23H21.5C22.3284 23 23 22.3284 23 21.5V18.5C23 17.6716 22.3284 17 21.5 17H18.5Z" fill="#080809" style="fill:#080809;fill:color(display-p3 0.0314 0.0314 0.0353);fill-opacity:1;"/>
<path d="M2.5 9C1.67157 9 1 9.67157 1 10.5V13.5C1 14.3284 1.67157 15 2.5 15H5.5C6.32843 15 7 14.3284 7 13.5V10.5C7 9.67157 6.32843 9 5.5 9H2.5Z" fill="#080809" style="fill:#080809;fill:color(display-p3 0.0314 0.0314 0.0353);fill-opacity:1;"/>
<path d="M2.5 1C1.67157 1 1 1.67157 1 2.5V5.5C1 6.32843 1.67157 7 2.5 7H5.5C6.32843 7 7 6.32843 7 5.5V2.5C7 1.67157 6.32843 1 5.5 1H2.5Z" fill="#080809" style="fill:#080809;fill:color(display-p3 0.0314 0.0314 0.0353);fill-opacity:1;"/>
<path d="M10.5 1C9.67157 1 9 1.67157 9 2.5V5.5C9 6.32843 9.67157 7 10.5 7H13.5C14.3284 7 15 6.32843 15 5.5V2.5C15 1.67157 14.3284 1 13.5 1H10.5Z" fill="#080809" style="fill:#080809;fill:color(display-p3 0.0314 0.0314 0.0353);fill-opacity:1;"/>
<path d="M10.5 9C9.67157 9 9 9.67157 9 10.5V13.5C9 14.3284 9.67157 15 10.5 15H13.5C14.3284 15 15 14.3284 15 13.5V10.5C15 9.67157 14.3284 9 13.5 9H10.5Z" fill="#080809" style="fill:#080809;fill:color(display-p3 0.0314 0.0314 0.0353);fill-opacity:1;"/>
</svg>
