<svg width="24" height="24" viewBox="0 0 24 24" fill="none" xmlns="http://www.w3.org/2000/svg">
<path d="M5.58132 10.1861C5.1319 9.86509 4.50735 9.96918 4.18634 10.4186C3.86534 10.868 3.96943 11.4926 4.41884 11.8136L7.97848 14.3562C8.78125 14.9296 9.4514 15.4083 10.0422 15.7366C10.6666 16.0836 11.288 16.3135 12 16.3136C12.712 16.3137 13.3335 16.0841 13.958 15.7374C14.549 15.4093 15.2193 14.9308 16.0223 14.3577L19.581 11.8177C20.0305 11.4968 20.1349 10.8723 19.814 10.4228C19.4932 9.97327 18.8687 9.86895 18.4191 10.1898L14.9061 12.6971C14.0456 13.3113 13.4672 13.7223 12.9872 13.9888C12.5295 14.2429 12.2495 14.3137 12.0004 14.3136C11.7513 14.3136 11.4713 14.2427 11.0137 13.9884C10.5338 13.7217 9.95557 13.3106 9.09525 12.6961L5.58132 10.1861Z" fill="#080809" style="fill:#080809;fill:color(display-p3 0.0314 0.0314 0.0353);fill-opacity:1;"/>
<path fill-rule="evenodd" clip-rule="evenodd" d="M12 0.4375C11.2878 0.4375 10.6662 0.667379 10.0416 1.0144C9.45062 1.3428 8.78025 1.82163 7.97722 2.39522L4.23254 5.06982C3.44237 5.63417 2.79545 6.09621 2.29499 6.5268C1.77163 6.97709 1.355 7.43647 1.0542 8.02095C0.753402 8.60544 0.621732 9.21148 0.559493 9.89907C0.499977 10.5566 0.499988 11.3515 0.500001 12.3225V14.0731C0.499974 15.8965 0.499952 17.3663 0.655366 18.5222C0.816721 19.7224 1.16191 20.7329 1.96447 21.5354C2.76702 22.338 3.77752 22.6832 4.97767 22.8445C6.13363 22.9999 7.6034 22.9999 9.42686 22.9999H14.5731C16.3966 22.9999 17.8664 22.9999 19.0223 22.8445C20.2225 22.6832 21.233 22.338 22.0355 21.5354C22.8381 20.7329 23.1833 19.7224 23.3446 18.5222C23.5001 17.3663 23.5 15.8965 23.5 14.073V12.3226C23.5 11.3517 23.5 10.5566 23.4405 9.89912C23.3783 9.21153 23.2466 8.6055 22.9458 8.02102C22.645 7.43653 22.2284 6.97715 21.705 6.52687C21.2046 6.09628 20.5577 5.63427 19.7676 5.06993L16.0228 2.39522C15.2197 1.82163 14.5494 1.3428 13.9584 1.01441C13.3338 0.667384 12.7122 0.4375 12 0.4375ZM9.09392 4.05538C9.95452 3.4407 10.5329 3.02943 11.013 2.76266C11.4708 2.50831 11.7509 2.4375 12 2.4375C12.2491 2.4375 12.5292 2.50831 12.987 2.76266C13.4671 3.02944 14.0455 3.44071 14.9061 4.05539L18.5685 6.67128C19.4041 7.26809 19.9767 7.67826 20.4006 8.04295C20.8093 8.39457 21.0249 8.65919 21.1675 8.9362C21.31 9.21321 21.4001 9.54249 21.4487 10.0794C21.4991 10.6363 21.5 11.3407 21.5 12.3675V13.9999C21.5 15.9138 21.4979 17.2486 21.3625 18.2557C21.2309 19.2341 20.9903 19.7522 20.6213 20.1212C20.2523 20.4902 19.7342 20.7308 18.7558 20.8624C17.7487 20.9978 16.4139 20.9999 14.5 20.9999H9.5C7.58611 20.9999 6.2513 20.9978 5.24416 20.8624C4.26579 20.7308 3.7477 20.4902 3.37868 20.1212C3.00966 19.7522 2.76907 19.2341 2.63753 18.2557C2.50213 17.2486 2.5 15.9138 2.5 13.9999V12.3675C2.5 11.3406 2.50094 10.6362 2.55135 10.0794C2.59995 9.54244 2.68996 9.21316 2.83252 8.93614C2.97508 8.65913 3.19072 8.39451 3.5994 8.04289C4.02326 7.6782 4.59592 7.26803 5.43151 6.67122L9.09392 4.05538Z" fill="#080809" style="fill:#080809;fill:color(display-p3 0.0314 0.0314 0.0353);fill-opacity:1;"/>
</svg>
