<svg width="24" height="24" viewBox="0 0 24 24" fill="none" xmlns="http://www.w3.org/2000/svg">
<path fill-rule="evenodd" clip-rule="evenodd" d="M7.5 1C5.29086 1 3.5 2.79086 3.5 5C3.5 7.20914 5.29086 9 7.5 9C9.70914 9 11.5 7.20914 11.5 5C11.5 2.79086 9.70914 1 7.5 1ZM5.5 5C5.5 3.89543 6.39543 3 7.5 3C8.60457 3 9.5 3.89543 9.5 5C9.5 6.10457 8.60457 7 7.5 7C6.39543 7 5.5 6.10457 5.5 5Z" fill="#080809" style="fill:#080809;fill:color(display-p3 0.0314 0.0314 0.0353);fill-opacity:1;"/>
<path d="M2.5 15.5C2.5 13.8431 3.84315 12.5 5.5 12.5H7C7.55228 12.5 8 12.0523 8 11.5C8 10.9477 7.55228 10.5 7 10.5H5.5C2.73858 10.5 0.5 12.7386 0.5 15.5C0.5 17.1569 1.84315 18.5 3.5 18.5H7C7.55228 18.5 8 18.0523 8 17.5C8 16.9477 7.55228 16.5 7 16.5H3.5C2.94772 16.5 2.5 16.0523 2.5 15.5Z" fill="#080809" style="fill:#080809;fill:color(display-p3 0.0314 0.0314 0.0353);fill-opacity:1;"/>
<path d="M14.5 15C14.5 13.8954 15.3954 13 16.5 13C17.6046 13 18.5 13.8954 18.5 15C18.5 16.1046 17.6046 17 16.5 17C15.3954 17 14.5 16.1046 14.5 15Z" fill="#080809" style="fill:#080809;fill:color(display-p3 0.0314 0.0314 0.0353);fill-opacity:1;"/>
<path fill-rule="evenodd" clip-rule="evenodd" d="M13 10C11.3431 10 10 11.3431 10 13V20C10 21.6569 11.3431 23 13 23H20C21.6569 23 23 21.6569 23 20V13C23 11.3431 21.6569 10 20 10H13ZM15.5 18C14.1193 18 13 19.1193 13 20.5V20.75C13 20.8356 13.0086 20.9192 13.025 21H13C12.4477 21 12 20.5523 12 20V13C12 12.4477 12.4477 12 13 12H20C20.5523 12 21 12.4477 21 13V20C21 20.5523 20.5523 21 20 21H19.975C19.9914 20.9192 20 20.8356 20 20.75V20.5C20 19.1193 18.8807 18 17.5 18H15.5Z" fill="#080809" style="fill:#080809;fill:color(display-p3 0.0314 0.0314 0.0353);fill-opacity:1;"/>
</svg>
