<svg width="24" height="24" viewBox="0 0 24 24" fill="none" xmlns="http://www.w3.org/2000/svg">
<path d="M11 5.44567C11 2.71425 13.2143 0.5 15.9457 0.5C17.5595 0.5 19.0718 1.28741 19.9973 2.60951L20.2707 3H22.5C23.0523 3 23.5 3.44772 23.5 4V6.26541C23.5 7.75836 22.4022 9.02412 20.9243 9.23526L20.2911 9.32571C20.6697 11.0195 20.4068 12.8037 19.5373 14.3253L19.08 15.1256L20.2769 19.1723L21.1565 19.2979C22.5012 19.49 23.5 20.6417 23.5 22C23.5 22.5523 23.0523 23 22.5 23H16.5V21.9353C16.5 20.2348 15.3622 18.7763 13.7732 18.3271L14.5855 17.921C14.9559 17.7357 15.1061 17.2852 14.9209 16.9148C14.7356 16.5443 14.2851 16.3941 13.9146 16.5793L10.9146 18.0793C10.6173 18.228 10.4533 18.5546 10.5117 18.8818C10.5701 19.2091 10.8369 19.4589 11.1672 19.4956L12.9985 19.6991C14.138 19.8257 15 20.7888 15 21.9353V23H7.42857C5.3987 23 3.6878 21.6343 3.16457 19.7716C1.61207 19.2219 0.5 17.7408 0.5 16V14C0.5 13.4477 0.947715 13 1.5 13C2.05228 13 2.5 13.4477 2.5 14V16C2.5 16.5625 2.73225 17.0708 3.10611 17.4342C3.38774 15.9391 4.21832 14.5863 5.45714 13.6571L9.66667 10.5H13.25C14.7688 10.5 16 9.26878 16 7.75V6.25C16 5.83579 15.6643 5.5 15.25 5.5C14.8358 5.5 14.5 5.83579 14.5 6.25V7.75C14.5 8.44036 13.9404 9 13.25 9H11V5.44567Z" fill="#080809" style="fill:#080809;fill:color(display-p3 0.0314 0.0314 0.0353);fill-opacity:1;"/>
</svg>
