<svg width="24" height="24" viewBox="0 0 24 24" fill="none" xmlns="http://www.w3.org/2000/svg">
<path d="M9.00024 12C9.00024 10.3431 10.3434 9 12.0002 9C13.6571 9 15.0002 10.3431 15.0002 12C15.0002 13.6569 13.6571 15 12.0002 15C10.3434 15 9.00024 13.6569 9.00024 12Z" fill="#080809" style="fill:#080809;fill:color(display-p3 0.0314 0.0314 0.0353);fill-opacity:1;"/>
<path fill-rule="evenodd" clip-rule="evenodd" d="M8.78131 1.63553C9.03745 0.952502 9.69041 0.5 10.4199 0.5H13.5804C14.3099 0.5 14.9628 0.952503 15.219 1.63554L15.78 3.13171C16.105 3.99839 16.9823 4.52882 17.9008 4.41402L19.2912 4.24022C19.9489 4.158 20.5966 4.45445 20.9643 5.00597L22.52 7.33958C22.9233 7.94453 22.9106 8.73584 22.488 9.32747L21.4094 10.8375C20.9127 11.5329 20.9127 12.4671 21.4094 13.1625L22.488 14.6725C22.9106 15.2642 22.9233 16.0555 22.52 16.6604L20.9643 18.994C20.5966 19.5455 19.9489 19.842 19.2912 19.7598L17.9008 19.586C16.9823 19.4712 16.105 20.0016 15.78 20.8683L15.219 22.3645C14.9628 23.0475 14.3099 23.5 13.5804 23.5H10.4199C9.6904 23.5 9.03744 23.0475 8.78131 22.3645L8.24676 20.939C7.91369 20.0508 7.00254 19.5188 6.06535 19.6652L4.76314 19.8687C4.07739 19.9758 3.39314 19.6676 3.019 19.083L1.45637 16.6414C1.07088 16.0391 1.09065 15.2628 1.50631 14.6809L2.56797 13.1946C3.07208 12.4888 3.06386 11.5386 2.54762 10.8416L1.52347 9.45903C1.09794 8.88457 1.06462 8.10905 1.43929 7.50021L3.01196 4.94462C3.3816 4.34396 4.07569 4.02389 4.77252 4.13277L6.06535 4.33477C7.00254 4.48121 7.91369 3.94917 8.24676 3.061L8.78131 1.63553ZM12.0002 7C9.23882 7 7.00024 9.23858 7.00024 12C7.00024 14.7614 9.23882 17 12.0002 17C14.7617 17 17.0002 14.7614 17.0002 12C17.0002 9.23858 14.7617 7 12.0002 7Z" fill="#080809" style="fill:#080809;fill:color(display-p3 0.0314 0.0314 0.0353);fill-opacity:1;"/>
</svg>
