<svg width="24" height="24" viewBox="0 0 24 24" fill="none" xmlns="http://www.w3.org/2000/svg">
<path d="M10.7035 1.97346C10.6147 2.1422 10.5 2.40421 10.5 2.70011C10.5 3.50982 11.1267 4.25011 12 4.25011C12.8733 4.25011 13.5 3.50982 13.5 2.70011C13.5 2.40421 13.3853 2.1422 13.2965 1.97346C12.9819 1.37579 12.4714 0.910841 12 0.439453C11.529 0.911377 11.0181 1.37566 10.7035 1.97346Z" fill="#080809" style="fill:#080809;fill:color(display-p3 0.0314 0.0314 0.0353);fill-opacity:1;"/>
<path fill-rule="evenodd" clip-rule="evenodd" d="M12 5.5C12.5523 5.5 13 5.94772 13 6.5V9L17.0658 9C17.9523 8.99995 18.7161 8.9999 19.3278 9.08214C19.9833 9.17027 20.6117 9.36902 21.1213 9.87868C21.631 10.3883 21.8297 11.0167 21.9179 11.6722C22.0001 12.2839 22.0001 13.0477 22 13.9342V18.0616C22.0001 18.7157 22.0001 19.3034 21.9362 19.7792C21.8663 20.2985 21.7042 20.8313 21.2678 21.2678C20.8313 21.7042 20.2985 21.8663 19.7792 21.9362C19.3035 22.0001 18.7157 22.0001 18.0616 22H5.9384C5.28427 22.0001 4.69656 22.0001 4.22085 21.9362C3.70149 21.8663 3.16868 21.7042 2.73224 21.2678C2.2958 20.8313 2.13367 20.2985 2.06384 19.7792C1.99989 19.3035 1.99994 18.7157 2 18.0616L2.00001 13.9342C1.99996 13.0477 1.99991 12.2839 2.08215 11.6722C2.17028 11.0167 2.36903 10.3883 2.87869 9.87868C3.38835 9.36902 4.0167 9.17027 4.67222 9.08214C5.28388 8.9999 6.04769 8.99995 6.93418 9L11 9V6.5C11 5.94772 11.4477 5.5 12 5.5ZM20 14.2062V14C20 13.0289 19.9979 12.4012 19.9357 11.9387C19.8774 11.505 19.7832 11.369 19.7071 11.2929C19.631 11.2168 19.495 11.1226 19.0613 11.0643C18.5988 11.0021 17.9711 11 17 11H7.00001C6.02893 11 5.40122 11.0021 4.93871 11.0643C4.50497 11.1226 4.36903 11.2168 4.2929 11.2929C4.21678 11.369 4.12263 11.505 4.06431 11.9387C4.00213 12.4012 4.00001 13.0289 4.00001 14V14.2062L4.07182 14.2676C4.68024 14.7881 5.58671 14.7829 6.19382 14.2516C7.55006 13.0649 9.58339 13.0567 10.9442 14.2474C11.5487 14.7763 12.4513 14.7763 13.0558 14.2474C14.4166 13.0567 16.45 13.0649 17.8062 14.2516C18.4133 14.7829 19.3198 14.7881 19.9282 14.2676L20 14.2062ZM4.00001 16.4768V18C4.00001 18.7354 4.00213 19.1863 4.04601 19.5127C4.08457 19.7995 4.13942 19.8474 4.14593 19.8531L4.14693 19.8541C4.15261 19.8606 4.20051 19.9154 4.48735 19.954C4.8137 19.9979 5.26463 20 6.00001 20H18C18.7354 20 19.1863 19.9979 19.5127 19.954C19.7995 19.9154 19.8474 19.8606 19.8531 19.8541L19.8541 19.8531C19.8606 19.8474 19.9154 19.7995 19.954 19.5127C19.9979 19.1863 20 18.7354 20 18V16.4768C18.8153 16.862 17.4739 16.6184 16.4892 15.7568C15.8824 15.2259 14.975 15.2257 14.3728 15.7526C13.0143 16.9413 10.9858 16.9413 9.62722 15.7526C9.02502 15.2257 8.11761 15.2259 7.51083 15.7568C6.52612 16.6184 5.1847 16.862 4.00001 16.4768Z" fill="#080809" style="fill:#080809;fill:color(display-p3 0.0314 0.0314 0.0353);fill-opacity:1;"/>
</svg>
