<svg width="24" height="24" viewBox="0 0 24 24" fill="none" xmlns="http://www.w3.org/2000/svg">
<path fill-rule="evenodd" clip-rule="evenodd" d="M3 3.5C3 1.84315 4.34315 0.5 6 0.5H18C19.6569 0.5 21 1.84315 21 3.5V9.5H3V3.5ZM6.5 4C7.05228 4 7.5 4.44772 7.5 5V7C7.5 7.55228 7.05228 8 6.5 8C5.94772 8 5.5 7.55228 5.5 7V5C5.5 4.44772 5.94772 4 6.5 4Z" fill="#080809" style="fill:#080809;fill:color(display-p3 0.0314 0.0314 0.0353);fill-opacity:1;"/>
<path fill-rule="evenodd" clip-rule="evenodd" d="M3 11.5V20.5C3 22.1569 4.34315 23.5 6 23.5H18C19.6569 23.5 21 22.1569 21 20.5V11.5H3ZM7.5 14C7.5 13.4477 7.05228 13 6.5 13C5.94772 13 5.5 13.4477 5.5 14V16C5.5 16.5523 5.94772 17 6.5 17C7.05228 17 7.5 16.5523 7.5 16V14Z" fill="#080809" style="fill:#080809;fill:color(display-p3 0.0314 0.0314 0.0353);fill-opacity:1;"/>
</svg>
