<svg width="24" height="24" viewBox="0 0 24 24" fill="none" xmlns="http://www.w3.org/2000/svg">
<path fill-rule="evenodd" clip-rule="evenodd" d="M1.49103 11.7973C7.08822 9.35872 10.8206 7.75104 12.688 6.97429C18.0201 4.75651 19.128 4.37126 19.8502 4.35853C20.009 4.35574 20.3641 4.3951 20.5942 4.58176C20.7884 4.73937 20.8419 4.95229 20.8674 5.10172C20.893 5.25115 20.9249 5.59157 20.8995 5.85756C20.6106 8.89353 19.3603 16.261 18.7243 19.6614C18.4551 21.1002 17.9252 21.5826 17.4121 21.6298C16.2972 21.7324 15.4505 20.893 14.3706 20.1851C12.6807 19.0774 11.7261 18.3878 10.0858 17.3069C8.19014 16.0577 9.419 15.3711 10.4993 14.249C10.7821 13.9554 15.6947 9.48697 15.7898 9.08161C15.8017 9.03092 15.8127 8.84194 15.7004 8.74216C15.5882 8.64237 15.4225 8.6765 15.3029 8.70363C15.1334 8.7421 12.4339 10.5264 7.20422 14.0566C6.43796 14.5827 5.74391 14.8391 5.12206 14.8257C4.43652 14.8109 3.11782 14.438 2.1375 14.1194C0.935098 13.7285 -0.0205466 13.5219 0.0626686 12.8581C0.106012 12.5124 0.582132 12.1588 1.49103 11.7973Z" fill="#080809" style="fill:#080809;fill:color(display-p3 0.0314 0.0314 0.0353);fill-opacity:1;"/>
</svg>
