<svg width="24" height="24" viewBox="0 0 24 24" fill="none" xmlns="http://www.w3.org/2000/svg">
<path d="M7.25 9.75C6.55964 9.75 6 10.3096 6 11C6 11.6904 6.55964 12.25 7.25 12.25H14.75C15.4404 12.25 16 11.6904 16 11C16 10.3096 15.4404 9.75 14.75 9.75H7.25Z" fill="#080809" style="fill:#080809;fill:color(display-p3 0.0314 0.0314 0.0353);fill-opacity:1;"/>
<path fill-rule="evenodd" clip-rule="evenodd" d="M1 11C1 5.47715 5.47715 1 11 1C16.5228 1 21 5.47715 21 11C21 13.3109 20.2161 15.4387 18.8998 17.1321L22.6339 20.8661C23.122 21.3543 23.122 22.1457 22.6339 22.6339C22.1457 23.122 21.3543 23.122 20.8661 22.6339L17.1321 18.8998C15.4387 20.2161 13.3109 21 11 21C5.47715 21 1 16.5228 1 11ZM11 3.5C6.85786 3.5 3.5 6.85786 3.5 11C3.5 15.1421 6.85786 18.5 11 18.5C15.1421 18.5 18.5 15.1421 18.5 11C18.5 6.85786 15.1421 3.5 11 3.5Z" fill="#080809" style="fill:#080809;fill:color(display-p3 0.0314 0.0314 0.0353);fill-opacity:1;"/>
</svg>
