<svg width="24" height="24" viewBox="0 0 24 24" fill="none" xmlns="http://www.w3.org/2000/svg">
<path d="M14.5274 3.2929C14.1369 2.90237 13.5037 2.90237 13.1132 3.29289C12.7227 3.68341 12.7227 4.31658 13.1132 4.7071C14.0055 5.59941 14.8974 6.48861 15.7887 7.3772C16.999 8.58386 18.2082 9.7894 19.4157 11H3C2.44772 11 2 11.4477 2 12C2 12.5523 2.44772 13 3 13H19.408C18.2041 14.2045 16.9998 15.4081 15.7954 16.6118L15.791 16.6161C14.8985 17.5081 14.0059 18.4002 13.1132 19.2929C12.7227 19.6834 12.7227 20.3166 13.1132 20.7071C13.5037 21.0976 14.1369 21.0976 14.5274 20.7071C15.4207 19.8139 16.3145 18.9205 17.2085 18.0271L17.2103 18.0252C18.5145 16.7219 19.8189 15.4183 21.122 14.1142C22.2886 12.9468 22.2934 11.0543 21.1265 9.88328C19.8203 8.57248 18.5075 7.26366 17.1961 5.95622L17.1953 5.95537C16.3045 5.06731 15.4144 4.17988 14.5274 3.2929Z" fill="#080809" style="fill:#080809;fill:color(display-p3 0.0314 0.0314 0.0353);fill-opacity:1;"/>
</svg>
