<svg width="24" height="24" viewBox="0 0 24 24" fill="none" xmlns="http://www.w3.org/2000/svg">
<path d="M13 4C13 3.44772 12.5523 3 12 3C11.4477 3 11 3.44772 11 4V20C11 20.5523 11.4477 21 12 21C12.5523 21 13 20.5523 13 20V4Z" fill="#080809" style="fill:#080809;fill:color(display-p3 0.0314 0.0314 0.0353);fill-opacity:1;"/>
<path d="M19 8C19 7.44772 18.5523 7 18 7C17.4477 7 17 7.44772 17 8V16C17 16.5523 17.4477 17 18 17C18.5523 17 19 16.5523 19 16V8Z" fill="#080809" style="fill:#080809;fill:color(display-p3 0.0314 0.0314 0.0353);fill-opacity:1;"/>
<path d="M7 8C7 7.44772 6.55228 7 6 7C5.44772 7 5 7.44772 5 8V16C5 16.5523 5.44772 17 6 17C6.55228 17 7 16.5523 7 16V8Z" fill="#080809" style="fill:#080809;fill:color(display-p3 0.0314 0.0314 0.0353);fill-opacity:1;"/>
</svg>
