<svg width="24" height="24" viewBox="0 0 24 24" fill="none" xmlns="http://www.w3.org/2000/svg">
<path fill-rule="evenodd" clip-rule="evenodd" d="M6 23.5C4.34315 23.5 3 22.1569 3 20.5V3.5C3 1.84315 4.34315 0.5 6 0.5H18C19.6569 0.5 21 1.84314 21 3.5V20.5C21 22.1569 19.6569 23.5 18 23.5H6ZM5 20.5C5 21.0523 5.44772 21.5 6 21.5H18C18.5523 21.5 19 21.0523 19 20.5V16.5H5L5 20.5ZM5 14.5L19 14.5V9.5H5L5 14.5ZM19 3.5V7.5L5 7.5L5 3.5C5 2.94772 5.44772 2.5 6 2.5L18 2.5C18.5523 2.5 19 2.94772 19 3.5Z" fill="#080809" style="fill:#080809;fill:color(display-p3 0.0314 0.0314 0.0353);fill-opacity:1;"/>
</svg>
