<svg width="24" height="24" viewBox="0 0 24 24" fill="none" xmlns="http://www.w3.org/2000/svg">
<path fill-rule="evenodd" clip-rule="evenodd" d="M11.1068 19.5909C10.9038 19.4417 10.6173 19.2242 10.2751 18.9457C9.59214 18.39 8.67946 17.585 7.76367 16.5884C5.96585 14.6319 4 11.7682 4 8.5C4 4.08172 7.58172 0.5 12 0.5C16.4183 0.5 20 4.08172 20 8.5C20 11.7682 18.0342 14.6319 16.2363 16.5884C15.3205 17.585 14.4079 18.39 13.7249 18.9457C13.3827 19.2242 13.0962 19.4417 12.8932 19.5909L12.5603 19.8283C12.2231 20.0564 11.7662 20.0507 11.4309 19.8223C11.3215 19.7472 11.2138 19.6696 11.1068 19.5909ZM8.5 8.5C8.5 6.567 10.067 5 12 5C13.933 5 15.5 6.567 15.5 8.5C15.5 10.433 13.933 12 12 12C10.067 12 8.5 10.433 8.5 8.5Z" fill="#080809" style="fill:#080809;fill:color(display-p3 0.0314 0.0314 0.0353);fill-opacity:1;"/>
<path d="M6 22.5C6 21.9477 6.44772 21.5 7 21.5H17C17.5523 21.5 18 21.9477 18 22.5C18 23.0523 17.5523 23.5 17 23.5H7C6.44772 23.5 6 23.0523 6 22.5Z" fill="#080809" style="fill:#080809;fill:color(display-p3 0.0314 0.0314 0.0353);fill-opacity:1;"/>
</svg>
