<svg width="24" height="24" viewBox="0 0 24 24" fill="none" xmlns="http://www.w3.org/2000/svg">
<path d="M14.0001 1C10.1889 1 6.93092 3.36903 5.61852 6.71487C6.89803 5.94366 8.39727 5.5 10.0001 5.5C14.6945 5.5 18.5001 9.30558 18.5001 14C18.5001 15.6029 18.0565 17.1021 17.2853 18.3816C20.6311 17.0692 23.0001 13.8113 23.0001 10C23.0001 5.02944 18.9707 1 14.0001 1Z" fill="#080809" style="fill:#080809;fill:color(display-p3 0.0314 0.0314 0.0353);fill-opacity:1;"/>
<path d="M5.99965 11.5C5.02061 11.5 4.09211 11.7165 3.25943 12.1041C4.08605 9.15927 6.79069 7 9.99965 7C13.8656 7 16.9997 10.134 16.9997 14C16.9997 17.209 14.8404 19.9136 11.8955 20.7402C12.2832 19.9075 12.4997 18.979 12.4997 18C12.4997 14.4101 9.5895 11.5 5.99965 11.5Z" fill="#080809" style="fill:#080809;fill:color(display-p3 0.0314 0.0314 0.0353);fill-opacity:1;"/>
<path d="M1 18C1 15.2386 3.23858 13 6 13C8.76142 13 11 15.2386 11 18C11 20.7614 8.76142 23 6 23C3.23858 23 1 20.7614 1 18Z" fill="#080809" style="fill:#080809;fill:color(display-p3 0.0314 0.0314 0.0353);fill-opacity:1;"/>
</svg>
