<svg width="24" height="24" viewBox="0 0 24 24" fill="none" xmlns="http://www.w3.org/2000/svg">
<path fill-rule="evenodd" clip-rule="evenodd" d="M18 0.5C20.2091 0.5 22 2.29086 22 4.5V13.5C22 19.0228 17.5228 23.5 12 23.5C6.47715 23.5 2 19.0228 2 13.5V4.5C2 2.29086 3.79086 0.5 6 0.5H18ZM8 14C7.64886 14.0001 7.32329 14.1843 7.14258 14.4854C6.96194 14.7865 6.952 15.1608 7.11719 15.4707L7.19141 15.6084L7.39355 15.958C9.58432 19.4517 14.8209 19.3351 16.8086 15.6084L16.8828 15.4707L16.9365 15.3516C17.0429 15.0683 17.0155 14.7489 16.8574 14.4854C16.6992 14.2218 16.43 14.0481 16.1299 14.0088L16 14H8ZM8 6C6.89543 6 6 7.11929 6 8.5C6 9.88071 6.89543 11 8 11C9.10457 11 10 9.88071 10 8.5C10 7.11929 9.10457 6 8 6ZM16 6C14.8954 6 14 7.11929 14 8.5C14 9.88071 14.8954 11 16 11C17.1046 11 18 9.88071 18 8.5C18 7.11929 17.1046 6 16 6Z" fill="#080809" style="fill:#080809;fill:color(display-p3 0.0314 0.0314 0.0353);fill-opacity:1;"/>
</svg>
