<svg width="24" height="24" viewBox="0 0 24 24" fill="none" xmlns="http://www.w3.org/2000/svg">
<path fill-rule="evenodd" clip-rule="evenodd" d="M14.6811 20.7322L13.146 22.2673C12.6772 22.7362 12.0413 22.9995 11.3782 22.9995H7.62087C6.95783 22.9995 6.32194 22.7362 5.8531 22.2673L1.91376 18.328C0.351665 16.7659 0.351662 14.2332 1.91376 12.6711L11.6711 2.91376C13.2332 1.35166 15.7659 1.35167 17.328 2.91376L22.0853 7.67112C23.6474 9.23322 23.6474 11.7659 22.0853 13.328L14.7322 20.6811C14.724 20.6899 14.7157 20.6986 14.7071 20.7071C14.6986 20.7157 14.6899 20.724 14.6811 20.7322ZM13.0853 4.32797C13.8664 3.54693 15.1327 3.54693 15.9138 4.32798L20.6711 9.08534C21.4522 9.86638 21.4522 11.1327 20.6711 11.9138L13.9995 18.5853L6.41376 10.9995L13.0853 4.32797ZM4.99955 12.4138L3.32797 14.0853C2.54693 14.8664 2.54693 16.1327 3.32797 16.9138L7.26731 20.8531C7.36108 20.9469 7.48826 20.9995 7.62087 20.9995H11.3782C11.5108 20.9995 11.638 20.9469 11.7318 20.8531L12.5853 19.9995L4.99955 12.4138Z" fill="#080809" style="fill:#080809;fill:color(display-p3 0.0314 0.0314 0.0353);fill-opacity:1;"/>
</svg>
