<svg width="24" height="24" viewBox="0 0 24 24" fill="none" xmlns="http://www.w3.org/2000/svg">
<path fill-rule="evenodd" clip-rule="evenodd" d="M22.9995 3.5C22.9995 2.11929 21.8803 1 20.4995 1H13.2422C12.1813 1 11.1639 1.42143 10.4138 2.17157L1.66376 10.9216C0.101663 12.4837 0.101663 15.0163 1.66376 16.5784L7.42112 22.3358C8.98322 23.8979 11.5159 23.8979 13.078 22.3358L21.828 13.5858C22.5781 12.8356 22.9995 11.8182 22.9995 10.7574V3.5ZM17.5 8.5C16.3954 8.5 15.5 7.60457 15.5 6.5C15.5 5.39543 16.3954 4.5 17.5 4.5C18.6046 4.5 19.5 5.39543 19.5 6.5C19.5 7.60457 18.6046 8.5 17.5 8.5Z" fill="#080809" style="fill:#080809;fill:color(display-p3 0.0314 0.0314 0.0353);fill-opacity:1;"/>
</svg>
