<svg width="24" height="24" viewBox="0 0 24 24" fill="none" xmlns="http://www.w3.org/2000/svg">
<path d="M15.2931 3.29289C14.9026 3.68342 14.9026 4.31658 15.2931 4.70711L17.586 7L10.9294 7C9.57531 6.99997 8.45869 6.99994 7.57494 7.11875C6.64711 7.2435 5.82768 7.51547 5.17157 8.17158C4.51546 8.82768 4.2435 9.64711 4.11875 10.5749C3.99993 11.4587 3.99996 12.5753 4 13.9294L4 20C4 20.5523 4.44771 21 5 21C5.55228 21 6 20.5523 6 20V14C6 12.5575 6.00212 11.5763 6.10092 10.8414C6.19584 10.1354 6.36321 9.80836 6.58579 9.58579C6.80836 9.36322 7.13538 9.19585 7.84143 9.10092C8.57625 9.00213 9.55752 9 11 9H17.586L15.2931 11.2929C14.9026 11.6834 14.9026 12.3166 15.2931 12.7071C15.6836 13.0976 16.3168 13.0976 16.7073 12.7071L19.6467 9.76777C20.623 8.79146 20.623 7.20855 19.6467 6.23223L16.7073 3.29289C16.3168 2.90237 15.6836 2.90237 15.2931 3.29289Z" fill="#080809" style="fill:#080809;fill:color(display-p3 0.0314 0.0314 0.0353);fill-opacity:1;"/>
<path d="M16.7061 15.2929C16.3156 14.9024 15.6824 14.9024 15.2919 15.2929C14.9014 15.6834 14.9014 16.3166 15.2919 16.7071L17.5848 19L15.2919 21.2929C14.9014 21.6834 14.9014 22.3166 15.2919 22.7071C15.6824 23.0976 16.3156 23.0976 16.7061 22.7071L18.999 20.4142L21.2919 22.7071C21.6824 23.0976 22.3156 23.0976 22.7061 22.7071C23.0967 22.3166 23.0967 21.6834 22.7061 21.2929L20.4132 19L22.7061 16.7071C23.0967 16.3166 23.0967 15.6834 22.7061 15.2929C22.3156 14.9024 21.6824 14.9024 21.2919 15.2929L18.999 17.5858L16.7061 15.2929Z" fill="#080809" style="fill:#080809;fill:color(display-p3 0.0314 0.0314 0.0353);fill-opacity:1;"/>
</svg>
