<svg width="24" height="24" viewBox="0 0 24 24" fill="none" xmlns="http://www.w3.org/2000/svg">
<path d="M11.5 2C10.1193 2 9 3.11929 9 4.5V19.5C9 20.8807 10.1193 22 11.5 22H12.5C13.8807 22 15 20.8807 15 19.5V4.5C15 3.11929 13.8807 2 12.5 2H11.5Z" fill="#080809" style="fill:#080809;fill:color(display-p3 0.0314 0.0314 0.0353);fill-opacity:1;"/>
<path d="M3.5 12C2.11929 12 1 13.1193 1 14.5V19.5C1 20.8807 2.11929 22 3.5 22H4.5C5.88071 22 7 20.8807 7 19.5V14.5C7 13.1193 5.88071 12 4.5 12H3.5Z" fill="#080809" style="fill:#080809;fill:color(display-p3 0.0314 0.0314 0.0353);fill-opacity:1;"/>
<path d="M19.5 7C18.1193 7 17 8.11929 17 9.5V19.5C17 20.8807 18.1193 22 19.5 22H20.5C21.8807 22 23 20.8807 23 19.5V9.5C23 8.11929 21.8807 7 20.5 7H19.5Z" fill="#080809" style="fill:#080809;fill:color(display-p3 0.0314 0.0314 0.0353);fill-opacity:1;"/>
</svg>
