<svg width="24" height="24" viewBox="0 0 24 24" fill="none" xmlns="http://www.w3.org/2000/svg">
<path fill-rule="evenodd" clip-rule="evenodd" d="M7.99954 9.42811V2.5L7.49951 2.5C6.94723 2.5 6.49951 2.05228 6.49951 1.5C6.49951 0.947715 6.94723 0.5 7.49951 0.5H16.4995C17.0518 0.5 17.4995 0.947715 17.4995 1.5C17.4995 2.05228 17.0518 2.5 16.4995 2.5H15.9995V9.4283L20.6597 17.5C22.1993 20.1667 20.2748 23.5 17.1956 23.5H6.80333C6.62733 23.5 6.45511 23.4891 6.28709 23.4681C3.51515 23.1214 1.88705 20.0143 3.33874 17.4999L7.99954 9.42811ZM13.9995 2.5L9.99954 2.5V9.42811C9.99954 9.77918 9.90713 10.1241 9.73159 10.4281L6.33904 16.3042L6.87234 16.4375C8.1381 16.754 9.47742 16.5631 10.6044 15.9057L12.15 15.0041C13.4386 14.2524 14.9207 13.9388 16.3791 14.0858L14.2675 10.4283C14.092 10.1243 13.9995 9.77937 13.9995 9.4283V2.5Z" fill="#080809" style="fill:#080809;fill:color(display-p3 0.0314 0.0314 0.0353);fill-opacity:1;"/>
</svg>
