<svg width="24" height="24" viewBox="0 0 24 24" fill="none" xmlns="http://www.w3.org/2000/svg">
<g clip-path="url(#clip0_29901_28557)">
<path fill-rule="evenodd" clip-rule="evenodd" d="M0.5 12C0.5 5.64873 5.64873 0.5 12 0.5C18.3513 0.5 23.5 5.64873 23.5 12C23.5 18.3513 18.3513 23.5 12 23.5C5.64873 23.5 0.5 18.3513 0.5 12ZM13.0002 5V6.10003C13.6926 6.24212 14.2489 6.51604 14.6642 6.79295C14.962 6.99146 15.1881 7.19175 15.344 7.34758C15.4726 7.4762 15.5436 7.55851 15.6115 7.64844C15.613 7.65043 15.6127 7.65 15.6127 7.65C15.944 8.09183 15.8545 8.71863 15.4127 9.05C14.974 9.37897 14.3531 9.2931 14.0199 8.85953C13.8885 8.70277 13.7243 8.57006 13.5548 8.45705C13.2167 8.23164 12.7033 8 12.0002 8H11.2191C10.7359 8 10.2942 8.27298 10.0779 8.7055C9.717 9.42736 10.1083 10.2988 10.8877 10.5086L13.5165 11.2164C15.5816 11.7724 16.649 14.0534 15.7528 15.9951C15.2425 17.1008 14.1933 17.8474 13.0002 17.9791V19C13.0002 19.5523 12.5524 20 12.0002 20C11.4479 20 11.0002 19.5523 11.0002 19V17.9058C10.1475 17.7402 9.48612 17.3794 9.00763 17.0114C8.68566 16.7637 8.44811 16.5145 8.28759 16.3218C8.15522 16.163 8.08396 16.0622 8.01819 15.9529L8.01766 15.952C7.73351 15.4784 7.88707 14.8642 8.36066 14.58C8.83083 14.2979 9.43967 14.4472 9.72646 14.9128C9.73925 14.9324 9.90851 15.1811 10.227 15.4261C10.5912 15.7063 11.1633 16 12.0002 16H12.6207C13.1861 16 13.6995 15.6715 13.9369 15.157C14.3137 14.3405 13.8649 13.3814 12.9966 13.1476L10.3677 12.4399C8.36713 11.9012 7.36253 9.66416 8.28908 7.81107C8.81116 6.7669 9.84591 6.08438 11.0002 6.0073V5C11.0002 4.44772 11.4479 4 12.0002 4C12.5524 4 13.0002 4.44772 13.0002 5Z" fill="#080809" style="fill:#080809;fill:color(display-p3 0.0314 0.0314 0.0353);fill-opacity:1;"/>
</g>
<defs>
<clipPath id="clip0_29901_28557">
<rect width="24" height="24" fill="white" style="fill:white;fill-opacity:1;"/>
</clipPath>
</defs>
</svg>
