<svg width="24" height="24" viewBox="0 0 24 24" fill="none" xmlns="http://www.w3.org/2000/svg">
<path fill-rule="evenodd" clip-rule="evenodd" d="M17.4997 1C18.6043 1 19.4997 1.89543 19.4997 3V9.44744C19.4997 10.2431 19.1836 11.0061 18.621 11.5688L10.8969 19.2929C9.72531 20.4645 7.82581 20.4645 6.65424 19.2929L1.2068 13.8455C0.035234 12.6739 0.0352302 10.7744 1.2068 9.60282L8.93094 1.87868C9.49355 1.31607 10.2566 1 11.0523 1H17.4997ZM14.5 7.5C13.6716 7.5 13 6.82843 13 6C13 5.17157 13.6716 4.5 14.5 4.5C15.3284 4.5 16 5.17157 16 6C16 6.82843 15.3284 7.5 14.5 7.5Z" fill="#080809" style="fill:#080809;fill:color(display-p3 0.0314 0.0314 0.0353);fill-opacity:1;"/>
<path d="M21.9997 4.5C21.4474 4.5 20.9997 4.94772 20.9997 5.5V10.7574C20.9997 11.2878 20.789 11.7965 20.4139 12.1716L10.7926 21.7929C10.4021 22.1834 10.4021 22.8166 10.7926 23.2071C11.1831 23.5976 11.8163 23.5976 12.2068 23.2071L21.8281 13.5858C22.5783 12.8356 22.9997 11.8182 22.9997 10.7574V5.5C22.9997 4.94772 22.552 4.5 21.9997 4.5Z" fill="#080809" style="fill:#080809;fill:color(display-p3 0.0314 0.0314 0.0353);fill-opacity:1;"/>
</svg>
