<svg width="24" height="24" viewBox="0 0 24 24" fill="none" xmlns="http://www.w3.org/2000/svg">
<path d="M12.5 2C13.8807 2 15 3.11929 15 4.5V19.5C15 20.8807 13.8807 22 12.5 22H11.5C10.1193 22 9 20.8807 9 19.5V4.5C9 3.11929 10.1193 2 11.5 2H12.5Z" fill="#080809" style="fill:#080809;fill:color(display-p3 0.0314 0.0314 0.0353);fill-opacity:1;"/>
<path d="M20.5 12C21.8807 12 23 13.1193 23 14.5V19.5C23 20.8807 21.8807 22 20.5 22H19.5C18.1193 22 17 20.8807 17 19.5V14.5C17 13.1193 18.1193 12 19.5 12H20.5Z" fill="#080809" style="fill:#080809;fill:color(display-p3 0.0314 0.0314 0.0353);fill-opacity:1;"/>
<path d="M4.5 7C5.88071 7 7 8.11929 7 9.5V19.5C7 20.8807 5.88071 22 4.5 22H3.5C2.11929 22 1 20.8807 1 19.5V9.5C1 8.11929 2.11929 7 3.5 7H4.5Z" fill="#080809" style="fill:#080809;fill:color(display-p3 0.0314 0.0314 0.0353);fill-opacity:1;"/>
</svg>
