<svg width="24" height="24" viewBox="0 0 24 24" fill="none" xmlns="http://www.w3.org/2000/svg">
<path fill-rule="evenodd" clip-rule="evenodd" d="M12 0.5C7.02944 0.5 3 4.52944 3 9.5C3 12.1395 4.35131 14.9223 5.8588 17.2364C7.3877 19.5833 9.18369 21.6064 10.2767 22.7583C11.2197 23.7519 12.7803 23.7519 13.7233 22.7583C14.8163 21.6064 16.6123 19.5833 18.1412 17.2364C19.6487 14.9223 21 12.1395 21 9.5C21 4.52944 16.9706 0.5 12 0.5ZM12.9234 5.61597C12.7683 5.24301 12.4041 5 12.0001 5C11.5962 5 11.2319 5.24301 11.0768 5.61597L10.3856 7.27781L8.59152 7.42164C8.18888 7.45392 7.8452 7.72526 7.72037 8.10942C7.59555 8.49358 7.71411 8.91512 8.02087 9.1779L9.38778 10.3488L8.97017 12.0995C8.87645 12.4924 9.02831 12.9032 9.35509 13.1406C9.68188 13.378 10.1194 13.3955 10.4641 13.185L12.0001 12.2468L13.5361 13.185C13.8808 13.3955 14.3184 13.378 14.6452 13.1406C14.9719 12.9032 15.1238 12.4924 15.0301 12.0995L14.6125 10.3488L15.9794 9.1779C16.2862 8.91512 16.4047 8.49358 16.2799 8.10942C16.1551 7.72526 15.8114 7.45392 15.4087 7.42164L13.6146 7.27781L12.9234 5.61597Z" fill="#080809" style="fill:#080809;fill:color(display-p3 0.0314 0.0314 0.0353);fill-opacity:1;"/>
</svg>
