<svg width="24" height="24" viewBox="0 0 24 24" fill="none" xmlns="http://www.w3.org/2000/svg">
<path fill-rule="evenodd" clip-rule="evenodd" d="M2.70711 1.29289C2.31658 0.902369 1.68342 0.902369 1.29289 1.29289C0.902369 1.68342 0.902369 2.31658 1.29289 2.70711L21.2929 22.7071C21.6834 23.0976 22.3166 23.0976 22.7071 22.7071C23.0976 22.3166 23.0976 21.6834 22.7071 21.2929L21.4401 20.0259C21.6509 19.8842 21.8493 19.7218 22.0356 19.5355C22.8381 18.733 23.1833 17.7225 23.3447 16.5223C23.5001 15.3664 23.5 13.8966 23.5 12.0731V11.9269C23.5 10.1034 23.5001 8.63364 23.3447 7.47767C23.1833 6.27753 22.8381 5.26703 22.0356 4.46447C21.233 3.66192 20.2225 3.31673 19.0224 3.15537C17.8664 2.99996 16.3966 2.99998 14.5732 3.00001L9.37117 3C7.40939 2.99991 5.84348 2.99983 4.62384 3.20963L2.70711 1.29289ZM6.45209 5.03787L10.4142 9H18C18.5523 9 19 9.44771 19 10C19 10.5523 18.5523 11 18 11H12.4142L19.9719 18.5577C20.2372 18.4417 20.4441 18.2986 20.6213 18.1213C20.9904 17.7523 21.2309 17.2342 21.3625 16.2558C21.4979 15.2487 21.5 13.9139 21.5 12C21.5 10.0861 21.4979 8.7513 21.3625 7.74417C21.2309 6.7658 20.9904 6.24771 20.6213 5.87869C20.2523 5.50967 19.7342 5.26908 18.7559 5.13754C17.7487 5.00213 16.4139 5.00001 14.5 5.00001H9.50002C8.25828 5.00001 7.26483 5.00165 6.45209 5.03787Z" fill="#080809" style="fill:#080809;fill:color(display-p3 0.0314 0.0314 0.0353);fill-opacity:1;"/>
<path d="M2.77878 7.0063C2.92032 6.47246 2.6023 5.92495 2.06847 5.78341C1.53463 5.64186 0.987121 5.95988 0.845577 6.49372C0.499679 7.79829 0.499822 9.55458 0.500009 11.8393L0.500017 12.0732C0.499989 13.8966 0.499967 15.3664 0.655381 16.5223C0.816736 17.7225 1.16193 18.733 1.96448 19.5355C2.76704 20.3381 3.77754 20.6833 4.97768 20.8446C6.13364 21.0001 7.60341 21 9.42688 21L11.2748 21.0002C12.5165 21.0005 13.7588 21.0007 15.0007 20.9999C15.553 20.9995 16.0004 20.5515 16 19.9992C15.9997 19.447 15.5516 18.9995 14.9994 18.9999C13.7609 19.0007 12.5228 19.0005 11.2842 19.0002L9.50002 19C7.58613 19 6.25131 18.9979 5.24418 18.8625C4.26581 18.7309 3.74771 18.4903 3.3787 18.1213C3.00968 17.7523 2.76908 17.2342 2.63755 16.2558C2.50214 15.2487 2.50002 13.9139 2.50002 12C2.50002 9.50983 2.50842 8.02596 2.77878 7.0063Z" fill="#080809" style="fill:#080809;fill:color(display-p3 0.0314 0.0314 0.0353);fill-opacity:1;"/>
<path d="M5 14C5 13.4477 5.44772 13 6 13H9C9.55228 13 10 13.4477 10 14C10 14.5523 9.55228 15 9 15H6C5.44772 15 5 14.5523 5 14Z" fill="#080809" style="fill:#080809;fill:color(display-p3 0.0314 0.0314 0.0353);fill-opacity:1;"/>
</svg>
