<svg width="24" height="24" viewBox="0 0 24 24" fill="none" xmlns="http://www.w3.org/2000/svg">
<path d="M13.5912 5.12681C13.8215 4.62487 14.4152 4.40472 14.9171 4.6351C16.477 5.35103 17.7275 6.62248 18.4162 8.19753C18.6375 8.70355 18.4067 9.29314 17.9007 9.51442C17.3946 9.7357 16.805 9.50487 16.5838 8.99885C16.092 7.87421 15.1971 6.9642 14.0829 6.45279C13.5809 6.22242 13.3608 5.62876 13.5912 5.12681Z" fill="#080809" style="fill:#080809;fill:color(display-p3 0.0314 0.0314 0.0353);fill-opacity:1;"/>
<path fill-rule="evenodd" clip-rule="evenodd" d="M4.00461 17.8064C2.44353 15.9741 1.5 13.5967 1.5 11C1.5 5.20101 6.20101 0.5 12 0.5C17.799 0.5 22.5 5.20101 22.5 11C22.5 13.5967 21.5565 15.9741 19.9954 17.8064L21.4363 21.6489C21.5515 21.956 21.5087 22.3 21.3219 22.5696C21.1351 22.8392 20.828 23 20.5 23H3.50001C3.17203 23 2.8649 22.8392 2.67808 22.5696C2.49126 22.3 2.44852 21.956 2.56368 21.6489L4.00461 17.8064ZM3.5 11C3.5 6.30558 7.30558 2.5 12 2.5C16.6944 2.5 20.5 6.30558 20.5 11C20.5 13.3419 19.554 15.4616 18.0208 17H5.97919C4.44596 15.4616 3.5 13.3419 3.5 11ZM5.69301 19L4.94301 21H19.057L18.307 19H5.69301Z" fill="#080809" style="fill:#080809;fill:color(display-p3 0.0314 0.0314 0.0353);fill-opacity:1;"/>
</svg>
