<svg width="24" height="24" viewBox="0 0 24 24" fill="none" xmlns="http://www.w3.org/2000/svg">
<g clip-path="url(#clip0_29901_28531)">
<path fill-rule="evenodd" clip-rule="evenodd" d="M22.9433 13.7676C23.9196 12.7913 23.9196 11.2084 22.9433 10.2321L21.0007 8.28952V5.49971C21.0007 4.119 19.8814 2.99971 18.5007 2.99971H15.7109L13.7676 1.05645C12.7913 0.0801437 11.2084 0.080138 10.2321 1.05645L8.28883 2.99971H5.50069C4.11998 2.99971 3.00069 4.119 3.00069 5.49971V8.28785L1.05645 10.2321C0.080143 11.2084 0.0801392 12.7913 1.05645 13.7676L3.00069 15.7119V18.4997C3.00069 19.8804 4.11998 20.9997 5.50069 20.9997H8.28854L10.2321 22.9433C11.2084 23.9196 12.7913 23.9196 13.7676 22.9433L15.7112 20.9997H18.5007C19.8814 20.9997 21.0007 19.8804 21.0007 18.4997V15.7102L22.9433 13.7676ZM16.2081 9.20711C16.5986 8.81658 16.5986 8.18342 16.2081 7.79289C15.8176 7.40237 15.1844 7.40237 14.7939 7.79289L7.79387 14.7929C7.40335 15.1834 7.40335 15.8166 7.79387 16.2071C8.18439 16.5976 8.81756 16.5976 9.20808 16.2071L16.2081 9.20711ZM10.501 9C10.501 9.82843 9.8294 10.5 9.00098 10.5C8.17255 10.5 7.50098 9.82843 7.50098 9C7.50098 8.17157 8.17255 7.5 9.00098 7.5C9.8294 7.5 10.501 8.17157 10.501 9ZM15.001 16.5C15.8294 16.5 16.501 15.8284 16.501 15C16.501 14.1716 15.8294 13.5 15.001 13.5C14.1725 13.5 13.501 14.1716 13.501 15C13.501 15.8284 14.1725 16.5 15.001 16.5Z" fill="#080809" style="fill:#080809;fill:color(display-p3 0.0314 0.0314 0.0353);fill-opacity:1;"/>
</g>
<defs>
<clipPath id="clip0_29901_28531">
<rect width="24" height="24" fill="white" style="fill:white;fill-opacity:1;"/>
</clipPath>
</defs>
</svg>
