<svg width="24" height="24" viewBox="0 0 24 24" fill="none" xmlns="http://www.w3.org/2000/svg">
<path d="M8.62207 9.75C9.10515 9.7502 9.49707 10.1419 9.49707 10.625C9.49707 11.1081 9.10515 11.4998 8.62207 11.5H6.49707V9.75H8.62207Z" fill="#080809" style="fill:#080809;fill:color(display-p3 0.0314 0.0314 0.0353);fill-opacity:1;"/>
<path fill-rule="evenodd" clip-rule="evenodd" d="M14.5 3C16.3573 3 17.8511 2.99779 19.0225 3.15528C20.2226 3.31664 21.2326 3.66232 22.0352 4.46485C22.8377 5.26737 23.1834 6.27745 23.3447 7.47754C23.5022 8.64892 23.5 10.1427 23.5 12C23.5 13.8573 23.5022 15.3511 23.3447 16.5225C23.1834 17.7226 22.8377 18.7326 22.0352 19.5352C21.2326 20.3377 20.2226 20.6834 19.0225 20.8447C17.8511 21.0022 16.3573 21 14.5 21H9.5C7.64266 21 6.14892 21.0022 4.97754 20.8447C3.77745 20.6834 2.76737 20.3377 1.96485 19.5352C1.16232 18.7326 0.816636 17.7226 0.655275 16.5225C0.497789 15.3511 0.500002 13.8573 0.500002 12C0.500002 10.1427 0.497788 8.64892 0.655275 7.47754C0.816637 6.27745 1.16232 5.26737 1.96485 4.46485C2.76737 3.66232 3.77745 3.31664 4.97754 3.15528C6.14892 2.99779 7.64266 3 9.5 3H14.5ZM5.49707 7.75C4.9794 7.75 4.5533 8.14334 4.50195 8.64746L4.49707 8.75V15.2451C4.49707 15.7974 4.94479 16.2451 5.49707 16.2451C6.04926 16.245 6.49707 15.7973 6.49707 15.2451V13.5H7.99024L9.68848 15.8379C10.0131 16.2843 10.6383 16.383 11.085 16.0586C11.5314 15.734 11.6309 15.1088 11.3066 14.6621L10.1436 13.0605C10.9552 12.5524 11.4971 11.6532 11.4971 10.625C11.4971 9.0373 10.2097 7.7502 8.62207 7.75H5.49707ZM14.0029 7.75C13.4853 7.75 13.0591 8.14333 13.0078 8.64746L13.0029 8.75V15.2451C13.0029 15.7974 13.4506 16.2451 14.0029 16.2451C14.5552 16.2451 15.0029 15.7974 15.0029 15.2451V13.498H18C18.5523 13.498 19 13.0503 19 12.498C19 11.9458 18.5523 11.498 18 11.498H15.0029V9.75H19.0029C19.5552 9.75 20.0029 9.30229 20.0029 8.75C20.0029 8.19772 19.5552 7.75 19.0029 7.75H14.0029Z" fill="#080809" style="fill:#080809;fill:color(display-p3 0.0314 0.0314 0.0353);fill-opacity:1;"/>
</svg>
