<svg width="24" height="24" viewBox="0 0 24 24" fill="none" xmlns="http://www.w3.org/2000/svg">
<path d="M9.99902 5C11.1036 5 11.999 4.10457 11.999 3C11.999 1.89543 11.1036 1 9.99902 1C8.89445 1 7.99902 1.89543 7.99902 3C7.99902 4.10457 8.89445 5 9.99902 5Z" fill="#080809" style="fill:#080809;fill:color(display-p3 0.0314 0.0314 0.0353);fill-opacity:1;"/>
<path d="M3.92425 9.72544L8.72559 7.87877L17.1023 12.715L15.6486 16.4945L3.92425 9.72544Z" fill="#080809" style="fill:#080809;fill:color(display-p3 0.0314 0.0314 0.0353);fill-opacity:1;"/>
<path d="M18.9162 7.99888L17.8291 10.8253L11.1263 6.95542L16.0001 5.08089C15.9994 5.05401 15.999 5.02705 15.999 5C15.999 3.34315 17.3422 2 18.999 2C20.6559 2 21.999 3.34315 21.999 5C21.999 6.65685 20.6559 8 18.999 8C18.9713 8 18.9437 7.99962 18.9162 7.99888Z" fill="#080809" style="fill:#080809;fill:color(display-p3 0.0314 0.0314 0.0353);fill-opacity:1;"/>
<path d="M1.9225 10.8791L14.9218 18.3843L13.9656 20.8704C13.1863 22.8967 10.5793 23.4499 9.04423 21.9148L2.0828 14.9534C0.919636 13.7902 0.955421 12.0117 1.9225 10.8791Z" fill="#080809" style="fill:#080809;fill:color(display-p3 0.0314 0.0314 0.0353);fill-opacity:1;"/>
<path d="M21.499 15C22.3274 15 22.999 14.3284 22.999 13.5C22.999 12.6716 22.3274 12 21.499 12C20.6706 12 19.999 12.6716 19.999 13.5C19.999 14.3284 20.6706 15 21.499 15Z" fill="#080809" style="fill:#080809;fill:color(display-p3 0.0314 0.0314 0.0353);fill-opacity:1;"/>
<path d="M5.99902 6C5.99902 6.55228 5.55131 7 4.99902 7C4.44674 7 3.99902 6.55228 3.99902 6C3.99902 5.44772 4.44674 5 4.99902 5C5.55131 5 5.99902 5.44772 5.99902 6Z" fill="#080809" style="fill:#080809;fill:color(display-p3 0.0314 0.0314 0.0353);fill-opacity:1;"/>
</svg>
