<svg width="24" height="24" viewBox="0 0 24 24" fill="none" xmlns="http://www.w3.org/2000/svg">
<path fill-rule="evenodd" clip-rule="evenodd" d="M10.4998 0.5C9.11892 0.5 8 1.61946 8 3V4H5C3.34315 4 2 5.34315 2 7V12C2 13.0144 2.37764 13.9407 3 14.6458V19C3 21.2091 4.79086 23 7 23H17C19.2091 23 21 21.2091 21 19V14.6458C21.6224 13.9407 22 13.0144 22 12V7C22 5.34315 20.6569 4 19 4H16V3C16 1.61968 14.8816 0.5 13.5005 0.5H10.4998ZM15 6H9V14H15V6ZM17 14V6H19C19.5523 6 20 6.44772 20 7V12C20 13.1046 19.1046 14 18 14H17ZM15 16V17C15 17.5523 15.4477 18 16 18C16.5523 18 17 17.5523 17 17V16H18C18.3453 16 18.6804 15.9562 19 15.874V19C19 20.1046 18.1046 21 17 21H7C5.89543 21 5 20.1046 5 19V15.874C5.31962 15.9562 5.6547 16 6 16H7V17C7 17.5523 7.44772 18 8 18C8.55228 18 9 17.5523 9 17V16H15ZM5 6H7V14H6C4.89543 14 4 13.1046 4 12V7C4 6.44772 4.44772 6 5 6ZM14 4V3C14 2.72346 13.7762 2.5 13.5005 2.5H10.4998C10.2238 2.5 10 2.72369 10 3V4H14Z" fill="#080809" style="fill:#080809;fill:color(display-p3 0.0314 0.0314 0.0353);fill-opacity:1;"/>
</svg>
