<svg width="24" height="24" viewBox="0 0 24 24" fill="none" xmlns="http://www.w3.org/2000/svg">
<g clip-path="url(#clip0_29901_28352)">
<path fill-rule="evenodd" clip-rule="evenodd" d="M0.5 12C0.5 5.64873 5.64873 0.5 12 0.5C18.3513 0.5 23.5 5.64873 23.5 12C23.5 18.3513 18.3513 23.5 12 23.5C5.64873 23.5 0.5 18.3513 0.5 12ZM13.7934 5.29289C13.4028 5.68342 13.4028 6.31658 13.7934 6.70711L14.5863 7.50002L7.5 7.5C6.94772 7.5 6.5 7.94771 6.5 8.5C6.5 9.05228 6.94771 9.5 7.5 9.5L14.5862 9.50002L13.7934 10.2929C13.4028 10.6834 13.4028 11.3166 13.7934 11.7071C14.1839 12.0976 14.817 12.0976 15.2076 11.7071L16.6469 10.2678C17.6232 9.29145 17.6232 7.70854 16.6469 6.73223L15.2076 5.29289C14.817 4.90237 14.1839 4.90237 13.7934 5.29289ZM10.2076 12.2929C10.5981 12.6834 10.5981 13.3166 10.2076 13.7071L9.41468 14.5H16.5002C17.0525 14.5 17.5002 14.9477 17.5002 15.5C17.5002 16.0523 17.0525 16.5 16.5002 16.5H9.41468L10.2076 17.2929C10.5981 17.6834 10.5981 18.3166 10.2076 18.7071C9.81705 19.0976 9.18388 19.0976 8.79336 18.7071L7.35401 17.2678C6.3777 16.2915 6.37771 14.7085 7.35402 13.7322L8.79336 12.2929C9.18388 11.9024 9.81705 11.9024 10.2076 12.2929Z" fill="#080809" style="fill:#080809;fill:color(display-p3 0.0314 0.0314 0.0353);fill-opacity:1;"/>
</g>
<defs>
<clipPath id="clip0_29901_28352">
<rect width="24" height="24" fill="white" style="fill:white;fill-opacity:1;"/>
</clipPath>
</defs>
</svg>
