<svg width="24" height="24" viewBox="0 0 24 24" fill="none" xmlns="http://www.w3.org/2000/svg">
<path d="M7 11C6.44772 11 6 11.4477 6 12C6 12.5523 6.44772 13 7 13L17 13C17.5523 13 18 12.5523 18 12C18 11.4477 17.5523 11 17 11L7 11Z" fill="#080809" style="fill:#080809;fill:color(display-p3 0.0314 0.0314 0.0353);fill-opacity:1;"/>
<path fill-rule="evenodd" clip-rule="evenodd" d="M15.3137 1H8.68629C7.89064 1 7.12758 1.31607 6.56497 1.87868L1.87868 6.56497C1.31607 7.12758 1 7.89064 1 8.68629V15.3137C1 16.1094 1.31607 16.8724 1.87868 17.435L6.56497 22.1213C7.12758 22.6839 7.89064 23 8.68629 23H15.3137C16.1094 23 16.8724 22.6839 17.435 22.1213L22.1213 17.435C22.6839 16.8724 23 16.1094 23 15.3137V8.68629C23 7.89064 22.6839 7.12758 22.1213 6.56497L17.435 1.87868C16.8724 1.31607 16.1094 1 15.3137 1ZM8.68629 3H15.3137C15.5789 3 15.8333 3.10536 16.0208 3.29289L20.7071 7.97918C20.8946 8.16672 21 8.42107 21 8.68629V15.3137C21 15.5789 20.8946 15.8333 20.7071 16.0208L16.0208 20.7071C15.8333 20.8946 15.5789 21 15.3137 21H8.68629C8.42108 21 8.16672 20.8946 7.97919 20.7071L3.29289 16.0208C3.10536 15.8333 3 15.5789 3 15.3137L3 8.68629C3 8.42108 3.10536 8.16672 3.29289 7.97919L7.97918 3.29289C8.16672 3.10536 8.42108 3 8.68629 3Z" fill="#080809" style="fill:#080809;fill:color(display-p3 0.0314 0.0314 0.0353);fill-opacity:1;"/>
</svg>
