<svg width="24" height="24" viewBox="0 0 24 24" fill="none" xmlns="http://www.w3.org/2000/svg">
<path fill-rule="evenodd" clip-rule="evenodd" d="M9 4.49988C7.61929 4.49988 6.5 5.61917 6.5 6.99988V16.9999C6.5 18.3806 7.61929 19.4999 9 19.4999H15C16.3807 19.4999 17.5 18.3806 17.5 16.9999V6.99988C17.5 5.61917 16.3807 4.49988 15 4.49988H9ZM8.5 6.99988C8.5 6.72374 8.72386 6.49988 9 6.49988H15C15.2761 6.49988 15.5 6.72374 15.5 6.99988V16.9999C15.5 17.276 15.2761 17.4999 15 17.4999H9C8.72386 17.4999 8.5 17.276 8.5 16.9999V6.99988Z" fill="#080809" style="fill:#080809;fill:color(display-p3 0.0314 0.0314 0.0353);fill-opacity:1;"/>
<path fill-rule="evenodd" clip-rule="evenodd" d="M14.1611 0.838154C12.781 0.246657 11.2187 0.246657 9.83853 0.838154C8.97736 1.20723 8.00388 1.21418 7.13753 0.857446L6.84628 0.737523C3.75327 -0.536072 0.736576 2.70942 2.23249 5.70124L3.02035 7.27697C3.26906 7.77439 3.29943 8.35291 3.10416 8.87364L2.45851 10.5954C2.11893 11.5009 2.11893 12.4988 2.45851 13.4043L3.10416 15.1261C3.29943 15.6468 3.26906 16.2253 3.02035 16.7227L2.23249 18.2985C0.736574 21.2903 3.75327 24.5358 6.84628 23.2622L7.13753 23.1423C8.00388 22.7855 8.97736 22.7925 9.83853 23.1615C11.2187 23.753 12.781 23.753 14.1611 23.1615C15.0223 22.7925 15.9958 22.7855 16.8621 23.1423L17.1534 23.2622C20.2464 24.5358 23.2631 21.2903 21.7672 18.2985L20.9793 16.7227C20.7306 16.2253 20.7002 15.6468 20.8955 15.1261L21.5411 13.4043C21.8807 12.4988 21.8807 11.5009 21.5411 10.5954L20.8955 8.87364C20.7002 8.35291 20.7306 7.77439 20.9793 7.27697L21.7672 5.70124C23.2631 2.70941 20.2464 -0.536071 17.1534 0.737523L16.8621 0.857446C15.9958 1.21418 15.0223 1.20723 14.1611 0.838154ZM10.6264 2.67644C11.5034 2.30056 12.4962 2.30056 13.3733 2.67644C14.7284 3.25723 16.2603 3.26817 17.6236 2.7068L17.9149 2.58688C19.2982 2.01729 20.6473 3.46878 19.9783 4.80682L19.1904 6.38254C18.693 7.37739 18.6323 8.53443 19.0228 9.57589L19.6685 11.2976C19.8383 11.7504 19.8383 12.2493 19.6685 12.7021L19.0228 14.4238C18.6323 15.4653 18.693 16.6223 19.1905 17.6172L19.9783 19.1929C20.6473 20.5309 19.2982 21.9824 17.9149 21.4128L17.6236 21.2929C16.2603 20.7315 14.7284 20.7425 13.3733 21.3233C12.4962 21.6991 11.5034 21.6991 10.6264 21.3233C9.27121 20.7425 7.73934 20.7315 6.37603 21.2929L6.08478 21.4128C4.70148 21.9824 3.35232 20.5309 4.02134 19.1929L4.80921 17.6172C5.30663 16.6223 5.36736 15.4653 4.97681 14.4238L4.33117 12.7021C4.16138 12.2493 4.16138 11.7504 4.33117 11.2976L4.97681 9.57589C5.36736 8.53443 5.30663 7.37739 4.80921 6.38254L4.02134 4.80682C3.35232 3.46877 4.70149 2.01729 6.08478 2.58688L6.37603 2.7068C7.73934 3.26817 9.27121 3.25723 10.6264 2.67644Z" fill="#080809" style="fill:#080809;fill:color(display-p3 0.0314 0.0314 0.0353);fill-opacity:1;"/>
</svg>
