<svg width="24" height="24" viewBox="0 0 24 24" fill="none" xmlns="http://www.w3.org/2000/svg">
<path d="M5.29297 0.293137C5.68349 -0.0973869 6.31651 -0.0973869 6.70703 0.293137C7.0974 0.683675 7.0975 1.31673 6.70703 1.7072L6.41406 2.00017H12C17.5228 2.00017 22 6.47732 22 12.0002C21.9999 17.523 17.5228 22.0002 12 22.0002C6.47718 22.0002 2.00005 17.523 2 12.0002C2 11.4479 2.44772 11.0002 3 11.0002C3.55228 11.0002 4 11.4479 4 12.0002C4.00005 16.4184 7.58175 20.0002 12 20.0002C16.4182 20.0002 19.9999 16.4184 20 12.0002C20 7.58189 16.4183 4.00017 12 4.00017H6.41406L6.70703 4.29314L6.77539 4.36931C7.09559 4.76208 7.07309 5.34114 6.70703 5.7072C6.34097 6.07325 5.76191 6.09576 5.36914 5.77556L5.29297 5.7072L3.64648 4.06072C3.06075 3.47494 3.06076 2.5254 3.64648 1.93962L5.29297 0.293137Z" fill="#080809" style="fill:#080809;fill:color(display-p3 0.0314 0.0314 0.0353);fill-opacity:1;"/>
<path d="M9.0459 8.55193C9.4688 8.55193 9.83648 8.62472 10.1484 8.77165C10.4604 8.91565 10.702 9.11251 10.873 9.3615C11.044 9.6075 11.1299 9.8855 11.1299 10.1945C11.1298 10.5273 11.0317 10.8224 10.8369 11.0802C10.6419 11.3382 10.3779 11.5295 10.0449 11.6525C10.4768 11.7575 10.81 11.9563 11.0439 12.2502C11.2779 12.5411 11.3944 12.8818 11.3945 13.2717C11.3945 13.6437 11.2929 13.9711 11.0889 14.2531C10.8879 14.532 10.6061 14.7513 10.2432 14.9103C9.88316 15.0693 9.4643 15.1486 8.9873 15.1486C8.54338 15.1486 8.12627 15.0768 7.73633 14.9328C7.34636 14.7888 6.99836 14.5817 6.69238 14.3117L7.2998 13.3849C7.54879 13.5889 7.8147 13.7354 8.09668 13.8254C8.37848 13.9123 8.64373 13.9562 8.89258 13.9562C9.23458 13.9562 9.50513 13.8825 9.70312 13.7355C9.90394 13.5856 10.0048 13.3773 10.0049 13.1105C10.0049 12.8615 9.90224 12.6675 9.69824 12.5295C9.4943 12.3886 9.17954 12.3186 8.75391 12.3185H8.1416V11.2023H8.62793C8.97872 11.2023 9.25046 11.1313 9.44238 10.9904C9.63716 10.8494 9.73438 10.6618 9.73438 10.4279C9.73433 10.2 9.64759 10.0273 9.47363 9.91033C9.29964 9.79333 9.0804 9.73552 8.81641 9.73552C8.55544 9.73553 8.30352 9.78776 8.06055 9.89275C7.82056 9.99475 7.60878 10.1328 7.42578 10.3068L6.82715 9.38884C7.13315 9.11884 7.4774 8.91175 7.8584 8.76775C8.23928 8.62383 8.63504 8.55194 9.0459 8.55193Z" fill="#080809" style="fill:#080809;fill:color(display-p3 0.0314 0.0314 0.0353);fill-opacity:1;"/>
<path fill-rule="evenodd" clip-rule="evenodd" d="M14.6562 8.55193C15.4512 8.55197 16.0688 8.84301 16.5098 9.42497C16.9537 10.0039 17.1757 10.812 17.1758 11.8498C17.1758 12.8878 16.9538 13.6984 16.5098 14.2804C16.0688 14.8591 15.451 15.1486 14.6562 15.1486C13.8614 15.1486 13.2418 14.8592 12.7979 14.2804C12.3569 13.6984 12.1357 12.8878 12.1357 11.8498C12.1358 10.812 12.357 10.0039 12.7979 9.42497C13.2419 8.84297 13.8612 8.55193 14.6562 8.55193ZM14.6562 9.74431C14.2873 9.74431 14.0065 9.92248 13.8145 10.2795C13.6225 10.6364 13.5264 11.1599 13.5264 11.8498C13.5264 12.5395 13.6226 13.0631 13.8145 13.4201C14.0065 13.7771 14.2873 13.9562 14.6562 13.9562C15.0252 13.9562 15.3061 13.777 15.498 13.4201C15.6898 13.0631 15.7852 12.5394 15.7852 11.8498C15.7851 11.16 15.69 10.6364 15.498 10.2795C15.3061 9.92252 15.0252 9.74436 14.6562 9.74431Z" fill="#080809" style="fill:#080809;fill:color(display-p3 0.0314 0.0314 0.0353);fill-opacity:1;"/>
</svg>
