<svg width="24" height="24" viewBox="0 0 24 24" fill="none" xmlns="http://www.w3.org/2000/svg">
<path fill-rule="evenodd" clip-rule="evenodd" d="M14.5732 3H9.42684C7.6034 2.99997 6.13362 2.99995 4.97767 3.15537C3.77752 3.31672 2.76702 3.66191 1.96447 4.46447C1.16191 5.26702 0.816722 6.27752 0.655367 7.47767C0.499954 8.63362 0.499975 10.1034 0.500001 11.9268V12.0732C0.499975 13.8966 0.499954 15.3664 0.655367 16.5223C0.816722 17.7225 1.16191 18.733 1.96447 19.5355C2.76702 20.3381 3.77752 20.6833 4.97767 20.8446C6.13363 21.0001 7.6034 21 9.42687 21H14.5731C16.3966 21 17.8664 21.0001 19.0223 20.8446C20.2225 20.6833 21.233 20.3381 22.0355 19.5355C22.8381 18.733 23.1833 17.7225 23.3446 16.5223C23.5001 15.3664 23.5 13.8966 23.5 12.0731V11.9269C23.5 10.1034 23.5001 8.63363 23.3446 7.47767C23.1833 6.27752 22.8381 5.26702 22.0355 4.46447C21.233 3.66191 20.2225 3.31672 19.0223 3.15537C17.8664 2.99995 16.3966 2.99997 14.5732 3ZM10.9961 9.13176C10.6866 8.9549 10.3064 8.95617 9.99807 9.13509C9.68976 9.31401 9.5 9.64353 9.5 10V14C9.5 14.3565 9.68976 14.686 9.99807 14.8649C10.3064 15.0438 10.6866 15.0451 10.9961 14.8682L14.4961 12.8682C14.8077 12.6902 15 12.3589 15 12C15 11.6411 14.8077 11.3098 14.4961 11.1318L10.9961 9.13176Z" fill="#080809" style="fill:#080809;fill:color(display-p3 0.0314 0.0314 0.0353);fill-opacity:1;"/>
</svg>
