<svg width="24" height="24" viewBox="0 0 24 24" fill="none" xmlns="http://www.w3.org/2000/svg">
<path fill-rule="evenodd" clip-rule="evenodd" d="M12 0.5C9.23858 0.5 7 2.73858 7 5.5V9.07187C6.85278 9.08496 6.71109 9.10045 6.57494 9.11875C5.64711 9.2435 4.82769 9.51547 4.17158 10.1716C3.51547 10.8277 3.2435 11.6471 3.11876 12.5749C2.99994 13.4587 2.99997 14.5753 3 15.9294V16.0706C2.99997 17.4247 2.99994 18.5413 3.11876 19.4251C3.2435 20.3529 3.51547 21.1723 4.17158 21.8284C4.82769 22.4845 5.64711 22.7565 6.57494 22.8813C7.4587 23.0001 8.57531 23 9.92943 23H14.0706C15.4247 23 16.5413 23.0001 17.4251 22.8813C18.3529 22.7565 19.1723 22.4845 19.8284 21.8284C20.4845 21.1723 20.7565 20.3529 20.8813 19.4251C21.0001 18.5413 21 17.4247 21 16.0706V15.9295C21 14.5753 21.0001 13.4587 20.8813 12.5749C20.7565 11.6471 20.4845 10.8277 19.8284 10.1716C19.1723 9.51547 18.3529 9.2435 17.4251 9.11875C17.2889 9.10045 17.1472 9.08496 17 9.07187V5.5C17 2.73858 14.7614 0.5 12 0.5ZM14.1649 9H15V5.5C15 3.84315 13.6569 2.5 12 2.5C10.3431 2.5 9 3.84315 9 5.5V9H9.83514C9.86644 9 9.89786 9 9.92942 9H14.0706C14.1021 9 14.1336 9 14.1649 9ZM5.58579 11.5858C5.80836 11.3632 6.13538 11.1958 6.84144 11.1009C7.57626 11.0021 8.55752 11 10 11H14C15.4425 11 16.4238 11.0021 17.1586 11.1009C17.8646 11.1958 18.1916 11.3632 18.4142 11.5858C18.6368 11.8084 18.8042 12.1354 18.8991 12.8414C18.9979 13.5763 19 14.5575 19 16C19 17.4425 18.9979 18.4238 18.8991 19.1586C18.8042 19.8646 18.6368 20.1916 18.4142 20.4142C18.1916 20.6368 17.8646 20.8042 17.1586 20.8991C16.4238 20.9979 15.4425 21 14 21H10C8.55752 21 7.57626 20.9979 6.84144 20.8991C6.13538 20.8042 5.80836 20.6368 5.58579 20.4142C5.36322 20.1916 5.19585 19.8646 5.10092 19.1586C5.00213 18.4238 5 17.4425 5 16C5 14.5575 5.00213 13.5763 5.10092 12.8414C5.19585 12.1354 5.36322 11.8084 5.58579 11.5858Z" fill="#080809" style="fill:#080809;fill:color(display-p3 0.0314 0.0314 0.0353);fill-opacity:1;"/>
</svg>
