<svg width="24" height="24" viewBox="0 0 24 24" fill="none" xmlns="http://www.w3.org/2000/svg">
<path d="M14.2695 3.43532C13.376 1.49812 10.6227 1.49812 9.7292 3.43532L8.20655 6.73645L4.59647 7.16449C2.478 7.41567 1.6272 10.0341 3.19343 11.4825L5.86249 13.9508L5.15399 17.5166C4.73824 19.609 6.96565 21.2273 8.82717 20.1853L11.9993 18.4096L15.1715 20.1853C17.033 21.2273 19.2605 19.609 18.8447 17.5166L18.1362 13.9508L20.8053 11.4825C22.3715 10.0341 21.5207 7.41567 19.4022 7.16449L15.7921 6.73645L14.2695 3.43532Z" fill="#080809" style="fill:#080809;fill:color(display-p3 0.0314 0.0314 0.0353);fill-opacity:1;"/>
<path d="M6.60924 2.82095C6.28461 2.37415 5.65924 2.2751 5.21243 2.59972C4.76562 2.92434 4.66657 3.54971 4.9912 3.99651L5.57899 4.80553C5.90361 5.25233 6.52899 5.35138 6.9758 5.02676C7.42261 4.70214 7.52165 4.07677 7.19703 3.62997L6.60924 2.82095Z" fill="#080809" style="fill:#080809;fill:color(display-p3 0.0314 0.0314 0.0353);fill-opacity:1;"/>
<path d="M18.7915 2.60145C19.2383 2.92608 19.3374 3.55144 19.0128 3.99825L18.425 4.80726C18.1003 5.25407 17.475 5.35312 17.0282 5.02849C16.5814 4.70387 16.4823 4.07851 16.8069 3.6317L17.3947 2.82269C17.7193 2.37588 18.3447 2.27683 18.7915 2.60145Z" fill="#080809" style="fill:#080809;fill:color(display-p3 0.0314 0.0314 0.0353);fill-opacity:1;"/>
<path d="M12.0001 20.5C12.5524 20.5 13.0001 20.9477 13.0001 21.5V22.499C13.0001 23.0513 12.5524 23.499 12.0001 23.499C11.4478 23.499 11.0001 23.0513 11.0001 22.499V21.5C11.0001 20.9477 11.4478 20.5 12.0001 20.5Z" fill="#080809" style="fill:#080809;fill:color(display-p3 0.0314 0.0314 0.0353);fill-opacity:1;"/>
<path d="M3.86282 14.5897C4.03348 15.115 3.74603 15.6791 3.22078 15.8498L2.27413 16.1574C1.74888 16.3281 1.18472 16.0406 1.01406 15.5153C0.843392 14.9901 1.13084 14.4259 1.6561 14.2553L2.60274 13.9477C3.128 13.777 3.69215 14.0645 3.86282 14.5897Z" fill="#080809" style="fill:#080809;fill:color(display-p3 0.0314 0.0314 0.0353);fill-opacity:1;"/>
<path d="M21.3797 13.9477C20.8544 13.777 20.2903 14.0644 20.1196 14.5897C19.9489 15.1149 20.2364 15.6791 20.7617 15.8498L21.7083 16.1573C22.2336 16.328 22.7977 16.0406 22.9684 15.5153C23.139 14.9901 22.8516 14.4259 22.3263 14.2552L21.3797 13.9477Z" fill="#080809" style="fill:#080809;fill:color(display-p3 0.0314 0.0314 0.0353);fill-opacity:1;"/>
</svg>
