<svg width="24" height="24" viewBox="0 0 24 24" fill="none" xmlns="http://www.w3.org/2000/svg">
<path d="M9.95845 1.64958C10.116 2.17892 9.81459 2.73575 9.28525 2.89329C5.36038 4.06138 2.5 7.69797 2.5 12C2.5 12.76 2.58903 13.4978 2.7568 14.2042C2.88441 14.7416 2.55226 15.2806 2.01492 15.4082C1.47758 15.5358 0.938528 15.2037 0.810917 14.6664C0.607461 13.8096 0.5 12.9167 0.5 12C0.5 6.789 3.96516 2.38993 8.71475 0.976379C9.24409 0.81884 9.80091 1.12024 9.95845 1.64958Z" fill="#080809" style="fill:#080809;fill:color(display-p3 0.0314 0.0314 0.0353);fill-opacity:1;"/>
<path d="M14.0415 1.64958C14.1991 1.12024 14.7559 0.81884 15.2852 0.976379C20.0348 2.38993 23.5 6.789 23.5 12C23.5 12.9164 23.3926 13.8091 23.1893 14.6655C23.0617 15.2029 22.5227 15.5351 21.9853 15.4075C21.448 15.2799 21.1158 14.7409 21.2434 14.2036C21.411 13.4974 21.5 12.7597 21.5 12C21.5 7.69797 18.6396 4.06138 14.7148 2.89329C14.1854 2.73575 13.884 2.17892 14.0415 1.64958Z" fill="#080809" style="fill:#080809;fill:color(display-p3 0.0314 0.0314 0.0353);fill-opacity:1;"/>
<path d="M19.9406 18.9422C20.3201 19.3435 20.3025 19.9764 19.9013 20.3559C17.8418 22.304 15.0595 23.5 12 23.5C8.94082 23.5 6.15878 22.3042 4.09935 20.3565C3.6981 19.977 3.68045 19.3441 4.05994 18.9428C4.43943 18.5415 5.07235 18.5239 5.4736 18.9034C7.1765 20.5139 9.47201 21.5 12 21.5C14.5282 21.5 16.824 20.5137 18.5269 18.9029C18.9281 18.5234 19.561 18.541 19.9406 18.9422Z" fill="#080809" style="fill:#080809;fill:color(display-p3 0.0314 0.0314 0.0353);fill-opacity:1;"/>
<path d="M12 5C8.13401 5 5 8.13401 5 12C5 15.866 8.13401 19 12 19C15.866 19 19 15.866 19 12C19 8.13401 15.866 5 12 5Z" fill="#080809" style="fill:#080809;fill:color(display-p3 0.0314 0.0314 0.0353);fill-opacity:1;"/>
</svg>
