<svg width="24" height="24" viewBox="0 0 24 24" fill="none" xmlns="http://www.w3.org/2000/svg">
<path fill-rule="evenodd" clip-rule="evenodd" d="M12.7274 4.77796C14.0369 3.52326 15.5013 2.96794 17.2689 3.00143C20.456 3.06181 23.5613 5.56056 23.4992 9.66971C23.4679 11.8457 22.5867 13.8372 21.3061 15.5889L21.2919 15.608L20.5655 16.5536C20.5354 17.2341 20.2598 17.9045 19.7429 18.4215L19.707 18.4573C19.2318 18.9326 18.6267 19.1989 18.006 19.2563C17.9487 19.877 17.6824 20.4822 17.2071 20.9575C16.4153 21.7493 15.263 21.961 14.2784 21.5927C14.1478 21.8632 13.9703 22.1168 13.7458 22.3413L13.3923 22.6948C12.3183 23.7688 10.5771 23.7688 9.50317 22.6948C9.18333 22.375 8.95875 21.996 8.82942 21.593C7.98205 21.7354 7.08083 21.4796 6.42697 20.8257C5.95643 20.3552 5.69205 19.7566 5.63384 19.1421C5.02012 19.0835 4.42234 18.8192 3.95236 18.3492C3.36053 17.7573 3.09485 16.9629 3.15531 16.1891C1.62239 14.2871 0.535873 12.0932 0.500922 9.67014C0.438622 5.55945 3.54459 3.06497 6.73101 3.00469C7.97708 2.98111 9.09829 3.2481 10.1324 3.88726C10.8029 4.30168 11.4089 4.85541 11.9783 5.5388L12.7065 4.79866C12.7134 4.79166 12.7204 4.78476 12.7274 4.77796ZM14.1214 6.21223L10.191 10.2071C10.0346 10.3661 10.0356 10.6214 10.1933 10.779C10.3234 10.9091 10.5247 10.9355 10.6839 10.8433L12.0832 10.0331C13.52 9.2013 15.3435 9.49335 16.4487 10.7323L19.708 14.3861C20.8188 12.8599 21.476 11.271 21.4994 9.64097C21.5042 9.32401 21.4833 9.02162 21.4394 8.73431C21.0796 6.37901 19.1749 5.03789 17.231 5.00107C16.2699 4.98286 15.4838 5.19318 14.7507 5.69677C14.5374 5.84325 14.3287 6.01454 14.1214 6.21223ZM4.18102 14.2314C3.14172 12.7586 2.52339 11.2191 2.50071 9.64095C2.45639 6.72584 4.58711 5.04561 6.76884 5.00433C7.68325 4.98703 8.4157 5.1774 9.08083 5.58852C9.57269 5.89253 10.0613 6.33807 10.5672 6.97305L8.76531 8.80447C7.83872 9.74625 7.84487 11.259 8.77909 12.1932C9.54987 12.964 10.7426 13.1203 11.6859 12.5742L13.0853 11.764C13.6773 11.4213 14.4224 11.5237 14.9 12.0039L18.3607 15.884C18.6494 16.2078 18.6353 16.7006 18.3286 17.0073L18.2927 17.0432C17.993 17.343 17.5069 17.343 17.2072 17.0432L15.9571 15.7932C15.5665 15.4027 14.9334 15.4028 14.5429 15.7933C14.1524 16.1838 14.1524 16.817 14.5429 17.2075L15.7929 18.4574C16.0927 18.7572 16.0928 19.2434 15.7929 19.5432C15.4931 19.8431 15.0069 19.8431 14.7071 19.5432C14.3598 19.1959 14.0897 18.796 13.7458 18.4522C13.2029 17.9093 12.4894 17.6408 11.7779 17.6468C11.6769 17.1276 11.4254 16.6318 11.0232 16.2295C10.5532 15.7596 9.95539 15.4952 9.34167 15.4366C9.28346 14.8221 9.01909 14.2235 8.54855 13.753C7.47461 12.679 5.7334 12.679 4.65946 13.753L4.18102 14.2314ZM10.8708 20.271C11.0049 20.1369 11.1368 20.0005 11.2709 19.8664C11.5638 19.5735 12.0387 19.5735 12.3316 19.8664C12.6245 20.1593 12.6245 20.6342 12.3316 20.9271L11.978 21.2806C11.6852 21.5735 11.2103 21.5735 10.9174 21.2806C10.641 21.0042 10.6254 20.5657 10.8708 20.271ZM9.65556 18.6534C9.90091 18.3587 9.88538 17.9202 9.60895 17.6438C9.31605 17.3509 8.84118 17.3509 8.54829 17.6438L7.84118 18.3509C7.54829 18.6438 7.54829 19.1186 7.84118 19.4115C8.13407 19.7044 8.60895 19.7044 8.90184 19.4115C9.15386 19.1595 9.40358 18.9053 9.65556 18.6534ZM6.07368 15.1672C6.36657 14.8743 6.84144 14.8743 7.13434 15.1672C7.42723 15.4601 7.42723 15.935 7.13434 16.2279L6.42723 16.935C6.13434 17.2279 5.65946 17.2279 5.36657 16.935C5.07368 16.6421 5.07368 16.1672 5.36657 15.8743L6.07368 15.1672Z" fill="#080809" style="fill:#080809;fill:color(display-p3 0.0314 0.0314 0.0353);fill-opacity:1;"/>
</svg>
