<svg width="24" height="24" viewBox="0 0 24 24" fill="none" xmlns="http://www.w3.org/2000/svg">
<path d="M12 1.5C12 0.947715 11.5523 0.5 11 0.5C10.4477 0.5 10 0.947715 10 1.5V2.5C10 3.05228 10.4477 3.5 11 3.5C11.5523 3.5 12 3.05228 12 2.5V1.5Z" fill="#080809" style="fill:#080809;fill:color(display-p3 0.0314 0.0314 0.0353);fill-opacity:1;"/>
<path fill-rule="evenodd" clip-rule="evenodd" d="M5 11C5 7.68629 7.68629 5 11 5C13.9349 5 16.3776 7.10716 16.8977 9.89112C17.7727 10.4314 18.4982 11.1901 18.9984 12.0905C21.5597 12.5605 23.5 14.8032 23.5 17.5C23.5 20.5376 21.0376 23 18 23C17.9749 23 17.9498 22.9998 17.9248 22.9995C17.9142 22.9998 17.9035 23 17.8928 23H8.46422C8.46003 23 8.45586 23 8.45168 22.9999C8.44521 22.9998 8.43875 22.9997 8.43231 22.9995C5.97811 22.9632 4 20.9627 4 18.5C4 16.8484 4.88974 15.4046 6.21606 14.6219C5.45285 13.6153 5 12.3606 5 11ZM9.75001 15.0079L9.75 15C9.75016 12.791 11.541 11 13.75 11C15.3926 11 16.8062 11.9903 17.422 13.4104C17.5698 13.7514 17.8945 13.9822 18.2651 14.0098C20.0737 14.1447 21.5 15.6563 21.5 17.5C21.5 19.433 19.933 21 18 21C17.972 21 17.944 20.9997 17.9162 20.999C17.8916 20.9984 17.8671 20.9988 17.8428 21H8.48307L8.47423 20.9999C7.10551 20.9862 6 19.8721 6 18.5C6 17.1193 7.11929 16 8.5 16C8.56055 16 8.62044 16.0021 8.67961 16.0063C8.95652 16.0259 9.22909 15.9294 9.43209 15.7401C9.63509 15.5507 9.75025 15.2855 9.75001 15.0079Z" fill="#080809" style="fill:#080809;fill:color(display-p3 0.0314 0.0314 0.0353);fill-opacity:1;"/>
<path d="M1.5 10C0.947715 10 0.5 10.4477 0.5 11C0.5 11.5523 0.947715 12 1.5 12H2.5C3.05228 12 3.5 11.5523 3.5 11C3.5 10.4477 3.05228 10 2.5 10H1.5Z" fill="#080809" style="fill:#080809;fill:color(display-p3 0.0314 0.0314 0.0353);fill-opacity:1;"/>
<path d="M4.70711 3.29289C4.31658 2.90237 3.68342 2.90237 3.29289 3.29289C2.90237 3.68342 2.90237 4.31658 3.29289 4.70711L4 5.41421C4.39052 5.80474 5.02369 5.80474 5.41421 5.41421C5.80474 5.02369 5.80474 4.39053 5.41421 4L4.70711 3.29289Z" fill="#080809" style="fill:#080809;fill:color(display-p3 0.0314 0.0314 0.0353);fill-opacity:1;"/>
<path d="M17.2929 3.29289C17.6834 2.90237 18.3166 2.90237 18.7071 3.29289C19.0976 3.68342 19.0976 4.31658 18.7071 4.70711L18 5.41421C17.6095 5.80474 16.9763 5.80474 16.5858 5.41421C16.1953 5.02369 16.1953 4.39053 16.5858 4L17.2929 3.29289Z" fill="#080809" style="fill:#080809;fill:color(display-p3 0.0314 0.0314 0.0353);fill-opacity:1;"/>
</svg>
