<svg width="24" height="24" viewBox="0 0 24 24" fill="none" xmlns="http://www.w3.org/2000/svg">
<path d="M5.75 6.01754L3.88388 7.88366C3.39573 8.37181 2.60427 8.37181 2.11612 7.88366C1.62796 7.3955 1.62796 6.60405 2.11612 6.11589L5.05546 3.17655C6.1294 2.10261 7.8706 2.10261 8.94454 3.17655L11.8839 6.11589C12.372 6.60405 12.372 7.3955 11.8839 7.88366C11.3957 8.37181 10.6043 8.37181 10.1161 7.88366L8.25 6.01754V19.9998C8.25 20.6901 7.69036 21.2498 7 21.2498C6.30964 21.2498 5.75 20.6901 5.75 19.9998V6.01754Z" fill="#080809" style="fill:#080809;fill:color(display-p3 0.0314 0.0314 0.0353);fill-opacity:1;"/>
<path d="M13.8839 16.1159L15.75 17.982V3.99976C15.75 3.3094 16.3096 2.74976 17 2.74976C17.6904 2.74976 18.25 3.3094 18.25 3.99976V17.982L20.1161 16.1159C20.6043 15.6277 21.3957 15.6277 21.8839 16.1159C22.372 16.604 22.372 17.3955 21.8839 17.8836L18.9445 20.823C17.8706 21.8969 16.1294 21.8969 15.0555 20.823L12.1161 17.8836C11.628 17.3955 11.628 16.604 12.1161 16.1159C12.6043 15.6277 13.3957 15.6277 13.8839 16.1159Z" fill="#080809" style="fill:#080809;fill:color(display-p3 0.0314 0.0314 0.0353);fill-opacity:1;"/>
</svg>
