<svg width="24" height="24" viewBox="0 0 24 24" fill="none" xmlns="http://www.w3.org/2000/svg">
<path d="M4.00285 10C4.5551 10 5.00285 10.4477 5.00285 11C5.00285 14.866 8.13686 18 12.0029 18C12.7456 18 13.4611 17.8833 14.1327 17.6689L15.6777 19.2139C14.8443 19.5871 13.9445 19.8392 12.9999 19.9434V21.5H14.9999C15.5522 21.5 15.9999 21.9477 15.9999 22.5C15.9999 23.0523 15.5522 23.5 14.9999 23.5H8.99992C8.44764 23.5 7.99992 23.0523 7.99992 22.5C7.99992 21.9477 8.44764 21.5 8.99992 21.5H10.9999V19.9424C6.50151 19.4435 3.00285 15.6315 3.00285 11C3.00285 10.4477 3.45057 10 4.00285 10Z" fill="#080809" style="fill:#080809;fill:color(display-p3 0.0314 0.0314 0.0353);fill-opacity:1;"/>
<path fill-rule="evenodd" clip-rule="evenodd" d="M11.9999 0.5C14.7613 0.500041 16.9999 2.7386 16.9999 5.5V11C16.9999 12.2754 16.5205 13.4374 15.7343 14.3203L17.1503 15.7363C18.2984 14.4898 19.0029 12.8284 19.0029 11C19.0029 10.4477 19.4506 10 20.0029 10C20.5551 10 21.0029 10.4477 21.0029 11C21.0029 13.3811 20.0758 15.543 18.5654 17.1514L22.707 21.293C23.0974 21.6835 23.0974 22.3165 22.707 22.707C22.3165 23.0975 21.6834 23.0974 21.2929 22.707L1.29289 2.70703C0.902369 2.31651 0.902369 1.68349 1.29289 1.29297C1.68342 0.902482 2.31644 0.902457 2.70696 1.29297L6.99992 5.58594V5.5C6.99992 2.73858 9.2385 0.5 11.9999 0.5ZM11.9999 2.5C10.3431 2.5 8.99992 3.84315 8.99992 5.5V7.58594L14.3163 12.9023C14.7423 12.3846 14.9999 11.723 14.9999 11V5.5C14.9999 3.84317 13.6567 2.50004 11.9999 2.5Z" fill="#080809" style="fill:#080809;fill:color(display-p3 0.0314 0.0314 0.0353);fill-opacity:1;"/>
<path d="M12.4433 15.9795C12.2972 15.9923 12.1493 16 11.9999 16C9.2385 16 6.99992 13.7614 6.99992 11V10.5361L12.4433 15.9795Z" fill="#080809" style="fill:#080809;fill:color(display-p3 0.0314 0.0314 0.0353);fill-opacity:1;"/>
</svg>
