<svg width="24" height="24" viewBox="0 0 24 24" fill="none" xmlns="http://www.w3.org/2000/svg">
<g clip-path="url(#clip0_29901_27953)">
<path d="M6.82384 1.64935C5.88724 0.504629 4.16703 0.418829 3.12118 1.46468L2.46052 2.12533C0.271004 4.31485 -0.189829 7.69567 1.3338 10.3913C4.23397 15.5224 8.47767 19.7661 13.6087 22.6663C16.3044 24.1899 19.6852 23.7291 21.8747 21.5396L22.5354 20.8789C23.5812 19.833 23.4954 18.1128 22.3507 17.1762L19.0216 14.4524C18.148 13.7376 16.9039 13.6969 15.9854 14.353L14.3125 15.5478C14.1352 15.6745 13.8963 15.6717 13.7219 15.541L13.3432 15.2569C11.5996 13.9493 10.0508 12.4004 8.74316 10.6569L8.45909 10.2782C8.32834 10.1038 8.32556 9.86487 8.45222 9.68754L9.64712 8.01469C10.3032 7.09622 10.2624 5.85207 9.54768 4.9785L6.82384 1.64935Z" fill="#080809" style="fill:#080809;fill:color(display-p3 0.0314 0.0314 0.0353);fill-opacity:1;"/>
</g>
<defs>
<clipPath id="clip0_29901_27953">
<rect width="24" height="24" fill="white" style="fill:white;fill-opacity:1;"/>
</clipPath>
</defs>
</svg>
