<svg width="24" height="24" viewBox="0 0 24 24" fill="none" xmlns="http://www.w3.org/2000/svg">
<path fill-rule="evenodd" clip-rule="evenodd" d="M9.17071 7H6.52883L9.23592 13.1876C9.51919 13.8351 9.34613 14.5917 8.80954 15.0516C6.61728 16.9307 3.38234 16.9307 1.19008 15.0516C0.653492 14.5917 0.480433 13.8351 0.763702 13.1876L4.07842 5.61114C4.09243 5.57798 4.10818 5.54573 4.12555 5.51451C4.20377 5.37356 4.31369 5.25582 4.44398 5.16871C4.59601 5.06682 4.77755 5.00553 4.97306 5.00036C4.98201 5.00012 4.99099 5 5 5H9.17071C9.58254 3.83481 10.6938 3 12 3C13.3062 3 14.4175 3.83481 14.8293 5H19C19.4202 5 19.7798 5.25915 19.9278 5.62633L23.2359 13.1876C23.5192 13.8351 23.3461 14.5917 22.8095 15.0516C20.6173 16.9307 17.3823 16.9307 15.1901 15.0516C14.6535 14.5917 14.4804 13.8351 14.7637 13.1876L17.4708 7H14.8293C14.528 7.85241 13.8524 8.52801 13 8.82929V19H16C16.5523 19 17 19.4477 17 20C17 20.5523 16.5523 21 16 21H8C7.44772 21 7 20.5523 7 20C7 19.4477 7.44772 19 8 19H11V8.82929C10.1476 8.52801 9.47199 7.85241 9.17071 7ZM11 6C11 5.44772 11.4477 5 12 5C12.5523 5 13 5.44772 13 6C13 6.55228 12.5523 7 12 7C11.4477 7 11 6.55228 11 6ZM4.99981 8.49489L6.0958 11H3.90383L4.99981 8.49489ZM2.71718 13.7123L3.02883 13H6.9708L7.28245 13.7123C5.92651 14.7104 4.07312 14.7104 2.71718 13.7123ZM20.0958 11L18.9998 8.49489L17.9038 11H20.0958ZM17.0288 13L16.7172 13.7123C18.0731 14.7104 19.9265 14.7104 21.2824 13.7123L20.9708 13H17.0288Z" fill="#080809" style="fill:#080809;fill:color(display-p3 0.0314 0.0314 0.0353);fill-opacity:1;"/>
</svg>
