<svg width="24" height="24" viewBox="0 0 24 24" fill="none" xmlns="http://www.w3.org/2000/svg">
<path fill-rule="evenodd" clip-rule="evenodd" d="M23 11.9252V12.0748C23 14.3684 23 16.1914 22.808 17.6196C22.6101 19.0921 22.1916 20.2936 21.2426 21.2426C20.2936 22.1916 19.0921 22.6101 17.6196 22.808C16.1914 23 14.3683 23 12.0748 23H11.9252C9.63165 23 7.80859 23 6.38039 22.808C4.90794 22.6101 3.70636 22.1916 2.75736 21.2426C1.80836 20.2936 1.38994 19.0921 1.19197 17.6196C0.999958 16.1914 0.999975 14.3683 0.999998 12.0748V11.9252C0.999995 11.6079 0.999992 11.2995 1.0005 11H0.996094L1.00464 9.99153C1.01908 8.28842 1.0724 6.87932 1.29843 5.7254C1.52992 4.54356 1.9551 3.55902 2.75675 2.75736C3.70575 1.80836 4.90733 1.38995 6.37979 1.19198C7.47053 1.04533 8.79158 1.01069 10.3766 1.00252C10.8672 0.99999 11.3831 0.999995 11.9252 1H12.0748C12.2325 0.999999 12.3879 0.999997 12.5412 1.00006C14.6171 1.00088 16.2896 1.01316 17.6196 1.19198C19.0921 1.38994 20.2936 1.80836 21.2426 2.75736C22.1916 3.70636 22.6101 4.90794 22.808 6.38039C22.9553 7.47594 22.9896 8.80382 22.9976 10.3982L23.0027 11H22.9995C23 11.2995 23 11.6079 23 11.9252ZM20.9993 11C21 11.3191 21 11.6521 21 12C21 14.3853 20.9979 16.0737 20.8259 17.3531C20.6577 18.6038 20.3439 19.313 19.8284 19.8284C19.313 20.3439 18.6038 20.6577 17.3531 20.8259C16.0737 20.9979 14.3853 21 12 21C9.61471 21 7.92633 20.9979 6.64689 20.8259C5.39621 20.6577 4.68703 20.3439 4.17157 19.8284C3.65611 19.313 3.34229 18.6038 3.17414 17.3531C3.00212 16.0737 3 14.3853 3 12C3 11.6521 3.00004 11.3191 3.00065 11H20.9993Z" fill="#080809" style="fill:#080809;fill:color(display-p3 0.0314 0.0314 0.0353);fill-opacity:1;"/>
</svg>
