<svg width="24" height="24" viewBox="0 0 24 24" fill="none" xmlns="http://www.w3.org/2000/svg">
<path fill-rule="evenodd" clip-rule="evenodd" d="M10.3354 3.19019C9.86971 2.99729 9.36775 2.99851 8.87337 2.9997L8.75736 2.99989L7.42943 2.99988C6.07531 2.99985 4.9587 2.99982 4.07494 3.11864C3.14711 3.24338 2.32769 3.51535 1.67158 4.17146C1.01547 4.82757 0.7435 5.64699 0.618757 6.57482C0.499941 7.45856 0.499968 8.57515 0.500001 9.92924V14.0705C0.499968 15.4245 0.499941 16.5412 0.618757 17.4249C0.7435 18.3528 1.01547 19.1722 1.67158 19.8283C2.32769 20.4844 3.14711 20.7564 4.07494 20.8811C4.95869 21 6.07529 20.9999 7.42939 20.9999H16.5706C17.9246 20.9999 19.0413 21 19.9251 20.8811C20.8529 20.7564 21.6723 20.4844 22.3284 19.8283C22.9845 19.1722 23.2565 18.3528 23.3813 17.4249C23.5001 16.5412 23.5 15.4246 23.5 14.0705V11.9293C23.5 10.5752 23.5001 9.45857 23.3813 8.57482C23.2565 7.64699 22.9845 6.82757 22.3284 6.17146C21.6723 5.51535 20.8529 5.24338 19.9251 5.11864C19.0413 4.99982 17.9247 4.99985 16.5706 4.99988L12.4142 4.99989L11.5858 4.17146L11.5039 4.0893C11.1552 3.73887 10.8011 3.38308 10.3354 3.19019ZM16 14.5C16 13.9477 15.5523 13.5 15 13.5H8.60355C7.48992 13.5 6.93221 14.8464 7.71967 15.6339L9.29289 17.2071C9.68342 17.5976 10.3166 17.5976 10.7071 17.2071C11.0976 16.8166 11.0976 16.1834 10.7071 15.7929L10.4142 15.5H15C15.5523 15.5 16 15.0523 16 14.5ZM8.5 12C7.94772 12 7.5 11.5523 7.5 11C7.5 10.4477 7.94772 10 8.5 10H13.0858L12.7929 9.70711C12.4024 9.31658 12.4024 8.68342 12.7929 8.29289C13.1834 7.90237 13.8166 7.90237 14.2071 8.29289L15.7803 9.86612C16.5678 10.6536 16.0101 12 14.8964 12H8.5Z" fill="#080809" style="fill:#080809;fill:color(display-p3 0.0314 0.0314 0.0353);fill-opacity:1;"/>
</svg>
