<svg width="24" height="24" viewBox="0 0 24 24" fill="none" xmlns="http://www.w3.org/2000/svg">
<path d="M20.9463 1.17684C20.8081 0.77205 20.4277 0.5 20 0.5C19.5723 0.5 19.1919 0.77205 19.0537 1.17684L18.5759 2.5759L17.1768 3.05366C16.772 3.19189 16.5 3.57226 16.5 4C16.5 4.42774 16.772 4.80811 17.1768 4.94634L18.5759 5.4241L19.0537 6.82316C19.1919 7.22795 19.5723 7.5 20 7.5C20.4277 7.5 20.8081 7.22795 20.9463 6.82316L21.4241 5.4241L22.8232 4.94634C23.228 4.80811 23.5 4.42774 23.5 4C23.5 3.57226 23.228 3.19189 22.8232 3.05366L21.4241 2.5759L20.9463 1.17684Z" fill="#080809" style="fill:#080809;fill:color(display-p3 0.0314 0.0314 0.0353);fill-opacity:1;"/>
<path d="M16.4598 6.50763C16.3561 6.20404 16.0708 6 15.75 6C15.4292 6 15.1439 6.20404 15.0402 6.50763L14.7774 7.27738L14.0076 7.54024C13.704 7.64391 13.5 7.9292 13.5 8.25C13.5 8.5708 13.704 8.85608 14.0076 8.95976L14.7774 9.22262L15.0402 9.99237C15.1439 10.296 15.4292 10.5 15.75 10.5C16.0708 10.5 16.3561 10.296 16.4598 9.99237L16.7226 9.22262L17.4924 8.95976C17.796 8.85608 18 8.5708 18 8.25C18 7.9292 17.796 7.64391 17.4924 7.54024L16.7226 7.27738L16.4598 6.50763Z" fill="#080809" style="fill:#080809;fill:color(display-p3 0.0314 0.0314 0.0353);fill-opacity:1;"/>
<path fill-rule="evenodd" clip-rule="evenodd" d="M20 13.5351C19.4117 13.1948 18.7286 13 18 13C15.7909 13 14 14.7909 14 17C14 19.2091 15.7909 21 18 21C20.208 21 21.9982 19.2109 22 17.0033C22 17.0022 22 17.0011 22 17.0001V10.0001C22 9.44779 21.5523 9.00007 21 9.00007C20.4477 9.00007 20 9.44779 20 10.0001V13.5351ZM16 17C16 15.8954 16.8954 15 18 15C19.1046 15 20 15.8954 20 17C20 18.1046 19.1046 19 18 19C16.8954 19 16 18.1046 16 17Z" fill="#080809" style="fill:#080809;fill:color(display-p3 0.0314 0.0314 0.0353);fill-opacity:1;"/>
<path fill-rule="evenodd" clip-rule="evenodd" d="M7 15.5351C6.41165 15.1948 5.72857 15 5 15C2.79086 15 1 16.7909 1 19C1 21.2091 2.79086 23 5 23C7.20805 23 8.99823 21.2109 9 19.0033C9 19.0022 9 19.0011 9 19.0001V10.2956L11.7249 9.66677C12.263 9.54258 12.5986 9.00566 12.4744 8.46752C12.3502 7.92938 11.8133 7.5938 11.2751 7.71799L9 8.24302V5.69334C9 5.46051 9.1607 5.2585 9.38757 5.20614L14.2249 4.08985C14.763 3.96566 15.0986 3.42874 14.9744 2.8906C14.8502 2.35246 14.3133 2.01688 13.7751 2.14106L8.93785 3.25736C7.80353 3.51913 7 4.5292 7 5.69334V15.5351ZM3 19C3 17.8954 3.89543 17 5 17C6.10457 17 7 17.8954 7 19C7 20.1046 6.10457 21 5 21C3.89543 21 3 20.1046 3 19Z" fill="#080809" style="fill:#080809;fill:color(display-p3 0.0314 0.0314 0.0353);fill-opacity:1;"/>
</svg>
