<svg width="24" height="24" viewBox="0 0 24 24" fill="none" xmlns="http://www.w3.org/2000/svg">
<path d="M11 1C8.23858 1 6 3.23858 6 6C6 8.76142 8.23858 11 11 11C13.7614 11 16 8.76142 16 6C16 3.23858 13.7614 1 11 1Z" fill="#080809" style="fill:#080809;fill:color(display-p3 0.0314 0.0314 0.0353);fill-opacity:1;"/>
<path d="M8.33333 13C4.83553 13 2 15.8355 2 19.3333C2 21.3584 3.64162 23 5.66667 23H12.1241C12.4614 23 12.7761 22.8299 12.9608 22.5476C13.1456 22.2652 13.1755 21.9088 13.0404 21.5996C12.6931 20.8048 12.5 19.9263 12.5 19C12.5 17.3346 13.125 15.8176 14.1549 14.6669C14.4179 14.373 14.4837 13.952 14.3227 13.5919C14.1617 13.2318 13.8042 13 13.4098 13H8.33333Z" fill="#080809" style="fill:#080809;fill:color(display-p3 0.0314 0.0314 0.0353);fill-opacity:1;"/>
<path d="M20.7071 22.7071C20.3166 23.0976 19.6834 23.0976 19.2929 22.7071C18.9024 22.3166 18.9024 21.6834 19.2929 21.2929L20.5858 20L15.5 20C14.9477 20 14.5 19.5523 14.5 19C14.5 18.4477 14.9477 18 15.5 18L20.5858 18L19.2929 16.7071C18.9024 16.3166 18.9024 15.6834 19.2929 15.2929C19.6834 14.9024 20.3166 14.9024 20.7071 15.2929L22.6464 17.2322C23.6228 18.2085 23.6228 19.7915 22.6464 20.7678L20.7071 22.7071Z" fill="#080809" style="fill:#080809;fill:color(display-p3 0.0314 0.0314 0.0353);fill-opacity:1;"/>
</svg>
