<svg width="24" height="24" viewBox="0 0 24 24" fill="none" xmlns="http://www.w3.org/2000/svg">
<path d="M17.5104 1.32017C16.2069 0.0166586 14.0471 0.186111 12.9629 1.67697L8.80628 7.39228L2.70808 1.29408C2.31756 0.903554 1.68439 0.903554 1.29387 1.29408C0.903345 1.6846 0.903345 2.31777 1.29387 2.70829L6.07287 7.48729L6.0511 7.48946L16.5163 17.9547L16.5185 17.9329L21.2939 22.7083C21.6844 23.0988 22.3176 23.0988 22.7081 22.7083C23.0986 22.3178 23.0986 21.6846 22.7081 21.2941L16.6135 15.1995L22.3288 11.0429C23.8197 9.95866 23.9891 7.7989 22.6856 6.49539L17.5104 1.32017Z" fill="#080809" style="fill:#080809;fill:color(display-p3 0.0314 0.0314 0.0353);fill-opacity:1;"/>
<path d="M16.08 19.6397L4.36612 7.92581C3.10379 8.73392 2.75757 10.609 3.95148 11.8029L7.36778 15.2192L1.29289 21.2941C0.902369 21.6846 0.902369 22.3178 1.29289 22.7083C1.68342 23.0988 2.31658 23.0988 2.70711 22.7083L8.782 16.6334L12.2029 20.0543C13.3968 21.2482 15.2719 20.902 16.08 19.6397Z" fill="#080809" style="fill:#080809;fill:color(display-p3 0.0314 0.0314 0.0353);fill-opacity:1;"/>
</svg>
