<svg width="24" height="24" viewBox="0 0 24 24" fill="none" xmlns="http://www.w3.org/2000/svg">
<path fill-rule="evenodd" clip-rule="evenodd" d="M10.3294 1.14574C9.25091 0.316003 7.74909 0.316003 6.67064 1.14574L2.17064 4.60795C1.43252 5.17585 1 6.05434 1 6.98565V16.7929C1 18.1292 2.61571 18.7985 3.56066 17.8536L5.41423 16H13C14.6569 16 16 14.6568 16 13L16 6.98564C16 6.05434 15.5675 5.17585 14.8293 4.60795L10.3294 1.14574ZM7.89021 2.73087C8.24969 2.45429 8.7503 2.45429 9.10979 2.73087L13.6098 6.19308C13.8558 6.38238 14 6.67521 14 6.98565L14 13C14 13.5523 13.5523 14 13 14H5.00001C4.7348 14 4.48044 14.1053 4.29291 14.2929L3 15.5858V6.98565C3 6.67521 3.14417 6.38238 3.39021 6.19308L7.89021 2.73087Z" fill="#080809" style="fill:#080809;fill:color(display-p3 0.0314 0.0314 0.0353);fill-opacity:1;"/>
<path d="M19.1097 7.51217C18.672 7.1754 18.0441 7.25723 17.7074 7.69495C17.3706 8.13267 17.4524 8.76053 17.8901 9.0973L20.6097 11.1897C20.8558 11.379 20.9999 11.6718 20.9999 11.9823V20.5824L19.7071 19.2895C19.5195 19.102 19.2652 18.9966 18.9999 18.9966H11C10.5359 18.9966 10.1434 18.6796 10.0318 18.2488C9.8933 17.7142 9.34763 17.393 8.81299 17.5315C8.27834 17.67 7.95719 18.2156 8.09566 18.7503C8.43016 20.0417 9.60228 20.9966 11 20.9966H18.5857L20.4393 22.8502C21.3842 23.7951 22.9999 23.1259 22.9999 21.7895V11.9823C22.9999 11.051 22.5674 10.1725 21.8293 9.60457L19.1097 7.51217Z" fill="#080809" style="fill:#080809;fill:color(display-p3 0.0314 0.0314 0.0353);fill-opacity:1;"/>
</svg>
