<svg width="24" height="24" viewBox="0 0 24 24" fill="none" xmlns="http://www.w3.org/2000/svg">
<path fill-rule="evenodd" clip-rule="evenodd" d="M12.0748 1H11.9252C9.63166 0.999979 7.80859 0.999962 6.3804 1.19198C4.90794 1.38994 3.70636 1.80836 2.75736 2.75736C1.80836 3.70636 1.38994 4.90794 1.19198 6.3804C0.999962 7.80859 0.999979 9.63164 1 11.9252V12.0748C0.999979 14.3683 0.999962 16.1914 1.19198 17.6196C1.38994 19.0921 1.80836 20.2936 2.75736 21.2426C3.70636 22.1916 4.90794 22.6101 6.3804 22.808C7.8086 23 9.63167 23 11.9252 23H12.0748C14.3683 23 16.1914 23 17.6196 22.808C19.0921 22.6101 20.2936 22.1916 21.2426 21.2426C22.1916 20.2936 22.6101 19.0921 22.808 17.6196C23 16.1914 23 14.3683 23 12.0748V11.9252C23 9.63167 23 7.8086 22.808 6.3804C22.6101 4.90794 22.1916 3.70636 21.2426 2.75736C20.2936 1.80836 19.0921 1.38994 17.6196 1.19198C16.1914 0.999962 14.3683 0.999979 12.0748 1ZM16.2072 11.2929C16.5977 11.6835 16.5976 12.3167 16.2071 12.7072L12.6636 16.2501C11.8825 17.0311 10.6161 17.0309 9.83509 16.2497L8.29279 14.707C7.90232 14.3164 7.90242 13.6833 8.293 13.2928C8.68358 12.9023 9.31674 12.9024 9.70721 13.293L11.2495 14.8357L14.7929 11.2928C15.1835 10.9023 15.8167 10.9024 16.2072 11.2929ZM8 5C7.44772 5 7 5.44772 7 6C7 6.55229 7.44772 7 8 7H16C16.5523 7 17 6.55229 17 6C17 5.44772 16.5523 5 16 5H8Z" fill="#080809" style="fill:#080809;fill:color(display-p3 0.0314 0.0314 0.0353);fill-opacity:1;"/>
</svg>
