<svg width="24" height="24" viewBox="0 0 24 24" fill="none" xmlns="http://www.w3.org/2000/svg">
<path d="M12 6C11.4477 6 11 6.44772 11 7C11 7.55229 11.4477 8 12 8H18C18.5523 8 19 7.55229 19 7C19 6.44772 18.5523 6 18 6H12Z" fill="#080809" style="fill:#080809;fill:color(display-p3 0.0314 0.0314 0.0353);fill-opacity:1;"/>
<path d="M9 7C9 8.10457 8.10457 9 7 9C5.89543 9 5 8.10457 5 7C5 5.89543 5.89543 5 7 5C8.10457 5 9 5.89543 9 7Z" fill="#080809" style="fill:#080809;fill:color(display-p3 0.0314 0.0314 0.0353);fill-opacity:1;"/>
<path fill-rule="evenodd" clip-rule="evenodd" d="M11.9252 1H12.0748C14.3683 0.999978 16.1914 0.999961 17.6196 1.19198C19.0921 1.38994 20.2936 1.80836 21.2426 2.75736C22.121 3.63574 22.5456 4.73154 22.7608 6.06069C23.0238 7.68587 22.9963 9.35718 22.9994 10.9982C22.9999 11.2637 22.8948 11.5185 22.7072 11.7065C22.5204 11.8936 22.2671 11.9991 22.0028 12L21.9994 12H3C3 14.3853 3.00213 16.0737 3.17414 17.3531C3.34229 18.6038 3.65611 19.313 4.17157 19.8284C4.68704 20.3439 5.39621 20.6577 6.64689 20.8259C7.92634 20.9979 9.61471 21 12 21C12.5523 21 13 21.4477 13 22C13 22.5523 12.5523 23 12 23H11.9252C9.63167 23 7.8086 23 6.38039 22.808C4.90794 22.6101 3.70636 22.1916 2.75736 21.2426C1.80836 20.2936 1.38994 19.0921 1.19198 17.6196C0.999961 16.1914 0.999978 14.3684 1 12.0748V11.9252C0.999978 9.63166 0.999961 7.80859 1.19198 6.38039C1.38994 4.90794 1.80836 3.70636 2.75736 2.75736C3.70636 1.80836 4.90794 1.38994 6.38039 1.19198C7.80859 0.999961 9.63166 0.999978 11.9252 1ZM20.7865 6.38026C20.936 7.30383 20.9814 8.46616 20.9947 10H3.00539C3.01717 8.62086 3.0547 7.5353 3.17414 6.64689C3.34229 5.39621 3.65611 4.68704 4.17157 4.17157C4.68704 3.65611 5.39621 3.34229 6.64689 3.17414C7.92634 3.00213 9.61471 3 12 3C14.3853 3 16.0737 3.00213 17.3531 3.17414C18.6038 3.34229 19.313 3.65611 19.8284 4.17157C20.3071 4.65023 20.6108 5.29466 20.7865 6.38026Z" fill="#080809" style="fill:#080809;fill:color(display-p3 0.0314 0.0314 0.0353);fill-opacity:1;"/>
<path d="M16.018 15C15.962 14.9991 15.9052 15.0028 15.8479 15.0116C15.3021 15.0956 14.9276 15.6062 15.0116 16.1521L16.0116 22.6521C16.0956 23.1979 16.6062 23.5724 17.1521 23.4884C17.6979 23.4044 18.0724 22.8938 17.9884 22.3479L17.6273 20.0007L21.5951 20.0036C22.1527 20.004 22.5157 19.4176 22.2668 18.9187L21.5589 17.5002L22.2663 16.0854C22.5156 15.5867 22.153 15 21.5955 15H16.018Z" fill="#080809" style="fill:#080809;fill:color(display-p3 0.0314 0.0314 0.0353);fill-opacity:1;"/>
</svg>
