<svg width="24" height="24" viewBox="0 0 24 24" fill="none" xmlns="http://www.w3.org/2000/svg">
<path d="M5.95794 0.5C5.29851 0.5 4.69568 0.872571 4.40077 1.46238L3.02786 4.2082C2.81958 4.62477 2.51717 4.98712 2.14458 5.26656L1.7 5.6C0.944582 6.16656 0.5 7.05573 0.5 8V10.5C0.5 12.1569 1.84315 13.5 3.5 13.5H8.52285C9.83986 13.5 11.0029 12.641 11.3902 11.3823L12.3585 8.23521C12.8532 6.62758 11.6511 5 9.96906 5H7.38743L7.96104 3.27915C8.41679 1.91192 7.39913 0.5 5.95794 0.5Z" fill="#080809" style="fill:#080809;fill:color(display-p3 0.0314 0.0314 0.0353);fill-opacity:1;"/>
<path d="M18.4592 23.5C19.2013 23.5 19.8656 23.0396 20.1262 22.3448L21.026 19.9454C21.2269 19.4095 21.5771 18.9422 22.035 18.5988L22.3 18.4C23.0554 17.8334 23.5 16.9443 23.5 16V13.5C23.5 11.8431 22.1569 10.5 20.5 10.5H15.4771C14.1601 10.5 12.9971 11.359 12.6098 12.6177L11.6415 15.7648C11.1468 17.3724 12.3489 19 14.0309 19H16.7534L16.3404 20.8586C16.0391 22.2141 17.0706 23.5 18.4592 23.5Z" fill="#080809" style="fill:#080809;fill:color(display-p3 0.0314 0.0314 0.0353);fill-opacity:1;"/>
</svg>
