<svg width="24" height="24" viewBox="0 0 24 24" fill="none" xmlns="http://www.w3.org/2000/svg">
<path fill-rule="evenodd" clip-rule="evenodd" d="M12.0748 1H11.9252C9.63166 0.999978 7.80859 0.999961 6.38039 1.19198C4.90794 1.38994 3.70636 1.80836 2.75736 2.75736C1.80836 3.70636 1.38994 4.90794 1.19198 6.38039C0.999961 7.80859 0.999978 9.63164 1 11.9252V12.0748C0.999999 12.2181 0.999998 12.3597 1.00004 12.4994C1.00073 14.5947 1.01196 16.2807 1.19198 17.6196C1.20435 17.7116 1.21758 17.8026 1.23175 17.8925C1.44432 19.2413 1.86767 20.353 2.75736 21.2426C3.70636 22.1916 4.90794 22.6101 6.38039 22.808C7.80859 23 9.63164 23 11.9252 23C11.9252 23 11.9252 23 11.9252 23H12.0748C14.3683 23 16.1914 23 17.6196 22.808C19.0921 22.6101 20.2936 22.1916 21.2426 21.2426C22.1916 20.2936 22.6101 19.0921 22.808 17.6196C23 16.1914 23 14.3683 23 12.0748V11.9252C23 9.63167 23 7.8086 22.808 6.38039C22.6101 4.90794 22.1916 3.70636 21.2426 2.75736C20.2936 1.80836 19.0921 1.38994 17.6196 1.19198C16.1914 0.999961 14.3683 0.999978 12.0748 1ZM13 20.9993C14.869 20.9958 16.2603 20.9728 17.3531 20.8259C18.6038 20.6577 19.313 20.3439 19.8284 19.8284C20.3439 19.313 20.6577 18.6038 20.8259 17.3531C20.9979 16.0737 21 14.3853 21 12C21 9.61471 20.9979 7.92634 20.8259 6.64689C20.6577 5.39621 20.3439 4.68704 19.8284 4.17157C19.313 3.65611 18.6038 3.34229 17.3531 3.17414C16.0737 3.00213 14.3853 3 12 3C9.61471 3 7.92634 3.00213 6.64689 3.17414C5.39621 3.34229 4.68704 3.65611 4.17157 4.17157C3.65611 4.68704 3.34229 5.39621 3.17414 6.64689C3.02721 7.73975 3.00423 9.13096 3.00066 11L6.07057 11C7.42469 11 8.54131 10.9999 9.42506 11.1188C10.3529 11.2435 11.1723 11.5155 11.8284 12.1716C12.4845 12.8277 12.7565 13.6471 12.8812 14.5749C13.0001 15.4587 13 16.5753 13 17.9294L13 20.9993ZM3.17414 17.3531C3.02721 16.2603 3.00423 14.869 3.00066 13L6 13C7.44248 13 8.42375 13.0021 9.15857 13.1009C9.86462 13.1958 10.1916 13.3632 10.4142 13.5858C10.6368 13.8084 10.8042 14.1354 10.8991 14.8414C10.9979 15.5763 11 16.5575 11 18V20.9993C10.9088 20.9992 10.8188 20.999 10.7299 20.9987C8.99595 20.9932 7.68644 20.9656 6.64689 20.8259C5.39621 20.6577 4.68704 20.3439 4.17157 19.8284C3.68833 19.3452 3.38231 18.6917 3.20739 17.5814C3.19573 17.5073 3.18465 17.4313 3.17414 17.3531Z" fill="#080809" style="fill:#080809;fill:color(display-p3 0.0314 0.0314 0.0353);fill-opacity:1;"/>
</svg>
