<svg width="24" height="24" viewBox="0 0 24 24" fill="none" xmlns="http://www.w3.org/2000/svg">
<path d="M21 10C20.4477 10 20 9.55229 20 9V5.41421L15.7071 9.70711C15.3166 10.0976 14.6834 10.0976 14.2929 9.70711C13.9024 9.31658 13.9024 8.68342 14.2929 8.29289L18.5858 4H15C14.4477 4 14 3.55228 14 3C14 2.44772 14.4477 2 15 2H19.5C20.8807 2 22 3.11929 22 4.5V9C22 9.55229 21.5523 10 21 10Z" fill="#080809" style="fill:#080809;fill:color(display-p3 0.0314 0.0314 0.0353);fill-opacity:1;"/>
<path d="M4 15C4 14.4477 3.55229 14 3 14C2.44772 14 2 14.4477 2 15V19.5C2 20.8807 3.11929 22 4.5 22H9C9.55229 22 10 21.5523 10 21C10 20.4477 9.55229 20 9 20H5.41421L9.70711 15.7071C10.0976 15.3166 10.0976 14.6834 9.70711 14.2929C9.31658 13.9024 8.68342 13.9024 8.29289 14.2929L4 18.5858V15Z" fill="#080809" style="fill:#080809;fill:color(display-p3 0.0314 0.0314 0.0353);fill-opacity:1;"/>
<path d="M10 3C10 3.55228 9.55228 4 9 4L5.41421 4L9.70711 8.29289C10.0976 8.68342 10.0976 9.31658 9.70711 9.70711C9.31658 10.0976 8.68342 10.0976 8.29289 9.70711L4 5.41421L4 9C4 9.55228 3.55228 10 3 10C2.44771 10 2 9.55228 2 9V4.5C2 3.11929 3.11929 2 4.5 2H9C9.55228 2 10 2.44772 10 3Z" fill="#080809" style="fill:#080809;fill:color(display-p3 0.0314 0.0314 0.0353);fill-opacity:1;"/>
<path d="M14 21C14 20.4477 14.4477 20 15 20H18.5858L14.2929 15.7071C13.9024 15.3166 13.9024 14.6834 14.2929 14.2929C14.6834 13.9024 15.3166 13.9024 15.7071 14.2929L20 18.5858V15C20 14.4477 20.4477 14 21 14C21.5523 14 22 14.4477 22 15V19.5C22 20.8807 20.8807 22 19.5 22H15C14.4477 22 14 21.5523 14 21Z" fill="#080809" style="fill:#080809;fill:color(display-p3 0.0314 0.0314 0.0353);fill-opacity:1;"/>
</svg>
