<svg width="24" height="24" viewBox="0 0 24 24" fill="none" xmlns="http://www.w3.org/2000/svg">
<path d="M13 6.5C11.3431 6.5 10 5.15685 10 3.5C10 1.84315 11.3431 0.5 13 0.5C14.6552 0.5 15.9974 1.84052 16 3.49515C16.0011 3.88567 16 4.5 16 4.5C16 5.73224 15.7226 6.97824 14.9774 7.93852C14.201 8.93895 13.0165 9.5 11.4998 9.5C10.9475 9.5 10.4998 9.05228 10.4998 8.5C10.4998 7.94772 10.9475 7.5 11.4998 7.5C12.483 7.5 13.0487 7.16159 13.3974 6.7123C13.4608 6.63053 13.5199 6.54139 13.5743 6.44509C13.3884 6.48112 13.1964 6.5 13 6.5Z" fill="#080809" style="fill:#080809;fill:color(display-p3 0.0314 0.0314 0.0353);fill-opacity:1;"/>
<path d="M17.5 3.5C17.5 5.15685 18.8431 6.5 20.5 6.5C20.6965 6.5 20.8886 6.48111 21.0746 6.44504C21.0202 6.54136 20.9611 6.63052 20.8976 6.7123C20.5489 7.16159 19.9832 7.5 19 7.5C18.4477 7.5 18 7.94772 18 8.5C18 9.05228 18.4477 9.5 19 9.5C20.5168 9.5 21.7012 8.93895 22.4776 7.93852C23.2229 6.97824 23.5003 5.73224 23.5003 4.5V3.5C23.5003 1.83629 22.1568 0.5 20.5 0.5C18.8431 0.5 17.5 1.84315 17.5 3.5Z" fill="#080809" style="fill:#080809;fill:color(display-p3 0.0314 0.0314 0.0353);fill-opacity:1;"/>
<path d="M8.02174 3.99276C8.03545 4.54487 7.59899 5.00356 7.04687 5.01728C4.83092 5.07231 3.94496 5.31206 3.37868 5.87834C3.00966 6.24736 2.76907 6.76545 2.63753 7.74382C2.50213 8.75095 2.5 10.0858 2.5 11.9997V13.9997C2.5 15.9135 2.50213 17.2484 2.63753 18.2555C2.76907 19.2339 3.00966 19.752 3.37868 20.121C3.7477 20.49 4.2658 20.7306 5.24416 20.8621C6.2513 20.9975 7.58611 20.9997 9.5 20.9997H14.5C16.4139 20.9997 17.7487 20.9975 18.7558 20.8621C19.7342 20.7306 20.2523 20.49 20.6213 20.121C20.9903 19.752 21.2309 19.2339 21.3625 18.2555C21.4979 17.2484 21.5 15.9135 21.5 13.9997V11.9997C21.5 11.4474 21.9477 10.9997 22.5 10.9997C23.0523 10.9997 23.5 11.4474 23.5 11.9997V14.0728C23.5 15.8963 23.5001 17.366 23.3446 18.522C23.1833 19.7221 22.8381 20.7326 22.0355 21.5352C21.233 22.3377 20.2225 22.6829 19.0223 22.8443C17.8664 22.9997 16.3966 22.9997 14.5731 22.9997H9.42686C7.6034 22.9997 6.13363 22.9997 4.97767 22.8443C3.77752 22.6829 2.76702 22.3377 1.96447 21.5352C1.16191 20.7326 0.816721 19.7221 0.655366 18.522C0.499952 17.366 0.499974 15.8963 0.500001 14.0728V11.9265C0.499974 10.103 0.499952 8.63328 0.655366 7.47732C0.816721 6.27718 1.16191 5.26668 1.96447 4.46413C3.15964 3.26895 4.84219 3.07141 6.99722 3.01789C7.54933 3.00418 8.00803 3.44064 8.02174 3.99276Z" fill="#080809" style="fill:#080809;fill:color(display-p3 0.0314 0.0314 0.0353);fill-opacity:1;"/>
<path d="M6 15C5.44772 15 5 14.5523 5 14C5 13.4477 5.44772 13 6 13H12C12.5523 13 13 13.4477 13 14C13 14.5523 12.5523 15 12 15H6Z" fill="#080809" style="fill:#080809;fill:color(display-p3 0.0314 0.0314 0.0353);fill-opacity:1;"/>
<path d="M6 19C5.44772 19 5 18.5523 5 18C5 17.4477 5.44772 17 6 17H18C18.5523 17 19 17.4477 19 18C19 18.5523 18.5523 19 18 19H6Z" fill="#080809" style="fill:#080809;fill:color(display-p3 0.0314 0.0314 0.0353);fill-opacity:1;"/>
</svg>
