<svg width="24" height="24" viewBox="0 0 24 24" fill="none" xmlns="http://www.w3.org/2000/svg">
<path fill-rule="evenodd" clip-rule="evenodd" d="M4 13V3.5C4 2.11929 5.11929 1 6.5 1H17.5C18.8807 1 20 2.11929 20 3.5V13H22C22.5523 13 23 13.4477 23 14C23 14.5523 22.5523 15 22 15V21C22.5523 21 23 21.4477 23 22C23 22.5523 22.5523 23 22 23H2C1.44772 23 1 22.5523 1 22C1 21.4477 1.44772 21 2 21V15C1.44772 15 1 14.5523 1 14C1 13.4477 1.44772 13 2 13H4ZM6 3.5C6 3.22386 6.22386 3 6.5 3H11V13H6V3.5ZM13 13H18V3.5C18 3.22386 17.7761 3 17.5 3H13V13ZM15.5 15C16.0523 15 16.5 15.4477 16.5 16V20C16.5 20.5523 16.0523 21 15.5 21C14.9477 21 14.5 20.5523 14.5 20V16C14.5 15.4477 14.9477 15 15.5 15ZM9.5 16C9.5 15.4477 9.05229 15 8.5 15C7.94772 15 7.5 15.4477 7.5 16V20C7.5 20.5523 7.94772 21 8.5 21C9.05229 21 9.5 20.5523 9.5 20V16Z" fill="#080809" style="fill:#080809;fill:color(display-p3 0.0314 0.0314 0.0353);fill-opacity:1;"/>
</svg>
