<svg width="24" height="24" viewBox="0 0 24 24" fill="none" xmlns="http://www.w3.org/2000/svg">
<g clip-path="url(#clip0_29901_26734)">
<path d="M15.2929 13.7069L12.3536 10.7675C12.1583 10.5723 11.8417 10.5723 11.6464 10.7675L8.70711 13.7069C8.31658 14.0974 7.68342 14.0974 7.29289 13.7069C6.90237 13.3164 6.90237 12.6832 7.29289 12.2927L10.2322 9.35333C11.2085 8.37702 12.7915 8.37701 13.7678 9.35333L16.7071 12.2927C17.0976 12.6832 17.0976 13.3164 16.7071 13.7069C16.3166 14.0974 15.6834 14.0974 15.2929 13.7069Z" fill="#080809" style="fill:#080809;fill:color(display-p3 0.0314 0.0314 0.0353);fill-opacity:1;"/>
<path fill-rule="evenodd" clip-rule="evenodd" d="M12 23.5C5.64873 23.5 0.5 18.3513 0.5 12C0.5 5.64873 5.64873 0.5 12 0.5C18.3513 0.5 23.5 5.64873 23.5 12C23.5 18.3513 18.3513 23.5 12 23.5ZM2.5 12C2.5 17.2467 6.75329 21.5 12 21.5C17.2467 21.5 21.5 17.2467 21.5 12C21.5 6.7533 17.2467 2.5 12 2.5C6.75329 2.5 2.5 6.7533 2.5 12Z" fill="#080809" style="fill:#080809;fill:color(display-p3 0.0314 0.0314 0.0353);fill-opacity:1;"/>
</g>
<defs>
<clipPath id="clip0_29901_26734">
<rect width="24" height="24" fill="white" style="fill:white;fill-opacity:1;"/>
</clipPath>
</defs>
</svg>
