<svg width="24" height="24" viewBox="0 0 24 24" fill="none" xmlns="http://www.w3.org/2000/svg">
<path fill-rule="evenodd" clip-rule="evenodd" d="M11.9252 1H12.0748C14.3683 0.999978 16.1914 0.999961 17.6196 1.19198C19.0921 1.38994 20.2936 1.80836 21.2426 2.75736C22.1916 3.70636 22.6101 4.90794 22.808 6.38039C23 7.80859 23 9.63165 23 11.9252V12.0748C23 12.2181 23 12.3597 23 12.4993C22.9993 14.5947 22.988 16.2807 22.808 17.6196C22.7957 17.7116 22.7824 17.8026 22.7682 17.8925C22.5557 19.2413 22.1323 20.353 21.2426 21.2426C20.2936 22.1916 19.0921 22.6101 17.6196 22.808C16.1914 23 14.3684 23 12.0748 23C12.0748 23 12.0748 23 12.0748 23H11.9252C9.63167 23 7.8086 23 6.38039 22.808C4.90794 22.6101 3.70636 22.1916 2.75736 21.2426C1.80836 20.2936 1.38994 19.0921 1.19198 17.6196C0.99996 16.1914 0.999978 14.3683 1 12.0748V11.9252C0.999978 9.63167 0.99996 7.8086 1.19198 6.38039C1.38994 4.90794 1.80836 3.70636 2.75736 2.75736C3.70636 1.80836 4.90794 1.38994 6.38039 1.19198C7.80859 0.999961 9.63166 0.999978 11.9252 1ZM13 20.9993C13.0912 20.9992 13.1812 20.999 13.2701 20.9987C15.0041 20.9932 16.3136 20.9656 17.3531 20.8259C18.6038 20.6577 19.313 20.3439 19.8284 19.8284C20.3439 19.313 20.6577 18.6038 20.8259 17.3531C20.9728 16.2603 20.9958 14.869 20.9993 13H18C16.5575 13 15.5763 13.0021 14.8414 13.1009C14.1354 13.1958 13.8084 13.3632 13.5858 13.5858C13.3632 13.8084 13.1958 14.1354 13.1009 14.8414C13.0021 15.5763 13 16.5575 13 18V20.9993ZM20.9993 11L17.9294 11C16.5753 11 15.4587 10.9999 14.5749 11.1188C13.6471 11.2435 12.8277 11.5155 12.1716 12.1716C11.5155 12.8277 11.2435 13.6471 11.1188 14.5749C10.9999 15.4587 11 16.5753 11 17.9294L11 20.9993C9.13096 20.9958 7.73975 20.9728 6.64689 20.8259C5.39621 20.6577 4.68704 20.3439 4.17157 19.8284C3.65611 19.313 3.34229 18.6038 3.17414 17.3531C3.00212 16.0737 3 14.3853 3 12C3 9.61471 3.00212 7.92634 3.17414 6.64689C3.34229 5.39621 3.65611 4.68704 4.17157 4.17157C4.68704 3.65611 5.39621 3.34229 6.64689 3.17414C7.92634 3.00213 9.61471 3 12 3C14.3853 3 16.0737 3.00213 17.3531 3.17414C18.6038 3.34229 19.313 3.65611 19.8284 4.17157C20.3439 4.68704 20.6577 5.39621 20.8259 6.64689C20.9728 7.73975 20.9958 9.13096 20.9993 11Z" fill="#080809" style="fill:#080809;fill:color(display-p3 0.0314 0.0314 0.0353);fill-opacity:1;"/>
</svg>
