<svg width="24" height="24" viewBox="0 0 24 24" fill="none" xmlns="http://www.w3.org/2000/svg">
<path fill-rule="evenodd" clip-rule="evenodd" d="M20.9998 9.79631L23.0479 7.74829C24.3171 6.47909 24.3171 4.4213 23.0479 3.1521C21.9838 2.08799 20.3654 1.91604 19.1221 2.63623C18.6156 2.35114 18.0444 2.20222 17.4249 2.11893C16.5412 2.00011 15.4245 2.00014 14.0704 2.00017L12.3184 2.00009C11.2571 1.99925 10.4513 1.99862 9.71167 2.3054C8.97204 2.61219 8.40323 3.18302 7.65413 3.93476L3.24236 8.35528C2.28756 9.3119 1.50009 10.1009 0.960674 10.8091C0.394316 11.5528 0.00831223 12.3237 0.00830078 13.2502C0.00828934 14.1767 0.394274 14.9476 0.960617 15.6912C1.50003 16.3996 2.28746 17.1885 3.24229 18.1452L4.84925 19.7554C5.80668 20.7148 6.59614 21.5059 7.30512 22.0479C8.04943 22.6169 8.82141 23.0049 9.74997 23.0054C10.6785 23.0059 11.4509 22.6186 12.1958 22.0503C12.57 21.7649 12.9666 21.4101 13.3985 20.998C15.9265 23.3468 19.6783 23.6282 22.5007 21.8456C22.9676 21.5507 23.1071 20.933 22.8122 20.4661C22.5172 19.9991 21.8996 19.8597 21.4327 20.1546C19.3871 21.4466 16.6748 21.2576 14.8234 19.5909L19.0698 15.3445C19.8198 14.5957 20.3893 14.0271 20.6954 13.2883C21.0014 12.5494 21.0008 11.7447 20.9999 10.6848L20.9998 9.79631ZM12.4886 4.00017C11.1789 4.00017 10.8031 4.01792 10.4779 4.15279C10.1528 4.28766 9.87472 4.54115 8.94958 5.46809L4.70776 9.7182C3.6906 10.7374 3.00023 11.4321 2.55178 12.0209C2.12092 12.5866 2.0083 12.9358 2.0083 13.2502C2.0083 13.5646 2.1209 13.9138 2.55175 14.4795C3.00018 15.0683 3.69054 15.7631 4.70768 16.7823L6.21502 18.2926C7.23492 19.3146 7.93025 20.0083 8.51979 20.459C9.08628 20.892 9.43602 21.0053 9.75097 21.0054C10.0659 21.0056 10.4158 20.8927 10.9827 20.4602C11.5727 20.0101 12.2687 19.3171 13.2896 18.2962L17.5354 14.0504C18.4602 13.1256 18.7131 12.8477 18.8476 12.5229C18.9821 12.1981 18.9998 11.8227 18.9998 10.5149V9.00017C18.9998 7.55769 18.9977 6.57643 18.8989 5.84161C18.8861 5.74627 18.872 5.65784 18.8566 5.57565L17.2253 7.20687C17.2414 7.30218 17.2498 7.40011 17.2498 7.5C17.2498 8.4665 16.4663 9.25 15.4998 9.25C14.5333 9.25 13.7498 8.4665 13.7498 7.5C13.7498 6.5335 14.5333 5.75 15.4998 5.75C15.6105 5.75 15.7188 5.76028 15.8238 5.77994L17.4545 4.14924C17.3639 4.13156 17.2655 4.11549 17.1584 4.10109C16.4236 4.0023 15.4423 4.00017 13.9998 4.00017H12.4886ZM20.8811 5.57511C20.816 5.09104 20.7109 4.63647 20.532 4.21921C20.9199 4.15092 21.334 4.26661 21.6337 4.56631C22.1218 5.05447 22.1218 5.84592 21.6337 6.33408L20.9825 6.98525C20.9669 6.46283 20.9373 5.99294 20.8811 5.57511Z" fill="#080809" style="fill:#080809;fill:color(display-p3 0.0314 0.0314 0.0353);fill-opacity:1;"/>
</svg>
