<svg width="24" height="24" viewBox="0 0 24 24" fill="none" xmlns="http://www.w3.org/2000/svg">
<path fill-rule="evenodd" clip-rule="evenodd" d="M4.86266 4.71558C5.33007 4.25694 5.95878 4 6.61362 4H17.3876C18.0424 4 18.6711 4.25694 19.1385 4.71558L22.6701 8.18095C23.6293 9.12219 23.6728 10.6534 22.7686 11.6475L13.85 21.4529C12.8582 22.5433 11.143 22.5433 10.1512 21.4529L1.23262 11.6475C0.328366 10.6534 0.371854 9.12219 1.33108 8.18095L4.86266 4.71558ZM6.61362 6C6.48265 6 6.35691 6.05139 6.26343 6.14312L3.35196 9H7.40098L8.60098 6H6.61362ZM15.401 6L16.601 9H20.6492L17.7378 6.14312C17.6443 6.05139 17.5185 6 17.3876 6H15.401ZM16.501 11L12.001 20L7.50098 11H16.501Z" fill="#080809" style="fill:#080809;fill:color(display-p3 0.0314 0.0314 0.0353);fill-opacity:1;"/>
</svg>
