<svg width="24" height="24" viewBox="0 0 24 24" fill="none" xmlns="http://www.w3.org/2000/svg">
<path d="M8.89488 1.94743C9.14187 1.45345 8.94165 0.852781 8.44767 0.605792C7.95369 0.358803 7.35302 0.559027 7.10603 1.05301C6.33575 2.59356 6.33575 4.40688 7.10603 5.94743C7.35302 6.44141 7.95369 6.64164 8.44767 6.39465C8.94165 6.14766 9.14187 5.54698 8.89488 5.05301C8.40613 4.0755 8.40613 2.92493 8.89488 1.94743Z" fill="#080809" style="fill:#080809;fill:color(display-p3 0.0314 0.0314 0.0353);fill-opacity:1;"/>
<path fill-rule="evenodd" clip-rule="evenodd" d="M3.5 8C2.11929 8 1 9.11929 1 10.5V14C1 18.9706 5.02944 23 10 23C14.2832 23 17.8675 20.008 18.777 16H19.5C21.7091 16 23.5 14.2091 23.5 12C23.5 9.79086 21.7091 8 19.5 8H3.5ZM3.5 10C3.22386 10 3 10.2239 3 10.5V14C3 17.866 6.13401 21 10 21C13.866 21 17 17.866 17 14V10.5C17 10.2239 16.7761 10 16.5 10H3.5ZM19 14H19.5C20.6046 14 21.5 13.1046 21.5 12C21.5 10.8954 20.6046 10 19.5 10H19V14Z" fill="#080809" style="fill:#080809;fill:color(display-p3 0.0314 0.0314 0.0353);fill-opacity:1;"/>
<path d="M12.9477 0.605792C13.4416 0.852781 13.6419 1.45345 13.3949 1.94743C12.9061 2.92493 12.9061 4.0755 13.3949 5.05301C13.6419 5.54698 13.4416 6.14766 12.9477 6.39465C12.4537 6.64164 11.853 6.44141 11.606 5.94743C10.8358 4.40688 10.8358 2.59356 11.606 1.05301C11.853 0.559027 12.4537 0.358803 12.9477 0.605792Z" fill="#080809" style="fill:#080809;fill:color(display-p3 0.0314 0.0314 0.0353);fill-opacity:1;"/>
</svg>
