<svg width="24" height="24" viewBox="0 0 24 24" fill="none" xmlns="http://www.w3.org/2000/svg">
<path d="M7.70688 3.70711L5.41399 6H20C20.5523 6 21 6.44772 21 7C21 7.55228 20.5523 8 20 8H5.41399L7.70688 10.2929C8.0974 10.6834 8.0974 11.3166 7.70688 11.7071C7.31636 12.0976 6.68319 12.0976 6.29267 11.7071L3.35333 8.76777C2.37702 7.79146 2.37701 6.20855 3.35333 5.23223L6.29267 2.29289C6.68319 1.90237 7.31636 1.90237 7.70688 2.29289C8.0974 2.68342 8.0974 3.31658 7.70688 3.70711Z" fill="#080809" style="fill:#080809;fill:color(display-p3 0.0314 0.0314 0.0353);fill-opacity:1;"/>
<path d="M18.586 18L16.2931 20.2929C15.9026 20.6834 15.9026 21.3166 16.2931 21.7071C16.6836 22.0976 17.3168 22.0976 17.7073 21.7071L20.6467 18.7678C21.623 17.7915 21.623 16.2085 20.6467 15.2322L17.7073 12.2929C17.3168 11.9024 16.6836 11.9024 16.2931 12.2929C15.9026 12.6834 15.9026 13.3166 16.2931 13.7071L18.586 16H4C3.44771 16 3 16.4477 3 17C3 17.5523 3.44771 18 4 18H18.586Z" fill="#080809" style="fill:#080809;fill:color(display-p3 0.0314 0.0314 0.0353);fill-opacity:1;"/>
</svg>
