<svg width="24" height="24" viewBox="0 0 24 24" fill="none" xmlns="http://www.w3.org/2000/svg">
<path fill-rule="evenodd" clip-rule="evenodd" d="M14.7801 5C15.0169 5 15.2213 5.16616 15.2696 5.39802L15.8361 8.11737C14.724 8.34403 13.6932 8.89257 12.8787 9.70711L9.78529 12.8005L9.14362 9.5H9.75C10.4404 9.5 11 8.94036 11 8.25C11 7.55964 10.4404 7 9.75 7H7.83455C7.83445 7 7.83465 7 7.83455 7H6.75C6.05964 7 5.5 7.55964 5.5 8.25C5.5 8.94036 6.05964 9.5 6.75 9.5H7.10617L7.47672 11.4059C6.87042 11.1447 6.20211 11 5.5 11C2.73858 11 0.5 13.2386 0.5 16C0.5 18.7614 2.73858 21 5.5 21C8.26142 21 10.5 18.7614 10.5 16C10.5 15.6617 10.4664 15.3313 10.4024 15.0118L14.2929 11.1213C14.83 10.5842 15.5103 10.2232 16.244 10.0754L16.5214 11.4068C14.7441 12.1734 13.5 13.9414 13.5 16C13.5 18.7614 15.7386 21 18.5 21C21.2614 21 23.5 18.7614 23.5 16C23.5 13.2386 21.2614 11 18.5 11L18.4796 11L17.2275 4.99011C16.986 3.83082 15.9643 3 14.7801 3H12.9998C12.4475 3 11.9998 3.44772 11.9998 4C11.9998 4.55228 12.4475 5 12.9998 5H14.7801ZM5.5 13.5C6.37757 13.5 7.14953 13.9522 7.59561 14.6362C7.07757 14.8737 6.50976 15 5.92893 15H5.5C4.94772 15 4.5 15.4477 4.5 16C4.5 16.5523 4.94772 17 5.5 17H5.92893C6.6104 17 7.27991 16.8841 7.9111 16.6631C7.62054 17.722 6.65113 18.5 5.5 18.5C4.11929 18.5 3 17.3807 3 16C3 14.6193 4.11929 13.5 5.5 13.5ZM16 16C16 15.1583 16.4159 14.4138 17.0535 13.9607L17.5208 16.204C17.6335 16.7446 18.1631 17.0916 18.7038 16.979C19.2444 16.8663 19.5914 16.3367 19.4788 15.796L19.0113 13.5523C20.1468 13.7883 21 14.7945 21 16C21 17.3807 19.8807 18.5 18.5 18.5C17.1193 18.5 16 17.3807 16 16Z" fill="#080809" style="fill:#080809;fill:color(display-p3 0.0314 0.0314 0.0353);fill-opacity:1;"/>
</svg>
