<svg width="24" height="24" viewBox="0 0 24 24" fill="none" xmlns="http://www.w3.org/2000/svg">
<g clip-path="url(#clip0_29901_28533)">
<path fill-rule="evenodd" clip-rule="evenodd" d="M22.1217 5.14114C22.9697 3.08536 20.9131 1.02857 18.8574 1.8766L15.9626 3.07082L13.5784 1.04043C11.8854 -0.401359 9.2939 0.919164 9.46514 3.13639L9.70627 6.25879L7.03865 7.89898C5.14436 9.06369 5.59934 11.9366 7.76081 12.4589L8.45889 12.6276L1.54301 19.5435C0.738269 20.3482 0.738269 21.653 1.54301 22.4577C2.34774 23.2624 3.65248 23.2624 4.45722 22.4577L11.3721 15.5428L11.5402 16.2385C12.0624 18.4001 14.9351 18.8552 16.0998 16.9607L17.7398 14.2929L20.862 14.5341C23.0791 14.7053 24.3995 12.1136 22.9578 10.4205L20.9276 8.03619L22.1217 5.14114ZM19.6201 3.72554C20.0312 3.55593 20.4425 3.96728 20.2729 4.37845L18.8459 7.83816C18.7029 8.18482 18.7658 8.58236 19.0089 8.86787L21.4352 11.7172C21.7235 12.0559 21.4594 12.5742 21.016 12.5399L17.2849 12.2518C16.911 12.2229 16.5524 12.4056 16.356 12.7251L14.3961 15.9132C14.1631 16.2921 13.5886 16.2011 13.4842 15.7688L12.6052 12.131C12.5172 11.7664 12.2326 11.4818 11.8681 11.3938L8.23052 10.5148C7.79823 10.4103 7.70723 9.83574 8.08609 9.6028L11.274 7.64269C11.5935 7.44629 11.7762 7.08766 11.7473 6.71378L11.4591 2.98238C11.4249 2.53894 11.9432 2.27482 12.2818 2.56319L15.131 4.9896C15.4164 5.23273 15.8139 5.29569 16.1606 5.15269L19.6201 3.72554Z" fill="#080809" style="fill:#080809;fill:color(display-p3 0.0314 0.0314 0.0353);fill-opacity:1;"/>
<path d="M22 18.5003C22 19.3287 21.3284 20.0003 20.5 20.0003C19.6716 20.0003 19 19.3287 19 18.5003C19 17.6718 19.6716 17.0003 20.5 17.0003C21.3284 17.0003 22 17.6718 22 18.5003Z" fill="#080809" style="fill:#080809;fill:color(display-p3 0.0314 0.0314 0.0353);fill-opacity:1;"/>
<path d="M16 22.0003C16.5523 22.0003 17 21.5525 17 21.0003C17 20.448 16.5523 20.0003 16 20.0003C15.4477 20.0003 15 20.448 15 21.0003C15 21.5525 15.4477 22.0003 16 22.0003Z" fill="#080809" style="fill:#080809;fill:color(display-p3 0.0314 0.0314 0.0353);fill-opacity:1;"/>
<path d="M4 8.00025C4 8.55254 3.55228 9.00025 3 9.00025C2.44772 9.00025 2 8.55254 2 8.00025C2 7.44797 2.44772 7.00025 3 7.00025C3.55228 7.00025 4 7.44797 4 8.00025Z" fill="#080809" style="fill:#080809;fill:color(display-p3 0.0314 0.0314 0.0353);fill-opacity:1;"/>
<path d="M5.5 5.00025C6.32843 5.00025 7 4.32868 7 3.50025C7 2.67183 6.32843 2.00025 5.5 2.00025C4.67157 2.00025 4 2.67183 4 3.50025C4 4.32868 4.67157 5.00025 5.5 5.00025Z" fill="#080809" style="fill:#080809;fill:color(display-p3 0.0314 0.0314 0.0353);fill-opacity:1;"/>
</g>
<defs>
<clipPath id="clip0_29901_28533">
<rect width="24" height="24" fill="white" style="fill:white;fill-opacity:1;"/>
</clipPath>
</defs>
</svg>
