<svg width="24" height="24" viewBox="0 0 24 24" fill="none" xmlns="http://www.w3.org/2000/svg">
<path d="M11.5 13.5C10.9477 13.5 10.5 13.9477 10.5 14.5C10.5 15.0523 10.9477 15.5 11.5 15.5H14C14.5523 15.5 15 15.0523 15 14.5C15 13.9477 14.5523 13.5 14 13.5H11.5Z" fill="#080809" style="fill:#080809;fill:color(display-p3 0.0314 0.0314 0.0353);fill-opacity:1;"/>
<path d="M10.5 9.5C10.5 8.94771 10.9477 8.5 11.5 8.5H16.5C17.0523 8.5 17.5 8.94771 17.5 9.5C17.5 10.0523 17.0523 10.5 16.5 10.5H11.5C10.9477 10.5 10.5 10.0523 10.5 9.5Z" fill="#080809" style="fill:#080809;fill:color(display-p3 0.0314 0.0314 0.0353);fill-opacity:1;"/>
<path fill-rule="evenodd" clip-rule="evenodd" d="M3 3.5C3 1.84315 4.34315 0.5 6 0.5H18C19.6569 0.5 21 1.84315 21 3.5V20.5C21 22.1569 19.6569 23.5 18 23.5H6C4.34315 23.5 3 22.1569 3 20.5V20H2C1.44772 20 1 19.5523 1 19C1 18.4477 1.44772 18 2 18H3V13H2C1.44772 13 1 12.5523 1 12C1 11.4477 1.44772 11 2 11H3V6H2C1.44772 6 1 5.55228 1 5C1 4.44772 1.44772 4 2 4H3V3.5ZM5 20.5C5 21.0523 5.44772 21.5 6 21.5H7.00488V2.5H6C5.44772 2.5 5 2.94772 5 3.5V20.5ZM18 21.5H9.00488V2.5H18C18.5523 2.5 19 2.94772 19 3.5V20.5C19 21.0523 18.5523 21.5 18 21.5Z" fill="#080809" style="fill:#080809;fill:color(display-p3 0.0314 0.0314 0.0353);fill-opacity:1;"/>
</svg>
