<svg width="24" height="24" viewBox="0 0 24 24" fill="none" xmlns="http://www.w3.org/2000/svg">
<path d="M18.5505 1.10465C18.9267 0.298449 20.0731 0.298453 20.4494 1.10465L20.6637 1.56402C21.028 2.34454 21.6554 2.97193 22.4359 3.3362L22.8953 3.55059C23.7015 3.92684 23.7015 5.07323 22.8953 5.44948L22.4359 5.66387C21.6554 6.02814 21.028 6.65553 20.6637 7.43605L20.4494 7.89542C20.0731 8.70162 18.9267 8.70162 18.5505 7.89542L18.3361 7.43605C17.9718 6.65553 17.3444 6.02814 16.5639 5.66387L16.1045 5.44948C15.2983 5.07322 15.2983 3.92684 16.1045 3.55059L16.5639 3.3362C17.3444 2.97193 17.9718 2.34454 18.3361 1.56402L18.5505 1.10465Z" fill="#080809" style="fill:#080809;fill:color(display-p3 0.0314 0.0314 0.0353);fill-opacity:1;"/>
<path d="M13.8563 12.9884L11.9997 8.24397L10.1432 12.9884H13.8563Z" fill="#080809" style="fill:#080809;fill:color(display-p3 0.0314 0.0314 0.0353);fill-opacity:1;"/>
<path fill-rule="evenodd" clip-rule="evenodd" d="M23 12.0748L23 11.9986C23 11.4716 23 10.9714 22.9979 10.4983C22.9965 10.1648 22.8288 9.85388 22.5508 9.66945C22.2729 9.48501 21.9213 9.45132 21.6134 9.5796C20.964 9.85012 20.2508 10 19.5 10C16.4624 10 14 7.53756 14 4.5C14 3.74921 14.1499 3.03597 14.4204 2.38663C14.5487 2.07871 14.515 1.7271 14.3306 1.44916C14.1461 1.17121 13.8352 1.00352 13.5017 1.00207C13.0286 0.999998 12.5284 0.999998 12.0015 0.999998H11.9252C9.63167 0.999975 7.8086 0.999958 6.38039 1.19197C4.90794 1.38994 3.70636 1.80836 2.75736 2.75736C1.80836 3.70636 1.38994 4.90793 1.19198 6.38039C0.999961 7.8086 0.999978 9.63166 1 11.9252V12.0748C0.999978 14.3683 0.999961 16.1914 1.19198 17.6196C1.38994 19.0921 1.80836 20.2936 2.75736 21.2426C3.70636 22.1916 4.90794 22.6101 6.38039 22.808C7.80859 23 9.63165 23 11.9252 23H12.0748C14.3684 23 16.1914 23 17.6196 22.808C19.0921 22.6101 20.2936 22.1916 21.2426 21.2426C22.1916 20.2936 22.6101 19.0921 22.808 17.6196C23 16.1914 23 14.3683 23 12.0748ZM14.6389 14.9884L15.5685 17.3641C15.7697 17.8784 16.3498 18.1322 16.8641 17.931C17.3784 17.7297 17.6322 17.1496 17.431 16.6353L13.3966 6.32525C12.8992 5.05405 11.1003 5.05405 10.6029 6.32525L6.56849 16.6353C6.36724 17.1496 6.62102 17.7297 7.13533 17.931C7.64964 18.1322 8.22972 17.8784 8.43098 17.3641L9.3606 14.9884H14.6389Z" fill="#080809" style="fill:#080809;fill:color(display-p3 0.0314 0.0314 0.0353);fill-opacity:1;"/>
</svg>
