<svg width="24" height="24" viewBox="0 0 24 24" fill="none" xmlns="http://www.w3.org/2000/svg">
<path d="M10.9969 5.50004C11.1627 6.02684 10.87 6.58832 10.3432 6.75414C9.52768 7.01084 8.75974 7.46224 8.11103 8.11095C7.46232 8.75966 7.01092 9.5276 6.75422 10.3432C6.58841 10.87 6.02693 11.1626 5.50012 10.9968C4.97332 10.831 4.68068 10.2695 4.84649 9.74268C5.19753 8.62742 5.81517 7.57838 6.69682 6.69674C7.57846 5.81509 8.62751 5.19744 9.74276 4.84641C10.2696 4.68059 10.831 4.97323 10.9969 5.50004Z" fill="#080809" style="fill:#080809;fill:color(display-p3 0.0314 0.0314 0.0353);fill-opacity:1;"/>
<path d="M18.5001 13.0033C19.0269 13.1691 19.3196 13.7306 19.1537 14.2574C18.8027 15.3727 18.1851 16.4217 17.3034 17.3033C16.4218 18.185 15.3727 18.8026 14.2575 19.1537C13.7307 19.3195 13.1692 19.0268 13.0034 18.5C12.8376 17.9732 13.1302 17.4118 13.657 17.2459C14.4726 16.9892 15.2405 16.5378 15.8892 15.8891C16.5379 15.2404 16.9893 14.4725 17.246 13.6569C17.4118 13.1301 17.9733 12.8375 18.5001 13.0033Z" fill="#080809" style="fill:#080809;fill:color(display-p3 0.0314 0.0314 0.0353);fill-opacity:1;"/>
<path fill-rule="evenodd" clip-rule="evenodd" d="M14.1213 9.87913C12.9497 8.70756 11.0503 8.70756 9.87868 9.87913C8.70711 11.0507 8.70711 12.9502 9.87868 14.1218C11.0503 15.2933 12.9497 15.2933 14.1213 14.1218C15.2929 12.9502 15.2929 11.0507 14.1213 9.87913ZM11.2929 12.7076C10.9024 12.317 10.9024 11.6839 11.2929 11.2933C11.6834 10.9028 12.3166 10.9028 12.7071 11.2933C13.0976 11.6839 13.0976 12.317 12.7071 12.7076C12.3166 13.0981 11.6834 13.0981 11.2929 12.7076Z" fill="#080809" style="fill:#080809;fill:color(display-p3 0.0314 0.0314 0.0353);fill-opacity:1;"/>
<path fill-rule="evenodd" clip-rule="evenodd" d="M0.5 12C0.5 5.64873 5.64873 0.5 12 0.5C18.3513 0.5 23.5 5.64873 23.5 12C23.5 18.3513 18.3513 23.5 12 23.5C5.64873 23.5 0.5 18.3513 0.5 12ZM12 2.5C6.75329 2.5 2.5 6.75329 2.5 12C2.5 17.2467 6.75329 21.5 12 21.5C17.2467 21.5 21.5 17.2467 21.5 12C21.5 6.75329 17.2467 2.5 12 2.5Z" fill="#080809" style="fill:#080809;fill:color(display-p3 0.0314 0.0314 0.0353);fill-opacity:1;"/>
</svg>
