<svg width="24" height="24" viewBox="0 0 24 24" fill="none" xmlns="http://www.w3.org/2000/svg">
<path d="M12 7C12.5523 7 13 7.44772 13 8V12C13 12.5523 12.5523 13 12 13C11.4477 13 11 12.5523 11 12V8C11 7.44772 11.4477 7 12 7Z" fill="#080809" style="fill:#080809;fill:color(display-p3 0.0314 0.0314 0.0353);fill-opacity:1;"/>
<path d="M13.25 16C13.25 16.6904 12.6904 17.25 12 17.25C11.3096 17.25 10.75 16.6904 10.75 16C10.75 15.3096 11.3096 14.75 12 14.75C12.6904 14.75 13.25 15.3096 13.25 16Z" fill="#080809" style="fill:#080809;fill:color(display-p3 0.0314 0.0314 0.0353);fill-opacity:1;"/>
<path fill-rule="evenodd" clip-rule="evenodd" d="M12 3C8.4124 3 5.45515 5.6989 5.04786 9.17712C2.43542 9.82669 0.5 12.1868 0.5 15C0.5 18.3137 3.18629 21 6.5 21H16.5C20.366 21 23.5 17.866 23.5 14C23.5 10.8099 21.3669 8.11994 18.4496 7.27537C17.3873 4.76388 14.9008 3 12 3ZM7 10V9.99899C7.00055 7.23803 9.23891 5 12 5C14.2127 5 16.0921 6.43793 16.7498 8.43303C16.8622 8.77401 17.1488 9.02856 17.5007 9.09996C19.7827 9.563 21.5 11.5821 21.5 14C21.5 16.7614 19.2614 19 16.5 19H6.5C4.29086 19 2.5 17.2091 2.5 15C2.5 12.9264 4.07856 11.2204 6.09884 11.0198C6.61112 10.9689 7.00108 10.5375 7.00005 10.0227L7 10Z" fill="#080809" style="fill:#080809;fill:color(display-p3 0.0314 0.0314 0.0353);fill-opacity:1;"/>
</svg>
