<svg width="24" height="24" viewBox="0 0 24 24" fill="none" xmlns="http://www.w3.org/2000/svg">
<g clip-path="url(#clip0_29901_28343)">
<path d="M7.11758 5.88366C7.60574 6.37181 8.39719 6.37181 8.88535 5.88366L10.7509 4.01814V7.99971C10.7509 8.69006 11.3105 9.24971 12.0009 9.24971C12.6912 9.24971 13.2509 8.69006 13.2509 7.99971V4.01694L15.1176 5.88366C15.6057 6.37181 16.3972 6.37181 16.8853 5.88366C17.3735 5.3955 17.3735 4.60405 16.8853 4.11589L13.946 1.17655C12.8721 0.102606 11.1309 0.10261 10.0569 1.17655L7.11758 4.11589C6.62943 4.60405 6.62943 5.3955 7.11758 5.88366Z" fill="#080809" style="fill:#080809;fill:color(display-p3 0.0314 0.0314 0.0353);fill-opacity:1;"/>
<path d="M13.2506 15.9997C13.2506 15.3094 12.691 14.7497 12.0006 14.7497C11.3102 14.7497 10.7506 15.3094 10.7506 15.9997V19.9811L8.88535 18.1158C8.39719 17.6277 7.60574 17.6277 7.11758 18.1158C6.62943 18.604 6.62943 19.3954 7.11758 19.8836L10.0569 22.8229C11.1309 23.8969 12.8721 23.8969 13.946 22.8229L16.8853 19.8836C17.3735 19.3954 17.3735 18.604 16.8853 18.1158C16.3972 17.6277 15.6057 17.6277 15.1176 18.1158L13.2506 19.9828V15.9997Z" fill="#080809" style="fill:#080809;fill:color(display-p3 0.0314 0.0314 0.0353);fill-opacity:1;"/>
<path d="M5.88561 7.11582C6.37377 7.60398 6.37377 8.39544 5.88561 8.88359L4.02015 10.7491H8.00049C8.69084 10.7491 9.25049 11.3087 9.25049 11.9991C9.25049 12.6894 8.69084 13.2491 8.00049 13.2491H4.01884L5.88561 15.1158C6.37377 15.604 6.37377 16.3954 5.88561 16.8836C5.39745 17.3717 4.606 17.3717 4.11784 16.8836L1.1785 13.9443C0.10456 12.8703 0.104563 11.1291 1.1785 10.0552L4.11784 7.11582C4.606 6.62767 5.39746 6.62767 5.88561 7.11582Z" fill="#080809" style="fill:#080809;fill:color(display-p3 0.0314 0.0314 0.0353);fill-opacity:1;"/>
<path d="M18.1175 7.11582C17.6294 7.60398 17.6294 8.39544 18.1175 8.88359L19.9834 10.7495L16.0005 10.7495C15.3101 10.7495 14.7505 11.3091 14.7505 11.9995C14.7505 12.6898 15.3101 13.2495 16.0005 13.2495L19.9838 13.2495L18.1175 15.1158C17.6294 15.604 17.6294 16.3954 18.1175 16.8836C18.6057 17.3717 19.3971 17.3717 19.8853 16.8836L22.8246 13.9443C23.8986 12.8703 23.8986 11.1291 22.8246 10.0552L19.8853 7.11582C19.3971 6.62767 18.6057 6.62767 18.1175 7.11582Z" fill="#080809" style="fill:#080809;fill:color(display-p3 0.0314 0.0314 0.0353);fill-opacity:1;"/>
</g>
<defs>
<clipPath id="clip0_29901_28343">
<rect width="24" height="24" fill="white" style="fill:white;fill-opacity:1;"/>
</clipPath>
</defs>
</svg>
