<svg width="24" height="24" viewBox="0 0 24 24" fill="none" xmlns="http://www.w3.org/2000/svg">
<path d="M7 5.25C7.55228 5.25 8 4.80228 8 4.25C8 3.69772 7.55228 3.25 7 3.25C6.44772 3.25 6 3.69772 6 4.25C6 4.80228 6.44772 5.25 7 5.25Z" fill="#080809" style="fill:#080809;fill:color(display-p3 0.0314 0.0314 0.0353);fill-opacity:1;"/>
<path d="M11 4.25C11 4.80228 10.5523 5.25 10 5.25C9.44772 5.25 9 4.80228 9 4.25C9 3.69772 9.44772 3.25 10 3.25C10.5523 3.25 11 3.69772 11 4.25Z" fill="#080809" style="fill:#080809;fill:color(display-p3 0.0314 0.0314 0.0353);fill-opacity:1;"/>
<path fill-rule="evenodd" clip-rule="evenodd" d="M8.99981 19.0588C7.6398 18.1101 6.75 16.534 6.75 14.75C6.75 11.8505 9.1005 9.5 12 9.5C14.8995 9.5 17.25 11.8505 17.25 14.75C17.25 17.6495 14.8995 20 12 20C10.96 20 9.99067 19.6976 9.17507 19.176C9.11152 19.1454 9.0525 19.106 8.99981 19.0588ZM8.99908 13.5H9.75736C10.7519 13.5 11.7057 13.8951 12.409 14.5983L12.6517 14.841C13.0736 15.2629 13.6459 15.5 14.2426 15.5H15.163C15.2199 15.2592 15.25 15.0081 15.25 14.75C15.25 12.9551 13.7949 11.5 12 11.5C10.648 11.5 9.48886 12.3255 8.99908 13.5Z" fill="#080809" style="fill:#080809;fill:color(display-p3 0.0314 0.0314 0.0353);fill-opacity:1;"/>
<path fill-rule="evenodd" clip-rule="evenodd" d="M3 3.5C3 1.84315 4.34315 0.5 6 0.5H18C19.6569 0.5 21 1.84315 21 3.5V20.5C21 22.1569 19.6569 23.5 18 23.5H6C4.34315 23.5 3 22.1569 3 20.5V3.5ZM19 3.5V6H5V3.5C5 2.94772 5.44772 2.5 6 2.5H18C18.5523 2.5 19 2.94772 19 3.5ZM19 8H5V20.5C5 21.0523 5.44772 21.5 6 21.5H18C18.5523 21.5 19 21.0523 19 20.5V8Z" fill="#080809" style="fill:#080809;fill:color(display-p3 0.0314 0.0314 0.0353);fill-opacity:1;"/>
</svg>
