<svg width="24" height="24" viewBox="0 0 24 24" fill="none" xmlns="http://www.w3.org/2000/svg">
<g clip-path="url(#clip0_29901_26124)">
<path fill-rule="evenodd" clip-rule="evenodd" d="M9.8431 2.842C12.2645 0.420634 15.8498 -0.122701 18.7935 1.20619C19.0928 1.34133 19.3067 1.61484 19.3658 1.93793C19.4248 2.26102 19.3214 2.59249 19.0891 2.82473L15.2677 6.6462C15.0724 6.84146 15.0724 7.15804 15.2677 7.3533L16.6463 8.73198C16.8416 8.92724 17.1582 8.92725 17.3535 8.73198L21.1746 4.91083C21.4069 4.67857 21.7384 4.57518 22.0615 4.63423C22.3846 4.69329 22.6581 4.90725 22.7932 5.20665C24.1213 8.15006 23.5778 11.7347 21.1568 14.1557C18.9122 16.4004 15.6672 17.0311 12.8605 16.0526L6.45684 22.456C5.09981 23.813 2.89967 23.813 1.54267 22.4559C0.18563 21.0989 0.18565 18.8987 1.54271 17.5417L7.94626 11.1384C6.9677 8.33161 7.59844 5.08666 9.8431 2.842ZM16.5029 2.58256C14.6521 2.27053 12.6842 2.82936 11.2573 4.25622C9.44336 6.07016 9.0323 8.75862 10.0299 10.969C10.201 11.3481 10.1196 11.7934 9.82556 12.0875L2.9569 18.9559C2.38091 19.5319 2.3809 20.4658 2.95688 21.0417C3.53285 21.6177 4.46668 21.6177 5.04265 21.0418L11.9114 14.1732C12.2054 13.8792 12.6508 13.7978 13.0298 13.9689C15.2402 14.9665 17.9287 14.5554 19.7426 12.7415C21.1691 11.315 21.728 9.3477 21.4165 7.49737L18.7677 10.1462C17.7914 11.1225 16.2084 11.1225 15.2321 10.1462L13.8535 8.76752C12.8771 7.79121 12.8771 6.2083 13.8535 5.23198L16.5029 2.58256Z" fill="#080809" style="fill:#080809;fill:color(display-p3 0.0314 0.0314 0.0353);fill-opacity:1;"/>
</g>
<defs>
<clipPath id="clip0_29901_26124">
<rect width="24" height="24" fill="white" style="fill:white;fill-opacity:1;"/>
</clipPath>
</defs>
</svg>
