<svg width="24" height="24" viewBox="0 0 24 24" fill="none" xmlns="http://www.w3.org/2000/svg">
<path fill-rule="evenodd" clip-rule="evenodd" d="M2.70711 1.29289C2.31658 0.902369 1.68342 0.902369 1.29289 1.29289C0.90237 1.68342 0.90237 2.31658 1.29289 2.70711L2.55981 3.97403C2.55967 3.97412 2.55996 3.97393 2.55981 3.97403L12.9367 14.3509C12.9366 14.3511 12.9368 14.3507 12.9367 14.3509L19.3757 20.7906C19.3759 20.7906 19.3755 20.7906 19.3757 20.7906L21.2929 22.7071C21.6834 23.0976 22.3166 23.0976 22.7071 22.7071C23.0976 22.3166 23.0976 21.6834 22.7071 21.2929L21.4402 20.026C21.6498 19.8851 21.8483 19.7227 22.0355 19.5355C22.8381 18.733 23.1833 17.7225 23.3446 16.5223C23.5001 15.3664 23.5 13.8966 23.5 12.0731V11.9269C23.5 10.1034 23.5001 8.63363 23.3446 7.47767C23.1833 6.27752 22.8381 5.26702 22.0355 4.46447C21.233 3.66191 20.2225 3.31672 19.0223 3.15537C17.8664 2.99995 16.3967 2.99997 14.5732 3H9.42684C7.60341 2.99997 6.13361 2.99995 4.97767 3.15537C4.85778 3.17148 4.73979 3.18944 4.62371 3.2095L2.70711 1.29289ZM10.4142 9L12.4142 11H18C18.5523 11 19 10.5523 19 10C19 9.44772 18.5523 9 18 9H10.4142Z" fill="#080809" style="fill:#080809;fill:color(display-p3 0.0314 0.0314 0.0353);fill-opacity:1;"/>
<path d="M0.655367 7.47767C0.780854 6.54431 1.01753 5.72565 1.49406 5.0303L5.5637 9.09995C5.23002 9.262 5 9.60414 5 10C5 10.5523 5.44772 11 6 11H7.46376L9.46376 13H6C5.44772 13 5 13.4477 5 14C5 14.5523 5.44772 15 6 15H11.4638L17.4322 20.9684C16.5961 21 15.6458 21 14.5731 21H9.42687C7.6034 21 6.13363 21.0001 4.97767 20.8446C3.77752 20.6833 2.76703 20.3381 1.96447 19.5355C1.16191 18.733 0.816722 17.7225 0.655367 16.5223C0.499955 15.3664 0.499975 13.8967 0.500001 12.0732V11.9268C0.499975 10.1034 0.499955 8.63361 0.655367 7.47767Z" fill="#080809" style="fill:#080809;fill:color(display-p3 0.0314 0.0314 0.0353);fill-opacity:1;"/>
</svg>
