<svg width="24" height="24" viewBox="0 0 24 24" fill="none" xmlns="http://www.w3.org/2000/svg">
<path d="M10.75 5.75C10.75 6.44036 11.3096 7 12 7C12.6904 7 13.25 6.44036 13.25 5.75C13.25 5.05964 12.6904 4.5 12 4.5C11.3096 4.5 10.75 5.05964 10.75 5.75Z" fill="#080809" style="fill:#080809;fill:color(display-p3 0.0314 0.0314 0.0353);fill-opacity:1;"/>
<path d="M8.25 7C7.55964 7 7 6.44036 7 5.75C7 5.05964 7.55964 4.5 8.25 4.5C8.94036 4.5 9.5 5.05964 9.5 5.75C9.5 6.44036 8.94036 7 8.25 7Z" fill="#080809" style="fill:#080809;fill:color(display-p3 0.0314 0.0314 0.0353);fill-opacity:1;"/>
<path d="M14.5 5.75C14.5 6.44036 15.0596 7 15.75 7C16.4404 7 17 6.44036 17 5.75C17 5.05964 16.4404 4.5 15.75 4.5C15.0596 4.5 14.5 5.05964 14.5 5.75Z" fill="#080809" style="fill:#080809;fill:color(display-p3 0.0314 0.0314 0.0353);fill-opacity:1;"/>
<path d="M14 12C14.5523 12 15 12.4477 15 13C15 13.5523 14.5523 14 14 14H10C9.44772 14 9 13.5523 9 13C9 12.4477 9.44772 12 10 12H14Z" fill="#080809" style="fill:#080809;fill:color(display-p3 0.0314 0.0314 0.0353);fill-opacity:1;"/>
<path fill-rule="evenodd" clip-rule="evenodd" d="M4 1C2.34315 1 1 2.34315 1 4V19C1 20.6569 2.34315 22 4 22L4 22.5C4 23.0523 4.44772 23.5 5 23.5C5.55228 23.5 6 23.0523 6 22.5V22H18V22.5C18 23.0523 18.4477 23.5 19 23.5C19.5523 23.5 20 23.0523 20 22.5V22C21.6569 22 23 20.6569 23 19V4C23 2.34315 21.6569 1 20 1H4ZM21 8.5V4C21 3.44772 20.5523 3 20 3H4C3.44772 3 3 3.44772 3 4V8.5H21ZM3 10.5H21V19C21 19.5523 20.5523 20 20 20H4C3.44772 20 3 19.5523 3 19V10.5Z" fill="#080809" style="fill:#080809;fill:color(display-p3 0.0314 0.0314 0.0353);fill-opacity:1;"/>
</svg>
