<svg width="24" height="24" viewBox="0 0 24 24" fill="none" xmlns="http://www.w3.org/2000/svg">
<g clip-path="url(#clip0_29901_28564)">
<path fill-rule="evenodd" clip-rule="evenodd" d="M0.5 12C0.5 5.64873 5.64873 0.5 12 0.5C18.3513 0.5 23.5 5.64873 23.5 12C23.5 18.3513 18.3513 23.5 12 23.5C5.64873 23.5 0.5 18.3513 0.5 12ZM13 5.99998C13 5.4477 12.5523 4.99998 12 4.99998C11.4477 4.99998 11 5.4477 11 5.99998V10.5858L9.70711 9.29288C9.31658 8.90235 8.68342 8.90235 8.29289 9.29288C7.90237 9.6834 7.90237 10.3166 8.29289 10.7071L10.2322 12.6464C11.2085 13.6227 12.7915 13.6227 13.7678 12.6464L15.7071 10.7071C16.0976 10.3166 16.0976 9.6834 15.7071 9.29288C15.3166 8.90235 14.6834 8.90235 14.2929 9.29288L13 10.5858V5.99998ZM8 14C8 13.4477 7.55228 13 7 13C6.44772 13 6 13.4477 6 14V15.5C6 16.8807 7.11929 18 8.5 18H15.5C16.8807 18 18 16.8807 18 15.5V14C18 13.4477 17.5523 13 17 13C16.4477 13 16 13.4477 16 14V15.5C16 15.7761 15.7761 16 15.5 16H8.5C8.22386 16 8 15.7761 8 15.5V14Z" fill="#080809" style="fill:#080809;fill:color(display-p3 0.0314 0.0314 0.0353);fill-opacity:1;"/>
</g>
<defs>
<clipPath id="clip0_29901_28564">
<rect width="24" height="24" fill="white" style="fill:white;fill-opacity:1;"/>
</clipPath>
</defs>
</svg>
