<svg width="24" height="24" viewBox="0 0 24 24" fill="none" xmlns="http://www.w3.org/2000/svg">
<path d="M8.25 12.75C8.25 10.6789 9.92893 9 12 9C14.0711 9 15.75 10.6789 15.75 12.75C15.75 14.8211 14.0711 16.5 12 16.5C9.92893 16.5 8.25 14.8211 8.25 12.75Z" fill="#080809" style="fill:#080809;fill:color(display-p3 0.0314 0.0314 0.0353);fill-opacity:1;"/>
<path fill-rule="evenodd" clip-rule="evenodd" d="M10.6569 2.00004L10.518 1.99989C9.83923 1.99885 9.23679 1.99793 8.68038 2.2284C8.12398 2.45887 7.69864 2.88551 7.21939 3.36624L7.12133 3.4645L6.58579 4.00004C5.62887 4.00002 4.83883 4.00021 4.19922 4.0623C3.53109 4.12715 2.92235 4.26686 2.37013 4.61424C1.86266 4.93347 1.43344 5.36269 1.1142 5.87016C0.766831 6.42238 0.627121 7.03112 0.562265 7.69925C0.499975 8.34095 0.499987 9.1341 0.500001 10.0952V15.0706C0.499969 16.4247 0.499943 17.5414 0.618758 18.4251C0.743501 19.3529 1.01547 20.1724 1.67158 20.8285C2.32769 21.4846 3.14711 21.7565 4.07494 21.8813C4.95868 22.0001 6.07534 22.0001 7.42942 22H16.5706C17.9247 22.0001 19.0413 22.0001 19.9251 21.8813C20.8529 21.7565 21.6723 21.4846 22.3284 20.8285C22.9845 20.1724 23.2565 19.3529 23.3813 18.4251C23.5001 17.5414 23.5 16.4247 23.5 15.0706V10.0953C23.5 9.13413 23.5 8.34098 23.4377 7.69925C23.3729 7.03112 23.2332 6.42238 22.8858 5.87016C22.5666 5.36269 22.1374 4.93347 21.6299 4.61424C21.0777 4.26686 20.4689 4.12715 19.8008 4.0623C19.1612 4.00021 18.3711 4.00002 17.4142 4.00004L16.8787 3.4645L16.7806 3.36624C16.3014 2.88551 15.876 2.45887 15.3196 2.2284C14.7632 1.99793 14.1608 1.99885 13.482 1.99989L13.3432 2.00004H10.6569ZM12 7C8.82436 7 6.25 9.57436 6.25 12.75C6.25 15.9256 8.82436 18.5 12 18.5C15.1756 18.5 17.75 15.9256 17.75 12.75C17.75 9.57436 15.1756 7 12 7Z" fill="#080809" style="fill:#080809;fill:color(display-p3 0.0314 0.0314 0.0353);fill-opacity:1;"/>
</svg>
