<svg width="24" height="24" viewBox="0 0 24 24" fill="none" xmlns="http://www.w3.org/2000/svg">
<path d="M18.5 17.5C19.3284 17.5 20 16.8284 20 16C20 15.1716 19.3284 14.5 18.5 14.5C17.6716 14.5 17 15.1716 17 16C17 16.8284 17.6716 17.5 18.5 17.5Z" fill="#080809" style="fill:#080809;fill:color(display-p3 0.0314 0.0314 0.0353);fill-opacity:1;"/>
<path fill-rule="evenodd" clip-rule="evenodd" d="M23 3.5C23 2.11929 21.8807 1 20.5 1H7.5C6.11929 1 5 2.11929 5 3.5V6H3.5C2.11929 6 1 7.11929 1 8.5V20C1 21.6569 2.34315 23 4 23H16.9123C17.465 23.4885 17.8673 23.7767 17.923 23.816C18.096 23.939 18.298 24 18.5 24C18.702 24 18.904 23.939 19.077 23.816C19.1773 23.7451 20.4032 22.8664 21.6064 21.4632C21.8125 21.2487 21.9996 21.0158 22.165 20.7673C23.1552 19.4446 24 17.7769 24 15.937C24 14.7757 23.6298 13.6983 23 12.814V3.5ZM10 18H13.3437C13.1347 17.3645 13.0076 16.6947 13.0003 16H10C9.44771 16 9 16.4477 9 17C9 17.5523 9.44771 18 10 18ZM10 14H13.3606C13.6562 13.236 14.1214 12.5543 14.7103 12H10C9.44771 12 9 12.4477 9 13C9 13.5523 9.44771 14 10 14ZM4 21C3.44772 21 3 20.5523 3 20V8.5C3 8.22386 3.22386 8 3.5 8H5V20C5 20.5523 4.55228 21 4 21ZM9 7C9 8.10457 9.89543 9 11 9C12.1046 9 13 8.10457 13 7C13 5.89543 12.1046 5 11 5C9.89543 5 9 5.89543 9 7ZM18.5 12.5C16.57 12.5 15 14.042 15 15.937C15 18.303 17.163 20.614 18.495 21.73C19.619 20.784 22 18.479 22 15.937C22 14.042 20.43 12.5 18.5 12.5Z" fill="#080809" style="fill:#080809;fill:color(display-p3 0.0314 0.0314 0.0353);fill-opacity:1;"/>
</svg>
