<svg width="24" height="24" viewBox="0 0 24 24" fill="none" xmlns="http://www.w3.org/2000/svg">
<g clip-path="url(#clip0_29901_28340)">
<path fill-rule="evenodd" clip-rule="evenodd" d="M23.5 12C23.5 5.64873 18.3513 0.5 12 0.5C5.64873 0.5 0.5 5.64873 0.5 12C0.5 18.3513 5.64873 23.5 12 23.5C18.3513 23.5 23.5 18.3513 23.5 12ZM16.7071 12.2929C16.3166 11.9024 15.6834 11.9024 15.2929 12.2929L13.0005 14.5852L13.0005 6.99978C13.0005 6.44749 12.5528 5.99978 12.0005 5.99978C11.4482 5.99978 11.0005 6.4475 11.0005 6.99978L11.0005 14.5863L8.70711 12.2929C8.31658 11.9024 7.68342 11.9024 7.29289 12.2929C6.90237 12.6834 6.90237 13.3166 7.29289 13.7071L10.2322 16.6464C11.2085 17.6228 12.7915 17.6228 13.7678 16.6464L16.7071 13.7071C17.0976 13.3166 17.0976 12.6834 16.7071 12.2929Z" fill="#080809" style="fill:#080809;fill:color(display-p3 0.0314 0.0314 0.0353);fill-opacity:1;"/>
</g>
<defs>
<clipPath id="clip0_29901_28340">
<rect width="24" height="24" fill="white" style="fill:white;fill-opacity:1;"/>
</clipPath>
</defs>
</svg>
