<svg width="24" height="24" viewBox="0 0 24 24" fill="none" xmlns="http://www.w3.org/2000/svg">
<path d="M10.6838 1.34658C11.202 0.223013 12.7989 0.223018 13.3171 1.34658L14.5456 4.00988L17.4582 4.35521C18.6869 4.50089 19.1803 6.0196 18.2719 6.85969L16.1186 8.85102L16.6902 11.7277C16.9313 12.9414 15.6394 13.88 14.5598 13.2756L12.0005 11.843L9.44117 13.2756C8.36148 13.88 7.06959 12.9413 7.31073 11.7277L7.88233 8.85102L5.729 6.85969C4.82058 6.0196 5.31404 4.50089 6.54276 4.35521L9.45532 4.00988L10.6838 1.34658Z" fill="#080809" style="fill:#080809;fill:color(display-p3 0.0314 0.0314 0.0353);fill-opacity:1;"/>
<path d="M7 21C6.44772 21 6 21.4477 6 22C6 22.5523 6.44772 23 7 23H17C17.5523 23 18 22.5523 18 22C18 21.4477 17.5523 21 17 21H16.5V16.5C16.5 15.9477 16.0523 15.5 15.5 15.5C14.9477 15.5 14.5 15.9477 14.5 16.5V21H13L13 15C13 14.4477 12.5523 14 12 14C11.4477 14 11 14.4477 11 15L11 21H9.5L9.5 16.5C9.5 15.9477 9.05229 15.5 8.5 15.5C7.94772 15.5 7.5 15.9477 7.5 16.5L7.5 21H7Z" fill="#080809" style="fill:#080809;fill:color(display-p3 0.0314 0.0314 0.0353);fill-opacity:1;"/>
</svg>
