<svg width="24" height="24" viewBox="0 0 24 24" fill="none" xmlns="http://www.w3.org/2000/svg">
<path d="M10 1C7.23858 1 5 3.23858 5 6C5 8.76142 7.23858 11 10 11C12.7614 11 15 8.76142 15 6C15 3.23858 12.7614 1 10 1Z" fill="#080809" style="fill:#080809;fill:color(display-p3 0.0314 0.0314 0.0353);fill-opacity:1;"/>
<path d="M17.4961 9C15.7012 9 14.2461 10.4551 14.2461 12.25C14.2461 14.0449 15.7012 15.5 17.4961 15.5C19.291 15.5 20.7461 14.0449 20.7461 12.25C20.7461 10.4551 19.291 9 17.4961 9Z" fill="#080809" style="fill:#080809;fill:color(display-p3 0.0314 0.0314 0.0353);fill-opacity:1;"/>
<path d="M15.9994 16.5C13.7905 16.5 12 18.2909 12 20.4996C12 21.8799 13.1188 22.9991 14.4992 22.9994L20.499 22.9994C21.8794 22.9991 22.9982 21.8799 22.9982 20.4996C22.9982 18.2909 21.2077 16.5 18.9988 16.5H15.9994Z" fill="#080809" style="fill:#080809;fill:color(display-p3 0.0314 0.0314 0.0353);fill-opacity:1;"/>
<path d="M7.33333 13C3.83553 13 1 15.8355 1 19.3333C1 21.3584 2.64162 23 4.66667 23H8.54606C9.57267 23 10.1869 22.0514 10.0541 21.2003C10.0185 20.9726 10 20.7386 10 20.4997C10 18.6529 10.8333 17.0014 12.1482 15.8992C12.6613 15.4691 12.8368 14.7613 12.5983 14.1452C12.5822 14.1037 12.5666 14.0619 12.5516 14.0198C12.3463 13.4464 11.7984 13 11.1192 13H7.33333Z" fill="#080809" style="fill:#080809;fill:color(display-p3 0.0314 0.0314 0.0353);fill-opacity:1;"/>
</svg>
