<svg width="24" height="24" viewBox="0 0 24 24" fill="none" xmlns="http://www.w3.org/2000/svg">
<g clip-path="url(#clip0_29901_26501)">
<path d="M7.70321 3.5032C11.2617 1.72087 15.7063 2.31405 18.675 5.28273C22.385 8.99271 22.385 15.0078 18.675 18.7178C15.2038 22.189 9.71472 22.4124 5.98376 19.388L13.3716 12.0001L5.98388 4.61239C5.98387 4.61241 5.9839 4.61238 5.98388 4.61239L4.56327 3.19168C4.31014 3.40466 4.06404 3.63027 3.82579 3.86852C0.0687277 7.62558 -0.545286 13.3355 1.98375 17.7309L3.46033 16.2543C1.82155 12.9821 2.19133 8.9607 4.56967 6.02661L10.5432 12.0001L4.56957 17.9738C4.56953 17.9737 4.56962 17.9738 4.56957 17.9738L3.14876 19.3943C3.36179 19.6475 3.58747 19.8936 3.82579 20.132C8.31682 24.623 15.5982 24.623 20.0892 20.132C24.5803 15.6409 24.5803 8.35955 20.0892 3.86852C16.3321 0.111375 10.622 -0.502587 6.22664 2.02663L7.70321 3.5032Z" fill="#080809" style="fill:#080809;fill:color(display-p3 0.0314 0.0314 0.0353);fill-opacity:1;"/>
</g>
<defs>
<clipPath id="clip0_29901_26501">
<rect width="24" height="24" fill="white" style="fill:white;fill-opacity:1;"/>
</clipPath>
</defs>
</svg>
