<svg width="24" height="24" viewBox="0 0 24 24" fill="none" xmlns="http://www.w3.org/2000/svg">
<path d="M18.5505 1.10465C18.9267 0.298449 20.0731 0.298453 20.4494 1.10465L20.6637 1.56402C21.028 2.34454 21.6554 2.97193 22.4359 3.3362L22.8953 3.55059C23.7015 3.92684 23.7015 5.07323 22.8953 5.44948L22.4359 5.66387C21.6554 6.02814 21.028 6.65553 20.6637 7.43605L20.4494 7.89542C20.0731 8.70162 18.9267 8.70162 18.5505 7.89542L18.3361 7.43605C17.9718 6.65553 17.3444 6.02814 16.5639 5.66387L16.1045 5.44948C15.2983 5.07322 15.2983 3.92684 16.1045 3.55059L16.5639 3.3362C17.3444 2.97193 17.9718 2.34454 18.3361 1.56402L18.5505 1.10465Z" fill="#080809" style="fill:#080809;fill:color(display-p3 0.0314 0.0314 0.0353);fill-opacity:1;"/>
<path fill-rule="evenodd" clip-rule="evenodd" d="M6.3804 1.19002C4.90794 1.38799 3.70636 1.80641 2.75736 2.75541C1.80836 3.70441 1.38994 4.90598 1.19198 6.37844C0.999963 7.80663 0.999979 9.62967 1 11.9232V12.674C0.999985 14.6802 0.999972 16.2753 1.14971 17.5381C1.30369 18.8368 1.62794 19.9141 2.37039 20.8147C2.61474 21.1111 2.88698 21.3833 3.18337 21.6277C4.08397 22.3701 5.16126 22.6944 6.45991 22.8483C7.72273 22.9981 9.31776 22.9981 11.324 22.998L11.5559 22.9981C11.8963 22.9982 12.209 22.9984 12.5 22.9928L12.5 21.1936C12.5 19.7071 12.5 18.4705 12.581 17.4493C12.3892 17.4649 12.1953 17.4729 11.9997 17.4729C10.2195 17.4729 8.59094 16.8149 7.35699 15.7306C6.95302 15.3756 6.91331 14.7603 7.2683 14.3564C7.62328 13.9524 8.23854 13.9127 8.64251 14.2677C9.53158 15.049 10.7065 15.5254 11.9997 15.5254C12.2873 15.5254 12.5684 15.5019 12.8415 15.4569C12.8766 15.4511 12.9117 15.4473 12.9464 15.4453C13.1479 14.853 13.4459 14.3366 13.8912 13.8912C14.6396 13.1429 15.5886 12.8108 16.761 12.6531C17.9002 12.5 19.3558 12.5 21.1936 12.5L22.9948 12.5C23.0003 12.2087 23.0002 11.8958 23 11.5549L23 11.3878C23 11.0815 23 10.7855 22.9995 10.5003C22.999 10.1662 22.8316 9.85442 22.5534 9.66935C22.2753 9.48429 21.923 9.45037 21.6147 9.57896C20.9649 9.84989 20.2511 10 19.4998 10C16.4622 10 13.9998 7.53757 13.9998 4.5C13.9998 3.74807 14.1501 3.03379 14.4214 2.38364C14.5501 2.07526 14.5163 1.72298 14.3312 1.44474C14.1462 1.1665 13.8344 0.999077 13.5002 0.998523C13.2143 0.998047 12.9172 0.998047 12.6102 0.998047H11.9252C9.63166 0.998025 7.80859 0.998008 6.3804 1.19002ZM9.5 8.75C9.5 9.7165 8.7165 10.5 7.75 10.5C6.7835 10.5 6 9.7165 6 8.75C6 7.7835 6.7835 7 7.75 7C8.7165 7 9.5 7.7835 9.5 8.75Z" fill="#080809" style="fill:#080809;fill:color(display-p3 0.0314 0.0314 0.0353);fill-opacity:1;"/>
<path d="M14.5326 22.704C14.3588 22.7664 14.1823 22.8156 14 22.8543V21.25C14 19.3432 14.0016 17.9885 14.1398 16.9608C14.275 15.9548 14.5287 15.3751 14.9519 14.9519C15.3751 14.5287 15.9548 14.275 16.9608 14.1398C17.9885 14.0016 19.3432 14 21.25 14H22.8561C22.8173 14.1825 22.7681 14.3591 22.7056 14.533C22.6516 14.6834 22.5904 14.8312 22.5223 14.9757C22.1496 15.7658 21.5247 16.39 20.6241 17.2896L17.2887 20.624C16.3894 21.5238 15.7653 22.1482 14.9756 22.5205C14.831 22.5887 14.6831 22.65 14.5326 22.704Z" fill="#080809" style="fill:#080809;fill:color(display-p3 0.0314 0.0314 0.0353);fill-opacity:1;"/>
</svg>
