<svg width="24" height="24" viewBox="0 0 24 24" fill="none" xmlns="http://www.w3.org/2000/svg">
<g clip-path="url(#clip0_29901_26499)">
<path fill-rule="evenodd" clip-rule="evenodd" d="M12 0.5C5.64873 0.5 0.5 5.64873 0.5 12C0.5 18.3513 5.64873 23.5 12 23.5C18.3513 23.5 23.5 18.3513 23.5 12C23.5 5.64873 18.3513 0.5 12 0.5ZM8.39786 3.2067C9.50873 2.75116 10.725 2.5 12 2.5C14.1104 2.5 16.06 3.18813 17.6368 4.35225L16.1759 8.85536L8.39786 3.2067ZM6.46732 4.27645C4.06496 6.00041 2.5 8.81745 2.5 12C2.5 12.2364 2.50863 12.4708 2.52561 12.7029L10.2979 7.05835L6.46732 4.27645ZM9.74478 21.2307C6.51808 20.4451 3.93653 18.0117 2.94194 14.8723L6.774 12.0893L9.74478 21.2307ZM11.9352 21.4998C11.9568 21.4999 11.9784 21.5 12 21.5C15.4121 21.5 18.4041 19.7011 20.0793 17H10.4728L11.9352 21.4998ZM9.82289 15H14.1823L15.5268 10.8558L11.9997 8.29423L8.47541 10.8537L9.82289 15ZM16.2849 15L19.25 5.86072C20.6535 7.5165 21.5 9.6594 21.5 12C21.5 13.0483 21.3302 14.057 21.0166 15H16.2849Z" fill="#080809" style="fill:#080809;fill:color(display-p3 0.0314 0.0314 0.0353);fill-opacity:1;"/>
</g>
<defs>
<clipPath id="clip0_29901_26499">
<rect width="24" height="24" fill="white" style="fill:white;fill-opacity:1;"/>
</clipPath>
</defs>
</svg>
