<svg width="24" height="24" viewBox="0 0 24 24" fill="none" xmlns="http://www.w3.org/2000/svg">
<path d="M1 6C1 4.34315 2.34315 3 4 3C5.65685 3 7 4.34315 7 6C7 7.30622 6.16519 8.41746 5 8.82929V12H11V6C11 5.44772 11.4477 5 12 5C12.5523 5 13 5.44772 13 6V12H18.5C18.7761 12 19 11.7761 19 11.5V6C19 5.44772 19.4477 5 20 5C20.5523 5 21 5.44772 21 6V11.5C21 12.8807 19.8807 14 18.5 14H13V20C13 20.5523 12.5523 21 12 21C11.4477 21 11 20.5523 11 20V14H5V20C5 20.5523 4.55228 21 4 21C3.44772 21 3 20.5523 3 20V8.82929C1.83481 8.41746 1 7.30622 1 6Z" fill="#080809" style="fill:#080809;fill:color(display-p3 0.0314 0.0314 0.0353);fill-opacity:1;"/>
</svg>
