<svg width="24" height="24" viewBox="0 0 24 24" fill="none" xmlns="http://www.w3.org/2000/svg">
<path d="M11 1C8.23858 1 6 3.23858 6 6C6 8.76142 8.23858 11 11 11C13.7614 11 16 8.76142 16 6C16 3.23858 13.7614 1 11 1Z" fill="#080809" style="fill:#080809;fill:color(display-p3 0.0314 0.0314 0.0353);fill-opacity:1;"/>
<path d="M8.33333 13C4.83553 13 2 15.8355 2 19.3333C2 21.3584 3.64162 23 5.66667 23H12.1241C12.4614 23 12.7761 22.8299 12.9608 22.5476C13.1456 22.2652 13.1755 21.9088 13.0404 21.5996C12.6931 20.8048 12.5 19.9263 12.5 19C12.5 17.3346 13.125 15.8176 14.1549 14.6669C14.4179 14.373 14.4837 13.952 14.3227 13.5919C14.1617 13.2318 13.8042 13 13.4098 13H8.33333Z" fill="#080809" style="fill:#080809;fill:color(display-p3 0.0314 0.0314 0.0353);fill-opacity:1;"/>
<path d="M20.3353 15.2765C20.7042 14.9078 21.302 14.9078 21.6708 15.2765L21.7049 15.3107L21.71 15.3157L22.684 16.2893L22.689 16.2944L22.7232 16.3285C23.0922 16.6974 23.0922 17.2957 22.7231 17.6646L22.6895 17.6982L22.6839 17.7038L17.8269 22.5584C17.5463 22.8388 17.1659 22.9967 16.7692 22.9974L15.5009 22.9997C15.2244 23.0002 15 22.7762 15 22.4997L15 22.2985L15 22.2909L15.0001 21.3917L15.0001 21.3794L15.0001 21.2305C15.0001 20.8325 15.1583 20.4509 15.4397 20.1696L15.546 20.0634L15.5537 20.0557L20.3353 15.2765Z" fill="#080809" style="fill:#080809;fill:color(display-p3 0.0314 0.0314 0.0353);fill-opacity:1;"/>
</svg>
