<svg width="24" height="24" viewBox="0 0 24 24" fill="none" xmlns="http://www.w3.org/2000/svg">
<path d="M5.29833 1.39938C5.63008 1.84093 5.54106 2.46781 5.09951 2.79955C4.22876 3.45377 3.45377 4.22876 2.79955 5.09951C2.46781 5.54106 1.84093 5.63008 1.39938 5.29833C0.957835 4.96659 0.868821 4.33971 1.20056 3.89817C1.96794 2.8768 2.8768 1.96794 3.89817 1.20056C4.33971 0.868821 4.96659 0.957835 5.29833 1.39938Z" fill="#080809" style="fill:#080809;fill:color(display-p3 0.0314 0.0314 0.0353);fill-opacity:1;"/>
<path fill-rule="evenodd" clip-rule="evenodd" d="M12 2C6.47715 2 2 6.47715 2 12C2 15.1654 3.47074 17.9873 5.76615 19.8196L4.29289 21.2929C3.90237 21.6834 3.90237 22.3166 4.29289 22.7071C4.68342 23.0976 5.31658 23.0976 5.70711 22.7071L7.48772 20.9265C8.84334 21.6131 10.3765 22 12 22C13.6235 22 15.1567 21.6131 16.5123 20.9265L18.2929 22.7071C18.6834 23.0976 19.3166 23.0976 19.7071 22.7071C20.0976 22.3166 20.0976 21.6834 19.7071 21.2929L18.2338 19.8196C20.5293 17.9873 22 15.1654 22 12C22 6.47715 17.5228 2 12 2ZM13 8.00024C13 7.44796 12.5523 7.00024 12 7.00024C11.4477 7.00024 11 7.44796 11 8.00024V11.9999C11 12.2651 11.1054 12.5195 11.2929 12.707L13.7929 15.207C14.1834 15.5975 14.8166 15.5975 15.2071 15.207C15.5976 14.8165 15.5976 14.1833 15.2071 13.7928L13 11.5857V8.00024Z" fill="#080809" style="fill:#080809;fill:color(display-p3 0.0314 0.0314 0.0353);fill-opacity:1;"/>
<path d="M18.7007 1.39938C18.3689 1.84093 18.458 2.46781 18.8995 2.79955C19.7703 3.45377 20.5453 4.22876 21.1995 5.09951C21.5312 5.54106 22.1581 5.63008 22.5996 5.29833C23.0412 4.96659 23.1302 4.33971 22.7985 3.89817C22.0311 2.8768 21.1222 1.96794 20.1009 1.20056C19.6593 0.868821 19.0324 0.957835 18.7007 1.39938Z" fill="#080809" style="fill:#080809;fill:color(display-p3 0.0314 0.0314 0.0353);fill-opacity:1;"/>
</svg>
