<svg width="24" height="24" viewBox="0 0 24 24" fill="none" xmlns="http://www.w3.org/2000/svg">
<g clip-path="url(#clip0_29901_26770)">
<path d="M12.0002 2.5C9.18672 2.5 6.65992 3.72178 4.91897 5.66691C4.55065 6.07844 3.91845 6.11346 3.50692 5.74514C3.0954 5.37681 3.06038 4.74461 3.4287 4.33309C5.533 1.98198 8.5942 0.5 12.0002 0.5C18.3515 0.5 23.5002 5.64873 23.5002 12C23.5002 13.9218 23.028 15.7363 22.1924 17.3308C22.1052 17.4973 22.0922 17.6559 22.1235 17.7765L23.0049 21.1762C23.292 22.2835 22.2837 23.2918 21.1765 23.0047L17.7767 22.1233C17.6561 22.092 17.4975 22.105 17.331 22.1922C15.7365 23.0278 13.922 23.5 12.0002 23.5C8.5942 23.5 5.533 22.018 3.4287 19.6669C3.06038 19.2554 3.0954 18.6232 3.50692 18.2549C3.91845 17.8865 4.55065 17.9216 4.91897 18.3331C6.65992 20.2782 9.18672 21.5 12.0002 21.5C13.591 21.5 15.0877 21.1098 16.4027 20.4207C16.9513 20.1333 17.6179 20.016 18.2787 20.1873L20.8556 20.8554L20.1875 18.2785C20.0162 17.6177 20.1335 16.9511 20.4209 16.4025C21.11 15.0875 21.5002 13.5908 21.5002 12C21.5002 6.75329 17.2469 2.5 12.0002 2.5Z" fill="#080809" style="fill:#080809;fill:color(display-p3 0.0314 0.0314 0.0353);fill-opacity:1;"/>
<path d="M0.5 10C0.5 9.44771 0.947715 9 1.5 9H10C10.5523 9 11 9.44771 11 10C11 10.5523 10.5523 11 10 11H1.5C0.947715 11 0.5 10.5523 0.5 10Z" fill="#080809" style="fill:#080809;fill:color(display-p3 0.0314 0.0314 0.0353);fill-opacity:1;"/>
<path d="M3 13C2.44772 13 2 13.4477 2 14C2 14.5523 2.44772 15 3 15H8C8.55228 15 9 14.5523 9 14C9 13.4477 8.55228 13 8 13H3Z" fill="#080809" style="fill:#080809;fill:color(display-p3 0.0314 0.0314 0.0353);fill-opacity:1;"/>
</g>
<defs>
<clipPath id="clip0_29901_26770">
<rect width="24" height="24" fill="white" style="fill:white;fill-opacity:1;"/>
</clipPath>
</defs>
</svg>
