<svg width="24" height="24" viewBox="0 0 24 24" fill="none" xmlns="http://www.w3.org/2000/svg">
<path d="M5.98503 12.9998L12.3762 4.37188L11.5122 9.84384C11.4666 10.1327 11.5497 10.4271 11.7397 10.6494C11.9297 10.8718 12.2075 10.9998 12.5 10.9998H18.0226C17.7705 11.4343 17.8799 11.9982 18.293 12.3042C18.7368 12.6329 19.3631 12.5396 19.6918 12.0959L20.1241 11.5123C20.894 10.4728 20.152 8.99981 18.8585 8.99981H13.6702L14.622 2.97189C14.8789 1.34478 12.7812 0.46511 11.8007 1.78876L3.87572 12.4873C3.10575 13.5268 3.84775 14.9998 5.14131 14.9998H10.3295L9.37785 21.0278C9.12096 22.6549 11.2187 23.5345 12.1992 22.2109L12.5961 21.6751C12.9248 21.2313 12.8315 20.6051 12.3877 20.2763C12.137 20.0906 11.8281 20.0396 11.5475 20.1103L12.4876 14.1558C12.5332 13.8669 12.45 13.5725 12.2601 13.3502C12.0701 13.1278 11.7923 12.9998 11.4998 12.9998H5.98503Z" fill="#080809" style="fill:#080809;fill:color(display-p3 0.0314 0.0314 0.0353);fill-opacity:1;"/>
<path d="M16.7062 15.2928C16.3157 14.9022 15.6826 14.9022 15.292 15.2928C14.9015 15.6833 14.9015 16.3165 15.292 16.707L17.5849 18.9999L15.292 21.2928C14.9015 21.6833 14.9015 22.3165 15.292 22.707C15.6826 23.0975 16.3157 23.0975 16.7062 22.707L18.9991 20.4141L21.292 22.707C21.6826 23.0975 22.3157 23.0975 22.7062 22.707C23.0968 22.3165 23.0968 21.6833 22.7062 21.2928L20.4134 18.9999L22.7062 16.707C23.0968 16.3165 23.0968 15.6833 22.7062 15.2928C22.3157 14.9022 21.6826 14.9022 21.292 15.2928L18.9991 17.5857L16.7062 15.2928Z" fill="#080809" style="fill:#080809;fill:color(display-p3 0.0314 0.0314 0.0353);fill-opacity:1;"/>
</svg>
