<svg width="24" height="24" viewBox="0 0 24 24" fill="none" xmlns="http://www.w3.org/2000/svg">
<g clip-path="url(#clip0_29901_26612)">
<path fill-rule="evenodd" clip-rule="evenodd" d="M12 2.5C6.75329 2.5 2.5 6.75329 2.5 12C2.5 17.2467 6.75329 21.5 12 21.5C13.0149 21.5 13.9909 21.3412 14.9053 21.0478C15.4692 20.8669 16.0103 20.6346 16.5231 20.3564C17.0086 20.093 17.6156 20.2731 17.879 20.7585C18.1423 21.2439 17.9623 21.851 17.4769 22.1144C16.8558 22.4513 16.2001 22.7328 15.5163 22.9522C14.4067 23.3082 13.2248 23.5 12 23.5C5.64873 23.5 0.5 18.3513 0.5 12C0.5 5.64873 5.64873 0.5 12 0.5C18.3513 0.5 23.5 5.64873 23.5 12V14C23.5 16.2091 21.7091 18 19.5 18C18.0017 18 16.6958 17.1762 16.0105 15.9568C14.9108 17.2094 13.2978 18 11.5 18C8.18629 18 5.5 15.3137 5.5 12C5.5 8.68629 8.18629 6 11.5 6C13.0766 6 14.5113 6.60813 15.5821 7.60262C15.7358 7.24804 16.0889 7 16.5 7C17.0523 7 17.5 7.44772 17.5 8V14C17.5 15.1046 18.3954 16 19.5 16C20.6046 16 21.5 15.1046 21.5 14V12C21.5 6.75329 17.2467 2.5 12 2.5ZM15.5 12C15.5 9.79086 13.7091 8 11.5 8C9.29086 8 7.5 9.79086 7.5 12C7.5 14.2091 9.29086 16 11.5 16C13.7091 16 15.5 14.2091 15.5 12Z" fill="#080809" style="fill:#080809;fill:color(display-p3 0.0314 0.0314 0.0353);fill-opacity:1;"/>
</g>
<defs>
<clipPath id="clip0_29901_26612">
<rect width="24" height="24" fill="white" style="fill:white;fill-opacity:1;"/>
</clipPath>
</defs>
</svg>
