<svg width="24" height="24" viewBox="0 0 24 24" fill="none" xmlns="http://www.w3.org/2000/svg">
<path fill-rule="evenodd" clip-rule="evenodd" d="M12 0.5C5.64873 0.5 0.5 5.64873 0.5 12C0.5 18.3513 5.64873 23.5 12 23.5C18.3513 23.5 23.5 18.3513 23.5 12C23.5 5.64873 18.3513 0.5 12 0.5ZM15.2061 8.29289C15.5967 8.68342 15.5967 9.31658 15.2061 9.70711L9.76679 15.1464C8.79048 16.1228 7.20757 16.1228 6.23126 15.1464L4.29192 13.2071C3.90139 12.8166 3.90139 12.1834 4.29192 11.7929C4.68244 11.4024 5.31561 11.4024 5.70613 11.7929L7.64547 13.7322C7.84073 13.9275 8.15732 13.9275 8.35258 13.7322L13.7919 8.29289C14.1824 7.90237 14.8156 7.90237 15.2061 8.29289ZM19.7061 10.2071C20.0967 9.81658 20.0967 9.18342 19.7061 8.79289C19.3156 8.40237 18.6824 8.40237 18.2919 8.79289L12.7919 14.2929C12.4014 14.6834 12.4014 15.3166 12.7919 15.7071C13.1824 16.0976 13.8156 16.0976 14.2061 15.7071L19.7061 10.2071Z" fill="#080809" style="fill:#080809;fill:color(display-p3 0.0314 0.0314 0.0353);fill-opacity:1;"/>
</svg>
