<svg width="24" height="24" viewBox="0 0 24 24" fill="none" xmlns="http://www.w3.org/2000/svg">
<g clip-path="url(#clip0_29901_28495)">
<path d="M17.084 21.426L17.076 21.423C14.267 20.108 13.11 19.511 11.524 18.654C11.521 18.652 11.519 18.649 11.516 18.647C11.514 18.647 11.513 18.647 11.511 18.645C10.018 17.805 8.325 16.707 6.988 15.381C5.662 14.066 4.57 12.41 4.541 10.461C4.524 9.366 5.008 8.132 5.812 7.298C6.68 6.398 7.821 6.03 8.902 6.005C9.982 5.981 11.165 6.357 12.001 7.124C12.837 6.357 14.021 5.981 15.101 6.005C16.182 6.029 17.323 6.397 18.191 7.298C18.994 8.131 19.479 9.366 19.462 10.461C19.455 10.917 19.39 11.358 19.276 11.784C18.788 13.613 17.415 15.14 15.936 16.346C15.508 16.695 14.878 16.631 14.529 16.203C14.18 15.775 14.244 15.145 14.672 14.796C16.033 13.686 17.017 12.491 17.343 11.268C17.417 10.991 17.461 10.43 17.461 10.43C17.47 9.874 17.195 9.147 16.75 8.686C16.321 8.241 15.725 8.019 15.054 8.004C14.383 7.989 13.703 8.239 13.312 8.62C13.075 8.85 12.954 8.964 12.875 9.037C12.807 9.101 12.787 9.12 12.735 9.177L11.993 9.982L11.258 9.17C11.209 9.116 11.193 9.1 11.126 9.038C11.047 8.965 10.925 8.851 10.687 8.619C10.295 8.238 9.616 7.988 8.945 8.003C8.275 8.018 7.678 8.24 7.249 8.685C6.804 9.146 6.53 9.873 6.538 10.429C6.556 11.623 7.232 12.808 8.394 13.96C9.545 15.101 11.06 16.096 12.49 16.901C12.491 16.901 12.492 16.903 12.493 16.904C14.031 17.735 15.157 18.316 17.923 19.611L19.767 20.455C22.054 18.352 23.499 15.345 23.499 12C23.5 5.659 18.341 0.5 12 0.5C5.659 0.5 0.5 5.659 0.5 12C0.5 15.345 1.945 18.351 4.232 20.455L6.076 19.608C6.783 19.277 7.383 18.993 7.909 18.74C8.407 18.5 9.004 18.71 9.244 19.207C9.484 19.705 9.275 20.302 8.777 20.542C8.243 20.799 7.636 21.087 6.924 21.42L6.917 21.423L6.048 21.822C7.787 22.88 9.82 23.501 11.999 23.501C14.178 23.501 16.211 22.88 17.949 21.823L17.083 21.427L17.084 21.426Z" fill="#080809" style="fill:#080809;fill:color(display-p3 0.0314 0.0314 0.0353);fill-opacity:1;"/>
</g>
<defs>
<clipPath id="clip0_29901_28495">
<rect width="24" height="24" fill="white" style="fill:white;fill-opacity:1;"/>
</clipPath>
</defs>
</svg>
