<svg width="24" height="24" viewBox="0 0 24 24" fill="none" xmlns="http://www.w3.org/2000/svg">
<path fill-rule="evenodd" clip-rule="evenodd" d="M2.70711 1.29289C2.31658 0.902369 1.68342 0.902369 1.29289 1.29289C0.902369 1.68342 0.902369 2.31658 1.29289 2.70711L21.2929 22.7071C21.6834 23.0976 22.3166 23.0976 22.7071 22.7071C23.0976 22.3166 23.0976 21.6834 22.7071 21.2929L17.0614 15.6472L20.1241 11.5125C20.894 10.4731 20.152 9.00005 18.8585 9.00005H13.6702L14.622 2.97213C14.8789 1.34502 12.7812 0.465355 11.8007 1.789L8.14216 6.72794L2.70711 1.29289ZM9.57197 8.15776L11.504 10.0898C11.4967 10.0086 11.4992 9.92613 11.5122 9.84409L12.3762 4.37212L9.57197 8.15776ZM12.4102 10.996L15.6316 14.2173L18.0147 11.0001H12.5C12.4699 11.0001 12.4399 10.9987 12.4102 10.996Z" fill="#080809" style="fill:#080809;fill:color(display-p3 0.0314 0.0314 0.0353);fill-opacity:1;"/>
<path d="M6.94418 11.7052C7.27292 11.2614 7.17965 10.6352 6.73586 10.3064C6.29207 9.97769 5.66581 10.071 5.33708 10.5148L3.87572 12.4876C3.10575 13.527 3.84775 15.0001 5.14131 15.0001H9.03069C9.58298 15.0001 10.0307 14.5523 10.0307 14.0001C10.0307 13.4478 9.58298 13.0001 9.03069 13.0001H5.98503L6.94418 11.7052Z" fill="#080809" style="fill:#080809;fill:color(display-p3 0.0314 0.0314 0.0353);fill-opacity:1;"/>
<path d="M12.1509 16.2884C12.237 15.7429 11.8646 15.2309 11.3191 15.1447C10.7736 15.0586 10.2615 15.431 10.1754 15.9765L9.37785 21.028C9.12096 22.6551 11.2187 23.5348 12.1992 22.2111L14.4336 19.1946C14.7623 18.7508 14.6691 18.1246 14.2253 17.7959C13.7815 17.4671 13.1552 17.5604 12.8265 18.0042L11.6237 19.628L12.1509 16.2884Z" fill="#080809" style="fill:#080809;fill:color(display-p3 0.0314 0.0314 0.0353);fill-opacity:1;"/>
</svg>
