<svg width="24" height="24" viewBox="0 0 24 24" fill="none" xmlns="http://www.w3.org/2000/svg">
<path fill-rule="evenodd" clip-rule="evenodd" d="M7.30899 0.54826C7.04861 0.565156 6.80396 0.587966 6.57494 0.618756C5.64711 0.7435 4.82769 1.01547 4.17158 1.67158C3.51547 2.32769 3.2435 3.14711 3.11876 4.07494C2.99994 4.95868 2.99997 6.07531 3 7.4294V16.5706C2.99997 17.9247 2.99994 19.0413 3.11876 19.9251C3.2435 20.8529 3.51547 21.6723 4.17158 22.3284C4.82769 22.9845 5.64711 23.2565 6.57494 23.3813C7.4587 23.5001 8.57531 23.5 9.92943 23.5H14.0706C15.4247 23.5 16.5413 23.5001 17.4251 23.3813C18.3529 23.2565 19.1723 22.9845 19.8284 22.3284C20.4845 21.6723 20.7565 20.8529 20.8813 19.9251C21.0001 19.0413 21 17.9247 21 16.5706V7.42946C21 6.07537 21.0001 4.95868 20.8813 4.07494C20.7565 3.14711 20.4845 2.32769 19.8284 1.67158C19.1723 1.01547 18.3529 0.7435 17.4251 0.618755C17.1961 0.587978 16.9516 0.565175 16.6914 0.548281L16.0535 2.46172C15.7473 3.38049 14.8875 4.0002 13.919 4.0002H10.0813C9.11283 4.0002 8.25301 3.38047 7.94676 2.46168L7.30899 0.54826ZM8 11C8 10.4477 8.44772 10 9 10H15C15.5523 10 16 10.4477 16 11C16 11.5523 15.5523 12 15 12H9C8.44772 12 8 11.5523 8 11ZM9 15C8.44772 15 8 15.4477 8 16C8 16.5523 8.44772 17 9 17H13C13.5523 17 14 16.5523 14 16C14 15.4477 13.5523 15 13 15H9Z" fill="#080809" style="fill:#080809;fill:color(display-p3 0.0314 0.0314 0.0353);fill-opacity:1;"/>
<path d="M15.1255 0.502385C14.7915 0.499983 14.4399 0.499992 14.0706 0.500001H9.92946C9.56031 0.499992 9.20877 0.499983 8.87482 0.502383L9.36979 1.98736C9.47187 2.29363 9.75848 2.5002 10.0813 2.5002H13.919C14.2418 2.5002 14.5284 2.29363 14.6305 1.98738L15.1255 0.502385Z" fill="#080809" style="fill:#080809;fill:color(display-p3 0.0314 0.0314 0.0353);fill-opacity:1;"/>
</svg>
