<svg width="24" height="24" viewBox="0 0 24 24" fill="none" xmlns="http://www.w3.org/2000/svg">
<g clip-path="url(#clip0_29901_28150)">
<path d="M12 3.5C9.79086 3.5 8 5.29086 8 7.5C8 9.70914 9.79086 11.5 12 11.5C14.2091 11.5 16 9.70914 16 7.5C16 5.29086 14.2091 3.5 12 3.5Z" fill="#080809" style="fill:#080809;fill:color(display-p3 0.0314 0.0314 0.0353);fill-opacity:1;"/>
<path d="M4 6.5C5.79493 6.5 7.25 7.95507 7.25 9.75C7.25 11.5449 5.79493 13 4 13C2.20507 13 0.75 11.5449 0.75 9.75C0.75 7.95507 2.20507 6.5 4 6.5Z" fill="#080809" style="fill:#080809;fill:color(display-p3 0.0314 0.0314 0.0353);fill-opacity:1;"/>
<path d="M16.75 9.75C16.75 7.95507 18.2051 6.5 20 6.5C21.7949 6.5 23.25 7.95507 23.25 9.75C23.25 11.5449 21.7949 13 20 13C18.2051 13 16.75 11.5449 16.75 9.75Z" fill="#080809" style="fill:#080809;fill:color(display-p3 0.0314 0.0314 0.0353);fill-opacity:1;"/>
<path d="M10.75 13C8.12665 13 6 15.1266 6 17.75C6 19.5449 7.45508 21 9.25 21H14.75C16.5449 21 18 19.5449 18 17.75C18 15.1266 15.8734 13 13.25 13H10.75Z" fill="#080809" style="fill:#080809;fill:color(display-p3 0.0314 0.0314 0.0353);fill-opacity:1;"/>
<path d="M3.7 14.5C1.65655 14.5 0 16.1565 0 18.2C0 19.7464 1.2536 21 2.8 21H3.95689C4.29259 21 4.60589 20.8316 4.79104 20.5515C4.97619 20.2715 5.00848 19.9173 4.87701 19.6084C4.63462 19.0389 4.5 18.4114 4.5 17.75C4.5 17.0712 4.60786 16.4195 4.80663 15.8101C4.90594 15.5056 4.85338 15.1719 4.66526 14.9127C4.47714 14.6534 4.17622 14.5 3.85591 14.5H3.7Z" fill="#080809" style="fill:#080809;fill:color(display-p3 0.0314 0.0314 0.0353);fill-opacity:1;"/>
<path d="M19.3346 14.9127C19.5227 14.6534 19.8236 14.5 20.1439 14.5H20.3C22.3435 14.5 24 16.1565 24 18.2C24 19.7464 22.7464 21 21.2 21H20.043C19.7073 21 19.394 20.8316 19.2088 20.5515C19.0237 20.2715 18.9914 19.9173 19.1228 19.6084C19.3652 19.0389 19.4999 18.4114 19.4999 17.75C19.4999 17.0712 19.392 16.4195 19.1932 15.8101C19.0939 15.5056 19.1465 15.1719 19.3346 14.9127Z" fill="#080809" style="fill:#080809;fill:color(display-p3 0.0314 0.0314 0.0353);fill-opacity:1;"/>
</g>
<defs>
<clipPath id="clip0_29901_28150">
<rect width="24" height="24" fill="white" style="fill:white;fill-opacity:1;"/>
</clipPath>
</defs>
</svg>
