<svg width="24" height="24" viewBox="0 0 24 24" fill="none" xmlns="http://www.w3.org/2000/svg">
<path fill-rule="evenodd" clip-rule="evenodd" d="M10.0675 5.00103C10.774 4.98191 11.4509 5.228 11.9991 5.65677C12.5478 5.22767 13.2253 4.98193 13.9311 5.00103C15.7925 5.05139 17.0221 6.7969 16.9991 8.56981C16.9807 10.0516 16.2859 11.3231 15.4325 12.3385C14.5774 13.356 13.4993 14.1938 12.5589 14.8288L11.9994 15.2066L11.4398 14.8288C10.4993 14.1939 9.42125 13.3564 8.56612 12.3389C7.71269 11.3235 7.01812 10.0513 6.99972 8.56909C6.97705 6.7965 8.20624 5.05139 10.0675 5.00103ZM10.1216 7.00029C10.4315 6.99191 10.8142 7.17055 11.0631 7.55845C11.5001 8.23937 12.4996 8.23851 12.9358 7.55774C13.1836 7.17085 13.5668 6.9919 13.877 7.00029C14.3627 7.01343 15.012 7.55911 14.9992 8.54456C14.9888 9.39535 14.5884 10.2344 13.9014 11.0517C13.3625 11.693 12.6862 12.2736 11.9993 12.7777C11.3123 12.2736 10.636 11.6932 10.0972 11.0521C9.41044 10.235 9.01 9.39528 8.99956 8.54385C8.98677 7.55826 9.63594 7.01343 10.1216 7.00029Z" fill="#080809" style="fill:#080809;fill:color(display-p3 0.0314 0.0314 0.0353);fill-opacity:1;"/>
<path fill-rule="evenodd" clip-rule="evenodd" d="M3.49954 9C3.49954 4.30558 7.30512 0.5 11.9995 0.5C16.694 0.5 20.4995 4.30558 20.4995 9C20.4995 10.607 19.8556 12.1396 19.0089 13.4716C18.3925 14.4415 17.6433 15.3448 16.8836 16.1443L19.7271 18.0992C20.6489 18.7329 20.8717 19.9995 20.2215 20.9097L18.8995 22.7605C18.2536 23.6648 16.9944 23.8691 16.0957 23.2155L11.9995 20.2365L7.90339 23.2155C7.00468 23.8691 5.74548 23.6648 5.09958 22.7605L3.78386 20.9185C3.12886 20.0015 3.36042 18.7247 4.29573 18.0961L7.14844 16.1789C6.38512 15.3789 5.63082 14.4738 5.00917 13.5014C4.15293 12.1621 3.49954 10.6188 3.49954 9ZM8.61952 17.5999L5.41133 19.756L6.72705 21.598L10.3018 18.9982C9.83016 18.6342 9.24553 18.1603 8.61952 17.5999ZM17.272 21.598L18.594 19.7472L13.7453 16.4137L14.6369 15.5638C15.6058 14.64 16.5874 13.553 17.321 12.3988C18.0596 11.2368 18.4995 10.0812 18.4995 9C18.4995 5.41015 15.5894 2.5 11.9995 2.5C8.40969 2.5 5.49954 5.41015 5.49954 9C5.49954 10.0893 5.9462 11.2541 6.69425 12.4242C7.43719 13.5863 8.42975 14.6792 9.4049 15.6044C10.2266 16.384 11.019 17.0287 11.6062 17.4783C13.4587 18.8969 15.3848 20.2259 17.272 21.598Z" fill="#080809" style="fill:#080809;fill:color(display-p3 0.0314 0.0314 0.0353);fill-opacity:1;"/>
</svg>
