<svg width="24" height="24" viewBox="0 0 24 24" fill="none" xmlns="http://www.w3.org/2000/svg">
<path fill-rule="evenodd" clip-rule="evenodd" d="M12 0.5C11.4477 0.5 11 0.947715 11 1.5V4.57456C10.9803 4.58615 10.961 4.59785 10.9419 4.60964C10.6959 4.76186 10.4298 4.97486 10.1618 5.18938L7.12564 7.61826C7.10083 7.63811 7.07517 7.65843 7.04883 7.67928C6.76328 7.90537 6.39902 8.19378 6.19711 8.61387C5.99521 9.03395 5.99755 9.49856 5.99938 9.86278C5.99955 9.89637 5.99972 9.92911 5.99972 9.96088V11H3.5C2.11929 11 1 12.1193 1 13.5V20.5C1 21.8807 2.11929 23 3.5 23H7C7.0089 23 7.01777 22.9999 7.02661 22.9997H10.9734C10.9822 22.9999 10.9911 23 11 23H13C13.0089 23 13.0178 22.9999 13.0266 22.9997H16.9734C16.9822 22.9999 16.9911 23 17 23H20.5C21.8807 23 23 21.8807 23 20.5V13.5C23 12.1193 21.8807 11 20.5 11H18L17.9997 9.96088C17.9997 9.94248 17.9998 9.92377 17.9999 9.90475C17.9999 9.89122 18 9.87753 18.0001 9.8637C18.0019 9.49949 18.0042 9.03396 17.8023 8.61387C17.6004 8.19378 17.2362 7.90537 16.9506 7.67928C16.9243 7.65845 16.8986 7.63809 16.8738 7.61826L13.8377 5.18938C13.5697 4.97487 13.3035 4.76186 13.0575 4.60964C13.0387 4.59797 13.0195 4.58637 13 4.57489V3.5H14C14.5523 3.5 15 3.05228 15 2.5V1.5C15 0.947715 14.5523 0.5 14 0.5H12ZM14 20.9997H15.9997V9.96088C15.9997 9.70803 15.9989 9.5806 15.991 9.48937L15.9906 9.48462L15.9872 9.48133C15.9208 9.41822 15.8219 9.33796 15.6244 9.18001L12.6244 6.78002C12.3056 6.52494 12.1353 6.39092 12.0051 6.31034L11.9997 6.30704L11.9944 6.31034C11.8642 6.39092 11.6939 6.52494 11.375 6.78002L8.37503 9.18001C8.17759 9.33796 8.07861 9.41822 8.01226 9.48133L8.00881 9.48462L8.00839 9.48937C8.00056 9.5806 7.99972 9.70803 7.99972 9.96088V12.9661L8 13V20.9997H10V17C10 15.8954 10.8954 15 12 15C13.1046 15 14 15.8954 14 17V20.9997ZM5.99972 21V13H3.5C3.22386 13 3 13.2239 3 13.5V20.5C3 20.7761 3.22386 21 3.5 21H5.99972ZM18 13H20.5C20.7761 13 21 13.2239 21 13.5V20.5C21 20.7761 20.7761 21 20.5 21H18V13Z" fill="#080809" style="fill:#080809;fill:color(display-p3 0.0314 0.0314 0.0353);fill-opacity:1;"/>
</svg>
