<svg width="24" height="24" viewBox="0 0 24 24" fill="none" xmlns="http://www.w3.org/2000/svg">
<path fill-rule="evenodd" clip-rule="evenodd" d="M11.9252 1H12.0748C14.3683 0.999979 16.1914 0.999962 17.6196 1.19198C19.0921 1.38994 20.2936 1.80836 21.2426 2.75736C22.1916 3.70636 22.6101 4.90794 22.808 6.3804C23 7.8086 23 9.63167 23 11.9252V12.0748C23 14.3683 23 16.1914 22.808 17.6196C22.6101 19.0921 22.1916 20.2936 21.2426 21.2426C20.2936 22.1916 19.0921 22.6101 17.6196 22.808C16.1914 23 14.3683 23 12.0748 23H11.9252C9.63167 23 7.8086 23 6.3804 22.808C4.90794 22.6101 3.70636 22.1916 2.75736 21.2426C1.80836 20.2936 1.38994 19.0921 1.19198 17.6196C0.999962 16.1914 0.999979 14.3684 1 12.0748V11.9252C0.999979 9.63165 0.999962 7.80859 1.19198 6.3804C1.38994 4.90794 1.80836 3.70636 2.75736 2.75736C3.70636 1.80836 4.90794 1.38994 6.3804 1.19198C7.80859 0.999962 9.63166 0.999979 11.9252 1ZM7 6C6.44772 6 6 6.44772 6 7C6 7.55229 6.44772 8 7 8H12C12.5523 8 13 7.55229 13 7C13 6.44772 12.5523 6 12 6H7ZM6 12C6 11.4477 6.44772 11 7 11H17C17.5523 11 18 11.4477 18 12C18 12.5523 17.5523 13 17 13H7C6.44772 13 6 12.5523 6 12ZM7 16C6.44772 16 6 16.4477 6 17C6 17.5523 6.44772 18 7 18H17C17.5523 18 18 17.5523 18 17C18 16.4477 17.5523 16 17 16H7Z" fill="#080809" style="fill:#080809;fill:color(display-p3 0.0314 0.0314 0.0353);fill-opacity:1;"/>
</svg>
