<svg width="24" height="24" viewBox="0 0 24 24" fill="none" xmlns="http://www.w3.org/2000/svg">
<path fill-rule="evenodd" clip-rule="evenodd" d="M17.1391 1.79653C19.2166 2.67373 21.589 4.17522 22.7075 5.29436C23.0979 5.685 23.0977 6.31817 22.7071 6.70857C22.3164 7.09898 21.6833 7.09879 21.2929 6.70815C20.4113 5.82608 18.2837 4.45079 16.3612 3.63902C15.3871 3.22771 14.6056 3.02288 14.1305 3.02541C14.0782 3.02569 14.0366 3.02849 14.0041 3.03218C14.0056 3.04065 14.0075 3.05059 14.01 3.06207C14.0195 3.10571 14.0365 3.16488 14.065 3.24104C14.123 3.3957 14.2172 3.59084 14.3547 3.82846C14.6308 4.30538 15.0381 4.88032 15.5478 5.53783C16.2221 6.40772 17.0244 7.35854 17.8662 8.3562C18.3064 8.8779 18.7574 9.4124 19.2066 9.95483C20.485 11.4988 21.7442 13.1026 22.5213 14.5017C22.9075 15.197 23.2182 15.917 23.3195 16.6029C23.4244 17.3137 23.3132 18.0986 22.7072 18.7046C21.9594 19.4524 20.9228 19.2855 20.2064 19.0435C19.424 18.7792 18.5348 18.2697 17.617 17.6551C15.779 16.4242 13.5623 14.5879 11.4007 12.7972L11.3634 12.7663C9.16143 10.9422 7.01769 9.16806 5.27246 7.99994C4.39339 7.41156 3.6812 7.02263 3.15536 6.84535C2.88138 6.75297 2.73872 6.74232 2.67672 6.7453C2.65182 6.7932 2.62761 6.89188 2.65843 7.10141C2.70787 7.43751 2.88558 7.91058 3.22597 8.52361C3.90209 9.74129 5.04895 11.2156 6.33274 12.7654C6.75364 13.2736 7.19039 13.7911 7.62467 14.3057C8.48433 15.3243 9.33431 16.3314 10.0325 17.2316C10.5617 17.9141 11.0332 18.5716 11.3762 19.1641C11.6956 19.7157 12.0001 20.3682 12.0001 20.9967C12.0001 21.567 11.8071 22.1292 11.3218 22.5191C10.878 22.8757 10.3356 22.9672 9.88171 22.97C8.982 22.9755 7.88856 22.6336 6.86281 22.2011C4.78556 21.3252 2.41316 19.8248 1.293 18.7046C0.902472 18.3141 0.902472 17.6809 1.293 17.2904C1.68352 16.8999 2.31669 16.8999 2.70721 17.2904C3.59043 18.1736 5.718 19.5478 7.63988 20.3582C8.61369 20.7688 9.39461 20.9729 9.86937 20.97C9.92193 20.9697 9.96367 20.9668 9.99617 20.9631C9.99474 20.9544 9.99281 20.9442 9.99023 20.9324C9.98069 20.8888 9.96369 20.8297 9.93515 20.7535C9.8772 20.5989 9.78297 20.4039 9.64541 20.1663C9.36934 19.6895 8.96187 19.1147 8.45207 18.4573C7.77812 17.5883 6.97645 16.6386 6.13525 15.6421C5.6943 15.1197 5.24248 14.5845 4.79251 14.0412C3.51381 12.4975 2.25443 10.8939 1.47743 9.4945C1.09126 8.79901 0.78068 8.07878 0.679724 7.39248C0.575083 6.68112 0.687041 5.89634 1.29301 5.29038C2.04076 4.54262 3.07702 4.70832 3.79432 4.95016C4.57724 5.21412 5.46684 5.72339 6.38491 6.33788C8.22572 7.56997 10.446 9.40923 12.6103 11.2021L12.6393 11.2261C14.8413 13.0503 16.9849 14.8247 18.7298 15.9933C19.6088 16.5819 20.3208 16.9711 20.8465 17.1487C21.1188 17.2407 21.2613 17.2518 21.3236 17.2491C21.3481 17.2011 21.3716 17.1027 21.3409 16.895C21.2913 16.5589 21.1134 16.0858 20.7729 15.4728C20.0966 14.2551 18.9497 12.7805 17.6661 11.2304C17.2459 10.7229 16.8099 10.2061 16.3764 9.69224C15.5162 8.67258 14.6657 7.66435 13.9671 6.76314C13.438 6.08055 12.9667 5.42285 12.6237 4.83027C12.3044 4.27859 12.0001 3.62614 12.0001 2.9977C12.0001 2.42729 12.1932 1.86482 12.6791 1.47507C13.1233 1.11877 13.6659 1.02786 14.1198 1.02544C15.0196 1.02064 16.1132 1.36335 17.1391 1.79653ZM21.3637 17.243C21.3639 17.2433 21.3609 17.2446 21.3541 17.2459C21.36 17.2434 21.3635 17.2427 21.3637 17.243ZM2.63741 6.75141C2.63718 6.75111 2.64017 6.74984 2.64704 6.7485C2.64106 6.75104 2.63763 6.75171 2.63741 6.75141Z" fill="#080809" style="fill:#080809;fill:color(display-p3 0.0314 0.0314 0.0353);fill-opacity:1;"/>
</svg>
