<svg width="24" height="24" viewBox="0 0 24 24" fill="none" xmlns="http://www.w3.org/2000/svg">
<path d="M21.793 16.293C22.1835 15.9024 22.8165 15.9024 23.207 16.293C23.5976 16.6835 23.5976 17.3165 23.207 17.707L19.2676 21.6465C18.3523 22.5617 16.9038 22.6192 15.9219 21.8184L15.7324 21.6465L14.793 20.707L14.7246 20.6309C14.4043 20.2381 14.4269 19.6591 14.793 19.293C15.1591 18.9269 15.7381 18.9043 16.1309 19.2246L16.207 19.293L17.1465 20.2324L17.2246 20.2959C17.4187 20.4243 17.6825 20.4033 17.8535 20.2324L21.793 16.293Z" fill="#080809" style="fill:#080809;fill:color(display-p3 0.0314 0.0314 0.0353);fill-opacity:1;"/>
<path fill-rule="evenodd" clip-rule="evenodd" d="M15.082 4C15.7437 4 16.4046 4.05078 17.0586 4.15137L21.0547 4.76562L21.3145 4.81836C22.5874 5.13509 23.5 6.28199 23.5 7.61621C23.5 9.10932 22.3653 10.3376 20.9111 10.4854L20.6162 10.5H18.6689C18.7218 10.7417 18.75 10.9926 18.75 11.25C18.75 11.3346 18.7472 11.4186 18.7412 11.502L18.7148 11.75C18.5663 12.7859 17.966 13.6727 17.124 14.207C16.6577 14.503 16.0391 14.3647 15.7432 13.8984C15.4472 13.4321 15.5855 12.8135 16.0518 12.5176C16.4158 12.2865 16.6713 11.9055 16.7344 11.4658L16.7461 11.3594C16.7487 11.3234 16.75 11.2869 16.75 11.25C16.75 10.8409 16.5875 10.4718 16.3213 10.2002C16.0394 9.91266 15.9573 9.48354 16.1133 9.1123C16.2693 8.74132 16.6327 8.50008 17.0352 8.5H20.6162L20.7061 8.49512C21.1519 8.45006 21.5 8.07396 21.5 7.61621C21.5 7.2344 21.2562 6.90258 20.9062 6.78125L20.751 6.74219L16.7549 6.12793C16.2014 6.04279 15.642 6 15.082 6H14.2422C11.9263 6.00011 9.70049 6.86992 8 8.42773V18H11.5L11.6025 18.0049C12.1067 18.0562 12.5 18.4823 12.5 19C12.5 19.5177 12.1067 19.9438 11.6025 19.9951L11.5 20H3C1.61929 20 0.5 18.8807 0.5 17.5V9.5C0.5 8.11929 1.61929 7 3 7H6.60059C8.67528 5.07633 11.4025 4.00011 14.2422 4H15.082ZM3 9C2.72386 9 2.5 9.22386 2.5 9.5V17.5C2.5 17.7761 2.72386 18 3 18H6V9H3Z" fill="#080809" style="fill:#080809;fill:color(display-p3 0.0314 0.0314 0.0353);fill-opacity:1;"/>
</svg>
