<svg width="24" height="24" viewBox="0 0 24 24" fill="none" xmlns="http://www.w3.org/2000/svg">
<path fill-rule="evenodd" clip-rule="evenodd" d="M12 5.49902C9.79086 5.49902 8 7.28988 8 9.49902C8 11.7082 9.79086 13.499 12 13.499C14.2091 13.499 16 11.7082 16 9.49902C16 7.28988 14.2091 5.49902 12 5.49902ZM10 9.49902C10 8.39445 10.8954 7.49902 12 7.49902C13.1046 7.49902 14 8.39445 14 9.49902C14 10.6036 13.1046 11.499 12 11.499C10.8954 11.499 10 10.6036 10 9.49902Z" fill="#080809" style="fill:#080809;fill:color(display-p3 0.0314 0.0314 0.0353);fill-opacity:1;"/>
<path fill-rule="evenodd" clip-rule="evenodd" d="M12 0.5C7.02944 0.5 3 4.52944 3 9.5C3 12.1395 4.35131 14.9223 5.8588 17.2364C7.3877 19.5833 9.18369 21.6064 10.2767 22.7583C11.2197 23.7519 12.7803 23.7519 13.7233 22.7583C14.8163 21.6064 16.6123 19.5833 18.1412 17.2364C19.6487 14.9223 21 12.1395 21 9.5C21 4.52944 16.9706 0.5 12 0.5ZM5 9.5C5 5.63401 8.13401 2.5 12 2.5C15.866 2.5 19 5.63401 19 9.5C19 11.5357 17.9227 13.9076 16.4654 16.1447C15.0295 18.3489 13.3244 20.2731 12.2725 21.3815C12.1182 21.5442 11.8818 21.5442 11.7275 21.3815C10.6756 20.2731 8.9705 18.3489 7.53458 16.1447C6.07726 13.9076 5 11.5357 5 9.5Z" fill="#080809" style="fill:#080809;fill:color(display-p3 0.0314 0.0314 0.0353);fill-opacity:1;"/>
</svg>
