<svg width="24" height="24" viewBox="0 0 24 24" fill="none" xmlns="http://www.w3.org/2000/svg">
<g clip-path="url(#clip0_29901_26571)">
<path d="M12 0.5C18.3513 0.5 23.5 5.64873 23.5 12C23.5 18.3513 18.3513 23.5 12 23.5C10.0782 23.5 8.26351 23.0279 6.66895 22.1924C6.50263 22.1053 6.34422 22.0918 6.22363 22.123L2.82422 23.0049C1.71693 23.292 0.708044 22.2831 0.995117 21.1758L1.87695 17.7764C1.90815 17.6558 1.89474 17.4974 1.80762 17.3311C0.97205 15.7365 0.5 13.9218 0.5 12C0.5 5.64873 5.64873 0.5 12 0.5ZM19.3154 9.52441C18.5353 5.58455 14.8653 3.01509 10.9004 3.58008C8.89546 3.86508 7.20063 4.7448 5.80566 6.21973C3.53072 8.62967 2.88583 12.3343 4.2207 15.3643C5.8607 19.0843 9.70566 21.1097 13.6807 20.3447V18.5449C13.6457 18.5499 13.6101 18.5595 13.5801 18.5645C12.3902 18.8444 11.2051 18.8201 10.0352 18.4551C5.74522 17.12 3.90053 12.0692 6.39551 8.32422C7.96047 5.97453 10.2354 4.90999 13.0352 5.37988C17.0251 6.04987 18.9657 10.5748 16.8408 14.0098C16.8258 14.0348 16.8005 14.0597 16.7705 14.0947C16.7305 14.0047 16.6999 13.9343 16.6699 13.8643C16.15 12.5794 15.6303 11.2994 15.1104 10.0195C15.0654 9.90966 15.0152 9.79999 14.9453 9.70508C14.6304 9.28019 14.1956 9.08468 13.6758 9.14453C13.1558 9.20453 12.7704 9.47465 12.5654 9.97461C12.0704 11.1946 11.5751 12.4196 11.0801 13.6396C11.0601 13.6946 11.035 13.7444 11 13.8193C10.9601 13.7196 10.9302 13.6547 10.9053 13.5898C10.3403 12.1849 9.72503 10.5749 9.16504 9.16992C9.16021 9.16027 9.15039 9.13477 9.15039 9.13477H7.26074C7.2657 9.1546 7.27041 9.1745 7.28027 9.19434C8.07527 11.1643 8.91582 13.3396 9.71582 15.3096C9.94083 15.8695 10.4308 16.1992 11.0107 16.1992C11.5906 16.1991 12.0758 15.8646 12.3008 15.3047C12.6657 14.3948 13.0355 13.4899 13.4004 12.5801C13.5404 12.2401 13.6751 11.8995 13.8301 11.5195C14.055 12.0644 14.255 12.5646 14.46 13.0645C14.77 13.8245 15.0757 14.5798 15.3857 15.3398C15.6458 15.9796 16.3302 16.3144 17 16.1396C17.4049 16.0347 17.72 15.7946 17.96 15.4697V15.4746C19.275 13.6896 19.7454 11.6944 19.3154 9.52441Z" fill="#080809" style="fill:#080809;fill:color(display-p3 0.0314 0.0314 0.0353);fill-opacity:1;"/>
</g>
<defs>
<clipPath id="clip0_29901_26571">
<rect width="24" height="24" fill="white" style="fill:white;fill-opacity:1;"/>
</clipPath>
</defs>
</svg>
