<svg width="24" height="24" viewBox="0 0 24 24" fill="none" xmlns="http://www.w3.org/2000/svg">
<path d="M12.8794 3.26134C12.4713 3.18997 12.0827 3.46287 12.0113 3.87088C11.9404 4.27656 12.2097 4.66307 12.6139 4.73765L12.6199 4.73895C12.6292 4.74103 12.6472 4.74529 12.6721 4.75229C12.7224 4.76644 12.7978 4.79089 12.8852 4.82941C13.0645 4.90842 13.2647 5.03328 13.4168 5.22149C13.563 5.4025 13.6538 5.64887 13.7036 5.8863C13.7274 5.99952 13.7392 6.09797 13.745 6.16604C13.7478 6.19975 13.7491 6.22508 13.7497 6.23997L13.7501 6.25393C13.7523 6.66627 14.0873 7.00012 14.5001 7.00012C14.9143 7.00012 15.2501 6.66434 15.2501 6.25012L15.2501 6.24829L15.2501 6.24612L15.2501 6.24079L15.2499 6.22622C15.2497 6.21481 15.2493 6.20001 15.2486 6.18213C15.2472 6.14641 15.2446 6.09807 15.2396 6.0395C15.2298 5.923 15.2103 5.76248 15.1716 5.57805C15.0965 5.22018 14.9372 4.71654 14.5835 4.27876C14.2356 3.84818 13.8107 3.59804 13.49 3.45674C13.3274 3.38511 13.1841 3.33809 13.0782 3.3083C13.0249 3.29333 12.9804 3.28251 12.9467 3.27499C12.9299 3.27122 12.9157 3.26827 12.9044 3.26604L12.8896 3.2632L12.8839 3.26215L12.8794 3.26134Z" fill="#080809" style="fill:#080809;fill:color(display-p3 0.0314 0.0314 0.0353);fill-opacity:1;"/>
<path fill-rule="evenodd" clip-rule="evenodd" d="M9.49999 14H5C4.44772 14 4 14.4477 4 15C4 15.5523 4.44772 16 5 16H19C19.5523 16 20 15.5523 20 15C20 14.4477 19.5523 14 19 14H14.5V13.2337C14.5 12.6038 14.7892 12.0088 15.2845 11.6197L15.689 11.3018C17.1506 10.1534 18 8.38379 18 6.53152C18 3.22601 15.3219 0.5 12 0.5C8.67813 0.5 5.99999 3.22601 5.99999 6.53152C5.99999 8.38379 6.84935 10.1534 8.31102 11.3018L8.7155 11.6197C9.21079 12.0088 9.49999 12.6038 9.49999 13.2337V14ZM7.99999 6.53152C7.99999 4.31419 9.79901 2.5 12 2.5C14.201 2.5 16 4.31419 16 6.53152C16 7.77669 15.4272 8.96399 14.4533 9.72921L14.0488 10.047C13.071 10.8153 12.5 11.9901 12.5 13.2337V14H11.5V13.2337C11.5 11.9901 10.929 10.8153 9.95115 10.047L9.54666 9.72921C8.57276 8.96399 7.99999 7.77669 7.99999 6.53152Z" fill="#080809" style="fill:#080809;fill:color(display-p3 0.0314 0.0314 0.0353);fill-opacity:1;"/>
<path d="M10.5547 17.6681C11.0142 17.9744 11.1384 18.5953 10.8321 19.0548L10.1544 20.0714C10.0537 20.2223 10 20.3997 10 20.5811C10 21.0887 10.4114 21.5001 10.919 21.5001H13.081C13.5886 21.5001 14 21.0887 14 20.5811C14 20.3997 13.9463 20.2223 13.8457 20.0714L13.168 19.0548C12.8616 18.5953 12.9858 17.9744 13.4453 17.6681C13.9048 17.3617 14.5257 17.4859 14.8321 17.9454L15.5098 18.962C15.8294 19.4415 16 20.0049 16 20.5811C16 22.1933 14.6931 23.5001 13.081 23.5001H10.919C9.30688 23.5001 8.00001 22.1932 8.00001 20.5811C8.00001 20.0049 8.17059 19.4415 8.49025 18.962L9.16796 17.9454C9.47431 17.4859 10.0952 17.3617 10.5547 17.6681Z" fill="#080809" style="fill:#080809;fill:color(display-p3 0.0314 0.0314 0.0353);fill-opacity:1;"/>
</svg>
