<svg width="24" height="24" viewBox="0 0 24 24" fill="none" xmlns="http://www.w3.org/2000/svg">
<path fill-rule="evenodd" clip-rule="evenodd" d="M7.51463 9.21353C6.25075 9.14262 4.97728 9.29785 3.75652 9.67826C3.41731 9.82966 3.2295 10.2053 3.32149 10.5723L3.85425 12.7043C4.1168 13.7535 5.10472 14.4559 6.18175 14.3572L7.09493 14.2739C8.00715 14.1905 8.77276 13.5494 9.01328 12.666L9.63803 10.3739C9.72044 10.0711 9.5585 9.75396 9.26433 9.64377C8.69611 9.43104 8.10872 9.28731 7.51463 9.21257V9.21353ZM1.03519 11.1606L1.54113 11.4136L1.98095 13.1729C2.47443 15.1458 4.33144 16.4653 6.35711 16.2813L7.27029 16.1979C8.98549 16.0418 10.4238 14.8363 10.877 13.1748C10.877 13.1748 11.1127 12.1639 11.2497 11.8477C11.5123 11.2392 12.4916 11.2392 12.7541 11.8477C12.8902 12.1639 13.1269 13.1748 13.1269 13.1748C13.5801 14.8363 15.0184 16.0418 16.7336 16.1979L17.6468 16.2813C19.6724 16.4653 21.5295 15.1458 22.0229 13.1729L22.4628 11.4136L22.9677 11.1606C23.2945 10.9968 23.5015 10.6623 23.5015 10.2973V9.24419C23.5015 8.8015 23.1996 8.41534 22.7703 8.30706L20.7016 7.78962L20.4831 7.7168C19.1339 7.2674 17.711 7.12462 16.3168 7.28848C15.3595 7.34693 14.4071 7.51557 13.4786 7.79441L12.9362 7.95731C12.3277 8.14033 11.6781 8.14033 11.0696 7.95731L10.5273 7.79441C9.59874 7.51557 8.64724 7.34789 7.68998 7.28848C6.29578 7.12462 4.87284 7.26644 3.52367 7.7168L3.30616 7.78962L1.23546 8.30706C0.803302 8.41438 0.501465 8.80054 0.501465 9.24419V10.2973C0.501465 10.6633 0.708439 10.9977 1.03519 11.1606ZM20.2455 9.67826C19.0247 9.29785 17.7512 9.14166 16.4864 9.21353C15.8923 9.28731 15.3039 9.43104 14.7357 9.64472C14.4416 9.75492 14.2796 10.0711 14.362 10.3749L14.9868 12.6669C15.2282 13.5514 15.9929 14.1924 16.9051 14.2748L17.8183 14.3582C18.8953 14.4559 19.8833 13.7545 20.1458 12.7053L20.6786 10.5732C20.7706 10.2062 20.5827 9.83062 20.2445 9.68018L20.2455 9.67826Z" fill="#080809" style="fill:#080809;fill:color(display-p3 0.0314 0.0314 0.0353);fill-opacity:1;"/>
</svg>
