<svg width="24" height="24" viewBox="0 0 24 24" fill="none" xmlns="http://www.w3.org/2000/svg">
<path d="M12 8C12.5523 8 13 8.44772 13 9V13C13 13.5523 12.5523 14 12 14C11.4477 14 11 13.5523 11 13V9C11 8.44772 11.4477 8 12 8Z" fill="#080809" style="fill:#080809;fill:color(display-p3 0.0314 0.0314 0.0353);fill-opacity:1;"/>
<path fill-rule="evenodd" clip-rule="evenodd" d="M7.22946 1C6.03776 1 5.01172 1.84115 4.77801 3.00971L1.37801 20.0097C1.06862 21.5567 2.25185 23 3.82946 23H20.1701C21.7477 23 22.9309 21.5567 22.6215 20.0097L19.2215 3.00971C18.9878 1.84115 17.9618 1 16.7701 1H7.22946ZM11 3V5C11 5.55228 11.4477 6 12 6C12.5523 6 13 5.55228 13 5V3H16.7701C17.0084 3 17.2136 3.16823 17.2603 3.40194L20.6603 20.4019C20.7222 20.7113 20.4856 21 20.1701 21H13V17C13 16.4477 12.5523 16 12 16C11.4477 16 11 16.4477 11 17V21H3.82946C3.51394 21 3.27729 20.7113 3.33917 20.4019L6.73917 3.40194C6.78591 3.16823 6.99112 3 7.22946 3H11Z" fill="#080809" style="fill:#080809;fill:color(display-p3 0.0314 0.0314 0.0353);fill-opacity:1;"/>
</svg>
