<svg width="24" height="24" viewBox="0 0 24 24" fill="none" xmlns="http://www.w3.org/2000/svg">
<g clip-path="url(#clip0_29901_26217)">
<path fill-rule="evenodd" clip-rule="evenodd" d="M12 0.5C5.64873 0.5 0.5 5.64873 0.5 12C0.5 18.3513 5.64873 23.5 12 23.5C18.3513 23.5 23.5 18.3513 23.5 12C23.5 5.64873 18.3513 0.5 12 0.5ZM2.5 12C2.5 6.75329 6.75329 2.5 12 2.5C14.2633 2.5 16.3417 3.29145 17.9736 4.61268L11.2928 11.2943C11.1053 11.4819 11 11.7362 11 12.0014V21.448C6.22334 20.9483 2.5 16.909 2.5 12ZM13 21.448C17.7767 20.9483 21.5 16.909 21.5 12C21.5 9.73697 20.7087 7.65876 19.3877 6.02695L13 12.4156V21.448Z" fill="#080809" style="fill:#080809;fill:color(display-p3 0.0314 0.0314 0.0353);fill-opacity:1;"/>
</g>
<defs>
<clipPath id="clip0_29901_26217">
<rect width="24" height="24" fill="white" style="fill:white;fill-opacity:1;"/>
</clipPath>
</defs>
</svg>
