<svg width="24" height="24" viewBox="0 0 24 24" fill="none" xmlns="http://www.w3.org/2000/svg">
<path d="M15 10C15 11.6569 13.6569 13 12 13C10.3431 13 9 11.6569 9 10C9 9.44772 8.55228 9 8 9C7.44771 9 7 9.44772 7 10C7 12.7614 9.23858 15 12 15C14.7614 15 17 12.7614 17 10C17 9.44772 16.5523 9 16 9C15.4477 9 15 9.44772 15 10Z" fill="#080809" style="fill:#080809;fill:color(display-p3 0.0314 0.0314 0.0353);fill-opacity:1;"/>
<path fill-rule="evenodd" clip-rule="evenodd" d="M12 1C9.58103 1 7.56327 2.71777 7.10001 5.00003L4.96703 5.00001C4.83534 4.99993 4.70565 4.99985 4.58428 5.01155C3.50827 5.11519 2.62077 5.89867 2.38445 6.95351C2.3578 7.0725 2.34179 7.20119 2.32554 7.33188L1.80154 11.524C1.53042 13.6928 1.31561 15.4112 1.3097 16.7797C1.30364 18.1821 1.51249 19.3644 2.20948 20.3846C2.48936 20.7943 2.81897 21.1677 3.19077 21.4962C4.11668 22.3144 5.26392 22.6682 6.65629 22.8362C8.01493 23.0001 9.74668 23 11.9324 23H12.0672C14.2529 23 15.9847 23.0001 17.3433 22.8362C18.7357 22.6682 19.883 22.3144 20.8089 21.4962C21.1807 21.1677 21.5103 20.7943 21.7901 20.3846C22.4871 19.3644 22.696 18.1821 22.6899 16.7797C22.684 15.4112 22.4692 13.6928 22.1981 11.524L21.6741 7.33187C21.6578 7.20119 21.6418 7.0725 21.6152 6.95351C21.3789 5.89867 20.4914 5.11519 19.4153 5.01155C19.294 4.99985 19.1643 4.99993 19.0326 5.00001L16.9 5.00003C16.4367 2.71777 14.419 1 12 1ZM12 3C10.6938 3 9.58253 3.83482 9.1707 5.00003H14.8293C14.4175 3.83482 13.3062 3 12 3ZM4.77605 7.00233C4.56085 7.02306 4.38334 7.17976 4.33608 7.39072C4.3365 7.38885 4.32677 7.44668 4.30604 7.61248L3.79446 11.7051C3.51312 13.9558 3.31501 15.5546 3.30968 16.7883C3.30444 18.0021 3.49029 18.7139 3.8609 19.2564C4.04748 19.5295 4.26722 19.7785 4.51509 19.9975C5.00741 20.4325 5.69072 20.7052 6.89579 20.8506C8.12065 20.9983 9.73159 21 11.9998 21C14.268 21 15.879 20.9983 17.1038 20.8506C18.3089 20.7052 18.9922 20.4325 19.4845 19.9975C19.7324 19.7785 19.9521 19.5295 20.1387 19.2564C20.5093 18.7139 20.6952 18.0021 20.69 16.7883C20.6846 15.5546 20.4865 13.9558 20.2052 11.7051L19.6936 7.61248C19.6729 7.44668 19.6631 7.38885 19.6635 7.39072C19.6163 7.17976 19.4388 7.02306 19.2236 7.00233C19.2196 7.00199 19.1564 7.00003 18.9998 7.00003H4.99981C4.83272 7.00003 4.77413 7.00251 4.77605 7.00233Z" fill="#080809" style="fill:#080809;fill:color(display-p3 0.0314 0.0314 0.0353);fill-opacity:1;"/>
</svg>
