<svg width="24" height="24" viewBox="0 0 24 24" fill="none" xmlns="http://www.w3.org/2000/svg">
<path d="M4.75 3.75C4.75 1.95507 6.20507 0.5 8 0.5C9.79493 0.5 11.25 1.95507 11.25 3.75C11.25 5.54493 9.79493 7 8 7C6.20507 7 4.75 5.54493 4.75 3.75Z" fill="#080809" style="fill:#080809;fill:color(display-p3 0.0314 0.0314 0.0353);fill-opacity:1;"/>
<path d="M3 12C3 9.79086 4.79086 8 7 8H9C11.2091 8 13 9.79086 13 12V13.7608C13 14.8693 12.446 15.9045 11.5236 16.5194C11.4833 16.5463 11.4575 16.5903 11.4538 16.6386L11.1036 21.1917C11.0034 22.4942 9.9173 23.5 8.61095 23.5H7.38905C6.08271 23.5 4.9966 22.4942 4.89641 21.1917L4.54617 16.6386C4.54245 16.5903 4.51672 16.5463 4.47639 16.5194C3.55402 15.9045 3 14.8693 3 13.7608V12Z" fill="#080809" style="fill:#080809;fill:color(display-p3 0.0314 0.0314 0.0353);fill-opacity:1;"/>
<path d="M15 2C15 1.44772 15.4477 1 16 1H17.5C18.8807 1 20 2.11929 20 3.5V20.5C20 21.8807 18.8807 23 17.5 23H16C15.4477 23 15 22.5523 15 22C15 21.4477 15.4477 21 16 21H17.5C17.7761 21 18 20.7761 18 20.5V18H17C16.4477 18 16 17.5523 16 17C16 16.4477 16.4477 16 17 16H18V13H16C15.4477 13 15 12.5523 15 12C15 11.4477 15.4477 11 16 11H18V8H17C16.4477 8 16 7.55228 16 7C16 6.44772 16.4477 6 17 6H18V3.5C18 3.22386 17.7761 3 17.5 3H16C15.4477 3 15 2.55228 15 2Z" fill="#080809" style="fill:#080809;fill:color(display-p3 0.0314 0.0314 0.0353);fill-opacity:1;"/>
</svg>
