<svg width="24" height="24" viewBox="0 0 24 24" fill="none" xmlns="http://www.w3.org/2000/svg">
<path d="M12.9234 5.61597C12.7683 5.24301 12.4041 5 12.0001 5C11.5962 5 11.2319 5.24301 11.0768 5.61597L10.3856 7.27781L8.59152 7.42164C8.18888 7.45392 7.8452 7.72526 7.72037 8.10942C7.59555 8.49358 7.71411 8.91512 8.02087 9.1779L9.38778 10.3488L8.97017 12.0995C8.87645 12.4924 9.02831 12.9032 9.35509 13.1406C9.68188 13.378 10.1194 13.3955 10.4641 13.185L12.0001 12.2468L13.5361 13.185C13.8808 13.3955 14.3184 13.378 14.6452 13.1406C14.9719 12.9032 15.1238 12.4924 15.0301 12.0995L14.6125 10.3488L15.9794 9.1779C16.2862 8.91512 16.4047 8.49358 16.2799 8.10942C16.1551 7.72526 15.8114 7.45392 15.4087 7.42164L13.6146 7.27781L12.9234 5.61597Z" fill="#080809" style="fill:#080809;fill:color(display-p3 0.0314 0.0314 0.0353);fill-opacity:1;"/>
<path fill-rule="evenodd" clip-rule="evenodd" d="M3 9.5C3 4.52944 7.02944 0.5 12 0.5C16.9706 0.5 21 4.52944 21 9.5C21 12.1395 19.6487 14.9223 18.1412 17.2364C16.6123 19.5833 14.8163 21.6064 13.7233 22.7583C12.7803 23.7519 11.2197 23.7519 10.2767 22.7583C9.18369 21.6064 7.3877 19.5833 5.8588 17.2364C4.35131 14.9223 3 12.1395 3 9.5ZM12 2.5C8.13401 2.5 5 5.63401 5 9.5C5 11.5357 6.07726 13.9076 7.53458 16.1447C8.9705 18.3489 10.6756 20.2731 11.7275 21.3815C11.8818 21.5442 12.1182 21.5442 12.2725 21.3815C13.3244 20.2731 15.0295 18.3489 16.4654 16.1447C17.9227 13.9076 19 11.5357 19 9.5C19 5.63401 15.866 2.5 12 2.5Z" fill="#080809" style="fill:#080809;fill:color(display-p3 0.0314 0.0314 0.0353);fill-opacity:1;"/>
</svg>
