<svg width="24" height="24" viewBox="0 0 24 24" fill="none" xmlns="http://www.w3.org/2000/svg">
<path d="M11 6C11.6904 6 12.25 6.55964 12.25 7.25V9.75H14.75C15.4404 9.75 16 10.3096 16 11C16 11.6904 15.4404 12.25 14.75 12.25H12.25V14.75C12.25 15.4404 11.6904 16 11 16C10.3096 16 9.75 15.4404 9.75 14.75V12.25H7.25C6.55964 12.25 6 11.6904 6 11C6 10.3096 6.55964 9.75 7.25 9.75H9.75V7.25C9.75 6.55964 10.3096 6 11 6Z" fill="#080809" style="fill:#080809;fill:color(display-p3 0.0314 0.0314 0.0353);fill-opacity:1;"/>
<path fill-rule="evenodd" clip-rule="evenodd" d="M11 1C5.47715 1 1 5.47715 1 11C1 16.5228 5.47715 21 11 21C13.3109 21 15.4387 20.2161 17.1321 18.8998L20.8661 22.6339C21.3543 23.122 22.1457 23.122 22.6339 22.6339C23.122 22.1457 23.122 21.3543 22.6339 20.8661L18.8998 17.1321C20.2161 15.4387 21 13.3109 21 11C21 5.47715 16.5228 1 11 1ZM3.5 11C3.5 6.85786 6.85786 3.5 11 3.5C15.1421 3.5 18.5 6.85786 18.5 11C18.5 15.1421 15.1421 18.5 11 18.5C6.85786 18.5 3.5 15.1421 3.5 11Z" fill="#080809" style="fill:#080809;fill:color(display-p3 0.0314 0.0314 0.0353);fill-opacity:1;"/>
</svg>
