<svg width="24" height="24" viewBox="0 0 24 24" fill="none" xmlns="http://www.w3.org/2000/svg">
<path fill-rule="evenodd" clip-rule="evenodd" d="M16.4804 7.97357C16.4915 7.9722 16.5026 7.97064 16.5136 7.9689L21.944 7.20571C22.4909 7.12884 22.872 6.62318 22.7951 6.07627L22.7018 5.41252C22.6595 5.11086 22.6306 4.9053 22.5918 4.72568C22.068 2.30198 19.847 0.628325 17.3728 0.792887C17.1894 0.805085 16.984 0.833974 16.6822 0.87641L14.0655 1.24417C14.0473 1.24622 14.0291 1.24877 14.0109 1.25184L6.63129 2.28898C6.61802 2.29057 6.60475 2.29243 6.5915 2.29457L5.49796 2.44825C5.15375 2.49659 4.91941 2.5295 4.71492 2.5759C2.33478 3.116 0.692364 5.29556 0.829247 7.73237C0.841008 7.94172 0.873967 8.17606 0.922378 8.52026L1.00921 9.13807C1.08607 9.68499 1.59174 10.066 2.13865 9.98917L9.04518 9.01852C9.06189 9.0166 9.07861 9.01426 9.0953 9.01148L16.4804 7.97357ZM13.5794 3.33214L8.22029 4.08531L9.52905 6.93086L14.8881 6.17769L13.5794 3.33214ZM15.6471 3.04154L16.9178 2.86295C17.2783 2.8123 17.4051 2.79516 17.5055 2.78848C18.99 2.68974 20.3226 3.69393 20.6369 5.14816C20.6484 5.20125 20.659 5.26259 20.6744 5.36449L16.9559 5.88709L15.6471 3.04154ZM5.82504 4.42194L6.15255 4.37592L7.46131 7.22146L2.85188 7.86928C2.83684 7.7527 2.82958 7.68207 2.8261 7.6202C2.74397 6.15811 3.72942 4.85037 5.1575 4.52632C5.26947 4.50091 5.41389 4.47973 5.82504 4.42194Z" fill="#080809" style="fill:#080809;fill:color(display-p3 0.0314 0.0314 0.0353);fill-opacity:1;"/>
<path fill-rule="evenodd" clip-rule="evenodd" d="M2.00034 11.0011C1.44805 11.0011 1.00034 11.4489 1.00034 12.0011L1.00034 13.0743C1.00031 14.8978 1.00029 16.3675 1.1557 17.5235C1.31706 18.7236 1.66225 19.7341 2.4648 20.5367C3.26736 21.3392 4.27786 21.6844 5.478 21.8458C6.63396 22.0012 8.10372 22.0012 9.92717 22.0011H14.0735C15.897 22.0012 17.3667 22.0012 18.5227 21.8458C19.7228 21.6844 20.7333 21.3392 21.5359 20.5367C22.3384 19.7341 22.6836 18.7236 22.845 17.5235C23.0004 16.3675 23.0004 14.8978 23.0003 13.0743V12.0011C23.0003 11.4489 22.5526 11.0011 22.0003 11.0011L2.00034 11.0011ZM3.13787 17.257C3.00246 16.2499 3.00034 14.915 3.00034 13.0011H21.0003C21.0003 14.915 20.9982 16.2499 20.8628 17.257C20.7313 18.2354 20.4907 18.7535 20.1217 19.1225C19.7526 19.4915 19.2345 19.7321 18.2562 19.8636C17.249 19.999 15.9142 20.0011 14.0003 20.0011H10.0003C8.08645 20.0011 6.75163 19.999 5.7445 19.8636C4.76613 19.7321 4.24803 19.4915 3.87902 19.1225C3.51 18.7535 3.2694 18.2354 3.13787 17.257Z" fill="#080809" style="fill:#080809;fill:color(display-p3 0.0314 0.0314 0.0353);fill-opacity:1;"/>
</svg>
