<svg width="24" height="24" viewBox="0 0 24 24" fill="none" xmlns="http://www.w3.org/2000/svg">
<path fill-rule="evenodd" clip-rule="evenodd" d="M20.3713 2.45705C19.1997 1.28547 17.3002 1.28548 16.1287 2.45706L13.5 5.08576L13.2071 4.79289C12.8166 4.40237 12.1834 4.40237 11.7929 4.79289C11.4024 5.18342 11.4024 5.81658 11.7929 6.20711L12.0859 6.50008L6.30048 12.2855C6.29796 12.2879 6.29546 12.2904 6.29297 12.2929L2.73239 15.8536C2.26355 16.3224 2.00015 16.9583 2.00015 17.6213V19.7639L1.77659 20.2111C1.13191 21.5004 2.49976 22.8682 3.7891 22.2235L4.23624 21.9999H6.37884C7.04188 21.9999 7.67776 21.7365 8.1466 21.2677L17.5001 11.9143L17.7929 12.2071C18.1834 12.5976 18.8166 12.5976 19.2071 12.2071C19.5976 11.8166 19.5976 11.1834 19.2071 10.7929L18.9142 10.5L21.5429 7.87126C22.7145 6.69969 22.7145 4.80019 21.5429 3.62862L20.3713 2.45705ZM7.41437 14L4.1466 17.2678C4.05283 17.3615 4.00015 17.4887 4.00015 17.6213V19.9999H6.37884C6.51145 19.9999 6.63862 19.9472 6.73239 19.8535L12.5859 14L7.41437 14ZM14.5859 12L16.0859 10.5001L13.5001 7.91429L9.41437 12H14.5859Z" fill="#080809" style="fill:#080809;fill:color(display-p3 0.0314 0.0314 0.0353);fill-opacity:1;"/>
</svg>
