<svg width="24" height="24" viewBox="0 0 24 24" fill="none" xmlns="http://www.w3.org/2000/svg">
<path d="M16.066 5.79347C16.5882 6.2343 17.2631 6.5 18 6.5C19.6569 6.5 21 5.15685 21 3.5C21 1.84315 19.6569 0.5 18 0.5C16.3431 0.5 15 1.84315 15 3.5C15 3.69438 15.0185 3.88444 15.0538 4.06851L5.43483 9.70722C4.91249 9.26598 4.2373 9 3.5 9C1.84315 9 0.5 10.3431 0.5 12C0.5 13.6569 1.84315 15 3.5 15C4.23692 15 4.91178 14.7343 5.43401 14.2935L15.0536 19.9325C15.0184 20.1163 15 20.306 15 20.5C15 22.1569 16.3431 23.5 18 23.5C19.6569 23.5 21 22.1569 21 20.5C21 18.8431 19.6569 17.5 18 17.5C17.2627 17.5 16.5875 17.766 16.0652 18.2072L6.4462 12.5685C6.48151 12.3844 6.5 12.1944 6.5 12C6.5 11.806 6.48158 11.6163 6.44641 11.4325L16.066 5.79347Z" fill="#080809" style="fill:#080809;fill:color(display-p3 0.0314 0.0314 0.0353);fill-opacity:1;"/>
</svg>
