<svg width="24" height="24" viewBox="0 0 24 24" fill="none" xmlns="http://www.w3.org/2000/svg">
<path fill-rule="evenodd" clip-rule="evenodd" d="M4.14494 8.5L3 8.5C2.44772 8.5 2 8.05228 2 7.5C2 6.94772 2.44772 6.5 3 6.5L4.14494 6.5C4.57521 5.05426 5.91449 4 7.5 4C9.433 4 11 5.567 11 7.5C11 9.433 9.433 11 7.5 11C5.91449 11 4.57521 9.94574 4.14494 8.5ZM6 7.5C6 6.67157 6.67157 6 7.5 6C8.32843 6 9 6.67157 9 7.5C9 8.32843 8.32843 9 7.5 9C6.67157 9 6 8.32843 6 7.5Z" fill="#080809" style="fill:#080809;fill:color(display-p3 0.0314 0.0314 0.0353);fill-opacity:1;"/>
<path fill-rule="evenodd" clip-rule="evenodd" d="M16.5 13C18.0855 13 19.4248 14.0543 19.8551 15.5H21C21.5523 15.5 22 15.9477 22 16.5C22 17.0523 21.5523 17.5 21 17.5H19.8551C19.4248 18.9457 18.0855 20 16.5 20C14.567 20 13 18.433 13 16.5C13 14.567 14.567 13 16.5 13ZM18 16.5C18 15.6716 17.3284 15 16.5 15C15.6716 15 15 15.6716 15 16.5C15 17.3284 15.6716 18 16.5 18C17.3284 18 18 17.3284 18 16.5Z" fill="#080809" style="fill:#080809;fill:color(display-p3 0.0314 0.0314 0.0353);fill-opacity:1;"/>
<path d="M11.5 16.5C11.5 15.9477 11.0523 15.5 10.5 15.5H3C2.44771 15.5 2 15.9477 2 16.5C2 17.0523 2.44771 17.5 3 17.5H10.5C11.0523 17.5 11.5 17.0523 11.5 16.5Z" fill="#080809" style="fill:#080809;fill:color(display-p3 0.0314 0.0314 0.0353);fill-opacity:1;"/>
<path d="M13.5 6.5C12.9477 6.5 12.5 6.94772 12.5 7.5C12.5 8.05228 12.9477 8.5 13.5 8.5H21C21.5523 8.5 22 8.05228 22 7.5C22 6.94772 21.5523 6.5 21 6.5H13.5Z" fill="#080809" style="fill:#080809;fill:color(display-p3 0.0314 0.0314 0.0353);fill-opacity:1;"/>
</svg>
