<svg width="24" height="24" viewBox="0 0 24 24" fill="none" xmlns="http://www.w3.org/2000/svg">
<path d="M15 12C15 9.99247 14.0141 8.21523 12.5 7.12605C10.9859 8.21523 10 9.99247 10 12C10 14.0075 10.9859 15.7848 12.5 16.874C14.0141 15.7848 15 14.0075 15 12Z" fill="#080809" style="fill:#080809;fill:color(display-p3 0.0314 0.0314 0.0353);fill-opacity:1;"/>
<path d="M1 12C1 16.4183 4.58172 20 9 20C10.2552 20 11.4428 19.7109 12.5 19.1958C11.7633 18.8368 11.0899 18.368 10.5012 17.8107C8.9609 16.3525 8 14.2885 8 12C8 9.71153 8.9609 7.6475 10.5012 6.18934C11.0899 5.63203 11.7633 5.16323 12.5 4.80423C11.4428 4.28906 10.2552 4 9 4C4.58172 4 1 7.58172 1 12Z" fill="#080809" style="fill:#080809;fill:color(display-p3 0.0314 0.0314 0.0353);fill-opacity:1;"/>
<path d="M16 20C20.4183 20 24 16.4183 24 12C24 7.58172 20.4183 4 16 4C14.7448 4 13.5572 4.28906 12.5 4.80423C13.2367 5.16323 13.9101 5.63203 14.4988 6.18934C16.0391 7.6475 17 9.71153 17 12C17 14.2885 16.0391 16.3525 14.4988 17.8107C13.9101 18.368 13.2367 18.8368 12.5 19.1958C13.5572 19.7109 14.7448 20 16 20Z" fill="#080809" style="fill:#080809;fill:color(display-p3 0.0314 0.0314 0.0353);fill-opacity:1;"/>
</svg>
