<svg width="24" height="24" viewBox="0 0 24 24" fill="none" xmlns="http://www.w3.org/2000/svg">
<path fill-rule="evenodd" clip-rule="evenodd" d="M8.68629 1H15.3137C16.1094 1 16.8724 1.31607 17.435 1.87868L22.1213 6.56497C22.6839 7.12758 23 7.89064 23 8.68629V15.3137C23 16.1094 22.6839 16.8724 22.1213 17.435L17.435 22.1213C16.8724 22.6839 16.1094 23 15.3137 23H8.68629C7.89064 23 7.12758 22.6839 6.56497 22.1213L1.87868 17.435C1.31607 16.8724 1 16.1094 1 15.3137V8.68629C1 7.89064 1.31607 7.12758 1.87868 6.56497L6.56497 1.87868C7.12758 1.31607 7.89064 1 8.68629 1ZM7 11C6.44772 11 6 11.4477 6 12C6 12.5523 6.44772 13 7 13L17 13C17.5523 13 18 12.5523 18 12C18 11.4477 17.5523 11 17 11L7 11Z" fill="#080809" style="fill:#080809;fill:color(display-p3 0.0314 0.0314 0.0353);fill-opacity:1;"/>
</svg>
