<svg width="24" height="24" viewBox="0 0 24 24" fill="none" xmlns="http://www.w3.org/2000/svg">
<path fill-rule="evenodd" clip-rule="evenodd" d="M10.8379 0.480841C11.5655 0.0988331 12.4345 0.0988353 13.1621 0.480841L21.9297 5.08382C22.5878 5.42933 23 6.11132 23 6.85462V8.00018C23 9.10475 22.1046 10.0002 21 10.0002H20V16.882L21.8944 17.8292C22.572 18.168 23 18.8605 23 19.618V21C23 22.1046 22.1046 23 21 23H3C1.89543 23 1 22.1046 1 21V19.618C1 18.8605 1.428 18.168 2.10557 17.8292L4 16.882V10.0002H3C1.89543 10.0002 1 9.10475 1 8.00018V6.85462C1 6.11132 1.41222 5.42933 2.07033 5.08382L10.8379 0.480841ZM18 16.5H15.5V10.0002H18V16.5ZM13.5 10.0002V16.5H10.5V10.0002H13.5ZM8.5 10.0002V16.5H6V10.0002H8.5Z" fill="#080809" style="fill:#080809;fill:color(display-p3 0.0314 0.0314 0.0353);fill-opacity:1;"/>
</svg>
