<svg width="24" height="24" viewBox="0 0 24 24" fill="none" xmlns="http://www.w3.org/2000/svg">
<g clip-path="url(#clip0_29901_27968)">
<path d="M0.5 12C0.5 5.64873 5.64873 0.5 12 0.5C14.816 0.5 17.3955 1.51212 19.3948 3.19242L11.2929 11.2943C11.1054 11.4818 11 11.7362 11 12.0014V23.4571C5.11697 22.9504 0.5 18.0144 0.5 12Z" fill="#080809" style="fill:#080809;fill:color(display-p3 0.0314 0.0314 0.0353);fill-opacity:1;"/>
<path d="M11.8864 23.4995C11.9242 23.4998 11.9621 23.5 12 23.5C12.0379 23.5 12.0758 23.4998 12.1136 23.4995H11.8864Z" fill="#080809" style="fill:#080809;fill:color(display-p3 0.0314 0.0314 0.0353);fill-opacity:1;"/>
<path d="M13 23.4571C18.883 22.9504 23.5 18.0144 23.5 12C23.5 9.18476 22.4884 6.60578 20.8089 4.60676L13 12.4156V23.4571Z" fill="#080809" style="fill:#080809;fill:color(display-p3 0.0314 0.0314 0.0353);fill-opacity:1;"/>
</g>
<defs>
<clipPath id="clip0_29901_27968">
<rect width="24" height="24" fill="white" style="fill:white;fill-opacity:1;"/>
</clipPath>
</defs>
</svg>
