<svg width="24" height="24" viewBox="0 0 24 24" fill="none" xmlns="http://www.w3.org/2000/svg">
<path fill-rule="evenodd" clip-rule="evenodd" d="M9.00889 7.6441L1.03126 17.8377C0.252448 18.8329 0.338704 20.2527 1.23225 21.1463L2.85392 22.7679C3.74747 23.6615 5.16731 23.7477 6.16245 22.9689L16.3564 14.9911C20.0568 14.8055 23 11.7465 23 8C23 4.13401 19.866 1 16 1C12.2534 1 9.19421 3.94348 9.00889 7.6441ZM11.0157 7.60126C11.074 6.86152 11.2934 6.16707 11.6387 5.55293L18.4471 12.3613C17.8329 12.7066 17.1385 12.926 16.3987 12.9843L11.0157 7.60126ZM19.9631 11.0489L12.9511 4.03686C13.795 3.38668 14.8523 3 16 3C18.7614 3 21 5.23858 21 8C21 9.14768 20.6133 10.205 19.9631 11.0489ZM11.2071 14.2071C11.5976 13.8166 11.5976 13.1834 11.2071 12.7929C10.8166 12.4024 10.1834 12.4024 9.79289 12.7929L8.29289 14.2929C7.90237 14.6834 7.90237 15.3166 8.29289 15.7071C8.68342 16.0976 9.31658 16.0976 9.70711 15.7071L11.2071 14.2071Z" fill="#080809" style="fill:#080809;fill:color(display-p3 0.0314 0.0314 0.0353);fill-opacity:1;"/>
</svg>
