<svg width="24" height="24" viewBox="0 0 24 24" fill="none" xmlns="http://www.w3.org/2000/svg">
<g clip-path="url(#clip0_29901_26157)">
<path fill-rule="evenodd" clip-rule="evenodd" d="M9.63485 2.17803C10.4179 -0.0593436 13.5821 -0.0593404 14.3651 2.17803L15.4994 5.41876C16.0043 6.8614 17.1386 7.99567 18.5812 8.5006L21.822 9.63486C24.0593 10.4179 24.0593 13.5821 21.822 14.3651L18.5812 15.4994C17.1386 16.0043 16.0043 17.1386 15.4994 18.5812L14.3651 21.822C13.5821 24.0594 10.4179 24.0593 9.63485 21.822L8.5006 18.5812C7.99567 17.1386 6.8614 16.0043 5.41876 15.4994L2.17803 14.3651C-0.0593444 13.5821 -0.0593396 10.4179 2.17803 9.63485L5.41876 8.5006C6.8614 7.99567 7.99567 6.8614 8.5006 5.41876L9.63485 2.17803ZM12.4774 2.83873C12.3194 2.38709 11.6806 2.38709 11.5226 2.83873L10.3883 6.07946C9.68236 8.09648 8.09648 9.68236 6.07946 10.3883L2.83873 11.5226C2.38709 11.6806 2.38709 12.3194 2.83873 12.4774L6.07946 13.6117C8.09648 14.3176 9.68236 15.9035 10.3883 17.9205L11.5226 21.1613C11.6806 21.6129 12.3194 21.6129 12.4774 21.1613L13.6117 17.9205C14.3176 15.9035 15.9035 14.3176 17.9205 13.6117L21.1613 12.4774C21.6129 12.3194 21.6129 11.6806 21.1613 11.5226L17.9205 10.3883C15.9035 9.68236 14.3176 8.09648 13.6117 6.07946L12.4774 2.83873Z" fill="#080809" style="fill:#080809;fill:color(display-p3 0.0314 0.0314 0.0353);fill-opacity:1;"/>
</g>
<defs>
<clipPath id="clip0_29901_26157">
<rect width="24" height="24" fill="white" style="fill:white;fill-opacity:1;"/>
</clipPath>
</defs>
</svg>
