<svg width="24" height="24" viewBox="0 0 24 24" fill="none" xmlns="http://www.w3.org/2000/svg">
<path fill-rule="evenodd" clip-rule="evenodd" d="M10.6132 2.22261C11.453 1.66278 12.547 1.66278 13.3868 2.22261L23.044 8.66078C23.0702 8.6778 23.0956 8.696 23.12 8.71533C23.1804 8.76307 23.2346 8.81722 23.2818 8.87645C23.4184 9.04743 23.5 9.26418 23.5 9.5V14C23.5 14.5523 23.0523 15 22.5 15C21.9477 15 21.5 14.5523 21.5 14V11.3685L20 12.3685V16.8334C20 17.1678 19.8329 17.48 19.5547 17.6655L13.3868 21.7774C12.547 22.3373 11.453 22.3373 10.6132 21.7774L4.4453 17.6655C4.1671 17.48 4 17.1678 4 16.8334V12.3685L0.9453 10.332C0.667101 10.1465 0.5 9.83431 0.5 9.49996C0.5 9.16561 0.667101 8.85337 0.9453 8.66791L10.6132 2.22261ZM12.2774 3.88671C12.1094 3.77474 11.8906 3.77474 11.7226 3.88671L3.30278 9.49996L11.7226 15.1132C11.8906 15.2252 12.1094 15.2252 12.2774 15.1132L20.6972 9.49996L12.2774 3.88671ZM13.3868 16.7773L18 13.7018V16.2982L12.2774 20.1133C12.1094 20.2253 11.8906 20.2253 11.7227 20.1133L6 16.2982V13.7018L10.6132 16.7773C11.453 17.3371 12.547 17.3371 13.3868 16.7773Z" fill="#080809" style="fill:#080809;fill:color(display-p3 0.0314 0.0314 0.0353);fill-opacity:1;"/>
</svg>
