<svg width="24" height="24" viewBox="0 0 24 24" fill="none" xmlns="http://www.w3.org/2000/svg">
<path fill-rule="evenodd" clip-rule="evenodd" d="M8.11612 3.11611C8.60428 2.62796 9.39573 2.62796 9.88389 3.11612C10.7707 4.0029 11.6607 4.89025 12.5515 5.77839C13.9807 7.20317 15.4118 8.62998 16.8347 10.0597C17.9038 11.1339 17.8993 12.8688 16.8301 13.9391C15.4091 15.3614 13.9865 16.7832 12.5643 18.2046C11.6705 19.0978 10.7769 19.9909 9.88389 20.8839C9.39573 21.372 8.60428 21.372 8.11612 20.8839C7.62796 20.3957 7.62796 19.6043 8.11611 19.1161C9.01037 18.2219 9.90451 17.3282 10.7985 16.4348C12.22 15.0142 13.641 13.594 15.0615 12.1721C15.1588 12.0748 15.1579 11.9189 15.0627 11.8233C13.6421 10.3958 12.2184 8.97642 10.7927 7.55506C9.90119 6.66626 9.00891 5.77669 8.11611 4.88388C7.62796 4.39572 7.62796 3.60427 8.11612 3.11611Z" fill="#080809" style="fill:#080809;fill:color(display-p3 0.0314 0.0314 0.0353);fill-opacity:1;"/>
</svg>
