<svg width="24" height="24" viewBox="0 0 24 24" fill="none" xmlns="http://www.w3.org/2000/svg">
<path fill-rule="evenodd" clip-rule="evenodd" d="M23.5 4.5C23.5 3.11929 22.3807 2 21 2H18.9051C16.4189 2 14.0037 2.78595 12 4.23456C9.99629 2.78595 7.58106 2 5.09487 2H3C1.61929 2 0.5 3.11929 0.5 4.5V18.5C0.5 19.8807 1.61929 21 3 21H5.96739C7.69296 21 9.36391 21.605 10.6895 22.7096C11.4487 23.3423 12.5513 23.3423 13.3105 22.7096C14.6361 21.605 16.307 21 18.0326 21H21C22.3807 21 23.5 19.8807 23.5 18.5V4.5ZM11 5.98241C9.3035 4.6986 7.23072 4 5.09487 4H3C2.72386 4 2.5 4.22386 2.5 4.5V18.5C2.5 18.7761 2.72386 19 3 19H5.96739C7.75825 19 9.50283 19.5126 11 20.465V5.98241Z" fill="#080809" style="fill:#080809;fill:color(display-p3 0.0314 0.0314 0.0353);fill-opacity:1;"/>
</svg>
