<svg width="24" height="24" viewBox="0 0 24 24" fill="none" xmlns="http://www.w3.org/2000/svg">
<path fill-rule="evenodd" clip-rule="evenodd" d="M9.92943 0.500001H14.0706C15.4247 0.499968 16.5413 0.499941 17.4251 0.618757C18.3529 0.7435 19.1723 1.01547 19.8284 1.67158C20.4845 2.32769 20.7565 3.14711 20.8813 4.07494C21.0001 4.95869 21 6.0753 21 7.42942V16.5706C21 17.9247 21.0001 19.0413 20.8813 19.9251C20.7565 20.8529 20.4845 21.6723 19.8284 22.3284C19.1723 22.9845 18.3529 23.2565 17.4251 23.3813C16.5413 23.5001 15.4247 23.5 14.0706 23.5H9.92946C8.57535 23.5 7.45869 23.5001 6.57494 23.3813C5.64711 23.2565 4.82769 22.9845 4.17158 22.3284C3.51547 21.6723 3.2435 20.8529 3.11876 19.9251C2.99994 19.0413 2.99997 17.9247 3 16.5706V7.42943C2.99997 6.07535 2.99994 4.95868 3.11876 4.07494C3.2435 3.14711 3.51547 2.32769 4.17158 1.67158C4.82769 1.01547 5.64711 0.7435 6.57494 0.618757C7.45868 0.499941 8.57535 0.499968 9.92943 0.500001ZM15.7071 4.79289C16.0976 5.18342 16.0976 5.81658 15.7071 6.20711L12.4142 9.5C11.6332 10.281 10.3668 10.2811 9.58579 9.5L8.29289 8.20711C7.90237 7.81658 7.90237 7.18342 8.29289 6.79289C8.68342 6.40237 9.31658 6.40237 9.70711 6.79289L11 8.08579L14.2929 4.79289C14.6834 4.40237 15.3166 4.40237 15.7071 4.79289ZM9 15H15C15.5523 15 16 14.5523 16 14C16 13.4477 15.5523 13 15 13H9C8.44772 13 8 13.4477 8 14C8 14.5523 8.44772 15 9 15ZM9 19H15C15.5523 19 16 18.5523 16 18C16 17.4477 15.5523 17 15 17H9C8.44772 17 8 17.4477 8 18C8 18.5523 8.44772 19 9 19Z" fill="#080809" style="fill:#080809;fill:color(display-p3 0.0314 0.0314 0.0353);fill-opacity:1;"/>
</svg>
