<svg width="24" height="24" viewBox="0 0 24 24" fill="none" xmlns="http://www.w3.org/2000/svg">
<path fill-rule="evenodd" clip-rule="evenodd" d="M3.9578 9C5.23207 4.94289 9.02236 2 13.5 2C19.0228 2 23.5 6.47715 23.5 12C23.5 17.5228 19.0228 22 13.5 22C12.1936 22 10.9433 21.749 9.79668 21.2916C9.36562 21.1196 9.07421 21.0037 8.854 20.9272C8.65703 20.8589 8.58296 20.8466 8.57196 20.8448C8.4977 20.8417 8.37677 20.8637 7.65567 21.0831L5.79851 21.6482C4.60262 22.0121 3.48482 20.8941 3.84888 19.6983L4.4147 17.8398C4.58368 17.2847 4.63543 17.0853 4.64888 16.989C5.13055 16.9171 5.5 16.5017 5.5 16C5.5 15.4477 5.05228 15 4.5 15H2.5C1.94772 15 1.5 14.5523 1.5 14C1.5 13.4477 1.94772 13 2.5 13H6C6.55228 13 7 12.5523 7 12C7 11.4477 6.55228 11 6 11H1.5C0.947715 11 0.5 10.5523 0.5 10C0.5 9.44772 0.947715 9 1.5 9H3.9578ZM18.346 10.859C18.557 10.5941 18.5355 10.213 18.296 9.97354C18.0731 9.75064 17.7244 9.71464 17.4606 9.88732L14.9967 11.5004L12.7076 9.91568C12.1667 9.54127 11.4283 9.65005 11.0184 10.1645L8.64701 13.141C8.43594 13.4059 8.45744 13.7871 8.69697 14.0266C8.91985 14.2495 9.26847 14.2855 9.53223 14.1129L11.9967 12.5004L14.2856 14.0851C14.8265 14.4596 15.565 14.3507 15.9749 13.8361L18.346 10.859Z" fill="#080809" style="fill:#080809;fill:color(display-p3 0.0314 0.0314 0.0353);fill-opacity:1;"/>
</svg>
