<svg width="24" height="24" viewBox="0 0 24 24" fill="none" xmlns="http://www.w3.org/2000/svg">
<path d="M15.001 0.25C15.551 0.25 16.001 0.7 16.001 1.25V22.75C16.001 23.3 15.551 23.75 15.001 23.75C14.451 23.75 14.001 23.3 14.001 22.75V1.25C14.001 0.7 14.451 0.25 15.001 0.25Z" fill="#080809" style="fill:#080809;fill:color(display-p3 0.0314 0.0314 0.0353);fill-opacity:1;"/>
<path d="M11.4658 1.00488C12.0208 1.00488 12.4863 1.45488 12.4863 2.00488C12.4863 2.55488 12.051 3.00488 11.501 3.00488C9.08608 3.00488 8.65588 3.02031 7.5459 3.07031C6.46604 3.12033 5.8956 3.29532 5.51562 3.44531C5.00092 3.64527 4.63572 3.8799 4.25586 4.25977C3.87597 4.63467 3.64137 4.99984 3.44141 5.51465L3.44629 5.51953C3.29629 5.89952 3.12129 6.46986 3.07129 7.5498C3.01629 8.7048 3.00586 9.01488 3.00586 12.0049C3.00586 14.9949 3.01629 15.305 3.07129 16.46C3.12129 17.5399 3.29629 18.1102 3.44629 18.4902C3.64624 19.005 3.8809 19.3701 4.26074 19.75C4.63561 20.1299 5.00092 20.3645 5.51562 20.5645C5.8956 20.7144 6.46604 20.8894 7.5459 20.9395C8.65586 20.9895 9.08106 21.0049 11.4658 21.0049C12.0208 21.0049 12.4863 21.4549 12.4863 22.0049C12.4863 22.5549 12.051 23.0049 11.501 23.0049H11.4658C9.04106 23.0049 8.60101 22.9895 7.45605 22.9395C6.0612 22.8745 5.26126 22.6148 4.78125 22.4248C4.01625 22.1248 3.41582 21.7352 2.84082 21.1602C2.26582 20.5852 1.87617 19.9848 1.57617 19.2148C1.37118 18.6949 1.12153 17.9199 1.06152 16.5449C1.00652 15.3249 0.996094 14.9149 0.996094 12C0.996094 9.08514 1.00653 8.67494 1.06152 7.45508C1.12651 6.08526 1.37119 5.30516 1.57617 4.78516C1.87616 4.02018 2.26585 3.41971 2.84082 2.84473C3.41581 2.26973 4.01615 1.88008 4.78613 1.58008C5.26613 1.39508 6.06609 1.13532 7.45605 1.07031C8.60101 1.02031 9.04106 1.00488 11.4658 1.00488Z" fill="#080809" style="fill:#080809;fill:color(display-p3 0.0314 0.0314 0.0353);fill-opacity:1;"/>
<path d="M17.541 2.08984C17.7011 1.56502 18.2611 1.26473 18.791 1.42969C18.921 1.46969 19.0414 1.51469 19.1514 1.55469L19.2109 1.5752C19.9809 1.87519 20.5813 2.26486 21.1562 2.83984C21.7312 3.41483 22.1209 4.01517 22.4209 4.78516C22.6259 5.30515 22.8755 6.08014 22.9355 7.45508C22.9905 8.67506 23.001 9.08511 23.001 12C23.001 14.9149 22.9905 15.3251 22.9355 16.5449C22.8706 17.9147 22.6259 18.6948 22.4209 19.2148C22.1209 19.9798 21.7312 20.5803 21.1562 21.1553C20.5813 21.7302 19.9809 22.1199 19.2109 22.4199L19.1514 22.4404C19.0414 22.4804 18.921 22.5254 18.791 22.5654C18.6911 22.5954 18.591 22.6103 18.4961 22.6104C18.0712 22.6104 17.6711 22.3352 17.541 21.9053C17.376 21.3753 17.6712 20.8203 18.2012 20.6553C18.2859 20.6303 18.3656 20.6002 18.4404 20.5703L18.4912 20.5498C18.991 20.3548 19.3564 20.1201 19.7363 19.7402C20.1162 19.3653 20.3508 19.0002 20.5508 18.4854C20.7008 18.1054 20.8758 17.5351 20.9258 16.4551C20.9808 15.3001 20.9912 14.99 20.9912 12C20.9912 9.01011 20.9808 8.69991 20.9258 7.54492C20.8758 6.46505 20.7008 5.89462 20.5508 5.51465C20.3508 4.99993 20.1162 4.63474 19.7363 4.25488C19.3613 3.87488 18.9955 3.64043 18.4805 3.44043L18.4404 3.4248C18.3706 3.39983 18.2909 3.36478 18.2012 3.33984C17.6762 3.17484 17.376 2.61984 17.541 2.08984Z" fill="#080809" style="fill:#080809;fill:color(display-p3 0.0314 0.0314 0.0353);fill-opacity:1;"/>
</svg>
