<svg width="24" height="24" viewBox="0 0 24 24" fill="none" xmlns="http://www.w3.org/2000/svg">
<path fill-rule="evenodd" clip-rule="evenodd" d="M6.57494 0.618756C6.80396 0.587966 7.04861 0.565156 7.30899 0.54826L7.94676 2.46168C8.25301 3.38047 9.11283 4.0002 10.0813 4.0002H13.919C14.8875 4.0002 15.7473 3.38049 16.0535 2.46172L16.6914 0.548281C16.9516 0.565175 17.1961 0.587978 17.4251 0.618755C18.3529 0.7435 19.1723 1.01547 19.8284 1.67158C20.4845 2.32769 20.7565 3.14711 20.8813 4.07494C21.0001 4.95869 21 6.07531 21 7.42941V16.5706C21 17.9247 21.0001 19.0413 20.8813 19.9251C20.7565 20.8529 20.4845 21.6723 19.8284 22.3284C19.1723 22.9845 18.3529 23.2565 17.4251 23.3813C16.5413 23.5001 15.4247 23.5 14.0706 23.5H9.92943C8.57531 23.5 7.4587 23.5001 6.57494 23.3813C5.64711 23.2565 4.82769 22.9845 4.17158 22.3284C3.51547 21.6723 3.2435 20.8529 3.11876 19.9251C2.99994 19.0413 2.99997 17.9247 3 16.5706V7.42943C2.99997 6.07534 2.99994 4.95868 3.11876 4.07494C3.2435 3.14711 3.51547 2.32769 4.17158 1.67158C4.82769 1.01547 5.64711 0.7435 6.57494 0.618756ZM16.4997 11.4237C16.4688 13.5741 14.2279 15.3887 12.2483 16.5687C12.0951 16.6601 11.9048 16.6601 11.7516 16.5687C9.77202 15.3887 7.53125 13.5741 7.50035 11.4237C7.47746 9.91815 8.59963 9.02371 9.74996 9.00195C10.6759 8.98443 11.3388 9.39397 12 10.3929C12.661 9.39413 13.324 8.983 14.2499 9.00054C15.4003 9.02233 16.5225 9.91836 16.4997 11.4237Z" fill="#080809" style="fill:#080809;fill:color(display-p3 0.0314 0.0314 0.0353);fill-opacity:1;"/>
<path d="M14.0706 0.500001C14.4399 0.499992 14.7915 0.499983 15.1255 0.502385L14.6305 1.98738C14.5284 2.29363 14.2418 2.5002 13.919 2.5002H10.0813C9.75848 2.5002 9.47187 2.29363 9.36979 1.98736L8.87482 0.502383C9.20877 0.499983 9.56028 0.499992 9.92943 0.500001H14.0706Z" fill="#080809" style="fill:#080809;fill:color(display-p3 0.0314 0.0314 0.0353);fill-opacity:1;"/>
</svg>
