<svg width="24" height="24" viewBox="0 0 24 24" fill="none" xmlns="http://www.w3.org/2000/svg">
<path d="M20 10C20.5523 10 21 10.4477 21 11C21 15.6335 17.4983 19.4471 12.9971 19.9434V21.5H14.9971C15.5494 21.5 15.9971 21.9477 15.9971 22.5C15.9971 23.0523 15.5494 23.5 14.9971 23.5H8.99707C8.44479 23.5 7.99707 23.0523 7.99707 22.5C7.99707 21.9477 8.44479 21.5 8.99707 21.5H10.9971V19.9424C6.49865 19.4435 3 15.6315 3 11C3 10.4477 3.44772 10 4 10C4.55228 10 5 10.4477 5 11C5 14.866 8.13401 18 12 18C15.866 18 19 14.866 19 11C19 10.4477 19.4477 10 20 10Z" fill="#080809" style="fill:#080809;fill:color(display-p3 0.0314 0.0314 0.0353);fill-opacity:1;"/>
<path d="M11.9971 0.5C13.0468 0.5 14.0237 0.82459 14.8291 1.37891C15.284 1.69201 15.399 2.3146 15.0859 2.76953C14.7728 3.22445 14.1503 3.33942 13.6953 3.02637C13.2128 2.69427 12.6291 2.5 11.9971 2.5C10.3402 2.5 8.99707 3.84315 8.99707 5.5V11C8.99707 12.6569 10.3402 14 11.9971 14C13.251 14 14.3273 13.2303 14.7754 12.1338C14.9842 11.6225 15.5688 11.3771 16.0801 11.5859C16.5911 11.7949 16.8357 12.3785 16.627 12.8896C15.8824 14.7124 14.0914 16 11.9971 16C9.23565 16 6.99707 13.7614 6.99707 11V5.5C6.99707 2.73858 9.23565 0.5 11.9971 0.5Z" fill="#080809" style="fill:#080809;fill:color(display-p3 0.0314 0.0314 0.0353);fill-opacity:1;"/>
<path d="M15.75 6C16.0708 6 16.3563 6.20422 16.46 6.50781L16.7227 7.27637L17.4922 7.54004C17.7958 7.64371 18 7.9292 18 8.25C18 8.5708 17.7958 8.85629 17.4922 8.95996L16.7227 9.22266L16.46 9.99219C16.3563 10.2958 16.0708 10.5 15.75 10.5C15.4292 10.5 15.1437 10.2958 15.04 9.99219L14.7764 9.22266L14.0078 8.95996C13.7042 8.85629 13.5 8.5708 13.5 8.25C13.5 7.9292 13.7042 7.64371 14.0078 7.54004L14.7764 7.27637L15.04 6.50781C15.1437 6.20422 15.4292 6 15.75 6Z" fill="#080809" style="fill:#080809;fill:color(display-p3 0.0314 0.0314 0.0353);fill-opacity:1;"/>
<path d="M20 0.5C20.4277 0.5 20.808 0.772019 20.9463 1.17676L21.4238 2.5752L22.8232 3.05371C23.228 3.19196 23.5 3.57229 23.5 4C23.5 4.42771 23.228 4.80804 22.8232 4.94629L21.4238 5.42383L20.9463 6.82324C20.808 7.22798 20.4277 7.5 20 7.5C19.5723 7.5 19.192 7.22798 19.0537 6.82324L18.5752 5.42383L17.1768 4.94629C16.772 4.80804 16.5 4.42771 16.5 4C16.5 3.57229 16.772 3.19196 17.1768 3.05371L18.5752 2.5752L19.0537 1.17676L19.1162 1.03125C19.2875 0.70807 19.6258 0.5 20 0.5Z" fill="#080809" style="fill:#080809;fill:color(display-p3 0.0314 0.0314 0.0353);fill-opacity:1;"/>
</svg>
