<svg width="24" height="24" viewBox="0 0 24 24" fill="none" xmlns="http://www.w3.org/2000/svg">
<path d="M18.797 5.41421C17.6152 4.64469 16.7541 3.40797 16.4884 1.96971C16.4335 1.65824 16.3968 1.33761 16.3968 1.00781H12.6134V16.1599C12.5401 17.8547 11.1476 19.2197 9.43455 19.2197C8.90322 19.2197 8.39937 19.0823 7.95965 18.8533C6.95195 18.3219 6.25572 17.2593 6.25572 16.0409C6.25572 14.2911 7.68482 12.862 9.43455 12.862C9.76434 12.862 10.0758 12.917 10.369 13.0086V9.15186C10.0667 9.10605 9.74602 9.08773 9.43455 9.08773C5.59613 9.08773 2.48143 12.2116 2.48143 16.0409C2.48143 18.3952 3.65402 20.4747 5.44956 21.7389C6.57635 22.5359 7.95049 23.0031 9.43455 23.0031C13.273 23.0031 16.3877 19.8793 16.3877 16.05V8.36402C17.8717 9.42668 19.6856 10.0588 21.646 10.0588V6.27533C20.5925 6.27533 19.6032 5.96386 18.7787 5.42337L18.797 5.41421Z" fill="#080809" style="fill:#080809;fill:color(display-p3 0.0314 0.0314 0.0353);fill-opacity:1;"/>
</svg>
