<svg width="24" height="24" viewBox="0 0 24 24" fill="none" xmlns="http://www.w3.org/2000/svg">
<path d="M13.5 5.5C13.5 6.32843 12.8284 7 12 7C11.1716 7 10.5 6.32843 10.5 5.5C10.5 4.67157 11.1716 4 12 4C12.8284 4 13.5 4.67157 13.5 5.5Z" fill="#080809" style="fill:#080809;fill:color(display-p3 0.0314 0.0314 0.0353);fill-opacity:1;"/>
<path d="M11 8.75C10.3096 8.75 9.75 9.30964 9.75 10C9.75 10.6904 10.3096 11.25 11 11.25H11.2508V19C11.2508 19.6904 11.8104 20.25 12.5008 20.25C13.1911 20.25 13.7508 19.6904 13.7508 19V11C13.7508 9.75736 12.7434 8.75 11.5008 8.75H11Z" fill="#080809" style="fill:#080809;fill:color(display-p3 0.0314 0.0314 0.0353);fill-opacity:1;"/>
</svg>
