<svg width="24" height="24" viewBox="0 0 24 24" fill="none" xmlns="http://www.w3.org/2000/svg">
<path d="M6.70703 0.292893C7.09756 0.683417 7.09756 1.31658 6.70703 1.70711L6.41414 2H12C17.5228 2 22 6.47715 22 12C22 17.5228 17.5228 22 12 22C6.47715 22 2 17.5228 2 12C2 11.4477 2.44772 11 3 11C3.55228 11 4 11.4477 4 12C4 16.4183 7.58172 20 12 20C16.4183 20 20 16.4183 20 12C20 7.58172 16.4183 4 12 4H6.41414L6.70703 4.29289C7.09756 4.68342 7.09756 5.31658 6.70703 5.70711C6.31651 6.09763 5.68334 6.09763 5.29282 5.70711L3.64637 4.06066C3.06059 3.47487 3.06058 2.52513 3.64637 1.93934L5.29282 0.292893C5.68334 -0.0976311 6.31651 -0.0976311 6.70703 0.292893Z" fill="#080809" style="fill:#080809;fill:color(display-p3 0.0314 0.0314 0.0353);fill-opacity:1;"/>
<path fill-rule="evenodd" clip-rule="evenodd" d="M13.9661 15.1485C13.1711 15.1485 12.5516 14.859 12.1076 14.28C11.6666 13.698 11.4461 12.888 11.4461 11.85C11.4461 10.812 11.6666 10.0035 12.1076 9.42451C12.5516 8.84251 13.1711 8.55151 13.9661 8.55151C14.7611 8.55151 15.3791 8.84251 15.8201 9.42451C16.2641 10.0035 16.4861 10.812 16.4861 11.85C16.4861 12.888 16.2641 13.698 15.8201 14.28C15.3791 14.859 14.7611 15.1485 13.9661 15.1485ZM13.9661 13.956C14.3351 13.956 14.6156 13.7775 14.8076 13.4205C14.9996 13.0635 15.0956 12.54 15.0956 11.85C15.0956 11.16 14.9996 10.6365 14.8076 10.2795C14.6156 9.92251 14.3351 9.74401 13.9661 9.74401C13.5971 9.74401 13.3166 9.92251 13.1246 10.2795C12.9326 10.6365 12.8366 11.16 12.8366 11.85C12.8366 12.54 12.9326 13.0635 13.1246 13.4205C13.3166 13.7775 13.5971 13.956 13.9661 13.956Z" fill="#080809" style="fill:#080809;fill:color(display-p3 0.0314 0.0314 0.0353);fill-opacity:1;"/>
<path d="M10.1094 15H8.7369V9.87451H7.5354L7.6884 8.70001H10.1094V15Z" fill="#080809" style="fill:#080809;fill:color(display-p3 0.0314 0.0314 0.0353);fill-opacity:1;"/>
</svg>
