<svg width="24" height="24" viewBox="0 0 24 24" fill="none" xmlns="http://www.w3.org/2000/svg">
<path d="M3.5 5.5C4.05229 5.5 4.5 5.94772 4.5 6.5V16.5C4.5 17.9422 4.50185 18.9234 4.60059 19.6582C4.69551 20.3643 4.86337 20.6915 5.08594 20.9141C5.30851 21.1366 5.63575 21.3045 6.3418 21.3994C7.07657 21.4982 8.05778 21.5 9.5 21.5H16L16.1025 21.5049C16.6067 21.5562 17 21.9823 17 22.5C17 23.0177 16.6067 23.4438 16.1025 23.4951L16 23.5H9.5C8.11416 23.5 6.97423 23.5017 6.0752 23.3809C5.14737 23.2561 4.32798 22.9842 3.67188 22.3281C3.01577 21.672 2.74389 20.8526 2.61914 19.9248C2.49829 19.0258 2.5 17.8858 2.5 16.5V6.5C2.5 5.94772 2.94772 5.5 3.5 5.5Z" fill="#080809" style="fill:#080809;fill:color(display-p3 0.0314 0.0314 0.0353);fill-opacity:1;"/>
<path d="M14 6.5C14.5522 6.5 14.9999 6.94779 15 7.5V9H16.5C17.0522 9 17.4999 9.44779 17.5 10C17.5 10.5523 17.0523 11 16.5 11H15V12.5C15 13.0523 14.5523 13.5 14 13.5C13.4477 13.5 13 13.0523 13 12.5V11H11.5C10.9477 11 10.5 10.5523 10.5 10C10.5001 9.44781 10.9478 9.00002 11.5 9H13V7.5C13.0001 6.94781 13.4478 6.50002 14 6.5Z" fill="#080809" style="fill:#080809;fill:color(display-p3 0.0314 0.0314 0.0353);fill-opacity:1;"/>
<path fill-rule="evenodd" clip-rule="evenodd" d="M15 0.500001C16.3858 0.500001 17.5258 0.498294 18.4248 0.619142C19.3526 0.743885 20.172 1.01577 20.8281 1.67188C21.4842 2.32798 21.7561 3.14737 21.8809 4.0752C22.0017 4.97423 22 6.11416 22 7.5V13C22 14.3858 22.0017 15.5258 21.8809 16.4248C21.7561 17.3526 21.4842 18.172 20.8281 18.8281C20.172 19.4842 19.3526 19.7561 18.4248 19.8809C17.5258 20.0017 16.3858 20 15 20H13C11.6142 20 10.4742 20.0017 9.5752 19.8809C8.64737 19.7561 7.82798 19.4842 7.17188 18.8281C6.51577 18.172 6.24389 17.3526 6.11914 16.4248C5.99829 15.5258 6 14.3858 6 13V7.5C6 6.11416 5.99829 4.97423 6.11914 4.0752C6.24389 3.14737 6.51577 2.32798 7.17188 1.67188C7.82798 1.01577 8.64737 0.743885 9.5752 0.619142C10.4742 0.498294 11.6142 0.500001 13 0.500001H15ZM13 2.5C11.5578 2.5 10.5766 2.50185 9.8418 2.60059C9.13575 2.69551 8.80851 2.86337 8.58594 3.08594C8.36337 3.30851 8.19551 3.63575 8.10059 4.3418C8.00185 5.07657 8 6.05778 8 7.5V13C8 14.4422 8.00185 15.4234 8.10059 16.1582C8.19551 16.8643 8.36337 17.1915 8.58594 17.4141C8.80851 17.6366 9.13575 17.8045 9.8418 17.8994C10.5766 17.9982 11.5578 18 13 18H15C16.4422 18 17.4234 17.9982 18.1582 17.8994C18.8643 17.8045 19.1915 17.6366 19.4141 17.4141C19.6366 17.1915 19.8045 16.8643 19.8994 16.1582C19.9982 15.4234 20 14.4422 20 13V7.5C20 6.05778 19.9982 5.07657 19.8994 4.3418C19.8045 3.63575 19.6366 3.30851 19.4141 3.08594C19.1915 2.86337 18.8643 2.69551 18.1582 2.60059C17.4234 2.50185 16.4422 2.5 15 2.5H13Z" fill="#080809" style="fill:#080809;fill:color(display-p3 0.0314 0.0314 0.0353);fill-opacity:1;"/>
</svg>
