<svg width="24" height="24" viewBox="0 0 24 24" fill="none" xmlns="http://www.w3.org/2000/svg">
<g clip-path="url(#clip0_29901_28511)">
<path fill-rule="evenodd" clip-rule="evenodd" d="M12 0.5C18.3513 0.5 23.5 5.64873 23.5 12C23.5 13.9218 23.0278 15.7363 22.1922 17.3308C22.105 17.4973 22.092 17.6559 22.1233 17.7765L23.0047 21.1762C23.2918 22.2835 22.2835 23.2918 21.1762 23.0047L17.7765 22.1233C17.6559 22.092 17.4973 22.105 17.3308 22.1922C15.7363 23.0278 13.9218 23.5 12 23.5C5.64873 23.5 0.5 18.3513 0.5 12C0.5 5.64873 5.64873 0.5 12 0.5ZM7.2927 16.7032C6.90237 16.3125 6.90267 15.6793 7.29339 15.289L10.5873 11.9983L7.29335 8.70722C6.90266 8.31686 6.90238 7.6837 7.29274 7.29301C7.6831 6.90232 8.31626 6.90205 8.70696 7.2924L12.0022 10.5848L15.2977 7.29243C15.6884 6.9021 16.3216 6.9024 16.7119 7.29312C17.1023 7.68383 17.102 8.317 16.7113 8.70733L13.417 11.9984L16.7113 15.2899C17.102 15.6803 17.1023 16.3134 16.7119 16.7041C16.3215 17.0948 15.6884 17.0951 15.2977 16.7047L12.0021 13.4119L8.70691 16.7039C8.3162 17.0942 7.68304 17.0939 7.2927 16.7032Z" fill="#080809" style="fill:#080809;fill:color(display-p3 0.0314 0.0314 0.0353);fill-opacity:1;"/>
</g>
<defs>
<clipPath id="clip0_29901_28511">
<rect width="24" height="24" fill="white" style="fill:white;fill-opacity:1;"/>
</clipPath>
</defs>
</svg>
