<svg width="24" height="24" viewBox="0 0 24 24" fill="none" xmlns="http://www.w3.org/2000/svg">
<path fill-rule="evenodd" clip-rule="evenodd" d="M3.5 1C2.11929 1 1 2.11929 1 3.5V8.5C1 9.88071 2.11929 11 3.5 11H8.5C9.88071 11 11 9.88071 11 8.5V3.5C11 2.11929 9.88071 1 8.5 1H3.5ZM3 3.5C3 3.22386 3.22386 3 3.5 3H8.5C8.77614 3 9 3.22386 9 3.5V8.5C9 8.77614 8.77614 9 8.5 9H3.5C3.22386 9 3 8.77614 3 8.5V3.5Z" fill="#080809" style="fill:#080809;fill:color(display-p3 0.0314 0.0314 0.0353);fill-opacity:1;"/>
<path fill-rule="evenodd" clip-rule="evenodd" d="M3.5 13C2.11929 13 1 14.1193 1 15.5V20.5C1 21.8807 2.11929 23 3.5 23H8.5C9.88071 23 11 21.8807 11 20.5V15.5C11 14.1193 9.88071 13 8.5 13H3.5ZM3 15.5C3 15.2239 3.22386 15 3.5 15H8.5C8.77614 15 9 15.2239 9 15.5V20.5C9 20.7761 8.77614 21 8.5 21H3.5C3.22386 21 3 20.7761 3 20.5V15.5Z" fill="#080809" style="fill:#080809;fill:color(display-p3 0.0314 0.0314 0.0353);fill-opacity:1;"/>
<path fill-rule="evenodd" clip-rule="evenodd" d="M13 3.5C13 2.11929 14.1193 1 15.5 1H20.5C21.8807 1 23 2.11929 23 3.5V8.5C23 9.88071 21.8807 11 20.5 11H15.5C14.1193 11 13 9.88071 13 8.5V3.5ZM15.5 3C15.2239 3 15 3.22386 15 3.5V8.5C15 8.77614 15.2239 9 15.5 9H20.5C20.7761 9 21 8.77614 21 8.5V3.5C21 3.22386 20.7761 3 20.5 3H15.5Z" fill="#080809" style="fill:#080809;fill:color(display-p3 0.0314 0.0314 0.0353);fill-opacity:1;"/>
<path fill-rule="evenodd" clip-rule="evenodd" d="M15.5 13C14.1193 13 13 14.1193 13 15.5V20.5C13 21.8807 14.1193 23 15.5 23H20.5C21.8807 23 23 21.8807 23 20.5V15.5C23 14.1193 21.8807 13 20.5 13H15.5ZM15 15.5C15 15.2239 15.2239 15 15.5 15H20.5C20.7761 15 21 15.2239 21 15.5V20.5C21 20.7761 20.7761 21 20.5 21H15.5C15.2239 21 15 20.7761 15 20.5V15.5Z" fill="#080809" style="fill:#080809;fill:color(display-p3 0.0314 0.0314 0.0353);fill-opacity:1;"/>
</svg>
