<svg width="24" height="24" viewBox="0 0 24 24" fill="none" xmlns="http://www.w3.org/2000/svg">
<path d="M9.03535 0.679836C9.20181 0.257763 9.79915 0.257763 9.96561 0.679836L10.5522 2.16709C10.603 2.29595 10.705 2.39796 10.8339 2.44878L12.3211 3.03535C12.7432 3.20181 12.7432 3.79915 12.3211 3.96561L10.8339 4.55218C10.705 4.603 10.603 4.705 10.5522 4.83386L9.96561 6.32112C9.79915 6.74319 9.20181 6.74319 9.03535 6.32112L8.44878 4.83386C8.39796 4.705 8.29595 4.603 8.16709 4.55218L6.67984 3.96561C6.25776 3.79915 6.25776 3.20181 6.67984 3.03535L8.16709 2.44878C8.29595 2.39796 8.39796 2.29595 8.44878 2.16709L9.03535 0.679836Z" fill="#080809" style="fill:#080809;fill:color(display-p3 0.0314 0.0314 0.0353);fill-opacity:1;"/>
<path fill-rule="evenodd" clip-rule="evenodd" d="M21.871 1.9568C20.6994 0.785233 18.8 0.785231 17.6284 1.9568L1.9568 17.6284C0.785231 18.8 0.785233 20.6994 1.95681 21.871L2.12838 22.0426C3.29995 23.2142 5.19945 23.2142 6.37102 22.0426L18.1859 10.2277C18.193 10.221 18.2001 10.2141 18.2071 10.2071C18.2141 10.2001 18.221 10.193 18.2277 10.1859L22.0426 6.37102C23.2142 5.19944 23.2142 3.29995 22.0426 2.12838L21.871 1.9568ZM17.4997 8.08548L20.6284 4.9568C21.0189 4.56628 21.0189 3.93312 20.6284 3.54259L20.4568 3.37102C20.0663 2.98049 19.4331 2.98049 19.0426 3.37102L15.9139 6.4997L17.4997 8.08548ZM14.4997 7.91391L3.37102 19.0426C2.98049 19.4331 2.98049 20.0663 3.37102 20.4568L3.54259 20.6284C3.93312 21.0189 4.56628 21.0189 4.95681 20.6284L16.0855 9.4997L14.4997 7.91391Z" fill="#080809" style="fill:#080809;fill:color(display-p3 0.0314 0.0314 0.0353);fill-opacity:1;"/>
<path d="M20.9656 11.6798C20.7991 11.2578 20.2018 11.2578 20.0353 11.6798L19.4488 13.1671C19.398 13.296 19.296 13.398 19.1671 13.4488L17.6798 14.0353C17.2578 14.2018 17.2578 14.7991 17.6798 14.9656L19.1671 15.5522C19.296 15.603 19.398 15.705 19.4488 15.8339L20.0353 17.3211C20.2018 17.7432 20.7991 17.7432 20.9656 17.3211L21.5522 15.8339C21.603 15.705 21.705 15.603 21.8339 15.5522L23.3211 14.9656C23.7432 14.7991 23.7432 14.2018 23.3211 14.0353L21.8339 13.4488C21.705 13.398 21.603 13.296 21.5522 13.1671L20.9656 11.6798Z" fill="#080809" style="fill:#080809;fill:color(display-p3 0.0314 0.0314 0.0353);fill-opacity:1;"/>
</svg>
