<svg width="24" height="24" viewBox="0 0 24 24" fill="none" xmlns="http://www.w3.org/2000/svg">
<path fill-rule="evenodd" clip-rule="evenodd" d="M12.9158 1C17.3645 1 18.5745 4.12835 17.7664 7.38348C16.9123 10.8238 14.9391 13.25 9.99635 13.25H8.43824C8.07801 13.25 7.77137 13.5028 7.71522 13.846L6.80519 19.4074C6.74929 19.7487 6.44435 20 6.0862 20H1.72585C1.27992 20 0.939471 19.6156 1.00905 19.1906L3.75197 2.43451C3.88381 1.60809 4.57961 1 5.41652 1H12.9158ZM19.7074 7.86445C19.7711 7.60779 19.8176 7.35511 19.8606 7.10352C22.6685 7.6103 23.4107 9.9488 22.8007 12.3746C22.0723 15.2717 20.3892 17.3149 16.1733 17.3149H14.8442C14.5371 17.3149 14.2756 17.5278 14.2277 17.8168L13.4514 22.5C13.4038 22.7874 13.1437 22.9991 12.8383 22.9991H9.11914C8.73877 22.9991 8.44849 22.6754 8.50769 22.3175L9.67932 15.2491H9.99634C15.2236 15.2491 18.491 12.7645 19.7074 7.86445Z" fill="#080809" style="fill:#080809;fill:color(display-p3 0.0314 0.0314 0.0353);fill-opacity:1;"/>
</svg>
