<svg width="24" height="24" viewBox="0 0 24 24" fill="none" xmlns="http://www.w3.org/2000/svg">
<path d="M6 6C6 3.23858 8.23858 1 11 1C13.7614 1 16 3.23858 16 6C16 8.76142 13.7614 11 11 11C8.23858 11 6 8.76142 6 6Z" fill="#080809" style="fill:#080809;fill:color(display-p3 0.0314 0.0314 0.0353);fill-opacity:1;"/>
<path d="M2 19.3333C2 15.8355 4.83553 13 8.33333 13H13.4098C13.8042 13 14.1617 13.2318 14.3227 13.5919C14.4837 13.952 14.4179 14.373 14.1549 14.6669C13.125 15.8176 12.5 17.3346 12.5 19C12.5 19.9263 12.6931 20.8048 13.0404 21.5996C13.1755 21.9088 13.1456 22.2652 12.9608 22.5476C12.7761 22.8299 12.4614 23 12.1241 23H5.66667C3.64162 23 2 21.3584 2 19.3333Z" fill="#080809" style="fill:#080809;fill:color(display-p3 0.0314 0.0314 0.0353);fill-opacity:1;"/>
<path d="M16.018 15C15.962 14.9991 15.9052 15.0028 15.8479 15.0116C15.3021 15.0956 14.9276 15.6062 15.0116 16.1521L16.0116 22.6521C16.0956 23.1979 16.6062 23.5724 17.1521 23.4884C17.6979 23.4044 18.0724 22.8938 17.9884 22.3479L17.6273 20.0007L21.5951 20.0036C22.1527 20.004 22.5157 19.4176 22.2668 18.9187L21.5589 17.5002L22.2663 16.0854C22.5156 15.5867 22.153 15 21.5955 15H16.018Z" fill="#080809" style="fill:#080809;fill:color(display-p3 0.0314 0.0314 0.0353);fill-opacity:1;"/>
</svg>
