<svg width="24" height="24" viewBox="0 0 24 24" fill="none" xmlns="http://www.w3.org/2000/svg">
<path fill-rule="evenodd" clip-rule="evenodd" d="M12 0.495117C9.23858 0.495117 7 2.73369 7 5.49512V9.06698C6.85278 9.08008 6.71109 9.09557 6.57494 9.11387C5.64711 9.23862 4.82769 9.51058 4.17158 10.1667C3.51547 10.8228 3.2435 11.6422 3.11876 12.5701C2.99994 13.4538 2.99997 14.5704 3 15.9245V16.0657C2.99997 17.4198 2.99994 18.5364 3.11876 19.4202C3.2435 20.348 3.51547 21.1674 4.17158 21.8235C4.82769 22.4797 5.64711 22.7516 6.57494 22.8764C7.4587 22.9952 8.57531 22.9952 9.92943 22.9951H14.0706C15.4247 22.9952 16.5413 22.9952 17.4251 22.8764C18.3529 22.7516 19.1723 22.4797 19.8284 21.8235C20.4845 21.1674 20.7565 20.348 20.8813 19.4202C21.0001 18.5364 21 17.4198 21 16.0657V15.9246C21 14.5705 21.0001 13.4538 20.8813 12.5701C20.7565 11.6422 20.4845 10.8228 19.8284 10.1667C19.1723 9.51058 18.3529 9.23862 17.4251 9.11387C17.2889 9.09557 17.1472 9.08008 17 9.06698V5.49512C17 2.73369 14.7614 0.495117 12 0.495117ZM14.1649 8.99512H15V5.49512C15 3.83826 13.6569 2.49512 12 2.49512C10.3431 2.49512 9 3.83826 9 5.49512V8.99512H9.83513C9.86642 8.99512 9.89785 8.99512 9.9294 8.99512H14.0706C14.1021 8.99512 14.1336 8.99512 14.1649 8.99512Z" fill="#080809" style="fill:#080809;fill:color(display-p3 0.0314 0.0314 0.0353);fill-opacity:1;"/>
</svg>
