<svg width="24" height="24" viewBox="0 0 24 24" fill="none" xmlns="http://www.w3.org/2000/svg">
<g clip-path="url(#clip0_29901_28192)">
<path d="M12 21.25C14.2865 21.25 16.3763 20.422 17.991 19.048C18.5167 18.6006 19.3056 18.6641 19.753 19.1899C20.2004 19.7157 20.1369 20.5046 19.6111 20.952C17.5614 22.6962 14.9022 23.75 12 23.75C9.09784 23.75 6.4386 22.6962 4.38885 20.952C3.86309 20.5046 3.79956 19.7157 4.24697 19.1899C4.69437 18.6641 5.48327 18.6006 6.00903 19.048C7.62367 20.422 9.71354 21.25 12 21.25Z" fill="#080809" style="fill:#080809;fill:color(display-p3 0.0314 0.0314 0.0353);fill-opacity:1;"/>
<path d="M20.6393 18.0987C20.0325 17.7695 19.8075 17.0107 20.1367 16.4039C20.8464 15.0957 21.25 13.5969 21.25 12C21.25 6.89137 17.1086 2.75 12 2.75C11.3096 2.75 10.75 2.19036 10.75 1.5C10.75 0.809645 11.3096 0.25 12 0.25C18.4893 0.25 23.75 5.51065 23.75 12C23.75 14.0235 23.2374 15.931 22.3341 17.5961C22.0049 18.2029 21.2461 18.4279 20.6393 18.0987Z" fill="#080809" style="fill:#080809;fill:color(display-p3 0.0314 0.0314 0.0353);fill-opacity:1;"/>
<path d="M3.36072 18.0987C2.75391 18.4279 1.99512 18.2029 1.66591 17.5961C0.76255 15.931 0.25 14.0235 0.25 12C0.25 11.6234 0.267759 11.2506 0.302542 10.8824C0.367477 10.1951 0.97728 9.69061 1.66457 9.75554C2.35187 9.82048 2.85639 10.4303 2.79146 11.1176C2.76405 11.4077 2.75 11.702 2.75 12C2.75 13.5969 3.15359 15.0957 3.86333 16.4039C4.19255 17.0107 3.96752 17.7695 3.36072 18.0987Z" fill="#080809" style="fill:#080809;fill:color(display-p3 0.0314 0.0314 0.0353);fill-opacity:1;"/>
<path d="M2.16852 8.09872C1.56172 7.7695 1.33669 7.01071 1.66591 6.40391C1.9872 5.81171 2.35777 5.25044 2.77204 4.72557C3.19974 4.18367 3.98577 4.09109 4.52767 4.5188C5.06957 4.94651 5.16214 5.73253 4.73444 6.27443C4.40793 6.68811 4.11613 7.13014 3.86333 7.5961C3.53412 8.2029 2.77533 8.42793 2.16852 8.09872Z" fill="#080809" style="fill:#080809;fill:color(display-p3 0.0314 0.0314 0.0353);fill-opacity:1;"/>
<path d="M5.90129 3.36072C5.57207 2.75391 5.7971 1.99512 6.4039 1.66591C6.76596 1.46948 7.13958 1.29147 7.52349 1.13316C8.16172 0.869995 8.89244 1.17404 9.15561 1.81227C9.41878 2.4505 9.11473 3.18122 8.47651 3.44439C8.17476 3.56881 7.88095 3.70879 7.5961 3.86333C6.98929 4.19255 6.2305 3.96752 5.90129 3.36072Z" fill="#080809" style="fill:#080809;fill:color(display-p3 0.0314 0.0314 0.0353);fill-opacity:1;"/>
<path d="M5.75 12C5.75 11.3096 6.30964 10.75 7 10.75H10.75V7C10.75 6.30964 11.3096 5.75 12 5.75C12.6904 5.75 13.25 6.30964 13.25 7V10.75H17C17.6904 10.75 18.25 11.3096 18.25 12C18.25 12.6904 17.6904 13.25 17 13.25H13.25V17C13.25 17.6904 12.6904 18.25 12 18.25C11.3096 18.25 10.75 17.6904 10.75 17V13.25H7C6.30964 13.25 5.75 12.6904 5.75 12Z" fill="#080809" style="fill:#080809;fill:color(display-p3 0.0314 0.0314 0.0353);fill-opacity:1;"/>
</g>
<defs>
<clipPath id="clip0_29901_28192">
<rect width="24" height="24" fill="white" style="fill:white;fill-opacity:1;"/>
</clipPath>
</defs>
</svg>
