<svg width="24" height="24" viewBox="0 0 24 24" fill="none" xmlns="http://www.w3.org/2000/svg">
<path d="M11 6.5C11 5.94772 11.4477 5.5 12 5.5H18C18.5523 5.5 19 5.94772 19 6.5C19 7.05229 18.5523 7.5 18 7.5H12C11.4477 7.5 11 7.05229 11 6.5Z" fill="#080809" style="fill:#080809;fill:color(display-p3 0.0314 0.0314 0.0353);fill-opacity:1;"/>
<path d="M7 8.5C8.10457 8.5 9 7.60457 9 6.5C9 5.39543 8.10457 4.5 7 4.5C5.89543 4.5 5 5.39543 5 6.5C5 7.60457 5.89543 8.5 7 8.5Z" fill="#080809" style="fill:#080809;fill:color(display-p3 0.0314 0.0314 0.0353);fill-opacity:1;"/>
<path fill-rule="evenodd" clip-rule="evenodd" d="M9.92684 1H14.0732C15.8966 0.999974 17.3664 0.999952 18.5223 1.15537C19.7225 1.31672 20.733 1.66191 21.5355 2.46447C22.3381 3.26702 22.6833 4.27752 22.8446 5.47767C23.0001 6.63363 23 8.1034 23 9.92686V12.0731C23 13.8966 23.0001 15.3664 22.8446 16.5223C22.6833 17.7225 22.3381 18.733 21.5355 19.5355C20.8841 20.187 20.0922 20.5398 19.1659 20.7351C18.8526 20.8012 18.5265 20.7132 18.289 20.4985C18.0514 20.2837 17.9311 19.9682 17.9653 19.6498C17.9882 19.4367 18 19.2199 18 19C18 15.6863 15.3137 13 12 13C8.68629 13 6 15.6863 6 19C6 19.2199 6.01179 19.4367 6.0347 19.6498C6.06892 19.9682 5.94858 20.2837 5.71103 20.4985C5.47348 20.7132 5.14744 20.8012 4.8341 20.7351C3.90779 20.5398 3.11595 20.187 2.46447 19.5355C1.66191 18.733 1.31672 17.7225 1.15537 16.5223C0.999952 15.3664 0.999974 13.8966 1 12.0732V9.92684C0.999974 8.10339 0.999952 6.63362 1.15537 5.47767C1.31672 4.27752 1.66191 3.26702 2.46447 2.46447C3.26702 1.66191 4.27752 1.31672 5.47767 1.15537C6.63362 0.999952 8.10339 0.999974 9.92684 1ZM5.74416 3.13753C4.7658 3.26907 4.2477 3.50966 3.87868 3.87868C3.50966 4.2477 3.26907 4.7658 3.13753 5.74416C3.00213 6.7513 3 8.08611 3 10L21 10C21 8.08611 20.9979 6.7513 20.8625 5.74416C20.7309 4.7658 20.4903 4.2477 20.1213 3.87868C19.7523 3.50966 19.2342 3.26907 18.2558 3.13753C17.2487 3.00213 15.9139 3 14 3H10C8.08611 3 6.7513 3.00213 5.74416 3.13753Z" fill="#080809" style="fill:#080809;fill:color(display-p3 0.0314 0.0314 0.0353);fill-opacity:1;"/>
<path fill-rule="evenodd" clip-rule="evenodd" d="M16.5 19C16.5 21.4853 14.4853 23.5 12 23.5C9.51472 23.5 7.5 21.4853 7.5 19C7.5 16.5147 9.51472 14.5 12 14.5C14.4853 14.5 16.5 16.5147 16.5 19ZM12 16.5C12.4142 16.5 12.75 16.8358 12.75 17.25V18.6893L13.7803 19.7197C14.0732 20.0126 14.0732 20.4874 13.7803 20.7803C13.4874 21.0732 13.0126 21.0732 12.7197 20.7803L11.4697 19.5303C11.329 19.3897 11.25 19.1989 11.25 19V17.25C11.25 16.8358 11.5858 16.5 12 16.5Z" fill="#080809" style="fill:#080809;fill:color(display-p3 0.0314 0.0314 0.0353);fill-opacity:1;"/>
</svg>
