<svg width="24" height="24" viewBox="0 0 24 24" fill="none" xmlns="http://www.w3.org/2000/svg">
<path d="M15.0852 0.250002H12.9148C11.5733 0.249949 10.4422 0.249904 9.54162 0.370986C8.58607 0.499457 7.70509 0.784499 6.99479 1.4948C5.96896 2.52063 5.81413 3.92765 5.76789 5.46236C5.7471 6.1524 6.28963 6.72865 6.97968 6.74944C7.66972 6.77023 8.24596 6.22769 8.26675 5.53765C8.31412 3.96546 8.50578 3.51934 8.76256 3.26257C8.93094 3.09419 9.19641 2.93989 9.87474 2.84869C10.589 2.75266 11.5504 2.75 13 2.75H15C16.4495 2.75 17.411 2.75266 18.1253 2.84869C18.8036 2.93989 19.0691 3.09419 19.2374 3.26257C19.4058 3.43095 19.5601 3.69642 19.6513 4.37475C19.7473 5.08904 19.75 6.05045 19.75 7.5V16.5C19.75 17.9496 19.7473 18.911 19.6513 19.6253C19.5601 20.3036 19.4058 20.5691 19.2374 20.7374C19.0691 20.9058 18.8036 21.0601 18.1253 21.1513C17.411 21.2473 16.4495 21.25 15 21.25H13C11.5504 21.25 10.589 21.2473 9.87474 21.1513C9.19641 21.0601 8.93094 20.9058 8.76256 20.7374C8.50579 20.4807 8.31412 20.0345 8.26675 18.4624C8.24596 17.7723 7.66972 17.2298 6.97968 17.2506C6.28963 17.2714 5.7471 17.8476 5.76789 18.5377C5.81413 20.0724 5.96896 21.4794 6.99479 22.5052C7.70509 23.2155 8.58607 23.5006 9.54162 23.629C10.4422 23.7501 11.5732 23.7501 12.9147 23.75H15.0852C16.4267 23.7501 17.5578 23.7501 18.4584 23.629C19.4139 23.5006 20.2949 23.2155 21.0052 22.5052C21.7155 21.7949 22.0005 20.9139 22.129 19.9584C22.2501 19.0578 22.2501 17.9267 22.25 16.5852V7.41484C22.2501 6.07334 22.2501 4.94222 22.129 4.04163C22.0005 3.08608 21.7155 2.2051 21.0052 1.4948C20.2949 0.7845 19.4139 0.499457 18.4584 0.370986C17.5578 0.249904 16.4267 0.249949 15.0852 0.250002Z" fill="#080809" style="fill:#080809;fill:color(display-p3 0.0314 0.0314 0.0353);fill-opacity:1;"/>
<path d="M0.75 12C0.75 12.6904 1.30964 13.25 2 13.25L6.98386 13.25C6.69128 13.5417 6.39937 13.8329 6.11611 14.1161C5.62796 14.6043 5.62796 15.3957 6.11612 15.8839C6.60428 16.372 7.39573 16.372 7.88389 15.8839C8.22327 15.5445 8.5522 15.2166 8.88188 14.8879L8.88355 14.8862C9.19546 14.5753 9.50806 14.2636 9.83086 13.9409C10.9047 12.8674 10.8992 11.1306 9.82935 10.0608L7.88389 8.11612C7.39573 7.62796 6.60428 7.62796 6.11612 8.11611C5.62796 8.60427 5.62796 9.39572 6.11611 9.88388L6.98257 10.75L2 10.75C1.30964 10.75 0.75 11.3096 0.75 12Z" fill="#080809" style="fill:#080809;fill:color(display-p3 0.0314 0.0314 0.0353);fill-opacity:1;"/>
</svg>
