<svg width="24" height="24" viewBox="0 0 24 24" fill="none" xmlns="http://www.w3.org/2000/svg">
<path fill-rule="evenodd" clip-rule="evenodd" d="M14.8048 2.06636C14.9803 1.60499 15.4667 1.34093 15.9493 1.44429C19.9307 2.30104 22.9602 4.10985 23.0147 4.14253C23.4092 4.37931 23.5875 4.85153 23.4581 5.28511L23.4288 5.37105L21.4288 10.371C21.2236 10.8835 20.6416 11.1335 20.129 10.9287L19.0001 10.4775V22C19 22.5522 18.5523 23 18.0001 23H6.00008C5.44814 22.9996 5.00016 22.552 5.00008 22V10.4775L3.87118 10.9287C3.35862 11.1331 2.77636 10.8835 2.57137 10.371L0.571373 5.37105C0.389476 4.91568 0.565192 4.39512 0.985435 4.14253C1.02206 4.12056 4.05825 2.3036 8.05184 1.44429C8.53457 1.3406 9.0207 1.60491 9.19637 2.06636C9.6273 3.19846 10.7215 3.99968 12.0001 3.99995C13.2793 3.99995 14.3739 3.19828 14.8048 2.06636ZM13.7501 9.25093C13.0301 9.23738 12.5142 9.55724 12.0001 10.3339C11.4859 9.55702 10.9702 9.23828 10.2501 9.25191C9.35549 9.269 8.48326 9.96483 8.50106 11.1357C8.52527 12.8079 10.2673 14.2189 11.8067 15.1367C11.9259 15.2077 12.0743 15.2077 12.1934 15.1367C13.733 14.2189 15.4759 12.808 15.5001 11.1357C15.5179 9.96485 14.6448 9.26788 13.7501 9.25093Z" fill="#080809" style="fill:#080809;fill:color(display-p3 0.0314 0.0314 0.0353);fill-opacity:1;"/>
</svg>
