<svg width="24" height="24" viewBox="0 0 24 24" fill="none" xmlns="http://www.w3.org/2000/svg">
<path d="M12 0.5C12.8277 0.5 13.6357 0.588237 14.415 0.754883C14.9551 0.87036 15.2991 1.40134 15.1836 1.94141C15.0681 2.48147 14.5371 2.82542 13.9971 2.70996C13.3538 2.57242 12.6858 2.5 12 2.5C6.75329 2.5 2.5 6.75329 2.5 12C2.5 13.5898 2.89027 15.0856 3.5791 16.4004C3.86644 16.9488 3.98362 17.6149 3.8125 18.2754L3.14355 20.8555L5.72266 20.1865C6.38349 20.015 7.05084 20.1323 7.59961 20.4199C8.91452 21.109 10.4101 21.5 12 21.5C17.2467 21.5 21.5 17.2467 21.5 12C21.5 11.3157 21.4286 10.6496 21.292 10.0088C21.1769 9.46883 21.5207 8.93767 22.0605 8.82227C22.6005 8.70714 23.1317 9.05099 23.2471 9.59082C23.4129 10.3688 23.5 11.1752 23.5 12C23.5 18.3513 18.3513 23.5 12 23.5C10.0782 23.5 8.26475 23.0267 6.6709 22.1914C6.5047 22.1043 6.34621 22.0918 6.22559 22.123L2.82422 23.0049C1.71693 23.292 0.708044 22.2831 0.995117 21.1758L1.87695 17.7734C1.90805 17.6529 1.89463 17.4942 1.80762 17.3281C0.972712 15.7344 0.5 13.9212 0.5 12C0.5 5.64873 5.64873 0.5 12 0.5Z" fill="#080809" style="fill:#080809;fill:color(display-p3 0.0314 0.0314 0.0353);fill-opacity:1;"/>
<path d="M7.81934 6.36426C8.01427 6.36426 8.21471 6.3639 8.38965 6.37891C8.56955 6.38877 8.81397 6.31008 9.05371 6.87988C9.29854 7.46491 9.8883 8.89835 9.96387 9.04492C10.0388 9.18998 10.0882 9.36058 9.98828 9.55566C9.8884 9.7506 9.84325 9.87102 9.69336 10.041C9.54355 10.211 9.38386 10.4208 9.24902 10.5508C9.09907 10.6958 8.9492 10.8564 9.11914 11.1465C9.28929 11.4369 9.87935 12.3919 10.7588 13.167C11.8883 14.1573 12.8379 14.4672 13.1328 14.6123C13.4276 14.7573 13.6026 14.7329 13.7725 14.5381C13.9423 14.3431 14.5119 13.6829 14.707 13.3926C14.907 13.1025 15.1022 13.152 15.3721 13.2471C15.6423 13.3473 17.0919 14.0522 17.3867 14.1973C17.6815 14.3422 17.8811 14.4181 17.9561 14.5381C18.0308 14.6589 18.0307 15.2433 17.7861 15.9229C17.5362 16.603 16.3569 17.2234 15.792 17.3086C15.2822 17.3836 14.6374 17.4134 13.9326 17.1934C13.5028 17.0583 12.9528 16.8782 12.248 16.5781C9.28557 15.3183 7.35679 12.3746 7.20508 12.1768C7.06013 11.9817 6 10.5957 6 9.16016C6.00009 7.72521 6.76405 7.01977 7.03418 6.72949C7.30406 6.43941 7.62439 6.36428 7.81934 6.36426Z" fill="#080809" style="fill:#080809;fill:color(display-p3 0.0314 0.0314 0.0353);fill-opacity:1;"/>
<path d="M20 0.5C20.5523 0.5 21 0.947715 21 1.5V3H22.5C23.0523 3 23.5 3.44772 23.5 4C23.5 4.55228 23.0523 5 22.5 5H21V6.5C21 7.05228 20.5523 7.5 20 7.5C19.4477 7.5 19 7.05228 19 6.5V5H17.5C16.9477 5 16.5 4.55228 16.5 4C16.5 3.44772 16.9477 3 17.5 3H19V1.5C19 0.947715 19.4477 0.5 20 0.5Z" fill="#080809" style="fill:#080809;fill:color(display-p3 0.0314 0.0314 0.0353);fill-opacity:1;"/>
</svg>
