<svg width="24" height="24" viewBox="0 0 24 24" fill="none" xmlns="http://www.w3.org/2000/svg">
<path fill-rule="evenodd" clip-rule="evenodd" d="M10.999 0.5C9.61831 0.5 8.49902 1.61929 8.49902 3V3.81449C8.49902 5.0965 8.20054 6.3609 7.62721 7.50757L6.73803 9.28591C6.62168 9.51861 6.51869 9.75703 6.42932 10H3C1.61929 10 0.5 11.1193 0.5 12.5V20.5C0.5 21.8807 1.61929 23 3 23L6.99902 23C6.99968 23 7.00132 23 7.00197 23H13.4582L13.5 23.0002H17.75C19.5287 23.0002 20.9975 21.6734 21.2207 19.9555C22.0005 19.3146 22.5 18.3412 22.5 17.2502C22.5 17.0763 22.4872 16.905 22.4625 16.7372C23.1022 16.1037 23.5 15.2236 23.5 14.2502C23.5 13.6479 23.3472 13.0799 23.0785 12.5842C23.1899 12.2422 23.25 11.8775 23.25 11.5C23.25 9.567 21.683 8 19.75 8H14.999V4.5C14.999 2.29086 13.2082 0.5 10.999 0.5ZM8 21H13.4785L13.5 21.0002H17.75C18.5784 21.0002 19.25 20.3287 19.25 19.5002C19.25 19.4833 19.2497 19.4663 19.2492 19.4495C19.237 19.0807 19.429 18.7352 19.7484 18.5507C20.1999 18.2899 20.5 17.8045 20.5 17.2502C20.5 17.0609 20.4654 16.8819 20.403 16.7177C20.2344 16.2739 20.4011 15.7727 20.802 15.5182C21.2237 15.2506 21.5 14.7823 21.5 14.2502C21.5 13.8943 21.3773 13.5697 21.171 13.3126C20.9193 12.999 20.88 12.5652 21.0711 12.2114C21.185 12.0007 21.25 11.7594 21.25 11.5C21.25 10.6716 20.5784 10 19.75 10L14.4902 10C13.6671 10 12.999 9.33273 12.999 8.50961V4.5C12.999 3.39543 12.1036 2.5 10.999 2.5C10.7229 2.5 10.499 2.72386 10.499 3V3.81449C10.499 5.40699 10.1282 6.97762 9.41606 8.40199L8.52689 10.1803C8.19449 10.8451 8.01467 11.5753 8 12.3176V21ZM6 12.2995C5.99935 12.3384 5.99902 12.3774 5.99902 12.4164V21H3C2.72386 21 2.5 20.7761 2.5 20.5V12.5C2.5 12.2239 2.72386 12 3 12H6V12.2995Z" fill="#080809" style="fill:#080809;fill:color(display-p3 0.0314 0.0314 0.0353);fill-opacity:1;"/>
</svg>
