<svg width="24" height="24" viewBox="0 0 24 24" fill="none" xmlns="http://www.w3.org/2000/svg">
<path d="M4.0246 8.36798C4.34682 4.24514 7.79443 1 12 1C15.2624 1 18.0687 2.95279 19.3137 5.75325C18.1381 5.26787 16.8498 5 15.5 5C14.1225 5 12.8076 5.27909 11.6108 5.78475C10.6846 6.1761 9.83011 6.70267 9.07205 7.33935C8.64913 7.69455 8.59424 8.32533 8.94944 8.74824C9.30463 9.17115 9.93541 9.22605 10.3583 8.87085C10.9656 8.36081 11.6493 7.9397 12.3892 7.62707C13.3442 7.22359 14.3947 7 15.5 7C17.1592 7 18.6983 7.5041 19.9754 8.36785C19.9754 8.36789 19.9754 8.3678 19.9754 8.36785C22.102 9.80572 23.5 12.2397 23.5 15C23.5 19.4183 19.9183 23 15.5 23C15.1858 23 14.8759 22.9819 14.5711 22.9466C16.6304 21.3712 18.0598 19.013 18.4144 16.3136C18.4709 15.8833 18.5 15.4448 18.5 15C18.5 14.4281 18.4519 13.8666 18.3593 13.3197C18.2671 12.7752 17.7509 12.4085 17.2064 12.5007C16.6618 12.5929 16.2951 13.109 16.3873 13.6536C16.4614 14.0907 16.5 14.5404 16.5 15C16.5 15.3575 16.4766 15.709 16.4314 16.0532C16.0759 18.7595 14.3651 21.0433 12.0003 22.1959C12.0002 22.1958 12.0004 22.1959 12.0003 22.1959C10.9431 22.7111 9.75516 23 8.5 23C4.08172 23 0.5 19.4183 0.5 15C0.5 13.2135 1.08556 11.5638 2.07523 10.2324C2.41362 12.9845 3.87047 15.3906 5.974 16.9811C6.76772 17.5812 7.65435 18.066 8.6089 18.4101C9.12847 18.5973 9.70147 18.328 9.88874 17.8084C10.076 17.2888 9.80661 16.7158 9.28705 16.5286C8.52483 16.2538 7.81581 15.8663 7.18022 15.3858C5.24645 13.9236 4 11.6075 4 9C4 8.78713 4.00834 8.57633 4.0246 8.36798C4.02462 8.36797 4.02458 8.36799 4.0246 8.36798Z" fill="#080809" style="fill:#080809;fill:color(display-p3 0.0314 0.0314 0.0353);fill-opacity:1;"/>
</svg>
