<svg width="24" height="24" viewBox="0 0 24 24" fill="none" xmlns="http://www.w3.org/2000/svg">
<path fill-rule="evenodd" clip-rule="evenodd" d="M12.9294 0.500001H15.0706C16.4247 0.499968 17.5413 0.499941 18.4251 0.618757C19.3529 0.743501 20.1723 1.01547 20.8284 1.67158C21.4845 2.32769 21.7565 3.14711 21.8813 4.07494C22.0001 4.9587 22 6.07531 22 7.42943V13.0706C22 14.4247 22.0001 15.5413 21.8813 16.4251C21.7565 17.3529 21.4845 18.1723 20.8284 18.8284C20.1723 19.4845 19.3529 19.7565 18.4251 19.8813C17.5413 20.0001 16.4247 20 15.0707 20H12.9295C11.5754 20 10.4587 20.0001 9.57494 19.8813C8.64711 19.7565 7.82769 19.4845 7.17158 18.8284C6.51547 18.1723 6.2435 17.3529 6.11876 16.4251C5.99994 15.5413 5.99997 14.4247 6 13.0706L6 7.42943C5.99997 6.07531 5.99994 4.9587 6.11876 4.07494C6.2435 3.14711 6.51547 2.32769 7.17158 1.67158C7.82769 1.01547 8.64711 0.7435 9.57494 0.618757C10.4587 0.499941 11.5753 0.499968 12.9294 0.500001ZM12.9961 7.13176C12.6866 6.9549 12.3064 6.95617 11.9981 7.13509C11.6898 7.31401 11.5 7.64353 11.5 8V12C11.5 12.3565 11.6898 12.686 11.9981 12.8649C12.3064 13.0438 12.6866 13.0451 12.9961 12.8682L16.4961 10.8682C16.8077 10.6902 17 10.3589 17 10C17 9.64114 16.8077 9.3098 16.4961 9.13176L12.9961 7.13176Z" fill="#080809" style="fill:#080809;fill:color(display-p3 0.0314 0.0314 0.0353);fill-opacity:1;"/>
<path d="M4.50001 7C4.50001 6.44772 4.05229 6 3.50001 6C2.94772 6 2.50001 6.44772 2.50001 7L2.5 16.5706C2.49997 17.9247 2.49994 19.0413 2.61876 19.9251C2.7435 20.8529 3.01547 21.6723 3.67158 22.3284C4.32769 22.9845 5.14711 23.2565 6.07494 23.3813C6.95868 23.5001 8.07527 23.5 9.42935 23.5H16C16.5523 23.5 17 23.0523 17 22.5C17 21.9477 16.5523 21.5 16 21.5H9.5C8.05752 21.5 7.07626 21.4979 6.34144 21.3991C5.63538 21.3042 5.30836 21.1368 5.08579 20.9142C4.86322 20.6916 4.69585 20.3646 4.60092 19.6586C4.50213 18.9238 4.5 17.9425 4.5 16.5L4.50001 7Z" fill="#080809" style="fill:#080809;fill:color(display-p3 0.0314 0.0314 0.0353);fill-opacity:1;"/>
</svg>
