<svg width="24" height="24" viewBox="0 0 24 24" fill="none" xmlns="http://www.w3.org/2000/svg">
<path fill-rule="evenodd" clip-rule="evenodd" d="M7 10C5.89543 10 5 10.8954 5 12V17C5 18.1046 5.89543 19 7 19H17C18.1046 19 19 18.1046 19 17V10C19 8.89543 18.1046 8 17 8H15V7C15 5.89543 14.1046 5 13 5H11C9.89543 5 9 5.89543 9 7V10H7ZM15 10V17H17V10H15ZM13 7H11V17H13V7ZM9 12V17H7V12H9Z" fill="#080809" style="fill:#080809;fill:color(display-p3 0.0314 0.0314 0.0353);fill-opacity:1;"/>
<path fill-rule="evenodd" clip-rule="evenodd" d="M14.0732 1H9.92684C8.10339 0.999974 6.63362 0.999952 5.47767 1.15537C4.27752 1.31672 3.26702 1.66191 2.46447 2.46447C1.66191 3.26702 1.31672 4.27752 1.15537 5.47767C0.999952 6.63362 0.999974 8.10337 1 9.92682V14.0732C0.999974 15.8966 0.999952 17.3664 1.15537 18.5223C1.31672 19.7225 1.66191 20.733 2.46447 21.5355C3.26702 22.3381 4.27752 22.6833 5.47767 22.8446C6.63363 23.0001 8.1034 23 9.92686 23H14.0731C15.8966 23 17.3664 23.0001 18.5223 22.8446C19.7225 22.6833 20.733 22.3381 21.5355 21.5355C22.3381 20.733 22.6833 19.7225 22.8446 18.5223C23.0001 17.3664 23 15.8966 23 14.0731V9.92686C23 8.1034 23.0001 6.63363 22.8446 5.47767C22.6833 4.27752 22.3381 3.26702 21.5355 2.46447C20.733 1.66191 19.7225 1.31672 18.5223 1.15537C17.3664 0.999952 15.8966 0.999974 14.0732 1ZM3.87868 3.87868C4.2477 3.50966 4.7658 3.26907 5.74416 3.13753C6.7513 3.00213 8.08611 3 10 3H14C15.9139 3 17.2487 3.00213 18.2558 3.13753C19.2342 3.26907 19.7523 3.50966 20.1213 3.87868C20.4903 4.2477 20.7309 4.7658 20.8625 5.74416C20.9979 6.7513 21 8.08611 21 10V14C21 15.9139 20.9979 17.2487 20.8625 18.2558C20.7309 19.2342 20.4903 19.7523 20.1213 20.1213C19.7523 20.4903 19.2342 20.7309 18.2558 20.8625C17.2487 20.9979 15.9139 21 14 21H10C8.08611 21 6.7513 20.9979 5.74416 20.8625C4.76579 20.7309 4.2477 20.4903 3.87868 20.1213C3.50966 19.7523 3.26907 19.2342 3.13753 18.2558C3.00213 17.2487 3 15.9139 3 14V10C3 8.08611 3.00213 6.7513 3.13753 5.74416C3.26907 4.76579 3.50966 4.2477 3.87868 3.87868Z" fill="#080809" style="fill:#080809;fill:color(display-p3 0.0314 0.0314 0.0353);fill-opacity:1;"/>
</svg>
