<svg width="24" height="24" viewBox="0 0 24 24" fill="none" xmlns="http://www.w3.org/2000/svg">
<path fill-rule="evenodd" clip-rule="evenodd" d="M12 0.5C10.3431 0.5 9 1.84315 9 3.5C9 4.23733 9.266 4.91254 9.70727 5.43489L4.06859 15.0538C3.88449 15.0185 3.6944 15 3.5 15C1.84315 15 0.5 16.3431 0.5 18C0.5 19.6569 1.84315 21 3.5 21C4.80607 21 5.91721 20.1654 6.32915 19.0004H17.6708C18.0828 20.1654 19.1939 21 20.5 21C22.1569 21 23.5 19.6569 23.5 18C23.5 16.3431 22.1569 15 20.5 15C20.3059 15 20.1161 15.0184 19.9322 15.0537L14.2932 5.43428C14.7342 4.91201 15 4.23704 15 3.5C15 1.84315 13.6569 0.5 12 0.5ZM11 3.5C11 2.94772 11.4477 2.5 12 2.5C12.5523 2.5 13 2.94772 13 3.5C13 4.05228 12.5523 4.5 12 4.5C11.4477 4.5 11 4.05228 11 3.5ZM18.207 16.0654L12.5682 6.44627C12.3842 6.48154 12.1943 6.5 12 6.5C11.806 6.5 11.6163 6.48159 11.4326 6.44642L5.79352 16.066C6.02466 16.3399 6.20765 16.6557 6.32943 17.0004H17.6706C17.7924 16.6554 17.9756 16.3394 18.207 16.0654ZM2.5 18C2.5 17.4477 2.94772 17 3.5 17C4.05228 17 4.5 17.4477 4.5 18C4.5 18.5523 4.05228 19 3.5 19C2.94772 19 2.5 18.5523 2.5 18ZM19.5 18C19.5 17.4477 19.9477 17 20.5 17C21.0523 17 21.5 17.4477 21.5 18C21.5 18.5523 21.0523 19 20.5 19C19.9477 19 19.5 18.5523 19.5 18Z" fill="#080809" style="fill:#080809;fill:color(display-p3 0.0314 0.0314 0.0353);fill-opacity:1;"/>
</svg>
