<svg width="24" height="24" viewBox="0 0 24 24" fill="none" xmlns="http://www.w3.org/2000/svg">
<path fill-rule="evenodd" clip-rule="evenodd" d="M13 0.500001C14.3858 0.500001 15.5258 0.498294 16.4248 0.619142C17.3526 0.743885 18.172 1.01577 18.8281 1.67188L18.9473 1.79688C19.518 2.43085 19.7639 3.20551 19.8809 4.0752C20.0017 4.97423 20 6.11416 20 7.5V16.5C20 17.8858 20.0017 19.0258 19.8809 19.9248C19.7639 20.7945 19.518 21.5692 18.9473 22.2031L18.8281 22.3281C18.172 22.9842 17.3526 23.2561 16.4248 23.3809C15.5258 23.5017 14.3858 23.5 13 23.5H11C9.61416 23.5 8.47423 23.5017 7.5752 23.3809C6.70551 23.2639 5.93085 23.018 5.29688 22.4473L5.17188 22.3281C4.51577 21.672 4.24389 20.8526 4.11914 19.9248C3.99829 19.0258 4 17.8858 4 16.5V7.5C4 6.11416 3.99829 4.97423 4.11914 4.0752C4.24389 3.14737 4.51577 2.32798 5.17188 1.67188L5.29688 1.55274C5.93085 0.982002 6.70551 0.736068 7.5752 0.619142C8.47423 0.498294 9.61416 0.500001 11 0.500001H13ZM13 13V21.5C14.4422 21.5 15.4234 21.4982 16.1582 21.3994C16.8643 21.3045 17.1915 21.1366 17.4141 20.9141L17.4951 20.8252C17.6775 20.6038 17.8164 20.2759 17.8994 19.6582C17.9982 18.9234 18 17.9422 18 16.5V13H13ZM6 16.5C6 17.9422 6.00185 18.9234 6.10059 19.6582C6.19551 20.3643 6.36337 20.6915 6.58594 20.9141L6.67481 20.9951C6.89616 21.1775 7.2241 21.3164 7.8418 21.3994C8.39279 21.4735 9.08236 21.4929 10.001 21.498L11 21.5V13H6V16.5ZM13 11H18V7.5C18 6.05778 17.9982 5.07657 17.8994 4.3418C17.8164 3.7241 17.6775 3.39616 17.4951 3.17481L17.4141 3.08594C17.1915 2.86337 16.8643 2.69551 16.1582 2.60059C15.4234 2.50185 14.4422 2.5 13 2.5V11ZM10.001 2.50195C9.08236 2.50711 8.39279 2.52654 7.8418 2.60059C7.2241 2.68364 6.89616 2.82249 6.67481 3.00488L6.58594 3.08594C6.36337 3.30851 6.19551 3.63575 6.10059 4.3418C6.00185 5.07657 6 6.05778 6 7.5V11H11V2.5L10.001 2.50195Z" fill="#080809" style="fill:#080809;fill:color(display-p3 0.0314 0.0314 0.0353);fill-opacity:1;"/>
</svg>
