<svg width="24" height="24" viewBox="0 0 24 24" fill="none" xmlns="http://www.w3.org/2000/svg">
<path d="M13.8014 5.36575C13.8013 4.98042 14.1136 4.66797 14.4989 4.66797C15.1731 4.66797 15.7196 5.21451 15.7196 5.88871V7.6352C15.7196 7.69094 15.7648 7.73613 15.8206 7.73613H17.6161C18.6081 7.73613 19.3393 8.66356 19.1078 9.62823L18.6506 11.5331C18.4023 12.5677 17.4771 13.2972 16.4131 13.2972H13.4185C13.1008 13.2972 12.8433 13.0396 12.8433 12.7219V9.23815C12.8433 8.82137 12.9403 8.41032 13.1267 8.03754L13.4123 7.46634C13.6686 6.95375 13.8019 6.38849 13.8016 5.8154L13.8014 5.36575Z" fill="#080809" style="fill:#080809;fill:color(display-p3 0.0314 0.0314 0.0353);fill-opacity:1;"/>
<path d="M10.8666 8.5C10.443 8.5 10.0996 8.84342 10.0996 9.26704V12.527C10.0996 12.9506 10.443 13.294 10.8666 13.294H11.6337C11.8455 13.294 12.0172 13.1223 12.0172 12.9105V8.88352C12.0172 8.67171 11.8455 8.5 11.6337 8.5H10.8666Z" fill="#080809" style="fill:#080809;fill:color(display-p3 0.0314 0.0314 0.0353);fill-opacity:1;"/>
<path fill-rule="evenodd" clip-rule="evenodd" d="M5.50098 9.5C5.50098 4.52944 9.53041 0.5 14.501 0.5C19.4715 0.5 23.501 4.52944 23.501 9.5C23.501 14.4706 19.4715 18.5 14.501 18.5C9.53041 18.5 5.50098 14.4706 5.50098 9.5ZM14.501 2.5C10.635 2.5 7.50098 5.63401 7.50098 9.5C7.50098 13.366 10.635 16.5 14.501 16.5C18.367 16.5 21.501 13.366 21.501 9.5C21.501 5.63401 18.367 2.5 14.501 2.5Z" fill="#080809" style="fill:#080809;fill:color(display-p3 0.0314 0.0314 0.0353);fill-opacity:1;"/>
<path d="M3.59024 9.01694C4.03829 9.33986 4.13972 9.96484 3.81681 10.4129C2.98802 11.5628 2.5 12.9733 2.5 14.5006C2.5 18.3666 5.63401 21.5006 9.5 21.5006C11.0269 21.5006 12.4369 21.0129 13.5866 20.1846C14.0347 19.8618 14.6597 19.9634 14.9825 20.4115C15.3054 20.8596 15.2038 21.4845 14.7557 21.8074C13.2768 22.8728 11.4603 23.5006 9.5 23.5006C4.52944 23.5006 0.5 19.4712 0.5 14.5006C0.5 12.5397 1.12826 10.7226 2.19429 9.24351C2.51721 8.79547 3.14219 8.69403 3.59024 9.01694Z" fill="#080809" style="fill:#080809;fill:color(display-p3 0.0314 0.0314 0.0353);fill-opacity:1;"/>
</svg>
