<svg width="24" height="24" viewBox="0 0 24 24" fill="none" xmlns="http://www.w3.org/2000/svg">
<path d="M7.88366 3.88388L6.01754 5.75H20C20.6904 5.75 21.25 6.30964 21.25 7C21.25 7.69036 20.6904 8.25 20 8.25H6.01754L7.88366 10.1161C8.37181 10.6043 8.37181 11.3957 7.88366 11.8839C7.3955 12.372 6.60405 12.372 6.11589 11.8839L3.17655 8.94454C2.10261 7.8706 2.10261 6.1294 3.17655 5.05546L6.11589 2.11612C6.60405 1.62796 7.3955 1.62796 7.88366 2.11612C8.37181 2.60427 8.37181 3.39573 7.88366 3.88388Z" fill="#080809" style="fill:#080809;fill:color(display-p3 0.0314 0.0314 0.0353);fill-opacity:1;"/>
<path d="M17.9825 18.25L16.1163 20.1161C15.6282 20.6043 15.6282 21.3957 16.1163 21.8839C16.6045 22.372 17.396 22.372 17.8841 21.8839L20.8235 18.9445C21.8974 17.8706 21.8974 16.1294 20.8235 15.0555L17.8841 12.1161C17.396 11.628 16.6045 11.628 16.1163 12.1161C15.6282 12.6043 15.6282 13.3957 16.1163 13.8839L17.9825 15.75H4C3.30964 15.75 2.75 16.3096 2.75 17C2.75 17.6904 3.30964 18.25 4 18.25H17.9825Z" fill="#080809" style="fill:#080809;fill:color(display-p3 0.0314 0.0314 0.0353);fill-opacity:1;"/>
</svg>
