<svg width="24" height="24" viewBox="0 0 24 24" fill="none" xmlns="http://www.w3.org/2000/svg">
<g clip-path="url(#clip0_29901_28252)">
<path d="M5.98331 19.3878C9.71426 22.4121 15.2034 22.1887 18.6745 18.7175C22.3845 15.0075 22.3845 8.99246 18.6745 5.28248C15.7059 2.3138 11.2612 1.72062 7.7027 3.50296L6.22613 2.0264C10.6215 -0.502833 16.3316 0.111125 20.0888 3.86827C24.5798 8.3593 24.5798 15.6407 20.0888 20.1317C15.5977 24.6228 8.31633 24.6228 3.8253 20.1317C3.58706 19.8935 3.36145 19.6474 3.14848 19.3943L10.5427 12L4.56911 6.02645C2.19076 8.96062 1.82105 12.9821 3.45999 16.2543L1.98343 17.7309C-0.545802 13.3355 0.0681565 7.62542 3.8253 3.86827C4.06355 3.63003 4.30965 3.40442 4.56276 3.19145L5.98343 4.61212C5.98339 4.61215 5.98347 4.61209 5.98343 4.61212L13.3711 12L5.98331 19.3878Z" fill="#080809" style="fill:#080809;fill:color(display-p3 0.0314 0.0314 0.0353);fill-opacity:1;"/>
</g>
<defs>
<clipPath id="clip0_29901_28252">
<rect width="24" height="24" fill="white" style="fill:white;fill-opacity:1;"/>
</clipPath>
</defs>
</svg>
