<svg width="24" height="24" viewBox="0 0 24 24" fill="none" xmlns="http://www.w3.org/2000/svg">
<path fill-rule="evenodd" clip-rule="evenodd" d="M14.7801 5C15.0169 5 15.2213 5.16616 15.2696 5.39802L15.8361 8.11737C14.724 8.34403 13.6932 8.89257 12.8787 9.70711L9.78529 12.8005L9.04641 9H10C10.5523 9 11 8.55228 11 8C11 7.44772 10.5523 7 10 7H7.83455V7H6.5C5.94772 7 5.5 7.44772 5.5 8C5.5 8.55228 5.94772 9 6.5 9H7.00897L7.47672 11.4059C6.87042 11.1447 6.20211 11 5.5 11C2.73858 11 0.5 13.2386 0.5 16C0.5 18.7614 2.73858 21 5.5 21C8.26142 21 10.5 18.7614 10.5 16C10.5 15.6617 10.4664 15.3313 10.4024 15.0118L14.2929 11.1213C14.83 10.5842 15.5103 10.2232 16.244 10.0754L16.5214 11.4068C14.7441 12.1734 13.5 13.9414 13.5 16C13.5 18.7614 15.7386 21 18.5 21C21.2614 21 23.5 18.7614 23.5 16C23.5 13.2386 21.2614 11 18.5 11L18.4796 11L17.2275 4.99011C16.986 3.83082 15.9643 3 14.7801 3H12.9998C12.4475 3 11.9998 3.44772 11.9998 4C11.9998 4.55228 12.4475 5 12.9998 5H14.7801ZM5.5 13C6.56823 13 7.50605 13.5583 8.03759 14.3991C7.40945 14.7887 6.68009 15 5.92893 15H5.5C4.94772 15 4.5 15.4477 4.5 16C4.5 16.5523 4.94772 17 5.5 17H5.92893C6.815 17 7.68085 16.804 8.46854 16.436C8.25739 17.8862 7.00876 19 5.5 19C3.84315 19 2.5 17.6569 2.5 16C2.5 14.3431 3.84315 13 5.5 13ZM15.5 16C15.5 14.9129 16.0782 13.9609 16.9439 13.4346L17.5208 16.204C17.6335 16.7446 18.1631 17.0916 18.7038 16.979C19.2444 16.8663 19.5914 16.3367 19.4788 15.796L18.9018 13.0267C20.3687 13.223 21.5 14.4794 21.5 16C21.5 17.6569 20.1569 19 18.5 19C16.8431 19 15.5 17.6569 15.5 16Z" fill="#080809" style="fill:#080809;fill:color(display-p3 0.0314 0.0314 0.0353);fill-opacity:1;"/>
</svg>
