<svg width="24" height="24" viewBox="0 0 24 24" fill="none" xmlns="http://www.w3.org/2000/svg">
<path fill-rule="evenodd" clip-rule="evenodd" d="M14.5732 3H9.42684C7.6034 2.99997 6.13362 2.99995 4.97767 3.15537C3.77752 3.31672 2.76703 3.66191 1.96447 4.46447C1.16191 5.26702 0.816722 6.27752 0.655368 7.47767C0.499953 8.63362 0.499974 10.1034 0.500001 11.9268V12.0732C0.499974 13.8966 0.499953 15.3664 0.655368 16.5223C0.816722 17.7225 1.16191 18.733 1.96447 19.5355C2.76703 20.3381 3.77752 20.6833 4.97767 20.8446C6.13363 21.0001 7.6034 21 9.42687 21H14.5731C16.3966 21 17.8664 21.0001 19.0223 20.8446C20.2225 20.6833 21.233 20.3381 22.0355 19.5355C22.8381 18.733 23.1833 17.7225 23.3446 16.5223C23.5001 15.3664 23.5 13.8966 23.5 12.0731V11.9269C23.5 10.1034 23.5001 8.63363 23.3446 7.47767C23.1833 6.27752 22.8381 5.26702 22.0355 4.46447C21.233 3.66191 20.2225 3.31672 19.0223 3.15537C17.8664 2.99995 16.3966 2.99997 14.5732 3ZM4.75 8.5C5.16421 8.5 5.5 8.83579 5.5 9.25V14H6.75C7.16421 14 7.5 14.3358 7.5 14.75C7.5 15.1642 7.16421 15.5 6.75 15.5H5.25C4.55965 15.5 4 14.9404 4 14.25V9.25C4 8.83579 4.33579 8.5 4.75 8.5ZM10 9.25C10 8.83579 9.66421 8.5 9.25 8.5C8.83579 8.5 8.5 8.83579 8.5 9.25V14.75C8.5 15.1642 8.83579 15.5 9.25 15.5C9.66421 15.5 10 15.1642 10 14.75V9.25ZM16.75 9.25C16.75 8.83579 17.0858 8.5 17.5 8.5H19.25C19.6642 8.5 20 8.83579 20 9.25C20 9.66421 19.6642 10 19.25 10H18.25V11.25H18.75C19.1642 11.25 19.5 11.5858 19.5 12C19.5 12.4142 19.1642 12.75 18.75 12.75H18.25V14H19.25C19.6642 14 20 14.3358 20 14.75C20 15.1642 19.6642 15.5 19.25 15.5H17.5C17.0858 15.5 16.75 15.1642 16.75 14.75V9.25ZM12.4649 9.02256C12.3393 8.62784 11.9175 8.40967 11.5228 8.53526C11.1281 8.66086 10.9099 9.08265 11.0355 9.47736L12.7855 14.9774C12.8845 15.2886 13.1736 15.5 13.5002 15.5C13.8268 15.5 14.1159 15.2886 14.2149 14.9774L15.9649 9.47736C16.0905 9.08265 15.8723 8.66086 15.4776 8.53526C15.0829 8.40967 14.6611 8.62784 14.5355 9.02256L13.5002 12.2764L12.4649 9.02256Z" fill="#080809" style="fill:#080809;fill:color(display-p3 0.0314 0.0314 0.0353);fill-opacity:1;"/>
</svg>
