<svg width="24" height="24" viewBox="0 0 24 24" fill="none" xmlns="http://www.w3.org/2000/svg">
<g clip-path="url(#clip0_29901_27807)">
<path d="M12 0.5C5.64873 0.5 0.5 5.64873 0.5 12C0.5 13.9218 0.972204 15.7363 1.80777 17.3308C1.89499 17.4973 1.908 17.6559 1.87673 17.7765L0.995321 21.1762C0.708248 22.2835 1.71647 23.2918 2.82376 23.0047L6.22347 22.1233C6.34411 22.092 6.50272 22.105 6.66917 22.1922C8.26373 23.0278 10.0782 23.5 12 23.5C12.1324 23.5 12.2643 23.4978 12.3957 23.4933C12.7399 23.4817 13.0539 23.2937 13.2267 22.9958C13.3996 22.6979 13.407 22.332 13.2463 22.0274C12.77 21.1243 12.5 20.0952 12.5 19C12.5 17.4672 13.0306 16.0583 13.9181 14.9469C13.6259 14.9426 13.3322 14.8531 13.0763 14.6725L9.99986 12.5009L7.06431 14.5977C6.73859 14.8304 6.29241 14.7934 6.00937 14.5104C5.71806 14.2191 5.68854 13.7567 5.94044 13.4307L8.8715 9.6376C9.36263 9.00203 10.2672 8.86612 10.9234 9.32932L13.9999 11.5009L16.9354 9.40408C17.2611 9.17143 17.7073 9.20835 17.9903 9.49139C18.2817 9.7827 18.3112 10.2451 18.0593 10.5711L16.0049 13.2297C16.9012 12.7635 17.9198 12.5 19 12.5C20.0952 12.5 21.1243 12.77 22.0274 13.2463C22.332 13.407 22.6979 13.3996 22.9958 13.2267C23.2937 13.0539 23.4817 12.7399 23.4933 12.3957C23.4978 12.2643 23.5 12.1324 23.5 12C23.5 5.64873 18.3513 0.5 12 0.5Z" fill="#080809" style="fill:#080809;fill:color(display-p3 0.0314 0.0314 0.0353);fill-opacity:1;"/>
<path fill-rule="evenodd" clip-rule="evenodd" d="M19 24C21.7614 24 24 21.7614 24 19C24 16.2386 21.7614 14 19 14C16.2386 14 14 16.2386 14 19C14 21.7614 16.2386 24 19 24ZM18.9996 15.5C19.632 15.5 20.2253 15.6677 20.7373 15.9612C20.6533 16.4421 20.2961 16.8286 19.8319 16.9556C19.8034 16.9937 19.7759 17.0321 19.7496 17.0708V17.75C19.7496 17.8659 19.6699 17.9667 19.557 17.9933C19.4442 18.02 19.3278 17.9655 19.276 17.8618L18.8451 17H16.9996V17.9725C16.9996 18.3187 17.3429 18.5601 17.6687 18.4431L18.1651 18.2647C18.2416 18.2372 18.3268 18.2487 18.3934 18.2955C18.46 18.3423 18.4996 18.4186 18.4996 18.5V19.5H20.2273C21.193 19.5 21.794 20.5484 21.306 21.3817L21.0317 21.85C20.4994 22.2302 19.8561 22.465 19.1597 22.4964V21.9286C18.5113 21.8826 17.9996 21.342 17.9996 20.6818V19.4871C17.1697 19.9068 16.0958 19.5578 15.7177 18.6298L15.5742 18.2776C15.9071 16.6912 17.3142 15.5 18.9996 15.5Z" fill="#080809" style="fill:#080809;fill:color(display-p3 0.0314 0.0314 0.0353);fill-opacity:1;"/>
</g>
<defs>
<clipPath id="clip0_29901_27807">
<rect width="24" height="24" fill="white" style="fill:white;fill-opacity:1;"/>
</clipPath>
</defs>
</svg>
