<svg width="24" height="24" viewBox="0 0 24 24" fill="none" xmlns="http://www.w3.org/2000/svg">
<path fill-rule="evenodd" clip-rule="evenodd" d="M12.2037 1.61892C9.8648 2.21923 7.43004 3.34954 5.38877 5.3908C3.34763 7.43191 2.21775 9.86625 1.61799 12.2048L11.7959 22.3827C14.1343 21.7829 16.5685 20.6529 18.6097 18.6118C20.651 16.5704 21.7812 14.1356 22.3813 11.7964L12.2037 1.61892ZM15.7061 9.70711C16.0967 9.31658 16.0967 8.68342 15.7061 8.29289C15.3156 7.90237 14.6824 7.90237 14.2919 8.29289L13.499 9.08579L12.7061 8.29289C12.3156 7.90237 11.6824 7.90237 11.2919 8.29289C10.9014 8.68342 10.9014 9.31658 11.2919 9.70711L12.0848 10.5L10.499 12.0858L9.70613 11.2929C9.31561 10.9024 8.68244 10.9024 8.29192 11.2929C7.90139 11.6834 7.90139 12.3166 8.29192 12.7071L9.08481 13.5L8.29192 14.2929C7.90139 14.6834 7.90139 15.3166 8.29192 15.7071C8.68244 16.0976 9.31561 16.0976 9.70613 15.7071L10.499 14.9142L11.2919 15.7071C11.6824 16.0976 12.3156 16.0976 12.7061 15.7071C13.0967 15.3166 13.0967 14.6834 12.7061 14.2929L11.9132 13.5L13.499 11.9142L14.2919 12.7071C14.6824 13.0976 15.3156 13.0976 15.7061 12.7071C16.0967 12.3166 16.0967 11.6834 15.7061 11.2929L14.9132 10.5L15.7061 9.70711Z" fill="#080809" style="fill:#080809;fill:color(display-p3 0.0314 0.0314 0.0353);fill-opacity:1;"/>
<path d="M1.30423 21.1477C1.11403 20.0077 0.804905 17.4867 1.16916 14.5844L9.41633 22.8315C6.51389 23.1958 3.99278 22.8866 2.85282 22.6963C2.05431 22.5631 1.43746 21.9462 1.30423 21.1477Z" fill="#080809" style="fill:#080809;fill:color(display-p3 0.0314 0.0314 0.0353);fill-opacity:1;"/>
<path d="M22.8303 9.41706C23.1951 6.51403 22.8865 3.99212 22.6965 2.85155C22.5633 2.05245 21.9459 1.43513 21.1467 1.30218C20.0063 1.11246 17.4851 0.804497 14.5828 1.16961L22.8303 9.41706Z" fill="#080809" style="fill:#080809;fill:color(display-p3 0.0314 0.0314 0.0353);fill-opacity:1;"/>
</svg>
