<svg width="24" height="24" viewBox="0 0 24 24" fill="none" xmlns="http://www.w3.org/2000/svg">
<path d="M4 8H18.586L16.2931 10.2929C15.9026 10.6834 15.9026 11.3166 16.2931 11.7071C16.6836 12.0976 17.3168 12.0976 17.7073 11.7071L20.6467 8.76777C21.623 7.79146 21.623 6.20855 20.6467 5.23223L17.7073 2.29289C17.3168 1.90237 16.6836 1.90237 16.2931 2.29289C15.9026 2.68342 15.9026 3.31658 16.2931 3.70711L18.586 6H4C3.44771 6 3 6.44772 3 7C3 7.55228 3.44771 8 4 8Z" fill="#080809" style="fill:#080809;fill:color(display-p3 0.0314 0.0314 0.0353);fill-opacity:1;"/>
<path d="M5.41399 18L7.70688 20.2929C8.0974 20.6834 8.0974 21.3166 7.70688 21.7071C7.31636 22.0976 6.68319 22.0976 6.29267 21.7071L3.35333 18.7678C2.37701 17.7915 2.37702 16.2085 3.35333 15.2322L6.29267 12.2929C6.68319 11.9024 7.31636 11.9024 7.70688 12.2929C8.0974 12.6834 8.0974 13.3166 7.70688 13.7071L5.41399 16H20C20.5523 16 21 16.4477 21 17C21 17.5523 20.5523 18 20 18H5.41399Z" fill="#080809" style="fill:#080809;fill:color(display-p3 0.0314 0.0314 0.0353);fill-opacity:1;"/>
</svg>
