<svg width="24" height="24" viewBox="0 0 24 24" fill="none" xmlns="http://www.w3.org/2000/svg">
<path d="M4 4.75C3.30964 4.75 2.75 5.30964 2.75 6C2.75 6.69036 3.30964 7.25 4 7.25H20C20.6904 7.25 21.25 6.69036 21.25 6C21.25 5.30964 20.6904 4.75 20 4.75H4Z" fill="#080809" style="fill:#080809;fill:color(display-p3 0.0314 0.0314 0.0353);fill-opacity:1;"/>
<path d="M6.75 12C6.75 11.3096 7.30964 10.75 8 10.75H16C16.6904 10.75 17.25 11.3096 17.25 12C17.25 12.6904 16.6904 13.25 16 13.25H8C7.30964 13.25 6.75 12.6904 6.75 12Z" fill="#080809" style="fill:#080809;fill:color(display-p3 0.0314 0.0314 0.0353);fill-opacity:1;"/>
<path d="M9.75 18C9.75 17.3096 10.3096 16.75 11 16.75H13C13.6904 16.75 14.25 17.3096 14.25 18C14.25 18.6904 13.6904 19.25 13 19.25H11C10.3096 19.25 9.75 18.6904 9.75 18Z" fill="#080809" style="fill:#080809;fill:color(display-p3 0.0314 0.0314 0.0353);fill-opacity:1;"/>
</svg>
