<svg width="24" height="24" viewBox="0 0 24 24" fill="none" xmlns="http://www.w3.org/2000/svg">
<path d="M14.6173 14.9239C14.2436 14.7691 14 14.4044 14 14V9.99998C14 9.59551 14.2436 9.23088 14.6173 9.0761C14.991 8.92132 15.4211 9.00687 15.7071 9.29287L17.7071 11.2929C18.0976 11.6834 18.0976 12.3166 17.7071 12.7071L15.7071 14.7071C15.4211 14.9931 14.991 15.0786 14.6173 14.9239Z" fill="#080809" style="fill:#080809;fill:color(display-p3 0.0314 0.0314 0.0353);fill-opacity:1;"/>
<path fill-rule="evenodd" clip-rule="evenodd" d="M12.0748 23C14.3684 23 16.1914 23 17.6196 22.808C19.0921 22.6101 20.2936 22.1916 21.2426 21.2426C22.1916 20.2936 22.6101 19.0921 22.808 17.6196C23 16.1914 23 14.3684 23 12.0748V11.9252C23 9.63165 23 7.80859 22.808 6.3804C22.6101 4.90794 22.1916 3.70636 21.2426 2.75736C20.2936 1.80836 19.0921 1.38994 17.6196 1.19198C16.1914 0.999962 14.3683 0.999979 12.0748 1H11.9252C9.63167 0.999979 7.8086 0.999962 6.3804 1.19198C4.90794 1.38994 3.70636 1.80836 2.75736 2.75736C1.80836 3.70636 1.38994 4.90794 1.19198 6.3804C0.999962 7.8086 0.999979 9.63167 1 11.9252V12.0748C0.999979 14.3683 0.999962 16.1914 1.19198 17.6196C1.38994 19.0921 1.80836 20.2936 2.75736 21.2426C3.70636 22.1916 4.90794 22.6101 6.3804 22.808C7.80859 23 9.63165 23 11.9252 23H12.0748ZM19.8284 19.8284C19.313 20.3439 18.6038 20.6577 17.3531 20.8259C16.0737 20.9979 14.3853 21 12 21C11.6521 21 11.3191 21 11 20.9993V3.00066C11.3191 3.00005 11.6521 3 12 3C14.3853 3 16.0737 3.00212 17.3531 3.17414C18.6038 3.34229 19.313 3.65611 19.8284 4.17158C20.3439 4.68704 20.6577 5.39621 20.8259 6.64689C20.9979 7.92634 21 9.61471 21 12C21 14.3853 20.9979 16.0737 20.8259 17.3531C20.6577 18.6038 20.3439 19.313 19.8284 19.8284ZM4.5 14C4.5 14.5523 4.94772 15 5.5 15H6.5C7.05229 15 7.5 14.5523 7.5 14C7.5 13.4477 7.05229 13 6.5 13H5.5C4.94772 13 4.5 13.4477 4.5 14ZM5.5 11C4.94772 11 4.5 10.5523 4.5 10C4.5 9.44771 4.94772 9 5.5 9H6.5C7.05229 9 7.5 9.44771 7.5 10C7.5 10.5523 7.05229 11 6.5 11H5.5Z" fill="#080809" style="fill:#080809;fill:color(display-p3 0.0314 0.0314 0.0353);fill-opacity:1;"/>
</svg>
