<svg width="24" height="24" viewBox="0 0 24 24" fill="none" xmlns="http://www.w3.org/2000/svg">
<path fill-rule="evenodd" clip-rule="evenodd" d="M11 6C11 3.23858 13.2386 1 16 1C18.5452 1 20.6462 2.90175 20.9597 5.36179L22.9472 6.35557C23.286 6.52497 23.5 6.87123 23.5 7.25C23.5 7.62877 23.286 7.97504 22.9472 8.14443L21 9.11804V12.4444C21 13.3346 20.8641 14.193 20.6118 15H21.5526C22.6281 15 23.5 15.8719 23.5 16.9474C23.5 20.2901 20.7901 23 17.4474 23H6.55263C3.20986 23 0.5 20.2901 0.5 16.9474C0.5 15.8719 1.37187 15 2.44737 15H2.83209C2.2969 13.7751 2 12.4222 2 11C2 10.4477 2.44772 10 3 10H9C10.1046 10 11 9.10457 11 8V6ZM6.55263 21C4.33199 21 2.52851 19.214 2.50033 17H21.4997C21.4715 19.2139 19.668 21 17.4474 21H6.55263ZM16 7.5C16.8284 7.5 17.5 6.82843 17.5 6C17.5 5.17157 16.8284 4.5 16 4.5C15.1716 4.5 14.5 5.17157 14.5 6C14.5 6.82843 15.1716 7.5 16 7.5Z" fill="#080809" style="fill:#080809;fill:color(display-p3 0.0314 0.0314 0.0353);fill-opacity:1;"/>
</svg>
