<svg width="24" height="24" viewBox="0 0 24 24" fill="none" xmlns="http://www.w3.org/2000/svg">
<path d="M7.70688 3.70711C8.0974 3.31658 8.0974 2.68342 7.70688 2.29289C7.31636 1.90237 6.68319 1.90237 6.29267 2.29289L3.35333 5.23223C2.37701 6.20855 2.37702 7.79146 3.35333 8.76777L6.29267 11.7071C6.68319 12.0976 7.31636 12.0976 7.70688 11.7071C8.0974 11.3166 8.0974 10.6834 7.70688 10.2929L5.41399 8H15C17.7614 8 20 10.2386 20 13C20 15.7614 17.7614 18 15 18H6C5.44772 18 5 18.4477 5 19C5 19.5523 5.44772 20 6 20H15C18.866 20 22 16.866 22 13C22 9.13401 18.866 6 15 6H5.41399L7.70688 3.70711Z" fill="#080809" style="fill:#080809;fill:color(display-p3 0.0314 0.0314 0.0353);fill-opacity:1;"/>
</svg>
