<svg width="24" height="24" viewBox="0 0 24 24" fill="none" xmlns="http://www.w3.org/2000/svg">
<path fill-rule="evenodd" clip-rule="evenodd" d="M1 12.0748V11.9252C0.999978 9.63166 0.999961 7.80859 1.19198 6.38039C1.38994 4.90794 1.80836 3.70636 2.75736 2.75736C3.70636 1.80836 4.90794 1.38994 6.38039 1.19198C7.80859 0.999961 9.63164 0.999978 11.9252 1H12.0748C12.2181 0.999999 12.3597 0.999998 12.4994 1.00004C14.5947 1.00073 16.2807 1.01196 17.6196 1.19198C17.7116 1.20435 17.8026 1.21758 17.8925 1.23175C19.2413 1.44432 20.353 1.86767 21.2426 2.75736C22.1916 3.70636 22.6101 4.90794 22.808 6.38039C23 7.80859 23 9.63164 23 11.9252V12.0748C23 14.3683 23 16.1914 22.808 17.6196C22.6101 19.0921 22.1916 20.2936 21.2426 21.2426C20.2936 22.1916 19.0921 22.6101 17.6196 22.808C16.1914 23 14.3683 23 12.0748 23H11.9252C9.63167 23 7.8086 23 6.38039 22.808C4.90794 22.6101 3.70636 22.1916 2.75736 21.2426C1.80836 20.2936 1.38994 19.0921 1.19198 17.6196C0.999961 16.1914 0.999978 14.3683 1 12.0748ZM11 3.00066L11 6.07057C11 7.42469 10.9999 8.54131 11.1188 9.42506C11.2435 10.3529 11.5155 11.1723 12.1716 11.8284C12.8277 12.4845 13.6471 12.7565 14.5749 12.8812C15.4587 13.0001 16.5753 13 17.9294 13L20.9993 13C20.9958 14.869 20.9728 16.2603 20.8259 17.3531C20.6577 18.6038 20.3439 19.313 19.8284 19.8284C19.313 20.3439 18.6038 20.6577 17.3531 20.8259C16.0737 20.9979 14.3853 21 12 21C9.61471 21 7.92634 20.9979 6.64689 20.8259C5.39621 20.6577 4.68704 20.3439 4.17157 19.8284C3.65611 19.313 3.34229 18.6038 3.17414 17.3531C3.00213 16.0737 3 14.3853 3 12C3 9.61471 3.00213 7.92634 3.17414 6.64689C3.34229 5.39621 3.65611 4.68704 4.17157 4.17157C4.68704 3.65611 5.39621 3.34229 6.64689 3.17414C7.73975 3.02721 9.13096 3.00423 11 3.00066Z" fill="#080809" style="fill:#080809;fill:color(display-p3 0.0314 0.0314 0.0353);fill-opacity:1;"/>
</svg>
