<svg width="24" height="24" viewBox="0 0 24 24" fill="none" xmlns="http://www.w3.org/2000/svg">
<path d="M4 7.42943V16.5706C3.99997 17.9247 3.99994 19.0413 4.11876 19.9251C4.2435 20.8529 4.51547 21.6723 5.17158 22.3284C5.82769 22.9845 6.64711 23.2565 7.57494 23.3813C8.4587 23.5001 9.57531 23.5 10.9294 23.5H13.0706C14.4247 23.5 15.5413 23.5001 16.4251 23.3813C17.3529 23.2565 18.1723 22.9845 18.8284 22.3284C19.4845 21.6723 19.7565 20.8529 19.8813 19.9251C20.0001 19.0413 20 17.9247 20 16.5707V7.42943C20 6.07534 20.0001 4.95868 19.8813 4.07494C19.7565 3.14711 19.4845 2.32769 18.8284 1.67158C18.1723 1.01547 17.3529 0.743499 16.4251 0.618755C15.5413 0.499937 14.4247 0.499967 13.0706 0.500001L10.9295 0.500003C9.57534 0.499969 8.4587 0.499937 7.57494 0.618755C6.64711 0.743499 5.82769 1.01547 5.17158 1.67158C4.51547 2.32769 4.2435 3.14711 4.11876 4.07494C3.99994 4.95869 3.99997 6.07533 4 7.42943Z" fill="#080809" style="fill:#080809;fill:color(display-p3 0.0314 0.0314 0.0353);fill-opacity:1;"/>
</svg>
