<svg width="24" height="24" viewBox="0 0 24 24" fill="none" xmlns="http://www.w3.org/2000/svg">
<path d="M17.2929 0.292893C16.9024 0.683417 16.9024 1.31658 17.2929 1.70711L17.5858 2H12C6.47715 2 2 6.47715 2 12C2 17.5228 6.47715 22 12 22C17.5228 22 22 17.5228 22 12C22 11.4477 21.5523 11 21 11C20.4477 11 20 11.4477 20 12C20 16.4183 16.4183 20 12 20C7.58172 20 4 16.4183 4 12C4 7.58172 7.58172 4 12 4H17.5858L17.2929 4.29289C16.9024 4.68342 16.9024 5.31658 17.2929 5.70711C17.6834 6.09763 18.3166 6.09763 18.7071 5.70711L20.3536 4.06066C20.9393 3.47487 20.9393 2.52513 20.3536 1.93934L18.7071 0.292893C18.3166 -0.0976311 17.6834 -0.0976311 17.2929 0.292893Z" fill="#080809" style="fill:#080809;fill:color(display-p3 0.0314 0.0314 0.0353);fill-opacity:1;"/>
<path d="M9.62012 14.3117L10.2276 13.3847C10.4766 13.5887 10.7406 13.7357 11.0196 13.8257C11.2986 13.9127 11.5611 13.9562 11.8071 13.9562C12.1491 13.9562 12.4221 13.8722 12.6261 13.7042C12.8301 13.5362 12.9321 13.2962 12.9321 12.9842C12.9321 12.6722 12.8301 12.4307 12.6261 12.2597C12.4221 12.0857 12.1551 11.9987 11.8251 11.9987C11.6241 11.9987 11.4186 12.0317 11.2086 12.0977C10.9986 12.1607 10.8126 12.2477 10.6506 12.3587L10.0296 12.0032L10.2366 8.7002H13.9086V9.8747H11.2716L11.1906 11.0987C11.3556 11.0387 11.5206 10.9937 11.6856 10.9637C11.8536 10.9307 12.0291 10.9142 12.2121 10.9142C12.6321 10.9142 13.0011 11.0012 13.3191 11.1752C13.6371 11.3492 13.8831 11.5937 14.0571 11.9087C14.2341 12.2237 14.3226 12.5912 14.3226 13.0112C14.3226 13.4492 14.2206 13.8287 14.0166 14.1497C13.8156 14.4677 13.5336 14.7137 13.1706 14.8877C12.8076 15.0617 12.3846 15.1487 11.9016 15.1487C11.4546 15.1487 11.0391 15.0767 10.6551 14.9327C10.2711 14.7887 9.92612 14.5817 9.62012 14.3117Z" fill="#080809" style="fill:#080809;fill:color(display-p3 0.0314 0.0314 0.0353);fill-opacity:1;"/>
</svg>
