<svg width="24" height="24" viewBox="0 0 24 24" fill="none" xmlns="http://www.w3.org/2000/svg">
<path d="M11.25 7.2005C12.25 7.77786 12.25 9.22123 11.25 9.79858L5.25 13.2627C4.25 13.84 3 13.1183 3 11.9636L3 5.03544C3 3.88074 4.25 3.15905 5.25 3.7364L11.25 7.2005Z" fill="#080809" style="fill:#080809;fill:color(display-p3 0.0314 0.0314 0.0353);fill-opacity:1;"/>
<path d="M22 4.99954C22 5.55183 21.5523 5.99954 21 5.99954L15 5.99954C14.4477 5.99954 14 5.55183 14 4.99954C14 4.44726 14.4477 3.99954 15 3.99954L21 3.99954C21.5523 3.99954 22 4.44726 22 4.99954Z" fill="#080809" style="fill:#080809;fill:color(display-p3 0.0314 0.0314 0.0353);fill-opacity:1;"/>
<path d="M22 18.9995C22 19.5518 21.5523 19.9995 21 19.9995L3 19.9995C2.44772 19.9995 2 19.5518 2 18.9995C2 18.4473 2.44772 17.9995 3 17.9995L21 17.9995C21.5523 17.9995 22 18.4473 22 18.9995Z" fill="#080809" style="fill:#080809;fill:color(display-p3 0.0314 0.0314 0.0353);fill-opacity:1;"/>
<path d="M21 12.9995C21.5523 12.9995 22 12.5518 22 11.9995C22 11.4473 21.5523 10.9995 21 10.9995L15 10.9995C14.4477 10.9995 14 11.4473 14 11.9995C14 12.5518 14.4477 12.9995 15 12.9995L21 12.9995Z" fill="#080809" style="fill:#080809;fill:color(display-p3 0.0314 0.0314 0.0353);fill-opacity:1;"/>
</svg>
