<svg width="24" height="24" viewBox="0 0 24 24" fill="none" xmlns="http://www.w3.org/2000/svg">
<path fill-rule="evenodd" clip-rule="evenodd" d="M12 1C8.90134 1 6.05875 1.95578 3.96934 3.54771C1.8791 5.14027 0.5 7.41229 0.5 10V14C0.5 16.5877 1.8791 18.8597 3.96934 20.4523C6.05875 22.0442 8.90134 23 12 23C15.0987 23 17.9412 22.0442 20.0307 20.4523C22.1209 18.8597 23.5 16.5877 23.5 14V10C23.5 7.41229 22.1209 5.14027 20.0307 3.54771C17.9412 1.95578 15.0987 1 12 1ZM5.18142 18.8614C3.86944 17.8618 2.99224 16.612 2.65496 15.2575C3.05057 15.6884 3.49136 16.0881 3.96934 16.4523C6.05875 18.0442 8.90134 19 12 19C15.0987 19 17.9412 18.0442 20.0307 16.4523C20.5086 16.0881 20.9494 15.6884 21.345 15.2575C21.0078 16.612 20.1306 17.8618 18.8186 18.8614C17.1077 20.1649 14.7003 21 12 21C9.29967 21 6.89226 20.1649 5.18142 18.8614ZM16.4997 8.92373C16.4688 11.0741 14.2279 12.8887 12.2483 14.0687C12.0951 14.1601 11.9048 14.1601 11.7516 14.0687C9.77202 12.8887 7.53125 11.0741 7.50034 8.92373C7.47746 7.41815 8.59962 6.52371 9.74996 6.50194C10.6759 6.48443 11.3388 6.89397 12 7.89288C12.661 6.89413 13.324 6.48299 14.2499 6.50054C15.4003 6.52233 16.5225 7.41836 16.4997 8.92373Z" fill="#080809" style="fill:#080809;fill:color(display-p3 0.0314 0.0314 0.0353);fill-opacity:1;"/>
</svg>
