<svg width="24" height="24" viewBox="0 0 24 24" fill="none" xmlns="http://www.w3.org/2000/svg">
<path fill-rule="evenodd" clip-rule="evenodd" d="M11.6838 0.551317C11.889 0.482894 12.111 0.482894 12.3162 0.551317L21.3162 3.55132C21.7246 3.68743 22 4.06957 22 4.5V13.5C22 19.0228 17.5228 23.5 12 23.5C6.47715 23.5 2 19.0228 2 13.5V4.5C2 4.06957 2.27543 3.68743 2.68377 3.55132L11.6838 0.551317ZM11.5 8C10.9477 8 10.5 8.44772 10.5 9V10.5H9C8.44772 10.5 8 10.9477 8 11.5V12.5C8 13.0523 8.44772 13.5 9 13.5H10.5V15C10.5 15.5523 10.9477 16 11.5 16H12.5C13.0523 16 13.5 15.5523 13.5 15V13.5H15C15.5523 13.5 16 13.0523 16 12.5V11.5C16 10.9477 15.5523 10.5 15 10.5H13.5V9C13.5 8.44772 13.0523 8 12.5 8H11.5Z" fill="#080809" style="fill:#080809;fill:color(display-p3 0.0314 0.0314 0.0353);fill-opacity:1;"/>
</svg>
