<svg width="24" height="24" viewBox="0 0 24 24" fill="none" xmlns="http://www.w3.org/2000/svg">
<g clip-path="url(#clip0_29901_28574)">
<path d="M19.6233 0.72585C20.2388 0.420835 20.9614 0.420809 21.5769 0.72578C21.9072 0.889391 22.1863 1.17013 22.4384 1.4237L22.5075 1.49304L22.5768 1.56209C22.8303 1.81414 23.111 2.09323 23.2746 2.42339C23.5795 3.03882 23.5796 3.76136 23.2747 4.3768C23.1111 4.70698 22.8304 4.98608 22.5769 5.23816L22.5076 5.30721L14.2951 13.5208L14.2832 13.5329C14.236 13.581 14.1162 13.7031 13.9664 13.7949C13.8411 13.8717 13.7045 13.9283 13.5617 13.9626C13.3908 14.0036 13.2198 14.002 13.1524 14.0014L13.1354 14.0013H11.0003C10.448 14.0013 10.0003 13.5536 10.0003 13.0013V10.8662L10.0002 10.8492C9.99957 10.7818 9.99798 10.6108 10.039 10.44C10.0733 10.2971 10.1298 10.1606 10.2066 10.0353C10.2984 9.88552 10.4204 9.76571 10.4685 9.71849L10.4806 9.70657L18.6928 1.49317L18.7619 1.42384C19.014 1.17025 19.2931 0.889485 19.6233 0.72585Z" fill="#080809" style="fill:#080809;fill:color(display-p3 0.0314 0.0314 0.0353);fill-opacity:1;"/>
<path d="M0.5 11.998C0.5 15.6435 2.19701 18.8924 4.84047 20.998H3.5C2.94771 20.998 2.5 21.4458 2.5 21.998C2.5 22.5503 2.94771 22.998 3.5 22.998H7C7.82843 22.998 8.5 22.3265 8.5 21.498V17.998C8.5 17.4458 8.05228 16.998 7.5 16.998C6.94771 16.998 6.5 17.4458 6.5 17.998V19.745C4.07716 18.0215 2.5 15.1939 2.5 11.998C2.5 6.75134 6.75329 2.49805 12 2.49805C12.62 2.49805 13.2253 2.55731 13.8106 2.6702C14.3529 2.77478 14.8773 2.41995 14.9819 1.87765C15.0865 1.33536 14.7317 0.810966 14.1894 0.706386C13.4798 0.569553 12.7478 0.498046 12 0.498046C5.64873 0.498047 0.5 5.64677 0.5 11.998Z" fill="#080809" style="fill:#080809;fill:color(display-p3 0.0314 0.0314 0.0353);fill-opacity:1;"/>
<path d="M12 23.498C11.4477 23.498 11 23.0503 11 22.498C11 21.9458 11.4477 21.498 12 21.498C17.2467 21.498 21.5 17.2448 21.5 11.998C21.5 11.378 21.4407 10.7728 21.3278 10.1874C21.2233 9.64511 21.5781 9.12072 22.1204 9.01614C22.6627 8.91156 23.1871 9.26639 23.2917 9.80869C23.4285 10.5182 23.5 11.2503 23.5 11.998C23.5 18.3493 18.3513 23.498 12 23.498Z" fill="#080809" style="fill:#080809;fill:color(display-p3 0.0314 0.0314 0.0353);fill-opacity:1;"/>
</g>
<defs>
<clipPath id="clip0_29901_28574">
<rect width="24" height="24" fill="white" style="fill:white;fill-opacity:1;"/>
</clipPath>
</defs>
</svg>
