<svg width="24" height="24" viewBox="0 0 24 24" fill="none" xmlns="http://www.w3.org/2000/svg">
<path fill-rule="evenodd" clip-rule="evenodd" d="M7.5 3C6.11929 3 5 4.11929 5 5.5V16H2.5V15C2.5 14.4477 2.05228 14 1.5 14C0.947715 14 0.5 14.4477 0.5 15V16.5C0.5 17.3284 1.17157 18 2 18H10.126C10.5701 19.7252 12.1362 21 14 21C15.8638 21 17.4299 19.7252 17.874 18H20.5C21.8807 18 23 16.8807 23 15.5V12C23 7.02944 18.9706 3 14 3H7.5ZM12.5 8C11.9477 8 11.5 8.44772 11.5 9C11.5 9.55228 11.9477 10 12.5 10H15.5C16.0523 10 16.5 9.55228 16.5 9C16.5 8.44772 16.0523 8 15.5 8H12.5ZM14 15C12.8954 15 12 15.8954 12 17C12 18.1046 12.8954 19 14 19C15.1046 19 16 18.1046 16 17C16 15.8954 15.1046 15 14 15Z" fill="#080809" style="fill:#080809;fill:color(display-p3 0.0314 0.0314 0.0353);fill-opacity:1;"/>
</svg>
