<svg width="20" height="20" viewBox="0 0 20 20" fill="none" xmlns="http://www.w3.org/2000/svg">
<path fill-rule="evenodd" clip-rule="evenodd" d="M9.41667 0.5C8.35812 0.5 7.5 1.35812 7.5 2.41667V3.02899C7.5 4.18278 7.18643 5.31488 6.5928 6.30425L5.7887 7.64443C5.62445 7.91818 5.48486 8.2045 5.37087 8.5H2.5C1.39543 8.5 0.5 9.39543 0.5 10.5V17C0.5 18.1046 1.39543 19 2.5 19H14.75C16.1617 19 17.3249 17.9363 17.482 16.5667C18.2439 16.0784 18.75 15.2239 18.75 14.25C18.75 14.1349 18.7429 14.0212 18.729 13.9093C19.2056 13.4153 19.5 12.742 19.5 12C19.5 11.4887 19.3599 11.009 19.1164 10.5985C19.2032 10.3308 19.25 10.0454 19.25 9.75C19.25 8.23122 18.0188 7 16.5 7H12.5V3.58333C12.5 1.88046 11.1195 0.5 9.41667 0.5ZM5 17.5V10H2.5C2.22386 10 2 10.2239 2 10.5V17C2 17.2761 2.22386 17.5 2.5 17.5H5ZM6.5 17.5H14.75C15.4404 17.5 16 16.9404 16 16.25C16 16.2195 15.9989 16.1894 15.9968 16.1596C15.9738 15.8347 16.1632 15.5321 16.4654 15.4107C16.9266 15.2255 17.25 14.7746 17.25 14.25C17.25 14.1144 17.2287 13.9852 17.1898 13.8649C17.0888 13.5527 17.2025 13.2112 17.4704 13.0218C17.7923 12.7941 18 12.4213 18 12C18 11.6872 17.8861 11.4029 17.6965 11.1835C17.4935 10.9485 17.4563 10.6127 17.603 10.339C17.6966 10.1643 17.75 9.96448 17.75 9.75C17.75 9.05964 17.1904 8.5 16.5 8.5H12.1365C11.5088 8.5 11 7.99118 11 7.36351V3.58333C11 2.70888 10.2911 2 9.41667 2C9.18655 2 9 2.18655 9 2.41667V3.02899C9 4.45465 8.61254 5.85351 7.87904 7.076L7.07494 8.41617C6.69873 9.04319 6.5 9.76066 6.5 10.4919V17.5Z" fill="#080809" style="fill:#080809;fill:color(display-p3 0.0314 0.0314 0.0353);fill-opacity:1;"/>
</svg>
