<svg width="24" height="24" viewBox="0 0 24 24" fill="none" xmlns="http://www.w3.org/2000/svg">
<g clip-path="url(#clip0_29901_26767)">
<path d="M12 7C10.8954 7 10 7.89543 10 9C10 9.55228 9.55229 10 9 10C8.44772 10 8 9.55228 8 9C8 6.79086 9.79086 5 12 5C14.2091 5 16 6.79086 16 9C16 10.5155 15.1568 11.8327 13.9186 12.5105C13.6233 12.6721 13.3721 12.8622 13.2058 13.0562C13.0438 13.245 13 13.39 13 13.5V14C13 14.5523 12.5523 15 12 15C11.4477 15 11 14.5523 11 14V13.5C11 12.7816 11.3121 12.1921 11.6877 11.7542C12.0589 11.3213 12.5269 10.9923 12.9583 10.7561C13.5812 10.4151 14 9.75575 14 9C14 7.89543 13.1046 7 12 7Z" fill="#080809" style="fill:#080809;fill:color(display-p3 0.0314 0.0314 0.0353);fill-opacity:1;"/>
<path d="M13.25 17.75C13.25 18.4404 12.6904 19 12 19C11.3096 19 10.75 18.4404 10.75 17.75C10.75 17.0596 11.3096 16.5 12 16.5C12.6904 16.5 13.25 17.0596 13.25 17.75Z" fill="#080809" style="fill:#080809;fill:color(display-p3 0.0314 0.0314 0.0353);fill-opacity:1;"/>
<path fill-rule="evenodd" clip-rule="evenodd" d="M12 0.5C18.3513 0.5 23.5 5.64873 23.5 12C23.5 13.9218 23.0278 15.7363 22.1922 17.3308C22.105 17.4973 22.092 17.6559 22.1233 17.7765L23.0047 21.1762C23.2918 22.2835 22.2835 23.2918 21.1762 23.0047L17.7765 22.1233C17.6559 22.092 17.4973 22.105 17.3308 22.1922C15.7363 23.0278 13.9218 23.5 12 23.5C5.64873 23.5 0.5 18.3513 0.5 12C0.5 5.64873 5.64873 0.5 12 0.5ZM21.5 12C21.5 6.75329 17.2467 2.5 12 2.5C6.75329 2.5 2.5 6.75329 2.5 12C2.5 17.2467 6.75329 21.5 12 21.5C13.5908 21.5 15.0875 21.1098 16.4025 20.4207C16.9511 20.1333 17.6177 20.016 18.2785 20.1873L20.8554 20.8554L20.1873 18.2785C20.016 17.6177 20.1333 16.9511 20.4207 16.4025C21.1098 15.0875 21.5 13.5908 21.5 12Z" fill="#080809" style="fill:#080809;fill:color(display-p3 0.0314 0.0314 0.0353);fill-opacity:1;"/>
</g>
<defs>
<clipPath id="clip0_29901_26767">
<rect width="24" height="24" fill="white" style="fill:white;fill-opacity:1;"/>
</clipPath>
</defs>
</svg>
