<svg width="24" height="24" viewBox="0 0 24 24" fill="none" xmlns="http://www.w3.org/2000/svg">
<path fill-rule="evenodd" clip-rule="evenodd" d="M8.54947 3.00099C9.08691 3.02227 9.55047 3.38496 9.70043 3.90149L13.1074 15.6364L15.8194 7.83936C15.992 7.34315 16.4564 7.00782 16.9817 7.00014C17.507 6.99246 17.9811 7.31407 18.1681 7.80501L19.8614 12.25H21.75C22.4404 12.25 23 12.8097 23 13.5C23 14.1904 22.4404 14.75 21.75 14.75H19C18.4813 14.75 18.0165 14.4297 17.8319 13.945L17.0534 11.9014L14.1806 20.1607C14.0019 20.6745 13.5113 21.0138 12.9674 20.9996C12.4235 20.9854 11.9513 20.621 11.7996 20.0985L8.34374 8.19512L6.16911 13.9424C5.98519 14.4284 5.5197 14.75 5 14.75H2.25C1.55964 14.75 1 14.1904 1 13.5C1 12.8097 1.55964 12.25 2.25 12.25H4.13648L7.33089 3.80764C7.52124 3.30459 8.01203 2.9797 8.54947 3.00099Z" fill="#080809" style="fill:#080809;fill:color(display-p3 0.0314 0.0314 0.0353);fill-opacity:1;"/>
</svg>
