<svg width="24" height="24" viewBox="0 0 24 24" fill="none" xmlns="http://www.w3.org/2000/svg">
<path d="M12.924 8.61597C12.7689 8.24301 12.4046 8 12.0007 8C11.5967 8 11.2325 8.24301 11.0774 8.61597L10.5184 9.95984L9.06759 10.0761C8.66495 10.1084 8.32127 10.3798 8.19645 10.7639C8.07163 11.1481 8.19018 11.5696 8.49695 11.8324L9.60232 12.7793L9.26461 14.195C9.17089 14.5879 9.32274 14.9986 9.64953 15.2361C9.97632 15.4735 10.4139 15.491 10.7586 15.2805L12.0007 14.5218L13.2428 15.2805C13.5875 15.491 14.025 15.4735 14.3518 15.2361C14.6786 14.9986 14.8305 14.5879 14.7367 14.195L14.399 12.7793L15.5044 11.8324C15.8112 11.5696 15.9297 11.1481 15.8049 10.7639C15.6801 10.3798 15.3364 10.1084 14.9338 10.0761L13.4829 9.95984L12.924 8.61597Z" fill="#080809" style="fill:#080809;fill:color(display-p3 0.0314 0.0314 0.0353);fill-opacity:1;"/>
<path fill-rule="evenodd" clip-rule="evenodd" d="M1.96493 15.3079C-0.576848 13.8349 -0.576856 10.1647 1.96493 8.69164L4.04585 7.48566V4.89958C4.04585 1.95344 7.23758 0.114219 9.78656 1.59152L12.0013 2.87513L14.2164 1.59144C16.7654 0.114174 19.9571 1.95342 19.9571 4.89958V7.486L22.0375 8.69172C24.5792 10.1648 24.5792 13.8348 22.0375 15.3078L19.9571 16.5136V19.1C19.9571 22.0461 16.7654 23.8854 14.2164 22.4081L12.0013 21.1244L9.78656 22.408C7.23758 23.8853 4.04585 22.0461 4.04585 19.1V16.5139L1.96493 15.3079ZM6.04585 17.673V19.1C6.04585 20.505 7.56804 21.3822 8.78369 20.6776L10.007 19.9686L6.04585 17.673ZM12.0013 18.8128L6.04585 15.3614V8.63818L12.0013 5.18673L17.9571 8.63849V15.3611L12.0013 18.8128ZM13.9956 19.9686L15.2192 20.6777C16.4349 21.3823 17.9571 20.5051 17.9571 19.1V17.6727L13.9956 19.9686ZM19.9571 14.2019L21.0346 13.5774C22.2468 12.8749 22.2468 11.1246 21.0346 10.4221L19.9571 9.79762V14.2019ZM17.9571 6.32687V4.89958C17.9571 3.49448 16.4349 2.6173 15.2192 3.32184L13.9956 4.03095L17.9571 6.32687ZM10.007 4.03091L8.78369 3.32191C7.56804 2.61736 6.04585 3.49451 6.04585 4.89958V6.32658L10.007 4.03091ZM4.04585 9.79726V14.2023L2.96777 13.5775C1.75553 12.875 1.75553 11.1246 2.96777 10.422L4.04585 9.79726Z" fill="#080809" style="fill:#080809;fill:color(display-p3 0.0314 0.0314 0.0353);fill-opacity:1;"/>
</svg>
