<svg width="24" height="24" viewBox="0 0 24 24" fill="none" xmlns="http://www.w3.org/2000/svg">
<path fill-rule="evenodd" clip-rule="evenodd" d="M20.2679 1.35333C19.2916 0.377015 17.7087 0.377017 16.7324 1.35333L14.9351 3.15062C14.9036 3.18205 14.8682 3.20914 14.8296 3.23119L11.8317 4.94425C11.4732 5.14914 11.1709 5.43967 10.9521 5.78986L4.43805 16.2123C4.42628 16.2299 4.41508 16.2478 4.40446 16.266L1.16309 21.4522C1.05997 21.6095 1 21.7977 1 21.9998C1 22.5521 1.44772 22.9998 2 22.9998L22 22.9998C22.5523 22.9998 23 22.5521 23 21.9998C23 21.4475 22.5523 20.9998 22 20.9998L6.71231 20.9998L19.5155 15.3095C20.4183 14.9082 21.0001 14.0129 21.0001 13.025V9.12109C21.0001 8.98849 21.0528 8.86131 21.1466 8.76754L22.6466 7.26754C23.6229 6.29123 23.6229 4.70832 22.6466 3.73201L20.2679 1.35333ZM5.95444 17.5597L19.0001 11.7857V13.025C19.0001 13.2226 18.8838 13.4016 18.7032 13.4819L4.57994 19.7589L5.95444 17.5597Z" fill="#080809" style="fill:#080809;fill:color(display-p3 0.0314 0.0314 0.0353);fill-opacity:1;"/>
</svg>
