<svg width="24" height="24" viewBox="0 0 24 24" fill="none" xmlns="http://www.w3.org/2000/svg">
<path fill-rule="evenodd" clip-rule="evenodd" d="M16.4961 1C14.287 1 12.4961 2.79086 12.4961 5C12.4961 7.20914 14.287 9 16.4961 9C18.7052 9 20.4961 7.20914 20.4961 5C20.4961 2.79086 18.7052 1 16.4961 1ZM14.4961 5C14.4961 3.89543 15.3915 3 16.4961 3C17.6007 3 18.4961 3.89543 18.4961 5C18.4961 6.10457 17.6007 7 16.4961 7C15.3915 7 14.4961 6.10457 14.4961 5Z" fill="#080809" style="fill:#080809;fill:color(display-p3 0.0314 0.0314 0.0353);fill-opacity:1;"/>
<path fill-rule="evenodd" clip-rule="evenodd" d="M3.49609 9.5C3.49609 7.29086 5.28695 5.5 7.49609 5.5C9.70523 5.5 11.4961 7.29086 11.4961 9.5C11.4961 11.7091 9.70523 13.5 7.49609 13.5C5.28695 13.5 3.49609 11.7091 3.49609 9.5ZM7.49609 7.5C6.39152 7.5 5.49609 8.39543 5.49609 9.5C5.49609 10.6046 6.39152 11.5 7.49609 11.5C8.60066 11.5 9.49609 10.6046 9.49609 9.5C9.49609 8.39543 8.60066 7.5 7.49609 7.5Z" fill="#080809" style="fill:#080809;fill:color(display-p3 0.0314 0.0314 0.0353);fill-opacity:1;"/>
<path fill-rule="evenodd" clip-rule="evenodd" d="M0.5 20C0.5 17.2386 2.73858 15 5.5 15H9.506C12.2674 15 14.506 17.2386 14.506 20C14.506 21.6569 13.1629 23 11.506 23H3.5C1.84315 23 0.5 21.6569 0.5 20ZM5.5 17C3.84315 17 2.5 18.3431 2.5 20C2.5 20.5523 2.94772 21 3.5 21H11.506C12.0583 21 12.506 20.5523 12.506 20C12.506 18.3431 11.1629 17 9.506 17H5.5Z" fill="#080809" style="fill:#080809;fill:color(display-p3 0.0314 0.0314 0.0353);fill-opacity:1;"/>
<path d="M14.13 10.5135C14.2524 10.5046 14.3758 10.5 14.5002 10.5H18.5062C21.2676 10.5 23.5062 12.7386 23.5062 15.5C23.5062 17.1569 22.1631 18.5 20.5062 18.5H17.1078C16.5555 18.5 16.1078 18.0523 16.1078 17.5C16.1078 16.9477 16.5555 16.5 17.1078 16.5H20.5062C21.0585 16.5 21.5062 16.0523 21.5062 15.5C21.5062 13.8431 20.1631 12.5 18.5062 12.5H14.5002C14.4247 12.5 14.3501 12.5028 14.2764 12.5082C13.7256 12.5486 13.2463 12.1349 13.2059 11.5841C13.1654 11.0333 13.5792 10.554 14.13 10.5135Z" fill="#080809" style="fill:#080809;fill:color(display-p3 0.0314 0.0314 0.0353);fill-opacity:1;"/>
<path d="M10.5 3C11.0523 3 11.5 2.55228 11.5 2C11.5 1.44772 11.0523 1 10.5 1C9.94771 1 9.5 1.44772 9.5 2C9.5 2.55228 9.94771 3 10.5 3Z" fill="#080809" style="fill:#080809;fill:color(display-p3 0.0314 0.0314 0.0353);fill-opacity:1;"/>
<path d="M5.5 2C5.5 2.55228 5.05228 3 4.5 3C3.94772 3 3.5 2.55228 3.5 2C3.5 1.44772 3.94772 1 4.5 1C5.05228 1 5.5 1.44772 5.5 2Z" fill="#080809" style="fill:#080809;fill:color(display-p3 0.0314 0.0314 0.0353);fill-opacity:1;"/>
<path d="M7.5 3C8.05229 3 8.5 2.55228 8.5 2C8.5 1.44772 8.05229 1 7.5 1C6.94772 1 6.5 1.44772 6.5 2C6.5 2.55228 6.94772 3 7.5 3Z" fill="#080809" style="fill:#080809;fill:color(display-p3 0.0314 0.0314 0.0353);fill-opacity:1;"/>
</svg>
