<svg width="20" height="20" viewBox="0 0 20 20" fill="none" xmlns="http://www.w3.org/2000/svg">
<path d="M8 3.03267V1.8763C8 1.13992 8.59695 0.542969 9.33333 0.542969C10.8061 0.542969 12 1.73687 12 3.20963V6.49989C12 6.77603 12.2239 6.99989 12.5 6.99989H16.75C18.1307 6.99989 19.25 8.11918 19.25 9.49989C19.25 9.69029 19.2287 9.87572 19.1884 10.0539C19.153 10.2105 19.1774 10.3756 19.2568 10.5151C19.4641 10.8794 19.5825 11.3008 19.5825 11.7499C19.5825 12.3609 19.3633 12.9206 18.9993 13.3549C18.8462 13.5376 18.8018 13.7945 18.8791 14.0201C18.9575 14.2488 19 14.4942 19 14.7495C19 15.6444 18.4776 16.4172 17.7211 16.7797C17.6368 16.8202 17.583 16.9064 17.583 16.9999C17.583 18.1045 16.6876 18.9999 15.583 18.9999L7.25 18.9999C6.55964 18.9999 6 18.4402 6 17.7499V10.1802C6 9.40401 6.18073 8.63844 6.52787 7.94416L7.12022 6.75947C7.69879 5.60234 8 4.32639 8 3.03267Z" fill="#080809" style="fill:#080809;fill:color(display-p3 0.0314 0.0314 0.0353);fill-opacity:1;"/>
<path d="M2.16667 9C1.24619 9 0.5 9.74619 0.5 10.6667V17.3333C0.5 18.2538 1.24619 19 2.16667 19H3.66667C4.1269 19 4.5 18.6269 4.5 18.1667V9.83333C4.5 9.3731 4.1269 9 3.66667 9H2.16667Z" fill="#080809" style="fill:#080809;fill:color(display-p3 0.0314 0.0314 0.0353);fill-opacity:1;"/>
</svg>
