<svg width="24" height="24" viewBox="0 0 24 24" fill="none" xmlns="http://www.w3.org/2000/svg">
<g clip-path="url(#clip0_29901_26305)">
<path d="M9.5 8.5C9.5 9.32843 8.82843 10 8 10C7.17157 10 6.5 9.32843 6.5 8.5C6.5 7.67157 7.17157 7 8 7C8.82843 7 9.5 7.67157 9.5 8.5Z" fill="#080809" style="fill:#080809;fill:color(display-p3 0.0314 0.0314 0.0353);fill-opacity:1;"/>
<path d="M14.5 8.5C14.5 9.32843 15.1716 10 16 10C16.8284 10 17.5 9.32843 17.5 8.5C17.5 7.67157 16.8284 7 16 7C15.1716 7 14.5 7.67157 14.5 8.5Z" fill="#080809" style="fill:#080809;fill:color(display-p3 0.0314 0.0314 0.0353);fill-opacity:1;"/>
<path d="M9.46914 15.8396C10.648 13.9871 13.3522 13.9871 14.5311 15.8396L14.6565 16.0366C14.953 16.5025 15.5711 16.6398 16.037 16.3433C16.5029 16.0468 16.6403 15.4287 16.3438 14.9628L16.2184 14.7658C14.2537 11.6783 9.74659 11.6783 7.78182 14.7658L7.65646 14.9628C7.35996 15.4287 7.49731 16.0468 7.96325 16.3433C8.42919 16.6398 9.04728 16.5025 9.34379 16.0366L9.46914 15.8396Z" fill="#080809" style="fill:#080809;fill:color(display-p3 0.0314 0.0314 0.0353);fill-opacity:1;"/>
<path fill-rule="evenodd" clip-rule="evenodd" d="M0.5 12C0.5 5.64873 5.64873 0.5 12 0.5C18.3513 0.5 23.5 5.64873 23.5 12C23.5 18.3513 18.3513 23.5 12 23.5C5.64873 23.5 0.5 18.3513 0.5 12ZM12 2.5C6.75329 2.5 2.5 6.75329 2.5 12C2.5 17.2467 6.75329 21.5 12 21.5C17.2467 21.5 21.5 17.2467 21.5 12C21.5 6.75329 17.2467 2.5 12 2.5Z" fill="#080809" style="fill:#080809;fill:color(display-p3 0.0314 0.0314 0.0353);fill-opacity:1;"/>
</g>
<defs>
<clipPath id="clip0_29901_26305">
<rect width="24" height="24" fill="white" style="fill:white;fill-opacity:1;"/>
</clipPath>
</defs>
</svg>
