<svg width="24" height="24" viewBox="0 0 24 24" fill="none" xmlns="http://www.w3.org/2000/svg">
<path fill-rule="evenodd" clip-rule="evenodd" d="M12.9627 1.67697C14.047 0.186111 16.2068 0.0166587 17.5103 1.32017L22.6855 6.49539C23.989 7.79891 23.8195 9.95866 22.3287 11.0429L16.6136 15.1994L22.7071 21.2929C23.0976 21.6834 23.0976 22.3166 22.7071 22.7071C22.3166 23.0976 21.6834 23.0976 21.2929 22.7071L14.9693 16.3836L14.9682 16.3841L13.6158 15.0317L13.6163 15.0306L8.96942 10.3836L8.96832 10.3842L7.61583 9.03173L7.61641 9.03063L1.29289 2.70711C0.902369 2.31658 0.902369 1.68342 1.29289 1.29289C1.68342 0.902369 2.31658 0.902369 2.70711 1.29289L8.8063 7.39208L12.9627 1.67697ZM21.1523 9.42545L15.1818 13.7676L10.2377 8.82347L10.2972 8.74251L14.5802 2.85332C14.9416 2.35637 15.6616 2.29988 16.0961 2.73438L21.2713 7.90961C21.7058 8.34411 21.6493 9.06403 21.1523 9.42545Z" fill="#080809" style="fill:#080809;fill:color(display-p3 0.0314 0.0314 0.0353);fill-opacity:1;"/>
<path d="M7.36666 15.2182L1.29192 21.2929C0.901392 21.6834 0.901392 22.3166 1.29192 22.7071C1.68244 23.0976 2.31561 23.0976 2.70613 22.7071L8.78087 16.6324L12.202 20.0535C12.9594 20.8109 14.0028 20.945 14.8523 20.6248C15.3691 20.43 15.6301 19.8532 15.4353 19.3364C15.2405 18.8196 14.6636 18.5586 14.1469 18.7534C13.9645 18.8221 13.7686 18.7916 13.6162 18.6393L5.36481 10.3879C5.21212 10.2352 5.1818 10.0386 5.25133 9.85576C5.44766 9.33955 5.18835 8.76192 4.67214 8.56559C4.15593 8.36926 3.5783 8.62857 3.38197 9.14478C3.05842 9.99548 3.19103 11.0425 3.9506 11.8021L7.36666 15.2182Z" fill="#080809" style="fill:#080809;fill:color(display-p3 0.0314 0.0314 0.0353);fill-opacity:1;"/>
</svg>
