<svg width="24" height="24" viewBox="0 0 24 24" fill="none" xmlns="http://www.w3.org/2000/svg">
<path d="M16.75 13.2986C17.75 12.7212 17.75 11.2779 16.75 10.7005L10.75 7.2364C9.75 6.65905 8.5 7.38074 8.5 8.53544L8.5 15.4636C8.5 16.6183 9.75 17.34 10.75 16.7627L16.75 13.2986Z" fill="#080809" style="fill:#080809;fill:color(display-p3 0.0314 0.0314 0.0353);fill-opacity:1;"/>
<path fill-rule="evenodd" clip-rule="evenodd" d="M23.5 12C23.5 5.64873 18.3513 0.5 12 0.5C5.64873 0.5 0.5 5.64873 0.5 12C0.5 18.3513 5.64873 23.5 12 23.5C13.9218 23.5 15.7363 23.0278 17.3308 22.1922C17.4973 22.105 17.6559 22.092 17.7765 22.1233L21.1762 23.0047C22.2835 23.2918 23.2918 22.2835 23.0047 21.1762L22.1233 17.7765C22.092 17.6559 22.105 17.4973 22.1922 17.3308C23.0278 15.7363 23.5 13.9218 23.5 12ZM12 2.5C17.2467 2.5 21.5 6.75329 21.5 12C21.5 13.5908 21.1098 15.0875 20.4207 16.4025C20.1333 16.9511 20.016 17.6177 20.1873 18.2785L20.8554 20.8554L18.2785 20.1873C17.6177 20.016 16.9511 20.1333 16.4025 20.4207C15.0875 21.1098 13.5908 21.5 12 21.5C6.75329 21.5 2.5 17.2467 2.5 12C2.5 6.75329 6.75329 2.5 12 2.5Z" fill="#080809" style="fill:#080809;fill:color(display-p3 0.0314 0.0314 0.0353);fill-opacity:1;"/>
</svg>
