<svg width="24" height="24" viewBox="0 0 24 24" fill="none" xmlns="http://www.w3.org/2000/svg">
<path d="M9.03535 0.679836C9.20181 0.257763 9.79915 0.257763 9.96561 0.679836L10.5522 2.16709C10.603 2.29595 10.705 2.39796 10.8339 2.44878L12.3211 3.03535C12.7432 3.20181 12.7432 3.79915 12.3211 3.96561L10.8339 4.55218C10.705 4.603 10.603 4.705 10.5522 4.83386L9.96561 6.32112C9.79915 6.74319 9.20181 6.74319 9.03535 6.32112L8.44878 4.83386C8.39796 4.705 8.29595 4.603 8.16709 4.55218L6.67984 3.96561C6.25776 3.79915 6.25776 3.20181 6.67984 3.03535L8.16709 2.44878C8.29595 2.39796 8.39796 2.29595 8.44878 2.16709L9.03535 0.679836Z" fill="#080809" style="fill:#080809;fill:color(display-p3 0.0314 0.0314 0.0353);fill-opacity:1;"/>
<path fill-rule="evenodd" clip-rule="evenodd" d="M21.8713 1.9568C20.6997 0.785233 18.8003 0.785231 17.6287 1.9568L1.9568 17.6287C0.785231 18.8003 0.785233 20.6997 1.9568 21.8713L2.12838 22.0429C3.29995 23.2145 5.19945 23.2145 6.37102 22.0429L22.0429 6.37102C23.2145 5.19945 23.2145 3.29995 22.0429 2.12838L21.8713 1.9568ZM19.0429 3.37102C19.4334 2.98049 20.0666 2.98049 20.4571 3.37102L20.6287 3.54259C21.0192 3.93312 21.0192 4.56628 20.6287 4.9568L17.5 8.08548L15.9142 6.4997L19.0429 3.37102Z" fill="#080809" style="fill:#080809;fill:color(display-p3 0.0314 0.0314 0.0353);fill-opacity:1;"/>
<path d="M20.9656 11.6798C20.7991 11.2578 20.2018 11.2578 20.0353 11.6798L19.4488 13.1671C19.398 13.296 19.296 13.398 19.1671 13.4488L17.6798 14.0353C17.2578 14.2018 17.2578 14.7991 17.6798 14.9656L19.1671 15.5522C19.296 15.603 19.398 15.705 19.4488 15.8339L20.0353 17.3211C20.2018 17.7432 20.7991 17.7432 20.9656 17.3211L21.5522 15.8339C21.603 15.705 21.705 15.603 21.8339 15.5522L23.3211 14.9656C23.7432 14.7991 23.7432 14.2018 23.3211 14.0353L21.8339 13.4488C21.705 13.398 21.603 13.296 21.5522 13.1671L20.9656 11.6798Z" fill="#080809" style="fill:#080809;fill:color(display-p3 0.0314 0.0314 0.0353);fill-opacity:1;"/>
</svg>
