<svg width="24" height="24" viewBox="0 0 24 24" fill="none" xmlns="http://www.w3.org/2000/svg">
<path d="M10.9961 11.6318C10.6866 11.4549 10.3064 11.4562 9.99807 11.6351C9.68976 11.814 9.5 12.1435 9.5 12.5V16.5C9.5 16.8565 9.68976 17.186 9.99807 17.3649C10.3064 17.5438 10.6866 17.5451 10.9961 17.3682L14.4961 15.3682C14.8077 15.1902 15 14.8589 15 14.5C15 14.1411 14.8077 13.8098 14.4961 13.6318L10.9961 11.6318Z" fill="#080809" style="fill:#080809;fill:color(display-p3 0.0314 0.0314 0.0353);fill-opacity:1;"/>
<path fill-rule="evenodd" clip-rule="evenodd" d="M9.42684 3H14.5732C16.3966 2.99997 17.8664 2.99995 19.0223 3.15537C20.2225 3.31672 21.233 3.66191 22.0355 4.46447C22.8381 5.26702 23.1833 6.27752 23.3446 7.47767C23.5001 8.63363 23.5 10.1034 23.5 11.9269V12.0731C23.5 13.8966 23.5001 15.3664 23.3446 16.5223C23.1833 17.7225 22.8381 18.733 22.0355 19.5355C21.233 20.3381 20.2225 20.6833 19.0223 20.8446C17.8664 21.0001 16.3966 21 14.5731 21H9.42687C7.6034 21 6.13363 21.0001 4.97767 20.8446C3.77752 20.6833 2.76702 20.3381 1.96447 19.5355C1.16191 18.733 0.816722 17.7225 0.655367 16.5223C0.499954 15.3664 0.499975 13.8966 0.500001 12.0732V11.9268C0.499975 10.1034 0.499954 8.63362 0.655367 7.47767C0.816722 6.27752 1.16191 5.26702 1.96447 4.46447C2.76702 3.66191 3.77752 3.31672 4.97767 3.15537C6.13362 2.99995 7.6034 2.99997 9.42684 3ZM3.37868 5.87868C3.7477 5.50967 4.2658 5.26907 5.24416 5.13753C5.68194 5.07867 6.18163 5.045 6.76388 5.02574L7.65615 8H2.6067C2.61612 7.9124 2.62637 7.82717 2.63753 7.74416C2.76907 6.7658 3.00967 6.2477 3.37868 5.87868ZM2.5089 10C2.50033 10.5877 2.5 11.2493 2.5 12C2.5 13.9139 2.50213 15.2487 2.63753 16.2558C2.76907 17.2342 3.00967 17.7523 3.37868 18.1213C3.7477 18.4903 4.2658 18.7309 5.24416 18.8625C6.2513 18.9979 7.58611 19 9.5 19H14.5C16.4139 19 17.7487 18.9979 18.7558 18.8625C19.7342 18.7309 20.2523 18.4903 20.6213 18.1213C20.9903 17.7523 21.2309 17.2342 21.3625 16.2558C21.4979 15.2487 21.5 13.9139 21.5 12C21.5 11.2493 21.4997 10.5877 21.4911 10H16.5322C16.5106 10.0007 16.489 10.0007 16.4676 10H9.03219C9.01057 10.0007 8.98902 10.0007 8.96756 10H2.5089ZM21.3933 8C21.3839 7.9124 21.3736 7.82717 21.3625 7.74416C21.2309 6.7658 20.9903 6.2477 20.6213 5.87868C20.2523 5.50967 19.7342 5.26907 18.7558 5.13753C18.1097 5.05066 17.3286 5.01865 16.3463 5.00686L17.2442 8H21.3933ZM14.2562 5H9.5C9.27347 5 9.05504 5.00003 8.84431 5.00031L9.74422 8H15.1562L14.2562 5Z" fill="#080809" style="fill:#080809;fill:color(display-p3 0.0314 0.0314 0.0353);fill-opacity:1;"/>
</svg>
