<svg width="24" height="24" viewBox="0 0 24 24" fill="none" xmlns="http://www.w3.org/2000/svg">
<path d="M15.5 15H14.5V9H15.5C16.6046 9 17.5 9.89543 17.5 11V13C17.5 14.1046 16.6046 15 15.5 15Z" fill="#080809" style="fill:#080809;fill:color(display-p3 0.0314 0.0314 0.0353);fill-opacity:1;"/>
<path fill-rule="evenodd" clip-rule="evenodd" d="M12.0748 1H11.9252C9.63166 0.999979 7.80859 0.999962 6.3804 1.19198C4.90794 1.38994 3.70636 1.80836 2.75736 2.75736C1.80836 3.70636 1.38994 4.90794 1.19198 6.3804C0.999962 7.80859 0.999979 9.63164 1 11.9252V12.0748C0.999979 14.3683 0.999962 16.1914 1.19198 17.6196C1.38994 19.0921 1.80836 20.2936 2.75736 21.2426C3.70636 22.1916 4.90794 22.6101 6.3804 22.808C7.8086 23 9.63167 23 11.9252 23H12.0748C14.3683 23 16.1914 23 17.6196 22.808C19.0921 22.6101 20.2936 22.1916 21.2426 21.2426C22.1916 20.2936 22.6101 19.0921 22.808 17.6196C23 16.1914 23 14.3683 23 12.0748V11.9252C23 9.63167 23 7.8086 22.808 6.3804C22.6101 4.90794 22.1916 3.70636 21.2426 2.75736C20.2936 1.80836 19.0921 1.38994 17.6196 1.19198C16.1914 0.999962 14.3683 0.999979 12.0748 1ZM5.00024 8C5.00024 7.44772 5.44795 7 6.00024 7H10.0002C10.3883 7 10.7412 7.22446 10.9058 7.57585C11.0704 7.92723 11.0169 8.3421 10.7685 8.64018L9.39462 10.2888C10.6338 10.8276 11.5002 12.0626 11.5002 13.5C11.5002 15.4408 9.91031 17 7.98515 17C6.37236 17 4.94545 15.904 4.55157 14.3284L4.53009 14.2425C4.39615 13.7067 4.72191 13.1638 5.2577 13.0299C5.7935 12.8959 6.33643 13.2217 6.47038 13.7575L6.49185 13.8434C6.66044 14.5177 7.27884 15 7.98515 15C8.82142 15 9.50024 14.3206 9.50024 13.5C9.50024 12.6716 8.82866 12 8.00024 12H7.50024C7.11222 12 6.75923 11.7755 6.59465 11.4242C6.43007 11.0728 6.48361 10.6579 6.73202 10.3598L7.8652 9H6.00024C5.44795 9 5.00024 8.55229 5.00024 8ZM13.5 7C12.9477 7 12.5 7.44772 12.5 8V16C12.5 16.5523 12.9477 17 13.5 17H15.5C17.7091 17 19.5 15.2091 19.5 13V11C19.5 8.79086 17.7091 7 15.5 7H13.5Z" fill="#080809" style="fill:#080809;fill:color(display-p3 0.0314 0.0314 0.0353);fill-opacity:1;"/>
</svg>
