<svg width="24" height="24" viewBox="0 0 24 24" fill="none" xmlns="http://www.w3.org/2000/svg">
<path fill-rule="evenodd" clip-rule="evenodd" d="M0.5 14C0.5 7.64873 5.64873 2.5 12 2.5C18.3513 2.5 23.5 7.64873 23.5 14C23.5 16.1348 22.9174 18.1365 21.9019 19.8516C21.4513 20.6125 20.6365 21 19.8354 21H4.1646C3.36346 21 2.54867 20.6125 2.09814 19.8516C1.08262 18.1365 0.5 16.1348 0.5 14ZM9 14.5C9 12.8431 10.3431 11.5 12 11.5C12.4632 11.5 12.9019 11.605 13.2935 11.7924L16.293 8.79289C16.6836 8.40237 17.3167 8.40237 17.7073 8.79289C18.0978 9.18342 18.0978 9.81658 17.7073 10.2071L14.7077 13.2067C14.8951 13.5983 15 14.0369 15 14.5C15 16.1569 13.6569 17.5 12 17.5C10.3431 17.5 9 16.1569 9 14.5Z" fill="#080809" style="fill:#080809;fill:color(display-p3 0.0314 0.0314 0.0353);fill-opacity:1;"/>
</svg>
