<svg width="24" height="24" viewBox="0 0 24 24" fill="none" xmlns="http://www.w3.org/2000/svg">
<path fill-rule="evenodd" clip-rule="evenodd" d="M12.0748 1C14.3683 0.999979 16.1914 0.999962 17.6196 1.19198C19.0921 1.38994 20.2936 1.80836 21.2426 2.75736C22.1916 3.70636 22.6101 4.90794 22.808 6.3804C23 7.8086 23 9.63167 23 11.9252V12.0748C23 14.3683 23 16.1914 22.808 17.6196C22.6101 19.0921 22.1916 20.2936 21.2426 21.2426C20.2936 22.1916 19.0921 22.6101 17.6196 22.808C16.1914 23 14.3684 23 12.0748 23H11.9252C9.63165 23 7.80859 23 6.38039 22.808C4.90794 22.6101 3.70636 22.1916 2.75736 21.2426C1.80836 20.2936 1.38994 19.0921 1.19198 17.6196C0.999961 16.1914 0.999978 14.3684 1 12.0748V11.9252C0.999981 9.91835 0.999965 8.27171 1.1286 6.93463C1.14697 6.74361 1.16797 6.55892 1.19198 6.3804C1.38994 4.90794 1.80836 3.70636 2.75736 2.75736C3.70636 1.80836 4.90794 1.38994 6.38039 1.19198C6.73744 1.14397 7.11917 1.10797 7.52676 1.08097C8.63661 1.00745 9.93821 1.00067 11.4554 1.00006C11.6098 0.999997 11.7663 0.999999 11.9252 1L12.0748 1ZM6 11C7.44248 11 8.42375 10.9979 9.15857 10.8991C9.86462 10.8042 10.1916 10.6368 10.4142 10.4142C10.6368 10.1916 10.8042 9.86462 10.8991 9.15857C10.9979 8.42375 11 7.44249 11 6V3.00066C9.13096 3.00423 7.73975 3.02721 6.64689 3.17414C6.56872 3.18465 6.49267 3.19573 6.41865 3.20739C5.30832 3.38231 4.65482 3.68833 4.17157 4.17157C4.10714 4.23601 4.04586 4.30347 3.98762 4.37463C3.57993 4.87279 3.32127 5.55254 3.17414 6.64689C3.15578 6.7835 3.13935 6.92477 3.12465 7.07105C3.02177 8.09502 3.00379 9.36459 3.00066 11H6ZM3.00066 13L6.07057 13C7.42469 13 8.54131 13.0001 9.42506 12.8812C10.3529 12.7565 11.1723 12.4845 11.8284 11.8284C12.4845 11.1723 12.7565 10.3529 12.8812 9.42506C13.0001 8.54131 13 7.4247 13 6.07058L13 3.00066C14.869 3.00424 16.2603 3.02721 17.3531 3.17414C18.6038 3.34229 19.313 3.65611 19.8284 4.17158C20.3439 4.68704 20.6577 5.39621 20.8259 6.64689C20.9979 7.92634 21 9.61471 21 12C21 14.3853 20.9979 16.0737 20.8259 17.3531C20.6577 18.6038 20.3439 19.313 19.8284 19.8284C19.313 20.3439 18.6038 20.6577 17.3531 20.8259C16.0737 20.9979 14.3853 21 12 21C9.61471 21 7.92634 20.9979 6.64689 20.8259C5.39621 20.6577 4.68704 20.3439 4.17157 19.8284C3.65611 19.313 3.34229 18.6038 3.17414 17.3531C3.02721 16.2603 3.00423 14.869 3.00066 13Z" fill="#080809" style="fill:#080809;fill:color(display-p3 0.0314 0.0314 0.0353);fill-opacity:1;"/>
</svg>
