<svg width="24" height="24" viewBox="0 0 24 24" fill="none" xmlns="http://www.w3.org/2000/svg">
<path d="M9.73223 2.85443C11.3071 1.27952 14 2.39493 14 4.6222L14 6.50005C14 7.05234 13.5523 7.50005 13 7.50005C12.4477 7.50005 12 7.05234 12 6.50005L12 4.6222C12 4.17675 11.4614 3.95366 11.1464 4.26865L6.70848 8.70661C6.52094 8.89415 6.26659 8.99951 6.00137 8.99951H3.5C2.94772 8.99951 2.5 9.44722 2.5 9.99951V13.9995C2.5 14.5518 2.94772 14.9995 3.5 14.9995H5.99863C6.26384 14.9995 6.5182 15.1049 6.70573 15.2924L11.1464 19.7331C11.4614 20.0481 12 19.825 12 19.3796V17.5001C12 16.9478 12.4477 16.5001 13 16.5001C13.5523 16.5001 14 16.9478 14 17.5001V19.3796C14 21.6068 11.3071 22.7222 9.73223 21.1473L5.58441 16.9995H3.5C1.84315 16.9995 0.5 15.6564 0.5 13.9995V9.99951C0.5 8.34265 1.84315 6.99951 3.5 6.99951H5.58716L9.73223 2.85443Z" fill="#080809" style="fill:#080809;fill:color(display-p3 0.0314 0.0314 0.0353);fill-opacity:1;"/>
<path fill-rule="evenodd" clip-rule="evenodd" d="M13.5 12C13.5 9.23858 15.7386 7 18.5 7C21.2614 7 23.5 9.23858 23.5 12C23.5 14.7614 21.2614 17 18.5 17C15.7386 17 13.5 14.7614 13.5 12ZM15.7928 10.7057C15.6051 11.0976 15.5 11.5365 15.5 12C15.5 13.6569 16.8431 15 18.5 15C18.9635 15 19.4024 14.8949 19.7943 14.7072L15.7928 10.7057ZM17.2075 9.29195L21.208 13.2925C21.3952 12.9011 21.5 12.4628 21.5 12C21.5 10.3431 20.1569 9 18.5 9C18.0372 9 17.5989 9.10479 17.2075 9.29195Z" fill="#080809" style="fill:#080809;fill:color(display-p3 0.0314 0.0314 0.0353);fill-opacity:1;"/>
</svg>
