<svg width="24" height="24" viewBox="0 0 24 24" fill="none" xmlns="http://www.w3.org/2000/svg">
<path fill-rule="evenodd" clip-rule="evenodd" d="M17.9112 7.00178C18.0049 6.91963 18.0979 6.83272 18.19 6.74066C19.5659 5.36555 19.6193 3.14033 18.2508 1.75906C16.871 0.366412 14.6301 0.444524 13.261 1.81285C12.6548 2.41876 12.2701 3.06285 12 3.67177C11.7299 3.06285 11.3452 2.41876 10.739 1.81285C9.3699 0.444524 7.12899 0.366412 5.74922 1.75906C4.38072 3.14033 4.43411 5.36555 5.81 6.74066C5.90211 6.83272 5.99515 6.91963 6.08885 7.00178C5.33228 7.00684 4.67549 7.02625 4.12358 7.10045C3.33191 7.20689 2.60802 7.44225 2.02513 8.02513C1.44225 8.60802 1.20689 9.33191 1.10045 10.1236C1.02917 10.6538 1.00845 11.2808 1.00245 12L11 12V9H13V12L22.9976 12C22.9916 11.2808 22.9708 10.6538 22.8996 10.1236C22.7931 9.33191 22.5578 8.60802 21.9749 8.02513C21.392 7.44225 20.6681 7.20689 19.8764 7.10045C19.3245 7.02625 18.6677 7.00684 17.9112 7.00178ZM7.16998 3.16669C7.71973 2.61181 8.68833 2.59098 9.32518 3.22746C10.0508 3.95268 10.2875 4.71035 10.5768 5.63632L10.5773 5.63794C10.6057 5.72893 10.6347 5.82154 10.6646 5.9159L10.6665 5.92175C10.7885 6.29795 10.8803 6.60272 10.9575 6.85909L11 7L10.8758 6.96259C10.6157 6.88437 10.3057 6.79115 9.92049 6.66695C9.7993 6.62737 9.68122 6.58977 9.56594 6.55307C8.66265 6.26549 7.93059 6.03243 7.22382 5.32605C6.59377 4.69635 6.60896 3.73296 7.16998 3.16669ZM13 7L13.1243 6.96259C13.3843 6.88437 13.6943 6.79115 14.0795 6.66695C14.2007 6.62737 14.3188 6.58977 14.4341 6.55307C15.3374 6.26549 16.0694 6.03243 16.7762 5.32605C17.4062 4.69635 17.3911 3.73296 16.83 3.16669C16.2803 2.61181 15.3117 2.59098 14.6748 3.22746C13.9492 3.95268 13.7125 4.71035 13.4232 5.63632L13.4227 5.63794C13.3943 5.72893 13.3653 5.82154 13.3354 5.9159L13.3335 5.92175C13.2115 6.29795 13.1197 6.60272 13.0425 6.85909L13 7Z" fill="#080809" style="fill:#080809;fill:color(display-p3 0.0314 0.0314 0.0353);fill-opacity:1;"/>
<path d="M1 17.0686V14L11 14L11 23H6.93131C5.81139 23 4.87124 23.0001 4.12358 22.8996C3.33191 22.7931 2.60802 22.5578 2.02513 21.9749C1.44225 21.392 1.20689 20.6681 1.10045 19.8764C0.999934 19.1288 0.999965 18.1885 1 17.0686Z" fill="#080809" style="fill:#080809;fill:color(display-p3 0.0314 0.0314 0.0353);fill-opacity:1;"/>
<path d="M17.0686 23H13L13 14L23 14L23 17.0686C23.0001 18.1886 23.0001 19.1287 22.8996 19.8764C22.7931 20.6681 22.5578 21.392 21.9749 21.9749C21.392 22.5578 20.6681 22.7931 19.8764 22.8996C19.1288 23.0001 18.1885 23 17.0686 23Z" fill="#080809" style="fill:#080809;fill:color(display-p3 0.0314 0.0314 0.0353);fill-opacity:1;"/>
</svg>
