<svg width="24" height="24" viewBox="0 0 24 24" fill="none" xmlns="http://www.w3.org/2000/svg">
<path fill-rule="evenodd" clip-rule="evenodd" d="M2.5224 9.79047C2.51668 9.81717 2.51209 9.84385 2.50858 9.87046C1.5892 10.6033 1 11.7329 1 13V15C1 16.0144 1.37764 16.9407 2 17.6458V21C2 21.5523 2.44772 22 3 22H4C4.55228 22 5 21.5523 5 21L5 19H19V21C19 21.5523 19.4477 22 20 22H21C21.5523 22 22 21.5523 22 21V17.6458C22.6224 16.9407 23 16.0144 23 15V13C23 11.7331 22.411 10.6037 21.4919 9.87083C21.4884 9.8441 21.4838 9.81729 21.478 9.79047L20.4862 5.16188C20.091 3.3176 18.4611 2 16.575 2H7.42545C5.5393 2 3.90945 3.3176 3.51424 5.16189L2.5224 9.79047ZM7.42545 4C6.48238 4 5.66745 4.6588 5.46985 5.58094L4.73535 9.00862C4.82283 9.0029 4.91108 9 5 9H19C19.0891 9 19.1775 9.00291 19.2651 9.00864L18.5306 5.58094C18.333 4.6588 17.518 4 16.575 4H14.5C14.5 4.55228 14.0523 5 13.5 5H10.5C9.94771 5 9.5 4.55228 9.5 4H7.42545ZM19.5 14C19.5 14.8284 18.8284 15.5 18 15.5C17.1716 15.5 16.5 14.8284 16.5 14C16.5 13.1716 17.1716 12.5 18 12.5C18.8284 12.5 19.5 13.1716 19.5 14ZM6 15.5C6.82843 15.5 7.5 14.8284 7.5 14C7.5 13.1716 6.82843 12.5 6 12.5C5.17157 12.5 4.5 13.1716 4.5 14C4.5 14.8284 5.17157 15.5 6 15.5Z" fill="#080809" style="fill:#080809;fill:color(display-p3 0.0314 0.0314 0.0353);fill-opacity:1;"/>
</svg>
