<svg width="24" height="24" viewBox="0 0 24 24" fill="none" xmlns="http://www.w3.org/2000/svg">
<g clip-path="url(#clip0_29901_27785)">
<path fill-rule="evenodd" clip-rule="evenodd" d="M12 0.5C5.64873 0.5 0.5 5.64873 0.5 12C0.5 18.3513 5.64873 23.5 12 23.5C18.3513 23.5 23.5 18.3513 23.5 12C23.5 5.64873 18.3513 0.5 12 0.5ZM12.923 8.11597C12.7678 7.74301 12.4036 7.5 11.9996 7.5C11.5957 7.5 11.2314 7.74301 11.0763 8.11597L10.3851 9.77781L8.59103 9.92164C8.18839 9.95392 7.84471 10.2253 7.71989 10.6094C7.59506 10.9936 7.71362 11.4151 8.02039 11.6779L9.3873 12.8488L8.96968 14.5995C8.87596 14.9924 9.02782 15.4032 9.35461 15.6406C9.68139 15.878 10.1189 15.8955 10.4636 15.685L11.9996 14.7468L13.5356 15.685C13.8803 15.8955 14.3179 15.878 14.6447 15.6406C14.9715 15.4032 15.1233 14.9924 15.0296 14.5995L14.612 12.8488L15.9789 11.6779C16.2857 11.4151 16.4042 10.9936 16.2794 10.6094C16.1546 10.2253 15.8109 9.95392 15.4083 9.92164L13.6142 9.77781L12.923 8.11597Z" fill="#080809" style="fill:#080809;fill:color(display-p3 0.0314 0.0314 0.0353);fill-opacity:1;"/>
</g>
<defs>
<clipPath id="clip0_29901_27785">
<rect width="24" height="24" fill="white" style="fill:white;fill-opacity:1;"/>
</clipPath>
</defs>
</svg>
