<svg width="24" height="24" viewBox="0 0 24 24" fill="none" xmlns="http://www.w3.org/2000/svg">
<path d="M12 1.75C11.3096 1.75 10.75 2.30964 10.75 3V13.9916C9.12819 12.3707 7.51173 10.7439 5.88388 9.11611C5.39572 8.62796 4.60427 8.62796 4.11611 9.11612C3.62796 9.60428 3.62796 10.3957 4.11612 10.8839C6.32652 13.0943 8.54049 15.3274 10.7663 17.5369C11.4503 18.216 12.5539 18.2134 13.2352 17.5332C15.4533 15.3182 17.6687 13.0991 19.8839 10.8839C20.372 10.3957 20.372 9.60428 19.8839 9.11612C19.3957 8.62796 18.6043 8.62796 18.1161 9.11611C16.4929 10.7393 14.872 12.3622 13.25 13.9841V3C13.25 2.30964 12.6904 1.75 12 1.75Z" fill="#080809" style="fill:#080809;fill:color(display-p3 0.0314 0.0314 0.0353);fill-opacity:1;"/>
<path d="M4.11611 14.1161C3.62796 14.6043 3.62796 15.3957 4.11612 15.8839C5.7311 17.4988 7.36806 19.1462 9.00191 20.7791C10.6593 22.4354 13.3411 22.4283 14.9945 20.7751C16.6254 19.1444 18.2571 17.5107 19.8839 15.8839C20.372 15.3957 20.372 14.6043 19.8839 14.1161C19.3957 13.628 18.6043 13.628 18.1161 14.1161C16.4867 15.7455 14.8596 17.3747 13.2269 19.0072C12.546 19.688 11.4466 19.6878 10.7691 19.0108C9.12643 17.369 7.51167 15.7439 5.88388 14.1161C5.39572 13.628 4.60427 13.628 4.11611 14.1161Z" fill="#080809" style="fill:#080809;fill:color(display-p3 0.0314 0.0314 0.0353);fill-opacity:1;"/>
</svg>
