<svg width="24" height="24" viewBox="0 0 24 24" fill="none" xmlns="http://www.w3.org/2000/svg">
<path fill-rule="evenodd" clip-rule="evenodd" d="M12 1.5C16.0807 1.5 19.6147 3.82932 21.3525 7.22949L22.7686 7.58398C23.1978 7.69226 23.5 8.07881 23.5 8.52148V9.57422C23.5 9.9393 23.2926 10.2736 22.9658 10.4375L22.4609 10.6914L22.4307 10.8115C22.4746 11.2017 22.5 11.5981 22.5 12C22.5 17.799 17.799 22.5 12 22.5C6.20101 22.5 1.5 17.799 1.5 12C1.5 11.5971 1.52515 11.1997 1.56934 10.8086L1.54004 10.6914L1.03418 10.4375C0.707429 10.2746 0.5 9.94026 0.5 9.57422V8.52148C0.500022 8.07785 0.802237 7.6913 1.23438 7.58398L2.64551 7.23145C4.3829 3.83 7.91839 1.5 12 1.5ZM12.7529 11.125C12.4904 10.5165 11.5106 10.5165 11.248 11.125C11.1117 11.4397 10.8783 12.4421 10.876 12.4521C10.4227 14.1137 8.98376 15.3194 7.26855 15.4756L6.35547 15.5586C5.5489 15.6318 4.76945 15.466 4.0918 15.1162C5.33498 18.2686 8.40595 20.5 12 20.5C15.5939 20.5 18.664 18.2684 19.9072 15.1162C19.2299 15.4655 18.4515 15.6318 17.6455 15.5586L16.7324 15.4756C15.0172 15.3194 13.5782 14.1137 13.125 12.4521C13.1227 12.4423 12.8883 11.4398 12.7529 11.125ZM12 3.5C9.37232 3.5 7.02305 4.69227 5.46387 6.56543C6.20338 6.48022 6.94986 6.47863 7.68848 6.56543C8.64556 6.62483 9.59704 6.79254 10.5254 7.07129L11.0684 7.23438C11.6768 7.41735 12.3262 7.41736 12.9346 7.23438L13.4775 7.07129C14.4059 6.79255 15.3584 6.62387 16.3154 6.56543C17.0521 6.47886 17.7966 6.48078 18.5342 6.56543C16.975 4.69282 14.6272 3.5 12 3.5Z" fill="#080809" style="fill:#080809;fill:color(display-p3 0.0314 0.0314 0.0353);fill-opacity:1;"/>
</svg>
