<svg width="24" height="24" viewBox="0 0 24 24" fill="none" xmlns="http://www.w3.org/2000/svg">
<path d="M12 4.99902C12.4039 4.99902 12.7677 5.24228 12.9229 5.61523L13.7461 7.59473L15.8838 7.7666C16.2864 7.79888 16.6301 8.06994 16.7549 8.4541C16.8797 8.83819 16.7617 9.25968 16.4551 9.52246L14.8262 10.917L15.3242 13.0029C15.4179 13.3958 15.2653 13.8065 14.9385 14.0439C14.6118 14.2812 14.1747 14.2992 13.8301 14.0889L12 12.9707L10.1699 14.0889C9.82533 14.2992 9.38819 14.2812 9.06152 14.0439C8.73474 13.8065 8.58206 13.3958 8.67578 13.0029L9.17285 10.917L7.54492 9.52246C7.23827 9.25968 7.12033 8.83819 7.24512 8.4541C7.36994 8.06994 7.71357 7.79888 8.11621 7.7666L10.2529 7.59473L11.0771 5.61523L11.1445 5.48145C11.3237 5.18513 11.6466 4.99902 12 4.99902Z" fill="#080809" style="fill:#080809;fill:color(display-p3 0.0314 0.0314 0.0353);fill-opacity:1;"/>
<path fill-rule="evenodd" clip-rule="evenodd" d="M18 0.5C19.6569 0.5 21 1.84315 21 3.5V21C20.9997 23.0598 18.648 24.2358 17 23L12.2998 19.4746C12.1221 19.3416 11.8779 19.3416 11.7002 19.4746L7 23C5.352 24.2358 3.0003 23.0598 3 21V3.5C3 1.84314 4.34315 0.5 6 0.5H18ZM6 2.5C5.44771 2.5 5 2.94772 5 3.5V21C5.0003 21.4118 5.47029 21.6465 5.7998 21.3994L10.5 17.875C11.3889 17.2084 12.6111 17.2084 13.5 17.875L18.2002 21.3994C18.5297 21.6465 18.9997 21.4118 19 21V3.5C19 2.94772 18.5523 2.5 18 2.5H6Z" fill="#080809" style="fill:#080809;fill:color(display-p3 0.0314 0.0314 0.0353);fill-opacity:1;"/>
</svg>
