<svg width="24" height="24" viewBox="0 0 24 24" fill="none" xmlns="http://www.w3.org/2000/svg">
<path fill-rule="evenodd" clip-rule="evenodd" d="M16.1301 2.45706C17.3017 1.28548 19.2012 1.28547 20.3728 2.45705L21.5443 3.62862C22.7159 4.80019 22.7159 6.69969 21.5443 7.87126L18.9156 10.5L19.2086 10.7929C19.5991 11.1834 19.5991 11.8166 19.2086 12.2071C18.818 12.5976 18.1849 12.5976 17.7944 12.2071L17.5015 11.9143L15.7153 13.7005C15.7131 13.7027 15.711 13.7049 15.7088 13.7071L8.1481 21.2678C7.67926 21.7366 7.04338 22 6.38034 22H4.23773L3.79051 22.2236C2.72907 22.7543 1.61445 21.9211 1.61328 20.8906C1.61302 20.6693 1.66409 20.439 1.77805 20.2111L2.00162 19.7639V17.6213C2.00162 16.9583 2.26501 16.3224 2.73385 15.8536L12.0873 6.50008L11.7944 6.20711C11.4038 5.81658 11.4038 5.18342 11.7944 4.79289C12.1849 4.40237 12.818 4.40237 13.2086 4.79289L13.5014 5.08576L16.1301 2.45706ZM14.5874 12H9.41583L13.5015 7.91429L16.0873 10.5001L14.5874 12Z" fill="#080809" style="fill:#080809;fill:color(display-p3 0.0314 0.0314 0.0353);fill-opacity:1;"/>
</svg>
