<svg width="24" height="24" viewBox="0 0 24 24" fill="none" xmlns="http://www.w3.org/2000/svg">
<path d="M13 1H11.9252C9.63165 0.999978 7.80859 0.999961 6.38039 1.19198C5.28646 1.33905 4.34204 1.6078 3.53962 2.12541L2.70711 1.29289C2.31658 0.902369 1.68342 0.902369 1.29289 1.29289C0.902369 1.68342 0.902369 2.31658 1.29289 2.70711L19.8281 21.2424L21.2929 22.7071C21.6834 23.0976 22.3166 23.0976 22.7071 22.7071C23.0976 22.3166 23.0976 21.6834 22.7071 21.2929L21.8746 20.4604C22.3922 19.658 22.661 18.7135 22.808 17.6196C23 16.1914 23 14.3683 23 12.0748V11C23 10.4477 22.5523 10 22 10C21.4477 10 21 10.4477 21 11V12C21 14.3853 20.9979 16.0737 20.8259 17.3531C20.7329 18.0446 20.5954 18.5705 20.4039 18.9897L5.01029 3.59607C5.42949 3.4046 5.95543 3.26711 6.64689 3.17414C7.92634 3.00213 9.61471 3 12 3H13C13.5523 3 14 2.55229 14 2C14 1.44772 13.5523 1 13 1Z" fill="#080809" style="fill:#080809;fill:color(display-p3 0.0314 0.0314 0.0353);fill-opacity:1;"/>
<path d="M3.11176 7.2067C3.16191 6.6567 2.7567 6.17017 2.2067 6.12002C1.6567 6.06987 1.17017 6.47507 1.12002 7.02508C0.999989 8.34138 0.999994 9.96834 1 11.9534V12.0748C0.999978 14.3683 0.999961 16.1914 1.19198 17.6196C1.38994 19.0921 1.80836 20.2936 2.75736 21.2426C3.70636 22.1916 4.90794 22.6101 6.38039 22.808C7.8086 23 9.63167 23 11.9252 23H12.0465C14.0316 23 15.6586 23 16.9749 22.88C17.5249 22.8298 17.9301 22.3433 17.88 21.7933C17.8298 21.2433 17.3433 20.8381 16.7933 20.8882C15.5782 20.9991 14.0415 21 12 21C9.61471 21 7.92634 20.9979 6.64689 20.8259C5.39621 20.6577 4.68704 20.3439 4.17157 19.8284C3.65611 19.313 3.34229 18.6038 3.17414 17.3531C3.00213 16.0737 3 14.3853 3 12C3 9.95853 3.00095 8.42182 3.11176 7.2067Z" fill="#080809" style="fill:#080809;fill:color(display-p3 0.0314 0.0314 0.0353);fill-opacity:1;"/>
<path d="M15 5C15 2.79086 16.7909 1 19 1C21.2091 1 23 2.79086 23 5C23 7.20914 21.2091 9 19 9C16.7909 9 15 7.20914 15 5Z" fill="#080809" style="fill:#080809;fill:color(display-p3 0.0314 0.0314 0.0353);fill-opacity:1;"/>
</svg>
