<svg width="24" height="24" viewBox="0 0 24 24" fill="none" xmlns="http://www.w3.org/2000/svg">
<g clip-path="url(#clip0_29901_26472)">
<path fill-rule="evenodd" clip-rule="evenodd" d="M19.0616 1H8.93839C8.28428 0.999942 7.69655 0.999887 7.22084 1.06384C6.70148 1.13367 6.16867 1.2958 5.73223 1.73224C5.29579 2.16868 5.13366 2.70149 5.06384 3.22085C4.99988 3.69656 4.99993 4.28429 5 4.93842L5.00001 6.00001L4.9384 6C4.28428 5.99994 3.69656 5.99989 3.22085 6.06384C2.70149 6.13367 2.16868 6.2958 1.73224 6.73224C1.2958 7.16868 1.13367 7.70149 1.06384 8.22085C0.999886 8.69656 0.999941 9.28427 1 9.9384L1.00001 20C1.00001 21.6569 2.34315 23 4 23H13C13.5523 23 14 22.5523 14 22C14 21.4477 13.5523 21 13 21H6.82929C6.93985 20.6872 7 20.3506 7 20L7.00001 7.00001L7 6.99606V5.00001C7 4.26463 7.00212 3.8137 7.046 3.48735C7.08456 3.20051 7.13942 3.15261 7.14592 3.14692L7.14692 3.14593C7.1526 3.13942 7.20049 3.08457 7.48734 3.04601C7.81369 3.00213 8.26462 3.00001 9 3.00001H19C19.7354 3.00001 20.1863 3.00213 20.5127 3.04601C20.7995 3.08457 20.8474 3.13942 20.8531 3.14593L20.8541 3.14692C20.8606 3.15261 20.9154 3.2005 20.954 3.48735C20.9979 3.8137 21 4.26463 21 5.00001V9.00001C21 9.55229 21.4477 10 22 10C22.5523 10 23 9.55229 23 9.00001L23 4.9384C23.0001 4.28428 23.0001 3.69656 22.9362 3.22085C22.8663 2.70149 22.7042 2.16868 22.2678 1.73224C21.8313 1.2958 21.2985 1.13367 20.7792 1.06384C20.3035 0.999887 19.7157 0.999942 19.0616 1ZM5.00001 8.00001L5 20C5 20.5523 4.55228 21 4 21C3.44772 21 3.00001 20.5523 3.00001 20V10C3.00001 9.26463 3.00213 8.8137 3.04601 8.48735C3.08457 8.2005 3.13943 8.15261 3.14593 8.14692L3.14692 8.14593C3.15261 8.13943 3.2005 8.08457 3.48735 8.04601C3.8137 8.00213 4.26463 8.00001 5.00001 8.00001Z" fill="#080809" style="fill:#080809;fill:color(display-p3 0.0314 0.0314 0.0353);fill-opacity:1;"/>
<path d="M20 16C20 16.8284 19.3284 17.5 18.5 17.5C17.6716 17.5 17 16.8284 17 16C17 15.1716 17.6716 14.5 18.5 14.5C19.3284 14.5 20 15.1716 20 16Z" fill="#080809" style="fill:#080809;fill:color(display-p3 0.0314 0.0314 0.0353);fill-opacity:1;"/>
<path fill-rule="evenodd" clip-rule="evenodd" d="M13.0003 16C13.0001 15.979 13 15.958 13 15.937C13 15.255 13.1277 14.602 13.3606 14H10C9.44772 14 9.00001 13.5523 9.00001 13C9.00001 12.4477 9.44772 12 10 12H14.7103C15.6975 11.071 17.0325 10.5 18.5 10.5C21.533 10.5 24 12.939 24 15.937C24 20.287 19.278 23.674 19.077 23.816C18.904 23.939 18.702 24 18.5 24C18.298 24 18.096 23.939 17.923 23.816C17.7551 23.6974 14.4343 21.3157 13.3437 18H10C9.44772 18 9.00001 17.5523 9.00001 17C9.00001 16.4477 9.44772 16 10 16H13.0003ZM15 15.937C15 14.042 16.57 12.5 18.5 12.5C20.43 12.5 22 14.042 22 15.937C22 18.479 19.619 20.784 18.495 21.73C17.163 20.614 15 18.303 15 15.937Z" fill="#080809" style="fill:#080809;fill:color(display-p3 0.0314 0.0314 0.0353);fill-opacity:1;"/>
<path d="M9.00001 7C9.00001 8.10457 9.89544 9 11 9C12.1046 9 13 8.10457 13 7C13 5.89543 12.1046 5 11 5C9.89544 5 9.00001 5.89543 9.00001 7Z" fill="#080809" style="fill:#080809;fill:color(display-p3 0.0314 0.0314 0.0353);fill-opacity:1;"/>
</g>
<defs>
<clipPath id="clip0_29901_26472">
<rect width="24" height="24" fill="white" style="fill:white;fill-opacity:1;"/>
</clipPath>
</defs>
</svg>
