<svg width="24" height="24" viewBox="0 0 24 24" fill="none" xmlns="http://www.w3.org/2000/svg">
<path fill-rule="evenodd" clip-rule="evenodd" d="M5 6V3.5C5 2.11929 6.11929 1 7.5 1H20.5C21.8807 1 23 2.11929 23 3.5V14.0732C23 15.8966 23 17.3664 22.8446 18.5223C22.6833 19.7225 22.3381 20.733 21.5355 21.5355C20.733 22.3381 19.7225 22.6833 18.5223 22.8446C17.3664 23 15.8966 23 14.0731 23H4C2.34315 23 1 21.6569 1 20V8.5C1 7.11929 2.11929 6 3.5 6H5ZM4.00647 21C4.55577 20.9965 5 20.5501 5 20L5 8H3.5C3.22386 8 3 8.22386 3 8.5V20C3 20.5523 3.44772 21 4 21L4.00647 21ZM19 17C19 16.4477 18.5523 16 18 16H10C9.44771 16 9 16.4477 9 17C9 17.5523 9.44771 18 10 18H18C18.5523 18 19 17.5523 19 17ZM18 12C18.5523 12 19 12.4477 19 13C19 13.5523 18.5523 14 18 14H10C9.44771 14 9 13.5523 9 13C9 12.4477 9.44771 12 10 12H18ZM10 5C9.44771 5 9 5.44772 9 6V9C9 9.55228 9.44771 10 10 10H18C18.5523 10 19 9.55228 19 9V6C19 5.44772 18.5523 5 18 5H10Z" fill="#080809" style="fill:#080809;fill:color(display-p3 0.0314 0.0314 0.0353);fill-opacity:1;"/>
</svg>
