<svg width="24" height="24" viewBox="0 0 24 24" fill="none" xmlns="http://www.w3.org/2000/svg">
<path d="M8.70688 4.70711C9.0974 4.31658 9.0974 3.68342 8.70688 3.29289C8.31636 2.90237 7.68319 2.90237 7.29267 3.29289L4.35333 6.23223C3.37701 7.20855 3.37702 8.79146 4.35333 9.76777L7.29267 12.7071C7.68319 13.0976 8.31636 13.0976 8.70688 12.7071C9.0974 12.3166 9.0974 11.6834 8.70688 11.2929L6.41399 9H13C14.4425 9 15.4237 9.00213 16.1586 9.10092C16.8646 9.19585 17.1916 9.36322 17.4142 9.58579C17.6368 9.80836 17.8042 10.1354 17.8991 10.8414C17.9979 11.5763 18 12.5575 18 14V20C18 20.5523 18.4477 21 19 21C19.5523 21 20 20.5523 20 20L20 13.9294C20 12.5753 20.0001 11.4587 19.8812 10.5749C19.7565 9.64711 19.4845 8.82768 18.8284 8.17158C18.1723 7.51547 17.3529 7.2435 16.4251 7.11875C15.5413 6.99994 14.4247 6.99997 13.0706 7L6.41399 7L8.70688 4.70711Z" fill="#080809" style="fill:#080809;fill:color(display-p3 0.0314 0.0314 0.0353);fill-opacity:1;"/>
</svg>
