<svg width="24" height="24" viewBox="0 0 24 24" fill="none" xmlns="http://www.w3.org/2000/svg">
<path fill-rule="evenodd" clip-rule="evenodd" d="M7 4.0004V3C7 1.61929 8.11929 0.5 9.5 0.5H14.5C15.8807 0.5 17 1.61929 17 3V4.0004H17.5001L17.6677 4.0002C18.4801 3.99872 19.2024 3.99742 19.8418 4.31712C20.4812 4.63682 20.9135 5.21539 21.3997 5.86619L21.5001 6.0004L22.5672 7.42303C22.8978 7.8627 23.1908 8.25235 23.3462 8.71838C23.5015 9.18443 23.5009 9.67192 23.5002 10.222L23.5001 15.0709C23.5002 16.425 23.5002 17.5417 23.3814 18.4255C23.2566 19.3533 22.9847 20.1727 22.3286 20.8288C21.6725 21.4849 20.853 21.7569 19.9252 21.8816C19.0415 22.0005 17.9249 22.0004 16.5708 22.0004H7.42959C6.0755 22.0004 4.95882 22.0005 4.07507 21.8816C3.14724 21.7569 2.32782 21.4849 1.67171 20.8288C1.0156 20.1727 0.743634 19.3533 0.61889 18.4255C0.500072 17.5417 0.500101 16.4251 0.500137 15.071L0.500068 10.0515C0.499549 9.5765 0.49909 9.15595 0.616392 8.74694C0.733694 8.33794 0.956976 7.98155 1.20916 7.57904L1.99957 6.31451C2.26756 5.88568 2.50471 5.50619 2.73423 5.20676C2.9831 4.88209 3.26637 4.5915 3.65433 4.37647C4.04229 4.16145 4.43884 4.07526 4.84606 4.03629C5.22163 4.00035 5.6691 4.00037 6.17479 4.0004H7ZM9 3C9 2.72386 9.22386 2.5 9.5 2.5H14.5C14.7761 2.5 15 2.72386 15 3V4.0004L9 4.0004V3ZM18.9474 6.10597C18.7858 6.0252 18.5819 6.0004 17.5001 6.0004H6.21713C5.65642 6.0004 5.30555 6.00145 5.03658 6.02719C4.78882 6.0509 4.68826 6.09007 4.62386 6.12576C4.55947 6.16145 4.47296 6.22597 4.32154 6.4235C4.15716 6.63794 3.97031 6.93492 3.67313 7.4104L2.95614 8.55759C2.62496 9.08749 2.56874 9.19421 2.53889 9.29831C2.50904 9.4024 2.50014 9.5227 2.50014 10.1476V13H5.00098V12.5C5.00098 11.9477 5.44869 11.5 6.00098 11.5C6.55326 11.5 7.00098 11.9477 7.00098 12.5V13H17.001V12.5C17.001 11.9477 17.4487 11.5 18.001 11.5C18.5533 11.5 19.001 11.9477 19.001 12.5V13H21.5001V10.3337C21.5001 9.60835 21.4883 9.46929 21.4488 9.35084C21.4093 9.23238 21.3354 9.11404 20.9001 8.53373L19.9001 7.2004C19.2511 6.33495 19.1089 6.18674 18.9474 6.10597ZM2.50014 15H5.00098V15.5C5.00098 16.0523 5.44869 16.5 6.00098 16.5C6.55326 16.5 7.00098 16.0523 7.00098 15.5V15H17.001V15.5C17.001 16.0523 17.4487 16.5 18.001 16.5C18.5533 16.5 19.001 16.0523 19.001 15.5V15H21.5001C21.5001 16.4425 21.498 17.4241 21.3992 18.159C21.3043 18.865 21.1369 19.192 20.9144 19.4146C20.6918 19.6372 20.3648 19.8046 19.6587 19.8995C18.9239 19.9983 17.9426 20.0004 16.5001 20.0004H7.50014C6.05765 20.0004 5.07639 19.9983 4.34157 19.8995C3.63552 19.8046 3.3085 19.6372 3.08592 19.4146C2.86335 19.192 2.69598 18.865 2.60106 18.159C2.50226 17.4241 2.50014 16.4425 2.50014 15Z" fill="#080809" style="fill:#080809;fill:color(display-p3 0.0314 0.0314 0.0353);fill-opacity:1;"/>
</svg>
