<svg width="24" height="24" viewBox="0 0 24 24" fill="none" xmlns="http://www.w3.org/2000/svg">
<path d="M6.5 14.5C6.22386 14.5 6 14.7239 6 15V16C6 16.2761 6.22386 16.5 6.5 16.5H17.5C17.7761 16.5 18 16.2761 18 16V15C18 14.7239 17.7761 14.5 17.5 14.5H6.5Z" fill="#080809" style="fill:#080809;fill:color(display-p3 0.0314 0.0314 0.0353);fill-opacity:1;"/>
<path d="M4 8C4 7.72386 4.22386 7.5 4.5 7.5H5.5C5.77614 7.5 6 7.72386 6 8V9C6 9.27614 5.77614 9.5 5.5 9.5H4.5C4.22386 9.5 4 9.27614 4 9V8Z" fill="#080809" style="fill:#080809;fill:color(display-p3 0.0314 0.0314 0.0353);fill-opacity:1;"/>
<path d="M4.5 11C4.22386 11 4 11.2239 4 11.5V12.5C4 12.7761 4.22386 13 4.5 13H5.5C5.77614 13 6 12.7761 6 12.5V11.5C6 11.2239 5.77614 11 5.5 11H4.5Z" fill="#080809" style="fill:#080809;fill:color(display-p3 0.0314 0.0314 0.0353);fill-opacity:1;"/>
<path d="M7.5 8C7.5 7.72386 7.72386 7.5 8 7.5H9C9.27614 7.5 9.5 7.72386 9.5 8V9C9.5 9.27614 9.27614 9.5 9 9.5H8C7.72386 9.5 7.5 9.27614 7.5 9V8Z" fill="#080809" style="fill:#080809;fill:color(display-p3 0.0314 0.0314 0.0353);fill-opacity:1;"/>
<path d="M8 11C7.72386 11 7.5 11.2239 7.5 11.5V12.5C7.5 12.7761 7.72386 13 8 13H9C9.27614 13 9.5 12.7761 9.5 12.5V11.5C9.5 11.2239 9.27614 11 9 11H8Z" fill="#080809" style="fill:#080809;fill:color(display-p3 0.0314 0.0314 0.0353);fill-opacity:1;"/>
<path d="M11 8C11 7.72386 11.2239 7.5 11.5 7.5H12.5C12.7761 7.5 13 7.72386 13 8V9C13 9.27614 12.7761 9.5 12.5 9.5H11.5C11.2239 9.5 11 9.27614 11 9V8Z" fill="#080809" style="fill:#080809;fill:color(display-p3 0.0314 0.0314 0.0353);fill-opacity:1;"/>
<path d="M11.5 11C11.2239 11 11 11.2239 11 11.5V12.5C11 12.7761 11.2239 13 11.5 13H12.5C12.7761 13 13 12.7761 13 12.5V11.5C13 11.2239 12.7761 11 12.5 11H11.5Z" fill="#080809" style="fill:#080809;fill:color(display-p3 0.0314 0.0314 0.0353);fill-opacity:1;"/>
<path d="M14.5 8C14.5 7.72386 14.7239 7.5 15 7.5H16C16.2761 7.5 16.5 7.72386 16.5 8V9C16.5 9.27614 16.2761 9.5 16 9.5H15C14.7239 9.5 14.5 9.27614 14.5 9V8Z" fill="#080809" style="fill:#080809;fill:color(display-p3 0.0314 0.0314 0.0353);fill-opacity:1;"/>
<path d="M15 11C14.7239 11 14.5 11.2239 14.5 11.5V12.5C14.5 12.7761 14.7239 13 15 13H16C16.2761 13 16.5 12.7761 16.5 12.5V11.5C16.5 11.2239 16.2761 11 16 11H15Z" fill="#080809" style="fill:#080809;fill:color(display-p3 0.0314 0.0314 0.0353);fill-opacity:1;"/>
<path d="M18 8C18 7.72386 18.2239 7.5 18.5 7.5H19.5C19.7761 7.5 20 7.72386 20 8V9C20 9.27614 19.7761 9.5 19.5 9.5H18.5C18.2239 9.5 18 9.27614 18 9V8Z" fill="#080809" style="fill:#080809;fill:color(display-p3 0.0314 0.0314 0.0353);fill-opacity:1;"/>
<path d="M18.5 11C18.2239 11 18 11.2239 18 11.5V12.5C18 12.7761 18.2239 13 18.5 13H19.5C19.7761 13 20 12.7761 20 12.5V11.5C20 11.2239 19.7761 11 19.5 11H18.5Z" fill="#080809" style="fill:#080809;fill:color(display-p3 0.0314 0.0314 0.0353);fill-opacity:1;"/>
<path fill-rule="evenodd" clip-rule="evenodd" d="M16.5706 4H7.42943C6.07533 3.99997 4.95869 3.99994 4.07494 4.11876C3.14711 4.2435 2.32769 4.51547 1.67158 5.17158C1.01547 5.82769 0.743499 6.64711 0.618756 7.57494C0.499939 8.45869 0.499967 9.57529 0.500001 10.9294V13.0706C0.499967 14.4247 0.499939 15.5413 0.618756 16.4251C0.743499 17.3529 1.01547 18.1723 1.67158 18.8284C2.32769 19.4845 3.14711 19.7565 4.07494 19.8813C4.95868 20.0001 6.07527 20 7.42935 20H16.5706C17.9247 20 19.0413 20.0001 19.9251 19.8813C20.8529 19.7565 21.6723 19.4845 22.3284 18.8284C22.9845 18.1723 23.2565 17.3529 23.3813 16.4251C23.5001 15.5414 23.5 14.4248 23.5 13.0708V10.9295C23.5 9.57544 23.5001 8.45865 23.3813 7.57494C23.2565 6.64711 22.9845 5.82769 22.3284 5.17158C21.6723 4.51547 20.8529 4.2435 19.9251 4.11876C19.0413 3.99994 17.9247 3.99997 16.5706 4ZM3.08579 6.58579C3.30836 6.36322 3.63538 6.19585 4.34144 6.10092C5.07626 6.00213 6.05752 6 7.5 6H16.5C17.9425 6 18.9238 6.00213 19.6586 6.10092C20.3646 6.19585 20.6916 6.36322 20.9142 6.58579C21.1368 6.80836 21.3042 7.13538 21.3991 7.84144C21.4979 8.57626 21.5 9.55752 21.5 11V13C21.5 14.4425 21.4979 15.4238 21.3991 16.1586C21.3042 16.8646 21.1368 17.1916 20.9142 17.4142C20.6916 17.6368 20.3646 17.8042 19.6586 17.8991C18.9238 17.9979 17.9425 18 16.5 18H7.5C6.05752 18 5.07626 17.9979 4.34144 17.8991C3.63538 17.8042 3.30836 17.6368 3.08579 17.4142C2.86322 17.1916 2.69585 16.8646 2.60092 16.1586C2.50213 15.4238 2.5 14.4425 2.5 13V11C2.5 9.55752 2.50213 8.57626 2.60092 7.84144C2.69585 7.13538 2.86322 6.80836 3.08579 6.58579Z" fill="#080809" style="fill:#080809;fill:color(display-p3 0.0314 0.0314 0.0353);fill-opacity:1;"/>
</svg>
