<svg width="24" height="24" viewBox="0 0 24 24" fill="none" xmlns="http://www.w3.org/2000/svg">
<path d="M13 13V21H15C15.5523 21 16 21.4477 16 22C16 22.5523 15.5523 23 15 23H4C2.34315 23 1 21.6569 1 20V4C1 2.34314 2.34315 1 4 1H10C11.6569 1 13 2.34315 13 4V11H15C15.5523 11 16 11.4477 16 12C16 12.5523 15.5523 13 15 13H13Z" fill="#080809" style="fill:#080809;fill:color(display-p3 0.0314 0.0314 0.0353);fill-opacity:1;"/>
<path d="M21 19V20C21 20.5523 20.5523 21 20 21H19C18.4477 21 18 21.4477 18 22C18 22.5523 18.4477 23 19 23H20C21.6569 23 23 21.6569 23 20V19C23 18.4477 22.5523 18 22 18C21.4477 18 21 18.4477 21 19Z" fill="#080809" style="fill:#080809;fill:color(display-p3 0.0314 0.0314 0.0353);fill-opacity:1;"/>
<path d="M21 14V15C21 15.5523 21.4477 16 22 16C22.5523 16 23 15.5523 23 15V14C23 12.3431 21.6569 11 20 11H19C18.4477 11 18 11.4477 18 12C18 12.5523 18.4477 13 19 13H20C20.5523 13 21 13.4477 21 14Z" fill="#080809" style="fill:#080809;fill:color(display-p3 0.0314 0.0314 0.0353);fill-opacity:1;"/>
</svg>
