<svg width="24" height="24" viewBox="0 0 24 24" fill="none" xmlns="http://www.w3.org/2000/svg">
<path d="M13.9912 20.9951C14.5435 20.9904 14.9953 21.4341 15 21.9863C15.0047 22.5385 14.5609 22.9903 14.0088 22.9951C13.3886 23.0004 12.7189 23 12 23C11.2811 23 10.6114 23.0004 9.99121 22.9951C9.4391 22.9903 8.99533 22.5385 9 21.9863C9.00468 21.4341 9.45652 20.9904 10.0088 20.9951C10.6188 21.0003 11.2792 21 12 21C12.7208 21 13.3812 21.0003 13.9912 20.9951Z" fill="#080809" style="fill:#080809;fill:color(display-p3 0.0314 0.0314 0.0353);fill-opacity:1;"/>
<path d="M2.19336 18.0566C2.71447 17.874 3.28501 18.1479 3.46777 18.6689C3.63846 19.1559 3.8657 19.522 4.17188 19.8281C4.62191 20.2782 5.21676 20.5723 6.18262 20.752C6.7255 20.8529 7.08422 21.3751 6.9834 21.918C6.88243 22.4609 6.36026 22.8196 5.81738 22.7188C4.59552 22.4915 3.58073 22.0651 2.75781 21.2422C2.21439 20.6988 1.83759 20.0656 1.58008 19.3311C1.39738 18.8099 1.67217 18.2393 2.19336 18.0566Z" fill="#080809" style="fill:#080809;fill:color(display-p3 0.0314 0.0314 0.0353);fill-opacity:1;"/>
<path d="M20.5322 18.6689C20.715 18.1479 21.2855 17.874 21.8066 18.0566C22.3278 18.2393 22.6026 18.8099 22.4199 19.3311C22.1624 20.0656 21.7856 20.6988 21.2422 21.2422C20.4193 22.0651 19.4045 22.4915 18.1826 22.7188C17.6397 22.8196 17.1176 22.4609 17.0166 21.918C16.9158 21.3751 17.2745 20.8529 17.8174 20.752C18.7832 20.5723 19.3781 20.2782 19.8281 19.8281C20.1343 19.522 20.3615 19.1559 20.5322 18.6689Z" fill="#080809" style="fill:#080809;fill:color(display-p3 0.0314 0.0314 0.0353);fill-opacity:1;"/>
<path d="M9.99805 12.1348C10.3063 11.9559 10.6867 11.955 10.9961 12.1318L14.4961 14.1318C14.8076 14.3099 15 14.6412 15 15C15 15.3588 14.8076 15.6901 14.4961 15.8682L10.9961 17.8682C10.6866 18.045 10.3063 18.0441 9.99805 17.8652C9.68975 17.6863 9.5 17.3565 9.5 17V13L9.50879 12.8682C9.54926 12.5637 9.7282 12.2914 9.99805 12.1348Z" fill="#080809" style="fill:#080809;fill:color(display-p3 0.0314 0.0314 0.0353);fill-opacity:1;"/>
<path d="M2 11C2.55228 11 3 11.4477 3 12C3 13.1317 2.99976 14.113 3.01953 14.9775C3.03194 15.5295 2.59497 15.9874 2.04297 16C1.49083 16.0126 1.03313 15.5746 1.02051 15.0225C1.00012 14.1304 1 13.1249 1 12C1 11.4477 1.44772 11 2 11Z" fill="#080809" style="fill:#080809;fill:color(display-p3 0.0314 0.0314 0.0353);fill-opacity:1;"/>
<path d="M22 11C22.5523 11 23 11.4477 23 12C23 13.1249 22.9999 14.1304 22.9795 15.0225C22.9669 15.5746 22.5092 16.0126 21.957 16C21.405 15.9874 20.9681 15.5295 20.9805 14.9775C21.0002 14.113 21 13.1317 21 12C21 11.4477 21.4477 11 22 11Z" fill="#080809" style="fill:#080809;fill:color(display-p3 0.0314 0.0314 0.0353);fill-opacity:1;"/>
<path fill-rule="evenodd" clip-rule="evenodd" d="M12 1C14.3284 1 16.1756 0.998331 17.6191 1.19238C19.0915 1.39034 20.2932 1.8089 21.2422 2.75781C22.5011 4.01685 22.8326 5.72862 22.9434 7.9502C22.957 8.22371 22.8577 8.49105 22.6689 8.68945C22.4802 8.88771 22.2181 9 21.9443 9H2.05469C1.78094 8.99993 1.51878 8.88778 1.33008 8.68945C1.1414 8.49106 1.04204 8.22365 1.05566 7.9502C1.1664 5.72873 1.49812 4.01683 2.75684 2.75781C3.70575 1.8089 4.90761 1.39037 6.37988 1.19238C7.82352 0.998291 9.67137 1 12 1ZM6.64648 3.17383C5.39596 3.34199 4.68633 3.65645 4.1709 4.17188C3.60496 4.73805 3.28786 5.53182 3.13281 7H8.11328L6.83008 3.15234C6.76811 3.15969 6.70661 3.16574 6.64648 3.17383ZM12 3C10.801 3 9.77802 3.00015 8.89453 3.02246L10.2207 7H15.1133L13.7803 3.00391C13.2337 3.00036 12.6419 3 12 3ZM17.2207 7H20.8662C20.7111 5.53167 20.3942 4.73805 19.8281 4.17188C19.3127 3.65649 18.6031 3.34196 17.3525 3.17383C16.9202 3.11572 16.4411 3.07751 15.9043 3.05176L17.2207 7Z" fill="#080809" style="fill:#080809;fill:color(display-p3 0.0314 0.0314 0.0353);fill-opacity:1;"/>
</svg>
