<svg width="24" height="24" viewBox="0 0 24 24" fill="none" xmlns="http://www.w3.org/2000/svg">
<path d="M13.4969 4C10.1403 4 7.26489 6.06796 6.07812 9H7C7.55228 9 8 9.44772 8 10C8 10.5523 7.55228 11 7 11C5.1666 11 3.33338 11 1.5 11C0.947715 11 0.5 10.5523 0.5 10C0.5 9.44772 0.947715 9 1.5 9H3.95502C5.22946 4.94315 9.01843 2 13.4969 2C19.0198 2 23.4969 6.47715 23.4969 12C23.4969 17.5228 19.0198 22 13.4969 22C12.1907 22 10.9407 21.7491 9.79424 21.2918C9.36322 21.1199 9.07183 21.004 8.85164 20.9276C8.65459 20.8592 8.58084 20.8472 8.56991 20.8454C8.49565 20.8423 8.37445 20.864 7.65344 21.0834L5.79565 21.6488C4.59976 22.0127 3.48196 20.8947 3.84603 19.6989L4.45164 17.7095C4.61209 17.181 5.17056 16.8827 5.69902 17.0431C6.22749 17.2036 6.52583 17.762 6.36538 18.2905L5.99824 19.4966L7.19424 19.1325C7.70934 18.9747 8.19028 18.8275 8.65369 18.847C8.95178 18.8595 9.24512 18.9472 9.50717 19.0381C9.77564 19.1312 10.1096 19.2644 10.5122 19.425L10.5351 19.4341C11.4498 19.7989 12.4487 20 13.4969 20C17.9152 20 21.4969 16.4183 21.4969 12C21.4969 7.58172 17.9152 4 13.4969 4Z" fill="#080809" style="fill:#080809;fill:color(display-p3 0.0314 0.0314 0.0353);fill-opacity:1;"/>
<path d="M2.5 13C1.94772 13 1.5 13.4477 1.5 14C1.5 14.5523 1.94772 15 2.5 15H5.5C6.05228 15 6.5 14.5523 6.5 14C6.5 13.4477 6.05228 13 5.5 13H2.5Z" fill="#080809" style="fill:#080809;fill:color(display-p3 0.0314 0.0314 0.0353);fill-opacity:1;"/>
<path d="M18.346 10.859C18.557 10.5941 18.5355 10.213 18.296 9.97354C18.0731 9.75064 17.7244 9.71464 17.4606 9.88732L14.9967 11.5004L12.7076 9.91568C12.1667 9.54127 11.4283 9.65005 11.0184 10.1645L8.64701 13.141C8.43594 13.4059 8.45744 13.7871 8.69697 14.0266C8.91985 14.2495 9.26847 14.2855 9.53223 14.1129L11.9967 12.5004L14.2856 14.0851C14.8265 14.4596 15.565 14.3507 15.9749 13.8361L18.346 10.859Z" fill="#080809" style="fill:#080809;fill:color(display-p3 0.0314 0.0314 0.0353);fill-opacity:1;"/>
</svg>
