<svg width="24" height="24" viewBox="0 0 24 24" fill="none" xmlns="http://www.w3.org/2000/svg">
<path fill-rule="evenodd" clip-rule="evenodd" d="M9.23499 21.0004L9.0348 21.7345C8.88949 22.2673 9.20363 22.817 9.73645 22.9624C10.2693 23.1077 10.819 22.7935 10.9643 22.2607L13.6935 12.2533L21.4112 14.3212C21.9447 14.4642 22.493 14.1476 22.636 13.6141C24.0654 8.27945 20.8996 2.79608 15.5649 1.36666C10.2303 -0.0627571 4.74689 3.10307 3.31748 8.43773C3.17453 8.9712 3.49112 9.51953 4.02458 9.66247L11.7617 11.7356L9.78042 19.0004H2C1.44772 19.0004 1 19.4482 1 20.0004C1 20.5527 1.44772 21.0004 2 21.0004H9.23499ZM18.5534 5.28797C18.5655 5.33257 18.5774 5.37739 18.5891 5.42242C19.0365 7.15156 19.1393 9.29541 18.6972 11.5234L20.9032 12.1145C21.2596 9.54324 20.3347 7.02236 18.5534 5.28797ZM16.7605 11.0045C17.1153 9.11563 17.0158 7.32594 16.6529 5.92345C16.4406 5.10333 16.147 4.44875 15.8312 3.99163C15.5062 3.52138 15.2193 3.34463 15.0471 3.2985C14.8776 3.25306 14.5417 3.26262 14.0234 3.51048C13.52 3.75121 12.9368 4.17539 12.3412 4.78403C11.3287 5.81875 10.351 7.31501 9.71288 9.1161L16.7605 11.0045ZM7.77585 8.59707C8.50796 6.45937 9.66506 4.6593 10.9117 3.38527C10.9516 3.34453 10.9916 3.30426 11.0318 3.26445C8.61523 3.87235 6.547 5.59527 5.56793 8.00546L7.77585 8.59707Z" fill="#080809" style="fill:#080809;fill:color(display-p3 0.0314 0.0314 0.0353);fill-opacity:1;"/>
<path d="M22 21.0043H14C13.4477 21.0043 13 20.5566 13 20.0043C13 19.4521 13.4477 19.0043 14 19.0043H22C22.5523 19.0043 23 19.4521 23 20.0043C23 20.5566 22.5523 21.0043 22 21.0043Z" fill="#080809" style="fill:#080809;fill:color(display-p3 0.0314 0.0314 0.0353);fill-opacity:1;"/>
</svg>
