<svg width="24" height="24" viewBox="0 0 24 24" fill="none" xmlns="http://www.w3.org/2000/svg">
<path d="M17.5005 8C17.5005 6.34315 18.8436 5 20.5005 5C22.1573 5 23.5005 6.34315 23.5005 8C23.5005 9.65685 22.1573 11 20.5005 11C18.8436 11 17.5005 9.65685 17.5005 8Z" fill="#080809" style="fill:#080809;fill:color(display-p3 0.0314 0.0314 0.0353);fill-opacity:1;"/>
<path d="M2.45809 18.2873C4.10629 12.7933 9.25434 9 15.0003 9C15.5525 9 16.0003 8.55228 16.0003 8C16.0003 7.44772 15.5525 7 15.0003 7C8.38115 7 2.4473 11.3631 0.542437 17.7127C0.383739 18.2416 0.683922 18.7991 1.21292 18.9578C1.74191 19.1165 2.29939 18.8163 2.45809 18.2873Z" fill="#080809" style="fill:#080809;fill:color(display-p3 0.0314 0.0314 0.0353);fill-opacity:1;"/>
</svg>
