<svg width="24" height="24" viewBox="0 0 24 24" fill="none" xmlns="http://www.w3.org/2000/svg">
<path d="M10.9999 1C9.89535 1 8.99992 1.89543 8.99992 3V7.87085L4.36747 6.36568C3.31696 6.02435 2.18865 6.59925 1.84732 7.64976L1.22929 9.55187C0.887955 10.6024 1.46286 11.7307 2.51337 12.072L7.14587 13.5772L4.28293 17.5177C3.63368 18.4113 3.83178 19.6621 4.72539 20.3113L6.34343 21.4869C7.23704 22.1361 8.48778 21.938 9.13703 21.0444L12.0002 17.1037L14.863 21.044C15.5122 21.9376 16.763 22.1357 17.6566 21.4865L19.2746 20.3109C20.1683 19.6617 20.3664 18.4109 19.7171 17.5173L16.8541 13.5767L21.486 12.0717C22.5365 11.7304 23.1115 10.6021 22.7701 9.55157L22.1521 7.64946C21.8108 6.59895 20.6824 6.02405 19.6319 6.36538L14.9999 7.87041V3C14.9999 1.89543 14.1045 1 12.9999 1H10.9999Z" fill="#080809" style="fill:#080809;fill:color(display-p3 0.0314 0.0314 0.0353);fill-opacity:1;"/>
</svg>
