<svg width="24" height="24" viewBox="0 0 24 24" fill="none" xmlns="http://www.w3.org/2000/svg">
<path d="M19.2929 8.29289C19.6834 7.90237 20.3164 7.90237 20.707 8.29289C21.0973 8.68343 21.0974 9.31648 20.707 9.70695C18.3928 12.021 16.0788 14.3393 13.7626 16.6532C12.7897 17.6252 11.2126 17.6287 10.2363 16.6571C7.91542 14.3474 5.60331 12.0174 3.29289 9.70695C2.90237 9.31643 2.90237 8.68342 3.29289 8.29289C3.68341 7.90237 4.31643 7.90237 4.70695 8.29289C7.02635 10.6123 9.32632 12.9311 11.6464 15.2402C11.8399 15.4325 12.1539 15.4326 12.3486 15.2382C14.6646 12.9243 16.977 10.6088 19.2929 8.29289Z" fill="#080809" style="fill:#080809;fill:color(display-p3 0.0314 0.0314 0.0353);fill-opacity:1;"/>
</svg>
