<svg width="24" height="24" viewBox="0 0 24 24" fill="none" xmlns="http://www.w3.org/2000/svg">
<path d="M14.75 7.74902C15.3023 7.74902 15.75 8.19674 15.75 8.74902C15.75 9.30127 15.3023 9.74902 14.75 9.74902H10.25V10.9971H13.75L13.8525 11.002C14.3567 11.0532 14.75 11.4793 14.75 11.9971C14.7499 12.5147 14.3567 12.9409 13.8525 12.9922L13.75 12.9971H10.25V14.2441L14.751 14.25L14.8535 14.2549C15.3576 14.3067 15.7506 14.7333 15.75 15.251C15.7492 15.7684 15.3555 16.1933 14.8516 16.2441L14.749 16.249L9.35742 16.2432C9.32213 16.2469 9.28629 16.249 9.25 16.249C8.73237 16.249 8.30626 15.8556 8.25488 15.3516L8.25 15.249V8.74902C8.25 8.48384 8.35547 8.22952 8.54297 8.04199C8.73051 7.85446 8.98479 7.74903 9.25 7.74902H14.75Z" fill="#080809" style="fill:#080809;fill:color(display-p3 0.0314 0.0314 0.0353);fill-opacity:1;"/>
<path fill-rule="evenodd" clip-rule="evenodd" d="M12 3C13.8573 3 15.3511 2.99779 16.5225 3.15528C17.7226 3.31664 18.7326 3.66232 19.5352 4.46485C20.3377 5.26738 20.6834 6.27745 20.8447 7.47754C21.0022 8.64892 21 10.1427 21 12C21 13.8573 21.0022 15.3511 20.8447 16.5225C20.6834 17.7226 20.3377 18.7326 19.5352 19.5352C18.7326 20.3377 17.7226 20.6834 16.5225 20.8447C15.3511 21.0022 13.8573 21 12 21C10.1427 21 8.64892 21.0022 7.47754 20.8447C6.27745 20.6834 5.26738 20.3377 4.46485 19.5352C3.66232 18.7326 3.31664 17.7226 3.15528 16.5225C2.99779 15.3511 3 13.8573 3 12C3 10.1427 2.99779 8.64892 3.15528 7.47754C3.31664 6.27745 3.66232 5.26738 4.46485 4.46485C5.26738 3.66232 6.27745 3.31664 7.47754 3.15528C8.64892 2.99779 10.1427 3 12 3ZM12 5C10.0861 5 8.75128 5.00229 7.74414 5.1377C6.7658 5.26924 6.24792 5.5099 5.87891 5.87891C5.5099 6.24792 5.26924 6.7658 5.1377 7.74414C5.00229 8.75128 5 10.0861 5 12C5 13.9139 5.00229 15.2487 5.1377 16.2559C5.26924 17.2342 5.5099 17.7521 5.87891 18.1211C6.24792 18.4901 6.7658 18.7308 7.74414 18.8623C8.75128 18.9977 10.0861 19 12 19C13.9139 19 15.2487 18.9977 16.2559 18.8623C17.2342 18.7308 17.7521 18.4901 18.1211 18.1211C18.4901 17.7521 18.7308 17.2342 18.8623 16.2559C18.9977 15.2487 19 13.9139 19 12C19 10.0861 18.9977 8.75128 18.8623 7.74414C18.7308 6.7658 18.4901 6.24792 18.1211 5.87891C17.7521 5.5099 17.2342 5.26924 16.2559 5.1377C15.2487 5.00229 13.9139 5 12 5Z" fill="#080809" style="fill:#080809;fill:color(display-p3 0.0314 0.0314 0.0353);fill-opacity:1;"/>
</svg>
