<svg width="24" height="24" viewBox="0 0 24 24" fill="none" xmlns="http://www.w3.org/2000/svg">
<path d="M6.2929 6.29232C5.90237 6.68285 5.90237 7.31601 6.29289 7.70654C6.68341 8.09706 7.31658 8.09707 7.70711 7.70654C8.26592 7.14773 8.8218 6.59016 9.37705 6.03322C9.91779 5.49083 10.4583 4.94868 11 4.4069L11 13.9995C11 14.5518 11.4477 14.9995 12 14.9995C12.5523 14.9995 13 14.5518 13 13.9995L13 4.41233C13.5391 4.95141 14.0778 5.49048 14.6167 6.02967L14.621 6.03401C15.178 6.59135 15.7352 7.14882 16.2929 7.70654C16.6834 8.09707 17.3166 8.09706 17.7071 7.70654C18.0976 7.31601 18.0976 6.68285 17.7071 6.29232C17.1493 5.73448 16.5912 5.17605 16.0329 4.61749C15.2763 3.86044 14.5191 3.10279 13.7624 2.34646C12.7897 1.37421 11.212 1.36984 10.2359 2.3433C9.47599 3.10125 8.71558 3.86397 7.95636 4.6255C7.40119 5.18235 6.84616 5.73906 6.2929 6.29232Z" fill="#080809" style="fill:#080809;fill:color(display-p3 0.0314 0.0314 0.0353);fill-opacity:1;"/>
<path d="M1 17.0455V15.9995C1 15.4472 1.44772 14.9995 2 14.9995C2.55229 14.9995 3 15.4472 3 15.9995L3 16.9995C3 17.9525 3.00096 18.6004 3.04616 19.0992C3.09011 19.5841 3.16951 19.829 3.26795 19.9995C3.44349 20.3035 3.69596 20.556 4 20.7316C4.17051 20.83 4.41539 20.9094 4.90036 20.9534C5.39908 20.9986 6.04698 20.9995 7 20.9995H17C17.953 20.9995 18.6009 20.9986 19.0996 20.9534C19.5846 20.9094 19.8295 20.83 20 20.7316C20.304 20.556 20.5565 20.3035 20.7321 19.9995C20.8305 19.829 20.9099 19.5841 20.9538 19.0992C20.999 18.6004 21 17.9525 21 16.9995V15.9995C21 15.4472 21.4477 14.9995 22 14.9995C22.5523 14.9995 23 15.4472 23 15.9995V17.0455C23 17.941 23 18.68 22.9457 19.2797C22.8892 19.9034 22.7676 20.4739 22.4641 20.9995C22.113 21.6076 21.6081 22.1125 21 22.4636C20.4744 22.7671 19.9039 22.8887 19.2802 22.9452C18.6805 22.9995 17.9415 22.9995 17.046 22.9995H6.95396C6.0585 22.9995 5.31952 22.9995 4.71983 22.9452C4.09615 22.8887 3.52564 22.7671 3 22.4636C2.39193 22.1125 1.88697 21.6076 1.5359 20.9995C1.23242 20.4739 1.11085 19.9034 1.05432 19.2797C0.999973 18.68 0.999985 17.941 1 17.0455Z" fill="#080809" style="fill:#080809;fill:color(display-p3 0.0314 0.0314 0.0353);fill-opacity:1;"/>
</svg>
