<svg width="24" height="24" viewBox="0 0 24 24" fill="none" xmlns="http://www.w3.org/2000/svg">
<path d="M8 8C8.55229 8 9 8.44772 9 9V11H11C11.5523 11 12 11.4477 12 12C12 12.5523 11.5523 13 11 13H9V15C9 15.5523 8.55229 16 8 16C7.44772 16 7 15.5523 7 15V13H5C4.44772 13 4 12.5523 4 12C4 11.4477 4.44772 11 5 11H7V9C7 8.44772 7.44772 8 8 8Z" fill="#080809" style="fill:#080809;fill:color(display-p3 0.0314 0.0314 0.0353);fill-opacity:1;"/>
<path d="M16 10C16 10.8284 16.6716 11.5 17.5 11.5C18.3284 11.5 19 10.8284 19 10C19 9.17157 18.3284 8.5 17.5 8.5C16.6716 8.5 16 9.17157 16 10Z" fill="#080809" style="fill:#080809;fill:color(display-p3 0.0314 0.0314 0.0353);fill-opacity:1;"/>
<path d="M14 14C14 14.8284 14.6716 15.5 15.5 15.5C16.3284 15.5 17 14.8284 17 14C17 13.1716 16.3284 12.5 15.5 12.5C14.6716 12.5 14 13.1716 14 14Z" fill="#080809" style="fill:#080809;fill:color(display-p3 0.0314 0.0314 0.0353);fill-opacity:1;"/>
<path fill-rule="evenodd" clip-rule="evenodd" d="M0.5 11C0.5 7.13401 3.63401 4 7.5 4H16.5C20.366 4 23.5 7.13401 23.5 11V13C23.5 16.866 20.366 20 16.5 20H7.5C3.63401 20 0.5 16.866 0.5 13V11ZM7.5 6C4.73858 6 2.5 8.23858 2.5 11V13C2.5 15.7614 4.73858 18 7.5 18H16.5C19.2614 18 21.5 15.7614 21.5 13V11C21.5 8.23858 19.2614 6 16.5 6H7.5Z" fill="#080809" style="fill:#080809;fill:color(display-p3 0.0314 0.0314 0.0353);fill-opacity:1;"/>
</svg>
