<svg width="24" height="24" viewBox="0 0 24 24" fill="none" xmlns="http://www.w3.org/2000/svg">
<path fill-rule="evenodd" clip-rule="evenodd" d="M14.9966 2C16.3822 2 17.5225 1.99838 18.4214 2.11914C19.3491 2.24387 20.1687 2.51599 20.8248 3.17188L20.9439 3.29688C21.5146 3.93083 21.7606 4.70555 21.8775 5.5752C21.9983 6.47423 21.9966 7.61417 21.9966 9V14.5C21.9966 15.8858 21.9983 17.0258 21.8775 17.9248C21.7606 18.7945 21.5146 19.5692 20.9439 20.2031L20.8248 20.3281C20.1687 20.984 19.3491 21.2561 18.4214 21.3809C17.5225 21.5016 16.3822 21.5 14.9966 21.5H12.9966C12.4825 21.5 12.0019 21.4971 11.5552 21.4912C11.357 21.5447 11.153 21.601 10.9429 21.6572C9.60456 22.0158 8.50362 22.3127 7.60405 22.4287C6.73393 22.5408 5.92162 22.5033 5.16167 22.1162L5.00933 22.0332C4.20614 21.5693 3.73119 20.8481 3.37065 19.9844C3.02129 19.1473 2.72832 18.0455 2.36968 16.707L1.33452 12.8438C0.975893 11.5053 0.679022 10.4045 0.563038 9.50488C0.44342 8.57658 0.493892 7.71455 0.957569 6.91113L1.04741 6.76367C1.51202 6.04838 2.19673 5.6095 3.0064 5.27149C3.84343 4.9221 4.94531 4.62914 6.28374 4.27051C6.34466 4.25419 6.40545 4.23774 6.46538 4.22168C6.62935 3.83856 6.85434 3.48613 7.16851 3.17188C7.82447 2.51591 8.64425 2.24392 9.57183 2.11914C10.4707 1.99831 11.6111 2 12.9966 2H14.9966ZM6.0396 6.40723C5.05083 6.67575 4.32829 6.88706 3.7769 7.11719C3.20203 7.35721 2.921 7.57616 2.75444 7.80957L2.68999 7.91016C2.53267 8.1827 2.45448 8.54274 2.54546 9.24902C2.64026 9.98431 2.8929 10.9331 3.26616 12.3262L4.30132 16.1895C4.67451 17.5822 4.92991 18.5297 5.21538 19.2139C5.45542 19.7889 5.67533 20.0697 5.90874 20.2363L6.00933 20.3018L6.11675 20.3564C6.37049 20.472 6.71075 20.5207 7.29741 20.4502L7.29351 20.4473L7.16851 20.3281C6.51262 19.6721 6.2405 18.8525 6.11577 17.9248C5.99494 17.0258 5.99663 15.8858 5.99663 14.5V9C5.99663 8.01115 5.9962 7.14749 6.0396 6.40723ZM15.7476 8.75C15.0276 8.7364 14.5117 9.05657 13.9976 9.83301C13.4835 9.0563 12.9675 8.73847 12.2476 8.75195C11.353 8.76894 10.48 9.46402 10.4976 10.6348C10.5216 12.3072 12.2646 13.7189 13.8042 14.6367C13.9233 14.7076 14.0709 14.7076 14.19 14.6367C15.7297 13.7189 17.4726 12.3073 17.4966 10.6348C17.5142 9.46435 16.6421 8.76719 15.7476 8.75Z" fill="#080809" style="fill:#080809;fill:color(display-p3 0.0314 0.0314 0.0353);fill-opacity:1;"/>
</svg>
