<svg width="24" height="24" viewBox="0 0 24 24" fill="none" xmlns="http://www.w3.org/2000/svg">
<path fill-rule="evenodd" clip-rule="evenodd" d="M11.999 6.5C10.066 6.5 8.49902 8.067 8.49902 10C8.49902 11.933 10.066 13.5 11.999 13.5C13.932 13.5 15.499 11.933 15.499 10C15.499 8.067 13.932 6.5 11.999 6.5ZM11.999 8.5C11.1706 8.5 10.499 9.17157 10.499 10C10.499 10.8284 11.1706 11.5 11.999 11.5C12.8275 11.5 13.499 10.8284 13.499 10C13.499 9.17157 12.8275 8.5 11.999 8.5Z" fill="#080809" style="fill:#080809;fill:color(display-p3 0.0314 0.0314 0.0353);fill-opacity:1;"/>
<path fill-rule="evenodd" clip-rule="evenodd" d="M11.4533 23.3373L11.4562 23.3392C11.7868 23.5531 12.2127 23.5535 12.5433 23.3396L12.5446 23.3357L12.5446 23.3387L12.5467 23.3373L12.5533 23.3331L12.5754 23.3185C12.5942 23.3061 12.6207 23.2884 12.6547 23.2656C12.7225 23.2198 12.8196 23.1533 12.9419 23.067C13.1864 22.8944 13.5321 22.6422 13.9453 22.3181C14.77 21.6712 15.8719 20.7318 16.977 19.5616C19.1543 17.2563 21.5 13.8909 21.5 10C21.5 4.75329 17.2467 0.5 12 0.5C6.75329 0.5 2.5 4.75329 2.5 10C2.5 13.8909 4.8457 17.2563 7.02299 19.5616C8.12812 20.7318 9.23 21.6712 10.0547 22.3181C10.4679 22.6422 10.8136 22.8944 11.0581 23.067C11.1804 23.1533 11.2775 23.2198 11.3453 23.2656C11.3793 23.2884 11.4058 23.3061 11.4246 23.3185L11.4467 23.3331L11.4533 23.3373ZM6.49902 10C6.49902 6.96243 8.96146 4.5 11.999 4.5C15.0366 4.5 17.499 6.96243 17.499 10C17.499 13.0376 15.0366 15.5 11.999 15.5C8.96146 15.5 6.49902 13.0376 6.49902 10Z" fill="#080809" style="fill:#080809;fill:color(display-p3 0.0314 0.0314 0.0353);fill-opacity:1;"/>
</svg>
