<svg width="24" height="24" viewBox="0 0 24 24" fill="none" xmlns="http://www.w3.org/2000/svg">
<path fill-rule="evenodd" clip-rule="evenodd" d="M2.70711 1.29289C2.31658 0.902369 1.68342 0.902369 1.29289 1.29289C0.902369 1.68342 0.902369 2.31658 1.29289 2.70711C7.95955 9.37376 14.6266 16.0408 21.2929 22.7071C21.6834 23.0976 22.3166 23.0976 22.7071 22.7071C23.0976 22.3166 23.0976 21.6834 22.7071 21.2929L21.4401 20.0259C21.6504 19.8846 21.8489 19.7222 22.0356 19.5355C22.8381 18.733 23.1833 17.7225 23.3447 16.5224C23.5001 15.3664 23.5 13.8966 23.5 12.0732V11.9269C23.5 10.1034 23.5001 8.63364 23.3447 7.47768C23.1833 6.27754 22.8381 5.26704 22.0356 4.46448C21.233 3.66193 20.2225 3.31673 19.0224 3.15538C17.8664 2.99996 16.3966 2.99999 14.5732 3.00001L9.34599 3.00001C7.40525 2.99986 5.84704 2.99975 4.62408 3.20986L2.70711 1.29289ZM17.7756 16.3614L19.972 18.5577C20.2396 18.4406 20.446 18.2966 20.6213 18.1213C20.9904 17.7523 21.2309 17.2342 21.3625 16.2559C21.4979 15.2487 21.5 13.9139 21.5 12C21.5 10.0861 21.4979 8.75131 21.3625 7.74418C21.2309 6.76581 20.9904 6.24771 20.6213 5.87869C20.2523 5.50968 19.7342 5.26908 18.7559 5.13754C17.7487 5.00214 16.4139 5.00002 14.5 5.00002H9.50002C8.25578 5.00002 7.2624 5.00202 6.45218 5.03796L12.6266 11.2124C12.7649 10.6561 13.0176 10.1195 13.3887 9.63846C14.8183 7.78536 17.4697 7.45247 19.3054 8.90496C19.7386 9.24764 19.8119 9.87655 19.4692 10.3097C19.1265 10.7428 18.4976 10.8161 18.0645 10.4734C17.107 9.71586 15.7249 9.88451 14.9722 10.8601C14.393 11.6108 14.3583 12.6163 14.8039 13.3897L15.6246 14.2104C16.4868 14.7065 17.5809 14.5557 18.281 13.8315C18.6648 13.4344 19.2979 13.4236 19.695 13.8074C20.0921 14.1912 20.1028 14.8243 19.719 15.2214C19.1716 15.7878 18.4961 16.1713 17.7756 16.3614Z" fill="#080809" style="fill:#080809;fill:color(display-p3 0.0314 0.0314 0.0353);fill-opacity:1;"/>
<path d="M2.77664 7.0144C2.91714 6.48029 2.59806 5.9334 2.06394 5.7929C1.52983 5.6524 0.982944 5.97148 0.842442 6.5056C0.499686 7.80858 0.499826 9.56152 0.500008 11.8407L0.500016 12.0732C0.499989 13.8966 0.499966 15.3664 0.655381 16.5223C0.816736 17.7225 1.16193 18.733 1.96448 19.5355C2.76704 20.3381 3.77754 20.6833 4.97768 20.8447C6.13364 21.0001 7.60341 21 9.42688 21L15.0502 20.9999C15.6025 20.9994 16.0499 20.5513 16.0494 19.9991C16.049 19.4468 15.6009 18.9994 15.0486 18.9999L9.50002 19C7.58613 19 6.25131 18.9979 5.24418 18.8625C4.26581 18.7309 3.74771 18.4904 3.3787 18.1213C3.00968 17.7523 2.76908 17.2342 2.63755 16.2559C2.50214 15.2487 2.50002 13.9139 2.50002 12C2.50002 9.51726 2.50829 8.03452 2.77664 7.0144Z" fill="#080809" style="fill:#080809;fill:color(display-p3 0.0314 0.0314 0.0353);fill-opacity:1;"/>
<path d="M4.88867 9.63918C5.0674 9.4075 5.26537 9.19951 5.47854 9.01576L6.9003 10.4375C6.74327 10.5553 6.59893 10.6966 6.47219 10.8608C5.71374 11.8439 5.88896 13.264 6.854 14.0275C7.74576 14.7331 9.00529 14.6347 9.78096 13.8322C9.86978 13.7403 9.97195 13.6691 10.0815 13.6187L11.4085 14.9457C11.3626 15.0453 11.2995 15.1389 11.219 15.2222C9.73891 16.7535 7.32219 16.9483 5.61303 15.596C3.78483 14.1495 3.4648 11.4848 4.88867 9.63918Z" fill="#080809" style="fill:#080809;fill:color(display-p3 0.0314 0.0314 0.0353);fill-opacity:1;"/>
</svg>
