<svg width="24" height="24" viewBox="0 0 24 24" fill="none" xmlns="http://www.w3.org/2000/svg">
<path fill-rule="evenodd" clip-rule="evenodd" d="M2.07615 4.61732C2.23093 4.24364 2.59557 4 3.00003 4H21C21.4045 4 21.7691 4.24364 21.9239 4.61732C22.0787 4.99099 21.9931 5.42111 21.7071 5.70711L13 14.4142V21H16C16.5523 21 17 21.4477 17 22C17 22.5523 16.5523 23 16 23H8C7.44772 23 7 22.5523 7 22C7 21.4477 7.44772 21 8 21H11V14.4142L2.29292 5.70711C2.00692 5.42111 1.92137 4.99099 2.07615 4.61732ZM16.5858 8H7.41424L5.41424 6H18.5858L16.5858 8Z" fill="#080809" style="fill:#080809;fill:color(display-p3 0.0314 0.0314 0.0353);fill-opacity:1;"/>
</svg>
