<svg width="24" height="24" viewBox="0 0 24 24" fill="none" xmlns="http://www.w3.org/2000/svg">
<path d="M17.9985 0.75C15.099 0.75 12.7485 3.10051 12.7485 6C12.7485 8.89949 15.099 11.25 17.9985 11.25C20.898 11.25 23.2485 8.89949 23.2485 6C23.2485 3.10051 20.898 0.75 17.9985 0.75Z" fill="#080809" style="fill:#080809;fill:color(display-p3 0.0314 0.0314 0.0353);fill-opacity:1;"/>
<path d="M3.49854 1C2.11782 1 0.998535 2.11929 0.998535 3.5V8.5C0.998535 9.88071 2.11782 11 3.49854 11H8.49854C9.87925 11 10.9985 9.88071 10.9985 8.5V3.5C10.9985 2.11929 9.87925 1 8.49854 1H3.49854Z" fill="#080809" style="fill:#080809;fill:color(display-p3 0.0314 0.0314 0.0353);fill-opacity:1;"/>
<path d="M7.74699 14.0878C6.98498 12.7162 5.01237 12.7162 4.25036 14.0878L0.949875 20.0287C0.209285 21.3617 1.17322 23 2.69819 23H9.29916C10.8241 23 11.7881 21.3617 11.0475 20.0287L7.74699 14.0878Z" fill="#080809" style="fill:#080809;fill:color(display-p3 0.0314 0.0314 0.0353);fill-opacity:1;"/>
<path d="M15.6235 13C14.7284 13 13.87 13.3556 13.2371 13.9885C12.6041 14.6214 12.2485 15.4799 12.2485 16.375C12.2485 17.9203 13.2905 19.3225 14.2755 20.331C15.3058 21.386 16.5071 22.2437 17.2454 22.7103C17.7063 23.0017 18.2908 23.0017 18.7517 22.7103C19.4899 22.2437 20.6912 21.386 21.7216 20.331C22.7066 19.3225 23.7485 17.9203 23.7485 16.375C23.7485 15.4799 23.393 14.6214 22.76 13.9885C22.1271 13.3556 21.2686 13 20.3735 13C20.3558 13 20.338 13.0005 20.3203 13.0014C19.6389 13.0378 18.9831 13.2725 18.4334 13.6767C18.3025 13.7729 18.1525 13.9044 17.9967 14.0645C17.8402 13.9044 17.6904 13.7735 17.5616 13.6786C17.0133 13.2745 16.359 13.0392 15.6789 13.0015C15.6604 13.0005 15.642 13 15.6235 13Z" fill="#080809" style="fill:#080809;fill:color(display-p3 0.0314 0.0314 0.0353);fill-opacity:1;"/>
</svg>
