<svg width="24" height="24" viewBox="0 0 24 24" fill="none" xmlns="http://www.w3.org/2000/svg">
<path d="M3.5 6C4.05229 6 4.5 6.44772 4.5 7V16.5C4.5 17.9422 4.50185 18.9234 4.60059 19.6582C4.69551 20.3643 4.86337 20.6915 5.08594 20.9141C5.30851 21.1366 5.63575 21.3045 6.3418 21.3994C7.07657 21.4982 8.05778 21.5 9.5 21.5H16C16.5523 21.5 17 21.9477 17 22.5C17 23.0523 16.5523 23.5 16 23.5H9.5C8.11416 23.5 6.97423 23.5017 6.0752 23.3809C5.14737 23.2561 4.32798 22.9842 3.67188 22.3281C3.01577 21.672 2.74389 20.8526 2.61914 19.9248C2.49829 19.0258 2.5 17.8858 2.5 16.5V7C2.5 6.44772 2.94772 6 3.5 6Z" fill="#080809" style="fill:#080809;fill:color(display-p3 0.0314 0.0314 0.0353);fill-opacity:1;"/>
<path fill-rule="evenodd" clip-rule="evenodd" d="M15 0.500001C16.3858 0.500001 17.5258 0.498295 18.4248 0.619142C19.3526 0.743885 20.172 1.01577 20.8281 1.67188L20.9473 1.79688C21.518 2.43085 21.7639 3.20552 21.8809 4.0752C22.0017 4.97423 22 6.11417 22 7.5V13C22 14.3858 22.0017 15.5258 21.8809 16.4248C21.7639 17.2945 21.518 18.0692 20.9473 18.7031L20.8281 18.8281C20.172 19.4842 19.3526 19.7561 18.4248 19.8809C17.5258 20.0017 16.3858 20 15 20H13C11.6142 20 10.4742 20.0017 9.5752 19.8809C8.70551 19.7639 7.93085 19.518 7.29688 18.9473L7.17188 18.8281C6.51577 18.172 6.24388 17.3526 6.11914 16.4248C5.99829 15.5258 6 14.3858 6 13V7.5C6 6.11417 5.99829 4.97423 6.11914 4.0752C6.24389 3.14737 6.51577 2.32798 7.17188 1.67188C7.82798 1.01577 8.64737 0.743886 9.5752 0.619142C10.4742 0.498294 11.6142 0.500001 13 0.500001H15ZM14.1934 6.36328C14.0742 6.29223 13.9258 6.29223 13.8066 6.36328C12.267 7.2811 10.524 8.6928 10.5 10.3652C10.4824 11.5358 11.3554 12.233 12.25 12.25C12.6307 12.2572 12.9537 12.17 13.25 11.9727V12.75C13.25 13.1642 13.5858 13.5 14 13.5C14.4142 13.5 14.75 13.1642 14.75 12.75V11.9717C15.0464 12.1689 15.3692 12.2552 15.75 12.248C16.6446 12.2311 17.5176 11.536 17.5 10.3652C17.476 8.69279 15.733 7.2811 14.1934 6.36328Z" fill="#080809" style="fill:#080809;fill:color(display-p3 0.0314 0.0314 0.0353);fill-opacity:1;"/>
</svg>
