<svg width="24" height="24" viewBox="0 0 24 24" fill="none" xmlns="http://www.w3.org/2000/svg">
<g clip-path="url(#clip0_29901_26268)">
<path fill-rule="evenodd" clip-rule="evenodd" d="M12 21.5C9.73689 21.5 7.65861 20.7087 6.02677 19.3876L19.3876 6.02677C20.7087 7.65861 21.5 9.73689 21.5 12C21.5 12.3058 21.4856 12.608 21.4574 12.9059C21.4055 13.4558 21.8091 13.9436 22.3589 13.9956C22.9088 14.0475 23.3966 13.6439 23.4486 13.0941C23.4826 12.7337 23.5 12.3687 23.5 12C23.5 5.64873 18.3513 0.5 12 0.5C5.64873 0.5 0.5 5.64873 0.5 12C0.5 18.3513 5.64873 23.5 12 23.5C12.3687 23.5 12.7337 23.4826 13.0941 23.4486C13.6439 23.3966 14.0475 22.9088 13.9956 22.3589C13.9436 21.8091 13.4558 21.4055 12.9059 21.4574C12.608 21.4856 12.3058 21.5 12 21.5ZM12 2.5C6.75329 2.5 2.5 6.75329 2.5 12C2.5 14.2632 3.29139 16.3415 4.61254 17.9734L17.9734 4.61254C16.3415 3.29139 14.2632 2.5 12 2.5Z" fill="#080809" style="fill:#080809;fill:color(display-p3 0.0314 0.0314 0.0353);fill-opacity:1;"/>
<path fill-rule="evenodd" clip-rule="evenodd" d="M23.5 19C23.5 21.4853 21.4853 23.5 19 23.5C16.5147 23.5 14.5 21.4853 14.5 19C14.5 16.5147 16.5147 14.5 19 14.5C21.4853 14.5 23.5 16.5147 23.5 19ZM19 16.5C19.4142 16.5 19.75 16.8358 19.75 17.25V18.6893L20.7803 19.7197C21.0732 20.0126 21.0732 20.4874 20.7803 20.7803C20.4874 21.0732 20.0126 21.0732 19.7197 20.7803L18.4697 19.5303C18.329 19.3897 18.25 19.1989 18.25 19V17.25C18.25 16.8358 18.5858 16.5 19 16.5Z" fill="#080809" style="fill:#080809;fill:color(display-p3 0.0314 0.0314 0.0353);fill-opacity:1;"/>
</g>
<defs>
<clipPath id="clip0_29901_26268">
<rect width="24" height="24" fill="white" style="fill:white;fill-opacity:1;"/>
</clipPath>
</defs>
</svg>
