<svg width="24" height="24" viewBox="0 0 24 24" fill="none" xmlns="http://www.w3.org/2000/svg">
<path d="M9 7C9 8.10457 8.10457 9 7 9C5.89543 9 5 8.10457 5 7C5 5.89543 5.89543 5 7 5C8.10457 5 9 5.89543 9 7Z" fill="#080809" style="fill:#080809;fill:color(display-p3 0.0314 0.0314 0.0353);fill-opacity:1;"/>
<path fill-rule="evenodd" clip-rule="evenodd" d="M12.0748 1H11.9252C9.63166 0.999978 7.80859 0.999961 6.38039 1.19198C4.90794 1.38994 3.70636 1.80836 2.75736 2.75736C1.80836 3.70636 1.38994 4.90794 1.19198 6.38039C0.999961 7.80859 0.999978 9.63164 1 11.9252V12.0748C0.999978 14.3683 0.999961 16.1914 1.19198 17.6196C1.2501 18.0519 1.32723 18.4609 1.43122 18.847C1.43256 18.8523 1.43394 18.8575 1.43536 18.8628C1.68795 19.7929 2.09651 20.5822 2.75746 21.2432C3.70646 22.1922 4.90803 22.6106 6.38049 22.8086C7.80869 23.0006 9.63175 23.0006 11.9253 23.0005H12.0749C14.3685 23.0006 16.1915 23.0006 17.6197 22.8086C19.0922 22.6106 20.2937 22.1922 21.2427 21.2432C22.5115 19.9744 22.8385 18.245 22.9464 15.9959C22.9468 15.988 22.9471 15.9801 22.9473 15.9723C23 14.8581 23 13.5659 23 12.0748V11.9252C23 9.63167 23 7.8086 22.808 6.38039C22.6101 4.90794 22.1916 3.70636 21.2426 2.75736C20.2936 1.80836 19.0921 1.38994 17.6196 1.19198C16.1914 0.999961 14.3683 0.999978 12.0748 1ZM20.9974 13.5836C20.9999 13.0924 21 12.5658 21 12C21 9.61471 20.9979 7.92634 20.8259 6.64689C20.6577 5.39621 20.3439 4.68704 19.8284 4.17157C19.313 3.65611 18.6038 3.34229 17.3531 3.17414C16.0737 3.00213 14.3853 3 12 3C9.61471 3 7.92634 3.00213 6.64689 3.17414C5.39621 3.34229 4.68704 3.65611 4.17157 4.17157C3.65611 4.68704 3.34229 5.39621 3.17414 6.64689C3.00213 7.92634 3 9.61471 3 12C3 13.8894 3.00133 15.3415 3.08738 16.4995L5.23262 14.3543C6.20893 13.378 7.79184 13.378 8.76815 14.3543L9.14683 14.733C9.34209 14.9282 9.65868 14.9282 9.85394 14.733L14.2326 10.3543C15.2089 9.37799 16.7918 9.37799 17.7682 10.3543L20.9974 13.5836ZM20.682 18.1516C20.4986 18.9273 20.2224 19.4344 19.8284 19.8284C19.313 20.3439 18.6038 20.6577 17.3531 20.8259C16.0737 20.9979 14.3853 21 12 21C9.61471 21 7.92634 20.9979 6.64689 20.8259C5.39621 20.6577 4.68704 20.3439 4.17157 19.8284C3.9148 19.5717 3.70806 19.2668 3.54444 18.8709L6.64683 15.7685C6.84209 15.5733 7.15867 15.5733 7.35394 15.7685L7.73262 16.1472C8.70893 17.1235 10.2918 17.1235 11.2682 16.1472L15.6468 11.7685C15.8421 11.5733 16.1587 11.5733 16.3539 11.7685L20.9238 16.3384C20.8749 17.0733 20.7968 17.665 20.682 18.1516Z" fill="#080809" style="fill:#080809;fill:color(display-p3 0.0314 0.0314 0.0353);fill-opacity:1;"/>
</svg>
