<svg width="24" height="24" viewBox="0 0 24 24" fill="none" xmlns="http://www.w3.org/2000/svg">
<path d="M7 12C7 11.4477 7.44772 11 8 11H13C13.5523 11 14 11.4477 14 12C14 12.5523 13.5523 13 13 13H8C7.44772 13 7 12.5523 7 12Z" fill="#080809" style="fill:#080809;fill:color(display-p3 0.0314 0.0314 0.0353);fill-opacity:1;"/>
<path d="M8 6C7.44772 6 7 6.44772 7 7C7 7.55229 7.44772 8 8 8H16C16.5523 8 17 7.55229 17 7C17 6.44772 16.5523 6 16 6H8Z" fill="#080809" style="fill:#080809;fill:color(display-p3 0.0314 0.0314 0.0353);fill-opacity:1;"/>
<path fill-rule="evenodd" clip-rule="evenodd" d="M9.92943 0.500001H14.0706C15.4247 0.499967 16.5413 0.499939 17.4251 0.618756C18.3529 0.743499 19.1723 1.01547 19.8284 1.67158C20.4845 2.32769 20.7565 3.14711 20.8813 4.07494C21.0001 4.95869 21 6.0753 21 7.42942V16.5705C21 17.9247 21.0001 19.0413 20.8813 19.9251C20.7565 20.8529 20.4845 21.6723 19.8284 22.3284C19.1723 22.9845 18.3529 23.2565 17.4251 23.3813C16.5413 23.5001 15.4247 23.5 14.0706 23.5H9.92946C8.57535 23.5 7.45869 23.5001 6.57494 23.3813C5.64711 23.2565 4.82769 22.9845 4.17158 22.3284C3.51547 21.6723 3.2435 20.8529 3.11876 19.9251C2.99994 19.0413 2.99997 17.9247 3 16.5706V7.42943C2.99997 6.07533 2.99994 4.95869 3.11876 4.07494C3.2435 3.14711 3.51547 2.32769 4.17158 1.67158C4.82769 1.01547 5.64711 0.743499 6.57494 0.618756C7.45869 0.499939 8.57533 0.499967 9.92943 0.500001ZM6.84144 2.60092C6.13538 2.69585 5.80836 2.86322 5.58579 3.08579C5.36322 3.30836 5.19585 3.63538 5.10092 4.34144C5.00213 5.07626 5 6.05752 5 7.5L5 16.5C5 17.9425 5.00213 18.9238 5.10092 19.6586C5.19585 20.3646 5.36322 20.6916 5.58579 20.9142C5.80836 21.1368 6.13538 21.3042 6.84144 21.3991C7.57626 21.4979 8.55752 21.5 10 21.5H14C15.4425 21.5 16.4238 21.4979 17.1586 21.3991C17.8646 21.3042 18.1916 21.1368 18.4142 20.9142C18.6368 20.6916 18.8042 20.3646 18.8991 19.6586C18.9979 18.9238 19 17.9425 19 16.5V7.5C19 6.05752 18.9979 5.07626 18.8991 4.34144C18.8042 3.63538 18.6368 3.30836 18.4142 3.08579C18.1916 2.86322 17.8646 2.69585 17.1586 2.60092C16.4238 2.50213 15.4425 2.5 14 2.5L10 2.5C8.55752 2.5 7.57626 2.50213 6.84144 2.60092Z" fill="#080809" style="fill:#080809;fill:color(display-p3 0.0314 0.0314 0.0353);fill-opacity:1;"/>
</svg>
