<svg width="24" height="24" viewBox="0 0 24 24" fill="none" xmlns="http://www.w3.org/2000/svg">
<g clip-path="url(#clip0_29901_26275)">
<path d="M2.5 12C2.5 6.75329 6.75329 2.5 12 2.5C14.9702 2.5 17.6229 3.86263 19.366 6H18C17.4477 6 17 6.44772 17 7C17 7.55228 17.4477 8 18 8H21.5C22.3284 8 23 7.32843 23 6.5V3C23 2.44772 22.5523 2 22 2C21.4477 2 21 2.44772 21 3V4.84053C18.8941 2.19683 15.6456 0.5 12 0.5C5.64873 0.5 0.5 5.64873 0.5 12C0.5 18.3513 5.64873 23.5 12 23.5C18.3513 23.5 23.5 18.3513 23.5 12C23.5 11.4477 23.0523 11 22.5 11C21.9477 11 21.5 11.4477 21.5 12C21.5 17.2467 17.2467 21.5 12 21.5C6.75329 21.5 2.5 17.2467 2.5 12Z" fill="#080809" style="fill:#080809;fill:color(display-p3 0.0314 0.0314 0.0353);fill-opacity:1;"/>
</g>
<defs>
<clipPath id="clip0_29901_26275">
<rect width="24" height="24" fill="white" style="fill:white;fill-opacity:1;"/>
</clipPath>
</defs>
</svg>
