<svg width="24" height="24" viewBox="0 0 24 24" fill="none" xmlns="http://www.w3.org/2000/svg">
<path d="M7 13.0858V10.5C7 9.94772 6.55229 9.5 6 9.5C5.44772 9.5 5 9.94772 5 10.5V14C5 15.3807 6.11929 16.5 7.5 16.5H11C11.5523 16.5 12 16.0523 12 15.5C12 14.9477 11.5523 14.5 11 14.5H8.41421L13.2071 9.70711C13.5976 9.31658 13.5976 8.68342 13.2071 8.29289C12.8166 7.90237 12.1834 7.90237 11.7929 8.29289L7 13.0858Z" fill="#080809" style="fill:#080809;fill:color(display-p3 0.0314 0.0314 0.0353);fill-opacity:1;"/>
<path fill-rule="evenodd" clip-rule="evenodd" d="M9.57317 3H9.42684C7.60339 2.99997 6.13362 2.99995 4.97767 3.15537C3.77752 3.31672 2.76702 3.66191 1.96447 4.46447C1.16191 5.26702 0.816721 6.27752 0.655366 7.47767C0.499952 8.63362 0.499974 10.1034 0.500001 11.9268V12.0732C0.499974 13.8966 0.499952 15.3664 0.655366 16.5223C0.816721 17.7225 1.16191 18.733 1.96447 19.5355C2.76702 20.3381 3.77752 20.6833 4.97767 20.8446C6.13363 21.0001 7.6034 21 9.42686 21H9.57314C11.3966 21 12.8664 21.0001 14.0223 20.8446C15.2225 20.6833 16.233 20.3381 17.0355 19.5355C17.8381 18.733 18.1833 17.7225 18.3446 16.5223C18.3961 16.1392 18.4306 15.7217 18.4536 15.2682L21.1119 17.2212C22.1025 17.9491 23.5 17.2417 23.5 16.0124V7.95572C23.5 6.745 22.1396 6.03313 21.1449 6.72334L18.4463 8.59583C18.4235 8.19453 18.391 7.82217 18.3446 7.47767C18.1833 6.27752 17.8381 5.26702 17.0355 4.46447C16.233 3.66191 15.2225 3.31672 14.0223 3.15537C12.8664 2.99995 11.3966 2.99997 9.57317 3ZM18.5 12.8206L21.5 15.0246V8.91124L18.5 10.9929V12.8206ZM16.5 11.9136C16.4999 10.0458 16.4958 8.73608 16.3625 7.74416C16.2309 6.7658 15.9903 6.2477 15.6213 5.87868C15.2523 5.50966 14.7342 5.26907 13.7558 5.13753C12.7487 5.00213 11.4139 5 9.5 5C7.58611 5 6.2513 5.00213 5.24416 5.13753C4.2658 5.26907 3.7477 5.50966 3.37868 5.87868C3.00966 6.2477 2.76907 6.7658 2.63753 7.74416C2.50213 8.7513 2.5 10.0861 2.5 12C2.5 13.9139 2.50213 15.2487 2.63753 16.2558C2.76907 17.2342 3.00966 17.7523 3.37868 18.1213C3.7477 18.4903 4.2658 18.7309 5.24416 18.8625C6.2513 18.9979 7.58611 19 9.5 19C11.4139 19 12.7487 18.9979 13.7558 18.8625C14.7342 18.7309 15.2523 18.4903 15.6213 18.1213C15.9903 17.7523 16.2309 17.2342 16.3625 16.2558C16.4958 15.2639 16.4999 13.9542 16.5 12.0864V11.9136Z" fill="#080809" style="fill:#080809;fill:color(display-p3 0.0314 0.0314 0.0353);fill-opacity:1;"/>
</svg>
