<svg width="24" height="24" viewBox="0 0 24 24" fill="none" xmlns="http://www.w3.org/2000/svg">
<path d="M6.00697 3.03279C6.54074 3.17457 6.85852 3.72222 6.71673 4.25599L3.86305 14.9993H5.00025C5.55253 14.9993 6.00025 15.447 6.00025 15.9993C6.00025 16.5516 5.55253 16.9993 5.00025 16.9993H3.3318L2.46673 20.256C2.32495 20.7898 1.7773 21.1075 1.24352 20.9658C0.709749 20.824 0.391978 20.2763 0.533762 19.7425L4.78376 3.74255C4.92555 3.20877 5.47319 2.891 6.00697 3.03279Z" fill="#080809" style="fill:#080809;fill:color(display-p3 0.0314 0.0314 0.0353);fill-opacity:1;"/>
<path d="M12.007 3.03279C12.5407 3.17457 12.8585 3.72222 12.7167 4.25599L9.86305 14.9993H11.0002C11.5525 14.9993 12.0002 15.447 12.0002 15.9993C12.0002 16.5516 11.5525 16.9993 11.0002 16.9993H9.3318L8.46673 20.256C8.32495 20.7898 7.7773 21.1075 7.24352 20.9658C6.70975 20.824 6.39198 20.2763 6.53376 19.7425L10.7838 3.74255C10.9255 3.20877 11.4732 2.891 12.007 3.03279Z" fill="#080809" style="fill:#080809;fill:color(display-p3 0.0314 0.0314 0.0353);fill-opacity:1;"/>
<path fill-rule="evenodd" clip-rule="evenodd" d="M20.6717 16.9993L21.5335 20.2552C21.6749 20.7891 22.2222 21.1073 22.7561 20.966C23.29 20.8246 23.6083 20.2773 23.467 19.7434L19.3053 4.02158C18.9508 2.68219 17.0497 2.68218 16.6952 4.02158L12.5335 19.7434C12.3922 20.2773 12.7105 20.8246 13.2444 20.966C13.7783 21.1073 14.3256 20.7891 14.467 20.2552L15.3288 16.9993H20.6717ZM20.1423 14.9993L18.0002 6.90716L15.8582 14.9993H20.1423Z" fill="#080809" style="fill:#080809;fill:color(display-p3 0.0314 0.0314 0.0353);fill-opacity:1;"/>
</svg>
