<svg width="24" height="24" viewBox="0 0 24 24" fill="none" xmlns="http://www.w3.org/2000/svg">
<path fill-rule="evenodd" clip-rule="evenodd" d="M9.02291 2.00027H14.9763C14.9917 1.99991 15.007 1.99991 15.0223 2.00027H17.3866C18.0415 2.00027 18.6702 2.25721 19.1376 2.71585L22.6691 6.18122C23.6284 7.12246 23.6719 8.65363 22.7676 9.64779L13.849 19.4531C12.8572 20.5436 11.142 20.5436 10.1502 19.4531L1.23164 9.64779C0.32739 8.65363 0.370877 7.12246 1.3301 6.18122L4.86169 2.71585C5.32909 2.2572 5.9578 2.00027 6.61265 2.00027H8.97695C8.99224 1.99991 9.00756 1.99991 9.02291 2.00027ZM9.67666 4.00027H14.3226L15.5226 7.00027H8.47666L9.67666 4.00027ZM11.9996 16.5837L8.55263 9.00027H15.4466L11.9996 16.5837ZM17.6435 9.00027L14.6372 15.6143L20.653 9.00027H17.6435ZM16.4767 4.00027L17.6767 7.00027H20.6483L17.7368 4.14338C17.6433 4.05165 17.5176 4.00027 17.3866 4.00027H16.4767ZM6.32259 7.00027H3.35098L6.26245 4.14338C6.35593 4.05165 6.48168 4.00027 6.61265 4.00027H7.52259L6.32259 7.00027ZM6.35571 9.00027L9.36208 15.6143L3.34623 9.00027H6.35571Z" fill="#080809" style="fill:#080809;fill:color(display-p3 0.0314 0.0314 0.0353);fill-opacity:1;"/>
<path d="M6.0821 19.3321C6.47263 18.9416 6.47263 18.3084 6.0821 17.9179C5.69158 17.5274 5.05842 17.5274 4.66789 17.9179L0.792893 21.7929C0.402369 22.1834 0.402369 22.8166 0.792893 23.2071C1.18342 23.5976 1.81658 23.5976 2.20711 23.2071L6.0821 19.3321Z" fill="#080809" style="fill:#080809;fill:color(display-p3 0.0314 0.0314 0.0353);fill-opacity:1;"/>
<path d="M8.7071 20.7929C9.09763 21.1834 9.09763 21.8166 8.7071 22.2071L7.7071 23.2071C7.31658 23.5976 6.68341 23.5976 6.29289 23.2071C5.90237 22.8166 5.90237 22.1834 6.29289 21.7929L7.29289 20.7929C7.68341 20.4024 8.31658 20.4024 8.7071 20.7929Z" fill="#080809" style="fill:#080809;fill:color(display-p3 0.0314 0.0314 0.0353);fill-opacity:1;"/>
<path d="M3.7071 16.2071C4.09763 15.8166 4.09763 15.1834 3.7071 14.7929C3.31658 14.4024 2.68342 14.4024 2.29289 14.7929L0.792893 16.2929C0.402369 16.6834 0.402369 17.3166 0.792893 17.7071C1.18342 18.0976 1.81658 18.0976 2.20711 17.7071L3.7071 16.2071Z" fill="#080809" style="fill:#080809;fill:color(display-p3 0.0314 0.0314 0.0353);fill-opacity:1;"/>
</svg>
