<svg width="24" height="24" viewBox="0 0 24 24" fill="none" xmlns="http://www.w3.org/2000/svg">
<path fill-rule="evenodd" clip-rule="evenodd" d="M12 2.75C12.6904 2.75 13.25 3.30964 13.25 4V20C13.25 20.6904 12.6904 21.25 12 21.25C11.3096 21.25 10.75 20.6904 10.75 20V4C10.75 3.30964 11.3096 2.75 12 2.75ZM6 6.75C6.69036 6.75 7.25 7.30964 7.25 8V16C7.25 16.6904 6.69036 17.25 6 17.25C5.30964 17.25 4.75 16.6904 4.75 16V8C4.75 7.30964 5.30964 6.75 6 6.75ZM18 6.75C18.6904 6.75 19.25 7.30964 19.25 8V16C19.25 16.6904 18.6904 17.25 18 17.25C17.3096 17.25 16.75 16.6904 16.75 16V8C16.75 7.30964 17.3096 6.75 18 6.75Z" fill="#080809" style="fill:#080809;fill:color(display-p3 0.0314 0.0314 0.0353);fill-opacity:1;"/>
</svg>
