<svg width="24" height="24" viewBox="0 0 24 24" fill="none" xmlns="http://www.w3.org/2000/svg">
<path d="M1.68888 9.33183C-0.842373 6.81538 0.939724 2.49512 4.509 2.49512H19.4979C22.3631 2.49512 24.2223 5.37491 23.2353 7.92503C23.0359 8.44009 22.4568 8.69602 21.9418 8.49667C21.4267 8.29732 21.1708 7.71819 21.3701 7.20313C21.8619 5.93249 20.9245 4.49512 19.4979 4.49512H4.509C2.72436 4.49512 1.83332 6.65525 3.09894 7.91347L7.45313 12.2422C7.46542 12.2544 7.47762 12.2667 7.48974 12.2791L12.6492 9.30016C13.1275 9.02401 13.7391 9.18788 14.0152 9.66617C14.2914 10.1445 14.1275 10.7561 13.6492 11.0322L8.48811 14.012L8.49929 14.0533L10.0747 19.992C10.4006 21.2209 11.6832 21.7522 12.7387 21.3496C13.2548 21.1528 13.8326 21.4116 14.0294 21.9276C14.2262 22.4437 13.9674 23.0215 13.4514 23.2183C11.4115 23.9963 8.80531 23.0072 8.14151 20.5048L6.56615 14.5661C6.47519 14.2232 6.29466 13.9107 6.04307 13.6605L1.68888 9.33183Z" fill="#080809" style="fill:#080809;fill:color(display-p3 0.0314 0.0314 0.0353);fill-opacity:1;"/>
<path d="M23.5 12.5C23.5 11.3954 22.6046 10.5 21.5 10.5C20.3954 10.5 19.5 11.3954 19.5 12.5C19.5 13.6046 20.3954 14.5 21.5 14.5C22.6046 14.5 23.5 13.6046 23.5 12.5Z" fill="#080809" style="fill:#080809;fill:color(display-p3 0.0314 0.0314 0.0353);fill-opacity:1;"/>
<path d="M21.9431 18.3361L22.398 18.5502C23.2007 18.9247 23.2007 20.0753 22.398 20.4498L21.9431 20.6639C21.1538 21.0251 20.5251 21.6538 20.1639 22.4431L19.9498 22.898C19.5753 23.7007 18.4247 23.7007 18.0502 22.898L17.8361 22.4431C17.4749 21.6538 16.8462 21.0251 16.0569 20.6639L15.602 20.4498C14.7993 20.0753 14.7993 18.9247 15.602 18.5502L16.0569 18.3361C16.8462 17.9749 17.4749 17.3462 17.8361 16.5569L18.0502 16.102C18.4247 15.2993 19.5753 15.2993 19.9498 16.102L20.1639 16.5569C20.5251 17.3462 21.1538 17.9749 21.9431 18.3361Z" fill="#080809" style="fill:#080809;fill:color(display-p3 0.0314 0.0314 0.0353);fill-opacity:1;"/>
</svg>
