<svg width="24" height="24" viewBox="0 0 24 24" fill="none" xmlns="http://www.w3.org/2000/svg">
<path fill-rule="evenodd" clip-rule="evenodd" d="M4.5812 1.00006C3.20109 1.00006 1.98439 1.90533 1.58782 3.22723L0.772052 5.94645C0.59165 6.54779 0.5 7.17225 0.5 7.80006C0.5 9.22472 1.07294 10.5157 2.001 11.455C2.00034 11.47 2 11.485 2 11.5001L2 16.0706C1.99997 17.4248 1.99994 18.5414 2.11875 19.4251C2.2435 20.353 2.51547 21.1724 3.17158 21.8285C3.82768 22.4846 4.64711 22.7566 5.57494 22.8813C6.4587 23.0001 7.57531 23.0001 8.92943 23.0001L12.1241 23.0001C12.6764 23.0001 13.1241 22.5523 13.1241 22.0001C13.1241 21.4478 12.6764 21.0001 12.1241 21.0001H9C7.55752 21.0001 6.57625 20.9979 5.84143 20.8991C5.13538 20.8042 4.80836 20.6368 4.58579 20.4143C4.36322 20.1917 4.19585 19.8647 4.10092 19.1586C4.00213 18.4238 4 17.4425 4 16.0001V12.7162C4.5327 12.9004 5.10466 13.0005 5.7 13.0005C6.88407 13.0005 7.97625 12.604 8.85 11.938C9.72375 12.604 10.8159 13.0005 12 13.0005C13.1841 13.0005 14.2762 12.604 15.15 11.938C16.0238 12.604 17.1159 13.0005 18.3 13.0005C21.1719 13.0005 23.5 10.6723 23.5 7.80045C23.5 7.17238 23.4083 6.54767 23.2278 5.94608L22.4122 3.22723C22.0156 1.90533 20.7989 1.00006 19.4188 1.00006H4.5812ZM3.50347 3.80192C3.64625 3.32599 4.08431 3.00006 4.5812 3.00006H19.4188C19.9157 3.00006 20.3537 3.32599 20.4965 3.80192L21.3122 6.52077C21.4367 6.93592 21.5 7.36703 21.5 7.80045C21.5 9.56776 20.0673 11.0005 18.3 11.0005C17.3444 11.0005 16.4876 10.5828 15.8997 9.91683C15.7099 9.70176 15.4369 9.57857 15.15 9.57857C14.8631 9.57857 14.5901 9.70176 14.4003 9.91683C13.8124 10.5828 12.9556 11.0005 12 11.0005C11.0444 11.0005 10.1876 10.5828 9.59974 9.91683C9.40991 9.70176 9.13686 9.57857 8.85 9.57857C8.56314 9.57857 8.29009 9.70176 8.10026 9.91683C7.51244 10.5828 6.65561 11.0005 5.7 11.0005C3.93281 11.0005 2.5 9.56749 2.5 7.80006C2.5 7.36689 2.56323 6.93605 2.6877 6.52115L3.50347 3.80192Z" fill="#080809" style="fill:#080809;fill:color(display-p3 0.0314 0.0314 0.0353);fill-opacity:1;"/>
<path d="M20.5858 18.0001L15.5 18.0001C14.9477 18.0001 14.5 18.4478 14.5 19.0001C14.5 19.5523 14.9477 20.0001 15.5 20.0001L20.5858 20.0001L19.2929 21.293C18.9024 21.6835 18.9024 22.3166 19.2929 22.7072C19.6834 23.0977 20.3166 23.0977 20.7071 22.7072L22.6464 20.7678C23.6228 19.7915 23.6228 18.2086 22.6464 17.2323L20.7071 15.293C20.3166 14.9024 19.6834 14.9024 19.2929 15.293C18.9024 15.6835 18.9024 16.3166 19.2929 16.7072L20.5858 18.0001Z" fill="#080809" style="fill:#080809;fill:color(display-p3 0.0314 0.0314 0.0353);fill-opacity:1;"/>
</svg>
