<svg width="24" height="24" viewBox="0 0 24 24" fill="none" xmlns="http://www.w3.org/2000/svg">
<path d="M0.5 5C0.5 3.34315 1.84315 2 3.5 2C5.15685 2 6.5 3.34315 6.5 5C6.5 5.59963 6.32408 6.15817 6.02103 6.62682L11.0615 13.1497C11.3567 13.0526 11.6722 13 12 13C13.6563 13 14.9991 14.3423 15 15.9984L18.1655 17.1156C18.7155 16.4352 19.5569 16 20.5 16C22.1569 16 23.5 17.3431 23.5 19C23.5 20.6569 22.1569 22 20.5 22C18.8437 22 17.5009 20.6578 17.5 19.0017L14.3344 17.8844C13.7845 18.5649 12.9431 19 12 19C10.3431 19 9 17.6569 9 16C9 15.4003 9.17598 14.8416 9.47913 14.3729L4.43882 7.85017C4.14348 7.9474 3.82788 8 3.5 8C1.84315 8 0.5 6.65685 0.5 5Z" fill="#080809" style="fill:#080809;fill:color(display-p3 0.0314 0.0314 0.0353);fill-opacity:1;"/>
</svg>
