<svg width="24" height="24" viewBox="0 0 24 24" fill="none" xmlns="http://www.w3.org/2000/svg">
<path d="M11.9252 1H13C13.5523 1 14 1.44772 14 2C14 2.55229 13.5523 3 13 3H12C9.61471 3 7.92634 3.00213 6.64689 3.17414C5.95543 3.26711 5.42948 3.4046 5.01029 3.59607L20.4039 18.9897C20.5954 18.5705 20.7329 18.0446 20.8259 17.3531C20.9979 16.0737 21 14.3853 21 12V11C21 10.4477 21.4477 10 22 10C22.5523 10 23 10.4477 23 11V12.0748C23 14.3683 23 16.1914 22.808 17.6196C22.661 18.7135 22.3922 19.658 21.8746 20.4604L22.7071 21.2929C23.0976 21.6834 23.0976 22.3166 22.7071 22.7071C22.3166 23.0976 21.6834 23.0976 21.2929 22.7071L1.29289 2.70711C0.902369 2.31658 0.902369 1.68342 1.29289 1.29289C1.68342 0.90237 2.31658 0.90237 2.70711 1.29289L3.53962 2.12541C4.34204 1.6078 5.28646 1.33905 6.38039 1.19198C7.80859 0.999962 9.63166 0.999979 11.9252 1Z" fill="#080809" style="fill:#080809;fill:color(display-p3 0.0314 0.0314 0.0353);fill-opacity:1;"/>
<path d="M2.2067 6.12002C2.7567 6.17018 3.16191 6.6567 3.11176 7.2067C3.00095 8.42182 3 9.95853 3 12C3 14.3853 3.00213 16.0737 3.17414 17.3531C3.34229 18.6038 3.65611 19.313 4.17157 19.8284C4.68704 20.3439 5.39621 20.6577 6.64689 20.8259C7.92634 20.9979 9.61471 21 12 21C14.0415 21 15.5782 20.9991 16.7933 20.8882C17.3433 20.8381 17.8298 21.2433 17.88 21.7933C17.9301 22.3433 17.5249 22.8298 16.9749 22.88C15.6586 23 14.0316 23 12.0465 23H11.9252C9.63167 23 7.8086 23 6.38039 22.808C4.90794 22.6101 3.70636 22.1916 2.75736 21.2426C1.80836 20.2936 1.38994 19.0921 1.19198 17.6196C0.999961 16.1914 0.999978 14.3684 1 12.0748V11.9535C0.999994 9.96837 0.999989 8.34138 1.12002 7.02508C1.17017 6.47507 1.6567 6.06987 2.2067 6.12002Z" fill="#080809" style="fill:#080809;fill:color(display-p3 0.0314 0.0314 0.0353);fill-opacity:1;"/>
<path fill-rule="evenodd" clip-rule="evenodd" d="M15 5C15 2.79086 16.7909 1 19 1C21.2091 1 23 2.79086 23 5C23 7.20914 21.2091 9 19 9C16.7909 9 15 7.20914 15 5ZM19 3C17.8954 3 17 3.89543 17 5C17 6.10457 17.8954 7 19 7C20.1046 7 21 6.10457 21 5C21 3.89543 20.1046 3 19 3Z" fill="#080809" style="fill:#080809;fill:color(display-p3 0.0314 0.0314 0.0353);fill-opacity:1;"/>
</svg>
