<svg width="24" height="24" viewBox="0 0 24 24" fill="none" xmlns="http://www.w3.org/2000/svg">
<path fill-rule="evenodd" clip-rule="evenodd" d="M4.73632 5.97656C3.96228 4.87177 3.75936 3.43549 4.47447 2.1969C5.50969 0.403841 7.86565 0.069793 9.62577 1.086C10.7539 1.73735 11.5079 2.77987 12 3.72147C12.4921 2.77987 13.2461 1.73735 14.3742 1.086C16.1343 0.069793 18.4903 0.403841 19.5255 2.1969C20.2406 3.43549 20.0377 4.87177 19.2637 5.97656H21.5C22.6046 5.97656 23.5 6.87199 23.5 7.97656V8.97656C23.5 10.0811 22.6046 10.9766 21.5 10.9766H2.5C1.39543 10.9766 0.5 10.0811 0.5 8.97656V7.97656C0.5 6.87199 1.39543 5.97656 2.5 5.97656H4.73632ZM17.8597 3.15867C17.4723 2.48761 16.392 2.14214 15.336 2.75183C14.4837 3.24392 13.8759 4.17541 13.4723 5.09859C13.3326 5.41809 13.2244 5.7203 13.1433 5.97656H15.656C16.1233 5.90636 16.5646 5.77028 16.9502 5.54768C18.0062 4.93799 18.2471 3.82973 17.8597 3.15867ZM10.8567 5.97656C10.7756 5.7203 10.6674 5.41809 10.5277 5.09859C10.1241 4.17541 9.51633 3.24392 8.66401 2.75183C7.60799 2.14214 6.52773 2.48761 6.1403 3.15867C5.75286 3.82973 5.99381 4.93799 7.04982 5.54768C7.43537 5.77028 7.87671 5.90636 8.34404 5.97656H10.8567Z" fill="#080809" style="fill:#080809;fill:color(display-p3 0.0314 0.0314 0.0353);fill-opacity:1;"/>
<path fill-rule="evenodd" clip-rule="evenodd" d="M2 18.9766V12.4766H22V18.9766C22 21.1857 20.2091 22.9766 18 22.9766H6C3.79086 22.9766 2 21.1857 2 18.9766ZM12.4484 14.7602C12.265 14.3885 11.7351 14.3885 11.5517 14.7602L10.9185 16.0431L9.50262 16.2489C9.09251 16.3085 8.92876 16.8125 9.22552 17.1017L10.25 18.1004L10.0082 19.5105C9.93813 19.919 10.3668 20.2305 10.7337 20.0376L12 19.3718L13.2664 20.0376C13.6332 20.2305 14.062 19.919 13.9919 19.5105L13.75 18.1004L14.7746 17.1017C15.0713 16.8125 14.9076 16.3085 14.4975 16.2489L13.0816 16.0431L12.4484 14.7602Z" fill="#080809" style="fill:#080809;fill:color(display-p3 0.0314 0.0314 0.0353);fill-opacity:1;"/>
</svg>
