<svg width="24" height="24" viewBox="0 0 24 24" fill="none" xmlns="http://www.w3.org/2000/svg">
<path d="M9.73204 1.96266C10.6256 0.0254673 13.3788 0.0254661 14.2723 1.96266L15.795 5.2638L19.4051 5.69184C21.5235 5.94302 22.3743 8.56146 20.8081 10.0099L18.139 12.4782L18.8475 16.0439C19.2633 18.1363 17.0359 19.7546 15.1744 18.7126L12.0022 16.9369L8.83002 18.7126C6.96849 19.7546 4.74108 18.1363 5.15683 16.0439L5.86533 12.4782L3.19627 10.0099C1.63004 8.56146 2.48084 5.94302 4.59931 5.69184L8.2094 5.2638L9.73204 1.96266Z" fill="#080809" style="fill:#080809;fill:color(display-p3 0.0314 0.0314 0.0353);fill-opacity:1;"/>
<path d="M13.0029 19.5C13.0029 18.9477 12.5552 18.5 12.0029 18.5C11.4506 18.5 11.0029 18.9477 11.0029 19.5V21H4.00195C3.44967 21 3.00195 21.4477 3.00195 22C3.00195 22.5523 3.44967 23 4.00195 23H20.002C20.5542 23 21.002 22.5523 21.002 22C21.002 21.4477 20.5542 21 20.002 21H13.0029V19.5Z" fill="#080809" style="fill:#080809;fill:color(display-p3 0.0314 0.0314 0.0353);fill-opacity:1;"/>
</svg>
