<svg width="24" height="24" viewBox="0 0 24 24" fill="none" xmlns="http://www.w3.org/2000/svg">
<path fill-rule="evenodd" clip-rule="evenodd" d="M4.5812 1C3.20109 1 1.98439 1.90527 1.58782 3.22717L0.772052 5.94639C0.59165 6.54773 0.5 7.17218 0.5 7.8C0.5 9.22466 1.07294 10.5156 2.001 11.455C2.00034 11.4699 2 11.4849 2 11.5L2 16.0706C1.99997 17.4247 1.99994 18.5413 2.11875 19.4251C2.2435 20.3529 2.51547 21.1723 3.17158 21.8284C3.82768 22.4845 4.64711 22.7565 5.57494 22.8812C6.4587 23.0001 7.57531 23 8.92943 23L13 23C13.5523 23 14 22.5523 14 22C14 21.4477 13.5523 21 13 21H12V17C12 15.8954 11.1046 15 10 15H8C6.89543 15 6 15.8954 6 17V20.9185C5.94588 20.9125 5.89305 20.906 5.84143 20.8991C5.13538 20.8042 4.80836 20.6368 4.58579 20.4142C4.36322 20.1916 4.19585 19.8646 4.10092 19.1586C4.00213 18.4237 4 17.4425 4 16V12.7161C4.5327 12.9003 5.10466 13.0004 5.7 13.0004C6.88407 13.0004 7.97625 12.6039 8.85 11.9379C9.72375 12.6039 10.8159 13.0004 12 13.0004C13.1841 13.0004 14.2762 12.6039 15.15 11.9379C16.0238 12.6039 17.1159 13.0004 18.3 13.0004C21.1719 13.0004 23.5 10.6723 23.5 7.80039C23.5 7.17232 23.4083 6.5476 23.2278 5.94602L22.4122 3.22717C22.0156 1.90527 20.7989 1 19.4188 1H4.5812ZM10 17V21H9C8.63889 21 8.30667 20.9999 8 20.9981V17H10Z" fill="#080809" style="fill:#080809;fill:color(display-p3 0.0314 0.0314 0.0353);fill-opacity:1;"/>
<path d="M20 14.5C18.8954 14.5 18 15.3954 18 16.5C18 17.6046 18.8954 18.5 20 18.5C21.1046 18.5 22 17.6046 22 16.5C22 15.3954 21.1046 14.5 20 14.5Z" fill="#080809" style="fill:#080809;fill:color(display-p3 0.0314 0.0314 0.0353);fill-opacity:1;"/>
<path d="M16.5 22C16.5 20.6193 17.6193 19.5 19 19.5H21C22.3807 19.5 23.5 20.6193 23.5 22V22.25C23.5 22.9404 22.9404 23.5 22.25 23.5H17.75C17.0596 23.5 16.5 22.9404 16.5 22.25V22Z" fill="#080809" style="fill:#080809;fill:color(display-p3 0.0314 0.0314 0.0353);fill-opacity:1;"/>
</svg>
