<svg width="24" height="24" viewBox="0 0 24 24" fill="none" xmlns="http://www.w3.org/2000/svg">
<path fill-rule="evenodd" clip-rule="evenodd" d="M16 4C20.4183 4 24 7.58172 24 12C24 16.4183 20.4183 20 16 20C14.7446 20 13.5573 19.7097 12.5 19.1943C11.4427 19.7097 10.2554 20 9 20C4.58172 20 1 16.4183 1 12C1 7.58172 4.58172 4 9 4C10.2552 4 11.4428 4.28946 12.5 4.80469C13.5572 4.28946 14.7448 4 16 4ZM9 6C5.68629 6 3 8.68629 3 12C3 15.3137 5.68629 18 9 18C9.51906 18 10.0226 17.9335 10.5029 17.8096C8.96239 16.3514 8 14.2886 8 12C8 9.71112 8.96211 7.64765 10.5029 6.18945C10.0226 6.06558 9.51898 6 9 6ZM16 6C15.4807 6 14.9767 6.06543 14.4961 6.18945C16.0372 7.64768 17 9.71086 17 12C17 14.2889 16.0369 16.3514 14.4961 17.8096C14.9767 17.9336 15.4806 18 16 18C19.3137 18 22 15.3137 22 12C22 8.68629 19.3137 6 16 6ZM12.5 7.12793C10.9864 8.21716 10 9.99287 10 12C10 14.0069 10.9867 15.7818 12.5 16.8711C14.0133 15.7818 15 14.0069 15 12C15 9.99287 14.0136 8.21716 12.5 7.12793Z" fill="#080809" style="fill:#080809;fill:color(display-p3 0.0314 0.0314 0.0353);fill-opacity:1;"/>
</svg>
