<svg width="24" height="24" viewBox="0 0 24 24" fill="none" xmlns="http://www.w3.org/2000/svg">
<path fill-rule="evenodd" clip-rule="evenodd" d="M3 2.90225C3 1.57552 4.07552 0.5 5.40225 0.5H18.5978C19.9245 0.5 21 1.57552 21 2.90225C21 5.15092 20.1067 7.3075 18.5167 8.89755L15.8686 11.5456C15.6607 11.7535 15.6762 12.0951 15.902 12.2833L17.7617 13.833C19.8122 15.5418 20.9984 18.0726 21 20.7416L21 21C21 22.3807 19.8807 23.5 18.5 23.5H5.5C4.11929 23.5 3 22.3807 3 21V20.747C3 20.1627 3.05677 19.585 3.16696 19.0211C3.56047 17.0072 4.63527 15.1689 6.23834 13.833L8.09797 12.2833C8.32384 12.0951 8.33934 11.7536 8.13144 11.5456L5.48334 8.89755C3.89328 7.3075 3 5.15092 3 2.90225ZM18.9624 20.0219L18.9601 20H18.5818C17.3027 20 16.1345 19.4994 15.1883 18.8317C14.2131 18.1436 12.9959 17.5 12 17.5C11.0041 17.5 9.78693 18.1436 8.8117 18.8317C7.8655 19.4994 6.6973 20 5.41821 20H5.03993C5.00423 20.3328 5 20.6658 5 21C5 21.2761 5.22386 21.5 5.5 21.5H18.5C18.7761 21.5 19 21.2761 19 21C19 20.6732 18.9963 20.3475 18.9624 20.0219ZM7.65862 17.1976C6.98987 17.6695 6.27024 17.961 5.56308 17.9964C5.99304 16.9902 6.65797 16.0867 7.51871 15.3695L9.37834 13.8198C10.5077 12.8786 10.5852 11.1709 9.54565 10.1314L6.89755 7.48334C5.68257 6.26836 5 4.62049 5 2.90225C5 2.68009 5.18009 2.5 5.40225 2.5H18.5978C18.8199 2.5 19 2.68009 19 2.90225C19 4.62049 18.3174 6.26836 17.1024 7.48334L14.4544 10.1314C13.4149 11.1709 13.4923 12.8786 14.6217 13.8198L16.4813 15.3695C17.342 16.0867 18.007 16.9902 18.4369 17.9964C17.7298 17.961 17.0101 17.6695 16.3414 17.1976C15.3342 16.4869 13.6691 15.5 12 15.5C10.3309 15.5 8.66577 16.4869 7.65862 17.1976Z" fill="#080809" style="fill:#080809;fill:color(display-p3 0.0314 0.0314 0.0353);fill-opacity:1;"/>
</svg>
