<svg width="24" height="24" viewBox="0 0 24 24" fill="none" xmlns="http://www.w3.org/2000/svg">
<path fill-rule="evenodd" clip-rule="evenodd" d="M10.5195 15.2503L11.8441 18.4752C12.1063 19.1138 12.8366 19.4189 13.4752 19.1566C14.1138 18.8943 14.4189 18.164 14.1566 17.5254L8.86911 4.65155C8.27487 3.20469 6.22579 3.2047 5.63154 4.65155L0.344054 17.5254C0.0817745 18.164 0.386837 18.8943 1.02543 19.1566C1.66402 19.4189 2.39432 19.1138 2.6566 18.4752L3.98112 15.2503H10.5195ZM9.49276 12.7503L7.25033 7.29051L5.0079 12.7503H9.49276Z" fill="#080809" style="fill:#080809;fill:color(display-p3 0.0314 0.0314 0.0353);fill-opacity:1;"/>
<path fill-rule="evenodd" clip-rule="evenodd" d="M22.5002 9.75652C23.1905 9.75652 23.7502 10.3162 23.7502 11.0065V17.9993C23.7502 18.6897 23.1905 19.2503 22.5002 19.2503C22.0267 19.2503 21.6147 18.9871 21.4026 18.599C20.6978 19.013 19.8767 19.2504 19.0002 19.2504C16.3768 19.2504 14.2502 17.1238 14.2502 14.5004C14.2502 11.8771 16.3768 9.75042 19.0002 9.75042C19.8777 9.75042 20.6997 9.9884 21.4051 10.4033C21.6179 10.0177 22.0285 9.75652 22.5002 9.75652ZM21.2502 14.5004C21.2502 13.2578 20.2428 12.2504 19.0002 12.2504C17.7575 12.2504 16.7502 13.2578 16.7502 14.5004C16.7502 15.7431 17.7575 16.7504 19.0002 16.7504C20.2428 16.7504 21.2502 15.7431 21.2502 14.5004Z" fill="#080809" style="fill:#080809;fill:color(display-p3 0.0314 0.0314 0.0353);fill-opacity:1;"/>
</svg>
