<svg width="24" height="24" viewBox="0 0 24 24" fill="none" xmlns="http://www.w3.org/2000/svg">
<path d="M20.4494 1.10465C20.0731 0.298453 18.9267 0.298449 18.5505 1.10465L18.3361 1.56402C17.9718 2.34454 17.3444 2.97193 16.5639 3.3362L16.1045 3.55059C15.2983 3.92684 15.2983 5.07322 16.1045 5.44948L16.5639 5.66387C17.3444 6.02814 17.9718 6.65553 18.3361 7.43605L18.5505 7.89542C18.9267 8.70162 20.0731 8.70162 20.4494 7.89542L20.6637 7.43605C21.028 6.65553 21.6554 6.02814 22.4359 5.66387L22.8953 5.44948C23.7015 5.07323 23.7015 3.92684 22.8953 3.55059L22.4359 3.3362C21.6554 2.97193 21.028 2.34454 20.6637 1.56402L20.4494 1.10465Z" fill="#080809" style="fill:#080809;fill:color(display-p3 0.0314 0.0314 0.0353);fill-opacity:1;"/>
<path d="M0.5 12C0.5 5.64873 5.64873 0.5 12 0.5C12.6245 0.5 13.238 0.549866 13.8367 0.646023C14.382 0.733608 14.753 1.24666 14.6654 1.79196C14.5778 2.33725 14.0648 2.7083 13.5195 2.62071C13.0253 2.54134 12.5178 2.5 12 2.5C6.75329 2.5 2.5 6.75329 2.5 12C2.5 17.2467 6.75329 21.5 12 21.5C17.2467 21.5 21.5 17.2467 21.5 12C21.5 11.4822 21.4587 10.9748 21.3793 10.4806C21.2917 9.93533 21.6628 9.42228 22.2081 9.3347C22.7534 9.24712 23.2664 9.61818 23.354 10.1635C23.4501 10.7621 23.5 11.3756 23.5 12C23.5 18.3513 18.3513 23.5 12 23.5C5.64873 23.5 0.5 18.3513 0.5 12Z" fill="#080809" style="fill:#080809;fill:color(display-p3 0.0314 0.0314 0.0353);fill-opacity:1;"/>
<path d="M16 11.5C16.8284 11.5 17.5 10.8284 17.5 10C17.5 9.17157 16.8284 8.5 16 8.5C15.1716 8.5 14.5 9.17157 14.5 10C14.5 10.8284 15.1716 11.5 16 11.5Z" fill="#080809" style="fill:#080809;fill:color(display-p3 0.0314 0.0314 0.0353);fill-opacity:1;"/>
<path d="M9.5 10C9.5 10.8284 8.82843 11.5 8 11.5C7.17157 11.5 6.5 10.8284 6.5 10C6.5 9.17157 7.17157 8.5 8 8.5C8.82843 8.5 9.5 9.17157 9.5 10Z" fill="#080809" style="fill:#080809;fill:color(display-p3 0.0314 0.0314 0.0353);fill-opacity:1;"/>
<path d="M16.7071 16.7071C17.0976 16.3166 17.0976 15.6834 16.7071 15.2929C16.3166 14.9024 15.6834 14.9024 15.2929 15.2929C13.4743 17.1115 10.5257 17.1115 8.70711 15.2929C8.31658 14.9024 7.68342 14.9024 7.29289 15.2929C6.90237 15.6834 6.90237 16.3166 7.29289 16.7071C9.89256 19.3068 14.1074 19.3068 16.7071 16.7071Z" fill="#080809" style="fill:#080809;fill:color(display-p3 0.0314 0.0314 0.0353);fill-opacity:1;"/>
</svg>
