<svg width="24" height="24" viewBox="0 0 24 24" fill="none" xmlns="http://www.w3.org/2000/svg">
<path d="M7.34143 8.97461C7.40469 8.97461 7.46611 8.99793 7.5133 9.04004C7.56056 9.0824 7.59134 9.14103 7.59826 9.2041C7.85589 11.8264 7.97257 14.1759 7.59534 16.792C7.5953 16.8595 7.56784 16.924 7.52014 16.9717C7.47244 17.0194 7.40791 17.0468 7.34045 17.0469C7.27301 17.0469 7.20849 17.0193 7.16076 16.9717C7.11306 16.924 7.0856 16.8595 7.08557 16.792C6.7206 14.2096 6.84328 11.7926 7.08557 9.2041C7.09249 9.14104 7.12231 9.08239 7.16955 9.04004C7.21671 8.99777 7.27811 8.97471 7.34143 8.97461Z" fill="#080809" style="fill:#080809;fill:color(display-p3 0.0314 0.0314 0.0353);fill-opacity:1;"/>
<path d="M5.75159 9.67969C5.82143 9.67977 5.88871 9.70745 5.93811 9.75684C5.98749 9.80627 6.01523 9.87349 6.01526 9.94336C6.32655 12.2188 6.32286 14.5262 6.00549 16.8008C5.99853 16.8647 5.96836 16.9239 5.92053 16.9668C5.87271 17.0097 5.81094 17.0332 5.7467 17.0332C5.68246 17.0332 5.6207 17.0097 5.57287 16.9668C5.52504 16.9239 5.49487 16.8647 5.48791 16.8008C5.19505 14.5244 5.19502 12.2198 5.48791 9.94336C5.48794 9.87344 5.51562 9.80628 5.56506 9.75684C5.61451 9.7075 5.68172 9.67969 5.75159 9.67969Z" fill="#080809" style="fill:#080809;fill:color(display-p3 0.0314 0.0314 0.0353);fill-opacity:1;"/>
<path d="M4.15588 11.3965C4.22497 11.3965 4.2916 11.4238 4.34045 11.4727C4.38928 11.5215 4.41662 11.5881 4.41662 11.6572C4.81837 13.436 4.63715 15.0068 4.401 16.8193C4.39166 16.8776 4.36185 16.9304 4.31701 16.9688C4.27208 17.0071 4.21497 17.0283 4.15588 17.0283C4.09679 17.0283 4.03971 17.0071 3.99475 16.9688C3.9499 16.9305 3.92012 16.8776 3.91076 16.8193C3.69608 15.0313 3.51791 13.4238 3.89514 11.6572C3.89514 11.5881 3.92242 11.5215 3.97131 11.4727C4.0202 11.4238 4.08677 11.3965 4.15588 11.3965Z" fill="#080809" style="fill:#080809;fill:color(display-p3 0.0314 0.0314 0.0353);fill-opacity:1;"/>
<path d="M14.4215 6.75C15.3487 6.74895 16.2588 6.99905 17.0553 7.47364C17.6771 7.83944 18.217 8.33019 18.6393 8.91504C19.0616 9.49998 19.3578 10.1667 19.5094 10.8721C19.7798 10.7956 20.0595 10.7576 20.3405 10.7588C20.7617 10.7561 21.1792 10.8379 21.568 11C21.9569 11.1623 22.3096 11.4017 22.6041 11.7031C22.8987 12.0045 23.1295 12.3623 23.2828 12.7549C23.4361 13.1474 23.5091 13.5671 23.4967 13.9883C23.4501 14.8175 23.0846 15.5968 22.4772 16.1631C21.8697 16.7295 21.0665 17.0389 20.236 17.0273H12.4C12.2276 17.0257 12.0627 16.9562 11.941 16.834C11.8194 16.7117 11.7504 16.5465 11.7496 16.374V7.93653C11.744 7.79189 11.7829 7.64888 11.86 7.52637C11.9372 7.40386 12.0493 7.30745 12.1822 7.25C12.1822 7.25 12.9034 6.75 14.4215 6.75Z" fill="#080809" style="fill:#080809;fill:color(display-p3 0.0314 0.0314 0.0353);fill-opacity:1;"/>
<path d="M8.92444 9.21485C8.99026 9.21485 9.05418 9.23923 9.10315 9.28321C9.15203 9.32718 9.18302 9.38776 9.19006 9.45313C9.50494 11.8915 9.50405 14.3607 9.18713 16.7988C9.17744 16.8617 9.14558 16.9195 9.09729 16.9609C9.049 17.0024 8.9871 17.0253 8.92346 17.0254C8.85985 17.0254 8.79796 17.0023 8.74963 16.9609C8.70134 16.9195 8.6695 16.8617 8.65979 16.7988C8.3761 14.3586 8.3761 11.8934 8.65979 9.45313C8.66684 9.3877 8.69774 9.32718 8.7467 9.28321C8.7956 9.23937 8.85876 9.21489 8.92444 9.21485Z" fill="#080809" style="fill:#080809;fill:color(display-p3 0.0314 0.0314 0.0353);fill-opacity:1;"/>
<path d="M10.5182 8.18946C10.554 8.18946 10.59 8.19732 10.6227 8.21192C10.6552 8.22651 10.6848 8.24784 10.7086 8.27442C10.7324 8.301 10.7505 8.33227 10.7614 8.36621C10.7722 8.40019 10.776 8.43621 10.7721 8.47168C11.0082 11.3332 11.18 13.9436 10.7721 16.7959C10.7652 16.8581 10.7348 16.9152 10.6881 16.957C10.6414 16.9988 10.5808 17.0225 10.5182 17.0225C10.4557 17.0223 10.3958 16.9987 10.3492 16.957C10.3026 16.9152 10.2722 16.8581 10.2653 16.7959C9.88495 13.9682 10.0506 11.3086 10.2653 8.47168C10.2614 8.43621 10.2651 8.4002 10.276 8.36621C10.2869 8.33227 10.305 8.30101 10.3287 8.27442C10.3525 8.24783 10.3821 8.22651 10.4147 8.21192C10.4472 8.19739 10.4826 8.18952 10.5182 8.18946Z" fill="#080809" style="fill:#080809;fill:color(display-p3 0.0314 0.0314 0.0353);fill-opacity:1;"/>
<path d="M2.56311 11.1465C2.62971 11.1465 2.69423 11.1713 2.74377 11.2158C2.79317 11.2603 2.82458 11.3216 2.83166 11.3877C3.19968 13.2094 3.07952 14.7522 2.8219 16.5801C2.79115 16.8499 2.32893 16.8529 2.30432 16.5801C2.07123 14.7798 1.96027 13.191 2.29455 11.3877C2.30163 11.3216 2.33304 11.2603 2.38244 11.2158C2.43199 11.1713 2.4965 11.1465 2.56311 11.1465Z" fill="#080809" style="fill:#080809;fill:color(display-p3 0.0314 0.0314 0.0353);fill-opacity:1;"/>
<path d="M0.962523 12.0293C1.02913 12.0293 1.09365 12.0541 1.14319 12.0986C1.19263 12.1431 1.224 12.2044 1.23108 12.2705C1.61748 13.4788 1.48533 14.4602 1.21545 15.6992C1.20863 15.7607 1.17954 15.8181 1.13342 15.8594C1.08733 15.9005 1.02726 15.9229 0.965452 15.9229C0.903642 15.9228 0.843541 15.9006 0.797484 15.8594C0.751407 15.8181 0.722274 15.7607 0.715452 15.6992C0.482394 14.4848 0.38732 13.4819 0.693968 12.2705C0.701044 12.2044 0.73249 12.1431 0.781859 12.0986C0.831372 12.0541 0.895956 12.0293 0.962523 12.0293Z" fill="#080809" style="fill:#080809;fill:color(display-p3 0.0314 0.0314 0.0353);fill-opacity:1;"/>
</svg>
