<svg width="24" height="24" viewBox="0 0 24 24" fill="none" xmlns="http://www.w3.org/2000/svg">
<path fill-rule="evenodd" clip-rule="evenodd" d="M10 1C14.6501 1 18.4765 4.52656 18.9506 9.05108C20.2168 10.3177 20.9999 12.0672 21 13.9996C22.2144 14.9118 23 16.3642 23 18C23 20.7614 20.7614 23 18 23C16.3642 23 14.9118 22.2144 13.9996 21C12.0672 20.9999 10.3177 20.2168 9.05108 18.9506C4.52656 18.4765 1 14.6501 1 10C1 5.02944 5.02944 1 10 1ZM13.0838 18.9162C13.0288 18.6192 13 18.313 13 18C13 15.2386 15.2386 13 18 13C18.313 13 18.6192 13.0288 18.9162 13.0838C18.4859 10.7599 16.4485 9 14 9C11.2386 9 9 11.2386 9 14C9 16.4485 10.7599 18.4859 13.0838 18.9162ZM10 3C12.9742 3 15.5151 4.85484 16.5291 7.47085C15.7447 7.16678 14.8918 7 14 7C10.134 7 7 10.134 7 14C7 14.8918 7.16678 15.7447 7.47085 16.5291C4.85484 15.5151 3 12.9742 3 10C3 6.13401 6.13401 3 10 3ZM21 18C21 16.3431 19.6569 15 18 15C16.3431 15 15 16.3431 15 18C15 19.6569 16.3431 21 18 21C19.6569 21 21 19.6569 21 18Z" fill="#080809" style="fill:#080809;fill:color(display-p3 0.0314 0.0314 0.0353);fill-opacity:1;"/>
</svg>
