<svg width="24" height="24" viewBox="0 0 24 24" fill="none" xmlns="http://www.w3.org/2000/svg">
<path d="M7 4.0004V3C7 1.61929 8.11929 0.5 9.5 0.5H14.5C15.8807 0.5 17 1.61929 17 3V4.0004H17.5001L17.6677 4.0002C18.4801 3.99872 19.2024 3.99742 19.8418 4.31712C20.4812 4.63682 20.9135 5.21538 21.3997 5.86618L22.5672 7.42303C22.8979 7.86271 23.1908 8.25234 23.3462 8.71838C23.5015 9.18443 23.5009 9.67192 23.5002 10.222L23.5 13H19.001V12.5C19.001 11.9477 18.5533 11.5 18.001 11.5C17.4487 11.5 17.001 11.9477 17.001 12.5V13H7.00098V12.5C7.00098 11.9477 6.55326 11.5 6.00098 11.5C5.44869 11.5 5.00098 11.9477 5.00098 12.5V13H0.500137L0.500068 10.0515C0.499549 9.57651 0.49909 9.15595 0.616392 8.74694C0.733694 8.33794 0.956976 7.98155 1.20916 7.57904L1.99957 6.31451C2.26756 5.88567 2.5047 5.5062 2.73423 5.20676C2.9831 4.88209 3.26637 4.5915 3.65433 4.37647C4.04229 4.16145 4.43884 4.07526 4.84606 4.03629C5.22164 4.00035 5.6691 4.00037 6.1748 4.0004H7ZM9 3V4.0004L15 4.0004V3C15 2.72386 14.7761 2.5 14.5 2.5H9.5C9.22386 2.5 9 2.72386 9 3Z" fill="#080809" style="fill:#080809;fill:color(display-p3 0.0314 0.0314 0.0353);fill-opacity:1;"/>
<path d="M23.5001 15.0709C23.5002 16.425 23.5002 17.5417 23.3814 18.4255C23.2566 19.3533 22.9847 20.1727 22.3286 20.8288C21.6725 21.4849 20.853 21.7569 19.9252 21.8816C19.0415 22.0005 17.9248 22.0004 16.5708 22.0004H7.42959C6.07549 22.0004 4.95882 22.0005 4.07507 21.8816C3.14724 21.7569 2.32782 21.4849 1.67171 20.8288C1.0156 20.1727 0.743634 19.3533 0.61889 18.4255C0.500072 17.5417 0.500101 16.4251 0.500137 15.071L0.500137 15H5.00098V15.5C5.00098 16.0523 5.44869 16.5 6.00098 16.5C6.55326 16.5 7.00098 16.0523 7.00098 15.5V15H17.001V15.5C17.001 16.0523 17.4487 16.5 18.001 16.5C18.5533 16.5 19.001 16.0523 19.001 15.5V15H23.5L23.5001 15.0709Z" fill="#080809" style="fill:#080809;fill:color(display-p3 0.0314 0.0314 0.0353);fill-opacity:1;"/>
</svg>
