<svg width="24" height="24" viewBox="0 0 24 24" fill="none" xmlns="http://www.w3.org/2000/svg">
<path fill-rule="evenodd" clip-rule="evenodd" d="M20.9842 4.38214C21.9735 4.64829 22.7528 5.43251 23.0172 6.4284C23.4978 8.23333 23.4978 11.9993 23.4978 11.9993C23.4978 11.9993 23.4978 15.7653 23.0172 17.5703C22.7528 18.566 21.9735 19.3504 20.9842 19.6165C19.1909 20.1002 11.9999 20.1002 11.9999 20.1002C11.9999 20.1002 4.80883 20.1002 3.01555 19.6165C2.02621 19.3504 1.24697 18.5661 0.982513 17.5703C0.501953 15.7653 0.501953 11.9993 0.501953 11.9993C0.501953 11.9993 0.501953 8.23333 0.982513 6.4284C1.24697 5.43264 2.02621 4.64829 3.01555 4.38214C4.80883 3.89844 11.9999 3.89844 11.9999 3.89844C11.9999 3.89844 19.1909 3.89844 20.9842 4.38214ZM15.6587 11.9996L9.64845 15.4187V8.58025L15.6587 11.9996Z" fill="#080809" style="fill:#080809;fill:color(display-p3 0.0314 0.0314 0.0353);fill-opacity:1;"/>
</svg>
