<svg width="24" height="24" viewBox="0 0 24 24" fill="none" xmlns="http://www.w3.org/2000/svg">
<path d="M9.73223 2.85443C11.3071 1.27952 14 2.39493 14 4.6222V19.3796C14 21.6068 11.3071 22.7222 9.73223 21.1473L5.58441 16.9995H3.5C1.84315 16.9995 0.5 15.6564 0.5 13.9995V9.99951C0.5 8.34265 1.84315 6.99951 3.5 6.99951H5.58716L9.73223 2.85443Z" fill="#080809" style="fill:#080809;fill:color(display-p3 0.0314 0.0314 0.0353);fill-opacity:1;"/>
<path d="M19.1384 9.69238C18.9686 9.16684 18.4049 8.87843 17.8794 9.0482C17.3538 9.21798 17.0654 9.78164 17.2352 10.3072C17.4071 10.8391 17.5003 11.4076 17.5003 11.9998C17.5003 12.592 17.4071 13.1604 17.2352 13.6924C17.0654 14.2179 17.3538 14.7816 17.8794 14.9514C18.4049 15.1211 18.9686 14.8327 19.1384 14.3072C19.3736 13.579 19.5003 12.8032 19.5003 11.9998C19.5003 11.1963 19.3736 10.4206 19.1384 9.69238Z" fill="#080809" style="fill:#080809;fill:color(display-p3 0.0314 0.0314 0.0353);fill-opacity:1;"/>
</svg>
