<svg width="24" height="24" viewBox="0 0 24 24" fill="none" xmlns="http://www.w3.org/2000/svg">
<path d="M18.5505 1.10465C18.9267 0.298449 20.0731 0.298453 20.4494 1.10465L20.6637 1.56402C21.028 2.34454 21.6554 2.97193 22.4359 3.3362L22.8953 3.55059C23.7015 3.92684 23.7015 5.07323 22.8953 5.44948L22.4359 5.66387C21.6554 6.02814 21.028 6.65553 20.6637 7.43605L20.4494 7.89542C20.0731 8.70162 18.9267 8.70162 18.5505 7.89542L18.3361 7.43605C17.9718 6.65553 17.3444 6.02814 16.5639 5.66387L16.1045 5.44948C15.2983 5.07322 15.2983 3.92684 16.1045 3.55059L16.5639 3.3362C17.3444 2.97193 17.9718 2.34454 18.3361 1.56402L18.5505 1.10465Z" fill="#080809" style="fill:#080809;fill:color(display-p3 0.0314 0.0314 0.0353);fill-opacity:1;"/>
<path d="M11.9252 1L13.5 1C14.0523 1 14.5 1.44772 14.5 2C14.5 2.55229 14.0523 3 13.5 3H12C9.61471 3 7.92634 3.00212 6.64689 3.17414C5.39621 3.34229 4.68704 3.65611 4.17157 4.17157C3.65611 4.68704 3.34229 5.39621 3.17414 6.64689C3.00213 7.92634 3 9.61471 3 12C3 13.8889 3.00133 15.3408 3.08731 16.4987L5.23265 14.3533C6.20896 13.377 7.79187 13.377 8.76818 14.3533L9.14686 14.732C9.34212 14.9273 9.65871 14.9273 9.85397 14.732L14.2327 10.3533C15.209 9.37702 16.7919 9.37702 17.7682 10.3533L20.9974 13.5826C20.9999 13.0916 21 12.5654 21 12V10.5C21 9.94772 21.4477 9.5 22 9.5C22.5523 9.5 23 9.94772 23 10.5V12.0748C23 13.5666 23 14.8593 22.9472 15.9738L22.9464 15.9949C22.8909 17.1525 22.7773 18.1724 22.5071 19.0627C22.2535 19.8998 21.8605 20.6248 21.2426 21.2426C20.2936 22.1916 19.0921 22.6101 17.6196 22.808C16.1914 23 14.3683 23 12.0748 23H11.9252C9.63167 23 7.8086 23 6.38039 22.808C4.90794 22.6101 3.70636 22.1916 2.75736 21.2426C1.80836 20.2936 1.38994 19.0921 1.19198 17.6196C0.999961 16.1914 0.999978 14.3684 1 12.0748V11.9252C0.999978 9.63166 0.999961 7.80859 1.19198 6.38039C1.38994 4.90794 1.80836 3.70636 2.75736 2.75736C3.70636 1.80836 4.90794 1.38994 6.38039 1.19198C7.80859 0.99996 9.63165 0.999978 11.9252 1Z" fill="#080809" style="fill:#080809;fill:color(display-p3 0.0314 0.0314 0.0353);fill-opacity:1;"/>
<path d="M9 7C9 8.10457 8.10457 9 7 9C5.89543 9 5 8.10457 5 7C5 5.89543 5.89543 5 7 5C8.10457 5 9 5.89543 9 7Z" fill="#080809" style="fill:#080809;fill:color(display-p3 0.0314 0.0314 0.0353);fill-opacity:1;"/>
</svg>
