<svg width="24" height="24" viewBox="0 0 24 24" fill="none" xmlns="http://www.w3.org/2000/svg">
<path fill-rule="evenodd" clip-rule="evenodd" d="M14.4385 8.15068C10.2747 7.23985 5.99124 9.06829 3.7687 12.7052L3.43568 13.2501L7.72376 12.7141C8.94978 12.5609 10.1942 12.6617 11.3796 13.0103L17.3255 14.7591C17.8684 14.9188 18.4313 14.9999 18.9972 14.9999C20.2225 14.9999 21.2614 14.0989 21.4347 12.8858L21.4928 12.4789C21.7104 10.9563 20.7161 9.5239 19.2136 9.19523L14.4385 8.15068ZM2.06214 11.6623C4.72918 7.29802 9.86935 5.10389 14.8659 6.19688L19.641 7.24143C22.1669 7.79398 23.8384 10.2021 23.4727 12.7617L23.4146 13.1687C23.1006 15.367 21.2178 16.9999 18.9972 16.9999C18.2403 16.9999 17.4873 16.8914 16.7612 16.6779L10.8152 14.9291C9.8933 14.6579 8.9254 14.5795 7.97183 14.6987L1.62403 15.4921C1.24293 15.5398 0.86821 15.3649 0.659885 15.0423C0.45156 14.7196 0.446443 14.3061 0.646718 13.9784L2.06214 11.6623Z" fill="#080809" style="fill:#080809;fill:color(display-p3 0.0314 0.0314 0.0353);fill-opacity:1;"/>
</svg>
