<svg width="24" height="24" viewBox="0 0 24 24" fill="none" xmlns="http://www.w3.org/2000/svg">
<path d="M20.4494 1.10465C20.0731 0.298453 18.9267 0.298449 18.5505 1.10465L18.3361 1.56402C17.9718 2.34454 17.3444 2.97193 16.5639 3.3362L16.1045 3.55059C15.2983 3.92684 15.2983 5.07322 16.1045 5.44948L16.5639 5.66387C17.3444 6.02814 17.9718 6.65553 18.3361 7.43605L18.5505 7.89542C18.9267 8.70162 20.0731 8.70162 20.4494 7.89542L20.6637 7.43605C21.028 6.65553 21.6554 6.02814 22.4359 5.66387L22.8953 5.44948C23.7015 5.07323 23.7015 3.92684 22.8953 3.55059L22.4359 3.3362C21.6554 2.97193 21.028 2.34454 20.6637 1.56402L20.4494 1.10465Z" fill="#080809" style="fill:#080809;fill:color(display-p3 0.0314 0.0314 0.0353);fill-opacity:1;"/>
<path fill-rule="evenodd" clip-rule="evenodd" d="M14.6389 14.9884L15.5685 17.3641C15.7697 17.8784 16.3498 18.1322 16.8641 17.931C17.3784 17.7297 17.6322 17.1496 17.431 16.6353L13.3966 6.32525C12.8992 5.05405 11.1003 5.05405 10.6029 6.32525L6.56849 16.6353C6.36724 17.1496 6.62102 17.7297 7.13533 17.931C7.64964 18.1322 8.22972 17.8784 8.43098 17.3641L9.3606 14.9884H14.6389ZM13.8563 12.9884L11.9997 8.24397L10.1432 12.9884H13.8563Z" fill="#080809" style="fill:#080809;fill:color(display-p3 0.0314 0.0314 0.0353);fill-opacity:1;"/>
<path d="M13.5 1L11.9252 1C9.63165 0.999978 7.80859 0.99996 6.38039 1.19198C4.90794 1.38994 3.70636 1.80836 2.75736 2.75736C1.80836 3.70636 1.38994 4.90794 1.19198 6.38039C0.999961 7.80859 0.999978 9.63164 1 11.9252V12.0748C0.999978 14.3683 0.999961 16.1914 1.19198 17.6196C1.38994 19.0921 1.80836 20.2936 2.75736 21.2426C3.70636 22.1916 4.90794 22.6101 6.38039 22.808C7.8086 23 9.63167 23 11.9252 23H12.0748C14.3683 23 16.1914 23 17.6196 22.808C19.0921 22.6101 20.2936 22.1916 21.2426 21.2426C22.1916 20.2936 22.6101 19.0921 22.808 17.6196C23 16.1914 23 14.3683 23 12.0748V10.5C23 9.94772 22.5523 9.5 22 9.5C21.4477 9.5 21 9.94772 21 10.5V12C21 14.3853 20.9979 16.0737 20.8259 17.3531C20.6577 18.6038 20.3439 19.313 19.8284 19.8284C19.313 20.3439 18.6038 20.6577 17.3531 20.8259C16.0737 20.9979 14.3853 21 12 21C9.61471 21 7.92634 20.9979 6.64689 20.8259C5.39621 20.6577 4.68704 20.3439 4.17157 19.8284C3.65611 19.313 3.34229 18.6038 3.17414 17.3531C3.00213 16.0737 3 14.3853 3 12C3 9.61471 3.00213 7.92634 3.17414 6.64689C3.34229 5.39621 3.65611 4.68704 4.17157 4.17157C4.68704 3.65611 5.39621 3.34229 6.64689 3.17414C7.92634 3.00212 9.61471 3 12 3H13.5C14.0523 3 14.5 2.55229 14.5 2C14.5 1.44772 14.0523 1 13.5 1Z" fill="#080809" style="fill:#080809;fill:color(display-p3 0.0314 0.0314 0.0353);fill-opacity:1;"/>
</svg>
