<svg width="24" height="24" viewBox="0 0 24 24" fill="none" xmlns="http://www.w3.org/2000/svg">
<g clip-path="url(#clip0_29901_28274)">
<path d="M11.9882 4.81517C15.969 4.81517 19.1838 8.04076 19.1838 12.0107H23.5097C23.5097 5.65663 18.3531 0.5 11.999 0.5C5.64491 0.5 0.488281 5.65663 0.488281 12.0107H4.79267C4.79267 8.02998 8.00747 4.81517 11.9882 4.81517Z" fill="#080809" style="fill:#080809;fill:color(display-p3 0.0314 0.0314 0.0353);fill-opacity:1;"/>
<path d="M11.9992 19.1956C14.9227 19.1956 17.4471 17.4372 18.569 14.9236L22.5174 16.6712C20.7266 20.6951 16.6919 23.5 11.9992 23.5C7.30644 23.5 3.27175 20.6951 1.48096 16.6712L5.42934 14.9236C6.5405 17.4372 9.07566 19.1956 11.9992 19.1956Z" fill="#080809" style="fill:#080809;fill:color(display-p3 0.0314 0.0314 0.0353);fill-opacity:1;"/>
</g>
<defs>
<clipPath id="clip0_29901_28274">
<rect width="24" height="24" fill="white" style="fill:white;fill-opacity:1;"/>
</clipPath>
</defs>
</svg>
