<svg width="24" height="24" viewBox="0 0 24 24" fill="none" xmlns="http://www.w3.org/2000/svg">
<g clip-path="url(#clip0_29901_26549)">
<path d="M12 0.5C5.6548 0.5 0.5 5.66426 0.5 12C0.5 16.8627 3.52152 21.0256 7.78939 22.6969C7.68555 21.7904 7.60057 20.393 7.82718 19.4015C8.03491 18.5045 9.16797 13.6984 9.16797 13.6984C9.16797 13.6984 8.82807 13.0091 8.82807 11.9988C8.82807 10.4031 9.75339 9.21333 10.9054 9.21333C11.8873 9.21333 12.3595 9.94983 12.3595 10.828C12.3595 11.81 11.7363 13.283 11.4058 14.6521C11.132 15.7946 11.9818 16.7294 13.1054 16.7294C15.1449 16.7294 16.7123 14.5766 16.7123 11.4795C16.7123 8.7318 14.7389 6.81504 11.9157 6.81504C8.64866 6.81504 6.7319 9.26057 6.7319 11.7911C6.7319 12.7731 7.10958 13.8306 7.5817 14.4066C7.67609 14.5199 7.68555 14.6237 7.65722 14.737C7.57225 15.0959 7.37397 15.8796 7.33619 16.0401C7.28899 16.2478 7.16624 16.295 6.94904 16.1912C5.53273 15.5113 4.64515 13.4152 4.64515 11.7344C4.64515 8.11805 7.27008 4.79438 12.2272 4.79438C16.2024 4.79438 19.2995 7.62706 19.2995 11.4228C19.2995 15.3791 16.8068 18.5612 13.3509 18.5612C12.1895 18.5612 11.0942 17.9569 10.726 17.2393C10.726 17.2393 10.15 19.4299 10.0083 19.9681C9.75339 20.9689 9.05467 22.2153 8.58255 22.9801C9.65896 23.3106 10.8103 23.5 12 23.5C18.3357 23.5 23.5 18.3357 23.5 12C23.4905 5.65485 18.3357 0.5 12 0.5Z" fill="#080809" style="fill:#080809;fill:color(display-p3 0.0314 0.0314 0.0353);fill-opacity:1;"/>
</g>
<defs>
<clipPath id="clip0_29901_26549">
<rect width="24" height="24" fill="white" style="fill:white;fill-opacity:1;"/>
</clipPath>
</defs>
</svg>
