<svg width="24" height="24" viewBox="0 0 24 24" fill="none" xmlns="http://www.w3.org/2000/svg">
<path d="M17 17.5C17.8284 17.5 18.5 16.8284 18.5 16C18.5 15.1716 17.8284 14.5 17 14.5C16.1716 14.5 15.5 15.1716 15.5 16C15.5 16.8284 16.1716 17.5 17 17.5Z" fill="#080809" style="fill:#080809;fill:color(display-p3 0.0314 0.0314 0.0353);fill-opacity:1;"/>
<path d="M8.5 16C8.5 16.8284 7.82843 17.5 7 17.5C6.17157 17.5 5.5 16.8284 5.5 16C5.5 15.1716 6.17157 14.5 7 14.5C7.82843 14.5 8.5 15.1716 8.5 16Z" fill="#080809" style="fill:#080809;fill:color(display-p3 0.0314 0.0314 0.0353);fill-opacity:1;"/>
<path d="M11 15C10.4477 15 10 15.4477 10 16C10 16.5523 10.4477 17 11 17H13C13.5523 17 14 16.5523 14 16C14 15.4477 13.5523 15 13 15H11Z" fill="#080809" style="fill:#080809;fill:color(display-p3 0.0314 0.0314 0.0353);fill-opacity:1;"/>
<path fill-rule="evenodd" clip-rule="evenodd" d="M22 7C22 8.31045 21.1598 9.42466 19.9887 9.83328L20.4996 11.877C21.4143 12.61 22 13.7366 22 15V17C22 18.0144 21.6224 18.9407 21 19.6458V22C21 22.5523 20.5523 23 20 23H19C18.4477 23 18 22.5523 18 22V21H6L6 22C6 22.5523 5.55228 23 5 23H4C3.44772 23 3 22.5523 3 22V19.6458C2.37764 18.9407 2 18.0144 2 17V15C2 13.7371 2.58524 12.611 3.49929 11.8779L4.01054 9.833C2.83984 9.42415 2 8.31015 2 7V5C2 2.79086 3.79086 1 6 1H18C20.2091 1 22 2.79086 22 5V7ZM4 5C4 3.89543 4.89543 3 6 3H18C19.1046 3 20 3.89543 20 5V7C20 7.37125 19.7977 7.69525 19.4973 7.86777L19.3485 7.27242C19.0146 5.93691 17.8147 5 16.438 5H7.56115C6.18456 5 4.98461 5.93688 4.65073 7.27236L4.50197 7.86735C4.20198 7.69473 4 7.37095 4 7V5ZM6 13H18C19.1046 13 20 13.8954 20 15V17C20 18.1046 19.1046 19 18 19H6C4.89543 19 4 18.1046 4 17V15C4 13.8954 4.89543 13 6 13ZM18.2188 11H5.78033L6.59101 7.75745C6.7023 7.31229 7.10228 7 7.56115 7H16.438C16.8969 7 17.2969 7.3123 17.4082 7.75748L18.2188 11Z" fill="#080809" style="fill:#080809;fill:color(display-p3 0.0314 0.0314 0.0353);fill-opacity:1;"/>
</svg>
