<svg width="24" height="24" viewBox="0 0 24 24" fill="none" xmlns="http://www.w3.org/2000/svg">
<path fill-rule="evenodd" clip-rule="evenodd" d="M11 5.5C11 2.73858 13.2386 0.5 16 0.5C17.5738 0.5 19.0557 1.24097 20 2.5L22.5 2.5C23.0523 2.5 23.5 2.94772 23.5 3.5V6.26541C23.5 7.75836 22.4022 9.02412 20.9243 9.23526L20.2911 9.32571C20.6697 11.0195 20.4068 12.8037 19.5373 14.3253L19.0773 15.1304L19.7834 17.6018L20.4961 17.7036C22.2197 17.9498 23.5 19.426 23.5 21.1671C23.5 22.1794 22.6794 23 21.6671 23H15.5212L15.5001 23.0002L15.4789 23H7.42857C5.3987 23 3.6878 21.6343 3.16457 19.7716C1.61207 19.2219 0.5 17.7408 0.5 16V14C0.5 13.4477 0.947715 13 1.5 13C2.05228 13 2.5 13.4477 2.5 14V16C2.5 16.5625 2.73226 17.0708 3.10611 17.4342C3.38774 15.9391 4.21832 14.5863 5.45714 13.6571L11 9.5V5.5ZM16.4414 21C16.2142 19.6873 15.3453 18.5829 14.1527 18.0419L14.4473 17.8946C14.9413 17.6477 15.1415 17.047 14.8945 16.553C14.6475 16.059 14.0468 15.8588 13.5528 16.1058L10.5528 17.6058C10.1564 17.804 9.93778 18.2395 10.0156 18.6758C10.0934 19.1121 10.4491 19.4452 10.8896 19.4941L12.7209 19.6976C13.4952 19.7836 14.1254 20.3042 14.3793 21H7.42857C6.08731 21 5 19.9127 5 18.5714C5 17.2674 5.61395 16.0395 6.65714 15.2571L12.2 11.1C12.2425 11.0682 12.2834 11.0348 12.3229 11H13.5C15.1569 11 16.5 9.65685 16.5 8V6.5C16.5 5.94772 16.0523 5.5 15.5 5.5C14.9477 5.5 14.5 5.94772 14.5 6.5V8C14.5 8.55229 14.0523 9 13.5 9H13V5.5C13 3.84315 14.3431 2.5 16 2.5C16.9443 2.5 17.8334 2.94458 18.4 3.7L18.7 4.1C18.8889 4.35181 19.1852 4.5 19.5 4.5H21.5V6.26541C21.5 6.76306 21.1341 7.18498 20.6414 7.25536L18.8586 7.51005C18.565 7.55199 18.3052 7.72203 18.1493 7.97427C17.9935 8.22651 17.9575 8.53492 18.0513 8.81623L18.203 9.27123C18.6528 10.6207 18.5065 12.098 17.8008 13.3331L17.3408 14.1381C17.0735 14.6059 17.0062 15.1617 17.1542 15.6798L17.8603 18.1512C18.0771 18.9098 18.7195 19.4701 19.5005 19.5817L20.2132 19.6835C20.8957 19.781 21.4159 20.3286 21.4907 21H16.4414Z" fill="#080809" style="fill:#080809;fill:color(display-p3 0.0314 0.0314 0.0353);fill-opacity:1;"/>
</svg>
