<svg width="24" height="24" viewBox="0 0 24 24" fill="none" xmlns="http://www.w3.org/2000/svg">
<g clip-path="url(#clip0_29901_26538)">
<path d="M12 6C12.5523 6 13 6.44772 13 7V11H17C17.5523 11 18 11.4477 18 12C18 12.5523 17.5523 13 17 13H13V17C13 17.5523 12.5523 18 12 18C11.4477 18 11 17.5523 11 17V13H7C6.44772 13 6 12.5523 6 12C6 11.4477 6.44772 11 7 11H11V7C11 6.44772 11.4477 6 12 6Z" fill="#080809" style="fill:#080809;fill:color(display-p3 0.0314 0.0314 0.0353);fill-opacity:1;"/>
<path fill-rule="evenodd" clip-rule="evenodd" d="M12 0.5C5.64873 0.5 0.5 5.64873 0.5 12C0.5 13.9218 0.972204 15.7363 1.80777 17.3308C1.89499 17.4973 1.908 17.6559 1.87673 17.7765L0.995321 21.1762C0.708248 22.2835 1.71647 23.2918 2.82376 23.0047L6.22347 22.1233C6.34411 22.092 6.50272 22.105 6.66917 22.1922C8.26373 23.0278 10.0782 23.5 12 23.5C18.3513 23.5 23.5 18.3513 23.5 12C23.5 5.64873 18.3513 0.5 12 0.5ZM2.5 12C2.5 6.75329 6.75329 2.5 12 2.5C17.2467 2.5 21.5 6.75329 21.5 12C21.5 17.2467 17.2467 21.5 12 21.5C10.4092 21.5 8.91247 21.1098 7.59747 20.4207C7.04889 20.1333 6.38232 20.016 5.72155 20.1873L3.14463 20.8554L3.81272 18.2785C3.98403 17.6177 3.86675 16.9511 3.57929 16.4025C2.89021 15.0875 2.5 13.5908 2.5 12Z" fill="#080809" style="fill:#080809;fill:color(display-p3 0.0314 0.0314 0.0353);fill-opacity:1;"/>
</g>
<defs>
<clipPath id="clip0_29901_26538">
<rect width="24" height="24" fill="white" style="fill:white;fill-opacity:1;"/>
</clipPath>
</defs>
</svg>
