<svg width="24" height="24" viewBox="0 0 24 24" fill="none" xmlns="http://www.w3.org/2000/svg">
<g clip-path="url(#clip0_29901_28328)">
<path d="M8 0.75C8.69035 0.75 9.25 1.30964 9.25 2L9.25 10.9887C9.64785 10.5903 10.0451 10.1918 10.4428 9.79294L10.4463 9.78938C11.0012 9.23276 11.5569 8.67535 12.1161 8.11619C12.6043 7.62803 13.3957 7.62804 13.8839 8.11619C14.372 8.60435 14.372 9.39581 13.8839 9.88396C13.3311 10.4367 12.7766 10.9929 12.2212 11.55C11.4616 12.3119 10.7006 13.0752 9.9406 13.8332C8.86664 14.9044 7.13088 14.8993 6.06086 13.8299C5.3049 13.0743 4.5487 12.3177 3.79279 11.5613L3.79068 11.5592C3.23226 11.0004 2.67401 10.4418 2.11612 9.88396C1.62796 9.39581 1.62796 8.60435 2.11611 8.1162C2.60426 7.62804 3.39572 7.62803 3.88388 8.11619C4.43874 8.67105 4.99292 9.22555 5.54693 9.77989L6.75 10.9836L6.75 2C6.75 1.30964 7.30964 0.75 8 0.75Z" fill="#080809" style="fill:#080809;fill:color(display-p3 0.0314 0.0314 0.0353);fill-opacity:1;"/>
<path d="M0.750004 18.0783C0.74993 18.9538 0.749865 19.7325 0.834379 20.3611C0.926238 21.0443 1.13806 21.7342 1.70191 22.2981C2.26577 22.8619 2.95567 23.0738 3.63891 23.1656C4.26751 23.2501 5.04614 23.2501 5.92172 23.25H18.0783C18.9539 23.2501 19.7325 23.2501 20.3611 23.1656C21.0444 23.0738 21.7343 22.8619 22.2981 22.2981C22.862 21.7342 23.0738 21.0443 23.1656 20.3611C23.2502 19.7325 23.2501 18.9539 23.25 18.0783V15.9217C23.2501 15.0461 23.2502 14.2675 23.1656 13.6389C23.0738 12.9556 22.862 12.2657 22.2981 11.7019C21.7343 11.138 21.0443 10.9262 20.3611 10.8344C19.7325 10.7498 18.9539 10.7499 18.0783 10.75L16 10.75C15.3097 10.75 14.75 11.3096 14.75 12C14.75 12.6903 15.3097 13.25 16 13.25H18C18.9782 13.25 19.586 13.2526 20.028 13.3121C20.4269 13.3657 20.5057 13.4449 20.5291 13.4685L20.5303 13.4697L20.5315 13.4709C20.5551 13.4943 20.6343 13.5731 20.6879 13.972C20.7474 14.414 20.75 15.0218 20.75 16V18C20.75 18.9781 20.7474 19.586 20.6879 20.028C20.6343 20.4269 20.5551 20.5057 20.5315 20.5291L20.5303 20.5303L20.5291 20.5315C20.5057 20.5551 20.4269 20.6343 20.028 20.6879C19.586 20.7473 18.9782 20.75 18 20.75H6.00001C5.02186 20.75 4.414 20.7473 3.97203 20.6879C3.57311 20.6343 3.49432 20.5551 3.47088 20.5315L3.46968 20.5303L3.46847 20.5291C3.44492 20.5057 3.36572 20.4269 3.31209 20.028C3.25266 19.586 3.25001 18.9781 3.25001 18V14.5C3.25001 13.8096 2.69036 13.25 2.00001 13.25C1.30965 13.25 0.750008 13.8096 0.750008 14.5L0.750004 18.0783Z" fill="#080809" style="fill:#080809;fill:color(display-p3 0.0314 0.0314 0.0353);fill-opacity:1;"/>
</g>
<defs>
<clipPath id="clip0_29901_28328">
<rect width="24" height="24" fill="white" style="fill:white;fill-opacity:1;"/>
</clipPath>
</defs>
</svg>
