<svg width="24" height="24" viewBox="0 0 24 24" fill="none" xmlns="http://www.w3.org/2000/svg">
<path d="M12 0.5C12.6245 0.5 13.2383 0.550328 13.8369 0.646484C14.382 0.73422 14.7526 1.2468 14.665 1.79199C14.5774 2.3372 14.0648 2.70861 13.5195 2.62109C13.0254 2.54172 12.5178 2.5 12 2.5C6.75329 2.5 2.5 6.75329 2.5 12C2.5 17.2467 6.75329 21.5 12 21.5C17.2467 21.5 21.5 17.2467 21.5 12C21.5 11.4822 21.4583 10.9746 21.3789 10.4805C21.2915 9.93529 21.6628 9.42258 22.208 9.33496C22.7532 9.24741 23.2657 9.61804 23.3535 10.1631C23.4497 10.7617 23.5 11.3756 23.5 12C23.5 18.3513 18.3513 23.5 12 23.5C5.64873 23.5 0.5 18.3513 0.5 12C0.5 5.64873 5.64873 0.5 12 0.5Z" fill="#080809" style="fill:#080809;fill:color(display-p3 0.0314 0.0314 0.0353);fill-opacity:1;"/>
<path d="M8.5 8.53613C8.50008 7.38154 9.75005 6.66009 10.75 7.2373L16.75 10.7012C17.7499 11.2785 17.7499 12.7215 16.75 13.2988L10.75 16.7627C9.75 17.34 8.5 16.6186 8.5 15.4639V8.53613Z" fill="#080809" style="fill:#080809;fill:color(display-p3 0.0314 0.0314 0.0353);fill-opacity:1;"/>
<path d="M18.5508 1.10449C18.9271 0.298571 20.0729 0.298592 20.4492 1.10449L20.6641 1.56445C21.0284 2.34477 21.6561 2.97173 22.4365 3.33594L22.8955 3.55078C23.7015 3.92708 23.7015 5.07291 22.8955 5.44922L22.4365 5.66406C21.656 6.02833 21.0283 6.656 20.6641 7.43652L20.4492 7.89551C20.0729 8.70149 18.9271 8.7015 18.5508 7.89551L18.3359 7.43652C17.9717 6.65615 17.3448 6.02836 16.5645 5.66406L16.1045 5.44922C15.2986 5.07289 15.2986 3.92709 16.1045 3.55078L16.5645 3.33594C17.3446 2.97171 17.9717 2.34461 18.3359 1.56445L18.5508 1.10449Z" fill="#080809" style="fill:#080809;fill:color(display-p3 0.0314 0.0314 0.0353);fill-opacity:1;"/>
</svg>
