<svg width="24" height="24" viewBox="0 0 24 24" fill="none" xmlns="http://www.w3.org/2000/svg">
<path fill-rule="evenodd" clip-rule="evenodd" d="M9.18641 1.81268C7.84109 1.50208 6.4987 2.3409 6.18811 3.68622L4.44445 11.2388C4.35627 11.2574 4.26839 11.2776 4.18084 11.2995C2.01758 11.8403 0.5 13.784 0.5 16.0138V16.1499C0.5 18.8695 2.37716 21.2292 5.02713 21.8407L5.9973 22.0646C11.5506 23.3461 17.3864 22.3024 22.1512 19.1755L22.2816 19.0899C23.042 18.5909 23.5 17.7425 23.5 16.833C23.5 15.4201 22.4561 14.3604 21.2165 14.1629L22.7524 7.51039C23.063 6.16507 22.2242 4.82268 20.8789 4.51209L9.18641 1.81268ZM19.0367 14.7143L19.7913 11.4453L11.9957 9.64552L11.5296 11.6643L13.1032 11.8391C14.4677 11.9907 15.5 13.1441 15.5 14.517C15.5 15.1551 15.2768 15.7467 14.9001 16.212C16.3044 15.9301 17.6686 15.4439 18.9473 14.7619L19.0367 14.7143ZM9.52836 11.4419L10.047 9.19562L7.12453 8.52093L6.52661 11.1109C6.58891 11.1161 6.65119 11.1222 6.7134 11.1291L9.52836 11.4419ZM20.2412 9.49655L12.4456 7.69678L13.1205 4.77354L20.429 6.46083C20.698 6.52295 20.8658 6.79143 20.8037 7.06049L20.2412 9.49655ZM10.4969 7.24688L11.1717 4.32363L8.73651 3.76142C8.46745 3.6993 8.19897 3.86706 8.13685 4.13613L7.57444 6.57219L10.4969 7.24688ZM4.66591 13.2398C5.26265 13.0906 5.8812 13.049 6.49254 13.1169L12.8823 13.8269C13.234 13.866 13.5 14.1632 13.5 14.517C13.5 14.865 13.2424 15.1593 12.8974 15.2053L9.8963 15.6055C8.27585 15.8215 8.2855 18.1689 9.90763 18.3717C13.3453 18.8014 16.8317 18.1569 19.8885 16.5266L20.4713 16.2158C20.9373 15.9673 21.5 16.3049 21.5 16.833C21.5 17.0687 21.3813 17.2885 21.1843 17.4178L21.0539 17.5034C16.7454 20.3308 11.4685 21.2746 6.44702 20.1158L5.47685 19.8919C3.73434 19.4898 2.5 17.9382 2.5 16.1499V16.0138C2.5 14.7017 3.39299 13.558 4.66591 13.2398Z" fill="#080809" style="fill:#080809;fill:color(display-p3 0.0314 0.0314 0.0353);fill-opacity:1;"/>
</svg>
