<svg width="24" height="24" viewBox="0 0 24 24" fill="none" xmlns="http://www.w3.org/2000/svg">
<path d="M16.5706 3H7.42943C6.07535 2.99997 4.95868 2.99994 4.07494 3.11876C3.14711 3.2435 2.32769 3.51547 1.67158 4.17158C1.01547 4.82769 0.7435 5.64711 0.618757 6.57494C0.562047 6.99675 0.53241 7.4716 0.516926 8H23.4831C23.4676 7.4716 23.438 6.99674 23.3813 6.57494C23.2565 5.64711 22.9845 4.82769 22.3284 4.17158C21.6723 3.51547 20.8529 3.2435 19.9251 3.11876C19.0413 2.99994 17.9247 2.99997 16.5706 3Z" fill="#080809" style="fill:#080809;fill:color(display-p3 0.0314 0.0314 0.0353);fill-opacity:1;"/>
<path fill-rule="evenodd" clip-rule="evenodd" d="M0.500001 14.0706V11H23.5V9.76365L23.5 14.0706C23.5 15.4247 23.5001 16.5413 23.3813 17.4251C23.2565 18.3529 22.9845 19.1723 22.3284 19.8284C21.6723 20.4845 20.8529 20.7565 19.9251 20.8813C19.0413 21.0001 17.9247 21 16.5706 21H7.42944C6.07534 21 4.95869 21.0001 4.07494 20.8813C3.14711 20.7565 2.32769 20.4845 1.67158 19.8284C1.01547 19.1723 0.7435 18.3529 0.618757 17.4251C0.499941 16.5413 0.499968 15.4247 0.500001 14.0706ZM5 15C4.44772 15 4 15.4477 4 16C4 16.5523 4.44772 17 5 17H11C11.5523 17 12 16.5523 12 16C12 15.4477 11.5523 15 11 15H5Z" fill="#080809" style="fill:#080809;fill:color(display-p3 0.0314 0.0314 0.0353);fill-opacity:1;"/>
</svg>
