<svg width="24" height="24" viewBox="0 0 24 24" fill="none" xmlns="http://www.w3.org/2000/svg">
<g clip-path="url(#clip0_29901_28155)">
<path d="M0.5 12C0.5 9.72953 1.15798 7.61273 2.29365 5.8299L5.49806 9.03431C5.36728 9.11473 5.24164 9.19812 5.12153 9.28445C4.22912 9.92582 3.5 10.8428 3.5 12C3.5 13.1572 4.22913 14.0742 5.12153 14.7156C5.88953 15.2675 6.88379 15.6998 7.99995 16C8.30023 17.1162 8.73248 18.1105 9.28445 18.8785C9.92582 19.7709 10.8428 20.5 12 20.5C13.1572 20.5 14.0742 19.7709 14.7156 18.8785C14.8019 18.7584 14.8853 18.6327 14.9657 18.5019L18.1701 21.7063C16.3873 22.842 14.2705 23.5 12 23.5C5.64873 23.5 0.5 18.3513 0.5 12Z" fill="#080809" style="fill:#080809;fill:color(display-p3 0.0314 0.0314 0.0353);fill-opacity:1;"/>
<path d="M12 7.5C11.3941 7.5 10.8022 7.5316 10.2312 7.59196C10.4328 7.06771 10.6639 6.62914 10.9085 6.28875C11.3629 5.65646 11.7533 5.5 12 5.5C12.3472 5.5 12.972 5.84104 13.5687 7.11958C13.6384 7.26903 13.7053 7.42669 13.7688 7.59198C13.1963 7.53147 12.6042 7.5 12 7.5Z" fill="#080809" style="fill:#080809;fill:color(display-p3 0.0314 0.0314 0.0353);fill-opacity:1;"/>
<path d="M16.8804 10.4313C16.731 10.3616 16.5733 10.2947 16.408 10.2312C16.4685 10.8037 16.5 11.3958 16.5 12C16.5 12.6059 16.4684 13.1978 16.408 13.7688C16.9323 13.5672 17.3709 13.3361 17.7112 13.0915C18.3435 12.6371 18.5 12.2467 18.5 12C18.5 11.6528 18.159 11.028 16.8804 10.4313Z" fill="#080809" style="fill:#080809;fill:color(display-p3 0.0314 0.0314 0.0353);fill-opacity:1;"/>
<path fill-rule="evenodd" clip-rule="evenodd" d="M6.92869 8.34362L3.19145 4.60638V4.60638L1.29289 2.70711C0.902369 2.31658 0.902369 1.68342 1.29289 1.29289C1.68342 0.902369 2.31658 0.902369 2.70711 1.29289L4.60599 3.19178C6.60513 1.51186 9.1844 0.5 12 0.5C18.3513 0.5 23.5 5.64873 23.5 12C23.5 14.8156 22.4881 17.3949 20.8082 19.394L22.7071 21.2929C23.0976 21.6834 23.0976 22.3166 22.7071 22.7071C22.3166 23.0976 21.6834 23.0976 21.2929 22.7071L19.394 20.8082V20.8082L15.6564 17.0713V17.0713L6.92869 8.34362V8.34362ZM8.34342 6.92921L10.9505 9.53627C11.292 9.51243 11.6425 9.5 12 9.5C12.8208 9.5 13.6005 9.56543 14.3174 9.68256C14.4346 10.3995 14.5 11.1792 14.5 12C14.5 12.3575 14.4876 12.708 14.4637 13.0495L17.0708 15.6566C17.7534 15.3986 18.3662 15.0837 18.8785 14.7156C19.7709 14.0742 20.5 13.1572 20.5 12C20.5 10.4142 19.1621 9.28904 17.7262 8.61894C17.2059 8.37614 16.6258 8.16828 16.0001 7.99994C15.8317 7.37419 15.6239 6.7941 15.3811 6.27381C14.711 4.8379 13.5858 3.5 12 3.5C10.8428 3.5 9.92582 4.22912 9.28445 5.12153C8.9163 5.63376 8.60142 6.24664 8.34342 6.92921Z" fill="#080809" style="fill:#080809;fill:color(display-p3 0.0314 0.0314 0.0353);fill-opacity:1;"/>
<path d="M6.28875 10.9085C6.48377 10.7684 6.71101 10.6327 6.96813 10.5044L13.4956 17.0319C13.3673 17.289 13.2316 17.5162 13.0915 17.7112C12.6371 18.3435 12.2467 18.5 12 18.5C11.7533 18.5 11.3629 18.3435 10.9085 17.7112C10.4641 17.0929 10.0645 16.1506 9.80463 14.9593C9.72127 14.5772 9.42283 14.2787 9.04074 14.1954C7.84939 13.9355 6.90708 13.5359 6.28875 13.0915C5.65646 12.6371 5.5 12.2467 5.5 12C5.5 11.7533 5.65646 11.3629 6.28875 10.9085Z" fill="#080809" style="fill:#080809;fill:color(display-p3 0.0314 0.0314 0.0353);fill-opacity:1;"/>
</g>
<defs>
<clipPath id="clip0_29901_28155">
<rect width="24" height="24" fill="white" style="fill:white;fill-opacity:1;"/>
</clipPath>
</defs>
</svg>
