<svg width="24" height="24" viewBox="0 0 24 24" fill="none" xmlns="http://www.w3.org/2000/svg">
<path d="M13.5 8.25C14.7426 8.25 15.75 7.24264 15.75 6C15.75 4.75736 14.7426 3.75 13.5 3.75C12.2574 3.75 11.25 4.75736 11.25 6C11.25 7.24264 12.2574 8.25 13.5 8.25Z" fill="#080809" style="fill:#080809;fill:color(display-p3 0.0314 0.0314 0.0353);fill-opacity:1;"/>
<path d="M13.4686 10.6701C12.294 9.53221 10.4447 9.4427 9.17398 10.4759L9.10467 10.5323C8.81052 10.7714 8.77692 11.2083 9.03104 11.4897C9.19067 11.6664 9.43293 11.7438 9.66545 11.6923L10.1306 11.5893C10.3142 11.5486 10.5059 11.6051 10.6381 11.7388C10.813 11.9156 10.8468 12.1881 10.7202 12.4022L8.94606 15.4046C8.20511 16.6585 8.42022 18.2569 9.46631 19.2703C10.6673 20.4338 12.5681 20.4563 13.7964 19.3216L14.0586 19.0794C14.2298 18.9212 14.2854 18.6736 14.1982 18.4574L14.1673 18.3807C14.0648 18.1266 13.7714 18.009 13.5218 18.1219L13.4435 18.1573C13.1086 18.3089 12.7134 18.1759 12.5382 17.8527C12.4213 17.6369 12.4258 17.3756 12.55 17.1638L14.0181 14.6633C14.7788 13.3677 14.5462 11.7141 13.4686 10.6701Z" fill="#080809" style="fill:#080809;fill:color(display-p3 0.0314 0.0314 0.0353);fill-opacity:1;"/>
</svg>
