<svg width="24" height="24" viewBox="0 0 24 24" fill="none" xmlns="http://www.w3.org/2000/svg">
<path d="M9.47258 3.2929C9.8631 2.90237 10.4963 2.90237 10.8868 3.29289C11.2773 3.68341 11.2773 4.31658 10.8868 4.7071C9.9945 5.59941 9.10259 6.48861 8.2113 7.3772C7.00097 8.58386 5.79176 9.7894 4.58429 11H21C21.5523 11 22 11.4477 22 12C22 12.5523 21.5523 13 21 13H4.59202C5.79594 14.2045 7.00018 15.4081 8.20464 16.6118C9.09858 17.5052 9.99265 18.3987 10.8868 19.2929C11.2773 19.6834 11.2773 20.3166 10.8868 20.7071C10.4963 21.0976 9.8631 21.0976 9.47258 20.7071C8.57947 19.814 7.68574 18.9208 6.79188 18.0275L6.78966 18.0252C5.48552 16.7219 4.18112 15.4183 2.87801 14.1142C1.71141 12.9468 1.70661 11.0543 2.8735 9.88328C4.1796 8.57253 5.49234 7.26377 6.80371 5.95638C7.69475 5.06803 8.58532 4.18016 9.47258 3.2929Z" fill="#080809" style="fill:#080809;fill:color(display-p3 0.0314 0.0314 0.0353);fill-opacity:1;"/>
</svg>
