<svg width="24" height="24" viewBox="0 0 24 24" fill="none" xmlns="http://www.w3.org/2000/svg">
<g clip-path="url(#clip0_29901_28055)">
<path fill-rule="evenodd" clip-rule="evenodd" d="M0.75 12C0.75 5.7868 5.7868 0.75 12 0.75C18.2132 0.75 23.25 5.7868 23.25 12C23.25 18.2132 18.2132 23.25 12 23.25C5.7868 23.25 0.75 18.2132 0.75 12ZM16 14C16.8284 14 17.5 13.3284 17.5 12.5C17.5 11.6716 16.8284 11 16 11C15.1716 11 14.5 11.6716 14.5 12.5C14.5 13.3284 15.1716 14 16 14ZM8 14C8.82843 14 9.5 13.3284 9.5 12.5C9.5 11.6716 8.82843 11 8 11C7.17157 11 6.5 11.6716 6.5 12.5C6.5 13.3284 7.17157 14 8 14ZM10 19C9.44771 19 9 18.5523 9 18C9 17.4477 9.44771 17 10 17H14C14.5523 17 15 17.4477 15 18C15 18.5523 14.5523 19 14 19H10Z" fill="#080809" style="fill:#080809;fill:color(display-p3 0.0314 0.0314 0.0353);fill-opacity:1;"/>
</g>
<defs>
<clipPath id="clip0_29901_28055">
<rect width="24" height="24" fill="white" style="fill:white;fill-opacity:1;"/>
</clipPath>
</defs>
</svg>
