<svg width="24" height="24" viewBox="0 0 24 24" fill="none" xmlns="http://www.w3.org/2000/svg">
<path d="M5.02637 9.21875C6.48342 7.51609 9.02734 7.24825 10.8057 8.65527C11.2385 8.99802 11.3113 9.62657 10.9688 10.0596C10.6261 10.4924 9.99749 10.5661 9.56446 10.2236C8.607 9.46609 7.22533 9.63475 6.47266 10.6104C5.71421 11.5935 5.88946 13.0128 6.85449 13.7764L7.02539 13.8994C7.9014 14.4671 9.05405 14.3334 9.78125 13.5811C10.1651 13.1842 10.7983 13.1739 11.1953 13.5576C11.5921 13.9415 11.6025 14.5747 11.2188 14.9717C9.78494 16.4548 7.47228 16.6841 5.77539 15.4678L5.61328 15.3447C3.7852 13.8983 3.465 11.2343 4.88867 9.38867L5.02637 9.21875Z" fill="#080809" style="fill:#080809;fill:color(display-p3 0.0314 0.0314 0.0353);fill-opacity:1;"/>
<path d="M13.5264 9.21875C14.9834 7.51609 17.5273 7.24825 19.3057 8.65527C19.7385 8.99802 19.8113 9.62657 19.4688 10.0596C19.1261 10.4924 18.4975 10.5661 18.0645 10.2236C17.1668 9.5134 15.8956 9.61677 15.1201 10.4365L14.9727 10.6104C14.2142 11.5935 14.3895 13.0128 15.3545 13.7764L15.5254 13.8994C16.4014 14.4671 17.5541 14.3334 18.2813 13.5811C18.6651 13.1842 19.2983 13.1739 19.6953 13.5576C20.0921 13.9415 20.1025 14.5747 19.7188 14.9717C18.2386 16.5027 15.8223 16.6969 14.1133 15.3447C12.2852 13.8983 11.965 11.2343 13.3887 9.38867L13.5264 9.21875Z" fill="#080809" style="fill:#080809;fill:color(display-p3 0.0314 0.0314 0.0353);fill-opacity:1;"/>
<path fill-rule="evenodd" clip-rule="evenodd" d="M14.5 3C16.3573 3 17.8511 2.99779 19.0225 3.15528C20.2226 3.31664 21.2326 3.66232 22.0352 4.46485C22.8377 5.26738 23.1834 6.27745 23.3447 7.47754C23.5022 8.64892 23.5 10.1427 23.5 12C23.5 13.8573 23.5022 15.3511 23.3447 16.5225C23.1834 17.7226 22.8377 18.7326 22.0352 19.5352C21.2326 20.3377 20.2226 20.6834 19.0225 20.8447C17.8511 21.0022 16.3573 21 14.5 21H9.5C7.64266 21 6.14892 21.0022 4.97754 20.8447C3.77745 20.6834 2.76738 20.3377 1.96485 19.5352C1.16232 18.7326 0.816636 17.7226 0.655275 16.5225C0.497788 15.3511 0.500002 13.8573 0.500002 12C0.500002 10.1427 0.497788 8.64892 0.655275 7.47754C0.816637 6.27745 1.16232 5.26738 1.96485 4.46485C2.76738 3.66232 3.77745 3.31664 4.97754 3.15528C6.14892 2.99779 7.64266 3 9.5 3H14.5ZM9.5 5C7.58612 5 6.25128 5.00229 5.24414 5.1377C4.2658 5.26924 3.74792 5.5099 3.37891 5.87891C3.0099 6.24792 2.76924 6.7658 2.6377 7.74414C2.50229 8.75128 2.5 10.0861 2.5 12C2.5 13.9139 2.50229 15.2487 2.6377 16.2559C2.76924 17.2342 3.0099 17.7521 3.37891 18.1211C3.74792 18.4901 4.2658 18.7308 5.24414 18.8623C6.25128 18.9977 7.58612 19 9.5 19H14.5C16.4139 19 17.7487 18.9977 18.7559 18.8623C19.7342 18.7308 20.2521 18.4901 20.6211 18.1211C20.9901 17.7521 21.2308 17.2342 21.3623 16.2559C21.4977 15.2487 21.5 13.9139 21.5 12C21.5 10.0861 21.4977 8.75128 21.3623 7.74414C21.2308 6.7658 20.9901 6.24792 20.6211 5.87891C20.2521 5.5099 19.7342 5.26924 18.7559 5.1377C17.7487 5.00229 16.4139 5 14.5 5H9.5Z" fill="#080809" style="fill:#080809;fill:color(display-p3 0.0314 0.0314 0.0353);fill-opacity:1;"/>
</svg>
