<svg width="24" height="24" viewBox="0 0 24 24" fill="none" xmlns="http://www.w3.org/2000/svg">
<path d="M14.1597 0.838154C12.7795 0.246657 11.2172 0.246657 9.83706 0.838154C8.97589 1.20723 8.00242 1.21418 7.13606 0.857446L6.84482 0.737523C3.7518 -0.536072 0.735111 2.70942 2.23102 5.70124L3.01889 7.27697C3.2676 7.77439 3.29796 8.35291 3.10269 8.87364L2.45705 10.5954C2.11747 11.5009 2.11747 12.4988 2.45705 13.4043L3.10269 15.1261C3.29796 15.6468 3.2676 16.2253 3.01889 16.7227L2.23102 18.2985C0.735109 21.2903 3.75181 24.5358 6.84482 23.2622L7.13606 23.1423C8.00242 22.7855 8.97589 22.7925 9.83706 23.1615C10.6845 23.5247 11.6005 23.6649 12.5008 23.5821C12.836 23.5513 13.1333 23.3539 13.2916 23.0568C13.45 22.7598 13.4483 22.403 13.2871 22.1074C12.9828 21.5495 12.758 20.9423 12.6278 20.3009C12.5332 19.8348 12.1234 19.4998 11.6478 19.4998H8.99776C7.61705 19.4998 6.49776 18.3806 6.49776 16.9998V6.99985C6.49776 5.61914 7.61705 4.49985 8.99776 4.49985H14.9978C16.3785 4.49985 17.4978 5.61914 17.4978 6.99985V11.5162C17.4978 11.7929 17.6123 12.0571 17.8143 12.2462C18.0162 12.4353 18.2874 12.5323 18.5634 12.5141C18.7069 12.5047 18.8517 12.4998 18.9978 12.4998C19.5317 12.4998 20.0492 12.564 20.5437 12.6846C20.8583 12.7613 21.1905 12.6809 21.4352 12.469C21.68 12.2571 21.807 11.9397 21.776 11.6175C21.7427 11.2704 21.6639 10.9267 21.5397 10.5954L20.894 8.87364C20.6988 8.35291 20.7291 7.77439 20.9778 7.27697L21.7657 5.70124C23.2616 2.70941 20.2449 -0.536071 17.1519 0.737523L16.8607 0.857447C15.9943 1.21418 15.0208 1.20723 14.1597 0.838154Z" fill="#080809" style="fill:#080809;fill:color(display-p3 0.0314 0.0314 0.0353);fill-opacity:1;"/>
<path d="M22.7052 16.7071C23.0957 16.3166 23.0957 15.6834 22.7052 15.2929C22.3146 14.9024 21.6815 14.9024 21.2909 15.2929L18.998 17.5858L16.7052 15.2929C16.3146 14.9024 15.6815 14.9024 15.2909 15.2929C14.9004 15.6834 14.9004 16.3166 15.2909 16.7071L17.5838 19L15.2909 21.2929C14.9004 21.6834 14.9004 22.3166 15.2909 22.7071C15.6815 23.0976 16.3146 23.0976 16.7052 22.7071L18.998 20.4142L21.2909 22.7071C21.6815 23.0976 22.3146 23.0976 22.7052 22.7071C23.0957 22.3166 23.0957 21.6834 22.7052 21.2929L20.4123 19L22.7052 16.7071Z" fill="#080809" style="fill:#080809;fill:color(display-p3 0.0314 0.0314 0.0353);fill-opacity:1;"/>
</svg>
