<svg width="24" height="24" viewBox="0 0 24 24" fill="none" xmlns="http://www.w3.org/2000/svg">
<g clip-path="url(#clip0_29901_27932)">
<path fill-rule="evenodd" clip-rule="evenodd" d="M2.99935 9.5C2.99935 4.52944 7.02878 0.5 11.9993 0.5C16.9699 0.5 20.9993 4.52944 20.9993 9.5V12.4273C20.9993 14.1168 21.4741 15.7723 22.3696 17.205C22.994 18.2041 22.2757 19.5 21.0976 19.5H16.4725C16.2238 21.75 14.3163 23.5 12 23.5C9.68372 23.5 7.77619 21.75 7.52746 19.5H2.90181C1.72366 19.5 1.00539 18.2041 1.62982 17.205C2.5248 15.773 2.99935 14.1184 2.99935 12.4297V9.5ZM9.55001 19.5C9.78164 20.6411 10.7905 21.5 12 21.5C13.2095 21.5 14.2184 20.6411 14.45 19.5H9.55001Z" fill="#080809" style="fill:#080809;fill:color(display-p3 0.0314 0.0314 0.0353);fill-opacity:1;"/>
<path d="M19.5663 0.781691C19.963 0.397454 20.596 0.407566 20.9803 0.804277C22.0395 1.89787 22.9012 3.18503 23.507 4.60838C23.7232 5.11655 23.4866 5.70384 22.9785 5.92013C22.4703 6.13641 21.883 5.8998 21.6667 5.39162C21.1584 4.19728 20.4346 3.1156 19.5437 2.19572C19.1594 1.79901 19.1695 1.16593 19.5663 0.781691Z" fill="#080809" style="fill:#080809;fill:color(display-p3 0.0314 0.0314 0.0353);fill-opacity:1;"/>
<path d="M4.45749 2.19572C4.84172 1.79901 4.83161 1.16593 4.4349 0.781691C4.03819 0.397454 3.4051 0.407566 3.02087 0.804277C1.96166 1.89787 1.1 3.18503 0.494195 4.60838C0.277907 5.11655 0.514525 5.70384 1.0227 5.92013C1.53087 6.13641 2.11816 5.8998 2.33445 5.39162C2.84278 4.19728 3.56654 3.1156 4.45749 2.19572Z" fill="#080809" style="fill:#080809;fill:color(display-p3 0.0314 0.0314 0.0353);fill-opacity:1;"/>
</g>
<defs>
<clipPath id="clip0_29901_27932">
<rect width="24" height="24" fill="white" style="fill:white;fill-opacity:1;"/>
</clipPath>
</defs>
</svg>
