<svg width="24" height="24" viewBox="0 0 24 24" fill="none" xmlns="http://www.w3.org/2000/svg">
<path fill-rule="evenodd" clip-rule="evenodd" d="M23 10C23 14.6501 19.4734 18.4765 14.9489 18.9506C13.6823 20.2168 11.9328 20.9999 10.0004 21C9.08815 22.2144 7.63582 23 6 23C3.23858 23 1 20.7614 1 18C1 16.3642 1.78555 14.9118 3 13.9996C3.0001 12.0672 3.78324 10.3177 5.04943 9.05108C5.52354 4.52656 9.34993 1 14 1C18.9706 1 23 5.02944 23 10ZM10 7C9.10817 7 8.25529 7.16678 7.47085 7.47085C8.4849 4.85484 11.0258 3 14 3C17.866 3 21 6.13401 21 10C21 12.9742 19.1452 15.5151 16.5291 16.5291C16.8332 15.7447 17 14.8918 17 14C17 10.134 13.866 7 10 7ZM5.08376 13.0838C5.38079 13.0288 5.68704 13 6 13C8.76142 13 11 15.2386 11 18C11 18.313 10.9712 18.6192 10.9162 18.9162C13.2401 18.4859 15 16.4485 15 14C15 11.2386 12.7614 9 10 9C7.55154 9 5.51412 10.7599 5.08376 13.0838ZM3 18C3 16.3431 4.34315 15 6 15C7.65685 15 9 16.3431 9 18C9 19.6569 7.65685 21 6 21C4.34315 21 3 19.6569 3 18Z" fill="#080809" style="fill:#080809;fill:color(display-p3 0.0314 0.0314 0.0353);fill-opacity:1;"/>
</svg>
