<svg width="24" height="24" viewBox="0 0 24 24" fill="none" xmlns="http://www.w3.org/2000/svg">
<g clip-path="url(#clip0_29901_26306)">
<path d="M2.5 12C2.5 6.75329 6.75329 2.5 12 2.5C12.4618 2.5 12.9153 2.53287 13.3584 2.59626C13.9051 2.67446 14.4117 2.29465 14.4899 1.74793C14.5681 1.20121 14.1883 0.694611 13.6416 0.616409C13.1049 0.539646 12.5568 0.5 12 0.5C5.64873 0.5 0.5 5.64873 0.5 12C0.5 13.5494 0.806947 15.0296 1.36429 16.3812C1.57482 16.8918 2.1594 17.135 2.66998 16.9245C3.18056 16.714 3.4238 16.1294 3.21327 15.6188C2.7539 14.5048 2.5 13.2833 2.5 12Z" fill="#080809" style="fill:#080809;fill:color(display-p3 0.0314 0.0314 0.0353);fill-opacity:1;"/>
<path d="M23.3836 10.3584C23.3054 9.81168 22.7988 9.43187 22.2521 9.51008C21.7053 9.58828 21.3255 10.0949 21.4037 10.6416C21.4671 11.0847 21.5 11.5382 21.5 12C21.5 17.2467 17.2467 21.5 12 21.5C10.7167 21.5 9.49525 21.2461 8.38121 20.7867C7.87063 20.5762 7.28604 20.8194 7.07551 21.33C6.86498 21.8406 7.10821 22.4252 7.61879 22.6357C8.97043 23.1931 10.4506 23.5 12 23.5C18.3513 23.5 23.5 18.3513 23.5 12C23.5 11.4432 23.4604 10.8951 23.3836 10.3584Z" fill="#080809" style="fill:#080809;fill:color(display-p3 0.0314 0.0314 0.0353);fill-opacity:1;"/>
<path d="M16 11.5C16.8284 11.5 17.5 10.8284 17.5 10C17.5 9.17157 16.8284 8.5 16 8.5C15.1716 8.5 14.5 9.17157 14.5 10C14.5 10.8284 15.1716 11.5 16 11.5Z" fill="#080809" style="fill:#080809;fill:color(display-p3 0.0314 0.0314 0.0353);fill-opacity:1;"/>
<path d="M9.5 10C9.5 10.8284 8.82843 11.5 8 11.5C7.17157 11.5 6.5 10.8284 6.5 10C6.5 9.17157 7.17157 8.5 8 8.5C8.82843 8.5 9.5 9.17157 9.5 10Z" fill="#080809" style="fill:#080809;fill:color(display-p3 0.0314 0.0314 0.0353);fill-opacity:1;"/>
<path d="M8.7179 15.3039C8.33343 14.9074 7.70034 14.8976 7.30385 15.2821C6.90737 15.6666 6.89763 16.2997 7.2821 16.6961C9.8086 19.3016 13.9692 19.3647 16.5735 16.837L16.6965 16.7176C17.0928 16.3329 17.1022 15.6998 16.7176 15.3035C16.3329 14.9072 15.6998 14.8978 15.3035 15.2824L15.1805 15.4018C13.3691 17.1599 10.4752 17.1161 8.7179 15.3039Z" fill="#080809" style="fill:#080809;fill:color(display-p3 0.0314 0.0314 0.0353);fill-opacity:1;"/>
<path d="M4.20974 18.5094C4.10601 18.2059 3.82078 18.002 3.50004 18.002C3.17931 18.002 2.89407 18.2059 2.79034 18.5094L2.46357 19.4655L1.50642 19.7921C1.20274 19.8958 0.998617 20.1811 0.998617 20.502C0.998617 20.8228 1.20274 21.1082 1.50642 21.2118L2.46357 21.5384L2.79034 22.4945C2.89407 22.798 3.17931 23.002 3.50004 23.002C3.82078 23.002 4.10601 22.798 4.20974 22.4945L4.53651 21.5384L5.49366 21.2118C5.79734 21.1082 6.00147 20.8228 6.00147 20.502C6.00147 20.1811 5.79734 19.8958 5.49366 19.7921L4.53651 19.4655L4.20974 18.5094Z" fill="#080809" style="fill:#080809;fill:color(display-p3 0.0314 0.0314 0.0353);fill-opacity:1;"/>
<path d="M20.4447 1.1766C20.3064 0.771935 19.9261 0.5 19.4984 0.5C19.0708 0.5 18.6905 0.771935 18.5522 1.1766L17.9466 2.94842L16.173 3.55358C15.7681 3.69173 15.496 4.07217 15.496 4.5C15.496 4.92783 15.7681 5.30827 16.173 5.44642L17.9466 6.05158L18.5522 7.8234C18.6905 8.22806 19.0708 8.5 19.4984 8.5C19.9261 8.5 20.3064 8.22806 20.4447 7.8234L21.0502 6.05158L22.8238 5.44642C23.2287 5.30827 23.5009 4.92783 23.5009 4.5C23.5009 4.07217 23.2287 3.69173 22.8238 3.55358L21.0502 2.94842L20.4447 1.1766Z" fill="#080809" style="fill:#080809;fill:color(display-p3 0.0314 0.0314 0.0353);fill-opacity:1;"/>
</g>
<defs>
<clipPath id="clip0_29901_26306">
<rect width="24" height="24" fill="white" style="fill:white;fill-opacity:1;"/>
</clipPath>
</defs>
</svg>
