<svg width="24" height="24" viewBox="0 0 24 24" fill="none" xmlns="http://www.w3.org/2000/svg">
<path fill-rule="evenodd" clip-rule="evenodd" d="M9.7301 1.92408C10.6236 -0.0131055 13.3769 -0.0131012 14.2704 1.92408L16.4169 6.57776L21.5062 7.18117C23.6246 7.43235 24.4754 10.0508 22.9092 11.4992L19.1466 14.9788L20.1454 20.0054C20.5611 22.0978 18.3337 23.7161 16.4722 22.6741L12.0002 20.1709L7.52829 22.6741C5.66676 23.7161 3.43937 22.0978 3.85513 20.0054L4.85391 14.9788L1.09131 11.4992C-0.474943 10.0508 0.375851 7.43235 2.49433 7.18117L7.58357 6.57776L9.7301 1.92408ZM12.4543 2.76177C12.2756 2.37433 11.7249 2.37433 11.5462 2.76177L9.16523 7.92374C9.01956 8.23955 8.72028 8.45699 8.37491 8.49794L2.72982 9.16726C2.30612 9.21749 2.13596 9.74119 2.44921 10.0309L6.62278 13.8905C6.87811 14.1266 6.99243 14.4784 6.92465 14.8195L5.81678 20.3952C5.73362 20.8137 6.17911 21.1373 6.55141 20.9289L11.5118 18.1523C11.8153 17.9824 12.1852 17.9824 12.4887 18.1523L17.4491 20.9289C17.8214 21.1373 18.2669 20.8137 18.1837 20.3952L17.0758 14.8195C17.0081 14.4784 17.1224 14.1266 17.3777 13.8905L21.5513 10.0309C21.8645 9.74119 21.6944 9.21749 21.2707 9.16726L15.6256 8.49794C15.2802 8.45699 14.9809 8.23955 14.8353 7.92374L12.4543 2.76177Z" fill="#080809" style="fill:#080809;fill:color(display-p3 0.0314 0.0314 0.0353);fill-opacity:1;"/>
</svg>
