<svg width="24" height="24" viewBox="0 0 24 24" fill="none" xmlns="http://www.w3.org/2000/svg">
<path d="M3.5 5.5C4.05228 5.5 4.5 5.94772 4.5 6.5V16.5C4.5 17.9422 4.50185 18.9234 4.60059 19.6582C4.69551 20.3643 4.86337 20.6915 5.08594 20.9141C5.30851 21.1366 5.63575 21.3045 6.3418 21.3994C7.07657 21.4982 8.05778 21.5 9.5 21.5H16L16.1025 21.5049C16.6067 21.5562 17 21.9823 17 22.5C17 23.0177 16.6067 23.4438 16.1025 23.4951L16 23.5H9.5C8.11416 23.5 6.97423 23.5017 6.0752 23.3809C5.14737 23.2561 4.32798 22.9842 3.67188 22.3281C3.01577 21.672 2.74389 20.8526 2.61914 19.9248C2.49829 19.0258 2.5 17.8858 2.5 16.5V6.5C2.5 5.94772 2.94772 5.50001 3.5 5.5Z" fill="#080809" style="fill:#080809;fill:color(display-p3 0.0314 0.0314 0.0353);fill-opacity:1;"/>
<path fill-rule="evenodd" clip-rule="evenodd" d="M15 0.500001C16.3858 0.500001 17.5258 0.498295 18.4248 0.619142C19.3526 0.743885 20.172 1.01577 20.8281 1.67188L20.9473 1.79688C21.518 2.43085 21.7639 3.20551 21.8809 4.0752C22.0017 4.97423 22 6.11417 22 7.5V13C22 14.3858 22.0017 15.5258 21.8809 16.4248C21.7639 17.2945 21.518 18.0692 20.9473 18.7031L20.8281 18.8281C20.172 19.4842 19.3526 19.7561 18.4248 19.8809C17.5258 20.0017 16.3858 20 15 20H13C11.6142 20 10.4742 20.0017 9.5752 19.8809C8.70552 19.7639 7.93085 19.518 7.29688 18.9473L7.17188 18.8281C6.51577 18.172 6.24388 17.3526 6.11914 16.4248C5.99829 15.5258 6 14.3858 6 13V7.5C6 6.11417 5.99829 4.97423 6.11914 4.0752C6.24389 3.14737 6.51577 2.32798 7.17188 1.67188C7.82798 1.01577 8.64737 0.743886 9.5752 0.619142C10.4742 0.498294 11.6142 0.500001 13 0.500001H15ZM14 6.5C13.4477 6.5 13 6.94772 13 7.5V9H11.5C10.9477 9 10.5 9.44772 10.5 10C10.5 10.5523 10.9477 11 11.5 11H13V12.5C13 13.0523 13.4477 13.5 14 13.5C14.5523 13.5 15 13.0523 15 12.5V11H16.5C17.0523 11 17.5 10.5523 17.5 10C17.5 9.44772 17.0523 9 16.5 9H15V7.5C15 6.94772 14.5523 6.5 14 6.5Z" fill="#080809" style="fill:#080809;fill:color(display-p3 0.0314 0.0314 0.0353);fill-opacity:1;"/>
</svg>
