<svg width="24" height="24" viewBox="0 0 24 24" fill="none" xmlns="http://www.w3.org/2000/svg">
<path d="M9.49902 3.63932V1.92857C9.49902 1.13959 10.1386 0.5 10.9276 0.5C12.9 0.5 14.499 2.09898 14.499 4.07143V7.5C14.499 7.77614 14.7229 8 14.999 8H20C21.6569 8 23 9.34315 23 11C23 11.2242 22.9754 11.4427 22.9288 11.6528C22.8698 11.9187 22.9167 12.2006 23.0591 12.4327C23.3389 12.8887 23.5001 13.4252 23.5001 13.9993C23.5001 14.7901 23.1941 15.5095 22.6941 16.0454C22.4348 16.3233 22.334 16.7316 22.4233 17.101C22.4736 17.309 22.5002 17.5261 22.5002 17.7495C22.5002 18.7204 21.9971 19.5738 21.2373 20.0631C21.0895 20.1584 21 20.3247 21 20.5006C21 21.8813 19.8807 23.0006 18.5 23.0006H12.5C12.4817 23.0006 12.4635 23.0004 12.4453 23H8.49902C7.6706 23 6.99902 22.3284 6.99902 21.5V12.1803C6.99902 11.4041 7.17975 10.6385 7.52689 9.94427L8.4433 8.11146C9.13757 6.7229 9.49902 5.19177 9.49902 3.63932Z" fill="#080809" style="fill:#080809;fill:color(display-p3 0.0314 0.0314 0.0353);fill-opacity:1;"/>
<path d="M2.5 10.4995C1.39543 10.4995 0.5 11.3949 0.5 12.4995V20.9995C0.5 22.1041 1.39543 22.9995 2.5 22.9995H4.5C5.05228 22.9995 5.5 22.5518 5.5 21.9995V11.4995C5.5 10.9472 5.05228 10.4995 4.5 10.4995H2.5Z" fill="#080809" style="fill:#080809;fill:color(display-p3 0.0314 0.0314 0.0353);fill-opacity:1;"/>
</svg>
