<svg width="24" height="24" viewBox="0 0 24 24" fill="none" xmlns="http://www.w3.org/2000/svg">
<path d="M16.25 5.98223V3C16.25 2.30964 15.6904 1.75 15 1.75C14.3096 1.75 13.75 2.30964 13.75 3V7.5C13.75 9.01878 14.9812 10.25 16.5 10.25H21C21.6904 10.25 22.25 9.69036 22.25 9C22.25 8.30964 21.6904 7.75 21 7.75H18.0178L21.8839 3.88388C22.372 3.39573 22.372 2.60427 21.8839 2.11612C21.3957 1.62796 20.6043 1.62796 20.1161 2.11612L16.25 5.98223Z" fill="#080809" style="fill:#080809;fill:color(display-p3 0.0314 0.0314 0.0353);fill-opacity:1;"/>
<path d="M9 22.25C8.30964 22.25 7.75 21.6904 7.75 21V18.0178L3.88388 21.8839C3.39573 22.372 2.60427 22.372 2.11612 21.8839C1.62796 21.3957 1.62796 20.6043 2.11612 20.1161L5.98223 16.25H3C2.30964 16.25 1.75 15.6904 1.75 15C1.75 14.3096 2.30964 13.75 3 13.75H7.5C9.01878 13.75 10.25 14.9812 10.25 16.5V21C10.25 21.6904 9.69036 22.25 9 22.25Z" fill="#080809" style="fill:#080809;fill:color(display-p3 0.0314 0.0314 0.0353);fill-opacity:1;"/>
</svg>
