<svg width="24" height="24" viewBox="0 0 24 24" fill="none" xmlns="http://www.w3.org/2000/svg">
<path d="M2.70711 1.29289C2.31658 0.902369 1.68342 0.902369 1.29289 1.29289C0.902369 1.68342 0.902369 2.31658 1.29289 2.70711L4.81097 6.22518C4.83011 6.24567 4.84988 6.26542 4.87023 6.28444L10.4708 11.885C10.4852 11.9002 10.5 11.9149 10.5151 11.9293L21.2929 22.7071C21.6834 23.0976 22.3166 23.0976 22.7071 22.7071C23.0976 22.3166 23.0976 21.6834 22.7071 21.2929L13.9502 12.536C14.9283 12.8301 15.8522 13.3507 16.6402 14.0975C17.1413 14.5723 17.9325 14.5511 18.4073 14.05C18.8822 13.5489 18.8609 12.7577 18.3598 12.2828C16.3901 10.4163 13.8002 9.58202 11.2802 9.77772C11.2534 9.7798 11.2269 9.78271 11.2006 9.78642L7.43889 6.02468C12.2315 4.34379 17.7674 5.39752 21.6248 9.18003C22.1177 9.66338 22.9092 9.65561 23.3925 9.16269C23.8759 8.66978 23.8681 7.87836 23.3752 7.39501C18.5149 2.62914 11.4065 1.5322 5.51137 4.09716L2.70711 1.29289Z" fill="#080809" style="fill:#080809;fill:color(display-p3 0.0314 0.0314 0.0353);fill-opacity:1;"/>
<path d="M3.22568 6.76724C3.67382 7.29237 3.61142 8.08136 3.08629 8.5295C2.84372 8.73651 2.60652 8.95341 2.37519 9.18025C1.88228 9.66361 1.09086 9.65586 0.607509 9.16295C0.124154 8.67004 0.1319 7.87863 0.624809 7.39527C0.897325 7.12804 1.17706 6.87222 1.46342 6.62785C1.98854 6.1797 2.77754 6.24211 3.22568 6.76724Z" fill="#080809" style="fill:#080809;fill:color(display-p3 0.0314 0.0314 0.0353);fill-opacity:1;"/>
<path d="M8.25978 11.8155C8.66995 12.3708 8.5523 13.1534 7.99701 13.5636C7.77683 13.7262 7.56397 13.9042 7.35985 14.0977C6.85877 14.5725 6.0676 14.5513 5.59272 14.0502C5.11784 13.5491 5.13907 12.758 5.64015 12.2831C5.91854 12.0193 6.20968 11.7757 6.51165 11.5527C7.06694 11.1425 7.8496 11.2602 8.25978 11.8155Z" fill="#080809" style="fill:#080809;fill:color(display-p3 0.0314 0.0314 0.0353);fill-opacity:1;"/>
<path d="M10 19C10 17.8954 10.8954 17 12 17C13.1046 17 14 17.8954 14 19C14 20.1046 13.1046 21 12 21C10.8954 21 10 20.1046 10 19Z" fill="#080809" style="fill:#080809;fill:color(display-p3 0.0314 0.0314 0.0353);fill-opacity:1;"/>
</svg>
