<svg width="24" height="24" viewBox="0 0 24 24" fill="none" xmlns="http://www.w3.org/2000/svg">
<g clip-path="url(#clip0_29901_27805)">
<path fill-rule="evenodd" clip-rule="evenodd" d="M12 0.5C5.64873 0.5 0.5 5.64873 0.5 12C0.5 13.9218 0.972204 15.7363 1.80777 17.3308C1.89499 17.4973 1.908 17.6559 1.87673 17.7765L0.995321 21.1762C0.708248 22.2835 1.71647 23.2918 2.82376 23.0047L6.22347 22.1233C6.34411 22.092 6.50272 22.105 6.66917 22.1922C8.26373 23.0278 10.0782 23.5 12 23.5C12.3366 23.5 12.6701 23.4855 12.9999 23.4571C13.3395 23.4278 13.6409 23.2275 13.7994 22.9256C13.9578 22.6237 13.9516 22.2619 13.7828 21.9657C13.2848 21.0918 13 20.0807 13 19C13 15.6863 15.6863 13 19 13C20.0807 13 21.0918 13.2848 21.9657 13.7828C22.2619 13.9516 22.6237 13.9578 22.9256 13.7994C23.2275 13.6409 23.4278 13.3395 23.4571 12.9999C23.4855 12.6701 23.5 12.3366 23.5 12C23.5 5.64873 18.3513 0.5 12 0.5ZM18.0593 10.5711C18.3112 10.2451 18.2817 9.7827 17.9903 9.49139C17.7073 9.20835 17.2611 9.17143 16.9354 9.40408L13.9999 11.5009L10.9234 9.32932C10.2672 8.86612 9.36263 9.00203 8.8715 9.6376L5.94044 13.4307C5.68854 13.7567 5.71806 14.2191 6.00937 14.5104C6.29241 14.7934 6.73859 14.8304 7.06431 14.5977L9.99986 12.5009L13.0763 14.6725C13.7325 15.1357 14.6371 14.9998 15.1282 14.3642L18.0593 10.5711Z" fill="#080809" style="fill:#080809;fill:color(display-p3 0.0314 0.0314 0.0353);fill-opacity:1;"/>
<path fill-rule="evenodd" clip-rule="evenodd" d="M21.25 16.75V18.0207C21.9594 18.1398 22.5 18.7568 22.5 19.5V21.5C22.5 22.3284 21.8284 23 21 23H17C16.1716 23 15.5 22.3284 15.5 21.5V19.5C15.5 18.7568 16.0406 18.1398 16.75 18.0207V16.75C16.75 15.5074 17.7574 14.5 19 14.5C20.2426 14.5 21.25 15.5074 21.25 16.75ZM19.75 18H18.25V16.75C18.25 16.3358 18.5858 16 19 16C19.4142 16 19.75 16.3358 19.75 16.75V18Z" fill="#080809" style="fill:#080809;fill:color(display-p3 0.0314 0.0314 0.0353);fill-opacity:1;"/>
</g>
<defs>
<clipPath id="clip0_29901_27805">
<rect width="24" height="24" fill="white" style="fill:white;fill-opacity:1;"/>
</clipPath>
</defs>
</svg>
