<svg width="24" height="24" viewBox="0 0 24 24" fill="none" xmlns="http://www.w3.org/2000/svg">
<path d="M12.5 12C12.5 13.3807 11.3807 14.5 10 14.5C8.61929 14.5 7.5 13.3807 7.5 12C7.5 10.6193 8.61929 9.5 10 9.5C10.1712 9.5 10.3384 9.51722 10.5 9.55001V7.15296L5.5 7.86724V12.9999C5.5 14.3807 4.38071 15.5 3 15.5C1.61929 15.5 0.5 14.3807 0.5 13C0.5 11.6193 1.61929 10.5 3 10.5C3.17123 10.5 3.33844 10.5172 3.5 10.55V5.4336C3.5 4.68712 4.04889 4.05424 4.78787 3.94867L10.7879 3.09153C11.6915 2.96244 12.5 3.66363 12.5 4.57645V12Z" fill="#080809" style="fill:#080809;fill:color(display-p3 0.0314 0.0314 0.0353);fill-opacity:1;"/>
<path d="M14 5C14 4.44772 14.4477 4 15 4L21 4C21.5523 4 22 4.44772 22 5C22 5.55229 21.5523 6 21 6L15 6C14.4477 6 14 5.55228 14 5Z" fill="#080809" style="fill:#080809;fill:color(display-p3 0.0314 0.0314 0.0353);fill-opacity:1;"/>
<path d="M11.5005 20H3C2.44772 20 2 19.5523 2 19C2 18.4477 2.44772 18 3 18H11.5005C12.0528 18 12.5005 18.4477 12.5005 19C12.5005 19.5523 12.0528 20 11.5005 20Z" fill="#080809" style="fill:#080809;fill:color(display-p3 0.0314 0.0314 0.0353);fill-opacity:1;"/>
<path d="M15 11C14.4477 11 14 11.4477 14 12C14 12.5523 14.4477 13 15 13L21 13C21.5523 13 22 12.5523 22 12C22 11.4477 21.5523 11 21 11L15 11Z" fill="#080809" style="fill:#080809;fill:color(display-p3 0.0314 0.0314 0.0353);fill-opacity:1;"/>
<path d="M18.0506 15.6046C18.4268 14.7985 19.5732 14.7985 19.9494 15.6046L20.1638 16.064C20.5281 16.8445 21.1555 17.4719 21.936 17.8362L22.3954 18.0506C23.2015 18.4268 23.2015 19.5732 22.3954 19.9494L21.936 20.1638C21.1555 20.5281 20.5281 21.1555 20.1638 21.936L19.9494 22.3954C19.5732 23.2015 18.4268 23.2015 18.0506 22.3954L17.8362 21.936C17.4719 21.1555 16.8445 20.5281 16.064 20.1638L15.6046 19.9494C14.7985 19.5732 14.7985 18.4268 15.6046 18.0506L16.064 17.8362C16.8445 17.4719 17.4719 16.8445 17.8362 16.064L18.0506 15.6046Z" fill="#080809" style="fill:#080809;fill:color(display-p3 0.0314 0.0314 0.0353);fill-opacity:1;"/>
</svg>
