<svg width="24" height="24" viewBox="0 0 24 24" fill="none" xmlns="http://www.w3.org/2000/svg">
<path fill-rule="evenodd" clip-rule="evenodd" d="M11 1.5C11 0.947715 11.4477 0.5 12 0.5H14C14.5523 0.5 15 0.947715 15 1.5V2.5C15 3.05228 14.5523 3.5 14 3.5H13V4.57489C13.0195 4.58637 13.0387 4.59797 13.0575 4.60964C13.3035 4.76186 13.5696 4.97486 13.8377 5.18937L16.8738 7.61826C16.8986 7.63811 16.9243 7.65843 16.9506 7.67928C17.2362 7.90537 17.6004 8.19378 17.8023 8.61387C18.0042 9.03396 18.0019 9.49856 18.0001 9.86278L17.9999 9.90475L17.9997 9.96088V11H20.5C21.8807 11 23 12.1193 23 13.5V20.5C23 21.8807 21.8807 23 20.5 23H17C16.9911 23 16.9822 22.9999 16.9734 22.9997H7.02661C7.01777 22.9999 7.0089 23 7 23H3.5C2.11929 23 1 21.8807 1 20.5V13.5C1 12.1193 2.11929 11 3.5 11H5.99972V9.96088C5.99972 9.92911 5.99955 9.89637 5.99938 9.86278C5.99755 9.49856 5.99521 9.03396 6.19711 8.61387C6.39902 8.19378 6.76328 7.90537 7.04883 7.67928L7.04965 7.67863C7.0757 7.65801 7.10109 7.6379 7.12564 7.61826L10.1618 5.18938C10.4298 4.97487 10.6959 4.76186 10.9419 4.60964C10.961 4.59785 10.9803 4.58615 11 4.57456V1.5ZM5.99972 13V21H3.5C3.22386 21 3 20.7761 3 20.5V13.5C3 13.2239 3.22386 13 3.5 13H5.99972ZM20.5 13H18V21H20.5C20.7761 21 21 20.7761 21 20.5V13.5C21 13.2239 20.7761 13 20.5 13ZM10 17C10 15.8954 10.8954 15 12 15C13.1046 15 14 15.8954 14 17V21H10V17Z" fill="#080809" style="fill:#080809;fill:color(display-p3 0.0314 0.0314 0.0353);fill-opacity:1;"/>
</svg>
