<svg width="24" height="24" viewBox="0 0 24 24" fill="none" xmlns="http://www.w3.org/2000/svg">
<path fill-rule="evenodd" clip-rule="evenodd" d="M7.0739 3.87535C8.51028 3.00259 10.1964 2.5 12 2.5C13.9 2.5 15.6698 3.05781 17.1545 4.01859L14.5878 6.58523C14.5048 6.54545 14.4206 6.50752 14.3355 6.47151C13.6176 6.16789 12.8284 6 12 6C11.9935 6 11.9871 6.00001 11.9806 6.00003C11.0616 6.00294 10.1912 6.21246 9.41352 6.58457L6.84674 4.0178C6.92174 3.96928 6.99747 3.92179 7.0739 3.87535ZM4.0182 6.84611C3.06284 8.32265 2.50603 10.0811 2.50005 11.9693C2.50002 11.9795 2.5 11.9898 2.5 12C2.5 13.8036 3.00259 15.4897 3.87535 16.9261C3.92192 17.0027 3.96954 17.0787 4.01821 17.1539L6.58491 14.5872C6.58491 14.5872 6.58491 14.5872 6.58491 14.5872C6.20997 13.8038 6 12.9264 6 12C6 11.1716 6.16789 10.3824 6.47151 9.66453C6.50743 9.57961 6.54524 9.49569 6.58491 9.41282L4.0182 6.84611ZM9.41352 17.4154L6.84674 19.9822C8.33115 20.9425 10.1005 21.5 12 21.5C13.8036 21.5 15.4897 20.9974 16.9261 20.1247C17.0025 20.0782 17.0783 20.0307 17.1533 19.9822L14.5865 17.4154C13.8033 17.7901 12.9262 18 12 18C11.1716 18 10.3824 17.8321 9.66453 17.5285C9.57985 17.4927 9.49616 17.455 9.41352 17.4154ZM17.4151 14.5871L19.9818 17.1538C20.9423 15.6693 21.5 13.8998 21.5 12C21.5 10.1964 20.9974 8.51028 20.1247 7.0739C20.0783 6.99767 20.031 6.92214 19.9826 6.84734L17.4157 9.41418C17.7877 10.1917 17.9971 11.0619 18 11.9806C18 11.9871 18 11.9935 18 12C18 12.8284 17.8321 13.6176 17.5285 14.3355C17.4926 14.4204 17.4548 14.5043 17.4151 14.5871ZM10.8242 0.559373C5.02525 1.14829 0.5 6.04568 0.5 12C0.5 18.3513 5.64873 23.5 12 23.5C18.3513 23.5 23.5 18.3513 23.5 12C23.5 11.2061 23.4196 10.431 23.2664 9.68235C22.194 4.44199 17.5574 0.5 12 0.5C11.603 0.5 11.2108 0.520112 10.8242 0.559373ZM8.08127 11.1939C8.45425 9.37113 10.067 8 12 8C12.1381 8 12.2745 8.007 12.409 8.02065C14.426 8.22549 16 9.92893 16 12C16 14.2091 14.2091 16 12 16C9.79086 16 8 14.2091 8 12C8 11.7239 8.02798 11.4543 8.08127 11.1939Z" fill="#080809" style="fill:#080809;fill:color(display-p3 0.0314 0.0314 0.0353);fill-opacity:1;"/>
</svg>
