<svg width="24" height="24" viewBox="0 0 24 24" fill="none" xmlns="http://www.w3.org/2000/svg">
<path fill-rule="evenodd" clip-rule="evenodd" d="M8.26298 9L7.41094 5.02382C7.07745 3.46754 8.26384 2 9.85545 2H10.681C11.5317 2 12.324 2.43255 12.784 3.14811L16.5459 9H20.0003C21.9333 9 23.5003 10.567 23.5003 12.5C23.5003 14.433 21.9333 16 20.0003 16H16.5462L12.7843 21.8519C12.3243 22.5675 11.532 23 10.6813 23H9.85575C8.26414 23 7.07776 21.5325 7.41125 19.9762L8.26328 16H5.24005C3.31519 16 1.66329 14.629 1.30856 12.7372L0.586421 8.88575C0.305252 7.38617 1.45567 6 2.98138 6C3.79609 6 4.5569 6.40717 5.00883 7.08506L6.13702 8.77735C6.22975 8.91645 6.38587 9 6.55305 9H8.26298ZM9.36655 4.60477C9.29985 4.29351 9.53713 4 9.85545 4H10.681C10.8512 4 11.0096 4.08651 11.1016 4.22962L14.1683 9H10.3084L9.36655 4.60477ZM20.0003 11C20.8287 11 21.5003 11.6716 21.5003 12.5C21.5003 13.3284 20.8287 14 20.0003 14H16.2732C15.7628 14 15.2875 14.2595 15.0115 14.6889L11.1019 20.7704C11.0099 20.9135 10.8515 21 10.6813 21H9.85575C9.53743 21 9.30015 20.7065 9.36685 20.3952L10.3485 15.8143C10.5486 14.8805 9.83674 14 8.88178 14H5.24005C4.27762 14 3.45167 13.3145 3.2743 12.3686L2.55217 8.51717C2.50178 8.24842 2.70795 8 2.98138 8C3.12739 8 3.26373 8.07297 3.34473 8.19446L4.47292 9.88675C4.93658 10.5822 5.71716 11 6.55305 11C11.0355 11 15.5177 11 20.0003 11Z" fill="#080809" style="fill:#080809;fill:color(display-p3 0.0314 0.0314 0.0353);fill-opacity:1;"/>
</svg>
