<svg width="24" height="24" viewBox="0 0 24 24" fill="none" xmlns="http://www.w3.org/2000/svg">
<g clip-path="url(#clip0_29901_26557)">
<path d="M11.9994 0.5C5.64834 0.5 0.499512 5.64868 0.499512 11.9998C0.499512 18.3509 5.64834 23.5 11.9994 23.5C18.3505 23.5 23.4994 18.3516 23.4994 11.9998C23.4994 5.648 18.3508 0.5 11.9994 0.5ZM17.2734 17.0869C17.0668 17.4257 16.6255 17.5319 16.2878 17.3255C13.5873 15.675 10.1883 15.3021 6.18528 16.2166C5.79953 16.305 5.41503 16.0632 5.32714 15.6776C5.23884 15.2918 5.47957 14.9073 5.86627 14.8194C10.2469 13.8179 14.0045 14.249 17.0357 16.1012C17.3736 16.3076 17.48 16.7491 17.2734 17.0869ZM18.6805 13.9555C18.4204 14.3775 17.8687 14.5099 17.4472 14.2508C14.3567 12.3511 9.6442 11.8008 5.98794 12.9106C5.51376 13.0539 5.01294 12.7866 4.86903 12.3133C4.72621 11.8391 4.99358 11.3392 5.46694 11.1951C9.64365 9.9277 14.836 10.5415 18.3856 12.7228C18.807 12.9823 18.9397 13.5345 18.6805 13.9555ZM18.8019 10.6949C15.095 8.49349 8.98051 8.29107 5.44181 9.36508C4.87356 9.53742 4.27263 9.21663 4.10042 8.64839C3.92822 8.07987 4.24873 7.47935 4.81739 7.3066C8.87958 6.07343 15.6325 6.31168 19.9 8.8449C20.4111 9.14825 20.5788 9.80836 20.2758 10.3188C19.9726 10.8299 19.3118 10.9984 18.8019 10.6949Z" fill="#080809" style="fill:#080809;fill:color(display-p3 0.0314 0.0314 0.0353);fill-opacity:1;"/>
</g>
<defs>
<clipPath id="clip0_29901_26557">
<rect width="24" height="24" fill="white" style="fill:white;fill-opacity:1;"/>
</clipPath>
</defs>
</svg>
