<svg width="24" height="24" viewBox="0 0 24 24" fill="none" xmlns="http://www.w3.org/2000/svg">
<path fill-rule="evenodd" clip-rule="evenodd" d="M8 4C8 2.34315 9.34315 1 11 1H20C21.6569 1 23 2.34315 23 4V13C23 14.6569 21.6569 16 20 16H11C9.34315 16 8 14.6569 8 13V4ZM11 3H12V5.5H10V4C10 3.44772 10.4477 3 11 3ZM10 9.5V7.5H12V9.5H10ZM10 13V11.5H12V14H11C10.4477 14 10 13.5523 10 13ZM19 5.5V3H20C20.5523 3 21 3.44772 21 4V5.5H19ZM19 9.5V7.5H21V9.5H19ZM19 14V11.5H21V13C21 13.5523 20.5523 14 20 14H19Z" fill="#080809" style="fill:#080809;fill:color(display-p3 0.0314 0.0314 0.0353);fill-opacity:1;"/>
<path d="M5.5 4.5C6.05228 4.5 6.5 4.94772 6.5 5.5V16.5C6.5 17.0523 6.94772 17.5 7.5 17.5H18.5C19.0523 17.5 19.5 17.9477 19.5 18.5C19.5 19.0523 19.0523 19.5 18.5 19.5H7.5C5.84315 19.5 4.5 18.1569 4.5 16.5V5.5C4.5 4.94772 4.94772 4.5 5.5 4.5Z" fill="#080809" style="fill:#080809;fill:color(display-p3 0.0314 0.0314 0.0353);fill-opacity:1;"/>
<path d="M3 9C3 8.44772 2.55228 8 2 8C1.44772 8 1 8.44772 1 9V20C1 21.6569 2.34315 23 4 23H15C15.5523 23 16 22.5523 16 22C16 21.4477 15.5523 21 15 21H4C3.44772 21 3 20.5523 3 20V9Z" fill="#080809" style="fill:#080809;fill:color(display-p3 0.0314 0.0314 0.0353);fill-opacity:1;"/>
</svg>
