<svg width="24" height="24" viewBox="0 0 24 24" fill="none" xmlns="http://www.w3.org/2000/svg">
<path fill-rule="evenodd" clip-rule="evenodd" d="M20.5 5C18.8431 5 17.5 6.34315 17.5 8C17.5 9.65685 18.8431 11 20.5 11C22.1569 11 23.5 9.65685 23.5 8C23.5 6.34315 22.1569 5 20.5 5ZM19.5 8C19.5 7.44772 19.9477 7 20.5 7C21.0523 7 21.5 7.44772 21.5 8C21.5 8.55228 21.0523 9 20.5 9C19.9477 9 19.5 8.55228 19.5 8Z" fill="#080809" style="fill:#080809;fill:color(display-p3 0.0314 0.0314 0.0353);fill-opacity:1;"/>
<path d="M2.4576 18.2873C4.1058 12.7933 9.25386 9 14.9998 9C15.5521 9 15.9998 8.55228 15.9998 8C15.9998 7.44772 15.5521 7 14.9998 7C8.38066 7 2.44681 11.3631 0.541949 17.7127C0.383251 18.2416 0.683434 18.7991 1.21243 18.9578C1.74142 19.1165 2.2989 18.8163 2.4576 18.2873Z" fill="#080809" style="fill:#080809;fill:color(display-p3 0.0314 0.0314 0.0353);fill-opacity:1;"/>
</svg>
