<svg width="24" height="24" viewBox="0 0 24 24" fill="none" xmlns="http://www.w3.org/2000/svg">
<path fill-rule="evenodd" clip-rule="evenodd" d="M11.5 3.00055L11.265 3.00029H10.2503C8.80071 3.00029 7.8393 3.00294 7.12501 3.09897C6.44668 3.19017 6.18121 3.34447 6.01283 3.51285C5.75605 3.76962 5.56439 4.21574 5.51702 5.78793C5.49623 6.47797 4.91999 7.02051 4.22995 6.99972C3.5399 6.97893 2.99737 6.40268 3.01816 5.71264C3.0644 4.17793 3.21923 2.77091 4.24506 1.74508C4.95536 1.03478 5.83634 0.749737 6.79189 0.621267C7.69249 0.500184 8.82357 0.500229 10.1651 0.500283L11.4563 0.50014C12.4934 0.498957 13.3474 0.497982 14.134 0.823797C14.9206 1.14961 15.5238 1.75419 16.2563 2.48835L19.0122 5.24425C19.7464 5.97674 20.3509 6.57994 20.6768 7.36652C21.0026 8.15311 21.0016 9.00714 21.0004 10.0442L21.0003 12.7503C21.0003 13.4406 20.4406 14.0003 19.7503 14.0003C19.0599 14.0003 18.5003 13.4406 18.5003 12.7503V10.2356L18.5 10H14.25C12.7312 10 11.5 8.76878 11.5 7.25V3.00055ZM17.7235 7.5C17.5638 7.33392 17.3632 7.13101 17.109 6.87681L14.6237 4.39153C14.3693 4.13705 14.1662 3.93626 14 3.77656V7.25C14 7.38807 14.1119 7.5 14.25 7.5H17.7235Z" fill="#080809" style="fill:#080809;fill:color(display-p3 0.0314 0.0314 0.0353);fill-opacity:1;"/>
<path d="M4.22995 17.0006C4.91999 16.9798 5.49623 17.5223 5.51702 18.2124C5.56439 19.7846 5.75605 20.2307 6.01283 20.4874C6.18121 20.6558 6.44668 20.8101 7.12501 20.9013C7.8393 20.9974 8.80071 21 10.2503 21H13.7503C15.1998 21 16.1612 20.9974 16.8755 20.9013C17.5539 20.8101 17.8193 20.6558 17.9877 20.4874C18.2445 20.2307 18.4361 19.7846 18.4835 18.2124C18.5043 17.5223 19.0805 16.9798 19.7706 17.0006C20.4606 17.0214 21.0032 17.5976 20.9824 18.2877C20.9361 19.8224 20.7813 21.2294 19.7555 22.2552C19.0452 22.9655 18.1642 23.2506 17.2086 23.379C16.3081 23.5001 15.177 23.5001 13.8355 23.5H10.1651C8.8236 23.5001 7.69248 23.5001 6.79189 23.379C5.83634 23.2506 4.95536 22.9655 4.24506 22.2552C3.21923 21.2294 3.0644 19.8224 3.01816 18.2877C2.99737 17.5976 3.5399 17.0214 4.22995 17.0006Z" fill="#080809" style="fill:#080809;fill:color(display-p3 0.0314 0.0314 0.0353);fill-opacity:1;"/>
<path d="M5.5 11.25C5.5 10.5596 4.94036 10 4.25 10C3.55964 10 3 10.5596 3 11.25V12.75C3 13.4404 3.55964 14 4.25 14C4.94036 14 5.5 13.4404 5.5 12.75V11.25Z" fill="#080809" style="fill:#080809;fill:color(display-p3 0.0314 0.0314 0.0353);fill-opacity:1;"/>
</svg>
