<svg width="24" height="24" viewBox="0 0 24 24" fill="none" xmlns="http://www.w3.org/2000/svg">
<path d="M7.92943 0.500001H10.0706C11.4247 0.499967 12.5413 0.499939 13.4251 0.618756C14.3529 0.743499 15.1723 1.01547 15.8284 1.67158C15.8864 1.72955 15.9421 1.78952 15.9954 1.85156C16.247 2.14416 16.3078 2.55543 16.1516 2.90832C15.9954 3.26121 15.6501 3.49272 15.2644 3.5032C10.6792 3.62773 7 7.38437 7 12C7 16.6156 10.6792 20.3723 15.2644 20.4968C15.6501 20.5073 15.9954 20.7388 16.1516 21.0917C16.3078 21.4446 16.247 21.8558 15.9954 22.1484C15.9421 22.2105 15.8864 22.2705 15.8284 22.3284C15.1723 22.9845 14.3529 23.2565 13.4251 23.3813C12.5413 23.5001 11.4247 23.5 10.0707 23.5H7.92944C6.57536 23.5 5.45867 23.5001 4.57494 23.3813C3.64711 23.2565 2.82769 22.9845 2.17158 22.3284C1.51547 21.6723 1.2435 20.8529 1.11876 19.9251C0.999939 19.0413 0.999967 17.9247 1 16.5706V7.42939C0.999967 6.07529 0.999939 4.95869 1.11876 4.07494C1.2435 3.14711 1.51547 2.32769 2.17158 1.67158C2.82769 1.01547 3.64711 0.743499 4.57494 0.618756C5.45869 0.499939 6.57533 0.499967 7.92943 0.500001Z" fill="#080809" style="fill:#080809;fill:color(display-p3 0.0314 0.0314 0.0353);fill-opacity:1;"/>
<path d="M15.5 10C16.0523 10 16.5 9.55229 16.5 9C16.5 8.44771 16.0523 8 15.5 8C14.9477 8 14.5 8.44771 14.5 9C14.5 9.55229 14.9477 10 15.5 10Z" fill="#080809" style="fill:#080809;fill:color(display-p3 0.0314 0.0314 0.0353);fill-opacity:1;"/>
<path d="M16.5 12C16.5 12.5523 16.0523 13 15.5 13C14.9477 13 14.5 12.5523 14.5 12C14.5 11.4477 14.9477 11 15.5 11C16.0523 11 16.5 11.4477 16.5 12Z" fill="#080809" style="fill:#080809;fill:color(display-p3 0.0314 0.0314 0.0353);fill-opacity:1;"/>
<path d="M15.5 16C16.0523 16 16.5 15.5523 16.5 15C16.5 14.4477 16.0523 14 15.5 14C14.9477 14 14.5 14.4477 14.5 15C14.5 15.5523 14.9477 16 15.5 16Z" fill="#080809" style="fill:#080809;fill:color(display-p3 0.0314 0.0314 0.0353);fill-opacity:1;"/>
<path fill-rule="evenodd" clip-rule="evenodd" d="M15.5 5C11.634 5 8.5 8.13401 8.5 12C8.5 15.866 11.634 19 15.5 19C17.0723 19 18.5235 18.4816 19.6921 17.6064L21.7943 19.7086C22.1848 20.0991 22.818 20.0991 23.2085 19.7086C23.599 19.3181 23.599 18.6849 23.2085 18.2944L21.1063 16.1922C21.9816 15.0236 22.5 13.5724 22.5 12C22.5 8.13401 19.366 5 15.5 5ZM10.5 12C10.5 9.23858 12.7386 7 15.5 7C18.2614 7 20.5 9.23858 20.5 12C20.5 14.7614 18.2614 17 15.5 17C12.7386 17 10.5 14.7614 10.5 12Z" fill="#080809" style="fill:#080809;fill:color(display-p3 0.0314 0.0314 0.0353);fill-opacity:1;"/>
</svg>
