<svg width="24" height="24" viewBox="0 0 24 24" fill="none" xmlns="http://www.w3.org/2000/svg">
<path fill-rule="evenodd" clip-rule="evenodd" d="M9.73223 2.85443C11.3071 1.27952 14 2.39493 14 4.6222V19.3796C14 21.6068 11.3071 22.7222 9.73223 21.1473L5.58441 16.9995H3.5C1.84315 16.9995 0.5 15.6564 0.5 13.9995V9.99951C0.5 8.34265 1.84315 6.99951 3.5 6.99951H5.58716L9.73223 2.85443ZM12 4.6222C12 4.17675 11.4614 3.95366 11.1464 4.26865L6.70848 8.70661C6.52094 8.89415 6.26659 8.99951 6.00137 8.99951H3.5C2.94772 8.99951 2.5 9.44722 2.5 9.99951V13.9995C2.5 14.5518 2.94772 14.9995 3.5 14.9995H5.99863C6.26384 14.9995 6.5182 15.1049 6.70573 15.2924L11.1464 19.7331C11.4614 20.0481 12 19.825 12 19.3796V4.6222Z" fill="#080809" style="fill:#080809;fill:color(display-p3 0.0314 0.0314 0.0353);fill-opacity:1;"/>
<path d="M19.1597 4.25487C19.5712 3.88655 20.2034 3.92157 20.5717 4.3331C22.3921 6.367 23.5002 9.05529 23.5002 12C23.5002 14.9447 22.3921 17.633 20.5717 19.6669C20.2034 20.0784 19.5712 20.1135 19.1597 19.7451C18.7482 19.3768 18.7131 18.7446 19.0815 18.3331C20.5864 16.6517 21.5002 14.4338 21.5002 12C21.5002 9.56625 20.5863 7.34832 19.0815 5.66692C18.7131 5.2554 18.7482 4.6232 19.1597 4.25487Z" fill="#080809" style="fill:#080809;fill:color(display-p3 0.0314 0.0314 0.0353);fill-opacity:1;"/>
<path d="M17.9119 7.38411C17.5717 6.94901 16.9433 6.87203 16.5082 7.21218C16.0731 7.55234 15.9961 8.1808 16.3362 8.61591C17.0659 9.54927 17.5002 10.7225 17.5002 12C17.5002 13.2775 17.0659 14.4508 16.3362 15.3841C15.9961 15.8192 16.0731 16.4477 16.5082 16.7878C16.9433 17.128 17.5717 17.051 17.9119 16.6159C18.9068 15.3433 19.5002 13.7396 19.5002 12C19.5002 10.2604 18.9068 8.65669 17.9119 7.38411Z" fill="#080809" style="fill:#080809;fill:color(display-p3 0.0314 0.0314 0.0353);fill-opacity:1;"/>
</svg>
