<svg width="24" height="24" viewBox="0 0 24 24" fill="none" xmlns="http://www.w3.org/2000/svg">
<path d="M3.5 5.5C4.05229 5.5 4.5 5.94772 4.5 6.5V16.5C4.5 17.9422 4.50185 18.9234 4.60059 19.6582C4.69551 20.3643 4.86337 20.6915 5.08594 20.9141C5.30851 21.1366 5.63575 21.3045 6.3418 21.3994C7.07657 21.4982 8.05778 21.5 9.5 21.5H16C16.5523 21.5 17 21.9477 17 22.5C17 23.0523 16.5523 23.5 16 23.5H9.5C8.11416 23.5 6.97423 23.5017 6.0752 23.3809C5.14737 23.2561 4.32798 22.9842 3.67188 22.3281C3.01577 21.672 2.74389 20.8526 2.61914 19.9248C2.49829 19.0258 2.5 17.8858 2.5 16.5V6.5C2.5 5.94772 2.94772 5.5 3.5 5.5Z" fill="#080809" style="fill:#080809;fill:color(display-p3 0.0314 0.0314 0.0353);fill-opacity:1;"/>
<path fill-rule="evenodd" clip-rule="evenodd" d="M15 0.500001C16.3858 0.500001 17.5258 0.498295 18.4248 0.619142C19.3526 0.743885 20.172 1.01577 20.8281 1.67188L20.9473 1.79688C21.518 2.43085 21.7639 3.20551 21.8809 4.0752C22.0017 4.97423 22 6.11417 22 7.5V13C22 14.3858 22.0017 15.5258 21.8809 16.4248C21.7639 17.2945 21.518 18.0692 20.9473 18.7031L20.8281 18.8281C20.172 19.4842 19.3526 19.7561 18.4248 19.8809C17.5258 20.0017 16.3858 20 15 20H13C11.6142 20 10.4742 20.0017 9.5752 19.8809C8.70551 19.7639 7.93085 19.518 7.29688 18.9473L7.17188 18.8281C6.51577 18.172 6.24388 17.3526 6.11914 16.4248C5.99829 15.5258 6 14.3858 6 13V7.5C6 6.11417 5.99829 4.97423 6.11914 4.0752C6.24389 3.14737 6.51577 2.32798 7.17188 1.67188C7.82798 1.01577 8.64737 0.743886 9.5752 0.619142C10.4742 0.498294 11.6142 0.500001 13 0.500001H15ZM16.707 7.29297C16.3165 6.90245 15.6835 6.90245 15.293 7.29297L14 8.58594L12.707 7.29297C12.3165 6.90245 11.6835 6.90245 11.293 7.29297C10.9025 7.6835 10.9025 8.31653 11.293 8.70703L12.5859 10L11.293 11.293C10.9024 11.6835 10.9024 12.3165 11.293 12.707C11.6835 13.0973 12.3166 13.0975 12.707 12.707L14 11.4141L15.293 12.707C15.6835 13.0974 16.3166 13.0974 16.707 12.707C17.0975 12.3166 17.0974 11.6835 16.707 11.293L15.4141 10L16.707 8.70703C17.0975 8.31658 17.0973 7.68351 16.707 7.29297Z" fill="#080809" style="fill:#080809;fill:color(display-p3 0.0314 0.0314 0.0353);fill-opacity:1;"/>
</svg>
