<svg width="24" height="24" viewBox="0 0 24 24" fill="none" xmlns="http://www.w3.org/2000/svg">
<path d="M18.5505 1.10465C18.9267 0.298449 20.0731 0.298453 20.4494 1.10465L20.6637 1.56402C21.028 2.34454 21.6554 2.97193 22.4359 3.3362L22.8953 3.55059C23.7015 3.92684 23.7015 5.07323 22.8953 5.44948L22.4359 5.66387C21.6554 6.02814 21.028 6.65553 20.6637 7.43605L20.4494 7.89542C20.0731 8.70162 18.9267 8.70162 18.5505 7.89542L18.3361 7.43605C17.9718 6.65553 17.3444 6.02814 16.5639 5.66387L16.1045 5.44948C15.2983 5.07322 15.2983 3.92684 16.1045 3.55059L16.5639 3.3362C17.3444 2.97193 17.9718 2.34454 18.3361 1.56402L18.5505 1.10465Z" fill="#080809" style="fill:#080809;fill:color(display-p3 0.0314 0.0314 0.0353);fill-opacity:1;"/>
<path fill-rule="evenodd" clip-rule="evenodd" d="M11.9252 0.998048L13.4998 0.998048C14.052 0.998048 14.4998 1.44576 14.4998 1.99805C14.4998 2.55033 14.052 2.99805 13.4998 2.99805H12C9.61471 2.99805 7.92634 3.00017 6.64689 3.17219C5.39621 3.34034 4.68704 3.65416 4.17157 4.16962C3.65611 4.68508 3.34229 5.39426 3.17414 6.64494C3.00213 7.92438 3 9.61275 3 11.998V12.6089C3 14.695 3.00165 16.1713 3.13579 17.3026C3.26731 18.4118 3.51406 19.0578 3.91359 19.5425C4.07649 19.7401 4.25798 19.9216 4.45558 20.0845C4.94022 20.484 5.58629 20.7307 6.69541 20.8623C7.82674 20.9964 9.30307 20.998 11.3891 20.998C11.6139 20.998 11.8165 20.9977 12 20.9967V20.9268C12 19.5908 12 18.4446 12.0611 17.4726L11.9997 17.4729C10.2195 17.4729 8.59094 16.8149 7.35699 15.7306C6.95302 15.3756 6.91331 14.7603 7.2683 14.3564C7.62328 13.9524 8.23854 13.9127 8.64251 14.2677C9.53158 15.049 10.7065 15.5254 11.9997 15.5254C12.1143 15.5254 12.2278 15.5217 12.3402 15.5143C12.5459 14.7278 12.8867 14.0423 13.4645 13.4645C14.267 12.6619 15.2775 12.3167 16.4777 12.1554C17.6336 12 19.1034 12 20.9268 12H20.9973C20.9994 11.7605 21 11.4911 21 11.1856V10.5C21 9.94772 21.4477 9.5 22 9.5C22.5523 9.5 23 9.94772 23 10.5L23.0001 11.3758C23.0008 12.8264 23.0012 13.8346 22.6193 14.7566C22.2373 15.6785 21.524 16.391 20.4976 17.4161L17.2887 20.624C16.3894 21.5238 15.7653 22.1482 14.9756 22.5205C14.831 22.5887 14.6831 22.65 14.5326 22.704C13.7109 22.999 12.8281 22.9986 11.5559 22.9981L11.3241 22.998C9.31783 22.9981 7.72273 22.9981 6.45991 22.8483C5.16126 22.6944 4.08397 22.3701 3.18336 21.6277C2.88697 21.3833 2.61473 21.1111 2.37039 20.8147C1.62794 19.9141 1.30369 18.8368 1.14971 17.5381C0.99997 16.2753 0.999984 14.6803 1 12.674V11.9232C0.999978 9.6297 0.999961 7.80664 1.19198 6.37844C1.38994 4.90598 1.80836 3.70441 2.75736 2.75541C3.70636 1.80641 4.90794 1.38799 6.38039 1.19002C7.80859 0.998007 9.63165 0.998025 11.9252 0.998048ZM14.1227 20.7115C14.0822 20.7306 14.0413 20.7488 14 20.7661C14.0004 18.9765 14.0077 17.7097 14.1375 16.7442C14.2691 15.7658 14.5097 15.2477 14.8787 14.8787C15.2477 14.5097 15.7658 14.2691 16.7442 14.1375C17.7101 14.0077 18.9774 14.0004 20.7678 14C20.5561 14.5047 20.1561 14.9293 18.949 16.1361L15.9926 19.0916C14.9287 20.1553 14.5584 20.5061 14.1227 20.7115Z" fill="#080809" style="fill:#080809;fill:color(display-p3 0.0314 0.0314 0.0353);fill-opacity:1;"/>
<path d="M9.5 8.75C9.5 9.7165 8.7165 10.5 7.75 10.5C6.7835 10.5 6 9.7165 6 8.75C6 7.7835 6.7835 7 7.75 7C8.7165 7 9.5 7.7835 9.5 8.75Z" fill="#080809" style="fill:#080809;fill:color(display-p3 0.0314 0.0314 0.0353);fill-opacity:1;"/>
</svg>
