<svg width="24" height="24" viewBox="0 0 24 24" fill="none" xmlns="http://www.w3.org/2000/svg">
<path fill-rule="evenodd" clip-rule="evenodd" d="M11.1268 2.5032C11.2622 1.82625 10.8232 1.16772 10.1462 1.03233C9.46928 0.896938 8.81075 1.33596 8.67536 2.01291L7.72794 6.75H3.75C3.05964 6.75 2.5 7.30964 2.5 8C2.5 8.69036 3.05964 9.25 3.75 9.25H7.22794L6.12794 14.75H2.25C1.55964 14.75 1 15.3096 1 16C1 16.6904 1.55964 17.25 2.25 17.25H5.62794L4.77452 21.5171C4.63913 22.1941 5.07815 22.8526 5.7551 22.988C6.43205 23.1234 7.09058 22.6844 7.22597 22.0074L8.17745 17.25H13.7275L12.8741 21.5171C12.7387 22.1941 13.1778 22.8526 13.8547 22.988C14.5317 23.1234 15.1902 22.6844 15.3256 22.0074L16.2771 17.25H20.25C20.9404 17.25 21.5 16.6904 21.5 16C21.5 15.3096 20.9404 14.75 20.25 14.75H16.7771L17.8771 9.25H21.75C22.4404 9.25 23 8.69036 23 8C23 7.30964 22.4404 6.75 21.75 6.75H18.3771L19.2264 2.5032C19.3618 1.82625 18.9228 1.16772 18.2458 1.03233C17.5689 0.896938 16.9104 1.33596 16.775 2.01291L15.8275 6.75H10.2774L11.1268 2.5032ZM14.2275 14.75L15.3275 9.25H9.77745L8.67745 14.75H14.2275Z" fill="#080809" style="fill:#080809;fill:color(display-p3 0.0314 0.0314 0.0353);fill-opacity:1;"/>
</svg>
