<svg width="24" height="24" viewBox="0 0 24 24" fill="none" xmlns="http://www.w3.org/2000/svg">
<g clip-path="url(#clip0_29901_26821)">
<path d="M21.5 12C21.5 6.75329 17.2467 2.5 12 2.5C11.4477 2.5 11 2.05228 11 1.5C11 0.947715 11.4477 0.5 12 0.5C18.3513 0.5 23.5 5.64873 23.5 12C23.5 18.3513 18.3513 23.5 12 23.5C11.4477 23.5 11 23.0523 11 22.5C11 21.9477 11.4477 21.5 12 21.5C17.2467 21.5 21.5 17.2467 21.5 12Z" fill="#080809" style="fill:#080809;fill:color(display-p3 0.0314 0.0314 0.0353);fill-opacity:1;"/>
<path d="M2.75 12C2.75 12.6904 2.19036 13.25 1.5 13.25C0.809644 13.25 0.25 12.6904 0.25 12C0.25 11.3097 0.809644 10.75 1.5 10.75C2.19036 10.75 2.75 11.3097 2.75 12Z" fill="#080809" style="fill:#080809;fill:color(display-p3 0.0314 0.0314 0.0353);fill-opacity:1;"/>
<path d="M5.45922 5.4593C4.97106 5.94746 4.17961 5.94746 3.69145 5.4593C3.2033 4.97115 3.2033 4.17969 3.69145 3.69153C4.17961 3.20338 4.97106 3.20338 5.45922 3.69153C5.94737 4.17969 5.94737 4.97115 5.45922 5.4593Z" fill="#080809" style="fill:#080809;fill:color(display-p3 0.0314 0.0314 0.0353);fill-opacity:1;"/>
<path d="M5.4592 18.5408C5.94736 19.0289 5.94736 19.8204 5.4592 20.3085C4.97105 20.7967 4.17959 20.7967 3.69143 20.3085C3.20328 19.8204 3.20328 19.0289 3.69143 18.5408C4.17959 18.0526 4.97105 18.0526 5.4592 18.5408Z" fill="#080809" style="fill:#080809;fill:color(display-p3 0.0314 0.0314 0.0353);fill-opacity:1;"/>
<path d="M8.46025 3.45401C7.82245 3.7182 7.09124 3.41532 6.82705 2.77752C6.56286 2.13971 6.86574 1.4085 7.50354 1.14431C8.14135 0.880124 8.87256 1.183 9.13675 1.82081C9.40094 2.45861 9.09806 3.18982 8.46025 3.45401Z" fill="#080809" style="fill:#080809;fill:color(display-p3 0.0314 0.0314 0.0353);fill-opacity:1;"/>
<path d="M3.45413 8.4601C3.18995 9.09791 2.45874 9.40079 1.82093 9.1366C1.18312 8.87241 0.880248 8.1412 1.14444 7.50339C1.40862 6.86559 2.13983 6.56271 2.77764 6.8269C3.41545 7.09109 3.71832 7.8223 3.45413 8.4601Z" fill="#080809" style="fill:#080809;fill:color(display-p3 0.0314 0.0314 0.0353);fill-opacity:1;"/>
<path d="M1.82087 14.8633C2.45868 14.5991 3.18989 14.902 3.45408 15.5398C3.71826 16.1776 3.41539 16.9088 2.77758 17.173C2.13978 17.4372 1.40856 17.1343 1.14438 16.4965C0.880189 15.8587 1.18307 15.1275 1.82087 14.8633Z" fill="#080809" style="fill:#080809;fill:color(display-p3 0.0314 0.0314 0.0353);fill-opacity:1;"/>
<path d="M6.82701 21.2225C7.0912 20.5847 7.82241 20.2818 8.46022 20.546C9.09802 20.8102 9.4009 21.5414 9.13671 22.1792C8.87252 22.817 8.14131 23.1199 7.50351 22.8557C6.8657 22.5915 6.56282 21.8603 6.82701 21.2225Z" fill="#080809" style="fill:#080809;fill:color(display-p3 0.0314 0.0314 0.0353);fill-opacity:1;"/>
<path fill-rule="evenodd" clip-rule="evenodd" d="M14.656 15.1488C13.861 15.1488 13.2415 14.8593 12.7975 14.2803C12.3565 13.6983 12.136 12.8883 12.136 11.8503C12.136 10.8123 12.3565 10.0038 12.7975 9.42476C13.2415 8.84276 13.861 8.55176 14.656 8.55176C15.451 8.55176 16.069 8.84276 16.51 9.42476C16.954 10.0038 17.176 10.8123 17.176 11.8503C17.176 12.8883 16.954 13.6983 16.51 14.2803C16.069 14.8593 15.451 15.1488 14.656 15.1488ZM14.656 13.9563C15.025 13.9563 15.3055 13.7778 15.4975 13.4208C15.6895 13.0638 15.7855 12.5403 15.7855 11.8503C15.7855 11.1603 15.6895 10.6368 15.4975 10.2798C15.3055 9.92276 15.025 9.74426 14.656 9.74426C14.287 9.74426 14.0065 9.92276 13.8145 10.2798C13.6225 10.6368 13.5265 11.1603 13.5265 11.8503C13.5265 12.5403 13.6225 13.0638 13.8145 13.4208C14.0065 13.7778 14.287 13.9563 14.656 13.9563Z" fill="#080809" style="fill:#080809;fill:color(display-p3 0.0314 0.0314 0.0353);fill-opacity:1;"/>
<path d="M7.29988 13.3848L6.69238 14.3118C6.99838 14.5818 7.34638 14.7888 7.73638 14.9328C8.12638 15.0768 8.54338 15.1488 8.98738 15.1488C9.46438 15.1488 9.88288 15.0693 10.2429 14.9103C10.6059 14.7513 10.8879 14.5323 11.0889 14.2533C11.2929 13.9713 11.3949 13.6443 11.3949 13.2723C11.3949 12.8823 11.2779 12.5418 11.0439 12.2508C10.8099 11.9568 10.4769 11.7573 10.0449 11.6523C10.3779 11.5293 10.6419 11.3388 10.8369 11.0808C11.0319 10.8228 11.1294 10.5273 11.1294 10.1943C11.1294 9.88526 11.0439 9.60776 10.8729 9.36176C10.7019 9.11276 10.4604 8.91626 10.1484 8.77226C9.83638 8.62526 9.46888 8.55176 9.04588 8.55176C8.63488 8.55176 8.23888 8.62376 7.85788 8.76776C7.47688 8.91176 7.13338 9.11876 6.82738 9.38876L7.42588 10.3068C7.60888 10.1328 7.82038 9.99476 8.06038 9.89276C8.30338 9.78776 8.55538 9.73526 8.81638 9.73526C9.08038 9.73526 9.29938 9.79376 9.47338 9.91076C9.64738 10.0278 9.73438 10.2003 9.73438 10.4283C9.73438 10.6623 9.63688 10.8498 9.44188 10.9908C9.24988 11.1318 8.97838 11.2023 8.62738 11.2023H8.14138V12.3183H8.75338C9.17938 12.3183 9.49438 12.3888 9.69838 12.5298C9.90238 12.6678 10.0044 12.8613 10.0044 13.1103C10.0044 13.3773 9.90388 13.5858 9.70288 13.7358C9.50488 13.8828 9.23488 13.9563 8.89288 13.9563C8.64388 13.9563 8.37838 13.9128 8.09638 13.8258C7.81438 13.7358 7.54888 13.5888 7.29988 13.3848Z" fill="#080809" style="fill:#080809;fill:color(display-p3 0.0314 0.0314 0.0353);fill-opacity:1;"/>
</g>
<defs>
<clipPath id="clip0_29901_26821">
<rect width="24" height="24" fill="white" style="fill:white;fill-opacity:1;"/>
</clipPath>
</defs>
</svg>
