<svg width="24" height="24" viewBox="0 0 24 24" fill="none" xmlns="http://www.w3.org/2000/svg">
<path d="M18.796 5.41421C17.6143 4.64469 16.7532 3.40797 16.4875 1.96971C16.4325 1.65824 16.3959 1.33761 16.3959 1.00781H12.6124V16.1599C12.5391 17.8547 11.1467 19.2197 9.43359 19.2197C8.90226 19.2197 8.39841 19.0823 7.95869 18.8533C6.95099 18.3219 6.25476 17.2593 6.25476 16.0409C6.25476 14.2911 7.68386 12.862 9.43359 12.862C9.76339 12.862 10.0749 12.917 10.368 13.0086V9.15186C10.0657 9.10605 9.74507 9.08773 9.43359 9.08773C5.59518 9.08773 2.48047 12.2116 2.48047 16.0409C2.48047 18.3952 3.65306 20.4747 5.4486 21.7389C6.57539 22.5359 7.94953 23.0031 9.43359 23.0031C13.272 23.0031 16.3867 19.8793 16.3867 16.05V8.36402C17.8708 9.42668 19.6846 10.0588 21.6451 10.0588V6.27533C20.5916 6.27533 19.6022 5.96386 18.7777 5.42337L18.796 5.41421Z" fill="#080809" style="fill:#080809;fill:color(display-p3 0.0314 0.0314 0.0353);fill-opacity:1;"/>
</svg>
