<svg width="24" height="24" viewBox="0 0 24 24" fill="none" xmlns="http://www.w3.org/2000/svg">
<path fill-rule="evenodd" clip-rule="evenodd" d="M9.72428 1.27148C11.5501 1.27148 13.1415 2.27623 13.9758 3.76289C14.7222 3.07011 15.7219 2.64648 16.8205 2.64648C19.1304 2.64648 21.0033 4.51936 21.0033 6.82928C21.0033 9.1392 19.1304 11.0121 16.8205 11.0121C15.4318 11.0121 14.2012 10.3352 13.4404 9.29347C12.5467 10.3466 11.2134 11.015 9.72428 11.015C7.03399 11.015 4.85254 8.83351 4.85254 6.14322C4.85254 3.45294 7.03399 1.27148 9.72428 1.27148ZM6.81232 6.14196C6.81232 4.53359 8.1159 3.23 9.72428 3.23C11.3327 3.23 12.6362 4.53359 12.6362 6.14196C12.6362 7.75034 11.3327 9.05393 9.72428 9.05393C8.1159 9.05393 6.81232 7.75034 6.81232 6.14196ZM16.8205 4.60501C15.5925 4.60501 14.5962 5.60127 14.5962 6.82928C14.5962 8.05729 15.5925 9.05356 16.8205 9.05356C18.0485 9.05356 19.0448 8.05729 19.0448 6.82928C19.0448 5.60127 18.0485 4.60501 16.8205 4.60501Z" fill="#080809" style="fill:#080809;fill:color(display-p3 0.0314 0.0314 0.0353);fill-opacity:1;"/>
<path fill-rule="evenodd" clip-rule="evenodd" d="M21.0036 15.4622C21.0036 13.4735 19.3914 11.8613 17.4027 11.8613H12.1077C10.5015 11.8613 9.141 12.9129 8.677 14.3652L5.53663 12.7761C5.29103 12.6514 5.0215 12.5872 4.74693 12.5872V12.5859C3.78215 12.5859 3 13.3681 3 14.3329V19.4615C3 19.7336 3.06298 20.0019 3.18515 20.2449C3.61715 21.1077 4.66758 21.4566 5.53033 21.0246L8.68513 19.4435C9.15672 20.8827 10.5108 21.9222 12.1077 21.9222H17.4027C19.3914 21.9222 21.0036 20.31 21.0036 18.3213V15.4622ZM12.1606 13.714H17.38C18.3612 13.7292 19.1509 14.5289 19.1509 15.5139V18.2974C19.1357 19.2785 18.336 20.0682 17.351 20.0682H12.1317C11.1505 20.0531 10.3608 19.2533 10.3608 18.2684V15.4849C10.3759 14.5038 11.1757 13.714 12.1606 13.714ZM8.50684 16.3714V17.4398L5.54671 18.9489L5.53915 18.9527C5.30614 19.0661 5.02402 18.9729 4.90562 18.7411C4.87162 18.6744 4.85398 18.6 4.85398 18.5245V15.3002C4.85776 15.042 5.06936 14.8329 5.33007 14.8329V14.8341C5.40438 14.8341 5.47743 14.8518 5.54419 14.8845L8.50684 16.3714Z" fill="#080809" style="fill:#080809;fill:color(display-p3 0.0314 0.0314 0.0353);fill-opacity:1;"/>
</svg>
