<svg width="24" height="24" viewBox="0 0 24 24" fill="none" xmlns="http://www.w3.org/2000/svg">
<path fill-rule="evenodd" clip-rule="evenodd" d="M16.1301 2.45706C17.3017 1.28548 19.2012 1.28547 20.3728 2.45705L21.5443 3.62862C22.7159 4.80019 22.7159 6.69969 21.5443 7.87126L18.9156 10.5L19.2086 10.7929C19.5991 11.1834 19.5991 11.8166 19.2086 12.2071C18.818 12.5976 18.1849 12.5976 17.7944 12.2071L17.5015 11.9143L8.14806 21.2677C7.98047 21.4353 7.79153 21.5766 7.58763 21.6891C7.2211 21.8912 6.80623 22 6.38014 22H4.23753L3.79056 22.2235C2.50123 22.8682 1.13337 21.5004 1.77805 20.2111L2.00146 19.7642V17.6213C2.00146 16.9583 2.26486 16.3224 2.7337 15.8536L4.79436 13.7929C4.79785 13.7894 4.80136 13.7859 4.80489 13.7825L12.0873 6.50008L11.7944 6.20711C11.4038 5.81658 11.4038 5.18342 11.7944 4.79289C12.1849 4.40237 12.818 4.40237 13.2086 4.79289L13.5014 5.08576L16.1301 2.45706ZM13.0874 13.5H7.91583L13.5015 7.91429L16.0873 10.5001L13.0874 13.5Z" fill="#080809" style="fill:#080809;fill:color(display-p3 0.0314 0.0314 0.0353);fill-opacity:1;"/>
</svg>
