<svg width="24" height="24" viewBox="0 0 24 24" fill="none" xmlns="http://www.w3.org/2000/svg">
<path d="M7.9971 7.03418C9.23043 6.4946 10.6027 6.35664 11.919 6.63867C13.2945 6.93342 14.5357 7.67125 15.4512 8.73926L16.0743 9.4668C16.4948 9.95748 17.1853 10.1178 17.7793 9.86328L19.6065 9.08105C20.114 8.8637 20.7014 9.09904 20.919 9.60645C21.1364 10.114 20.9011 10.7014 20.3936 10.9189L18.5674 11.7021C17.1699 12.301 15.5452 11.9229 14.5557 10.7686L14.3711 10.5527L13.3496 15.8262C14.3558 16.5644 15.0524 17.6525 15.2969 18.8789L15.9785 22.3037C16.0865 22.8453 15.735 23.3725 15.1934 23.4805C14.652 23.5883 14.1258 23.2366 14.0176 22.6953L13.334 19.2695C13.1828 18.512 12.7452 17.8424 12.1123 17.3994L9.53226 15.5928C8.59326 14.9353 8.11668 13.805 8.28714 12.6846C8.30185 12.6077 8.31349 12.5294 8.33109 12.4531L9.19242 8.71973C9.05965 8.76336 8.9277 8.81082 8.79886 8.86719L8.30667 9.08203C7.23803 9.54957 6.32583 10.3147 5.67874 11.2852L4.83206 12.5547C4.52571 13.0142 3.90487 13.1384 3.44535 12.832C2.98596 12.5256 2.86169 11.9048 3.168 11.4453L4.01468 10.1758C4.87414 8.88674 6.08552 7.87099 7.50492 7.25L7.9971 7.03418Z" fill="#080809" style="fill:#080809;fill:color(display-p3 0.0314 0.0314 0.0353);fill-opacity:1;"/>
<path d="M7.54886 15.6787C7.85215 16.1196 8.23542 16.5117 8.69242 16.8281L9.12601 17.1279L8.66507 18.2832C8.4702 18.7704 8.19921 19.2238 7.86331 19.627L5.76956 22.1406C5.41608 22.5647 4.78462 22.6218 4.36038 22.2686C3.93623 21.915 3.87896 21.2836 4.23246 20.8594L6.32718 18.3467C6.52867 18.1048 6.69076 17.8323 6.80765 17.54L7.54495 15.6953L7.54886 15.6787Z" fill="#080809" style="fill:#080809;fill:color(display-p3 0.0314 0.0314 0.0353);fill-opacity:1;"/>
<path d="M12.5 0.5C13.8807 0.5 15 1.61929 15 3C15 4.38071 13.8807 5.5 12.5 5.5C11.1193 5.49998 10 4.3807 10 3C10 1.6193 11.1193 0.500023 12.5 0.5Z" fill="#080809" style="fill:#080809;fill:color(display-p3 0.0314 0.0314 0.0353);fill-opacity:1;"/>
</svg>
