<svg width="24" height="24" viewBox="0 0 24 24" fill="none" xmlns="http://www.w3.org/2000/svg">
<path d="M10 10.5C9.44772 10.5 9 10.9477 9 11.5V15C9 15.5523 9.44772 16 10 16H18.5C19.0523 16 19.5 15.5523 19.5 15V11.5C19.5 10.9477 19.0523 10.5 18.5 10.5H10Z" fill="#080809" style="fill:#080809;fill:color(display-p3 0.0314 0.0314 0.0353);fill-opacity:1;"/>
<path fill-rule="evenodd" clip-rule="evenodd" d="M16.0706 1H7.92943C6.57535 0.999968 5.45868 0.999941 4.57494 1.11876C3.64711 1.2435 2.82769 1.51547 2.17158 2.17158C1.51547 2.82769 1.2435 3.64711 1.11876 4.57494C0.999941 5.45868 0.999968 6.57527 1 7.92936V16.0706C0.999968 17.4247 0.999941 18.5413 1.11876 19.4251C1.2435 20.3529 1.51547 21.1723 2.17158 21.8284C2.82769 22.4845 3.64711 22.7565 4.57494 22.8813C5.45865 23.0001 6.5752 23 7.92922 23H16.0705C17.4246 23 18.5413 23.0001 19.4251 22.8813C20.3529 22.7565 21.1723 22.4845 21.8284 21.8284C22.4845 21.1723 22.7565 20.3529 22.8813 19.4251C23.0001 18.5413 23 17.4248 23 16.0708V7.92946C23 6.57544 23.0001 5.45865 22.8813 4.57494C22.7565 3.64711 22.4845 2.82769 21.8284 2.17158C21.1723 1.51547 20.3529 1.2435 19.4251 1.11876C18.5413 0.999941 17.4247 0.999968 16.0706 1ZM3 9V16C3 17.4425 3.00213 18.4238 3.10092 19.1586C3.19585 19.8646 3.36322 20.1916 3.58579 20.4142C3.80836 20.6368 4.13538 20.8042 4.84144 20.8991C5.04129 20.926 5.25937 20.9457 5.5 20.9601V9H3ZM7.5 9V20.9998C7.66027 21 7.82681 21 8 21H9V18.5C9 17.9477 9.44772 17.5 10 17.5H18.5C19.0523 17.5 19.5 17.9477 19.5 18.5V20.8418C19.9773 20.7431 20.2311 20.5973 20.4142 20.4142C20.6368 20.1916 20.8042 19.8646 20.8991 19.1586C20.9979 18.4238 21 17.4425 21 16V9H7.5ZM6 5C6 5.55229 5.55229 6 5 6C4.44772 6 4 5.55229 4 5C4 4.44772 4.44772 4 5 4C5.55229 4 6 4.44772 6 5ZM8 6C8.55229 6 9 5.55229 9 5C9 4.44772 8.55229 4 8 4C7.44772 4 7 4.44772 7 5C7 5.55229 7.44772 6 8 6Z" fill="#080809" style="fill:#080809;fill:color(display-p3 0.0314 0.0314 0.0353);fill-opacity:1;"/>
</svg>
