<svg width="24" height="24" viewBox="0 0 24 24" fill="none" xmlns="http://www.w3.org/2000/svg">
<path fill-rule="evenodd" clip-rule="evenodd" d="M12.75 6C12.75 3.10051 15.1005 0.75 18 0.75C20.8995 0.75 23.25 3.10051 23.25 6C23.25 8.89949 20.8995 11.25 18 11.25C15.1005 11.25 12.75 8.89949 12.75 6ZM18 2.75C16.2051 2.75 14.75 4.20507 14.75 6C14.75 7.79493 16.2051 9.25 18 9.25C19.7949 9.25 21.25 7.79493 21.25 6C21.25 4.20507 19.7949 2.75 18 2.75Z" fill="#080809" style="fill:#080809;fill:color(display-p3 0.0314 0.0314 0.0353);fill-opacity:1;"/>
<path fill-rule="evenodd" clip-rule="evenodd" d="M3.5 1C2.11929 1 1 2.11929 1 3.5V8.5C1 9.88071 2.11929 11 3.5 11H8.5C9.88071 11 11 9.88071 11 8.5V3.5C11 2.11929 9.88071 1 8.5 1H3.5ZM3 3.5C3 3.22386 3.22386 3 3.5 3H8.5C8.77614 3 9 3.22386 9 3.5V8.5C9 8.77614 8.77614 9 8.5 9H3.5C3.22386 9 3 8.77614 3 8.5V3.5Z" fill="#080809" style="fill:#080809;fill:color(display-p3 0.0314 0.0314 0.0353);fill-opacity:1;"/>
<path fill-rule="evenodd" clip-rule="evenodd" d="M7.74845 14.0878C6.98644 12.7162 5.01383 12.7162 4.25182 14.0878L0.95134 20.0287C0.210749 21.3617 1.17469 23 2.69965 23H9.30063C10.8256 23 11.7895 21.3617 11.0489 20.0287L7.74845 14.0878ZM6.00014 15.0591L9.30062 21L2.69965 21L6.00014 15.0591Z" fill="#080809" style="fill:#080809;fill:color(display-p3 0.0314 0.0314 0.0353);fill-opacity:1;"/>
<path fill-rule="evenodd" clip-rule="evenodd" d="M15.625 13C14.7299 13 13.8715 13.3556 13.2385 13.9885C12.6056 14.6214 12.25 15.4799 12.25 16.375C12.25 17.9203 13.292 19.3225 14.2769 20.331C15.3073 21.386 16.5086 22.2437 17.2469 22.7103C17.7078 23.0017 18.2922 23.0017 18.7531 22.7103C19.4914 22.2437 20.6927 21.386 21.7231 20.331C22.708 19.3225 23.75 17.9203 23.75 16.375C23.75 15.4799 23.3944 14.6214 22.7615 13.9885C22.1286 13.3556 21.2701 13 20.375 13C20.3572 13 20.3395 13.0005 20.3217 13.0014C19.6404 13.0378 18.9845 13.2725 18.4348 13.6767C18.304 13.7729 18.154 13.9044 17.9982 14.0645C17.8417 13.9044 17.6919 13.7735 17.5631 13.6786C17.0148 13.2745 16.3604 13.0392 15.6803 13.0015C15.6619 13.0005 15.6435 13 15.625 13ZM14.6527 15.4027C14.9041 15.1513 15.2428 15.0073 15.5976 15.0003C15.879 15.0211 16.1491 15.121 16.3766 15.2887C16.4775 15.363 16.7536 15.6236 16.9887 15.9951C17.4558 16.7335 18.5449 16.7348 19.012 15.9934C19.2473 15.6201 19.5199 15.3613 19.6196 15.288C19.848 15.1201 20.1191 15.0204 20.4014 15.0003C20.7565 15.0071 21.0956 15.1511 21.3473 15.4027C21.6051 15.6606 21.75 16.0103 21.75 16.375C21.75 17.0777 21.224 17.9796 20.2923 18.9336C19.5366 19.7073 18.6517 20.3761 18 20.8139C17.3483 20.3761 16.4634 19.7073 15.7077 18.9336C14.776 17.9796 14.25 17.0777 14.25 16.375C14.25 16.0103 14.3949 15.6606 14.6527 15.4027Z" fill="#080809" style="fill:#080809;fill:color(display-p3 0.0314 0.0314 0.0353);fill-opacity:1;"/>
</svg>
