<svg width="24" height="24" viewBox="0 0 24 24" fill="none" xmlns="http://www.w3.org/2000/svg">
<g clip-path="url(#clip0_29901_28267)">
<path d="M3.81721 8.86773L8.86676 3.81819C9.82424 2.86065 10.6138 2.07107 11.3227 1.53017C12.067 0.962304 12.8387 0.575195 13.7666 0.575195C14.6945 0.575195 15.4662 0.962305 16.2105 1.53017C16.4106 1.68282 16.6171 1.85528 16.8319 2.04574L2.04488 16.8331C1.85438 16.6181 1.68188 16.4116 1.5292 16.2115C0.961329 15.4672 0.574219 14.6955 0.574219 13.7676C0.574219 12.8397 0.961329 12.068 1.5292 11.3237C2.07009 10.6148 2.85968 9.82521 3.81721 8.86773Z" fill="#080809" style="fill:#080809;fill:color(display-p3 0.0314 0.0314 0.0353);fill-opacity:1;"/>
<path d="M4.13517 18.9854L5.33123 20.1814C6.28869 21.139 7.07826 21.9286 7.78718 22.4695C8.53146 23.0373 9.30319 23.4244 10.2311 23.4244C11.159 23.4244 11.9307 23.0373 12.675 22.4695C13.3839 21.9286 14.1734 21.139 15.1309 20.1815L20.1805 15.1319C21.138 14.1744 21.9276 13.3849 22.4685 12.6759C23.0364 11.9317 23.4235 11.1599 23.4235 10.232C23.4235 9.30417 23.0364 8.53244 22.4685 7.78816C21.9276 7.07923 21.138 6.28968 20.1805 5.33218L18.9843 4.13603L4.13517 18.9854Z" fill="#080809" style="fill:#080809;fill:color(display-p3 0.0314 0.0314 0.0353);fill-opacity:1;"/>
</g>
<defs>
<clipPath id="clip0_29901_28267">
<rect width="24" height="24" fill="white" style="fill:white;fill-opacity:1;"/>
</clipPath>
</defs>
</svg>
