<svg width="24" height="24" viewBox="0 0 24 24" fill="none" xmlns="http://www.w3.org/2000/svg">
<path d="M8.92968 0.500001L11.0708 0.500001C12.4249 0.499967 13.5416 0.499938 14.4253 0.618754C15.3531 0.743499 16.1726 1.01547 16.8287 1.67157C17.7776 2.6205 17.9361 3.93143 17.9825 5.46989C17.9991 6.02192 17.5651 6.48292 17.013 6.49955C16.461 6.51618 16 6.08215 15.9834 5.53012C15.9361 3.96168 15.7481 3.41947 15.4145 3.08579C15.1919 2.86322 14.8649 2.69585 14.1588 2.60092C13.424 2.50213 12.4427 2.5 11.0002 2.5L9.00025 2.5C7.55776 2.5 6.5765 2.50213 5.84168 2.60092C5.13563 2.69585 4.8086 2.86322 4.58603 3.08579C4.36346 3.30836 4.19609 3.63538 4.10116 4.34143C4.00237 5.07625 4.00025 6.05752 4.00025 7.5L4.00025 16.5C4.00025 17.9425 4.00237 18.9237 4.10116 19.6586C4.19609 20.3646 4.36346 20.6916 4.58603 20.9142C4.8086 21.1368 5.13563 21.3042 5.84168 21.3991C6.5765 21.4979 7.55776 21.5 9.00025 21.5H11.0002C12.4427 21.5 13.424 21.4979 14.1588 21.3991C14.8649 21.3042 15.1919 21.1368 15.4145 20.9142C15.7481 20.5805 15.9361 20.0383 15.9834 18.4699C16 17.9179 16.461 17.4838 17.013 17.5005C17.5651 17.5171 17.9991 17.9781 17.9825 18.5301C17.9361 20.0686 17.7776 21.3795 16.8287 22.3284C16.1726 22.9845 15.3531 23.2565 14.4253 23.3813C13.5416 23.5001 12.425 23.5 11.0708 23.5H8.9297C7.57559 23.5 6.45893 23.5001 5.57518 23.3813C4.64735 23.2565 3.82793 22.9845 3.17182 22.3284C2.51571 21.6723 2.24374 20.8529 2.119 19.9251C2.00018 19.0413 2.00021 17.9247 2.00025 16.5706L2.00025 7.42943C2.00021 6.07534 2.00018 4.95868 2.119 4.07494C2.24374 3.14711 2.51571 2.32768 3.17182 1.67158C3.82793 1.01547 4.64735 0.743498 5.57518 0.618755C6.45894 0.499937 7.57556 0.499965 8.92968 0.500001Z" fill="#080809" style="fill:#080809;fill:color(display-p3 0.0314 0.0314 0.0353);fill-opacity:1;"/>
<path d="M14.0002 12C14.0002 12.5523 14.448 13 15.0002 13L20.5889 13C20.4921 13.0965 20.395 13.1934 20.2978 13.2902C19.9602 13.6268 19.622 13.964 19.2931 14.2929C18.9026 14.6834 18.9026 15.3166 19.2931 15.7071C19.6837 16.0976 20.3168 16.0976 20.7074 15.7071C21.0458 15.3686 21.376 15.0394 21.7068 14.7096C22.0194 14.398 22.3331 14.0853 22.6544 13.7641C23.6302 12.7886 23.6254 11.2101 22.6528 10.2376L20.7074 8.2929C20.3168 7.90237 19.6837 7.90237 19.2931 8.29289C18.9026 8.68341 18.9026 9.31658 19.2931 9.7071L20.5865 11L15.0002 11C14.448 11 14.0002 11.4477 14.0002 12Z" fill="#080809" style="fill:#080809;fill:color(display-p3 0.0314 0.0314 0.0353);fill-opacity:1;"/>
</svg>
