<svg width="24" height="24" viewBox="0 0 24 24" fill="none" xmlns="http://www.w3.org/2000/svg">
<path d="M15.0706 0.500001H12.9294C11.5753 0.499967 10.4587 0.499939 9.57493 0.618756C8.64711 0.743499 7.82768 1.01547 7.17157 1.67158C6.22264 2.6205 6.06413 3.93143 6.01778 5.46989C6.00114 6.02192 6.43517 6.48292 6.98721 6.49955C7.53924 6.51618 8.00024 6.08215 8.01687 5.53012C8.06412 3.96168 8.2521 3.41947 8.58578 3.08579C8.80836 2.86322 9.13538 2.69585 9.84143 2.60092C10.5763 2.50213 11.5575 2.5 13 2.5H15C16.4425 2.5 17.4237 2.50213 18.1586 2.60092C18.8646 2.69585 19.1916 2.86322 19.4142 3.08579C19.6368 3.30836 19.8042 3.63538 19.8991 4.34144C19.9979 5.07626 20 6.05752 20 7.5V16.5C20 17.9425 19.9979 18.9238 19.8991 19.6586C19.8042 20.3646 19.6368 20.6916 19.4142 20.9142C19.1916 21.1368 18.8646 21.3042 18.1586 21.3991C17.4237 21.4979 16.4425 21.5 15 21.5H13C11.5575 21.5 10.5763 21.4979 9.84143 21.3991C9.13538 21.3042 8.80836 21.1368 8.58578 20.9142C8.2521 20.5805 8.06412 20.0383 8.01687 18.4699C8.00024 17.9179 7.53924 17.4838 6.98721 17.5005C6.43517 17.5171 6.00114 17.9781 6.01778 18.5301C6.06413 20.0686 6.22265 21.3795 7.17157 22.3284C7.82768 22.9845 8.6471 23.2565 9.57493 23.3813C10.4587 23.5001 11.5753 23.5 12.9294 23.5H15.0705C16.4247 23.5 17.5413 23.5001 18.4251 23.3813C19.3529 23.2565 20.1723 22.9845 20.8284 22.3284C21.4845 21.6723 21.7565 20.8529 21.8812 19.9251C22.0001 19.0413 22 17.9247 22 16.5706V7.42943C22 6.07531 22.0001 4.9587 21.8812 4.07494C21.7565 3.14711 21.4845 2.32769 20.8284 1.67158C20.1723 1.01547 19.3529 0.743499 18.4251 0.618756C17.5413 0.499939 16.4247 0.499967 15.0706 0.500001Z" fill="#080809" style="fill:#080809;fill:color(display-p3 0.0314 0.0314 0.0353);fill-opacity:1;"/>
<path d="M1 12C1 12.5523 1.44772 13 2 13L7.58867 13C7.49214 13.0963 7.39531 13.1928 7.29844 13.2894L7.29662 13.2912C6.95935 13.6275 6.62144 13.9643 6.29289 14.2929C5.90237 14.6834 5.90237 15.3166 6.2929 15.7071C6.68342 16.0976 7.31659 16.0976 7.70711 15.7071C8.04528 15.3689 8.37518 15.04 8.70569 14.7105L8.70658 14.7097C9.01929 14.3979 9.33278 14.0854 9.65412 13.7641C10.6299 12.7886 10.6252 11.2101 9.65258 10.2376L7.70711 8.2929C7.31659 7.90237 6.68342 7.90237 6.2929 8.29289C5.90237 8.68341 5.90237 9.31658 6.29289 9.70711L7.5863 11L2 11C1.44771 11 1 11.4477 1 12Z" fill="#080809" style="fill:#080809;fill:color(display-p3 0.0314 0.0314 0.0353);fill-opacity:1;"/>
</svg>
