<svg width="24" height="24" viewBox="0 0 24 24" fill="none" xmlns="http://www.w3.org/2000/svg">
<path d="M8 11C8.82843 11 9.5 10.3284 9.5 9.5C9.5 8.67157 8.82843 8 8 8C7.17157 8 6.5 8.67157 6.5 9.5C6.5 10.3284 7.17157 11 8 11Z" fill="#080809" style="fill:#080809;fill:color(display-p3 0.0314 0.0314 0.0353);fill-opacity:1;"/>
<path d="M17.5 9.5C17.5 10.3284 16.8284 11 16 11C15.1716 11 14.5 10.3284 14.5 9.5C14.5 8.67157 15.1716 8 16 8C16.8284 8 17.5 8.67157 17.5 9.5Z" fill="#080809" style="fill:#080809;fill:color(display-p3 0.0314 0.0314 0.0353);fill-opacity:1;"/>
<path fill-rule="evenodd" clip-rule="evenodd" d="M12 0.5C7.02944 0.5 3 4.52944 3 9.5V21C3 22.3807 4.11929 23.5 5.5 23.5H20C20.5523 23.5 21 23.0523 21 22.5C21 21.9477 20.5523 21.5 20 21.5H16.3262C19.1531 19.5093 21 16.2203 21 12.5V9.5C21 4.52944 16.9706 0.5 12 0.5ZM5 21C5 21.2761 5.22386 21.5 5.5 21.5H10C14.9706 21.5 19 17.4706 19 12.5V9.5C19 7.84315 17.6569 6.5 16 6.5C14.3431 6.5 13 7.84315 13 9.5V12C13 12.5523 12.5523 13 12 13C11.4477 13 11 12.5523 11 12V9.5C11 7.84315 9.65685 6.5 8 6.5C6.34315 6.5 5 7.84315 5 9.5V21ZM7.00122 4.59977C7.32395 4.53434 7.65797 4.5 8 4.5C9.6356 4.5 11.0878 5.28535 12 6.49952C12.9122 5.28535 14.3644 4.5 16 4.5C16.342 4.5 16.676 4.53435 16.9988 4.59977C15.7283 3.30395 13.9581 2.5 12 2.5C10.0419 2.5 8.27165 3.30395 7.00122 4.59977Z" fill="#080809" style="fill:#080809;fill:color(display-p3 0.0314 0.0314 0.0353);fill-opacity:1;"/>
</svg>
