<svg width="24" height="24" viewBox="0 0 24 24" fill="none" xmlns="http://www.w3.org/2000/svg">
<path fill-rule="evenodd" clip-rule="evenodd" d="M7.42943 4H16.5706C17.9247 3.99997 19.0413 3.99994 19.9251 4.11876C20.8529 4.2435 21.6723 4.51547 22.3284 5.17158C22.9845 5.82769 23.2565 6.64711 23.3813 7.57494C23.5001 8.45865 23.5 9.57521 23.5 10.9292V13.0706C23.5 14.4246 23.5001 15.5414 23.3813 16.4251C23.2565 17.3529 22.9845 18.1723 22.3284 18.8284C21.6723 19.4845 20.8529 19.7565 19.9251 19.8813C19.0413 20.0001 17.9247 20 16.5706 20H7.42935C6.07527 20 4.95868 20.0001 4.07494 19.8813C3.14711 19.7565 2.32769 19.4845 1.67158 18.8284C1.01547 18.1723 0.7435 17.3529 0.618757 16.4251C0.499941 15.5413 0.499968 14.4247 0.500001 13.0706V10.9294C0.499968 9.57531 0.499941 8.45868 0.618757 7.57494C0.7435 6.64711 1.01547 5.82769 1.67158 5.17158C2.32769 4.51547 3.14711 4.2435 4.07494 4.11876C4.95868 3.99994 6.07535 3.99997 7.42943 4ZM6.5 14.5C6.22386 14.5 6 14.7239 6 15V16C6 16.2761 6.22386 16.5 6.5 16.5H17.5C17.7761 16.5 18 16.2761 18 16V15C18 14.7239 17.7761 14.5 17.5 14.5H6.5ZM4 8C4 7.72386 4.22386 7.5 4.5 7.5H5.5C5.77614 7.5 6 7.72386 6 8V9C6 9.27614 5.77614 9.5 5.5 9.5H4.5C4.22386 9.5 4 9.27614 4 9V8ZM4.5 11C4.22386 11 4 11.2239 4 11.5V12.5C4 12.7761 4.22386 13 4.5 13H5.5C5.77614 13 6 12.7761 6 12.5V11.5C6 11.2239 5.77614 11 5.5 11H4.5ZM7.5 8C7.5 7.72386 7.72386 7.5 8 7.5H9C9.27614 7.5 9.5 7.72386 9.5 8V9C9.5 9.27614 9.27614 9.5 9 9.5H8C7.72386 9.5 7.5 9.27614 7.5 9V8ZM8 11C7.72386 11 7.5 11.2239 7.5 11.5V12.5C7.5 12.7761 7.72386 13 8 13H9C9.27614 13 9.5 12.7761 9.5 12.5V11.5C9.5 11.2239 9.27614 11 9 11H8ZM11 8C11 7.72386 11.2239 7.5 11.5 7.5H12.5C12.7761 7.5 13 7.72386 13 8V9C13 9.27614 12.7761 9.5 12.5 9.5H11.5C11.2239 9.5 11 9.27614 11 9V8ZM11.5 11C11.2239 11 11 11.2239 11 11.5V12.5C11 12.7761 11.2239 13 11.5 13H12.5C12.7761 13 13 12.7761 13 12.5V11.5C13 11.2239 12.7761 11 12.5 11H11.5ZM14.5 8C14.5 7.72386 14.7239 7.5 15 7.5H16C16.2761 7.5 16.5 7.72386 16.5 8V9C16.5 9.27614 16.2761 9.5 16 9.5H15C14.7239 9.5 14.5 9.27614 14.5 9V8ZM15 11C14.7239 11 14.5 11.2239 14.5 11.5V12.5C14.5 12.7761 14.7239 13 15 13H16C16.2761 13 16.5 12.7761 16.5 12.5V11.5C16.5 11.2239 16.2761 11 16 11H15ZM18 8C18 7.72386 18.2239 7.5 18.5 7.5H19.5C19.7761 7.5 20 7.72386 20 8V9C20 9.27614 19.7761 9.5 19.5 9.5H18.5C18.2239 9.5 18 9.27614 18 9V8ZM18.5 11C18.2239 11 18 11.2239 18 11.5V12.5C18 12.7761 18.2239 13 18.5 13H19.5C19.7761 13 20 12.7761 20 12.5V11.5C20 11.2239 19.7761 11 19.5 11H18.5Z" fill="#080809" style="fill:#080809;fill:color(display-p3 0.0314 0.0314 0.0353);fill-opacity:1;"/>
</svg>
