<svg width="24" height="24" viewBox="0 0 24 24" fill="none" xmlns="http://www.w3.org/2000/svg">
<path fill-rule="evenodd" clip-rule="evenodd" d="M7.42943 3C6.07533 2.99997 4.95869 2.99994 4.07494 3.11876C3.14711 3.2435 2.32769 3.51547 1.67158 4.17158C1.01547 4.82769 0.743499 5.64711 0.618756 6.57494C0.499939 7.45869 0.499967 8.57529 0.500001 9.92939V14.0706C0.499967 15.4247 0.499939 16.5413 0.618756 17.4251C0.743499 18.3529 1.01547 19.1723 1.67158 19.8284C2.32769 20.4845 3.14711 20.7565 4.07494 20.8813C4.9587 21.0001 6.07531 21 7.42944 21H16.5705C17.9247 21 19.0413 21.0001 19.9251 20.8813C20.8529 20.7565 21.6723 20.4845 22.3284 19.8284C22.9845 19.1723 23.2565 18.3529 23.3813 17.4251C23.5001 16.5413 23.5 15.4247 23.5 14.0706V9.92946C23.5 8.57534 23.5001 7.4587 23.3813 6.57494C23.2565 5.64711 22.9845 4.82769 22.3284 4.17158C21.6723 3.51547 20.8529 3.2435 19.9251 3.11876C19.0413 2.99994 17.9247 2.99997 16.5706 3H7.42943ZM9.519 5H7.5C6.05752 5 5.07626 5.00213 4.34144 5.10092C3.63538 5.19585 3.30836 5.36322 3.08579 5.58579C2.86322 5.80836 2.69585 6.13538 2.60092 6.84144C2.50213 7.57626 2.5 8.55752 2.5 10V14C2.5 15.4425 2.50213 16.4238 2.60092 17.1586C2.69585 17.8646 2.86322 18.1916 3.08579 18.4142C3.30836 18.6368 3.63538 18.8042 4.34144 18.8991C5.07626 18.9979 6.05752 19 7.5 19H16.5C17.9425 19 18.9238 18.9979 19.6586 18.8991C20.3646 18.8042 20.6916 18.6368 20.9142 18.4142C21.1368 18.1916 21.3042 17.8646 21.3991 17.1586C21.4979 16.4238 21.5 15.4425 21.5 14V10L14.7206 10C13.9611 10 13.2428 9.65478 12.7684 9.06174L9.519 5ZM21.4823 8C21.4683 7.55114 21.4435 7.17144 21.3991 6.84144C21.3042 6.13538 21.1368 5.80836 20.9142 5.58579C20.6916 5.36322 20.3646 5.19585 19.6586 5.10092C19.0744 5.02239 18.3346 5.00494 17.3311 5.00109L19.7302 8H21.4823ZM12.0802 5L14.3301 7.81235C14.425 7.93096 14.5687 8 14.7206 8H17.169L15.3695 5.75061C14.9906 5.27699 14.4173 5.00094 13.8108 5L12.0802 5Z" fill="#080809" style="fill:#080809;fill:color(display-p3 0.0314 0.0314 0.0353);fill-opacity:1;"/>
</svg>
