<svg width="24" height="24" viewBox="0 0 24 24" fill="none" xmlns="http://www.w3.org/2000/svg">
<path d="M12 1C12.5523 1 13 1.44771 13 2L13 11.5926C13.5418 11.0507 14.0821 10.5088 14.6229 9.9663C15.1782 9.40935 15.7341 8.85178 16.2929 8.29296C16.6834 7.90244 17.3166 7.90244 17.7071 8.29297C18.0976 8.6835 18.0976 9.31666 17.7071 9.70718C17.154 10.2603 16.5996 10.8164 16.0446 11.3731L16.0436 11.374C15.2844 12.1355 14.524 12.8983 13.7641 13.6562C12.788 14.6297 11.2103 14.6253 10.2376 13.6531C9.48087 12.8967 8.72404 12.1394 7.96744 11.3824C7.40921 10.8238 6.85074 10.265 6.2929 9.70718C5.90237 9.31666 5.90237 8.6835 6.29289 8.29297C6.68341 7.90244 7.31658 7.90244 7.7071 8.29296C8.26628 8.85213 8.82486 9.41105 9.38331 9.96983C9.92218 10.509 10.4609 11.0481 11 11.5872L11 2C11 1.44772 11.4477 1 12 1Z" fill="#080809" style="fill:#080809;fill:color(display-p3 0.0314 0.0314 0.0353);fill-opacity:1;"/>
<path d="M1 17.046V16C1 15.4477 1.44772 15 2 15C2.55229 15 3 15.4477 3 16L3 17C3 17.953 3.00096 18.6009 3.04616 19.0996C3.09011 19.5846 3.16951 19.8295 3.26795 20C3.44349 20.304 3.69596 20.5565 4 20.732C4.17051 20.8305 4.41539 20.9099 4.90036 20.9538C5.39908 20.999 6.04698 21 7 21H17C17.953 21 18.6009 20.999 19.0996 20.9538C19.5846 20.9099 19.8295 20.8305 20 20.732C20.304 20.5565 20.5565 20.304 20.7321 20C20.8305 19.8295 20.9099 19.5846 20.9538 19.0996C20.999 18.6009 21 17.953 21 17V16C21 15.4477 21.4477 15 22 15C22.5523 15 23 15.4477 23 16V17.046C23 17.9414 23 18.6805 22.9457 19.2802C22.8892 19.9038 22.7676 20.4744 22.4641 21C22.113 21.6081 21.6081 22.113 21 22.4641C20.4744 22.7676 19.9039 22.8891 19.2802 22.9457C18.6805 23 17.9415 23 17.046 23H6.95396C6.0585 23 5.31952 23 4.71983 22.9457C4.09615 22.8891 3.52564 22.7676 3 22.4641C2.39193 22.113 1.88697 21.6081 1.5359 21C1.23242 20.4744 1.11085 19.9039 1.05432 19.2802C0.999973 18.6805 0.999985 17.9415 1 17.046Z" fill="#080809" style="fill:#080809;fill:color(display-p3 0.0314 0.0314 0.0353);fill-opacity:1;"/>
</svg>
