<svg width="24" height="24" viewBox="0 0 24 24" fill="none" xmlns="http://www.w3.org/2000/svg">
<path fill-rule="evenodd" clip-rule="evenodd" d="M7.42943 3H16.5706C17.9247 2.99997 19.0413 2.99994 19.9251 3.11876C20.8529 3.2435 21.6723 3.51547 22.3284 4.17158C22.9845 4.82769 23.2565 5.64711 23.3813 6.57494C23.5001 7.45869 23.5 8.5753 23.5 9.92942V14.0705C23.5 15.4247 23.5001 16.5413 23.3813 17.4251C23.2565 18.3529 22.9845 19.1723 22.3284 19.8284C21.6723 20.4845 20.8529 20.7565 19.9251 20.8813C19.0413 21.0001 17.9247 21 16.5706 21H7.42946C6.07535 21 4.95869 21.0001 4.07494 20.8813C3.14711 20.7565 2.32769 20.4845 1.67158 19.8284C1.01547 19.1723 0.743499 18.3529 0.618756 17.4251C0.499939 16.5413 0.499967 15.4247 0.500001 14.0706V9.92943C0.499967 8.57533 0.499939 7.45869 0.618756 6.57494C0.743499 5.64711 1.01547 4.82769 1.67158 4.17158C2.32769 3.51547 3.14711 3.2435 4.07494 3.11876C4.95869 2.99994 6.07533 2.99997 7.42943 3ZM21.3991 6.84144C21.4434 7.17136 21.4683 7.55097 21.4823 7.9997H19.7302L17.3314 5.00109C18.3347 5.00494 19.0745 5.02239 19.6586 5.10092C20.3646 5.19585 20.6916 5.36322 20.9142 5.58579C21.1368 5.80836 21.3042 6.13538 21.3991 6.84144ZM12.0805 5H14.7692L17.169 7.9997H14.4802L12.0805 5Z" fill="#080809" style="fill:#080809;fill:color(display-p3 0.0314 0.0314 0.0353);fill-opacity:1;"/>
</svg>
