<svg width="24" height="24" viewBox="0 0 24 24" fill="none" xmlns="http://www.w3.org/2000/svg">
<path d="M17.0001 7.00049C17.5524 7.00056 18.0001 7.44825 18.0001 8.00049V18.5864L20.2931 16.2935C20.6836 15.903 21.3166 15.9029 21.7072 16.2935C22.0976 16.684 22.0976 17.317 21.7072 17.7075L18.7677 20.647C17.7914 21.6231 16.2088 21.6231 15.2326 20.647L12.2931 17.7075L12.2247 17.6313C11.9044 17.2386 11.927 16.6596 12.2931 16.2935C12.6592 15.9274 13.2382 15.9048 13.631 16.2251L13.7072 16.2935L16.0001 18.5864V8.00049C16.0001 7.4482 16.4478 7.00049 17.0001 7.00049Z" fill="#080809" style="fill:#080809;fill:color(display-p3 0.0314 0.0314 0.0353);fill-opacity:1;"/>
<path d="M7.00013 19.0005C7.55236 19.0006 8.00013 19.4482 8.00013 20.0005C7.99997 20.5526 7.55225 21.0004 7.00013 21.0005C6.44795 21.0005 6.00029 20.5526 6.00013 20.0005C6.00013 19.4482 6.44785 19.0005 7.00013 19.0005Z" fill="#080809" style="fill:#080809;fill:color(display-p3 0.0314 0.0314 0.0353);fill-opacity:1;"/>
<path d="M5.23255 3.35303C6.20883 2.37718 7.79152 2.37705 8.76771 3.35303L11.7072 6.29248L11.7755 6.36865C12.0958 6.76132 12.073 7.34041 11.7072 7.70654C11.341 8.07266 10.762 8.09525 10.3693 7.7749L10.2931 7.70654L8.00013 5.41357V15.9956C7.99997 16.5477 7.55225 16.9955 7.00013 16.9956C6.44795 16.9956 6.00029 16.5478 6.00013 15.9956V5.41357L3.70716 7.70654C3.31664 8.09707 2.68362 8.09707 2.2931 7.70654C1.90266 7.31601 1.9026 6.68298 2.2931 6.29248L5.23255 3.35303Z" fill="#080809" style="fill:#080809;fill:color(display-p3 0.0314 0.0314 0.0353);fill-opacity:1;"/>
<path d="M17.0001 3.00049C17.5524 3.00056 18.0001 3.44825 18.0001 4.00049C18 4.55259 17.5523 5.00042 17.0001 5.00049C16.4479 5.00049 16.0003 4.55263 16.0001 4.00049C16.0001 3.4482 16.4478 3.00049 17.0001 3.00049Z" fill="#080809" style="fill:#080809;fill:color(display-p3 0.0314 0.0314 0.0353);fill-opacity:1;"/>
</svg>
