<svg width="24" height="24" viewBox="0 0 24 24" fill="none" xmlns="http://www.w3.org/2000/svg">
<g clip-path="url(#clip0_29901_26764)">
<path fill-rule="evenodd" clip-rule="evenodd" d="M12 18C8.68629 18 6 15.3137 6 12C6 8.68629 8.68629 6 12 6C15.3137 6 18 8.68629 18 12C18 15.3137 15.3137 18 12 18ZM9.96803 15.4462C10.5635 15.7981 11.2582 16 12 16C14.2091 16 16 14.2091 16 12C16 11.2582 15.7981 10.5635 15.4462 9.96803L9.96803 15.4462ZM14.032 8.55382L8.55382 14.032C8.20193 13.4365 8 12.7418 8 12C8 9.79086 9.79086 8 12 8C12.7418 8 13.4365 8.20193 14.032 8.55382Z" fill="#080809" style="fill:#080809;fill:color(display-p3 0.0314 0.0314 0.0353);fill-opacity:1;"/>
<path fill-rule="evenodd" clip-rule="evenodd" d="M12 0.5C18.3513 0.5 23.5 5.64873 23.5 12C23.5 13.9218 23.0278 15.7363 22.1922 17.3308C22.105 17.4973 22.092 17.6559 22.1233 17.7765L23.0047 21.1762C23.2918 22.2835 22.2835 23.2918 21.1762 23.0047L17.7765 22.1233C17.6559 22.092 17.4973 22.105 17.3308 22.1922C15.7363 23.0278 13.9218 23.5 12 23.5C5.64873 23.5 0.5 18.3513 0.5 12C0.5 5.64873 5.64873 0.5 12 0.5ZM21.5 12C21.5 6.75329 17.2467 2.5 12 2.5C6.7533 2.5 2.5 6.75329 2.5 12C2.5 17.2467 6.7533 21.5 12 21.5C13.5908 21.5 15.0875 21.1098 16.4025 20.4207C16.9511 20.1333 17.6177 20.016 18.2785 20.1873L20.8554 20.8554L20.1873 18.2785C20.016 17.6177 20.1333 16.9511 20.4207 16.4025C21.1098 15.0875 21.5 13.5908 21.5 12Z" fill="#080809" style="fill:#080809;fill:color(display-p3 0.0314 0.0314 0.0353);fill-opacity:1;"/>
</g>
<defs>
<clipPath id="clip0_29901_26764">
<rect width="24" height="24" fill="white" style="fill:white;fill-opacity:1;"/>
</clipPath>
</defs>
</svg>
