<svg width="24" height="24" viewBox="0 0 24 24" fill="none" xmlns="http://www.w3.org/2000/svg">
<path d="M1.87117 4.07179C1.35838 3.86668 0.776414 4.11609 0.571301 4.62888C0.366188 5.14166 0.615604 5.72363 1.12839 5.92874C5.38146 7.62997 8.32049 11.5735 8.73521 16.1354L9.00388 19.0908C9.04726 19.5679 9.4229 19.9472 9.89955 19.9952C10.3762 20.0432 10.8199 19.7465 10.9576 19.2876L11.2161 18.4261C11.9291 16.0492 13.592 14.0722 15.8116 12.9624L15.947 12.8947C16.441 12.6477 16.6412 12.047 16.3942 11.5531C16.1472 11.0591 15.5465 10.8588 15.0526 11.1058L14.9171 11.1736C13.1479 12.0582 11.6681 13.3936 10.611 15.0213C9.83473 10.1102 6.53018 5.93539 1.87117 4.07179Z" fill="#080809" style="fill:#080809;fill:color(display-p3 0.0314 0.0314 0.0353);fill-opacity:1;"/>
<path fill-rule="evenodd" clip-rule="evenodd" d="M20.5 7.00024C18.8431 7.00024 17.5 8.34339 17.5 10.0002C17.5 11.6571 18.8431 13.0002 20.5 13.0002C22.1569 13.0002 23.5 11.6571 23.5 10.0002C23.5 8.34339 22.1569 7.00024 20.5 7.00024ZM19.5 10.0002C19.5 9.44796 19.9477 9.00024 20.5 9.00024C21.0523 9.00024 21.5 9.44796 21.5 10.0002C21.5 10.5525 21.0523 11.0002 20.5 11.0002C19.9477 11.0002 19.5 10.5525 19.5 10.0002Z" fill="#080809" style="fill:#080809;fill:color(display-p3 0.0314 0.0314 0.0353);fill-opacity:1;"/>
</svg>
