<svg width="24" height="24" viewBox="0 0 24 24" fill="none" xmlns="http://www.w3.org/2000/svg">
<path fill-rule="evenodd" clip-rule="evenodd" d="M8.87207 7.75C10.3217 7.7502 11.4971 8.92538 11.4971 10.375C11.4971 11.3809 10.9304 12.2536 10.0996 12.6943L11.3496 14.7266C11.6383 15.1969 11.4906 15.8124 11.0205 16.1016C10.5501 16.3905 9.9347 16.2437 9.64551 15.7734L7.94141 13H6.49707V15.2451C6.49707 15.7973 6.04926 16.245 5.49707 16.2451C4.94479 16.2451 4.49707 15.7974 4.49707 15.2451V8.75L4.50195 8.64746C4.5533 8.14334 4.9794 7.75 5.49707 7.75H8.87207ZM6.49707 11H8.87207C9.21708 10.9998 9.49707 10.7201 9.49707 10.375C9.49707 10.0299 9.21708 9.7502 8.87207 9.75H6.49707V11Z" fill="#080809" style="fill:#080809;fill:color(display-p3 0.0314 0.0314 0.0353);fill-opacity:1;"/>
<path d="M19.0029 7.75C19.5552 7.75 20.0029 8.19772 20.0029 8.75C20.0029 9.30229 19.5552 9.75 19.0029 9.75H15.0029V10.998H18C18.5523 10.998 19 11.4458 19 11.998C19 12.5503 18.5523 12.998 18 12.998H15.0029V15.2451C15.0029 15.7974 14.5552 16.2451 14.0029 16.2451C13.4506 16.2451 13.0029 15.7974 13.0029 15.2451V8.75L13.0078 8.64746C13.0591 8.14333 13.4853 7.75 14.0029 7.75H19.0029Z" fill="#080809" style="fill:#080809;fill:color(display-p3 0.0314 0.0314 0.0353);fill-opacity:1;"/>
<path fill-rule="evenodd" clip-rule="evenodd" d="M14.5 3C16.3573 3 17.8511 2.99779 19.0225 3.15528C20.2226 3.31664 21.2326 3.66232 22.0352 4.46485C22.8377 5.26738 23.1834 6.27745 23.3447 7.47754C23.5022 8.64892 23.5 10.1427 23.5 12C23.5 13.8573 23.5022 15.3511 23.3447 16.5225C23.1834 17.7226 22.8377 18.7326 22.0352 19.5352C21.2326 20.3377 20.2226 20.6834 19.0225 20.8447C17.8511 21.0022 16.3573 21 14.5 21H9.5C7.64266 21 6.14892 21.0022 4.97754 20.8447C3.77745 20.6834 2.76738 20.3377 1.96485 19.5352C1.16232 18.7326 0.816636 17.7226 0.655275 16.5225C0.497788 15.3511 0.500002 13.8573 0.500002 12C0.500002 10.1427 0.497788 8.64892 0.655275 7.47754C0.816637 6.27745 1.16232 5.26738 1.96485 4.46485C2.76738 3.66232 3.77745 3.31664 4.97754 3.15528C6.14892 2.99779 7.64266 3 9.5 3H14.5ZM9.5 5C7.58612 5 6.25128 5.00229 5.24414 5.1377C4.2658 5.26924 3.74792 5.5099 3.37891 5.87891C3.0099 6.24792 2.76924 6.7658 2.6377 7.74414C2.50229 8.75128 2.5 10.0861 2.5 12C2.5 13.9139 2.50229 15.2487 2.6377 16.2559C2.76924 17.2342 3.0099 17.7521 3.37891 18.1211C3.74792 18.4901 4.2658 18.7308 5.24414 18.8623C6.25128 18.9977 7.58612 19 9.5 19H14.5C16.4139 19 17.7487 18.9977 18.7559 18.8623C19.7342 18.7308 20.2521 18.4901 20.6211 18.1211C20.9901 17.7521 21.2308 17.2342 21.3623 16.2559C21.4977 15.2487 21.5 13.9139 21.5 12C21.5 10.0861 21.4977 8.75128 21.3623 7.74414C21.2308 6.7658 20.9901 6.24792 20.6211 5.87891C20.2521 5.5099 19.7342 5.26924 18.7559 5.1377C17.7487 5.00229 16.4139 5 14.5 5H9.5Z" fill="#080809" style="fill:#080809;fill:color(display-p3 0.0314 0.0314 0.0353);fill-opacity:1;"/>
</svg>
