<svg width="24" height="24" viewBox="0 0 24 24" fill="none" xmlns="http://www.w3.org/2000/svg">
<path fill-rule="evenodd" clip-rule="evenodd" d="M11.9252 1H12.0748C14.3683 0.999978 16.1914 0.999961 17.6196 1.19198C19.0921 1.38994 20.2936 1.80836 21.2426 2.75736C22.1916 3.70636 22.6101 4.90794 22.808 6.38039C23 7.8086 23 9.63167 23 11.9252V12.0748C23 12.7224 23 13.3324 22.9957 13.9066C22.9985 13.9374 23 13.9685 23 14C23 14.14 22.9968 14.2793 22.9905 14.4177C22.9741 15.6556 22.9294 16.7165 22.808 17.6196C22.6101 19.0921 22.1916 20.2936 21.2426 21.2426C20.2936 22.1916 19.0921 22.6101 17.6196 22.808C16.7165 22.9294 15.6556 22.9741 14.4177 22.9905C14.2793 22.9968 14.14 23 14 23H12.2404C12.1855 23 12.1303 23 12.0748 23H11.9252C11.8717 23 11.8185 23 11.7655 23H9.99999C9.85997 23 9.72069 22.9968 9.58224 22.9905C8.34435 22.9741 7.28344 22.9294 6.3804 22.808C4.90794 22.6101 3.70636 22.1916 2.75736 21.2426C1.80836 20.2936 1.38995 19.0921 1.19198 17.6196C1.07057 16.7166 1.02593 15.6557 1.00953 14.4178C1.0032 14.2793 1 14.14 1 14C1 13.9685 1.00146 13.9374 1.0043 13.9066C0.999989 13.3324 0.999994 12.7224 1 12.0748V11.9252C0.999979 9.63167 0.999962 7.80859 1.19198 6.3804C1.38994 4.90794 1.80836 3.70636 2.75736 2.75736C3.70636 1.80836 4.90794 1.38994 6.38039 1.19198C7.80859 0.999961 9.63166 0.999979 11.9252 1ZM20.9993 13L17.5 13C16.0661 13 15.1635 14.1656 14.8059 15.1184C14.3659 16.2909 13.2015 17 12 17C10.7985 17 9.63407 16.2909 9.19407 15.1184C8.83647 14.1656 7.93392 13 6.5 13H3.00066C3.00005 12.6809 3 12.3479 3 12C3 9.61471 3.00213 7.92634 3.17414 6.64689C3.34229 5.39621 3.65611 4.68704 4.17157 4.17158C4.68704 3.65611 5.39621 3.34229 6.64689 3.17414C7.92634 3.00213 9.61471 3 12 3C14.3853 3 16.0737 3.00213 17.3531 3.17414C18.6038 3.34229 19.313 3.65611 19.8284 4.17157C20.3439 4.68704 20.6577 5.39621 20.8259 6.64689C20.9979 7.92634 21 9.61471 21 12C21 12.3479 21 12.6809 20.9993 13Z" fill="#080809" style="fill:#080809;fill:color(display-p3 0.0314 0.0314 0.0353);fill-opacity:1;"/>
</svg>
