<svg width="24" height="24" viewBox="0 0 24 24" fill="none" xmlns="http://www.w3.org/2000/svg">
<path fill-rule="evenodd" clip-rule="evenodd" d="M12 0.5C8.67813 0.5 5.99999 3.22601 5.99999 6.53152C5.99999 8.38379 6.84935 10.1534 8.31102 11.3018L8.7155 11.6197C9.21079 12.0088 9.49999 12.6038 9.49999 13.2337V14H5C4.44772 14 4 14.4477 4 15C4 15.5523 4.44772 16 5 16H19C19.5523 16 20 15.5523 20 15C20 14.4477 19.5523 14 19 14H14.5V13.2337C14.5 12.6038 14.7892 12.0088 15.2845 11.6197L15.689 11.3018C17.1506 10.1534 18 8.38379 18 6.53152C18 3.22601 15.3219 0.5 12 0.5ZM14.0015 2.29357C13.6113 2.15476 13.1824 2.3586 13.0436 2.74886C12.9054 3.13726 13.1067 3.56394 13.4933 3.70483L13.4996 3.70731C13.5084 3.71086 13.5252 3.71782 13.5485 3.72842C13.5952 3.74974 13.6666 3.78506 13.7515 3.83609C13.9239 3.93966 14.1365 4.09839 14.3168 4.32157C14.4891 4.53479 14.603 4.79139 14.6736 5.01143C14.7079 5.11843 14.7296 5.20926 14.7424 5.27072C14.7487 5.30125 14.7527 5.32396 14.7549 5.33711L14.7568 5.34927C14.8112 5.75805 15.1859 6.04656 15.5954 5.99413C16.0063 5.94154 16.2967 5.56584 16.2441 5.15498L16.2439 5.15329L16.2437 5.1513L16.243 5.14645L16.2411 5.13329C16.2396 5.12302 16.2376 5.10976 16.235 5.09375C16.2297 5.06176 16.222 5.0186 16.2112 4.96623C16.1895 4.86188 16.155 4.71873 16.1018 4.55307C15.9974 4.22782 15.8113 3.78441 15.4836 3.37884C15.1639 2.98322 14.8015 2.71696 14.5239 2.55023C14.3838 2.4661 14.2614 2.40494 14.1707 2.36358C14.1252 2.34283 14.0873 2.32689 14.0586 2.31538C14.0443 2.30962 14.0322 2.30496 14.0227 2.30134L14.0102 2.29669L14.0072 2.29559C14.0072 2.29559 14.0227 2.30133 14.0033 2.29425L14.0015 2.29357Z" fill="#080809" style="fill:#080809;fill:color(display-p3 0.0314 0.0314 0.0353);fill-opacity:1;"/>
<path d="M10.5547 17.6681C11.0142 17.9744 11.1384 18.5953 10.8321 19.0548L10.1544 20.0714C10.0537 20.2223 10 20.3997 10 20.5811C10 21.0887 10.4114 21.5001 10.919 21.5001H13.081C13.5886 21.5001 14 21.0887 14 20.5811C14 20.3997 13.9463 20.2223 13.8457 20.0714L13.168 19.0548C12.8616 18.5953 12.9858 17.9744 13.4453 17.6681C13.9048 17.3617 14.5257 17.4859 14.8321 17.9454L15.5098 18.962C15.8294 19.4415 16 20.0049 16 20.5811C16 22.1933 14.6931 23.5001 13.081 23.5001H10.919C9.30688 23.5001 8.00001 22.1932 8.00001 20.5811C8.00001 20.0049 8.17059 19.4415 8.49025 18.962L9.16796 17.9454C9.47431 17.4859 10.0952 17.3617 10.5547 17.6681Z" fill="#080809" style="fill:#080809;fill:color(display-p3 0.0314 0.0314 0.0353);fill-opacity:1;"/>
</svg>
