<svg width="24" height="24" viewBox="0 0 24 24" fill="none" xmlns="http://www.w3.org/2000/svg">
<g clip-path="url(#clip0_29901_28583)">
<path fill-rule="evenodd" clip-rule="evenodd" d="M10.0416 1.0144C10.6662 0.667379 11.2878 0.4375 12 0.4375C12.7122 0.4375 13.3338 0.667384 13.9584 1.01441C14.5494 1.34281 15.2198 1.82165 16.0228 2.39525L19.7675 5.06989C20.5577 5.63425 21.2046 6.09627 21.705 6.52687C22.2284 6.97715 22.645 7.43653 22.9458 8.02102C23.2466 8.6055 23.3783 9.21153 23.4405 9.89912C23.5 10.5566 23.5 11.3517 23.5 12.3226V14.086C23.5 15.9094 23.5001 17.3792 23.3446 18.5352C23.1833 19.7353 22.8381 20.7458 22.0355 21.5484C21.233 22.3509 20.2225 22.6961 19.0223 22.8575C17.8664 23.0129 16.3966 23.0129 14.5731 23.0128H9.42687C7.6034 23.0129 6.13363 23.0129 4.97767 22.8575C3.77752 22.6961 2.76702 22.3509 1.96447 21.5484C1.16191 20.7458 0.816722 19.7353 0.655367 18.5352C0.499954 17.3792 0.499975 15.9095 0.500001 14.086V12.3225C0.499989 11.3515 0.499979 10.5566 0.559494 9.89907C0.621733 9.21148 0.753403 8.60544 1.0542 8.02095C1.355 7.43647 1.77163 6.97709 2.29499 6.5268C2.79545 6.09621 3.44236 5.63418 4.23253 5.06982L7.97721 2.39522C8.78025 1.82163 9.45062 1.3428 10.0416 1.0144ZM5.58132 10.1861C5.1319 9.86509 4.50735 9.96918 4.18634 10.4186C3.86534 10.868 3.96943 11.4926 4.41884 11.8136L7.97848 14.3562C8.78125 14.9296 9.4514 15.4083 10.0422 15.7366C10.6666 16.0836 11.288 16.3135 12 16.3136C12.712 16.3137 13.3335 16.0841 13.958 15.7374C14.549 15.4093 15.2193 14.9308 16.0223 14.3577L19.581 11.8177C20.0305 11.4968 20.1349 10.8723 19.814 10.4228C19.4932 9.97327 18.8687 9.86895 18.4191 10.1898L14.9061 12.6971C14.0456 13.3113 13.4672 13.7223 12.9872 13.9888C12.5295 14.2429 12.2495 14.3137 12.0004 14.3136C11.7513 14.3136 11.4713 14.2427 11.0137 13.9884C10.5338 13.7217 9.95557 13.3106 9.09525 12.6961L5.58132 10.1861Z" fill="#080809" style="fill:#080809;fill:color(display-p3 0.0314 0.0314 0.0353);fill-opacity:1;"/>
</g>
<defs>
<clipPath id="clip0_29901_28583">
<rect width="24" height="24" fill="white" style="fill:white;fill-opacity:1;"/>
</clipPath>
</defs>
</svg>
