<svg width="24" height="24" viewBox="0 0 24 24" fill="none" xmlns="http://www.w3.org/2000/svg">
<path fill-rule="evenodd" clip-rule="evenodd" d="M2.70711 1.29289C2.31658 0.902369 1.68342 0.902369 1.29289 1.29289C0.902369 1.68342 0.902369 2.31658 1.29289 2.70711L21.2929 22.7071C21.6834 23.0976 22.3166 23.0976 22.7071 22.7071C23.0976 22.3166 23.0976 21.6834 22.7071 21.2929L19.2973 17.8831C21.6141 15.6166 23.4539 12.8369 23.4994 9.66971C23.5614 5.56056 20.4562 3.06181 17.269 3.00143C16.0222 2.97781 14.9008 3.24605 13.867 3.88616C13.1882 4.30638 12.5756 4.86935 12.0001 5.56478C11.4244 4.86945 10.8116 4.30694 10.1326 3.88728C9.09855 3.24813 7.97734 2.98114 6.73127 3.00471C6.06291 3.01736 5.39938 3.1362 4.76832 3.3541L2.70711 1.29289ZM6.43759 5.02338L17.8831 16.4689C20.0397 14.3641 21.465 12.0502 21.4996 9.64097C21.5439 6.7256 19.4122 5.04239 17.2312 5.00107C16.3174 4.98376 15.5851 5.17471 14.9198 5.58662C14.2365 6.00966 13.5597 6.70571 12.8341 7.80199C12.6489 8.08178 12.3357 8.25004 12.0002 8.25004C11.6646 8.25003 11.3515 8.08175 11.1663 7.80196C10.4407 6.70574 9.76408 6.01069 9.08109 5.58854C8.41596 5.17743 7.68351 4.98705 6.7691 5.00435C6.65844 5.00645 6.54784 5.01281 6.43759 5.02338Z" fill="#080809" style="fill:#080809;fill:color(display-p3 0.0314 0.0314 0.0353);fill-opacity:1;"/>
<path d="M2.48341 6.09799C2.98171 6.33614 3.19259 6.93316 2.95444 7.43145C2.66167 8.04401 2.48761 8.78024 2.50069 9.64034C2.53187 11.8104 3.6893 13.9081 5.51876 15.8591C7.33661 17.7978 9.72477 19.4909 11.9999 20.8417C12.8502 20.3369 13.7198 19.7822 14.5714 19.1826C15.0229 18.8646 15.6468 18.9729 15.9647 19.4245C16.2827 19.8761 16.1744 20.4999 15.7228 20.8179C14.8183 21.4548 13.8998 22.0401 13.0078 22.5692C12.3867 22.9377 11.6142 22.9383 10.9923 22.5694C8.63244 21.1694 6.06157 19.362 4.05982 17.2272C2.06637 15.1012 0.542413 12.5474 0.500913 9.67036C0.483424 8.51644 0.717883 7.47301 1.14994 6.56901C1.3881 6.07071 1.98511 5.85983 2.48341 6.09799Z" fill="#080809" style="fill:#080809;fill:color(display-p3 0.0314 0.0314 0.0353);fill-opacity:1;"/>
</svg>
