<svg width="24" height="24" viewBox="0 0 24 24" fill="none" xmlns="http://www.w3.org/2000/svg">
<path fill-rule="evenodd" clip-rule="evenodd" d="M11 1C8.23858 1 6 3.23858 6 6C6 8.76142 8.23858 11 11 11C13.7614 11 16 8.76142 16 6C16 3.23858 13.7614 1 11 1ZM8 6C8 4.34315 9.34315 3 11 3C12.6569 3 14 4.34315 14 6C14 7.65685 12.6569 9 11 9C9.34315 9 8 7.65685 8 6Z" fill="#080809" style="fill:#080809;fill:color(display-p3 0.0314 0.0314 0.0353);fill-opacity:1;"/>
<path d="M2 19.3333C2 15.8355 4.83553 13 8.33333 13H13.4098C13.9621 13 14.4098 13.4477 14.4098 14C14.4098 14.5523 13.9621 15 13.4098 15H8.33333C5.9401 15 4 16.9401 4 19.3333C4 20.2538 4.74619 21 5.66667 21H12.124C12.6763 21 13.124 21.4477 13.124 22C13.124 22.5523 12.6763 23 12.124 23H5.66667C3.64162 23 2 21.3584 2 19.3333Z" fill="#080809" style="fill:#080809;fill:color(display-p3 0.0314 0.0314 0.0353);fill-opacity:1;"/>
<path d="M20.3353 15.2765C20.7042 14.9078 21.302 14.9078 21.6708 15.2765L21.7049 15.3107L21.71 15.3157L22.684 16.2893L22.689 16.2944L22.7232 16.3285C23.0922 16.6974 23.0922 17.2957 22.7231 17.6646L22.6895 17.6982L22.6839 17.7038L17.8269 22.5584C17.5463 22.8388 17.1659 22.9967 16.7692 22.9974L15.5009 22.9997C15.2244 23.0002 15 22.7762 15 22.4997L15 22.2985L15 22.2909L15.0001 21.3917L15.0001 21.3794L15.0001 21.2305C15.0001 20.8325 15.1583 20.4509 15.4397 20.1696L15.546 20.0634L15.5537 20.0557L20.3353 15.2765Z" fill="#080809" style="fill:#080809;fill:color(display-p3 0.0314 0.0314 0.0353);fill-opacity:1;"/>
</svg>
