<svg width="24" height="24" viewBox="0 0 24 24" fill="none" xmlns="http://www.w3.org/2000/svg">
<path fill-rule="evenodd" clip-rule="evenodd" d="M12 0.5C11.4477 0.5 11 0.947715 11 1.5V5H7.5C6.11929 5 5 6.11929 5 7.5V11H3.5C2.11929 11 1 12.1193 1 13.5V20.5C1 21.8807 2.11929 23 3.5 23H20.5C21.8807 23 23 21.8807 23 20.5V13.5C23 12.1193 21.8807 11 20.5 11H19V7.5C19 6.11929 17.8807 5 16.5 5H13V3.5H14C14.5523 3.5 15 3.05228 15 2.5V1.5C15 0.947715 14.5523 0.5 14 0.5H12ZM20.5 13H19V21H20.5C20.7761 21 21 20.7761 21 20.5V13.5C21 13.2239 20.7761 13 20.5 13ZM5 21V13H3.5C3.22386 13 3 13.2239 3 13.5V20.5C3 20.7761 3.22386 21 3.5 21H5ZM10 10C10.5523 10 11 10.4477 11 11V12C11 12.5523 10.5523 13 10 13C9.44771 13 9 12.5523 9 12V11C9 10.4477 9.44771 10 10 10ZM11 16C11 15.4477 10.5523 15 10 15C9.44771 15 9 15.4477 9 16V17C9 17.5523 9.44771 18 10 18C10.5523 18 11 17.5523 11 17V16ZM14 10C14.5523 10 15 10.4477 15 11V12C15 12.5523 14.5523 13 14 13C13.4477 13 13 12.5523 13 12V11C13 10.4477 13.4477 10 14 10ZM15 16C15 15.4477 14.5523 15 14 15C13.4477 15 13 15.4477 13 16V17C13 17.5523 13.4477 18 14 18C14.5523 18 15 17.5523 15 17V16Z" fill="#080809" style="fill:#080809;fill:color(display-p3 0.0314 0.0314 0.0353);fill-opacity:1;"/>
</svg>
