<svg width="24" height="24" viewBox="0 0 24 24" fill="none" xmlns="http://www.w3.org/2000/svg">
<path d="M6.44993 1.18404C6.27528 0.6601 5.70896 0.37694 5.18502 0.551588C4.66108 0.726236 4.37792 1.29256 4.55256 1.8165L5.05256 3.3165C5.22721 3.84044 5.79353 4.1236 6.31748 3.94895C6.84142 3.77431 7.12458 3.20799 6.94993 2.68404L6.44993 1.18404Z" fill="#080809" style="fill:#080809;fill:color(display-p3 0.0314 0.0314 0.0353);fill-opacity:1;"/>
<path fill-rule="evenodd" clip-rule="evenodd" d="M18.0011 8C18.0011 8.27614 18.2249 8.5 18.5011 8.5C18.7772 8.5 19.0011 8.27614 19.0011 8V3.35897C19.0097 2.60696 19.6219 2 20.376 2C21.1354 2 21.751 2.61561 21.751 3.375V8.01477C21.0476 8.10055 20.4339 8.55384 20.15 9.21623L19.0415 11.8031C18.9327 12.0569 19.0503 12.3508 19.3041 12.4596C19.5579 12.5683 19.8519 12.4508 19.9606 12.1969L21.0692 9.61012C21.2278 9.23999 21.5918 9 21.9944 9C22.5502 9 23.0007 9.45036 23.0011 10.006L23.001 11.2501C23.0009 14.4257 20.4266 17 17.251 17C16.6274 17 16.027 16.9007 15.4648 16.7172C15.1062 20.2469 12.125 23 8.50092 23H8.00098C4.13503 23 1.00098 19.8662 1.00098 16.0002V15.0001C1.00098 13.237 2.30474 11.7781 4.0009 11.5355V10C4.0009 8.34315 5.34404 7 7.0009 7C7.16412 7 7.32461 7.01312 7.48125 7.0384C8.03077 6.40305 8.84315 6 9.7509 6C10.4046 6 11.0088 6.20899 11.501 6.56322V3.375C11.501 2.61561 12.1166 2 12.876 2C13.6354 2 14.251 2.61561 14.251 3.375V7.56308C14.5663 7.78991 14.8357 8.07641 15.0429 8.40605C15.169 8.31528 15.2511 8.16723 15.2511 8V2.5L15.251 2.49033V2.375C15.251 1.61561 15.8666 1 16.626 1C17.3854 1 18.001 1.61561 18.001 2.375L18.0011 8ZM13.501 12.5128L13.5009 12.5V10C13.5009 9.44772 13.0532 9 12.5009 9C12.3355 9 12.1822 9.03938 12.0472 9.10839C12.0319 9.11619 12.0164 9.12359 12.0009 9.13057V13.75C12.0009 14.1642 11.6651 14.5 11.2509 14.5C10.8366 14.5 10.5009 14.1642 10.5009 13.75V8.33822C10.3171 8.13018 10.0486 8 9.7509 8C9.45317 8 9.18466 8.13022 9.00085 8.33831V13.75C9.00085 14.1642 8.66507 14.5 8.25085 14.5C7.83664 14.5 7.50085 14.1642 7.50085 13.75V9.13053C7.4853 9.12356 7.46988 9.11618 7.45463 9.10838C7.31956 9.03938 7.16628 9 7.0009 9C6.44861 9 6.0009 9.44772 6.0009 10V11.4889L6.00098 11.5V15.8C6.00098 16.2142 5.66519 16.55 5.25098 16.55C4.83676 16.55 4.50098 16.2142 4.50098 15.8V13.5C3.67262 13.5 3.00098 14.1716 3.00098 15.0001V16.0002C3.00098 18.7616 5.23951 21 8.00098 21H8.50092C11.2626 21 13.5009 18.7624 13.5009 16.0012L13.501 12.5128Z" fill="#080809" style="fill:#080809;fill:color(display-p3 0.0314 0.0314 0.0353);fill-opacity:1;"/>
<path d="M0.551588 4.68404C0.726236 4.1601 1.29256 3.87694 1.8165 4.05159L3.3165 4.55159C3.84044 4.72624 4.1236 5.29256 3.94895 5.8165C3.77431 6.34044 3.20799 6.6236 2.68404 6.44895L1.18404 5.94895C0.6601 5.77431 0.37694 5.20799 0.551588 4.68404Z" fill="#080809" style="fill:#080809;fill:color(display-p3 0.0314 0.0314 0.0353);fill-opacity:1;"/>
<path d="M23.4504 19.3169C23.2757 19.8409 22.7094 20.124 22.1855 19.9494L20.6855 19.4494C20.1615 19.2747 19.8784 18.7084 20.053 18.1845C20.2276 17.6605 20.794 17.3774 21.3179 17.552L22.8179 18.052C23.3419 18.2267 23.625 18.793 23.4504 19.3169Z" fill="#080809" style="fill:#080809;fill:color(display-p3 0.0314 0.0314 0.0353);fill-opacity:1;"/>
<path d="M17.552 22.8169C17.7267 23.3409 18.293 23.624 18.8169 23.4494C19.3409 23.2747 19.624 22.7084 19.4494 22.1845L18.9494 20.6845C18.7747 20.1605 18.2084 19.8774 17.6845 20.052C17.1605 20.2267 16.8774 20.793 17.052 21.3169L17.552 22.8169Z" fill="#080809" style="fill:#080809;fill:color(display-p3 0.0314 0.0314 0.0353);fill-opacity:1;"/>
</svg>
