<svg width="24" height="24" viewBox="0 0 24 24" fill="none" xmlns="http://www.w3.org/2000/svg">
<path d="M7.34214 8.97461C7.4054 8.97461 7.46682 8.99793 7.51401 9.04004C7.56126 9.0824 7.59205 9.14103 7.59897 9.2041C7.8566 11.8264 7.97328 14.1759 7.59604 16.792C7.59601 16.8595 7.56855 16.924 7.52085 16.9717C7.47315 17.0194 7.40862 17.0468 7.34116 17.0469C7.27372 17.0469 7.2092 17.0193 7.16147 16.9717C7.11376 16.924 7.08631 16.8595 7.08628 16.792C6.72131 14.2096 6.84399 11.7926 7.08628 9.2041C7.0932 9.14104 7.12302 9.08239 7.17026 9.04004C7.21742 8.99777 7.27882 8.97471 7.34214 8.97461Z" fill="#080809" style="fill:#080809;fill:color(display-p3 0.0314 0.0314 0.0353);fill-opacity:1;"/>
<path d="M5.75229 9.67969C5.82214 9.67977 5.88942 9.70745 5.93882 9.75684C5.9882 9.80627 6.01594 9.87349 6.01597 9.94336C6.32726 12.2188 6.32357 14.5262 6.0062 16.8008C5.99924 16.8647 5.96907 16.9239 5.92124 16.9668C5.87342 17.0097 5.81165 17.0332 5.74741 17.0332C5.68317 17.0332 5.62141 17.0097 5.57358 16.9668C5.52575 16.9239 5.49558 16.8647 5.48862 16.8008C5.19576 14.5244 5.19573 12.2198 5.48862 9.94336C5.48865 9.87344 5.51633 9.80628 5.56577 9.75684C5.61522 9.7075 5.68243 9.67969 5.75229 9.67969Z" fill="#080809" style="fill:#080809;fill:color(display-p3 0.0314 0.0314 0.0353);fill-opacity:1;"/>
<path d="M4.15659 11.3965C4.22568 11.3965 4.29231 11.4238 4.34116 11.4727C4.38999 11.5215 4.41733 11.5881 4.41733 11.6572C4.81908 13.436 4.63786 15.0068 4.40171 16.8193C4.39237 16.8776 4.36255 16.9304 4.31772 16.9688C4.27279 17.0071 4.21568 17.0283 4.15659 17.0283C4.0975 17.0283 4.04042 17.0071 3.99546 16.9688C3.95061 16.9305 3.92083 16.8776 3.91147 16.8193C3.69679 15.0313 3.51862 13.4238 3.89585 11.6572C3.89585 11.5881 3.92313 11.5215 3.97202 11.4727C4.02091 11.4238 4.08748 11.3965 4.15659 11.3965Z" fill="#080809" style="fill:#080809;fill:color(display-p3 0.0314 0.0314 0.0353);fill-opacity:1;"/>
<path d="M14.4222 6.75C15.3494 6.74895 16.2595 6.99905 17.056 7.47364C17.6778 7.83944 18.2177 8.33019 18.64 8.91504C19.0623 9.49998 19.3585 10.1667 19.5101 10.8721C19.7805 10.7956 20.0602 10.7576 20.3412 10.7588C20.7624 10.7561 21.1799 10.8379 21.5687 11C21.9576 11.1623 22.3103 11.4017 22.6048 11.7031C22.8994 12.0045 23.1303 12.3623 23.2835 12.7549C23.4368 13.1474 23.5098 13.5671 23.4974 13.9883C23.4508 14.8175 23.0854 15.5968 22.4779 16.1631C21.8704 16.7295 21.0672 17.0389 20.2367 17.0273H12.4007C12.2283 17.0257 12.0634 16.9562 11.9417 16.834C11.8201 16.7117 11.7511 16.5465 11.7503 16.374V7.93653C11.7447 7.79189 11.7836 7.64888 11.8607 7.52637C11.9379 7.40386 12.0501 7.30745 12.183 7.25C12.183 7.25 12.9041 6.75 14.4222 6.75Z" fill="#080809" style="fill:#080809;fill:color(display-p3 0.0314 0.0314 0.0353);fill-opacity:1;"/>
<path d="M8.92515 9.21485C8.99097 9.21485 9.05489 9.23923 9.10386 9.28321C9.15274 9.32718 9.18373 9.38776 9.19077 9.45313C9.50565 11.8915 9.50476 14.3607 9.18784 16.7988C9.17815 16.8617 9.14629 16.9195 9.098 16.9609C9.04971 17.0024 8.98781 17.0253 8.92417 17.0254C8.86056 17.0254 8.79867 17.0023 8.75034 16.9609C8.70205 16.9195 8.67021 16.8617 8.6605 16.7988C8.37681 14.3586 8.37681 11.8934 8.6605 9.45313C8.66755 9.3877 8.69845 9.32718 8.74741 9.28321C8.79631 9.23937 8.85947 9.21489 8.92515 9.21485Z" fill="#080809" style="fill:#080809;fill:color(display-p3 0.0314 0.0314 0.0353);fill-opacity:1;"/>
<path d="M10.5189 8.18946C10.5547 8.18946 10.5907 8.19732 10.6234 8.21192C10.656 8.22651 10.6855 8.24784 10.7093 8.27442C10.7331 8.301 10.7512 8.33227 10.7621 8.36621C10.773 8.40019 10.7767 8.43621 10.7728 8.47168C11.009 11.3332 11.1807 13.9436 10.7728 16.7959C10.7659 16.8581 10.7355 16.9152 10.6888 16.957C10.6421 16.9988 10.5816 17.0225 10.5189 17.0225C10.4564 17.0223 10.3965 16.9987 10.35 16.957C10.3033 16.9152 10.2729 16.8581 10.266 16.7959C9.88566 13.9682 10.0513 11.3086 10.266 8.47168C10.2621 8.43621 10.2658 8.4002 10.2767 8.36621C10.2876 8.33227 10.3057 8.30101 10.3294 8.27442C10.3533 8.24783 10.3828 8.22651 10.4154 8.21192C10.4479 8.19739 10.4833 8.18952 10.5189 8.18946Z" fill="#080809" style="fill:#080809;fill:color(display-p3 0.0314 0.0314 0.0353);fill-opacity:1;"/>
<path d="M2.56382 11.1465C2.63042 11.1465 2.69494 11.1713 2.74448 11.2158C2.79388 11.2603 2.82529 11.3216 2.83237 11.3877C3.20039 13.2094 3.08023 14.7522 2.82261 16.5801C2.79186 16.8499 2.32964 16.8529 2.30503 16.5801C2.07194 14.7798 1.96098 13.191 2.29526 11.3877C2.30234 11.3216 2.33375 11.2603 2.38315 11.2158C2.43269 11.1713 2.49721 11.1465 2.56382 11.1465Z" fill="#080809" style="fill:#080809;fill:color(display-p3 0.0314 0.0314 0.0353);fill-opacity:1;"/>
<path d="M0.963232 12.0293C1.02984 12.0293 1.09436 12.0541 1.1439 12.0986C1.19334 12.1431 1.22471 12.2044 1.23179 12.2705C1.61819 13.4788 1.48604 14.4602 1.21616 15.6992C1.20934 15.7607 1.18025 15.8181 1.13413 15.8594C1.08804 15.9005 1.02797 15.9229 0.966162 15.9229C0.904352 15.9228 0.84425 15.9006 0.798193 15.8594C0.752116 15.8181 0.722983 15.7607 0.716162 15.6992C0.483103 14.4848 0.388029 13.4819 0.694678 12.2705C0.701753 12.2044 0.733199 12.1431 0.782568 12.0986C0.832082 12.0541 0.896665 12.0293 0.963232 12.0293Z" fill="#080809" style="fill:#080809;fill:color(display-p3 0.0314 0.0314 0.0353);fill-opacity:1;"/>
</svg>
