<svg width="24" height="24" viewBox="0 0 24 24" fill="none" xmlns="http://www.w3.org/2000/svg">
<path fill-rule="evenodd" clip-rule="evenodd" d="M9.71377 1.75079C11.2866 0.157745 13.9998 1.27147 13.9998 3.51011V7.0128C17.3161 7.14929 19.8199 8.64553 21.4869 10.9097C23.2104 13.2509 23.9998 16.3519 23.9998 19.5026C23.9998 20.4291 23.2447 20.8862 22.7302 21.0034C22.2141 21.1209 21.4078 21.0361 20.9512 20.3334C20.2452 19.247 19.368 18.4332 18.2087 17.8804C17.1357 17.3688 15.7729 17.0581 13.9998 17.0093V20.4902C13.9998 22.7289 11.2866 23.8426 9.71378 22.2496L1.33153 13.7595C0.368656 12.7843 0.368658 11.2162 1.33153 10.2409L9.71377 1.75079ZM11.9998 3.51011C11.9998 3.05944 11.4536 2.83524 11.137 3.15594L2.75475 11.6461C2.56091 11.8424 2.56092 12.1581 2.75475 12.3544L11.137 20.8444C11.4536 21.1651 11.9998 20.9409 11.9998 20.4902V16.0026C11.9998 15.4503 12.4475 15.0026 12.9998 15.0026H13.4998C15.722 15.0026 17.5544 15.3527 19.0695 16.0751C20.2374 16.632 21.1828 17.394 21.9585 18.3303C21.7874 15.9328 21.0866 13.7396 19.8763 12.0955C18.4971 10.2221 16.4189 9.0026 13.4998 9.0026H12.9998C12.4475 9.0026 11.9998 8.55488 11.9998 8.0026V3.51011Z" fill="#080809" style="fill:#080809;fill:color(display-p3 0.0314 0.0314 0.0353);fill-opacity:1;"/>
</svg>
