<svg width="24" height="24" viewBox="0 0 24 24" fill="none" xmlns="http://www.w3.org/2000/svg">
<path fill-rule="evenodd" clip-rule="evenodd" d="M14.5 3C16.3573 3 17.8511 2.99779 19.0225 3.15528C20.2226 3.31664 21.2326 3.66232 22.0352 4.46485C22.8377 5.26737 23.1834 6.27745 23.3447 7.47754C23.5022 8.64892 23.5 10.1427 23.5 12C23.5 13.8573 23.5022 15.3511 23.3447 16.5225C23.1834 17.7226 22.8377 18.7326 22.0352 19.5352C21.2326 20.3377 20.2226 20.6834 19.0225 20.8447C17.8511 21.0022 16.3573 21 14.5 21H9.5C7.64266 21 6.14892 21.0022 4.97754 20.8447C3.77745 20.6834 2.76737 20.3377 1.96485 19.5352C1.16232 18.7326 0.816636 17.7226 0.655275 16.5225C0.497789 15.3511 0.500002 13.8573 0.500002 12C0.500002 10.1427 0.497788 8.64892 0.655275 7.47754C0.816637 6.27745 1.16232 5.26737 1.96485 4.46485C2.76737 3.66232 3.77745 3.31664 4.97754 3.15528C6.14892 2.99779 7.64266 3 9.5 3H14.5ZM10.8057 8.65527C9.02734 7.24825 6.48342 7.51609 5.02637 9.21875L4.88867 9.38867C3.465 11.2343 3.7852 13.8983 5.61328 15.3447L5.77539 15.4678C7.47228 16.6841 9.78494 16.4548 11.2188 14.9717C11.6025 14.5747 11.5921 13.9415 11.1953 13.5576C10.7983 13.1739 10.1651 13.1842 9.78125 13.5811C9.05405 14.3334 7.9014 14.4671 7.02539 13.8994L6.85449 13.7764C5.88946 13.0128 5.71421 11.5935 6.47266 10.6104C7.22533 9.63475 8.607 9.46609 9.56446 10.2236C9.99749 10.5661 10.6261 10.4924 10.9688 10.0596C11.3113 9.62657 11.2385 8.99802 10.8057 8.65527ZM19.3057 8.65527C17.5273 7.24825 14.9834 7.51609 13.5264 9.21875L13.3887 9.38867C11.965 11.2343 12.2852 13.8983 14.1133 15.3447L14.2754 15.4678C15.9723 16.6841 18.2849 16.4548 19.7188 14.9717C20.1025 14.5747 20.0921 13.9415 19.6953 13.5576C19.2983 13.1739 18.6651 13.1842 18.2813 13.5811C17.5541 14.3334 16.4014 14.4671 15.5254 13.8994L15.3545 13.7764C14.3895 13.0128 14.2142 11.5935 14.9727 10.6104C15.7253 9.63475 17.107 9.46609 18.0645 10.2236C18.4975 10.5661 19.1261 10.4924 19.4688 10.0596C19.8113 9.62657 19.7385 8.99802 19.3057 8.65527Z" fill="#080809" style="fill:#080809;fill:color(display-p3 0.0314 0.0314 0.0353);fill-opacity:1;"/>
</svg>
