<svg width="24" height="24" viewBox="0 0 24 24" fill="none" xmlns="http://www.w3.org/2000/svg">
<path d="M20.0039 10C20.5562 10 21.0039 10.4477 21.0039 11C21.0039 15.6335 17.5022 19.4471 13.001 19.9434V21.5H15.001L15.1035 21.5049C15.6076 21.5562 16.001 21.9823 16.001 22.5C16.001 23.0177 15.6076 23.4438 15.1035 23.4951L15.001 23.5H9.00098C8.44869 23.5 8.00098 23.0523 8.00098 22.5C8.00098 21.9477 8.44869 21.5 9.00098 21.5H11.001V19.9424C6.50256 19.4435 3.00391 15.6315 3.00391 11C3.00391 10.4477 3.45162 10 4.00391 10C4.55619 10 5.00391 10.4477 5.00391 11C5.00391 14.866 8.13791 18 12.0039 18C15.8699 18 19.0039 14.866 19.0039 11C19.0039 10.4477 19.4516 10 20.0039 10Z" fill="#080809" style="fill:#080809;fill:color(display-p3 0.0314 0.0314 0.0353);fill-opacity:1;"/>
<path d="M12.001 0.5C14.7624 0.5 17.001 2.73858 17.001 5.5V11C17.001 13.7614 14.7624 16 12.001 16C9.23955 16 7.00098 13.7614 7.00098 11V5.5C7.00098 2.73858 9.23955 0.5 12.001 0.5Z" fill="#080809" style="fill:#080809;fill:color(display-p3 0.0314 0.0314 0.0353);fill-opacity:1;"/>
</svg>
