<svg width="24" height="24" viewBox="0 0 24 24" fill="none" xmlns="http://www.w3.org/2000/svg">
<g clip-path="url(#clip0_29901_28457)">
<path fill-rule="evenodd" clip-rule="evenodd" d="M0.5 12C0.5 5.64873 5.64873 0.5 12 0.5C18.3513 0.5 23.5 5.64873 23.5 12C23.5 18.3513 18.3513 23.5 12 23.5C5.64873 23.5 0.5 18.3513 0.5 12ZM10.9329 6.09473C9.1052 6.4228 7.5647 7.5786 6.71329 9.16029L8.33321 9.58158C9.55255 9.89869 10.7578 9.023 10.833 7.76535L10.9329 6.09473ZM6.05417 11.1904C6.01845 11.4553 6 11.7255 6 12.0001C6 13.6101 6.63411 15.072 7.66621 16.1496L8.56673 14.7403C9.24511 13.6787 8.78473 12.2618 7.61188 11.8016L6.05417 11.1904ZM9.3923 17.4053C10.1808 17.7865 11.0655 18.0001 12 18.0001C12.9346 18.0001 13.8193 17.7864 14.6079 17.4052L13.5451 16.1124C12.7451 15.1391 11.2553 15.1391 10.4552 16.1124L9.3923 17.4053ZM16.334 16.1494C17.366 15.0718 18 13.61 18 12.0001C18 11.7256 17.9816 11.4553 17.9459 11.1906L16.3885 11.8016C15.2156 12.2618 14.7552 13.6787 15.4336 14.7403L16.334 16.1494ZM17.2868 9.16037C16.4354 7.57874 14.895 6.42295 13.0674 6.09479L13.1673 7.76535C13.2425 9.023 14.4478 9.89869 15.6671 9.58158L17.2868 9.16037ZM10.189 11.4118C10.9036 11.1537 11.534 10.6958 12.0002 10.0959C12.4664 10.6958 13.0967 11.1538 13.8113 11.4118C13.3849 12.0405 13.1441 12.7815 13.1195 13.5409C12.3897 13.3296 11.6106 13.3296 10.8808 13.5409C10.8563 12.7815 10.6155 12.0405 10.189 11.4118Z" fill="#080809" style="fill:#080809;fill:color(display-p3 0.0314 0.0314 0.0353);fill-opacity:1;"/>
</g>
<defs>
<clipPath id="clip0_29901_28457">
<rect width="24" height="24" fill="white" style="fill:white;fill-opacity:1;"/>
</clipPath>
</defs>
</svg>
