<svg width="24" height="24" viewBox="0 0 24 24" fill="none" xmlns="http://www.w3.org/2000/svg">
<path d="M12.9961 7.13176C12.6866 6.9549 12.3064 6.95617 11.9981 7.13509C11.6898 7.31401 11.5 7.64353 11.5 8V12C11.5 12.3565 11.6898 12.686 11.9981 12.8649C12.3064 13.0438 12.6866 13.0451 12.9961 12.8682L16.4961 10.8682C16.8077 10.6902 17 10.3589 17 10C17 9.64114 16.8077 9.3098 16.4961 9.13176L12.9961 7.13176Z" fill="#080809" style="fill:#080809;fill:color(display-p3 0.0314 0.0314 0.0353);fill-opacity:1;"/>
<path fill-rule="evenodd" clip-rule="evenodd" d="M15.0706 0.500001H12.9294C11.5753 0.499967 10.4587 0.499939 9.57494 0.618755C8.64711 0.743499 7.82769 1.01547 7.17158 1.67158C6.51547 2.32768 6.2435 3.14711 6.11876 4.07494C5.99994 4.9587 5.99997 6.07531 6 7.42942L6 13.0706C5.99997 14.4247 5.99994 15.5413 6.11876 16.4251C6.2435 17.3529 6.51547 18.1723 7.17158 18.8284C7.82768 19.4845 8.64711 19.7565 9.57494 19.8813C10.4587 20.0001 11.5753 20 12.9294 20H15.0705C16.4246 20 17.5413 20.0001 18.4251 19.8813C19.3529 19.7565 20.1723 19.4845 20.8284 18.8284C21.4845 18.1723 21.7565 17.3529 21.8813 16.4251C22.0001 15.5413 22 14.4247 22 13.0707V7.42943C22 6.07531 22.0001 4.9587 21.8813 4.07494C21.7565 3.14711 21.4845 2.32769 20.8284 1.67158C20.1723 1.01547 19.3529 0.7435 18.4251 0.618756C17.5413 0.499939 16.4247 0.499967 15.0706 0.500001ZM8.58579 3.08579C8.80836 2.86322 9.13538 2.69585 9.84144 2.60092C10.5763 2.50213 11.5575 2.5 13 2.5L15 2.5C16.4425 2.5 17.4238 2.50213 18.1586 2.60092C18.8646 2.69585 19.1916 2.86322 19.4142 3.08579C19.6368 3.30836 19.8042 3.63538 19.8991 4.34144C19.9979 5.07626 20 6.05752 20 7.5L20 13C20 14.4425 19.9979 15.4238 19.8991 16.1586C19.8042 16.8646 19.6368 17.1916 19.4142 17.4142C19.1916 17.6368 18.8646 17.8042 18.1586 17.8991C17.4238 17.9979 16.4425 18 15 18H13C11.5575 18 10.5763 17.9979 9.84143 17.8991C9.13538 17.8042 8.80836 17.6368 8.58579 17.4142C8.36322 17.1916 8.19585 16.8646 8.10092 16.1586C8.00213 15.4238 8 14.4425 8 13L8 7.5C8 6.05752 8.00213 5.07626 8.10092 4.34144C8.19585 3.63538 8.36322 3.30836 8.58579 3.08579Z" fill="#080809" style="fill:#080809;fill:color(display-p3 0.0314 0.0314 0.0353);fill-opacity:1;"/>
<path d="M4.5 7C4.5 6.44772 4.05229 6 3.5 6C2.94772 6 2.5 6.44772 2.5 7L2.5 16.5706C2.49997 17.9247 2.49994 19.0413 2.61876 19.9251C2.7435 20.8529 3.01547 21.6723 3.67158 22.3284C4.32768 22.9845 5.14711 23.2565 6.07494 23.3813C6.95869 23.5001 8.07529 23.5 9.42939 23.5H16C16.5523 23.5 17 23.0523 17 22.5C17 21.9477 16.5523 21.5 16 21.5H9.5C8.05752 21.5 7.07626 21.4979 6.34144 21.3991C5.63538 21.3042 5.30836 21.1368 5.08579 20.9142C4.86322 20.6916 4.69585 20.3646 4.60092 19.6586C4.50213 18.9237 4.5 17.9425 4.5 16.5L4.5 7Z" fill="#080809" style="fill:#080809;fill:color(display-p3 0.0314 0.0314 0.0353);fill-opacity:1;"/>
</svg>
