<svg width="24" height="24" viewBox="0 0 24 24" fill="none" xmlns="http://www.w3.org/2000/svg">
<path d="M10.2929 8.70711C10.6834 9.09763 11.3166 9.09763 11.7071 8.7071L13.6465 6.76775C14.6228 5.79144 14.6228 4.20853 13.6464 3.23222L11.7071 1.29289C11.3166 0.902368 10.6834 0.90237 10.2929 1.2929C9.90237 1.68342 9.90237 2.31659 10.2929 2.70711L11.5907 4.00492C8.68011 4.07496 6.01352 4.88964 4.02068 6.2182C1.94177 7.60414 0.5 9.62862 0.5 12C0.5 14.9227 2.67163 17.3004 5.57834 18.6521C6.07913 18.8849 6.67388 18.6678 6.90676 18.167C7.13963 17.6662 6.92244 17.0714 6.42166 16.8386C3.88792 15.6603 2.5 13.8348 2.5 12C2.5 10.5054 3.40874 9.02987 5.13008 7.8823C6.75597 6.79838 9.02192 6.07738 11.5799 6.00586L10.2929 7.2929C9.90237 7.68342 9.90237 8.31659 10.2929 8.70711Z" fill="#080809" style="fill:#080809;fill:color(display-p3 0.0314 0.0314 0.0353);fill-opacity:1;"/>
<path d="M13.7071 22.7071C13.3166 23.0976 12.6834 23.0976 12.2929 22.7071L10.3535 20.7677C9.37724 19.7914 9.37724 18.2085 10.3536 17.2322L12.2929 15.2929C12.6834 14.9024 13.3166 14.9024 13.7071 15.2929C14.0976 15.6834 14.0976 16.3166 13.7071 16.7071L12.4201 17.9941C14.9781 17.9226 17.244 17.2016 18.8699 16.1177C20.5913 14.9701 21.5 13.4946 21.5 12C21.5 10.1652 20.1121 8.33967 17.5783 7.16145C17.0776 6.92857 16.8604 6.33382 17.0932 5.83303C17.3261 5.33225 17.9209 5.11506 18.4217 5.34793C21.3284 6.6996 23.5 9.07733 23.5 12C23.5 14.3714 22.0582 16.3959 19.9793 17.7818C17.9865 19.1104 15.3199 19.925 12.4093 19.9951L13.7071 21.2929C14.0976 21.6834 14.0976 22.3166 13.7071 22.7071Z" fill="#080809" style="fill:#080809;fill:color(display-p3 0.0314 0.0314 0.0353);fill-opacity:1;"/>
</svg>
