<svg width="24" height="24" viewBox="0 0 24 24" fill="none" xmlns="http://www.w3.org/2000/svg">
<g clip-path="url(#clip0_29901_26602)">
<path d="M13.7929 5.29289C13.4024 5.68342 13.4024 6.31658 13.7929 6.70711L14.5858 7.50002L7.49954 7.5C6.94726 7.5 6.49954 7.94771 6.49954 8.5C6.49954 9.05228 6.94725 9.5 7.49953 9.5L14.5858 9.50002L13.7929 10.2929C13.4024 10.6834 13.4024 11.3166 13.7929 11.7071C14.1834 12.0976 14.8166 12.0976 15.2071 11.7071L16.6464 10.2678C17.6228 9.29145 17.6228 7.70854 16.6464 6.73223L15.2071 5.29289C14.8166 4.90237 14.1834 4.90237 13.7929 5.29289Z" fill="#080809" style="fill:#080809;fill:color(display-p3 0.0314 0.0314 0.0353);fill-opacity:1;"/>
<path d="M10.2071 13.7071C10.5976 13.3166 10.5976 12.6834 10.2071 12.2929C9.81658 11.9024 9.18342 11.9024 8.79289 12.2929L7.35355 13.7322C6.37724 14.7085 6.37724 16.2915 7.35355 17.2678L8.79289 18.7071C9.18342 19.0976 9.81658 19.0976 10.2071 18.7071C10.5976 18.3166 10.5976 17.6834 10.2071 17.2929L9.41421 16.5H16.4998C17.052 16.5 17.4998 16.0523 17.4998 15.5C17.4998 14.9477 17.052 14.5 16.4998 14.5H9.41421L10.2071 13.7071Z" fill="#080809" style="fill:#080809;fill:color(display-p3 0.0314 0.0314 0.0353);fill-opacity:1;"/>
<path fill-rule="evenodd" clip-rule="evenodd" d="M0.5 12C0.5 5.64873 5.64873 0.5 12 0.5C18.3513 0.5 23.5 5.64873 23.5 12C23.5 18.3513 18.3513 23.5 12 23.5C5.64873 23.5 0.5 18.3513 0.5 12ZM12 2.5C6.75329 2.5 2.5 6.7533 2.5 12C2.5 17.2467 6.7533 21.5 12 21.5C17.2467 21.5 21.5 17.2467 21.5 12C21.5 6.75329 17.2467 2.5 12 2.5Z" fill="#080809" style="fill:#080809;fill:color(display-p3 0.0314 0.0314 0.0353);fill-opacity:1;"/>
</g>
<defs>
<clipPath id="clip0_29901_26602">
<rect width="24" height="24" fill="white" style="fill:white;fill-opacity:1;"/>
</clipPath>
</defs>
</svg>
