<svg width="24" height="24" viewBox="0 0 24 24" fill="none" xmlns="http://www.w3.org/2000/svg">
<path fill-rule="evenodd" clip-rule="evenodd" d="M4.5812 1C3.20109 1 1.98439 1.90527 1.58782 3.22717L0.772052 5.94639C0.59165 6.54773 0.5 7.17218 0.5 7.8C0.5 9.22466 1.07294 10.5156 2.001 11.455C2.00034 11.4699 2 11.4849 2 11.5L2 16.0706C1.99997 17.4247 1.99994 18.5413 2.11875 19.4251C2.2435 20.3529 2.51547 21.1723 3.17158 21.8284C3.82768 22.4845 4.64711 22.7565 5.57494 22.8812C6.4587 23.0001 7.57531 23 8.92943 23L13 23C13.5523 23 14 22.5523 14 22C14 21.4477 13.5523 21 13 21H12V17C12 15.8954 11.1046 15 10 15H8C6.89543 15 6 15.8954 6 17V20.9185C5.94588 20.9125 5.89305 20.906 5.84143 20.8991C5.13538 20.8042 4.80836 20.6368 4.58579 20.4142C4.36322 20.1916 4.19585 19.8646 4.10092 19.1586C4.00213 18.4237 4 17.4425 4 16V12.7161C4.5327 12.9003 5.10466 13.0004 5.7 13.0004C6.88407 13.0004 7.97625 12.6039 8.85 11.9379C9.72375 12.6039 10.8159 13.0004 12 13.0004C13.1841 13.0004 14.2762 12.6039 15.15 11.9379C16.0238 12.6039 17.1159 13.0004 18.3 13.0004C21.1719 13.0004 23.5 10.6723 23.5 7.80039C23.5 7.17232 23.4083 6.5476 23.2278 5.94602L22.4122 3.22717C22.0156 1.90527 20.7989 1 19.4188 1H4.5812ZM10 17V21H9C8.63889 21 8.30667 20.9999 8 20.9981V17H10ZM3.50347 3.80186C3.64625 3.32593 4.08431 3 4.5812 3H19.4188C19.9157 3 20.3537 3.32593 20.4965 3.80186L21.3122 6.52071C21.4367 6.93586 21.5 7.36696 21.5 7.80039C21.5 9.5677 20.0673 11.0004 18.3 11.0004C17.3444 11.0004 16.4876 10.5828 15.8997 9.91677C15.7099 9.7017 15.4369 9.5785 15.15 9.5785C14.8631 9.5785 14.5901 9.7017 14.4003 9.91677C13.8124 10.5828 12.9556 11.0004 12 11.0004C11.0444 11.0004 10.1876 10.5828 9.59974 9.91677C9.40991 9.7017 9.13686 9.5785 8.85 9.5785C8.56314 9.5785 8.29009 9.7017 8.10026 9.91677C7.51244 10.5828 6.65561 11.0004 5.7 11.0004C3.93281 11.0004 2.5 9.56743 2.5 7.8C2.5 7.36683 2.56323 6.93599 2.6877 6.52109L3.50347 3.80186Z" fill="#080809" style="fill:#080809;fill:color(display-p3 0.0314 0.0314 0.0353);fill-opacity:1;"/>
<path d="M20.002 14.5C18.8974 14.5 18.002 15.3954 18.002 16.5C18.002 17.6046 18.8974 18.5 20.002 18.5C21.1065 18.5 22.002 17.6046 22.002 16.5C22.002 15.3954 21.1065 14.5 20.002 14.5Z" fill="#080809" style="fill:#080809;fill:color(display-p3 0.0314 0.0314 0.0353);fill-opacity:1;"/>
<path d="M16.502 22C16.502 20.6193 17.6212 19.5 19.002 19.5H21.002C22.3827 19.5 23.502 20.6193 23.502 22V22.25C23.502 22.9404 22.9423 23.5 22.252 23.5H17.752C17.0616 23.5 16.502 22.9404 16.502 22.25V22Z" fill="#080809" style="fill:#080809;fill:color(display-p3 0.0314 0.0314 0.0353);fill-opacity:1;"/>
</svg>
