<svg width="24" height="24" viewBox="0 0 24 24" fill="none" xmlns="http://www.w3.org/2000/svg">
<path fill-rule="evenodd" clip-rule="evenodd" d="M12 6.5C8.9625 6.5 6.5 8.9625 6.5 12C6.5 15.0375 8.9625 17.5 12 17.5C15.0375 17.5 17.5 15.0375 17.5 12C17.5 8.9625 15.0375 6.5 12 6.5ZM12 15.5C10.067 15.5 8.5 13.933 8.5 12C8.5 10.067 10.067 8.5 12 8.5C13.933 8.5 15.5 10.067 15.5 12C15.5 13.933 13.933 15.5 12 15.5Z" fill="#080809" style="fill:#080809;fill:color(display-p3 0.0314 0.0314 0.0353);fill-opacity:1;"/>
<path d="M19 6.25C19 6.94036 18.4404 7.5 17.75 7.5C17.0596 7.5 16.5 6.94036 16.5 6.25C16.5 5.55964 17.0596 5 17.75 5C18.4404 5 19 5.55964 19 6.25Z" fill="#080809" style="fill:#080809;fill:color(display-p3 0.0314 0.0314 0.0353);fill-opacity:1;"/>
<path fill-rule="evenodd" clip-rule="evenodd" d="M11.9995 1C9.01202 1 8.63752 1.0125 7.46402 1.066C6.29302 1.1195 5.49352 1.3055 4.79402 1.5775C4.07052 1.8585 3.45702 2.2345 2.84552 2.8465C2.23402 3.458 1.85802 4.0715 1.57652 4.795C1.30452 5.4945 1.11852 6.2945 1.06502 7.465C1.01152 8.6385 0.999023 9.013 0.999023 12.0005C0.999023 14.988 1.01152 15.3625 1.06502 16.536C1.11852 17.707 1.30452 18.5065 1.57652 19.206C1.85752 19.9295 2.23352 20.543 2.84552 21.1545C3.45702 21.766 4.07052 22.142 4.79402 22.4235C5.49352 22.6955 6.29352 22.8815 7.46402 22.935C8.63752 22.9885 9.01202 23.001 11.9995 23.001C14.987 23.001 15.3615 22.9885 16.535 22.935C17.706 22.8815 18.5055 22.6955 19.205 22.4235C19.9285 22.1425 20.542 21.7665 21.1535 21.1545C21.765 20.543 22.141 19.9295 22.4225 19.206C22.6945 18.5065 22.8805 17.7065 22.934 16.536C22.9875 15.3625 23 14.988 23 12.0005C23 9.013 22.9875 8.6385 22.934 7.465C22.8805 6.294 22.6945 5.4945 22.4225 4.795C22.1415 4.0715 21.7655 3.458 21.1535 2.8465C20.542 2.235 19.9285 1.859 19.205 1.5775C18.5055 1.3055 17.7055 1.1195 16.535 1.066C15.3615 1.0125 14.987 1 11.9995 1ZM11.9995 3C14.931 3 15.278 3.011 16.4355 3.064C17.506 3.113 18.087 3.2915 18.474 3.442C18.9865 3.641 19.352 3.879 19.7365 4.263C20.1205 4.647 20.3585 5.013 20.5575 5.5255C20.708 5.9125 20.8865 6.4935 20.9355 7.564C20.9885 8.7215 20.9995 9.069 20.9995 12C20.9995 14.931 20.9885 15.2785 20.9355 16.436C20.8865 17.5065 20.708 18.0875 20.5575 18.4745C20.3585 18.987 20.1205 19.3525 19.7365 19.737C19.3525 20.1215 18.9865 20.359 18.474 20.558C18.087 20.7085 17.506 20.887 16.4355 20.936C15.278 20.989 14.931 21 11.9995 21C9.06802 21 8.72102 20.989 7.56352 20.936C6.49302 20.887 5.91202 20.7085 5.52502 20.558C5.01252 20.359 4.64702 20.121 4.26252 19.737C3.87852 19.353 3.64052 18.987 3.44152 18.4745C3.29102 18.0875 3.11252 17.5065 3.06352 16.436C3.01052 15.2785 2.99952 14.931 2.99952 12C2.99952 9.069 3.01052 8.7215 3.06352 7.564C3.11252 6.4935 3.29102 5.9125 3.44152 5.5255C3.64052 5.013 3.87852 4.6475 4.26252 4.263C4.64652 3.8785 5.01252 3.641 5.52502 3.442C5.91202 3.2915 6.49302 3.113 7.56352 3.064C8.72102 3.011 9.06852 3 11.9995 3Z" fill="#080809" style="fill:#080809;fill:color(display-p3 0.0314 0.0314 0.0353);fill-opacity:1;"/>
</svg>
