<svg width="24" height="24" viewBox="0 0 24 24" fill="none" xmlns="http://www.w3.org/2000/svg">
<path fill-rule="evenodd" clip-rule="evenodd" d="M10.9609 1.5H13.0383C14.3914 1.49998 15.492 1.49996 16.3823 1.60218C17.3114 1.70883 18.1134 1.93555 18.8296 2.4565C19.5458 2.97745 20.0085 3.67062 20.3961 4.52167C20.7676 5.33732 21.1066 6.38437 21.5233 7.67171L22.1843 9.71351C22.5995 10.9958 22.9372 12.0389 23.1138 12.9144C23.2981 13.8279 23.3299 14.6579 23.0574 15.4975C22.7849 16.337 22.2717 16.9902 21.5861 17.6214C20.929 18.2263 20.0431 18.8722 18.9541 19.6664L17.2544 20.9058C16.1585 21.705 15.2672 22.3549 14.4857 22.7978C13.6704 23.2599 12.8871 23.5495 11.9996 23.5495C11.1121 23.5495 10.3288 23.2599 9.51345 22.7978C8.73202 22.3549 7.84074 21.705 6.74485 20.9058L5.04511 19.6664C3.95604 18.8722 3.07016 18.2263 2.41307 17.6214C1.72744 16.9902 1.21426 16.337 0.941784 15.4975C0.669307 14.6579 0.701124 13.8279 0.885417 12.9144C1.06204 12.0389 1.39973 10.9958 1.81488 9.7135L2.47589 7.67166C2.89261 6.38434 3.23156 5.33731 3.60304 4.52167C3.99065 3.67062 4.45336 2.97745 5.16957 2.4565C5.88579 1.93555 6.68778 1.70883 7.61684 1.60218C8.50724 1.49996 9.6078 1.49998 10.9609 1.5ZM11.9999 9.26373C11.9999 9.26373 12.1188 9.07326 12.4759 8.71612C12.9521 8.23995 13.6906 7.9847 14.3809 8.00071C15.8478 8.03474 17.0221 9.26196 16.9997 10.7399C16.9665 13.0587 14.639 14.9679 12.4971 16.2771C12.1916 16.4638 11.8082 16.4638 11.5027 16.2771C9.36058 14.968 7.0335 13.0598 7.00031 10.7399C6.97794 9.26192 8.15196 8.03474 9.61895 8.00071C10.3092 7.9847 11.0474 8.23995 11.5236 8.71612C11.8807 9.07326 11.9999 9.26373 11.9999 9.26373Z" fill="#080809" style="fill:#080809;fill:color(display-p3 0.0314 0.0314 0.0353);fill-opacity:1;"/>
</svg>
