<svg width="24" height="24" viewBox="0 0 24 24" fill="none" xmlns="http://www.w3.org/2000/svg">
<path d="M7 15.0003C5.89543 15.0003 5 15.8957 5 17.0003C5 18.1049 5.89543 19.0003 7 19.0003C8.10457 19.0003 9 18.1049 9 17.0003C9 15.8957 8.10457 15.0003 7 15.0003Z" fill="#080809" style="fill:#080809;fill:color(display-p3 0.0314 0.0314 0.0353);fill-opacity:1;"/>
<path fill-rule="evenodd" clip-rule="evenodd" d="M2.84314 21.1572C5.96734 24.2814 11.0327 24.2814 14.1569 21.1572C16.3014 19.0126 16.9726 15.9548 16.1752 13.2393L17.2071 12.2074C17.3946 12.0199 17.5 11.7655 17.5 11.5003V10.5003H18.5C18.7652 10.5003 19.0196 10.3949 19.2071 10.2074L19.7071 9.70741C19.8946 9.51988 20 9.26552 20 9.00031V8.00031H21C21.2652 8.00031 21.5196 7.89495 21.7071 7.70741L22.4142 7.00031C22.7893 6.62523 23 6.11652 23 5.58609V2.97949C23 1.87492 22.1046 0.979492 21 0.979492H18.415C17.8836 0.979492 17.3741 1.19092 16.9989 1.56712L10.758 7.82424C8.04326 7.02818 4.98692 7.69968 2.84314 9.84345C-0.281048 12.9676 -0.281048 18.033 2.84314 21.1572ZM12.7426 19.7429C10.3995 22.0861 6.60051 22.0861 4.25736 19.7429C1.91421 17.3998 1.91421 13.6008 4.25736 11.2577C5.9889 9.52613 8.51708 9.07271 10.6667 9.9033C11.0363 10.0461 11.4553 9.95723 11.7351 9.6767L18.415 2.97949H21V5.58609L20.5858 6.00031H19C18.4477 6.00031 18 6.44802 18 7.00031V8.50031H16.5C15.9477 8.50031 15.5 8.94802 15.5 9.50031V11.0861L14.3219 12.2641C14.042 12.5441 13.9536 12.9627 14.0964 13.332C14.9278 15.4819 14.4746 18.011 12.7426 19.7429Z" fill="#080809" style="fill:#080809;fill:color(display-p3 0.0314 0.0314 0.0353);fill-opacity:1;"/>
</svg>
