<svg width="24" height="24" viewBox="0 0 24 24" fill="none" xmlns="http://www.w3.org/2000/svg">
<path fill-rule="evenodd" clip-rule="evenodd" d="M8.72023 1.79775C9.01296 1.01715 9.7592 0.5 10.5929 0.5H13.4069C14.2406 0.5 14.9868 1.01715 15.2795 1.79775L15.7798 3.13171C16.1048 3.99839 16.982 4.52882 17.9005 4.41402L19.1376 4.25938C19.8893 4.16542 20.6295 4.50422 21.0498 5.13453L22.4241 7.19601C22.885 7.88738 22.8704 8.79173 22.3874 9.46789L21.4091 10.8375C20.9124 11.5329 20.9124 12.4671 21.4091 13.1625L22.3874 14.5321C22.8704 15.2083 22.885 16.1126 22.4241 16.804L21.0498 18.8655C20.6295 19.4958 19.8893 19.8346 19.1376 19.7406L17.9005 19.586C16.982 19.4712 16.1048 20.0016 15.7798 20.8683L15.2795 22.2022C14.9868 22.9829 14.2406 23.5 13.4069 23.5H10.5929C9.7592 23.5 9.01296 22.9829 8.72023 22.2022L8.24651 20.939C7.91345 20.0508 7.0023 19.5188 6.0651 19.6652L4.92409 19.8435C4.14039 19.966 3.35838 19.6137 2.9308 18.9456L1.54729 16.7839C1.10673 16.0955 1.12933 15.2083 1.60436 14.5433L2.56772 13.1946C3.07184 12.4888 3.06362 11.5386 2.54737 10.8416L1.62385 9.59488C1.13754 8.93836 1.09945 8.05204 1.52764 7.35623L2.92454 5.08628C3.34698 4.3998 4.14023 4.03401 4.93661 4.15845L6.0651 4.33477C7.0023 4.48121 7.91345 3.94917 8.24651 3.061L8.72023 1.79775ZM13.4069 2.5L10.5929 2.5L10.1192 3.76324C9.45304 5.53959 7.63074 6.60367 5.75635 6.3108L4.62785 6.13447L3.23096 8.40442L4.15448 9.65118C5.18698 11.045 5.20341 12.9455 4.19519 14.357L3.23183 15.7057L4.61534 17.8675L5.75635 17.6892C7.63074 17.3963 9.45304 18.4604 10.1192 20.2368L10.5929 21.5H13.4069L13.9071 20.166C14.5571 18.4327 16.3116 17.3718 18.1486 17.6014L19.3857 17.7561L20.76 15.6946L19.7817 14.325C18.7882 12.9342 18.7882 11.0658 19.7817 9.67505L20.76 8.30541L19.3857 6.24394L18.1486 6.39857C16.3116 6.62819 14.5571 5.56732 13.9071 3.83395L13.4069 2.5ZM11.9999 9C10.343 9 8.99989 10.3431 8.99989 12C8.99989 13.6569 10.343 15 11.9999 15C13.6567 15 14.9999 13.6569 14.9999 12C14.9999 10.3431 13.6567 9 11.9999 9ZM6.99989 12C6.99989 9.23858 9.23847 7 11.9999 7C14.7613 7 16.9999 9.23858 16.9999 12C16.9999 14.7614 14.7613 17 11.9999 17C9.23847 17 6.99989 14.7614 6.99989 12Z" fill="#080809" style="fill:#080809;fill:color(display-p3 0.0314 0.0314 0.0353);fill-opacity:1;"/>
</svg>
