<svg width="24" height="24" viewBox="0 0 24 24" fill="none" xmlns="http://www.w3.org/2000/svg">
<path d="M12 0.5C12.6245 0.5 13.2383 0.550328 13.8369 0.646484C14.382 0.73422 14.7526 1.2468 14.665 1.79199C14.5774 2.3372 14.0648 2.70861 13.5195 2.62109C13.0254 2.54172 12.5178 2.5 12 2.5C6.75329 2.5 2.5 6.75329 2.5 12C2.5 17.2467 6.75329 21.5 12 21.5C17.2467 21.5 21.5 17.2467 21.5 12C21.5 11.4822 21.4583 10.9746 21.3789 10.4805C21.2915 9.93529 21.6628 9.42258 22.208 9.33496C22.7532 9.24741 23.2657 9.61804 23.3535 10.1631C23.4497 10.7617 23.5 11.3756 23.5 12C23.5 15.9473 21.5106 19.429 18.4805 21.5H22.5C23.0523 21.5 23.5 21.9477 23.5 22.5C23.5 23.0523 23.0523 23.5 22.5 23.5H12C5.64873 23.5 0.5 18.3513 0.5 12C0.5 5.64873 5.64873 0.5 12 0.5Z" fill="#080809" style="fill:#080809;fill:color(display-p3 0.0314 0.0314 0.0353);fill-opacity:1;"/>
<path d="M12 14.5C13.1046 14.5 14 15.3954 14 16.5C14 17.6046 13.1046 18.5 12 18.5C10.8954 18.5 10 17.6046 10 16.5C10 15.3954 10.8954 14.5 12 14.5Z" fill="#080809" style="fill:#080809;fill:color(display-p3 0.0314 0.0314 0.0353);fill-opacity:1;"/>
<path d="M7.5 10C8.60457 10 9.5 10.8954 9.5 12C9.5 13.1046 8.60457 14 7.5 14C6.39543 14 5.5 13.1046 5.5 12C5.5 10.8954 6.39543 10 7.5 10Z" fill="#080809" style="fill:#080809;fill:color(display-p3 0.0314 0.0314 0.0353);fill-opacity:1;"/>
<path d="M16.5 10C17.6046 10 18.5 10.8954 18.5 12C18.5 13.1046 17.6046 14 16.5 14C15.3954 14 14.5 13.1046 14.5 12C14.5 10.8954 15.3954 10 16.5 10Z" fill="#080809" style="fill:#080809;fill:color(display-p3 0.0314 0.0314 0.0353);fill-opacity:1;"/>
<path d="M12 5.5C13.1046 5.5 14 6.39543 14 7.5C14 8.60457 13.1046 9.5 12 9.5C10.8954 9.5 10 8.60457 10 7.5C10 6.39543 10.8954 5.5 12 5.5Z" fill="#080809" style="fill:#080809;fill:color(display-p3 0.0314 0.0314 0.0353);fill-opacity:1;"/>
<path d="M18.5508 1.10449C18.9271 0.298602 20.0729 0.29856 20.4492 1.10449L20.6641 1.56445C21.0283 2.34461 21.6554 2.97171 22.4355 3.33594L22.8955 3.55078C23.7014 3.92711 23.7013 5.07287 22.8955 5.44922L22.4355 5.66406C21.6552 6.02836 21.0283 6.65613 20.6641 7.43652L20.4492 7.89551C20.0729 8.70152 18.9271 8.70147 18.5508 7.89551L18.3359 7.43652C17.9717 6.656 17.344 6.02833 16.5635 5.66406L16.1045 5.44922C15.2985 5.07292 15.2984 3.92706 16.1045 3.55078L16.5635 3.33594C17.3439 2.97173 17.9716 2.34478 18.3359 1.56445L18.5508 1.10449Z" fill="#080809" style="fill:#080809;fill:color(display-p3 0.0314 0.0314 0.0353);fill-opacity:1;"/>
</svg>
