<svg width="24" height="24" viewBox="0 0 24 24" fill="none" xmlns="http://www.w3.org/2000/svg">
<path d="M15.5002 2.58579C16.2812 3.36683 16.2812 4.63316 15.5002 5.41421L13.7073 7.20711C13.3167 7.59763 12.6836 7.59763 12.293 7.20711C11.9025 6.81658 11.9025 6.18342 12.293 5.79289L13.0859 5H11C9.08616 5 7.75134 5.00213 6.74421 5.13753C5.76584 5.26907 5.24775 5.50966 4.87873 5.87868C4.54256 6.21485 4.31455 6.67302 4.17697 7.48387C4.03445 8.32381 4.00557 9.43239 4.00097 11.0029C3.99936 11.5552 3.55033 12.0016 2.99805 12C2.44577 11.9984 1.99936 11.5494 2.00098 10.9971C2.0055 9.45331 2.0304 8.17922 2.20515 7.1493C2.38484 6.09029 2.73759 5.19139 3.46451 4.46447C4.26707 3.66191 5.27757 3.31672 6.47771 3.15537C7.63367 2.99995 9.10343 2.99997 10.9269 3L13.0859 3L12.293 2.20711C11.9025 1.81658 11.9025 1.18342 12.293 0.792893C12.6836 0.402369 13.3167 0.402369 13.7073 0.792893L15.5002 2.58579Z" fill="#080809" style="fill:#080809;fill:color(display-p3 0.0314 0.0314 0.0353);fill-opacity:1;"/>
<path d="M2.99985 18.5858C2.2188 19.3668 2.2188 20.6332 2.99985 21.4142L4.79274 23.2071C5.18327 23.5976 5.81643 23.5976 6.20696 23.2071C6.59748 22.8166 6.59748 22.1834 6.20696 21.7929L5.41406 21H13.0732C14.8967 21 16.3664 21.0001 17.5224 20.8446C18.7225 20.6833 19.733 20.3381 20.5356 19.5355C21.2625 18.8086 21.6153 17.9097 21.7949 16.8507C21.9697 15.8208 21.9946 14.5467 21.9991 13.0029C22.0007 12.4506 21.5543 12.0016 21.002 12C20.4498 11.9984 20.0007 12.4448 19.9991 12.9971C19.9945 14.5676 19.9656 15.6762 19.8231 16.5161C19.6855 17.327 19.4575 17.7851 19.1214 18.1213C18.7523 18.4903 18.2343 18.7309 17.2559 18.8625C16.2488 18.9979 14.9139 19 13 19H5.41406L6.20696 18.2071C6.59748 17.8166 6.59748 17.1834 6.20696 16.7929C5.81643 16.4024 5.18327 16.4024 4.79274 16.7929L2.99985 18.5858Z" fill="#080809" style="fill:#080809;fill:color(display-p3 0.0314 0.0314 0.0353);fill-opacity:1;"/>
<path d="M19.5 1.5C18.9477 1.5 18.5 1.94772 18.5 2.5C18.5 3.05228 18.9477 3.5 19.5 3.5H20V8.5C20 9.05228 20.4477 9.5 21 9.5C21.5523 9.5 22 9.05228 22 8.5V3C22 2.17157 21.3284 1.5 20.5 1.5H19.5Z" fill="#080809" style="fill:#080809;fill:color(display-p3 0.0314 0.0314 0.0353);fill-opacity:1;"/>
</svg>
