<svg width="24" height="24" viewBox="0 0 24 24" fill="none" xmlns="http://www.w3.org/2000/svg">
<path d="M5 3L4 3C3.44772 3 3 3.44772 3 4V5C3 5.55228 2.55228 6 2 6C1.44772 6 1 5.55228 1 5V4C1 2.34315 2.34315 1 4 1H5C5.55228 1 6 1.44771 6 2C6 2.55228 5.55229 3 5 3Z" fill="#080809" style="fill:#080809;fill:color(display-p3 0.0314 0.0314 0.0353);fill-opacity:1;"/>
<path d="M10 3H9C8.44772 3 8 2.55228 8 2C8 1.44772 8.44772 1 9 1H10C11.6569 1 13 2.34314 13 4V5C13 5.55228 12.5523 6 12 6C11.4477 6 11 5.55228 11 5V4C11 3.44771 10.5523 3 10 3Z" fill="#080809" style="fill:#080809;fill:color(display-p3 0.0314 0.0314 0.0353);fill-opacity:1;"/>
<path d="M11 11H3V9C3 8.44772 2.55228 8 2 8C1.44772 8 1 8.44772 1 9V20C1 21.6569 2.34315 23 4 23H20C21.6569 23 23 21.6569 23 20V14C23 12.3431 21.6569 11 20 11H13V9C13 8.44772 12.5523 8 12 8C11.4477 8 11 8.44772 11 9V11Z" fill="#080809" style="fill:#080809;fill:color(display-p3 0.0314 0.0314 0.0353);fill-opacity:1;"/>
</svg>
