<svg width="24" height="24" viewBox="0 0 24 24" fill="none" xmlns="http://www.w3.org/2000/svg">
<g clip-path="url(#clip0_29901_26441)">
<path d="M12 21.5C14.348 21.5 16.4948 20.6494 18.153 19.2384C18.5736 18.8805 19.2047 18.9313 19.5626 19.3519C19.9206 19.7725 19.8697 20.4037 19.4491 20.7616C17.4429 22.4688 14.8406 23.5 12 23.5C9.15941 23.5 6.55711 22.4688 4.55087 20.7616C4.13026 20.4037 4.07944 19.7725 4.43736 19.3519C4.79528 18.9313 5.4264 18.8805 5.84701 19.2384C7.50516 20.6494 9.65197 21.5 12 21.5Z" fill="#080809" style="fill:#080809;fill:color(display-p3 0.0314 0.0314 0.0353);fill-opacity:1;"/>
<path d="M20.7585 17.879C20.2731 17.6156 20.093 17.0086 20.3564 16.5231C21.0855 15.1793 21.5 13.6395 21.5 12C21.5 6.75329 17.2467 2.5 12 2.5C11.4477 2.5 11 2.05228 11 1.5C11 0.947716 11.4477 0.5 12 0.5C18.3513 0.5 23.5 5.64873 23.5 12C23.5 13.9808 22.9983 15.8475 22.1143 17.4769C21.851 17.9623 21.2439 18.1423 20.7585 17.879Z" fill="#080809" style="fill:#080809;fill:color(display-p3 0.0314 0.0314 0.0353);fill-opacity:1;"/>
<path d="M3.2415 17.879C2.75605 18.1423 2.14902 17.9623 1.88565 17.4769C1.00165 15.8475 0.5 13.9808 0.5 12C0.5 11.6313 0.517387 11.2663 0.551434 10.9059C0.603382 10.3561 1.09122 9.95249 1.64106 10.0044C2.1909 10.0564 2.59451 10.5442 2.54257 11.0941C2.51442 11.392 2.5 11.6942 2.5 12C2.5 13.6395 2.91449 15.1793 3.64359 16.5231C3.90696 17.0086 3.72694 17.6156 3.2415 17.879Z" fill="#080809" style="fill:#080809;fill:color(display-p3 0.0314 0.0314 0.0353);fill-opacity:1;"/>
<path d="M2.28774 7.87897C1.8023 7.6156 1.62228 7.00857 1.88565 6.52313C2.20009 5.94355 2.56279 5.39421 2.96828 4.88046C3.31044 4.44693 3.93926 4.37287 4.37278 4.71504C4.8063 5.05721 4.88036 5.68602 4.5382 6.11954C4.20292 6.54434 3.90324 6.9983 3.64359 7.47688C3.38022 7.96232 2.77319 8.14234 2.28774 7.87897Z" fill="#080809" style="fill:#080809;fill:color(display-p3 0.0314 0.0314 0.0353);fill-opacity:1;"/>
<path d="M6.12103 3.2415C5.85766 2.75605 6.03768 2.14902 6.52312 1.88565C6.87746 1.69341 7.24309 1.5192 7.61879 1.36429C8.12938 1.15375 8.71396 1.39699 8.92449 1.90757C9.13502 2.41815 8.89179 3.00273 8.38121 3.21327C8.07124 3.34108 7.76945 3.48485 7.47688 3.64359C6.99144 3.90696 6.3844 3.72694 6.12103 3.2415Z" fill="#080809" style="fill:#080809;fill:color(display-p3 0.0314 0.0314 0.0353);fill-opacity:1;"/>
<path d="M6 12C6 11.4477 6.44772 11 7 11H11V7C11 6.44772 11.4477 6 12 6C12.5523 6 13 6.44772 13 7V11H17C17.5523 11 18 11.4477 18 12C18 12.5523 17.5523 13 17 13H13V17C13 17.5523 12.5523 18 12 18C11.4477 18 11 17.5523 11 17V13H7C6.44772 13 6 12.5523 6 12Z" fill="#080809" style="fill:#080809;fill:color(display-p3 0.0314 0.0314 0.0353);fill-opacity:1;"/>
</g>
<defs>
<clipPath id="clip0_29901_26441">
<rect width="24" height="24" fill="white" style="fill:white;fill-opacity:1;"/>
</clipPath>
</defs>
</svg>
