<svg width="24" height="24" viewBox="0 0 24 24" fill="none" xmlns="http://www.w3.org/2000/svg">
<path fill-rule="evenodd" clip-rule="evenodd" d="M4.5812 1C3.20109 1 1.98439 1.90527 1.58782 3.22717L0.772052 5.94639C0.59165 6.54773 0.5 7.17218 0.5 7.8C0.5 9.22466 1.07294 10.5156 2.001 11.455C2.00034 11.4699 2 11.4849 2 11.5L2 16.0706C1.99997 17.4247 1.99994 18.5413 2.11876 19.4251C2.2435 20.3529 2.51547 21.1723 3.17158 21.8284C3.82769 22.4845 4.64711 22.7565 5.57494 22.8812C6.4587 23.0001 7.57531 23 8.92943 23H15.0706C16.4247 23 17.5413 23.0001 18.4251 22.8812C19.3529 22.7565 20.1723 22.4845 20.8284 21.8284C21.4845 21.1723 21.7565 20.3529 21.8813 19.4251C22.0001 18.5413 22 17.4247 22 16.0706V11.5C22 11.485 21.9997 11.47 21.999 11.4552C22.9271 10.5159 23.5 9.22508 23.5 7.80039C23.5 7.17232 23.4083 6.5476 23.2278 5.94602L22.4122 3.22717C22.0156 1.90527 20.7989 1 19.4188 1H4.5812ZM20 12.7162C19.4673 12.9003 18.8953 13.0004 18.3 13.0004C17.1159 13.0004 16.0238 12.6039 15.15 11.9379C14.2762 12.6039 13.1841 13.0004 12 13.0004C10.8159 13.0004 9.72375 12.6039 8.85 11.9379C7.97625 12.6039 6.88407 13.0004 5.7 13.0004C5.10466 13.0004 4.5327 12.9003 4 12.7161V16C4 17.4425 4.00213 18.4237 4.10092 19.1586C4.19585 19.8646 4.36322 20.1916 4.58579 20.4142C4.80836 20.6368 5.13538 20.8042 5.84144 20.8991C6.3923 20.9731 7.08166 20.9929 8 20.9981V17.5C8 16.1193 9.11929 15 10.5 15H13.5C14.8807 15 16 16.1193 16 17.5V20.9981C16.9183 20.9929 17.6077 20.9731 18.1586 20.8991C18.8646 20.8042 19.1916 20.6368 19.4142 20.4142C19.6368 20.1916 19.8042 19.8646 19.8991 19.1586C19.9979 18.4237 20 17.4425 20 16V12.7162ZM14 21H10V17.5C10 17.2239 10.2239 17 10.5 17H13.5C13.7761 17 14 17.2239 14 17.5V21Z" fill="#080809" style="fill:#080809;fill:color(display-p3 0.0314 0.0314 0.0353);fill-opacity:1;"/>
</svg>
