<svg width="24" height="24" viewBox="0 0 24 24" fill="none" xmlns="http://www.w3.org/2000/svg">
<path d="M5.25 4.75C4.55964 4.75 4 5.30964 4 6C4 6.69036 4.55964 7.25 5.25 7.25H18.75C19.4404 7.25 20 6.69036 20 6C20 5.30964 19.4404 4.75 18.75 4.75H5.25Z" fill="#080809" style="fill:#080809;fill:color(display-p3 0.0314 0.0314 0.0353);fill-opacity:1;"/>
<path d="M8 12C8 11.3096 8.55964 10.75 9.25 10.75H18.75C19.4404 10.75 20 11.3096 20 12C20 12.6904 19.4404 13.25 18.75 13.25H9.25C8.55964 13.25 8 12.6904 8 12Z" fill="#080809" style="fill:#080809;fill:color(display-p3 0.0314 0.0314 0.0353);fill-opacity:1;"/>
<path d="M12 18C12 17.3096 12.5596 16.75 13.25 16.75H18.75C19.4404 16.75 20 17.3096 20 18C20 18.6904 19.4404 19.25 18.75 19.25H13.25C12.5596 19.25 12 18.6904 12 18Z" fill="#080809" style="fill:#080809;fill:color(display-p3 0.0314 0.0314 0.0353);fill-opacity:1;"/>
</svg>
