<svg width="24" height="24" viewBox="0 0 24 24" fill="none" xmlns="http://www.w3.org/2000/svg">
<g clip-path="url(#clip0_29901_26007)">
<path d="M5.28249 2.28328C5.67301 1.89275 5.67301 1.25959 5.28249 0.869065C4.89196 0.478541 4.2588 0.478541 3.86827 0.869065C-0.622758 5.36009 -0.622757 12.6415 3.86827 17.1325C4.2588 17.523 4.89196 17.523 5.28249 17.1325C5.67301 16.742 5.67301 16.1088 5.28249 15.7183C1.5725 12.0083 1.5725 5.99326 5.28249 2.28328Z" fill="#080809" style="fill:#080809;fill:color(display-p3 0.0314 0.0314 0.0353);fill-opacity:1;"/>
<path d="M7.75736 4.75813C8.14788 4.36761 8.14788 3.73444 7.75736 3.34392C7.36683 2.95339 6.73367 2.95339 6.34314 3.34392C3.21895 6.46811 3.21895 11.5334 6.34315 14.6576C6.73367 15.0482 7.36684 15.0482 7.75736 14.6576C8.14788 14.2671 8.14788 13.6339 7.75736 13.2434C5.41421 10.9003 5.41421 7.10128 7.75736 4.75813Z" fill="#080809" style="fill:#080809;fill:color(display-p3 0.0314 0.0314 0.0353);fill-opacity:1;"/>
<path fill-rule="evenodd" clip-rule="evenodd" d="M8 9C8 6.79086 9.79086 5 12 5C14.2091 5 16 6.79086 16 9C16 10.495 15.1799 11.7984 13.965 12.4849L16.956 22.2056C17.1185 22.7335 16.8222 23.2931 16.2944 23.4555C15.7665 23.6179 15.2069 23.3217 15.0445 22.7938L14.4925 21H9.50798L8.95605 22.7938C8.79363 23.3217 8.23404 23.6179 7.70618 23.4555C7.17832 23.2931 6.88207 22.7335 7.04449 22.2056L10.0354 12.4851C8.82031 11.7987 8 10.4951 8 9ZM12 7C10.8954 7 10 7.89543 10 9C10 10.1046 10.8954 11 12 11C13.1046 11 14 10.1046 14 9C14 7.89543 13.1046 7 12 7ZM10.1234 19H13.8772L12.031 12.9999L12 13L11.9696 12.9999L10.1234 19Z" fill="#080809" style="fill:#080809;fill:color(display-p3 0.0314 0.0314 0.0353);fill-opacity:1;"/>
<path d="M16.2431 3.34392C16.6336 2.95339 17.2668 2.95339 17.6573 3.34392C20.7815 6.46811 20.7815 11.5334 17.6573 14.6576C17.2668 15.0482 16.6336 15.0482 16.2431 14.6576C15.8526 14.2671 15.8526 13.6339 16.2431 13.2434C18.5862 10.9003 18.5862 7.10128 16.2431 4.75813C15.8526 4.36761 15.8526 3.73444 16.2431 3.34392Z" fill="#080809" style="fill:#080809;fill:color(display-p3 0.0314 0.0314 0.0353);fill-opacity:1;"/>
<path d="M18.7177 0.869065C19.1082 0.478541 19.7414 0.478541 20.1319 0.869065C24.6229 5.36009 24.6229 12.6415 20.1319 17.1325C19.7414 17.523 19.1082 17.523 18.7177 17.1325C18.3272 16.742 18.3272 16.1088 18.7177 15.7183C22.4277 12.0083 22.4277 5.99326 18.7177 2.28328C18.3272 1.89275 18.3272 1.25959 18.7177 0.869065Z" fill="#080809" style="fill:#080809;fill:color(display-p3 0.0314 0.0314 0.0353);fill-opacity:1;"/>
</g>
<defs>
<clipPath id="clip0_29901_26007">
<rect width="24" height="24" fill="white" style="fill:white;fill-opacity:1;"/>
</clipPath>
</defs>
</svg>
