<svg width="24" height="24" viewBox="0 0 24 24" fill="none" xmlns="http://www.w3.org/2000/svg">
<path d="M10.75 19C10.75 19.6904 11.3096 20.25 12 20.25C12.6904 20.25 13.25 19.6904 13.25 19V13.25H19C19.6904 13.25 20.25 12.6904 20.25 12C20.25 11.3096 19.6904 10.75 19 10.75H13.25V5C13.25 4.30964 12.6904 3.75 12 3.75C11.3096 3.75 10.75 4.30964 10.75 5L10.75 10.75H5C4.30964 10.75 3.75 11.3096 3.75 12C3.75 12.6904 4.30964 13.25 5 13.25H10.75L10.75 19Z" fill="#080809" style="fill:#080809;fill:color(display-p3 0.0314 0.0314 0.0353);fill-opacity:1;"/>
</svg>
