<svg width="24" height="24" viewBox="0 0 24 24" fill="none" xmlns="http://www.w3.org/2000/svg">
<path fill-rule="evenodd" clip-rule="evenodd" d="M23.5 5C23.5 3.34315 22.1569 2 20.5 2C18.8431 2 17.5 3.34315 17.5 5C17.5 5.94615 17.938 6.78999 18.6223 7.33984L16.9912 12C16.2883 12.002 15.6422 12.2458 15.1317 12.6526L11.9292 10.651C11.9755 10.4414 12 10.2236 12 10C12 8.34315 10.6569 7 9 7C7.34315 7 6 8.34315 6 10C6 10.7176 6.25194 11.3763 6.67219 11.8926L4.12257 16.0647C3.92172 16.0223 3.71347 16 3.5 16C1.84315 16 0.5 17.3431 0.5 19C0.5 20.6569 1.84315 22 3.5 22C5.15685 22 6.5 20.6569 6.5 19C6.5 18.2829 6.24839 17.6245 5.82863 17.1084L8.37869 12.9356C8.57915 12.9778 8.78698 13 9 13C9.70667 13 10.3563 12.7557 10.8689 12.3469L14.071 14.3482C14.0245 14.558 14 14.7761 14 15C14 16.6569 15.3431 18 17 18C18.6569 18 20 16.6569 20 15C20 14.0544 19.5625 13.2109 18.8788 12.6611L20.5102 7.99998C22.1624 7.99448 23.5 6.65345 23.5 5ZM20.5 4C21.0523 4 21.5 4.44772 21.5 5C21.5 5.55228 21.0523 6 20.5 6C19.9477 6 19.5 5.55228 19.5 5C19.5 4.44772 19.9477 4 20.5 4ZM17 14C17.5523 14 18 14.4477 18 15C18 15.5523 17.5523 16 17 16C16.4477 16 16 15.5523 16 15C16 14.4477 16.4477 14 17 14ZM10 10C10 9.44772 9.55228 9 9 9C8.44772 9 8 9.44772 8 10C8 10.5523 8.44772 11 9 11C9.55228 11 10 10.5523 10 10ZM3.5 18C4.05228 18 4.5 18.4477 4.5 19C4.5 19.5523 4.05228 20 3.5 20C2.94772 20 2.5 19.5523 2.5 19C2.5 18.4477 2.94772 18 3.5 18Z" fill="#080809" style="fill:#080809;fill:color(display-p3 0.0314 0.0314 0.0353);fill-opacity:1;"/>
</svg>
