<svg width="24" height="24" viewBox="0 0 24 24" fill="none" xmlns="http://www.w3.org/2000/svg">
<path fill-rule="evenodd" clip-rule="evenodd" d="M8.5 2C7.41126 2 6.63799 2.68269 6.18711 3.39263C5.73583 4.10318 5.5 4.98609 5.5 5.78C5.5 7.46432 6.75459 9 8.5 9C10.2454 9 11.5 7.46432 11.5 5.78C11.5 4.98609 11.2642 4.10318 10.8129 3.39263C10.362 2.68269 9.58874 2 8.5 2ZM7.5 5.78C7.5 5.34391 7.63917 4.83682 7.87539 4.46487C8.11201 4.09231 8.33874 4 8.5 4C8.66126 4 8.88799 4.09231 9.12461 4.46487C9.36083 4.83682 9.5 5.34391 9.5 5.78C9.5 6.55568 8.95459 7 8.5 7C8.04541 7 7.5 6.55568 7.5 5.78Z" fill="#080809" style="fill:#080809;fill:color(display-p3 0.0314 0.0314 0.0353);fill-opacity:1;"/>
<path fill-rule="evenodd" clip-rule="evenodd" d="M13.1871 3.39263C13.638 2.68269 14.4113 2 15.5 2C16.5887 2 17.362 2.68269 17.8129 3.39263C18.2642 4.10318 18.5 4.98609 18.5 5.78C18.5 7.46432 17.2454 9 15.5 9C13.7546 9 12.5 7.46432 12.5 5.78C12.5 4.98609 12.7358 4.10318 13.1871 3.39263ZM14.8754 4.46487C14.6392 4.83682 14.5 5.34391 14.5 5.78C14.5 6.55568 15.0454 7 15.5 7C15.9546 7 16.5 6.55568 16.5 5.78C16.5 5.34391 16.3608 4.83682 16.1246 4.46487C15.888 4.09231 15.6613 4 15.5 4C15.3387 4 15.112 4.09231 14.8754 4.46487Z" fill="#080809" style="fill:#080809;fill:color(display-p3 0.0314 0.0314 0.0353);fill-opacity:1;"/>
<path fill-rule="evenodd" clip-rule="evenodd" d="M18.1051 9.29478C18.5829 8.55535 19.3829 8 20.5 8C21.6171 8 22.4171 8.55535 22.8949 9.29478C23.3429 9.9881 23.5 10.8177 23.5 11.5C23.5 13.1523 22.1523 14.5 20.5 14.5C18.8477 14.5 17.5 13.1523 17.5 11.5C17.5 10.8177 17.6571 9.9881 18.1051 9.29478ZM19.7849 10.3802C19.6029 10.6619 19.5 11.0823 19.5 11.5C19.5 12.0477 19.9523 12.5 20.5 12.5C21.0477 12.5 21.5 12.0477 21.5 11.5C21.5 11.0823 21.3971 10.6619 21.2151 10.3802C21.0629 10.1447 20.8629 10 20.5 10C20.1371 10 19.9371 10.1447 19.7849 10.3802Z" fill="#080809" style="fill:#080809;fill:color(display-p3 0.0314 0.0314 0.0353);fill-opacity:1;"/>
<path fill-rule="evenodd" clip-rule="evenodd" d="M1.10508 9.29478C1.58287 8.55535 2.38288 8 3.5 8C4.61712 8 5.41713 8.55535 5.89492 9.29478C6.34291 9.9881 6.5 10.8177 6.5 11.5C6.5 13.1523 5.15228 14.5 3.5 14.5C1.84772 14.5 0.5 13.1523 0.5 11.5C0.5 10.8177 0.657092 9.9881 1.10508 9.29478ZM2.78492 10.3802C2.60291 10.6619 2.5 11.0823 2.5 11.5C2.5 12.0477 2.95228 12.5 3.5 12.5C4.04772 12.5 4.5 12.0477 4.5 11.5C4.5 11.0823 4.39709 10.6619 4.21508 10.3802C4.06287 10.1447 3.86288 10 3.5 10C3.13712 10 2.93713 10.1447 2.78492 10.3802Z" fill="#080809" style="fill:#080809;fill:color(display-p3 0.0314 0.0314 0.0353);fill-opacity:1;"/>
<path fill-rule="evenodd" clip-rule="evenodd" d="M12 10C11.2851 10 10.6678 10.1342 10.1344 10.4027C9.60012 10.6717 9.20717 11.0467 8.90172 11.4447C8.60485 11.8315 8.37978 12.2556 8.19222 12.6241C8.15355 12.7001 8.11658 12.7735 8.0807 12.8447C7.93148 13.1407 7.80127 13.3991 7.64772 13.6501C7.02954 14.6541 6.30822 15.0486 5.34017 15.5781L5.33771 15.5794C4.25516 16.1754 3.5 17.282 3.5 18.5976C3.5 20.483 5.02949 22 6.9 22H17.1C18.9859 22 20.5 20.4675 20.5 18.5976C20.5 17.2892 19.7514 16.1669 18.6572 15.5767C17.6908 15.0481 16.9706 14.6536 16.3531 13.6514C16.2008 13.4005 16.0716 13.1437 15.9244 12.851C15.887 12.7766 15.8484 12.6999 15.808 12.6204C15.6202 12.2508 15.395 11.8267 15.0977 11.4402C14.7918 11.0424 14.3984 10.6685 13.8641 10.4006C13.3308 10.1332 12.714 10 12 10ZM9.35292 14.6952C9.55426 14.3663 9.73001 14.0169 9.88129 13.7162C9.91339 13.6524 9.94475 13.59 9.97466 13.5313C10.1577 13.1716 10.3127 12.8912 10.4883 12.6624C10.6553 12.4448 10.8274 12.293 11.0337 12.1891C11.2409 12.0848 11.5399 12 12 12C12.461 12 12.7604 12.0845 12.9678 12.1885C13.1741 12.2919 13.3457 12.4429 13.5123 12.6594C13.6875 12.8872 13.8423 13.167 14.0251 13.5266C14.0562 13.5878 14.0885 13.6521 14.122 13.7187C14.2721 14.0179 14.4466 14.3653 14.6454 14.6926L14.6483 14.6973C15.5462 16.1562 16.6689 16.7695 17.6245 17.2915L17.7001 17.3328L17.7062 17.3361C18.2102 17.6072 18.5 18.0855 18.5 18.5976C18.5 19.3703 17.8741 20 17.1 20H6.9C6.13051 20 5.5 19.3749 5.5 18.5976C5.5 18.0917 5.78446 17.617 6.30127 17.332L6.37552 17.2915C7.33108 16.7695 8.45383 16.1562 9.35166 14.6973L9.35292 14.6952Z" fill="#080809" style="fill:#080809;fill:color(display-p3 0.0314 0.0314 0.0353);fill-opacity:1;"/>
</svg>
