<svg width="24" height="24" viewBox="0 0 24 24" fill="none" xmlns="http://www.w3.org/2000/svg">
<path fill-rule="evenodd" clip-rule="evenodd" d="M6.65721 1C6.06166 0.999945 5.52258 0.999892 5.08189 1.05669C4.59871 1.11896 4.10375 1.26278 3.67988 1.64638C3.25601 2.02997 3.06365 2.50817 2.95361 2.98276C2.85325 3.4156 2.79966 3.95202 2.74046 4.54462L1.99364 12.0128C1.79217 14.0273 1.63242 15.6247 1.64972 16.8998C1.66745 18.2062 1.86924 19.3095 2.49573 20.2723C2.84271 20.8056 3.27228 21.2802 3.76836 21.6786C4.66409 22.3977 5.7418 22.7083 7.04001 22.856C8.307 23 9.91234 23 11.9369 23H12.0629C14.0874 23 15.6928 23 16.9598 22.856C18.258 22.7083 19.3357 22.3977 20.2315 21.6786C20.7275 21.2802 21.1571 20.8056 21.5041 20.2723C22.1306 19.3095 22.3324 18.2062 22.3501 16.8997C22.3674 15.6247 22.2076 14.0273 22.0062 12.0128L21.2594 4.5446C21.2002 3.95201 21.1466 3.4156 21.0462 2.98276C20.9362 2.50817 20.7438 2.02997 20.3199 1.64638C19.8961 1.26278 19.4011 1.11896 18.9179 1.05669C18.4772 0.999892 17.9382 0.999945 17.3426 1H6.65721ZM8.96646 5.74316C8.82461 5.20941 8.27692 4.8917 7.74316 5.03355C7.20941 5.1754 6.8917 5.72308 7.03355 6.25684C7.61063 8.42832 9.6306 10 12 10C14.3694 10 16.3894 8.42832 16.9665 6.25684C17.1083 5.72308 16.7906 5.1754 16.2568 5.03355C15.7231 4.8917 15.1754 5.20941 15.0335 5.74316C14.6937 7.02214 13.4795 8 12 8C10.5205 8 9.30635 7.02214 8.96646 5.74316Z" fill="#080809" style="fill:#080809;fill:color(display-p3 0.0314 0.0314 0.0353);fill-opacity:1;"/>
</svg>
