<svg width="24" height="24" viewBox="0 0 24 24" fill="none" xmlns="http://www.w3.org/2000/svg">
<g clip-path="url(#clip0_29901_28349)">
<path d="M2.75 12C2.75 6.89137 6.89137 2.75 12 2.75C14.6981 2.75 17.1273 3.90467 18.8193 5.75H18C17.3096 5.75 16.75 6.30964 16.75 7C16.75 7.69036 17.3096 8.25 18 8.25H21.5C22.4665 8.25 23.25 7.4665 23.25 6.5V3C23.25 2.30964 22.6904 1.75 22 1.75C21.3096 1.75 20.75 2.30964 20.75 3V4.15783C18.5999 1.76054 15.4767 0.25 12 0.25C5.51065 0.25 0.25 5.51065 0.25 12C0.25 12.6904 0.809644 13.25 1.5 13.25C2.19036 13.25 2.75 12.6904 2.75 12Z" fill="#080809" style="fill:#080809;fill:color(display-p3 0.0314 0.0314 0.0353);fill-opacity:1;"/>
<path d="M23.75 12C23.75 11.3096 23.1904 10.75 22.5 10.75C21.8096 10.75 21.25 11.3096 21.25 12C21.25 17.1086 17.1086 21.25 12 21.25C9.30185 21.25 6.87274 20.0954 5.18067 18.25H6C6.69036 18.25 7.25 17.6904 7.25 17C7.25 16.3096 6.69036 15.75 6 15.75H2.5C1.5335 15.75 0.75 16.5335 0.75 17.5V21C0.75 21.6904 1.30964 22.25 2 22.25C2.69036 22.25 3.25 21.6904 3.25 21V19.8422C5.4001 22.2394 8.52332 23.75 12 23.75C18.4893 23.75 23.75 18.4893 23.75 12Z" fill="#080809" style="fill:#080809;fill:color(display-p3 0.0314 0.0314 0.0353);fill-opacity:1;"/>
</g>
<defs>
<clipPath id="clip0_29901_28349">
<rect width="24" height="24" fill="white" style="fill:white;fill-opacity:1;"/>
</clipPath>
</defs>
</svg>
