<svg width="24" height="24" viewBox="0 0 24 24" fill="none" xmlns="http://www.w3.org/2000/svg">
<path fill-rule="evenodd" clip-rule="evenodd" d="M9 1C6.19764 1 3.88479 3.09585 3.54342 5.8056L3.31536 5.89682C1.91696 6.45618 1 7.81057 1 9.31669C1 10.7673 1.83852 12.022 3.05729 12.6226L3.47126 16.7624C3.594 17.99 3.69562 19.0065 3.88156 19.8084C4.07726 20.6525 4.3928 21.3881 5.03094 21.9656C5.66908 22.5431 6.43247 22.7839 7.29179 22.8947C8.1082 22.9999 9.12978 22.9998 10.3636 22.9998H13.6364C14.8702 22.9998 15.8918 22.9999 16.7082 22.8947C17.5675 22.7839 18.3309 22.5431 18.9691 21.9656C19.6072 21.3881 19.9227 20.6525 20.1184 19.8084C20.3044 19.0065 20.406 17.99 20.5287 16.7624L20.9427 12.6226C22.1615 12.022 23 10.7673 23 9.31669C23 7.81057 22.083 6.45618 20.6846 5.89682L20.4566 5.8056C20.1152 3.09585 17.8024 1 15 1H9ZM5.5 6.5C5.5 4.567 7.067 3 9 3H15C16.933 3 18.5 4.567 18.5 6.5C18.5 6.9089 18.749 7.27661 19.1286 7.42848L19.9419 7.75378C20.5809 8.00941 21 8.62838 21 9.31669C21 10.2464 20.2464 11 19.3167 11H13C11.8954 11 11 11.8954 11 13C11 13.5523 10.5523 14 10 14C9.44772 14 9 13.5523 9 13C9 11.8954 8.10457 11 7 11H4.68331C3.75364 11 3 10.2464 3 9.31669C3 8.62838 3.41906 8.00941 4.05814 7.75378L4.87139 7.42848C5.25105 7.27661 5.5 6.9089 5.5 6.5ZM18.895 13H13C13 14.6569 11.6569 16 10 16C8.34315 16 7 14.6569 7 13H5.105L5.45474 16.4973C5.58579 17.8078 5.67647 18.6951 5.82987 19.3567C5.97682 19.9905 6.15401 20.2846 6.37295 20.4827C6.59189 20.6809 6.90219 20.8279 7.54743 20.9111C8.221 20.9979 9.11289 20.9998 10.4299 20.9998H13.5701C14.8871 20.9998 15.779 20.9979 16.4526 20.9111C17.0978 20.8279 17.4081 20.6809 17.627 20.4827C17.846 20.2846 18.0232 19.9905 18.1701 19.3567C18.3235 18.6951 18.4142 17.8078 18.5453 16.4973L18.895 13Z" fill="#080809" style="fill:#080809;fill:color(display-p3 0.0314 0.0314 0.0353);fill-opacity:1;"/>
</svg>
