<svg width="24" height="24" viewBox="0 0 24 24" fill="none" xmlns="http://www.w3.org/2000/svg">
<path d="M15.9215 6.90537C16.4549 6.76243 16.7715 6.21409 16.6286 5.68063C16.4856 5.14716 15.9373 4.83058 15.4038 4.97352C14.8704 5.11646 14.5538 5.6648 14.6967 6.19827C14.8397 6.73173 15.388 7.04831 15.9215 6.90537Z" fill="#080809" style="fill:#080809;fill:color(display-p3 0.0314 0.0314 0.0353);fill-opacity:1;"/>
<path d="M20.3028 7.80195C20.4458 8.33541 20.1292 8.88375 19.5957 9.02669C19.0622 9.16963 18.5139 8.85305 18.371 8.31959C18.228 7.78612 18.5446 7.23778 19.0781 7.09484C19.6115 6.9519 20.1599 7.26848 20.3028 7.80195Z" fill="#080809" style="fill:#080809;fill:color(display-p3 0.0314 0.0314 0.0353);fill-opacity:1;"/>
<path fill-rule="evenodd" clip-rule="evenodd" d="M13.6614 2.33456C12.0611 2.76339 11.1113 4.4084 11.5401 6.0088L12.8342 10.8384C13.263 12.4388 14.9081 13.3886 16.5085 12.9597L21.3381 11.6657C22.9385 11.2368 23.8882 9.59181 23.4594 7.99142L22.1653 3.16179C21.7365 1.56139 20.0915 0.611642 18.4911 1.04047L13.6614 2.33456ZM13.472 5.49116C13.329 4.95769 13.6456 4.40936 14.1791 4.26641L19.0087 2.97232C19.5422 2.82938 20.0905 3.14596 20.2335 3.67943L21.5276 8.50905C21.6705 9.04252 21.3539 9.59086 20.8204 9.7338L15.9908 11.0279C15.4574 11.1708 14.909 10.8543 14.7661 10.3208L13.472 5.49116Z" fill="#080809" style="fill:#080809;fill:color(display-p3 0.0314 0.0314 0.0353);fill-opacity:1;"/>
<path d="M6 15.9997C6 16.552 5.55228 16.9997 5 16.9997C4.44772 16.9997 4 16.552 4 15.9997C4 15.4474 4.44772 14.9997 5 14.9997C5.55228 14.9997 6 15.4474 6 15.9997Z" fill="#080809" style="fill:#080809;fill:color(display-p3 0.0314 0.0314 0.0353);fill-opacity:1;"/>
<path d="M8 19.9997C8.55228 19.9997 9 19.552 9 18.9997C9 18.4474 8.55228 17.9997 8 17.9997C7.44772 17.9997 7 18.4474 7 18.9997C7 19.552 7.44772 19.9997 8 19.9997Z" fill="#080809" style="fill:#080809;fill:color(display-p3 0.0314 0.0314 0.0353);fill-opacity:1;"/>
<path d="M7 15.9997C7 16.552 7.44772 16.9997 8 16.9997C8.55228 16.9997 9 16.552 9 15.9997C9 15.4474 8.55228 14.9997 8 14.9997C7.44772 14.9997 7 15.4474 7 15.9997Z" fill="#080809" style="fill:#080809;fill:color(display-p3 0.0314 0.0314 0.0353);fill-opacity:1;"/>
<path d="M5 19.9997C4.44772 19.9997 4 19.552 4 18.9997C4 18.4474 4.44772 17.9997 5 17.9997C5.55228 17.9997 6 18.4474 6 18.9997C6 19.552 5.55228 19.9997 5 19.9997Z" fill="#080809" style="fill:#080809;fill:color(display-p3 0.0314 0.0314 0.0353);fill-opacity:1;"/>
<path fill-rule="evenodd" clip-rule="evenodd" d="M4 11.9997C2.34315 11.9997 1 13.3428 1 14.9997V19.9997C1 21.6565 2.34315 22.9997 4 22.9997H9C10.6569 22.9997 12 21.6565 12 19.9997V14.9997C12 13.3428 10.6569 11.9997 9 11.9997H4ZM3 14.9997C3 14.4474 3.44772 13.9997 4 13.9997H9C9.55228 13.9997 10 14.4474 10 14.9997V19.9997C10 20.552 9.55228 20.9997 9 20.9997H4C3.44772 20.9997 3 20.552 3 19.9997V14.9997Z" fill="#080809" style="fill:#080809;fill:color(display-p3 0.0314 0.0314 0.0353);fill-opacity:1;"/>
</svg>
