<svg width="24" height="24" viewBox="0 0 24 24" fill="none" xmlns="http://www.w3.org/2000/svg">
<g clip-path="url(#clip0_29901_27783)">
<path fill-rule="evenodd" clip-rule="evenodd" d="M17.2358 1.56622C19.3326 2.4516 21.7356 3.96886 22.8837 5.11764C23.3717 5.60594 23.3715 6.39739 22.8832 6.8854C22.3949 7.37341 21.6034 7.37317 21.1154 6.88487C20.2635 6.03244 18.1665 4.67292 16.2633 3.86933C15.4485 3.52531 14.7935 3.33795 14.3549 3.28868C14.4024 3.39465 14.4712 3.53167 14.5705 3.70324C14.8381 4.16569 15.2375 4.73029 15.7448 5.38466C16.4161 6.25065 17.2124 7.1944 18.0518 8.18919C18.4928 8.71179 18.9456 9.24849 19.3985 9.79539C20.6763 11.3386 21.9496 12.9585 22.7393 14.3803C23.1312 15.0859 23.4585 15.8368 23.5662 16.5664C23.6785 17.3272 23.5628 18.202 22.8834 18.8814C22.0266 19.7382 20.8578 19.5276 20.1258 19.2804C19.3113 19.0052 18.3999 18.4807 17.4772 17.8628C15.6287 16.6248 13.4042 14.782 11.2484 12.9962L11.2033 12.9588C8.99776 11.1318 6.86504 9.36713 5.13278 8.2077C4.25859 7.62258 3.56858 7.24869 3.07488 7.08224C3.00692 7.05933 2.94911 7.04226 2.90038 7.02958C2.90174 7.04077 2.90332 7.05257 2.90515 7.06502C2.94815 7.35735 3.10925 7.79953 3.44392 8.40225C4.10743 9.59723 5.24023 11.0553 6.52465 12.6059C6.94199 13.1098 7.37683 13.625 7.81021 14.1386C8.67208 15.1598 9.52819 16.1743 10.2294 17.0784C10.7611 17.764 11.2405 18.4319 11.592 19.0389C11.9138 19.5947 12.2495 20.297 12.2494 20.9967C12.2494 21.6236 12.0356 22.2659 11.4778 22.714C10.9718 23.1205 10.3641 23.217 9.88264 23.2199C8.9298 23.2258 7.7973 22.8667 6.76506 22.4314C4.66838 21.5473 2.26538 20.0311 1.1156 18.8814C0.627447 18.3932 0.627447 17.6018 1.1156 17.1136C1.60376 16.6254 2.39521 16.6254 2.88337 17.1136C3.73697 17.9672 5.83394 19.3256 7.73639 20.1278C8.55139 20.4715 9.20634 20.6583 9.64456 20.707C9.59698 20.6009 9.52808 20.4636 9.42844 20.2916C9.16074 19.8292 8.76127 19.2648 8.2539 18.6105C7.58296 17.7454 6.78722 16.8028 5.94842 15.8091C5.5067 15.2858 5.05303 14.7484 4.59936 14.2007C3.3213 12.6578 2.04786 11.0379 1.25825 9.61586C0.866348 8.91006 0.539164 8.15894 0.431768 7.42886C0.319766 6.66747 0.436278 5.79293 1.11561 5.1136C1.97219 4.25702 3.14054 4.46612 3.87357 4.71326C4.68863 4.98805 5.60041 5.51237 6.52335 6.13012C8.37481 7.36934 10.6029 9.21505 12.7612 11.003L12.7982 11.0336C15.0038 12.8607 17.1364 14.6257 18.8683 15.7856C19.7424 16.3709 20.4323 16.7451 20.9259 16.9119C20.9925 16.9343 21.0493 16.9512 21.0974 16.9638C21.0961 16.9536 21.0946 16.9428 21.093 16.9315C21.0498 16.6392 20.8885 16.1969 20.5537 15.5942C19.89 14.3991 18.7572 12.9408 17.4729 11.3898C17.0563 10.8867 16.6222 10.3721 16.1896 9.85927C15.3272 8.83698 14.4705 7.82146 13.7689 6.9163C13.2373 6.23058 12.7581 5.56254 12.4067 4.9555C12.085 4.39958 11.7495 3.69732 11.7495 2.9977C11.7495 2.37063 11.9635 1.72808 12.522 1.28006C13.0285 0.873843 13.6364 0.778011 14.1178 0.775444C15.0707 0.770362 16.2034 1.13031 17.2358 1.56622Z" fill="#080809" style="fill:#080809;fill:color(display-p3 0.0314 0.0314 0.0353);fill-opacity:1;"/>
</g>
<defs>
<clipPath id="clip0_29901_27783">
<rect width="24" height="24" fill="white" style="fill:white;fill-opacity:1;"/>
</clipPath>
</defs>
</svg>
