<svg width="24" height="24" viewBox="0 0 24 24" fill="none" xmlns="http://www.w3.org/2000/svg">
<g clip-path="url(#clip0_29901_28287)">
<path fill-rule="evenodd" clip-rule="evenodd" d="M12 0.5C18.3513 0.5 23.5 5.64873 23.5 12C23.5 18.3513 18.3513 23.5 12 23.5C10.0782 23.5 8.26351 23.0279 6.66895 22.1924C6.50263 22.1053 6.34422 22.0918 6.22363 22.123L2.82422 23.0049C1.71693 23.292 0.708044 22.2831 0.995117 21.1758L1.87695 17.7764C1.90815 17.6558 1.89474 17.4974 1.80762 17.3311C0.97205 15.7365 0.5 13.9218 0.5 12C0.5 5.64873 5.64873 0.5 12 0.5ZM18.5068 9.28223C18.8742 8.71443 18.1934 8.05362 17.6367 8.4375L13.8203 11.0693C13.6918 11.1581 13.5226 11.1608 13.3916 11.0762L10.0039 8.88477C9.7172 8.6995 9.33478 8.78169 9.14941 9.06836L5.49316 14.7178C5.12555 15.2856 5.80655 15.9466 6.36328 15.5625L10.1807 12.9307C10.3092 12.8419 10.4782 12.8392 10.6094 12.9238L13.9961 15.1152C14.2828 15.3006 14.6652 15.2184 14.8506 14.9316L18.5068 9.28223Z" fill="#080809" style="fill:#080809;fill:color(display-p3 0.0314 0.0314 0.0353);fill-opacity:1;"/>
</g>
<defs>
<clipPath id="clip0_29901_28287">
<rect width="24" height="24" fill="white" style="fill:white;fill-opacity:1;"/>
</clipPath>
</defs>
</svg>
