<svg width="24" height="24" viewBox="0 0 24 24" fill="none" xmlns="http://www.w3.org/2000/svg">
<path fill-rule="evenodd" clip-rule="evenodd" d="M7 6V3.5C7 1.84315 8.34315 0.5 10 0.5H13.5C15.1569 0.5 16.5 1.84315 16.5 3.5V6H19.3425C20.8216 6 21.9773 7.27704 21.8301 8.74876L20.6301 20.7488C20.5023 22.0268 19.4269 23 18.1425 23H5.85747C4.57309 23 3.49768 22.0268 3.36988 20.7488L2.16988 8.74876C2.02271 7.27705 3.17841 6 4.65747 6H7ZM9 3.5C9 2.94772 9.44772 2.5 10 2.5H13.5C14.0523 2.5 14.5 2.94772 14.5 3.5V6H9V3.5ZM14.5 8V11C14.5 11.5523 14.9477 12 15.5 12C16.0523 12 16.5 11.5523 16.5 11V8H19.3425C19.6383 8 19.8695 8.25541 19.84 8.54975L18.64 20.5498C18.6145 20.8054 18.3994 21 18.1425 21H12.405L11.105 8H14.5ZM4.65747 8C4.36166 8 4.13052 8.25541 4.15995 8.54975L5.35995 20.5498C5.38391 20.7894 5.57445 20.9754 5.80983 20.9978C5.82552 20.9992 5.84142 21 5.85747 21H10.395L9.095 8H4.65747Z" fill="#080809" style="fill:#080809;fill:color(display-p3 0.0314 0.0314 0.0353);fill-opacity:1;"/>
</svg>
