<svg width="24" height="24" viewBox="0 0 24 24" fill="none" xmlns="http://www.w3.org/2000/svg">
<path d="M14 5C14 2.51472 16.0147 0.5 18.5 0.5H19C19.5523 0.5 20 0.947715 20 1.5V22C20 22.8284 19.3284 23.5 18.5 23.5C17.6716 23.5 17 22.8284 17 22V14C15.3431 14 14 12.6569 14 11V5Z" fill="#080809" style="fill:#080809;fill:color(display-p3 0.0314 0.0314 0.0353);fill-opacity:1;"/>
<path d="M5 8V1.5C5 0.947715 4.55228 0.5 4 0.5C3.44772 0.5 3 0.947715 3 1.5V10C3 11.8638 4.27477 13.4299 6 13.874V22C6 22.8284 6.67157 23.5 7.5 23.5C8.32843 23.5 9 22.8284 9 22V13.874C10.7252 13.4299 12 11.8638 12 10V1.5C12 0.947715 11.5523 0.5 11 0.5C10.4477 0.5 10 0.947715 10 1.5V8H8.5V1.5C8.5 0.947715 8.05228 0.5 7.5 0.5C6.94772 0.5 6.5 0.947715 6.5 1.5V8H5Z" fill="#080809" style="fill:#080809;fill:color(display-p3 0.0314 0.0314 0.0353);fill-opacity:1;"/>
</svg>
