<svg width="24" height="24" viewBox="0 0 24 24" fill="none" xmlns="http://www.w3.org/2000/svg">
<path d="M23.5 7.15441C23.5 5.99669 22.6553 5.01213 21.5111 4.83609L16.9222 4.13012C16.3592 4.0435 15.7904 4 15.2208 4H14.3941C11.9557 4 9.61712 4.96866 7.89289 6.69289C7.32118 7.2646 7 8.04001 7 8.84853V11.2638C6.99902 11.3041 6.99854 11.3446 6.99854 11.3852V18.5C6.99854 19.3284 7.67011 20 8.49854 20H9.6996C9.7162 20.0003 9.73284 20.0005 9.74951 20.0005H13.4995C14.8802 20.0005 15.9995 18.8812 15.9995 17.5005C15.9995 17.3247 16.089 17.1584 16.2368 17.0632C16.9966 16.5738 17.4998 15.7204 17.4998 14.7495C17.4998 14.5261 17.4731 14.3089 17.4228 14.101C17.3335 13.7315 17.4344 13.3232 17.6936 13.0453C18.1937 12.5094 18.4996 11.7901 18.4996 10.9993C18.4996 10.4531 18.3537 9.9411 18.0987 9.5L21.1544 9.5C22.4498 9.5 23.5 8.44984 23.5 7.15441Z" fill="#080809" style="fill:#080809;fill:color(display-p3 0.0314 0.0314 0.0353);fill-opacity:1;"/>
<path d="M2.5 7.5C1.39543 7.5 0.5 8.39543 0.5 9.5V18C0.5 19.1046 1.39543 20 2.5 20H4.5C5.05228 20 5.5 19.5523 5.5 19V8.5C5.5 7.94772 5.05228 7.5 4.5 7.5H2.5Z" fill="#080809" style="fill:#080809;fill:color(display-p3 0.0314 0.0314 0.0353);fill-opacity:1;"/>
</svg>
