<svg width="24" height="24" viewBox="0 0 24 24" fill="none" xmlns="http://www.w3.org/2000/svg">
<path fill-rule="evenodd" clip-rule="evenodd" d="M7.5 5C6.11929 5 5 6.11929 5 7.5V12.5C5 13.8807 6.11929 15 7.5 15H16.5C17.8807 15 19 13.8807 19 12.5V7.5C19 6.11929 17.8807 5 16.5 5H7.5ZM7 7.5C7 7.22386 7.22386 7 7.5 7H16.5C16.7761 7 17 7.22386 17 7.5V12.5C17 12.7761 16.7761 13 16.5 13H7.5C7.22386 13 7 12.7761 7 12.5V7.5Z" fill="#080809" style="fill:#080809;fill:color(display-p3 0.0314 0.0314 0.0353);fill-opacity:1;"/>
<path d="M5 18C5 17.4477 5.44772 17 6 17H12C12.5523 17 13 17.4477 13 18C13 18.5523 12.5523 19 12 19H6C5.44772 19 5 18.5523 5 18Z" fill="#080809" style="fill:#080809;fill:color(display-p3 0.0314 0.0314 0.0353);fill-opacity:1;"/>
<path d="M16 17C15.4477 17 15 17.4477 15 18C15 18.5523 15.4477 19 16 19H18C18.5523 19 19 18.5523 19 18C19 17.4477 18.5523 17 18 17H16Z" fill="#080809" style="fill:#080809;fill:color(display-p3 0.0314 0.0314 0.0353);fill-opacity:1;"/>
<path fill-rule="evenodd" clip-rule="evenodd" d="M12.0748 1H11.9252C9.63166 0.999978 7.80859 0.999961 6.38039 1.19198C4.90794 1.38994 3.70636 1.80836 2.75736 2.75736C1.80836 3.70636 1.38994 4.90794 1.19198 6.38039C0.999961 7.80859 0.999978 9.63164 1 11.9252V12.0748C0.999978 14.3683 0.999961 16.1914 1.19198 17.6196C1.38994 19.0921 1.80836 20.2936 2.75736 21.2426C3.70636 22.1916 4.90794 22.6101 6.38039 22.808C7.8086 23 9.63167 23 11.9252 23H12.0748C14.3683 23 16.1914 23 17.6196 22.808C19.0921 22.6101 20.2936 22.1916 21.2426 21.2426C22.1916 20.2936 22.6101 19.0921 22.808 17.6196C23 16.1914 23 14.3683 23 12.0748V11.9252C23 9.63167 23 7.8086 22.808 6.38039C22.6101 4.90794 22.1916 3.70636 21.2426 2.75736C20.2936 1.80836 19.0921 1.38994 17.6196 1.19198C16.1914 0.999961 14.3683 0.999978 12.0748 1ZM4.17157 4.17157C4.68704 3.65611 5.39621 3.34229 6.64689 3.17414C7.92634 3.00213 9.61471 3 12 3C14.3853 3 16.0737 3.00213 17.3531 3.17414C18.6038 3.34229 19.313 3.65611 19.8284 4.17157C20.3439 4.68704 20.6577 5.39621 20.8259 6.64689C20.9979 7.92634 21 9.61471 21 12C21 14.3853 20.9979 16.0737 20.8259 17.3531C20.6577 18.6038 20.3439 19.313 19.8284 19.8284C19.313 20.3439 18.6038 20.6577 17.3531 20.8259C16.0737 20.9979 14.3853 21 12 21C9.61471 21 7.92634 20.9979 6.64689 20.8259C5.39621 20.6577 4.68704 20.3439 4.17157 19.8284C3.65611 19.313 3.34229 18.6038 3.17414 17.3531C3.00213 16.0737 3 14.3853 3 12C3 9.61471 3.00213 7.92634 3.17414 6.64689C3.34229 5.39621 3.65611 4.68704 4.17157 4.17157Z" fill="#080809" style="fill:#080809;fill:color(display-p3 0.0314 0.0314 0.0353);fill-opacity:1;"/>
</svg>
