<svg width="24" height="24" viewBox="0 0 24 24" fill="none" xmlns="http://www.w3.org/2000/svg">
<g clip-path="url(#clip0_29901_26662)">
<path fill-rule="evenodd" clip-rule="evenodd" d="M4.02759 19.9701C2.04088 19.7366 0.499565 18.0471 0.499565 15.9977C0.499565 13.7885 2.29043 11.9977 4.49957 11.9977H7.08552L11.9999 7.08359L11.9999 4.5C11.9999 2.29086 13.7907 0.500001 15.9999 0.5C18.0492 0.500001 19.7385 2.04111 19.9723 4.02762C21.9591 4.26106 23.5005 5.95057 23.5005 8.00009C23.5005 10.2092 21.7096 12.0001 19.5005 12.0001L16.9114 12.0001L11.9998 16.9117L11.9998 19.4959C11.9998 21.705 10.2089 23.4959 7.99976 23.4959C5.95109 23.4959 4.26213 21.9557 4.02759 19.9701ZM2.49957 15.9977C2.49956 17.1022 3.395 17.9977 4.49957 17.9977C5.31273 17.9977 5.99977 18.6725 5.99977 19.4959C5.99977 20.6004 6.8952 21.4959 7.99977 21.4959C9.10434 21.4959 9.99977 20.6004 9.99977 19.4959V16.7046C9.99977 16.3068 10.1578 15.9252 10.4391 15.6439L15.7917 10.2914C16.0197 10.0634 16.3065 9.97622 16.5796 10.0001H19.5005C20.605 10.0001 21.5005 9.10466 21.5005 8.00009C21.5005 6.89552 20.605 6.00009 19.5005 6.00009C18.6826 6.00009 17.9999 5.32051 17.9999 4.5C17.9999 3.39543 17.1044 2.5 15.9999 2.5C14.8953 2.5 13.9999 3.39543 13.9999 4.5V7.2907C13.9999 7.68854 13.8418 8.07009 13.5605 8.35139L8.20673 13.7049C7.97975 13.9318 7.69789 14.0191 7.42904 13.9977L4.49957 13.9977C3.395 13.9977 2.49957 14.8931 2.49957 15.9977Z" fill="#080809" style="fill:#080809;fill:color(display-p3 0.0314 0.0314 0.0353);fill-opacity:1;"/>
</g>
<defs>
<clipPath id="clip0_29901_26662">
<rect width="24" height="24" fill="white" style="fill:white;fill-opacity:1;"/>
</clipPath>
</defs>
</svg>
