<svg width="24" height="24" viewBox="0 0 24 24" fill="none" xmlns="http://www.w3.org/2000/svg">
<g clip-path="url(#clip0_29901_26783)">
<path fill-rule="evenodd" clip-rule="evenodd" d="M22.3717 4.89114C23.2197 2.83536 21.1631 0.778572 19.1074 1.6266L16.2126 2.82082L13.8284 0.790428C12.1354 -0.651359 9.5439 0.669165 9.71514 2.88639L9.95627 6.00879L7.28865 7.64898C5.42573 8.7944 5.83491 11.5919 7.90481 12.181L1.79308 18.2928C0.712202 19.3736 0.712202 21.1261 1.79308 22.207C2.87396 23.2879 4.62642 23.2879 5.7073 22.207L11.8184 16.0959C12.4083 18.1647 15.2047 18.5734 16.3498 16.7107L17.9898 14.0429L21.112 14.2841C23.3291 14.4553 24.6495 11.8636 23.2078 10.1705L21.1776 7.78619L22.3717 4.89114ZM11.0624 12.9763L11.2662 13.8197L4.29308 20.7928C3.99325 21.0926 3.50713 21.0926 3.2073 20.7928C2.90746 20.4929 2.90746 20.0068 3.2073 19.707L10.181 12.7333L11.0228 12.9367L11.0624 12.9763ZM19.8701 3.47554C20.2812 3.30593 20.6925 3.71728 20.5229 4.12845L19.0959 7.58816C18.9529 7.93482 19.0158 8.33236 19.2589 8.61787L21.6852 11.4672C21.9735 11.8059 21.7094 12.3242 21.266 12.2899L17.5349 12.0018C17.161 11.9729 16.8024 12.1556 16.606 12.4751L14.6461 15.6632C14.4131 16.0421 13.8386 15.9511 13.7342 15.5188L12.8552 11.881C12.7672 11.5164 12.4826 11.2318 12.1181 11.1438L8.48052 10.2648C8.04823 10.1603 7.95723 9.58574 8.33609 9.3528L11.524 7.39269C11.8435 7.19629 12.0262 6.83766 11.9973 6.46378L11.7091 2.73238C11.6749 2.28894 12.1932 2.02482 12.5318 2.31319L15.381 4.7396C15.6664 4.98273 16.0639 5.04569 16.4106 4.90269L19.8701 3.47554Z" fill="#080809" style="fill:#080809;fill:color(display-p3 0.0314 0.0314 0.0353);fill-opacity:1;"/>
<path d="M22 18.5003C22 19.3287 21.3284 20.0003 20.5 20.0003C19.6716 20.0003 19 19.3287 19 18.5003C19 17.6718 19.6716 17.0003 20.5 17.0003C21.3284 17.0003 22 17.6718 22 18.5003Z" fill="#080809" style="fill:#080809;fill:color(display-p3 0.0314 0.0314 0.0353);fill-opacity:1;"/>
<path d="M16 22.0003C16.5523 22.0003 17 21.5525 17 21.0003C17 20.448 16.5523 20.0003 16 20.0003C15.4477 20.0003 15 20.448 15 21.0003C15 21.5525 15.4477 22.0003 16 22.0003Z" fill="#080809" style="fill:#080809;fill:color(display-p3 0.0314 0.0314 0.0353);fill-opacity:1;"/>
<path d="M4 8.00025C4 8.55254 3.55228 9.00025 3 9.00025C2.44772 9.00025 2 8.55254 2 8.00025C2 7.44797 2.44772 7.00025 3 7.00025C3.55228 7.00025 4 7.44797 4 8.00025Z" fill="#080809" style="fill:#080809;fill:color(display-p3 0.0314 0.0314 0.0353);fill-opacity:1;"/>
<path d="M5.5 5.00025C6.32843 5.00025 7 4.32868 7 3.50025C7 2.67183 6.32843 2.00025 5.5 2.00025C4.67157 2.00025 4 2.67183 4 3.50025C4 4.32868 4.67157 5.00025 5.5 5.00025Z" fill="#080809" style="fill:#080809;fill:color(display-p3 0.0314 0.0314 0.0353);fill-opacity:1;"/>
</g>
<defs>
<clipPath id="clip0_29901_26783">
<rect width="24" height="24" fill="white" style="fill:white;fill-opacity:1;"/>
</clipPath>
</defs>
</svg>
