<svg width="24" height="24" viewBox="0 0 24 24" fill="none" xmlns="http://www.w3.org/2000/svg">
<g clip-path="url(#clip0_29901_28348)">
<path fill-rule="evenodd" clip-rule="evenodd" d="M12 23.5C5.64873 23.5 0.5 18.3513 0.5 12C0.5 5.64873 5.64873 0.5 12 0.5C18.3513 0.5 23.5 5.64872 23.5 12C23.5 18.3513 18.3513 23.5 12 23.5ZM12.2929 13.7929C12.6834 13.4024 13.3166 13.4024 13.7071 13.7929L14.5 14.5858V7.5C14.5 6.94771 14.9477 6.5 15.5 6.5C16.0523 6.5 16.5 6.94772 16.5 7.5V14.5858L17.2929 13.7929C17.6834 13.4024 18.3166 13.4024 18.7071 13.7929C19.0976 14.1834 19.0976 14.8166 18.7071 15.2071L17.2678 16.6464C16.2915 17.6228 14.7085 17.6228 13.7322 16.6464L12.2929 15.2071C11.9024 14.8166 11.9024 14.1834 12.2929 13.7929ZM5.29289 10.2071C5.68342 10.5976 6.31658 10.5976 6.70711 10.2071L7.50002 9.41419L7.5 16.5005C7.5 17.0527 7.94771 17.5005 8.5 17.5005C9.05228 17.5005 9.5 17.0528 9.5 16.5005L9.50002 9.41424L10.2929 10.2071C10.6834 10.5976 11.3166 10.5976 11.7071 10.2071C12.0976 9.81658 12.0976 9.18342 11.7071 8.79289L10.2678 7.35355C9.29145 6.37724 7.70854 6.37724 6.73223 7.35355L5.29289 8.79289C4.90237 9.18342 4.90237 9.81658 5.29289 10.2071Z" fill="#080809" style="fill:#080809;fill:color(display-p3 0.0314 0.0314 0.0353);fill-opacity:1;"/>
</g>
<defs>
<clipPath id="clip0_29901_28348">
<rect width="24" height="24" fill="white" style="fill:white;fill-opacity:1;"/>
</clipPath>
</defs>
</svg>
