<svg width="24" height="24" viewBox="0 0 24 24" fill="none" xmlns="http://www.w3.org/2000/svg">
<path fill-rule="evenodd" clip-rule="evenodd" d="M11.0015 0.5C10.4492 0.5 10.0015 0.947715 10.0015 1.5C10.0015 2.05228 10.4492 2.5 11.0015 2.5V4H10.5015C9.67304 4 9.00146 4.67157 9.00146 5.5V7.50426C8.67918 7.51023 8.38293 7.52453 8.12117 7.5587C7.62778 7.6231 7.12221 7.77207 6.69447 8.17035C6.26672 8.56863 6.08211 9.06231 5.98272 9.54985C5.89197 9.995 5.85265 10.5462 5.80912 11.1564L5.22892 19.2792C5.17903 19.9767 5.13447 20.5998 5.16778 21.1053C5.204 21.6551 5.33916 22.2273 5.78272 22.7036C6.22629 23.18 6.78734 23.3556 7.33318 23.4309C7.83502 23.5001 8.4597 23.5001 9.15896 23.5H14.8439C15.5431 23.5001 16.1678 23.5001 16.6697 23.4309C17.2155 23.3556 17.7765 23.18 18.2201 22.7036C18.6637 22.2273 18.7988 21.6551 18.8351 21.1053C18.8684 20.5998 18.8238 19.9768 18.7739 19.2793L18.1937 11.1564C18.1502 10.5462 18.1109 9.99499 18.0201 9.54985C17.9207 9.06231 17.7361 8.56863 17.3084 8.17035C16.8806 7.77207 16.3751 7.6231 15.8817 7.5587C15.6199 7.52453 15.3237 7.51023 15.0015 7.50426V5.5C15.0015 4.67157 14.3299 4 13.5015 4H13.0015V2.5H16.1987L17.4468 3.33205C17.9063 3.6384 18.5272 3.51423 18.8335 3.0547C19.1399 2.59517 19.0157 1.9743 18.5562 1.66795L17.1821 0.751925C16.9357 0.587657 16.6462 0.5 16.3501 0.5H11.0015ZM11.0015 7.5V6H13.0015V7.5H11.0015Z" fill="#080809" style="fill:#080809;fill:color(display-p3 0.0314 0.0314 0.0353);fill-opacity:1;"/>
</svg>
