<svg width="24" height="24" viewBox="0 0 24 24" fill="none" xmlns="http://www.w3.org/2000/svg">
<g clip-path="url(#clip0_29901_26768)">
<path fill-rule="evenodd" clip-rule="evenodd" d="M3.19181 19.394L1.29289 21.2929C0.902369 21.6834 0.902369 22.3166 1.29289 22.7071C1.68342 23.0976 2.31658 23.0976 2.70711 22.7071L22.7071 2.70711C23.0976 2.31658 23.0976 1.68342 22.7071 1.29289C22.3166 0.902369 21.6834 0.902369 21.2929 1.29289L19.394 3.19181C17.3954 1.51261 14.8152 0.5 12 0.5C5.64873 0.5 0.5 5.64873 0.5 12C0.5 14.8152 1.51262 17.3954 3.19181 19.394ZM2.5 12C2.5 6.75329 6.75329 2.5 12 2.5C14.2636 2.5 16.341 3.29067 17.9734 4.61243L4.61243 17.9734C3.29067 16.341 2.5 14.2636 2.5 12Z" fill="#080809" style="fill:#080809;fill:color(display-p3 0.0314 0.0314 0.0353);fill-opacity:1;"/>
<path d="M22.379 7.0419C22.1406 6.54371 21.5435 6.33309 21.0453 6.57147C20.5471 6.80985 20.3365 7.40696 20.5749 7.90515C21.1676 9.14388 21.5 10.5317 21.5 12C21.5 13.5908 21.1098 15.0875 20.4207 16.4025C20.1333 16.9511 20.016 17.6177 20.1873 18.2785L20.8554 20.8554L18.2785 20.1873C17.6177 20.016 16.9511 20.1333 16.4025 20.4207C15.0875 21.1098 13.5908 21.5 12 21.5C10.5317 21.5 9.14388 21.1676 7.90515 20.5749C7.40696 20.3365 6.80985 20.5471 6.57147 21.0453C6.33309 21.5435 6.54371 22.1406 7.0419 22.379C8.54438 23.0979 10.2266 23.5 12 23.5C13.9218 23.5 15.7363 23.0278 17.3308 22.1922C17.4973 22.105 17.6559 22.092 17.7765 22.1233L21.1762 23.0047C22.2835 23.2918 23.2918 22.2835 23.0047 21.1762L22.1233 17.7765C22.092 17.6559 22.105 17.4973 22.1922 17.3308C23.0278 15.7363 23.5 13.9218 23.5 12C23.5 10.2266 23.0979 8.54438 22.379 7.0419Z" fill="#080809" style="fill:#080809;fill:color(display-p3 0.0314 0.0314 0.0353);fill-opacity:1;"/>
</g>
<defs>
<clipPath id="clip0_29901_26768">
<rect width="24" height="24" fill="white" style="fill:white;fill-opacity:1;"/>
</clipPath>
</defs>
</svg>
