<svg width="24" height="24" viewBox="0 0 24 24" fill="none" xmlns="http://www.w3.org/2000/svg">
<path d="M13.7501 9.24995C14.6448 9.2669 15.5178 9.96406 15.5001 11.1347C15.4761 12.8072 13.7331 14.2189 12.1935 15.1367C12.0743 15.2077 11.926 15.2077 11.8068 15.1367C10.2672 14.2189 8.52415 12.8071 8.50012 11.1347C8.48248 9.96395 9.35554 9.26889 10.2501 9.25191C10.9702 9.23828 11.486 9.55622 12.0001 10.333C12.5142 9.5563 13.03 9.23634 13.7501 9.24995Z" fill="#080809" style="fill:#080809;fill:color(display-p3 0.0314 0.0314 0.0353);fill-opacity:1;"/>
<path fill-rule="evenodd" clip-rule="evenodd" d="M14.8048 2.06636C14.9804 1.60493 15.4667 1.34082 15.9493 1.44429C19.9337 2.30169 22.9647 4.11254 23.0148 4.14253C23.4092 4.37931 23.5875 4.85153 23.4581 5.28511L23.4288 5.37105L21.4288 10.371C21.2237 10.8836 20.6417 11.1335 20.129 10.9287L19.0001 10.4775V22C19.0001 22.5522 18.5524 23 18.0001 23H6.00012C5.44805 22.9997 5.00014 22.5521 5.00012 22V10.4775L3.87121 10.9287C3.3586 11.1333 2.77642 10.8836 2.57141 10.371L0.571408 5.37105C0.389482 4.91561 0.565081 4.39508 0.985471 4.14253C1.02209 4.12056 4.05817 2.30358 8.05188 1.44429C8.5346 1.3406 9.02074 1.60491 9.19641 2.06636C9.62736 3.19853 10.7215 3.99977 12.0001 3.99995C13.2794 3.99995 14.374 3.19837 14.8048 2.06636ZM16.2814 3.57808C15.4068 5.02747 13.819 5.99995 12.0001 5.99995C10.1813 5.9998 8.59505 5.02693 7.72082 3.57808C5.53 4.13564 3.72114 4.96685 2.76086 5.45698L4.05774 8.70015L4.94348 8.34566L5.12903 8.28511C5.99605 8.06047 6.87377 8.65406 6.98742 9.54292L7.00012 9.73823V21H17.0001V9.73823L17.0128 9.54292C17.1264 8.65419 18.0043 8.06074 18.8712 8.28511L19.0568 8.34566L19.9435 8.70015L21.2404 5.45698C20.2804 4.96694 18.4719 4.13574 16.2814 3.57808Z" fill="#080809" style="fill:#080809;fill:color(display-p3 0.0314 0.0314 0.0353);fill-opacity:1;"/>
</svg>
