<svg width="24" height="24" viewBox="0 0 24 24" fill="none" xmlns="http://www.w3.org/2000/svg">
<path d="M17 6.5C17 7.32843 16.3284 8 15.5 8C14.6716 8 14 7.32843 14 6.5C14 5.67157 14.6716 5 15.5 5C16.3284 5 17 5.67157 17 6.5Z" fill="#080809" style="fill:#080809;fill:color(display-p3 0.0314 0.0314 0.0353);fill-opacity:1;"/>
<path fill-rule="evenodd" clip-rule="evenodd" d="M8 21V22.5C8 23.0523 8.44771 23.5 9 23.5C9.55229 23.5 10 23.0523 10 22.5V21C10.683 21 11.3514 20.9378 12 20.8186V22.5C12 23.0523 12.4477 23.5 13 23.5C13.5523 23.5 14 23.0523 14 22.5V20.2501C18.0973 18.65 21 14.664 21 10V9.11804L22.9472 8.14443C23.286 7.97504 23.5 7.62877 23.5 7.25C23.5 6.87123 23.286 6.52497 22.9472 6.35557L20.7021 5.23299C19.9048 2.77619 17.5971 1 14.8745 1C12.7406 1 10.7605 2.11052 9.64778 3.93134L0.611591 18.7178C0.000767156 19.7174 0.72012 21 1.89151 21H8ZM11.3543 4.97424C12.1038 3.74793 13.4374 3 14.8745 3C17.153 3 19 4.84703 19 7.12546V10C19 14.9706 14.9705 19 9.99999 19H2.78304L4.00526 17H10C10.5523 17 11 16.5523 11 16C11 15.4477 10.5523 15 10 15H5.22749L11.3543 4.97424Z" fill="#080809" style="fill:#080809;fill:color(display-p3 0.0314 0.0314 0.0353);fill-opacity:1;"/>
</svg>
