<svg width="24" height="24" viewBox="0 0 24 24" fill="none" xmlns="http://www.w3.org/2000/svg">
<path d="M16 7.5C16.8284 7.5 17.5 6.82843 17.5 6C17.5 5.17157 16.8284 4.5 16 4.5C15.1716 4.5 14.5 5.17157 14.5 6C14.5 6.82843 15.1716 7.5 16 7.5Z" fill="#080809" style="fill:#080809;fill:color(display-p3 0.0314 0.0314 0.0353);fill-opacity:1;"/>
<path fill-rule="evenodd" clip-rule="evenodd" d="M16 1C13.2386 1 11 3.23858 11 6V8C11 9.10457 10.1046 10 9 10H3C2.44772 10 2 10.4477 2 11C2 12.4222 2.2969 13.7751 2.83209 15H2.44737C1.37187 15 0.5 15.8719 0.5 16.9474C0.5 20.2901 3.20986 23 6.55263 23H17.4474C20.7901 23 23.5 20.2901 23.5 16.9474C23.5 15.8719 22.6281 15 21.5526 15H20.6118C20.8641 14.193 21 13.3346 21 12.4444V9.11804L22.9472 8.14443C23.286 7.97504 23.5 7.62877 23.5 7.25C23.5 6.87123 23.286 6.52497 22.9472 6.35557L20.9597 5.36179C20.6462 2.90175 18.5452 1 16 1ZM18.4832 15C18.816 14.2147 19 13.3511 19 12.4444V6C19 4.34315 17.6569 3 16 3C14.3431 3 13 4.34315 13 6V8C13 10.2091 11.2091 12 9 12H4.06189C4.19681 13.0819 4.54778 14.0968 5.07026 15H18.4832ZM6.55263 21C4.33199 21 2.52851 19.214 2.50033 17H21.4997C21.4715 19.2139 19.668 21 17.4474 21H6.55263Z" fill="#080809" style="fill:#080809;fill:color(display-p3 0.0314 0.0314 0.0353);fill-opacity:1;"/>
</svg>
