<svg width="24" height="24" viewBox="0 0 24 24" fill="none" xmlns="http://www.w3.org/2000/svg">
<path d="M15.5 9L15.7041 9.01074C16.7128 9.113 17.5 9.96435 17.5 11V13C17.5 14.1046 16.6046 15 15.5 15H14.5V9H15.5Z" fill="#080809" style="fill:#080809;fill:color(display-p3 0.0314 0.0314 0.0353);fill-opacity:1;"/>
<path fill-rule="evenodd" clip-rule="evenodd" d="M12 1C14.3285 1 16.1755 0.998339 17.6191 1.19238C19.0916 1.39035 20.2932 1.80881 21.2422 2.75781C22.1912 3.70681 22.6096 4.9084 22.8076 6.38086C23.0017 7.82449 23 9.67147 23 12C23 14.3285 23.0017 16.1755 22.8076 17.6191C22.6096 19.0916 22.1912 20.2932 21.2422 21.2422C20.2932 22.1912 19.0916 22.6096 17.6191 22.8076C16.1755 23.0017 14.3285 23 12 23C9.67147 23 7.82449 23.0017 6.38086 22.8076C4.9084 22.6096 3.70681 22.1912 2.75781 21.2422C1.80881 20.2932 1.39035 19.0916 1.19238 17.6191C0.998339 16.1755 1 14.3285 1 12C1 9.67147 0.998339 7.82449 1.19238 6.38086C1.39035 4.9084 1.80881 3.70681 2.75781 2.75781C3.70681 1.80881 4.9084 1.39035 6.38086 1.19238C7.82449 0.998339 9.67147 1 12 1ZM10.5 7C9.94772 7 9.5 7.44772 9.5 8V11H7V8C7 7.44772 6.55229 7 6 7C5.44772 7 5 7.44772 5 8V16C5 16.5523 5.44772 17 6 17C6.55229 17 7 16.5523 7 16V13H9.5V16C9.5 16.5523 9.94772 17 10.5 17C11.0523 17 11.5 16.5523 11.5 16V8C11.5 7.44772 11.0523 7 10.5 7ZM14 7C13.1716 7 12.5 7.67157 12.5 8.5V15.5C12.5 16.3284 13.1716 17 14 17H15.5C17.7091 17 19.5 15.2091 19.5 13V11C19.5 8.85996 17.8194 7.11212 15.7061 7.00488L15.5 7H14Z" fill="#080809" style="fill:#080809;fill:color(display-p3 0.0314 0.0314 0.0353);fill-opacity:1;"/>
</svg>
