<svg width="24" height="24" viewBox="0 0 24 24" fill="none" xmlns="http://www.w3.org/2000/svg">
<g clip-path="url(#clip0_29901_28412)">
<path d="M0.5 15.9977C0.5 18.0471 2.04132 19.7366 4.02802 19.9701C4.26257 21.9557 5.95152 23.4959 8.0002 23.4959C10.2093 23.4959 12.0002 21.705 12.0002 19.4959L12.0002 16.9117L16.9617 11.9503L19.4751 11.9503C21.6842 11.9503 23.4751 10.1594 23.4751 7.95031C23.4751 5.90783 21.9443 4.2229 19.9673 3.9803C19.7126 2.01669 18.0338 0.5 16.0008 0.5C13.7917 0.5 12.0008 2.29086 12.0008 4.5V7.0831L7.08596 11.9977H4.5C2.29086 11.9977 0.5 13.7885 0.5 15.9977Z" fill="#080809" style="fill:#080809;fill:color(display-p3 0.0314 0.0314 0.0353);fill-opacity:1;"/>
</g>
<defs>
<clipPath id="clip0_29901_28412">
<rect width="24" height="24" fill="white" style="fill:white;fill-opacity:1;"/>
</clipPath>
</defs>
</svg>
