<svg width="24" height="24" viewBox="0 0 24 24" fill="none" xmlns="http://www.w3.org/2000/svg">
<path fill-rule="evenodd" clip-rule="evenodd" d="M7.92943 1H16.0706C17.4247 0.999967 18.5413 0.999939 19.4251 1.11876C20.3529 1.2435 21.1723 1.51547 21.8284 2.17158C22.4845 2.82769 22.7565 3.64711 22.8813 4.57494C23.0001 5.45869 23 6.5753 23 7.92942V16.0705C23 17.4247 23.0001 18.5413 22.8813 19.4251C22.7565 20.3529 22.4845 21.1723 21.8284 21.8284C21.1723 22.4845 20.3529 22.7565 19.4251 22.8813C18.5413 23.0001 17.4247 23 16.0706 23H7.92946C6.57535 23 5.45869 23.0001 4.57494 22.8813C3.64711 22.7565 2.82769 22.4845 2.17158 21.8284C1.51547 21.1723 1.2435 20.3529 1.11876 19.4251C0.999939 18.5413 0.999967 17.4247 1 16.0706V7.92943C0.999967 6.57533 0.999939 5.45869 1.11876 4.57494C1.2435 3.64711 1.51547 2.82769 2.17158 2.17158C2.82769 1.51547 3.64711 1.2435 4.57494 1.11876C5.45869 0.999939 6.57533 0.999967 7.92943 1ZM3 16V9H21V16C21 17.4425 20.9979 18.4238 20.8991 19.1586C20.8042 19.8646 20.6368 20.1916 20.4142 20.4142C20.1916 20.6368 19.8646 20.8042 19.1586 20.8991C18.4238 20.9979 17.4425 21 16 21H8C6.55752 21 5.57626 20.9979 4.84144 20.8991C4.13538 20.8042 3.80836 20.6368 3.58579 20.4142C3.36322 20.1916 3.19585 19.8646 3.10092 19.1586C3.00213 18.4238 3 17.4425 3 16ZM5 6C5.55229 6 6 5.55229 6 5C6 4.44772 5.55229 4 5 4C4.44772 4 4 4.44772 4 5C4 5.55229 4.44772 6 5 6ZM7 5C7 4.44772 7.44772 4 8 4C8.55229 4 9 4.44772 9 5C9 5.55229 8.55229 6 8 6C7.44772 6 7 5.55229 7 5Z" fill="#080809" style="fill:#080809;fill:color(display-p3 0.0314 0.0314 0.0353);fill-opacity:1;"/>
</svg>
