<svg width="24" height="24" viewBox="0 0 24 24" fill="none" xmlns="http://www.w3.org/2000/svg">
<path fill-rule="evenodd" clip-rule="evenodd" d="M0.5 10C0.5 6.13401 3.63401 3 7.5 3H16.5C20.366 3 23.5 6.13401 23.5 10V17.2485C23.5 19.3204 21.8204 21 19.7485 21C18.6667 21 17.6376 20.533 16.9253 19.7189L15.1438 17.683C14.7641 17.249 14.2154 17 13.6387 17H10.3613C9.78458 17 9.23593 17.249 8.85615 17.683L7.07474 19.7189C6.36238 20.533 5.33325 21 4.25147 21C2.17959 21 0.5 19.3204 0.5 17.2485V10ZM7 8C7.55228 8 8 8.44772 8 9V10H9C9.55228 10 10 10.4477 10 11C10 11.5523 9.55228 12 9 12H8V13C8 13.5523 7.55228 14 7 14C6.44772 14 6 13.5523 6 13V12H5C4.44772 12 4 11.5523 4 11C4 10.4477 4.44772 10 5 10H6V9C6 8.44772 6.44772 8 7 8ZM16.75 9.5C16.75 10.1904 16.1904 10.75 15.5 10.75C14.8096 10.75 14.25 10.1904 14.25 9.5C14.25 8.80964 14.8096 8.25 15.5 8.25C16.1904 8.25 16.75 8.80964 16.75 9.5ZM18.5 13.75C19.1904 13.75 19.75 13.1904 19.75 12.5C19.75 11.8096 19.1904 11.25 18.5 11.25C17.8096 11.25 17.25 11.8096 17.25 12.5C17.25 13.1904 17.8096 13.75 18.5 13.75Z" fill="#080809" style="fill:#080809;fill:color(display-p3 0.0314 0.0314 0.0353);fill-opacity:1;"/>
</svg>
