<svg width="24" height="24" viewBox="0 0 24 24" fill="none" xmlns="http://www.w3.org/2000/svg">
<g clip-path="url(#clip0_29901_28053)">
<path fill-rule="evenodd" clip-rule="evenodd" d="M0.5 12C0.5 5.64873 5.64873 0.5 12 0.5C18.3513 0.5 23.5 5.64873 23.5 12C23.5 18.3513 18.3513 23.5 12 23.5C5.64873 23.5 0.5 18.3513 0.5 12ZM6.99805 9.5C6.99805 8.94772 7.44576 8.5 7.99805 8.5C8.55033 8.5 8.99805 8.94772 8.99805 9.5C8.99805 10.0523 9.44576 10.5 9.99805 10.5C10.5503 10.5 10.998 10.0523 10.998 9.5C10.998 7.84315 9.6549 6.5 7.99805 6.5C6.34119 6.5 4.99805 7.84315 4.99805 9.5C4.99805 10.0523 5.44576 10.5 5.99805 10.5C6.55033 10.5 6.99805 10.0523 6.99805 9.5ZM14.998 9.5C14.998 8.94772 15.4458 8.5 15.998 8.5C16.5503 8.5 16.998 8.94772 16.998 9.5C16.998 10.0523 17.4458 10.5 17.998 10.5C18.5503 10.5 18.998 10.0523 18.998 9.5C18.998 7.84315 17.6549 6.5 15.998 6.5C14.3412 6.5 12.998 7.84315 12.998 9.5C12.998 10.0523 13.4458 10.5 13.998 10.5C14.5503 10.5 14.998 10.0523 14.998 9.5ZM18.7641 14.8713C19.0556 13.9969 18.4969 13.0689 17.5877 12.9174L16.1105 12.6712C13.3893 12.2177 10.6117 12.2177 7.89052 12.6712L6.41328 12.9174C5.50409 13.0689 4.94538 13.9969 5.23685 14.8713L5.35971 15.2399C7.48701 21.6218 16.514 21.6218 18.6413 15.2399L18.7641 14.8713Z" fill="#080809" style="fill:#080809;fill:color(display-p3 0.0314 0.0314 0.0353);fill-opacity:1;"/>
</g>
<defs>
<clipPath id="clip0_29901_28053">
<rect width="24" height="24" fill="white" style="fill:white;fill-opacity:1;"/>
</clipPath>
</defs>
</svg>
