<svg width="24" height="24" viewBox="0 0 24 24" fill="none" xmlns="http://www.w3.org/2000/svg">
<path d="M12 1C11.3096 1 10.75 1.55964 10.75 2.25L10.75 10.9881C10.407 10.6445 10.0644 10.3009 9.72145 9.95689C9.19405 9.42789 8.66567 8.8979 8.13388 8.36611C7.64572 7.87796 6.85427 7.87796 6.36611 8.36612C5.87796 8.85428 5.87796 9.64573 6.36612 10.1339C6.89097 10.6587 7.41785 11.1872 7.94552 11.7165C8.6497 12.4228 9.3553 13.1305 10.0594 13.8329C11.1333 14.9043 12.8692 14.8993 13.9391 13.8298C14.6395 13.1298 15.3401 12.4287 16.0404 11.728L16.0427 11.7257C16.5733 11.1948 17.1038 10.664 17.6339 10.1339C18.122 9.64574 18.122 8.85428 17.6339 8.36612C17.1457 7.87796 16.3543 7.87796 15.8661 8.36611C15.3364 8.89584 14.8074 9.42516 14.2785 9.95432L14.2743 9.95856C13.9329 10.3002 13.5915 10.6418 13.25 10.9834L13.25 2.25C13.25 1.55964 12.6904 1 12 1Z" fill="#080809" style="fill:#080809;fill:color(display-p3 0.0314 0.0314 0.0353);fill-opacity:1;"/>
<path d="M1 16.8055V16.2499C1 15.5596 1.55965 14.9999 2.25 14.9999C2.94036 14.9999 3.5 15.5595 3.5 16.2499L3.5 16.7499C3.5 17.7075 3.5012 18.3422 3.54514 18.827C3.58752 19.2946 3.66164 19.4988 3.73446 19.6249C3.88805 19.8909 4.10897 20.1119 4.375 20.2654C4.50112 20.3383 4.7053 20.4124 5.17293 20.4548C5.65774 20.4987 6.29238 20.4999 7.25 20.4999H16.75C17.7076 20.4999 18.3423 20.4987 18.8271 20.4548C19.2947 20.4124 19.4989 20.3383 19.625 20.2654C19.891 20.1119 20.112 19.8909 20.2655 19.6249C20.3384 19.4988 20.4125 19.2946 20.4549 18.827C20.4988 18.3422 20.5 17.7075 20.5 16.7499V16.2499C20.5 15.5595 21.0596 14.9999 21.75 14.9999C22.4404 14.9999 23 15.5595 23 16.2499V16.8055C23 17.6927 23 18.4415 22.9447 19.0526C22.8866 19.6937 22.7597 20.3049 22.4306 20.8749C22.0576 21.521 21.5211 22.0575 20.875 22.4305C20.305 22.7596 19.6938 22.8865 19.0527 22.9446C18.4416 23 17.6928 22.9999 16.8056 22.9999H7.19442C6.30716 22.9999 5.55839 23 4.94727 22.9446C4.30624 22.8865 3.69504 22.7596 3.125 22.4305C2.47892 22.0575 1.94241 21.521 1.5694 20.8749C1.24029 20.3049 1.11345 19.6937 1.05535 19.0526C0.999959 18.4415 0.999978 17.6927 1 16.8055Z" fill="#080809" style="fill:#080809;fill:color(display-p3 0.0314 0.0314 0.0353);fill-opacity:1;"/>
</svg>
