<svg width="24" height="24" viewBox="0 0 24 24" fill="none" xmlns="http://www.w3.org/2000/svg">
<path fill-rule="evenodd" clip-rule="evenodd" d="M3 2C3 1.44772 2.55228 1 2 1C1.44772 1 1 1.44772 1 2C1 7.35726 4.82973 11.82 9.90079 12.7999L7.19034 15.7363C6.31616 16.6833 6.30518 18.1397 7.16497 19.0998L10.5102 22.8353C11.3051 23.7229 12.6951 23.7229 13.49 22.8353L16.8352 19.0998C17.695 18.1397 17.684 16.6833 16.8099 15.7363L14.0994 12.7999C19.1703 11.8199 23 7.3572 23 2C23 1.44772 22.5523 1 22 1C21.4477 1 21 1.44772 21 2C21 6.97056 16.9706 11 12 11C7.02944 11 3 6.97056 3 2ZM8.65994 17.0928L12.0001 13.4743L15.3402 17.0928C15.5151 17.2822 15.5173 17.5735 15.3453 17.7655L12.0001 21.501L8.65487 17.7655C8.48291 17.5735 8.48511 17.2822 8.65994 17.0928Z" fill="#080809" style="fill:#080809;fill:color(display-p3 0.0314 0.0314 0.0353);fill-opacity:1;"/>
</svg>
