<svg width="24" height="24" viewBox="0 0 24 24" fill="none" xmlns="http://www.w3.org/2000/svg">
<path d="M8.28028 1.77419C8.1899 1.37037 8.30185 0.930387 8.61612 0.616117C9.10427 0.127961 9.89573 0.127961 10.3839 0.616117L11.8839 2.11612C12.2414 2.47361 12.3483 3.01126 12.1549 3.47835C11.9614 3.94545 11.5056 4.25 11 4.25C9.07905 4.25 7.76408 4.25265 6.77747 4.3853C5.82683 4.51311 5.37028 4.74063 5.05546 5.05546C4.74063 5.37028 4.51311 5.82683 4.3853 6.77747C4.25266 7.76408 4.25 9.07904 4.25 11V13C4.25 14.921 4.25266 16.2359 4.3853 17.2225C4.51311 18.1732 4.74063 18.6297 5.05546 18.9445C5.49584 19.3849 6.19481 19.639 8.05187 19.7161C8.74163 19.7448 9.27757 20.3271 9.24893 21.0169C9.22028 21.7067 8.6379 22.2426 7.94813 22.214C6.06059 22.1356 4.46365 21.8883 3.28769 20.7123C2.43095 19.8556 2.07268 18.7835 1.9076 17.5556C1.74993 16.3829 1.74996 14.8989 1.75 13.0891L1.75 10.911C1.74996 9.10117 1.74993 7.61706 1.9076 6.44435C2.07268 5.21649 2.43095 4.14444 3.28769 3.28769C4.14444 2.43094 5.21649 2.07268 6.44436 1.90759C6.98876 1.8344 7.60025 1.79519 8.28028 1.77419Z" fill="#080809" style="fill:#080809;fill:color(display-p3 0.0314 0.0314 0.0353);fill-opacity:1;"/>
<path d="M14.7511 2.9831C14.7224 3.67286 15.2584 4.25524 15.9481 4.28389C17.8052 4.36101 18.5042 4.61507 18.9445 5.05546C19.2594 5.37028 19.4869 5.82683 19.6147 6.77747C19.7473 7.76408 19.75 9.07904 19.75 11V13C19.75 14.921 19.7473 16.2359 19.6147 17.2225C19.4869 18.1732 19.2594 18.6297 18.9445 18.9445C18.6297 19.2594 18.1732 19.4869 17.2225 19.6147C16.2359 19.7473 14.921 19.75 13 19.75C12.4944 19.75 12.0386 20.0546 11.8452 20.5216C11.6517 20.9887 11.7586 21.5264 12.1161 21.8839L13.6161 23.3839C14.1043 23.872 14.8957 23.872 15.3839 23.3839C15.6982 23.0696 15.8101 22.6296 15.7197 22.2258C16.3997 22.2048 17.0112 22.1656 17.5556 22.0924C18.7835 21.9273 19.8556 21.5691 20.7123 20.7123C21.5691 19.8556 21.9273 18.7835 22.0924 17.5556C22.2501 16.3829 22.25 14.8989 22.25 13.089V10.911C22.25 9.10112 22.2501 7.61709 22.0924 6.44435C21.9273 5.21649 21.5691 4.14444 20.7123 3.28769C19.5364 2.11173 17.9394 1.86443 16.0519 1.78604C15.3621 1.75739 14.7797 2.29333 14.7511 2.9831Z" fill="#080809" style="fill:#080809;fill:color(display-p3 0.0314 0.0314 0.0353);fill-opacity:1;"/>
<path d="M12 7C12.6904 7 13.25 7.55964 13.25 8.25V10.75H15.75C16.4404 10.75 17 11.3096 17 12C17 12.6904 16.4404 13.25 15.75 13.25H13.25V15.75C13.25 16.4404 12.6904 17 12 17C11.3096 17 10.75 16.4404 10.75 15.75V13.25H8.25C7.55965 13.25 7 12.6904 7 12C7 11.3096 7.55965 10.75 8.25 10.75H10.75V8.25C10.75 7.55964 11.3096 7 12 7Z" fill="#080809" style="fill:#080809;fill:color(display-p3 0.0314 0.0314 0.0353);fill-opacity:1;"/>
</svg>
