<svg width="24" height="24" viewBox="0 0 24 24" fill="none" xmlns="http://www.w3.org/2000/svg">
<path d="M19 16.9998C19 16.4475 18.5523 15.9998 18 15.9998H10C9.44771 15.9998 9 16.4475 9 16.9998C9 17.552 9.44771 17.9998 10 17.9998H18C18.5523 17.9998 19 17.552 19 16.9998Z" fill="#080809" style="fill:#080809;fill:color(display-p3 0.0314 0.0314 0.0353);fill-opacity:1;"/>
<path d="M18 11.9998C18.5523 11.9998 19 12.4475 19 12.9998C19 13.552 18.5523 13.9998 18 13.9998H10C9.44771 13.9998 9 13.552 9 12.9998C9 12.4475 9.44771 11.9998 10 11.9998H18Z" fill="#080809" style="fill:#080809;fill:color(display-p3 0.0314 0.0314 0.0353);fill-opacity:1;"/>
<path d="M9 6.99976C9 8.10433 9.89543 8.99976 11 8.99976C12.1046 8.99976 13 8.10433 13 6.99976C13 5.89519 12.1046 4.99976 11 4.99976C9.89543 4.99976 9 5.89519 9 6.99976Z" fill="#080809" style="fill:#080809;fill:color(display-p3 0.0314 0.0314 0.0353);fill-opacity:1;"/>
<path fill-rule="evenodd" clip-rule="evenodd" d="M5 5.99976V3.99996L4.9999 3.90689C4.99928 3.53817 4.99868 3.17576 5.08518 2.85291C5.31635 1.99018 5.99022 1.31632 6.85295 1.08515C7.17579 0.998642 7.5382 0.999245 7.90692 0.999859L8 0.999962H20.5C21.8807 0.999962 23 2.11925 23 3.49996V14.0731C23 15.8966 23 17.3663 22.8446 18.5223C22.6833 19.7224 22.3381 20.7329 21.5355 21.5355C20.733 22.3381 19.7225 22.6832 18.5223 22.8446C17.3664 23 15.8966 23 14.0731 23H4C2.34314 23 1 21.6566 1 19.9998V8.49976C1 7.11904 2.11929 5.99976 3.5 5.99976H5ZM7.4986 3.00531C7.61063 3.0002 7.75844 2.99996 8 2.99996H20.5C20.7761 2.99996 21 3.22382 21 3.49996V14C21 15.9138 20.9979 17.2487 20.8625 18.2558C20.7309 19.2342 20.4903 19.7523 20.1213 20.1213C19.7523 20.4903 19.2342 20.7309 18.2558 20.8624C17.2487 20.9978 15.9139 21 14 21H6.82929C6.92603 20.7263 6.98417 20.4344 6.9972 20.1308C6.99906 20.0874 7 20.0438 7 20C7 20 7 19.9999 7 20L7 6.99976C7 6.9991 7 6.99844 7 6.99778V3.99996C7 3.75841 7.00024 3.61059 7.00535 3.49857C7.00963 3.40478 7.01619 3.37406 7.01704 3.37055C7.06327 3.19801 7.19804 3.06323 7.37059 3.017C7.36685 3.018 7.39195 3.01018 7.4986 3.00531ZM5 7.99976V19.9998C5 20.003 4.99998 20.0064 4.99995 20.0096C4.99469 20.5573 4.54901 20.9998 4 20.9998C3.44772 20.9998 3 20.552 3 19.9998V8.49976C3 8.22361 3.22386 7.99976 3.5 7.99976H5Z" fill="#080809" style="fill:#080809;fill:color(display-p3 0.0314 0.0314 0.0353);fill-opacity:1;"/>
</svg>
