<svg width="24" height="24" viewBox="0 0 24 24" fill="none" xmlns="http://www.w3.org/2000/svg">
<path fill-rule="evenodd" clip-rule="evenodd" d="M12.0748 23C14.3683 23 16.1914 23 17.6196 22.808C19.0921 22.6101 20.2936 22.1916 21.2426 21.2426C22.1916 20.2936 22.6101 19.0921 22.808 17.6196C22.9394 16.6427 22.9809 15.4811 22.994 14.1105C22.998 14.0742 23 14.0374 23 14C23 13.9685 22.9985 13.9374 22.9957 13.9066C23 13.3324 23 12.7223 23 12.0748V11.9252C23 9.63169 23 7.80857 22.808 6.38039C22.6101 4.90794 22.1916 3.70636 21.2426 2.75736C20.2936 1.80836 19.0921 1.38994 17.6196 1.19198C16.1914 0.999961 14.3683 0.999978 12.0748 1H11.9252C9.63167 0.999979 7.8086 0.999962 6.38039 1.19198C4.90794 1.38994 3.70636 1.80836 2.75736 2.75736C1.80836 3.70636 1.38994 4.90794 1.19198 6.3804C0.999961 7.8086 0.999978 9.63167 1 11.9252V12.0748C0.999994 12.7223 0.999989 13.3324 1.0043 13.9066C1.00146 13.9374 1 13.9685 1 14C1 14.0374 1.00205 14.0743 1.00604 14.1106C1.01914 15.4811 1.06064 16.6427 1.19198 17.6196C1.38994 19.0921 1.80836 20.2936 2.75736 21.2426C3.70636 22.1916 4.90794 22.6101 6.3804 22.808C7.80859 23 9.63165 23 11.9252 23H12.0748ZM3.02037 15C3.04166 15.9203 3.08518 16.6914 3.17414 17.3531C3.34229 18.6038 3.65611 19.313 4.17158 19.8284C4.68704 20.3439 5.39621 20.6577 6.64689 20.8259C7.92634 20.9979 9.61471 21 12 21C14.3853 21 16.0737 20.9979 17.3531 20.8259C18.6038 20.6577 19.313 20.3439 19.8284 19.8284C20.3439 19.313 20.6577 18.6038 20.8259 17.3531C20.9148 16.6914 20.9583 15.9203 20.9796 15H17.5C17.2771 15 16.903 15.2228 16.6784 15.8211C15.9129 17.8611 13.9379 19 12 19C10.0621 19 8.08715 17.8611 7.32158 15.8211C7.09703 15.2228 6.72294 15 6.5 15L3.02037 15ZM3.00066 13L6.5 13C7.93392 13 8.83648 14.1656 9.19407 15.1184C9.63407 16.2909 10.7985 17 12 17C13.2015 17 14.3659 16.2909 14.8059 15.1184C15.1635 14.1656 16.0661 13 17.5 13H20.9993C21 12.6809 21 12.3479 21 12C21 9.61471 20.9979 7.92634 20.8259 6.64689C20.6577 5.39621 20.3439 4.68704 19.8284 4.17157C19.313 3.65611 18.6038 3.34229 17.3531 3.17414C16.0737 3.00212 14.3853 3 12 3C9.61471 3 7.92634 3.00212 6.64689 3.17414C5.39621 3.34229 4.68704 3.65611 4.17157 4.17158C3.65611 4.68704 3.34229 5.39621 3.17414 6.64689C3.00212 7.92634 3 9.61471 3 12C3 12.3479 3.00005 12.6809 3.00066 13Z" fill="#080809" style="fill:#080809;fill:color(display-p3 0.0314 0.0314 0.0353);fill-opacity:1;"/>
</svg>
