<svg width="24" height="24" viewBox="0 0 24 24" fill="none" xmlns="http://www.w3.org/2000/svg">
<g clip-path="url(#clip0_29901_27793)">
<path fill-rule="evenodd" clip-rule="evenodd" d="M23.4962 11.7032C23.3388 5.48908 18.252 0.5 12 0.5C5.64873 0.5 0.5 5.64873 0.5 12L0.500235 12.0744C0.537614 17.9763 5.0209 22.8234 10.7694 23.4349C10.8359 23.442 10.9026 23.4485 10.9694 23.4545C11.3091 23.4847 11.6529 23.5001 12 23.5001C12.3199 23.5001 12.6368 23.487 12.9504 23.4613C13.0257 23.4551 13.1009 23.4482 13.1758 23.4406C18.8781 22.8615 23.3488 18.1164 23.4962 12.2968C23.4986 12.2043 23.4998 12.1116 23.5 12.0186L23.5 12.0001C23.5 11.9008 23.4987 11.8018 23.4962 11.7032ZM15 21.0166V19.0001C15 17.3432 16.3431 16.0001 18 16.0001H20.6193C19.524 18.3562 17.4911 20.1881 15 21.0166ZM3.38068 16.0001H6C7.65685 16.0001 9 17.3432 9 19.0001V21.0166C6.50886 20.1881 4.47596 18.3562 3.38068 16.0001ZM21.0166 9.00007H20.4853C19.1592 9.00007 17.8874 8.47329 16.9497 7.5356C14.2161 4.80193 9.78392 4.80193 7.05025 7.5356C6.11257 8.47329 4.8408 9.00007 3.51472 9.00007H2.98338C4.23929 5.22346 7.8016 2.5 12 2.5C16.1984 2.5 19.7607 5.22346 21.0166 9.00007ZM12 9.5C10.6193 9.5 9.5 10.6193 9.5 12C9.5 13.3807 10.6193 14.5 12 14.5C13.3807 14.5 14.5 13.3807 14.5 12C14.5 10.6193 13.3807 9.5 12 9.5Z" fill="#080809" style="fill:#080809;fill:color(display-p3 0.0314 0.0314 0.0353);fill-opacity:1;"/>
</g>
<defs>
<clipPath id="clip0_29901_27793">
<rect width="24" height="24" fill="white" style="fill:white;fill-opacity:1;"/>
</clipPath>
</defs>
</svg>
