<svg width="24" height="24" viewBox="0 0 24 24" fill="none" xmlns="http://www.w3.org/2000/svg">
<path d="M18.5 15C18.5 15.8284 17.8284 16.5 17 16.5C16.1716 16.5 15.5 15.8284 15.5 15C15.5 14.1716 16.1716 13.5 17 13.5C17.8284 13.5 18.5 14.1716 18.5 15Z" fill="#080809" style="fill:#080809;fill:color(display-p3 0.0314 0.0314 0.0353);fill-opacity:1;"/>
<path d="M7 16.5C7.82843 16.5 8.5 15.8284 8.5 15C8.5 14.1716 7.82843 13.5 7 13.5C6.17157 13.5 5.5 14.1716 5.5 15C5.5 15.8284 6.17157 16.5 7 16.5Z" fill="#080809" style="fill:#080809;fill:color(display-p3 0.0314 0.0314 0.0353);fill-opacity:1;"/>
<path fill-rule="evenodd" clip-rule="evenodd" d="M15.0706 1H8.92943C7.57533 0.999967 6.45869 0.999939 5.57494 1.11876C4.64711 1.2435 3.82769 1.51547 3.17158 2.17158C2.51547 2.82769 2.2435 3.64711 2.11876 4.57494C1.99994 5.45869 1.99997 6.57529 2 7.92939V16.032C1.99999 16.4706 1.99998 16.8492 2.02135 17.1624C2.04386 17.4922 2.09336 17.8221 2.22836 18.1481C2.40232 18.568 2.66752 18.9387 3 19.2361V22C3 22.5523 3.44772 23 4 23H6C6.55229 23 7 22.5523 7 22V20H17V22C17 22.5523 17.4477 23 18 23H20C20.5523 23 21 22.5523 21 22V19.2361C21.3325 18.9387 21.5977 18.568 21.7716 18.1481C21.9066 17.8221 21.9562 17.4922 21.9787 17.1624C22 16.8491 22 16.4706 22 16.032V7.92946C22 6.57538 22.0001 5.45868 21.8813 4.57494C21.7565 3.64711 21.4845 2.82769 20.8284 2.17158C20.1723 1.51547 19.3529 1.2435 18.4251 1.11876C17.5413 0.999939 16.4247 0.999967 15.0706 1ZM4 16V12H20V16C20 16.4796 19.9995 16.7893 19.9833 17.0262C19.9677 17.2542 19.9411 17.3411 19.9239 17.3827C19.8224 17.6277 19.6277 17.8224 19.3827 17.9239C19.3411 17.9411 19.2542 17.9677 19.0262 17.9833C18.7893 17.9995 18.4796 18 18 18H6C5.52038 18 5.21074 17.9995 4.97376 17.9833C4.74577 17.9677 4.65893 17.9411 4.61732 17.9239C4.37229 17.8224 4.17762 17.6277 4.07612 17.3827C4.05889 17.3411 4.03227 17.2542 4.01671 17.0262C4.00055 16.7893 4 16.4796 4 16ZM4 10H20V8C20 7.43312 19.9997 6.93746 19.9933 6.5H4.00673C4.00033 6.93746 4 7.43311 4 8V10ZM4.15817 4.5C4.25695 4.02267 4.40269 3.76889 4.58579 3.58579C4.80836 3.36322 5.13538 3.19585 5.84144 3.10092C6.57626 3.00213 7.55752 3 9 3H15C16.4425 3 17.4238 3.00213 18.1586 3.10092C18.8646 3.19585 19.1916 3.36322 19.4142 3.58579C19.5973 3.76889 19.7431 4.02267 19.8418 4.5H4.15817Z" fill="#080809" style="fill:#080809;fill:color(display-p3 0.0314 0.0314 0.0353);fill-opacity:1;"/>
</svg>
