<svg width="24" height="24" viewBox="0 0 24 24" fill="none" xmlns="http://www.w3.org/2000/svg">
<path fill-rule="evenodd" clip-rule="evenodd" d="M9.42684 3H14.5732C16.3966 2.99997 17.8664 2.99995 19.0223 3.15537C20.2225 3.31672 21.233 3.66191 22.0355 4.46447C22.8381 5.26702 23.1833 6.27752 23.3446 7.47767C23.5001 8.63363 23.5 10.1034 23.5 11.9269V12.0731C23.5 13.8966 23.5001 15.3664 23.3446 16.5223C23.1833 17.7225 22.8381 18.733 22.0355 19.5355C21.233 20.3381 20.2225 20.6833 19.0223 20.8446C17.8664 21.0001 16.3966 21 14.5731 21H9.42687C7.6034 21 6.13363 21.0001 4.97767 20.8446C3.77752 20.6833 2.76702 20.3381 1.96447 19.5355C1.16191 18.733 0.816722 17.7225 0.655367 16.5223C0.499954 15.3664 0.499975 13.8966 0.500001 12.0732V11.9268C0.499975 10.1034 0.499954 8.63362 0.655367 7.47767C0.816722 6.27752 1.16191 5.26702 1.96447 4.46447C2.76702 3.66191 3.77752 3.31672 4.97767 3.15537C6.13362 2.99995 7.6034 2.99997 9.42684 3ZM5.58136 8.1865C5.13196 7.86546 4.50741 7.96952 4.18637 8.41892C3.86534 8.86832 3.9694 9.49287 4.4188 9.8139L7.97679 12.3556C8.7799 12.9294 9.45033 13.4083 10.0414 13.7368C10.666 14.0839 11.2877 14.3139 12 14.3139C12.7123 14.3139 13.334 14.0839 13.9586 13.7368C14.5497 13.4083 15.2201 12.9294 16.0232 12.3557L19.5813 9.81391C20.0307 9.49288 20.1348 8.86833 19.8138 8.41893C19.4928 7.96953 18.8682 7.86546 18.4188 8.18649L14.9064 10.6956C14.0457 11.3104 13.4673 11.7218 12.9871 11.9886C12.5293 12.243 12.2492 12.3139 12 12.3139C11.7508 12.3139 11.4707 12.243 11.0129 11.9886C10.5328 11.7218 9.95432 11.3104 9.09364 10.6955L5.58136 8.1865Z" fill="#080809" style="fill:#080809;fill:color(display-p3 0.0314 0.0314 0.0353);fill-opacity:1;"/>
</svg>
