<svg width="24" height="24" viewBox="0 0 24 24" fill="none" xmlns="http://www.w3.org/2000/svg">
<path d="M7.5 0.5C6.94772 0.5 6.5 0.947715 6.5 1.5C6.5 2.05228 6.94772 2.5 7.5 2.5H18.5C19.0537 2.5 19.5 2.94697 19.5 3.49787V17.25C19.5 17.8023 19.9477 18.25 20.5 18.25C21.0523 18.25 21.5 17.8023 21.5 17.25V3.49787C21.5 1.83962 20.1555 0.5 18.5 0.5H7.5Z" fill="#080809" style="fill:#080809;fill:color(display-p3 0.0314 0.0314 0.0353);fill-opacity:1;"/>
<path d="M2 7C2 5.34315 3.34315 4 5 4H15C16.6569 4 18 5.34315 18 7V21C18 23.0601 15.6481 24.2361 14 23L10.3 20.225C10.1222 20.0917 9.87778 20.0917 9.7 20.225L6 23C4.35191 24.2361 2 23.0601 2 21V7Z" fill="#080809" style="fill:#080809;fill:color(display-p3 0.0314 0.0314 0.0353);fill-opacity:1;"/>
</svg>
