<svg width="24" height="24" viewBox="0 0 24 24" fill="none" xmlns="http://www.w3.org/2000/svg">
<path d="M12 6C11.4477 6 11 6.44772 11 7C11 7.55229 11.4477 8 12 8H18C18.5523 8 19 7.55229 19 7C19 6.44772 18.5523 6 18 6H12Z" fill="#080809" style="fill:#080809;fill:color(display-p3 0.0314 0.0314 0.0353);fill-opacity:1;"/>
<path d="M9 7C9 8.10457 8.10457 9 7 9C5.89543 9 5 8.10457 5 7C5 5.89543 5.89543 5 7 5C8.10457 5 9 5.89543 9 7Z" fill="#080809" style="fill:#080809;fill:color(display-p3 0.0314 0.0314 0.0353);fill-opacity:1;"/>
<path fill-rule="evenodd" clip-rule="evenodd" d="M12.0748 1H11.9252C9.63165 0.999978 7.80859 0.999961 6.38039 1.19198C4.90794 1.38994 3.70636 1.80836 2.75736 2.75736C1.80836 3.70636 1.38994 4.90794 1.19198 6.38039C1.02753 7.60355 1.00393 9.11633 1.00056 10.9662C1.00019 10.9775 1 10.9887 1 11V17C1 18.6538 1.66912 20.1514 2.7514 21.2367L2.75736 21.2426L2.76357 21.2488C3.84886 22.331 5.34631 23 7 23H12.1241C12.4615 23 12.7761 22.8299 12.9608 22.5476C13.1456 22.2652 13.1755 21.9088 13.0404 21.5996C12.6932 20.8048 12.5 19.9263 12.5 19C12.5 15.4101 15.4101 12.5 19 12.5C19.9263 12.5 20.8048 12.6932 21.5996 13.0404C21.9088 13.1755 22.2652 13.1456 22.5476 12.9608C22.8299 12.7761 23 12.4615 23 12.1241V11C23 10.9887 22.9998 10.9775 22.9994 10.9663C22.9961 9.11637 22.9725 7.60357 22.808 6.38039C22.6101 4.90794 22.1916 3.70636 21.2426 2.75736C20.2936 1.80836 19.0921 1.38994 17.6196 1.19198C16.1914 0.999961 14.3683 0.999978 12.0748 1ZM3.00539 10H20.9946C20.9828 8.62086 20.9453 7.53529 20.8259 6.64689C20.6577 5.39621 20.3439 4.68704 19.8284 4.17157C19.313 3.65611 18.6038 3.34229 17.3531 3.17414C16.0737 3.00213 14.3853 3 12 3C9.61471 3 7.92634 3.00213 6.64689 3.17414C5.39621 3.34229 4.68704 3.65611 4.17157 4.17157C3.65611 4.68704 3.34229 5.39621 3.17414 6.64689C3.0547 7.53529 3.01717 8.62086 3.00539 10Z" fill="#080809" style="fill:#080809;fill:color(display-p3 0.0314 0.0314 0.0353);fill-opacity:1;"/>
<path d="M16.018 15C15.962 14.9991 15.9052 15.0028 15.8479 15.0116C15.3021 15.0956 14.9276 15.6062 15.0116 16.1521L16.0116 22.6521C16.0956 23.1979 16.6062 23.5724 17.1521 23.4884C17.6979 23.4044 18.0724 22.8938 17.9884 22.3479L17.6273 20.0007L21.5951 20.0036C22.1527 20.004 22.5157 19.4176 22.2668 18.9187L21.5589 17.5002L22.2663 16.0854C22.5156 15.5867 22.153 15 21.5955 15H16.018Z" fill="#080809" style="fill:#080809;fill:color(display-p3 0.0314 0.0314 0.0353);fill-opacity:1;"/>
</svg>
