<svg width="24" height="24" viewBox="0 0 24 24" fill="none" xmlns="http://www.w3.org/2000/svg">
<path fill-rule="evenodd" clip-rule="evenodd" d="M9.42684 3H9.57317C11.3966 2.99997 12.8664 2.99995 14.0223 3.15537C15.2225 3.31672 16.233 3.66191 17.0355 4.46447C17.8381 5.26702 18.1833 6.27752 18.3446 7.47767C18.3909 7.8221 18.4235 8.19439 18.4463 8.59559L21.1449 6.72309C22.1396 6.03289 23.5 6.74475 23.5 7.95548V16.0122C23.5 17.2414 22.1025 17.9488 21.1119 17.221L18.4536 15.268C18.4306 15.7215 18.3962 16.1392 18.3446 16.5223C18.1833 17.7225 17.8381 18.733 17.0355 19.5355C16.233 20.3381 15.2225 20.6833 14.0223 20.8446C12.8664 21.0001 11.3966 21 9.57314 21H9.42687C7.6034 21 6.13363 21.0001 4.97767 20.8446C3.77752 20.6833 2.76702 20.3381 1.96447 19.5355C1.16191 18.733 0.816722 17.7225 0.655367 16.5223C0.499954 15.3664 0.499975 13.8966 0.500001 12.0732V11.9268C0.499975 10.1034 0.499954 8.63362 0.655367 7.47767C0.816722 6.27752 1.16191 5.26702 1.96447 4.46447C2.76702 3.66191 3.77752 3.31672 4.97767 3.15537C6.13362 2.99995 7.6034 2.99997 9.42684 3ZM10.5 8C10.5 7.44772 10.0523 7 9.5 7C8.94772 7 8.5 7.44772 8.5 8V11H5.5C4.94772 11 4.5 11.4477 4.5 12C4.5 12.5523 4.94772 13 5.5 13H8.5V16C8.5 16.5523 8.94772 17 9.5 17C10.0523 17 10.5 16.5523 10.5 16V13H13.5C14.0523 13 14.5 12.5523 14.5 12C14.5 11.4477 14.0523 11 13.5 11H10.5V8Z" fill="#080809" style="fill:#080809;fill:color(display-p3 0.0314 0.0314 0.0353);fill-opacity:1;"/>
</svg>
