<svg width="24" height="24" viewBox="0 0 24 24" fill="none" xmlns="http://www.w3.org/2000/svg">
<path fill-rule="evenodd" clip-rule="evenodd" d="M10.7495 22C10.7495 22.69 11.3095 23.25 11.9995 23.25C12.6895 23.25 13.2495 22.69 13.2495 22V21.2437C15.1565 21.1487 16.8805 19.9934 17.6877 18.245C18.3277 16.859 18.3247 15.27 17.6767 13.886C17.0287 12.502 15.8117 11.481 14.3367 11.084L13.2495 10.7915V5.40282C14.7091 5.7739 15.4583 6.69679 15.5077 6.759C15.9237 7.304 16.7017 7.413 17.2507 7C17.8037 6.586 17.9147 5.802 17.5007 5.25C17.4341 5.1606 16.0126 3.30762 13.2495 2.85101V2C13.2495 1.31 12.6895 0.75 11.9995 0.75C11.3095 0.75 10.7495 1.31 10.7495 2V2.75C8.886 2.75045 7.21055 3.78736 6.37573 5.455C5.71673 6.774 5.68473 8.302 6.28873 9.647C6.89273 10.992 8.05573 11.983 9.47873 12.367L10.7495 12.7089V18.6099C8.92595 18.18 8.10758 16.9126 8.07273 16.857C7.71673 16.264 6.95073 16.074 6.35673 16.428C5.76473 16.784 5.57373 17.551 5.92773 18.144C5.99564 18.2566 7.46878 20.6479 10.7495 21.1557V22ZM10.7495 10.1188V5.25C9.839 5.25045 9.02055 5.75736 8.61173 6.572C8.28973 7.217 8.27373 7.964 8.56973 8.622C8.86473 9.279 9.43273 9.764 10.1297 9.952L10.7495 10.1188ZM13.2495 13.3816V18.7386C14.1848 18.6478 15.0179 18.0638 15.4177 17.198C15.7487 16.482 15.7457 15.661 15.4117 14.946C15.0767 14.231 14.4477 13.704 13.6857 13.499L13.2495 13.3816Z" fill="#080809" style="fill:#080809;fill:color(display-p3 0.0314 0.0314 0.0353);fill-opacity:1;"/>
</svg>
