<svg width="24" height="24" viewBox="0 0 24 24" fill="none" xmlns="http://www.w3.org/2000/svg">
<path d="M5.45926 3.69229C5.94742 4.18044 5.94742 4.9719 5.45926 5.46006C3.78397 7.13534 2.75 9.44613 2.75 12.0008C2.75 14.5555 3.78397 16.8662 5.45926 18.5415C5.94742 19.0297 5.94742 19.8211 5.45926 20.3093C4.97111 20.7975 4.17965 20.7975 3.6915 20.3093C1.56653 18.1843 0.25 15.2451 0.25 12.0008C0.25 8.75647 1.56653 5.81725 3.6915 3.69229C4.17965 3.20413 4.97111 3.20413 5.45926 3.69229Z" fill="#080809" style="fill:#080809;fill:color(display-p3 0.0314 0.0314 0.0353);fill-opacity:1;"/>
<path d="M18.5407 3.69229C19.0289 3.20413 19.8204 3.20413 20.3085 3.69229C22.4335 5.81725 23.75 8.75647 23.75 12.0008C23.75 15.2451 22.4335 18.1843 20.3085 20.3093C19.8204 20.7975 19.0289 20.7975 18.5407 20.3093C18.0526 19.8211 18.0526 19.0297 18.5407 18.5415C20.216 16.8662 21.25 14.5555 21.25 12.0008C21.25 9.44613 20.216 7.13534 18.5407 5.46006C18.0526 4.9719 18.0526 4.18044 18.5407 3.69229Z" fill="#080809" style="fill:#080809;fill:color(display-p3 0.0314 0.0314 0.0353);fill-opacity:1;"/>
<path d="M8.28769 6.52066C8.77584 7.00881 8.77584 7.80027 8.28769 8.28842C7.33626 9.23986 6.75 10.5506 6.75 12.0007C6.75 13.4508 7.33626 14.7616 8.28769 15.713C8.77584 16.2012 8.77584 16.9927 8.28769 17.4808C7.79953 17.969 7.00808 17.969 6.51992 17.4808C5.11882 16.0797 4.25 14.1405 4.25 12.0007C4.25 9.86098 5.11882 7.92176 6.51992 6.52066C7.00808 6.0325 7.79953 6.0325 8.28769 6.52066Z" fill="#080809" style="fill:#080809;fill:color(display-p3 0.0314 0.0314 0.0353);fill-opacity:1;"/>
<path d="M15.7123 6.52066C16.2005 6.0325 16.9919 6.0325 17.4801 6.52066C18.8812 7.92176 19.75 9.86098 19.75 12.0007C19.75 14.1405 18.8812 16.0797 17.4801 17.4808C16.9919 17.969 16.2005 17.969 15.7123 17.4808C15.2242 16.9927 15.2242 16.2012 15.7123 15.713C16.6637 14.7616 17.25 13.4508 17.25 12.0007C17.25 10.5506 16.6637 9.23986 15.7123 8.28842C15.2242 7.80027 15.2242 7.00881 15.7123 6.52066Z" fill="#080809" style="fill:#080809;fill:color(display-p3 0.0314 0.0314 0.0353);fill-opacity:1;"/>
<path d="M12 14.0007C13.1046 14.0007 14 13.1053 14 12.0007C14 10.8962 13.1046 10.0007 12 10.0007C10.8954 10.0007 10 10.8962 10 12.0007C10 13.1053 10.8954 14.0007 12 14.0007Z" fill="#080809" style="fill:#080809;fill:color(display-p3 0.0314 0.0314 0.0353);fill-opacity:1;"/>
</svg>
