<svg width="24" height="24" viewBox="0 0 24 24" fill="none" xmlns="http://www.w3.org/2000/svg">
<path fill-rule="evenodd" clip-rule="evenodd" d="M9.92684 1H14.0732C15.8966 0.999975 17.3664 0.999954 18.5223 1.15537C19.7225 1.31672 20.733 1.66191 21.5355 2.46447C22.3381 3.26702 22.6833 4.27752 22.8446 5.47767C23.0001 6.63363 23 8.1034 23 9.92687V14.0731C23 15.8966 23.0001 17.3664 22.8446 18.5223C22.6833 19.7225 22.3381 20.733 21.5355 21.5355C20.733 22.3381 19.7225 22.6833 18.5223 22.8446C17.3664 23.0001 15.8966 23 14.0731 23H9.92687C8.1034 23 6.63363 23.0001 5.47767 22.8446C4.27752 22.6833 3.26702 22.3381 2.46447 21.5355C1.66191 20.733 1.31672 19.7225 1.15537 18.5223C0.999954 17.3664 0.999975 15.8966 1 14.0732V9.92682C0.999975 8.10338 0.999954 6.63362 1.15537 5.47767C1.31672 4.27752 1.66191 3.26702 2.46447 2.46447C3.26702 1.66191 4.27752 1.31672 5.47767 1.15537C6.63362 0.999954 8.1034 0.999975 9.92684 1ZM11.5 5C10.9477 5 10.5 5.44772 10.5 6V18C10.5 18.5523 10.9477 19 11.5 19H12.5C13.0523 19 13.5 18.5523 13.5 18V6C13.5 5.44772 13.0523 5 12.5 5H11.5ZM6.5 10C5.94772 10 5.5 10.4477 5.5 11V18C5.5 18.5523 5.94772 19 6.5 19H7.5C8.05229 19 8.5 18.5523 8.5 18V11C8.5 10.4477 8.05229 10 7.5 10H6.5ZM15.5 9C15.5 8.44772 15.9477 8 16.5 8H17.5C18.0523 8 18.5 8.44772 18.5 9V18C18.5 18.5523 18.0523 19 17.5 19H16.5C15.9477 19 15.5 18.5523 15.5 18V9Z" fill="#080809" style="fill:#080809;fill:color(display-p3 0.0314 0.0314 0.0353);fill-opacity:1;"/>
</svg>
