<svg width="24" height="24" viewBox="0 0 24 24" fill="none" xmlns="http://www.w3.org/2000/svg">
<path fill-rule="evenodd" clip-rule="evenodd" d="M10.518 2.00014L10.6569 2.00028H13.3432L13.482 2.00014C14.1608 1.9991 14.7632 1.99817 15.3196 2.22864C15.876 2.45911 16.3014 2.88576 16.7806 3.36649L16.8787 3.46475L17.4142 4.00028C18.3711 4.00026 19.1612 4.00045 19.8008 4.06254C20.4689 4.12739 21.0777 4.26711 21.6299 4.61448C22.1374 4.93371 22.5666 5.36294 22.8858 5.87041C23.2332 6.42262 23.3729 7.03136 23.4377 7.69949C23.5 8.34122 23.5 9.13437 23.5 10.0956V15.0708C23.5 16.4249 23.5001 17.5416 23.3813 18.4253C23.2565 19.3532 22.9845 20.1726 22.3284 20.8287C21.6723 21.4848 20.8529 21.7568 19.9251 21.8815C19.0413 22.0003 17.9247 22.0003 16.5706 22.0003H7.42946C6.07535 22.0003 4.95869 22.0003 4.07494 21.8815C3.14711 21.7568 2.32769 21.4848 1.67158 20.8287C1.01547 20.1726 0.7435 19.3532 0.618757 18.4253C0.499941 17.5416 0.499968 16.425 0.500001 15.0709V10.0956C0.499986 9.13444 0.499974 8.3412 0.562264 7.69949C0.62712 7.03136 0.76683 6.42262 1.1142 5.87041C1.43344 5.36293 1.86266 4.93371 2.37013 4.61448C2.92234 4.26711 3.53109 4.12739 4.19922 4.06254C4.83883 4.00045 5.62887 4.00026 6.58579 4.00028L7.12133 3.46475L7.21939 3.36648C7.69864 2.88576 8.12398 2.45911 8.68038 2.22864C9.23679 1.99817 9.83923 1.9991 10.518 2.00014ZM15 11.2501H15.438C14.8594 9.92561 13.5378 9 12 9C11.1312 9 10.334 9.29419 9.69855 9.78901C9.26279 10.1283 8.63447 10.0501 8.29516 9.61438C7.95585 9.17862 8.03403 8.5503 8.46979 8.21099C9.44402 7.45239 10.6706 7 12 7C14.6567 7 16.8926 8.8018 17.5524 11.2501H18C18.4045 11.2501 18.7691 11.4937 18.9239 11.8674C19.0787 12.2411 18.9931 12.6712 18.7071 12.9572L17.5607 14.1036C16.9749 14.6894 16.0252 14.6894 15.4394 14.1036L14.2929 12.9572C14.0069 12.6712 13.9214 12.2411 14.0762 11.8674C14.2309 11.4937 14.5956 11.2501 15 11.2501ZM6.00003 14.2499H6.4476C7.10735 16.6982 9.34326 18.5 12 18.5C13.3294 18.5 14.556 18.0476 15.5302 17.289C15.966 16.9497 16.0442 16.3214 15.7048 15.8856C15.3655 15.4499 14.7372 15.3717 14.3015 15.711C13.666 16.2058 12.8688 16.5 12 16.5C10.4622 16.5 9.14065 15.5744 8.562 14.2499H9.00003C9.40449 14.2499 9.76913 14.0063 9.92391 13.6326C10.0787 13.2589 9.99313 12.8288 9.70714 12.5428L8.56069 11.3964C7.9749 10.8106 7.02516 10.8106 6.43937 11.3964L5.29292 12.5428C5.00693 12.8288 4.92137 13.2589 5.07615 13.6326C5.23093 14.0063 5.59557 14.2499 6.00003 14.2499Z" fill="#080809" style="fill:#080809;fill:color(display-p3 0.0314 0.0314 0.0353);fill-opacity:1;"/>
</svg>
