<svg width="24" height="24" viewBox="0 0 24 24" fill="none" xmlns="http://www.w3.org/2000/svg">
<g clip-path="url(#clip0_29901_26054)">
<path d="M0.5 12C0.5 5.64873 5.64873 0.5 12 0.5C18.3513 0.5 23.5 5.64873 23.5 12C23.5 12.3366 23.4855 12.6701 23.4571 12.9999C23.4096 13.5501 22.9251 13.9577 22.3749 13.9103C21.8246 13.8628 21.417 13.3783 21.4645 12.828C21.488 12.5554 21.5 12.2792 21.5 12C21.5 6.75329 17.2467 2.5 12 2.5C6.75329 2.5 2.5 6.75329 2.5 12C2.5 13.5908 2.89021 15.0875 3.57929 16.4025C3.86675 16.9511 3.98403 17.6177 3.81272 18.2785L3.14463 20.8554L5.72155 20.1873C6.38232 20.016 7.04889 20.1333 7.59747 20.4207C8.91247 21.1098 10.4092 21.5 12 21.5C12.2792 21.5 12.5554 21.488 12.828 21.4645C13.3783 21.417 13.8628 21.8246 13.9103 22.3749C13.9577 22.9251 13.5501 23.4096 12.9999 23.4571C12.6701 23.4855 12.3366 23.5 12 23.5C10.0782 23.5 8.26373 23.0278 6.66917 22.1922C6.50272 22.105 6.34411 22.092 6.22347 22.1233L2.82376 23.0047C1.71647 23.2918 0.708248 22.2835 0.995321 21.1762L1.87673 17.7765C1.908 17.6559 1.89499 17.4973 1.80777 17.3308C0.972204 15.7363 0.5 13.9218 0.5 12Z" fill="#080809" style="fill:#080809;fill:color(display-p3 0.0314 0.0314 0.0353);fill-opacity:1;"/>
<path fill-rule="evenodd" clip-rule="evenodd" d="M19 14.5C17.7574 14.5 16.75 15.5074 16.75 16.75V18.0207C16.0406 18.1398 15.5 18.7568 15.5 19.5V21.5C15.5 22.3284 16.1716 23 17 23H21C21.8284 23 22.5 22.3284 22.5 21.5V19.5C22.5 18.7568 21.9594 18.1398 21.25 18.0207V16.75C21.25 15.5074 20.2426 14.5 19 14.5ZM19.75 18V16.75C19.75 16.3358 19.4142 16 19 16C18.5858 16 18.25 16.3358 18.25 16.75V18H19.75Z" fill="#080809" style="fill:#080809;fill:color(display-p3 0.0314 0.0314 0.0353);fill-opacity:1;"/>
<path d="M18.0593 10.5711C18.3112 10.2451 18.2817 9.7827 17.9903 9.49139C17.7073 9.20835 17.2611 9.17143 16.9354 9.40408L13.9999 11.5009L10.9234 9.32932C10.2672 8.86612 9.36263 9.00203 8.8715 9.6376L5.94044 13.4307C5.68854 13.7567 5.71806 14.2191 6.00937 14.5104C6.29241 14.7934 6.73859 14.8304 7.06431 14.5977L9.99986 12.5009L13.0763 14.6725C13.7325 15.1357 14.6371 14.9998 15.1282 14.3642L18.0593 10.5711Z" fill="#080809" style="fill:#080809;fill:color(display-p3 0.0314 0.0314 0.0353);fill-opacity:1;"/>
</g>
<defs>
<clipPath id="clip0_29901_26054">
<rect width="24" height="24" fill="white" style="fill:white;fill-opacity:1;"/>
</clipPath>
</defs>
</svg>
