<svg width="24" height="24" viewBox="0 0 24 24" fill="none" xmlns="http://www.w3.org/2000/svg">
<path d="M15.7071 5.79289C16.0976 6.18342 16.0976 6.81658 15.7071 7.20711L13.4142 9.5L15.7071 11.7929C16.0976 12.1834 16.0976 12.8166 15.7071 13.2071C15.3166 13.5976 14.6834 13.5976 14.2929 13.2071L12 10.9142L9.70711 13.2071C9.31658 13.5976 8.68342 13.5976 8.29289 13.2071C7.90237 12.8166 7.90237 12.1834 8.29289 11.7929L10.5858 9.5L8.29289 7.20711C7.90237 6.81658 7.90237 6.18342 8.29289 5.79289C8.68342 5.40237 9.31658 5.40237 9.70711 5.79289L12 8.08579L14.2929 5.79289C14.6834 5.40237 15.3166 5.40237 15.7071 5.79289Z" fill="#080809" style="fill:#080809;fill:color(display-p3 0.0314 0.0314 0.0353);fill-opacity:1;"/>
<path d="M3 9.5C3 4.52944 7.02944 0.5 12 0.5C16.9706 0.5 21 4.52944 21 9.5C21 12.1395 19.6487 14.9223 18.1412 17.2364C16.6123 19.5833 14.8163 21.6064 13.7233 22.7583C12.7803 23.7519 11.2197 23.7519 10.2767 22.7583C9.18369 21.6064 7.3877 19.5833 5.8588 17.2364C4.35131 14.9223 3 12.1395 3 9.5ZM12 2.5C8.13401 2.5 5 5.63401 5 9.5C5 11.5357 6.07726 13.9076 7.53458 16.1447C8.9705 18.3489 10.6756 20.2731 11.7275 21.3815C11.8818 21.5442 12.1182 21.5442 12.2725 21.3815C13.3244 20.2731 15.0295 18.3489 16.4654 16.1447C17.9227 13.9076 19 11.5357 19 9.5C19 5.63401 15.866 2.5 12 2.5Z" fill="#080809" style="fill:#080809;fill:color(display-p3 0.0314 0.0314 0.0353);fill-opacity:1;"/>
</svg>
