<svg width="24" height="24" viewBox="0 0 24 24" fill="none" xmlns="http://www.w3.org/2000/svg">
<path d="M15.7456 9.49995C16.4359 9.49995 16.9956 8.94031 16.9956 8.24995C16.9956 7.55959 16.4359 6.99995 15.7456 6.99995C15.0552 6.99995 14.4956 7.55959 14.4956 8.24995C14.4956 8.94031 15.0552 9.49995 15.7456 9.49995Z" fill="#080809" style="fill:#080809;fill:color(display-p3 0.0314 0.0314 0.0353);fill-opacity:1;"/>
<path d="M5.74995 15.5C6.44031 15.5 6.99995 14.9403 6.99995 14.25C6.99995 13.5596 6.44031 13 5.74995 13C5.05959 13 4.49995 13.5596 4.49995 14.25C4.49995 14.9403 5.05959 15.5 5.74995 15.5Z" fill="#080809" style="fill:#080809;fill:color(display-p3 0.0314 0.0314 0.0353);fill-opacity:1;"/>
<path fill-rule="evenodd" clip-rule="evenodd" d="M12.3535 2.3535L13.8762 3.87622C14.7861 3.3203 15.8556 2.99995 17 2.99995C20.3137 2.99995 23 5.68624 23 8.99995V22C23 22.5522 22.5522 23 22 23H18C16.0413 23 14.2705 22.1955 13 20.8989V22C13 22.5522 12.5522 23 12 23H7.99995C4.13396 23 0.99995 19.8659 0.99995 16V15C0.99995 13.8556 1.3203 12.7861 1.87622 11.8762L0.853504 10.8535C0.538521 10.5385 0.761605 9.99995 1.20706 9.99995H2.99995V8.20706C2.99995 7.7616 3.53852 7.53852 3.8535 7.8535L5.25702 9.25702C5.8086 9.08984 6.39378 8.99995 6.99995 8.99995C8.53666 8.99995 9.93844 9.57766 11 10.5277V8.99995C11 8.39378 11.0898 7.8086 11.257 7.25702L9.3535 5.3535C9.03852 5.03852 9.2616 4.49995 9.70706 4.49995H11.5V2.70706C11.5 2.2616 12.0385 2.03852 12.3535 2.3535ZM13 16C13 18.7614 15.2385 21 18 21H21V8.99995C21 6.79081 19.2091 4.99995 17 4.99995C14.7908 4.99995 13 6.79081 13 8.99995V16ZM11 15C11 12.7908 9.20909 11 6.99995 11C4.79081 11 2.99995 12.7908 2.99995 15V16C2.99995 18.7614 5.23853 21 7.99995 21H11V15Z" fill="#080809" style="fill:#080809;fill:color(display-p3 0.0314 0.0314 0.0353);fill-opacity:1;"/>
</svg>
