<svg width="24" height="24" viewBox="0 0 24 24" fill="none" xmlns="http://www.w3.org/2000/svg">
<path fill-rule="evenodd" clip-rule="evenodd" d="M17.22 4C15.26 4 13.72 5.49 12.33 7.38C10.45 4.99 8.88 4.05 7.02 4.01V4H6.9C2.99 4 0 9.1 0 14.49C0 17.78 1.55 19.87 4.15 19.98V19.99C4.22 20 4.29 20 4.36 20C6.32 20 7.73 19.07 10.24 14.67C10.24 14.67 11.29 12.82 12.01 11.54C12.26 11.95 12.52 12.39 12.8 12.86L13.98 14.85C16.24 18.65 17.52 19.96 19.78 20H19.86C22.52 20 24 17.84 24 14.39C24 8.74 20.94 4 17.22 4ZM8.98 12.45C8.56 13.11 8.33 13.48 8.33 13.48C6.29 16.68 5.59 17.4 4.45 17.4C3.29 17.4 2.6 16.37 2.6 14.54C2.6 10.62 4.54 6.62 6.86 6.62C8.12 6.62 9.17 7.34 10.78 9.65C10.02 10.82 9.4 11.78 8.98 12.45ZM19.92 17.4C18.76 17.4 18.21 16.63 16.01 13.08L14.6 10.72C14.22 10.1 13.85 9.53 13.5 9.01C14.77 7.04 15.82 6.06 17.06 6.06C19.64 6.06 21.71 9.88 21.71 14.57C21.71 16.36 21.13 17.4 19.92 17.4Z" fill="#080809" style="fill:#080809;fill:color(display-p3 0.0314 0.0314 0.0353);fill-opacity:1;"/>
</svg>
