<svg width="24" height="24" viewBox="0 0 24 24" fill="none" xmlns="http://www.w3.org/2000/svg">
<path d="M17 7C17 6.44772 16.5523 6 16 6C15.4477 6 15 6.44772 15 7V8C15 8.55228 15.4477 9 16 9C16.5523 9 17 8.55228 17 8V7Z" fill="#080809" style="fill:#080809;fill:color(display-p3 0.0314 0.0314 0.0353);fill-opacity:1;"/>
<path d="M16 10.5C16.5523 10.5 17 10.9477 17 11.5V12.5C17 13.0523 16.5523 13.5 16 13.5C15.4477 13.5 15 13.0523 15 12.5V11.5C15 10.9477 15.4477 10.5 16 10.5Z" fill="#080809" style="fill:#080809;fill:color(display-p3 0.0314 0.0314 0.0353);fill-opacity:1;"/>
<path d="M17 16C17 15.4477 16.5523 15 16 15C15.4477 15 15 15.4477 15 16V17C15 17.5523 15.4477 18 16 18C16.5523 18 17 17.5523 17 17V16Z" fill="#080809" style="fill:#080809;fill:color(display-p3 0.0314 0.0314 0.0353);fill-opacity:1;"/>
<path fill-rule="evenodd" clip-rule="evenodd" d="M23.5 5.5C23.5 4.11929 22.3807 3 21 3H3C1.61929 3 0.5 4.11929 0.5 5.5V8.19527C0.5 9.21213 1.23644 9.89219 1.86861 10.1977C2.54019 10.5223 3 11.2084 3 12C3 12.7916 2.54019 13.4777 1.86861 13.8023C1.23644 14.1078 0.5 14.7879 0.5 15.8047V18.5C0.5 19.8807 1.61929 21 3 21H21C22.3807 21 23.5 19.8807 23.5 18.5V15.8047C23.5 14.7879 22.7636 14.1078 22.1314 13.8023C21.4598 13.4777 21 12.7916 21 12C21 11.2084 21.4598 10.5223 22.1314 10.1977C22.7636 9.89219 23.5 9.21213 23.5 8.19527V5.5ZM21 5C21.2761 5 21.5 5.22386 21.5 5.5V8.19222C21.498 8.19829 21.4916 8.21271 21.4733 8.23629C21.4349 8.28571 21.3628 8.34782 21.2611 8.39697C19.9251 9.04266 19 10.4123 19 12C19 13.5877 19.9251 14.9573 21.2611 15.603C21.3628 15.6522 21.4349 15.7143 21.4733 15.7637C21.4916 15.7873 21.498 15.8017 21.5 15.8078V18.5C21.5 18.7761 21.2761 19 21 19H3C2.72386 19 2.5 18.7761 2.5 18.5V15.8078C2.50196 15.8017 2.50835 15.7873 2.52667 15.7637C2.56506 15.7143 2.63718 15.6522 2.73887 15.603C4.07493 14.9573 5 13.5877 5 12C5 10.4123 4.07493 9.04266 2.73887 8.39697C2.63718 8.34782 2.56506 8.28571 2.52667 8.23629C2.50835 8.21271 2.50196 8.19829 2.5 8.19222V5.5C2.5 5.22386 2.72386 5 3 5H21ZM2.5 15.8078C2.49981 15.8097 2.49934 15.8112 2.49925 15.8111L2.5 15.8078Z" fill="#080809" style="fill:#080809;fill:color(display-p3 0.0314 0.0314 0.0353);fill-opacity:1;"/>
</svg>
