<svg width="24" height="24" viewBox="0 0 24 24" fill="none" xmlns="http://www.w3.org/2000/svg">
<path d="M14 4.6222C14 2.39493 11.3071 1.27952 9.73223 2.85443L5.58716 6.99951H3.5C1.84315 6.99951 0.5 8.34265 0.5 9.99951V13.9995C0.5 15.6564 1.84315 16.9995 3.5 16.9995H5.58441L9.73223 21.1473C11.3071 22.7222 14 21.6068 14 19.3796V19.0001C14 18.4478 13.5523 18.0001 13 18.0001C12.4477 18.0001 12 18.4478 12 19.0001V19.3796C12 19.825 11.4614 20.0481 11.1464 19.7331L6.70573 15.2924C6.5182 15.1049 6.26384 14.9995 5.99863 14.9995H3.5C2.94772 14.9995 2.5 14.5518 2.5 13.9995V9.99951C2.5 9.44722 2.94772 8.99951 3.5 8.99951H6.00137C6.26659 8.99951 6.52094 8.89415 6.70848 8.70661L11.1464 4.26865C11.4614 3.95366 12 4.17675 12 4.6222V11.0009C12 11.5532 12.4477 12.0009 13 12.0009C13.5523 12.0009 14 11.5532 14 11.0009V4.6222Z" fill="#080809" style="fill:#080809;fill:color(display-p3 0.0314 0.0314 0.0353);fill-opacity:1;"/>
<path d="M14 15C14 13.3431 15.3431 12 17 12C17.3506 12 17.6872 12.0602 18 12.1707V7.5C18 6.67157 18.6716 6 19.5 6H22.5C23.0523 6 23.5 6.44772 23.5 7V9C23.5 9.55228 23.0523 10 22.5 10H20V15C20 16.6569 18.6569 18 17 18C15.3431 18 14 16.6569 14 15Z" fill="#080809" style="fill:#080809;fill:color(display-p3 0.0314 0.0314 0.0353);fill-opacity:1;"/>
</svg>
