<svg width="24" height="24" viewBox="0 0 24 24" fill="none" xmlns="http://www.w3.org/2000/svg">
<path fill-rule="evenodd" clip-rule="evenodd" d="M3 20C1.61929 20 0.5 18.8807 0.5 17.5V9.5C0.5 8.11929 1.61929 7 3 7H6.59699C8.67203 5.07511 11.4019 4 14.2426 4H15.0823C15.7441 4 16.405 4.05054 17.0591 4.15117L21.0547 4.76588C22.4615 4.98231 23.5 6.1928 23.5 7.61617C23.5 9.20887 22.2089 10.5 20.6162 10.5H18.6693C18.7221 10.7417 18.75 10.9927 18.75 11.25C18.75 12.2234 18.3522 13.1035 17.7125 13.737C17.7372 13.9047 17.75 14.0761 17.75 14.25C17.75 15.3409 17.2505 16.3143 16.4707 16.9553C16.2475 18.6732 14.7787 20 13 20H3ZM6 9H3C2.72386 9 2.5 9.22386 2.5 9.5V17.5C2.5 17.7761 2.72386 18 3 18H6V9ZM8 8.42678L8 18H13C13.8284 18 14.5 17.3284 14.5 16.5C14.5 16.483 14.4997 16.4661 14.4992 16.4492C14.487 16.0804 14.679 15.735 14.9985 15.5504C15.4499 15.2897 15.75 14.8043 15.75 14.25C15.75 14.0606 15.7154 13.8816 15.653 13.7175C15.4844 13.2736 15.6511 12.7724 16.052 12.518C16.4737 12.2503 16.75 11.7821 16.75 11.25C16.75 10.8408 16.5875 10.4716 16.3213 10.2C16.0394 9.91251 15.9575 9.48396 16.1134 9.11273C16.2693 8.7415 16.6327 8.5 17.0354 8.5L20.6162 8.5C21.1043 8.5 21.5 8.1043 21.5 7.61617C21.5 7.17994 21.1817 6.80895 20.7506 6.74262L16.755 6.12791C16.2015 6.04276 15.6423 6 15.0823 6H14.2426C11.9268 6 9.70054 6.86914 8 8.42678Z" fill="#080809" style="fill:#080809;fill:color(display-p3 0.0314 0.0314 0.0353);fill-opacity:1;"/>
</svg>
