<svg width="24" height="24" viewBox="0 0 24 24" fill="none" xmlns="http://www.w3.org/2000/svg">
<g clip-path="url(#clip0_29901_27939)">
<path fill-rule="evenodd" clip-rule="evenodd" d="M12 0.5C5.64873 0.5 0.5 5.64873 0.5 12C0.5 18.3513 5.64873 23.5 12 23.5C13.0069 23.5 13.7675 22.9024 14.092 22.1089C14.4069 21.3388 14.3078 20.4104 13.7533 19.6711L13.4 19.2C12.4111 17.8815 13.3519 16 15 16H19.828C21.5356 16 23.3172 14.8556 23.4668 12.8795C23.4888 12.589 23.5 12.2957 23.5 12C23.5 5.64873 18.3513 0.5 12 0.5ZM13.5 5.5C13.5 6.32843 12.8284 7 12 7C11.1716 7 10.5 6.32843 10.5 5.5C10.5 4.67157 11.1716 4 12 4C12.8284 4 13.5 4.67157 13.5 5.5ZM17 10.5C17.8284 10.5 18.5 9.82843 18.5 9C18.5 8.17157 17.8284 7.5 17 7.5C16.1716 7.5 15.5 8.17157 15.5 9C15.5 9.82843 16.1716 10.5 17 10.5ZM8.5 9C8.5 9.82843 7.82843 10.5 7 10.5C6.17157 10.5 5.5 9.82843 5.5 9C5.5 8.17157 6.17157 7.5 7 7.5C7.82843 7.5 8.5 8.17157 8.5 9ZM7 16.5C7.82843 16.5 8.5 15.8284 8.5 15C8.5 14.1716 7.82843 13.5 7 13.5C6.17157 13.5 5.5 14.1716 5.5 15C5.5 15.8284 6.17157 16.5 7 16.5Z" fill="#080809" style="fill:#080809;fill:color(display-p3 0.0314 0.0314 0.0353);fill-opacity:1;"/>
</g>
<defs>
<clipPath id="clip0_29901_27939">
<rect width="24" height="24" fill="white" style="fill:white;fill-opacity:1;"/>
</clipPath>
</defs>
</svg>
