<svg width="24" height="24" viewBox="0 0 24 24" fill="none" xmlns="http://www.w3.org/2000/svg">
<path fill-rule="evenodd" clip-rule="evenodd" d="M17.5 1C14.7386 1 12.5 3.23858 12.5 6C12.5 8.76142 14.7386 11 17.5 11C20.2614 11 22.5 8.76142 22.5 6C22.5 3.23858 20.2614 1 17.5 1ZM14.5 6C14.5 4.34315 15.8431 3 17.5 3C19.1569 3 20.5 4.34315 20.5 6C20.5 7.65685 19.1569 9 17.5 9C15.8431 9 14.5 7.65685 14.5 6Z" fill="#080809" style="fill:#080809;fill:color(display-p3 0.0314 0.0314 0.0353);fill-opacity:1;"/>
<path fill-rule="evenodd" clip-rule="evenodd" d="M6.7134 11.1288C5.8658 11.0347 5.00819 11.0924 4.18084 11.2992C2.01758 11.84 0.5 13.7837 0.5 16.0135V16.1496C0.5 18.8692 2.37716 21.2289 5.02713 21.8404L5.9973 22.0643C11.5506 23.3458 17.3864 22.3021 22.1512 19.1752L22.2816 19.0896C23.042 18.5906 23.5 17.7422 23.5 16.8327C23.5 14.7948 21.3283 13.4918 19.5301 14.4508L18.9473 14.7616C17.6686 15.4436 16.3044 15.9298 14.9001 16.2117C15.2768 15.7464 15.5 15.1549 15.5 14.5167C15.5 13.1438 14.4677 11.9904 13.1032 11.8388L6.7134 11.1288ZM4.66591 13.2395C5.26265 13.0903 5.8812 13.0487 6.49254 13.1166L12.8823 13.8266C13.234 13.8657 13.5 14.1629 13.5 14.5167C13.5 14.8647 13.2424 15.159 12.8974 15.205L9.8963 15.6052C8.27585 15.8212 8.2855 18.1686 9.90763 18.3714C13.3453 18.8011 16.8317 18.1566 19.8885 16.5263L20.4713 16.2155C20.9373 15.967 21.5 16.3046 21.5 16.8327C21.5 17.0684 21.3813 17.2882 21.1843 17.4175L21.0539 17.5031C16.7454 20.3305 11.4685 21.2743 6.44702 20.1155L5.47685 19.8916C3.73434 19.4895 2.5 17.9379 2.5 16.1496V16.0135C2.5 14.7014 3.39299 13.5577 4.66591 13.2395Z" fill="#080809" style="fill:#080809;fill:color(display-p3 0.0314 0.0314 0.0353);fill-opacity:1;"/>
</svg>
