<svg width="24" height="24" viewBox="0 0 24 24" fill="none" xmlns="http://www.w3.org/2000/svg">
<path d="M10.5 7C11.0523 7 11.5 7.44772 11.5 8V16C11.5 16.5523 11.0523 17 10.5 17C9.94772 17 9.5 16.5523 9.5 16V13H7V16C7 16.5523 6.55229 17 6 17C5.44772 17 5 16.5523 5 16V8C5 7.44772 5.44772 7 6 7C6.55229 7 7 7.44772 7 8V11H9.5V8C9.5 7.44772 9.94772 7 10.5 7Z" fill="#080809" style="fill:#080809;fill:color(display-p3 0.0314 0.0314 0.0353);fill-opacity:1;"/>
<path fill-rule="evenodd" clip-rule="evenodd" d="M15.5 7C17.7091 7 19.5 8.79086 19.5 11V13C19.5 15.2091 17.7091 17 15.5 17H14C13.1716 17 12.5 16.3284 12.5 15.5V8.5C12.5 7.67157 13.1716 7 14 7H15.5ZM14.5 15H15.5C16.6046 15 17.5 14.1046 17.5 13V11C17.5 9.89543 16.6046 9 15.5 9H14.5V15Z" fill="#080809" style="fill:#080809;fill:color(display-p3 0.0314 0.0314 0.0353);fill-opacity:1;"/>
<path fill-rule="evenodd" clip-rule="evenodd" d="M12 1C14.3285 1 16.1755 0.998339 17.6191 1.19238C19.0916 1.39035 20.2932 1.80881 21.2422 2.75781C22.1912 3.70681 22.6096 4.9084 22.8076 6.38086C23.0017 7.82449 23 9.67147 23 12C23 14.3285 23.0017 16.1755 22.8076 17.6191C22.6096 19.0916 22.1912 20.2932 21.2422 21.2422C20.2932 22.1912 19.0916 22.6096 17.6191 22.8076C16.1755 23.0017 14.3285 23 12 23C9.67147 23 7.82449 23.0017 6.38086 22.8076C4.9084 22.6096 3.70681 22.1912 2.75781 21.2422C1.80881 20.2932 1.39035 19.0916 1.19238 17.6191C0.998339 16.1755 1 14.3285 1 12C1 9.67147 0.998339 7.82449 1.19238 6.38086C1.39035 4.9084 1.80881 3.70681 2.75781 2.75781C3.70681 1.80881 4.9084 1.39035 6.38086 1.19238C7.82449 0.998339 9.67147 1 12 1ZM12 3C9.61471 3 7.92593 3.00181 6.64648 3.17383C5.39603 3.34199 4.68729 3.65646 4.17188 4.17188C3.65646 4.68729 3.34199 5.39603 3.17383 6.64648C3.00181 7.92593 3 9.61471 3 12C3 14.3853 3.00181 16.0741 3.17383 17.3535C3.34199 18.604 3.65646 19.3127 4.17188 19.8281C4.68729 20.3435 5.39603 20.658 6.64648 20.8262C7.92593 20.9982 9.61471 21 12 21C14.3853 21 16.0741 20.9982 17.3535 20.8262C18.604 20.658 19.3127 20.3435 19.8281 19.8281C20.3435 19.3127 20.658 18.604 20.8262 17.3535C20.9982 16.0741 21 14.3853 21 12C21 9.61471 20.9982 7.92593 20.8262 6.64648C20.658 5.39603 20.3435 4.68729 19.8281 4.17188C19.3127 3.65646 18.604 3.34199 17.3535 3.17383C16.0741 3.00181 14.3853 3 12 3Z" fill="#080809" style="fill:#080809;fill:color(display-p3 0.0314 0.0314 0.0353);fill-opacity:1;"/>
</svg>
