<svg width="24" height="24" viewBox="0 0 24 24" fill="none" xmlns="http://www.w3.org/2000/svg">
<path d="M7 8.5C8.10457 8.5 9 7.60457 9 6.5C9 5.39543 8.10457 4.5 7 4.5C5.89543 4.5 5 5.39543 5 6.5C5 7.60457 5.89543 8.5 7 8.5Z" fill="#080809" style="fill:#080809;fill:color(display-p3 0.0314 0.0314 0.0353);fill-opacity:1;"/>
<path d="M11 6.5C11 5.94772 11.4477 5.5 12 5.5H18C18.5523 5.5 19 5.94772 19 6.5C19 7.05229 18.5523 7.5 18 7.5H12C11.4477 7.5 11 7.05229 11 6.5Z" fill="#080809" style="fill:#080809;fill:color(display-p3 0.0314 0.0314 0.0353);fill-opacity:1;"/>
<path fill-rule="evenodd" clip-rule="evenodd" d="M14.0732 1H9.92684C8.10339 0.999974 6.63362 0.999952 5.47767 1.15537C4.27752 1.31672 3.26702 1.66191 2.46447 2.46447C1.66191 3.26702 1.31672 4.27752 1.15537 5.47767C0.999952 6.63362 0.999974 8.10337 1 9.92682V12.0732C0.999974 13.8966 0.999952 15.3664 1.15537 16.5223C1.31672 17.7225 1.66191 18.733 2.46447 19.5355C3.10453 20.1756 3.88049 20.5277 4.78731 20.7251C5.32696 20.8426 5.85965 20.5003 5.97712 19.9607C6.09459 19.421 5.75234 18.8883 5.2127 18.7709C4.57051 18.6311 4.17783 18.4205 3.87868 18.1213C3.50966 17.7523 3.26907 17.2342 3.13753 16.2558C3.00213 15.2487 3 13.9139 3 12H21C21 13.9139 20.9979 15.2487 20.8625 16.2558C20.7309 17.2342 20.4903 17.7523 20.1213 18.1213C19.8222 18.4205 19.4295 18.6311 18.7873 18.7709C18.2477 18.8883 17.9054 19.421 18.0229 19.9607C18.1404 20.5003 18.6731 20.8426 19.2127 20.7251C20.1195 20.5277 20.8955 20.1756 21.5355 19.5355C22.3381 18.733 22.6833 17.7225 22.8446 16.5223C23.0001 15.3664 23 13.8966 23 12.0731V9.92686C23 8.1034 23.0001 6.63363 22.8446 5.47767C22.6833 4.27752 22.3381 3.26702 21.5355 2.46447C20.733 1.66191 19.7225 1.31672 18.5223 1.15537C17.3664 0.999952 15.8966 0.999974 14.0732 1ZM21 10C21 8.08611 20.9979 6.7513 20.8625 5.74416C20.7309 4.7658 20.4903 4.2477 20.1213 3.87868C19.7523 3.50966 19.2342 3.26907 18.2558 3.13753C17.2487 3.00213 15.9139 3 14 3H10C8.08611 3 6.7513 3.00213 5.74416 3.13753C4.7658 3.26907 4.2477 3.50966 3.87868 3.87868C3.50966 4.2477 3.26907 4.7658 3.13753 5.74416C3.00213 6.7513 3 8.08611 3 10L21 10Z" fill="#080809" style="fill:#080809;fill:color(display-p3 0.0314 0.0314 0.0353);fill-opacity:1;"/>
<path fill-rule="evenodd" clip-rule="evenodd" d="M12 23.5C14.4853 23.5 16.5 21.4853 16.5 19C16.5 16.5147 14.4853 14.5 12 14.5C9.51472 14.5 7.5 16.5147 7.5 19C7.5 21.4853 9.51472 23.5 12 23.5ZM12.75 17.25C12.75 16.8358 12.4142 16.5 12 16.5C11.5858 16.5 11.25 16.8358 11.25 17.25V19C11.25 19.1989 11.329 19.3897 11.4697 19.5303L12.7197 20.7803C13.0126 21.0732 13.4874 21.0732 13.7803 20.7803C14.0732 20.4874 14.0732 20.0126 13.7803 19.7197L12.75 18.6893V17.25Z" fill="#080809" style="fill:#080809;fill:color(display-p3 0.0314 0.0314 0.0353);fill-opacity:1;"/>
</svg>
