<svg width="24" height="24" viewBox="0 0 24 24" fill="none" xmlns="http://www.w3.org/2000/svg">
<path d="M15 2C15 1.44772 15.4477 1 16 1H18C20.7614 1 23 3.23858 23 6V7C23 7.55228 22.5523 8 22 8C21.4477 8 21 7.55228 21 7V6C21 4.34315 19.6569 3 18 3H16C15.4477 3 15 2.55228 15 2Z" fill="#080809" style="fill:#080809;fill:color(display-p3 0.0314 0.0314 0.0353);fill-opacity:1;"/>
<path d="M1 12C1 11.4477 1.44772 11 2 11H22C22.5523 11 23 11.4477 23 12C23 12.5523 22.5523 13 22 13H2C1.44772 13 1 12.5523 1 12Z" fill="#080809" style="fill:#080809;fill:color(display-p3 0.0314 0.0314 0.0353);fill-opacity:1;"/>
<path d="M8 1C8.55228 1 9 1.44772 9 2C9 2.55228 8.55228 3 8 3H6C4.34315 3 3 4.34315 3 6V7C3 7.55228 2.55228 8 2 8C1.44772 8 1 7.55228 1 7V6C1 3.23858 3.23858 1 6 1H8Z" fill="#080809" style="fill:#080809;fill:color(display-p3 0.0314 0.0314 0.0353);fill-opacity:1;"/>
<path d="M9 22C9 22.5523 8.55228 23 8 23H6C3.23858 23 1 20.7614 1 18V17C1 16.4477 1.44772 16 2 16C2.55228 16 3 16.4477 3 17V18C3 19.6569 4.34315 21 6 21H8C8.55228 21 9 21.4477 9 22Z" fill="#080809" style="fill:#080809;fill:color(display-p3 0.0314 0.0314 0.0353);fill-opacity:1;"/>
<path d="M16 23C15.4477 23 15 22.5523 15 22C15 21.4477 15.4477 21 16 21H18C19.6569 21 21 19.6569 21 18V17C21 16.4477 21.4477 16 22 16C22.5523 16 23 16.4477 23 17V18C23 20.7614 20.7614 23 18 23H16Z" fill="#080809" style="fill:#080809;fill:color(display-p3 0.0314 0.0314 0.0353);fill-opacity:1;"/>
</svg>
