<svg width="24" height="24" viewBox="0 0 24 24" fill="none" xmlns="http://www.w3.org/2000/svg">
<path d="M14 12.0003C14 13.1049 13.1046 14.0003 12 14.0003C10.8954 14.0003 10 13.1049 10 12.0003C10 10.8958 10.8954 10.0003 12 10.0003C13.1046 10.0003 14 10.8958 14 12.0003Z" fill="#080809" style="fill:#080809;fill:color(display-p3 0.0314 0.0314 0.0353);fill-opacity:1;"/>
<path fill-rule="evenodd" clip-rule="evenodd" d="M11.9984 20.7886C13.0577 21.4333 14.1061 21.9481 15.1098 22.3179C17.5869 23.2305 20.1846 23.3819 21.7835 21.7829C23.3825 20.184 23.2311 17.5863 22.3185 15.1092C21.9489 14.1058 21.4342 13.0578 20.7897 11.9988C21.4346 10.9392 21.9497 9.89055 22.3195 8.88663C23.2322 6.40952 23.3835 3.81184 21.7846 2.21292C20.1856 0.613997 17.588 0.765315 15.1109 1.67793C14.1068 2.04783 13.0581 2.56293 11.9984 3.20793C10.9398 2.56383 9.89216 2.04939 8.88915 1.67986C6.41205 0.767243 3.81436 0.615925 2.21544 2.21485C0.616522 3.81377 0.76784 6.41145 1.68046 8.88856C2.0501 9.89187 2.56474 10.9399 3.2091 11.9988C2.56522 13.0571 2.05093 14.1045 1.68148 15.1073C0.768862 17.5844 0.617544 20.1821 2.21647 21.781C3.81539 23.3799 6.41307 23.2286 8.89018 22.316C9.89286 21.9466 10.9402 21.4324 11.9984 20.7886ZM19.5438 10.1561C19.9107 9.4808 20.2116 8.82293 20.4429 8.19522C21.2992 5.87087 21.0851 4.34193 20.3703 3.62713C19.6556 2.91233 18.1266 2.69828 15.8023 3.55462C15.1745 3.7859 14.5166 4.08684 13.8412 4.45379C14.8782 5.22579 15.907 6.11343 16.896 7.10243C17.8846 8.09108 18.772 9.1195 19.5438 10.1561ZM18.4051 11.9987C17.6002 10.8354 16.6201 9.65497 15.4817 8.51664C14.3431 7.37795 13.1623 6.39761 11.9986 5.59253C10.8359 6.39724 9.65604 7.37693 8.51826 8.51471C7.3793 9.65367 6.39876 10.8347 5.59359 11.9987C6.39857 13.1621 7.37877 14.3427 8.51724 15.4811C9.65535 16.6193 10.8355 17.5992 11.9986 18.404C13.1626 17.5988 14.3437 16.6182 15.4828 15.4792C16.6206 14.3414 17.6003 13.1615 18.4051 11.9987ZM13.8413 19.5427C14.8786 18.7706 15.9077 17.8827 16.897 16.8934C17.8851 15.9053 18.7721 14.8774 19.5436 13.8413C19.9101 14.5161 20.2108 15.1734 20.4418 15.8006C21.2982 18.125 21.0841 19.6539 20.3693 20.3687C19.6545 21.0835 18.1256 21.2976 15.8012 20.4412C15.1738 20.2101 14.5163 19.9094 13.8413 19.5427ZM10.1557 19.5424C9.1194 18.7708 8.09135 17.8837 7.10303 16.8954C6.11436 15.9067 5.22698 14.8783 4.45517 13.8416C4.0892 14.5156 3.78899 15.1722 3.55817 15.7987C2.70183 18.1231 2.91588 19.652 3.63068 20.3668C4.34548 21.0816 5.87441 21.2957 8.19876 20.4393C8.82524 20.2085 9.48175 19.9083 10.1557 19.5424ZM4.45501 10.1558C4.08865 9.48128 3.78815 8.82417 3.55714 8.19714C2.70081 5.8728 2.91486 4.34386 3.62966 3.62906C4.34445 2.91426 5.87339 2.70021 8.19774 3.55655C8.82458 3.78749 9.48149 4.08788 10.1558 4.4541C9.11985 5.22557 8.0921 6.11245 7.10405 7.1005C6.11488 8.08967 5.2271 9.11864 4.45501 10.1558Z" fill="#080809" style="fill:#080809;fill:color(display-p3 0.0314 0.0314 0.0353);fill-opacity:1;"/>
</svg>
