<svg width="24" height="24" viewBox="0 0 24 24" fill="none" xmlns="http://www.w3.org/2000/svg">
<path fill-rule="evenodd" clip-rule="evenodd" d="M1.39637 5.31058C0.810583 4.72479 0.810586 3.77505 1.39637 3.18926L3.18926 1.39637C3.77505 0.810585 4.7248 0.810584 5.31058 1.39637L7.56059 3.64637C7.84189 3.92768 7.99992 4.30921 7.99992 4.70703L7.99993 6.49992C7.99993 6.52792 7.99916 6.55574 7.99764 6.58336L10.7502 9.33591L12.1813 7.90472C12.0629 7.45557 12 6.98458 12 6.5C12 3.46243 14.4624 1 17.5 1C20.5376 1 23 3.46243 23 6.5C23 9.53757 20.5376 12 17.5 12C17.0155 12 16.5447 11.9371 16.0956 11.8188L14.6644 13.2501L15.7071 14.2928C15.7216 14.3074 15.7356 14.3222 15.7491 14.3374C16.7266 13.3776 18.2971 13.383 19.268 14.3537L21.9551 17.0405C23.3122 18.3974 23.3125 20.5975 21.9558 21.9549C20.5988 23.3125 18.3981 23.3128 17.0407 21.9556L14.3537 19.2689C13.3826 18.298 13.3772 16.7269 14.3378 15.7493C14.3225 15.7357 14.3075 15.7217 14.2929 15.707L13.2502 14.6644L11.8189 16.0959C11.9372 16.5448 12 17.0156 12 17.5C12 20.5376 9.53757 23 6.5 23C3.46243 23 1 20.5376 1 17.5C1 14.4624 3.46243 12 6.5 12C6.98467 12 7.45576 12.0629 7.90498 12.1813L9.33603 10.7502L6.5835 7.99764C6.55583 7.99916 6.52797 7.99992 6.49992 7.99992H4.70703C4.30921 7.99992 3.92768 7.84189 3.64637 7.56058L1.39637 5.31058ZM3.16414 4.24992L4.91414 5.99992H5.99993L5.99992 4.91414L4.24992 3.16414L3.16414 4.24992ZM17.1467 15.7681C17.3419 15.5728 17.6585 15.5727 17.8538 15.768L20.541 18.4548C21.1171 19.0308 21.1172 19.9648 20.5413 20.541C19.9652 21.1173 19.031 21.1174 18.4548 20.5413L15.7678 17.8546C15.5726 17.6594 15.5725 17.3428 15.7677 17.1476L17.1467 15.7681ZM14 6.5C14 4.567 15.567 3 17.5 3C17.9127 3 18.3087 3.07143 18.6764 3.2026L16.5859 5.29312C16.1953 5.68364 16.1953 6.31681 16.5859 6.70733L17.293 7.41444C17.6835 7.80496 18.3167 7.80496 18.7072 7.41444L20.7976 5.32407C20.9286 5.69159 21 6.08746 21 6.5C21 8.433 19.433 10 17.5 10C17.0371 10 16.5976 9.91068 16.1959 9.74925C15.8242 9.59988 15.3992 9.68677 15.1159 9.97006L9.97012 15.1162C9.68689 15.3995 9.60001 15.8244 9.74934 16.1961C9.91071 16.5978 10 17.0372 10 17.5C10 19.433 8.433 21 6.5 21C6.08746 21 5.69159 20.9286 5.32407 20.7976L7.41444 18.7072C7.80496 18.3167 7.80496 17.6835 7.41444 17.293L6.70733 16.5859C6.31681 16.1953 5.68364 16.1953 5.29312 16.5859L3.2026 18.6764C3.07143 18.3087 3 17.9127 3 17.5C3 15.567 4.567 14 6.5 14C6.96301 14 7.4027 14.0894 7.80452 14.2509C8.17627 14.4003 8.60133 14.3135 8.88463 14.0301L14.0301 8.88429C14.3134 8.60101 14.4002 8.17601 14.2508 7.8043C14.0894 7.40254 14 6.96293 14 6.5Z" fill="#080809" style="fill:#080809;fill:color(display-p3 0.0314 0.0314 0.0353);fill-opacity:1;"/>
</svg>
