<svg width="24" height="24" viewBox="0 0 24 24" fill="none" xmlns="http://www.w3.org/2000/svg">
<path d="M12 8C12.5523 8 13 8.44772 13 9V13C13 13.5523 12.5523 14 12 14C11.4477 14 11 13.5523 11 13V9C11 8.44772 11.4477 8 12 8Z" fill="#080809" style="fill:#080809;fill:color(display-p3 0.0314 0.0314 0.0353);fill-opacity:1;"/>
<path d="M12 18.25C12.6904 18.25 13.25 17.6904 13.25 17C13.25 16.3096 12.6904 15.75 12 15.75C11.3096 15.75 10.75 16.3096 10.75 17C10.75 17.6904 11.3096 18.25 12 18.25Z" fill="#080809" style="fill:#080809;fill:color(display-p3 0.0314 0.0314 0.0353);fill-opacity:1;"/>
<path fill-rule="evenodd" clip-rule="evenodd" d="M8.53934 2.97721C10.0804 0.31814 13.9199 0.318144 15.461 2.97722L23.0049 15.9943C24.5504 18.6609 22.6262 21.9999 19.5441 21.9999H4.45618C1.37406 21.9999 -0.550075 18.6609 0.995377 15.9943L8.53934 2.97721ZM13.7306 3.98006C12.96 2.65053 11.0403 2.65053 10.2697 3.98006L2.72578 16.9971C1.95305 18.3304 2.91512 19.9999 4.45618 19.9999H19.5441C21.0852 19.9999 22.0472 18.3304 21.2745 16.9971L13.7306 3.98006Z" fill="#080809" style="fill:#080809;fill:color(display-p3 0.0314 0.0314 0.0353);fill-opacity:1;"/>
</svg>
