<svg width="24" height="24" viewBox="0 0 24 24" fill="none" xmlns="http://www.w3.org/2000/svg">
<path fill-rule="evenodd" clip-rule="evenodd" d="M3 14.4996C3 19.4702 7.02944 23.4996 12 23.4996C14.2214 23.4996 16.2548 22.6948 17.8246 21.3609L4.86956 8.4058C3.80706 10.3343 3 12.4598 3 14.4996ZM7.2953 16.1987C7.10769 15.6792 6.53451 15.4102 6.01507 15.5978C5.49562 15.7854 5.22662 16.3586 5.41423 16.8781C6.04566 18.6263 7.35152 20.0491 9.01783 20.8347C9.51739 21.0702 10.1133 20.8561 10.3488 20.3565C10.5843 19.857 10.3702 19.2611 9.87065 19.0256C8.67965 18.4641 7.74567 17.4456 7.2953 16.1987Z" fill="#080809" style="fill:#080809;fill:color(display-p3 0.0314 0.0314 0.0353);fill-opacity:1;"/>
<path d="M18.8833 20.2982C18.8832 20.2983 18.8834 20.2981 18.8833 20.2982L5.65912 7.07405C5.65921 7.0739 5.65903 7.07419 5.65912 7.07405L1.29289 2.70711C0.902369 2.31658 0.902369 1.68342 1.29289 1.29289C1.68342 0.902369 2.31658 0.902369 2.70711 1.29289L6.80553 5.39132C8.0815 3.63798 9.40347 2.16157 10.2767 1.24134C11.2197 0.247676 12.7803 0.247682 13.7233 1.24134C14.8163 2.39316 16.6123 4.41633 18.1412 6.76324C19.6487 9.0773 21 11.8601 21 14.4996C21 15.9764 20.6443 17.3701 20.0139 18.5997L22.7071 21.2929C23.0976 21.6834 23.0976 22.3166 22.7071 22.7071C22.3166 23.0976 21.6834 23.0976 21.2929 22.7071L18.8833 20.2982Z" fill="#080809" style="fill:#080809;fill:color(display-p3 0.0314 0.0314 0.0353);fill-opacity:1;"/>
</svg>
