<svg width="24" height="24" viewBox="0 0 24 24" fill="none" xmlns="http://www.w3.org/2000/svg">
<path d="M0.5 6C0.5 3.79086 2.29086 2 4.5 2H17.5C19.7091 2 21.5 3.79086 21.5 6V8.5C21.5 9.05228 21.0523 9.5 20.5 9.5C19.9477 9.5 19.5 9.05228 19.5 8.5V6C19.5 4.89543 18.6046 4 17.5 4H4.5C3.39543 4 2.5 4.89543 2.5 6V15C2.5 16.1046 3.39543 17 4.5 17H8C8.55228 17 9 17.4477 9 18C9 18.5523 8.55228 19 8 19H4.5C2.29086 19 0.5 17.2091 0.5 15V6Z" fill="#080809" style="fill:#080809;fill:color(display-p3 0.0314 0.0314 0.0353);fill-opacity:1;"/>
<path d="M13 11C11.6193 11 10.5 12.1193 10.5 13.5V19.5C10.5 20.8807 11.6193 22 13 22H21C22.3807 22 23.5 20.8807 23.5 19.5V13.5C23.5 12.1193 22.3807 11 21 11H13Z" fill="#080809" style="fill:#080809;fill:color(display-p3 0.0314 0.0314 0.0353);fill-opacity:1;"/>
</svg>
