<svg width="24" height="24" viewBox="0 0 24 24" fill="none" xmlns="http://www.w3.org/2000/svg">
<g clip-path="url(#clip0_29901_26471)">
<path d="M12 2.5C12.5523 2.5 13 2.05228 13 1.5C13 0.947715 12.5523 0.5 12 0.5C11.4477 0.5 11 0.947715 11 1.5C11 2.05228 11.4477 2.5 12 2.5Z" fill="#080809" style="fill:#080809;fill:color(display-p3 0.0314 0.0314 0.0353);fill-opacity:1;"/>
<path fill-rule="evenodd" clip-rule="evenodd" d="M12 8C9.79086 8 8 9.79086 8 12C8 14.2091 9.79086 16 12 16C14.2091 16 16 14.2091 16 12C16 9.79086 14.2091 8 12 8ZM10 12C10 10.8954 10.8954 10 12 10C13.1046 10 14 10.8954 14 12C14 13.1046 13.1046 14 12 14C10.8954 14 10 13.1046 10 12Z" fill="#080809" style="fill:#080809;fill:color(display-p3 0.0314 0.0314 0.0353);fill-opacity:1;"/>
<path fill-rule="evenodd" clip-rule="evenodd" d="M12 4C7.58172 4 4 7.58172 4 12C4 16.4183 7.58172 20 12 20C16.4183 20 20 16.4183 20 12C20 7.58172 16.4183 4 12 4ZM6 12C6 8.68629 8.68629 6 12 6C15.3137 6 18 8.68629 18 12C18 15.3137 15.3137 18 12 18C8.68629 18 6 15.3137 6 12Z" fill="#080809" style="fill:#080809;fill:color(display-p3 0.0314 0.0314 0.0353);fill-opacity:1;"/>
<path d="M13 22.5C13 23.0523 12.5523 23.5 12 23.5C11.4477 23.5 11 23.0523 11 22.5C11 21.9477 11.4477 21.5 12 21.5C12.5523 21.5 13 21.9477 13 22.5Z" fill="#080809" style="fill:#080809;fill:color(display-p3 0.0314 0.0314 0.0353);fill-opacity:1;"/>
<path d="M1.5 13C2.05228 13 2.5 12.5523 2.5 12C2.5 11.4477 2.05228 11 1.5 11C0.947715 11 0.5 11.4477 0.5 12C0.5 12.5523 0.947715 13 1.5 13Z" fill="#080809" style="fill:#080809;fill:color(display-p3 0.0314 0.0314 0.0353);fill-opacity:1;"/>
<path d="M23.5 12C23.5 12.5523 23.0523 13 22.5 13C21.9477 13 21.5 12.5523 21.5 12C21.5 11.4477 21.9477 11 22.5 11C23.0523 11 23.5 11.4477 23.5 12Z" fill="#080809" style="fill:#080809;fill:color(display-p3 0.0314 0.0314 0.0353);fill-opacity:1;"/>
<path d="M4.58008 5.58008C5.13236 5.58008 5.58008 5.13236 5.58008 4.58008C5.58008 4.02779 5.13236 3.58008 4.58008 3.58008C4.02779 3.58008 3.58008 4.02779 3.58008 4.58008C3.58008 5.13236 4.02779 5.58008 4.58008 5.58008Z" fill="#080809" style="fill:#080809;fill:color(display-p3 0.0314 0.0314 0.0353);fill-opacity:1;"/>
<path d="M20.4199 19.4199C20.4199 19.9722 19.9722 20.4199 19.4199 20.4199C18.8676 20.4199 18.4199 19.9722 18.4199 19.4199C18.4199 18.8676 18.8676 18.4199 19.4199 18.4199C19.9722 18.4199 20.4199 18.8676 20.4199 19.4199Z" fill="#080809" style="fill:#080809;fill:color(display-p3 0.0314 0.0314 0.0353);fill-opacity:1;"/>
<path d="M4.58008 20.4199C5.13236 20.4199 5.58008 19.9722 5.58008 19.4199C5.58008 18.8676 5.13236 18.4199 4.58008 18.4199C4.02779 18.4199 3.58008 18.8676 3.58008 19.4199C3.58008 19.9722 4.02779 20.4199 4.58008 20.4199Z" fill="#080809" style="fill:#080809;fill:color(display-p3 0.0314 0.0314 0.0353);fill-opacity:1;"/>
<path d="M20.4199 4.58008C20.4199 5.13236 19.9722 5.58008 19.4199 5.58008C18.8676 5.58008 18.4199 5.13236 18.4199 4.58008C18.4199 4.02779 18.8676 3.58008 19.4199 3.58008C19.9722 3.58008 20.4199 4.02779 20.4199 4.58008Z" fill="#080809" style="fill:#080809;fill:color(display-p3 0.0314 0.0314 0.0353);fill-opacity:1;"/>
<path d="M7.97998 3.30005C8.53226 3.30005 8.97998 2.85233 8.97998 2.30005C8.97998 1.74776 8.53226 1.30005 7.97998 1.30005C7.4277 1.30005 6.97998 1.74776 6.97998 2.30005C6.97998 2.85233 7.4277 3.30005 7.97998 3.30005Z" fill="#080809" style="fill:#080809;fill:color(display-p3 0.0314 0.0314 0.0353);fill-opacity:1;"/>
<path d="M17.02 21.7C17.02 22.2522 16.5723 22.7 16.02 22.7C15.4677 22.7 15.02 22.2522 15.02 21.7C15.02 21.1477 15.4677 20.7 16.02 20.7C16.5723 20.7 17.02 21.1477 17.02 21.7Z" fill="#080809" style="fill:#080809;fill:color(display-p3 0.0314 0.0314 0.0353);fill-opacity:1;"/>
<path d="M2.2998 17.02C2.85209 17.02 3.2998 16.5723 3.2998 16.02C3.2998 15.4677 2.85209 15.02 2.2998 15.02C1.74752 15.02 1.2998 15.4677 1.2998 16.02C1.2998 16.5723 1.74752 17.02 2.2998 17.02Z" fill="#080809" style="fill:#080809;fill:color(display-p3 0.0314 0.0314 0.0353);fill-opacity:1;"/>
<path d="M22.7002 7.97998C22.7002 8.53226 22.2525 8.97998 21.7002 8.97998C21.1479 8.97998 20.7002 8.53226 20.7002 7.97998C20.7002 7.4277 21.1479 6.97998 21.7002 6.97998C22.2525 6.97998 22.7002 7.4277 22.7002 7.97998Z" fill="#080809" style="fill:#080809;fill:color(display-p3 0.0314 0.0314 0.0353);fill-opacity:1;"/>
<path d="M2.2998 8.97998C2.85209 8.97998 3.2998 8.53226 3.2998 7.97998C3.2998 7.4277 2.85209 6.97998 2.2998 6.97998C1.74752 6.97998 1.2998 7.4277 1.2998 7.97998C1.2998 8.53226 1.74752 8.97998 2.2998 8.97998Z" fill="#080809" style="fill:#080809;fill:color(display-p3 0.0314 0.0314 0.0353);fill-opacity:1;"/>
<path d="M22.7002 16.02C22.7002 16.5723 22.2525 17.02 21.7002 17.02C21.1479 17.02 20.7002 16.5723 20.7002 16.02C20.7002 15.4677 21.1479 15.02 21.7002 15.02C22.2525 15.02 22.7002 15.4677 22.7002 16.02Z" fill="#080809" style="fill:#080809;fill:color(display-p3 0.0314 0.0314 0.0353);fill-opacity:1;"/>
<path d="M7.97998 22.7C8.53226 22.7 8.97998 22.2522 8.97998 21.7C8.97998 21.1477 8.53226 20.7 7.97998 20.7C7.4277 20.7 6.97998 21.1477 6.97998 21.7C6.97998 22.2522 7.4277 22.7 7.97998 22.7Z" fill="#080809" style="fill:#080809;fill:color(display-p3 0.0314 0.0314 0.0353);fill-opacity:1;"/>
<path d="M17.02 2.30005C17.02 2.85233 16.5723 3.30005 16.02 3.30005C15.4677 3.30005 15.02 2.85233 15.02 2.30005C15.02 1.74776 15.4677 1.30005 16.02 1.30005C16.5723 1.30005 17.02 1.74776 17.02 2.30005Z" fill="#080809" style="fill:#080809;fill:color(display-p3 0.0314 0.0314 0.0353);fill-opacity:1;"/>
</g>
<defs>
<clipPath id="clip0_29901_26471">
<rect width="24" height="24" fill="white" style="fill:white;fill-opacity:1;"/>
</clipPath>
</defs>
</svg>
