<svg width="24" height="24" viewBox="0 0 24 24" fill="none" xmlns="http://www.w3.org/2000/svg">
<path d="M11 3C11 2.44772 11.4477 2 12 2C12.5523 2 13 2.44772 13 3V19.408C14.2045 18.2041 15.4081 16.9998 16.6118 15.7954L16.6161 15.791C17.5081 14.8985 18.4002 14.0059 19.2929 13.1132C19.6834 12.7227 20.3166 12.7227 20.7071 13.1132C21.0976 13.5037 21.0976 14.1369 20.7071 14.5274C19.8139 15.4207 18.9205 16.3145 18.0271 17.2085L18.0252 17.2103C16.7219 18.5145 15.4183 19.8189 14.1142 21.122C12.9468 22.2886 11.0543 22.2934 9.88328 21.1265C8.57248 19.8203 7.26366 18.5075 5.95622 17.1961L5.95537 17.1953C5.06731 16.3045 4.17988 15.4144 3.2929 14.5274C2.90237 14.1369 2.90237 13.5037 3.29289 13.1132C3.68341 12.7227 4.31658 12.7227 4.7071 13.1132C5.59941 14.0055 6.48861 14.8974 7.3772 15.7887C8.58386 16.999 9.7894 18.2082 11 19.4157V3Z" fill="#080809" style="fill:#080809;fill:color(display-p3 0.0314 0.0314 0.0353);fill-opacity:1;"/>
</svg>
