<svg width="24" height="24" viewBox="0 0 24 24" fill="none" xmlns="http://www.w3.org/2000/svg">
<path d="M15.2931 4.70711C14.9026 4.31658 14.9026 3.68342 15.2931 3.29289C15.6836 2.90237 16.3168 2.90237 16.7073 3.29289L19.6467 6.23223C20.623 7.20855 20.623 8.79146 19.6467 9.76777L16.7073 12.7071C16.3168 13.0976 15.6836 13.0976 15.2931 12.7071C14.9026 12.3166 14.9026 11.6834 15.2931 11.2929L17.586 9H11C9.55752 9 8.57625 9.00213 7.84143 9.10092C7.13538 9.19585 6.80836 9.36322 6.58579 9.58579C6.36321 9.80836 6.19584 10.1354 6.10092 10.8414C6.00212 11.5763 6 12.5575 6 14V20C6 20.5523 5.55228 21 5 21C4.44771 21 4 20.5523 4 20L4 13.9294C3.99996 12.5753 3.99993 11.4587 4.11875 10.5749C4.2435 9.64711 4.51546 8.82768 5.17157 8.17158C5.82768 7.51547 6.64711 7.2435 7.57494 7.11875C8.45869 6.99994 9.57531 6.99997 10.9294 7L17.586 7L15.2931 4.70711Z" fill="#080809" style="fill:#080809;fill:color(display-p3 0.0314 0.0314 0.0353);fill-opacity:1;"/>
</svg>
