<svg width="24" height="24" viewBox="0 0 24 24" fill="none" xmlns="http://www.w3.org/2000/svg">
<path d="M11.9996 22C11.8266 22 11.6526 21.955 11.4986 21.865C4.26564 17.67 0.564639 13.255 0.499639 8.74203C0.474639 7.07003 1.21264 5.18203 2.37964 3.93503C3.52164 2.71503 5.08464 2.02803 6.78064 2.00103C8.61564 1.95203 10.3976 2.70503 11.7036 4.01103C11.7036 4.01103 11.7056 4.01103 11.7056 4.01403C11.7056 4.01403 11.7066 4.01503 11.7076 4.01603C11.7096 4.01803 11.7126 4.02103 11.7146 4.02303C11.8176 4.12703 11.9106 4.22303 11.9966 4.31403C12.0846 4.22103 12.1826 4.12003 12.2886 4.01403C13.5956 2.70403 15.4136 1.97203 17.2156 2.00003C18.9126 2.02703 20.4756 2.71403 21.6166 3.93503C22.7836 5.18303 23.5226 7.07003 23.4966 8.74303C23.4866 9.42003 23.3936 10.106 23.2196 10.782C23.2196 10.786 23.2176 10.789 23.2166 10.793C22.2316 14.586 18.6256 18.312 12.4986 21.865C12.3436 21.955 12.1696 22 11.9966 22H11.9996ZM6.88764 4.00003C6.86364 4.00003 6.83864 4.00003 6.81364 4.00003C5.66464 4.01903 4.60764 4.48103 3.83964 5.30103C3.02064 6.17703 2.48164 7.54803 2.49964 8.71203C2.55164 12.377 5.74764 16.119 11.9996 19.839C14.7086 18.227 16.8466 16.607 18.4026 14.988C15.7636 14.931 14.5546 12.554 13.2766 10.04C12.4516 8.41703 11.5976 6.73803 10.3006 5.43503C10.2976 5.43203 10.2946 5.42903 10.2906 5.42503C9.38264 4.51603 8.14564 3.99803 6.88664 3.99803L6.88764 4.00003ZM13.2466 5.91303C13.9626 6.97803 14.5326 8.09903 15.0586 9.13503C16.2746 11.525 17.0906 12.99 18.4986 12.99C19.9346 12.99 20.8796 11.587 21.2886 10.265C21.4206 9.74803 21.4916 9.22603 21.4986 8.71303C21.5166 7.54703 20.9776 6.17703 20.1576 5.30103C19.3896 4.48003 18.3336 4.01803 17.1846 3.99903C15.8636 3.97203 14.6316 4.49803 13.7056 5.42603C13.5206 5.61103 13.3696 5.77403 13.2456 5.91203L13.2466 5.91303Z" fill="#080809" style="fill:#080809;fill:color(display-p3 0.0314 0.0314 0.0353);fill-opacity:1;"/>
</svg>
