<svg width="24" height="24" viewBox="0 0 24 24" fill="none" xmlns="http://www.w3.org/2000/svg">
<path d="M4.29289 9.7067C3.90237 9.31618 3.90237 8.68301 4.2929 8.29249C5.9126 6.6728 7.55524 5.01978 9.17863 3.39738C10.738 1.83894 13.2616 1.84535 14.8178 3.40133C16.4485 5.03186 18.0796 6.66503 19.7071 8.29249C20.0976 8.68301 20.0976 9.31618 19.7071 9.7067C19.3166 10.0972 18.6834 10.0972 18.2929 9.70671C16.6602 8.07405 15.0333 6.44504 13.4036 4.81562C12.6255 4.03761 11.3679 4.03704 10.5924 4.81202C8.95469 6.44875 7.34743 8.0664 5.7071 9.70671C5.31658 10.0972 4.68341 10.0972 4.29289 9.7067Z" fill="#080809" style="fill:#080809;fill:color(display-p3 0.0314 0.0314 0.0353);fill-opacity:1;"/>
<path d="M12 21.9996C11.4477 21.9996 11 21.5519 11 20.9996V9.40493C9.23331 11.1683 7.47347 12.9404 5.7071 14.7067C5.31658 15.0972 4.68341 15.0972 4.29289 14.7067C3.90237 14.3162 3.90237 13.683 4.2929 13.2925C6.50447 11.0809 8.71689 8.84932 10.9424 6.64008C11.5287 6.05809 12.4746 6.06025 13.0585 6.64333C15.2763 8.85794 17.491 11.0764 19.7071 13.2925C20.0976 13.683 20.0976 14.3162 19.7071 14.7067C19.3166 15.0972 18.6834 15.0972 18.2929 14.7067C16.5276 12.9414 14.7647 11.1762 13 9.41207V20.9996C13 21.5519 12.5523 21.9996 12 21.9996Z" fill="#080809" style="fill:#080809;fill:color(display-p3 0.0314 0.0314 0.0353);fill-opacity:1;"/>
</svg>
