<svg width="24" height="24" viewBox="0 0 24 24" fill="none" xmlns="http://www.w3.org/2000/svg">
<path fill-rule="evenodd" clip-rule="evenodd" d="M11.9252 1H12.0748C14.3683 0.999979 16.1914 0.999962 17.6196 1.19198C19.0921 1.38994 20.2936 1.80836 21.2426 2.75736C22.1916 3.70636 22.6101 4.90794 22.808 6.3804C23 7.8086 23 9.63167 23 11.9252V12.0748C23 14.3683 23 16.1914 22.808 17.6196C22.6101 19.0921 22.1916 20.2936 21.2426 21.2426C20.2936 22.1916 19.0921 22.6101 17.6196 22.808C16.1914 23 14.3683 23 12.0748 23H11.9252C9.63167 23 7.8086 23 6.3804 22.808C4.90794 22.6101 3.70636 22.1916 2.75736 21.2426C1.80836 20.2936 1.38994 19.0921 1.19198 17.6196C0.999962 16.1914 0.999979 14.3684 1 12.0748V11.9252C0.999979 9.63165 0.999962 7.80859 1.19198 6.3804C1.38994 4.90794 1.80836 3.70636 2.75736 2.75736C3.70636 1.80836 4.90794 1.38994 6.3804 1.19198C7.80859 0.999962 9.63166 0.999979 11.9252 1ZM7 6C7 5.44772 7.44772 5 8 5H16C16.5523 5 17 5.44772 17 6C17 6.55229 16.5523 7 16 7H8C7.44772 7 7 6.55229 7 6ZM12.9234 10.116C12.7683 9.74301 12.4041 9.5 12.0001 9.5C11.5962 9.5 11.2319 9.74301 11.0768 10.116L10.3856 11.7778L8.59152 11.9216C8.18888 11.9539 7.8452 12.2253 7.72037 12.6094C7.59555 12.9936 7.71411 13.4151 8.02087 13.6779L9.38778 14.8488L8.97017 16.5995C8.87645 16.9924 9.02831 17.4032 9.35509 17.6406C9.68188 17.878 10.1194 17.8955 10.4641 17.685L12.0001 16.7468L13.5361 17.685C13.8808 17.8955 14.3184 17.878 14.6452 17.6406C14.9719 17.4032 15.1238 16.9924 15.0301 16.5995L14.6125 14.8488L15.9794 13.6779C16.2862 13.4151 16.4047 12.9936 16.2799 12.6094C16.1551 12.2253 15.8114 11.9539 15.4087 11.9216L13.6146 11.7778L12.9234 10.116Z" fill="#080809" style="fill:#080809;fill:color(display-p3 0.0314 0.0314 0.0353);fill-opacity:1;"/>
</svg>
