<svg width="24" height="24" viewBox="0 0 24 24" fill="none" xmlns="http://www.w3.org/2000/svg">
<path fill-rule="evenodd" clip-rule="evenodd" d="M18.2319 1.35345C19.2082 0.377023 20.7912 0.376968 21.7676 1.35333L22.6463 2.23201C23.6225 3.20827 23.6226 4.79108 22.6464 5.76741L11.9278 16.4875C11.5996 16.8158 11.1545 17.0002 10.6903 17.0002H8.00098C7.44869 17.0002 7.00098 16.5525 7.00098 16.0002V13.3108C7.00098 12.8467 7.18532 12.4016 7.51345 12.0735L16.2815 3.3042L16.2929 3.29259L16.3044 3.28127L18.2319 1.35345ZM9.00098 13.4144L17.0001 5.41405L18.5859 6.99984L10.5867 15.0002H9.00098V13.4144ZM21.2321 4.3533L20 5.58553L18.4143 3.99974L19.6463 2.76757C19.8415 2.57228 20.1581 2.57227 20.3534 2.76754L21.2321 3.64622C21.4273 3.84147 21.4273 4.15804 21.2321 4.3533Z" fill="#080809" style="fill:#080809;fill:color(display-p3 0.0314 0.0314 0.0353);fill-opacity:1;"/>
<path d="M13.5 1L11.9252 1C9.63165 0.999978 7.80859 0.99996 6.38039 1.19198C4.90794 1.38994 3.70636 1.80836 2.75736 2.75736C1.80836 3.70636 1.38994 4.90794 1.19198 6.38039C0.999961 7.80859 0.999978 9.63164 1 11.9252V12.0748C0.999978 14.3683 0.999961 16.1914 1.19198 17.6196C1.38994 19.0921 1.80836 20.2936 2.75736 21.2426C3.70636 22.1916 4.90794 22.6101 6.38039 22.808C7.8086 23 9.63167 23 11.9252 23H12.0748C14.3683 23 16.1914 23 17.6196 22.808C19.0921 22.6101 20.2936 22.1916 21.2426 21.2426C22.1916 20.2936 22.6101 19.0921 22.808 17.6196C23 16.1914 23 14.3683 23 12.0748V10.5C23 9.94772 22.5523 9.5 22 9.5C21.4477 9.5 21 9.94772 21 10.5V12C21 14.3853 20.9979 16.0737 20.8259 17.3531C20.6577 18.6038 20.3439 19.313 19.8284 19.8284C19.313 20.3439 18.6038 20.6577 17.3531 20.8259C16.0737 20.9979 14.3853 21 12 21C9.61471 21 7.92634 20.9979 6.64689 20.8259C5.39621 20.6577 4.68704 20.3439 4.17157 19.8284C3.65611 19.313 3.34229 18.6038 3.17414 17.3531C3.00213 16.0737 3 14.3853 3 12C3 9.61471 3.00213 7.92634 3.17414 6.64689C3.34229 5.39621 3.65611 4.68704 4.17157 4.17157C4.68704 3.65611 5.39621 3.34229 6.64689 3.17414C7.92634 3.00212 9.61471 3 12 3H13.5C14.0523 3 14.5 2.55229 14.5 2C14.5 1.44772 14.0523 1 13.5 1Z" fill="#080809" style="fill:#080809;fill:color(display-p3 0.0314 0.0314 0.0353);fill-opacity:1;"/>
</svg>
