<svg width="24" height="24" viewBox="0 0 24 24" fill="none" xmlns="http://www.w3.org/2000/svg">
<g clip-path="url(#clip0_29901_26555)">
<path fill-rule="evenodd" clip-rule="evenodd" d="M10.7073 1.19341C10.9482 0.879113 11.3721 0.5 12 0.5C12.6279 0.5 13.0518 0.879113 13.2927 1.19341C13.5327 1.50652 13.705 1.89463 13.8379 2.25893C14.074 2.90633 14.2728 3.73595 14.4613 4.52264C14.4859 4.62528 14.5103 4.72718 14.5346 4.82786C14.756 5.7451 14.9737 6.58957 15.2425 7.23046C15.376 7.54868 15.5023 7.76728 15.6131 7.90371C15.6896 7.99789 15.7358 8.02533 15.7472 8.03099C15.7742 8.03747 15.7903 8.03879 15.7985 8.03874C15.8093 8.03264 15.8446 8.00937 15.9009 7.94124C16.0696 7.73707 16.2415 7.36336 16.4263 6.80877C16.5068 6.56723 16.5816 6.31848 16.6593 6.05966C16.6665 6.03567 16.6738 6.01159 16.681 5.98743C16.7643 5.71058 16.8529 5.41853 16.9482 5.14997C17.0419 4.88597 17.1565 4.6022 17.3033 4.3517C17.4411 4.11666 17.6727 3.7956 18.0528 3.60557C18.331 3.46644 18.6768 3.41966 19.0225 3.54701C19.3258 3.65875 19.5199 3.86533 19.6303 4.00974C19.8419 4.28648 19.978 4.64678 20.0737 4.93377C20.1914 5.28683 20.3188 5.76779 20.4514 6.26793C20.5364 6.58872 20.6236 6.9174 20.7115 7.22528C20.9558 8.08035 21.2449 8.93488 21.6305 9.6509C22.0189 10.3723 22.4558 10.8598 22.9472 11.1056C23.286 11.275 23.5 11.6212 23.5 12C23.5 12.3788 23.286 12.725 22.9472 12.8944C22.4558 13.1402 22.0189 13.6277 21.6305 14.3491C21.2449 15.0651 20.9558 15.9196 20.7115 16.7747C20.6236 17.0826 20.5364 17.4113 20.4514 17.7321C20.3188 18.2322 20.1914 18.7132 20.0737 19.0662C19.978 19.3532 19.8419 19.7135 19.6303 19.9903C19.5199 20.1347 19.3258 20.3412 19.0225 20.453C18.6768 20.5803 18.331 20.5336 18.0528 20.3944C17.6727 20.2044 17.4411 19.8833 17.3033 19.6483C17.1565 19.3978 17.0419 19.114 16.9482 18.85C16.8529 18.5815 16.7643 18.2894 16.681 18.0126C16.6738 17.9884 16.6665 17.9643 16.6593 17.9404C16.5816 17.6815 16.5068 17.4328 16.4263 17.1912C16.2415 16.6366 16.0696 16.2629 15.9009 16.0588C15.8446 15.9906 15.8092 15.9674 15.7985 15.9613C15.7903 15.9612 15.7742 15.9625 15.7472 15.969C15.7358 15.9747 15.6896 16.0021 15.6131 16.0963C15.5023 16.2327 15.376 16.4513 15.2425 16.7695C14.9737 17.4104 14.756 18.2549 14.5346 19.1721C14.5103 19.2728 14.4859 19.3747 14.4613 19.4774C14.2728 20.264 14.074 21.0937 13.8379 21.7411C13.705 22.1054 13.5327 22.4935 13.2927 22.8066C13.0518 23.1209 12.6279 23.5 12 23.5C11.3721 23.5 10.9482 23.1209 10.7073 22.8066C10.4673 22.4935 10.295 22.1054 10.1621 21.7411C9.92598 21.0937 9.72721 20.264 9.53872 19.4774C9.51413 19.3747 9.48972 19.2728 9.46542 19.1721C9.24401 18.2549 9.02625 17.4104 8.75749 16.7695C8.62404 16.4513 8.49769 16.2327 8.38688 16.0963C8.31038 16.0021 8.26424 15.9747 8.25284 15.969C8.22578 15.9625 8.20968 15.9612 8.20155 15.9613C8.19075 15.9674 8.15537 15.9906 8.09909 16.0588C7.93042 16.2629 7.75855 16.6366 7.57368 17.1912C7.49318 17.4327 7.41845 17.6815 7.3407 17.9403C7.33349 17.9643 7.32624 17.9884 7.31897 18.0126C7.23572 18.2894 7.1471 18.5815 7.0518 18.85C6.95813 19.114 6.84353 19.3978 6.69668 19.6483C6.5589 19.8833 6.32727 20.2044 5.94721 20.3944C5.66895 20.5336 5.3232 20.5803 4.97754 20.453C4.67423 20.3412 4.48013 20.1347 4.3697 19.9903C4.15808 19.7135 4.02198 19.3532 3.92632 19.0662C3.80863 18.7132 3.68115 18.2322 3.54859 17.7321C3.46356 17.4113 3.37644 17.0826 3.28848 16.7747C3.04417 15.9197 2.75508 15.0651 2.36953 14.3491C1.98111 13.6277 1.54424 13.1402 1.05279 12.8944C0.714002 12.725 0.5 12.3788 0.5 12C0.5 11.6212 0.714002 11.275 1.05279 11.1056C1.54424 10.8598 1.98111 10.3723 2.36953 9.6509C2.75508 8.93488 3.04417 8.08035 3.28848 7.22528C3.37644 6.9174 3.46356 6.58872 3.54859 6.26793C3.68115 5.76779 3.80863 5.28683 3.92632 4.93377C4.02198 4.64678 4.15808 4.28648 4.3697 4.00974C4.48013 3.86533 4.67423 3.65875 4.97754 3.54701C5.3232 3.41966 5.66895 3.46644 5.94721 3.60557C6.32727 3.7956 6.5589 4.11666 6.69668 4.3517C6.84353 4.6022 6.95813 4.88597 7.0518 5.14997C7.1471 5.41853 7.23572 5.71058 7.31897 5.98743C7.32625 6.01163 7.33349 6.03574 7.34071 6.05976C7.41845 6.31854 7.49318 6.56726 7.57368 6.80877C7.75855 7.36336 7.93042 7.73707 8.09909 7.94124C8.15537 8.00937 8.19075 8.03264 8.20155 8.03874C8.20968 8.03879 8.22578 8.03747 8.25284 8.03099C8.26424 8.02533 8.31038 7.99789 8.38688 7.90371C8.49769 7.76728 8.62404 7.54868 8.75749 7.23046C9.02625 6.58957 9.24401 5.7451 9.46542 4.82786C9.48972 4.72718 9.51414 4.62528 9.53873 4.52264C9.72721 3.73595 9.92598 2.90633 10.1621 2.25893C10.295 1.89463 10.4673 1.50652 10.7073 1.19341ZM8.25005 8.03222L8.25161 8.03158ZM8.25005 15.9678L8.25161 15.9684ZM15.7499 15.9678L15.7484 15.9684ZM15.7484 8.03158L15.7499 8.03222ZM9.9393 9.16465C9.65964 9.50895 9.26949 9.8384 8.74254 9.97014C8.31004 10.0783 7.87672 10.0608 7.47137 9.90111C7.07849 9.74634 6.78041 9.48525 6.55716 9.21501C6.13208 8.70043 5.86645 8.01164 5.67632 7.44123C5.60516 7.22776 5.53847 7.01071 5.47614 6.80428C5.39946 7.09527 5.31375 7.41693 5.21152 7.77472C4.95583 8.66965 4.61992 9.69012 4.13047 10.5991C3.86585 11.0905 3.54161 11.5772 3.13865 12C3.54161 12.4228 3.86585 12.9095 4.13047 13.4009C4.61992 14.3099 4.95583 15.3303 5.21152 16.2253C5.31375 16.5831 5.39946 16.9047 5.47614 17.1957C5.53847 16.9893 5.60516 16.7722 5.67632 16.5588C5.86645 15.9884 6.13208 15.2996 6.55716 14.785C6.78041 14.5148 7.07849 14.2537 7.47137 14.0989C7.87672 13.9392 8.31004 13.9217 8.74254 14.0299C9.26949 14.1616 9.65964 14.491 9.9393 14.8353C10.2172 15.1774 10.4306 15.5877 10.6019 15.9961C10.9425 16.8083 11.1935 17.8076 11.4096 18.7029C11.4343 18.8053 11.4585 18.9062 11.4824 19.0055C11.6637 19.7604 11.823 20.4234 12 20.9397C12.177 20.4234 12.3363 19.7604 12.5176 19.0055C12.5415 18.9062 12.5657 18.8053 12.5904 18.7029C12.8065 17.8076 13.0575 16.8083 13.3981 15.9961C13.5694 15.5877 13.7828 15.1774 14.0607 14.8353C14.3404 14.491 14.7305 14.1616 15.2575 14.0299C15.69 13.9217 16.1233 13.9392 16.5286 14.0989C16.9215 14.2537 17.2196 14.5148 17.4428 14.785C17.8679 15.2996 18.1335 15.9884 18.3237 16.5588C18.3948 16.7722 18.4615 16.9893 18.5239 17.1957C18.6005 16.9047 18.6863 16.5831 18.7885 16.2253C19.0442 15.3303 19.3801 14.3099 19.8695 13.4009C20.1342 12.9095 20.4584 12.4228 20.8614 12C20.4584 11.5772 20.1342 11.0905 19.8695 10.5991C19.3801 9.69012 19.0442 8.66965 18.7885 7.77472C18.6863 7.41693 18.6005 7.09527 18.5239 6.80428C18.4615 7.01071 18.3948 7.22776 18.3237 7.44123C18.1335 8.01164 17.8679 8.70043 17.4428 9.21501C17.2196 9.48525 16.9215 9.74634 16.5286 9.90111C16.1233 10.0608 15.69 10.0783 15.2575 9.97014C14.7305 9.8384 14.3404 9.50895 14.0607 9.16465C13.7828 8.82257 13.5694 8.41225 13.3981 8.00391C13.0575 7.19168 12.8065 6.1924 12.5904 5.29714C12.5657 5.19474 12.5415 5.09382 12.5176 4.99448C12.3363 4.23958 12.177 3.5766 12 3.0603C11.823 3.5766 11.6637 4.23958 11.4824 4.99448C11.4585 5.09382 11.4343 5.19474 11.4096 5.29714C11.1935 6.1924 10.9425 7.19168 10.6019 8.00391C10.4306 8.41225 10.2172 8.82257 9.9393 9.16465Z" fill="#080809" style="fill:#080809;fill:color(display-p3 0.0314 0.0314 0.0353);fill-opacity:1;"/>
</g>
<defs>
<clipPath id="clip0_29901_26555">
<rect width="24" height="24" fill="white" style="fill:white;fill-opacity:1;"/>
</clipPath>
</defs>
</svg>
