<svg width="24" height="24" viewBox="0 0 24 24" fill="none" xmlns="http://www.w3.org/2000/svg">
<path d="M20 3C20.5523 3 21 3.44772 21 4V16C21 16.5523 20.5523 17 20 17H17.5C16.9477 17 16.5 17.4477 16.5 18C16.5 18.5523 16.9477 19 17.5 19H20C21.6569 19 23 17.6569 23 16V4C23 2.34315 21.6569 1 20 1H12C11.2398 1 10.5436 1.28402 10.0154 1.75026C9.60128 2.11573 9.56188 2.74766 9.92735 3.16173C10.2928 3.5758 10.9248 3.6152 11.3388 3.24974C11.5157 3.09361 11.7457 3 12 3H20Z" fill="#080809" style="fill:#080809;fill:color(display-p3 0.0314 0.0314 0.0353);fill-opacity:1;"/>
<path d="M1 8C1 6.34315 2.34315 5 4 5H12C13.6569 5 15 6.34315 15 8V20C15 21.6569 13.6569 23 12 23H4C2.34315 23 1 21.6569 1 20V8Z" fill="#080809" style="fill:#080809;fill:color(display-p3 0.0314 0.0314 0.0353);fill-opacity:1;"/>
</svg>
