<svg width="24" height="24" viewBox="0 0 24 24" fill="none" xmlns="http://www.w3.org/2000/svg">
<path d="M8.96646 5.74316C8.82461 5.20941 8.27692 4.8917 7.74316 5.03355C7.20941 5.1754 6.8917 5.72308 7.03355 6.25684C7.61063 8.42832 9.6306 10 12 10C14.3694 10 16.3894 8.42832 16.9665 6.25684C17.1083 5.72308 16.7906 5.1754 16.2568 5.03355C15.7231 4.8917 15.1754 5.20941 15.0335 5.74316C14.6937 7.02214 13.4795 8 12 8C10.5205 8 9.30635 7.02214 8.96646 5.74316Z" fill="#080809" style="fill:#080809;fill:color(display-p3 0.0314 0.0314 0.0353);fill-opacity:1;"/>
<path fill-rule="evenodd" clip-rule="evenodd" d="M6.65721 1C6.06166 0.999945 5.52258 0.999892 5.08189 1.05669C4.59871 1.11896 4.10375 1.26278 3.67988 1.64638C3.25601 2.02997 3.06365 2.50817 2.95361 2.98276C2.85325 3.4156 2.79966 3.95202 2.74046 4.54462L1.99364 12.0128C1.79217 14.0273 1.63242 15.6247 1.64972 16.8998C1.66745 18.2062 1.86924 19.3095 2.49573 20.2723C2.84271 20.8056 3.27228 21.2802 3.76836 21.6786C4.66409 22.3977 5.7418 22.7083 7.04001 22.856C8.307 23 9.91234 23 11.9369 23H12.0629C14.0874 23 15.6928 23 16.9598 22.856C18.258 22.7083 19.3357 22.3977 20.2315 21.6786C20.7275 21.2802 21.1571 20.8056 21.5041 20.2723C22.1306 19.3095 22.3324 18.2062 22.3501 16.8997C22.3674 15.6247 22.2076 14.0273 22.0062 12.0128L21.2594 4.5446C21.2002 3.95201 21.1466 3.4156 21.0462 2.98276C20.9362 2.50817 20.7438 2.02997 20.3199 1.64638C19.8961 1.26278 19.4011 1.11896 18.9179 1.05669C18.4772 0.999892 17.9382 0.999945 17.3426 1H6.65721ZM4.90192 3.43451C4.96089 3.18019 5.01386 3.13598 5.02189 3.12928C5.02935 3.12196 5.07861 3.07365 5.33754 3.04028C5.63496 3.00195 6.04299 3.00001 6.71487 3.00001H17.2849C17.9568 3.00001 18.3649 3.00195 18.6623 3.04028C18.9212 3.07365 18.9698 3.12129 18.9772 3.12861L18.9787 3.12991C18.9867 3.1366 19.0389 3.18019 19.0979 3.43451C19.1656 3.72664 19.2082 4.13245 19.275 4.801L20.0098 12.1491C20.219 14.2404 20.3659 15.7246 20.3503 16.8726C20.335 18.0024 20.1605 18.6701 19.8277 19.1815C19.5964 19.5371 19.31 19.8535 18.9793 20.119C18.5035 20.5011 17.8565 20.7411 16.7338 20.8688C15.5931 20.9985 14.1016 21 11.9999 21C9.89823 21 8.40675 20.9985 7.266 20.8688C6.14334 20.7411 5.49631 20.5011 5.02052 20.119C4.6898 19.8535 4.40342 19.5371 4.17211 19.1815C3.83933 18.6701 3.66486 18.0024 3.64954 16.8726C3.63396 15.7246 3.78086 14.2404 3.98998 12.1491L4.7248 4.801C4.79165 4.13245 4.83419 3.72664 4.90192 3.43451Z" fill="#080809" style="fill:#080809;fill:color(display-p3 0.0314 0.0314 0.0353);fill-opacity:1;"/>
</svg>
