<svg width="24" height="24" viewBox="0 0 24 24" fill="none" xmlns="http://www.w3.org/2000/svg">
<path d="M19.75 9C19.75 9.69036 20.3096 10.25 21 10.25C21.6904 10.25 22.25 9.69036 22.25 9V4.5C22.25 2.98122 21.0188 1.75 19.5 1.75H15C14.3096 1.75 13.75 2.30964 13.75 3C13.75 3.69036 14.3096 4.25 15 4.25H17.9822L14.1161 8.11612C13.628 8.60427 13.628 9.39573 14.1161 9.88388C14.6043 10.372 15.3957 10.372 15.8839 9.88388L19.75 6.01777V9Z" fill="#080809" style="fill:#080809;fill:color(display-p3 0.0314 0.0314 0.0353);fill-opacity:1;"/>
<path d="M3 13.75C3.69036 13.75 4.25 14.3096 4.25 15V17.9822L8.11612 14.1161C8.60427 13.628 9.39573 13.628 9.88388 14.1161C10.372 14.6043 10.372 15.3957 9.88388 15.8839L6.01777 19.75H9C9.69036 19.75 10.25 20.3096 10.25 21C10.25 21.6904 9.69036 22.25 9 22.25H4.5C2.98122 22.25 1.75 21.0188 1.75 19.5V15C1.75 14.3096 2.30964 13.75 3 13.75Z" fill="#080809" style="fill:#080809;fill:color(display-p3 0.0314 0.0314 0.0353);fill-opacity:1;"/>
<path d="M19.75 17.9822L15.8839 14.1161C15.3957 13.628 14.6043 13.628 14.1161 14.1161C13.628 14.6043 13.628 15.3957 14.1161 15.8839L17.9822 19.75H15C14.3096 19.75 13.75 20.3096 13.75 21C13.75 21.6904 14.3096 22.25 15 22.25H19.5C21.0188 22.25 22.25 21.0188 22.25 19.5V15C22.25 14.3096 21.6904 13.75 21 13.75C20.3096 13.75 19.75 14.3096 19.75 15V17.9822Z" fill="#080809" style="fill:#080809;fill:color(display-p3 0.0314 0.0314 0.0353);fill-opacity:1;"/>
<path d="M10.25 3C10.25 3.69036 9.69036 4.25 9 4.25L6.01777 4.25L9.88388 8.11612C10.372 8.60427 10.372 9.39573 9.88388 9.88388C9.39573 10.372 8.60427 10.372 8.11612 9.88388L4.25 6.01777V9C4.25 9.69036 3.69036 10.25 3 10.25C2.30964 10.25 1.75 9.69036 1.75 9V4.5C1.75 2.98122 2.98122 1.75 4.5 1.75H9C9.69036 1.75 10.25 2.30964 10.25 3Z" fill="#080809" style="fill:#080809;fill:color(display-p3 0.0314 0.0314 0.0353);fill-opacity:1;"/>
</svg>
