<svg width="24" height="24" viewBox="0 0 24 24" fill="none" xmlns="http://www.w3.org/2000/svg">
<path d="M12.1339 8.63388C11.6457 9.12204 10.8543 9.12204 10.3661 8.63389C9.87796 8.14573 9.87796 7.35428 10.3661 6.86612L10.6711 6.5611C8.59951 6.75344 6.7826 7.38661 5.43964 8.27099C3.80611 9.34674 3 10.6912 3 12C3 13.5257 4.11104 15.1172 6.31555 16.2357C6.93121 16.548 7.17709 17.3003 6.86474 17.916C6.5524 18.5316 5.8001 18.7775 5.18445 18.4651C2.52365 17.1152 0.5 14.8316 0.5 12C0.5 9.58085 1.98843 7.55034 4.06467 6.18307C5.97807 4.92302 8.49929 4.13808 11.2488 4.01655L10.3661 3.13389C9.87796 2.64573 9.87796 1.85428 10.3661 1.36612C10.8543 0.877962 11.6457 0.87796 12.1339 1.36611L13.8232 3.05544C14.8972 4.12938 14.8972 5.87058 13.8232 6.94453L12.1339 8.63388Z" fill="#080809" style="fill:#080809;fill:color(display-p3 0.0314 0.0314 0.0353);fill-opacity:1;"/>
<path d="M11.8661 22.6339C12.3543 23.122 13.1457 23.122 13.6339 22.6339C14.122 22.1457 14.122 21.3543 13.6339 20.8661L12.7513 19.9835C15.5008 19.862 18.022 19.077 19.9353 17.817C22.0116 16.4497 23.5 14.4192 23.5 12.0001C23.5 9.16851 21.4763 6.88487 18.8156 5.53494C18.1999 5.22259 17.4476 5.46848 17.1353 6.08413C16.8229 6.69979 17.0688 7.45208 17.6844 7.76443C19.889 8.88286 21 10.4744 21 12.0001C21 13.3088 20.1939 14.6533 18.5604 15.7291C17.2174 16.6135 15.4004 17.2467 13.3288 17.439L13.6339 17.1339C14.122 16.6457 14.122 15.8543 13.6339 15.3661C13.1457 14.878 12.3543 14.878 11.8661 15.3661L10.1768 17.0554C9.10284 18.1294 9.10283 19.8706 10.1768 20.9445L11.8661 22.6339Z" fill="#080809" style="fill:#080809;fill:color(display-p3 0.0314 0.0314 0.0353);fill-opacity:1;"/>
</svg>
