<svg width="24" height="24" viewBox="0 0 24 24" fill="none" xmlns="http://www.w3.org/2000/svg">
<path d="M12.0046 10.2376L12.7362 12.6182H11.27L12.0046 10.2376Z" fill="#080809" style="fill:#080809;fill:color(display-p3 0.0314 0.0314 0.0353);fill-opacity:1;"/>
<path fill-rule="evenodd" clip-rule="evenodd" d="M22 9C21.4477 9 21 8.55228 21 8V4.41421L18.3199 7.09436C19.3729 8.44904 20 10.1513 20 12C20 16.4183 16.4183 20 12 20C10.1513 20 8.44904 19.3729 7.09436 18.3199L4.41422 21H8C8.55228 21 9 21.4477 9 22C9 22.5523 8.55228 23 8 23H3.5C2.11929 23 1 21.8807 1 20.5V16C1 15.4477 1.44772 15 2 15C2.55228 15 3 15.4477 3 16V19.5858L5.68014 16.9056C4.62708 15.551 4 13.8487 4 12C4 7.58172 7.58172 4 12 4C13.8487 4 15.551 4.62708 16.9056 5.68014L19.5858 3H16C15.4477 3 15 2.55228 15 2C15 1.44772 15.4477 1 16 1H20.5C21.8807 1 23 2.11929 23 3.5V8C23 8.55228 22.5523 9 22 9ZM11.0392 8.27886C11.1362 7.96446 11.4268 7.75 11.7559 7.75H12.2552C12.5846 7.75 12.8754 7.96487 12.9722 8.27969L14.9696 14.7797C15.0913 15.1756 14.869 15.5952 14.473 15.7169C14.0771 15.8386 13.6575 15.6163 13.5358 15.2203L13.1971 14.1182H10.8072L10.4669 15.2211C10.3447 15.6169 9.92486 15.8388 9.52907 15.7167C9.13327 15.5945 8.91141 15.1747 9.03354 14.7789L11.0392 8.27886Z" fill="#080809" style="fill:#080809;fill:color(display-p3 0.0314 0.0314 0.0353);fill-opacity:1;"/>
</svg>
