<svg width="24" height="24" viewBox="0 0 24 24" fill="none" xmlns="http://www.w3.org/2000/svg">
<path d="M5.88389 3.11612C5.39573 2.62796 4.60428 2.62796 4.11612 3.11611C3.62796 3.60427 3.62796 4.39572 4.11611 4.88388C5.00887 5.77664 5.9011 6.66617 6.79256 7.55492C8.21825 8.97628 9.64208 10.3958 11.0627 11.8233C11.1579 11.9189 11.1588 12.0748 11.0615 12.1721C9.64103 13.594 8.21996 15.0142 6.7985 16.4348C5.90451 17.3282 5.01037 18.2219 4.11611 19.1161C3.62796 19.6043 3.62796 20.3957 4.11612 20.8839C4.60428 21.372 5.39573 21.372 5.88389 20.8839C6.77512 19.9926 7.66701 19.1013 8.55906 18.2098L8.56425 18.2046C9.98648 16.7832 11.4091 15.3614 12.8301 13.9391C13.8993 12.8688 13.9038 11.1339 12.8347 10.0597C11.4118 8.62998 9.98065 7.20317 8.55155 5.77839C7.66079 4.89033 6.77057 4.00281 5.88389 3.11612Z" fill="#080809" style="fill:#080809;fill:color(display-p3 0.0314 0.0314 0.0353);fill-opacity:1;"/>
<path d="M13.8839 3.11612C13.3957 2.62796 12.6043 2.62796 12.1161 3.11611C11.628 3.60427 11.628 4.39572 12.1161 4.88388C13.0089 5.77669 13.9012 6.66626 14.7927 7.55506C16.2184 8.97642 17.6421 10.3958 19.0627 11.8233C19.1579 11.9189 19.1588 12.0748 19.0615 12.1721C17.6412 13.5938 16.2203 15.0139 14.799 16.4343C13.905 17.3278 13.0104 18.2219 12.1161 19.1161C11.628 19.6043 11.628 20.3957 12.1161 20.8839C12.6043 21.372 13.3957 21.372 13.8839 20.8839C14.7751 19.9926 15.667 19.1013 16.5591 18.2098L16.5643 18.2046C17.9865 16.7832 19.4091 15.3614 20.8301 13.9391C21.8993 12.8688 21.9038 11.1339 20.8347 10.0597C19.4118 8.62998 17.9807 7.20317 16.5515 5.77839L16.5503 5.7772C15.6599 4.88945 14.7703 4.0025 13.8839 3.11612Z" fill="#080809" style="fill:#080809;fill:color(display-p3 0.0314 0.0314 0.0353);fill-opacity:1;"/>
</svg>
