<svg width="24" height="24" viewBox="0 0 24 24" fill="none" xmlns="http://www.w3.org/2000/svg">
<g clip-path="url(#clip0_29901_28480)">
<path fill-rule="evenodd" clip-rule="evenodd" d="M12 23.5C18.3513 23.5 23.5 18.3513 23.5 12C23.5 5.64873 18.3513 0.5 12 0.5C5.64873 0.5 0.5 5.64873 0.5 12C0.5 18.3513 5.64873 23.5 12 23.5ZM13.7069 8.70711L10.7675 11.6464C10.5723 11.8417 10.5723 12.1583 10.7675 12.3536L13.7069 15.2929C14.0974 15.6834 14.0974 16.3166 13.7069 16.7071C13.3164 17.0976 12.6832 17.0976 12.2927 16.7071L9.35333 13.7678C8.37702 12.7915 8.37701 11.2085 9.35333 10.2322L12.2927 7.29289C12.6832 6.90237 13.3164 6.90237 13.7069 7.29289C14.0974 7.68342 14.0974 8.31658 13.7069 8.70711Z" fill="#080809" style="fill:#080809;fill:color(display-p3 0.0314 0.0314 0.0353);fill-opacity:1;"/>
</g>
<defs>
<clipPath id="clip0_29901_28480">
<rect width="24" height="24" fill="white" style="fill:white;fill-opacity:1;"/>
</clipPath>
</defs>
</svg>
