<svg width="24" height="24" viewBox="0 0 24 24" fill="none" xmlns="http://www.w3.org/2000/svg">
<path d="M17.8135 17.5775C15.9355 18.047 13.9561 17.8984 12.1691 17.1539L11.0616 16.6924C9.67179 16.1133 8.13227 15.9978 6.67157 16.3629L5 16.7808V22.5C5 23.0523 4.55228 23.5 4 23.5C3.44772 23.5 3 23.0523 3 22.5V4.00005C3 3.54118 3.3123 3.1412 3.75746 3.02991L6.1865 2.42265C8.06454 1.95314 10.0439 2.10169 11.8309 2.84624L12.9384 3.30771C14.3282 3.88681 15.8677 4.00234 17.3284 3.63717L19.7575 3.02991C20.0562 2.95522 20.3727 3.02234 20.6154 3.21185C20.8581 3.40135 21 3.69212 21 4.00005V16.0001C21 16.4589 20.6877 16.8589 20.2425 16.9702L17.8135 17.5775Z" fill="#080809" style="fill:#080809;fill:color(display-p3 0.0314 0.0314 0.0353);fill-opacity:1;"/>
</svg>
