<svg width="24" height="24" viewBox="0 0 24 24" fill="none" xmlns="http://www.w3.org/2000/svg">
<path fill-rule="evenodd" clip-rule="evenodd" d="M6 0.5C4.34315 0.5 3 1.84315 3 3.5V18.5C3 19.8062 3.83481 20.9175 5 21.3293V22.5C5 23.0523 5.44772 23.5 6 23.5C6.55228 23.5 7 23.0523 7 22.5V21.5H17V22.5C17 23.0523 17.4477 23.5 18 23.5C18.5523 23.5 19 23.0523 19 22.5V21.3293C20.1652 20.9175 21 19.8062 21 18.5V3.5C21 1.84315 19.6569 0.5 18 0.5H6ZM13 6C13 5.44772 12.5523 5 12 5H8C7.44772 5 7 5.44772 7 6C7 6.55228 7.44772 7 8 7H12C12.5523 7 13 6.55228 13 6ZM16 7.25C15.3096 7.25 14.75 6.69036 14.75 6C14.75 5.30964 15.3096 4.75 16 4.75C16.6904 4.75 17.25 5.30964 17.25 6C17.25 6.69036 16.6904 7.25 16 7.25Z" fill="#080809" style="fill:#080809;fill:color(display-p3 0.0314 0.0314 0.0353);fill-opacity:1;"/>
</svg>
