<svg width="24" height="24" viewBox="0 0 24 24" fill="none" xmlns="http://www.w3.org/2000/svg">
<path d="M4 7C5.10457 7 6 6.10457 6 5C6 3.89543 5.10457 3 4 3C2.89543 3 2 3.89543 2 5C2 6.10457 2.89543 7 4 7Z" fill="#080809" style="fill:#080809;fill:color(display-p3 0.0314 0.0314 0.0353);fill-opacity:1;"/>
<path d="M9 4C8.44772 4 8 4.44772 8 5C8 5.55228 8.44772 6 9 6L21 6C21.5523 6 22 5.55229 22 5C22 4.44772 21.5523 4 21 4L9 4Z" fill="#080809" style="fill:#080809;fill:color(display-p3 0.0314 0.0314 0.0353);fill-opacity:1;"/>
<path d="M6 19C6 20.1046 5.10457 21 4 21C2.89543 21 2 20.1046 2 19C2 17.8954 2.89543 17 4 17C5.10457 17 6 17.8954 6 19Z" fill="#080809" style="fill:#080809;fill:color(display-p3 0.0314 0.0314 0.0353);fill-opacity:1;"/>
<path d="M9 18C8.44772 18 8 18.4477 8 19C8 19.5523 8.44772 20 9 20L21 20C21.5523 20 22 19.5523 22 19C22 18.4477 21.5523 18 21 18L9 18Z" fill="#080809" style="fill:#080809;fill:color(display-p3 0.0314 0.0314 0.0353);fill-opacity:1;"/>
<path d="M6 12C6 13.1046 5.10457 14 4 14C2.89543 14 2 13.1046 2 12C2 10.8954 2.89543 10 4 10C5.10457 10 6 10.8954 6 12Z" fill="#080809" style="fill:#080809;fill:color(display-p3 0.0314 0.0314 0.0353);fill-opacity:1;"/>
<path d="M9 11C8.44772 11 8 11.4477 8 12C8 12.5523 8.44772 13 9 13L21 13C21.5523 13 22 12.5523 22 12C22 11.4477 21.5523 11 21 11L9 11Z" fill="#080809" style="fill:#080809;fill:color(display-p3 0.0314 0.0314 0.0353);fill-opacity:1;"/>
</svg>
