<svg width="24" height="24" viewBox="0 0 24 24" fill="none" xmlns="http://www.w3.org/2000/svg">
<g clip-path="url(#clip0_29901_28272)">
<path d="M12 2.5C8.14774 2.5 4.83102 4.79289 3.34012 8.08837C5.14588 8.47434 6.5 10.079 6.5 12C6.5 13.921 5.14588 15.5257 3.34012 15.9116C3.7783 16.8802 4.3742 17.7621 5.09506 18.5247C5.54872 16.2302 7.57231 14.5 10 14.5H12.365C12.7157 14.5 13.0406 14.6836 13.2216 14.9839C13.4025 15.2842 13.413 15.6574 13.2491 15.9673C12.7711 16.8717 12.5 17.9024 12.5 19C12.5 20.0438 12.7453 21.0275 13.1805 21.8992C13.2709 22.0802 13.3542 22.2524 13.3612 22.46C13.3799 23.012 12.9476 23.4746 12.3957 23.4933C12.2643 23.4978 12.1324 23.5 12 23.5C5.64873 23.5 0.5 18.3513 0.5 12C0.5 5.64873 5.64873 0.5 12 0.5C18.3513 0.5 23.5 5.64873 23.5 12C23.5 12.1324 23.4978 12.2643 23.4933 12.3957C23.4746 12.9476 23.012 13.3799 22.46 13.3612C22.4442 13.3607 22.4285 13.3598 22.4129 13.3586C22.3975 13.3573 22.3821 13.3557 22.3667 13.3538C22.2393 13.3376 22.1197 13.2976 22.0123 13.2385C21.1129 12.7671 20.089 12.5 18.9999 12.5C18.8653 12.5 18.7319 12.5041 18.5996 12.5121C18.2962 12.5305 18.001 12.4099 17.7972 12.1845C17.5934 11.959 17.5032 11.6531 17.5521 11.3531C17.817 9.72686 19.061 8.42993 20.6599 8.08832C19.1689 4.79286 15.8522 2.5 12 2.5Z" fill="#080809" style="fill:#080809;fill:color(display-p3 0.0314 0.0314 0.0353);fill-opacity:1;"/>
<path d="M8 9C8 6.79086 9.79086 5 12 5C14.2091 5 16 6.79086 16 9C16 11.2091 14.2091 13 12 13C9.79086 13 8 11.2091 8 9Z" fill="#080809" style="fill:#080809;fill:color(display-p3 0.0314 0.0314 0.0353);fill-opacity:1;"/>
<path d="M20.0015 15.5003C20.0015 14.948 19.5538 14.5003 19.0015 14.5003C18.4492 14.5003 18.0015 14.948 18.0015 15.5003V18.0003H15.5015C14.9492 18.0003 14.5015 18.448 14.5015 19.0003C14.5015 19.5526 14.9492 20.0003 15.5015 20.0003H18.0015V22.5003C18.0015 23.0526 18.4492 23.5003 19.0015 23.5003C19.5538 23.5003 20.0015 23.0526 20.0015 22.5003V20.0003H22.5015C23.0538 20.0003 23.5015 19.5526 23.5015 19.0003C23.5015 18.448 23.0538 18.0003 22.5015 18.0003H20.0015V15.5003Z" fill="#080809" style="fill:#080809;fill:color(display-p3 0.0314 0.0314 0.0353);fill-opacity:1;"/>
</g>
<defs>
<clipPath id="clip0_29901_28272">
<rect width="24" height="24" fill="white" style="fill:white;fill-opacity:1;"/>
</clipPath>
</defs>
</svg>
