<svg width="24" height="24" viewBox="0 0 24 24" fill="none" xmlns="http://www.w3.org/2000/svg">
<path d="M13 6C13 5.44772 12.5523 5 12 5H8C7.44772 5 7 5.44772 7 6C7 6.55228 7.44772 7 8 7H12C12.5523 7 13 6.55228 13 6Z" fill="#080809" style="fill:#080809;fill:color(display-p3 0.0314 0.0314 0.0353);fill-opacity:1;"/>
<path d="M16 7.25C15.3096 7.25 14.75 6.69036 14.75 6C14.75 5.30964 15.3096 4.75 16 4.75C16.6904 4.75 17.25 5.30964 17.25 6C17.25 6.69036 16.6904 7.25 16 7.25Z" fill="#080809" style="fill:#080809;fill:color(display-p3 0.0314 0.0314 0.0353);fill-opacity:1;"/>
<path fill-rule="evenodd" clip-rule="evenodd" d="M3 3.5C3 1.84315 4.34315 0.5 6 0.5H18C19.6569 0.5 21 1.84315 21 3.5V18.5C21 19.8062 20.1652 20.9175 19 21.3293V22.5C19 23.0523 18.5523 23.5 18 23.5C17.4477 23.5 17 23.0523 17 22.5V21.5H7V22.5C7 23.0523 6.55228 23.5 6 23.5C5.44772 23.5 5 23.0523 5 22.5V21.3293C3.83481 20.9175 3 19.8062 3 18.5V3.5ZM18 19.5C18.5523 19.5 19 19.0523 19 18.5V3.5C19 2.94772 18.5523 2.5 18 2.5H6C5.44772 2.5 5 2.94772 5 3.5V18.5C5 19.0523 5.44772 19.5 6 19.5H18Z" fill="#080809" style="fill:#080809;fill:color(display-p3 0.0314 0.0314 0.0353);fill-opacity:1;"/>
</svg>
