<svg width="24" height="24" viewBox="0 0 24 24" fill="none" xmlns="http://www.w3.org/2000/svg">
<g clip-path="url(#clip0_29901_28568)">
<path d="M15.6954 4.12182C14.9795 3.406 14.9796 2.24537 15.6956 1.52969C16.4114 0.814224 17.5716 0.814337 18.2872 1.52994L19.6714 2.91417L20.293 2.2926C20.6835 1.90208 21.3167 1.90208 21.7072 2.2926C22.0977 2.68313 22.0977 3.31629 21.7072 3.70682L21.0857 4.32836L22.4703 5.71301C23.1862 6.42883 23.1861 7.58946 22.4701 8.30514C21.7543 9.02061 20.5941 9.0205 19.8785 8.30489L15.6954 4.12182Z" fill="#080809" style="fill:#080809;fill:color(display-p3 0.0314 0.0314 0.0353);fill-opacity:1;"/>
<path d="M10.4984 6.31294C9.77943 5.59383 9.77946 4.42802 10.4985 3.70896C11.2176 2.98986 12.3835 2.98987 13.1026 3.70897L20.2953 10.9018C21.0145 11.621 21.0144 12.787 20.2953 13.5062C19.576 14.2254 18.4099 14.2254 17.6908 13.5061L14.7995 10.6145L10.5932 14.8207L13.4764 17.7041C14.1917 18.4194 14.1921 19.579 13.4773 20.2948C12.7618 21.0112 11.601 21.0117 10.885 20.2959L3.70154 13.1146C2.98315 12.3965 2.98559 11.2311 3.70698 10.5159C4.42389 9.80523 5.58045 9.80775 6.29425 10.5216L9.17904 13.4065L13.3853 9.2002L10.4984 6.31294Z" fill="#080809" style="fill:#080809;fill:color(display-p3 0.0314 0.0314 0.0353);fill-opacity:1;"/>
<path d="M1.52118 18.2962L2.90532 19.6803L2.293 20.2926C1.90248 20.6831 1.90248 21.3163 2.293 21.7068C2.68353 22.0973 3.31669 22.0973 3.70722 21.7068L4.31955 21.0945L5.70435 22.4792C6.41997 23.1948 7.58016 23.195 8.29592 22.4795C9.0119 21.7638 9.01201 20.6032 8.29617 19.8874L4.113 15.7043C3.39739 14.9887 2.23719 14.9886 1.52143 15.704C0.805453 16.4197 0.805343 17.5804 1.52118 18.2962Z" fill="#080809" style="fill:#080809;fill:color(display-p3 0.0314 0.0314 0.0353);fill-opacity:1;"/>
</g>
<defs>
<clipPath id="clip0_29901_28568">
<rect width="24" height="24" fill="white" style="fill:white;fill-opacity:1;"/>
</clipPath>
</defs>
</svg>
