<svg width="24" height="24" viewBox="0 0 24 24" fill="none" xmlns="http://www.w3.org/2000/svg">
<path d="M12.4484 14.2582C12.265 13.8866 11.7351 13.8866 11.5517 14.2582L10.9185 15.5412L9.50262 15.7469C9.09251 15.8065 8.92876 16.3105 9.22552 16.5998L10.25 17.5984L10.0082 19.0086C9.93813 19.417 10.3668 19.7285 10.7337 19.5357L12 18.8699L13.2664 19.5357C13.6332 19.7285 14.062 19.417 13.9919 19.0086L13.75 17.5984L14.7746 16.5998C15.0713 16.3105 14.9076 15.8065 14.4975 15.7469L13.0816 15.5412L12.4484 14.2582Z" fill="#080809" style="fill:#080809;fill:color(display-p3 0.0314 0.0314 0.0353);fill-opacity:1;"/>
<path fill-rule="evenodd" clip-rule="evenodd" d="M4.75303 5.99976C3.96524 4.89186 3.75424 3.44387 4.47447 2.19641C5.50969 0.403352 7.86565 0.0693048 9.62577 1.08551C10.7539 1.73686 11.5079 2.77938 12 3.72099C12.4921 2.77938 13.2461 1.73686 14.3742 1.08551C16.1343 0.0693048 18.4903 0.403352 19.5255 2.19641C20.2458 3.44387 20.0348 4.89186 19.247 5.99976H21C22.3807 5.99976 23.5 7.11904 23.5 8.49976V10.4998C23.5 11.5249 22.883 12.406 22 12.7917V18.9998C22 21.2089 20.2091 22.9998 18 22.9998H6C3.79086 22.9998 2 21.2089 2 18.9998V12.7917C1.11705 12.406 0.5 11.5249 0.5 10.4998V8.49976C0.5 7.11904 1.61929 5.99976 3 5.99976H4.75303ZM17.8597 3.15818C17.4723 2.48712 16.392 2.14165 15.336 2.75134C14.4837 3.24343 13.8759 4.17492 13.4723 5.0981C13.3282 5.4275 13.2178 5.73851 13.1358 5.99976H15.476C16.0098 5.93917 16.5155 5.79817 16.9502 5.54719C18.0062 4.9375 18.2471 3.82924 17.8597 3.15818ZM10.8642 5.99976C10.7822 5.73851 10.6718 5.4275 10.5277 5.0981C10.1241 4.17492 9.51633 3.24343 8.66401 2.75134C7.60799 2.14165 6.52773 2.48712 6.1403 3.15818C5.75286 3.82924 5.99381 4.9375 7.04982 5.54719C7.48453 5.79817 7.99016 5.93917 8.52401 5.99976H10.8642ZM20 12.9998V18.9998C20 20.1043 19.1046 20.9998 18 20.9998H6C4.89543 20.9998 4 20.1043 4 18.9998V12.9998H20ZM3 7.99976C2.72386 7.99976 2.5 8.22361 2.5 8.49976V10.4998C2.5 10.7759 2.72386 10.9998 3 10.9998H21C21.2761 10.9998 21.5 10.7759 21.5 10.4998V8.49976C21.5 8.22361 21.2761 7.99976 21 7.99976H3Z" fill="#080809" style="fill:#080809;fill:color(display-p3 0.0314 0.0314 0.0353);fill-opacity:1;"/>
</svg>
