<svg width="24" height="24" viewBox="0 0 24 24" fill="none" xmlns="http://www.w3.org/2000/svg">
<path d="M15.7071 3.29289C15.3166 2.90237 14.6834 2.90237 14.2929 3.29289C13.9024 3.68342 13.9024 4.31658 14.2929 4.70711L20.1716 10.5858C20.9526 11.3668 20.9526 12.6332 20.1716 13.4142L14.2929 19.2929C13.9024 19.6834 13.9024 20.3166 14.2929 20.7071C14.6834 21.0976 15.3166 21.0976 15.7071 20.7071L21.5858 14.8284C23.1479 13.2663 23.1479 10.7337 21.5858 9.17158L15.7071 3.29289Z" fill="#080809" style="fill:#080809;fill:color(display-p3 0.0314 0.0314 0.0353);fill-opacity:1;"/>
<path fill-rule="evenodd" clip-rule="evenodd" d="M11.2678 3.85346C9.69285 2.27854 7 3.39397 7 5.62123V8.11542C4.86504 8.45749 3.2649 9.54318 2.19064 11.1157C0.991995 12.8703 0.5 15.1497 0.5 17.5001C0.5 18.396 1.2249 18.8392 1.72202 18.9511C2.21929 19.063 2.98744 18.975 3.4272 18.3037C3.88956 17.5978 4.43378 17.064 5.13518 16.6877C5.63374 16.4202 6.24088 16.2167 7 16.1028V18.3786C7 20.6058 9.69285 21.7213 11.2678 20.1464L17.6464 13.7677C18.6228 12.7914 18.6228 11.2084 17.6464 10.2321L11.2678 3.85346ZM9 5.62123C9 5.17577 9.53857 4.95269 9.85355 5.26767L16.2322 11.6464C16.4275 11.8416 16.4275 12.1582 16.2322 12.3535L9.85355 18.7321C9.53857 19.0471 9 18.824 9 18.3786V15.0094C9 14.7376 8.88932 14.4774 8.69344 14.2889C8.49757 14.1004 8.23338 13.9998 7.96172 14.0102C6.46752 14.0674 5.22695 14.3688 4.18962 14.9254C3.5574 15.2646 3.02236 15.6869 2.56245 16.1754C2.71371 14.6236 3.13983 13.2718 3.84207 12.2439C4.70893 10.975 6.04511 10.1219 8.05451 10.0122C8.58482 9.9833 9 9.54484 9 9.01373V5.62123Z" fill="#080809" style="fill:#080809;fill:color(display-p3 0.0314 0.0314 0.0353);fill-opacity:1;"/>
</svg>
