<svg width="24" height="24" viewBox="0 0 24 24" fill="none" xmlns="http://www.w3.org/2000/svg">
<g clip-path="url(#clip0_29901_26745)">
<path d="M12 0.5C5.649 0.5 0.5 5.649 0.5 12C0.5 18.351 5.649 23.5 12 23.5C18.351 23.5 23.5 18.351 23.5 12C23.5 5.649 18.351 0.5 12 0.5ZM17.767 19.537C15.122 18.297 14.001 17.719 12.494 16.904L12.491 16.901C11.061 16.097 9.547 15.102 8.395 13.96C7.233 12.808 6.557 11.623 6.539 10.43C6.53 9.873 6.805 9.146 7.25 8.685C7.679 8.24 8.275 8.018 8.946 8.003C9.617 7.988 10.296 8.238 10.688 8.619C10.926 8.851 11.049 8.964 11.127 9.038C11.194 9.1 11.21 9.116 11.259 9.17L11.994 9.982L12.736 9.177C12.789 9.12 12.808 9.101 12.876 9.037C12.954 8.963 13.076 8.85 13.313 8.62C13.705 8.239 14.384 7.989 15.055 8.004C15.725 8.019 16.322 8.241 16.751 8.686C17.196 9.147 17.471 9.874 17.462 10.43C17.458 10.712 17.418 10.991 17.344 11.268C17.018 12.491 16.034 13.686 14.673 14.796C14.245 15.145 14.181 15.775 14.53 16.203C14.879 16.631 15.509 16.695 15.937 16.346C17.416 15.14 18.789 13.613 19.277 11.784C19.391 11.358 19.456 10.917 19.463 10.462C19.48 9.366 18.995 8.132 18.192 7.299C17.324 6.399 16.183 6.031 15.102 6.006C14.022 5.982 12.839 6.358 12.002 7.125C11.166 6.358 9.983 5.982 8.903 6.006C7.821 6.03 6.681 6.398 5.813 7.299C5.009 8.132 4.525 9.367 4.542 10.462C4.571 12.411 5.663 14.068 6.99 15.383C8.327 16.709 10.02 17.806 11.513 18.647C11.513 18.647 11.516 18.647 11.518 18.649C11.521 18.651 11.523 18.654 11.526 18.656C12.816 19.353 13.838 19.885 15.68 20.764C14.549 21.239 13.307 21.503 12.003 21.503C10.699 21.503 9.455 21.239 8.323 20.763C8.476 20.69 8.638 20.613 8.78 20.545C9.278 20.305 9.487 19.708 9.247 19.21C9.007 18.712 8.41 18.503 7.912 18.743C7.427 18.977 6.87 19.24 6.234 19.539C3.97 17.803 2.503 15.078 2.503 12.004C2.5 6.753 6.753 2.5 12 2.5C17.247 2.5 21.5 6.753 21.5 12C21.5 15.075 20.033 17.801 17.767 19.537Z" fill="#080809" style="fill:#080809;fill:color(display-p3 0.0314 0.0314 0.0353);fill-opacity:1;"/>
</g>
<defs>
<clipPath id="clip0_29901_26745">
<rect width="24" height="24" fill="white" style="fill:white;fill-opacity:1;"/>
</clipPath>
</defs>
</svg>
