<svg width="24" height="24" viewBox="0 0 24 24" fill="none" xmlns="http://www.w3.org/2000/svg">
<path fill-rule="evenodd" clip-rule="evenodd" d="M10 3.5C10.5523 3.5 11 3.94772 11 4.5V8.16992C11.0768 8.2414 11.1498 8.31782 11.2178 8.39941L12.9209 10.4424C13.2953 10.8916 13.5 11.4582 13.5 12.043V21C13.5 22.3807 12.3807 23.5 11 23.5H5C3.61929 23.5 2.5 22.3807 2.5 21V12.043C2.50002 11.4582 2.70474 10.8916 3.0791 10.4424L4.78223 8.39941C4.85024 8.31782 4.92318 8.2414 5 8.16992V6.5C5 4.84315 6.34315 3.5 8 3.5H10ZM4.5 13V21C4.5 21.2761 4.72386 21.5 5 21.5H11C11.2761 21.5 11.5 21.2761 11.5 21V13H4.5ZM6.70215 9.5C6.55395 9.50012 6.41327 9.56585 6.31836 9.67969L5.21875 11H10.7812L9.68164 9.67969C9.58673 9.56585 9.44605 9.50012 9.29785 9.5H6.70215ZM8 5.5C7.44772 5.5 7 5.94772 7 6.5V7.5H9V5.5H8Z" fill="#080809" style="fill:#080809;fill:color(display-p3 0.0314 0.0314 0.0353);fill-opacity:1;"/>
<path d="M21.5 9.5C22.3284 9.5 23 10.1716 23 11C23 11.8284 22.3284 12.5 21.5 12.5C20.6716 12.5 20 11.8284 20 11C20 10.1716 20.6716 9.5 21.5 9.5Z" fill="#080809" style="fill:#080809;fill:color(display-p3 0.0314 0.0314 0.0353);fill-opacity:1;"/>
<path d="M18 7.25C18.8284 7.25 19.5 7.92157 19.5 8.75C19.5 9.57843 18.8284 10.25 18 10.25C17.1716 10.25 16.5 9.57843 16.5 8.75C16.5 7.92157 17.1716 7.25 18 7.25Z" fill="#080809" style="fill:#080809;fill:color(display-p3 0.0314 0.0314 0.0353);fill-opacity:1;"/>
<path d="M14.5 5C15.3284 5 16 5.67157 16 6.5C16 7.32843 15.3284 8 14.5 8C13.6716 8 13 7.32843 13 6.5C13 5.67157 13.6716 5 14.5 5Z" fill="#080809" style="fill:#080809;fill:color(display-p3 0.0314 0.0314 0.0353);fill-opacity:1;"/>
<path d="M21.5 5C22.3284 5 23 5.67157 23 6.5C23 7.32843 22.3284 8 21.5 8C20.6716 8 20 7.32843 20 6.5C20 5.67157 20.6716 5 21.5 5Z" fill="#080809" style="fill:#080809;fill:color(display-p3 0.0314 0.0314 0.0353);fill-opacity:1;"/>
<path d="M18 2.75C18.8284 2.75 19.5 3.42157 19.5 4.25C19.5 5.07843 18.8284 5.75 18 5.75C17.1716 5.75 16.5 5.07843 16.5 4.25C16.5 3.42157 17.1716 2.75 18 2.75Z" fill="#080809" style="fill:#080809;fill:color(display-p3 0.0314 0.0314 0.0353);fill-opacity:1;"/>
<path d="M21.5 0.5C22.3284 0.5 23 1.17157 23 2C23 2.82843 22.3284 3.5 21.5 3.5C20.6716 3.5 20 2.82843 20 2C20 1.17157 20.6716 0.5 21.5 0.5Z" fill="#080809" style="fill:#080809;fill:color(display-p3 0.0314 0.0314 0.0353);fill-opacity:1;"/>
</svg>
