<svg width="24" height="24" viewBox="0 0 24 24" fill="none" xmlns="http://www.w3.org/2000/svg">
<path fill-rule="evenodd" clip-rule="evenodd" d="M4.77752 3.00971C5.01123 1.84115 6.03727 1 7.22897 1H16.7696C17.9613 1 18.9873 1.84115 19.221 3.00971L22.621 20.0097C22.9304 21.5567 21.7472 23 20.1696 23H3.82897C2.25136 23 1.06813 21.5567 1.37752 20.0097L4.77752 3.00971ZM12.9995 4C12.9995 3.44772 12.5518 3 11.9995 3C11.4472 3 10.9995 3.44772 10.9995 4V6C10.9995 6.55228 11.4472 7 11.9995 7C12.5518 7 12.9995 6.55228 12.9995 6V4ZM11.9995 9C12.5518 9 12.9995 9.44771 12.9995 10V13C12.9995 13.5523 12.5518 14 11.9995 14C11.4472 14 10.9995 13.5523 10.9995 13V10C10.9995 9.44771 11.4472 9 11.9995 9ZM12.9995 17C12.9995 16.4477 12.5518 16 11.9995 16C11.4472 16 10.9995 16.4477 10.9995 17V20C10.9995 20.5523 11.4472 21 11.9995 21C12.5518 21 12.9995 20.5523 12.9995 20V17Z" fill="#080809" style="fill:#080809;fill:color(display-p3 0.0314 0.0314 0.0353);fill-opacity:1;"/>
</svg>
