<svg width="24" height="24" viewBox="0 0 24 24" fill="none" xmlns="http://www.w3.org/2000/svg">
<path fill-rule="evenodd" clip-rule="evenodd" d="M15.0289 22.9996H15.0706C16.4247 22.9996 17.5413 22.9997 18.4251 22.8808C19.3529 22.7561 20.1724 22.4841 20.8285 21.828C21.4846 21.1719 21.7565 20.3525 21.8813 19.4247C22.0001 18.5409 22.0001 17.4243 22 16.0702V9.76571C22.4209 10.0093 22.9679 9.91549 23.2809 9.52422C23.6259 9.09296 23.556 8.46367 23.1247 8.11866L17.5727 3.67706C16.4167 2.75223 15.4787 2.0018 14.6526 1.49059C13.7916 0.957775 12.9567 0.62207 12 0.62207C11.0434 0.62207 10.2085 0.957777 9.3475 1.4906C8.5214 2.00181 7.58339 2.75223 6.42737 3.67707L5 4.81896V3C5 2.44772 4.55228 2 4 2C3.44772 2 3 2.44772 3 3V6.41894L0.875345 8.11866C0.444081 8.46366 0.374158 9.09296 0.719166 9.52422C1.03218 9.91549 1.57921 10.0093 2.00004 9.76571L2.00004 16.0702C2 17.4243 1.99997 18.5409 2.11879 19.4247C2.24353 20.3525 2.5155 21.1719 3.17161 21.828C3.82772 22.4841 4.64714 22.7561 5.57497 22.8808C6.45873 22.9997 7.57534 22.9996 8.92945 22.9996H8.97115C8.98073 22.9999 8.99035 23 9 23H15C15.0096 23 15.0193 22.9999 15.0289 22.9996ZM10.3999 3.1913C9.68888 3.63131 8.84467 4.30449 7.6272 5.27845L4.00004 8.18016V15.9996C4.00004 17.4421 4.00216 18.4233 4.10095 19.1582C4.19588 19.8642 4.36325 20.1912 4.58582 20.4138C4.80839 20.6364 5.13542 20.8037 5.84147 20.8987C6.39232 20.9727 7.08168 20.9925 8 20.9977V14.5C8 13.1193 9.11929 12 10.5 12H13.5C14.8807 12 16 13.1193 16 14.5V20.9977C16.9184 20.9925 17.6077 20.9727 18.1586 20.8987C18.8647 20.8037 19.1917 20.6364 19.4142 20.4138C19.6368 20.1912 19.8042 19.8642 19.8991 19.1582C19.9979 18.4233 20 17.4421 20 15.9996V8.18016L16.3729 5.27844C15.1554 4.30448 14.3112 3.6313 13.6002 3.1913C12.9123 2.76562 12.4465 2.62207 12 2.62207C11.5536 2.62207 11.0878 2.76562 10.3999 3.1913ZM14 20.9996V14.5C14 14.2239 13.7761 14 13.5 14H10.5C10.2239 14 10 14.2239 10 14.5V20.9996H14Z" fill="#080809" style="fill:#080809;fill:color(display-p3 0.0314 0.0314 0.0353);fill-opacity:1;"/>
</svg>
