<svg width="24" height="24" viewBox="0 0 24 24" fill="none" xmlns="http://www.w3.org/2000/svg">
<path d="M15.7506 8.75C16.645 8.76719 17.5172 9.46435 17.4996 10.6348C17.4755 12.3073 15.7326 13.7189 14.1929 14.6367C14.0738 14.7076 13.9263 14.7076 13.8072 14.6367C12.2675 13.7189 10.5246 12.3073 10.5006 10.6348C10.4829 9.46397 11.3559 8.76888 12.2506 8.75195C12.9705 8.73847 13.4864 9.05626 14.0006 9.83301C14.5146 9.05653 15.0305 8.73636 15.7506 8.75Z" fill="#080809" style="fill:#080809;fill:color(display-p3 0.0314 0.0314 0.0353);fill-opacity:1;"/>
<path fill-rule="evenodd" clip-rule="evenodd" d="M15.0006 2C16.3862 2 17.5264 1.99831 18.4254 2.11914C19.353 2.24391 20.1727 2.51587 20.8287 3.17188L20.9478 3.29688C21.5184 3.93081 21.7645 4.70561 21.8814 5.5752C22.0023 6.47422 22.0006 7.61419 22.0006 9V14.5C22.0006 15.8858 22.0023 17.0258 21.8814 17.9248C21.7645 18.7944 21.5184 19.5692 20.9478 20.2031L20.8287 20.3281C20.1727 20.9841 19.353 21.2561 18.4254 21.3809C17.5264 21.5017 16.3862 21.5 15.0006 21.5H13.0006C12.4865 21.5 12.0058 21.4971 11.5591 21.4912C11.3608 21.5448 11.1569 21.6009 10.9468 21.6572C9.60859 22.0158 8.50752 22.3127 7.60798 22.4287C6.73789 22.5408 5.92551 22.5031 5.16559 22.1162L5.01325 22.0332C4.21 21.5693 3.73514 20.8481 3.37458 19.9844C3.0252 19.1473 2.73224 18.0455 2.3736 16.707L1.33844 12.8438C0.979814 11.5053 0.682951 10.4045 0.56696 9.50488C0.447331 8.57653 0.497754 7.71459 0.961491 6.91113L1.05133 6.76367C1.51598 6.04844 2.20063 5.60948 3.01032 5.27149C3.84736 4.92215 4.94932 4.62912 6.28766 4.27051C6.34871 4.25415 6.40923 4.23774 6.4693 4.22168C6.63332 3.83855 6.85818 3.48613 7.17243 3.17188C7.8285 2.51592 8.64802 2.24387 9.57575 2.11914C10.4747 1.99835 11.6149 2 13.0006 2H15.0006ZM6.04255 6.40723C5.05412 6.67579 4.33211 6.88714 3.78083 7.11719C3.20598 7.35718 2.92496 7.5762 2.75837 7.80957L2.69391 7.91016C2.53655 8.18272 2.45839 8.54263 2.54938 9.24902C2.64418 9.98431 2.89682 10.9331 3.27008 12.3262L4.30524 16.1895C4.67843 17.5822 4.93382 18.5297 5.2193 19.2139C5.45937 19.7889 5.67921 20.0697 5.91266 20.2363L6.01325 20.3018L6.12067 20.3564C6.37447 20.4719 6.71455 20.5208 7.30133 20.4502L7.29743 20.4473L7.17243 20.3281C6.51633 19.672 6.24444 18.8526 6.11969 17.9248C5.99885 17.0258 6.00055 15.8858 6.00055 14.5V9C6.00055 8.01115 5.99914 7.1475 6.04255 6.40723ZM13.0006 4C11.5586 4 10.5771 4.0019 9.84235 4.10059C9.13652 4.19548 8.80906 4.36347 8.58649 4.58594C8.36393 4.8085 8.19607 5.13579 8.10114 5.8418C8.0024 6.57657 8.00055 7.55778 8.00055 9V14.5C8.00055 15.9422 8.0024 16.9234 8.10114 17.6582C8.19607 18.3642 8.36393 18.6915 8.58649 18.9141L8.67536 18.9951C8.89671 19.1774 9.22488 19.3164 9.84235 19.3994C10.5771 19.4981 11.5586 19.5 13.0006 19.5H15.0006C16.4425 19.5 17.4241 19.4981 18.1588 19.3994C18.8645 19.3045 19.1921 19.1366 19.4146 18.9141L19.4957 18.8252C19.678 18.6038 19.8169 18.2757 19.9 17.6582C19.9987 16.9234 20.0006 15.9422 20.0006 14.5V9C20.0006 7.55782 19.9987 6.57657 19.9 5.8418C19.8169 5.22429 19.678 4.89615 19.4957 4.67481L19.4146 4.58594C19.1921 4.36341 18.8645 4.19552 18.1588 4.10059C17.4241 4.00186 16.4425 4 15.0006 4H13.0006Z" fill="#080809" style="fill:#080809;fill:color(display-p3 0.0314 0.0314 0.0353);fill-opacity:1;"/>
</svg>
