<svg width="24" height="24" viewBox="0 0 24 24" fill="none" xmlns="http://www.w3.org/2000/svg">
<g clip-path="url(#clip0_29901_28491)">
<path d="M2.5 12C2.5 17.2467 6.75329 21.5 12 21.5C12.4488 21.5 12.8898 21.4689 13.3211 21.409C13.8681 21.333 14.3732 21.7148 14.4492 22.2618C14.5253 22.8088 14.1434 23.3139 13.5964 23.39C13.0742 23.4625 12.5412 23.5 12 23.5C5.64873 23.5 0.5 18.3513 0.5 12C0.5 5.64873 5.64873 0.5 12 0.5C18.3513 0.5 23.5 5.64873 23.5 12C23.5 12.5412 23.4625 13.0742 23.39 13.5964C23.3139 14.1434 22.8088 14.5253 22.2618 14.4492C21.7148 14.3732 21.333 13.8681 21.409 13.3211C21.4689 12.8898 21.5 12.4488 21.5 12C21.5 6.75329 17.2467 2.5 12 2.5C6.75329 2.5 2.5 6.75329 2.5 12Z" fill="#080809" style="fill:#080809;fill:color(display-p3 0.0314 0.0314 0.0353);fill-opacity:1;"/>
<path d="M15 19C15 21.2091 16.7909 23 19 23C21.2091 23 23 21.2091 23 19C23 16.7909 21.2091 15 19 15C16.7909 15 15 16.7909 15 19Z" fill="#080809" style="fill:#080809;fill:color(display-p3 0.0314 0.0314 0.0353);fill-opacity:1;"/>
</g>
<defs>
<clipPath id="clip0_29901_28491">
<rect width="24" height="24" fill="white" style="fill:white;fill-opacity:1;"/>
</clipPath>
</defs>
</svg>
