<svg width="24" height="24" viewBox="0 0 24 24" fill="none" xmlns="http://www.w3.org/2000/svg">
<path fill-rule="evenodd" clip-rule="evenodd" d="M8.53837 2.97721C10.0794 0.31814 13.9189 0.318144 15.46 2.97722L23.0039 15.9943C24.5494 18.6609 22.6253 21.9999 19.5431 21.9999H4.45521C1.37308 21.9999 -0.551051 18.6609 0.9944 15.9943L8.53837 2.97721ZM12.999 9C12.999 8.44772 12.5513 8 11.999 8C11.4467 8 10.999 8.44772 10.999 9V13C10.999 13.5523 11.4467 14 11.999 14C12.5513 14 12.999 13.5523 12.999 13V9ZM11.999 18.25C12.6894 18.25 13.249 17.6904 13.249 17C13.249 16.3096 12.6894 15.75 11.999 15.75C11.3087 15.75 10.749 16.3096 10.749 17C10.749 17.6904 11.3087 18.25 11.999 18.25Z" fill="#080809" style="fill:#080809;fill:color(display-p3 0.0314 0.0314 0.0353);fill-opacity:1;"/>
</svg>
