<svg width="24" height="24" viewBox="0 0 24 24" fill="none" xmlns="http://www.w3.org/2000/svg">
<path fill-rule="evenodd" clip-rule="evenodd" d="M5.04786 9.17712C5.45515 5.6989 8.4124 3 12 3C14.9008 3 17.3873 4.76389 18.4496 7.27537C21.3669 8.11994 23.5 10.8099 23.5 14C23.5 17.866 20.366 21 16.5 21H6.5C3.18629 21 0.5 18.3137 0.5 15C0.5 12.1868 2.43542 9.82669 5.04786 9.17712ZM12 17.25C12.6904 17.25 13.25 16.6904 13.25 16C13.25 15.3096 12.6904 14.75 12 14.75C11.3096 14.75 10.75 15.3096 10.75 16C10.75 16.6904 11.3096 17.25 12 17.25ZM12 7C12.5523 7 13 7.44771 13 8V12C13 12.5523 12.5523 13 12 13C11.4477 13 11 12.5523 11 12V8C11 7.44771 11.4477 7 12 7Z" fill="#080809" style="fill:#080809;fill:color(display-p3 0.0314 0.0314 0.0353);fill-opacity:1;"/>
</svg>
