<svg width="24" height="24" viewBox="0 0 24 24" fill="none" xmlns="http://www.w3.org/2000/svg">
<path d="M2 2C1.44772 2 1 2.44772 1 3C1 3.55228 1.44772 4 2 4H3.87868C4.01129 4 4.13846 4.05268 4.23223 4.14645L5 4.91421V13.5C5 15.7092 6.79086 17.5 9 17.5H14.3787C16.6059 17.5 17.7214 14.8072 16.1464 13.2323L7.2117 4.29751C7.21017 4.29597 7.20864 4.29443 7.20711 4.29289L5.64645 2.73223C5.17761 2.26339 4.54172 2 3.87868 2H2Z" fill="#080809" style="fill:#080809;fill:color(display-p3 0.0314 0.0314 0.0353);fill-opacity:1;"/>
<path d="M9 21C9 22.1046 8.10457 23 7 23C5.89543 23 5 22.1046 5 21C5 19.8954 5.89543 19 7 19C8.10457 19 9 19.8954 9 21Z" fill="#080809" style="fill:#080809;fill:color(display-p3 0.0314 0.0314 0.0353);fill-opacity:1;"/>
<path d="M20 21C20 22.1046 19.1046 23 18 23C16.8954 23 16 22.1046 16 21C16 19.8954 16.8954 19 18 19C19.1046 19 20 19.8954 20 21Z" fill="#080809" style="fill:#080809;fill:color(display-p3 0.0314 0.0314 0.0353);fill-opacity:1;"/>
</svg>
