<svg width="24" height="24" viewBox="0 0 24 24" fill="none" xmlns="http://www.w3.org/2000/svg">
<path fill-rule="evenodd" clip-rule="evenodd" d="M12 0.5C18.3513 0.5 23.5 5.64873 23.5 12C23.5 18.3513 18.3513 23.5 12 23.5C10.0782 23.5 8.26351 23.0279 6.66895 22.1924C6.50263 22.1053 6.34422 22.0918 6.22363 22.123L2.82422 23.0049C1.71693 23.292 0.708044 22.2831 0.995117 21.1758L1.87695 17.7764C1.90815 17.6558 1.89474 17.4974 1.80762 17.3311C0.97205 15.7365 0.5 13.9218 0.5 12C0.5 5.64873 5.64873 0.5 12 0.5ZM12 2.5C6.7533 2.5 2.5 6.75329 2.5 12C2.5 13.5907 2.8901 15.0874 3.5791 16.4023C3.86655 16.9509 3.98379 17.6176 3.8125 18.2783L3.14453 20.8555L5.72168 20.1875C6.38243 20.0162 7.0491 20.1335 7.59766 20.4209C8.91261 21.1099 10.4093 21.5 12 21.5C17.2467 21.5 21.5 17.2467 21.5 12C21.5 6.75329 17.2467 2.5 12 2.5Z" fill="#080809" style="fill:#080809;fill:color(display-p3 0.0314 0.0314 0.0353);fill-opacity:1;"/>
</svg>
