<svg width="24" height="24" viewBox="0 0 24 24" fill="none" xmlns="http://www.w3.org/2000/svg">
<path fill-rule="evenodd" clip-rule="evenodd" d="M20.5933 19H21C22.3807 19 23.5 17.8807 23.5 16.5V14.4891C23.5 13.489 22.904 12.5852 21.9848 12.1912L19.7616 11.2384L17.3088 5.5152C16.9148 4.59599 16.011 4 15.0109 4H3C1.61929 4 0.5 5.11929 0.5 6.5V16.5C0.5 17.8493 1.56895 18.9489 2.9062 18.9983C3.32745 20.3048 4.55334 21.25 6 21.25C7.44602 21.25 8.67147 20.3056 9.09325 19H14.4067C14.8285 20.3056 16.054 21.25 17.5 21.25C18.946 21.25 20.1715 20.3056 20.5933 19ZM3 6C2.72386 6 2.5 6.22386 2.5 6.5V16.5C2.5 16.7452 2.67651 16.9492 2.90941 16.9918C3.33365 15.6904 4.557 14.75 6 14.75C7.44602 14.75 8.67147 15.6944 9.09325 17H14.4067C14.8285 15.6944 16.054 14.75 17.5 14.75C18.946 14.75 20.1715 15.6944 20.5933 17H21C21.2761 17 21.5 16.7761 21.5 16.5V14.4891C21.5 14.2891 21.3808 14.1083 21.197 14.0295L18.7947 13H12C11.4477 13 11 12.5523 11 12V6H3ZM13 11V6H15.0109C15.2109 6 15.3917 6.1192 15.4705 6.30304L17.4835 11H13ZM4.75 18C4.75 17.3096 5.30964 16.75 6 16.75C6.69036 16.75 7.25 17.3096 7.25 18C7.25 18.6904 6.69036 19.25 6 19.25C5.30964 19.25 4.75 18.6904 4.75 18ZM16.25 18C16.25 17.3096 16.8096 16.75 17.5 16.75C18.1904 16.75 18.75 17.3096 18.75 18C18.75 18.6904 18.1904 19.25 17.5 19.25C16.8096 19.25 16.25 18.6904 16.25 18Z" fill="#080809" style="fill:#080809;fill:color(display-p3 0.0314 0.0314 0.0353);fill-opacity:1;"/>
</svg>
