<svg width="24" height="24" viewBox="0 0 24 24" fill="none" xmlns="http://www.w3.org/2000/svg">
<path fill-rule="evenodd" clip-rule="evenodd" d="M7.25 2C5.58095 2 4.02728 2.23375 2.85562 2.64129C2.27448 2.84342 1.73279 3.10696 1.3167 3.44913C0.907537 3.78561 0.5 4.30431 0.5 5V16.9996C0.5 17.6953 0.907537 18.214 1.3167 18.5504C1.73279 18.8926 2.27448 19.1561 2.85562 19.3583C4.02728 19.7658 5.58095 19.9996 7.25 19.9996H7.5C8.05228 19.9996 8.5 19.5519 8.5 18.9996C8.5 18.4473 8.05228 17.9996 7.5 17.9996H7.25C5.74341 17.9996 4.42208 17.7856 3.51266 17.4693C3.05324 17.3095 2.75287 17.1421 2.58703 17.0057C2.54335 16.9698 2.5162 16.9424 2.5 16.924V15.2245L2.50709 15.2274C2.62116 15.2736 2.73757 15.3172 2.85562 15.3583C4.02728 15.7658 5.58095 15.9996 7.25 15.9996H7.5C8.05228 15.9996 8.5 15.5519 8.5 14.9996C8.5 14.9305 8.493 14.8631 8.47968 14.798C8.38644 14.3423 7.98325 13.9996 7.5 13.9996H7.25C5.74341 13.9996 4.42208 13.7856 3.51266 13.4693C3.05324 13.3095 2.75287 13.1421 2.58703 13.0057C2.54335 12.9698 2.5162 12.9424 2.5 12.924V11.2249C2.61633 11.2723 2.73513 11.3168 2.85562 11.3587C4.02728 11.7662 5.58095 12 7.25 12H7.5C8.05228 12 8.5 11.5523 8.5 11C8.5 10.4477 8.05228 10 7.5 10H7.27974C7.26986 9.99971 7.25995 9.99957 7.25 9.99957C5.74341 9.99957 4.42208 9.78561 3.51266 9.46928C3.05324 9.30949 2.75287 9.14206 2.58703 9.00568C2.54335 8.96976 2.5162 8.94245 2.5 8.924V7.22491L2.50709 7.22779C2.62116 7.27406 2.73757 7.31765 2.85562 7.35871C4.02728 7.76625 5.58095 8 7.25 8C8.91905 8 10.4727 7.76625 11.6444 7.35871C12.2255 7.15658 12.7672 6.89304 13.1833 6.55087C13.5925 6.21439 14 5.69569 14 5C14 4.30431 13.5925 3.78561 13.1833 3.44913C12.7672 3.10696 12.2255 2.84342 11.6444 2.64129C10.4727 2.23375 8.91905 2 7.25 2ZM2.47875 8.89594C2.47875 8.89594 2.47953 8.898 2.48227 8.90205L2.48144 8.90037C2.48004 8.89823 2.47875 8.89594 2.47875 8.89594Z" fill="#080809" style="fill:#080809;fill:color(display-p3 0.0314 0.0314 0.0353);fill-opacity:1;"/>
<path fill-rule="evenodd" clip-rule="evenodd" d="M10 11V11C10.0002 10.3045 10.4076 9.78554 10.8167 9.44913C11.2328 9.10696 11.7745 8.84342 12.3556 8.64129C13.5273 8.23375 15.081 8 16.75 8C18.419 8 19.9727 8.23375 21.1444 8.64129C21.7255 8.84342 22.2672 9.10696 22.6833 9.44913C23.0924 9.78554 23.4998 10.3041 23.5 10.9996V10.9996V18.9996C23.5 19.6953 23.0925 20.214 22.6833 20.5504C22.2672 20.8926 21.7255 21.1561 21.1444 21.3583C19.9727 21.7658 18.419 21.9996 16.75 21.9996C15.081 21.9996 13.5273 21.7658 12.3556 21.3583C11.7745 21.1561 11.2328 20.8926 10.8167 20.5504C10.4075 20.214 10 19.6953 10 18.9996V11ZM13.3726 15.5829C14.2553 15.8358 15.4317 15.9996 16.75 15.9996C18.2566 15.9996 19.5779 15.7856 20.4873 15.4693C20.9468 15.3095 21.2471 15.1421 21.413 15.0057C21.4566 14.9698 21.4838 14.9425 21.5 14.924L21.5 13.2249C21.3837 13.2723 21.2649 13.3168 21.1444 13.3587C19.9727 13.7662 18.419 14 16.75 14C15.081 14 13.5273 13.7662 12.3556 13.3587C12.2351 13.3168 12.1163 13.2723 12 13.2249V14.924L12.0015 14.9257C12.0179 14.9441 12.0447 14.9708 12.087 15.0057C12.2529 15.1421 12.5532 15.3095 13.0127 15.4693C13.1263 15.5088 13.2464 15.5468 13.3726 15.5829ZM21.5 17.2245C21.3837 17.2718 21.2649 17.3164 21.1444 17.3583C19.9727 17.7658 18.419 17.9996 16.75 17.9996C15.081 17.9996 13.5273 17.7658 12.3556 17.3583C12.2351 17.3164 12.1163 17.2718 12 17.2245V18.924C12.0162 18.9425 12.0434 18.9698 12.087 19.0057C12.2529 19.1421 12.5532 19.3095 13.0127 19.4693C13.9221 19.7856 15.2434 19.9996 16.75 19.9996C18.2566 19.9996 19.5779 19.7856 20.4873 19.4693C20.9468 19.3095 21.2471 19.1421 21.413 19.0057C21.4566 18.9698 21.4838 18.9425 21.5 18.924V17.2245Z" fill="#080809" style="fill:#080809;fill:color(display-p3 0.0314 0.0314 0.0353);fill-opacity:1;"/>
</svg>
