<svg width="24" height="24" viewBox="0 0 24 24" fill="none" xmlns="http://www.w3.org/2000/svg">
<path fill-rule="evenodd" clip-rule="evenodd" d="M12 1C8.78114 1 6.07118 3.17176 5.25283 6.12995C2.5373 6.70429 0.5 9.11379 0.5 12C0.5 15.3137 3.18629 18 6.5 18C6.76214 18 7.0207 17.9831 7.27457 17.9504C8.30413 19.77 10.2575 21 12.5 21C14.5349 21 16.3321 19.9866 17.416 18.4405C20.8496 17.9915 23.5 15.0556 23.5 11.5C23.5 8.21106 21.2327 5.45344 18.1758 4.7021C16.9977 2.50036 14.675 1 12 1ZM7.06677 7.17994C7.45739 4.80883 9.51842 3 12 3C14.0429 3 15.8018 4.22528 16.5777 5.98518C16.7137 6.29363 16.996 6.5128 17.3285 6.56817C19.6955 6.96227 21.5 9.02138 21.5 11.5C21.5 14.167 19.4114 16.3469 16.7812 16.4923C16.4437 16.5109 16.1384 16.6989 15.9698 16.9919C15.2777 18.1942 13.9824 19 12.5 19C10.8056 19 9.35488 17.9461 8.77234 16.4544C8.5857 15.9765 8.06765 15.7174 7.57328 15.8546C7.23287 15.9492 6.87318 16 6.5 16C4.29086 16 2.5 14.2091 2.5 12C2.5 9.9045 4.11204 8.18449 6.16294 8.01395C6.61976 7.97596 6.99226 7.63224 7.06677 7.17994Z" fill="#080809" style="fill:#080809;fill:color(display-p3 0.0314 0.0314 0.0353);fill-opacity:1;"/>
<path d="M3.5 23C4.32843 23 5 22.3284 5 21.5C5 20.6716 4.32843 20 3.5 20C2.67157 20 2 20.6716 2 21.5C2 22.3284 2.67157 23 3.5 23Z" fill="#080809" style="fill:#080809;fill:color(display-p3 0.0314 0.0314 0.0353);fill-opacity:1;"/>
</svg>
