<svg width="24" height="24" viewBox="0 0 24 24" fill="none" xmlns="http://www.w3.org/2000/svg">
<g clip-path="url(#clip0_29901_28108)">
<path fill-rule="evenodd" clip-rule="evenodd" d="M21.7837 11C21.6717 10.659 21.4813 10.2967 21.1827 9.87462C20.8637 9.42376 20.9706 8.79968 21.4215 8.48072C21.8723 8.16175 22.4964 8.26867 22.8154 8.71953C23.3857 9.52571 23.7636 10.3286 23.88 11.2411C23.9442 11.7451 23.9442 12.2553 23.88 12.7593C23.7393 13.8622 23.2168 14.8038 22.438 15.7818C21.6802 16.7336 20.6039 17.8098 19.2501 19.1635L19.1626 19.2511C17.8089 20.6048 16.7326 21.6811 15.7809 22.439C14.8029 23.2177 13.8613 23.7403 12.7584 23.8809C12.2543 23.9452 11.7442 23.9452 11.2401 23.8809C10.1372 23.7403 9.19562 23.2177 8.21762 22.439C7.26591 21.6811 6.18962 20.6048 4.83594 19.2511L4.74831 19.1635C3.39464 17.8099 2.31831 16.7335 1.5605 15.7818C0.781736 14.8038 0.259197 13.8622 0.118528 12.7593C0.0542407 12.2553 0.0542407 11.7451 0.118528 11.2411C0.259197 10.1382 0.781736 9.19659 1.5605 8.21859C2.31831 7.2669 3.3946 6.19063 4.74829 4.83697L4.83598 4.74928C6.18965 3.39558 7.26592 2.31929 8.21762 1.56147C9.19562 0.782712 10.1372 0.260174 11.2401 0.119505C11.7442 0.0552172 12.2543 0.0552172 12.7584 0.119505C13.6707 0.23587 14.4735 0.61363 15.2796 1.18383C15.7305 1.50277 15.8374 2.12684 15.5185 2.57772C15.1995 3.0286 14.5754 3.13555 14.1246 2.8166C13.7024 2.51796 13.34 2.32761 12.999 2.2156V5.58579L18.4132 11H21.7837ZM10.999 2.21574C10.5535 2.36217 10.0704 2.64273 9.46346 3.12605C8.61084 3.80497 7.61377 4.79991 6.20635 6.20733C4.79894 7.61474 3.80399 8.61182 3.12507 9.46443C2.64175 10.0714 2.3612 10.5545 2.21477 11H5.58481L10.999 5.58579V2.21574ZM2.21462 13C2.36101 13.4456 2.64159 13.9288 3.12507 14.536C3.80399 15.3886 4.79894 16.3857 6.20635 17.7931C7.61377 19.2005 8.61084 20.1955 9.46346 20.8744C10.0704 21.3577 10.5535 21.6383 10.999 21.7847V18.4142L5.58481 13H2.21462ZM12.999 21.7848C13.4447 21.6385 13.9279 21.3579 14.535 20.8744C15.3876 20.1955 16.3847 19.2005 17.7921 17.7931C19.1996 16.3857 20.1945 15.3886 20.8734 14.536C21.3569 13.9288 21.6375 13.4456 21.7839 13H18.4132L12.999 18.4142V21.7848Z" fill="#080809" style="fill:#080809;fill:color(display-p3 0.0314 0.0314 0.0353);fill-opacity:1;"/>
<path d="M20.9369 1.15296C20.7917 0.760528 20.4175 0.5 19.999 0.5C19.5806 0.5 19.2064 0.760528 19.0612 1.15296L18.5455 2.5465L17.152 3.06215C16.7596 3.20736 16.499 3.58156 16.499 4C16.499 4.41844 16.7596 4.79264 17.152 4.93785L18.5455 5.4535L19.0612 6.84704C19.2064 7.23947 19.5806 7.5 19.999 7.5C20.4175 7.5 20.7917 7.23947 20.9369 6.84704L21.4525 5.4535L22.8461 4.93785C23.2385 4.79264 23.499 4.41844 23.499 4C23.499 3.58156 23.2385 3.20736 22.8461 3.06215L21.4525 2.5465L20.9369 1.15296Z" fill="#080809" style="fill:#080809;fill:color(display-p3 0.0314 0.0314 0.0353);fill-opacity:1;"/>
<path d="M3.45241 19.4897C3.3435 19.1954 3.06285 19 2.74902 19C2.43519 19 2.15455 19.1954 2.04563 19.4897L1.76018 20.2612L0.988746 20.5466C0.694419 20.6555 0.499023 20.9362 0.499023 21.25C0.499023 21.5638 0.694419 21.8445 0.988746 21.9534L1.76018 22.2388L2.04563 23.0103C2.15455 23.3046 2.43519 23.5 2.74902 23.5C3.06285 23.5 3.3435 23.3046 3.45241 23.0103L3.73787 22.2388L4.5093 21.9534C4.80363 21.8445 4.99902 21.5638 4.99902 21.25C4.99902 20.9362 4.80363 20.6555 4.5093 20.5466L3.73787 20.2612L3.45241 19.4897Z" fill="#080809" style="fill:#080809;fill:color(display-p3 0.0314 0.0314 0.0353);fill-opacity:1;"/>
</g>
<defs>
<clipPath id="clip0_29901_28108">
<rect width="24" height="24" fill="white" style="fill:white;fill-opacity:1;"/>
</clipPath>
</defs>
</svg>
