<svg width="24" height="24" viewBox="0 0 24 24" fill="none" xmlns="http://www.w3.org/2000/svg">
<g clip-path="url(#clip0_29901_27721)">
<path d="M13.455 2.08132C13.526 1.23007 12.8542 0.5 12 0.5C11.1458 0.5 10.474 1.23007 10.545 2.08132L11.0035 7.58305C11.0466 8.10134 11.4799 8.5 12 8.5C12.5201 8.5 12.9534 8.10134 12.9965 7.58305L13.455 2.08132Z" fill="#080809" style="fill:#080809;fill:color(display-p3 0.0314 0.0314 0.0353);fill-opacity:1;"/>
<path d="M9.15561 1.81227C9.41878 2.4505 9.11473 3.18122 8.47651 3.44439C5.11339 4.83115 2.75 8.14105 2.75 12C2.75 17.1086 6.89137 21.25 12 21.25C17.1086 21.25 21.25 17.1086 21.25 12C21.25 8.14105 18.8866 4.83115 15.5235 3.44439C14.8853 3.18122 14.5812 2.4505 14.8444 1.81227C15.1076 1.17404 15.8383 0.869999 16.4765 1.13317C20.7432 2.89249 23.75 7.09363 23.75 12C23.75 18.4893 18.4893 23.75 12 23.75C5.51065 23.75 0.25 18.4893 0.25 12C0.25 7.09363 3.25683 2.89249 7.52349 1.13317C8.16172 0.869999 8.89244 1.17404 9.15561 1.81227Z" fill="#080809" style="fill:#080809;fill:color(display-p3 0.0314 0.0314 0.0353);fill-opacity:1;"/>
<path d="M9.51472 6.39611C9.91787 6.95652 9.79038 7.73764 9.22996 8.14079C8.02836 9.00519 7.25 10.4117 7.25 12C7.25 14.6234 9.37665 16.75 12 16.75C14.6234 16.75 16.75 14.6234 16.75 12C16.75 10.4117 15.9716 9.00519 14.77 8.14079C14.2096 7.73764 14.0821 6.95652 14.4853 6.39611C14.8884 5.83569 15.6695 5.7082 16.23 6.11135C18.0565 7.42531 19.25 9.5733 19.25 12C19.25 16.0041 16.0041 19.25 12 19.25C7.99594 19.25 4.75 16.0041 4.75 12C4.75 9.5733 5.94351 7.42531 7.77004 6.11135C8.33045 5.7082 9.11157 5.83569 9.51472 6.39611Z" fill="#080809" style="fill:#080809;fill:color(display-p3 0.0314 0.0314 0.0353);fill-opacity:1;"/>
<path d="M10 12C10 10.8954 10.8954 10 12 10C13.1046 10 14 10.8954 14 12C14 13.1046 13.1046 14 12 14C10.8954 14 10 13.1046 10 12Z" fill="#080809" style="fill:#080809;fill:color(display-p3 0.0314 0.0314 0.0353);fill-opacity:1;"/>
</g>
<defs>
<clipPath id="clip0_29901_27721">
<rect width="24" height="24" fill="white" style="fill:white;fill-opacity:1;"/>
</clipPath>
</defs>
</svg>
