<svg width="24" height="24" viewBox="0 0 24 24" fill="none" xmlns="http://www.w3.org/2000/svg">
<path d="M12.75 13.75C12.75 15.1307 11.6307 16.25 10.25 16.25C9.92681 16.25 9.61795 16.1887 9.33441 16.077L12.577 12.8344C12.6887 13.1179 12.75 13.4268 12.75 13.75Z" fill="#080809" style="fill:#080809;fill:color(display-p3 0.0314 0.0314 0.0353);fill-opacity:1;"/>
<path d="M7.92141 14.6616L11.1616 11.4214C10.8792 11.3108 10.5717 11.25 10.25 11.25C8.86929 11.25 7.75 12.3693 7.75 13.75C7.75 14.0717 7.81075 14.3792 7.92141 14.6616Z" fill="#080809" style="fill:#080809;fill:color(display-p3 0.0314 0.0314 0.0353);fill-opacity:1;"/>
<path fill-rule="evenodd" clip-rule="evenodd" d="M22.9995 3.5C22.9995 2.11929 21.8803 1 20.4995 1H13.2422C12.1813 1 11.1639 1.42143 10.4138 2.17157L1.66376 10.9216C0.101663 12.4837 0.101663 15.0163 1.66376 16.5784L7.42112 22.3358C8.98322 23.8979 11.5159 23.8979 13.078 22.3358L21.828 13.5858C22.5781 12.8356 22.9995 11.8182 22.9995 10.7574V3.5ZM17.5 8.5C16.3954 8.5 15.5 7.60457 15.5 6.5C15.5 5.39543 16.3954 4.5 17.5 4.5C18.6046 4.5 19.5 5.39543 19.5 6.5C19.5 7.60457 18.6046 8.5 17.5 8.5ZM10.25 18.25C12.7353 18.25 14.75 16.2353 14.75 13.75C14.75 11.2647 12.7353 9.25 10.25 9.25C7.76472 9.25 5.75 11.2647 5.75 13.75C5.75 16.2353 7.76472 18.25 10.25 18.25Z" fill="#080809" style="fill:#080809;fill:color(display-p3 0.0314 0.0314 0.0353);fill-opacity:1;"/>
</svg>
