<svg width="24" height="24" viewBox="0 0 24 24" fill="none" xmlns="http://www.w3.org/2000/svg">
<path d="M8.75 3C4.46979 3 1 6.46979 1 10.75C1 11.7615 1.19429 12.73 1.5485 13.6186C1.67827 13.9441 1.76263 14.1564 1.81758 14.3149C1.8452 14.3945 1.85795 14.4406 1.8635 14.4622C1.86103 14.4779 1.85598 14.5051 1.84574 14.5476C1.81878 14.6594 1.77426 14.807 1.69761 15.0588L1.17978 16.7597C0.888526 17.7164 1.78277 18.6108 2.73948 18.3196L4.44067 17.802C4.69244 17.7254 4.84004 17.6809 4.95188 17.6539C4.99434 17.6437 5.02153 17.6386 5.03724 17.6362C5.05885 17.6417 5.10489 17.6545 5.18454 17.6821C5.343 17.7371 5.55525 17.8214 5.88077 17.9512C6.7695 18.3056 7.73827 18.5 8.75 18.5C13.0302 18.5 16.5 15.0302 16.5 10.75C16.5 6.46979 13.0302 3 8.75 3Z" fill="#080809" style="fill:#080809;fill:color(display-p3 0.0314 0.0314 0.0353);fill-opacity:1;"/>
<path d="M15.5173 3.93137C15.6189 3.38852 16.1414 3.03085 16.6842 3.1325C20.2793 3.80565 23.0002 6.95897 23.0002 10.7499C23.0002 11.7614 22.8059 12.7299 22.4517 13.6185C22.3219 13.944 22.2376 14.1563 22.1826 14.3148C22.155 14.3944 22.1422 14.4405 22.1367 14.4621C22.1391 14.4778 22.1442 14.505 22.1544 14.5475C22.1814 14.6593 22.2259 14.8069 22.3026 15.0587L22.8204 16.7596C23.1117 17.7163 22.2174 18.6107 21.2607 18.3195L19.5595 17.8019C19.3077 17.7253 19.1601 17.6808 19.0483 17.6538C19.0058 17.6436 18.9787 17.6385 18.9629 17.6361C18.9413 17.6416 18.8953 17.6544 18.8156 17.682C18.6572 17.737 18.4449 17.8213 18.1194 17.9511C17.6609 18.134 17.1808 18.2743 16.6842 18.3673C16.1414 18.4689 15.6189 18.1113 15.5173 17.5684C15.4156 17.0256 15.7733 16.5031 16.3161 16.4015C16.6839 16.3326 17.0393 16.2287 17.3786 16.0934L17.4001 16.0848C17.6982 15.966 17.9534 15.8642 18.1602 15.7925C18.3605 15.723 18.6095 15.6466 18.8717 15.6356C19.2646 15.619 19.6676 15.7429 20.0415 15.8578L20.1417 15.8885L20.4975 15.9968L20.3893 15.6412L20.3585 15.5409C20.2436 15.167 20.1197 14.764 20.1362 14.3711C20.1471 14.1089 20.2235 13.8599 20.293 13.6595C20.3647 13.4526 20.4665 13.1975 20.5853 12.8993L20.5939 12.8779C20.8557 12.221 21.0002 11.5035 21.0002 10.7499C21.0002 7.93917 18.9825 5.59758 16.3161 5.09833C15.7733 4.99669 15.4156 4.47422 15.5173 3.93137Z" fill="#080809" style="fill:#080809;fill:color(display-p3 0.0314 0.0314 0.0353);fill-opacity:1;"/>
<path d="M6 21C5.44772 21 5 21.4477 5 22C5 22.5523 5.44772 23 6 23H18C18.5523 23 19 22.5523 19 22C19 21.4477 18.5523 21 18 21H6Z" fill="#080809" style="fill:#080809;fill:color(display-p3 0.0314 0.0314 0.0353);fill-opacity:1;"/>
</svg>
