<svg width="24" height="24" viewBox="0 0 24 24" fill="none" xmlns="http://www.w3.org/2000/svg">
<path fill-rule="evenodd" clip-rule="evenodd" d="M9.04944 3.11699C8.69033 3.01439 8.30967 3.01439 7.95056 3.11699L1.58792 4.93489C0.943966 5.11887 0.5 5.70745 0.5 6.37717V19.3372C0.5 20.3337 1.45386 21.0532 2.41208 20.7794L8.5 19.04L14.9506 20.8831C15.3097 20.9857 15.6903 20.9857 16.0494 20.8831L22.4121 19.0652C23.056 18.8812 23.5 18.2926 23.5 17.6229V4.66289C23.5 3.66632 22.5461 2.94682 21.5879 3.2206L15.5 4.96001L9.04944 3.11699ZM8.5 5.04004L14.9506 6.88306C15.1301 6.93436 15.3151 6.96001 15.5 6.96001V18.96L9.04944 17.117C8.86989 17.0657 8.68494 17.04 8.5 17.04V5.04004Z" fill="#080809" style="fill:#080809;fill:color(display-p3 0.0314 0.0314 0.0353);fill-opacity:1;"/>
</svg>
