<svg width="24" height="24" viewBox="0 0 24 24" fill="none" xmlns="http://www.w3.org/2000/svg">
<path fill-rule="evenodd" clip-rule="evenodd" d="M12.8628 3.15582C12.5462 2.83512 12 3.05932 12 3.50998V8.00248C12 8.55476 11.5523 9.00248 11 9.00248H10.5C7.58095 9.00248 5.50274 10.222 4.12357 12.0953C2.91318 13.7395 2.21242 15.9327 2.04135 18.3301C2.81703 17.3939 3.76238 16.6319 4.93033 16.075C6.44545 15.3526 8.27778 15.0025 10.5 15.0025H11C11.5523 15.0025 12 15.4502 12 16.0025V20.4901C12 20.9408 12.5462 21.165 12.8628 20.8443L21.2451 12.3543C21.4389 12.1579 21.4389 11.8423 21.2451 11.6459L12.8628 3.15582ZM10 3.50998C10 1.27134 12.7132 0.157623 14.286 1.75067L22.6683 10.2408C23.6312 11.216 23.6312 12.7842 22.6683 13.7594L14.286 22.2494C12.7132 23.8425 10 22.7288 10 20.4901V17.0092C8.22692 17.058 6.86408 17.3687 5.79111 17.8803C4.63182 18.433 3.75465 19.2468 3.04864 20.3333C2.59207 21.0359 1.78571 21.1208 1.2696 21.0032C0.755147 20.8861 0 20.429 0 19.5025C0 16.3518 0.789377 13.2508 2.51296 10.9096C4.17987 8.6454 6.68372 7.14917 10 7.01268V3.50998Z" fill="#080809" style="fill:#080809;fill:color(display-p3 0.0314 0.0314 0.0353);fill-opacity:1;"/>
</svg>
