<svg width="24" height="24" viewBox="0 0 24 24" fill="none" xmlns="http://www.w3.org/2000/svg">
<path fill-rule="evenodd" clip-rule="evenodd" d="M11.4781 0.646966C11.7868 0.458153 12.1733 0.450781 12.4889 0.627688C12.8046 0.804596 13 1.13819 13 1.5C13 2.1504 13.1596 3.29487 13.4838 4.47756C13.6487 5.07898 13.8453 5.64917 14.0637 6.14519L15.1807 4.5241C15.3702 4.24904 15.6846 4.08677 16.0186 4.0916C16.3526 4.09643 16.6621 4.26771 16.8436 4.54814C17.1652 5.0449 17.9583 6.20261 18.5844 6.92078C19.4499 7.91365 21.5 10.2953 21.5 14C21.5 19.1618 17.2527 23.5 12 23.5C6.74728 23.5 2.5 19.1618 2.5 14C2.5 10.0072 4.90714 4.66687 11.4781 0.646966ZM16.291 20.1302C16.4272 19.6693 16.5 19.1819 16.5 18.6818C16.5 17.7986 16.2205 16.9211 15.8603 16.1446C15.4961 15.3594 15.0198 14.6147 14.5591 13.9805C14.0964 13.3436 13.636 12.7996 13.2919 12.4153C13.1193 12.2226 12.9748 12.0686 12.8721 11.9616C12.8208 11.908 12.7798 11.8661 12.751 11.8369L12.717 11.8027L12.7072 11.793L12.7042 11.79L12.7025 11.7883C12.313 11.4039 11.687 11.4039 11.2975 11.7883L11.2958 11.79L11.2928 11.793L11.283 11.8027L11.249 11.8369C11.2202 11.8661 11.1792 11.908 11.1279 11.9616C11.0252 12.0686 10.8807 12.2226 10.7081 12.4153C10.364 12.7996 9.90359 13.3436 9.44093 13.9805C8.98022 14.6147 8.50394 15.3594 8.13972 16.1446C7.77949 16.9211 7.5 17.7986 7.5 18.6818C7.5 19.1819 7.57284 19.6693 7.709 20.1302C5.77009 18.7597 4.5 16.5004 4.5 14C4.5 11.06 6.15462 6.80278 11.168 3.2449C11.2612 3.80789 11.3917 4.41062 11.555 5.00639C11.9056 6.28516 12.4507 7.69363 13.2287 8.63645C13.4283 8.87838 13.7299 9.01263 14.0433 8.99906C14.3566 8.9855 14.6455 8.82568 14.8234 8.5674L16.0026 6.8561C16.3419 7.32714 16.7251 7.83158 17.0768 8.23506C17.8972 9.17607 19.5 11.0743 19.5 14C19.5 16.5004 18.2299 18.7597 16.291 20.1302ZM12 21.5C13.3006 21.5 14.5 20.3219 14.5 18.6818C14.5 18.2014 14.342 17.6243 14.046 16.9861C13.7539 16.3566 13.3552 15.7262 12.9409 15.1559C12.6108 14.7014 12.2793 14.2967 12 13.9744C11.7207 14.2967 11.3892 14.7014 11.0591 15.1559C10.6448 15.7262 10.2461 16.3566 9.95403 16.9861C9.65801 17.6243 9.5 18.2014 9.5 18.6818C9.5 20.3219 10.6994 21.5 12 21.5Z" fill="#080809" style="fill:#080809;fill:color(display-p3 0.0314 0.0314 0.0353);fill-opacity:1;"/>
</svg>
