<svg width="24" height="24" viewBox="0 0 24 24" fill="none" xmlns="http://www.w3.org/2000/svg">
<path d="M9.73223 2.85443C11.3071 1.27952 14 2.39493 14 4.6222V19.3796C14 21.6068 11.3071 22.7222 9.73223 21.1473L5.58441 16.9995H3.5C1.84315 16.9995 0.5 15.6564 0.5 13.9995V9.99951C0.5 8.34265 1.84315 6.99951 3.5 6.99951H5.58716L9.73223 2.85443Z" fill="#080809" style="fill:#080809;fill:color(display-p3 0.0314 0.0314 0.0353);fill-opacity:1;"/>
<path d="M17.9119 7.38415C17.5717 6.94904 16.9433 6.87207 16.5082 7.21222C16.0731 7.55237 15.9961 8.18084 16.3362 8.61594C17.0659 9.5493 17.5002 10.7226 17.5002 12C17.5002 13.2775 17.0659 14.4508 16.3362 15.3841C15.9961 15.8192 16.0731 16.4477 16.5082 16.7879C16.9433 17.128 17.5717 17.051 17.9119 16.6159C18.9068 15.3434 19.5002 13.7396 19.5002 12C19.5002 10.2605 18.9068 8.65672 17.9119 7.38415Z" fill="#080809" style="fill:#080809;fill:color(display-p3 0.0314 0.0314 0.0353);fill-opacity:1;"/>
</svg>
