<svg width="24" height="24" viewBox="0 0 24 24" fill="none" xmlns="http://www.w3.org/2000/svg">
<path d="M16 4C15.4477 4 15 4.44772 15 5C15 5.55228 15.4477 6 16 6H19.5858L13.3536 12.2322C13.1583 12.4275 12.8417 12.4275 12.6464 12.2322L10.7678 10.3536C9.79145 9.37724 8.20854 9.37724 7.23223 10.3536L1.29289 16.2929C0.902369 16.6834 0.902369 17.3166 1.29289 17.7071C1.68342 18.0976 2.31658 18.0976 2.70711 17.7071L8.64645 11.7678C8.84171 11.5725 9.15829 11.5725 9.35355 11.7678L11.2322 13.6464C12.2085 14.6228 13.7915 14.6228 14.7678 13.6464L21 7.41421V11C21 11.5523 21.4477 12 22 12C22.5523 12 23 11.5523 23 11V6.5C23 5.11929 21.8807 4 20.5 4H16Z" fill="#080809" style="fill:#080809;fill:color(display-p3 0.0314 0.0314 0.0353);fill-opacity:1;"/>
</svg>
