<svg width="24" height="24" viewBox="0 0 24 24" fill="none" xmlns="http://www.w3.org/2000/svg">
<path d="M17.7304 2.75L17.3643 2.38388C16.8762 1.89573 16.8762 1.10427 17.3643 0.616117C17.8525 0.127961 18.6439 0.127961 19.1321 0.616116L20.925 2.40901C21.8037 3.28769 21.8037 4.71231 20.925 5.59099L19.1321 7.38388C18.6439 7.87204 17.8525 7.87204 17.3643 7.38388C16.8762 6.89573 16.8762 6.10427 17.3643 5.61612L17.7304 5.25L11.2481 5.25C9.32716 5.25 8.01219 5.25266 7.02559 5.3853C6.07494 5.51311 5.6184 5.74063 5.30357 6.05546C5.02345 6.33559 4.81538 6.72483 4.68253 7.46265C4.54321 8.23639 4.50714 9.26764 4.49999 10.756C4.49667 11.4464 3.93434 12.0033 3.24399 12C2.55364 11.9967 1.99669 11.4343 2.00001 10.744C2.00706 9.279 2.0387 8.03818 2.2221 7.01962C2.41197 5.96513 2.78165 5.04185 3.53581 4.28769C4.39255 3.43094 5.4646 3.07268 6.69247 2.9076C7.86521 2.74992 9.34924 2.74996 11.1591 2.75L17.7304 2.75Z" fill="#080809" style="fill:#080809;fill:color(display-p3 0.0314 0.0314 0.0353);fill-opacity:1;"/>
<path d="M6.26566 18.75L6.63178 18.3839C7.11993 17.8957 7.11993 17.1043 6.63178 16.6161C6.14362 16.128 5.35217 16.128 4.86401 16.6161L3.07112 18.409C2.19244 19.2877 2.19244 20.7123 3.07112 21.591L4.86401 23.3839C5.35217 23.872 6.14362 23.872 6.63178 23.3839C7.11994 22.8957 7.11994 22.1043 6.63178 21.6161L6.26567 21.25H12.8371C14.647 21.25 16.131 21.2501 17.3038 21.0924C18.5316 20.9273 19.6037 20.5691 20.4604 19.7123C21.2146 18.9582 21.5843 18.0349 21.7741 16.9804C21.9575 15.9618 21.9892 14.721 21.9962 13.256C21.9995 12.5657 21.4426 12.0033 20.7522 12C20.0619 11.9967 19.4996 12.5536 19.4962 13.244C19.4891 14.7324 19.453 15.7636 19.3137 16.5374C19.1808 17.2752 18.9728 17.6644 18.6927 17.9445C18.3778 18.2594 17.9213 18.4869 16.9706 18.6147C15.984 18.7473 14.6691 18.75 12.7481 18.75H6.26566Z" fill="#080809" style="fill:#080809;fill:color(display-p3 0.0314 0.0314 0.0353);fill-opacity:1;"/>
</svg>
