<svg width="24" height="24" viewBox="0 0 24 24" fill="none" xmlns="http://www.w3.org/2000/svg">
<path d="M6 5.41399L3.70711 7.70688C3.31658 8.0974 2.68342 8.0974 2.29289 7.70688C1.90237 7.31636 1.90237 6.68319 2.29289 6.29267L5.23223 3.35333C6.20855 2.37701 7.79146 2.37702 8.76777 3.35333L11.7071 6.29267C12.0976 6.68319 12.0976 7.31636 11.7071 7.70688C11.3166 8.0974 10.6834 8.0974 10.2929 7.70688L8 5.41399V19.9998C8 20.552 7.55228 20.9998 7 20.9998C6.44772 20.9998 6 20.552 6 19.9998V5.41399Z" fill="#080809" style="fill:#080809;fill:color(display-p3 0.0314 0.0314 0.0353);fill-opacity:1;"/>
<path d="M13.7071 16.2926L16 18.5855V3.99976C16 3.44747 16.4477 2.99976 17 2.99976C17.5523 2.99976 18 3.44747 18 3.99976V18.5855L20.2929 16.2926C20.6834 15.9021 21.3166 15.9021 21.7071 16.2926C22.0976 16.6832 22.0976 17.3163 21.7071 17.7068L18.7678 20.6462C17.7915 21.6225 16.2085 21.6225 15.2322 20.6462L12.2929 17.7068C11.9024 17.3163 11.9024 16.6832 12.2929 16.2926C12.6834 15.9021 13.3166 15.9021 13.7071 16.2926Z" fill="#080809" style="fill:#080809;fill:color(display-p3 0.0314 0.0314 0.0353);fill-opacity:1;"/>
</svg>
