<svg width="24" height="24" viewBox="0 0 24 24" fill="none" xmlns="http://www.w3.org/2000/svg">
<path fill-rule="evenodd" clip-rule="evenodd" d="M12 0.5C16.9706 0.5 21 4.52944 21 9.5C21 12.165 19.8406 14.5581 18 16.2061V20.8506C18 22.7938 15.8802 23.9939 14.2139 22.9941L12.2568 21.8203C12.0987 21.7256 11.9013 21.7256 11.7432 21.8203L9.78613 22.9941C8.11982 23.9939 6 22.7938 6 20.8506V16.2061C4.15941 14.5581 3 12.165 3 9.5C3 4.52944 7.02944 0.5 12 0.5ZM16 17.5615C14.7947 18.1607 13.4373 18.5 12 18.5C10.5627 18.5 9.20525 18.1607 8 17.5615V20.8506C8 21.2391 8.42361 21.479 8.75684 21.2793L10.7139 20.1055C11.5055 19.6305 12.4945 19.6305 13.2861 20.1055L15.2432 21.2793C15.5764 21.479 16 21.2391 16 20.8506V17.5615ZM12 5C11.6468 5.00021 11.3236 5.18628 11.1445 5.48242L11.0771 5.61621L10.3857 7.27734L8.5918 7.42188C8.18948 7.45437 7.84551 7.7255 7.7207 8.10938C7.59605 8.49325 7.71421 8.91496 8.02051 9.17773L9.38672 10.3486L8.96973 12.0996C8.87621 12.4922 9.02825 12.9032 9.35449 13.1406C9.68114 13.3779 10.1192 13.3948 10.4639 13.1846L12 12.2461L13.5361 13.1846L13.6689 13.2529C13.988 13.3875 14.3595 13.3482 14.6455 13.1406C14.9313 12.9328 15.0831 12.5921 15.0537 12.2471L15.0303 12.0996L14.6123 10.3486L15.9795 9.17773C16.2861 8.91494 16.4041 8.49345 16.2793 8.10938C16.17 7.77342 15.8937 7.52313 15.5566 7.44434L15.4082 7.42188L13.6133 7.27734L12.9229 5.61621C12.7677 5.24337 12.4039 5 12 5Z" fill="#080809" style="fill:#080809;fill:color(display-p3 0.0314 0.0314 0.0353);fill-opacity:1;"/>
</svg>
