<svg width="24" height="24" viewBox="0 0 24 24" fill="none" xmlns="http://www.w3.org/2000/svg">
<path fill-rule="evenodd" clip-rule="evenodd" d="M7 5.5C7 2.73858 9.23858 0.5 12 0.5C14.7614 0.5 17 2.73858 17 5.5V9.07187C17.1472 9.08496 17.2889 9.10045 17.4251 9.11875C18.3529 9.2435 19.1723 9.51547 19.8284 10.1716C20.0965 10.4397 20.307 10.7421 20.469 11.0799C20.7078 11.5779 20.4976 12.1752 19.9996 12.414C19.5016 12.6528 18.9044 12.4426 18.6656 11.9446C18.5971 11.8018 18.5157 11.6873 18.4142 11.5858C18.1916 11.3632 17.8646 11.1958 17.1586 11.1009C16.4238 11.0021 15.4425 11 14 11H10C8.55752 11 7.57626 11.0021 6.84144 11.1009C6.13538 11.1958 5.80836 11.3632 5.58579 11.5858C5.36322 11.8084 5.19585 12.1354 5.10092 12.8414C5.00213 13.5763 5 14.5575 5 16C5 17.4425 5.00213 18.4238 5.10092 19.1586C5.19585 19.8646 5.36322 20.1916 5.58579 20.4142C5.80836 20.6368 6.13538 20.8042 6.84144 20.8991C7.57626 20.9979 8.55752 21 10 21H13.1241C13.6764 21 14.1241 21.4477 14.1241 22C14.1241 22.5523 13.6764 23 13.1241 23H9.92943C8.57531 23 7.4587 23.0001 6.57494 22.8813C5.64711 22.7565 4.82769 22.4845 4.17158 21.8284C3.51547 21.1723 3.2435 20.3529 3.11876 19.4251C2.99994 18.5413 2.99997 17.4247 3 16.0706V15.9294C2.99997 14.5753 2.99994 13.4587 3.11876 12.5749C3.2435 11.6471 3.51547 10.8277 4.17158 10.1716C4.82769 9.51547 5.64711 9.2435 6.57494 9.11875C6.71109 9.10045 6.85278 9.08496 7 9.07187V5.5ZM15 9H9V5.5C9 3.84315 10.3431 2.5 12 2.5C13.6569 2.5 15 3.84315 15 5.5V9Z" fill="#080809" style="fill:#080809;fill:color(display-p3 0.0314 0.0314 0.0353);fill-opacity:1;"/>
<path d="M18.2071 17.793C17.8166 17.4025 17.1834 17.4025 16.7929 17.793C16.4024 18.1836 16.4024 18.8167 16.7929 19.2073L18.5858 21.0002C19.3668 21.7812 20.6332 21.7812 21.4142 21.0002L23.2071 19.2073C23.5976 18.8167 23.5976 18.1836 23.2071 17.793C22.8166 17.4025 22.1834 17.4025 21.7929 17.793L20 19.5859L18.2071 17.793Z" fill="#080809" style="fill:#080809;fill:color(display-p3 0.0314 0.0314 0.0353);fill-opacity:1;"/>
</svg>
