<svg width="24" height="24" viewBox="0 0 24 24" fill="none" xmlns="http://www.w3.org/2000/svg">
<path d="M12.2108 23.5005C13.082 23.5005 13.8736 22.9939 14.2387 22.2029L15.7209 18.9911C16.4365 17.4406 17.5033 16.078 18.8367 15.0111L20.4989 13.6813C21.4477 12.9222 22 11.773 22 10.5579V6.00013C22 3.23887 19.7617 1.00037 17.0004 1.00013L11.7689 1.00006L11.7531 1.00001L11.75 1H7.5C5.29086 1 3.5 2.79086 3.5 5C3.5 5.12252 3.50554 5.24392 3.5164 5.36394C2.59367 6.09579 2 7.22776 2 8.49951C2 8.93255 2.06915 9.35065 2.19722 9.74261C1.75777 10.3848 1.5 11.1627 1.5 11.9995C1.5 14.2087 3.29086 15.9995 5.5 15.9995H9.39812C9.42556 16.0002 9.45306 16.0005 9.4806 16.0005C9.59054 16.0005 9.67061 16.1047 9.64228 16.2109L8.86108 19.1404C8.27417 21.3413 9.93301 23.5005 12.2108 23.5005Z" fill="#080809" style="fill:#080809;fill:color(display-p3 0.0314 0.0314 0.0353);fill-opacity:1;"/>
</svg>
