<svg width="24" height="24" viewBox="0 0 24 24" fill="none" xmlns="http://www.w3.org/2000/svg">
<path fill-rule="evenodd" clip-rule="evenodd" d="M11 1H4C2.34315 1 1 2.34315 1 4V20C1 21.6569 2.34315 23 4 23H11V1ZM3.07615 12.8827C3.23093 13.2564 3.59557 13.5 4.00003 13.5H8.00003C8.40449 13.5 8.76913 13.2564 8.92391 12.8827C9.07869 12.509 8.99313 12.0789 8.70714 11.7929L6.70714 9.79289C6.31661 9.40237 5.68345 9.40237 5.29292 9.79289L3.29292 11.7929C3.00692 12.0789 2.92137 12.509 3.07615 12.8827Z" fill="#080809" style="fill:#080809;fill:color(display-p3 0.0314 0.0314 0.0353);fill-opacity:1;"/>
<path fill-rule="evenodd" clip-rule="evenodd" d="M13 23H20C21.6569 23 23 21.6569 23 20V4C23 2.34315 21.6569 1 20 1H13V23ZM16 9.5C15.5956 9.5 15.2309 9.74364 15.0761 10.1173C14.9214 10.491 15.0069 10.9211 15.2929 11.2071L17.2929 13.2071C17.6834 13.5976 18.3166 13.5976 18.7071 13.2071L20.7071 11.2071C20.9931 10.9211 21.0787 10.491 20.9239 10.1173C20.7691 9.74364 20.4045 9.5 20 9.5H16Z" fill="#080809" style="fill:#080809;fill:color(display-p3 0.0314 0.0314 0.0353);fill-opacity:1;"/>
</svg>
