<svg width="24" height="24" viewBox="0 0 24 24" fill="none" xmlns="http://www.w3.org/2000/svg">
<g clip-path="url(#clip0_29901_26274)">
<path d="M21.5 12C21.5 6.75329 17.2467 2.5 12 2.5C9.02975 2.5 6.37712 3.86263 4.63404 6H6C6.55228 6 7 6.44772 7 7C7 7.55228 6.55228 8 6 8H2.5C1.67157 8 1 7.32843 1 6.5V3C1 2.44772 1.44772 2 2 2C2.55228 2 3 2.44772 3 3V4.84053C5.10586 2.19683 8.35444 0.5 12 0.5C18.3513 0.5 23.5 5.64873 23.5 12C23.5 18.3513 18.3513 23.5 12 23.5C5.64873 23.5 0.5 18.3513 0.5 12C0.5 11.4477 0.947716 11 1.5 11C2.05228 11 2.5 11.4477 2.5 12C2.5 17.2467 6.75329 21.5 12 21.5C17.2467 21.5 21.5 17.2467 21.5 12Z" fill="#080809" style="fill:#080809;fill:color(display-p3 0.0314 0.0314 0.0353);fill-opacity:1;"/>
</g>
<defs>
<clipPath id="clip0_29901_26274">
<rect width="24" height="24" fill="white" style="fill:white;fill-opacity:1;"/>
</clipPath>
</defs>
</svg>
