<svg width="24" height="24" viewBox="0 0 24 24" fill="none" xmlns="http://www.w3.org/2000/svg">
<path fill-rule="evenodd" clip-rule="evenodd" d="M17.2676 3.0024C20.4545 3.06278 23.5587 5.56164 23.4971 9.67037L23.498 9.67135C23.4565 12.5482 21.9328 15.1021 19.9395 17.228C17.9377 19.3626 15.3666 21.1708 13.0068 22.5708C12.3854 22.9394 11.6126 22.9394 10.9912 22.5708C8.63137 21.1708 6.06031 19.3627 4.05859 17.228C2.0653 15.1021 0.541511 12.5482 0.5 9.67135L0.500977 9.67037C0.439282 5.56038 3.54435 3.06659 6.73047 3.00631C7.97636 2.9828 9.09788 3.25004 10.1318 3.88912C10.8111 4.30909 11.4221 4.87386 11.998 5.56978C12.5741 4.87328 13.1858 4.30788 13.8652 3.88717C14.8991 3.24709 16.0209 2.97881 17.2676 3.0024ZM9.5332 9.00142C9.14234 8.98805 8.77942 9.20338 8.60449 9.55318L7.38086 12.0004H6.49902C5.94676 12.0004 5.49906 12.4482 5.49902 13.0004C5.4991 13.5527 5.94679 14.0004 6.49902 14.0004H7.99902C8.37775 14.0004 8.72414 13.7864 8.89355 13.4477L9.41699 12.4018L11.0762 16.3852C11.2201 16.7303 11.5443 16.9669 11.917 16.9975C12.2897 17.0281 12.6484 16.8477 12.8467 16.5307L14.8018 13.4028L15.4443 13.8325C15.6086 13.942 15.8016 14.0004 15.999 14.0004H17.499C18.0513 14.0004 18.4989 13.5527 18.499 13.0004C18.499 12.4482 18.0513 12.0004 17.499 12.0004H16.3018L15.0537 11.1684L14.9668 11.1167C14.7597 11.0071 14.5192 10.9731 14.2881 11.0229C14.0242 11.0799 13.7946 11.2413 13.6514 11.4702L12.1777 13.8286L10.4219 9.61568L10.3564 9.48678C10.1839 9.1986 9.87537 9.01321 9.5332 9.00142Z" fill="#080809" style="fill:#080809;fill:color(display-p3 0.0314 0.0314 0.0353);fill-opacity:1;"/>
</svg>
