<svg width="24" height="24" viewBox="0 0 24 24" fill="none" xmlns="http://www.w3.org/2000/svg">
<path d="M10.3286 14.9998H5.14034C3.84677 14.9998 3.10477 13.5268 3.87474 12.4873L11.7997 1.78875C12.7802 0.465114 14.8779 1.34478 14.621 2.97189L13.6693 8.99981H18.8575C20.151 8.99981 20.893 10.4728 20.1231 11.5123L19.6908 12.0959C19.5053 12.3463 19.2136 12.496 18.9019 12.5005C15.3571 12.5524 12.4993 15.4425 12.4993 18.9998C12.4993 19.6269 12.5878 20.2317 12.7524 20.8031C12.8387 21.1024 12.7805 21.4248 12.5951 21.6751L12.1982 22.2109C11.2177 23.5345 9.11999 22.6549 9.37687 21.0278L10.3286 14.9998Z" fill="#080809" style="fill:#080809;fill:color(display-p3 0.0314 0.0314 0.0353);fill-opacity:1;"/>
<path d="M16.7053 15.2928C16.3147 14.9022 15.6816 14.9022 15.2911 15.2928C14.9005 15.6833 14.9005 16.3165 15.2911 16.707L17.5839 18.9999L15.2911 21.2928C14.9005 21.6833 14.9005 22.3165 15.2911 22.707C15.6816 23.0975 16.3147 23.0975 16.7053 22.707L18.9982 20.4141L21.2911 22.707C21.6816 23.0975 22.3147 23.0975 22.7053 22.707C23.0958 22.3165 23.0958 21.6833 22.7053 21.2928L20.4124 18.9999L22.7053 16.707C23.0958 16.3165 23.0958 15.6833 22.7053 15.2928C22.3147 14.9022 21.6816 14.9022 21.2911 15.2928L18.9982 17.5857L16.7053 15.2928Z" fill="#080809" style="fill:#080809;fill:color(display-p3 0.0314 0.0314 0.0353);fill-opacity:1;"/>
</svg>
