<svg width="24" height="24" viewBox="0 0 24 24" fill="none" xmlns="http://www.w3.org/2000/svg">
<path d="M15 15C14.4477 15 14 15.4477 14 16V18C14 18.5523 14.4477 19 15 19H17C17.5523 19 18 18.5523 18 18V16C18 15.4477 17.5523 15 17 15H15Z" fill="#080809" style="fill:#080809;fill:color(display-p3 0.0314 0.0314 0.0353);fill-opacity:1;"/>
<path fill-rule="evenodd" clip-rule="evenodd" d="M4.5812 1C3.20109 1 1.98439 1.90527 1.58782 3.22717L0.772052 5.94639C0.59165 6.54773 0.5 7.17218 0.5 7.8C0.5 9.22466 1.07294 10.5156 2.001 11.455C2.00034 11.4699 2 11.4849 2 11.5L2 16.0706C1.99997 17.4247 1.99994 18.5413 2.11875 19.4251C2.2435 20.3529 2.51547 21.1723 3.17158 21.8284C3.82768 22.4845 4.64711 22.7565 5.57494 22.8812C6.22531 22.9687 7.00178 22.9918 7.90621 22.9978C7.9373 22.9993 7.96856 23 8 23L15.0706 23C16.4247 23 17.5413 23.0001 18.4251 22.8812C19.3529 22.7565 20.1723 22.4845 20.8284 21.8284C21.4845 21.1723 21.7565 20.3529 21.8813 19.4251C22.0001 18.5413 22 17.4247 22 16.0706V11.5C22 11.485 21.9997 11.47 21.999 11.4552C22.9271 10.5159 23.5 9.22508 23.5 7.80039C23.5 7.17232 23.4083 6.5476 23.2278 5.94602L22.4122 3.22717C22.0156 1.90527 20.7989 1 19.4188 1H4.5812ZM8 20.9981C8.30667 20.9999 8.63889 21 9 21H10V17H8V20.9981ZM12 17V21H15C16.4425 21 17.4237 20.9979 18.1586 20.8991C18.8646 20.8042 19.1916 20.6368 19.4142 20.4142C19.6368 20.1916 19.8042 19.8646 19.8991 19.1586C19.9979 18.4237 20 17.4425 20 16V12.7162C19.4673 12.9003 18.8953 13.0004 18.3 13.0004C17.1159 13.0004 16.0238 12.6039 15.15 11.9379C14.2762 12.6039 13.1841 13.0004 12 13.0004C10.8159 13.0004 9.72375 12.6039 8.85 11.9379C7.97625 12.6039 6.88407 13.0004 5.7 13.0004C5.10466 13.0004 4.5327 12.9003 4 12.7161V16C4 17.4425 4.00213 18.4237 4.10092 19.1586C4.19585 19.8646 4.36322 20.1916 4.58579 20.4142C4.80836 20.6368 5.13538 20.8042 5.84143 20.8991C5.89305 20.906 5.94588 20.9125 6 20.9185V17C6 15.8954 6.89543 15 8 15H10C11.1046 15 12 15.8954 12 17Z" fill="#080809" style="fill:#080809;fill:color(display-p3 0.0314 0.0314 0.0353);fill-opacity:1;"/>
</svg>
