<svg width="24" height="24" viewBox="0 0 24 24" fill="none" xmlns="http://www.w3.org/2000/svg">
<path fill-rule="evenodd" clip-rule="evenodd" d="M10.739 1.81285C9.36989 0.444524 7.12899 0.366412 5.74921 1.75906C4.38071 3.14033 4.43411 5.36555 5.81 6.74066C5.90673 6.83734 6.00449 6.92834 6.10295 7.0141C5.53309 7.0287 5.02396 7.05839 4.57494 7.11876C3.64711 7.2435 2.82769 7.51547 2.17158 8.17158C1.51547 8.82769 1.2435 9.64711 1.11876 10.5749C0.999941 11.4587 0.999968 12.5753 1 13.9294V16.0706C0.999968 17.4247 0.999941 18.5413 1.11876 19.4251C1.2435 20.3529 1.51547 21.1723 2.17158 21.8284C2.82769 22.4845 3.64711 22.7565 4.57494 22.8813C5.45868 23.0001 6.57527 23 7.92935 23H16.0706C17.4247 23 18.5413 23.0001 19.4251 22.8813C20.3529 22.7565 21.1723 22.4845 21.8284 21.8284C22.4845 21.1723 22.7565 20.3529 22.8813 19.4251C23.0001 18.5413 23 17.4247 23 16.0706V13.9295C23 12.5753 23.0001 11.4587 22.8813 10.5749C22.7565 9.64711 22.4845 8.82769 21.8284 8.17158C21.1723 7.51547 20.3529 7.2435 19.4251 7.11876C18.976 7.05839 18.4669 7.0287 17.8971 7.0141C17.9955 6.92834 18.0933 6.83734 18.19 6.74066C19.5659 5.36555 19.6193 3.14033 18.2508 1.75906C16.871 0.366412 14.6301 0.444524 13.261 1.81285C12.6548 2.41876 12.2701 3.06285 12 3.67177C11.7299 3.06285 11.3452 2.41876 10.739 1.81285ZM7.16998 3.16669C7.71973 2.61181 8.68833 2.59098 9.32518 3.22746C10.0508 3.95268 10.2875 4.71035 10.5768 5.63632L10.5773 5.63794C10.6057 5.72893 10.6347 5.82154 10.6646 5.9159L10.6665 5.92175C10.7885 6.29795 10.8803 6.60272 10.9575 6.85909L11 7L10.8758 6.96259C10.6157 6.88437 10.3057 6.79115 9.92049 6.66695C9.7993 6.62737 9.68122 6.58977 9.56594 6.55307C8.66265 6.26549 7.93059 6.03243 7.22382 5.32605C6.59376 4.69635 6.60895 3.73296 7.16998 3.16669ZM16.83 3.16669C16.2803 2.61181 15.3117 2.59098 14.6748 3.22746C13.9492 3.95268 13.7125 4.71035 13.4232 5.63632L13.4227 5.63794C13.3943 5.72893 13.3653 5.82154 13.3354 5.9159L13.3335 5.92175C13.2115 6.29795 13.1197 6.60272 13.0425 6.85909L13 7L13.1242 6.96259C13.3843 6.88437 13.6943 6.79115 14.0795 6.66695C14.2007 6.62737 14.3188 6.58977 14.4341 6.55307C15.3374 6.26549 16.0694 6.03243 16.7762 5.32605C17.4062 4.69635 17.391 3.73296 16.83 3.16669ZM4.84144 9.10092C4.13538 9.19585 3.80836 9.36322 3.58579 9.58579C3.36322 9.80836 3.19585 10.1354 3.10092 10.8414C3.05656 11.1714 3.03168 11.5511 3.01775 12L11 12V9H8C6.55752 9 5.57626 9.00213 4.84144 9.10092ZM3 16V14L11 14V21H8C6.55752 21 5.57626 20.9979 4.84144 20.8991C4.13538 20.8042 3.80836 20.6368 3.58579 20.4142C3.36322 20.1916 3.19585 19.8646 3.10092 19.1586C3.00213 18.4238 3 17.4425 3 16ZM16 21H13V14L21 14V16C21 17.4425 20.9979 18.4238 20.8991 19.1586C20.8042 19.8646 20.6368 20.1916 20.4142 20.4142C20.1916 20.6368 19.8646 20.8042 19.1586 20.8991C18.4238 20.9979 17.4425 21 16 21ZM20.8991 10.8414C20.9435 11.1714 20.9683 11.5511 20.9823 12L13 12V9H16C17.4425 9 18.4238 9.00213 19.1586 9.10092C19.8646 9.19585 20.1916 9.36322 20.4142 9.58579C20.6368 9.80836 20.8042 10.1354 20.8991 10.8414Z" fill="#080809" style="fill:#080809;fill:color(display-p3 0.0314 0.0314 0.0353);fill-opacity:1;"/>
</svg>
