<svg width="24" height="24" viewBox="0 0 24 24" fill="none" xmlns="http://www.w3.org/2000/svg">
<path fill-rule="evenodd" clip-rule="evenodd" d="M12.0748 1C12.2337 0.999999 12.3902 0.999997 12.5446 1.00006C14.0618 1.00067 15.3634 1.00745 16.4732 1.08097C16.8808 1.10797 17.2626 1.14397 17.6196 1.19198C19.0921 1.38994 20.2936 1.80836 21.2426 2.75736C22.1916 3.70636 22.6101 4.90794 22.808 6.3804C22.832 6.55892 22.853 6.74361 22.8714 6.93463C23 8.27171 23 9.91835 23 11.9252V12.0748C23 14.3684 23 16.1914 22.808 17.6196C22.6101 19.0921 22.1916 20.2936 21.2426 21.2426C20.2936 22.1916 19.0921 22.6101 17.6196 22.808C16.1914 23 14.3684 23 12.0748 23H11.9252C9.63165 23 7.80859 23 6.38039 22.808C4.90794 22.6101 3.70636 22.1916 2.75736 21.2426C1.80836 20.2936 1.38994 19.0921 1.19198 17.6196C0.99996 16.1914 0.999978 14.3683 1 12.0748V11.9252C0.999978 9.63167 0.99996 7.8086 1.19198 6.3804C1.38994 4.90794 1.80836 3.70636 2.75736 2.75736C3.70636 1.80836 4.90794 1.38994 6.38039 1.19198C7.8086 0.999962 9.63167 0.999979 11.9252 1L12.0748 1ZM18 11C16.5575 11 15.5763 10.9979 14.8414 10.8991C14.1354 10.8042 13.8084 10.6368 13.5858 10.4142C13.3632 10.1916 13.1958 9.86462 13.1009 9.15857C13.0021 8.42375 13 7.44249 13 6V3.00066C14.869 3.00423 16.2603 3.02721 17.3531 3.17414C17.4313 3.18465 17.5073 3.19573 17.5814 3.20739C18.6917 3.38231 19.3452 3.68833 19.8284 4.17157C19.8929 4.23601 19.9541 4.30347 20.0124 4.37463C20.4201 4.87279 20.6787 5.55254 20.8259 6.64689C20.8442 6.7835 20.8607 6.92477 20.8754 7.07105C20.9782 8.09502 20.9962 9.36459 20.9993 11H18ZM20.9993 13L17.9294 13C16.5753 13 15.4587 13.0001 14.5749 12.8812C13.6471 12.7565 12.8277 12.4845 12.1716 11.8284C11.5155 11.1723 11.2435 10.3529 11.1188 9.42506C10.9999 8.54131 11 7.4247 11 6.07058L11 3.00066C9.13096 3.00424 7.73975 3.02721 6.64689 3.17414C5.39621 3.34229 4.68704 3.65611 4.17157 4.17158C3.65611 4.68704 3.34229 5.39621 3.17414 6.64689C3.00212 7.92634 3 9.61471 3 12C3 14.3853 3.00212 16.0737 3.17414 17.3531C3.34229 18.6038 3.65611 19.313 4.17157 19.8284C4.68704 20.3439 5.39621 20.6577 6.64689 20.8259C7.92634 20.9979 9.61471 21 12 21C14.3853 21 16.0737 20.9979 17.3531 20.8259C18.6038 20.6577 19.313 20.3439 19.8284 19.8284C20.3439 19.313 20.6577 18.6038 20.8259 17.3531C20.9728 16.2603 20.9958 14.869 20.9993 13Z" fill="#080809" style="fill:#080809;fill:color(display-p3 0.0314 0.0314 0.0353);fill-opacity:1;"/>
</svg>
