<svg width="24" height="24" viewBox="0 0 24 24" fill="none" xmlns="http://www.w3.org/2000/svg">
<path d="M7 21.5C6.44772 21.5 6 21.9477 6 22.5C6 23.0523 6.44772 23.5 7 23.5H17C17.5523 23.5 18 23.0523 18 22.5C18 21.9477 17.5523 21.5 17 21.5H7Z" fill="#080809" style="fill:#080809;fill:color(display-p3 0.0314 0.0314 0.0353);fill-opacity:1;"/>
<path fill-rule="evenodd" clip-rule="evenodd" d="M12 5C10.067 5 8.5 6.567 8.5 8.5C8.5 10.433 10.067 12 12 12C13.933 12 15.5 10.433 15.5 8.5C15.5 6.567 13.933 5 12 5ZM12 7C11.1716 7 10.5 7.67157 10.5 8.5C10.5 9.32843 11.1716 10 12 10C12.8284 10 13.5 9.32843 13.5 8.5C13.5 7.67157 12.8284 7 12 7Z" fill="#080809" style="fill:#080809;fill:color(display-p3 0.0314 0.0314 0.0353);fill-opacity:1;"/>
<path fill-rule="evenodd" clip-rule="evenodd" d="M10.2751 18.9457C10.6173 19.2242 10.9038 19.4417 11.1068 19.5909C11.2138 19.6696 11.3215 19.7472 11.4309 19.8223C11.7662 20.0507 12.2231 20.0564 12.5603 19.8283L12.8932 19.5909C13.0962 19.4417 13.3827 19.2242 13.7249 18.9457C14.4079 18.39 15.3205 17.585 16.2363 16.5884C18.0342 14.6319 20 11.7682 20 8.5C20 4.08172 16.4183 0.5 12 0.5C7.58172 0.5 4 4.08172 4 8.5C4 11.7682 5.96585 14.6319 7.76367 16.5884C8.67946 17.585 9.59214 18.39 10.2751 18.9457ZM12 2.5C8.68629 2.5 6 5.18629 6 8.5C6 10.9965 7.53415 13.3828 9.23633 15.2351C10.0705 16.143 10.9079 16.8821 11.5374 17.3944C11.7091 17.5341 11.8648 17.6565 12 17.7603C12.1352 17.6565 12.2909 17.5341 12.4626 17.3944C13.0921 16.8821 13.9295 16.143 14.7637 15.2351C16.4658 13.3828 18 10.9965 18 8.5C18 5.18629 15.3137 2.5 12 2.5Z" fill="#080809" style="fill:#080809;fill:color(display-p3 0.0314 0.0314 0.0353);fill-opacity:1;"/>
</svg>
