<svg width="24" height="24" viewBox="0 0 24 24" fill="none" xmlns="http://www.w3.org/2000/svg">
<g clip-path="url(#clip0_29901_26056)">
<path d="M0.5 12C0.5 5.64873 5.64873 0.5 12 0.5C18.3513 0.5 23.5 5.64873 23.5 12C23.5 12.5523 23.0523 13 22.5 13C21.9477 13 21.5 12.5523 21.5 12C21.5 6.75329 17.2467 2.5 12 2.5C6.75329 2.5 2.5 6.75329 2.5 12C2.5 13.5908 2.89021 15.0875 3.57929 16.4025C3.86675 16.9511 3.98403 17.6177 3.81272 18.2785L3.14463 20.8554L5.72155 20.1873C6.38232 20.016 7.04889 20.1333 7.59747 20.4207C8.91247 21.1098 10.4092 21.5 12 21.5C12.5523 21.5 13 21.9477 13 22.5C13 23.0523 12.5523 23.5 12 23.5C10.0782 23.5 8.26373 23.0278 6.66917 22.1922C6.50272 22.105 6.34411 22.092 6.22347 22.1233L2.82376 23.0047C1.71647 23.2918 0.708248 22.2835 0.995321 21.1762L1.87673 17.7765C1.908 17.6559 1.89499 17.4973 1.80777 17.3308C0.972204 15.7363 0.5 13.9218 0.5 12Z" fill="#080809" style="fill:#080809;fill:color(display-p3 0.0314 0.0314 0.0353);fill-opacity:1;"/>
<path d="M17.9903 9.49139C18.2817 9.7827 18.3112 10.2451 18.0593 10.5711L15.1282 14.3642C14.6371 14.9998 13.7325 15.1357 13.0763 14.6725L9.99986 12.5009L7.06431 14.5977C6.73859 14.8304 6.29241 14.7934 6.00937 14.5104C5.71806 14.2191 5.68854 13.7567 5.94044 13.4307L8.8715 9.6376C9.36263 9.00203 10.2672 8.86612 10.9234 9.32932L13.9999 11.5009L16.9354 9.40408C17.2611 9.17143 17.7073 9.20835 17.9903 9.49139Z" fill="#080809" style="fill:#080809;fill:color(display-p3 0.0314 0.0314 0.0353);fill-opacity:1;"/>
<path fill-rule="evenodd" clip-rule="evenodd" d="M24 19C24 21.7614 21.7614 24 19 24C16.2386 24 14 21.7614 14 19C14 16.2386 16.2386 14 19 14C21.7614 14 24 16.2386 24 19ZM20.7373 15.9612C20.2253 15.6677 19.632 15.5 18.9996 15.5C17.3142 15.5 15.9071 16.6912 15.5742 18.2776L15.7177 18.6298C16.0958 19.5578 17.1697 19.9068 17.9996 19.4871V20.6818C17.9996 21.342 18.5113 21.8826 19.1597 21.9286V22.4964C19.8561 22.465 20.4994 22.2302 21.0317 21.85L21.306 21.3817C21.794 20.5484 21.193 19.5 20.2273 19.5H18.4996V18.5C18.4996 18.4186 18.46 18.3423 18.3934 18.2955C18.3268 18.2487 18.2416 18.2372 18.1651 18.2647L17.6687 18.4431C17.3429 18.5601 16.9996 18.3187 16.9996 17.9725V17H18.8451L19.276 17.8618C19.3278 17.9655 19.4442 18.02 19.557 17.9933C19.6699 17.9667 19.7496 17.8659 19.7496 17.75V17.0708C19.7759 17.0321 19.8034 16.9937 19.8319 16.9556C20.2961 16.8286 20.6533 16.4421 20.7373 15.9612Z" fill="#080809" style="fill:#080809;fill:color(display-p3 0.0314 0.0314 0.0353);fill-opacity:1;"/>
</g>
<defs>
<clipPath id="clip0_29901_26056">
<rect width="24" height="24" fill="white" style="fill:white;fill-opacity:1;"/>
</clipPath>
</defs>
</svg>
