<svg width="24" height="24" viewBox="0 0 24 24" fill="none" xmlns="http://www.w3.org/2000/svg">
<path d="M15.2071 2.70701C14.5771 2.07704 13.5 2.52321 13.5 3.41411V7.4999C13.5 9.98518 15.5147 11.9999 18 11.9999C20.4853 11.9999 22.5 9.98518 22.5 7.4999V3.41411C22.5 2.52321 21.4229 2.07704 20.7929 2.70701L19.5 3.9999C19.5 3.9999 18.7356 3.7499 18 3.7499C17.2644 3.7499 16.5 3.9999 16.5 3.9999L15.2071 2.70701Z" fill="#080809" style="fill:#080809;fill:color(display-p3 0.0314 0.0314 0.0353);fill-opacity:1;"/>
<path d="M7.5 6H12V7.49998C12 10.8137 14.6863 13.5 18 13.5C18.7731 13.5 19.512 13.3538 20.1907 13.0875C20.3725 13.3375 20.6673 13.5 21 13.5H22.5C23.0523 13.5 23.5 13.9477 23.5 14.5C23.5 15.0523 23.0523 15.5 22.5 15.5H19V17H22.5C23.0523 17 23.5 17.4477 23.5 18C23.5 18.5523 23.0523 19 22.5 19H11.5V15.75C11.5 13.1266 9.37335 11 6.75 11C6.33579 11 6 11.3358 6 11.75C6 12.1642 6.33579 12.5 6.75 12.5C8.54493 12.5 10 13.9551 10 15.75V19H5.5C4.37439 19 3.33566 18.6281 2.5 18.0004C2.5002 19.6571 3.84327 21 5.5 21H6C6.55228 21 7 21.4477 7 22C7 22.5523 6.55228 23 6 23H5.5C2.73858 23 0.5 20.7614 0.5 18V13C0.5 9.13401 3.63401 6 7.5 6Z" fill="#080809" style="fill:#080809;fill:color(display-p3 0.0314 0.0314 0.0353);fill-opacity:1;"/>
</svg>
