<svg width="24" height="24" viewBox="0 0 24 24" fill="none" xmlns="http://www.w3.org/2000/svg">
<path d="M3.25 1.75C2.55964 1.75 2 2.30964 2 3C2 3.69036 2.55964 4.25 3.25 4.25H20.75C21.4404 4.25 22 3.69036 22 3C22 2.30964 21.4404 1.75 20.75 1.75H3.25Z" fill="#080809" style="fill:#080809;fill:color(display-p3 0.0314 0.0314 0.0353);fill-opacity:1;"/>
<path d="M7.25 7.75C6.55964 7.75 6 8.30964 6 9C6 9.69036 6.55964 10.25 7.25 10.25H16.75C17.4404 10.25 18 9.69036 18 9C18 8.30964 17.4404 7.75 16.75 7.75H7.25Z" fill="#080809" style="fill:#080809;fill:color(display-p3 0.0314 0.0314 0.0353);fill-opacity:1;"/>
<path d="M3.25 13.75C2.55964 13.75 2 14.3096 2 15C2 15.6904 2.55964 16.25 3.25 16.25H20.75C21.4404 16.25 22 15.6904 22 15C22 14.3096 21.4404 13.75 20.75 13.75H3.25Z" fill="#080809" style="fill:#080809;fill:color(display-p3 0.0314 0.0314 0.0353);fill-opacity:1;"/>
<path d="M6 21C6 20.3096 6.55964 19.75 7.25 19.75H16.75C17.4404 19.75 18 20.3096 18 21C18 21.6904 17.4404 22.25 16.75 22.25H7.25C6.55964 22.25 6 21.6904 6 21Z" fill="#080809" style="fill:#080809;fill:color(display-p3 0.0314 0.0314 0.0353);fill-opacity:1;"/>
</svg>
