<svg width="24" height="24" viewBox="0 0 24 24" fill="none" xmlns="http://www.w3.org/2000/svg">
<path d="M11.0252 1.56028C12.392 0.193448 14.6081 0.193447 15.9749 1.56028L19.4394 5.02475C20.8062 6.39158 20.8062 8.60766 19.4394 9.97449L14.4749 14.939C13.1081 16.3058 10.892 16.3058 9.52517 14.939L6.0607 11.4745C4.69387 10.1077 4.69387 7.89158 6.0607 6.52475L11.0252 1.56028Z" fill="#080809" style="fill:#080809;fill:color(display-p3 0.0314 0.0314 0.0353);fill-opacity:1;"/>
<path d="M5.95723 13.5421L7.45725 15.0421C7.64483 15.2297 7.75019 15.4841 7.75015 15.7494C7.75012 16.0147 7.64468 16.269 7.45706 16.4566L7.07471 16.8387C6.84525 17.068 6.54764 17.2168 6.22649 17.2626L4.97185 17.4419L4.32843 18.0853C4.11814 18.2956 4 18.5808 4 18.8782C4 19.4975 4.50203 19.9995 5.12132 19.9995H21C21.5523 19.9995 22 20.4472 22 20.9995C22 21.5518 21.5523 21.9995 21 21.9995H5.12132C3.39746 21.9995 2 20.602 2 18.8782C2 18.0504 2.32885 17.2564 2.91421 16.6711L3.55713 16.0282L3.73645 14.7728C3.78236 14.4514 3.93134 14.1535 4.16101 13.924L4.54322 13.542C4.93377 13.1516 5.56678 13.1517 5.95723 13.5421Z" fill="#080809" style="fill:#080809;fill:color(display-p3 0.0314 0.0314 0.0353);fill-opacity:1;"/>
</svg>
