<svg width="24" height="24" viewBox="0 0 24 24" fill="none" xmlns="http://www.w3.org/2000/svg">
<path d="M4.75 8.5C5.16421 8.5 5.5 8.83579 5.5 9.25V14H6.75C7.16421 14 7.5 14.3358 7.5 14.75C7.5 15.1642 7.16421 15.5 6.75 15.5H5.25C4.55965 15.5 4 14.9404 4 14.25V9.25C4 8.83579 4.33579 8.5 4.75 8.5Z" fill="#080809" style="fill:#080809;fill:color(display-p3 0.0314 0.0314 0.0353);fill-opacity:1;"/>
<path d="M10 9.25C10 8.83579 9.66421 8.5 9.25 8.5C8.83579 8.5 8.5 8.83579 8.5 9.25V14.75C8.5 15.1642 8.83579 15.5 9.25 15.5C9.66421 15.5 10 15.1642 10 14.75V9.25Z" fill="#080809" style="fill:#080809;fill:color(display-p3 0.0314 0.0314 0.0353);fill-opacity:1;"/>
<path d="M16.75 9.25C16.75 8.83579 17.0858 8.5 17.5 8.5H19.25C19.6642 8.5 20 8.83579 20 9.25C20 9.66421 19.6642 10 19.25 10H18.25V11.25H18.75C19.1642 11.25 19.5 11.5858 19.5 12C19.5 12.4142 19.1642 12.75 18.75 12.75H18.25V14H19.25C19.6642 14 20 14.3358 20 14.75C20 15.1642 19.6642 15.5 19.25 15.5H17.5C17.0858 15.5 16.75 15.1642 16.75 14.75V9.25Z" fill="#080809" style="fill:#080809;fill:color(display-p3 0.0314 0.0314 0.0353);fill-opacity:1;"/>
<path d="M12.4649 9.02255C12.3393 8.62784 11.9175 8.40967 11.5228 8.53526C11.1281 8.66085 10.9099 9.08264 11.0355 9.47736L12.7855 14.9774C12.8845 15.2886 13.1736 15.5 13.5002 15.5C13.8268 15.5 14.1159 15.2886 14.2149 14.9774L15.9649 9.47736C16.0905 9.08264 15.8723 8.66085 15.4776 8.53526C15.0829 8.40967 14.6611 8.62784 14.5355 9.02255L13.5002 12.2764L12.4649 9.02255Z" fill="#080809" style="fill:#080809;fill:color(display-p3 0.0314 0.0314 0.0353);fill-opacity:1;"/>
<path fill-rule="evenodd" clip-rule="evenodd" d="M9.42684 3H14.5732C16.3966 2.99997 17.8664 2.99995 19.0223 3.15537C20.2225 3.31672 21.233 3.66191 22.0355 4.46447C22.8381 5.26702 23.1833 6.27752 23.3446 7.47767C23.5001 8.63363 23.5 10.1034 23.5 11.9269V12.0731C23.5 13.8966 23.5001 15.3664 23.3446 16.5223C23.1833 17.7225 22.8381 18.733 22.0355 19.5355C21.233 20.3381 20.2225 20.6833 19.0223 20.8446C17.8664 21.0001 16.3966 21 14.5731 21H9.42686C7.6034 21 6.13363 21.0001 4.97767 20.8446C3.77752 20.6833 2.76702 20.3381 1.96447 19.5355C1.16191 18.733 0.816722 17.7225 0.655366 16.5223C0.499953 15.3664 0.499974 13.8966 0.500001 12.0732V11.9268C0.499974 10.1034 0.499953 8.63361 0.655366 7.47767C0.816722 6.27752 1.16191 5.26702 1.96447 4.46447C2.76702 3.66191 3.77752 3.31672 4.97767 3.15537C6.13361 2.99995 7.60341 2.99997 9.42684 3ZM5.24416 5.13753C4.2658 5.26907 3.7477 5.50966 3.37868 5.87868C3.00967 6.2477 2.76907 6.7658 2.63753 7.74416C2.50213 8.7513 2.5 10.0861 2.5 12C2.5 13.9139 2.50213 15.2487 2.63753 16.2558C2.76907 17.2342 3.00967 17.7523 3.37868 18.1213C3.7477 18.4903 4.2658 18.7309 5.24416 18.8625C6.2513 18.9979 7.58611 19 9.5 19H14.5C16.4139 19 17.7487 18.9979 18.7558 18.8625C19.7342 18.7309 20.2523 18.4903 20.6213 18.1213C20.9903 17.7523 21.2309 17.2342 21.3625 16.2558C21.4979 15.2487 21.5 13.9139 21.5 12C21.5 10.0861 21.4979 8.7513 21.3625 7.74416C21.2309 6.7658 20.9903 6.2477 20.6213 5.87868C20.2523 5.50966 19.7342 5.26907 18.7558 5.13753C17.7487 5.00213 16.4139 5 14.5 5H9.5C7.58611 5 6.2513 5.00213 5.24416 5.13753Z" fill="#080809" style="fill:#080809;fill:color(display-p3 0.0314 0.0314 0.0353);fill-opacity:1;"/>
</svg>
