<svg width="24" height="24" viewBox="0 0 24 24" fill="none" xmlns="http://www.w3.org/2000/svg">
<path d="M2.78102 2C4.03091 2 5.08875 2.9231 5.25799 4.16148L5.37259 5H20.9272C21.8362 5 22.5363 5.80203 22.4134 6.70267L21.3446 14.5405C21.0744 16.5224 19.3816 18 17.3813 18H8.61867C6.61839 18 4.92562 16.5224 4.65535 14.5405L3.51038 6.14399C3.50997 6.14113 3.50956 6.13827 3.50917 6.13541L3.27641 4.4323C3.24256 4.18462 3.031 4 2.78102 4H2C1.44772 4 1 3.55228 1 3C1 2.44772 1.44772 2 2 2H2.78102Z" fill="#080809" style="fill:#080809;fill:color(display-p3 0.0314 0.0314 0.0353);fill-opacity:1;"/>
<path d="M7.5 23C8.4665 23 9.25 22.2165 9.25 21.25C9.25 20.2835 8.4665 19.5 7.5 19.5C6.5335 19.5 5.75 20.2835 5.75 21.25C5.75 22.2165 6.5335 23 7.5 23Z" fill="#080809" style="fill:#080809;fill:color(display-p3 0.0314 0.0314 0.0353);fill-opacity:1;"/>
<path d="M18.5 23C19.4665 23 20.25 22.2165 20.25 21.25C20.25 20.2835 19.4665 19.5 18.5 19.5C17.5335 19.5 16.75 20.2835 16.75 21.25C16.75 22.2165 17.5335 23 18.5 23Z" fill="#080809" style="fill:#080809;fill:color(display-p3 0.0314 0.0314 0.0353);fill-opacity:1;"/>
</svg>
