<svg width="24" height="24" viewBox="0 0 24 24" fill="none" xmlns="http://www.w3.org/2000/svg">
<path fill-rule="evenodd" clip-rule="evenodd" d="M12.4961 5C12.4961 2.79086 14.287 1 16.4961 1C18.7052 1 20.4961 2.79086 20.4961 5C20.4961 7.20914 18.7052 9 16.4961 9C14.287 9 12.4961 7.20914 12.4961 5ZM16.4961 3C15.3915 3 14.4961 3.89543 14.4961 5C14.4961 6.10457 15.3915 7 16.4961 7C17.6007 7 18.4961 6.10457 18.4961 5C18.4961 3.89543 17.6007 3 16.4961 3Z" fill="#080809" style="fill:#080809;fill:color(display-p3 0.0314 0.0314 0.0353);fill-opacity:1;"/>
<path fill-rule="evenodd" clip-rule="evenodd" d="M3.49609 9.5C3.49609 7.29086 5.28695 5.5 7.49609 5.5C9.70523 5.5 11.4961 7.29086 11.4961 9.5C11.4961 11.7091 9.70523 13.5 7.49609 13.5C5.28695 13.5 3.49609 11.7091 3.49609 9.5ZM7.49609 7.5C6.39152 7.5 5.49609 8.39543 5.49609 9.5C5.49609 10.6046 6.39152 11.5 7.49609 11.5C8.60066 11.5 9.49609 10.6046 9.49609 9.5C9.49609 8.39543 8.60066 7.5 7.49609 7.5Z" fill="#080809" style="fill:#080809;fill:color(display-p3 0.0314 0.0314 0.0353);fill-opacity:1;"/>
<path d="M20 15.5C20 14.9477 19.5523 14.5 19 14.5C18.4477 14.5 18 14.9477 18 15.5V18H15.5C14.9477 18 14.5 18.4477 14.5 19C14.5 19.5523 14.9477 20 15.5 20H18V22.5C18 23.0523 18.4477 23.5 19 23.5C19.5523 23.5 20 23.0523 20 22.5V20H22.5C23.0523 20 23.5 19.5523 23.5 19C23.5 18.4477 23.0523 18 22.5 18H20V15.5Z" fill="#080809" style="fill:#080809;fill:color(display-p3 0.0314 0.0314 0.0353);fill-opacity:1;"/>
<path d="M14.5002 12.5C14.4247 12.5 14.3501 12.5028 14.2764 12.5082C13.7256 12.5486 13.2463 12.1349 13.2059 11.5841C13.1654 11.0333 13.5792 10.554 14.13 10.5135C14.2524 10.5046 14.3758 10.5 14.5002 10.5H18.5062C20.1323 10.5 21.5772 11.2773 22.4887 12.4765C22.8229 12.9162 22.7374 13.5435 22.2978 13.8778C21.8581 14.212 21.2307 14.1265 20.8965 13.6868C20.3469 12.9637 19.4809 12.5 18.5062 12.5H14.5002Z" fill="#080809" style="fill:#080809;fill:color(display-p3 0.0314 0.0314 0.0353);fill-opacity:1;"/>
<path d="M5.5 15C2.73858 15 0.5 17.2386 0.5 20C0.5 21.6569 1.84315 23 3.5 23H11.506C11.808 23 12.1014 22.955 12.3788 22.8708C12.9072 22.7103 13.2055 22.1518 13.045 21.6233C12.8844 21.0949 12.3259 20.7966 11.7975 20.9571C11.7065 20.9848 11.6089 21 11.506 21H3.5C2.94772 21 2.5 20.5523 2.5 20C2.5 18.3431 3.84315 17 5.5 17H9.506C10.1616 17 10.7655 17.2092 11.2583 17.5646C11.7063 17.8877 12.3313 17.7864 12.6543 17.3385C12.9774 16.8905 12.8761 16.2655 12.4282 15.9425C11.6061 15.3496 10.5954 15 9.506 15H5.5Z" fill="#080809" style="fill:#080809;fill:color(display-p3 0.0314 0.0314 0.0353);fill-opacity:1;"/>
</svg>
