<svg width="24" height="24" viewBox="0 0 24 24" fill="none" xmlns="http://www.w3.org/2000/svg">
<g clip-path="url(#clip0_29901_27890)">
<path fill-rule="evenodd" clip-rule="evenodd" d="M9.5 0.5C4.52944 0.5 0.5 4.52944 0.5 9.5C0.5 10.675 0.725688 11.7997 1.137 12.8315C1.29016 13.2156 1.39204 13.4719 1.4589 13.6646C1.50945 13.8104 1.52264 13.8733 1.52565 13.8876L1.52597 13.8891C1.52521 13.9036 1.52083 13.9471 1.49734 14.0445C1.46381 14.1836 1.40912 14.3646 1.3189 14.661L0.816546 16.3111C0.467046 17.4591 1.54014 18.5323 2.68819 18.183L4.3387 17.6807C4.63501 17.5906 4.81602 17.5359 4.95511 17.5024C5.05251 17.4789 5.09604 17.4745 5.11048 17.4738L5.11199 17.4741C5.12631 17.4771 5.1892 17.4903 5.33492 17.5409C5.52767 17.6077 5.78388 17.7096 6.16799 17.8628C7.19986 18.2742 8.32478 18.5 9.5 18.5C14.4706 18.5 18.5 14.4706 18.5 9.5C18.5 4.52944 14.4706 0.5 9.5 0.5ZM9.4995 4.5C7.84573 4.50027 6.5 5.84617 6.5 7.499C6.5 8.052 6.947 8.499 7.5 8.499C8.053 8.499 8.5 8.052 8.5 7.499C8.5 6.946 8.948 6.5 9.5 6.5C10.052 6.5 10.5 6.948 10.5 7.499C10.5 7.865 10.301 8.201 9.979 8.377C9.04 8.893 8.5 9.669 8.5 10.508C8.5 11.061 8.947 11.512 9.5 11.512C10.053 11.512 10.499 11.068 10.499 10.515C10.512 10.463 10.64 10.295 10.937 10.132C11.901 9.607 12.499 8.598 12.499 7.499C12.499 5.84617 11.1533 4.50027 9.4995 4.5ZM9.5 15C10.1904 15 10.75 14.4404 10.75 13.75C10.75 13.0596 10.1904 12.5 9.5 12.5C8.80964 12.5 8.25 13.0596 8.25 13.75C8.25 14.4404 8.80964 15 9.5 15Z" fill="#080809" style="fill:#080809;fill:color(display-p3 0.0314 0.0314 0.0353);fill-opacity:1;"/>
<path d="M20.416 9.02309C20.8645 8.7007 21.4893 8.80288 21.8117 9.25131C22.874 10.7289 23.4998 12.5427 23.4998 14.4998C23.4998 15.6748 23.2741 16.7995 22.8628 17.8312C22.7096 18.2154 22.6077 18.4716 22.5409 18.6644C22.4903 18.8102 22.4771 18.8731 22.4741 18.8874L22.4738 18.8889C22.4746 18.9033 22.4789 18.9469 22.5024 19.0443C22.536 19.1834 22.5906 19.3644 22.6809 19.6607L23.1832 21.3108C23.5327 22.4588 22.4596 23.5321 21.3116 23.1827L19.6611 22.6805C19.3647 22.5903 19.1837 22.5357 19.0446 22.5021C18.9473 22.4787 18.9037 22.4743 18.8893 22.4735L18.8878 22.4739C18.8735 22.4769 18.8106 22.4901 18.6648 22.5406C18.4721 22.6075 18.2159 22.7094 17.8318 22.8625C16.7999 23.274 15.675 23.4998 14.4998 23.4998C12.5427 23.4998 10.7289 22.874 9.25131 21.8117C8.80288 21.4893 8.7007 20.8645 9.02309 20.416C9.34547 19.9676 9.97034 19.8654 10.4188 20.1878C11.5675 21.0136 12.9754 21.4998 14.4998 21.4998C15.4171 21.4998 16.2909 21.3238 17.091 21.0048L17.1131 20.996C17.4693 20.8539 17.7683 20.7347 18.0094 20.6511C18.244 20.5697 18.5176 20.487 18.7997 20.4752C19.2317 20.457 19.6779 20.5938 20.1297 20.7324L20.2433 20.7671L20.9969 20.9964L20.7676 20.2432L20.7328 20.1296C20.5942 19.6778 20.4573 19.2316 20.4754 18.7995C20.4873 18.5174 20.5699 18.2437 20.6513 18.0091C20.7349 17.7679 20.8541 17.4689 20.9961 17.1127L21.005 17.0906C21.3239 16.2906 21.4998 15.4169 21.4998 14.4998C21.4998 12.9754 21.0136 11.5675 20.1878 10.4188C19.8654 9.97034 19.9676 9.34547 20.416 9.02309Z" fill="#080809" style="fill:#080809;fill:color(display-p3 0.0314 0.0314 0.0353);fill-opacity:1;"/>
</g>
<defs>
<clipPath id="clip0_29901_27890">
<rect width="24" height="24" fill="white" style="fill:white;fill-opacity:1;"/>
</clipPath>
</defs>
</svg>
