<svg width="24" height="24" viewBox="0 0 24 24" fill="none" xmlns="http://www.w3.org/2000/svg">
<path fill-rule="evenodd" clip-rule="evenodd" d="M13.1621 0.480842C12.4345 0.0988351 11.5655 0.0988333 10.8379 0.480841L2.07033 5.08382C1.41222 5.42933 1 6.11132 1 6.85462V8.00018C1 9.10475 1.89543 10.0002 3 10.0002H4V16.882L2.10557 17.8292C1.428 18.168 1 18.8605 1 19.618V21C1 22.1046 1.89543 23 3 23H21C22.1046 23 23 22.1046 23 21V19.618C23 18.8605 22.572 18.168 21.8944 17.8292L20 16.882V10.0002H21C22.1046 10.0002 23 9.10475 23 8.00018V6.85462C23 6.11132 22.5878 5.42933 21.9297 5.08382L13.1621 0.480842ZM21 8.00018V6.85462L12.2324 2.25164C12.0869 2.17524 11.9131 2.17524 11.7676 2.25164L3 6.85462L3 8.00018H21ZM8.5 10.0002V17C8.5 17.5523 8.94772 18 9.5 18C10.0523 18 10.5 17.5523 10.5 17V10.0002H13.5V17C13.5 17.5523 13.9477 18 14.5 18C15.0523 18 15.5 17.5523 15.5 17V10.0002H18V17.5C18 17.8788 18.214 18.225 18.5528 18.3944L21 19.618V21H3V19.618L5.44721 18.3944C5.786 18.225 6 17.8788 6 17.5V10.0002H8.5Z" fill="#080809" style="fill:#080809;fill:color(display-p3 0.0314 0.0314 0.0353);fill-opacity:1;"/>
</svg>
