<svg width="24" height="24" viewBox="0 0 24 24" fill="none" xmlns="http://www.w3.org/2000/svg">
<path d="M4.5 2C2.29086 2 0.5 3.79086 0.5 6V15C0.5 17.2091 2.29086 19 4.5 19H8C8.55228 19 9 18.5523 9 18C9 17.4477 8.55228 17 8 17H4.5C3.39543 17 2.5 16.1046 2.5 15V6C2.5 4.89543 3.39543 4 4.5 4H17.5C18.6046 4 19.5 4.89543 19.5 6V8.5C19.5 9.05228 19.9477 9.5 20.5 9.5C21.0523 9.5 21.5 9.05228 21.5 8.5V6C21.5 3.79086 19.7091 2 17.5 2H4.5Z" fill="#080809" style="fill:#080809;fill:color(display-p3 0.0314 0.0314 0.0353);fill-opacity:1;"/>
<path fill-rule="evenodd" clip-rule="evenodd" d="M13 11C11.6193 11 10.5 12.1193 10.5 13.5V19.5C10.5 20.8807 11.6193 22 13 22H21C22.3807 22 23.5 20.8807 23.5 19.5V13.5C23.5 12.1193 22.3807 11 21 11H13ZM12.5 13.5C12.5 13.2239 12.7239 13 13 13H21C21.2761 13 21.5 13.2239 21.5 13.5V19.5C21.5 19.7761 21.2761 20 21 20H13C12.7239 20 12.5 19.7761 12.5 19.5V13.5Z" fill="#080809" style="fill:#080809;fill:color(display-p3 0.0314 0.0314 0.0353);fill-opacity:1;"/>
</svg>
