<svg width="24" height="24" viewBox="0 0 24 24" fill="none" xmlns="http://www.w3.org/2000/svg">
<path d="M10.0706 0.500001H7.92943C6.57531 0.499965 5.4587 0.499936 4.57494 0.618754C3.64711 0.743498 2.82768 1.01547 2.17158 1.67158C1.51547 2.32768 1.2435 3.14711 1.11875 4.07494C0.999936 4.95868 0.999966 6.07527 1 7.42935V16.5706C0.999966 17.9247 0.999936 19.0413 1.11875 19.9251C1.2435 20.8529 1.51547 21.6723 2.17158 22.3284C2.82768 22.9845 3.64711 23.2565 4.57494 23.3813C5.4587 23.5001 6.57531 23.5 7.92944 23.5H10.0705C11.4247 23.5 12.5413 23.5001 13.4251 23.3813C14.3529 23.2565 15.1723 22.9845 15.8284 22.3284C15.8864 22.2705 15.9421 22.2105 15.9954 22.1484C16.3555 21.7297 16.308 21.0983 15.8892 20.7382C15.4705 20.3781 14.8391 20.4257 14.479 20.8444C14.4587 20.868 14.4372 20.8913 14.4142 20.9142C14.1916 21.1368 13.8646 21.3042 13.1586 21.3991C12.4238 21.4979 11.4425 21.5 10 21.5H8C6.55752 21.5 5.57625 21.4979 4.84143 21.3991C4.13538 21.3042 3.80836 21.1368 3.58579 20.9142C3.36322 20.6916 3.19585 20.3646 3.10092 19.6586C3.00213 18.9237 3 17.9425 3 16.5V7.5C3 6.05752 3.00213 5.07625 3.10092 4.34143C3.19585 3.63538 3.36322 3.30836 3.58579 3.08579C3.80836 2.86322 4.13538 2.69585 4.84143 2.60092C5.57626 2.50213 6.55752 2.5 8 2.5H10C11.4425 2.5 12.4238 2.50213 13.1586 2.60092C13.8646 2.69585 14.1916 2.86322 14.4142 3.08579C14.4372 3.10875 14.4587 3.13198 14.479 3.15557C14.8391 3.57432 15.4705 3.62187 15.8892 3.26178C16.308 2.90169 16.3555 2.27031 15.9954 1.85156C15.9421 1.78951 15.8864 1.72954 15.8284 1.67158C15.1723 1.01547 14.3529 0.743498 13.4251 0.618754C12.5413 0.499936 11.4247 0.499965 10.0706 0.500001Z" fill="#080809" style="fill:#080809;fill:color(display-p3 0.0314 0.0314 0.0353);fill-opacity:1;"/>
<path d="M15.5 10C16.0523 10 16.5 9.55228 16.5 9C16.5 8.44772 16.0523 8 15.5 8C14.9477 8 14.5 8.44772 14.5 9C14.5 9.55228 14.9477 10 15.5 10Z" fill="#080809" style="fill:#080809;fill:color(display-p3 0.0314 0.0314 0.0353);fill-opacity:1;"/>
<path d="M16.5 12C16.5 12.5523 16.0523 13 15.5 13C14.9477 13 14.5 12.5523 14.5 12C14.5 11.4477 14.9477 11 15.5 11C16.0523 11 16.5 11.4477 16.5 12Z" fill="#080809" style="fill:#080809;fill:color(display-p3 0.0314 0.0314 0.0353);fill-opacity:1;"/>
<path d="M15.5 16C16.0523 16 16.5 15.5523 16.5 15C16.5 14.4477 16.0523 14 15.5 14C14.9477 14 14.5 14.4477 14.5 15C14.5 15.5523 14.9477 16 15.5 16Z" fill="#080809" style="fill:#080809;fill:color(display-p3 0.0314 0.0314 0.0353);fill-opacity:1;"/>
<path fill-rule="evenodd" clip-rule="evenodd" d="M15.5 5C11.634 5 8.5 8.13401 8.5 12C8.5 15.866 11.634 19 15.5 19C17.0723 19 18.5236 18.4816 19.6922 17.6064L21.7943 19.7085C22.1848 20.0991 22.818 20.0991 23.2085 19.7085C23.5991 19.318 23.5991 18.6848 23.2085 18.2943L21.1064 16.1922C21.9816 15.0236 22.5 13.5723 22.5 12C22.5 8.13401 19.366 5 15.5 5ZM10.5 12C10.5 9.23858 12.7386 7 15.5 7C18.2614 7 20.5 9.23858 20.5 12C20.5 14.7614 18.2614 17 15.5 17C12.7386 17 10.5 14.7614 10.5 12Z" fill="#080809" style="fill:#080809;fill:color(display-p3 0.0314 0.0314 0.0353);fill-opacity:1;"/>
</svg>
