<svg width="24" height="24" viewBox="0 0 24 24" fill="none" xmlns="http://www.w3.org/2000/svg">
<path fill-rule="evenodd" clip-rule="evenodd" d="M9.73009 1.96266C10.6236 0.0254667 13.3769 0.0254667 14.2704 1.96266L15.793 5.2638L19.4031 5.69184C21.5216 5.94302 22.3724 8.56146 20.8061 10.0099L18.1371 12.4782L18.8456 16.0439C19.2613 18.1363 17.0339 19.7546 15.1724 18.7126L12.0002 16.9369L8.82806 18.7126C6.96654 19.7546 4.73912 18.1363 5.15488 16.0439L5.86338 12.4782L3.19432 10.0099C1.62809 8.56146 2.47889 5.94302 4.59736 5.69184L8.20744 5.2638L9.73009 1.96266ZM12.4543 2.80034C12.2756 2.41291 11.7249 2.41291 11.5462 2.80035L9.78911 6.60977C9.64345 6.92558 9.34416 7.14303 8.9988 7.18398L4.83284 7.67792C4.40915 7.72816 4.23899 8.25185 4.55224 8.54153L7.63225 11.3899C7.88758 11.626 8.00189 11.9778 7.93412 12.3189L7.11653 16.4337C7.03338 16.8522 7.47886 17.1758 7.85117 16.9674L11.5118 14.9183C11.8153 14.7485 12.1852 14.7485 12.4887 14.9183L16.1493 16.9674C16.5216 17.1758 16.9671 16.8522 16.8839 16.4337L16.0664 12.3189C15.9986 11.9778 16.1129 11.626 16.3682 11.3899L19.4482 8.54154C19.7615 8.25185 19.5913 7.72816 19.1676 7.67792L15.0017 7.18398C14.6563 7.14303 14.357 6.92558 14.2114 6.60977L12.4543 2.80034Z" fill="#080809" style="fill:#080809;fill:color(display-p3 0.0314 0.0314 0.0353);fill-opacity:1;"/>
<path d="M12.001 18.5C12.5533 18.5 13.001 18.9477 13.001 19.5V21H20C20.5523 21 21 21.4477 21 22C21 22.5523 20.5523 23 20 23H4C3.44772 23 3 22.5523 3 22C3 21.4477 3.44772 21 4 21H11.001V19.5C11.001 18.9477 11.4487 18.5 12.001 18.5Z" fill="#080809" style="fill:#080809;fill:color(display-p3 0.0314 0.0314 0.0353);fill-opacity:1;"/>
</svg>
