<svg width="24" height="24" viewBox="0 0 24 24" fill="none" xmlns="http://www.w3.org/2000/svg">
<path fill-rule="evenodd" clip-rule="evenodd" d="M12.8107 0.914509C12.6227 0.654197 12.3211 0.5 12 0.5C11.6789 0.5 11.3773 0.654197 11.1893 0.914509L9.84215 2.7798C8.57082 4.5401 9.8286 7 12 7C14.1714 7 15.4291 4.5401 14.1578 2.7798L12.8107 0.914509Z" fill="#080809" style="fill:#080809;fill:color(display-p3 0.0314 0.0314 0.0353);fill-opacity:1;"/>
<path d="M5.96072 8.35022C4.42219 8.06175 3 9.24205 3 10.8074V20.5C3 21.8807 4.11929 23 5.5 23H18.5C19.8807 23 21 21.8807 21 20.5V13.5H17.25C17.1119 13.5 17 13.6119 17 13.75V16.25C17 17.7688 15.7688 19 14.25 19C12.7312 19 11.5 17.7688 11.5 16.25V15.25C11.5 15.1119 11.3881 15 11.25 15H9C8.58579 15 8.25 14.6642 8.25 14.25C8.25 13.8358 8.58579 13.5 9 13.5H11.25C12.2165 13.5 13 14.2835 13 15.25V16.25C13 16.9404 13.5596 17.5 14.25 17.5C14.9404 17.5 15.5 16.9404 15.5 16.25V13.75C15.5 12.7835 16.2835 12 17.25 12H21V10.8074C21 9.24205 19.5778 8.06175 18.0393 8.35022L16.4229 8.65329C13.4998 9.20138 10.5002 9.20138 7.57707 8.65329L5.96072 8.35022Z" fill="#080809" style="fill:#080809;fill:color(display-p3 0.0314 0.0314 0.0353);fill-opacity:1;"/>
</svg>
