<svg width="24" height="24" viewBox="0 0 24 24" fill="none" xmlns="http://www.w3.org/2000/svg">
<path fill-rule="evenodd" clip-rule="evenodd" d="M7.42943 3H16.5706C17.9247 2.99997 19.0413 2.99994 19.9251 3.11876C20.8529 3.2435 21.6723 3.51547 22.3284 4.17158C22.9845 4.82769 23.2565 5.64711 23.3813 6.57494C23.5001 7.45869 23.5 8.5753 23.5 9.9294V14.0706C23.5 15.4247 23.5001 16.5413 23.3813 17.4251C23.2565 18.3529 22.9845 19.1723 22.3284 19.8284C21.6723 20.4845 20.8529 20.7565 19.9251 20.8813C19.0413 21.0001 17.9247 21 16.5706 21H7.42944C6.07535 21 4.95869 21.0001 4.07494 20.8813C3.14711 20.7565 2.32769 20.4845 1.67158 19.8284C1.01547 19.1723 0.7435 18.3529 0.618757 17.4251C0.499941 16.5413 0.499968 15.4247 0.500001 14.0706V9.92939C0.499968 8.57531 0.499941 7.45868 0.618757 6.57494C0.7435 5.64711 1.01547 4.82769 1.67158 4.17158C2.32769 3.51547 3.14711 3.2435 4.07494 3.11876C4.95868 2.99994 6.07535 2.99997 7.42943 3ZM14 9C13.4477 9 13 9.44772 13 10C13 10.5523 13.4477 11 14 11H19C19.5523 11 20 10.5523 20 10C20 9.44772 19.5523 9 19 9H14ZM13 14C13 13.4477 13.4477 13 14 13H17C17.5523 13 18 13.4477 18 14C18 14.5523 17.5523 15 17 15H14C13.4477 15 13 14.5523 13 14ZM7.5 7.5C6.39543 7.5 5.5 8.39543 5.5 9.5C5.5 10.6046 6.39543 11.5 7.5 11.5C8.60457 11.5 9.5 10.6046 9.5 9.5C9.5 8.39543 8.60457 7.5 7.5 7.5ZM4 15C4 13.6193 5.11929 12.5 6.5 12.5H8.5C9.88071 12.5 11 13.6193 11 15V15.25C11 15.9404 10.4404 16.5 9.75 16.5H5.25C4.55964 16.5 4 15.9404 4 15.25V15Z" fill="#080809" style="fill:#080809;fill:color(display-p3 0.0314 0.0314 0.0353);fill-opacity:1;"/>
</svg>
