<svg width="24" height="24" viewBox="0 0 24 24" fill="none" xmlns="http://www.w3.org/2000/svg">
<path d="M9.72962 1.92359C10.6231 -0.0135938 13.3764 -0.0135895 14.2699 1.92359L16.4164 6.57727L21.5057 7.18068C23.6242 7.43186 24.4749 10.0503 22.9087 11.4988L21.7885 12.5347C21.383 12.9096 20.7504 12.8849 20.3754 12.4794C20.0004 12.074 20.0251 11.4413 20.4306 11.0663L21.5508 10.0304C21.864 9.7407 21.6939 9.21701 21.2702 9.16677L15.6251 8.49745C15.2797 8.45651 14.9804 8.23906 14.8348 7.92326L12.4538 2.76128C12.2751 2.37384 11.7244 2.37385 11.5457 2.76128L9.16474 7.92326C9.01907 8.23906 8.71979 8.45651 8.37442 8.49745L2.72933 9.16677C2.30563 9.21701 2.13547 9.7407 2.44872 10.0304L6.62229 13.89C6.87762 14.1261 6.99194 14.4779 6.92416 14.8191L5.81629 20.3947C5.73314 20.8132 6.17862 21.1368 6.55092 20.9284L11.0169 18.4286C11.4988 18.1588 12.1082 18.3308 12.3779 18.8127C12.6477 19.2946 12.4757 19.904 11.9938 20.1738L7.52781 22.6736C5.66628 23.7156 3.43888 22.0973 3.85464 20.0049L4.85342 14.9783L1.09082 11.4987C-0.475431 10.0503 0.375363 7.43186 2.49385 7.18068L7.58308 6.57727L9.72962 1.92359Z" fill="#080809" style="fill:#080809;fill:color(display-p3 0.0314 0.0314 0.0353);fill-opacity:1;"/>
<path d="M22.7067 15.2927C23.0972 15.6832 23.0972 16.3164 22.7067 16.7069L20.4138 18.9998L22.7067 21.2927C23.0972 21.6832 23.0972 22.3164 22.7067 22.7069C22.3162 23.0974 21.683 23.0974 21.2925 22.7069L18.9996 20.414L16.7067 22.7069C16.3162 23.0974 15.683 23.0974 15.2925 22.7069C14.9019 22.3164 14.9019 21.6832 15.2925 21.2927L17.5854 18.9998L15.2925 16.7069C14.9019 16.3164 14.9019 15.6832 15.2925 15.2927C15.683 14.9022 16.3162 14.9022 16.7067 15.2927L18.9996 17.5856L21.2925 15.2927C21.683 14.9022 22.3162 14.9022 22.7067 15.2927Z" fill="#080809" style="fill:#080809;fill:color(display-p3 0.0314 0.0314 0.0353);fill-opacity:1;"/>
</svg>
