<svg width="24" height="24" viewBox="0 0 24 24" fill="none" xmlns="http://www.w3.org/2000/svg">
<path d="M14.2699 1.92359C13.3764 -0.0135895 10.6231 -0.0135938 9.72962 1.92359L7.712 6.29778L2.70711 1.29289C2.31658 0.902369 1.68342 0.902369 1.29289 1.29289C0.902369 1.68342 0.902369 2.31658 1.29289 2.70711L21.2929 22.7071C21.6834 23.0976 22.3166 23.0976 22.7071 22.7071C23.0976 22.3166 23.0976 21.6834 22.7071 21.2929L19.8289 18.4147L19.1461 14.9783L22.9087 11.4988C24.4749 10.0503 23.6242 7.43186 21.5057 7.18068L16.4164 6.57727L14.2699 1.92359Z" fill="#080809" style="fill:#080809;fill:color(display-p3 0.0314 0.0314 0.0353);fill-opacity:1;"/>
<path d="M2.49385 7.18068L3.52248 7.05872L19.0534 22.5896C18.3261 23.0629 17.3575 23.1694 16.4717 22.6736L11.9998 20.1704L7.52781 22.6736C5.66627 23.7156 3.43888 22.0973 3.85464 20.0049L4.85342 14.9783L1.09082 11.4987C-0.475431 10.0503 0.375363 7.43186 2.49385 7.18068Z" fill="#080809" style="fill:#080809;fill:color(display-p3 0.0314 0.0314 0.0353);fill-opacity:1;"/>
</svg>
