<svg width="24" height="24" viewBox="0 0 24 24" fill="none" xmlns="http://www.w3.org/2000/svg">
<path d="M3.99992 10C4.55221 10 4.99992 10.4477 4.99992 11C4.99992 14.866 8.13393 18 11.9999 18C12.7435 18 13.4595 17.8827 14.1318 17.668L15.6767 19.2129C14.8427 19.5866 13.9423 19.8391 12.997 19.9434V21.5H14.997C15.5493 21.5 15.997 21.9477 15.997 22.5C15.997 23.0523 15.5493 23.5 14.997 23.5H8.99699C8.44471 23.5 7.99699 23.0523 7.99699 22.5C7.99699 21.9477 8.44471 21.5 8.99699 21.5H10.997V19.9424C6.49858 19.4435 2.99992 15.6315 2.99992 11C2.99992 10.4477 3.44764 10 3.99992 10Z" fill="#080809" style="fill:#080809;fill:color(display-p3 0.0314 0.0314 0.0353);fill-opacity:1;"/>
<path d="M11.997 0.5C14.7584 0.5 16.997 2.73858 16.997 5.5V11C16.997 12.2747 16.5178 13.4356 15.7323 14.3184L17.1484 15.7344C18.2959 14.4882 18.9999 12.8278 18.9999 11C18.9999 10.4477 19.4476 10 19.9999 10C20.5522 10 20.9999 10.4477 20.9999 11C20.9999 13.3804 20.074 15.5422 18.5644 17.1504L22.707 21.293C23.0974 21.6835 23.0975 22.3165 22.707 22.707C22.3165 23.0975 21.6834 23.0975 21.2929 22.707L1.29289 2.70703C0.902369 2.31651 0.902369 1.68349 1.29289 1.29297C1.68342 0.902444 2.31643 0.902444 2.70696 1.29297L6.99699 5.58301V5.5C6.997 2.73858 9.23557 0.5 11.997 0.5Z" fill="#080809" style="fill:#080809;fill:color(display-p3 0.0314 0.0314 0.0353);fill-opacity:1;"/>
<path d="M12.4423 15.9785C12.2955 15.9915 12.1471 16 11.997 16C9.23557 16 6.99699 13.7614 6.99699 11V10.5332L12.4423 15.9785Z" fill="#080809" style="fill:#080809;fill:color(display-p3 0.0314 0.0314 0.0353);fill-opacity:1;"/>
</svg>
