<svg width="24" height="24" viewBox="0 0 24 24" fill="none" xmlns="http://www.w3.org/2000/svg">
<path d="M7.5 1C5.29086 1 3.5 2.79086 3.5 5C3.5 7.20914 5.29086 9 7.5 9C9.70914 9 11.5 7.20914 11.5 5C11.5 2.79086 9.70914 1 7.5 1Z" fill="#080809" style="fill:#080809;fill:color(display-p3 0.0314 0.0314 0.0353);fill-opacity:1;"/>
<path d="M16.5 13C15.3954 13 14.5 13.8954 14.5 15C14.5 16.1046 15.3954 17 16.5 17C17.6046 17 18.5 16.1046 18.5 15C18.5 13.8954 17.6046 13 16.5 13Z" fill="#080809" style="fill:#080809;fill:color(display-p3 0.0314 0.0314 0.0353);fill-opacity:1;"/>
<path fill-rule="evenodd" clip-rule="evenodd" d="M13 10C11.3431 10 10 11.3431 10 13V20C10 21.6569 11.3431 23 13 23H20C21.6569 23 23 21.6569 23 20V13C23 11.3431 21.6569 10 20 10H13ZM12 13C12 12.4477 12.4477 12 13 12H20C20.5523 12 21 12.4477 21 13V20C21 20.5523 20.5523 21 20 21H19.975C19.9914 20.9192 20 20.8356 20 20.75V20.5C20 19.1193 18.8807 18 17.5 18H15.5C14.1193 18 13 19.1193 13 20.5V20.75C13 20.8356 13.0086 20.9192 13.025 21H13C12.4477 21 12 20.5523 12 20V13Z" fill="#080809" style="fill:#080809;fill:color(display-p3 0.0314 0.0314 0.0353);fill-opacity:1;"/>
<path d="M5.5 10.5C2.73858 10.5 0.5 12.7386 0.5 15.5C0.5 17.1569 1.84315 18.5 3.5 18.5H7C7.55228 18.5 8 18.0523 8 17.5V11.5C8 10.9477 7.55228 10.5 7 10.5H5.5Z" fill="#080809" style="fill:#080809;fill:color(display-p3 0.0314 0.0314 0.0353);fill-opacity:1;"/>
</svg>
