<svg width="24" height="24" viewBox="0 0 24 24" fill="none" xmlns="http://www.w3.org/2000/svg">
<path fill-rule="evenodd" clip-rule="evenodd" d="M15.5007 14.8974C15.2086 14.8974 14.9166 14.8194 14.6556 14.6644C11.4247 12.7474 7.55665 9.64942 7.50165 5.78442C7.45565 2.73642 9.77465 1.04542 11.9816 1.00342C13.3707 0.984419 14.4977 1.45842 15.5007 2.53942C16.5047 1.45642 17.6367 0.984419 19.0196 1.00142C21.2267 1.04342 23.5466 2.73342 23.5007 5.78542C23.4437 9.64942 19.5766 12.7474 16.3426 14.6664C16.0826 14.8204 15.7916 14.8974 15.5007 14.8974Z" fill="#080809" style="fill:#080809;fill:color(display-p3 0.0314 0.0314 0.0353);fill-opacity:1;"/>
<path fill-rule="evenodd" clip-rule="evenodd" d="M7.21855 23.0332C7.09155 23.0332 6.96355 23.0152 6.83755 22.9802C3.37155 22.0072 1.23755 20.4262 0.666547 18.4092C0.0885468 16.3782 1.34755 14.7012 2.89755 14.2552C3.86655 13.9762 4.66555 14.1542 5.30655 14.4812C5.69955 13.8772 6.30355 13.3222 7.28055 13.0802C8.84755 12.6902 10.7745 13.5152 11.2905 15.5642C11.8045 17.5972 10.7465 20.0332 8.23255 22.6072C7.96155 22.8832 7.59555 23.0332 7.21855 23.0332Z" fill="#080809" style="fill:#080809;fill:color(display-p3 0.0314 0.0314 0.0353);fill-opacity:1;"/>
</svg>
