<svg width="24" height="24" viewBox="0 0 24 24" fill="none" xmlns="http://www.w3.org/2000/svg">
<path fill-rule="evenodd" clip-rule="evenodd" d="M5.40225 0.5C4.07552 0.5 3 1.57552 3 2.90225C3 5.15092 3.89328 7.3075 5.48334 8.89755L8.13144 11.5456C8.33934 11.7536 8.32384 12.0951 8.09798 12.2833L6.23834 13.833C4.18641 15.543 3 18.076 3 20.747V21C3 22.3807 4.11929 23.5 5.5 23.5H18.5C19.8807 23.5 21 22.3807 21 21V20.747C21 20.0797 20.9259 19.421 20.7828 18.7816C20.3532 16.8617 19.301 15.1158 17.7617 13.833L15.902 12.2833C15.6762 12.0951 15.6607 11.7535 15.8686 11.5456L18.5167 8.89755C20.1067 7.3075 21 5.15092 21 2.90225C21 1.57552 19.9245 0.5 18.5978 0.5H5.40225ZM18.4369 17.9964C18.007 16.9902 17.342 16.0867 16.4813 15.3695L14.6217 13.8198C13.4923 12.8786 13.4149 11.1709 14.4544 10.1314L17.1024 7.48334C18.3174 6.26836 19 4.62049 19 2.90225C19 2.68009 18.8199 2.5 18.5978 2.5H5.40225C5.18009 2.5 5 2.68009 5 2.90225C5 4.62049 5.68257 6.26836 6.89755 7.48334L9.54565 10.1314C10.5852 11.1709 10.5077 12.8786 9.37834 13.8198L7.51871 15.3695C6.65797 16.0867 5.99304 16.9902 5.56308 17.9964C6.27024 17.961 6.98987 17.6695 7.65862 17.1976C8.66577 16.4869 10.3309 15.5 12 15.5C13.6691 15.5 15.3342 16.4869 16.3414 17.1976C17.0101 17.6695 17.7298 17.961 18.4369 17.9964Z" fill="#080809" style="fill:#080809;fill:color(display-p3 0.0314 0.0314 0.0353);fill-opacity:1;"/>
</svg>
