<svg width="24" height="24" viewBox="0 0 24 24" fill="none" xmlns="http://www.w3.org/2000/svg">
<path fill-rule="evenodd" clip-rule="evenodd" d="M2.70711 1.29289C2.31658 0.902369 1.68342 0.902369 1.29289 1.29289C0.902369 1.68342 0.902369 2.31658 1.29289 2.70711L21.2929 22.7071C21.6834 23.0976 22.3166 23.0976 22.7071 22.7071C23.0976 22.3166 23.0976 21.6834 22.7071 21.2929L19.4389 18.0247C21.4867 16.231 22.7759 14.0999 23.3283 13.0735C23.6886 12.4041 23.6934 11.6053 23.3303 10.9302C22.8046 9.95276 21.623 7.99674 19.7697 6.2738C17.9116 4.54642 15.3171 3 12.0001 3C9.71477 3 7.76897 3.73531 6.17274 4.75852L2.70711 1.29289ZM7.62702 6.21281L9.24226 7.82805C11.1836 6.54189 13.825 6.75404 15.5354 8.46448C17.2459 10.1749 17.458 12.8163 16.1719 14.7576L18.0212 16.607C19.8628 15.028 21.0525 13.082 21.5672 12.1257C21.6121 12.0423 21.6108 11.9554 21.5689 11.8776C21.0968 10.9997 20.0378 9.25378 18.408 7.7386C16.7829 6.22787 14.6516 5 12.0001 5C10.3375 5 8.88232 5.48177 7.62702 6.21281ZM14.7076 13.2934C15.2403 12.1783 15.0448 10.8023 14.1212 9.87869C13.1976 8.95508 11.8216 8.7596 10.7065 9.29225L14.7076 13.2934Z" fill="#080809" style="fill:#080809;fill:color(display-p3 0.0314 0.0314 0.0353);fill-opacity:1;"/>
<path d="M4.11245 7.76383C4.53906 8.11458 4.60056 8.74475 4.24982 9.17136C3.3642 10.2486 2.75715 11.2719 2.43274 11.8747C2.38799 11.9578 2.38915 12.0443 2.43116 12.1224C2.90331 13.0003 3.96227 14.7462 5.59212 16.2614C7.21718 17.7722 9.34846 19 12 19C12.7949 19 13.5386 18.8902 14.2332 18.6979C14.7655 18.5506 15.3164 18.8627 15.4637 19.395C15.611 19.9273 15.299 20.4782 14.7667 20.6255C13.9048 20.864 12.9818 21 12 21C8.68301 21 6.08848 19.4536 4.23037 17.7262C2.37704 16.0033 1.19549 14.0473 0.669761 13.0698C0.306824 12.395 0.311185 11.5966 0.671563 10.9269C1.03813 10.2457 1.71456 9.1058 2.70492 7.90121C3.05566 7.4746 3.68583 7.41309 4.11245 7.76383Z" fill="#080809" style="fill:#080809;fill:color(display-p3 0.0314 0.0314 0.0353);fill-opacity:1;"/>
<path d="M7.88279 12.2199C8.41082 12.058 8.97009 12.3549 9.13197 12.8829C9.2706 13.3351 9.51861 13.7614 9.87865 14.1214C10.2387 14.4814 10.6649 14.7294 11.1171 14.8681C11.6452 15.0299 11.942 15.5892 11.7801 16.1172C11.6183 16.6453 11.059 16.9421 10.5309 16.7802C9.77378 16.5481 9.06118 16.1323 8.46443 15.5356C7.86768 14.9389 7.45193 14.2263 7.2198 13.4691C7.05793 12.9411 7.35476 12.3818 7.88279 12.2199Z" fill="#080809" style="fill:#080809;fill:color(display-p3 0.0314 0.0314 0.0353);fill-opacity:1;"/>
</svg>
