<svg width="24" height="24" viewBox="0 0 24 24" fill="none" xmlns="http://www.w3.org/2000/svg">
<path d="M15.1163 3.11612C14.6282 3.60427 14.6282 4.39573 15.1163 4.88388L16.9825 6.75L10.9148 6.75C9.57331 6.74995 8.44223 6.7499 7.54163 6.87099C6.58608 6.99946 5.7051 7.2845 4.9948 7.9948C4.2845 8.7051 3.99946 9.58608 3.87099 10.5416C3.7499 11.4422 3.74995 12.5733 3.75 13.9148L3.75 20C3.75 20.6904 4.30965 21.25 5 21.25C5.69036 21.25 6.25 20.6904 6.25 20V14C6.25 12.5505 6.25266 11.589 6.34869 10.8747C6.43989 10.1964 6.59419 9.93095 6.76257 9.76257C6.93095 9.59419 7.19642 9.43989 7.87475 9.34869C8.58904 9.25266 9.55045 9.25 11 9.25H16.9825L15.1163 11.1161C14.6282 11.6043 14.6282 12.3957 15.1163 12.8839C15.6045 13.372 16.396 13.372 16.8841 12.8839L19.8235 9.94454C20.8974 8.8706 20.8974 7.1294 19.8235 6.05546L16.8841 3.11612C16.396 2.62796 15.6045 2.62796 15.1163 3.11612Z" fill="#080809" style="fill:#080809;fill:color(display-p3 0.0314 0.0314 0.0353);fill-opacity:1;"/>
<path d="M16.7061 15.2929C16.3156 14.9024 15.6824 14.9024 15.2919 15.2929C14.9014 15.6834 14.9014 16.3166 15.2919 16.7071L17.5848 19L15.2919 21.2929C14.9014 21.6834 14.9014 22.3166 15.2919 22.7071C15.6824 23.0976 16.3156 23.0976 16.7061 22.7071L18.999 20.4142L21.2919 22.7071C21.6824 23.0976 22.3156 23.0976 22.7061 22.7071C23.0967 22.3166 23.0967 21.6834 22.7061 21.2929L20.4132 19L22.7061 16.7071C23.0967 16.3166 23.0967 15.6834 22.7061 15.2929C22.3156 14.9024 21.6824 14.9024 21.2919 15.2929L18.999 17.5858L16.7061 15.2929Z" fill="#080809" style="fill:#080809;fill:color(display-p3 0.0314 0.0314 0.0353);fill-opacity:1;"/>
</svg>
