<svg width="24" height="24" viewBox="0 0 24 24" fill="none" xmlns="http://www.w3.org/2000/svg">
<g clip-path="url(#clip0_29901_28041)">
<path fill-rule="evenodd" clip-rule="evenodd" d="M20.5867 0.695532C22.1621 0.501659 23.4977 1.83717 23.3039 3.4126C23.0193 5.72567 22.5807 7.78465 21.7132 9.66269C20.9781 11.2542 19.9505 12.6828 18.5005 14.0231V18.2568C18.5005 19.3177 18.0791 20.3352 17.3289 21.0854L15.768 22.6461C14.7917 23.6223 13.2088 23.6223 12.2326 22.646L1.35397 11.7674C0.377659 10.7911 0.377655 9.2082 1.35397 8.23189L2.91475 6.67111C3.6649 5.92096 4.68231 5.49954 5.74318 5.49954L9.97591 5.49953C11.3163 4.04932 12.7451 3.02155 14.3368 2.2863C16.2148 1.41879 18.2738 0.980168 20.5867 0.695532ZM13.5075 18.2334C12.9126 18.7415 12.3775 19.2012 11.9684 19.5534L13.6468 21.2318C13.842 21.4271 14.1586 21.4271 14.3539 21.2318L15.9147 19.6711C16.2898 19.296 16.5005 18.7873 16.5005 18.2568V15.7051C15.5296 16.5127 14.4462 17.4317 13.5075 18.2334ZM5.76629 10.4923C6.56779 9.55373 7.4865 8.47042 8.29395 7.49953L5.74318 7.49953C5.21274 7.49953 4.70404 7.71025 4.32896 8.08532L2.76818 9.6461C2.57292 9.84137 2.57292 10.1579 2.76818 10.3532L4.44646 12.0315C4.79864 11.6224 5.25822 11.0872 5.76629 10.4923ZM14.0858 9.91354C14.8668 10.6946 16.1332 10.6946 16.9142 9.91354C17.6953 9.13249 17.6953 7.86616 16.9142 7.08511C16.1332 6.30406 14.8668 6.30406 14.0858 7.08511C13.3047 7.86616 13.3047 9.13249 14.0858 9.91354Z" fill="#080809" style="fill:#080809;fill:color(display-p3 0.0314 0.0314 0.0353);fill-opacity:1;"/>
<path d="M1.79294 15.7927L0.792941 16.7927C0.402417 17.1832 0.402418 17.8164 0.792942 18.2069C1.18347 18.5974 1.81663 18.5974 2.20715 18.2069L3.20716 17.2069C3.59768 16.8164 3.59768 16.1832 3.20716 15.7927C2.81663 15.4021 2.18347 15.4021 1.79294 15.7927Z" fill="#080809" style="fill:#080809;fill:color(display-p3 0.0314 0.0314 0.0353);fill-opacity:1;"/>
<path d="M8.2072 22.2072C8.59772 21.8166 8.59772 21.1835 8.2072 20.793C7.81667 20.4024 7.18351 20.4024 6.79298 20.793L5.79298 21.793C5.40246 22.1835 5.40246 22.8166 5.79298 23.2072C6.18351 23.5977 6.81667 23.5977 7.20719 23.2072L8.2072 22.2072Z" fill="#080809" style="fill:#080809;fill:color(display-p3 0.0314 0.0314 0.0353);fill-opacity:1;"/>
<path d="M5.70711 18.2929C6.09763 18.6834 6.09763 19.3166 5.70711 19.7071L2.20711 23.2071C1.81658 23.5976 1.18342 23.5976 0.792893 23.2071C0.402369 22.8166 0.402369 22.1834 0.792893 21.7929L4.29289 18.2929C4.68342 17.9024 5.31658 17.9024 5.70711 18.2929Z" fill="#080809" style="fill:#080809;fill:color(display-p3 0.0314 0.0314 0.0353);fill-opacity:1;"/>
</g>
<defs>
<clipPath id="clip0_29901_28041">
<rect width="24" height="24" fill="white" style="fill:white;fill-opacity:1;"/>
</clipPath>
</defs>
</svg>
