<svg width="24" height="24" viewBox="0 0 24 24" fill="none" xmlns="http://www.w3.org/2000/svg">
<path d="M8.70692 15.6885C8.51931 15.1691 7.94613 14.9001 7.42669 15.0877C6.90724 15.2753 6.63824 15.8485 6.82585 16.3679C7.32205 17.7417 8.34794 18.8594 9.65709 19.4766C10.1566 19.7121 10.7525 19.498 10.988 18.9984C11.2235 18.4989 11.0095 17.903 10.5099 17.6675C9.67606 17.2744 9.02206 16.561 8.70692 15.6885Z" fill="#080809" style="fill:#080809;fill:color(display-p3 0.0314 0.0314 0.0353);fill-opacity:1;"/>
<path fill-rule="evenodd" clip-rule="evenodd" d="M12 23.4996C16.9706 23.4996 21 19.4702 21 14.4996C21 11.8601 19.6487 9.07729 18.1412 6.76324C16.6123 4.41633 14.8163 2.39316 13.7233 1.24134C12.7803 0.247676 11.2197 0.247682 10.2767 1.24134C9.18369 2.39316 7.3877 4.41633 5.8588 6.76324C4.35131 9.0773 3 11.8601 3 14.4996C3 19.4702 7.02944 23.4996 12 23.4996ZM19 14.4996C19 18.3656 15.866 21.4996 12 21.4996C8.13401 21.4996 5 18.3656 5 14.4996C5 12.464 6.07726 10.092 7.53458 7.85493C8.97049 5.65074 10.6756 3.72654 11.7275 2.61806C11.8818 2.45544 12.1182 2.45544 12.2725 2.61806C13.3244 3.72654 15.0295 5.65074 16.4654 7.85492C17.9227 10.092 19 12.464 19 14.4996Z" fill="#080809" style="fill:#080809;fill:color(display-p3 0.0314 0.0314 0.0353);fill-opacity:1;"/>
</svg>
