<svg width="24" height="24" viewBox="0 0 24 24" fill="none" xmlns="http://www.w3.org/2000/svg">
<path d="M17.3382 3.00186C18.0877 3.00073 18.8365 2.99959 19.5862 2.99951L12.7933 9.7924C12.4028 10.1829 12.4028 10.8161 12.7933 11.2066C13.1839 11.5971 13.817 11.5971 14.2076 11.2066L20.9956 4.41852C20.9956 5.1603 20.9954 5.90186 20.9952 6.64358L20.9952 6.65444C20.995 7.43581 20.9947 8.21736 20.9947 8.99952C20.9947 9.5518 21.4424 9.99951 21.9947 9.99951C22.547 9.99951 22.9947 9.55179 22.9947 8.99951C22.9947 8.21919 22.995 7.43827 22.9952 6.65717L22.9952 6.6468C22.9955 5.59644 22.9958 4.54576 22.9955 3.49583C22.9952 2.12051 21.8827 1.0018 20.5042 1.00002C19.4477 0.998662 18.3876 1.00027 17.329 1.00187C16.5509 1.00305 15.7737 1.00423 14.9994 1.00423C14.4472 1.00423 13.9994 1.45194 13.9994 2.00422C13.9994 2.55651 14.4472 3.00423 14.9994 3.00423C15.7813 3.00423 16.5603 3.00305 17.3382 3.00186Z" fill="#080809" style="fill:#080809;fill:color(display-p3 0.0314 0.0314 0.0353);fill-opacity:1;"/>
<path d="M11 1.99636C11.0046 2.54863 10.5607 3.00012 10.0085 3.00481C8.29846 3.0193 7.06021 3.07521 6.10985 3.26136C5.18741 3.44205 4.61074 3.73203 4.17157 4.1712C3.65611 4.68666 3.34229 5.39583 3.17414 6.64652C3.00213 7.92596 3 9.61434 3 11.9996C3 14.3849 3.00213 16.0733 3.17414 17.3527C3.34229 18.6034 3.65611 19.3126 4.17157 19.8281C4.68704 20.3435 5.39621 20.6573 6.64689 20.8255C7.92634 20.9975 9.61471 20.9996 12 20.9996C14.3853 20.9996 16.0737 20.9975 17.3531 20.8255C18.6038 20.6573 19.313 20.3435 19.8284 19.8281C20.2676 19.3889 20.5576 18.8122 20.7383 17.8898C20.9244 16.9394 20.9803 15.7012 20.9948 13.9911C20.9995 13.4389 21.451 12.995 22.0033 12.9997C22.5555 13.0043 22.9994 13.4558 22.9947 14.0081C22.9803 15.7112 22.927 17.1203 22.701 18.2742C22.4695 19.4561 22.0443 20.4406 21.2426 21.2423C20.2936 22.1913 19.0921 22.6097 17.6196 22.8077C16.1914 22.9997 14.3683 22.9997 12.0748 22.9996H11.9252C9.63167 22.9997 7.8086 22.9997 6.38039 22.8077C4.90794 22.6097 3.70636 22.1913 2.75736 21.2423C1.80836 20.2933 1.38994 19.0917 1.19198 17.6192C0.999961 16.191 0.999978 14.368 1 12.0744V11.9248C0.999978 9.63128 0.999961 7.80822 1.19198 6.38002C1.38994 4.90756 1.80836 3.70599 2.75736 2.75699C3.55902 1.95533 4.54355 1.53016 5.72539 1.29866C6.87931 1.07263 8.28842 1.01932 9.99152 1.00488C10.5438 1.0002 10.9953 1.4441 11 1.99636Z" fill="#080809" style="fill:#080809;fill:color(display-p3 0.0314 0.0314 0.0353);fill-opacity:1;"/>
</svg>
