<svg width="24" height="24" viewBox="0 0 24 24" fill="none" xmlns="http://www.w3.org/2000/svg">
<g clip-path="url(#clip0_29901_28198)">
<path fill-rule="evenodd" clip-rule="evenodd" d="M12 0.5C18.3513 0.5 23.5 5.64873 23.5 12C23.5 18.3513 18.3513 23.5 12 23.5C5.64873 23.5 0.5 18.3513 0.5 12C0.5 5.64873 5.64873 0.5 12 0.5ZM12 7.5C10.6193 7.5 9.5 8.61929 9.5 10C9.5 10.9443 10.0242 11.7651 10.7969 12.1904L10.0312 15.2578C9.95666 15.5565 10.0235 15.8726 10.2129 16.1152C10.4024 16.3578 10.6931 16.5 11.001 16.5H13.001C13.3088 16.4999 13.5996 16.3579 13.7891 16.1152C13.9785 15.8725 14.0454 15.5555 13.9707 15.2568L13.2041 12.1904C13.9764 11.765 14.5 10.944 14.5 10C14.5 8.61929 13.3807 7.5 12 7.5Z" fill="#080809" style="fill:#080809;fill:color(display-p3 0.0314 0.0314 0.0353);fill-opacity:1;"/>
</g>
<defs>
<clipPath id="clip0_29901_28198">
<rect width="24" height="24" fill="white" style="fill:white;fill-opacity:1;"/>
</clipPath>
</defs>
</svg>
