<svg width="24" height="24" viewBox="0 0 24 24" fill="none" xmlns="http://www.w3.org/2000/svg">
<path d="M1.5 8.49992C4.98462 8.49992 7.99661 9.70966 10.1406 11.8515C12.2846 13.9933 13.4971 17.0037 13.5 20.4872C13.5004 21.0307 13.0667 21.4755 12.5234 21.4882L12.0234 21.4999C12.0156 21.5001 12.0078 21.4999 12 21.4999C5.64875 21.4999 0.500044 16.3512 0.5 9.99992V9.49992C0.5 8.94763 0.947715 8.49992 1.5 8.49992Z" fill="#080809" style="fill:#080809;fill:color(display-p3 0.0314 0.0314 0.0353);fill-opacity:1;"/>
<path d="M22.499 8.49992C23.0513 8.49992 23.499 8.94763 23.499 9.49992V9.99992C23.499 15.3435 19.8542 19.8328 14.915 21.1239C14.9686 20.92 15.0002 20.7067 15 20.4862C14.9976 17.6666 14.2723 15.0806 12.915 12.9345C15.0456 10.1505 18.4375 8.50017 22.499 8.49992Z" fill="#080809" style="fill:#080809;fill:color(display-p3 0.0314 0.0314 0.0353);fill-opacity:1;"/>
<path d="M11.6367 2.56828C11.9088 2.46213 12.2171 2.47977 12.4775 2.62101C13.6924 3.28119 14.8268 4.72054 15.6641 6.33683C15.9735 6.93418 16.2536 7.57844 16.4902 8.24992C14.7315 9.04889 13.2084 10.2104 12.0029 11.6728C11.7506 11.3665 11.4833 11.0718 11.2012 10.79C10.1363 9.72622 8.89195 8.87219 7.51074 8.24601C7.74705 7.57588 8.02714 6.93307 8.33594 6.33683C9.17308 4.72068 10.3078 3.2814 11.5225 2.62101L11.6367 2.56828Z" fill="#080809" style="fill:#080809;fill:color(display-p3 0.0314 0.0314 0.0353);fill-opacity:1;"/>
</svg>
