<svg width="24" height="24" viewBox="0 0 24 24" fill="none" xmlns="http://www.w3.org/2000/svg">
<path d="M19.9832 4.74394C18.4721 4.05211 16.8768 3.56131 15.2381 3.28406C15.0139 3.68492 14.811 4.09735 14.6303 4.51962C12.8848 4.2566 11.1097 4.2566 9.36423 4.51962C9.18343 4.09739 8.98054 3.68497 8.75639 3.28406C7.11666 3.56365 5.52034 4.05562 4.00769 4.74756C1.0047 9.19054 0.190639 13.5232 0.59767 17.7943C2.3563 19.0936 4.3247 20.0818 6.41732 20.7159C6.88851 20.0821 7.30546 19.4098 7.66374 18.706C6.98324 18.4519 6.32644 18.1383 5.70094 17.769C5.86556 17.6496 6.02657 17.5265 6.18214 17.4071C8.0022 18.2631 9.98871 18.7069 12 18.7069C14.0113 18.7069 15.9978 18.2631 17.8178 17.4071C17.9752 17.5356 18.1362 17.6586 18.299 17.769C17.6723 18.1389 17.0143 18.4531 16.3326 18.7078C16.6904 19.4113 17.1074 20.083 17.579 20.7159C19.6734 20.0844 21.6433 19.0966 23.4023 17.7961C23.8799 12.843 22.5864 8.55014 19.9832 4.74394ZM8.17931 15.1676C7.04505 15.1676 6.10797 14.1382 6.10797 12.8719C6.10797 11.6056 7.01249 10.5672 8.17569 10.5672C9.3389 10.5672 10.2687 11.6056 10.2488 12.8719C10.2289 14.1382 9.33528 15.1676 8.17931 15.1676ZM15.8207 15.1676C14.6846 15.1676 13.7511 14.1382 13.7511 12.8719C13.7511 11.6056 14.6556 10.5672 15.8207 10.5672C16.9857 10.5672 17.9083 11.6056 17.8884 12.8719C17.8685 14.1382 16.9766 15.1676 15.8207 15.1676Z" fill="#080809" style="fill:#080809;fill:color(display-p3 0.0314 0.0314 0.0353);fill-opacity:1;"/>
</svg>
