<svg width="24" height="24" viewBox="0 0 24 24" fill="none" xmlns="http://www.w3.org/2000/svg">
<path fill-rule="evenodd" clip-rule="evenodd" d="M14.2699 1.92456C13.3764 -0.0126133 10.6231 -0.0126171 9.72962 1.92456L7.58308 6.57825L2.49385 7.18166C0.375363 7.43284 -0.475431 10.0513 1.09082 11.4997L4.85342 14.9793L3.85464 20.0059C3.43888 22.0983 5.66628 23.7166 7.52781 22.6746L11.9998 20.1714L16.4717 22.6746C18.3332 23.7166 20.5606 22.0983 20.1449 20.0059L19.1461 14.9793L22.9087 11.4997C24.4749 10.0513 23.6242 7.43284 21.5057 7.18166L16.4164 6.57825L14.2699 1.92456ZM12 2.47168C12.1823 2.47177 12.3645 2.56862 12.4538 2.76226L14.8348 7.92423C14.9804 8.24004 15.2797 8.45748 15.6251 8.49843L21.2702 9.16775C21.6939 9.21798 21.864 9.74168 21.5508 10.0314L17.3772 13.891C17.1219 14.1271 17.0076 14.4789 17.0754 14.82L18.1832 20.3957C18.2664 20.8141 17.8209 21.1378 17.4486 20.9294L12.4882 18.1528C12.3365 18.0679 12.1683 18.0254 12 18.0254V2.47168Z" fill="#080809" style="fill:#080809;fill:color(display-p3 0.0314 0.0314 0.0353);fill-opacity:1;"/>
</svg>
