<svg width="24" height="24" viewBox="0 0 24 24" fill="none" xmlns="http://www.w3.org/2000/svg">
<path d="M17.5 1C14.7386 1 12.5 3.23858 12.5 6C12.5 8.76142 14.7386 11 17.5 11C20.2614 11 22.5 8.76142 22.5 6C22.5 3.23858 20.2614 1 17.5 1Z" fill="#080809" style="fill:#080809;fill:color(display-p3 0.0314 0.0314 0.0353);fill-opacity:1;"/>
<path fill-rule="evenodd" clip-rule="evenodd" d="M4.18084 11.2992C5.00819 11.0924 5.8658 11.0347 6.7134 11.1288L13.1032 11.8388C14.4677 11.9904 15.5 13.1438 15.5 14.5167C15.5 15.1549 15.2768 15.7464 14.9001 16.2117C16.3044 15.9298 17.6686 15.4436 18.9473 14.7616L19.5301 14.4508C21.3283 13.4918 23.5 14.7948 23.5 16.8327C23.5 17.7422 23.042 18.5906 22.2816 19.0896L22.1512 19.1752C17.3864 22.3021 11.5506 23.3458 5.9973 22.0643L5.02713 21.8404C2.37716 21.2289 0.5 18.8692 0.5 16.1496V16.0135C0.5 13.7837 2.01758 11.84 4.18084 11.2992ZM6.49254 13.1166C5.8812 13.0487 5.26265 13.0903 4.66591 13.2395C3.39299 13.5577 2.5 14.7014 2.5 16.0135V16.1496C2.5 17.9379 3.73434 19.4895 5.47685 19.8916L6.44702 20.1155C11.4685 21.2743 16.7454 20.3305 21.0539 17.5031L21.1843 17.4175C21.3813 17.2882 21.5 17.0684 21.5 16.8327C21.5 16.3046 20.9373 15.967 20.4713 16.2155L19.8885 16.5263C16.8317 18.1566 13.3453 18.8011 9.90763 18.3714C8.2855 18.1686 8.27585 15.8212 9.8963 15.6052L12.8974 15.205C13.2424 15.159 13.5 14.8647 13.5 14.5167C13.5 14.1629 13.234 13.8657 12.8823 13.8266L6.49254 13.1166Z" fill="#080809" style="fill:#080809;fill:color(display-p3 0.0314 0.0314 0.0353);fill-opacity:1;"/>
</svg>
