<svg width="24" height="24" viewBox="0 0 24 24" fill="none" xmlns="http://www.w3.org/2000/svg">
<path d="M7.92943 1H10.0706C11.4247 0.999967 12.5413 0.999939 13.4251 1.11876C14.3529 1.2435 15.1723 1.51547 15.8284 2.17158C16.4261 2.76925 16.706 3.50371 16.8451 4.33485C16.9363 4.87955 16.5687 5.39506 16.024 5.48627C15.4793 5.57748 14.9638 5.20986 14.8726 4.66515C14.7748 4.08092 14.6186 3.79019 14.4142 3.58579C14.1916 3.36322 13.8646 3.19585 13.1586 3.10092C12.4238 3.00213 11.4425 3 10 3H8C6.55752 3 5.57626 3.00213 4.84144 3.10092C4.13538 3.19585 3.80836 3.36322 3.58579 3.58579C3.36322 3.80836 3.19585 4.13538 3.10092 4.84144C3.00213 5.57626 3 6.55752 3 8V10C3 11.4425 3.00213 12.4238 3.10092 13.1586C3.19585 13.8646 3.36322 14.1916 3.58579 14.4142C3.79019 14.6186 4.08092 14.7748 4.66515 14.8726C5.20986 14.9638 5.57748 15.4793 5.48627 16.024C5.39506 16.5687 4.87955 16.9363 4.33485 16.8451C3.50371 16.706 2.76925 16.4261 2.17158 15.8284C1.51547 15.1723 1.2435 14.3529 1.11876 13.4251C0.999939 12.5413 0.999967 11.4247 1 10.0706V7.92943C0.999967 6.57533 0.999939 5.45869 1.11876 4.57494C1.2435 3.64711 1.51547 2.82769 2.17158 2.17158C2.82769 1.51547 3.64711 1.2435 4.57494 1.11876C5.45869 0.999939 6.57533 0.999967 7.92943 1Z" fill="#080809" style="fill:#080809;fill:color(display-p3 0.0314 0.0314 0.0353);fill-opacity:1;"/>
<path d="M16.0706 7H13.9294C12.5753 6.99997 11.4587 6.99994 10.5749 7.11876C9.64711 7.2435 8.82768 7.51547 8.17158 8.17158C7.51547 8.82768 7.2435 9.64711 7.11876 10.5749C6.99994 11.4587 6.99997 12.5753 7 13.9294V16.0706C6.99997 17.4247 6.99994 18.5413 7.11876 19.4251C7.2435 20.3529 7.51547 21.1723 8.17158 21.8284C8.82768 22.4845 9.64711 22.7565 10.5749 22.8813C11.4587 23.0001 12.5753 23 13.9294 23H16.0706C17.4247 23 18.5413 23.0001 19.4251 22.8813C20.3529 22.7565 21.1723 22.4845 21.8284 21.8284C22.4845 21.1723 22.7565 20.3529 22.8813 19.4251C23.0001 18.5413 23 17.4247 23 16.0707V13.9294C23 12.5753 23.0001 11.4587 22.8813 10.5749C22.7565 9.64711 22.4845 8.82768 21.8284 8.17158C21.1723 7.51547 20.3529 7.2435 19.4251 7.11876C18.5413 6.99994 17.4247 6.99997 16.0706 7Z" fill="#080809" style="fill:#080809;fill:color(display-p3 0.0314 0.0314 0.0353);fill-opacity:1;"/>
</svg>
