<svg width="24" height="24" viewBox="0 0 24 24" fill="none" xmlns="http://www.w3.org/2000/svg">
<path fill-rule="evenodd" clip-rule="evenodd" d="M8.5 1C6.84315 1 5.5 2.34315 5.5 4V13.9998C4.28702 14.9109 3.5 16.3631 3.5 18C3.5 20.7614 5.73858 23 8.5 23C11.2614 23 13.5 20.7614 13.5 18C13.5 16.3631 12.713 14.9109 11.5 13.9998V4C11.5 2.34315 10.1569 1 8.5 1ZM9.5 11V4C9.5 3.44772 9.05228 3 8.5 3C7.94772 3 7.5 3.44772 7.5 4V11H9.5Z" fill="#080809" style="fill:#080809;fill:color(display-p3 0.0314 0.0314 0.0353);fill-opacity:1;"/>
<path d="M14 4C14 3.44772 14.4477 3 15 3H19C19.5523 3 20 3.44772 20 4C20 4.55228 19.5523 5 19 5H15C14.4477 5 14 4.55228 14 4Z" fill="#080809" style="fill:#080809;fill:color(display-p3 0.0314 0.0314 0.0353);fill-opacity:1;"/>
<path d="M15 7C14.4477 7 14 7.44772 14 8C14 8.55228 14.4477 9 15 9H19C19.5523 9 20 8.55228 20 8C20 7.44772 19.5523 7 19 7H15Z" fill="#080809" style="fill:#080809;fill:color(display-p3 0.0314 0.0314 0.0353);fill-opacity:1;"/>
<path d="M14 12C14 11.4477 14.4477 11 15 11H19C19.5523 11 20 11.4477 20 12C20 12.5523 19.5523 13 19 13H15C14.4477 13 14 12.5523 14 12Z" fill="#080809" style="fill:#080809;fill:color(display-p3 0.0314 0.0314 0.0353);fill-opacity:1;"/>
</svg>
