<svg width="24" height="24" viewBox="0 0 24 24" fill="none" xmlns="http://www.w3.org/2000/svg">
<path fill-rule="evenodd" clip-rule="evenodd" d="M20.3713 2.45705C19.1997 1.28547 17.3002 1.28548 16.1287 2.45706L13.5 5.08576L13.2071 4.79289C12.8166 4.40237 12.1834 4.40237 11.7929 4.79289C11.4024 5.18342 11.4024 5.81658 11.7929 6.20711L12.0859 6.50008L4.80342 13.7825C4.79989 13.7859 4.79638 13.7894 4.79289 13.7929L2.73223 15.8536C2.26339 16.3224 2 16.9583 2 17.6213V19.7642L1.77659 20.2111C1.13191 21.5004 2.49976 22.8682 3.7891 22.2235L4.23607 22H6.37868C6.80736 22 7.22468 21.8899 7.59285 21.6854C7.79419 21.5735 7.98083 21.4334 8.1466 21.2677L17.5001 11.9143L17.7929 12.2071C18.1834 12.5976 18.8166 12.5976 19.2071 12.2071C19.5976 11.8166 19.5976 11.1834 19.2071 10.7929L18.9142 10.5L21.5429 7.87126C22.7145 6.69969 22.7145 4.80019 21.5429 3.62862L20.3713 2.45705ZM13.0859 13.5L16.0859 10.5001L13.5001 7.91429L7.91437 13.5H13.0859ZM6.62224 19.9367C6.54847 19.9778 6.4648 19.9999 6.37884 19.9999H4.00015V17.6213C4.00015 17.4887 4.05283 17.3615 4.1466 17.2678L5.91437 15.5H11.0858L6.73223 19.8536C6.69929 19.8865 6.66222 19.9144 6.62224 19.9367Z" fill="#080809" style="fill:#080809;fill:color(display-p3 0.0314 0.0314 0.0353);fill-opacity:1;"/>
</svg>
