<svg width="24" height="24" viewBox="0 0 24 24" fill="none" xmlns="http://www.w3.org/2000/svg">
<g clip-path="url(#clip0_29901_26488)">
<path d="M11.9998 4.5C10.8952 4.5 9.99978 5.39543 9.99978 6.5C9.99978 7.60457 10.8952 8.5 11.9998 8.5C13.1044 8.5 13.9998 7.60457 13.9998 6.5C13.9998 5.39543 13.1044 4.5 11.9998 4.5Z" fill="#080809" style="fill:#080809;fill:color(display-p3 0.0314 0.0314 0.0353);fill-opacity:1;"/>
<path d="M17.7408 10.72C17.646 10.7439 15.9385 11.1668 13.9998 11.3797V12.8661L15.4645 18.2369C15.6056 18.7542 15.3136 19.2908 14.8025 19.4531C14.2914 19.6154 13.7432 19.3457 13.56 18.8417L11.9998 14.5512L10.4396 18.8417C10.2563 19.3457 9.70818 19.6154 9.19709 19.4531C8.68601 19.2908 8.39393 18.7542 8.53502 18.2369L9.99978 12.8661V11.3797C8.06093 11.1669 6.35236 10.7439 6.25679 10.72C5.7208 10.586 5.39579 10.043 5.52879 9.50803C5.6628 8.97104 6.2028 8.64303 6.7408 8.78003L6.74321 8.78062C6.84185 8.80474 9.68508 9.50003 11.9988 9.50003C14.3125 9.50003 17.1557 8.80475 17.2544 8.78062L17.2568 8.78003C17.7918 8.64703 18.3348 8.97203 18.4688 9.50803C18.6028 10.044 18.2778 10.587 17.7408 10.72Z" fill="#080809" style="fill:#080809;fill:color(display-p3 0.0314 0.0314 0.0353);fill-opacity:1;"/>
<path fill-rule="evenodd" clip-rule="evenodd" d="M0.5 12C0.5 18.3513 5.64873 23.5 12 23.5C18.3513 23.5 23.5 18.3513 23.5 12C23.5 5.64872 18.3513 0.5 12 0.5C5.64873 0.5 0.5 5.64873 0.5 12ZM12 21.5C6.7533 21.5 2.5 17.2467 2.5 12C2.5 6.75329 6.75329 2.5 12 2.5C17.2467 2.5 21.5 6.75329 21.5 12C21.5 17.2467 17.2467 21.5 12 21.5Z" fill="#080809" style="fill:#080809;fill:color(display-p3 0.0314 0.0314 0.0353);fill-opacity:1;"/>
</g>
<defs>
<clipPath id="clip0_29901_26488">
<rect width="24" height="24" fill="white" style="fill:white;fill-opacity:1;"/>
</clipPath>
</defs>
</svg>
