<svg width="24" height="24" viewBox="0 0 24 24" fill="none" xmlns="http://www.w3.org/2000/svg">
<path d="M15.25 10.5C14.8358 10.5 14.5 10.8358 14.5 11.25C14.5 11.6642 14.8358 12 15.25 12H17.75C18.1642 12 18.5 11.6642 18.5 11.25C18.5 10.8358 18.1642 10.5 17.75 10.5H15.25Z" fill="#080809" style="fill:#080809;fill:color(display-p3 0.0314 0.0314 0.0353);fill-opacity:1;"/>
<path fill-rule="evenodd" clip-rule="evenodd" d="M10.6418 3.94C10.2763 3.35524 9.63533 3 8.94575 3H1.90212C0.723972 3 0.00570825 4.29593 0.630127 5.295L2.5 8.2868V18C2.5 19.6569 3.84315 21 5.5 21H18.5C20.1569 21 21.5 19.6569 21.5 18V8.2868L23.3699 5.295C23.9943 4.29593 23.276 3 22.0979 3H15.0542C14.3647 3 13.7237 3.35524 13.3583 3.94L12 6.1132L10.6418 3.94ZM10.1958 7H4.05425L2.80425 5L8.94575 5L10.1958 7ZM4.5 18V9H11V19H5.5C4.94772 19 4.5 18.5523 4.5 18ZM19.5 9H13V19H18.5C19.0523 19 19.5 18.5523 19.5 18V9ZM19.9458 7L21.1958 5L15.0543 5L13.8042 7H19.9458Z" fill="#080809" style="fill:#080809;fill:color(display-p3 0.0314 0.0314 0.0353);fill-opacity:1;"/>
</svg>
