<svg width="24" height="24" viewBox="0 0 24 24" fill="none" xmlns="http://www.w3.org/2000/svg">
<path fill-rule="evenodd" clip-rule="evenodd" d="M14.6888 20.7245L13.146 22.2673C12.6772 22.7362 12.0413 22.9995 11.3782 22.9995H7.62087C6.95783 22.9995 6.32194 22.7362 5.8531 22.2673L1.91376 18.328C0.351665 16.7659 0.351662 14.2332 1.91376 12.6711L11.6711 2.91376C12.4522 2.13265 13.476 1.74213 14.4998 1.74219C15.5235 1.74213 16.5473 2.13265 17.3284 2.91376L22.0858 7.67112C23.6479 9.23322 23.6479 11.7659 22.0858 13.328L14.7071 20.7067C14.7011 20.7127 14.695 20.7186 14.6888 20.7245ZM4.99977 12.4135L3.32797 14.0853C2.54693 14.8664 2.54693 16.1327 3.32797 16.9138L7.26731 20.8531C7.36108 20.9469 7.48826 20.9995 7.62087 20.9995H11.3782C11.5108 20.9995 11.638 20.9469 11.7318 20.8531L12.5856 19.9993L4.99977 12.4135Z" fill="#080809" style="fill:#080809;fill:color(display-p3 0.0314 0.0314 0.0353);fill-opacity:1;"/>
</svg>
