<svg width="24" height="24" viewBox="0 0 24 24" fill="none" xmlns="http://www.w3.org/2000/svg">
<path d="M13 1.5C13 0.947715 12.5523 0.5 12 0.5C11.4477 0.5 11 0.947715 11 1.5V22.5C11 23.0523 11.4477 23.5 12 23.5C12.5523 23.5 13 23.0523 13 22.5V1.5Z" fill="#080809" style="fill:#080809;fill:color(display-p3 0.0314 0.0314 0.0353);fill-opacity:1;"/>
<path d="M1 16.5857C1 18.3676 3.15428 19.2599 4.41421 18L8.64645 13.7677C9.62276 12.7914 9.62276 11.2085 8.64645 10.2322L4.41421 5.99995C3.15428 4.74002 1 5.63236 1 7.41417V16.5857Z" fill="#080809" style="fill:#080809;fill:color(display-p3 0.0314 0.0314 0.0353);fill-opacity:1;"/>
<path fill-rule="evenodd" clip-rule="evenodd" d="M19.5858 18C20.8457 19.2599 23 18.3676 23 16.5857V7.41417C23 5.63236 20.8457 4.74002 19.5858 5.99995L15.3536 10.2322C14.3772 11.2085 14.3772 12.7914 15.3536 13.7677L19.5858 18ZM21 7.41417V16.5857L16.7678 12.3535C16.5725 12.1582 16.5725 11.8417 16.7678 11.6464L21 7.41417Z" fill="#080809" style="fill:#080809;fill:color(display-p3 0.0314 0.0314 0.0353);fill-opacity:1;"/>
</svg>
