<svg width="24" height="24" viewBox="0 0 24 24" fill="none" xmlns="http://www.w3.org/2000/svg">
<path fill-rule="evenodd" clip-rule="evenodd" d="M4 3.5V13H2C1.44772 13 1 13.4477 1 14C1 14.5523 1.44772 15 2 15V21C1.44772 21 1 21.4477 1 22C1 22.5523 1.44772 23 2 23H22C22.5523 23 23 22.5523 23 22C23 21.4477 22.5523 21 22 21V15C22.5523 15 23 14.5523 23 14C23 13.4477 22.5523 13 22 13H20V3.5C20 2.11929 18.8807 1 17.5 1H6.5C5.11929 1 4 2.11929 4 3.5ZM6.5 3C6.22386 3 6 3.22386 6 3.5V13H11V3H6.5ZM20 21V15H16.5V21H20ZM14.5 21V15H9.5V21H14.5ZM7.5 21V15H4V21H7.5ZM18 3.5V13H13V3H17.5C17.7761 3 18 3.22386 18 3.5Z" fill="#080809" style="fill:#080809;fill:color(display-p3 0.0314 0.0314 0.0353);fill-opacity:1;"/>
</svg>
