<svg width="24" height="24" viewBox="0 0 24 24" fill="none" xmlns="http://www.w3.org/2000/svg">
<path fill-rule="evenodd" clip-rule="evenodd" d="M4.89323 1C3.76782 1 2.78113 1.75198 2.48272 2.83711L0.557717 9.83711C0.211873 11.0947 0.887057 12.3397 2 12.8068L2 16.0706C1.99997 17.4247 1.99994 18.5413 2.11876 19.425C2.2435 20.3529 2.51547 21.1723 3.17158 21.8284C3.82769 22.4845 4.64711 22.7565 5.57494 22.8812C6.4587 23 7.57531 23 8.92943 23H8.99483C8.99655 23 8.99828 23 9 23H15C15.0017 23 15.0035 23 15.0052 23H15.0706C16.4247 23 17.5413 23 18.4251 22.8812C19.3529 22.7565 20.1723 22.4845 20.8284 21.8284C21.4845 21.1723 21.7565 20.3529 21.8813 19.425C22.0001 18.5413 22 17.4247 22 16.0707V12.8068C23.113 12.3398 23.7882 11.0948 23.4424 9.83711L21.5174 2.83711C21.219 1.75198 20.2323 1 19.1069 1H4.89323ZM16 20.9981C16.9183 20.9929 17.6077 20.9731 18.1586 20.8991C18.8646 20.8041 19.1916 20.6368 19.4142 20.4142C19.6368 20.1916 19.8042 19.8646 19.8991 19.1586C19.9979 18.4237 20 17.4425 20 16V13H4V16C4 17.4425 4.00213 18.4237 4.10092 19.1586C4.19585 19.8646 4.36322 20.1916 4.58579 20.4142C4.80836 20.6368 5.13538 20.8041 5.84144 20.8991C6.3923 20.9731 7.08166 20.9929 8 20.9981V17.5C8 16.1193 9.11929 15 10.5 15H13.5C14.8807 15 16 16.1193 16 17.5V20.9981ZM14 21H10V17.5C10 17.2239 10.2239 17 10.5 17H13.5C13.7761 17 14 17.2239 14 17.5V21ZM4.41113 3.36742C4.47081 3.1504 4.66815 3 4.89323 3H8V6H3.68717L4.41113 3.36742ZM10 6H20.3129L19.589 3.36742C19.5293 3.1504 19.3319 3 19.1069 3H10V6ZM14 8V11H2.96823C2.6381 11 2.39859 10.6857 2.48613 10.3674L3.13717 8H14ZM16 8V11H21.0319C21.362 11 21.6015 10.6857 21.514 10.3674L20.8629 8H16Z" fill="#080809" style="fill:#080809;fill:color(display-p3 0.0314 0.0314 0.0353);fill-opacity:1;"/>
</svg>
