<svg width="24" height="24" viewBox="0 0 24 24" fill="none" xmlns="http://www.w3.org/2000/svg">
<g clip-path="url(#clip0_29901_26676)">
<path fill-rule="evenodd" clip-rule="evenodd" d="M22.5817 1.41742C21.1627 -0.00158197 18.8115 0.183154 17.6315 1.80636L15.5432 4.6792L14.6031 3.73914C13.041 2.17704 10.5083 2.17704 8.94624 3.73914L7.17847 5.50691L7.17437 5.51103L0.917996 11.7674C0.527472 12.1579 0.527472 12.7911 0.917997 13.1816L2.19485 14.4585C2.79378 15.0574 3.59209 15.3555 4.3896 15.3363C4.35869 16.1208 4.6463 16.9099 5.23551 17.4991C5.75251 18.0161 6.42248 18.3003 7.10767 18.3419C7.15919 19.0379 7.45255 19.7162 7.97817 20.2418L10.8175 23.0811C11.208 23.4716 11.8412 23.4716 12.2317 23.0811L18.4921 16.8207L18.4961 16.8167L20.2599 15.0528C21.822 13.4907 21.822 10.9581 20.2599 9.39599L19.3199 8.45592L22.1927 6.36754C23.8159 5.18757 24.0006 2.83641 22.5817 1.41742ZM19.2493 2.98235C19.7065 2.35335 20.6176 2.28177 21.1674 2.83163C21.7173 3.3815 21.6457 4.29257 21.0167 4.74981L17.6705 7.18233C16.9248 7.72438 16.84 8.80444 17.4918 9.45629L18.8457 10.8102C19.6268 11.5913 19.6268 12.8576 18.8457 13.6386L17.7851 14.6993L9.29979 6.21401L10.3605 5.15335C11.1415 4.3723 12.4078 4.3723 13.1889 5.15335L14.5428 6.50727C15.1946 7.15912 16.2747 7.07426 16.8168 6.3286L19.2493 2.98235ZM11.5246 20.9598L16.3708 16.1136L7.88551 7.62832L3.03932 12.4745L3.60907 13.0443C3.95473 13.3899 4.49963 13.435 4.89741 13.1509L5.99361 12.3679C6.3914 12.0838 6.9363 12.1289 7.28196 12.4745C7.62762 12.8202 7.67272 13.3651 7.38858 13.7629L6.55422 14.931C6.29973 15.2873 6.34012 15.7753 6.64972 16.0849C6.96491 16.4001 7.46388 16.4356 7.82047 16.1681L7.91939 16.0939C8.31751 15.7953 8.87461 15.8349 9.2265 16.1868C9.57839 16.5387 9.61798 17.0958 9.3194 17.4939L9.29949 17.5205C9.0009 17.9186 9.04049 18.4757 9.39238 18.8276L11.5246 20.9598Z" fill="#080809" style="fill:#080809;fill:color(display-p3 0.0314 0.0314 0.0353);fill-opacity:1;"/>
</g>
<defs>
<clipPath id="clip0_29901_26676">
<rect width="24" height="24" fill="white" style="fill:white;fill-opacity:1;"/>
</clipPath>
</defs>
</svg>
