<svg width="24" height="24" viewBox="0 0 24 24" fill="none" xmlns="http://www.w3.org/2000/svg">
<path fill-rule="evenodd" clip-rule="evenodd" d="M14.1597 0.838154C12.7795 0.246657 11.2172 0.246657 9.83706 0.838154C8.97589 1.20723 8.00242 1.21418 7.13606 0.857446L6.84482 0.737523C3.7518 -0.536072 0.735111 2.70942 2.23103 5.70124L3.01889 7.27697C3.2676 7.77439 3.29796 8.35291 3.10269 8.87364L2.45705 10.5954C2.11747 11.5009 2.11747 12.4988 2.45705 13.4043L3.10269 15.1261C3.29796 15.6468 3.2676 16.2253 3.01889 16.7227L2.23102 18.2985C0.735109 21.2903 3.75181 24.5358 6.84482 23.2622L7.13606 23.1423C8.00242 22.7855 8.97589 22.7925 9.83706 23.1615C11.2172 23.753 12.7795 23.753 14.1597 23.1615C15.0208 22.7925 15.9943 22.7855 16.8607 23.1423L17.1519 23.2622C20.2449 24.5358 23.2616 21.2903 21.7657 18.2985L20.9778 16.7227C20.7291 16.2253 20.6988 15.6468 20.894 15.1261L21.5397 13.4043C21.8793 12.4988 21.8793 11.5009 21.5397 10.5954L20.894 8.87364C20.6988 8.35291 20.7291 7.77439 20.9778 7.27697L21.7657 5.70124C23.2616 2.70941 20.2449 -0.536071 17.1519 0.737523L16.8607 0.857446C15.9943 1.21418 15.0208 1.20723 14.1597 0.838154ZM8.99854 4.49988C7.61782 4.49988 6.49854 5.61917 6.49854 6.99988V16.9999C6.49854 18.3806 7.61782 19.4999 8.99854 19.4999H14.9985C16.3792 19.4999 17.4985 18.3806 17.4985 16.9999V6.99988C17.4985 5.61917 16.3792 4.49988 14.9985 4.49988H8.99854Z" fill="#080809" style="fill:#080809;fill:color(display-p3 0.0314 0.0314 0.0353);fill-opacity:1;"/>
</svg>
