<svg width="24" height="24" viewBox="0 0 24 24" fill="none" xmlns="http://www.w3.org/2000/svg">
<path d="M6.2929 5.29281C5.90237 5.68334 5.90237 6.3165 6.29289 6.70703C6.68341 7.09755 7.31658 7.09756 7.70711 6.70703C8.26577 6.14837 8.8215 5.59096 9.3766 5.03416L9.37742 5.03334C9.91815 4.49096 10.4583 3.94916 11 3.40739L11 14.9999C11 15.5522 11.4477 15.9999 12 15.9999C12.5523 15.9999 13 15.5522 13 14.9999L13 3.41281C13.5392 3.95206 14.0781 4.4913 14.6172 5.03065C15.1755 5.58928 15.7339 6.14803 16.2929 6.70703C16.6834 7.09755 17.3166 7.09755 17.7071 6.70702C18.0976 6.3165 18.0976 5.68333 17.7071 5.29281C17.1491 4.73483 16.5909 4.17625 16.0325 3.61755L16.0277 3.61278C15.2727 2.85734 14.5175 2.10167 13.7624 1.34694C12.7897 0.374697 11.212 0.370328 10.2359 1.34378C9.47599 2.10174 8.71559 2.86445 7.95636 3.62598C7.40103 4.183 6.84632 4.73939 6.2929 5.29281Z" fill="#080809" style="fill:#080809;fill:color(display-p3 0.0314 0.0314 0.0353);fill-opacity:1;"/>
<path d="M7.99514 10.4013C8.04955 10.9509 7.64811 11.4406 7.09851 11.495C6.21224 11.5827 5.83581 11.763 5.58804 12.0124C5.36433 12.2375 5.19621 12.5687 5.10103 13.2811C5.0021 14.0217 5 15.0102 5 16.4615V16.9647C5 18.1681 5.00147 18.9875 5.07128 19.6106C5.13888 20.2141 5.2599 20.5087 5.41516 20.7123C5.52187 20.8522 5.6462 20.9773 5.78492 21.0845C5.9856 21.2394 6.27562 21.3604 6.87297 21.4282C7.4909 21.4983 8.30381 21.4998 9.5 21.4998H14.5C15.6962 21.4998 16.5091 21.4983 17.127 21.4282C17.7244 21.3604 18.0144 21.2394 18.2151 21.0845C18.3538 20.9773 18.4781 20.8522 18.5848 20.7123C18.7401 20.5087 18.8611 20.2141 18.9287 19.6106C18.9985 18.9875 19 18.1681 19 16.9647V16.4615C19 15.0102 18.9979 14.0217 18.899 13.2811C18.8038 12.5687 18.6357 12.2375 18.412 12.0124C18.1642 11.763 17.7878 11.5827 16.9015 11.495C16.3519 11.4406 15.9505 10.9509 16.0049 10.4013C16.0593 9.85172 16.5489 9.45029 17.0985 9.50469C18.1624 9.61001 19.0987 9.86598 19.8307 10.6027C20.4857 11.2618 20.7569 12.0844 20.8814 13.0163C21.0001 13.9048 21 15.0278 21 16.3912V17.0226C21 18.1536 21 19.0856 20.9163 19.8333C20.8289 20.6134 20.64 21.3155 20.1753 21.9249C19.9628 22.2036 19.7148 22.4533 19.4375 22.6674C18.8302 23.1363 18.1299 23.3273 17.3525 23.4155C16.6085 23.4999 15.6816 23.4999 14.5585 23.4998H9.44158C8.31857 23.4999 7.39147 23.4999 6.64751 23.4155C5.8701 23.3273 5.16976 23.1363 4.56252 22.6674C4.28524 22.4533 4.03722 22.2036 3.82473 21.9249C3.36005 21.3155 3.1711 20.6134 3.08371 19.8333C2.99996 19.0856 2.99998 18.1537 3 17.0226V16.3913C2.99997 15.0279 2.99994 13.9048 3.11864 13.0163C3.24314 12.0844 3.51435 11.2618 4.16933 10.6027C4.90133 9.86598 5.8376 9.61001 6.9015 9.50469C7.45109 9.45029 7.94074 9.85172 7.99514 10.4013Z" fill="#080809" style="fill:#080809;fill:color(display-p3 0.0314 0.0314 0.0353);fill-opacity:1;"/>
</svg>
