<svg width="24" height="24" viewBox="0 0 24 24" fill="none" xmlns="http://www.w3.org/2000/svg">
<path d="M7.61328 13C8.06815 15.0038 9.85855 16.5 12 16.5C14.1415 16.5 15.9318 15.0038 16.3867 13H23.5V17C23.5 18.6569 22.1569 20 20.5 20H3.5C1.84315 20 0.5 18.6569 0.5 17V13H7.61328Z" fill="#080809" style="fill:#080809;fill:color(display-p3 0.0314 0.0314 0.0353);fill-opacity:1;"/>
<path d="M12 9.5C13.3807 9.5 14.5 10.6193 14.5 12C14.5 13.3807 13.3807 14.5 12 14.5C10.6193 14.5 9.5 13.3807 9.5 12C9.5 10.6193 10.6193 9.5 12 9.5Z" fill="#080809" style="fill:#080809;fill:color(display-p3 0.0314 0.0314 0.0353);fill-opacity:1;"/>
<path d="M20.5 4C22.1569 4 23.5 5.34314 23.5 7V11H16.3867C15.9318 8.9962 14.1415 7.5 12 7.5C9.85855 7.5 8.06815 8.9962 7.61328 11H0.5V7C0.5 5.34314 1.84315 4 3.5 4H20.5Z" fill="#080809" style="fill:#080809;fill:color(display-p3 0.0314 0.0314 0.0353);fill-opacity:1;"/>
</svg>
