<svg width="24" height="24" viewBox="0 0 24 24" fill="none" xmlns="http://www.w3.org/2000/svg">
<path fill-rule="evenodd" clip-rule="evenodd" d="M11.6838 0.551317C11.889 0.482894 12.111 0.482894 12.3162 0.551317L21.3162 3.55132C21.7246 3.68743 22 4.06957 22 4.5V13.5C22 19.0228 17.5228 23.5 12 23.5C6.47715 23.5 2 19.0228 2 13.5V4.5C2 4.06957 2.27543 3.68743 2.68377 3.55132L11.6838 0.551317ZM16.7071 10.7071C17.0976 10.3166 17.0976 9.68342 16.7071 9.29289C16.3166 8.90237 15.6834 8.90237 15.2929 9.29289L11.3536 13.2322C11.1583 13.4275 10.8417 13.4275 10.6464 13.2322L8.70711 11.2929C8.31658 10.9024 7.68342 10.9024 7.29289 11.2929C6.90237 11.6834 6.90237 12.3166 7.29289 12.7071L9.23223 14.6464C10.2085 15.6228 11.7915 15.6228 12.7678 14.6464L16.7071 10.7071Z" fill="#080809" style="fill:#080809;fill:color(display-p3 0.0314 0.0314 0.0353);fill-opacity:1;"/>
</svg>
