<svg width="24" height="24" viewBox="0 0 24 24" fill="none" xmlns="http://www.w3.org/2000/svg">
<path d="M14 4.6222C14 2.39493 11.3071 1.27952 9.73223 2.85443L5.58716 6.99951H3.5C1.84315 6.99951 0.5 8.34265 0.5 9.99951V13.9995C0.5 15.6564 1.84315 16.9995 3.5 16.9995H5.58441L9.73223 21.1473C11.3071 22.7222 14 21.6068 14 19.3796V19.0001C14 18.4478 13.5523 18.0001 13 18.0001C12.4477 18.0001 12 18.4478 12 19.0001V19.3796C12 19.825 11.4614 20.0481 11.1464 19.7331L6.70573 15.2924C6.5182 15.1049 6.26384 14.9995 5.99863 14.9995H3.5C2.94772 14.9995 2.5 14.5518 2.5 13.9995V9.99951C2.5 9.44722 2.94772 8.99951 3.5 8.99951H6.00137C6.26659 8.99951 6.52094 8.89415 6.70848 8.70661L11.1464 4.26865C11.4614 3.95366 12 4.17675 12 4.6222V13.0009C12 13.5532 12.4477 14.0009 13 14.0009C13.5523 14.0009 14 13.5532 14 13.0009V4.6222Z" fill="#080809" style="fill:#080809;fill:color(display-p3 0.0314 0.0314 0.0353);fill-opacity:1;"/>
<path d="M19.5 4C19.9184 4 20.2926 4.26053 20.4379 4.65296L21.2236 6.7764L23.347 7.56215C23.7395 7.70736 24 8.08156 24 8.5C24 8.91844 23.7395 9.29264 23.347 9.43785L21.2236 10.2236L20.4379 12.347C20.2926 12.7395 19.9184 13 19.5 13C19.0816 13 18.7074 12.7395 18.5621 12.347L17.7764 10.2236L15.653 9.43785C15.2605 9.29264 15 8.91844 15 8.5C15 8.08156 15.2605 7.70736 15.653 7.56215L17.7764 6.7764L18.5621 4.65296C18.7074 4.26053 19.0816 4 19.5 4Z" fill="#080809" style="fill:#080809;fill:color(display-p3 0.0314 0.0314 0.0353);fill-opacity:1;"/>
<path d="M16.5862 13.7831C16.4954 13.5378 16.2615 13.375 16 13.375C15.7385 13.375 15.5046 13.5378 15.4138 13.7831L14.9734 14.9734L13.7831 15.4138C13.5378 15.5046 13.375 15.7385 13.375 16C13.375 16.2615 13.5378 16.4954 13.7831 16.5862L14.9734 17.0266L15.4138 18.2169C15.5046 18.4622 15.7385 18.625 16 18.625C16.2615 18.625 16.4954 18.4622 16.5862 18.2169L17.0266 17.0266L18.2169 16.5862C18.4622 16.4954 18.625 16.2615 18.625 16C18.625 15.7385 18.4622 15.5046 18.2169 15.4138L17.0266 14.9734L16.5862 13.7831Z" fill="#080809" style="fill:#080809;fill:color(display-p3 0.0314 0.0314 0.0353);fill-opacity:1;"/>
</svg>
