<svg width="24" height="24" viewBox="0 0 24 24" fill="none" xmlns="http://www.w3.org/2000/svg">
<g clip-path="url(#clip0_29901_26357)">
<path fill-rule="evenodd" clip-rule="evenodd" d="M21.7847 11C21.6501 10.5904 21.4021 10.1491 20.9876 9.60919C20.6513 9.17112 20.7338 8.54335 21.1719 8.20704C21.61 7.87072 22.2377 7.95322 22.574 8.39129C23.2782 9.30845 23.7486 10.2033 23.8809 11.2411C23.9452 11.7451 23.9452 12.2553 23.8809 12.7593C23.7403 13.8622 23.2177 14.8038 22.439 15.7818C21.6811 16.7336 20.6048 17.8098 19.2511 19.1635L19.1635 19.2511C17.8098 20.6048 16.7336 21.6811 15.7818 22.439C14.8038 23.2177 13.8622 23.7403 12.7593 23.8809C12.2553 23.9452 11.7451 23.9452 11.2411 23.8809C10.1382 23.7403 9.19659 23.2177 8.21859 22.439C7.26688 21.6811 6.1906 20.6048 4.83691 19.2511L4.74928 19.1635C3.39562 17.8099 2.31928 16.7335 1.56147 15.7818C0.782712 14.8038 0.260174 13.8622 0.119505 12.7593C0.0552172 12.2553 0.0552172 11.7451 0.119505 11.2411C0.260174 10.1382 0.782712 9.19659 1.56147 8.21859C2.31929 7.2669 3.39558 6.19063 4.74926 4.83697L4.83695 4.74928C6.19062 3.39558 7.26689 2.31929 8.21859 1.56147C9.19659 0.782712 10.1382 0.260174 11.2411 0.119505C11.7451 0.0552172 12.2553 0.0552172 12.7593 0.119505C13.7971 0.25186 14.6919 0.722213 15.6089 1.42623C16.047 1.76253 16.1295 2.3903 15.7932 2.82838C15.4569 3.26646 14.8292 3.34897 14.3911 3.01267C13.8511 2.59815 13.4097 2.35018 13 2.2156V5.58579L18.4142 11H21.7847ZM11 2.21574C10.5545 2.36217 10.0714 2.64273 9.46443 3.12605C8.61182 3.80497 7.61474 4.79991 6.20733 6.20733C4.79991 7.61474 3.80497 8.61182 3.12605 9.46443C2.64273 10.0714 2.36217 10.5545 2.21574 11H5.58579L11 5.58579V2.21574ZM2.2156 13C2.36199 13.4456 2.64257 13.9288 3.12605 14.536C3.80497 15.3886 4.79991 16.3857 6.20733 17.7931C7.61474 19.2005 8.61182 20.1955 9.46443 20.8744C10.0714 21.3577 10.5545 21.6383 11 21.7847V18.4142L5.58579 13H2.2156ZM13 21.7848C13.4456 21.6385 13.9288 21.3579 14.536 20.8744C15.3886 20.1955 16.3857 19.2005 17.7931 17.7931C19.2005 16.3857 20.1955 15.3886 20.8744 14.536C21.3579 13.9288 21.6385 13.4456 21.7848 13H18.4142L13 18.4142V21.7848ZM12 16.5858L7.41421 12L12 7.41421L16.5858 12L12 16.5858Z" fill="#080809" style="fill:#080809;fill:color(display-p3 0.0314 0.0314 0.0353);fill-opacity:1;"/>
<path d="M20.9379 1.15296C20.7926 0.760528 20.4184 0.5 20 0.5C19.5816 0.5 19.2074 0.760528 19.0621 1.15296L18.5465 2.5465L17.153 3.06215C16.7605 3.20736 16.5 3.58156 16.5 4C16.5 4.41844 16.7605 4.79264 17.153 4.93785L18.5465 5.4535L19.0621 6.84704C19.2074 7.23947 19.5816 7.5 20 7.5C20.4184 7.5 20.7926 7.23947 20.9379 6.84704L21.4535 5.4535L22.847 4.93785C23.2395 4.79264 23.5 4.41844 23.5 4C23.5 3.58156 23.2395 3.20736 22.847 3.06215L21.4535 2.5465L20.9379 1.15296Z" fill="#080809" style="fill:#080809;fill:color(display-p3 0.0314 0.0314 0.0353);fill-opacity:1;"/>
<path d="M3.45339 19.4897C3.34448 19.1954 3.06383 19 2.75 19C2.43617 19 2.15552 19.1954 2.04661 19.4897L1.76116 20.2612L0.989723 20.5466C0.695396 20.6555 0.5 20.9362 0.5 21.25C0.5 21.5638 0.695396 21.8445 0.989723 21.9534L1.76116 22.2388L2.04661 23.0103C2.15552 23.3046 2.43617 23.5 2.75 23.5C3.06383 23.5 3.34448 23.3046 3.45339 23.0103L3.73884 22.2388L4.51028 21.9534C4.8046 21.8445 5 21.5638 5 21.25C5 20.9362 4.8046 20.6555 4.51028 20.5466L3.73884 20.2612L3.45339 19.4897Z" fill="#080809" style="fill:#080809;fill:color(display-p3 0.0314 0.0314 0.0353);fill-opacity:1;"/>
</g>
<defs>
<clipPath id="clip0_29901_26357">
<rect width="24" height="24" fill="white" style="fill:white;fill-opacity:1;"/>
</clipPath>
</defs>
</svg>
