<svg width="24" height="24" viewBox="0 0 24 24" fill="none" xmlns="http://www.w3.org/2000/svg">
<path d="M16.9999 7.25049C17.6902 7.25057 18.2499 7.81018 18.2499 8.50049V17.9829L20.1161 16.1167C20.6043 15.6286 21.3955 15.6286 21.8837 16.1167C22.3718 16.6048 22.3718 17.3961 21.8837 17.8843L18.9442 20.8237C17.8703 21.8975 16.1295 21.8975 15.0555 20.8237L12.1161 17.8843L12.0302 17.7896C11.6297 17.2986 11.6584 16.5744 12.1161 16.1167C12.5738 15.6591 13.298 15.6303 13.7889 16.0308L13.8837 16.1167L15.7499 17.9829V8.50049C15.7499 7.81013 16.3095 7.25049 16.9999 7.25049Z" fill="#080809" style="fill:#080809;fill:color(display-p3 0.0314 0.0314 0.0353);fill-opacity:1;"/>
<path d="M6.99988 18.7505C7.69017 18.7506 8.24988 19.3102 8.24988 20.0005C8.24971 20.6906 7.69006 21.2504 6.99988 21.2505C6.30963 21.2505 5.75006 20.6907 5.74988 20.0005C5.74988 19.3101 6.30953 18.7505 6.99988 18.7505Z" fill="#080809" style="fill:#080809;fill:color(display-p3 0.0314 0.0314 0.0353);fill-opacity:1;"/>
<path d="M5.05555 3.17627C6.12947 2.10278 7.8704 2.10262 8.94422 3.17627L11.8837 6.11572L11.9696 6.21045C12.37 6.70131 12.3411 7.42562 11.8837 7.8833C11.426 8.34096 10.7018 8.36972 10.2108 7.96924L10.1161 7.8833L8.24988 6.01709V15.5005C8.24971 16.1906 7.69006 16.7504 6.99988 16.7505C6.30963 16.7505 5.75006 16.1907 5.74988 15.5005V6.01709L3.88367 7.8833C3.39552 8.37146 2.60425 8.37146 2.11609 7.8833C1.62798 7.39514 1.62795 6.60386 2.11609 6.11572L5.05555 3.17627Z" fill="#080809" style="fill:#080809;fill:color(display-p3 0.0314 0.0314 0.0353);fill-opacity:1;"/>
<path d="M16.9999 2.75244C17.6902 2.75252 18.2499 3.31214 18.2499 4.00244C18.2497 4.6926 17.6901 5.25236 16.9999 5.25244C16.3096 5.25244 15.7501 4.69265 15.7499 4.00244C15.7499 3.31209 16.3095 2.75244 16.9999 2.75244Z" fill="#080809" style="fill:#080809;fill:color(display-p3 0.0314 0.0314 0.0353);fill-opacity:1;"/>
</svg>
