<svg width="24" height="24" viewBox="0 0 24 24" fill="none" xmlns="http://www.w3.org/2000/svg">
<path d="M15.4985 6.75C14.532 6.75 13.7485 7.5335 13.7485 8.5C13.7485 9.4665 14.532 10.25 15.4985 10.25C16.465 10.25 17.2485 9.4665 17.2485 8.5C17.2485 7.5335 16.465 6.75 15.4985 6.75Z" fill="#080809" style="fill:#080809;fill:color(display-p3 0.0314 0.0314 0.0353);fill-opacity:1;"/>
<path fill-rule="evenodd" clip-rule="evenodd" d="M14.4451 0.5C13.8199 0.5 13.2602 0.88786 13.0406 1.47332L12.6843 2.42362C12.5177 2.86771 12.0622 3.13373 11.5936 3.06051L10.7317 2.92584C10.1344 2.83252 9.53946 3.10686 9.22262 3.62171L8.17418 5.32544C7.85303 5.8473 7.88159 6.51204 8.24633 7.00443L8.9291 7.92616C9.18722 8.27463 9.19133 8.74975 8.93927 9.10263L8.2315 10.0935C7.87522 10.5923 7.85827 11.2577 8.18869 11.774L9.23045 13.4017C9.55113 13.9028 10.1376 14.167 10.7254 14.0751L11.5936 13.9395C12.0622 13.8663 12.5177 14.1323 12.6843 14.5764L13.0406 15.5267C13.2602 16.1121 13.8199 16.5 14.4451 16.5H16.5521C17.1774 16.5 17.7371 16.1121 17.9566 15.5267L18.3307 14.5292C18.4932 14.0959 18.9318 13.8307 19.391 13.8881L20.318 14.0039C20.8817 14.0744 21.4369 13.8203 21.7521 13.3476L22.7892 11.7918C23.1349 11.2733 23.124 10.5951 22.7618 10.0879L22.0427 9.08124C21.7943 8.73354 21.7943 8.26646 22.0427 7.91876L22.7618 6.91206C23.124 6.40495 23.1349 5.72669 22.7892 5.20816L21.7521 3.65241C21.4369 3.17968 20.8817 2.92558 20.318 2.99605L19.391 3.11192C18.9318 3.16932 18.4932 2.90411 18.3307 2.47076L17.9566 1.47332C17.7371 0.887859 17.1774 0.5 16.5521 0.5H14.4451ZM11.7485 8.5C11.7485 6.42893 13.4275 4.75 15.4985 4.75C17.5696 4.75 19.2485 6.42893 19.2485 8.5C19.2485 10.5711 17.5696 12.25 15.4985 12.25C13.4275 12.25 11.7485 10.5711 11.7485 8.5Z" fill="#080809" style="fill:#080809;fill:color(display-p3 0.0314 0.0314 0.0353);fill-opacity:1;"/>
<path fill-rule="evenodd" clip-rule="evenodd" d="M5.13456 15.1374L5.43942 14.3244C5.51261 14.1293 5.69917 14 5.90759 14H7.11463C7.32305 14 7.50961 14.1293 7.58279 14.3244L7.89649 15.161C8.05899 15.5943 8.49762 15.8595 8.95685 15.8021L9.76705 15.7008C9.95497 15.6773 10.14 15.762 10.2451 15.9196L10.8323 16.8004C10.9475 16.9732 10.9438 17.1993 10.8231 17.3683L10.2514 18.1688C10.003 18.5165 10.003 18.9835 10.2514 19.3312L10.8231 20.1317C10.9438 20.3007 10.9475 20.5268 10.8323 20.6996L10.2451 21.5804C10.14 21.738 9.95497 21.8227 9.76705 21.7992L8.95685 21.6979C8.49762 21.6405 8.05899 21.9057 7.89649 22.339L7.58279 23.1756C7.50961 23.3707 7.32305 23.5 7.11463 23.5H5.90759C5.69917 23.5 5.51261 23.3707 5.43942 23.1756L5.13456 22.3626C4.96803 21.9185 4.51246 21.6525 4.04386 21.7257L3.27095 21.8465C3.07503 21.8771 2.87953 21.789 2.77263 21.622L2.18086 20.6974C2.07072 20.5253 2.07637 20.3035 2.19513 20.1372L2.76322 19.3419C3.01528 18.9891 3.01117 18.5139 2.75305 18.1655L2.19979 17.4186C2.07821 17.2544 2.06868 17.0329 2.17574 16.8589L2.77419 15.8864C2.87981 15.7148 3.07812 15.6234 3.27721 15.6545L4.04386 15.7743C4.51246 15.8475 4.96803 15.5815 5.13456 15.1374ZM8.26122 18.75C8.26122 19.7165 7.47772 20.5 6.51122 20.5C5.54472 20.5 4.76122 19.7165 4.76122 18.75C4.76122 17.7835 5.54472 17 6.51122 17C7.47772 17 8.26122 17.7835 8.26122 18.75Z" fill="#080809" style="fill:#080809;fill:color(display-p3 0.0314 0.0314 0.0353);fill-opacity:1;"/>
</svg>
