<svg width="24" height="24" viewBox="0 0 24 24" fill="none" xmlns="http://www.w3.org/2000/svg">
<path d="M16.4961 1C14.287 1 12.4961 2.79086 12.4961 5C12.4961 7.20914 14.287 9 16.4961 9C18.7052 9 20.4961 7.20914 20.4961 5C20.4961 2.79086 18.7052 1 16.4961 1Z" fill="#080809" style="fill:#080809;fill:color(display-p3 0.0314 0.0314 0.0353);fill-opacity:1;"/>
<path fill-rule="evenodd" clip-rule="evenodd" d="M7.49609 5.5C5.28695 5.5 3.49609 7.29086 3.49609 9.5C3.49609 11.7091 5.28695 13.5 7.49609 13.5C9.70523 13.5 11.4961 11.7091 11.4961 9.5C11.4961 7.29086 9.70523 5.5 7.49609 5.5ZM5.49609 9.5C5.49609 8.39543 6.39152 7.5 7.49609 7.5C8.60066 7.5 9.49609 8.39543 9.49609 9.5C9.49609 10.6046 8.60066 11.5 7.49609 11.5C6.39152 11.5 5.49609 10.6046 5.49609 9.5Z" fill="#080809" style="fill:#080809;fill:color(display-p3 0.0314 0.0314 0.0353);fill-opacity:1;"/>
<path fill-rule="evenodd" clip-rule="evenodd" d="M5.5 15C2.73858 15 0.5 17.2386 0.5 20C0.5 21.6569 1.84315 23 3.5 23H11.506C13.1629 23 14.506 21.6569 14.506 20C14.506 17.2386 12.2674 15 9.506 15H5.5ZM2.5 20C2.5 18.3431 3.84315 17 5.5 17H9.506C11.1629 17 12.506 18.3431 12.506 20C12.506 20.5523 12.0583 21 11.506 21H3.5C2.94772 21 2.5 20.5523 2.5 20Z" fill="#080809" style="fill:#080809;fill:color(display-p3 0.0314 0.0314 0.0353);fill-opacity:1;"/>
<path d="M14.4999 10.5C13.829 10.5 13.342 10.9605 13.1667 11.4662C13.0811 11.7132 12.9797 11.9529 12.8638 12.1841C12.5157 12.8788 12.7332 13.7367 13.3887 14.1746C14.5917 14.9782 15.5313 16.1442 16.0519 17.514C16.2667 18.0792 16.8122 18.5 17.4695 18.5H20.5059C22.1628 18.5 23.5059 17.1569 23.5059 15.5C23.5059 12.7386 21.2673 10.5 18.5059 10.5H14.4999Z" fill="#080809" style="fill:#080809;fill:color(display-p3 0.0314 0.0314 0.0353);fill-opacity:1;"/>
</svg>
