<svg width="24" height="24" viewBox="0 0 24 24" fill="none" xmlns="http://www.w3.org/2000/svg">
<path d="M14.9704 4.24277C15.1043 3.70698 14.7786 3.16404 14.2428 3.03009C13.707 2.89615 13.164 3.22191 13.0301 3.7577L9.0301 19.7577C8.89615 20.2935 9.22191 20.8364 9.75771 20.9704C10.2935 21.1043 10.8364 20.7786 10.9704 20.2428L14.9704 4.24277Z" fill="#080809" style="fill:#080809;fill:color(display-p3 0.0314 0.0314 0.0353);fill-opacity:1;"/>
<path d="M6.70711 6.29314C6.31659 5.90261 5.68342 5.90261 5.2929 6.29314L1.35357 10.2325C0.37726 11.2088 0.377262 12.7917 1.35357 13.768L5.2929 17.7073C5.68342 18.0979 6.31659 18.0979 6.70711 17.7074C7.09764 17.3168 7.09764 16.6837 6.70711 16.2931L2.76778 12.3538C2.57252 12.1585 2.57252 11.842 2.76778 11.6467L6.70711 7.70735C7.09764 7.31682 7.09764 6.68366 6.70711 6.29314Z" fill="#080809" style="fill:#080809;fill:color(display-p3 0.0314 0.0314 0.0353);fill-opacity:1;"/>
<path d="M17.2924 6.29314C17.6829 5.90261 18.3161 5.90261 18.7066 6.29314L22.646 10.2325C23.6223 11.2088 23.6223 12.7917 22.646 13.768L18.7066 17.7073C18.3161 18.0979 17.6829 18.0979 17.2924 17.7074C16.9019 17.3168 16.9019 16.6837 17.2924 16.2931L21.2317 12.3538C21.427 12.1585 21.427 11.842 21.2317 11.6467L17.2924 7.70735C16.9019 7.31682 16.9019 6.68366 17.2924 6.29314Z" fill="#080809" style="fill:#080809;fill:color(display-p3 0.0314 0.0314 0.0353);fill-opacity:1;"/>
</svg>
