<svg width="24" height="24" viewBox="0 0 24 24" fill="none" xmlns="http://www.w3.org/2000/svg">
<path d="M2.70711 1.29289C2.31658 0.902369 1.68342 0.902369 1.29289 1.29289C0.902369 1.68342 0.902369 2.31658 1.29289 2.70711L6.93856 8.35278L6.92787 8.36721L15.8471 17.2864L15.8578 17.272L21.2929 22.7071C21.6834 23.0976 22.3166 23.0976 22.7071 22.7071C23.0976 22.3166 23.0976 21.6834 22.7071 21.2929L17.0614 15.6472L20.1241 11.5125C20.894 10.4731 20.152 9.00005 18.8585 9.00005H13.6702L14.622 2.97213C14.8789 1.34502 12.7812 0.465354 11.8007 1.789L8.14216 6.72794L2.70711 1.29289Z" fill="#080809" style="fill:#080809;fill:color(display-p3 0.0314 0.0314 0.0353);fill-opacity:1;"/>
<path d="M3.87572 12.4876L6.02517 9.58583L14.9444 18.5051L12.1992 22.2111C11.2187 23.5348 9.12096 22.6551 9.37785 21.028L10.3295 15.0001H5.14131C3.84775 15.0001 3.10575 13.527 3.87572 12.4876Z" fill="#080809" style="fill:#080809;fill:color(display-p3 0.0314 0.0314 0.0353);fill-opacity:1;"/>
</svg>
