<svg width="24" height="24" viewBox="0 0 24 24" fill="none" xmlns="http://www.w3.org/2000/svg">
<path d="M2.20015 9.00195C7.64149 3.66609 16.3584 3.66602 21.7999 9.00172C22.1942 9.3884 22.8273 9.38219 23.214 8.98785C23.6007 8.59352 23.5945 7.96038 23.2001 7.57371C16.9809 1.47535 7.01893 1.47543 0.799848 7.57396C0.40552 7.96065 0.399324 8.59378 0.786007 8.98811C1.17269 9.38244 1.80583 9.38863 2.20015 9.00195Z" fill="#080809" style="fill:#080809;fill:color(display-p3 0.0314 0.0314 0.0353);fill-opacity:1;"/>
<path d="M16.8122 13.9162C14.116 11.3612 9.88395 11.3613 7.18788 13.9164C6.78702 14.2963 6.15408 14.2793 5.77418 13.8784C5.39427 13.4776 5.41126 12.8446 5.81212 12.4647C9.27964 9.17851 14.7202 9.17842 18.1879 12.4645C18.5887 12.8444 18.6058 13.4773 18.2259 13.8782C17.846 14.2791 17.213 14.2961 16.8122 13.9162Z" fill="#080809" style="fill:#080809;fill:color(display-p3 0.0314 0.0314 0.0353);fill-opacity:1;"/>
<path d="M10 19C10 17.8954 10.8954 17 12 17C13.1046 17 14 17.8954 14 19C14 20.1046 13.1046 21 12 21C10.8954 21 10 20.1046 10 19Z" fill="#080809" style="fill:#080809;fill:color(display-p3 0.0314 0.0314 0.0353);fill-opacity:1;"/>
</svg>
