<svg width="24" height="24" viewBox="0 0 24 24" fill="none" xmlns="http://www.w3.org/2000/svg">
<path fill-rule="evenodd" clip-rule="evenodd" d="M14.5732 2H9.42684C7.6034 1.99997 6.13362 1.99995 4.97767 2.15537C3.77752 2.31672 2.76702 2.66191 1.96447 3.46447C1.16191 4.26702 0.816722 5.27752 0.655367 6.47767C0.499954 7.63362 0.499975 9.10336 0.500001 10.9268V11.0732C0.499975 12.8966 0.499954 14.3664 0.655367 15.5223C0.816722 16.7225 1.16191 17.733 1.96447 18.5355C2.76702 19.3381 3.77752 19.6833 4.97767 19.8446C6.13363 20.0001 7.6034 20 9.42687 20H14.5731C16.3966 20 17.8664 20.0001 19.0223 19.8446C20.2225 19.6833 21.233 19.3381 22.0355 18.5355C22.8381 17.733 23.1833 16.7225 23.3446 15.5223C23.5001 14.3664 23.5 12.8966 23.5 11.0731V10.9269C23.5 9.1034 23.5001 7.63363 23.3446 6.47767C23.1833 5.27752 22.8381 4.26702 22.0355 3.46447C21.233 2.66191 20.2225 2.31672 19.0223 2.15537C17.8664 1.99995 16.3966 1.99997 14.5732 2ZM10.9961 8.13176C10.6866 7.9549 10.3064 7.95617 9.99807 8.13509C9.68976 8.31401 9.5 8.64353 9.5 9V13C9.5 13.3565 9.68976 13.686 9.99807 13.8649C10.3064 14.0438 10.6866 14.0451 10.9961 13.8682L14.4961 11.8682C14.8077 11.6902 15 11.3589 15 11C15 10.6411 14.8077 10.3098 14.4961 10.1318L10.9961 8.13176Z" fill="#080809" style="fill:#080809;fill:color(display-p3 0.0314 0.0314 0.0353);fill-opacity:1;"/>
<path d="M7 22.5C7 21.9477 7.44772 21.5 8 21.5H16C16.5523 21.5 17 21.9477 17 22.5C17 23.0523 16.5523 23.5 16 23.5H8C7.44772 23.5 7 23.0523 7 22.5Z" fill="#080809" style="fill:#080809;fill:color(display-p3 0.0314 0.0314 0.0353);fill-opacity:1;"/>
</svg>
