<svg width="24" height="24" viewBox="0 0 24 24" fill="none" xmlns="http://www.w3.org/2000/svg">
<g clip-path="url(#clip0_29901_27819)">
<path d="M12 8C9.79086 8 8 9.79086 8 12C8 14.2091 9.79086 16 12 16C14.2091 16 16 14.2091 16 12C16 9.79086 14.2091 8 12 8Z" fill="#080809" style="fill:#080809;fill:color(display-p3 0.0314 0.0314 0.0353);fill-opacity:1;"/>
<path fill-rule="evenodd" clip-rule="evenodd" d="M12 0.5C12.5523 0.5 13 0.947715 13 1.5V2.04938C17.7244 2.51844 21.4816 6.27558 21.9506 11H22.5C23.0523 11 23.5 11.4477 23.5 12C23.5 12.5523 23.0523 13 22.5 13H21.9506C21.4816 17.7244 17.7244 21.4816 13 21.9506V22.5C13 23.0523 12.5523 23.5 12 23.5C11.4477 23.5 11 23.0523 11 22.5V21.9506C6.27558 21.4816 2.51844 17.7244 2.04938 13H1.5C0.947715 13 0.5 12.5523 0.5 12C0.5 11.4477 0.947715 11 1.5 11H2.04938C2.51844 6.27558 6.27558 2.51844 11 2.04938V1.5C11 0.947715 11.4477 0.5 12 0.5ZM19.9381 11H19C18.4477 11 18 11.4477 18 12C18 12.5523 18.4477 13 19 13H19.9381C19.4869 16.6187 16.6187 19.4869 13 19.9381V19C13 18.4477 12.5523 18 12 18C11.4477 18 11 18.4477 11 19V19.9381C7.38128 19.4869 4.51314 16.6187 4.06189 13H5C5.55228 13 6 12.5523 6 12C6 11.4477 5.55228 11 5 11H4.06189C4.51314 7.38128 7.38128 4.51314 11 4.06189V5C11 5.55228 11.4477 6 12 6C12.5523 6 13 5.55228 13 5V4.06189C16.6187 4.51314 19.4869 7.38128 19.9381 11Z" fill="#080809" style="fill:#080809;fill:color(display-p3 0.0314 0.0314 0.0353);fill-opacity:1;"/>
</g>
<defs>
<clipPath id="clip0_29901_27819">
<rect width="24" height="24" fill="white" style="fill:white;fill-opacity:1;"/>
</clipPath>
</defs>
</svg>
