<svg width="24" height="24" viewBox="0 0 24 24" fill="none" xmlns="http://www.w3.org/2000/svg">
<path d="M15.8834 3.11611C15.3953 2.62796 14.6038 2.62796 14.1156 3.11612C13.2289 4.0029 12.3388 4.89025 11.448 5.77839C10.0189 7.20317 8.58773 8.62998 7.16481 10.0597C6.09571 11.1339 6.10019 12.8688 7.16942 13.9391C8.59043 15.3614 10.0131 16.7832 11.4353 18.2046C12.3291 19.0978 13.2227 19.9909 14.1156 20.8839C14.6038 21.372 15.3953 21.372 15.8834 20.8839C16.3716 20.3957 16.3716 19.6043 15.8834 19.1161C14.9892 18.2219 14.095 17.3282 13.201 16.4348C11.7796 15.0142 10.3585 13.594 8.93801 12.1721C8.84073 12.0748 8.84162 11.9189 8.93679 11.8233C10.3574 10.3958 11.7811 8.97642 13.2068 7.55506C14.0983 6.66626 14.9906 5.77669 15.8834 4.88388C16.3716 4.39572 16.3716 3.60427 15.8834 3.11611Z" fill="#080809" style="fill:#080809;fill:color(display-p3 0.0314 0.0314 0.0353);fill-opacity:1;"/>
</svg>
