<svg width="24" height="24" viewBox="0 0 24 24" fill="none" xmlns="http://www.w3.org/2000/svg">
<path fill-rule="evenodd" clip-rule="evenodd" d="M3 9.5C3 4.52944 7.02944 0.5 12 0.5C16.9706 0.5 21 4.52944 21 9.5C21 12.1395 19.6487 14.9223 18.1412 17.2364C16.6123 19.5833 14.8163 21.6064 13.7233 22.7583C12.7803 23.7519 11.2197 23.7519 10.2767 22.7583C9.18369 21.6064 7.3877 19.5833 5.8588 17.2364C4.35131 14.9223 3 12.1395 3 9.5ZM15.7071 7.95716C16.0976 7.56667 16.0977 6.9335 15.7072 6.54295C15.3167 6.15239 14.6835 6.15234 14.2929 6.54284L10.7495 10.0857L9.20721 8.543C8.81674 8.15241 8.18358 8.15232 7.793 8.54279C7.40241 8.93326 7.40232 9.56642 7.79279 9.957L9.33509 11.4997C10.1161 12.2809 11.3825 12.2811 12.1636 11.5001L15.7071 7.95716Z" fill="#080809" style="fill:#080809;fill:color(display-p3 0.0314 0.0314 0.0353);fill-opacity:1;"/>
</svg>
