<svg width="24" height="24" viewBox="0 0 24 24" fill="none" xmlns="http://www.w3.org/2000/svg">
<path d="M0.5 12C0.5 5.64873 5.64873 0.5 12 0.5C18.3513 0.5 23.5 5.64873 23.5 12C23.5 18.3513 18.3513 23.5 12 23.5C5.64873 23.5 0.5 18.3513 0.5 12ZM9.5 8.5C9.5 7.67157 8.82843 7 8 7C7.17157 7 6.5 7.67157 6.5 8.5C6.5 9.32843 7.17157 10 8 10C8.82843 10 9.5 9.32843 9.5 8.5ZM14.5 8.5C14.5 9.32843 15.1716 10 16 10C16.8284 10 17.5 9.32843 17.5 8.5C17.5 7.67157 16.8284 7 16 7C15.1716 7 14.5 7.67157 14.5 8.5ZM14.5311 13.1604C13.3522 15.0129 10.648 15.0129 9.46914 13.1604L9.34379 12.9634C9.04728 12.4975 8.42919 12.3602 7.96325 12.6567C7.49731 12.9532 7.35996 13.5713 7.65646 14.0372L7.78182 14.2342C9.74659 17.3217 14.2537 17.3217 16.2184 14.2342L16.3438 14.0372C16.6403 13.5713 16.5029 12.9532 16.037 12.6567C15.5711 12.3602 14.953 12.4975 14.6565 12.9634L14.5311 13.1604Z" fill="#080809" style="fill:#080809;fill:color(display-p3 0.0314 0.0314 0.0353);fill-opacity:1;"/>
</svg>
