<svg width="24" height="24" viewBox="0 0 24 24" fill="none" xmlns="http://www.w3.org/2000/svg">
<path d="M16.8662 0.366361C17.3544 -0.121795 18.1456 -0.121795 18.6338 0.366361L20.5303 2.26285C21.2136 2.94626 21.2136 4.05406 20.5303 4.73745L18.6338 6.63394L18.5391 6.71988C18.0481 7.12031 17.3239 7.09154 16.8662 6.63394C16.4086 6.17629 16.3798 5.45205 16.7803 4.96109L16.8662 4.86636L16.9824 4.75015H12C7.85786 4.75015 4.5 8.10801 4.5 12.2501C4.50005 16.3922 7.8579 19.7501 12 19.7501C16.1421 19.7501 19.4999 16.3922 19.5 12.2501C19.5 11.5598 20.0596 11.0001 20.75 11.0001C21.4404 11.0001 22 11.5598 22 12.2501C21.9999 17.773 17.5228 22.2501 12 22.2501C6.47718 22.2501 2.00005 17.773 2 12.2501C2 6.7273 6.47715 2.25015 12 2.25015H16.9824L16.8662 2.13394C16.3781 1.6458 16.3781 0.85452 16.8662 0.366361Z" fill="#080809" style="fill:#080809;fill:color(display-p3 0.0314 0.0314 0.0353);fill-opacity:1;"/>
<path d="M9.0459 8.80191C9.4688 8.80191 9.83648 8.8747 10.1484 9.02163C10.4604 9.16563 10.702 9.36249 10.873 9.61148C11.044 9.85748 11.1299 10.1355 11.1299 10.4445C11.1298 10.7772 11.0317 11.0724 10.8369 11.3302C10.6419 11.5882 10.3779 11.7795 10.0449 11.9025C10.4768 12.0075 10.81 12.2063 11.0439 12.5001C11.2779 12.791 11.3944 13.1318 11.3945 13.5216C11.3945 13.8936 11.2929 14.2211 11.0889 14.5031C10.8879 14.782 10.6061 15.0013 10.2432 15.1603C9.88316 15.3193 9.4643 15.3986 8.9873 15.3986C8.54338 15.3986 8.12627 15.3267 7.73633 15.1828C7.34636 15.0388 6.99836 14.8317 6.69238 14.5617L7.2998 13.6349C7.54879 13.8389 7.8147 13.9854 8.09668 14.0753C8.37848 14.1623 8.64373 14.2062 8.89258 14.2062C9.23458 14.2062 9.50513 14.1325 9.70312 13.9855C9.90394 13.8356 10.0048 13.6272 10.0049 13.3605C10.0049 13.1115 9.90224 12.9174 9.69824 12.7794C9.4943 12.6386 9.17954 12.5686 8.75391 12.5685H8.1416V11.4523H8.62793C8.97872 11.4522 9.25046 11.3813 9.44238 11.2404C9.63716 11.0994 9.73438 10.9118 9.73438 10.6779C9.73433 10.45 9.64759 10.2773 9.47363 10.1603C9.29964 10.0433 9.0804 9.9855 8.81641 9.9855C8.55544 9.98551 8.30352 10.0377 8.06055 10.1427C7.82056 10.2447 7.60878 10.3828 7.42578 10.5568L6.82715 9.63882C7.13315 9.36882 7.4774 9.16173 7.8584 9.01773C8.23928 8.87381 8.63504 8.80192 9.0459 8.80191Z" fill="#080809" style="fill:#080809;fill:color(display-p3 0.0314 0.0314 0.0353);fill-opacity:1;"/>
<path fill-rule="evenodd" clip-rule="evenodd" d="M14.6562 8.80191C15.4512 8.80195 16.0688 9.09299 16.5098 9.67495C16.9537 10.2539 17.1757 11.062 17.1758 12.0998C17.1758 13.1378 16.9538 13.9484 16.5098 14.5304C16.0688 15.1091 15.451 15.3985 14.6562 15.3986C13.8614 15.3986 13.2418 15.1092 12.7979 14.5304C12.3569 13.9484 12.1357 13.1378 12.1357 12.0998C12.1358 11.062 12.357 10.2539 12.7979 9.67495C13.2419 9.09295 13.8612 8.80191 14.6562 8.80191ZM14.6562 9.99429C14.2873 9.99429 14.0065 10.1725 13.8145 10.5294C13.6225 10.8864 13.5264 11.4099 13.5264 12.0998C13.5264 12.7895 13.6226 13.3131 13.8145 13.6701C14.0065 14.0271 14.2873 14.2062 14.6562 14.2062C15.0252 14.2062 15.3061 14.027 15.498 13.6701C15.6898 13.3131 15.7852 12.7894 15.7852 12.0998C15.7851 11.41 15.69 10.8864 15.498 10.5294C15.3061 10.1725 15.0252 9.99434 14.6562 9.99429Z" fill="#080809" style="fill:#080809;fill:color(display-p3 0.0314 0.0314 0.0353);fill-opacity:1;"/>
</svg>
