<svg width="24" height="24" viewBox="0 0 24 24" fill="none" xmlns="http://www.w3.org/2000/svg">
<path fill-rule="evenodd" clip-rule="evenodd" d="M10.8128 0.929492C11.5476 0.505273 12.4529 0.505274 13.1876 0.929492L17.3121 3.31075C18.0468 3.73497 18.4995 4.51895 18.4995 5.36738V10.1299C18.4995 10.9783 18.0468 11.7623 17.3121 12.1865L13.1876 14.5678C12.4529 14.992 11.5476 14.992 10.8128 14.5678L6.68837 12.1865C5.95361 11.7623 5.50098 10.9783 5.50098 10.1299V5.36738C5.50098 4.51895 5.95361 3.73497 6.68837 3.31075L10.8128 0.929492ZM12.1876 2.66154C12.0717 2.59459 11.9288 2.59459 11.8128 2.66154L8.50148 4.57335L12.0002 6.59335L15.499 4.57335L12.1876 2.66154ZM16.4995 6.30511L13.0002 8.32541V12.3666L16.3121 10.4545C16.428 10.3875 16.4995 10.2638 16.4995 10.1299V6.30511ZM11.0002 12.3666V8.32541L7.50098 6.30511V10.1299C7.50098 10.2638 7.57241 10.3875 7.68838 10.4545L11.0002 12.3666Z" fill="#080809" style="fill:#080809;fill:color(display-p3 0.0314 0.0314 0.0353);fill-opacity:1;"/>
<path d="M3.68853 11.1319C4.08931 10.7519 4.10615 10.119 3.72616 9.71821C3.34616 9.31743 2.71322 9.30059 2.31245 9.68058C1.21931 10.717 0.5 12.0217 0.5 13.4989C0.5 15.6695 2.03058 17.4392 4.07924 18.6098C6.06255 19.7431 8.70748 20.4346 11.5901 20.4947L10.7929 21.2919C10.4024 21.6824 10.4024 22.3156 10.7929 22.7061C11.1834 23.0967 11.8166 23.0967 12.2071 22.7061L14 20.9132C14.781 20.1322 14.781 18.8659 14 18.0848L12.2071 16.2919C11.8166 15.9014 11.1834 15.9014 10.7929 16.2919C10.4024 16.6824 10.4024 17.3156 10.7929 17.7061L11.5807 18.494C8.99464 18.4327 6.70697 17.8079 5.07152 16.8733C3.31993 15.8724 2.5 14.6421 2.5 13.4989C2.5 12.7135 2.8766 11.9017 3.68853 11.1319Z" fill="#080809" style="fill:#080809;fill:color(display-p3 0.0314 0.0314 0.0353);fill-opacity:1;"/>
<path d="M21.6876 9.68058C21.2868 9.30059 20.6538 9.31743 20.2738 9.71821C19.8938 10.119 19.9107 10.7519 20.3115 11.1319C21.1234 11.9017 21.5 12.7135 21.5 13.4989C21.5 14.9078 20.228 16.4588 17.6302 17.4944C17.1172 17.6989 16.8671 18.2806 17.0716 18.7936C17.2761 19.3066 17.8578 19.5567 18.3708 19.3522C21.2129 18.2192 23.5 16.1677 23.5 13.4989C23.5 12.0217 22.7807 10.717 21.6876 9.68058Z" fill="#080809" style="fill:#080809;fill:color(display-p3 0.0314 0.0314 0.0353);fill-opacity:1;"/>
</svg>
