<svg width="24" height="24" viewBox="0 0 24 24" fill="none" xmlns="http://www.w3.org/2000/svg">
<g clip-path="url(#clip0_29901_27853)">
<path fill-rule="evenodd" clip-rule="evenodd" d="M21.7217 1.80931L22.1853 2.2728C23.4172 3.50466 23.3443 5.52328 22.0267 6.66305L17.8726 10.2565C17.4745 10.6009 16.8776 10.5777 16.5074 10.2034L15.8619 9.55081L14.1982 11.2145L17.9555 14.9718C18.3446 15.3608 18.3463 15.991 17.9594 16.3821L13.118 21.2768C11.8577 22.5509 10.0938 23.195 8.30902 23.0327L2.4079 22.4963C1.92715 22.4526 1.54625 22.0717 1.50254 21.5909L0.966076 15.6898C0.803823 13.905 1.44788 12.1412 2.722 10.8809L7.61661 6.03937C8.00774 5.65248 8.63794 5.65419 9.02695 6.04321L12.784 9.80027L14.4555 8.12884L13.7874 7.45343C13.4195 7.08148 13.4005 6.48882 13.7438 6.09404L17.3366 1.96217C18.4777 0.64986 20.492 0.579643 21.7217 1.80931ZM12.7054 12.7073C13.0959 12.3167 13.0959 11.6836 12.7054 11.293C12.3149 10.9025 11.6817 10.9025 11.2912 11.293L8.04112 14.5431C7.6506 14.9336 7.6506 15.5668 8.04112 15.9573C8.43165 16.3478 9.06481 16.3478 9.45534 15.9573L12.7054 12.7073Z" fill="#080809" style="fill:#080809;fill:color(display-p3 0.0314 0.0314 0.0353);fill-opacity:1;"/>
</g>
<defs>
<clipPath id="clip0_29901_27853">
<rect width="24" height="24" fill="white" style="fill:white;fill-opacity:1;"/>
</clipPath>
</defs>
</svg>
