<svg width="24" height="24" viewBox="0 0 24 24" fill="none" xmlns="http://www.w3.org/2000/svg">
<path d="M12.4432 7.69363L13.5682 2.82073L20.8774 4.50818C22.2227 4.81878 23.0615 6.16116 22.7509 7.50649L22.1883 9.94346L12.4432 7.69363Z" fill="#080809" style="fill:#080809;fill:color(display-p3 0.0314 0.0314 0.0353);fill-opacity:1;"/>
<path d="M10.4945 7.24373L11.6195 2.37083L9.18495 1.80877C7.83962 1.49818 6.49724 2.33699 6.18665 3.68232L5.62403 6.11929L10.4945 7.24373Z" fill="#080809" style="fill:#080809;fill:color(display-p3 0.0314 0.0314 0.0353);fill-opacity:1;"/>
<path fill-rule="evenodd" clip-rule="evenodd" d="M4.44592 11.2222L5.17412 8.06803L10.0446 9.19247L9.52534 11.4416L11.5266 11.6639L11.9933 9.64237L21.7384 11.8922L21.2143 14.1626C22.4548 14.3591 23.5 15.4192 23.5 16.833C23.5 17.7425 23.042 18.5909 22.2816 19.0899L22.1512 19.1755C17.3864 22.3024 11.5506 23.3461 5.9973 22.0646L5.02713 21.8407C2.37716 21.2292 0.5 18.8695 0.5 16.1499V16.0138C0.5 13.784 2.01758 11.8403 4.18084 11.2995C4.26759 11.2778 4.35466 11.2578 4.44203 11.2394C4.44331 11.2336 4.4446 11.2279 4.44592 11.2222ZM13.4577 14.2781C13.4841 14.3516 13.4984 14.4306 13.4984 14.5127C13.4984 14.8608 13.2408 15.155 12.8958 15.201L9.89474 15.6012C8.86784 15.7381 8.49557 16.731 8.77347 17.4916C8.9332 17.9331 9.31155 18.2972 9.90763 18.3717C13.3453 18.8014 16.8317 18.1569 19.8885 16.5266L20.4713 16.2158C20.9373 15.9673 21.5 16.3049 21.5 16.833C21.5 17.0687 21.3813 17.2885 21.1843 17.4178L21.0539 17.5034C16.7454 20.3308 11.4685 21.2746 6.44702 20.1158L5.47685 19.8919C3.73434 19.4898 2.5 17.9382 2.5 16.1499V16.0138C2.5 14.7017 3.39299 13.558 4.66591 13.2398C5.26265 13.0906 5.8812 13.049 6.49254 13.1169L12.8823 13.8269C13.1508 13.8567 13.3693 14.037 13.4577 14.2781Z" fill="#080809" style="fill:#080809;fill:color(display-p3 0.0314 0.0314 0.0353);fill-opacity:1;"/>
</svg>
