<svg width="24" height="24" viewBox="0 0 24 24" fill="none" xmlns="http://www.w3.org/2000/svg">
<path fill-rule="evenodd" clip-rule="evenodd" d="M17 2.5C17 1.67157 17.6716 1 18.5 1H21.5C22.3284 1 23 1.67157 23 2.5V5.5C23 6.32843 22.3284 7 21.5 7H18.5C17.6716 7 17 6.32843 17 5.5V2.5ZM19 3V5H21V3H19Z" fill="#080809" style="fill:#080809;fill:color(display-p3 0.0314 0.0314 0.0353);fill-opacity:1;"/>
<path fill-rule="evenodd" clip-rule="evenodd" d="M17 10.5C17 9.67157 17.6716 9 18.5 9H21.5C22.3284 9 23 9.67157 23 10.5V13.5C23 14.3284 22.3284 15 21.5 15H18.5C17.6716 15 17 14.3284 17 13.5V10.5ZM19 11V13H21V11H19Z" fill="#080809" style="fill:#080809;fill:color(display-p3 0.0314 0.0314 0.0353);fill-opacity:1;"/>
<path fill-rule="evenodd" clip-rule="evenodd" d="M2.5 17C1.67157 17 1 17.6716 1 18.5V21.5C1 22.3284 1.67157 23 2.5 23H5.5C6.32843 23 7 22.3284 7 21.5V18.5C7 17.6716 6.32843 17 5.5 17H2.5ZM3 21V19H5V21H3Z" fill="#080809" style="fill:#080809;fill:color(display-p3 0.0314 0.0314 0.0353);fill-opacity:1;"/>
<path fill-rule="evenodd" clip-rule="evenodd" d="M9 18.5C9 17.6716 9.67157 17 10.5 17H13.5C14.3284 17 15 17.6716 15 18.5V21.5C15 22.3284 14.3284 23 13.5 23H10.5C9.67157 23 9 22.3284 9 21.5V18.5ZM11 19V21H13V19H11Z" fill="#080809" style="fill:#080809;fill:color(display-p3 0.0314 0.0314 0.0353);fill-opacity:1;"/>
<path fill-rule="evenodd" clip-rule="evenodd" d="M17 18.5C17 17.6716 17.6716 17 18.5 17H21.5C22.3284 17 23 17.6716 23 18.5V21.5C23 22.3284 22.3284 23 21.5 23H18.5C17.6716 23 17 22.3284 17 21.5V18.5ZM19 19V21H21V19H19Z" fill="#080809" style="fill:#080809;fill:color(display-p3 0.0314 0.0314 0.0353);fill-opacity:1;"/>
<path fill-rule="evenodd" clip-rule="evenodd" d="M2.5 9C1.67157 9 1 9.67157 1 10.5V13.5C1 14.3284 1.67157 15 2.5 15H5.5C6.32843 15 7 14.3284 7 13.5V10.5C7 9.67157 6.32843 9 5.5 9H2.5ZM3 13V11H5V13H3Z" fill="#080809" style="fill:#080809;fill:color(display-p3 0.0314 0.0314 0.0353);fill-opacity:1;"/>
<path fill-rule="evenodd" clip-rule="evenodd" d="M2.5 1C1.67157 1 1 1.67157 1 2.5V5.5C1 6.32843 1.67157 7 2.5 7H5.5C6.32843 7 7 6.32843 7 5.5V2.5C7 1.67157 6.32843 1 5.5 1H2.5ZM3 5V3H5V5H3Z" fill="#080809" style="fill:#080809;fill:color(display-p3 0.0314 0.0314 0.0353);fill-opacity:1;"/>
<path fill-rule="evenodd" clip-rule="evenodd" d="M9 2.5C9 1.67157 9.67157 1 10.5 1H13.5C14.3284 1 15 1.67157 15 2.5V5.5C15 6.32843 14.3284 7 13.5 7H10.5C9.67157 7 9 6.32843 9 5.5V2.5ZM11 3V5H13V3H11Z" fill="#080809" style="fill:#080809;fill:color(display-p3 0.0314 0.0314 0.0353);fill-opacity:1;"/>
<path fill-rule="evenodd" clip-rule="evenodd" d="M10.5 9C9.67157 9 9 9.67157 9 10.5V13.5C9 14.3284 9.67157 15 10.5 15H13.5C14.3284 15 15 14.3284 15 13.5V10.5C15 9.67157 14.3284 9 13.5 9H10.5ZM11 13V11H13V13H11Z" fill="#080809" style="fill:#080809;fill:color(display-p3 0.0314 0.0314 0.0353);fill-opacity:1;"/>
</svg>
