<svg width="24" height="24" viewBox="0 0 24 24" fill="none" xmlns="http://www.w3.org/2000/svg">
<path fill-rule="evenodd" clip-rule="evenodd" d="M6.5 2C5.11929 2 4 3.11929 4 4.5V8.03544C2.30385 8.27806 1 9.73676 1 11.5V16.5C1 17.8807 2.11929 19 3.5 19H4V21C4 21.5523 4.44772 22 5 22C5.55228 22 6 21.5523 6 21V19H18V21C18 21.5523 18.4477 22 19 22C19.5523 22 20 21.5523 20 21V19H20.5C21.8807 19 23 17.8807 23 16.5V11.5C23 9.73676 21.6961 8.27806 20 8.03544V4.5C20 3.11929 18.8807 2 17.5 2H6.5ZM18 8.33682V4.5C18 4.22386 17.7761 4 17.5 4H6.5C6.22386 4 6 4.22386 6 4.5V8.33682C7.18247 8.89855 8 10.1038 8 11.5V12H16V11.5C16 10.1038 16.8175 8.89855 18 8.33682ZM7 14C6.44772 14 6 13.5523 6 13V11.5C6 10.6716 5.32843 10 4.5 10C3.67157 10 3 10.6716 3 11.5V16.5C3 16.7761 3.22386 17 3.5 17H20.5C20.7761 17 21 16.7761 21 16.5V11.5C21 10.6716 20.3284 10 19.5 10C18.6716 10 18 10.6716 18 11.5V13C18 13.5523 17.5523 14 17 14H7Z" fill="#080809" style="fill:#080809;fill:color(display-p3 0.0314 0.0314 0.0353);fill-opacity:1;"/>
</svg>
