<svg width="24" height="24" viewBox="0 0 24 24" fill="none" xmlns="http://www.w3.org/2000/svg">
<g clip-path="url(#clip0_29901_26592)">
<path d="M11.7071 7.29289C12.0976 7.68342 12.0976 8.31658 11.7071 8.70711L9.41475 10.9995L17.0002 10.9995C17.5525 10.9995 18.0002 11.4472 18.0002 11.9995C18.0002 12.5518 17.5525 12.9995 17.0002 12.9995L9.41368 12.9995L11.7071 15.2929C12.0976 15.6834 12.0976 16.3166 11.7071 16.7071C11.3166 17.0976 10.6834 17.0976 10.2929 16.7071L7.35355 13.7678C6.37724 12.7915 6.37724 11.2085 7.35355 10.2322L10.2929 7.29289C10.6834 6.90237 11.3166 6.90237 11.7071 7.29289Z" fill="#080809" style="fill:#080809;fill:color(display-p3 0.0314 0.0314 0.0353);fill-opacity:1;"/>
<path fill-rule="evenodd" clip-rule="evenodd" d="M23.5 12C23.5 5.64873 18.3513 0.5 12 0.5C5.64873 0.5 0.5 5.64873 0.5 12C0.5 18.3513 5.64873 23.5 12 23.5C18.3513 23.5 23.5 18.3513 23.5 12ZM12 2.5C17.2467 2.5 21.5 6.75329 21.5 12C21.5 17.2467 17.2467 21.5 12 21.5C6.75329 21.5 2.5 17.2467 2.5 12C2.5 6.75329 6.75329 2.5 12 2.5Z" fill="#080809" style="fill:#080809;fill:color(display-p3 0.0314 0.0314 0.0353);fill-opacity:1;"/>
</g>
<defs>
<clipPath id="clip0_29901_26592">
<rect width="24" height="24" fill="white" style="fill:white;fill-opacity:1;"/>
</clipPath>
</defs>
</svg>
