<svg width="24" height="24" viewBox="0 0 24 24" fill="none" xmlns="http://www.w3.org/2000/svg">
<path d="M4.47564 1.92C4.6494 2.06245 4.75014 2.27531 4.75014 2.50001V7.00001C4.75014 7.41422 4.41436 7.75001 4.00014 7.75001C3.58593 7.75001 3.25014 7.41422 3.25014 7.00001V3.41486L2.89723 3.48544C2.49106 3.56668 2.09594 3.30326 2.01471 2.89709C1.93348 2.49092 2.19689 2.0958 2.60306 2.01457L3.85306 1.76457C4.07339 1.7205 4.30187 1.77755 4.47564 1.92Z" fill="#080809" style="fill:#080809;fill:color(display-p3 0.0314 0.0314 0.0353);fill-opacity:1;"/>
<path d="M9 4C8.44772 4 8 4.44771 8 5C8 5.55228 8.44772 6 9 6L21 6C21.5523 6 22 5.55228 22 5C22 4.44772 21.5523 4 21 4L9 4Z" fill="#080809" style="fill:#080809;fill:color(display-p3 0.0314 0.0314 0.0353);fill-opacity:1;"/>
<path d="M9 18C8.44772 18 8 18.4477 8 19C8 19.5523 8.44772 20 9 20L21 20C21.5523 20 22 19.5523 22 19C22 18.4477 21.5523 18 21 18L9 18Z" fill="#080809" style="fill:#080809;fill:color(display-p3 0.0314 0.0314 0.0353);fill-opacity:1;"/>
<path d="M8 12C8 11.4477 8.44772 11 9 11L21 11C21.5523 11 22 11.4477 22 12C22 12.5523 21.5523 13 21 13L9 13C8.44772 13 8 12.5523 8 12Z" fill="#080809" style="fill:#080809;fill:color(display-p3 0.0314 0.0314 0.0353);fill-opacity:1;"/>
<path d="M3.5078 10.8477C3.66678 10.6888 3.92453 10.6888 4.08351 10.8477C4.24248 11.0067 4.24248 11.2645 4.08351 11.4235L2.03805 13.4689C1.82355 13.6834 1.75939 14.006 1.87547 14.2862C1.99156 14.5665 2.26503 14.7492 2.56838 14.7492H5.00002C5.41424 14.7492 5.75002 14.4135 5.75002 13.9992C5.75002 13.585 5.41424 13.2492 5.00002 13.2492H4.37904L5.14417 12.4841C5.88893 11.7393 5.88893 10.5318 5.14417 9.78709C4.3994 9.04233 3.19191 9.04232 2.44714 9.78709L2.03805 10.1962C1.74516 10.4891 1.74516 10.9639 2.03805 11.2568C2.33094 11.5497 2.80582 11.5497 3.09871 11.2568L3.5078 10.8477Z" fill="#080809" style="fill:#080809;fill:color(display-p3 0.0314 0.0314 0.0353);fill-opacity:1;"/>
<path d="M3.50778 20.1523C3.66676 20.3112 3.92451 20.3112 4.08348 20.1523C4.24246 19.9933 4.24246 19.7355 4.08348 19.5765L3.46985 18.9629C3.23791 18.731 3.1836 18.3752 3.33577 18.0846L3.51062 17.7508H2.75C2.33579 17.7508 2 17.415 2 17.0008C2 16.5865 2.33579 16.2508 2.75 16.2508H4.75C5.01244 16.2508 5.25579 16.3879 5.39166 16.6125C5.52753 16.837 5.53616 17.1162 5.41441 17.3487L4.92036 18.2921L5.14414 18.5159C5.88891 19.2607 5.88891 20.4681 5.14414 21.2129C4.39938 21.9577 3.19188 21.9577 2.44712 21.2129L2.03803 20.8038C1.74514 20.5109 1.74514 20.0361 2.03803 19.7432C2.33092 19.4503 2.8058 19.4503 3.09869 19.7432L3.50778 20.1523Z" fill="#080809" style="fill:#080809;fill:color(display-p3 0.0314 0.0314 0.0353);fill-opacity:1;"/>
</svg>
