<svg width="24" height="24" viewBox="0 0 24 24" fill="none" xmlns="http://www.w3.org/2000/svg">
<g clip-path="url(#clip0_29901_26308)">
<path d="M8.79289 10.2929C8.35193 10.7339 7.9507 11.0248 7.53136 11.2112C7.11637 11.3956 6.63332 11.5 6 11.5C5.44772 11.5 5 11.9477 5 12.5C5 13.0523 5.44772 13.5 6 13.5C6.19749 13.5 6.3898 13.4924 6.57744 13.477C6.77674 14.0716 7.33834 14.5 8 14.5C8.82843 14.5 9.5 13.8284 9.5 13C9.5 12.7961 9.4593 12.6016 9.38557 12.4244C9.67284 12.2105 9.94436 11.9699 10.2071 11.7071C10.5976 11.3166 10.5976 10.6834 10.2071 10.2929C9.81658 9.90237 9.18342 9.90237 8.79289 10.2929Z" fill="#080809" style="fill:#080809;fill:color(display-p3 0.0314 0.0314 0.0353);fill-opacity:1;"/>
<path d="M16 14.5C15.1716 14.5 14.5 13.8284 14.5 13C14.5 12.7961 14.5407 12.6016 14.6144 12.4244C14.3272 12.2105 14.0556 11.9699 13.7929 11.7071C13.4024 11.3166 13.4024 10.6834 13.7929 10.2929C14.1834 9.90237 14.8166 9.90237 15.2071 10.2929C15.6481 10.7339 16.0493 11.0248 16.4686 11.2112C16.8836 11.3956 17.3667 11.5 18 11.5C18.5523 11.5 19 11.9477 19 12.5C19 13.0523 18.5523 13.5 18 13.5C17.8025 13.5 17.6102 13.4924 17.4226 13.477C17.2233 14.0716 16.6617 14.5 16 14.5Z" fill="#080809" style="fill:#080809;fill:color(display-p3 0.0314 0.0314 0.0353);fill-opacity:1;"/>
<path d="M13.9454 18.8321C12.7813 18.056 11.2189 18.056 10.0548 18.8321C9.59529 19.1384 8.97442 19.0142 8.66806 18.5547C8.3617 18.0952 8.48587 17.4743 8.9454 17.168C10.7813 15.944 13.2189 15.944 15.0548 17.168C15.5143 17.4743 15.6385 18.0952 15.3321 18.5547C15.0258 19.0143 14.4049 19.1384 13.9454 18.8321Z" fill="#080809" style="fill:#080809;fill:color(display-p3 0.0314 0.0314 0.0353);fill-opacity:1;"/>
<path fill-rule="evenodd" clip-rule="evenodd" d="M12 0.5C5.64873 0.5 0.5 5.64873 0.5 12C0.5 18.3513 5.64873 23.5 12 23.5C18.3513 23.5 23.5 18.3513 23.5 12C23.5 5.64873 18.3513 0.5 12 0.5ZM2.5 12C2.5 6.75329 6.75329 2.5 12 2.5C17.2467 2.5 21.5 6.75329 21.5 12C21.5 17.2467 17.2467 21.5 12 21.5C6.75329 21.5 2.5 17.2467 2.5 12Z" fill="#080809" style="fill:#080809;fill:color(display-p3 0.0314 0.0314 0.0353);fill-opacity:1;"/>
</g>
<defs>
<clipPath id="clip0_29901_26308">
<rect width="24" height="24" fill="white" style="fill:white;fill-opacity:1;"/>
</clipPath>
</defs>
</svg>
