<svg width="24" height="24" viewBox="0 0 24 24" fill="none" xmlns="http://www.w3.org/2000/svg">
<path fill-rule="evenodd" clip-rule="evenodd" d="M5 16.781L6.67157 16.3631C8.13227 15.9979 9.67179 16.1134 11.0616 16.6925L12.1691 17.154C13.9561 17.8985 15.9355 18.0471 17.8135 17.5776L20.2425 16.9703C20.6877 16.859 21 16.459 21 16.0002V4.00017C21 3.69224 20.8581 3.40148 20.6154 3.21197C20.3727 3.02246 20.0562 2.95535 19.7575 3.03003L17.3284 3.63729C15.8677 4.00247 14.3282 3.88693 12.9384 3.30783L11.8309 2.84636C10.0439 2.10181 8.06454 1.95326 6.1865 2.42277L3.75746 3.03003C3.3123 3.14132 3 3.54131 3 4.00017V22.5001C3 23.0524 3.44772 23.5001 4 23.5001C4.55228 23.5001 5 23.0524 5 22.5001V16.781ZM12.9384 15.3078C14.3282 15.8869 15.8677 16.0025 17.3284 15.6373L19 15.2194V5.28095L17.8135 5.57758C15.9355 6.04709 13.9561 5.89854 12.1691 5.15399L11.0616 4.69252C9.67179 4.11342 8.13227 3.99788 6.67157 4.36306L5 4.78095V14.7194L6.1865 14.4228C8.06454 13.9533 10.0439 14.1018 11.8309 14.8464L12.9384 15.3078Z" fill="#080809" style="fill:#080809;fill:color(display-p3 0.0314 0.0314 0.0353);fill-opacity:1;"/>
</svg>
