<svg width="24" height="24" viewBox="0 0 24 24" fill="none" xmlns="http://www.w3.org/2000/svg">
<path d="M2.5 14C2.5 19.2467 6.75329 23.5 12 23.5C17.2467 23.5 21.5 19.2467 21.5 14C21.5 12.3018 21.2765 10.6788 20.8699 9.18416L18.3228 11.2218C17.5271 11.8584 16.3798 11.7949 15.6592 11.0743L14.4992 9.91425L10.4516 13.9618C9.64139 14.7721 8.31738 14.7373 7.55083 13.8856L3.17477 9.02326C2.73988 10.5621 2.5 12.2407 2.5 14Z" fill="#080809" style="fill:#080809;fill:color(display-p3 0.0314 0.0314 0.0353);fill-opacity:1;"/>
<path d="M3.94173 6.88575L9.03742 12.5476L13.085 8.50004C13.8661 7.71899 15.1324 7.71899 15.9134 8.50004L17.0734 9.66004L20.1819 7.17331C19.7833 6.21931 19.3042 5.34034 18.7585 4.55457C17.0762 2.13225 14.6795 0.5 12 0.5C9.32047 0.5 6.92381 2.13225 5.24152 4.55457C4.75108 5.26075 4.31447 6.0422 3.94173 6.88575Z" fill="#080809" style="fill:#080809;fill:color(display-p3 0.0314 0.0314 0.0353);fill-opacity:1;"/>
</svg>
