<svg width="24" height="24" viewBox="0 0 24 24" fill="none" xmlns="http://www.w3.org/2000/svg">
<path fill-rule="evenodd" clip-rule="evenodd" d="M18.4365 4.92965C18.8294 4.79592 19.2047 5.17128 19.071 5.5641L13.8775 20.8201C13.7121 21.3058 13.01 21.2572 12.9131 20.7534L11.482 13.3118C11.4048 12.91 11.0906 12.5959 10.6889 12.5186L3.24721 11.0875C2.74343 10.9906 2.69487 10.2885 3.1805 10.1232L18.4365 4.92965ZM20.9643 6.20863C21.6329 4.2445 19.7561 2.36771 17.792 3.03634L2.53597 8.22989C0.107778 9.05651 0.350645 12.5671 2.86952 13.0515L9.64595 14.3547L10.9491 21.1311C11.4335 23.65 14.9441 23.8929 15.7708 21.4647L20.9643 6.20863Z" fill="#080809" style="fill:#080809;fill:color(display-p3 0.0314 0.0314 0.0353);fill-opacity:1;"/>
</svg>
