<svg width="24" height="24" viewBox="0 0 24 24" fill="none" xmlns="http://www.w3.org/2000/svg">
<path d="M12.0748 1H11.9252C9.63167 0.999979 7.80859 0.999963 6.3804 1.19198C5.28646 1.33905 4.34204 1.60781 3.53962 2.12541L2.70711 1.29289C2.31658 0.90237 1.68342 0.90237 1.29289 1.29289C0.90237 1.68342 0.90237 2.31658 1.29289 2.70711L2.12541 3.53962C2.12212 3.54472 2.11885 3.54981 2.11558 3.55492L5.63103 7.07037C5.74526 7.02496 5.86983 7 6.00024 7H10.0002C10.3883 7 10.7412 7.22446 10.9058 7.57585C11.0704 7.92723 11.0169 8.3421 10.7685 8.64018L9.39462 10.2888C10.4531 10.7491 11.2397 11.7174 11.4465 12.8859L12.5 13.9393V8C12.5 7.44772 12.9477 7 13.5 7H15.5C17.7091 7 19.5 8.79086 19.5 11V13C19.5 15.189 17.7416 16.9674 15.5602 16.9996L20.4451 21.8844C20.4502 21.8812 20.4553 21.8779 20.4604 21.8746L21.2929 22.7071C21.6834 23.0976 22.3166 23.0976 22.7071 22.7071C23.0976 22.3166 23.0976 21.6834 22.7071 21.2929L21.8746 20.4604C22.3922 19.658 22.661 18.7135 22.808 17.6196C23 16.1914 23 14.3683 23 12.0748V11.9252C23 9.63167 23 7.8086 22.808 6.3804C22.6101 4.90794 22.1916 3.70636 21.2426 2.75736C20.2936 1.80836 19.0921 1.38994 17.6196 1.19198C16.1914 0.999963 14.3683 0.999979 12.0748 1Z" fill="#080809" style="fill:#080809;fill:color(display-p3 0.0314 0.0314 0.0353);fill-opacity:1;"/>
<path d="M18.973 22.5337C16.3673 19.928 13.8053 17.366 11.2462 14.8069C10.7232 16.0955 9.45141 17 7.98515 17C6.37236 17 4.94545 15.904 4.55157 14.3284L4.53009 14.2425C4.39615 13.7067 4.72191 13.1638 5.2577 13.0299C5.7935 12.8959 6.33643 13.2217 6.47038 13.7575L6.49185 13.8434C6.66044 14.5177 7.27884 15 7.98515 15C8.82142 15 9.50024 14.3206 9.50024 13.5C9.50024 13.3101 9.46495 13.1284 9.40057 12.9612L8.539 12.0997C8.37179 12.0353 8.19013 12 8.00024 12H7.50024C7.11222 12 6.75923 11.7755 6.59465 11.4242C6.43007 11.0728 6.48361 10.6579 6.73202 10.3598L6.76253 10.3232L1.46635 5.02701C1.34435 5.44981 1.25647 5.90073 1.19198 6.3804C0.999963 7.80859 0.999979 9.63165 1 11.9252V12.0748C0.999979 14.3683 0.999963 16.1914 1.19198 17.6196C1.38994 19.0921 1.80836 20.2936 2.75736 21.2426C3.70636 22.1916 4.90794 22.6101 6.3804 22.808C7.8086 23 9.63167 23 11.9252 23H12.0748C14.3683 23 16.1914 23 17.6196 22.808C18.0993 22.7435 18.5502 22.6557 18.973 22.5337Z" fill="#080809" style="fill:#080809;fill:color(display-p3 0.0314 0.0314 0.0353);fill-opacity:1;"/>
<path d="M15.5 15H14.5V9H15.5C16.6046 9 17.5 9.89543 17.5 11V13C17.5 14.1046 16.6046 15 15.5 15Z" fill="#080809" style="fill:#080809;fill:color(display-p3 0.0314 0.0314 0.0353);fill-opacity:1;"/>
</svg>
