<svg width="24" height="24" viewBox="0 0 24 24" fill="none" xmlns="http://www.w3.org/2000/svg">
<path fill-rule="evenodd" clip-rule="evenodd" d="M23 3.58475C23 1.66519 20.9263 0.461774 19.2596 1.41414L12.8485 5.07769C11.7908 5.68208 10.5937 5.99999 9.37548 5.99999H5.5C2.73858 5.99999 0.5 8.23856 0.5 11C0.5 13.4811 2.30711 15.5401 4.67691 15.9326L5.76789 21.0238C6.01489 22.1765 7.03355 23 8.2124 23H8.49977C9.88049 23 10.9998 21.8807 10.9998 20.5L10.9998 16.191C11.645 16.345 12.2677 16.5904 12.8485 16.9223L19.2597 20.5858C20.9263 21.5382 23 20.3348 23 18.4152V3.58475ZM8.99977 16H6.73676L7.7235 20.6048C7.7729 20.8353 7.97663 21 8.2124 21H8.49977C8.77592 21 8.99977 20.7761 8.99977 20.5L8.99977 16Z" fill="#080809" style="fill:#080809;fill:color(display-p3 0.0314 0.0314 0.0353);fill-opacity:1;"/>
</svg>
