<svg width="24" height="24" viewBox="0 0 24 24" fill="none" xmlns="http://www.w3.org/2000/svg">
<path fill-rule="evenodd" clip-rule="evenodd" d="M10.6412 0.678448C7.97382 1.39316 6.39091 4.13484 7.10562 6.80217L7.70186 9.02737C7.29139 9.04466 6.91584 9.07281 6.57494 9.11864C5.64711 9.24338 4.82769 9.51535 4.17158 10.1715C3.51547 10.8276 3.2435 11.647 3.11876 12.5748C2.99994 13.4586 2.99997 14.5752 3 15.9293V16.0705C2.99997 17.4246 2.99994 18.5412 3.11876 19.425C3.2435 20.3528 3.51547 21.1722 4.17158 21.8283C4.82769 22.4844 5.64711 22.7564 6.57494 22.8811C7.4587 23 8.57531 22.9999 9.92943 22.9999H14.0706C15.4247 22.9999 16.5413 23 17.4251 22.8811C18.3529 22.7564 19.1723 22.4844 19.8284 21.8283C20.4845 21.1722 20.7565 20.3528 20.8813 19.425C21.0001 18.5412 21 17.4246 21 16.0705V15.9293C21 14.5752 21.0001 13.4586 20.8813 12.5748C20.7565 11.647 20.4845 10.8276 19.8284 10.1715C19.1723 9.51535 18.3529 9.24338 17.4251 9.11864C16.5413 8.99982 15.4247 8.99985 14.0706 8.99989H9.92943C9.87425 8.99989 9.81944 8.99988 9.76505 8.99989L9.03747 6.28453C8.60865 4.68413 9.55839 3.03913 11.1588 2.6103C12.7592 2.18147 14.4042 3.13122 14.833 4.73162L14.8977 4.9731C15.0407 5.50657 15.589 5.82315 16.1225 5.68021C16.6559 5.53727 16.9725 4.98893 16.8296 4.45546L16.7649 4.21398C16.0502 1.54665 13.3085 -0.0362612 10.6412 0.678448ZM5.58579 11.5857C5.80836 11.3631 6.13538 11.1957 6.84144 11.1008C7.57626 11.002 8.55752 10.9999 10 10.9999H14C15.4425 10.9999 16.4238 11.002 17.1586 11.1008C17.8646 11.1957 18.1916 11.3631 18.4142 11.5857C18.6368 11.8082 18.8042 12.1353 18.8991 12.8413C18.9979 13.5761 19 14.5574 19 15.9999C19 17.4424 18.9979 18.4236 18.8991 19.1585C18.8042 19.8645 18.6368 20.1915 18.4142 20.4141C18.1916 20.6367 17.8646 20.804 17.1586 20.899C16.4238 20.9978 15.4425 20.9999 14 20.9999H10C8.55752 20.9999 7.57626 20.9978 6.84144 20.899C6.13538 20.804 5.80836 20.6367 5.58579 20.4141C5.36322 20.1915 5.19585 19.8645 5.10092 19.1585C5.00213 18.4236 5 17.4424 5 15.9999C5 14.5574 5.00213 13.5761 5.10092 12.8413C5.19585 12.1353 5.36322 11.8082 5.58579 11.5857Z" fill="#080809" style="fill:#080809;fill:color(display-p3 0.0314 0.0314 0.0353);fill-opacity:1;"/>
</svg>
