<svg width="24" height="24" viewBox="0 0 24 24" fill="none" xmlns="http://www.w3.org/2000/svg">
<path fill-rule="evenodd" clip-rule="evenodd" d="M5.02485 4.00416C4.755 4.00812 4.51085 4.01583 4.29047 4.03087C3.82118 4.06288 3.38708 4.13142 2.96927 4.30448C1.98916 4.71046 1.21046 5.48915 0.804486 6.46927C0.631423 6.88708 0.562888 7.32118 0.530869 7.79046C0.49999 8.24303 0.499995 8.79585 0.500001 9.46557V9.52648C0.499984 9.73642 0.499966 9.94123 0.51184 10.1152C0.524829 10.3056 0.555302 10.5313 0.652245 10.7654C0.855233 11.2554 1.24458 11.6448 1.73464 11.8478C1.82485 11.8851 1.91382 11.9126 2.00001 11.933V13.567C1.91382 13.5874 1.82485 13.6149 1.73464 13.6522C1.24458 13.8552 0.855233 14.2446 0.652246 14.7346C0.555303 14.9687 0.524829 15.1944 0.51184 15.3848C0.499967 15.5588 0.499984 15.7633 0.500001 15.9732V16.032C0.499991 16.4706 0.499983 16.8491 0.521354 17.1624C0.543858 17.4922 0.593362 17.8221 0.728366 18.1481C1.03285 18.8831 1.61687 19.4672 2.35195 19.7716C2.67788 19.9066 3.00779 19.9562 3.33762 19.9787C3.65088 20 4.02937 20 4.46801 20L19.532 20C19.9706 20 20.3492 20 20.6624 19.9787C20.9922 19.9562 21.3221 19.9066 21.6481 19.7716C22.3831 19.4672 22.9672 18.8831 23.2716 18.1481C23.4066 17.8221 23.4562 17.4922 23.4787 17.1624C23.5 16.8492 23.5 16.4707 23.5 16.0321V15.9735C23.5 15.7635 23.5 15.5588 23.4882 15.3848C23.4752 15.1944 23.4447 14.9687 23.3478 14.7346C23.1448 14.2446 22.7554 13.8552 22.2654 13.6522C22.1752 13.6149 22.0862 13.5874 22 13.567V11.933C22.0862 11.9126 22.1752 11.8851 22.2654 11.8478C22.7554 11.6448 23.1448 11.2554 23.3478 10.7654C23.4447 10.5313 23.4752 10.3056 23.4882 10.1152C23.5 9.9412 23.5 9.73665 23.5 9.52667L23.5 9.46573C23.5 8.79594 23.5 8.24307 23.4691 7.79046C23.4371 7.32118 23.3686 6.88708 23.1955 6.46927C22.7895 5.48916 22.0109 4.71046 21.0307 4.30448C20.6129 4.13142 20.1788 4.06289 19.7095 4.03087C19.2569 3.99999 18.7041 3.99999 18.0343 4H17.1772L18.4287 7.12863C18.6338 7.64141 18.3844 8.22339 17.8716 8.4285C17.3588 8.63361 16.7769 8.3842 16.5717 7.87141L15.0232 4H12.1773L13.4287 7.12863C13.6338 7.64141 13.3844 8.22339 12.8716 8.4285C12.3589 8.63361 11.7769 8.3842 11.5718 7.87141L10.0232 4H7.17725L8.4287 7.12863C8.63381 7.64141 8.3844 8.22339 7.87161 8.4285C7.35883 8.63361 6.77686 8.3842 6.57175 7.87141L5.02485 4.00416ZM4.00001 12L20 12V13.5H17.5001C17.2349 13.5 16.9806 13.6054 16.793 13.7929L15.3537 15.2323C15.1584 15.4275 14.8418 15.4275 14.6466 15.2323L13.2071 13.7929C13.0196 13.6054 12.7653 13.5 12.5 13.5L4.00001 13.5V12Z" fill="#080809" style="fill:#080809;fill:color(display-p3 0.0314 0.0314 0.0353);fill-opacity:1;"/>
</svg>
