<svg width="24" height="24" viewBox="0 0 24 24" fill="none" xmlns="http://www.w3.org/2000/svg">
<path d="M15 0.25C15.55 0.25 16 0.7 16 1.25V22.75C16 23.3 15.55 23.75 15 23.75C14.45 23.75 14 23.3 14 22.75V1.25C14 0.7 14.45 0.25 15 0.25Z" fill="#080809" style="fill:#080809;fill:color(display-p3 0.0314 0.0314 0.0353);fill-opacity:1;"/>
<path d="M11.4648 1.00488C12.0198 1.00488 12.4854 1.45488 12.4854 2.00488C12.4854 2.55488 12.05 3.00488 11.5 3.00488C9.0851 3.00488 8.6549 3.02031 7.54492 3.07031C6.46506 3.12033 5.89462 3.29532 5.51465 3.44531C4.99994 3.64527 4.63475 3.8799 4.25488 4.25977C3.87499 4.63467 3.64039 4.99984 3.44043 5.51465L3.44531 5.51953C3.29532 5.89952 3.12032 6.46986 3.07031 7.5498C3.01531 8.7048 3.00488 9.01488 3.00488 12.0049C3.00488 14.9949 3.01531 15.305 3.07031 16.46C3.12032 17.5399 3.29532 18.1102 3.44531 18.4902C3.64526 19.005 3.87993 19.3701 4.25977 19.75C4.63463 20.1299 4.99994 20.3645 5.51465 20.5645C5.89462 20.7144 6.46506 20.8894 7.54492 20.9395C8.65488 20.9895 9.08009 21.0049 11.4648 21.0049C12.0198 21.0049 12.4854 21.4549 12.4854 22.0049C12.4854 22.5549 12.05 23.0049 11.5 23.0049H11.4648C9.04008 23.0049 8.60004 22.9895 7.45508 22.9395C6.06022 22.8745 5.26028 22.6148 4.78027 22.4248C4.01527 22.1248 3.41484 21.7352 2.83984 21.1602C2.26484 20.5852 1.8752 19.9848 1.5752 19.2148C1.3702 18.6949 1.12055 17.9199 1.06055 16.5449C1.00555 15.3249 0.995117 14.9149 0.995117 12C0.995117 9.08514 1.00555 8.67494 1.06055 7.45508C1.12554 6.08526 1.37021 5.30516 1.5752 4.78516C1.87519 4.02018 2.26488 3.41971 2.83984 2.84473C3.41484 2.26973 4.01517 1.88008 4.78516 1.58008C5.26515 1.39508 6.06511 1.13532 7.45508 1.07031C8.60004 1.02031 9.04008 1.00488 11.4648 1.00488Z" fill="#080809" style="fill:#080809;fill:color(display-p3 0.0314 0.0314 0.0353);fill-opacity:1;"/>
<path d="M17.54 2.08984C17.7002 1.56502 18.2601 1.26473 18.79 1.42969C18.92 1.46969 19.0404 1.51469 19.1504 1.55469L19.21 1.5752C19.9799 1.87519 20.5803 2.26486 21.1553 2.83984C21.7303 3.41483 22.1199 4.01517 22.4199 4.78516C22.6249 5.30515 22.8746 6.08014 22.9346 7.45508C22.9896 8.67506 23 9.08511 23 12C23 14.9149 22.9896 15.3251 22.9346 16.5449C22.8696 17.9147 22.6249 18.6948 22.4199 19.2148C22.1199 19.9798 21.7302 20.5803 21.1553 21.1553C20.5803 21.7302 19.9799 22.1199 19.21 22.4199L19.1504 22.4404C19.0404 22.4804 18.92 22.5254 18.79 22.5654C18.6901 22.5954 18.5901 22.6103 18.4951 22.6104C18.0702 22.6104 17.6701 22.3352 17.54 21.9053C17.375 21.3753 17.6702 20.8203 18.2002 20.6553C18.2849 20.6303 18.3647 20.6002 18.4395 20.5703L18.4902 20.5498C18.99 20.3548 19.3554 20.1201 19.7354 19.7402C20.1152 19.3653 20.3499 19.0002 20.5498 18.4854C20.6998 18.1054 20.8748 17.5351 20.9248 16.4551C20.9798 15.3001 20.9902 14.99 20.9902 12C20.9902 9.01011 20.9798 8.69991 20.9248 7.54492C20.8748 6.46505 20.6998 5.89462 20.5498 5.51465C20.3499 4.99993 20.1152 4.63474 19.7354 4.25488C19.3604 3.87488 18.9945 3.64043 18.4795 3.44043L18.4395 3.4248C18.3696 3.39983 18.2899 3.36478 18.2002 3.33984C17.6752 3.17484 17.375 2.61984 17.54 2.08984Z" fill="#080809" style="fill:#080809;fill:color(display-p3 0.0314 0.0314 0.0353);fill-opacity:1;"/>
</svg>
