<svg width="24" height="24" viewBox="0 0 24 24" fill="none" xmlns="http://www.w3.org/2000/svg">
<path fill-rule="evenodd" clip-rule="evenodd" d="M2.99935 9.5C2.99935 8.60075 3.13123 7.73231 3.37671 6.91296L16.402 19.9383C15.9704 21.9732 14.1635 23.5 12 23.5C9.68372 23.5 7.77619 21.75 7.52746 19.5H2.90181C1.72366 19.5 1.00539 18.2041 1.62982 17.205C2.5248 15.773 2.99935 14.1184 2.99935 12.4297V9.5ZM9.55001 19.5C9.78164 20.6411 10.7905 21.5 12 21.5C13.2095 21.5 14.2184 20.6411 14.45 19.5H9.55001Z" fill="#080809" style="fill:#080809;fill:color(display-p3 0.0314 0.0314 0.0353);fill-opacity:1;"/>
<path d="M3.98525 5.40018C3.98533 5.40002 3.98517 5.40034 3.98525 5.40018L1.29289 2.70711C0.902369 2.31658 0.902369 1.68342 1.29289 1.29289C1.68342 0.902369 2.31658 0.902369 2.70711 1.29289L5.11585 3.70163C6.76679 1.74375 9.23782 0.5 11.9993 0.5C16.9699 0.5 20.9993 4.52944 20.9993 9.5V12.4273C20.9993 14.1168 21.4741 15.7723 22.3696 17.205C22.994 18.2041 22.2757 19.5 21.0976 19.5H20.9142L22.7071 21.2929C23.0976 21.6834 23.0976 22.3166 22.7071 22.7071C22.3166 23.0976 21.6834 23.0976 21.2929 22.7071L3.98525 5.40018Z" fill="#080809" style="fill:#080809;fill:color(display-p3 0.0314 0.0314 0.0353);fill-opacity:1;"/>
</svg>
