<svg width="24" height="24" viewBox="0 0 24 24" fill="none" xmlns="http://www.w3.org/2000/svg">
<path fill-rule="evenodd" clip-rule="evenodd" d="M4 7.5C4 6.67157 4.67157 6 5.5 6H9.5C10.3284 6 11 6.67157 11 7.5V14.5C11 15.3284 10.3284 16 9.5 16H5.5C4.67157 16 4 15.3284 4 14.5V7.5ZM6 8V14H9V8H6Z" fill="#080809" style="fill:#080809;fill:color(display-p3 0.0314 0.0314 0.0353);fill-opacity:1;"/>
<path d="M14 6C13.4477 6 13 6.44772 13 7C13 7.55228 13.4477 8 14 8H19C19.5523 8 20 7.55228 20 7C20 6.44772 19.5523 6 19 6H14Z" fill="#080809" style="fill:#080809;fill:color(display-p3 0.0314 0.0314 0.0353);fill-opacity:1;"/>
<path d="M13 11C13 10.4477 13.4477 10 14 10H19C19.5523 10 20 10.4477 20 11C20 11.5523 19.5523 12 19 12H14C13.4477 12 13 11.5523 13 11Z" fill="#080809" style="fill:#080809;fill:color(display-p3 0.0314 0.0314 0.0353);fill-opacity:1;"/>
<path d="M14 14C13.4477 14 13 14.4477 13 15C13 15.5523 13.4477 16 14 16H19C19.5523 16 20 15.5523 20 15C20 14.4477 19.5523 14 19 14H14Z" fill="#080809" style="fill:#080809;fill:color(display-p3 0.0314 0.0314 0.0353);fill-opacity:1;"/>
<path fill-rule="evenodd" clip-rule="evenodd" d="M0.5 7C0.5 4.23858 2.73858 2 5.5 2H18.5C21.2614 2 23.5 4.23858 23.5 7V15C23.5 17.7614 21.2614 20 18.5 20H12.6642L9.56066 23.1036C8.61571 24.0485 7 23.3792 7 22.0429V20H5.5C2.73858 20 0.5 17.7614 0.5 15V7ZM5.5 4C3.84315 4 2.5 5.34315 2.5 7V15C2.5 16.6569 3.84315 18 5.5 18H8C8.55228 18 9 18.4477 9 19V20.8358L11.5429 18.2929C11.7304 18.1054 11.9848 18 12.25 18H18.5C20.1569 18 21.5 16.6569 21.5 15V7C21.5 5.34315 20.1569 4 18.5 4H5.5Z" fill="#080809" style="fill:#080809;fill:color(display-p3 0.0314 0.0314 0.0353);fill-opacity:1;"/>
</svg>
