<svg width="24" height="24" viewBox="0 0 24 24" fill="none" xmlns="http://www.w3.org/2000/svg">
<path d="M10.3294 1.14574C9.25091 0.316003 7.74909 0.316003 6.67064 1.14574L2.17064 4.60795C1.43252 5.17585 1 6.05434 1 6.98565V16.7929C1 18.1292 2.61571 18.7985 3.56066 17.8536L5.41423 16H13C14.6569 16 16 14.6568 16 13L16 6.98564C16 6.05434 15.5675 5.17585 14.8293 4.60795L10.3294 1.14574Z" fill="#080809" style="fill:#080809;fill:color(display-p3 0.0314 0.0314 0.0353);fill-opacity:1;"/>
<path d="M19.1095 7.51213C18.8075 7.27981 18.3998 7.23925 18.058 7.40753C17.7162 7.57581 17.4997 7.92369 17.4997 8.30468L17.4997 9.69966C17.4996 11.2564 17.4989 12.3637 17.428 13.2307C17.3581 14.0861 17.225 14.619 17.0091 15.0428C16.5776 15.8895 15.8892 16.5779 15.0424 17.0093C14.6186 17.2252 14.0857 17.3583 13.2303 17.4281C12.3633 17.4989 11.2559 17.4996 9.69925 17.4995L9.06354 17.4995C8.75411 17.4995 8.4621 17.6427 8.2727 17.8874C8.0833 18.1321 8.01784 18.4507 8.09543 18.7502C8.42993 20.0417 9.60205 20.9966 10.9997 20.9966H18.5855L20.4391 22.8501C21.384 23.7951 22.9997 23.1258 22.9997 21.7895V11.9822C22.9997 11.0509 22.5672 10.1724 21.8291 9.60452L19.1095 7.51213Z" fill="#080809" style="fill:#080809;fill:color(display-p3 0.0314 0.0314 0.0353);fill-opacity:1;"/>
</svg>
