<svg width="24" height="24" viewBox="0 0 24 24" fill="none" xmlns="http://www.w3.org/2000/svg">
<g clip-path="url(#clip0_29901_26593)">
<path d="M7.29387 5.70688C7.68439 6.0974 8.31756 6.0974 8.70808 5.70688L11.0004 3.41459V7.99971C11.0004 8.55199 11.4481 8.99971 12.0004 8.99971C12.5527 8.99971 13.0004 8.55199 13.0004 7.99971V3.41339L15.2939 5.70688C15.6844 6.0974 16.3176 6.0974 16.7081 5.70688C17.0986 5.31636 17.0986 4.68319 16.7081 4.29267L13.7687 1.35333C12.7924 0.377014 11.2095 0.377018 10.2332 1.35333L7.29387 4.29267C6.90334 4.68319 6.90334 5.31636 7.29387 5.70688Z" fill="#080809" style="fill:#080809;fill:color(display-p3 0.0314 0.0314 0.0353);fill-opacity:1;"/>
<path d="M13.0001 15.9997C13.0001 15.4474 12.5524 14.9997 12.0001 14.9997C11.4478 14.9997 11.0001 15.4474 11.0001 15.9997V20.5846L8.70808 18.2926C8.31756 17.9021 7.68439 17.9021 7.29387 18.2926C6.90334 18.6831 6.90334 19.3163 7.29387 19.7068L10.2332 22.6462C11.2095 23.6225 12.7924 23.6225 13.7687 22.6462L16.7081 19.7068C17.0986 19.3163 17.0986 18.6831 16.7081 18.2926C16.3176 17.9021 15.6844 17.9021 15.2939 18.2926L13.0001 20.5864V15.9997Z" fill="#080809" style="fill:#080809;fill:color(display-p3 0.0314 0.0314 0.0353);fill-opacity:1;"/>
<path d="M5.70835 7.2926C6.09887 7.68312 6.09887 8.31629 5.70835 8.70681L3.41611 10.999H8C8.55228 10.999 9 11.4468 9 11.999C9 12.5513 8.55228 12.999 8 12.999H3.41479L5.70834 15.2926C6.09887 15.6831 6.09887 16.3163 5.70834 16.7068C5.31782 17.0973 4.68466 17.0973 4.29413 16.7068L1.35479 13.7675C0.378479 12.7912 0.378483 11.2082 1.35479 10.2319L4.29413 7.2926C4.68466 6.90208 5.31782 6.90208 5.70835 7.2926Z" fill="#080809" style="fill:#080809;fill:color(display-p3 0.0314 0.0314 0.0353);fill-opacity:1;"/>
<path d="M20.5869 12.9995L16 12.9995C15.4477 12.9995 15 12.5517 15 11.9995C15 11.4472 15.4477 10.9995 16 10.9995L20.5865 10.9995L18.2938 8.70681C17.9033 8.31629 17.9033 7.68313 18.2938 7.2926C18.6843 6.90208 19.3175 6.90208 19.708 7.2926L22.6474 10.2319C23.6237 11.2083 23.6237 12.7912 22.6474 13.7675L19.708 16.7068C19.3175 17.0973 18.6843 17.0973 18.2938 16.7068C17.9033 16.3163 17.9033 15.6831 18.2938 15.2926L20.5869 12.9995Z" fill="#080809" style="fill:#080809;fill:color(display-p3 0.0314 0.0314 0.0353);fill-opacity:1;"/>
</g>
<defs>
<clipPath id="clip0_29901_26593">
<rect width="24" height="24" fill="white" style="fill:white;fill-opacity:1;"/>
</clipPath>
</defs>
</svg>
