<svg width="24" height="24" viewBox="0 0 24 24" fill="none" xmlns="http://www.w3.org/2000/svg">
<path fill-rule="evenodd" clip-rule="evenodd" d="M7.5 1C5.29086 1 3.5 2.79086 3.5 5C3.5 7.20914 5.29086 9 7.5 9C9.70914 9 11.5 7.20914 11.5 5C11.5 2.79086 9.70914 1 7.5 1ZM5.5 5C5.5 3.89543 6.39543 3 7.5 3C8.60457 3 9.5 3.89543 9.5 5C9.5 6.10457 8.60457 7 7.5 7C6.39543 7 5.5 6.10457 5.5 5Z" fill="#080809" style="fill:#080809;fill:color(display-p3 0.0314 0.0314 0.0353);fill-opacity:1;"/>
<path d="M2.5 15.5C2.5 13.8431 3.84315 12.5 5.5 12.5H7C7.55228 12.5 8 12.0523 8 11.5C8 10.9477 7.55228 10.5 7 10.5H5.5C2.73858 10.5 0.5 12.7386 0.5 15.5C0.5 17.1569 1.84315 18.5 3.5 18.5H7C7.55228 18.5 8 18.0523 8 17.5C8 16.9477 7.55228 16.5 7 16.5H3.5C2.94772 16.5 2.5 16.0523 2.5 15.5Z" fill="#080809" style="fill:#080809;fill:color(display-p3 0.0314 0.0314 0.0353);fill-opacity:1;"/>
<path d="M19.7058 15.7071C20.0963 15.3166 20.0963 14.6834 19.7058 14.2929C19.3153 13.9023 18.6821 13.9023 18.2916 14.2929L15.4987 17.0858L14.7058 16.2929C14.3153 15.9023 13.6821 15.9023 13.2916 16.2929C12.9011 16.6834 12.9011 17.3166 13.2916 17.7071L14.0845 18.5C14.8655 19.281 16.1319 19.281 16.9129 18.5L19.7058 15.7071Z" fill="#080809" style="fill:#080809;fill:color(display-p3 0.0314 0.0314 0.0353);fill-opacity:1;"/>
<path fill-rule="evenodd" clip-rule="evenodd" d="M10 13C10 11.3431 11.3431 10 13 10H20C21.6569 10 23 11.3431 23 13V20C23 21.6569 21.6569 23 20 23H13C11.3431 23 10 21.6569 10 20V13ZM13 12C12.4477 12 12 12.4477 12 13V20C12 20.5523 12.4477 21 13 21H20C20.5523 21 21 20.5523 21 20V13C21 12.4477 20.5523 12 20 12H13Z" fill="#080809" style="fill:#080809;fill:color(display-p3 0.0314 0.0314 0.0353);fill-opacity:1;"/>
</svg>
