<svg width="24" height="24" viewBox="0 0 24 24" fill="none" xmlns="http://www.w3.org/2000/svg">
<g clip-path="url(#clip0_29901_26554)">
<path d="M23.4178 17.1486C23.2579 16.7137 22.9535 16.481 22.6068 16.2882C22.5416 16.25 22.4817 16.2195 22.4305 16.196C22.3271 16.1425 22.2213 16.0908 22.1161 16.0361C21.0355 15.4632 20.1916 14.7404 19.6063 13.8836C19.4401 13.6424 19.296 13.3867 19.1756 13.1197C19.1256 12.9769 19.128 12.8958 19.1638 12.8217C19.1994 12.7647 19.2464 12.7157 19.3019 12.6778C19.4876 12.555 19.6792 12.4304 19.8091 12.3463C20.0406 12.1965 20.2239 12.0778 20.3421 11.9938C20.7857 11.6835 21.096 11.3538 21.2899 10.9854C21.4252 10.7308 21.5041 10.4501 21.5213 10.1623C21.5384 9.87454 21.4934 9.58645 21.3892 9.31763C21.0954 8.5443 20.365 8.06419 19.48 8.06419C19.2933 8.06401 19.1072 8.08371 18.9247 8.12296C18.8759 8.13353 18.8271 8.1447 18.7795 8.15704C18.7877 7.62816 18.776 7.0699 18.729 6.52045C18.5621 4.58887 17.8857 3.57637 17.1805 2.76895C16.729 2.26298 16.1971 1.83492 15.6062 1.50199C14.5361 0.890842 13.3227 0.580566 11.9999 0.580566C10.6771 0.580566 9.4695 0.890842 8.39823 1.50199C7.80595 1.83502 7.27298 2.26394 6.82099 2.7713C6.11582 3.57872 5.43945 4.59299 5.27256 6.52281C5.22555 7.07225 5.21379 7.63345 5.22143 8.15939C5.17383 8.14705 5.12565 8.13588 5.07687 8.12531C4.89437 8.08607 4.70822 8.06637 4.52155 8.06654C3.63597 8.06654 2.90436 8.54665 2.61171 9.31998C2.50711 9.58892 2.46163 9.87722 2.47836 10.1653C2.49509 10.4534 2.57364 10.7345 2.70867 10.9895C2.90318 11.3579 3.21346 11.6876 3.65713 11.9979C3.77466 12.0801 3.95859 12.1988 4.19012 12.3505C4.31529 12.4316 4.49804 12.5503 4.67727 12.669C4.73998 12.7095 4.79328 12.763 4.83359 12.8259C4.8712 12.9028 4.87237 12.9857 4.81655 13.1385C4.69781 13.3999 4.55602 13.6503 4.39286 13.8866C3.82049 14.7239 3.00132 15.4338 1.95532 16.0021C1.40117 16.2959 0.82528 16.4922 0.581996 17.1533C0.398651 17.6522 0.51853 18.2198 0.98453 18.6982C1.15556 18.8767 1.35392 19.0269 1.57217 19.143C2.0263 19.3926 2.50919 19.5858 3.01013 19.7183C3.11351 19.745 3.21165 19.7889 3.30043 19.8482C3.47026 19.9969 3.44616 20.2207 3.67241 20.5487C3.78598 20.7181 3.93028 20.8648 4.09786 20.9812C4.57267 21.3091 5.10625 21.3296 5.67157 21.3514C6.18223 21.3708 6.76105 21.3931 7.42215 21.6111C7.69599 21.7016 7.98041 21.8767 8.31008 22.0812C9.10163 22.5678 10.1852 23.2336 11.9987 23.2336C13.8122 23.2336 14.9034 22.5643 15.7009 22.0759C16.0282 21.875 16.3108 21.7016 16.577 21.6135C17.2381 21.3949 17.817 21.3731 18.3276 21.3537C18.8929 21.332 19.4265 21.3114 19.9013 20.9835C20.0998 20.8451 20.2652 20.6645 20.3855 20.4546C20.5483 20.1778 20.5442 19.9845 20.697 19.8494C20.7803 19.7929 20.8724 19.7508 20.9697 19.7248C21.4774 19.5918 21.9669 19.3968 22.427 19.1442C22.6589 19.0198 22.8676 18.8564 23.044 18.6611L23.0499 18.6541C23.4871 18.1863 23.597 17.6351 23.4178 17.1486ZM21.8059 18.0147C20.8227 18.5577 20.1693 18.4995 19.661 18.8269C19.2291 19.1048 19.4847 19.7042 19.1709 19.9205C18.7854 20.1867 17.646 19.9017 16.1739 20.3876C14.9598 20.789 14.1853 21.9431 12.0016 21.9431C9.81797 21.9431 9.06167 20.7913 7.82762 20.3847C6.35852 19.8987 5.21673 20.1837 4.83065 19.9175C4.51744 19.7013 4.77189 19.1019 4.34056 18.8239C3.83166 18.4966 3.1782 18.5548 2.19566 18.0147C1.56982 17.6692 1.92476 17.4553 2.13337 17.3542C5.69448 15.6301 6.26273 12.9681 6.288 12.7706C6.31856 12.5314 6.35264 12.3434 6.08938 12.1001C5.83493 11.8651 4.70607 11.1664 4.39286 10.9478C3.87456 10.5858 3.64655 10.2244 3.81462 9.78011C3.93214 9.47277 4.21891 9.35701 4.51979 9.35701C4.61488 9.3573 4.70965 9.36794 4.80244 9.38874C5.37128 9.51214 5.92366 9.79715 6.24275 9.87413C6.28118 9.88399 6.32062 9.88932 6.36028 9.89C6.5307 9.89 6.59064 9.8042 6.57889 9.6091C6.54245 8.98679 6.45431 7.7739 6.55244 6.64033C6.68701 5.08073 7.18945 4.30798 7.78649 3.62455C8.07326 3.29606 9.42072 1.8722 11.9975 1.8722C14.5743 1.8722 15.9253 3.29019 16.2121 3.6175C16.8097 4.30093 17.3128 5.07368 17.4462 6.63328C17.5443 7.76685 17.4597 8.98033 17.4197 9.60205C17.4062 9.80714 17.4679 9.88294 17.6383 9.88294C17.678 9.88231 17.7174 9.87698 17.7558 9.86708C18.0755 9.7901 18.6279 9.50509 19.1967 9.38169C19.2895 9.36088 19.3843 9.35024 19.4794 9.34995C19.782 9.34995 20.067 9.46748 20.1846 9.77306C20.3526 10.2173 20.1258 10.5787 19.6069 10.9407C19.2937 11.1593 18.1648 11.8574 17.9104 12.0931C17.6465 12.3364 17.6812 12.5244 17.7118 12.7636C17.737 12.964 18.3047 15.626 21.8664 17.3472C22.0768 17.4524 22.4317 17.6663 21.8059 18.0147Z" fill="#080809" style="fill:#080809;fill:color(display-p3 0.0314 0.0314 0.0353);fill-opacity:1;"/>
</g>
<defs>
<clipPath id="clip0_29901_26554">
<rect width="24" height="24" fill="white" style="fill:white;fill-opacity:1;"/>
</clipPath>
</defs>
</svg>
