<svg width="24" height="24" viewBox="0 0 24 24" fill="none" xmlns="http://www.w3.org/2000/svg">
<path fill-rule="evenodd" clip-rule="evenodd" d="M12 3.5C9.79086 3.5 8 5.29086 8 7.5C8 9.70914 9.79086 11.5 12 11.5C14.2091 11.5 16 9.70914 16 7.5C16 5.29086 14.2091 3.5 12 3.5ZM10 7.5C10 6.39543 10.8954 5.5 12 5.5C13.1046 5.5 14 6.39543 14 7.5C14 8.60457 13.1046 9.5 12 9.5C10.8954 9.5 10 8.60457 10 7.5Z" fill="#080809" style="fill:#080809;fill:color(display-p3 0.0314 0.0314 0.0353);fill-opacity:1;"/>
<path d="M10.75 13C8.12665 13 6 15.1266 6 17.75C6 19.5449 7.45508 21 9.25 21H11.5661C12.1184 21 12.5661 20.5523 12.5661 20C12.5661 19.4477 12.1184 19 11.5661 19H9.25C8.55964 19 8 18.4404 8 17.75C8 16.2312 9.23122 15 10.75 15H13.25C13.2888 15 13.3274 15.0008 13.3657 15.0024C13.9176 15.0251 14.3833 14.5962 14.406 14.0443C14.4287 13.4925 13.9998 13.0268 13.448 13.0041C13.3823 13.0014 13.3163 13 13.25 13H10.75Z" fill="#080809" style="fill:#080809;fill:color(display-p3 0.0314 0.0314 0.0353);fill-opacity:1;"/>
<path fill-rule="evenodd" clip-rule="evenodd" d="M16.75 9.75C16.75 7.95507 18.2051 6.5 20 6.5C21.7949 6.5 23.25 7.95507 23.25 9.75C23.25 11.5449 21.7949 13 20 13C18.2051 13 16.75 11.5449 16.75 9.75ZM20 8.5C19.3096 8.5 18.75 9.05964 18.75 9.75C18.75 10.4404 19.3096 11 20 11C20.6904 11 21.25 10.4404 21.25 9.75C21.25 9.05964 20.6904 8.5 20 8.5Z" fill="#080809" style="fill:#080809;fill:color(display-p3 0.0314 0.0314 0.0353);fill-opacity:1;"/>
<path fill-rule="evenodd" clip-rule="evenodd" d="M4 6.5C5.79493 6.5 7.25 7.95507 7.25 9.75C7.25 11.5449 5.79493 13 4 13C2.20507 13 0.75 11.5449 0.75 9.75C0.75 7.95507 2.20507 6.5 4 6.5ZM5.25 9.75C5.25 9.05964 4.69036 8.5 4 8.5C3.30964 8.5 2.75 9.05964 2.75 9.75C2.75 10.4404 3.30964 11 4 11C4.69036 11 5.25 10.4404 5.25 9.75Z" fill="#080809" style="fill:#080809;fill:color(display-p3 0.0314 0.0314 0.0353);fill-opacity:1;"/>
<path d="M5 15.5C5 14.9477 4.55228 14.5 4 14.5H3.7C1.65655 14.5 0 16.1565 0 18.2C0 19.7464 1.2536 21 2.8 21H4C4.55228 21 5 20.5523 5 20C5 19.4477 4.55228 19 4 19H2.8C2.35817 19 2 18.6418 2 18.2C2 17.2611 2.76112 16.5 3.7 16.5H4C4.55228 16.5 5 16.0523 5 15.5Z" fill="#080809" style="fill:#080809;fill:color(display-p3 0.0314 0.0314 0.0353);fill-opacity:1;"/>
<path d="M20 15.5C20 14.9477 19.5523 14.5 19 14.5C18.4477 14.5 18 14.9477 18 15.5V18H15.5C14.9477 18 14.5 18.4477 14.5 19C14.5 19.5523 14.9477 20 15.5 20H18V22.5C18 23.0523 18.4477 23.5 19 23.5C19.5523 23.5 20 23.0523 20 22.5V20H22.5C23.0523 20 23.5 19.5523 23.5 19C23.5 18.4477 23.0523 18 22.5 18H20V15.5Z" fill="#080809" style="fill:#080809;fill:color(display-p3 0.0314 0.0314 0.0353);fill-opacity:1;"/>
</svg>
