<svg width="24" height="24" viewBox="0 0 24 24" fill="none" xmlns="http://www.w3.org/2000/svg">
<path d="M13 6.5C13 5.94772 12.5523 5.5 12 5.5C11.4477 5.5 11 5.94772 11 6.5V9L6.93418 9C6.04769 8.99995 5.28388 8.99991 4.67222 9.08215C4.0167 9.17028 3.38835 9.36902 2.87869 9.87868C2.36903 10.3883 2.17028 11.0167 2.08215 11.6722C2.00663 12.2339 2.0005 12.9239 2.00004 13.7194L3.24973 14.7191C3.9807 15.3039 5.01937 15.3039 5.75034 14.7191C7.21175 13.55 9.28832 13.55 10.7497 14.7191C11.4807 15.3039 12.5194 15.3039 13.2503 14.7191C14.7118 13.55 16.7883 13.55 18.2497 14.7191C18.9807 15.3039 20.0194 15.3039 20.7503 14.7191L22 13.7194C21.9995 12.9239 21.9934 12.2339 21.9179 11.6722C21.8297 11.0167 21.631 10.3883 21.1213 9.87868C20.6117 9.36902 19.9833 9.17028 19.3278 9.08215C18.7161 8.99991 17.9523 8.99995 17.0658 9L13 9V6.5Z" fill="#080809" style="fill:#080809;fill:color(display-p3 0.0314 0.0314 0.0353);fill-opacity:1;"/>
<path d="M2 18.0616L2 16.2806C3.46141 17.4497 5.53832 17.45 6.99973 16.2809C7.7307 15.6961 8.76937 15.6961 9.50034 16.2809C10.9618 17.45 13.0383 17.45 14.4997 16.2809C15.2307 15.6961 16.2694 15.6961 17.0003 16.2809C18.4618 17.45 20.5383 17.45 21.9997 16.2809L22 18.0616C22.0001 18.7157 22.0001 19.3034 21.9362 19.7792C21.8663 20.2985 21.7042 20.8313 21.2678 21.2678C20.8313 21.7042 20.2985 21.8663 19.7792 21.9362C19.3035 22.0001 18.7157 22.0001 18.0616 22H5.9384C5.28427 22.0001 4.69656 22.0001 4.22085 21.9362C3.70149 21.8663 3.16868 21.7042 2.73224 21.2678C2.2958 20.8313 2.13367 20.2985 2.06384 19.7792C1.99989 19.3035 1.99994 18.7157 2 18.0616Z" fill="#080809" style="fill:#080809;fill:color(display-p3 0.0314 0.0314 0.0353);fill-opacity:1;"/>
<path d="M10.7035 1.97346C10.6147 2.1422 10.5 2.40421 10.5 2.70011C10.5 3.50982 11.1267 4.25011 12 4.25011C12.8733 4.25011 13.5 3.50982 13.5 2.70011C13.5 2.40421 13.3853 2.1422 13.2965 1.97346C12.9819 1.37579 12.4714 0.910841 12 0.439453C11.529 0.911377 11.0181 1.37566 10.7035 1.97346Z" fill="#080809" style="fill:#080809;fill:color(display-p3 0.0314 0.0314 0.0353);fill-opacity:1;"/>
</svg>
