<svg width="24" height="24" viewBox="0 0 24 24" fill="none" xmlns="http://www.w3.org/2000/svg">
<path d="M18.25 8.5C18.25 10.0188 17.0188 11.25 15.5 11.25C13.9812 11.25 12.75 10.0188 12.75 8.5C12.75 6.98122 13.9812 5.75 15.5 5.75C17.0188 5.75 18.25 6.98122 18.25 8.5Z" fill="#080809" style="fill:#080809;fill:color(display-p3 0.0314 0.0314 0.0353);fill-opacity:1;"/>
<path fill-rule="evenodd" clip-rule="evenodd" d="M13.0421 1.47331C13.2616 0.88786 13.8213 0.5 14.4466 0.5H16.5536C17.1789 0.5 17.7385 0.887859 17.9581 1.47331L18.3321 2.47076C18.4946 2.90411 18.9333 3.16932 19.3925 3.11192L20.3194 2.99605C20.8832 2.92558 21.4384 3.17968 21.7536 3.65242L22.7907 5.20815C23.1364 5.72669 23.1255 6.40495 22.7632 6.91206L22.0442 7.91876C21.7958 8.26646 21.7958 8.73354 22.0442 9.08124L22.7632 10.0879C23.1255 10.5951 23.1364 11.2733 22.7907 11.7918L21.7536 13.3476C21.4384 13.8203 20.8832 14.0744 20.3194 14.0039L19.3925 13.8881C18.9333 13.8307 18.4946 14.0959 18.3321 14.5292L17.9581 15.5267C17.7385 16.1121 17.1789 16.5 16.5536 16.5H14.4466C13.8213 16.5 13.2616 16.1121 13.0421 15.5267L12.6857 14.5764C12.5192 14.1323 12.0636 13.8663 11.595 13.9395L10.7269 14.0751C10.1391 14.167 9.5526 13.9028 9.23191 13.4017L8.19016 11.774C7.85974 11.2577 7.87669 10.5923 8.23296 10.0935L8.94074 9.10263C9.19279 8.74975 9.18868 8.27463 8.93056 7.92616L8.24779 7.00443C7.88306 6.51204 7.85449 5.8473 8.17564 5.32544L9.22409 3.62171C9.54092 3.10686 10.1359 2.83252 10.7331 2.92584L11.595 3.06051C12.0636 3.13373 12.5192 2.86771 12.6857 2.42362L13.0421 1.47331ZM14.7931 2.5L14.5584 3.12587C14.0588 4.45813 12.6921 5.25619 11.2863 5.03654L10.7531 4.95322L10.0562 6.08567L10.5377 6.73571C11.312 7.78111 11.3244 9.20647 10.5682 10.2651L10.057 10.9807L10.7405 12.0487L11.2863 11.9635C12.6921 11.7438 14.0588 12.5419 14.5584 13.8741L14.7931 14.5H16.2071L16.4595 13.827C16.947 12.527 18.2629 11.7313 19.6406 11.9035L20.2609 11.9811L20.9352 10.9696L20.4167 10.2437C19.6716 9.20062 19.6716 7.79938 20.4167 6.75629L20.9352 6.03041L20.2609 5.01894L19.6406 5.09647C18.2629 5.26869 16.947 4.47304 16.4595 3.17301L16.2071 2.5H14.7931Z" fill="#080809" style="fill:#080809;fill:color(display-p3 0.0314 0.0314 0.0353);fill-opacity:1;"/>
<path fill-rule="evenodd" clip-rule="evenodd" d="M5.13603 15.1374L5.44089 14.3244C5.51407 14.1293 5.70063 14 5.90905 14H7.11609C7.32451 14 7.51107 14.1293 7.58425 14.3244L7.89795 15.161C8.06046 15.5943 8.49908 15.8595 8.95831 15.8021L9.76851 15.7008C9.95643 15.6773 10.1415 15.762 10.2465 15.9196L10.8337 16.8004C10.949 16.9732 10.9453 17.1993 10.8246 17.3683L10.2528 18.1688C10.0045 18.5165 10.0045 18.9835 10.2528 19.3312L10.8246 20.1317C10.9453 20.3007 10.949 20.5268 10.8337 20.6996L10.2465 21.5804C10.1415 21.738 9.95643 21.8227 9.76851 21.7992L8.95831 21.6979C8.49908 21.6405 8.06046 21.9057 7.89795 22.339L7.58425 23.1756C7.51107 23.3707 7.32451 23.5 7.11609 23.5H5.90905C5.70063 23.5 5.51407 23.3707 5.44089 23.1756L5.13603 22.3626C4.96949 21.9185 4.51392 21.6525 4.04533 21.7257L3.27242 21.8465C3.07649 21.8771 2.88099 21.789 2.7741 21.622L2.18233 20.6974C2.07219 20.5253 2.07784 20.3035 2.1966 20.1372L2.76469 19.3419C3.01675 18.9891 3.01264 18.5139 2.75451 18.1655L2.20125 17.4186C2.07967 17.2544 2.07015 17.0329 2.1772 16.8589L2.77566 15.8864C2.88127 15.7148 3.07958 15.6234 3.27867 15.6545L4.04533 15.7743C4.51392 15.8475 4.96949 15.5815 5.13603 15.1374ZM8.2627 18.75C8.2627 19.7165 7.47919 20.5 6.5127 20.5C5.5462 20.5 4.7627 19.7165 4.7627 18.75C4.7627 17.7835 5.5462 17 6.5127 17C7.47919 17 8.2627 17.7835 8.2627 18.75Z" fill="#080809" style="fill:#080809;fill:color(display-p3 0.0314 0.0314 0.0353);fill-opacity:1;"/>
</svg>
