<svg width="24" height="24" viewBox="0 0 24 24" fill="none" xmlns="http://www.w3.org/2000/svg">
<path fill-rule="evenodd" clip-rule="evenodd" d="M12 0.5C7.02944 0.5 3 4.52944 3 9.5C3 14.1326 6.50005 17.9476 11 18.4451V22.5C11 23.0523 11.4477 23.5 12 23.5C12.5523 23.5 13 23.0523 13 22.5V18.4451C17.5 17.9476 21 14.1326 21 9.5C21 4.52944 16.9706 0.5 12 0.5ZM13 5C13 4.44772 12.5523 4 12 4C11.4477 4 11 4.44772 11 5V11.1315L9.55459 10.1679C9.09507 9.86158 8.4742 9.98575 8.16784 10.4453C7.86149 10.9048 7.98567 11.5257 8.44519 11.832L11 13.5352V16C11 16.5523 11.4477 17 12 17C12.5523 17 13 16.5523 13 16V13.0012C13 13.0014 13 13.001 13 13.0012V10.5352L15.5548 8.83203C16.0143 8.52568 16.1385 7.90481 15.8322 7.44528C15.5258 6.98576 14.9049 6.86158 14.4454 7.16793L13 8.13154V5Z" fill="#080809" style="fill:#080809;fill:color(display-p3 0.0314 0.0314 0.0353);fill-opacity:1;"/>
</svg>
