<svg width="24" height="24" viewBox="0 0 24 24" fill="none" xmlns="http://www.w3.org/2000/svg">
<g clip-path="url(#clip0_29901_26019)">
<path fill-rule="evenodd" clip-rule="evenodd" d="M15.8043 9.5276L13.1756 7.61777C12.4746 7.10849 11.5254 7.10848 10.8245 7.61777L8.1958 9.5276C7.49483 10.0369 7.20151 10.9396 7.46926 11.7637L8.47332 14.8538C8.74106 15.6779 9.50898 16.2358 10.3754 16.2358H13.6246C14.4911 16.2358 15.259 15.6779 15.5267 14.8538L16.5308 11.7637C16.7985 10.9396 16.5052 10.0369 15.8043 9.5276ZM9.37137 11.1456L12 9.23581L14.6287 11.1456L13.6246 14.2358L10.3754 14.2358L9.37137 11.1456Z" fill="#080809" style="fill:#080809;fill:color(display-p3 0.0314 0.0314 0.0353);fill-opacity:1;"/>
<path fill-rule="evenodd" clip-rule="evenodd" d="M23.5 12C23.5 18.3513 18.3513 23.5 12 23.5C5.64873 23.5 0.5 18.3513 0.5 12C0.5 5.64847 5.64873 0.5 12 0.5C18.3513 0.5 23.5 5.64954 23.5 12ZM11.8007 2.50205C11.3372 2.51159 10.8818 2.55433 10.4369 2.62798L12 3.76367L13.5632 2.62799C13.1402 2.55796 12.7078 2.51587 12.2679 2.5037C12.1789 2.50124 12.0896 2.5 12 2.5C11.9334 2.5 11.8669 2.50068 11.8007 2.50205ZM15.9483 3.35679C15.9024 3.39705 15.8544 3.43547 15.8043 3.47188L13.1756 5.38171C12.4746 5.89099 11.5254 5.89099 10.8245 5.38171L8.1958 3.47188C8.14569 3.43547 8.09766 3.39704 8.05177 3.35677C6.80675 3.92642 5.70616 4.75717 4.82006 5.77897L5.7808 8.73581C6.04854 9.55985 5.75523 10.4626 5.05425 10.9719L2.53349 12.8033C2.65367 14.2386 3.09295 15.5832 3.78017 16.7659C3.81178 16.7644 3.84354 16.7637 3.87543 16.7637H7.12463C7.99108 16.7637 8.75899 17.3216 9.02674 18.1456L10.0308 21.2358C10.0377 21.2571 10.0442 21.2784 10.0504 21.2998C10.6797 21.431 11.3318 21.5 12 21.5C12.6682 21.5 13.3204 21.431 13.9497 21.2997C13.9558 21.2784 13.9624 21.2571 13.9693 21.2358L14.9733 18.1456C15.2411 17.3216 16.009 16.7637 16.8754 16.7637H20.1246C20.1565 16.7637 20.1882 16.7644 20.2198 16.7659C20.9071 15.5832 21.3463 14.2386 21.4665 12.8033L18.9458 10.9719C18.2448 10.4626 17.9515 9.55985 18.2193 8.73581L19.18 5.77901C18.2939 4.7572 17.1933 3.92645 15.9483 3.35679ZM20.585 7.92693L20.1214 9.35384L21.3367 10.2368C21.1845 9.42581 20.9292 8.65114 20.585 7.92693ZM18.671 18.7637L16.8754 18.7637L16.3239 20.4612C17.1922 20.0166 17.9831 19.4422 18.671 18.7637ZM7.67621 20.4613L7.12463 18.7637H5.32896C6.01689 19.4422 6.80783 20.0166 7.67621 20.4613ZM2.6633 10.2369L3.87868 9.35384L3.41503 7.92686C3.0708 8.65111 2.81551 9.42582 2.6633 10.2369Z" fill="#080809" style="fill:#080809;fill:color(display-p3 0.0314 0.0314 0.0353);fill-opacity:1;"/>
</g>
<defs>
<clipPath id="clip0_29901_26019">
<rect width="24" height="24" fill="white" style="fill:white;fill-opacity:1;"/>
</clipPath>
</defs>
</svg>
