<svg width="24" height="24" viewBox="0 0 24 24" fill="none" xmlns="http://www.w3.org/2000/svg">
<path d="M11 3C11 2.44772 11.4477 2 12 2C12.5523 2 13 2.44772 13 3V19.408C15.0985 17.3106 17.1949 15.2111 19.2929 13.1132C19.6834 12.7227 20.3166 12.7227 20.7071 13.1132C21.0976 13.5037 21.0976 14.1369 20.7071 14.5274C18.5092 16.7253 16.3129 18.9248 14.1142 21.122C12.9468 22.2886 11.0543 22.2934 9.88328 21.1265C7.68113 18.9322 5.49115 16.7257 3.2929 14.5274C2.90237 14.1369 2.90237 13.5037 3.29289 13.1132C3.68341 12.7227 4.31658 12.7227 4.7071 13.1132C6.81113 15.2172 8.89791 17.3191 11 19.4157V3Z" fill="#080809" style="fill:#080809;fill:color(display-p3 0.0314 0.0314 0.0353);fill-opacity:1;"/>
</svg>
