<svg width="24" height="24" viewBox="0 0 24 24" fill="none" xmlns="http://www.w3.org/2000/svg">
<path fill-rule="evenodd" clip-rule="evenodd" d="M2.70711 1.29289C2.31658 0.902369 1.68342 0.902369 1.29289 1.29289C0.902369 1.68342 0.902369 2.31658 1.29289 2.70711L2.55981 3.97403C2.55948 3.97425 2.55914 3.97448 2.5588 3.97471L6.82158 8.23748C6.82199 8.23733 6.82241 8.23719 6.82282 8.23704L8.47382 9.88803C8.47345 9.88823 8.47308 9.88842 8.47272 9.88862L13.2338 14.6497C13.2327 14.648 13.2315 14.6463 13.2303 14.6445L14.3677 15.7819C14.3659 15.7807 14.3642 15.7795 14.3624 15.7783L19.3749 20.7908C19.3753 20.7907 19.3758 20.7906 19.3763 20.7905L21.2929 22.7071C21.6834 23.0976 22.3166 23.0976 22.7071 22.7071C23.0976 22.3166 23.0976 21.6834 22.7071 21.2929L21.4402 20.026C21.6498 19.8851 21.8483 19.7227 22.0355 19.5355C22.8381 18.733 23.1833 17.7225 23.3446 16.5223C23.5001 15.3664 23.5 13.8966 23.5 12.0731V11.9269C23.5 10.1034 23.5001 8.63363 23.3446 7.47767C23.1833 6.27752 22.8381 5.26702 22.0355 4.46447C21.233 3.66191 20.2225 3.31672 19.0223 3.15537C17.8664 2.99995 16.3966 2.99998 14.5732 3H9.42684C7.60341 2.99998 6.13361 2.99995 4.97767 3.15537C4.85778 3.17149 4.73979 3.18944 4.62371 3.2095L2.70711 1.29289ZM12.6266 11.2124L14.8039 13.3897C14.3583 12.6163 14.393 11.6108 14.9722 10.8601C15.7249 9.88451 17.107 9.71586 18.0645 10.4734C18.4976 10.8161 19.1265 10.7428 19.4692 10.3097C19.8119 9.87655 19.7386 9.24764 19.3054 8.90496C17.4697 7.45247 14.8183 7.78536 13.3887 9.63846C13.0176 10.1195 12.7649 10.6561 12.6266 11.2124ZM15.6246 14.2104L17.7756 16.3614C18.4961 16.1713 19.1716 15.7878 19.719 15.2214C20.1028 14.8243 20.0921 14.1913 19.695 13.8074C19.2979 13.4236 18.6648 13.4344 18.281 13.8315C17.5809 14.5557 16.4868 14.7065 15.6246 14.2104Z" fill="#080809" style="fill:#080809;fill:color(display-p3 0.0314 0.0314 0.0353);fill-opacity:1;"/>
<path d="M0.655368 7.47767C0.78082 6.54457 1.0174 5.72611 1.49366 5.03088L5.47816 9.01538C5.26513 9.19904 5.0673 9.40692 4.88867 9.63846C3.4648 11.4841 3.78483 14.1488 5.61303 15.5952C7.32219 16.9475 9.73891 16.7528 11.219 15.2214C11.2994 15.1383 11.3624 15.0448 11.4083 14.9455L17.4312 20.9684C16.5954 21 15.6454 21 14.5731 21H9.42687C7.6034 21 6.13363 21.0001 4.97767 20.8446C3.77752 20.6833 2.76703 20.3381 1.96447 19.5355C1.16191 18.733 0.816723 17.7225 0.655368 16.5223C0.499956 15.3664 0.499976 13.8966 0.500001 12.0732V11.9268C0.499976 10.1034 0.499956 8.63361 0.655368 7.47767Z" fill="#080809" style="fill:#080809;fill:color(display-p3 0.0314 0.0314 0.0353);fill-opacity:1;"/>
<path d="M6.47219 10.8601C6.59882 10.696 6.74302 10.5548 6.89989 10.4371L10.081 13.6182C9.97165 13.6686 9.86965 13.7397 9.78096 13.8315C9.00529 14.634 7.74576 14.7324 6.854 14.0268C5.88896 13.2633 5.71374 11.8432 6.47219 10.8601Z" fill="#080809" style="fill:#080809;fill:color(display-p3 0.0314 0.0314 0.0353);fill-opacity:1;"/>
</svg>
