<svg width="24" height="24" viewBox="0 0 24 24" fill="none" xmlns="http://www.w3.org/2000/svg">
<path fill-rule="evenodd" clip-rule="evenodd" d="M12 0.5C12.6197 0.5 13.2289 0.548826 13.8232 0.643555C14.1368 0.693581 14.4078 0.889896 14.5537 1.17188C14.6813 1.41853 14.6996 1.70524 14.6084 1.96387L14.5625 2.07324C14.2025 2.80401 14 3.62695 14 4.5C14 7.53757 16.4624 10 19.5 10C20.3731 10 21.196 9.79748 21.9268 9.4375C22.2116 9.29718 22.5461 9.30037 22.8281 9.44629C23.1101 9.5922 23.3064 9.86324 23.3564 10.1768C23.4512 10.7711 23.5 11.3803 23.5 12C23.5 18.3513 18.3513 23.5 12 23.5C5.64873 23.5 0.5 18.3513 0.5 12C0.5 5.64873 5.64873 0.5 12 0.5ZM10.75 7.2373C9.75007 6.66013 8.50012 7.38158 8.5 8.53613V15.4639C8.5 16.6186 9.75 17.34 10.75 16.7627L16.75 13.2988C17.7499 12.7215 17.7499 11.2785 16.75 10.7012L10.75 7.2373Z" fill="#080809" style="fill:#080809;fill:color(display-p3 0.0314 0.0314 0.0353);fill-opacity:1;"/>
<path d="M18.5508 1.10449C18.9271 0.298571 20.0729 0.298592 20.4492 1.10449L20.6641 1.56445C21.0284 2.34477 21.6561 2.97173 22.4365 3.33594L22.8955 3.55078C23.7015 3.92708 23.7015 5.07291 22.8955 5.44922L22.4365 5.66406C21.656 6.02833 21.0283 6.656 20.6641 7.43652L20.4492 7.89551C20.0729 8.70149 18.9271 8.7015 18.5508 7.89551L18.3359 7.43652C17.9717 6.65615 17.3448 6.02836 16.5645 5.66406L16.1045 5.44922C15.2986 5.07289 15.2986 3.92709 16.1045 3.55078L16.5645 3.33594C17.3446 2.97171 17.9717 2.34461 18.3359 1.56445L18.5508 1.10449Z" fill="#080809" style="fill:#080809;fill:color(display-p3 0.0314 0.0314 0.0353);fill-opacity:1;"/>
</svg>
