<svg width="24" height="24" viewBox="0 0 24 24" fill="none" xmlns="http://www.w3.org/2000/svg">
<path fill-rule="evenodd" clip-rule="evenodd" d="M3.02345 2.00024C2.96573 1.99897 2.90712 2.00269 2.84808 2.01177C2.61092 2.04826 2.40611 2.16528 2.25721 2.33073C2.25173 2.33681 2.24632 2.34296 2.24098 2.34919C2.18752 2.41151 2.14247 2.47953 2.10632 2.55154C2.03784 2.68769 1.9999 2.84045 2 2.99956C1.99997 3.05041 2.00381 3.10153 2.01166 3.15249L5.01177 22.6522C5.09575 23.1981 5.60634 23.5725 6.1522 23.4885C6.69806 23.4045 7.07249 22.8939 6.98851 22.3481L6.16577 17.0002H19.646C20.9917 17.0002 21.9533 15.6982 21.5576 14.4121L20.0463 9.50024L21.5576 4.58842C21.9533 3.30231 20.9917 2.00024 19.646 2.00024H3.02345ZM5.86034 15.0002L4.16585 4.00024H19.646L18.1347 8.91207C18.0168 9.29532 18.0168 9.70517 18.1347 10.0884L19.646 15.0002H5.86034Z" fill="#080809" style="fill:#080809;fill:color(display-p3 0.0314 0.0314 0.0353);fill-opacity:1;"/>
</svg>
