<svg width="24" height="24" viewBox="0 0 24 24" fill="none" xmlns="http://www.w3.org/2000/svg">
<path d="M12.4961 5C12.4961 2.79086 14.287 1 16.4961 1C18.7052 1 20.4961 2.79086 20.4961 5C20.4961 7.20914 18.7052 9 16.4961 9C14.287 9 12.4961 7.20914 12.4961 5Z" fill="#080809" style="fill:#080809;fill:color(display-p3 0.0314 0.0314 0.0353);fill-opacity:1;"/>
<path d="M3.49609 9.5C3.49609 7.29086 5.28695 5.5 7.49609 5.5C9.70523 5.5 11.4961 7.29086 11.4961 9.5C11.4961 11.7091 9.70523 13.5 7.49609 13.5C5.28695 13.5 3.49609 11.7091 3.49609 9.5Z" fill="#080809" style="fill:#080809;fill:color(display-p3 0.0314 0.0314 0.0353);fill-opacity:1;"/>
<path d="M5.5 15C2.73858 15 0.5 17.2386 0.5 20C0.5 21.6569 1.84315 23 3.5 23H11.506C11.808 23 12.1014 22.9551 12.3788 22.8708C12.6499 22.7884 12.8734 22.5949 12.9936 22.3383C13.1139 22.0818 13.1196 21.7862 13.0094 21.5251C12.6823 20.7501 12.501 19.8975 12.501 19C12.501 18.32 12.6051 17.6663 12.7975 17.0527C12.9263 16.6417 12.7775 16.1944 12.4282 15.9424C11.6061 15.3496 10.5954 15 9.506 15H5.5Z" fill="#080809" style="fill:#080809;fill:color(display-p3 0.0314 0.0314 0.0353);fill-opacity:1;"/>
<path d="M19 14.5C19.5523 14.5 20 14.9477 20 15.5V18H22.5C23.0523 18 23.5 18.4477 23.5 19C23.5 19.5523 23.0523 20 22.5 20H20V22.5C20 23.0523 19.5523 23.5 19 23.5C18.4477 23.5 18 23.0523 18 22.5V20H15.5C14.9477 20 14.5 19.5523 14.5 19C14.5 18.4477 14.9477 18 15.5 18H18V15.5C18 14.9477 18.4477 14.5 19 14.5Z" fill="#080809" style="fill:#080809;fill:color(display-p3 0.0314 0.0314 0.0353);fill-opacity:1;"/>
<path d="M14.4999 10.5C13.829 10.5 13.342 10.9605 13.1667 11.4662C13.0811 11.7132 12.9797 11.9529 12.8638 12.1841C12.5157 12.8788 12.7332 13.7367 13.3887 14.1746C13.5008 14.2495 13.6107 14.3275 13.7181 14.4086C13.9384 14.5748 14.2517 14.5536 14.4486 14.3603C15.6213 13.2096 17.2282 12.5 19.0009 12.5C20.0463 12.5 21.034 12.7468 21.909 13.1852C22.3556 13.409 22.8743 13.015 22.585 12.6077C21.6789 11.3322 20.1896 10.5 18.5059 10.5H14.4999Z" fill="#080809" style="fill:#080809;fill:color(display-p3 0.0314 0.0314 0.0353);fill-opacity:1;"/>
</svg>
