<svg width="24" height="24" viewBox="0 0 24 24" fill="none" xmlns="http://www.w3.org/2000/svg">
<path fill-rule="evenodd" clip-rule="evenodd" d="M11 1C8.23858 1 6 3.23858 6 6C6 8.76142 8.23858 11 11 11C13.7614 11 16 8.76142 16 6C16 3.23858 13.7614 1 11 1ZM8 6C8 4.34315 9.34315 3 11 3C12.6569 3 14 4.34315 14 6C14 7.65685 12.6569 9 11 9C9.34315 9 8 7.65685 8 6Z" fill="#080809" style="fill:#080809;fill:color(display-p3 0.0314 0.0314 0.0353);fill-opacity:1;"/>
<path d="M8.33333 13C4.83553 13 2 15.8355 2 19.3333C2 21.3584 3.64162 23 5.66667 23H12.124C12.6763 23 13.124 22.5523 13.124 22C13.124 21.4477 12.6763 21 12.124 21H5.66667C4.74619 21 4 20.2538 4 19.3333C4 16.9401 5.9401 15 8.33333 15H13.4098C13.9621 15 14.4098 14.5523 14.4098 14C14.4098 13.4477 13.9621 13 13.4098 13H8.33333Z" fill="#080809" style="fill:#080809;fill:color(display-p3 0.0314 0.0314 0.0353);fill-opacity:1;"/>
<path fill-rule="evenodd" clip-rule="evenodd" d="M19 14.5C21.4853 14.5 23.5 16.5147 23.5 19C23.5 21.4853 21.4853 23.5 19 23.5C16.5147 23.5 14.5 21.4853 14.5 19C14.5 16.5147 16.5147 14.5 19 14.5ZM19.9136 16.6722L16.6722 19.9136C16.561 19.6306 16.5 19.3224 16.5 19C16.5 17.6193 17.6193 16.5 19 16.5C19.3224 16.5 19.6306 16.561 19.9136 16.6722ZM18.0864 21.3278C18.3694 21.439 18.6776 21.5 19 21.5C20.3807 21.5 21.5 20.3807 21.5 19C21.5 18.6776 21.439 18.3694 21.3278 18.0864L18.0864 21.3278Z" fill="#080809" style="fill:#080809;fill:color(display-p3 0.0314 0.0314 0.0353);fill-opacity:1;"/>
</svg>
