<svg width="24" height="24" viewBox="0 0 24 24" fill="none" xmlns="http://www.w3.org/2000/svg">
<path d="M20 14.5C20 15.0523 19.5523 15.5 19 15.5C18.4477 15.5 18 15.0523 18 14.5C18 13.9477 18.4477 13.5 19 13.5C19.5523 13.5 20 13.9477 20 14.5Z" fill="#080809" style="fill:#080809;fill:color(display-p3 0.0314 0.0314 0.0353);fill-opacity:1;"/>
<path d="M15.5 15.5C16.0523 15.5 16.5 15.0523 16.5 14.5C16.5 13.9477 16.0523 13.5 15.5 13.5C14.9477 13.5 14.5 13.9477 14.5 14.5C14.5 15.0523 14.9477 15.5 15.5 15.5Z" fill="#080809" style="fill:#080809;fill:color(display-p3 0.0314 0.0314 0.0353);fill-opacity:1;"/>
<path fill-rule="evenodd" clip-rule="evenodd" d="M0.500001 12.0706V9.92943C0.499967 8.57533 0.499939 7.45869 0.618756 6.57494C0.743499 5.64711 1.01547 4.82769 1.67158 4.17158C2.32769 3.51547 3.14711 3.2435 4.07494 3.11876C4.95869 2.99994 6.07529 2.99997 7.42939 3H16.5706C17.9247 2.99997 19.0413 2.99994 19.9251 3.11876C20.8529 3.2435 21.6723 3.51547 22.3284 4.17158C22.9845 4.82769 23.2565 5.64711 23.3813 6.57494C23.5001 7.45869 23.5 8.57529 23.5 9.92939V12.0705C23.5 13.4246 23.5001 14.5413 23.3813 15.4251C23.2565 16.3529 22.9845 17.1723 22.3284 17.8284C21.6723 18.4845 20.8529 18.7565 19.9251 18.8813C19.0413 19.0001 17.9247 19 16.5707 19H7.42943C6.07534 19 4.95868 19.0001 4.07494 18.8813C3.14711 18.7565 2.32769 18.4845 1.67158 17.8284C1.01547 17.1723 0.743499 16.3529 0.618756 15.4251C0.499939 14.5413 0.499967 13.4247 0.500001 12.0706ZM3.08579 5.58579C2.86322 5.80836 2.69585 6.13538 2.60092 6.84144C2.50213 7.57626 2.5 8.55752 2.5 10L2.5 12C2.5 13.4425 2.50213 14.4238 2.60092 15.1586C2.69585 15.8646 2.86322 16.1916 3.08579 16.4142C3.30836 16.6368 3.63538 16.8042 4.34144 16.8991C5.07626 16.9979 6.05752 17 7.5 17H16.5C17.9425 17 18.9238 16.9979 19.6586 16.8991C20.3646 16.8042 20.6916 16.6368 20.9142 16.4142C21.1368 16.1916 21.3042 15.8646 21.3991 15.1586C21.4979 14.4238 21.5 13.4425 21.5 12V10C21.5 8.55752 21.4979 7.57626 21.3991 6.84144C21.3042 6.13538 21.1368 5.80836 20.9142 5.58579C20.6916 5.36322 20.3646 5.19585 19.6586 5.10092C18.9238 5.00213 17.9425 5 16.5 5L7.5 5C6.05752 5 5.07626 5.00213 4.34144 5.10092C3.63538 5.19585 3.30836 5.36322 3.08579 5.58579Z" fill="#080809" style="fill:#080809;fill:color(display-p3 0.0314 0.0314 0.0353);fill-opacity:1;"/>
<path d="M5 20.5C4.44772 20.5 4 20.9477 4 21.5C4 22.0523 4.44772 22.5 5 22.5H19C19.5523 22.5 20 22.0523 20 21.5C20 20.9477 19.5523 20.5 19 20.5H5Z" fill="#080809" style="fill:#080809;fill:color(display-p3 0.0314 0.0314 0.0353);fill-opacity:1;"/>
</svg>
