<svg width="24" height="24" viewBox="0 0 24 24" fill="none" xmlns="http://www.w3.org/2000/svg">
<path d="M7.25 2.25C7.25 1.55964 6.69036 1 6 1C5.30964 1 4.75 1.55964 4.75 2.25V4.75H2.25C1.55964 4.75 1 5.30964 1 6C1 6.69036 1.55964 7.25 2.25 7.25H4.75V16.5C4.75 18.0188 5.98122 19.25 7.5 19.25H13.75C14.4404 19.25 15 18.6904 15 18C15 17.3096 14.4404 16.75 13.75 16.75H7.5C7.36193 16.75 7.25 16.6381 7.25 16.5V2.25Z" fill="#080809" style="fill:#080809;fill:color(display-p3 0.0314 0.0314 0.0353);fill-opacity:1;"/>
<path d="M19.25 19.25V21.75C19.25 22.4404 18.6904 23 18 23C17.3096 23 16.75 22.4404 16.75 21.75V7.5C16.75 7.36193 16.6381 7.25 16.5 7.25H10.25C9.55964 7.25 9 6.69036 9 6C9 5.30964 9.55964 4.75 10.25 4.75H16.5C18.0188 4.75 19.25 5.98122 19.25 7.5V16.75H21.75C22.4404 16.75 23 17.3096 23 18C23 18.6904 22.4404 19.25 21.75 19.25H19.25Z" fill="#080809" style="fill:#080809;fill:color(display-p3 0.0314 0.0314 0.0353);fill-opacity:1;"/>
</svg>
