<svg width="24" height="24" viewBox="0 0 24 24" fill="none" xmlns="http://www.w3.org/2000/svg">
<path d="M9.5 7C10.0523 7 10.5 7.44772 10.5 8V11H13.5C14.0523 11 14.5 11.4477 14.5 12C14.5 12.5523 14.0523 13 13.5 13H10.5V16C10.5 16.5523 10.0523 17 9.5 17C8.94771 17 8.5 16.5523 8.5 16V13H5.5C4.94771 13 4.5 12.5523 4.5 12C4.5 11.4477 4.94771 11 5.5 11H8.5V8C8.5 7.44772 8.94771 7 9.5 7Z" fill="#080809" style="fill:#080809;fill:color(display-p3 0.0314 0.0314 0.0353);fill-opacity:1;"/>
<path fill-rule="evenodd" clip-rule="evenodd" d="M9.57316 3H9.42683C7.60339 2.99997 6.13362 2.99995 4.97766 3.15537C3.77752 3.31672 2.76702 3.66191 1.96446 4.46447C1.16191 5.26702 0.816717 6.27752 0.655362 7.47767C0.499948 8.63362 0.49997 10.1034 0.499997 11.9268V12.0732C0.49997 13.8966 0.499948 15.3664 0.655362 16.5223C0.816717 17.7225 1.16191 18.733 1.96446 19.5355C2.76702 20.3381 3.77752 20.6833 4.97766 20.8446C6.13363 21.0001 7.60339 21 9.42686 21H9.57314C11.3966 21 12.8664 21.0001 14.0223 20.8446C15.2225 20.6833 16.233 20.3381 17.0355 19.5355C17.8381 18.733 18.1833 17.7225 18.3446 16.5223C18.3961 16.1392 18.4306 15.7215 18.4536 15.268L21.1119 17.221C22.1025 17.9488 23.5 17.2414 23.5 16.0122V7.95548C23.5 6.74475 22.1396 6.03289 21.1449 6.72309L18.4463 8.59559C18.4234 8.19439 18.3909 7.8221 18.3446 7.47767C18.1833 6.27752 17.8381 5.26702 17.0355 4.46447C16.233 3.66191 15.2225 3.31672 14.0223 3.15537C12.8664 2.99995 11.3966 2.99997 9.57316 3ZM18.5 11.7596C18.5 11.815 18.5 11.8708 18.5 11.9269V12.0731C18.5 12.1292 18.5 12.185 18.5 12.2404V12.8203L21.5 15.0244V8.91099L18.5 10.9926V11.7596ZM16.5 11.9136C16.4999 10.0458 16.4958 8.73608 16.3625 7.74416C16.2309 6.7658 15.9903 6.2477 15.6213 5.87868C15.2523 5.50966 14.7342 5.26907 13.7558 5.13753C12.7487 5.00213 11.4139 5 9.5 5C7.58611 5 6.25129 5.00213 5.24416 5.13753C4.26579 5.26907 3.7477 5.50966 3.37868 5.87868C3.00966 6.2477 2.76907 6.7658 2.63753 7.74416C2.50212 8.7513 2.5 10.0861 2.5 12C2.5 13.9139 2.50212 15.2487 2.63753 16.2558C2.76907 17.2342 3.00966 17.7523 3.37868 18.1213C3.7477 18.4903 4.26579 18.7309 5.24416 18.8625C6.25129 18.9979 7.58611 19 9.5 19C11.4139 19 12.7487 18.9979 13.7558 18.8625C14.7342 18.7309 15.2523 18.4903 15.6213 18.1213C15.9903 17.7523 16.2309 17.2342 16.3625 16.2558C16.4958 15.2639 16.4999 13.9542 16.5 12.0864C16.5 12.0577 16.5 12.0289 16.5 12C16.5 11.9711 16.5 11.9423 16.5 11.9136Z" fill="#080809" style="fill:#080809;fill:color(display-p3 0.0314 0.0314 0.0353);fill-opacity:1;"/>
</svg>
