<svg width="24" height="24" viewBox="0 0 24 24" fill="none" xmlns="http://www.w3.org/2000/svg">
<path d="M8.25 8C8.25 5.92893 9.92893 4.25 12 4.25C14.0711 4.25 15.75 5.92893 15.75 8C15.75 9.41787 14.9636 10.6539 13.7972 11.2924C13.1066 11.6704 12.3717 12.1899 11.7957 12.8615C11.2142 13.5395 10.75 14.4294 10.75 15.5V16C10.75 16.6904 11.3096 17.25 12 17.25C12.6904 17.25 13.25 16.6904 13.25 16V15.5C13.25 15.1899 13.3789 14.8557 13.6934 14.489C14.0133 14.116 14.4771 13.7702 14.9977 13.4853C16.933 12.4258 18.25 10.3676 18.25 8C18.25 4.54822 15.4518 1.75 12 1.75C8.54822 1.75 5.75 4.54822 5.75 8C5.75 8.69036 6.30964 9.25 7 9.25C7.69036 9.25 8.25 8.69036 8.25 8Z" fill="#080809" style="fill:#080809;fill:color(display-p3 0.0314 0.0314 0.0353);fill-opacity:1;"/>
<path d="M12 22C12.8284 22 13.5 21.3284 13.5 20.5C13.5 19.6716 12.8284 19 12 19C11.1716 19 10.5 19.6716 10.5 20.5C10.5 21.3284 11.1716 22 12 22Z" fill="#080809" style="fill:#080809;fill:color(display-p3 0.0314 0.0314 0.0353);fill-opacity:1;"/>
</svg>
