<svg width="24" height="24" viewBox="0 0 24 24" fill="none" xmlns="http://www.w3.org/2000/svg">
<path d="M4.47759 1.92C4.65136 2.06245 4.7521 2.27531 4.7521 2.50001V7.00001C4.7521 7.41422 4.41631 7.75001 4.0021 7.75001C3.58788 7.75001 3.2521 7.41422 3.2521 7.00001V3.41486L2.89918 3.48544C2.49302 3.56668 2.0979 3.30326 2.01666 2.89709C1.93543 2.49092 2.19884 2.0958 2.60501 2.01457L3.85501 1.76457C4.07534 1.7205 4.30382 1.77755 4.47759 1.92Z" fill="#080809" style="fill:#080809;fill:color(display-p3 0.0314 0.0314 0.0353);fill-opacity:1;"/>
<path d="M9.00195 3.75C8.3116 3.75 7.75195 4.30964 7.75195 5C7.75195 5.69035 8.3116 6.25 9.00195 6.25L21.002 6.25C21.6923 6.25 22.252 5.69036 22.252 5C22.252 4.30964 21.6923 3.75 21.002 3.75L9.00195 3.75Z" fill="#080809" style="fill:#080809;fill:color(display-p3 0.0314 0.0314 0.0353);fill-opacity:1;"/>
<path d="M9.00195 17.75C8.3116 17.75 7.75195 18.3096 7.75195 19C7.75195 19.6904 8.3116 20.25 9.00195 20.25L21.002 20.25C21.6923 20.25 22.252 19.6904 22.252 19C22.252 18.3096 21.6923 17.75 21.002 17.75L9.00195 17.75Z" fill="#080809" style="fill:#080809;fill:color(display-p3 0.0314 0.0314 0.0353);fill-opacity:1;"/>
<path d="M7.75195 12C7.75195 11.3096 8.3116 10.75 9.00195 10.75L21.002 10.75C21.6923 10.75 22.252 11.3096 22.252 12C22.252 12.6904 21.6923 13.25 21.002 13.25L9.00195 13.25C8.3116 13.25 7.75195 12.6904 7.75195 12Z" fill="#080809" style="fill:#080809;fill:color(display-p3 0.0314 0.0314 0.0353);fill-opacity:1;"/>
<path d="M3.50976 10.8477C3.66873 10.6888 3.92648 10.6888 4.08546 10.8477C4.24444 11.0067 4.24444 11.2645 4.08546 11.4235L2.04 13.4689C1.82551 13.6834 1.76134 14.006 1.87742 14.2862C1.99351 14.5665 2.26699 14.7492 2.57033 14.7492H5.00198C5.41619 14.7492 5.75198 14.4135 5.75198 13.9992C5.75198 13.585 5.41619 13.2492 5.00198 13.2492H4.38099L5.14612 12.4841C5.89088 11.7393 5.89088 10.5318 5.14612 9.78709C4.40136 9.04233 3.19386 9.04232 2.4491 9.78709L2.04 10.1962C1.74711 10.4891 1.74711 10.9639 2.04 11.2568C2.3329 11.5497 2.80777 11.5497 3.10066 11.2568L3.50976 10.8477Z" fill="#080809" style="fill:#080809;fill:color(display-p3 0.0314 0.0314 0.0353);fill-opacity:1;"/>
<path d="M3.50973 20.1523C3.66871 20.3112 3.92646 20.3112 4.08544 20.1523C4.24441 19.9933 4.24441 19.7355 4.08544 19.5765L3.4718 18.9629C3.23986 18.731 3.18555 18.3752 3.33772 18.0846L3.51257 17.7508H2.75195C2.33774 17.7508 2.00195 17.415 2.00195 17.0008C2.00195 16.5865 2.33774 16.2508 2.75195 16.2508H4.75195C5.01439 16.2508 5.25774 16.3879 5.39361 16.6125C5.52948 16.837 5.53811 17.1162 5.41636 17.3487L4.92231 18.2921L5.1461 18.5159C5.89086 19.2607 5.89086 20.4681 5.1461 21.2129C4.40133 21.9577 3.19384 21.9577 2.44907 21.2129L2.03998 20.8038C1.74709 20.5109 1.74709 20.0361 2.03998 19.7432C2.33288 19.4503 2.80775 19.4503 3.10064 19.7432L3.50973 20.1523Z" fill="#080809" style="fill:#080809;fill:color(display-p3 0.0314 0.0314 0.0353);fill-opacity:1;"/>
</svg>
