<svg width="24" height="24" viewBox="0 0 24 24" fill="none" xmlns="http://www.w3.org/2000/svg">
<path fill-rule="evenodd" clip-rule="evenodd" d="M12 0.5C12.6197 0.5 13.2289 0.548826 13.8232 0.643555C14.1368 0.693581 14.4078 0.889896 14.5537 1.17188C14.6813 1.41853 14.6996 1.70524 14.6084 1.96387L14.5625 2.07324C14.2025 2.80401 14 3.62695 14 4.5C14 7.53757 16.4624 10 19.5 10C20.3731 10 21.196 9.79748 21.9268 9.4375C22.2116 9.29718 22.5461 9.30037 22.8281 9.44629C23.1101 9.5922 23.3064 9.86324 23.3564 10.1768C23.4512 10.7711 23.5 11.3803 23.5 12C23.5 15.9473 21.5106 19.429 18.4805 21.5H22.5C23.0523 21.5 23.5 21.9477 23.5 22.5C23.5 23.0523 23.0523 23.5 22.5 23.5H12C5.64873 23.5 0.5 18.3513 0.5 12C0.5 5.64873 5.64873 0.5 12 0.5ZM12 14.5C10.8954 14.5 10 15.3954 10 16.5C10 17.6046 10.8954 18.5 12 18.5C13.1046 18.5 14 17.6046 14 16.5C14 15.3954 13.1046 14.5 12 14.5ZM7.5 10C6.39543 10 5.5 10.8954 5.5 12C5.5 13.1046 6.39543 14 7.5 14C8.60457 14 9.5 13.1046 9.5 12C9.5 10.8954 8.60457 10 7.5 10ZM16.5 10C15.3954 10 14.5 10.8954 14.5 12C14.5 13.1046 15.3954 14 16.5 14C17.6046 14 18.5 13.1046 18.5 12C18.5 10.8954 17.6046 10 16.5 10ZM12 5.5C10.8954 5.5 10 6.39543 10 7.5C10 8.60457 10.8954 9.5 12 9.5C13.1046 9.5 14 8.60457 14 7.5C14 6.39543 13.1046 5.5 12 5.5Z" fill="#080809" style="fill:#080809;fill:color(display-p3 0.0314 0.0314 0.0353);fill-opacity:1;"/>
<path d="M18.5508 1.10449C18.9271 0.298602 20.0729 0.29856 20.4492 1.10449L20.6641 1.56445C21.0283 2.34461 21.6554 2.97171 22.4355 3.33594L22.8955 3.55078C23.7014 3.92711 23.7013 5.07287 22.8955 5.44922L22.4355 5.66406C21.6552 6.02836 21.0283 6.65613 20.6641 7.43652L20.4492 7.89551C20.0729 8.70152 18.9271 8.70147 18.5508 7.89551L18.3359 7.43652C17.9717 6.656 17.344 6.02833 16.5635 5.66406L16.1045 5.44922C15.2985 5.07292 15.2984 3.92706 16.1045 3.55078L16.5635 3.33594C17.3439 2.97173 17.9716 2.34478 18.3359 1.56445L18.5508 1.10449Z" fill="#080809" style="fill:#080809;fill:color(display-p3 0.0314 0.0314 0.0353);fill-opacity:1;"/>
</svg>
