<svg width="24" height="24" viewBox="0 0 24 24" fill="none" xmlns="http://www.w3.org/2000/svg">
<path d="M3 4C3 3.44772 3.44772 3 4 3H16C16.5523 3 17 3.44772 17 4V6.5C17 7.05228 17.4477 7.5 18 7.5C18.5523 7.5 19 7.05228 19 6.5V4C19 2.34315 17.6569 1 16 1H4C2.34315 1 1 2.34315 1 4V12C1 12.7602 1.28402 13.4564 1.75026 13.9846C2.11573 14.3987 2.74766 14.4381 3.16173 14.0727C3.5758 13.7072 3.6152 13.0752 3.24974 12.6612C3.09361 12.4843 3 12.2543 3 12V4Z" fill="#080809" style="fill:#080809;fill:color(display-p3 0.0314 0.0314 0.0353);fill-opacity:1;"/>
<path d="M8 23C6.34315 23 5 21.6569 5 20V12C5 10.3431 6.34315 9 8 9H20C21.6569 9 23 10.3431 23 12V20C23 21.6569 21.6569 23 20 23H8Z" fill="#080809" style="fill:#080809;fill:color(display-p3 0.0314 0.0314 0.0353);fill-opacity:1;"/>
</svg>
