<svg width="24" height="24" viewBox="0 0 24 24" fill="none" xmlns="http://www.w3.org/2000/svg">
<g clip-path="url(#clip0_29901_28109)">
<path fill-rule="evenodd" clip-rule="evenodd" d="M11.2401 0.119505C11.7442 0.0552172 12.2543 0.0552172 12.7584 0.119505C13.8613 0.260174 14.8029 0.782712 15.7809 1.56147C16.7326 2.31929 17.8089 3.3956 19.1625 4.74929L19.2502 4.83696C20.6039 6.19059 21.6802 7.26691 22.438 8.2186C23.2168 9.19659 23.7393 10.1382 23.88 11.2411C23.9443 11.7451 23.9443 12.2553 23.88 12.7593C23.7393 13.8622 23.2168 14.8039 22.438 15.7818C21.6802 16.7335 20.6039 17.8098 19.2502 19.1635L19.1625 19.2512C17.8088 20.6049 16.7326 21.6812 15.7809 22.439C14.8029 23.2177 13.8613 23.7403 12.7584 23.8809C12.2543 23.9452 11.7442 23.9452 11.2401 23.8809C10.1372 23.7403 9.19562 23.2177 8.21762 22.439C7.26595 21.6812 6.18969 20.6049 4.83607 19.2513L4.74829 19.1635C3.3946 17.8098 2.31832 16.7335 1.5605 15.7818C0.781736 14.8039 0.259197 13.8622 0.118528 12.7593C0.0542407 12.2553 0.0542407 11.7451 0.118528 11.2411C0.259197 10.1382 0.781736 9.19659 1.5605 8.2186C2.31832 7.26689 3.39462 6.19061 4.74831 4.83694L4.83598 4.74927C6.18965 3.39558 7.26592 2.31929 8.21762 1.56147C9.19562 0.782712 10.1372 0.260174 11.2401 0.119505ZM11.9992 7.50024C12.4031 7.50024 12.7674 7.74326 12.9225 8.11621L13.6137 9.77805L15.4078 9.92188C15.8104 9.95416 16.1541 10.2255 16.2789 10.6097C16.4037 10.9938 16.2852 11.4154 15.9784 11.6781L14.6115 12.849L15.0291 14.5998C15.1228 14.9927 14.971 15.4034 14.6442 15.6408C14.3174 15.8782 13.8799 15.8958 13.5351 15.6852L11.9992 14.747L10.4632 15.6852C10.1184 15.8958 9.68091 15.8782 9.35412 15.6408C9.02733 15.4034 8.87547 14.9927 8.96919 14.5998L9.38681 12.849L8.0199 11.6781C7.71313 11.4154 7.59458 10.9938 7.7194 10.6097C7.84422 10.2255 8.1879 9.95416 8.59054 9.92188L10.3846 9.77805L11.0758 8.11621C11.231 7.74326 11.5952 7.50024 11.9992 7.50024Z" fill="#080809" style="fill:#080809;fill:color(display-p3 0.0314 0.0314 0.0353);fill-opacity:1;"/>
</g>
<defs>
<clipPath id="clip0_29901_28109">
<rect width="24" height="24" fill="white" style="fill:white;fill-opacity:1;"/>
</clipPath>
</defs>
</svg>
