<svg width="24" height="24" viewBox="0 0 24 24" fill="none" xmlns="http://www.w3.org/2000/svg">
<g clip-path="url(#clip0_29901_28515)">
<path d="M8.5 9.5C9.60457 9.5 10.5 8.60457 10.5 7.5C10.5 6.39543 9.60457 5.5 8.5 5.5C7.39543 5.5 6.5 6.39543 6.5 7.5C6.5 8.60457 7.39543 9.5 8.5 9.5Z" fill="#080809" style="fill:#080809;fill:color(display-p3 0.0314 0.0314 0.0353);fill-opacity:1;"/>
<path fill-rule="evenodd" clip-rule="evenodd" d="M12 0.5C18.3513 0.5 23.5 5.64873 23.5 12C23.5 13.6057 23.1704 15.1364 22.5746 16.5266C22.5716 16.534 22.5685 16.5414 22.5654 16.5487C22.4505 16.8151 22.326 17.0763 22.1921 17.3318C22.1493 17.4136 22.1243 17.4934 22.1137 17.5678C22.1029 17.6445 22.1074 17.7154 22.1233 17.7765L23.0047 21.1762C23.0563 21.3752 23.066 21.571 23.0409 21.7566C23.0395 21.7672 23.0379 21.7778 23.0363 21.7883C22.9057 22.6203 22.0734 23.2383 21.1761 23.0057L17.7764 22.1242C17.6558 22.093 17.4971 22.106 17.3307 22.1932C15.7361 23.0288 13.9217 23.501 11.9999 23.501C8.12509 23.501 4.69817 21.5837 2.61619 18.6505C2.60916 18.6406 2.60233 18.6306 2.59571 18.6205C1.27545 16.7486 0.5 14.4648 0.5 12C0.5 5.64873 5.64873 0.5 12 0.5ZM21.2176 14.3093L17.7665 10.8582C16.7901 9.8819 15.2072 9.8819 14.2309 10.8582L9.85225 15.2369C9.65698 15.4322 9.3404 15.4322 9.14514 15.2369L8.76646 14.8582C7.79015 13.8819 6.20724 13.8819 5.23092 14.8582L3.61658 16.4726C2.904 15.1397 2.5 13.617 2.5 12C2.5 6.75329 6.75329 2.5 12 2.5C17.2467 2.5 21.5 6.75329 21.5 12C21.5 12.7971 21.402 13.5705 21.2176 14.3093Z" fill="#080809" style="fill:#080809;fill:color(display-p3 0.0314 0.0314 0.0353);fill-opacity:1;"/>
</g>
<defs>
<clipPath id="clip0_29901_28515">
<rect width="24" height="24" fill="white" style="fill:white;fill-opacity:1;"/>
</clipPath>
</defs>
</svg>
