<svg width="24" height="24" viewBox="0 0 24 24" fill="none" xmlns="http://www.w3.org/2000/svg">
<path d="M3 9.5C3 4.52944 7.02944 0.5 12 0.5C16.9706 0.5 21 4.52944 21 9.5C21 12.1395 19.6487 14.9223 18.1412 17.2364C16.6123 19.5833 14.8163 21.6064 13.7233 22.7583C12.7803 23.7519 11.2197 23.7519 10.2767 22.7583C9.18369 21.6064 7.3877 19.5833 5.8588 17.2364C4.35131 14.9223 3 12.1395 3 9.5ZM15.7071 5.79289C15.3166 5.40237 14.6834 5.40237 14.2929 5.79289L12 8.08579L9.70711 5.79289C9.31658 5.40237 8.68342 5.40237 8.29289 5.79289C7.90237 6.18342 7.90237 6.81658 8.29289 7.20711L10.5858 9.5L8.29289 11.7929C7.90237 12.1834 7.90237 12.8166 8.29289 13.2071C8.68342 13.5976 9.31658 13.5976 9.70711 13.2071L12 10.9142L14.2929 13.2071C14.6834 13.5976 15.3166 13.5976 15.7071 13.2071C16.0976 12.8166 16.0976 12.1834 15.7071 11.7929L13.4142 9.5L15.7071 7.20711C16.0976 6.81658 16.0976 6.18342 15.7071 5.79289Z" fill="#080809" style="fill:#080809;fill:color(display-p3 0.0314 0.0314 0.0353);fill-opacity:1;"/>
</svg>
