<svg width="24" height="24" viewBox="0 0 24 24" fill="none" xmlns="http://www.w3.org/2000/svg">
<g clip-path="url(#clip0_29901_28362)">
<path fill-rule="evenodd" clip-rule="evenodd" d="M3 12C3 7.02944 7.02944 3 12 3C16.9706 3 21 7.02944 21 12V14.375C21 15.1344 20.3844 15.75 19.625 15.75H19.5C18.5335 15.75 17.75 14.9665 17.75 14V8C17.75 7.30964 17.1904 6.75 16.5 6.75C16.1055 6.75 15.7538 6.93271 15.5247 7.21812C14.4373 6.30201 13.0331 5.75 11.5 5.75C8.04822 5.75 5.25 8.54822 5.25 12C5.25 15.4518 8.04822 18.25 11.5 18.25C13.2519 18.25 14.8355 17.5292 15.9703 16.368C16.7333 17.5031 18.0294 18.25 19.5 18.25H19.625C21.7651 18.25 23.5 16.5151 23.5 14.375V12C23.5 5.64873 18.3513 0.5 12 0.5C5.64873 0.5 0.5 5.64873 0.5 12C0.5 18.3513 5.64873 23.5 12 23.5C13.2244 23.5 14.4064 23.3082 15.5162 22.9521C16.2001 22.7327 16.856 22.4512 17.477 22.1142C18.0839 21.785 18.3089 21.0262 17.9797 20.4194C17.6504 19.8126 16.8917 19.5876 16.2849 19.9168C15.7991 20.1803 15.2866 20.4003 14.7525 20.5717C13.8865 20.8495 12.962 21 12 21C7.02944 21 3 16.9706 3 12ZM15.25 12C15.25 9.92893 13.5711 8.25 11.5 8.25C9.42893 8.25 7.75 9.92893 7.75 12C7.75 14.0711 9.42893 15.75 11.5 15.75C13.5711 15.75 15.25 14.0711 15.25 12Z" fill="#080809" style="fill:#080809;fill:color(display-p3 0.0314 0.0314 0.0353);fill-opacity:1;"/>
</g>
<defs>
<clipPath id="clip0_29901_28362">
<rect width="24" height="24" fill="white" style="fill:white;fill-opacity:1;"/>
</clipPath>
</defs>
</svg>
