<svg width="24" height="24" viewBox="0 0 24 24" fill="none" xmlns="http://www.w3.org/2000/svg">
<path fill-rule="evenodd" clip-rule="evenodd" d="M15.5 1.5C13.2909 1.5 11.5 3.29086 11.5 5.5V6.5C11.5 8.70914 13.2909 10.5 15.5 10.5L16.7 12.1C16.8889 12.3518 17.1852 12.5 17.5 12.5C17.8148 12.5 18.1111 12.3518 18.3 12.1L19.5 10.5C21.7091 10.5 23.5 8.70914 23.5 6.5V5.5C23.5 3.29086 21.7091 1.5 19.5 1.5H15.5ZM13.5 5.5C13.5 4.39543 14.3954 3.5 15.5 3.5H19.5C20.6046 3.5 21.5 4.39543 21.5 5.5V6.5C21.5 7.60457 20.6046 8.5 19.5 8.5H19C18.6852 8.5 18.3889 8.64819 18.2 8.9L17.5 9.83333L16.8 8.9C16.6111 8.64819 16.3148 8.5 16 8.5H15.5C14.3954 8.5 13.5 7.60457 13.5 6.5V5.5Z" fill="#080809" style="fill:#080809;fill:color(display-p3 0.0314 0.0314 0.0353);fill-opacity:1;"/>
<path fill-rule="evenodd" clip-rule="evenodd" d="M6.7134 11.1288C5.8658 11.0347 5.00819 11.0924 4.18084 11.2992C2.01758 11.84 0.5 13.7837 0.5 16.0135V16.1496C0.5 18.8692 2.37716 21.2289 5.02713 21.8404L5.9973 22.0643C11.5506 23.3458 17.3864 22.3021 22.1512 19.1752L22.2816 19.0896C23.042 18.5906 23.5 17.7422 23.5 16.8327C23.5 14.7948 21.3283 13.4918 19.5301 14.4508L18.9473 14.7616C17.6686 15.4436 16.3044 15.9298 14.9001 16.2117C15.2768 15.7464 15.5 15.1549 15.5 14.5167C15.5 13.1438 14.4677 11.9904 13.1032 11.8388L6.7134 11.1288ZM4.66591 13.2395C5.26265 13.0903 5.8812 13.0487 6.49254 13.1166L12.8823 13.8266C13.234 13.8657 13.5 14.1629 13.5 14.5167C13.5 14.8647 13.2424 15.159 12.8974 15.205L9.8963 15.6052C8.27585 15.8212 8.2855 18.1686 9.90763 18.3714C13.3453 18.8011 16.8317 18.1566 19.8885 16.5263L20.4713 16.2155C20.9373 15.967 21.5 16.3046 21.5 16.8327C21.5 17.0684 21.3813 17.2882 21.1843 17.4175L21.0539 17.5031C16.7454 20.3305 11.4685 21.2743 6.44702 20.1155L5.47685 19.8916C3.73434 19.4895 2.5 17.9379 2.5 16.1496V16.0135C2.5 14.7014 3.39299 13.5577 4.66591 13.2395Z" fill="#080809" style="fill:#080809;fill:color(display-p3 0.0314 0.0314 0.0353);fill-opacity:1;"/>
</svg>
