<svg width="24" height="24" viewBox="0 0 24 24" fill="none" xmlns="http://www.w3.org/2000/svg">
<path fill-rule="evenodd" clip-rule="evenodd" d="M7.42943 2H16.5706C17.9247 1.99997 19.0413 1.99994 19.9251 2.11876C20.8529 2.2435 21.6723 2.51547 22.3284 3.17158C22.9845 3.82769 23.2565 4.64711 23.3813 5.57494C23.5001 6.45869 23.5 7.5753 23.5 8.92942V13.0705C23.5 14.4247 23.5001 15.5413 23.3813 16.4251C23.2565 17.3529 22.9845 18.1723 22.3284 18.8284C21.6723 19.4845 20.8529 19.7565 19.9251 19.8813C19.0413 20.0001 17.9247 20 16.5707 20H7.4294C6.07531 20 4.95868 20.0001 4.07494 19.8813C3.14711 19.7565 2.32769 19.4845 1.67158 18.8284C1.01547 18.1723 0.743499 17.3529 0.618756 16.4251C0.499939 15.5413 0.499967 14.4247 0.500001 13.0706V8.92943C0.499967 7.57533 0.499939 6.45869 0.618756 5.57494C0.743499 4.64711 1.01547 3.82769 1.67158 3.17158C2.32769 2.51547 3.14711 2.2435 4.07494 2.11876C4.95869 1.99994 6.07533 1.99997 7.42943 2ZM4.34144 4.10092C3.63538 4.19585 3.30836 4.36322 3.08579 4.58579C2.86322 4.80836 2.69585 5.13538 2.60092 5.84144C2.50213 6.57626 2.5 7.55752 2.5 9V13C2.5 13.3611 2.50014 13.6933 2.50189 14H21.4981C21.4999 13.6933 21.5 13.3611 21.5 13V9C21.5 7.55752 21.4979 6.57626 21.3991 5.84144C21.3042 5.13538 21.1368 4.80836 20.9142 4.58579C20.6916 4.36322 20.3646 4.19585 19.6586 4.10092C18.9237 4.00213 17.9425 4 16.5 4H7.5C6.05752 4 5.07626 4.00213 4.34144 4.10092Z" fill="#080809" style="fill:#080809;fill:color(display-p3 0.0314 0.0314 0.0353);fill-opacity:1;"/>
<path d="M7 21.5C6.44772 21.5 6 21.9477 6 22.5C6 23.0523 6.44772 23.5 7 23.5H17C17.5523 23.5 18 23.0523 18 22.5C18 21.9477 17.5523 21.5 17 21.5H7Z" fill="#080809" style="fill:#080809;fill:color(display-p3 0.0314 0.0314 0.0353);fill-opacity:1;"/>
</svg>
