<svg width="24" height="24" viewBox="0 0 24 24" fill="none" xmlns="http://www.w3.org/2000/svg">
<path d="M12.3032 23.5H12.2965C8.85085 23.477 6.20202 22.3452 4.42239 20.1362C2.83826 18.1707 2.02129 15.4356 1.99397 12.0081V11.9914C2.02129 8.56294 2.83826 5.82881 4.42239 3.86327C6.20249 1.65479 8.85133 0.523 12.2965 0.5H12.31C14.9511 0.51725 17.161 1.19431 18.8784 2.50962C20.4927 3.74635 21.6288 5.50873 22.256 7.74931L20.2934 8.29413C19.231 4.4996 16.5434 2.55994 12.3032 2.52927C9.50395 2.54892 7.38747 3.42531 6.01083 5.13354C4.72187 6.733 4.05535 9.04306 4.03139 11.999C4.05631 14.956 4.72235 17.266 6.01083 18.8645C7.38747 20.5728 9.50395 21.4487 12.3032 21.4688C14.8265 21.4506 16.4964 20.8651 17.8855 19.51C19.4706 17.9637 19.4414 16.0667 18.9344 14.9129C18.6359 14.2329 18.0935 13.6665 17.3628 13.2372C17.1788 14.531 16.7657 15.5813 16.127 16.3724C15.2755 17.4285 14.0675 18.0059 12.539 18.0878C11.3823 18.1501 10.2677 17.8775 9.40285 17.3202C8.37983 16.6609 7.78087 15.6522 7.71714 14.4792C7.65485 13.3388 8.10862 12.2899 8.99556 11.5266C9.8432 10.7968 11.0349 10.3684 12.4427 10.2899C13.4806 10.2319 14.4513 10.2774 15.3483 10.4264C15.2295 9.71485 14.988 9.15087 14.6291 8.7431C14.1351 8.18248 13.3708 7.89594 12.3588 7.88923H12.3306C11.5179 7.88923 10.4144 8.11108 9.71095 9.15327L8.01997 8.021C8.96154 6.6271 10.491 5.85996 12.3296 5.85996H12.3713C15.4461 5.87912 17.2765 7.75171 17.4586 11.0225C17.5635 11.0666 17.6656 11.1121 17.7672 11.1591C19.2018 11.8309 20.2507 12.8481 20.8013 14.1002C21.5679 15.8463 21.6389 18.6916 19.3111 20.9609C17.5329 22.6955 15.3737 23.478 12.3109 23.499H12.3042V23.5H12.3032ZM13.2678 12.2956C13.0349 12.2956 12.7987 12.3024 12.5577 12.3162C10.7905 12.4154 9.68939 13.2214 9.75168 14.3695C9.81733 15.5722 11.1499 16.1314 12.4297 16.0624C13.608 15.9996 15.1418 15.543 15.3987 12.5065C14.7484 12.368 14.033 12.2952 13.2678 12.2952V12.2956Z" fill="#080809" style="fill:#080809;fill:color(display-p3 0.0314 0.0314 0.0353);fill-opacity:1;"/>
</svg>
