<svg width="24" height="24" viewBox="0 0 24 24" fill="none" xmlns="http://www.w3.org/2000/svg">
<path d="M8.99902 12C9.55131 12 9.99902 12.4477 9.99902 13V14C9.99902 14.5523 9.55131 15 8.99902 15C8.44674 15 7.99902 14.5523 7.99902 14V13C7.99902 12.4477 8.44674 12 8.99902 12Z" fill="#080809" style="fill:#080809;fill:color(display-p3 0.0314 0.0314 0.0353);fill-opacity:1;"/>
<path d="M15.999 13C15.999 12.4477 15.5513 12 14.999 12C14.4467 12 13.999 12.4477 13.999 13V14C13.999 14.5523 14.4467 15 14.999 15C15.5513 15 15.999 14.5523 15.999 14V13Z" fill="#080809" style="fill:#080809;fill:color(display-p3 0.0314 0.0314 0.0353);fill-opacity:1;"/>
<path fill-rule="evenodd" clip-rule="evenodd" d="M15.999 0.5C16.5513 0.5 16.999 0.947715 16.999 1.5C16.999 2.05228 16.5513 2.5 15.999 2.5C15.0389 2.5 14.3197 2.8737 13.8249 3.45844C13.393 3.96894 13.0992 4.6826 13.0203 5.53312C13.1698 5.46908 13.3106 5.38984 13.4385 5.29539C14.9064 4.2115 16.668 3.69582 18.4127 4.18374C20.3726 4.73187 21.7258 6.37812 22.4208 8.37194C23.1189 10.3749 23.2046 12.8413 22.5696 15.315C21.9347 17.788 20.6772 19.8868 19.1029 21.2659C17.532 22.6421 15.553 23.3658 13.5853 22.8155C13.1026 22.6805 12.652 22.4764 12.2373 22.2138C12.0996 22.1266 11.8984 22.1266 11.7607 22.2138C11.3461 22.4764 10.8954 22.6805 10.4127 22.8155C8.44505 23.3658 6.46601 22.6421 4.89514 21.2659C3.32087 19.8868 2.06332 17.788 1.42843 15.315C0.793384 12.8413 0.879078 10.3749 1.57724 8.37194C2.27222 6.37812 3.6254 4.73187 5.58532 4.18374C7.32998 3.69582 9.0916 4.2115 10.5595 5.29539C10.6976 5.39732 10.8506 5.48153 11.0134 5.54803C11.0948 4.27351 11.523 3.08265 12.2981 2.16656C13.1784 1.1263 14.4591 0.5 15.999 0.5ZM6.12399 6.10984C7.12752 5.82918 8.26175 6.08488 9.37156 6.90433C10.8722 8.01234 13.1258 8.01234 14.6265 6.90433C15.7363 6.08488 16.8705 5.82918 17.874 6.10984C19.008 6.42697 19.9758 7.43391 20.5322 9.03024C21.0855 10.6175 21.1817 12.6782 20.6324 14.8176C20.083 16.9577 19.0143 18.6846 17.785 19.7616C16.5522 20.8415 15.2502 21.2043 14.124 20.8894C13.8356 20.8087 13.5632 20.6861 13.3074 20.5241C12.5163 20.0232 11.4817 20.0232 10.6907 20.5241C10.4348 20.6861 10.1624 20.8087 9.87403 20.8894C8.74779 21.2043 7.4458 20.8415 6.21304 19.7616C4.98369 18.6846 3.91501 16.9577 3.36561 14.8176C2.81636 12.6782 2.91253 10.6175 3.46579 9.03024C4.02222 7.43391 4.99001 6.42697 6.12399 6.10984Z" fill="#080809" style="fill:#080809;fill:color(display-p3 0.0314 0.0314 0.0353);fill-opacity:1;"/>
</svg>
