<svg width="24" height="24" viewBox="0 0 24 24" fill="none" xmlns="http://www.w3.org/2000/svg">
<path fill-rule="evenodd" clip-rule="evenodd" d="M14.0022 1.00261C12.6689 0.230677 11.0002 1.1928 11.0002 2.73346V10.0328L4.51465 6.14154C4.04107 5.85739 3.42681 6.01096 3.14266 6.48454C2.85851 6.95812 3.01208 7.57238 3.48566 7.85653L10.3898 11.999L3.48566 16.1415C3.01208 16.4257 2.85851 17.0399 3.14266 17.5135C3.42681 17.9871 4.04107 18.1407 4.51465 17.8565L11.0002 13.9652V21.2646C11.0002 22.8052 12.6689 23.7674 14.0022 22.9954L19.7988 19.6395C21.447 18.6853 21.4656 16.3121 19.8325 15.3322L14.2771 11.999L19.8325 8.66582C21.4656 7.68595 21.447 5.31276 19.7988 4.35852L14.0022 1.00261ZM13.0002 13.5652V21.2646L18.7967 17.9087C19.1264 17.7178 19.1301 17.2432 18.8035 17.0472L13.0002 13.5652ZM13.0002 10.4328L18.8035 6.95084C19.1301 6.75486 19.1264 6.28022 18.7967 6.08938L13.0002 2.73346V10.4328Z" fill="#080809" style="fill:#080809;fill:color(display-p3 0.0314 0.0314 0.0353);fill-opacity:1;"/>
</svg>
