<svg width="24" height="24" viewBox="0 0 24 24" fill="none" xmlns="http://www.w3.org/2000/svg">
<path fill-rule="evenodd" clip-rule="evenodd" d="M12 0.5C5.92487 0.5 1 5.42487 1 11.5V18.6667C1 20.5076 2.49238 22 4.33333 22C5.52995 22 6.5 21.0299 6.5 19.8333V14.1667C6.5 12.97 5.52995 12 4.33333 12C3.85926 12 3.40831 12.099 3 12.2774V11.5C3 6.52944 7.02944 2.5 12 2.5C16.9706 2.5 21 6.52944 21 11.5V12.2774C20.5917 12.099 20.1407 12 19.6667 12C18.47 12 17.5 12.97 17.5 14.1667V19.8333C17.5 21.03 18.4701 22 19.6667 22C21.5076 22 23 20.5076 23 18.6667V11.5C23 5.42487 18.0751 0.5 12 0.5ZM19.6667 14C20.403 14 21 14.597 21 15.3333V18.6667C21 19.403 20.403 20 19.6667 20C19.5746 20 19.5 19.9254 19.5 19.8333V14.1667C19.5 14.0746 19.5746 14 19.6667 14ZM3 15.3333V18.6667C3 19.403 3.59695 20 4.33333 20C4.42538 20 4.5 19.9254 4.5 19.8333V14.1667C4.5 14.0746 4.42538 14 4.33333 14C3.59695 14 3 14.597 3 15.3333Z" fill="#080809" style="fill:#080809;fill:color(display-p3 0.0314 0.0314 0.0353);fill-opacity:1;"/>
<path d="M13 14C13 13.4477 12.5523 13 12 13C11.4477 13 11 13.4477 11 14V20C11 20.5523 11.4477 21 12 21C12.5523 21 13 20.5523 13 20V14Z" fill="#080809" style="fill:#080809;fill:color(display-p3 0.0314 0.0314 0.0353);fill-opacity:1;"/>
<path d="M15.5 15C16.0523 15 16.5 15.4477 16.5 16V18C16.5 18.5523 16.0523 19 15.5 19C14.9477 19 14.5 18.5523 14.5 18V16C14.5 15.4477 14.9477 15 15.5 15Z" fill="#080809" style="fill:#080809;fill:color(display-p3 0.0314 0.0314 0.0353);fill-opacity:1;"/>
<path d="M9.5 16C9.5 15.4477 9.05229 15 8.5 15C7.94772 15 7.5 15.4477 7.5 16V18C7.5 18.5523 7.94772 19 8.5 19C9.05229 19 9.5 18.5523 9.5 18V16Z" fill="#080809" style="fill:#080809;fill:color(display-p3 0.0314 0.0314 0.0353);fill-opacity:1;"/>
</svg>
