<svg width="24" height="24" viewBox="0 0 24 24" fill="none" xmlns="http://www.w3.org/2000/svg">
<g clip-path="url(#clip0_29901_27735)">
<path d="M17.3393 3.25189C17.8873 3.25106 18.4347 3.25023 18.9824 3.24981L12.6166 9.61565C12.1284 10.1038 12.1284 10.8953 12.6166 11.3834C13.1047 11.8716 13.8962 11.8716 14.3843 11.3834L20.7456 5.02216C20.7455 5.56254 20.7454 6.10284 20.7452 6.64325L20.7452 6.65424C20.745 7.43561 20.7447 8.2172 20.7447 8.99955C20.7447 9.6899 21.3044 10.2495 21.9947 10.2495C22.6851 10.2495 23.2447 9.68989 23.2447 8.99953C23.2447 8.21934 23.245 7.43838 23.2452 6.6572L23.2452 6.64682C23.2455 5.59643 23.2458 4.54565 23.2455 3.49579C23.2452 1.98295 22.0213 0.752011 20.5045 0.750055C19.4481 0.748693 18.387 0.750301 17.328 0.751905C16.5498 0.753085 15.7727 0.754262 14.9994 0.754259C14.3091 0.754256 13.7494 1.3139 13.7494 2.00425C13.7494 2.69461 14.3091 3.25426 14.9994 3.25426C15.7821 3.25426 16.5615 3.25308 17.3393 3.25189Z" fill="#080809" style="fill:#080809;fill:color(display-p3 0.0314 0.0314 0.0353);fill-opacity:1;"/>
<path d="M11.25 1.99428C11.2558 2.68461 10.7009 3.24898 10.0106 3.25483C8.29972 3.26933 7.08282 3.32556 6.15791 3.50673C5.26789 3.68107 4.74221 3.95415 4.34835 4.34801C3.88708 4.80928 3.58634 5.4569 3.42191 6.67986C3.25266 7.93878 3.25 9.6073 3.25 11.9997C3.25 14.392 3.25266 16.0605 3.42191 17.3195C3.58634 18.5424 3.88708 19.19 4.34835 19.6513C4.80962 20.1126 5.45724 20.4133 6.6802 20.5777C7.93912 20.747 9.60764 20.7497 12 20.7497C14.3924 20.7497 16.0609 20.747 17.3198 20.5777C18.5428 20.4133 19.1904 20.1126 19.6517 19.6513C20.0455 19.2575 20.3186 18.7318 20.4929 17.8418C20.6741 16.9168 20.7303 15.6999 20.7448 13.9891C20.7507 13.2987 21.3151 12.7438 22.0054 12.7497C22.6957 12.7556 23.2506 13.3199 23.2447 14.0103C23.2303 15.7125 23.1773 17.143 22.9463 18.3223C22.7085 19.5366 22.2664 20.5721 21.4194 21.4191C20.4162 22.4223 19.1531 22.8538 17.6529 23.0555C16.208 23.2497 14.3708 23.2497 12.0915 23.2497H11.9085C9.62926 23.2497 7.79201 23.2497 6.34708 23.0555C4.8469 22.8538 3.58378 22.4223 2.58059 21.4191C1.57739 20.4159 1.1459 19.1528 0.944208 17.6526C0.749941 16.2076 0.749967 14.3704 0.750001 12.0911V11.9082C0.749967 9.6289 0.749941 7.79168 0.944208 6.34674C1.1459 4.84656 1.57739 3.58343 2.58059 2.58024C3.42755 1.73327 4.46307 1.2912 5.67734 1.05335C6.8567 0.82234 8.28716 0.76935 9.9894 0.754918C10.6797 0.749065 11.2441 1.30394 11.25 1.99428Z" fill="#080809" style="fill:#080809;fill:color(display-p3 0.0314 0.0314 0.0353);fill-opacity:1;"/>
</g>
<defs>
<clipPath id="clip0_29901_27735">
<rect width="24" height="24" fill="white" style="fill:white;fill-opacity:1;"/>
</clipPath>
</defs>
</svg>
