<svg width="24" height="24" viewBox="0 0 24 24" fill="none" xmlns="http://www.w3.org/2000/svg">
<path fill-rule="evenodd" clip-rule="evenodd" d="M5.11816 2.50077C2.388 2.88447 0.485817 5.40875 0.869516 8.13891L1.00981 9.13713C1.08667 9.68404 1.59234 10.0651 2.13925 9.98822L9.04811 9.01724C9.0632 9.01548 9.07829 9.01336 9.09336 9.01088L16.4751 7.97344C16.4902 7.97168 16.5053 7.96956 16.5204 7.96709L21.9446 7.20476C22.4915 7.12789 22.8726 6.62223 22.7957 6.07532L22.625 4.86056C22.2581 2.24999 19.8444 0.431133 17.2338 0.798024L14.0615 1.24386C14.0464 1.24563 14.0314 1.24775 14.0163 1.25022L6.63452 2.28766C6.61943 2.28942 6.60434 2.29154 6.58926 2.29402L5.11816 2.50077ZM13.5801 3.33118L8.22081 4.08437L9.52957 6.92992L14.8888 6.17673L13.5801 3.33118ZM16.9566 5.88612L20.676 5.36339L20.6444 5.13891C20.4313 3.62216 19.0289 2.5654 17.5122 2.77856L15.6478 3.04058L16.9566 5.88612ZM7.46183 7.22052L6.15307 4.37498L5.3965 4.4813C3.76016 4.71128 2.62008 6.22422 2.85005 7.86056L2.85117 7.86851L7.46183 7.22052Z" fill="#080809" style="fill:#080809;fill:color(display-p3 0.0314 0.0314 0.0353);fill-opacity:1;"/>
<path d="M1.0009 11.9999C1.0009 11.4477 1.44862 10.9999 2.0009 10.9999H22.0009C22.5532 10.9999 23.0009 11.4477 23.0009 11.9999V13.0731C23.0009 14.8965 23.001 16.3663 22.8455 17.5223C22.6842 18.7224 22.339 19.7329 21.5364 20.5355C20.7339 21.338 19.7234 21.6832 18.5232 21.8446C17.3673 22 15.8975 22 14.0741 21.9999H9.92773C8.10428 22 6.63452 22 5.47857 21.8446C4.27842 21.6832 3.26793 21.338 2.46537 20.5355C1.66281 19.7329 1.31762 18.7224 1.15627 17.5223C1.00085 16.3663 1.00088 14.8966 1.0009 13.0731L1.0009 11.9999Z" fill="#080809" style="fill:#080809;fill:color(display-p3 0.0314 0.0314 0.0353);fill-opacity:1;"/>
</svg>
