<svg width="24" height="24" viewBox="0 0 24 24" fill="none" xmlns="http://www.w3.org/2000/svg">
<path d="M4 10C4.55228 10 5 10.4477 5 11C5 14.866 8.13401 18 12 18C15.428 18 18.2827 15.5347 18.8838 12.2803C18.9842 11.7375 19.505 11.3785 20.0479 11.4785C20.5909 11.5788 20.9498 12.1005 20.8496 12.6436C20.1358 16.5083 16.9548 19.5051 13 19.9424V21.5H15C15.5523 21.5 16 21.9477 16 22.5C16 23.0523 15.5523 23.5 15 23.5H9C8.44772 23.5 8 23.0523 8 22.5C8 21.9477 8.44772 21.5 9 21.5H11V19.9424C6.50019 19.4448 3 15.6325 3 11C3 10.4477 3.44772 10 4 10Z" fill="#080809" style="fill:#080809;fill:color(display-p3 0.0314 0.0314 0.0353);fill-opacity:1;"/>
<path d="M12.3662 0.513672C12.7027 0.538132 13.0042 0.730404 13.168 1.02539C13.3317 1.32038 13.3359 1.67803 13.1787 1.97656C12.7037 2.87867 12.4346 3.90642 12.4346 5C12.4346 7.65451 14.0256 9.9398 16.3105 10.9492C16.7459 11.1416 16.9851 11.6143 16.8828 12.0791C16.389 14.3215 14.3918 16 12 16C9.23858 16 7 13.7614 7 11V5.5C7 2.73858 9.23858 0.5 12 0.5C12.123 0.5 12.2451 0.504885 12.3662 0.513672Z" fill="#080809" style="fill:#080809;fill:color(display-p3 0.0314 0.0314 0.0353);fill-opacity:1;"/>
<path d="M21.292 1.29297C21.6825 0.902445 22.3155 0.902445 22.7061 1.29297C23.0965 1.6835 23.0966 2.31653 22.7061 2.70703L20.4131 5L22.7061 7.29297C23.0965 7.6835 23.0966 8.31653 22.7061 8.70703C22.3155 9.09735 21.6825 9.09743 21.292 8.70703L18.999 6.41406L16.7061 8.70703C16.3155 9.09735 15.6825 9.09743 15.292 8.70703C14.9015 8.31657 14.9017 7.68351 15.292 7.29297L17.585 5L15.292 2.70703C14.9015 2.31657 14.9017 1.68351 15.292 1.29297C15.6825 0.902444 16.3155 0.902444 16.7061 1.29297L18.999 3.58594L21.292 1.29297Z" fill="#080809" style="fill:#080809;fill:color(display-p3 0.0314 0.0314 0.0353);fill-opacity:1;"/>
</svg>
