<svg width="24" height="24" viewBox="0 0 24 24" fill="none" xmlns="http://www.w3.org/2000/svg">
<path fill-rule="evenodd" clip-rule="evenodd" d="M8.53971 3.50079C8.96633 3.51775 9.33514 3.8037 9.45783 4.21266L13.0911 16.3234L16.0602 8.15826C16.2019 7.76853 16.5695 7.50671 16.9841 7.50013C17.3988 7.49355 17.7745 7.74358 17.9285 8.12861L19.677 12.5H22C22.5523 12.5 23 12.9477 23 13.5C23 14.0523 22.5523 14.5 22 14.5H19C18.5911 14.5 18.2234 14.2511 18.0715 13.8714L17.0445 11.3038L13.9398 19.8417C13.7925 20.2468 13.4022 20.5119 12.9713 20.4996C12.5405 20.4872 12.166 20.2002 12.0422 19.7874L8.37788 7.57305L5.932 13.8625C5.78253 14.2468 5.41241 14.5 5 14.5H2C1.44772 14.5 1 14.0523 1 13.5C1 12.9477 1.44772 12.5 2 12.5H4.31593L7.568 4.13756C7.72275 3.73963 8.11308 3.48384 8.53971 3.50079Z" fill="#080809" style="fill:#080809;fill:color(display-p3 0.0314 0.0314 0.0353);fill-opacity:1;"/>
</svg>
