<svg width="24" height="24" viewBox="0 0 24 24" fill="none" xmlns="http://www.w3.org/2000/svg">
<path fill-rule="evenodd" clip-rule="evenodd" d="M23.0127 4.14133L23.0145 4.1424C23.4354 4.39492 23.6108 4.91557 23.4285 5.37129L21.4285 10.3713C21.2234 10.8841 20.6414 11.1335 20.1286 10.9284L19 10.4769V21.9999C19 22.5522 18.5523 22.9999 18 22.9999H6C5.44771 22.9999 5 22.5522 5 21.9999V10.4769L3.87139 10.9284C3.3586 11.1335 2.77663 10.8841 2.57152 10.3713L0.57152 5.37129C0.389233 4.91557 0.565386 4.39447 0.986267 4.14195L0.987292 4.14133L0.990151 4.13963L0.999068 4.13433L1.02955 4.11642C1.05544 4.1013 1.09238 4.07995 1.13988 4.05302C1.23486 3.99916 1.37216 3.92294 1.54784 3.82967C1.899 3.64321 2.40459 3.38802 3.03287 3.1068C4.28626 2.5458 6.04413 1.87396 8.04902 1.44244C8.53214 1.33845 9.01877 1.60296 9.19426 2.06493C9.62453 3.19761 10.7198 3.9999 12 3.9999C13.2802 3.9999 14.3755 3.19761 14.8057 2.06493C14.9812 1.60296 15.4679 1.33845 15.951 1.44244C17.9559 1.87396 19.7137 2.5458 20.9671 3.1068C21.5954 3.38802 22.101 3.64321 22.4522 3.82967C22.6278 3.92294 22.7651 3.99916 22.8601 4.05302C22.9076 4.07995 22.9446 4.1013 22.9704 4.11642L23.0009 4.13433L23.0098 4.13963L23.0127 4.14133ZM3.84994 4.93229C3.41727 5.12595 3.04925 5.30547 2.75866 5.45399L4.05708 8.70003L4.94291 8.3457C5.9282 7.95158 7 8.67722 7 9.73842V20.9999H17V9.73842C17 8.67722 18.0718 7.95159 19.0571 8.3457L19.9429 8.70003L21.2413 5.45399C20.9507 5.30547 20.5827 5.12595 20.1501 4.93229C19.1461 4.48292 17.806 3.96289 16.2862 3.57548C15.412 5.02729 13.8205 5.9999 12 5.9999C10.1795 5.9999 8.588 5.02729 7.7138 3.57548C6.19395 3.96289 4.85392 4.48292 3.84994 4.93229Z" fill="#080809" style="fill:#080809;fill:color(display-p3 0.0314 0.0314 0.0353);fill-opacity:1;"/>
</svg>
