<svg width="24" height="24" viewBox="0 0 24 24" fill="none" xmlns="http://www.w3.org/2000/svg">
<path fill-rule="evenodd" clip-rule="evenodd" d="M13 13V21H15C15.5523 21 16 21.4477 16 22C16 22.5523 15.5523 23 15 23H4C2.34315 23 1 21.6569 1 20V4C1 2.34314 2.34315 1 4 1H10C11.6569 1 13 2.34315 13 4V11H15C15.5523 11 16 11.4477 16 12C16 12.5523 15.5523 13 15 13H13ZM11 21V12L11 4C11 3.44772 10.5523 3 10 3L4 3C3.44772 3 3 3.44772 3 4L3 20C3 20.5523 3.44772 21 4 21H11Z" fill="#080809" style="fill:#080809;fill:color(display-p3 0.0314 0.0314 0.0353);fill-opacity:1;"/>
<path d="M21 20V19C21 18.4477 21.4477 18 22 18C22.5523 18 23 18.4477 23 19V20C23 21.6569 21.6569 23 20 23H19C18.4477 23 18 22.5523 18 22C18 21.4477 18.4477 21 19 21H20C20.5523 21 21 20.5523 21 20Z" fill="#080809" style="fill:#080809;fill:color(display-p3 0.0314 0.0314 0.0353);fill-opacity:1;"/>
<path d="M21 15V14C21 13.4477 20.5523 13 20 13H19C18.4477 13 18 12.5523 18 12C18 11.4477 18.4477 11 19 11H20C21.6569 11 23 12.3431 23 14V15C23 15.5523 22.5523 16 22 16C21.4477 16 21 15.5523 21 15Z" fill="#080809" style="fill:#080809;fill:color(display-p3 0.0314 0.0314 0.0353);fill-opacity:1;"/>
</svg>
