<svg width="24" height="24" viewBox="0 0 24 24" fill="none" xmlns="http://www.w3.org/2000/svg">
<path fill-rule="evenodd" clip-rule="evenodd" d="M12.5372 0.656481C12.2292 0.460425 11.839 0.447719 11.519 0.623331C11.199 0.798945 11.0001 1.13497 11.0001 1.5C11.0001 1.82744 10.8648 2.51674 10.5998 3.29889C10.5171 3.54292 10.4277 3.77812 10.3351 3.99727L10.0081 3.60738C9.80562 3.36592 9.50113 3.23405 9.18646 3.25154C8.8718 3.26903 8.5838 3.43382 8.40928 3.69624C8.17212 4.05285 7.87536 4.47482 7.63221 4.76512C7.08619 5.417 5.75005 7.02924 5.75005 9.53572C5.75005 13.0109 8.50506 16 12.0001 16C15.495 16 18.2501 13.0109 18.2501 9.53572C18.2501 6.84458 16.6945 3.30362 12.5372 0.656481ZM9.16542 6.04935C9.21097 5.99498 9.25713 5.93813 9.30353 5.87954L9.73387 6.39262C9.92698 6.62286 10.2134 6.75405 10.5138 6.74991C10.8143 6.74576 11.097 6.60672 11.2837 6.37124C11.7861 5.73752 12.2053 4.7926 12.494 3.9408C12.5722 3.70993 12.6454 3.47242 12.7105 3.23574C15.3799 5.38415 16.2501 7.84857 16.2501 9.53572C16.2501 11.2436 15.3113 12.7326 13.9659 13.4829C14.304 13.0222 14.5001 12.4457 14.5001 11.8409C14.5001 11.3489 14.3451 10.8727 14.157 10.4671C13.9659 10.055 13.718 9.66841 13.4819 9.3433C13.2442 9.0162 13.0083 8.73751 12.8323 8.54091C12.7439 8.44218 12.6696 8.36308 12.6165 8.30774C12.59 8.28005 12.5687 8.25824 12.5534 8.24283L12.5353 8.22456L12.5298 8.21912L12.5281 8.21735L12.5269 8.21622C12.2348 7.92793 11.7653 7.92793 11.4732 8.21622L11.4721 8.21735L11.4703 8.21912L11.4648 8.22456L11.4467 8.24283C11.4314 8.25824 11.4101 8.28005 11.3836 8.30774C11.3305 8.36308 11.2563 8.44218 11.1679 8.54091C10.9918 8.73751 10.7559 9.0162 10.5183 9.3433C10.2821 9.66841 10.0343 10.055 9.84312 10.4671C9.65499 10.8727 9.50005 11.3489 9.50005 11.8409C9.50005 12.4457 9.69608 13.0222 10.0342 13.4829C8.68878 12.7326 7.75005 11.2436 7.75005 9.53572C7.75005 7.77976 8.67012 6.64068 9.16542 6.04935Z" fill="#080809" style="fill:#080809;fill:color(display-p3 0.0314 0.0314 0.0353);fill-opacity:1;"/>
<path d="M21.949 16.1841C22.1236 16.708 21.8404 17.2744 21.3165 17.449L15.1625 19.5003L21.3165 21.5516C21.8404 21.7263 22.1236 22.2926 21.949 22.8166C21.7743 23.3405 21.208 23.6237 20.684 23.449L12.0003 20.5544L3.3165 23.449C2.79256 23.6237 2.22624 23.3405 2.05159 22.8166C1.87694 22.2926 2.1601 21.7263 2.68404 21.5516L8.83799 19.5003L2.68404 17.449C2.1601 17.2744 1.87694 16.708 2.05159 16.1841C2.22624 15.6602 2.79255 15.377 3.3165 15.5516L12.0003 18.4462L20.684 15.5516C21.208 15.377 21.7743 15.6602 21.949 16.1841Z" fill="#080809" style="fill:#080809;fill:color(display-p3 0.0314 0.0314 0.0353);fill-opacity:1;"/>
</svg>
