<svg width="24" height="24" viewBox="0 0 24 24" fill="none" xmlns="http://www.w3.org/2000/svg">
<path fill-rule="evenodd" clip-rule="evenodd" d="M14.6389 14.9884L15.5685 17.3641C15.7697 17.8784 16.3498 18.1322 16.8641 17.931C17.3784 17.7297 17.6322 17.1496 17.431 16.6353L13.3966 6.32525C12.8992 5.05405 11.1003 5.05405 10.6029 6.32525L6.56849 16.6353C6.36724 17.1496 6.62102 17.7297 7.13533 17.931C7.64964 18.1322 8.22972 17.8784 8.43098 17.3641L9.3606 14.9884H14.6389ZM13.8563 12.9884L11.9997 8.24397L10.1432 12.9884H13.8563Z" fill="#080809" style="fill:#080809;fill:color(display-p3 0.0314 0.0314 0.0353);fill-opacity:1;"/>
<path fill-rule="evenodd" clip-rule="evenodd" d="M11.9252 1H12.0748C14.3683 0.999978 16.1914 0.999961 17.6196 1.19198C19.0921 1.38994 20.2936 1.80836 21.2426 2.75736C22.1916 3.70636 22.6101 4.90794 22.808 6.38039C23 7.8086 23 9.63167 23 11.9252V12.0748C23 14.3683 23 16.1914 22.808 17.6196C22.6101 19.0921 22.1916 20.2936 21.2426 21.2426C20.2936 22.1916 19.0921 22.6101 17.6196 22.808C16.1914 23 14.3683 23 12.0748 23H11.9252C9.63167 23 7.8086 23 6.38039 22.808C4.90794 22.6101 3.70636 22.1916 2.75736 21.2426C1.80836 20.2936 1.38994 19.0921 1.19198 17.6196C0.999961 16.1914 0.999978 14.3684 1 12.0748V11.9252C0.999978 9.63166 0.999961 7.80859 1.19198 6.38039C1.38994 4.90794 1.80836 3.70636 2.75736 2.75736C3.70636 1.80836 4.90794 1.38994 6.38039 1.19198C7.80859 0.999961 9.63166 0.999978 11.9252 1ZM6.64689 3.17414C5.39621 3.34229 4.68704 3.65611 4.17157 4.17157C3.65611 4.68704 3.34229 5.39621 3.17414 6.64689C3.00213 7.92634 3 9.61471 3 12C3 14.3853 3.00213 16.0737 3.17414 17.3531C3.34229 18.6038 3.65611 19.313 4.17157 19.8284C4.68704 20.3439 5.39621 20.6577 6.64689 20.8259C7.92634 20.9979 9.61471 21 12 21C14.3853 21 16.0737 20.9979 17.3531 20.8259C18.6038 20.6577 19.313 20.3439 19.8284 19.8284C20.3439 19.313 20.6577 18.6038 20.8259 17.3531C20.9979 16.0737 21 14.3853 21 12C21 9.61471 20.9979 7.92634 20.8259 6.64689C20.6577 5.39621 20.3439 4.68704 19.8284 4.17157C19.313 3.65611 18.6038 3.34229 17.3531 3.17414C16.0737 3.00213 14.3853 3 12 3C9.61471 3 7.92634 3.00213 6.64689 3.17414Z" fill="#080809" style="fill:#080809;fill:color(display-p3 0.0314 0.0314 0.0353);fill-opacity:1;"/>
</svg>
