<svg width="24" height="24" viewBox="0 0 24 24" fill="none" xmlns="http://www.w3.org/2000/svg">
<path fill-rule="evenodd" clip-rule="evenodd" d="M12 0.5C12.5523 0.5 13 0.947715 13 1.5V2.62602C14.7252 3.07006 16 4.63616 16 6.5C16 7.75003 15.4266 8.86614 14.5285 9.59965L17.1994 16.7222C17.9731 16.3146 18.6912 15.8189 19.3399 15.2489C19.7548 14.8843 20.3866 14.9251 20.7512 15.3399C21.1158 15.7548 21.075 16.3867 20.6601 16.7512C19.8309 17.4799 18.906 18.1054 17.9064 18.6075L18.9203 21.3111C19.1627 21.9575 18.8352 22.678 18.1888 22.9204C17.5424 23.1628 16.8218 22.8353 16.5794 22.1889L15.575 19.5104C14.8253 19.7208 14.0481 19.8667 13.25 19.9417V20.5C13.25 21.1904 12.6904 21.75 12 21.75C11.3096 21.75 10.75 21.1904 10.75 20.5V19.9417C9.95199 19.8667 9.17481 19.7209 8.42514 19.5105L7.42075 22.1889C7.17836 22.8353 6.45785 23.1628 5.81145 22.9204C5.16504 22.678 4.83753 21.9575 5.07992 21.3111L6.09374 18.6075C5.09412 18.1055 4.16916 17.4799 3.33992 16.7512C2.92505 16.3867 2.88427 15.7548 3.24883 15.3399C3.61339 14.9251 4.24524 14.8843 4.66011 15.2489C5.30881 15.8189 6.02694 16.3146 6.8007 16.7222L9.47157 9.59969C8.57342 8.86618 8 7.75005 8 6.5C8 4.63616 9.27477 3.07006 11 2.62602V1.5C11 0.947715 11.4477 0.5 12 0.5ZM11.8057 10.4954L9.1304 17.6297C9.65563 17.7684 10.1965 17.8699 10.75 17.9313V17.5C10.75 16.8097 11.3096 16.25 12 16.25C12.6904 16.25 13.25 16.8097 13.25 17.5V17.9313C13.8035 17.8699 14.3445 17.7684 14.8697 17.6297L12.1944 10.4954C12.13 10.4984 12.0652 10.5 12 10.5C11.9349 10.5 11.8701 10.4984 11.8057 10.4954ZM10.5 6.5C10.5 5.67157 11.1716 5 12 5C12.8284 5 13.5 5.67157 13.5 6.5C13.5 7.32843 12.8284 8 12 8C11.1716 8 10.5 7.32843 10.5 6.5Z" fill="#080809" style="fill:#080809;fill:color(display-p3 0.0314 0.0314 0.0353);fill-opacity:1;"/>
</svg>
