<svg width="24" height="24" viewBox="0 0 24 24" fill="none" xmlns="http://www.w3.org/2000/svg">
<path d="M23.0146 4.1424C23.4355 4.39492 23.6109 4.91557 23.4286 5.37129L21.4286 10.3713C21.2235 10.8841 20.6415 11.1335 20.1287 10.9284L19.0001 10.4769V21.9999C19.0001 22.5522 18.5524 22.9999 18.0001 22.9999H6.00013C5.44784 22.9999 5.00013 22.5522 5.00013 21.9999V10.4769L3.87152 10.9284C3.35873 11.1335 2.77676 10.8841 2.57165 10.3713L0.571652 5.37129C0.389365 4.91557 0.564761 4.39492 0.985642 4.1424L0.987424 4.14133L0.990283 4.13963L0.9992 4.13433L1.02969 4.11642C1.05557 4.1013 1.09251 4.07995 1.14001 4.05302C1.23499 3.99916 1.37229 3.92294 1.54797 3.82967C1.89913 3.64321 2.40472 3.38802 3.033 3.1068C4.28639 2.5458 6.04426 1.87396 8.04915 1.44244C8.53227 1.33845 9.0189 1.60296 9.19439 2.06493C9.62466 3.19761 10.7199 3.9999 12.0001 3.9999C13.2803 3.9999 14.3756 3.19761 14.8059 2.06493C14.9814 1.60296 15.468 1.33845 15.9511 1.44244C17.956 1.87396 19.7139 2.5458 20.9673 3.1068C21.5955 3.38802 22.1011 3.64321 22.4523 3.82967C22.628 3.92294 22.7653 3.99916 22.8602 4.05302C22.9077 4.07995 22.9447 4.1013 22.9706 4.11642L23.0011 4.13433L23.01 4.13963L23.0128 4.14133L23.0146 4.1424Z" fill="#080809" style="fill:#080809;fill:color(display-p3 0.0314 0.0314 0.0353);fill-opacity:1;"/>
</svg>
