<svg width="24" height="24" viewBox="0 0 24 24" fill="none" xmlns="http://www.w3.org/2000/svg">
<g clip-path="url(#clip0_29901_26299)">
<path d="M7.10645 6.23438C8.75067 4.77326 11.0285 4.25411 13.1436 4.8584C13.6401 5.00034 14.118 5.20176 14.5664 5.45801L15.9297 6.2373C17.0688 6.88824 18.0829 7.73726 18.9229 8.74512L19.1182 8.97949C19.4454 9.37173 20.0154 9.45423 20.4404 9.1709L21.9453 8.16797C22.4047 7.862 23.0257 7.98605 23.332 8.44531C23.6383 8.9047 23.5139 9.52558 23.0547 9.83203L21.5498 10.835C20.2742 11.6853 18.5625 11.4375 17.5811 10.2598L17.3867 10.0254C17.1833 9.78134 16.9656 9.5505 16.7383 9.33008L12.9238 14.2881L13.75 14.8779C15.2117 15.922 15.4349 18.0087 14.2266 19.3379L10.7402 23.1729C10.3687 23.5813 9.73574 23.6116 9.32715 23.2402C8.91862 22.8688 8.88851 22.2358 9.25977 21.8271L12.7461 17.9922C13.1489 17.5492 13.0751 16.8539 12.5879 16.5059L10.9629 15.3447C10.9569 15.3409 10.9503 15.3379 10.9443 15.334L9.28027 14.2236C8.07668 13.4209 7.80383 11.7671 8.68555 10.6201L11.7549 6.62695C10.5561 6.52421 9.35213 6.91407 8.43457 7.72949L6.16406 9.74707C5.75128 10.114 5.11985 10.0768 4.75293 9.66406C4.38609 9.25128 4.42318 8.61982 4.83594 8.25293L7.10645 6.23438ZM10.2705 11.8389C10.0944 12.0682 10.1492 12.399 10.3896 12.5596L11.2764 13.1504L15.0547 8.24023L13.7227 7.35059L10.2705 11.8389Z" fill="#080809" style="fill:#080809;fill:color(display-p3 0.0314 0.0314 0.0353);fill-opacity:1;"/>
<path d="M7.31348 14.3232C7.60057 14.7655 7.97982 15.1593 8.44824 15.4717L8.78223 15.6934L8.49023 16.0693C7.54301 17.2871 6.08676 17.9999 4.54395 18H1.5C0.947762 18 0.500077 17.5522 0.5 17C0.5 16.4477 0.947715 16 1.5 16H4.54395C5.46958 15.9999 6.3438 15.5724 6.91211 14.8418L7.31348 14.3232Z" fill="#080809" style="fill:#080809;fill:color(display-p3 0.0314 0.0314 0.0353);fill-opacity:1;"/>
<path d="M17.5 0.5C18.8807 0.5 20 1.61929 20 3C20 4.38071 18.8807 5.5 17.5 5.5C16.1193 5.5 15 4.38071 15 3C15 1.61929 16.1193 0.5 17.5 0.5ZM17.5 2.5C17.2239 2.5 17 2.72386 17 3C17 3.27614 17.2239 3.5 17.5 3.5C17.7761 3.5 18 3.27614 18 3C18 2.72386 17.7761 2.5 17.5 2.5Z" fill="#080809" style="fill:#080809;fill:color(display-p3 0.0314 0.0314 0.0353);fill-opacity:1;"/>
</g>
<defs>
<clipPath id="clip0_29901_26299">
<rect width="24" height="24" fill="white" style="fill:white;fill-opacity:1;"/>
</clipPath>
</defs>
</svg>
