<svg width="24" height="24" viewBox="0 0 24 24" fill="none" xmlns="http://www.w3.org/2000/svg">
<path d="M12.5 8C11.9477 8 11.5 8.44772 11.5 9C11.5 9.55228 11.9477 10 12.5 10H15.5C16.0523 10 16.5 9.55228 16.5 9C16.5 8.44772 16.0523 8 15.5 8H12.5Z" fill="#080809" style="fill:#080809;fill:color(display-p3 0.0314 0.0314 0.0353);fill-opacity:1;"/>
<path fill-rule="evenodd" clip-rule="evenodd" d="M5 5.5C5 4.11929 6.11929 3 7.5 3H14C18.9706 3 23 7.02944 23 12V15.5C23 16.8807 21.8807 18 20.5 18H17.874C17.4299 19.7252 15.8638 21 14 21C12.1362 21 10.5701 19.7252 10.126 18H2C1.17157 18 0.5 17.3284 0.5 16.5V15C0.5 14.4477 0.947715 14 1.5 14C2.05228 14 2.5 14.4477 2.5 15V16H5V5.5ZM10.126 16H7V5.5C7 5.22386 7.22386 5 7.5 5H14C17.866 5 21 8.13401 21 12V15.5C21 15.7761 20.7761 16 20.5 16H17.874C17.4299 14.2748 15.8638 13 14 13C12.1362 13 10.5701 14.2748 10.126 16ZM12 17C12 15.8954 12.8954 15 14 15C15.1046 15 16 15.8954 16 17C16 18.1046 15.1046 19 14 19C12.8954 19 12 18.1046 12 17Z" fill="#080809" style="fill:#080809;fill:color(display-p3 0.0314 0.0314 0.0353);fill-opacity:1;"/>
</svg>
