<svg width="24" height="24" viewBox="0 0 24 24" fill="none" xmlns="http://www.w3.org/2000/svg">
<path d="M5.00024 8C5.00024 7.44772 5.44795 7 6.00024 7H10.0002C10.3883 7 10.7412 7.22446 10.9058 7.57585C11.0704 7.92723 11.0169 8.3421 10.7685 8.64018L9.39462 10.2888C10.6338 10.8276 11.5002 12.0626 11.5002 13.5C11.5002 15.4408 9.91031 17 7.98515 17C6.37236 17 4.94545 15.904 4.55157 14.3284L4.53009 14.2425C4.39615 13.7067 4.72191 13.1638 5.2577 13.0299C5.7935 12.8959 6.33643 13.2217 6.47038 13.7575L6.49185 13.8434C6.66044 14.5177 7.27884 15 7.98515 15C8.82142 15 9.50024 14.3206 9.50024 13.5C9.50024 12.6716 8.82866 12 8.00024 12H7.50024C7.11222 12 6.75923 11.7755 6.59465 11.4242C6.43007 11.0728 6.48361 10.6579 6.73202 10.3598L7.8652 9H6.00024C5.44795 9 5.00024 8.55229 5.00024 8Z" fill="#080809" style="fill:#080809;fill:color(display-p3 0.0314 0.0314 0.0353);fill-opacity:1;"/>
<path fill-rule="evenodd" clip-rule="evenodd" d="M13.5 7C12.9477 7 12.5 7.44772 12.5 8V16C12.5 16.5523 12.9477 17 13.5 17H15.5C17.7091 17 19.5 15.2091 19.5 13V11C19.5 8.79086 17.7091 7 15.5 7H13.5ZM15.5 15H14.5V9H15.5C16.6046 9 17.5 9.89543 17.5 11V13C17.5 14.1046 16.6046 15 15.5 15Z" fill="#080809" style="fill:#080809;fill:color(display-p3 0.0314 0.0314 0.0353);fill-opacity:1;"/>
<path fill-rule="evenodd" clip-rule="evenodd" d="M11.9252 1H12.0748C14.3683 0.999978 16.1914 0.999961 17.6196 1.19198C19.0921 1.38994 20.2936 1.80836 21.2426 2.75736C22.1916 3.70636 22.6101 4.90794 22.808 6.38039C23 7.8086 23 9.63167 23 11.9252V12.0748C23 14.3683 23 16.1914 22.808 17.6196C22.6101 19.0921 22.1916 20.2936 21.2426 21.2426C20.2936 22.1916 19.0921 22.6101 17.6196 22.808C16.1914 23 14.3683 23 12.0748 23H11.9252C9.63167 23 7.8086 23 6.38039 22.808C4.90794 22.6101 3.70636 22.1916 2.75736 21.2426C1.80836 20.2936 1.38994 19.0921 1.19198 17.6196C0.999961 16.1914 0.999978 14.3684 1 12.0748V11.9252C0.999978 9.63166 0.999961 7.80859 1.19198 6.38039C1.38994 4.90794 1.80836 3.70636 2.75736 2.75736C3.70636 1.80836 4.90794 1.38994 6.38039 1.19198C7.80859 0.999961 9.63166 0.999978 11.9252 1ZM6.64689 3.17414C5.39621 3.34229 4.68704 3.65611 4.17157 4.17157C3.65611 4.68704 3.34229 5.39621 3.17414 6.64689C3.00213 7.92634 3 9.61471 3 12C3 14.3853 3.00213 16.0737 3.17414 17.3531C3.34229 18.6038 3.65611 19.313 4.17157 19.8284C4.68704 20.3439 5.39621 20.6577 6.64689 20.8259C7.92634 20.9979 9.61471 21 12 21C14.3853 21 16.0737 20.9979 17.3531 20.8259C18.6038 20.6577 19.313 20.3439 19.8284 19.8284C20.3439 19.313 20.6577 18.6038 20.8259 17.3531C20.9979 16.0737 21 14.3853 21 12C21 9.61471 20.9979 7.92634 20.8259 6.64689C20.6577 5.39621 20.3439 4.68704 19.8284 4.17157C19.313 3.65611 18.6038 3.34229 17.3531 3.17414C16.0737 3.00213 14.3853 3 12 3C9.61471 3 7.92634 3.00213 6.64689 3.17414Z" fill="#080809" style="fill:#080809;fill:color(display-p3 0.0314 0.0314 0.0353);fill-opacity:1;"/>
</svg>
