<svg width="24" height="24" viewBox="0 0 24 24" fill="none" xmlns="http://www.w3.org/2000/svg">
<path d="M20.9142 4.49985C20.1332 3.7188 18.8668 3.7188 18.0858 4.49985L10.4393 12.1463C10.158 12.4276 10 12.8091 10 13.207V14.9998C10 15.8283 10.6716 16.4998 11.5 16.4998H13.2929C13.6907 16.4998 14.0722 16.3418 14.3536 16.0605L22 8.41406C22.781 7.63301 22.781 6.36668 22 5.58564L20.9142 4.49985Z" fill="#080809" style="fill:#080809;fill:color(display-p3 0.0314 0.0314 0.0353);fill-opacity:1;"/>
<path d="M8.49985 14.0856L5.41406 10.9998C4.63302 10.2188 3.36669 10.2188 2.58564 10.9998L1.49985 12.0856C0.7188 12.8667 0.7188 14.133 1.49985 14.9141L6.73208 20.1463C7.7084 21.1226 9.29131 21.1226 10.2676 20.1463L12.414 17.9999H11.5C9.84315 17.9999 8.5 16.6568 8.5 14.9999L8.49985 14.0856Z" fill="#080809" style="fill:#080809;fill:color(display-p3 0.0314 0.0314 0.0353);fill-opacity:1;"/>
</svg>
