<svg width="24" height="24" viewBox="0 0 24 24" fill="none" xmlns="http://www.w3.org/2000/svg">
<path fill-rule="evenodd" clip-rule="evenodd" d="M11.8398 0.512664C11.9986 0.48692 12.1623 0.500383 12.3164 0.551727L21.3164 3.55173C21.7245 3.6879 21.9999 4.06973 22 4.49997V13.5C22 19.0228 17.5228 23.5 12 23.5C6.47715 23.5 2 19.0228 2 13.5V4.49997C2.00009 4.06973 2.27548 3.6879 2.68359 3.55173L11.6836 0.551727L11.8398 0.512664ZM12.2217 5.99997C9.00855 6.00017 6.50002 8.74105 6.5 12C6.5 15.2589 9.00854 17.9998 12.2217 18C14.0649 18 15.901 17.1085 16.8574 15.5146C17.1415 15.0411 16.9881 14.4267 16.5146 14.1425C16.0411 13.8584 15.4268 14.0119 15.1426 14.4853C14.599 15.3914 13.4682 16 12.2217 16C10.2193 15.9998 8.5 14.2636 8.5 12C8.50002 9.73632 10.2193 8.00017 12.2217 7.99997C13.3905 7.99997 14.4576 8.53495 15.0342 9.3486L15.1426 9.51462L15.1992 9.59958C15.5026 10.0057 16.0706 10.1238 16.5146 9.85739C16.9585 9.59099 17.1207 9.03481 16.9053 8.57614L16.8574 8.48532L16.668 8.19528C15.6715 6.78383 13.9498 5.99997 12.2217 5.99997Z" fill="#080809" style="fill:#080809;fill:color(display-p3 0.0314 0.0314 0.0353);fill-opacity:1;"/>
</svg>
