<svg width="24" height="24" viewBox="0 0 24 24" fill="none" xmlns="http://www.w3.org/2000/svg">
<path d="M6.36612 5.86553C5.87796 6.35369 5.87796 7.14514 6.36611 7.6333C6.85427 8.12146 7.64572 8.12146 8.13388 7.63331C8.66567 7.10153 9.19384 6.57174 9.72123 6.04274C10.0642 5.69871 10.4069 5.35499 10.75 5.01128L10.75 13.7495C10.75 14.4398 11.3096 14.9995 12 14.9995C12.6904 14.9995 13.25 14.4398 13.25 13.7495L13.25 5.01604C13.5911 5.35728 13.9322 5.69851 14.2733 6.03981L14.2756 6.04217C14.8054 6.57231 15.3354 7.1026 15.8661 7.63331C16.3543 8.12146 17.1457 8.12146 17.6339 7.6333C18.122 7.14514 18.122 6.35368 17.6339 5.86553C17.1041 5.33572 16.5738 4.80517 16.0434 4.27446L16.0392 4.27019C15.3392 3.56984 14.639 2.86922 13.9391 2.16966C12.8692 1.10016 11.1333 1.09509 10.0594 2.16648C9.35529 2.86889 8.64968 3.57664 7.94549 4.28297C7.41791 4.81215 6.89088 5.34078 6.36612 5.86553Z" fill="#080809" style="fill:#080809;fill:color(display-p3 0.0314 0.0314 0.0353);fill-opacity:1;"/>
<path d="M1 16.8051V16.2495C1 15.5592 1.55965 14.9995 2.25 14.9995C2.94036 14.9995 3.5 15.5592 3.5 16.2495L3.5 16.7495C3.5 17.7071 3.5012 18.3418 3.54514 18.8266C3.58752 19.2942 3.66164 19.4984 3.73446 19.6245C3.88805 19.8905 4.10897 20.1115 4.375 20.2651C4.50112 20.3379 4.7053 20.412 5.17293 20.4544C5.65774 20.4983 6.29238 20.4995 7.25 20.4995H16.75C17.7076 20.4995 18.3423 20.4983 18.8271 20.4544C19.2947 20.412 19.4989 20.3379 19.625 20.2651C19.891 20.1115 20.112 19.8905 20.2655 19.6245C20.3384 19.4984 20.4125 19.2942 20.4549 18.8266C20.4988 18.3418 20.5 17.7071 20.5 16.7495V16.2495C20.5 15.5592 21.0596 14.9995 21.75 14.9995C22.4404 14.9995 23 15.5592 23 16.2495V16.8051C23 17.6924 23 18.4411 22.9447 19.0522C22.8866 19.6933 22.7597 20.3045 22.4306 20.8745C22.0576 21.5206 21.5211 22.0571 20.875 22.4301C20.305 22.7592 19.6938 22.8861 19.0527 22.9442C18.4416 22.9996 17.6928 22.9995 16.8056 22.9995H7.19442C6.30716 22.9995 5.55839 22.9996 4.94727 22.9442C4.30624 22.8861 3.69504 22.7592 3.125 22.4301C2.47892 22.0571 1.94241 21.5206 1.5694 20.8745C1.24029 20.3045 1.11345 19.6933 1.05535 19.0522C0.999959 18.4411 0.999978 17.6923 1 16.8051Z" fill="#080809" style="fill:#080809;fill:color(display-p3 0.0314 0.0314 0.0353);fill-opacity:1;"/>
</svg>
