<svg width="24" height="24" viewBox="0 0 24 24" fill="none" xmlns="http://www.w3.org/2000/svg">
<path fill-rule="evenodd" clip-rule="evenodd" d="M6.99902 6V3.5C6.99902 1.84315 8.34217 0.5 9.99902 0.5H13.499C15.1559 0.5 16.499 1.84315 16.499 3.5V6H19.3415C20.8206 6 21.9763 7.27704 21.8291 8.74876L20.6291 20.7488C20.5013 22.0268 19.4259 23 18.1415 23H5.85649C5.77622 23 5.69676 22.9962 5.6183 22.9888C4.44139 22.8772 3.48871 21.9469 3.3689 20.7488L2.1689 8.74876C2.162 8.67977 2.15797 8.61121 2.15669 8.54319C2.13079 7.16012 3.24677 6 4.65649 6H6.99902ZM8.99902 3.5C8.99902 2.94772 9.44674 2.5 9.99902 2.5H13.499C14.0513 2.5 14.499 2.94772 14.499 3.5V6H8.99902V3.5ZM14.499 8V11C14.499 11.5523 14.9467 12 15.499 12C16.0513 12 16.499 11.5523 16.499 11V8H19.3415C19.6373 8 19.8685 8.25541 19.8391 8.54975L18.6391 20.5498C18.6135 20.8054 18.3984 21 18.1415 21H12.404L11.104 8H14.499Z" fill="#080809" style="fill:#080809;fill:color(display-p3 0.0314 0.0314 0.0353);fill-opacity:1;"/>
</svg>
