<svg width="24" height="24" viewBox="0 0 24 24" fill="none" xmlns="http://www.w3.org/2000/svg">
<path d="M7.55762 5.78766C7.9631 5.57635 8.34769 5.64845 8.60937 5.9566C8.61782 5.96636 9.15482 6.61131 9.38574 6.92731C9.62528 7.26366 9.8474 7.61242 10.0518 7.97125C10.3183 8.45011 10.1513 8.94014 9.88965 9.14215L9.36133 9.56207C9.09523 9.77656 9.12965 10.1746 9.12988 10.1773C9.13348 10.1909 9.91913 13.1416 12.8369 13.8863C12.8494 13.8873 13.2404 13.9156 13.4521 13.6548L13.8721 13.1255C14.0746 12.864 14.5633 12.697 15.042 12.9634C15.401 13.1684 15.7494 13.3908 16.0859 13.6304C16.4039 13.8643 17.0566 14.4068 17.0566 14.4068C17.3665 14.6684 17.4376 15.0523 17.2266 15.4576L17.2256 15.4664C16.9932 15.8694 16.6974 16.2324 16.3506 16.5425C16.3471 16.5445 16.3465 16.5465 16.3428 16.5484C16.0415 16.7998 15.7456 16.9439 15.4551 16.9781C15.4128 16.9854 15.3694 16.9878 15.3262 16.9859C15.1981 16.9869 15.0705 16.9679 14.9482 16.9283L14.9385 16.9146C14.4909 16.7884 13.7434 16.4712 12.499 15.7847C11.779 15.392 11.0919 14.9394 10.4482 14.4312C10.1255 14.1764 9.81786 13.9029 9.52637 13.6129L9.46484 13.5513L9.43359 13.5191C9.42334 13.5093 9.41259 13.4991 9.40234 13.4888C9.11238 13.1974 8.83973 12.8892 8.58496 12.567C8.07635 11.9229 7.62319 11.237 7.23047 10.5171C6.54373 9.27183 6.22776 8.52427 6.10156 8.07574L6.08789 8.06695C6.04827 7.94516 6.02832 7.81718 6.0293 7.68902C6.02735 7.64602 6.02978 7.60214 6.03711 7.55914C6.07337 7.2693 6.21662 6.9735 6.4668 6.67145C6.4687 6.66811 6.47075 6.66773 6.47265 6.66363C6.78276 6.31733 7.14676 6.02146 7.5498 5.78961C7.5498 5.78961 7.5556 5.78783 7.55762 5.78766Z" fill="#080809" style="fill:#080809;fill:color(display-p3 0.0314 0.0314 0.0353);fill-opacity:1;"/>
<path d="M11.8486 5.02692C13.5002 5.03914 14.9029 5.59465 16.0176 6.68024C17.1323 7.7661 17.7065 9.2722 17.7217 11.147C17.7226 11.304 17.5964 11.4317 17.4395 11.4332H17.4365C17.2807 11.4325 17.1538 11.3059 17.1523 11.15C17.1391 9.41036 16.6379 8.08178 15.6201 7.08844C14.615 6.10921 13.3449 5.60702 11.8447 5.59625C11.6877 5.59576 11.5601 5.46713 11.5605 5.31012C11.5611 5.15265 11.6897 5.02643 11.8467 5.02692H11.8486Z" fill="#080809" style="fill:#080809;fill:color(display-p3 0.0314 0.0314 0.0353);fill-opacity:1;"/>
<path d="M12.3691 6.5025C13.5822 6.59152 14.5437 7.01634 15.2275 7.76422C15.9113 8.51209 16.2515 9.45764 16.2266 10.5689C16.2236 10.724 16.0974 10.8477 15.9424 10.8482H15.9355C15.7786 10.8447 15.6548 10.7141 15.6582 10.5572C15.6802 9.58434 15.4024 8.79658 14.8086 8.14899C14.2153 7.50143 13.406 7.15062 12.3281 7.07184C12.1711 7.0601 12.0527 6.92318 12.0645 6.76617C12.0758 6.60941 12.2124 6.49146 12.3691 6.5025Z" fill="#080809" style="fill:#080809;fill:color(display-p3 0.0314 0.0314 0.0353);fill-opacity:1;"/>
<path d="M12.7959 8.03082C14.0211 8.09832 14.7029 8.79785 14.7656 10.0591C14.7734 10.2161 14.653 10.3501 14.4961 10.358H14.4814C14.33 10.3578 14.2051 10.239 14.1973 10.0875C14.1488 9.12171 13.6943 8.64912 12.7656 8.59918C12.6091 8.58695 12.4917 8.44906 12.5039 8.29254C12.5162 8.14157 12.6445 8.02711 12.7959 8.03082Z" fill="#080809" style="fill:#080809;fill:color(display-p3 0.0314 0.0314 0.0353);fill-opacity:1;"/>
<path fill-rule="evenodd" clip-rule="evenodd" d="M3.58105 3.3111C6.47425 0.657082 12.4102 1.0152 12.4102 1.0152C17.443 1.03778 19.7027 2.67789 20.2617 3.19391C22.1183 4.80324 23.1457 8.37347 22.4531 14.0171C21.7822 19.4924 17.6586 20.022 16.9287 20.2584C16.6132 20.3611 13.8358 21.0553 10.2256 20.7515C9.82695 21.2147 9.29802 21.8211 8.91504 22.2339C8.21772 22.9856 7.78925 23.6826 7.05859 23.4556C6.45667 23.2694 6.48806 22.3574 6.48828 22.3511L6.49219 20.0855H6.48633C1.20777 18.6005 1.28505 13.1238 1.34473 10.2017C1.4044 7.27925 1.97094 4.92179 3.58105 3.3111ZM12.3164 2.60406C12.2638 2.60067 7.26286 2.28431 4.82812 4.48883C3.46639 5.83393 3.00741 7.83421 2.95703 10.275C2.90614 12.7158 2.64683 17.3759 7.1123 18.6158C7.1123 18.6158 7.09473 22.0775 7.09277 22.3814C7.09131 22.594 7.12458 22.7401 7.24707 22.7701C7.33462 22.7926 7.4666 22.7463 7.57812 22.6343C8.29229 21.917 10.5762 19.1607 10.5762 19.1607C13.643 19.3612 16.0826 18.7546 16.3447 18.6705C16.9624 18.4724 20.3067 18.1843 20.873 13.6129V13.6109C21.4579 8.89642 20.6575 5.67813 19.0869 4.33356C18.613 3.90367 16.5723 2.62264 12.3164 2.60406Z" fill="#080809" style="fill:#080809;fill:color(display-p3 0.0314 0.0314 0.0353);fill-opacity:1;"/>
</svg>
