<svg width="24" height="24" viewBox="0 0 24 24" fill="none" xmlns="http://www.w3.org/2000/svg">
<path d="M8 11C8 10.4477 8.44772 10 9 10H15C15.5523 10 16 10.4477 16 11C16 11.5523 15.5523 12 15 12H9C8.44772 12 8 11.5523 8 11Z" fill="#080809" style="fill:#080809;fill:color(display-p3 0.0314 0.0314 0.0353);fill-opacity:1;"/>
<path d="M9 15C8.44772 15 8 15.4477 8 16C8 16.5523 8.44772 17 9 17H13C13.5523 17 14 16.5523 14 16C14 15.4477 13.5523 15 13 15H9Z" fill="#080809" style="fill:#080809;fill:color(display-p3 0.0314 0.0314 0.0353);fill-opacity:1;"/>
<path fill-rule="evenodd" clip-rule="evenodd" d="M3 7.42943V16.5706C2.99997 17.9247 2.99994 19.0413 3.11876 19.9251C3.2435 20.8529 3.51547 21.6723 4.17158 22.3284C4.82769 22.9845 5.64711 23.2565 6.57494 23.3813C7.4587 23.5001 8.57531 23.5 9.92943 23.5H14.0706C15.4247 23.5 16.5413 23.5001 17.4251 23.3813C18.3529 23.2565 19.1723 22.9845 19.8284 22.3284C20.4845 21.6723 20.7565 20.8529 20.8813 19.9251C21.0001 19.0413 21 17.9247 21 16.5706V7.42946C21 6.07536 21.0001 4.95869 20.8813 4.07494C20.7565 3.14711 20.4845 2.32768 19.8284 1.67158C19.1723 1.01547 18.3529 0.743498 17.4251 0.618754C16.5413 0.499938 15.4247 0.499966 14.0706 0.500001H9.92946C8.57536 0.499967 7.45869 0.499938 6.57494 0.618754C5.64711 0.743499 4.82769 1.01547 4.17158 1.67158C3.51547 2.32769 3.2435 3.14711 3.11876 4.07494C2.99994 4.95869 2.99997 6.07533 3 7.42943ZM5.58579 20.9142C5.36322 20.6916 5.19585 20.3646 5.10092 19.6586C5.00213 18.9237 5 17.9425 5 16.5L5 7.5C5 6.05752 5.00213 5.07626 5.10092 4.34144C5.19585 3.63538 5.36322 3.30836 5.58579 3.08579C5.80836 2.86322 6.13538 2.69585 6.84144 2.60092C6.98374 2.58179 7.13529 2.56628 7.29765 2.55371L7.70987 3.7904C8.05016 4.81125 9.00551 5.49983 10.0816 5.49983H13.9193C14.9954 5.49983 15.9507 4.81125 16.291 3.7904L16.7032 2.55378C16.8652 2.56633 17.0165 2.58182 17.1586 2.60092C17.8646 2.69585 18.1916 2.86322 18.4142 3.08579C18.6368 3.30836 18.8042 3.63538 18.8991 4.34143C18.9979 5.07625 19 6.05752 19 7.5V16.5C19 17.9425 18.9979 18.9237 18.8991 19.6586C18.8042 20.3646 18.6368 20.6916 18.4142 20.9142C18.1916 21.1368 17.8646 21.3042 17.1586 21.3991C16.4238 21.4979 15.4425 21.5 14 21.5L10 21.5C8.55752 21.5 7.57626 21.4979 6.84144 21.3991C6.13538 21.3042 5.80836 21.1368 5.58579 20.9142ZM14.6128 2.50045C14.4182 2.50005 14.2142 2.5 14 2.5L10 2.5C9.78612 2.5 9.58238 2.50005 9.38808 2.50045L9.60724 3.15794C9.6753 3.36211 9.86637 3.49983 10.0816 3.49983H13.9193C14.1345 3.49983 14.3256 3.36211 14.3936 3.15794L14.6128 2.50045Z" fill="#080809" style="fill:#080809;fill:color(display-p3 0.0314 0.0314 0.0353);fill-opacity:1;"/>
</svg>
