<svg width="24" height="24" viewBox="0 0 24 24" fill="none" xmlns="http://www.w3.org/2000/svg">
<path d="M16.4997 8.92373C16.4688 11.0741 14.2279 12.8887 12.2483 14.0687C12.0951 14.1601 11.9048 14.1601 11.7516 14.0687C9.77202 12.8887 7.53125 11.0741 7.50034 8.92373C7.47746 7.41815 8.59962 6.52371 9.74996 6.50194C10.6759 6.48443 11.3388 6.89397 12 7.89288C12.661 6.89413 13.324 6.48299 14.2499 6.50054C15.4003 6.52233 16.5225 7.41836 16.4997 8.92373Z" fill="#080809" style="fill:#080809;fill:color(display-p3 0.0314 0.0314 0.0353);fill-opacity:1;"/>
<path fill-rule="evenodd" clip-rule="evenodd" d="M3.96934 3.54771C1.8791 5.14027 0.5 7.41229 0.5 10V14C0.5 16.5877 1.8791 18.8597 3.96934 20.4523C6.05875 22.0442 8.90134 23 12 23C15.0987 23 17.9412 22.0442 20.0307 20.4523C22.1209 18.8597 23.5 16.5877 23.5 14V10C23.5 7.41229 22.1209 5.14027 20.0307 3.54771C17.9412 1.95578 15.0987 1 12 1C8.90134 1 6.05875 1.95578 3.96934 3.54771ZM5.18142 5.13858C3.4714 6.44145 2.5 8.16944 2.5 10C2.5 11.8306 3.4714 13.5585 5.18142 14.8614C6.89226 16.1649 9.29967 17 12 17C14.7003 17 17.1077 16.1649 18.8186 14.8614C20.5286 13.5585 21.5 11.8306 21.5 10C21.5 8.16944 20.5286 6.44145 18.8186 5.13858C17.1077 3.83508 14.7003 3 12 3C9.29967 3 6.89226 3.83508 5.18142 5.13858ZM18.8186 18.8614C20.1306 17.8618 21.0078 16.612 21.345 15.2575C20.9494 15.6884 20.5086 16.0881 20.0307 16.4523C17.9412 18.0442 15.0987 19 12 19C8.90134 19 6.05875 18.0442 3.96934 16.4523C3.49136 16.0881 3.05057 15.6884 2.65496 15.2575C2.99224 16.612 3.86944 17.8618 5.18142 18.8614C6.89226 20.1649 9.29967 21 12 21C14.7003 21 17.1077 20.1649 18.8186 18.8614Z" fill="#080809" style="fill:#080809;fill:color(display-p3 0.0314 0.0314 0.0353);fill-opacity:1;"/>
</svg>
