<svg width="24" height="24" viewBox="0 0 24 24" fill="none" xmlns="http://www.w3.org/2000/svg">
<path d="M9 12C9 10.3431 10.3431 9 12 9C13.6569 9 15 10.3431 15 12C15 13.6569 13.6569 15 12 15C10.3431 15 9 13.6569 9 12Z" fill="#080809" style="fill:#080809;fill:color(display-p3 0.0314 0.0314 0.0353);fill-opacity:1;"/>
<path fill-rule="evenodd" clip-rule="evenodd" d="M4.2302 6.2738C6.08831 4.54642 8.68284 3 11.9998 3C15.3168 3 17.9113 4.54642 19.7694 6.2738C21.6227 7.99674 22.8043 9.95276 23.33 10.9302C23.6915 11.6024 23.6916 12.3976 23.33 13.0698C22.8043 14.0472 21.6227 16.0033 19.7694 17.7262C17.9113 19.4536 15.3168 21 11.9998 21C8.68284 21 6.08831 19.4536 4.2302 17.7262C2.37688 16.0033 1.19532 14.0472 0.669594 13.0698C0.308053 12.3976 0.308052 11.6024 0.669593 10.9302C1.19532 9.95276 2.37688 7.99674 4.2302 6.2738ZM12 7C9.23858 7 7 9.23858 7 12C7 14.7614 9.23858 17 12 17C14.7614 17 17 14.7614 17 12C17 9.23858 14.7614 7 12 7Z" fill="#080809" style="fill:#080809;fill:color(display-p3 0.0314 0.0314 0.0353);fill-opacity:1;"/>
</svg>
