<svg width="24" height="24" viewBox="0 0 24 24" fill="none" xmlns="http://www.w3.org/2000/svg">
<g clip-path="url(#clip0_29901_28411)">
<path fill-rule="evenodd" clip-rule="evenodd" d="M0.5 12C0.5 5.64873 5.64873 0.5 12 0.5C18.3513 0.5 23.5 5.64873 23.5 12C23.5 18.3513 18.3513 23.5 12 23.5C5.64873 23.5 0.5 18.3513 0.5 12ZM14.5181 5.14469C14.9365 5.39815 15.1102 5.91718 14.9285 6.37144L13.477 10H16C16.3905 10 16.7453 10.2274 16.9085 10.5822C17.0717 10.937 17.0134 11.3543 16.7593 11.6508L10.7593 18.6508C10.4409 19.0223 9.90045 19.1089 9.48197 18.8554C9.06349 18.6019 8.88983 18.0829 9.07154 17.6287L10.523 14H8.00001C7.60948 14 7.25469 13.7727 7.0915 13.4179C6.92832 13.0631 6.9866 12.6458 7.24076 12.3493L13.2408 5.34925C13.5592 4.97779 14.0996 4.89124 14.5181 5.14469Z" fill="#080809" style="fill:#080809;fill:color(display-p3 0.0314 0.0314 0.0353);fill-opacity:1;"/>
</g>
<defs>
<clipPath id="clip0_29901_28411">
<rect width="24" height="24" fill="white" style="fill:white;fill-opacity:1;"/>
</clipPath>
</defs>
</svg>
