<svg width="24" height="24" viewBox="0 0 24 24" fill="none" xmlns="http://www.w3.org/2000/svg">
<path d="M10 1C13.8113 1 17.0692 3.36903 18.3816 6.71487C17.1021 5.94366 15.6029 5.5 14 5.5C9.30558 5.5 5.5 9.30558 5.5 14C5.5 15.6029 5.94366 17.1021 6.71487 18.3816C3.36903 17.0692 1 13.8113 1 10C1 5.02944 5.02944 1 10 1Z" fill="#080809" style="fill:#080809;fill:color(display-p3 0.0314 0.0314 0.0353);fill-opacity:1;"/>
<path d="M11.5 18C11.5 18.979 11.7165 19.9075 12.1041 20.7402C9.15927 19.9136 7 17.209 7 14C7 10.134 10.134 7 14 7C17.209 7 19.9136 9.15927 20.7402 12.1041C19.9075 11.7165 18.979 11.5 18 11.5C14.4101 11.5 11.5 14.4101 11.5 18Z" fill="#080809" style="fill:#080809;fill:color(display-p3 0.0314 0.0314 0.0353);fill-opacity:1;"/>
<path d="M23 18C23 15.2386 20.7614 13 18 13C15.2386 13 13 15.2386 13 18C13 20.7614 15.2386 23 18 23C20.7614 23 23 20.7614 23 18Z" fill="#080809" style="fill:#080809;fill:color(display-p3 0.0314 0.0314 0.0353);fill-opacity:1;"/>
</svg>
