<svg width="24" height="24" viewBox="0 0 24 24" fill="none" xmlns="http://www.w3.org/2000/svg">
<path fill-rule="evenodd" clip-rule="evenodd" d="M13 14C13 14.0654 13.0063 14.1294 13.0183 14.1914C13.2424 16.8843 15.4991 19 18.25 19C21.1495 19 23.5 16.6495 23.5 13.75C23.5 10.8505 21.1495 8.5 18.25 8.5C17.3852 8.5 16.5692 8.7091 15.8499 9.07949C16.0595 8.66472 16.305 8.28646 16.5835 7.94938C17.5722 6.75251 19.0342 6 21 6C21.5523 6 22 5.55229 22 5C22 4.44771 21.5523 4 21 4C18.4658 4 16.4278 4.99749 15.0415 6.67562C13.6734 8.33182 13 10.5745 13 13V14ZM15 13.75C15 15.5449 16.4551 17 18.25 17C20.0449 17 21.5 15.5449 21.5 13.75C21.5 11.9551 20.0449 10.5 18.25 10.5C16.4551 10.5 15 11.9551 15 13.75Z" fill="#080809" style="fill:#080809;fill:color(display-p3 0.0314 0.0314 0.0353);fill-opacity:1;"/>
<path fill-rule="evenodd" clip-rule="evenodd" d="M11 13.75C11 16.6495 8.6495 19 5.75 19C2.99915 19 0.742442 16.8843 0.51829 14.1914C0.506287 14.1294 0.5 14.0654 0.5 14V13C0.5 10.5745 1.17337 8.33182 2.54154 6.67562C3.92782 4.99749 5.96583 4 8.5 4C9.05229 4 9.5 4.44771 9.5 5C9.5 5.55229 9.05229 6 8.5 6C6.53417 6 5.07218 6.75251 4.08346 7.94938C3.80501 8.28645 3.55946 8.66472 3.34992 9.07949C4.06924 8.7091 4.8852 8.5 5.75 8.5C8.6495 8.5 11 10.8505 11 13.75ZM2.5 13.75C2.5 15.5449 3.95507 17 5.75 17C7.54493 17 9 15.5449 9 13.75C9 11.9551 7.54493 10.5 5.75 10.5C3.95507 10.5 2.5 11.9551 2.5 13.75Z" fill="#080809" style="fill:#080809;fill:color(display-p3 0.0314 0.0314 0.0353);fill-opacity:1;"/>
</svg>
