<svg width="24" height="24" viewBox="0 0 24 24" fill="none" xmlns="http://www.w3.org/2000/svg">
<g clip-path="url(#clip0_29901_28482)">
<path fill-rule="evenodd" clip-rule="evenodd" d="M12 0.5C5.64873 0.5 0.5 5.64873 0.5 12C0.5 18.3513 5.64873 23.5 12 23.5C18.3513 23.5 23.5 18.3513 23.5 12C23.5 5.64873 18.3513 0.5 12 0.5ZM10.2931 15.2929L13.2325 12.3536C13.4277 12.1583 13.4277 11.8417 13.2325 11.6464L10.2931 8.70711C9.9026 8.31658 9.9026 7.68342 10.2931 7.29289C10.6836 6.90237 11.3168 6.90237 11.7073 7.29289L14.6467 10.2322C15.623 11.2085 15.623 12.7915 14.6467 13.7678L11.7073 16.7071C11.3168 17.0976 10.6836 17.0976 10.2931 16.7071C9.9026 16.3166 9.9026 15.6834 10.2931 15.2929Z" fill="#080809" style="fill:#080809;fill:color(display-p3 0.0314 0.0314 0.0353);fill-opacity:1;"/>
</g>
<defs>
<clipPath id="clip0_29901_28482">
<rect width="24" height="24" fill="white" style="fill:white;fill-opacity:1;"/>
</clipPath>
</defs>
</svg>
