<svg width="24" height="24" viewBox="0 0 24 24" fill="none" xmlns="http://www.w3.org/2000/svg">
<path fill-rule="evenodd" clip-rule="evenodd" d="M2.70711 1.29289C2.31658 0.902369 1.68342 0.902369 1.29289 1.29289C0.902369 1.68342 0.902369 2.31658 1.29289 2.70711L21.2929 22.7071C21.6834 23.0976 22.3166 23.0976 22.7071 22.7071C23.0976 22.3166 23.0976 21.6834 22.7071 21.2929L19.4388 18.0246C19.5515 17.9259 19.6617 17.8264 19.7694 17.7262C21.6227 16.0033 22.8043 14.0472 23.33 13.0698C23.6916 12.3976 23.6915 11.6024 23.33 10.9302C22.8043 9.95276 21.6227 7.99674 19.7694 6.2738C17.9113 4.54642 15.3168 3 11.9998 3C9.71234 3 7.76846 3.73545 6.17273 4.75852L2.70711 1.29289ZM9.24261 7.8284L10.7066 9.29237C11.0982 9.10495 11.5369 9 12 9C13.6569 9 15 10.3431 15 12C15 12.4631 14.895 12.9018 14.7076 13.2934L16.1716 14.7574C16.6951 13.967 17 13.0191 17 12C17 9.23858 14.7614 7 12 7C10.9809 7 10.033 7.30488 9.24261 7.8284Z" fill="#080809" style="fill:#080809;fill:color(display-p3 0.0314 0.0314 0.0353);fill-opacity:1;"/>
<path d="M0.669593 10.9302C1.12075 10.0914 2.05491 8.5319 3.48212 7.01751L7.16939 10.7048C7.0589 11.1179 7 11.5521 7 12C7 14.7614 9.23858 17 12 17C12.4479 17 12.8821 16.9411 13.2952 16.8306L16.4615 19.9969C15.1589 20.6074 13.671 21 11.9998 21C8.68284 21 6.08831 19.4536 4.2302 17.7262C2.37688 16.0033 1.19532 14.0472 0.669594 13.0698C0.308053 12.3976 0.308052 11.6024 0.669593 10.9302Z" fill="#080809" style="fill:#080809;fill:color(display-p3 0.0314 0.0314 0.0353);fill-opacity:1;"/>
</svg>
