<svg width="24" height="24" viewBox="0 0 24 24" fill="none" xmlns="http://www.w3.org/2000/svg">
<path d="M4.00013 11C4.00013 11.2761 4.22399 11.5 4.50013 11.5C4.77627 11.5 5.00013 11.2761 5.00013 11L5.00009 5.375C5.00009 4.61561 5.6157 4 6.37509 4C7.13448 4 7.75009 4.61561 7.75009 5.375V11C7.75009 11.2761 7.97399 11.5 8.25013 11.5C8.52627 11.5 8.75013 11.2761 8.75013 11V6.36465C8.75569 5.61002 9.36915 5 10.1251 5C10.8845 5 11.5001 5.61561 11.5001 6.375L11.5001 14.25C11.5001 17.4256 8.92569 20 5.75006 20C2.57447 20 0.00012535 17.4257 3.52877e-05 14.2501L0 13.0066C0.000318508 12.451 0.450879 12 1.00663 12C1.40932 12 1.77326 12.24 1.93187 12.6101L3.04042 15.1969C3.14919 15.4508 3.44313 15.5683 3.69695 15.4596C3.95076 15.3508 4.06835 15.0569 3.95958 14.8031L2.85103 12.2162C2.56717 11.5538 1.95344 11.1005 1.25009 11.0148V6.375C1.25009 5.61561 1.8657 5 2.62509 5C3.38448 5 4.00009 5.61561 4.00009 6.375L4.00013 11Z" fill="#080809" style="fill:#080809;fill:color(display-p3 0.0314 0.0314 0.0353);fill-opacity:1;"/>
<path d="M19.9999 11C19.9999 11.2761 19.776 11.5 19.4999 11.5C19.2237 11.5 18.9999 11.2761 18.9999 11L18.9999 5.375C18.9999 4.61561 18.3843 4 17.6249 4C16.8655 4 16.2499 4.61561 16.2499 5.375V11C16.2499 11.2761 16.026 11.5 15.7499 11.5C15.4737 11.5 15.2499 11.2761 15.2499 11V6.36465C15.2443 5.61002 14.6308 5 13.8749 5C13.1155 5 12.4999 5.61561 12.4999 6.375L12.4999 14.25C12.4999 17.4256 15.0743 20 18.2499 20C21.4255 20 23.9999 17.4257 24 14.2501L24 13.0066C23.9997 12.451 23.5491 12 22.9934 12C22.5907 12 22.2267 12.24 22.0681 12.6101L20.9596 15.1969C20.8508 15.4508 20.5569 15.5683 20.3031 15.4596C20.0492 15.3508 19.9317 15.0569 20.0404 14.8031L21.149 12.2162C21.4328 11.5538 22.0466 11.1005 22.7499 11.0148V6.375C22.7499 5.61561 22.1343 5 21.3749 5C20.6155 5 19.9999 5.61561 19.9999 6.375L19.9999 11Z" fill="#080809" style="fill:#080809;fill:color(display-p3 0.0314 0.0314 0.0353);fill-opacity:1;"/>
</svg>
