<svg width="24" height="24" viewBox="0 0 24 24" fill="none" xmlns="http://www.w3.org/2000/svg">
<path d="M9.53418 9.00045C9.87635 9.01223 10.1848 9.19762 10.3574 9.4858L10.4229 9.61471L12.1787 13.8276L13.6523 11.4692C13.7956 11.2403 14.0251 11.0789 14.2891 11.0219C14.5202 10.9722 14.7607 11.0061 14.9678 11.1157L15.0547 11.1674L16.3027 11.9995H17.5C18.0523 11.9995 18.5 12.4472 18.5 12.9995C18.5 13.5517 18.0523 13.9995 17.5 13.9995H16C15.8026 13.9995 15.6096 13.941 15.4453 13.8315L14.8027 13.4018L12.8477 16.5297C12.6494 16.8467 12.2907 17.0271 11.918 16.9965C11.5453 16.9659 11.221 16.7294 11.0771 16.3842L9.41797 12.4008L8.89453 13.4467C8.72513 13.7855 8.37875 13.9995 8 13.9995H6.5C5.94774 13.9995 5.50004 13.5517 5.5 12.9995C5.50003 12.4472 5.94773 11.9995 6.5 11.9995H7.38184L8.60547 9.55221C8.7804 9.2024 9.14332 8.98708 9.53418 9.00045Z" fill="#080809" style="fill:#080809;fill:color(display-p3 0.0314 0.0314 0.0353);fill-opacity:1;"/>
<path fill-rule="evenodd" clip-rule="evenodd" d="M17.2686 3.00142C20.4555 3.0618 23.5597 5.56067 23.498 9.66939L23.499 9.67037C23.4576 12.5473 21.9338 15.1011 19.9404 17.227C17.9387 19.3617 15.3677 21.1698 13.0078 22.5698C12.3864 22.9384 11.6136 22.9384 10.9922 22.5698C8.63231 21.1698 6.0613 19.3618 4.05957 17.227C2.06624 15.1011 0.542432 12.5473 0.500977 9.67037L0.501953 9.66939C0.440258 5.5594 3.54533 3.06561 6.73145 3.00533C7.97734 2.98183 9.09885 3.24906 10.1328 3.88814C10.8121 4.30812 11.4231 4.87286 11.999 5.56881C12.5751 4.87228 13.1867 4.30691 13.8662 3.88619C14.9 3.24612 16.0218 2.97784 17.2686 3.00142ZM17.2305 5.00142C16.317 4.98418 15.5851 5.17557 14.9199 5.58736C14.2367 6.01037 13.5596 6.70608 12.834 7.80221C12.6488 8.08193 12.3355 8.25042 12 8.25045C11.6645 8.25044 11.3512 8.08197 11.166 7.80221C10.4406 6.70625 9.76389 6.01147 9.08105 5.58931C8.41592 5.1782 7.68296 4.98705 6.76855 5.00435C4.65518 5.04447 2.58983 6.62207 2.50293 9.37056L2.50098 9.6401C2.53219 11.8101 3.68911 13.9088 5.51855 15.8598C7.33632 17.7983 9.725 19.4906 12 20.8413C14.275 19.4906 16.6637 17.7983 18.4814 15.8598C20.3109 13.9088 21.4678 11.8111 21.499 9.64107C21.5431 6.72598 19.4114 5.04274 17.2305 5.00142Z" fill="#080809" style="fill:#080809;fill:color(display-p3 0.0314 0.0314 0.0353);fill-opacity:1;"/>
</svg>
