<svg width="24" height="24" viewBox="0 0 24 24" fill="none" xmlns="http://www.w3.org/2000/svg">
<path fill-rule="evenodd" clip-rule="evenodd" d="M16.1287 2.45706C17.3002 1.28548 19.1997 1.28547 20.3713 2.45705L21.5429 3.62862C22.7145 4.80019 22.7145 6.69969 21.5429 7.87126L18.9142 10.5L19.2071 10.7929C19.5976 11.1834 19.5976 11.8166 19.2071 12.2071C18.8166 12.5976 18.1834 12.5976 17.7929 12.2071L17.5001 11.9143L12.715 16.6993C12.7124 16.7019 12.7099 16.7045 12.7073 16.7071L8.14664 21.2678C7.6778 21.7366 7.04191 22 6.37887 22H4.23626L3.78905 22.2236C2.7276 22.7543 1.61298 21.9211 1.61182 20.8906C1.61156 20.6693 1.66263 20.439 1.77659 20.2111L2.00015 19.7639V17.6213C2.00015 16.9583 2.26355 16.3224 2.73239 15.8536L12.0859 6.50008L11.7929 6.20711C11.4024 5.81658 11.4024 5.18342 11.7929 4.79289C12.1834 4.40237 12.8166 4.40237 13.2071 4.79289L13.5 5.08576L16.1287 2.45706ZM9.58588 17L6.73239 19.8535C6.63862 19.9472 6.51145 19.9999 6.37884 19.9999H4.00019V17.6213C4.00019 17.4887 4.05287 17.3615 4.14664 17.2678L4.41441 17H9.58588ZM11.5859 15H6.41437L13.5001 7.91429L16.0859 10.5001L11.5859 15Z" fill="#080809" style="fill:#080809;fill:color(display-p3 0.0314 0.0314 0.0353);fill-opacity:1;"/>
</svg>
