<svg width="24" height="24" viewBox="0 0 24 24" fill="none" xmlns="http://www.w3.org/2000/svg">
<path d="M10.5 13C9.11929 13 8 14.1193 8 15.5C8 16.3284 8.67157 17 9.5 17H14.5C15.3284 17 16 16.3284 16 15.5C16 14.1193 14.8807 13 13.5 13H10.5Z" fill="#080809" style="fill:#080809;fill:color(display-p3 0.0314 0.0314 0.0353);fill-opacity:1;"/>
<path d="M12 7C13.2426 7 14.25 8.00736 14.25 9.25C14.25 10.4926 13.2426 11.5 12 11.5C10.7574 11.5 9.75 10.4926 9.75 9.25C9.75 8.00736 10.7574 7 12 7Z" fill="#080809" style="fill:#080809;fill:color(display-p3 0.0314 0.0314 0.0353);fill-opacity:1;"/>
<path fill-rule="evenodd" clip-rule="evenodd" d="M11.6838 0.551317C11.889 0.482894 12.111 0.482894 12.3162 0.551317L21.3162 3.55132C21.7246 3.68743 22 4.06957 22 4.5V13.5C22 19.0228 17.5228 23.5 12 23.5C6.47715 23.5 2 19.0228 2 13.5V4.5C2 4.06957 2.27543 3.68743 2.68377 3.55132L11.6838 0.551317ZM4 5.22076V13.5C4 17.9183 7.58172 21.5 12 21.5C16.4183 21.5 20 17.9183 20 13.5V5.22076L12 2.55409L4 5.22076Z" fill="#080809" style="fill:#080809;fill:color(display-p3 0.0314 0.0314 0.0353);fill-opacity:1;"/>
</svg>
