<svg width="24" height="24" viewBox="0 0 24 24" fill="none" xmlns="http://www.w3.org/2000/svg">
<g clip-path="url(#clip0_29901_27858)">
<path d="M5.74969 4C5.74969 4.69036 6.30933 5.25 6.99969 5.25C7.69004 5.25 8.24969 4.69036 8.24969 4V2C8.24969 1.30964 7.69004 0.75 6.99969 0.75C6.30933 0.75 5.74969 1.30964 5.74969 2V4Z" fill="#080809" style="fill:#080809;fill:color(display-p3 0.0314 0.0314 0.0353);fill-opacity:1;"/>
<path d="M21.134 2.8667C18.5748 0.307424 14.4254 0.307379 11.8661 2.8666L9.61594 5.11674C9.12778 5.60489 9.12777 6.39635 9.61592 6.88451C10.1041 7.37267 10.8955 7.37268 11.3837 6.88453L13.6339 4.63439C15.2168 3.05147 17.7833 3.05149 19.3662 4.63445C20.9492 6.2174 20.9491 8.78384 19.3662 10.3668L17.1161 12.6169C16.6279 13.1051 16.6279 13.8965 17.1161 14.3847C17.6042 14.8728 18.3957 14.8728 18.8839 14.3847L21.134 12.1345C23.6932 9.57531 23.6932 5.42597 21.134 2.8667Z" fill="#080809" style="fill:#080809;fill:color(display-p3 0.0314 0.0314 0.0353);fill-opacity:1;"/>
<path d="M6.88386 11.3847C7.37203 10.8966 7.37205 10.1051 6.88391 9.61696C6.39577 9.12879 5.60431 9.12877 5.11614 9.61691L2.86637 11.8665C0.307017 14.4257 0.306953 18.5752 2.86623 21.1345C5.4254 23.6936 9.57461 23.6937 12.1339 21.1346L14.3839 18.8847C14.872 18.3966 14.8721 17.6051 14.3839 17.117C13.8958 16.6288 13.1043 16.6288 12.6161 17.1169L10.3661 19.3668C8.78322 20.9496 6.21688 20.9496 4.634 19.3667C3.05105 17.7837 3.05109 15.2173 4.63409 13.6344L6.88386 11.3847Z" fill="#080809" style="fill:#080809;fill:color(display-p3 0.0314 0.0314 0.0353);fill-opacity:1;"/>
<path d="M18.7495 16.9998C18.7495 16.3094 19.3092 15.7498 19.9995 15.7498H22.0005C22.6908 15.7498 23.2505 16.3094 23.2505 16.9998C23.2505 17.6901 22.6908 18.2498 22.0005 18.2498H19.9995C19.3092 18.2498 18.7495 17.6901 18.7495 16.9998Z" fill="#080809" style="fill:#080809;fill:color(display-p3 0.0314 0.0314 0.0353);fill-opacity:1;"/>
<path d="M18.2498 20C18.2498 19.3097 17.6902 18.75 16.9998 18.75C16.3095 18.75 15.7498 19.3097 15.7498 20V22C15.7498 22.6904 16.3095 23.25 16.9998 23.25C17.6902 23.25 18.2498 22.6904 18.2498 22V20Z" fill="#080809" style="fill:#080809;fill:color(display-p3 0.0314 0.0314 0.0353);fill-opacity:1;"/>
<path d="M5.25 7.00027C5.25 7.69062 4.69036 8.25027 4 8.25027H2C1.30964 8.25027 0.75 7.69062 0.75 7.00027C0.75 6.30991 1.30964 5.75027 2 5.75027H4C4.69036 5.75027 5.25 6.30991 5.25 7.00027Z" fill="#080809" style="fill:#080809;fill:color(display-p3 0.0314 0.0314 0.0353);fill-opacity:1;"/>
</g>
<defs>
<clipPath id="clip0_29901_27858">
<rect width="24" height="24" fill="white" style="fill:white;fill-opacity:1;"/>
</clipPath>
</defs>
</svg>
