<svg width="24" height="24" viewBox="0 0 24 24" fill="none" xmlns="http://www.w3.org/2000/svg">
<g clip-path="url(#clip0_29901_26818)">
<path fill-rule="evenodd" clip-rule="evenodd" d="M21.2102 13.2353C22.1651 12.2803 22.2709 10.7978 21.5276 9.72591C21.7721 9.59915 22.0015 9.43322 22.2066 9.22812C23.2805 8.15418 23.2805 6.41298 22.2066 5.33904L21.1409 4.27334L21.7071 3.70711C22.0977 3.31658 22.0977 2.68342 21.7071 2.29289C21.3166 1.90237 20.6834 1.90237 20.2929 2.29289L19.7267 2.85913L18.6711 1.8035C17.5971 0.729562 15.8559 0.729561 14.782 1.8035C14.5765 2.00895 14.4104 2.23882 14.2835 2.48377C13.2122 1.74511 11.7335 1.85234 10.7804 2.80546C9.70642 3.8794 9.70642 5.6206 10.7804 6.69454L13.3358 9.24997L9.2356 13.3502L6.66578 10.7803C5.59184 9.7064 3.85063 9.7064 2.77669 10.7803C1.82173 11.7353 1.71593 13.2179 2.45929 14.2897C2.21483 14.4165 1.9854 14.5824 1.78031 14.7875C0.706368 15.8614 0.706368 17.6026 1.78031 18.6766L2.84477 19.741L2.29293 20.2929C1.9024 20.6834 1.9024 21.3166 2.29293 21.7071C2.68345 22.0976 3.31661 22.0976 3.70714 21.7071L4.25898 21.1553L5.31584 22.2121C6.38979 23.2861 8.13099 23.2861 9.20493 22.2121C9.41038 22.0067 9.57652 21.7768 9.70336 21.5319C10.7747 22.2705 12.2534 22.1633 13.2065 21.2102C14.2805 20.1362 14.2805 18.395 13.2065 17.3211L10.6498 14.7644L14.75 10.6642L17.3211 13.2353C18.395 14.3092 20.1362 14.3092 21.2102 13.2353ZM16.1962 3.21772C15.9033 3.51061 15.9033 3.98548 16.1962 4.27838L19.7317 7.81391C20.0246 8.1068 20.4995 8.1068 20.7924 7.81391C21.0853 7.52102 21.0853 7.04614 20.7924 6.75325L17.2568 3.21772C16.964 2.92482 16.4891 2.92482 16.1962 3.21772ZM12.1946 5.28033C11.9017 4.98744 11.9017 4.51256 12.1946 4.21967C12.4875 3.92678 12.9623 3.92678 13.2552 4.21967L19.796 10.7604C20.0889 11.0533 20.0889 11.5282 19.796 11.8211C19.5031 12.114 19.0282 12.114 18.7353 11.8211L12.1946 5.28033ZM11.7923 18.7353C12.0852 19.0282 12.0852 19.5031 11.7923 19.796C11.4994 20.0888 11.0245 20.0888 10.7316 19.796L4.19091 13.2552C3.89801 12.9623 3.89801 12.4875 4.19091 12.1946C4.4838 11.9017 4.95867 11.9017 5.25157 12.1946L11.7923 18.7353ZM7.79072 20.7979C8.08361 20.505 8.08361 20.0301 7.79072 19.7372L4.25518 16.2017C3.96229 15.9088 3.48742 15.9088 3.19452 16.2017C2.90163 16.4946 2.90163 16.9695 3.19452 17.2624L6.73006 20.7979C7.02295 21.0908 7.49782 21.0908 7.79072 20.7979Z" fill="#080809" style="fill:#080809;fill:color(display-p3 0.0314 0.0314 0.0353);fill-opacity:1;"/>
</g>
<defs>
<clipPath id="clip0_29901_26818">
<rect width="24" height="24" fill="white" style="fill:white;fill-opacity:1;"/>
</clipPath>
</defs>
</svg>
