<svg width="24" height="24" viewBox="0 0 24 24" fill="none" xmlns="http://www.w3.org/2000/svg">
<path d="M18.9822 17.75H16C15.3096 17.75 14.75 18.3096 14.75 19C14.75 19.6904 15.3096 20.25 16 20.25H20.5C22.0188 20.25 23.25 19.0188 23.25 17.5V13C23.25 12.3096 22.6904 11.75 22 11.75C21.3096 11.75 20.75 12.3096 20.75 13V15.9822L14.9445 10.1768C13.8706 9.10284 12.1294 9.10283 11.0555 10.1768L9.17677 12.0555C9.07915 12.1531 8.92085 12.1531 8.82322 12.0555L2.88388 6.11612C2.39573 5.62796 1.60427 5.62796 1.11612 6.11612C0.627961 6.60427 0.627961 7.39573 1.11612 7.88388L7.05546 13.8232C8.1294 14.8972 9.8706 14.8972 10.9445 13.8232L12.8232 11.9445C12.9209 11.8469 13.0791 11.8469 13.1768 11.9445L18.9822 17.75Z" fill="#080809" style="fill:#080809;fill:color(display-p3 0.0314 0.0314 0.0353);fill-opacity:1;"/>
</svg>
