<svg width="24" height="24" viewBox="0 0 24 24" fill="none" xmlns="http://www.w3.org/2000/svg">
<path d="M14.5732 3H9.42684C7.6034 2.99997 6.13362 2.99995 4.97767 3.15537C3.77752 3.31672 2.76702 3.66191 1.96447 4.46447C1.16191 5.26702 0.816722 6.27752 0.655366 7.47767C0.499953 8.63362 0.499974 10.1034 0.500001 11.9268V12.0732C0.499974 13.8966 0.499953 15.3664 0.655366 16.5223C0.816722 17.7225 1.16191 18.733 1.96447 19.5355C2.76702 20.3381 3.77752 20.6833 4.97767 20.8446C6.13363 21.0001 7.6034 21 9.42686 21H12C12.5523 21 13 20.5523 13 20C13 19.4477 12.5523 19 12 19H9.5C7.58612 19 6.2513 18.9979 5.24416 18.8625C4.2658 18.7309 3.7477 18.4903 3.37868 18.1213C3.00967 17.7523 2.76907 17.2342 2.63753 16.2558C2.50213 15.2487 2.5 13.9139 2.5 12C2.5 10.0861 2.50213 8.7513 2.63753 7.74416C2.76907 6.7658 3.00967 6.2477 3.37868 5.87868C3.7477 5.50967 4.2658 5.26907 5.24416 5.13753C6.2513 5.00213 7.58612 5 9.5 5H14.5C16.4139 5 17.7487 5.00213 18.7558 5.13753C19.7342 5.26907 20.2523 5.50967 20.6213 5.87868C20.9903 6.2477 21.2309 6.7658 21.3625 7.74416C21.4979 8.7513 21.5 10.0861 21.5 12V13C21.5 13.5523 21.9477 14 22.5 14C23.0523 14 23.5 13.5523 23.5 13V11.9269C23.5 10.1034 23.5001 8.63363 23.3446 7.47767C23.1833 6.27752 22.8381 5.26702 22.0355 4.46447C21.233 3.66191 20.2225 3.31672 19.0223 3.15537C17.8664 2.99995 16.3966 2.99997 14.5732 3Z" fill="#080809" style="fill:#080809;fill:color(display-p3 0.0314 0.0314 0.0353);fill-opacity:1;"/>
<path d="M6 9C5.44772 9 5 9.44772 5 10C5 10.5523 5.44772 11 6 11H18C18.5523 11 19 10.5523 19 10C19 9.44772 18.5523 9 18 9H6Z" fill="#080809" style="fill:#080809;fill:color(display-p3 0.0314 0.0314 0.0353);fill-opacity:1;"/>
<path d="M5 14C5 13.4477 5.44772 13 6 13H12C12.5523 13 13 13.4477 13 14C13 14.5523 12.5523 15 12 15H6C5.44772 15 5 14.5523 5 14Z" fill="#080809" style="fill:#080809;fill:color(display-p3 0.0314 0.0314 0.0353);fill-opacity:1;"/>
<path fill-rule="evenodd" clip-rule="evenodd" d="M23.5 19C23.5 21.4853 21.4853 23.5 19 23.5C16.5147 23.5 14.5 21.4853 14.5 19C14.5 16.5147 16.5147 14.5 19 14.5C21.4853 14.5 23.5 16.5147 23.5 19ZM19 16.5C19.4142 16.5 19.75 16.8358 19.75 17.25V18.6893L20.7803 19.7197C21.0732 20.0126 21.0732 20.4874 20.7803 20.7803C20.4874 21.0732 20.0126 21.0732 19.7197 20.7803L18.4697 19.5303C18.329 19.3897 18.25 19.1989 18.25 19V17.25C18.25 16.8358 18.5858 16.5 19 16.5Z" fill="#080809" style="fill:#080809;fill:color(display-p3 0.0314 0.0314 0.0353);fill-opacity:1;"/>
</svg>
