<svg width="24" height="24" viewBox="0 0 24 24" fill="none" xmlns="http://www.w3.org/2000/svg">
<path fill-rule="evenodd" clip-rule="evenodd" d="M6 0.5C4.34315 0.5 3 1.84315 3 3.5V4H2C1.44772 4 1 4.44772 1 5C1 5.55228 1.44772 6 2 6H3V11H2C1.44772 11 1 11.4477 1 12C1 12.5523 1.44772 13 2 13H3V18H2C1.44772 18 1 18.4477 1 19C1 19.5523 1.44772 20 2 20H3V20.5C3 22.1569 4.34315 23.5 6 23.5H18C19.6569 23.5 21 22.1569 21 20.5V3.5C21 1.84315 19.6569 0.5 18 0.5H6ZM6 21.5C5.44772 21.5 5 21.0523 5 20.5V3.5C5 2.94772 5.44772 2.5 6 2.5H7.00488V21.5H6ZM10.5 14.5C10.5 13.9477 10.9477 13.5 11.5 13.5H14C14.5523 13.5 15 13.9477 15 14.5C15 15.0523 14.5523 15.5 14 15.5H11.5C10.9477 15.5 10.5 15.0523 10.5 14.5ZM11.5 8.5C10.9477 8.5 10.5 8.94771 10.5 9.5C10.5 10.0523 10.9477 10.5 11.5 10.5H16.5C17.0523 10.5 17.5 10.0523 17.5 9.5C17.5 8.94771 17.0523 8.5 16.5 8.5H11.5Z" fill="#080809" style="fill:#080809;fill:color(display-p3 0.0314 0.0314 0.0353);fill-opacity:1;"/>
</svg>
