<svg width="24" height="24" viewBox="0 0 24 24" fill="none" xmlns="http://www.w3.org/2000/svg">
<path d="M8.88366 4.88388C9.37181 4.39573 9.37181 3.60427 8.88366 3.11612C8.3955 2.62796 7.60405 2.62796 7.11589 3.11612L4.17655 6.05546C3.10261 7.1294 3.10261 8.8706 4.17655 9.94454L7.11589 12.8839C7.60405 13.372 8.3955 13.372 8.88366 12.8839C9.37181 12.3957 9.37181 11.6043 8.88366 11.1161L7.01755 9.25H13C14.4496 9.25 15.411 9.25266 16.1253 9.34869C16.8036 9.43989 17.0691 9.59419 17.2374 9.76257C17.4058 9.93095 17.5601 10.1964 17.6513 10.8747C17.7473 11.589 17.75 12.5505 17.75 14V20C17.75 20.6904 18.3096 21.25 19 21.25C19.6904 21.25 20.25 20.6904 20.25 20L20.25 13.9148C20.2501 12.5733 20.2501 11.4422 20.129 10.5416C20.0005 9.58608 19.7155 8.7051 19.0052 7.9948C18.2949 7.2845 17.4139 6.99946 16.4584 6.87099C15.5578 6.7499 14.4267 6.74995 13.0852 6.75L7.01754 6.75L8.88366 4.88388Z" fill="#080809" style="fill:#080809;fill:color(display-p3 0.0314 0.0314 0.0353);fill-opacity:1;"/>
</svg>
