<svg width="24" height="24" viewBox="0 0 24 24" fill="none" xmlns="http://www.w3.org/2000/svg">
<path d="M12.2483 16.5687C14.2279 15.3887 16.4688 13.5741 16.4997 11.4237C16.5225 9.91837 15.4003 9.02234 14.2499 9.00054C13.324 8.983 12.661 9.39414 12 10.3929C11.3388 9.39397 10.6759 8.98443 9.74996 9.00195C8.59963 9.02371 7.47746 9.91815 7.50035 11.4237C7.53125 13.5741 9.77202 15.3887 11.7516 16.5687C11.9048 16.6601 12.0951 16.6601 12.2483 16.5687Z" fill="#080809" style="fill:#080809;fill:color(display-p3 0.0314 0.0314 0.0353);fill-opacity:1;"/>
<path fill-rule="evenodd" clip-rule="evenodd" d="M3 16.5706V7.42943C2.99997 6.07533 2.99994 4.95869 3.11876 4.07494C3.2435 3.14711 3.51547 2.32769 4.17158 1.67158C4.82769 1.01547 5.64711 0.743499 6.57494 0.618754C6.93758 0.569999 7.33943 0.541254 7.78082 0.52431C7.85204 0.508307 7.9255 0.500005 8.00001 0.500005H9.7667C9.82054 0.499998 9.87477 0.5 9.92939 0.500001H14.0705C14.1253 0.5 14.1797 0.499998 14.2336 0.500005H16C16.0745 0.500005 16.148 0.508307 16.2192 0.524311C16.6606 0.541254 17.0624 0.569999 17.4251 0.618754C18.3529 0.743498 19.1723 1.01547 19.8284 1.67158C20.4845 2.32768 20.7565 3.14711 20.8813 4.07494C21.0001 4.95869 21 6.0753 21 7.42941V16.5705C21 17.9247 21.0001 19.0413 20.8813 19.9251C20.7565 20.8529 20.4845 21.6723 19.8284 22.3284C19.1723 22.9845 18.3529 23.2565 17.4251 23.3813C16.5413 23.5001 15.4247 23.5 14.0706 23.5H9.92943C8.57531 23.5 7.4587 23.5001 6.57494 23.3813C5.64711 23.2565 4.82769 22.9845 4.17158 22.3284C3.51547 21.6723 3.2435 20.8529 3.11876 19.9251C2.99994 19.0413 2.99997 17.9247 3 16.5706ZM14.0708 2.5C14.2592 2.50002 14.4395 2.50009 14.6124 2.50045L14.3932 3.15812C14.3252 3.36229 14.1341 3.5 13.9189 3.5H10.0811C9.86593 3.5 9.67486 3.36229 9.60681 3.15812L9.38758 2.50045C9.5616 2.50009 9.74319 2.50002 9.93285 2.5H14.0708ZM7.29716 2.55375L7.70944 3.79057C8.04973 4.81143 9.00507 5.5 10.0811 5.5H13.9189C14.9949 5.5 15.9503 4.81143 16.2906 3.79057L16.7029 2.55375C16.865 2.56631 17.0164 2.58181 17.1586 2.60092C17.8646 2.69585 18.1916 2.86322 18.4142 3.08579C18.6368 3.30836 18.8042 3.63538 18.8991 4.34143C18.9979 5.07625 19 6.05752 19 7.5V16.5C19 17.9425 18.9979 18.9237 18.8991 19.6586C18.8042 20.3646 18.6368 20.6916 18.4142 20.9142C18.1916 21.1368 17.8646 21.3042 17.1586 21.3991C16.4238 21.4979 15.4425 21.5 14 21.5L10 21.5C8.55752 21.5 7.57626 21.4979 6.84144 21.3991C6.13538 21.3042 5.80836 21.1368 5.58579 20.9142C5.36322 20.6916 5.19585 20.3646 5.10092 19.6586C5.00213 18.9237 5 17.9425 5 16.5L5 7.5C5 6.05752 5.00213 5.07626 5.10092 4.34144C5.19585 3.63538 5.36322 3.30836 5.58579 3.08579C5.80836 2.86322 6.13538 2.69585 6.84144 2.60092C6.9836 2.58181 7.13499 2.56631 7.29716 2.55375Z" fill="#080809" style="fill:#080809;fill:color(display-p3 0.0314 0.0314 0.0353);fill-opacity:1;"/>
</svg>
