<svg width="24" height="24" viewBox="0 0 24 24" fill="none" xmlns="http://www.w3.org/2000/svg">
<path d="M23.0326 10.6113C23.0326 5.03436 18.5103 0.520508 12.9419 0.520508C11.3979 0.520508 9.88765 0.824242 8.47865 1.43171C7.1034 2.01387 5.88001 2.84071 4.82539 3.89535C3.77075 4.94156 2.94392 6.17336 2.36176 7.54017C1.76273 8.95761 1.45898 10.4594 1.45898 12.0118C1.45898 13.5642 1.76273 15.066 2.36176 16.4835C2.94392 17.8503 3.77075 19.0737 4.82539 20.1283C5.88001 21.1829 7.11184 22.0098 8.47865 22.5919C9.88765 23.191 11.3979 23.4947 12.9503 23.4947C14.4437 23.4947 15.8696 23.2078 17.1773 22.6932L16.3083 20.4995C15.2705 20.9129 14.1399 21.1407 12.9503 21.1407C10.512 21.1407 8.21709 20.1874 6.49592 18.4662C4.77476 16.745 3.82137 14.4502 3.82137 12.0118C3.82137 9.5735 4.77476 7.27861 6.49592 5.55745C8.22553 3.83628 10.512 2.88289 12.9503 2.88289C17.2195 2.88289 20.6787 6.34209 20.6787 10.6113C20.6787 12.1806 20.2062 13.6486 19.3962 14.872L17.3882 9.92786C17.0929 9.20226 16.7386 8.11389 15.4055 8.11389C14.0724 8.11389 13.7181 9.2107 13.4312 9.92786L11.5835 14.4923L9.10298 8.23201H6.49592L9.5839 15.8422C9.89609 16.61 10.242 17.6562 11.5835 17.6562C12.925 17.6562 13.2625 16.61 13.5747 15.8422L15.4055 11.32L17.2448 15.8422C17.616 16.7788 18.0126 17.6562 19.2359 17.6562C20.1049 17.6562 20.6534 17.0994 20.9571 16.7366C22.2564 15.0407 23.0326 12.9146 23.0326 10.6113Z" fill="#080809" style="fill:#080809;fill:color(display-p3 0.0314 0.0314 0.0353);fill-opacity:1;"/>
</svg>
