<svg width="24" height="24" viewBox="0 0 24 24" fill="none" xmlns="http://www.w3.org/2000/svg">
<path d="M14 1.00505C13.3986 0.999988 12.7576 0.999994 12.0748 1H11.9252C10.4535 0.999987 9.1755 0.999975 8.07125 1.0507L9.72102 6H15.6128L14.0516 1.31626C14.0172 1.21306 14.0006 1.10822 14 1.00505Z" fill="#080809" style="fill:#080809;fill:color(display-p3 0.0314 0.0314 0.0353);fill-opacity:1;"/>
<path d="M6.03048 1.24416C4.71636 1.46065 3.63006 1.88466 2.75736 2.75736C1.89142 3.62331 1.46725 4.69955 1.24923 6H7.61284L6.05159 1.31626C6.0436 1.2923 6.03657 1.26825 6.03048 1.24416Z" fill="#080809" style="fill:#080809;fill:color(display-p3 0.0314 0.0314 0.0353);fill-opacity:1;"/>
<path fill-rule="evenodd" clip-rule="evenodd" d="M1.05405 8C0.999974 9.12042 0.999986 10.4217 1 11.9252V12.0748C0.999979 14.3683 0.999962 16.1914 1.19198 17.6196C1.38994 19.0921 1.80836 20.2936 2.75736 21.2426C3.70636 22.1916 4.90794 22.6101 6.3804 22.808C7.80859 23 9.63163 23 11.9252 23H12.0748C14.3684 23 16.1914 23 17.6196 22.808C19.0921 22.6101 20.2936 22.1916 21.2426 21.2426C22.1916 20.2936 22.6101 19.0921 22.808 17.6196C23 16.1914 23 14.3684 23 12.0748V11.9252C23 10.4217 23 9.12042 22.946 8H17.0245C17.0082 8.0004 16.992 8.0004 16.9758 8H9.02448C9.00821 8.0004 8.99197 8.0004 8.97578 8H1.05405ZM9.99807 12.1351C10.3064 11.9562 10.6866 11.9549 10.9961 12.1318L14.4961 14.1318C14.8077 14.3098 15 14.6411 15 15C15 15.3589 14.8077 15.6902 14.4961 15.8682L10.9961 17.8682C10.6866 18.0451 10.3064 18.0438 9.99807 17.8649C9.68976 17.686 9.5 17.3565 9.5 17V13C9.5 12.6435 9.68976 12.314 9.99807 12.1351Z" fill="#080809" style="fill:#080809;fill:color(display-p3 0.0314 0.0314 0.0353);fill-opacity:1;"/>
<path d="M22.7508 6C22.5328 4.69955 22.1086 3.62331 21.2426 2.75736C20.2936 1.80836 19.0921 1.38994 17.6196 1.19198C17.1482 1.1286 16.6338 1.08614 16.0736 1.0577L17.721 6H22.7508Z" fill="#080809" style="fill:#080809;fill:color(display-p3 0.0314 0.0314 0.0353);fill-opacity:1;"/>
</svg>
