<svg width="24" height="25" viewBox="0 0 24 25" fill="none" xmlns="http://www.w3.org/2000/svg">
<path fill-rule="evenodd" clip-rule="evenodd" d="M16 10C16.5523 10 17 10.4477 17 11V19C17 19.5523 16.5523 20 16 20H8C7.44772 20 7 19.5523 7 19V11C7 10.4477 7.44772 10 8 10H16ZM13 18H15V12H13V18ZM9 18H11V12H9V18Z" fill="#080809" style="fill:#080809;fill:color(display-p3 0.0314 0.0314 0.0353);fill-opacity:1;"/>
<path fill-rule="evenodd" clip-rule="evenodd" d="M13.1572 1C13.5581 1.00476 13.9583 1.0345 14.335 1.19043C14.7116 1.34643 15.0159 1.60859 15.3027 1.88867L20.1113 6.69727C20.3914 6.9841 20.6536 7.28842 20.8096 7.66504C20.9655 8.04167 20.9952 8.4419 21 8.84277V17C21 18.3858 21.0017 19.5258 20.8809 20.4248C20.7561 21.3526 20.4842 22.172 19.8281 22.8281C19.172 23.4842 18.3526 23.7561 17.4248 23.8809C16.5258 24.0017 15.3858 24 14 24H10C8.61416 24 7.47423 24.0017 6.5752 23.8809C5.64737 23.7561 4.82798 23.4842 4.17188 22.8281C3.51577 22.172 3.24389 21.3526 3.11914 20.4248C2.99829 19.5258 3 18.3858 3 17V8C3 6.61416 2.99829 5.47423 3.11914 4.5752C3.24389 3.64737 3.51577 2.82798 4.17188 2.17188C4.82798 1.51577 5.64737 1.24389 6.5752 1.11914C7.47423 0.998294 8.61416 1 10 1H13.1572ZM10 3C8.55778 3 7.57657 3.00185 6.8418 3.10059C6.13575 3.19551 5.80851 3.36337 5.58594 3.58594C5.36337 3.80851 5.19551 4.13575 5.10059 4.8418C5.00185 5.57657 5 6.55778 5 8V17C5 18.4422 5.00185 19.4234 5.10059 20.1582C5.19551 20.8643 5.36337 21.1915 5.58594 21.4141C5.80851 21.6366 6.13575 21.8045 6.8418 21.8994C7.57657 21.9982 8.55778 22 10 22H14C15.4422 22 16.4234 21.9982 17.1582 21.8994C17.8643 21.8045 18.1915 21.6366 18.4141 21.4141C18.6366 21.1915 18.8045 20.8643 18.8994 20.1582C18.9982 19.4234 19 18.4422 19 17V9.24219C19 8.54789 18.9823 8.47883 18.9619 8.42969C18.9415 8.38058 18.9044 8.31851 18.4141 7.82813L14.1719 3.58594C13.6815 3.09555 13.6194 3.05847 13.5703 3.03809C13.5212 3.01773 13.4521 3.00001 12.7578 3H10Z" fill="#080809" style="fill:#080809;fill:color(display-p3 0.0314 0.0314 0.0353);fill-opacity:1;"/>
</svg>
