<svg width="24" height="24" viewBox="0 0 24 24" fill="none" xmlns="http://www.w3.org/2000/svg">
<path d="M7.13388 0.366117C7.62204 0.854272 7.62204 1.64573 7.13388 2.13388L7.01777 2.25H12C17.5228 2.25 22 6.72715 22 12.25C22 17.7728 17.5228 22.25 12 22.25C6.47715 22.25 2 17.7728 2 12.25C2 11.5596 2.55964 11 3.25 11C3.94036 11 4.5 11.5596 4.5 12.25C4.5 16.3921 7.85786 19.75 12 19.75C16.1421 19.75 19.5 16.3921 19.5 12.25C19.5 8.10786 16.1421 4.75 12 4.75H7.01777L7.13388 4.86612C7.62204 5.35427 7.62204 6.14573 7.13388 6.63388C6.64573 7.12204 5.85427 7.12204 5.36612 6.63388L3.46967 4.73744C2.78625 4.05402 2.78625 2.94598 3.46967 2.26256L5.36612 0.366117C5.85427 -0.122039 6.64573 -0.122039 7.13388 0.366117Z" fill="#080809" style="fill:#080809;fill:color(display-p3 0.0314 0.0314 0.0353);fill-opacity:1;"/>
<path d="M9.62012 14.5617L10.2276 13.6347C10.4766 13.8387 10.7406 13.9857 11.0196 14.0757C11.2986 14.1627 11.5611 14.2062 11.8071 14.2062C12.1491 14.2062 12.4221 14.1222 12.6261 13.9542C12.8301 13.7862 12.9321 13.5462 12.9321 13.2342C12.9321 12.9222 12.8301 12.6807 12.6261 12.5097C12.4221 12.3357 12.1551 12.2487 11.8251 12.2487C11.6241 12.2487 11.4186 12.2817 11.2086 12.3477C10.9986 12.4107 10.8126 12.4977 10.6506 12.6087L10.0296 12.2532L10.2366 8.9502H13.9086V10.1247H11.2716L11.1906 11.3487C11.3556 11.2887 11.5206 11.2437 11.6856 11.2137C11.8536 11.1807 12.0291 11.1642 12.2121 11.1642C12.6321 11.1642 13.0011 11.2512 13.3191 11.4252C13.6371 11.5992 13.8831 11.8437 14.0571 12.1587C14.2341 12.4737 14.3226 12.8412 14.3226 13.2612C14.3226 13.6992 14.2206 14.0787 14.0166 14.3997C13.8156 14.7177 13.5336 14.9637 13.1706 15.1377C12.8076 15.3117 12.3846 15.3987 11.9016 15.3987C11.4546 15.3987 11.0391 15.3267 10.6551 15.1827C10.2711 15.0387 9.92612 14.8317 9.62012 14.5617Z" fill="#080809" style="fill:#080809;fill:color(display-p3 0.0314 0.0314 0.0353);fill-opacity:1;"/>
</svg>
