<svg width="24" height="24" viewBox="0 0 24 24" fill="none" xmlns="http://www.w3.org/2000/svg">
<path d="M8.64244 2.01485C8.41131 1.63053 8.46146 1.12433 8.79289 0.792893C9.18341 0.402369 9.81658 0.402369 10.2071 0.792893L11.7071 2.29289C11.9931 2.57889 12.0787 3.00901 11.9239 3.38268C11.7691 3.75636 11.4045 4 11 4C9.08611 4 7.75129 4.00212 6.74416 4.13753C5.76579 4.26907 5.24769 4.50966 4.87868 4.87868C4.50966 5.2477 4.26906 5.76579 4.13753 6.74416C4.00212 7.75129 4 9.08611 4 11V13C4 14.9139 4.00212 16.2487 4.13753 17.2558C4.26906 18.2342 4.50966 18.7523 4.87868 19.1213C5.39262 19.6353 6.18138 19.8886 8.04149 19.9659C8.5933 19.9888 9.02205 20.4547 8.99914 21.0065C8.97622 21.5583 8.51031 21.9871 7.9585 21.9642C6.07401 21.8859 4.56687 21.6379 3.46446 20.5355C2.66191 19.733 2.31672 18.7225 2.15536 17.5223C1.99995 16.3664 1.99997 14.8966 2 13.0731V10.9269C1.99997 9.1034 1.99995 7.63363 2.15536 6.47766C2.31672 5.27752 2.66191 4.26702 3.46446 3.46447C4.26702 2.66191 5.27752 2.31672 6.47766 2.15536C7.10478 2.07105 7.82424 2.03248 8.64244 2.01485Z" fill="#080809" style="fill:#080809;fill:color(display-p3 0.0314 0.0314 0.0353);fill-opacity:1;"/>
<path d="M15.0009 2.99347C14.9779 3.54528 15.4067 4.01119 15.9585 4.0341C17.8186 4.11135 18.6074 4.36474 19.1213 4.87868C19.4903 5.2477 19.7309 5.76579 19.8625 6.74416C19.9979 7.75129 20 9.08611 20 11V13C20 14.9139 19.9979 16.2487 19.8625 17.2558C19.7309 18.2342 19.4903 18.7523 19.1213 19.1213C18.7523 19.4903 18.2342 19.7309 17.2558 19.8625C16.2487 19.9979 14.9139 20 13 20C12.5955 20 12.2309 20.2436 12.0761 20.6173C11.9213 20.991 12.0069 21.4211 12.2929 21.7071L13.7929 23.2071C14.1834 23.5976 14.8166 23.5976 15.2071 23.2071C15.5385 22.8757 15.5887 22.3695 15.3576 21.9852C16.1757 21.9675 16.8952 21.9289 17.5223 21.8446C18.7225 21.6833 19.733 21.3381 20.5355 20.5355C21.3381 19.733 21.6833 18.7225 21.8446 17.5223C22 16.3664 22 14.8966 22 13.0732V10.9268C22 9.1034 22 7.63361 21.8446 6.47767C21.6833 5.27752 21.3381 4.26702 20.5355 3.46447C19.4331 2.36206 17.926 2.11409 16.0415 2.03582C15.4897 2.01291 15.0238 2.44166 15.0009 2.99347Z" fill="#080809" style="fill:#080809;fill:color(display-p3 0.0314 0.0314 0.0353);fill-opacity:1;"/>
<path d="M12 7.0001C12.5523 7.0001 13 7.44781 13 8.0001V11H16C16.5523 11 17 11.4477 17 12C17 12.5523 16.5523 13 16 13H13V16.0001C13 16.5524 12.5523 17.0001 12 17.0001C11.4477 17.0001 11 16.5524 11 16.0001V13H8C7.44772 13 7 12.5523 7 12C7 11.4477 7.44772 11 8 11H11V8.0001C11 7.44781 11.4477 7.0001 12 7.0001Z" fill="#080809" style="fill:#080809;fill:color(display-p3 0.0314 0.0314 0.0353);fill-opacity:1;"/>
</svg>
