<svg width="24" height="24" viewBox="0 0 24 24" fill="none" xmlns="http://www.w3.org/2000/svg">
<path d="M1.29289 2.70613C0.902369 2.31561 0.902369 1.68244 1.29289 1.29192C1.68342 0.901392 2.31658 0.901392 2.70711 1.29192L3.40643 1.99124C3.92638 1.09937 4.8932 0.5 6 0.5H18C19.6569 0.5 21 1.84315 21 3.5V19.5848L22.7071 21.2919C23.0976 21.6824 23.0976 22.3156 22.7071 22.7061C22.3166 23.0967 21.6834 23.0967 21.2929 22.7061L20.7294 22.1427C20.7295 22.1425 20.7294 22.1428 20.7294 22.1427L1.29289 2.70613Z" fill="#080809" style="fill:#080809;fill:color(display-p3 0.0314 0.0314 0.0353);fill-opacity:1;"/>
<path d="M3 20.9996V6.53527L19.6724 23.2077C18.8701 23.633 17.843 23.6318 17.0001 22.9997L12.3 19.4749C12.1222 19.3416 11.8778 19.3416 11.7 19.4749L6.99991 22.9997C5.35181 24.2356 3 23.0597 3 20.9996Z" fill="#080809" style="fill:#080809;fill:color(display-p3 0.0314 0.0314 0.0353);fill-opacity:1;"/>
</svg>
