<svg width="24" height="24" viewBox="0 0 24 24" fill="none" xmlns="http://www.w3.org/2000/svg">
<path fill-rule="evenodd" clip-rule="evenodd" d="M13.2234 1.27089C12.7408 0.224806 11.2541 0.224811 10.7716 1.27089L9.92022 3.11668L7.90168 3.35601C6.75769 3.49164 6.29827 4.90562 7.14404 5.68776L8.6364 7.06786L8.24025 9.06156C8.01574 10.1915 9.21854 11.0653 10.2238 10.5027L11.9975 9.50982L13.7712 10.5027C14.7764 11.0654 15.9792 10.1915 15.7547 9.06156L15.3585 7.06786L16.8509 5.68776C17.6967 4.90561 17.2373 3.49164 16.0933 3.35601L14.0747 3.11668L13.2234 1.27089ZM11.5839 4.28476L11.9975 3.38821L12.411 4.28476C12.6077 4.7111 13.0117 5.00465 13.4779 5.05993L14.4584 5.17617L13.7335 5.84652C13.3888 6.16529 13.2345 6.64026 13.326 7.10077L13.5184 8.06916L12.6569 7.58691C12.2472 7.35759 11.7478 7.35758 11.3381 7.58691L10.4765 8.06916L10.669 7.10077C10.7605 6.64026 10.6061 6.16529 10.2614 5.84652L9.53655 5.17617L10.517 5.05993C10.9833 5.00465 11.3873 4.7111 11.5839 4.28476Z" fill="#080809" style="fill:#080809;fill:color(display-p3 0.0314 0.0314 0.0353);fill-opacity:1;"/>
<path fill-rule="evenodd" clip-rule="evenodd" d="M10 12.001C8.89543 12.001 8 12.8964 8 14.001H4C2.89543 14.001 2 14.8964 2 16.001V20.001C2 21.1055 2.89543 22.001 4 22.001H20C21.1046 22.001 22 21.1055 22 20.001V17.001C22 15.8964 21.1046 15.001 20 15.001H16V14.001C16 12.8964 15.1046 12.001 14 12.001H10ZM14 20.001H10V14.001H14V20.001ZM20 20.001H16V17.001H20V20.001ZM8 20.001V16.001H4V20.001H8Z" fill="#080809" style="fill:#080809;fill:color(display-p3 0.0314 0.0314 0.0353);fill-opacity:1;"/>
</svg>
