<svg width="24" height="24" viewBox="0 0 24 24" fill="none" xmlns="http://www.w3.org/2000/svg">
<g clip-path="url(#clip0_29901_26661)">
<path d="M14.9285 6.37144C15.1102 5.91718 14.9365 5.39815 14.5181 5.14469C14.0996 4.89124 13.5592 4.97779 13.2408 5.34925L7.24076 12.3493C6.9866 12.6458 6.92832 13.0631 7.0915 13.4179C7.25469 13.7727 7.60948 14 8.00001 14H10.523L9.07154 17.6287C8.88983 18.0829 9.06349 18.6019 9.48197 18.8554C9.90045 19.1089 10.4409 19.0223 10.7593 18.6508L16.7593 11.6508C17.0134 11.3543 17.0717 10.937 16.9085 10.5822C16.7453 10.2274 16.3905 10 16 10H13.477L14.9285 6.37144Z" fill="#080809" style="fill:#080809;fill:color(display-p3 0.0314 0.0314 0.0353);fill-opacity:1;"/>
<path fill-rule="evenodd" clip-rule="evenodd" d="M0.5 12C0.5 5.64873 5.64873 0.5 12 0.5C18.3513 0.5 23.5 5.64873 23.5 12C23.5 18.3513 18.3513 23.5 12 23.5C5.64873 23.5 0.5 18.3513 0.5 12ZM12 2.5C6.75329 2.5 2.5 6.75329 2.5 12C2.5 17.2467 6.75329 21.5 12 21.5C17.2467 21.5 21.5 17.2467 21.5 12C21.5 6.75329 17.2467 2.5 12 2.5Z" fill="#080809" style="fill:#080809;fill:color(display-p3 0.0314 0.0314 0.0353);fill-opacity:1;"/>
</g>
<defs>
<clipPath id="clip0_29901_26661">
<rect width="24" height="24" fill="white" style="fill:white;fill-opacity:1;"/>
</clipPath>
</defs>
</svg>
