<svg width="24" height="24" viewBox="0 0 24 24" fill="none" xmlns="http://www.w3.org/2000/svg">
<path fill-rule="evenodd" clip-rule="evenodd" d="M0.498047 9.50791C0.498047 5.68122 4.22059 2.5791 8.81173 2.5791V2.58353C12.9575 2.58353 16.3942 5.11398 17.0213 8.42438C16.8706 8.41552 16.7199 8.41109 16.5692 8.41109C12.3814 8.41109 8.98678 11.2385 8.98678 14.7283C8.98678 15.3155 9.08427 15.885 9.26597 16.4256C9.11529 16.4323 8.96241 16.4367 8.80951 16.4367C7.85894 16.4367 6.94381 16.3016 6.09516 16.0578C6.01761 16.0334 5.93562 16.0201 5.85142 16.0201C5.69188 16.0201 5.54786 16.0689 5.41048 16.1487L3.59131 17.199C3.54034 17.2278 3.49159 17.2499 3.43177 17.2499C3.27888 17.2499 3.15479 17.1258 3.15479 16.9729C3.15479 16.9211 3.16993 16.8705 3.18498 16.8203C3.18987 16.8039 3.19476 16.7876 3.19911 16.7713C3.21019 16.7314 3.43398 15.8961 3.57358 15.3731C3.58909 15.3133 3.60239 15.2579 3.60239 15.1959C3.60239 15.0097 3.51154 14.8436 3.36973 14.7438C1.61703 13.4742 0.498047 11.5952 0.498047 9.50791ZM10.4758 7.2899C10.4758 7.90146 10.9721 8.3978 11.5837 8.3978C12.1953 8.3978 12.6916 7.90146 12.6916 7.2899C12.6916 6.67833 12.1953 6.182 11.5837 6.182C10.9721 6.182 10.4758 6.67833 10.4758 7.2899ZM4.93408 7.2899C4.93408 7.90146 5.43042 8.3978 6.04198 8.3978C6.65354 8.3978 7.14988 7.90146 7.14988 7.2899C7.14988 6.67833 6.65354 6.182 6.04198 6.182C5.43042 6.182 4.93408 6.67833 4.93408 7.2899Z" fill="#080809" style="fill:#080809;fill:color(display-p3 0.0314 0.0314 0.0353);fill-opacity:1;"/>
<path fill-rule="evenodd" clip-rule="evenodd" d="M23.4979 14.7264C23.4979 16.4658 22.565 18.0302 21.1048 19.0893H21.1026C20.9851 19.1735 20.9076 19.3109 20.9076 19.466C20.9076 19.517 20.9187 19.5635 20.932 19.6123C21.0494 20.0488 21.2355 20.7445 21.2444 20.7778C21.2479 20.7903 21.2517 20.8027 21.2556 20.8153C21.2688 20.8583 21.2821 20.9016 21.2821 20.9462C21.2821 21.0725 21.1801 21.1766 21.0516 21.1766C21.0029 21.1766 20.9608 21.1567 20.9187 21.1323L19.4031 20.2571C19.2901 20.1906 19.1682 20.1507 19.0352 20.1507C18.9643 20.1507 18.8956 20.1618 18.8314 20.1817C18.1223 20.3856 17.3601 20.4986 16.5691 20.4986C12.7446 20.4986 9.64246 17.9128 9.64246 14.7264C9.64246 11.5401 12.7424 8.95427 16.5691 8.95427C20.3957 8.95427 23.4979 11.5379 23.4979 14.7264ZM17.9561 12.8785C17.9561 13.3881 18.3705 13.8024 18.8801 13.8024C19.3898 13.8024 19.8041 13.3881 19.8041 12.8785C19.8041 12.3688 19.3898 11.9545 18.8801 11.9545C18.3705 11.9545 17.9561 12.3688 17.9561 12.8785ZM13.3384 12.8785C13.3384 13.3881 13.7528 13.8024 14.2624 13.8024C14.772 13.8024 15.1864 13.3881 15.1864 12.8785C15.1864 12.3688 14.772 11.9545 14.2624 11.9545C13.7528 11.9545 13.3384 12.3688 13.3384 12.8785Z" fill="#080809" style="fill:#080809;fill:color(display-p3 0.0314 0.0314 0.0353);fill-opacity:1;"/>
</svg>
