<svg width="24" height="24" viewBox="0 0 24 24" fill="none" xmlns="http://www.w3.org/2000/svg">
<path fill-rule="evenodd" clip-rule="evenodd" d="M7 9.99899V10L7.00005 10.0227C7.00108 10.5375 6.61112 10.9689 6.09884 11.0198C4.07856 11.2204 2.5 12.9264 2.5 15C2.5 17.2091 4.29086 19 6.5 19H16.5C19.2614 19 21.5 16.7614 21.5 14C21.5 11.5821 19.7827 9.563 17.5007 9.09996C17.1488 9.02856 16.8622 8.77401 16.7498 8.43303C16.0921 6.43793 14.2127 5 12 5C9.23891 5 7.00055 7.23803 7 9.99899ZM5.04786 9.17712C5.45515 5.6989 8.4124 3 12 3C14.9008 3 17.3873 4.76388 18.4496 7.27537C21.3669 8.11994 23.5 10.8099 23.5 14C23.5 17.866 20.366 21 16.5 21H6.5C3.18629 21 0.5 18.3137 0.5 15C0.5 12.1868 2.43542 9.82669 5.04786 9.17712Z" fill="#080809" style="fill:#080809;fill:color(display-p3 0.0314 0.0314 0.0353);fill-opacity:1;"/>
</svg>
