<svg width="24" height="24" viewBox="0 0 24 24" fill="none" xmlns="http://www.w3.org/2000/svg">
<g clip-path="url(#clip0_29901_26789)">
<path fill-rule="evenodd" clip-rule="evenodd" d="M12 4C12.5523 4 13 4.44772 13 5V6C14.933 6 16.5 7.567 16.5 9.5C16.5 10.3603 16.1896 11.1481 15.6748 11.7575C16.4822 12.3986 17 13.3888 17 14.5C17 16.433 15.433 18 13.5 18H13V19C13 19.5523 12.5523 20 12 20C11.4477 20 11 19.5523 11 19V18H8.5C7.94772 18 7.5 17.5523 7.5 17V7C7.5 6.44772 7.94772 6 8.5 6H11V5C11 4.44772 11.4477 4 12 4ZM9.5 11H13C13.8284 11 14.5 10.3284 14.5 9.5C14.5 8.67157 13.8284 8 13 8H9.5V11ZM9.5 13V16H13.5C14.3284 16 15 15.3284 15 14.5C15 13.6716 14.3284 13 13.5 13H9.5Z" fill="#080809" style="fill:#080809;fill:color(display-p3 0.0314 0.0314 0.0353);fill-opacity:1;"/>
<path fill-rule="evenodd" clip-rule="evenodd" d="M0.5 12C0.5 5.64873 5.64873 0.5 12 0.5C18.3513 0.5 23.5 5.64873 23.5 12C23.5 18.3513 18.3513 23.5 12 23.5C5.64873 23.5 0.5 18.3513 0.5 12ZM12 2.5C6.75329 2.5 2.5 6.75329 2.5 12C2.5 17.2467 6.75329 21.5 12 21.5C17.2467 21.5 21.5 17.2467 21.5 12C21.5 6.75329 17.2467 2.5 12 2.5Z" fill="#080809" style="fill:#080809;fill:color(display-p3 0.0314 0.0314 0.0353);fill-opacity:1;"/>
</g>
<defs>
<clipPath id="clip0_29901_26789">
<rect width="24" height="24" fill="white" style="fill:white;fill-opacity:1;"/>
</clipPath>
</defs>
</svg>
