<svg width="24" height="24" viewBox="0 0 24 24" fill="none" xmlns="http://www.w3.org/2000/svg">
<path fill-rule="evenodd" clip-rule="evenodd" d="M11 0.5C10.4477 0.5 10 0.947715 10 1.5C10 2.05228 10.4477 2.5 11 2.5V4H10.5C9.67157 4 9 4.67157 9 5.5V7.50426C8.67771 7.51023 8.38147 7.52453 8.1197 7.5587C7.62632 7.6231 7.12075 7.77207 6.693 8.17035C6.26525 8.56863 6.08065 9.06231 5.98125 9.54985C5.8905 9.995 5.85118 10.5462 5.80766 11.1564L5.22745 19.2792C5.17757 19.9767 5.13301 20.5998 5.16631 21.1053C5.20254 21.6551 5.33769 22.2273 5.78126 22.7036C6.22482 23.18 6.78588 23.3556 7.33171 23.4309C7.83356 23.5001 8.45823 23.5001 9.1575 23.5H14.8424C15.5417 23.5001 16.1663 23.5001 16.6682 23.4309C17.214 23.3556 17.7751 23.18 18.2186 22.7036C18.6622 22.2273 18.7974 21.6551 18.8336 21.1053C18.8669 20.5998 18.8223 19.9768 18.7725 19.2793L18.1922 11.1564C18.1487 10.5462 18.1094 9.99499 18.0187 9.54985C17.9193 9.06231 17.7347 8.56863 17.3069 8.17035C16.8792 7.77207 16.3736 7.6231 15.8802 7.5587C15.6185 7.52453 15.3223 7.51023 15 7.50426V5.5C15 4.67157 14.3284 4 13.5 4H13V2.5H16.1972L17.4453 3.33205C17.9048 3.6384 18.5257 3.51423 18.8321 3.0547C19.1384 2.59517 19.0142 1.9743 18.5547 1.66795L17.1807 0.751925C16.9343 0.587657 16.6448 0.5 16.3486 0.5H11ZM11 7.5V6H13V7.5H11ZM7.94094 9.94936C7.99462 9.68607 8.04823 9.64058 8.05591 9.63408C8.06294 9.62689 8.11214 9.57665 8.37858 9.54187C8.68399 9.502 9.10383 9.50001 9.79331 9.50001H14.2066C14.8961 9.50001 15.3159 9.502 15.6213 9.54187C15.8878 9.57665 15.9363 9.62624 15.9434 9.63343L15.9447 9.63468C15.9524 9.64119 16.0053 9.68608 16.059 9.94936C16.1205 10.2512 16.1524 10.6698 16.2015 11.3575L16.7729 19.3575C16.8288 20.1394 16.8611 20.6226 16.8379 20.9738C16.8173 21.2867 16.7593 21.337 16.7547 21.341C16.751 21.3459 16.7054 21.4068 16.3949 21.4497C16.0462 21.4978 15.5619 21.5 14.778 21.5H9.22188C8.43796 21.5 7.95369 21.4978 7.60505 21.4497C7.29446 21.4068 7.24836 21.3454 7.24472 21.3405C7.24012 21.3365 7.1826 21.2867 7.16199 20.9738C7.13885 20.6226 7.17111 20.1394 7.22696 19.3575L7.79839 11.3575C7.84752 10.6698 7.87942 10.2512 7.94094 9.94936Z" fill="#080809" style="fill:#080809;fill:color(display-p3 0.0314 0.0314 0.0353);fill-opacity:1;"/>
</svg>
