<svg width="24" height="24" viewBox="0 0 24 24" fill="none" xmlns="http://www.w3.org/2000/svg">
<path d="M13.4812 0.901028C12.5625 0.379338 11.4372 0.379345 10.5185 0.901048L3.85024 4.68774C3.53848 4.86478 3.34535 5.19516 3.34405 5.55368C3.34275 5.9122 3.53347 6.24398 3.84394 6.42327L11.4999 10.8447C11.8094 11.0234 12.1908 11.0234 12.5003 10.8446L20.155 6.42255C20.4654 6.24322 20.6561 5.91144 20.6547 5.55295C20.6534 5.19445 20.4603 4.86409 20.1485 4.68707L13.4812 0.901028Z" fill="#080809" style="fill:#080809;fill:color(display-p3 0.0314 0.0314 0.0353);fill-opacity:1;"/>
<path d="M22.5 8.53271C22.5 8.1754 22.3094 7.84523 21.9999 7.66662C21.6904 7.488 21.3092 7.48808 20.9998 7.66681L13.25 12.1438C12.9407 12.3225 12.7502 12.6525 12.7502 13.0097V21.7946C12.7502 22.1506 12.9394 22.4798 13.2471 22.6589C13.5547 22.838 13.9344 22.84 14.244 22.6642L20.9814 18.8384C21.9201 18.3053 22.5 17.3091 22.5 16.2296V8.53271Z" fill="#080809" style="fill:#080809;fill:color(display-p3 0.0314 0.0314 0.0353);fill-opacity:1;"/>
<path d="M3.0001 7.66812C2.6907 7.48944 2.30948 7.48941 2.00005 7.66803C1.69062 7.84666 1.5 8.1768 1.5 8.53409V16.2296C1.5 17.3091 2.07992 18.3053 3.01858 18.8384L9.75637 22.6645C10.0659 22.8403 10.4456 22.8383 10.7533 22.6592C11.0609 22.4801 11.2502 22.151 11.2502 21.795V13.0099C11.2502 12.6526 11.0596 12.3226 10.7503 12.1439L3.0001 7.66812Z" fill="#080809" style="fill:#080809;fill:color(display-p3 0.0314 0.0314 0.0353);fill-opacity:1;"/>
</svg>
