<svg width="24" height="24" viewBox="0 0 24 24" fill="none" xmlns="http://www.w3.org/2000/svg">
<path fill-rule="evenodd" clip-rule="evenodd" d="M16.6417 10.6217C17.7814 9.61398 18.5 8.14091 18.5 6.5C18.5 3.46243 16.0376 1 13 1C10.7979 1 8.89803 2.29418 8.01955 4.16344C7.22112 3.44042 6.16199 3 5 3C2.51472 3 0.500001 5.01472 0.500001 7.5C0.500001 8.83941 1.08518 10.0421 2.01383 10.8665C1.62079 11.1783 1.28851 11.5625 1.0359 12C0.73242 12.5256 0.610851 13.0961 0.554324 13.7198C0.499973 14.3195 0.499985 15.0585 0.500001 15.9539V16.046C0.499985 16.9415 0.499973 17.6805 0.554324 18.2802C0.610851 18.9039 0.73242 19.4744 1.0359 20C1.38697 20.6081 1.89192 21.113 2.5 21.4641C3.02564 21.7676 3.59615 21.8892 4.21983 21.9457C4.81952 22 5.55849 22 6.45394 22H12.5461C13.4415 22 14.1805 22 14.7802 21.9457C15.4039 21.8892 15.9744 21.7676 16.5 21.4641C17.1081 21.113 17.613 20.6081 17.9641 20C18.134 19.7058 18.2468 19.3976 18.3232 19.0738L21.25 20.7636C22.25 21.3409 23.5 20.6193 23.5 19.4646V12.5364C23.5 11.3817 22.25 10.66 21.25 11.2373L18.3234 12.927C18.247 12.6029 18.1341 12.2944 17.9641 12C17.6407 11.4398 17.1867 10.9672 16.6417 10.6217ZM18.4982 15.1355C18.5 15.3924 18.5 15.665 18.5 15.9539V16.046C18.5 16.3353 18.5 16.6083 18.4982 16.8654L21.5 18.5985V13.4024L18.4982 15.1355ZM9.5 6.5C9.5 4.567 11.067 3 13 3C14.933 3 16.5 4.567 16.5 6.5C16.5 8.433 14.933 10 13 10C11.067 10 9.5 8.433 9.5 6.5ZM5 5C3.61929 5 2.5 6.11929 2.5 7.5C2.5 8.88071 3.61929 10 5 10C6.38071 10 7.5 8.88071 7.5 7.5C7.5 6.11929 6.38071 5 5 5ZM3.5 12.268C3.67051 12.1695 3.91539 12.0901 4.40036 12.0462C4.89908 12.001 5.54698 12 6.5 12H12.5C13.453 12 14.1009 12.001 14.5996 12.0462C15.0846 12.0901 15.3295 12.1695 15.5 12.268C15.804 12.4435 16.0565 12.696 16.2321 13C16.3305 13.1705 16.4099 13.4154 16.4538 13.9004C16.499 14.3991 16.5 15.047 16.5 16C16.5 16.953 16.499 17.6009 16.4538 18.0996C16.4099 18.5846 16.3305 18.8295 16.2321 19C16.0565 19.304 15.804 19.5565 15.5 19.7321C15.3295 19.8305 15.0846 19.9099 14.5996 19.9538C14.1009 19.999 13.453 20 12.5 20H6.5C5.54698 20 4.89908 19.999 4.40036 19.9538C3.91539 19.9099 3.67051 19.8305 3.5 19.7321C3.19596 19.5565 2.94349 19.304 2.76795 19C2.66951 18.8295 2.59011 18.5846 2.54616 18.0996C2.50096 17.6009 2.5 16.953 2.5 16C2.5 15.047 2.50096 14.3991 2.54616 13.9004C2.59011 13.4154 2.66951 13.1705 2.76795 13C2.94349 12.696 3.19596 12.4435 3.5 12.268Z" fill="#080809" style="fill:#080809;fill:color(display-p3 0.0314 0.0314 0.0353);fill-opacity:1;"/>
</svg>
