<svg width="24" height="24" viewBox="0 0 24 24" fill="none" xmlns="http://www.w3.org/2000/svg">
<path d="M13 15C14.4425 15 15.4237 14.9979 16.1586 14.8991C16.8646 14.8042 17.1916 14.6368 17.4142 14.4142C17.6368 14.1916 17.8042 13.8646 17.8991 13.1586C17.9979 12.4237 18 11.4425 18 10V4C18 3.44771 18.4477 3 19 3C19.5523 3 20 3.44771 20 4L20 10.0706C20 11.4247 20.0001 12.5413 19.8812 13.4251C19.7565 14.3529 19.4845 15.1723 18.8284 15.8284C18.1723 16.4845 17.3529 16.7565 16.4251 16.8812C15.5413 17.0001 14.4247 17 13.0706 17L6.41398 17L8.70688 19.2929C9.0974 19.6834 9.0974 20.3166 8.70688 20.7071C8.31636 21.0976 7.68319 21.0976 7.29267 20.7071L4.35333 17.7678C3.37701 16.7915 3.37702 15.2085 4.35333 14.2322L7.29267 11.2929C7.68319 10.9024 8.31636 10.9024 8.70688 11.2929C9.0974 11.6834 9.0974 12.3166 8.70688 12.7071L6.41399 15H13Z" fill="#080809" style="fill:#080809;fill:color(display-p3 0.0314 0.0314 0.0353);fill-opacity:1;"/>
</svg>
