<svg width="24" height="24" viewBox="0 0 24 24" fill="none" xmlns="http://www.w3.org/2000/svg">
<g clip-path="url(#clip0_29901_26034)">
<path d="M11.9996 7.5C12.4036 7.5 12.7678 7.74301 12.923 8.11597L13.6142 9.77781L15.4083 9.92164C15.8109 9.95392 16.1546 10.2253 16.2794 10.6094C16.4042 10.9936 16.2857 11.4151 15.9789 11.6779L14.612 12.8488L15.0296 14.5995C15.1233 14.9924 14.9715 15.4032 14.6447 15.6406C14.3179 15.878 13.8803 15.8955 13.5356 15.685L11.9996 14.7468L10.4636 15.685C10.1189 15.8955 9.68139 15.878 9.35461 15.6406C9.02782 15.4032 8.87596 14.9924 8.96968 14.5995L9.3873 12.8488L8.02039 11.6779C7.71362 11.4151 7.59506 10.9936 7.71989 10.6094C7.84471 10.2253 8.18839 9.95392 8.59103 9.92164L10.3851 9.77781L11.0763 8.11597C11.2314 7.74301 11.5957 7.5 11.9996 7.5Z" fill="#080809" style="fill:#080809;fill:color(display-p3 0.0314 0.0314 0.0353);fill-opacity:1;"/>
<path fill-rule="evenodd" clip-rule="evenodd" d="M12 0.5C5.64873 0.5 0.5 5.64873 0.5 12C0.5 18.3513 5.64873 23.5 12 23.5C18.3513 23.5 23.5 18.3513 23.5 12C23.5 5.64873 18.3513 0.5 12 0.5ZM2.5 12C2.5 6.75329 6.75329 2.5 12 2.5C17.2467 2.5 21.5 6.75329 21.5 12C21.5 17.2467 17.2467 21.5 12 21.5C6.75329 21.5 2.5 17.2467 2.5 12Z" fill="#080809" style="fill:#080809;fill:color(display-p3 0.0314 0.0314 0.0353);fill-opacity:1;"/>
</g>
<defs>
<clipPath id="clip0_29901_26034">
<rect width="24" height="24" fill="white" style="fill:white;fill-opacity:1;"/>
</clipPath>
</defs>
</svg>
