<svg width="24" height="24" viewBox="0 0 24 24" fill="none" xmlns="http://www.w3.org/2000/svg">
<path d="M9.0622 3.53953C8.69624 3.19717 8.2095 3 7.69575 3H1.5C1.13648 3 0.801584 3.19728 0.625358 3.51523C0.449133 3.83319 0.459334 4.22173 0.652002 4.53L2.19575 7H11.3042L9.80191 4.59626L9.0622 3.53953Z" fill="#080809" style="fill:#080809;fill:color(display-p3 0.0314 0.0314 0.0353);fill-opacity:1;"/>
<path d="M2.5 8.5V18C2.5 19.6569 3.84315 21 5.5 21H11.75C11.8363 21 11.9201 20.9891 12.0001 20.9685V8.5H2.5Z" fill="#080809" style="fill:#080809;fill:color(display-p3 0.0314 0.0314 0.0353);fill-opacity:1;"/>
<path fill-rule="evenodd" clip-rule="evenodd" d="M13.5001 21H18.5C20.1569 21 21.5 19.6569 21.5 18V8.5H13.5001V21ZM16.25 10.5C15.8358 10.5 15.5 10.8358 15.5 11.25C15.5 11.6642 15.8358 12 16.25 12H18.75C19.1642 12 19.5 11.6642 19.5 11.25C19.5 10.8358 19.1642 10.5 18.75 10.5H16.25Z" fill="#080809" style="fill:#080809;fill:color(display-p3 0.0314 0.0314 0.0353);fill-opacity:1;"/>
<path d="M21.8042 7L23.348 4.53C23.5407 4.22173 23.5509 3.83319 23.3746 3.51523C23.1984 3.19728 22.8635 3 22.5 3H15.0542C14.3647 3 13.7237 3.35524 13.3583 3.94L12.3277 5.58886L13.3155 7H21.8042Z" fill="#080809" style="fill:#080809;fill:color(display-p3 0.0314 0.0314 0.0353);fill-opacity:1;"/>
</svg>
