<svg width="24" height="24" viewBox="0 0 24 24" fill="none" xmlns="http://www.w3.org/2000/svg">
<path d="M9.49803 6.33573C9.82152 6.07703 9.87404 5.60507 9.61534 5.28158C9.35664 4.95809 8.88468 4.90557 8.56119 5.16427C7.36997 6.1169 6.5838 7.57136 6.50095 9.21218C6.48007 9.62587 6.7985 9.97816 7.21218 9.99905C7.62587 10.0199 7.97816 9.70151 7.99905 9.28782C8.0598 8.08452 8.63517 7.02577 9.49803 6.33573Z" fill="#080809" style="fill:#080809;fill:color(display-p3 0.0314 0.0314 0.0353);fill-opacity:1;"/>
<path fill-rule="evenodd" clip-rule="evenodd" d="M3 9.56061C3 4.5637 7.02234 0.5 12 0.5C16.9777 0.5 21 4.5637 21 9.56061C21 13.0021 19.6038 15.9589 17.8351 18.0509C16.9501 19.0977 15.9573 19.9459 14.9702 20.5387C14.4859 20.8294 13.9854 21.0691 13.4862 21.2364L13.8944 22.0528C14.0494 22.3628 14.0329 22.7309 13.8506 23.0257C13.6684 23.3205 13.3466 23.5 13 23.5H11C10.6534 23.5 10.3316 23.3205 10.1493 23.0257C9.96714 22.7309 9.95058 22.3628 10.1056 22.0528L10.5138 21.2364C10.0146 21.0691 9.5141 20.8294 9.02985 20.5387C8.04274 19.9459 7.04987 19.0977 6.16492 18.0509C4.39625 15.9589 3 13.0021 3 9.56061ZM12 2.5C8.14111 2.5 5 5.65401 5 9.56061C5 12.4525 6.17518 14.9653 7.69222 16.7597C8.45013 17.6561 9.27869 18.3552 10.0594 18.824C10.8553 19.3019 11.5323 19.5 12 19.5C12.4677 19.5 13.1447 19.3019 13.9406 18.824C14.7213 18.3552 15.5499 17.6561 16.3078 16.7597C17.8248 14.9653 19 12.4525 19 9.56061C19 5.65401 15.8589 2.5 12 2.5Z" fill="#080809" style="fill:#080809;fill:color(display-p3 0.0314 0.0314 0.0353);fill-opacity:1;"/>
</svg>
