<svg width="24" height="24" viewBox="0 0 24 24" fill="none" xmlns="http://www.w3.org/2000/svg">
<path fill-rule="evenodd" clip-rule="evenodd" d="M18 0.5C19.6569 0.5 21 1.84315 21 3.5V21C20.9997 23.0598 18.648 24.2358 17 23L12.2998 19.4746C12.1221 19.3416 11.8779 19.3416 11.7002 19.4746L7 23C5.352 24.2358 3.0003 23.0598 3 21V3.5C3 1.84314 4.34315 0.5 6 0.5H18ZM12 5C11.6466 5 11.3237 5.18611 11.1445 5.48242L11.0771 5.61621L10.2529 7.5957L8.11621 7.76758C7.71357 7.79986 7.36994 8.07092 7.24512 8.45508C7.12033 8.83917 7.23827 9.26066 7.54492 9.52344L9.17285 10.918L8.67578 13.0039C8.58206 13.3968 8.73474 13.8075 9.06152 14.0449C9.38819 14.2821 9.82533 14.3002 10.1699 14.0898L12 12.9717L13.8301 14.0898C14.1747 14.3002 14.6118 14.2821 14.9385 14.0449C15.2653 13.8075 15.4179 13.3968 15.3242 13.0039L14.8262 10.918L16.4551 9.52344C16.7617 9.26066 16.8797 8.83917 16.7549 8.45508C16.6301 8.07092 16.2864 7.79986 15.8838 7.76758L13.7461 7.5957L12.9229 5.61621C12.7677 5.24325 12.4039 5 12 5Z" fill="#080809" style="fill:#080809;fill:color(display-p3 0.0314 0.0314 0.0353);fill-opacity:1;"/>
</svg>
