<svg width="24" height="24" viewBox="0 0 24 24" fill="none" xmlns="http://www.w3.org/2000/svg">
<path d="M18.4435 0.388643C15.6781 -0.506084 12.5177 0.143525 10.3182 2.34299C8.07354 4.58765 7.4428 7.8326 8.42135 10.6393L2.01781 17.0427C0.660748 18.3997 0.660728 20.5999 2.01777 21.9569C3.37477 23.3139 5.57491 23.314 6.93194 21.957L13.3356 15.5535C16.1423 16.5321 19.3873 15.9013 21.6319 13.6567C23.831 11.4576 24.4807 8.29797 23.5867 5.53291C23.4796 5.20161 23.2079 4.94987 22.8694 4.86834C22.5309 4.78682 22.1743 4.88723 21.9281 5.13344L18.1822 8.87942C17.7916 9.26994 17.1585 9.26994 16.7679 8.87942L15.0964 7.20785C14.7058 6.81732 14.7058 6.18416 15.0964 5.79363L18.8428 2.04719C19.089 1.80101 19.1894 1.44451 19.1079 1.10603C19.0264 0.767552 18.7748 0.495814 18.4435 0.388643Z" fill="#080809" style="fill:#080809;fill:color(display-p3 0.0314 0.0314 0.0353);fill-opacity:1;"/>
</svg>
