<svg width="24" height="24" viewBox="0 0 24 24" fill="none" xmlns="http://www.w3.org/2000/svg">
<path d="M3 3.75C2.30964 3.75 1.75 4.30964 1.75 5C1.75 5.69036 2.30964 6.25 3 6.25L21 6.25C21.6904 6.25 22.25 5.69036 22.25 5C22.25 4.30965 21.6904 3.75 21 3.75H3Z" fill="#080809" style="fill:#080809;fill:color(display-p3 0.0314 0.0314 0.0353);fill-opacity:1;"/>
<path d="M3 20.25L9.5 20.25C10.1904 20.25 10.75 19.6904 10.75 19C10.75 18.3096 10.1904 17.75 9.5 17.75L3 17.75C2.30964 17.75 1.75 18.3096 1.75 19C1.75 19.6904 2.30964 20.25 3 20.25Z" fill="#080809" style="fill:#080809;fill:color(display-p3 0.0314 0.0314 0.0353);fill-opacity:1;"/>
<path d="M9.5 13.25L3 13.25C2.30964 13.25 1.75 12.6904 1.75 12C1.75 11.3096 2.30964 10.75 3 10.75L9.5 10.75C10.1904 10.75 10.75 11.3096 10.75 12C10.75 12.6904 10.1904 13.25 9.5 13.25Z" fill="#080809" style="fill:#080809;fill:color(display-p3 0.0314 0.0314 0.0353);fill-opacity:1;"/>
<path fill-rule="evenodd" clip-rule="evenodd" d="M16.4072 11.3091L16.7185 10.4789C16.8282 10.1861 17.1081 9.99219 17.4207 9.99219H18.5807C18.8933 9.99219 19.1732 10.1861 19.2829 10.4789L19.6044 11.3364C19.7925 11.8382 20.3004 12.1453 20.8321 12.0788L21.6648 11.9747C21.9467 11.9395 22.2243 12.0665 22.3819 12.3029L22.9375 13.1365C23.1103 13.3958 23.1048 13.7348 22.9238 13.9884L22.3303 14.8194C22.0429 15.2219 22.0429 15.7625 22.3303 16.165L22.9238 16.996C23.1048 17.2495 23.1103 17.5886 22.9375 17.8478L22.3819 18.6814C22.2243 18.9178 21.9467 19.0449 21.6648 19.0097L20.8321 18.9056C20.3004 18.8391 19.7925 19.1462 19.6044 19.6479L19.2829 20.5055C19.1732 20.7982 18.8933 20.9922 18.5807 20.9922H17.4207C17.1081 20.9922 16.8282 20.7982 16.7185 20.5055L16.4072 19.6752C16.2144 19.161 15.6869 18.853 15.1444 18.9378L14.3603 19.0603C14.0664 19.1063 13.7731 18.9741 13.6128 18.7236L13.0503 17.8445C12.8851 17.5864 12.8936 17.2537 13.0717 17.0044L13.6622 16.1774C13.9539 15.7689 13.9492 15.2189 13.6504 14.8155L13.0786 14.0434C12.8963 13.7973 12.882 13.465 13.0426 13.2041L13.6151 12.2735C13.7735 12.016 14.071 11.8788 14.3697 11.9255L15.1444 12.0466C15.6869 12.1314 16.2144 11.8233 16.4072 11.3091ZM19.9993 15.5C19.9993 16.6046 19.1044 17.5 18.0005 17.5C16.8966 17.5 16.0017 16.6046 16.0017 15.5C16.0017 14.3954 16.8966 13.5 18.0005 13.5C19.1044 13.5 19.9993 14.3954 19.9993 15.5Z" fill="#080809" style="fill:#080809;fill:color(display-p3 0.0314 0.0314 0.0353);fill-opacity:1;"/>
</svg>
