<svg width="24" height="24" viewBox="0 0 24 24" fill="none" xmlns="http://www.w3.org/2000/svg">
<path fill-rule="evenodd" clip-rule="evenodd" d="M2.99837 9.5C2.99837 4.52944 7.02781 0.5 11.9984 0.5C16.9689 0.5 20.9984 4.52944 20.9984 9.5V12.4273C20.9984 14.1168 21.4732 15.7723 22.3686 17.205C22.993 18.2041 22.2747 19.5 21.0966 19.5H16.4711C16.2223 21.75 14.3148 23.5 11.9985 23.5C9.68226 23.5 7.77472 21.75 7.526 19.5H2.90084C1.72269 19.5 1.00442 18.2041 1.62884 17.205C2.52382 15.773 2.99837 14.1184 2.99837 12.4297V9.5ZM9.54854 19.5C9.78018 20.6411 10.7891 21.5 11.9985 21.5C13.208 21.5 14.2169 20.6411 14.4485 19.5H9.54854Z" fill="#080809" style="fill:#080809;fill:color(display-p3 0.0314 0.0314 0.0353);fill-opacity:1;"/>
</svg>
