<svg width="24" height="24" viewBox="0 0 24 24" fill="none" xmlns="http://www.w3.org/2000/svg">
<path d="M12.4961 5C12.4961 2.79086 14.287 1 16.4961 1C18.7052 1 20.4961 2.79086 20.4961 5C20.4961 7.20914 18.7052 9 16.4961 9C14.287 9 12.4961 7.20914 12.4961 5Z" fill="#080809" style="fill:#080809;fill:color(display-p3 0.0314 0.0314 0.0353);fill-opacity:1;"/>
<path d="M3.49609 9.5C3.49609 7.29086 5.28695 5.5 7.49609 5.5C9.70523 5.5 11.4961 7.29086 11.4961 9.5C11.4961 11.7091 9.70523 13.5 7.49609 13.5C5.28695 13.5 3.49609 11.7091 3.49609 9.5Z" fill="#080809" style="fill:#080809;fill:color(display-p3 0.0314 0.0314 0.0353);fill-opacity:1;"/>
<path d="M0.5 20C0.5 17.2386 2.73858 15 5.5 15H9.506C12.2674 15 14.506 17.2386 14.506 20C14.506 21.6569 13.1629 23 11.506 23H3.5C1.84315 23 0.5 21.6569 0.5 20Z" fill="#080809" style="fill:#080809;fill:color(display-p3 0.0314 0.0314 0.0353);fill-opacity:1;"/>
<path d="M13.1667 11.4662C13.342 10.9605 13.829 10.5 14.4999 10.5H18.5059C21.2673 10.5 23.5059 12.7386 23.5059 15.5C23.5059 17.1569 22.1628 18.5 20.5059 18.5H17.4695C16.8122 18.5 16.2667 18.0792 16.0519 17.514C15.5313 16.1442 14.5917 14.9782 13.3887 14.1746C12.7332 13.7367 12.5157 12.8788 12.8638 12.1841C12.9797 11.9529 13.0811 11.7132 13.1667 11.4662Z" fill="#080809" style="fill:#080809;fill:color(display-p3 0.0314 0.0314 0.0353);fill-opacity:1;"/>
<path d="M10.5 3C11.0523 3 11.5 2.55228 11.5 2C11.5 1.44772 11.0523 1 10.5 1C9.94771 1 9.5 1.44772 9.5 2C9.5 2.55228 9.94771 3 10.5 3Z" fill="#080809" style="fill:#080809;fill:color(display-p3 0.0314 0.0314 0.0353);fill-opacity:1;"/>
<path d="M5.5 2C5.5 2.55228 5.05228 3 4.5 3C3.94772 3 3.5 2.55228 3.5 2C3.5 1.44772 3.94772 1 4.5 1C5.05228 1 5.5 1.44772 5.5 2Z" fill="#080809" style="fill:#080809;fill:color(display-p3 0.0314 0.0314 0.0353);fill-opacity:1;"/>
<path d="M7.5 3C8.05229 3 8.5 2.55228 8.5 2C8.5 1.44772 8.05229 1 7.5 1C6.94772 1 6.5 1.44772 6.5 2C6.5 2.55228 6.94772 3 7.5 3Z" fill="#080809" style="fill:#080809;fill:color(display-p3 0.0314 0.0314 0.0353);fill-opacity:1;"/>
</svg>
