<svg width="24" height="24" viewBox="0 0 24 24" fill="none" xmlns="http://www.w3.org/2000/svg">
<path fill-rule="evenodd" clip-rule="evenodd" d="M12.6753 0.996582H11.9252C9.63166 0.996561 7.80859 0.996544 6.38039 1.18856C4.90794 1.38653 3.70636 1.80494 2.75736 2.75394C1.80836 3.70295 1.38994 4.90452 1.19198 6.37698C0.999962 7.80517 0.999979 9.62822 1 11.9218V12.6725C0.999984 14.6788 0.999971 16.2739 1.14971 17.5367C1.30369 18.8353 1.62794 19.9126 2.37039 20.8132C2.61474 21.1096 2.88698 21.3818 3.18336 21.6262C4.08397 22.3686 5.16126 22.6929 6.45991 22.8469C7.72273 22.9966 9.31776 22.9966 11.324 22.9966C11.716 22.9967 12.1081 22.9988 12.5 22.9914L12.5 21.1931C12.5 19.7071 12.5 18.4709 12.581 17.4498C12.3891 17.4654 12.1953 17.4734 11.9997 17.4734C10.2195 17.4734 8.59094 16.8154 7.35699 15.7311C6.95302 15.3761 6.91331 14.7608 7.2683 14.3569C7.62328 13.9529 8.23854 13.9132 8.64251 14.2682C9.53158 15.0494 10.7065 15.5259 11.9997 15.5259C12.2873 15.5259 12.5684 15.5024 12.8415 15.4574C12.8765 15.4516 12.9114 15.4478 12.9461 15.4458C13.1476 14.8531 13.4456 14.3364 13.8912 13.8908C14.6396 13.1424 15.5886 12.8103 16.761 12.6526C17.9002 12.4995 19.3558 12.4995 21.1936 12.4995L22.9947 12.4995C23.0023 12.1068 23.0001 11.714 23 11.3213C23 9.31473 23 7.7194 22.8502 6.45641C22.6962 5.15755 22.3719 4.08012 21.6292 3.17945C21.3851 2.88342 21.1132 2.61149 20.8171 2.36738C19.9165 1.62471 18.839 1.30037 17.5402 1.14633C16.2772 0.996553 14.6819 0.996566 12.6753 0.996582ZM16.25 10.4966C17.2165 10.4966 18 9.71308 18 8.74658C18 7.78008 17.2165 6.99658 16.25 6.99658C15.2835 6.99658 14.5 7.78008 14.5 8.74658C14.5 9.71308 15.2835 10.4966 16.25 10.4966ZM7.75 10.5005C8.7165 10.5005 9.5 9.71699 9.5 8.75049C9.5 7.78399 8.7165 7.00049 7.75 7.00049C6.7835 7.00049 6 7.78399 6 8.75049C6 9.71699 6.7835 10.5005 7.75 10.5005Z" fill="#080809" style="fill:#080809;fill:color(display-p3 0.0314 0.0314 0.0353);fill-opacity:1;"/>
<path d="M22.8559 13.9995H21.25C19.3432 13.9995 17.9885 14.0011 16.9608 14.1393C15.9548 14.2745 15.3751 14.5282 14.9519 14.9514C14.5287 15.3746 14.275 15.9543 14.1398 16.9604C14.0016 17.988 14 19.3427 14 21.2495V22.8528C14.1823 22.8141 14.3588 22.7649 14.5326 22.7025C14.6831 22.6485 14.831 22.5873 14.9756 22.5191C15.7653 22.1467 16.3894 21.5223 17.2887 20.6225L20.6241 17.2881C21.5247 16.3886 22.1496 15.7643 22.5223 14.9742C22.5904 14.8297 22.6516 14.682 22.7056 14.5316C22.768 14.358 22.8172 14.1817 22.8559 13.9995Z" fill="#080809" style="fill:#080809;fill:color(display-p3 0.0314 0.0314 0.0353);fill-opacity:1;"/>
</svg>
