<svg width="24" height="24" viewBox="0 0 24 24" fill="none" xmlns="http://www.w3.org/2000/svg">
<path fill-rule="evenodd" clip-rule="evenodd" d="M9 4C9 2.34315 10.3431 1 12 1C13.6569 1 15 2.34315 15 4C15 5.65685 13.6569 7 12 7C10.3431 7 9 5.65685 9 4ZM12 3C11.4477 3 11 3.44772 11 4C11 4.55228 11.4477 5 12 5C12.5523 5 13 4.55228 13 4C13 3.44772 12.5523 3 12 3Z" fill="#080809" style="fill:#080809;fill:color(display-p3 0.0314 0.0314 0.0353);fill-opacity:1;"/>
<path fill-rule="evenodd" clip-rule="evenodd" d="M6.68705 9.16065C7.40526 7.62175 9.59352 7.62174 10.3117 9.16065L10.6976 9.98752C11.3789 11.4472 12.5522 12.6205 14.0119 13.3018L14.8387 13.6877C16.3776 14.4059 16.3776 16.5941 14.8387 17.3123L14.0119 17.6982C12.5522 18.3795 11.3789 19.5528 10.6976 21.0125L10.3117 21.8394C9.59352 23.3783 7.40526 23.3783 6.68705 21.8394L6.30115 21.0125C5.61991 19.5528 4.4466 18.3795 2.98691 17.6982L2.16004 17.3123C0.621136 16.5941 0.621131 14.4059 2.16004 13.6877L2.98691 13.3018C4.44659 12.6205 5.61991 11.4472 6.30115 9.98752L6.68705 9.16065ZM8.88529 10.8333L8.49939 10.0065L8.11349 10.8333C7.23358 12.7187 5.7181 14.2342 3.83273 15.1141L3.00586 15.5L3.83273 15.8859C5.7181 16.7658 7.23358 18.2813 8.11349 20.1667L8.49939 20.9935L8.88529 20.1667C9.7652 18.2813 11.2807 16.7658 13.1661 15.8859L13.9929 15.5L13.166 15.1141C11.2807 14.2342 9.7652 12.7187 8.88529 10.8333Z" fill="#080809" style="fill:#080809;fill:color(display-p3 0.0314 0.0314 0.0353);fill-opacity:1;"/>
<path fill-rule="evenodd" clip-rule="evenodd" d="M20.9397 13.0532C22.4268 13.4517 23.7877 12.0908 23.3892 10.6037L22.0443 5.5846C21.6459 4.09745 19.7869 3.59936 18.6983 4.68802L15.024 8.36226C13.9354 9.45092 14.4335 11.3098 15.9206 11.7083L20.9397 13.0532ZM21.4573 11.1213L16.4382 9.77647L20.1125 6.10223L21.4573 11.1213Z" fill="#080809" style="fill:#080809;fill:color(display-p3 0.0314 0.0314 0.0353);fill-opacity:1;"/>
</svg>
