<svg width="24" height="24" viewBox="0 0 24 24" fill="none" xmlns="http://www.w3.org/2000/svg">
<path fill-rule="evenodd" clip-rule="evenodd" d="M12 1C9.23858 1 7 3.23858 7 6C7 8.76142 9.23858 11 12 11C14.7614 11 17 8.76142 17 6C17 3.23858 14.7614 1 12 1ZM9 6C9 4.34315 10.3431 3 12 3C13.6569 3 15 4.34315 15 6C15 7.65685 13.6569 9 12 9C10.3431 9 9 7.65685 9 6Z" fill="#080809" style="fill:#080809;fill:color(display-p3 0.0314 0.0314 0.0353);fill-opacity:1;"/>
<path fill-rule="evenodd" clip-rule="evenodd" d="M9.33333 13C5.83553 13 3 15.8355 3 19.3333C3 21.3584 4.64162 23 6.66667 23H17.3333C19.3584 23 21 21.3584 21 19.3333C21 15.8355 18.1645 13 14.6667 13H9.33333ZM5 19.3333C5 16.9401 6.9401 15 9.33333 15H14.6667C17.0599 15 19 16.9401 19 19.3333C19 20.2538 18.2538 21 17.3333 21H6.66667C5.74619 21 5 20.2538 5 19.3333Z" fill="#080809" style="fill:#080809;fill:color(display-p3 0.0314 0.0314 0.0353);fill-opacity:1;"/>
</svg>
