<svg width="24" height="24" viewBox="0 0 24 24" fill="none" xmlns="http://www.w3.org/2000/svg">
<path d="M20.75 1.75C21.4404 1.75 22 2.30964 22 3C22 3.69036 21.4404 4.25 20.75 4.25H3.25C2.55964 4.25 2 3.69036 2 3C2 2.30964 2.55964 1.75 3.25 1.75H20.75Z" fill="#080809" style="fill:#080809;fill:color(display-p3 0.0314 0.0314 0.0353);fill-opacity:1;"/>
<path d="M20.75 7.75C21.4404 7.75 22 8.30964 22 9C22 9.69036 21.4404 10.25 20.75 10.25H11.25C10.5596 10.25 10 9.69036 10 9C10 8.30964 10.5596 7.75 11.25 7.75H20.75Z" fill="#080809" style="fill:#080809;fill:color(display-p3 0.0314 0.0314 0.0353);fill-opacity:1;"/>
<path d="M20.75 13.75C21.4404 13.75 22 14.3096 22 15C22 15.6904 21.4404 16.25 20.75 16.25H3.25C2.55964 16.25 2 15.6904 2 15C2 14.3096 2.55964 13.75 3.25 13.75H20.75Z" fill="#080809" style="fill:#080809;fill:color(display-p3 0.0314 0.0314 0.0353);fill-opacity:1;"/>
<path d="M22 21C22 20.3096 21.4404 19.75 20.75 19.75H11.25C10.5596 19.75 10 20.3096 10 21C10 21.6904 10.5596 22.25 11.25 22.25H20.75C21.4404 22.25 22 21.6904 22 21Z" fill="#080809" style="fill:#080809;fill:color(display-p3 0.0314 0.0314 0.0353);fill-opacity:1;"/>
</svg>
