<svg width="24" height="24" viewBox="0 0 24 24" fill="none" xmlns="http://www.w3.org/2000/svg">
<g clip-path="url(#clip0_29901_28509)">
<path fill-rule="evenodd" clip-rule="evenodd" d="M23.5 12C23.5 5.64873 18.3513 0.5 12 0.5C5.64873 0.5 0.5 5.64873 0.5 12C0.5 18.3513 5.64873 23.5 12 23.5C13.9218 23.5 15.7363 23.0278 17.3308 22.1922C17.4973 22.105 17.6559 22.092 17.7765 22.1233L21.1762 23.0047C22.2835 23.2918 23.2918 22.2835 23.0047 21.1762L22.1233 17.7765C22.092 17.6559 22.105 17.4973 22.1922 17.3308C23.0278 15.7363 23.5 13.9218 23.5 12ZM13 8C13 7.44772 12.5523 7 12 7C11.4477 7 11 7.44772 11 8V16C11 16.5523 11.4477 17 12 17C12.5523 17 13 16.5523 13 16V8ZM16 9.5C16.5523 9.5 17 9.94771 17 10.5V13.5C17 14.0523 16.5523 14.5 16 14.5C15.4477 14.5 15 14.0523 15 13.5V10.5C15 9.94771 15.4477 9.5 16 9.5ZM9 10.5C9 9.94771 8.55229 9.5 8 9.5C7.44772 9.5 7 9.94771 7 10.5V13.5C7 14.0523 7.44772 14.5 8 14.5C8.55229 14.5 9 14.0523 9 13.5V10.5Z" fill="#080809" style="fill:#080809;fill:color(display-p3 0.0314 0.0314 0.0353);fill-opacity:1;"/>
</g>
<defs>
<clipPath id="clip0_29901_28509">
<rect width="24" height="24" fill="white" style="fill:white;fill-opacity:1;"/>
</clipPath>
</defs>
</svg>
