<svg width="24" height="24" viewBox="0 0 24 24" fill="none" xmlns="http://www.w3.org/2000/svg">
<path d="M16.2931 3.70711C15.9026 3.31658 15.9026 2.68342 16.2931 2.29289C16.6836 1.90237 17.3168 1.90237 17.7073 2.29289L20.6467 5.23223C21.623 6.20855 21.623 7.79146 20.6467 8.76777L17.7073 11.7071C17.3168 12.0976 16.6836 12.0976 16.2931 11.7071C15.9026 11.3166 15.9026 10.6834 16.2931 10.2929L18.586 8H9C6.23858 8 4 10.2386 4 13C4 15.7614 6.23858 18 9 18H18C18.5523 18 19 18.4477 19 19C19 19.5523 18.5523 20 18 20H9C5.13401 20 2 16.866 2 13C2 9.13401 5.13401 6 9 6H18.586L16.2931 3.70711Z" fill="#080809" style="fill:#080809;fill:color(display-p3 0.0314 0.0314 0.0353);fill-opacity:1;"/>
</svg>
