<svg width="24" height="24" viewBox="0 0 24 24" fill="none" xmlns="http://www.w3.org/2000/svg">
<path fill-rule="evenodd" clip-rule="evenodd" d="M11 6C11 3.23858 8.76142 1 6 1C3.23858 1 1 3.23858 1 6V18C1 20.7614 3.23858 23 6 23C8.76142 23 11 20.7614 11 18V16C11 15.4477 11.4477 15 12 15C12.5523 15 13 15.4477 13 16V18C13 20.7614 15.2386 23 18 23C20.7614 23 23 20.7614 23 18V6C23 3.23858 20.7614 1 18 1C15.2386 1 13 3.23858 13 6V6.17071C12.6872 6.06015 12.3506 6 12 6C11.6494 6 11.3128 6.06015 11 6.17071V6ZM13 13.1707V9C13 8.44772 12.5523 8 12 8C11.4477 8 11 8.44772 11 9V13.1707C11.3128 13.0602 11.6494 13 12 13C12.3506 13 12.6872 13.0602 13 13.1707ZM15 13.9996V6C15 4.34315 16.3431 3 18 3C19.6569 3 21 4.34315 21 6V13.9996C20.1643 13.3719 19.1256 13 18 13C16.8744 13 15.8357 13.3719 15 13.9996ZM9 6V13.9996C8.16434 13.3719 7.12561 13 6 13C4.87439 13 3.83566 13.3719 3 13.9996V6C3 4.34315 4.34315 3 6 3C7.65685 3 9 4.34315 9 6ZM6 15C4.34315 15 3 16.3431 3 18C3 19.6569 4.34315 21 6 21C7.65685 21 9 19.6569 9 18C9 16.3431 7.65685 15 6 15ZM15 18C15 16.3431 16.3431 15 18 15C19.6569 15 21 16.3431 21 18C21 19.6569 19.6569 21 18 21C16.3431 21 15 19.6569 15 18Z" fill="#080809" style="fill:#080809;fill:color(display-p3 0.0314 0.0314 0.0353);fill-opacity:1;"/>
</svg>
