<svg width="24" height="24" viewBox="0 0 24 24" fill="none" xmlns="http://www.w3.org/2000/svg">
<path fill-rule="evenodd" clip-rule="evenodd" d="M19.7355 18.381L16.6677 16.3678C17.4575 15.5583 18.2469 14.6346 18.9007 13.6381C19.8014 12.2655 20.4989 10.6726 20.4989 9C20.4989 4.30558 16.6933 0.5 11.9989 0.5C7.30447 0.5 3.49889 4.30558 3.49889 9C3.49889 10.6726 4.1964 12.2655 5.09705 13.6381C5.56931 14.3579 6.1123 15.0397 6.67509 15.6679C8.23655 17.2574 10.0102 18.71 12.0838 20.2584L16.5813 23.2568C17.5241 23.8853 18.8002 23.6059 19.394 22.6409L20.3415 21.1013C20.9085 20.1799 20.64 18.9746 19.7355 18.381ZM9.40407 6.00052C10.0342 5.98502 10.6949 6.3171 11.0777 6.88768C11.5166 7.54191 12.4816 7.5411 12.9197 6.88687C13.3012 6.31727 13.9627 5.98502 14.593 6.00052C15.5992 6.02527 16.516 6.94549 16.4984 8.18254C16.4834 9.2934 15.9072 10.3855 14.9323 11.4401C14.1016 12.3386 13.0451 13.1398 11.9985 13.818C10.9518 13.1398 9.89529 12.3389 9.06475 11.4406C8.09007 10.3863 7.51387 9.2934 7.49888 8.18176C7.48121 6.94456 8.39788 6.02527 9.40407 6.00052Z" fill="#080809" style="fill:#080809;fill:color(display-p3 0.0314 0.0314 0.0353);fill-opacity:1;"/>
<path d="M10.681 21.0804C8.98285 19.7941 7.45873 18.5395 6.07731 17.1899L4.2623 18.381C3.35777 18.9746 3.08927 20.1799 3.65629 21.1013L4.60373 22.6409C5.19756 23.6059 6.47368 23.8853 7.41644 23.2568L10.681 21.0804Z" fill="#080809" style="fill:#080809;fill:color(display-p3 0.0314 0.0314 0.0353);fill-opacity:1;"/>
</svg>
