<svg width="24" height="24" viewBox="0 0 24 24" fill="none" xmlns="http://www.w3.org/2000/svg">
<path fill-rule="evenodd" clip-rule="evenodd" d="M4.25834 18.4918C3.15868 17.3921 3.15868 15.6092 4.25834 14.5095L13.1333 5.63452C14.9924 3.77547 18.0065 3.77547 19.8656 5.63453C21.7246 7.49358 21.7246 10.5077 19.8656 12.3668L12.6156 19.6168C12.1274 20.1049 12.1274 20.8964 12.6156 21.3845C13.1037 21.8727 13.8952 21.8727 14.3833 21.3845L21.6333 14.1345C24.4687 11.2992 24.4687 6.70213 21.6333 3.86676C18.798 1.0314 14.2009 1.03139 11.3656 3.86676L2.49057 12.7418C0.4146 14.8177 0.4146 18.1836 2.49057 20.2595C4.56655 22.3355 7.93237 22.3355 10.0083 20.2595L16.8833 13.3845C18.1999 12.0679 18.1999 9.93334 16.8833 8.61676C15.5668 7.30018 13.4322 7.30018 12.1156 8.61676L6.61557 14.1168C6.12742 14.6049 6.12742 15.3964 6.61557 15.8845C7.10373 16.3727 7.89519 16.3727 8.38334 15.8845L13.8833 10.3845C14.2236 10.0443 14.7753 10.0443 15.1156 10.3845C15.4558 10.7248 15.4558 11.2765 15.1156 11.6168L8.24057 18.4918C7.14091 19.5914 5.358 19.5914 4.25834 18.4918Z" fill="#080809" style="fill:#080809;fill:color(display-p3 0.0314 0.0314 0.0353);fill-opacity:1;"/>
</svg>
