<svg width="24" height="24" viewBox="0 0 24 24" fill="none" xmlns="http://www.w3.org/2000/svg">
<path fill-rule="evenodd" clip-rule="evenodd" d="M8.01439 1.05702C4.90828 -0.733 1.19716 2.15211 2.16599 5.6037L3.80964 11.4594C3.90885 11.8129 3.90887 12.1868 3.80968 12.5403L2.16557 18.3993C1.19698 21.8511 4.90853 24.7359 8.0145 22.9455L20.99 15.4656C23.66 13.9265 23.6597 10.0733 20.9896 8.5345L8.01439 1.05702ZM4.09157 5.06321C3.60715 3.33741 5.46272 1.89486 7.01577 2.78987L19.991 10.2673C21.326 11.0367 21.3262 12.9633 19.9912 13.7329L7.01566 21.2128C5.46268 22.108 3.6069 20.6656 4.0912 18.9397L5.73531 13.0806C5.74283 13.0538 5.75007 13.0269 5.75702 13H11C11.5523 13 12 12.5523 12 12C12 11.4477 11.5523 11 11 11H5.75706C5.75007 10.9729 5.74279 10.9459 5.73522 10.9189L4.09157 5.06321Z" fill="#080809" style="fill:#080809;fill:color(display-p3 0.0314 0.0314 0.0353);fill-opacity:1;"/>
</svg>
