<svg width="24" height="24" viewBox="0 0 24 24" fill="none" xmlns="http://www.w3.org/2000/svg">
<path d="M20.0029 10C20.5552 10 21.0029 10.4477 21.0029 11C21.0029 15.6335 17.5013 19.4471 13 19.9434V21.5H15L15.1025 21.5049C15.6067 21.5562 16 21.9823 16 22.5C16 23.0177 15.6067 23.4438 15.1025 23.4951L15 23.5H9C8.44772 23.5 8 23.0523 8 22.5C8 21.9477 8.44772 21.5 9 21.5H11V19.9424C6.50158 19.4435 3.00293 15.6315 3.00293 11C3.00293 10.4477 3.45064 10 4.00293 10C4.55521 10 5.00293 10.4477 5.00293 11C5.00293 14.866 8.13694 18 12.0029 18C15.8689 18 19.0029 14.866 19.0029 11C19.0029 10.4477 19.4506 10 20.0029 10Z" fill="#080809" style="fill:#080809;fill:color(display-p3 0.0314 0.0314 0.0353);fill-opacity:1;"/>
<path fill-rule="evenodd" clip-rule="evenodd" d="M12 0.5C14.7614 0.5 17 2.73858 17 5.5V11C17 13.7614 14.7614 16 12 16C9.23858 16 7 13.7614 7 11V5.5C7 2.73858 9.23858 0.5 12 0.5ZM12 2.5C10.3431 2.5 9 3.84315 9 5.5V11C9 12.6569 10.3431 14 12 14C13.6569 14 15 12.6569 15 11V5.5C15 3.84315 13.6569 2.5 12 2.5Z" fill="#080809" style="fill:#080809;fill:color(display-p3 0.0314 0.0314 0.0353);fill-opacity:1;"/>
</svg>
