<svg width="24" height="24" viewBox="0 0 24 24" fill="none" xmlns="http://www.w3.org/2000/svg">
<path d="M23.5235 11.9708C23.5243 11.4768 23.3796 10.9934 23.1073 10.5811C22.835 10.1688 22.4472 9.84594 21.9925 9.65274C21.5377 9.45955 21.0362 9.40462 20.5504 9.49483C20.0646 9.58504 19.6162 9.81638 19.2611 10.16C17.5406 8.91836 15.1703 8.11665 12.5301 8.02452L13.6765 2.63037L17.4224 3.42663C17.4424 3.8645 17.6215 4.28004 17.926 4.59532C18.2305 4.91059 18.6396 5.10396 19.0765 5.13916C19.5134 5.17435 19.9482 5.04896 20.2992 4.78649C20.6503 4.52402 20.8935 4.1425 20.9834 3.71348C21.0732 3.28446 21.0034 2.8374 20.7872 2.45613C20.5709 2.07487 20.223 1.78559 19.8087 1.64253C19.3944 1.49948 18.9421 1.51248 18.5367 1.6791C18.1312 1.84571 17.8005 2.1545 17.6065 2.54756L13.4242 1.65777C13.3665 1.64551 13.3069 1.64475 13.2489 1.65553C13.1909 1.6663 13.1355 1.68841 13.0861 1.72057C13.0366 1.75273 12.9939 1.79432 12.9605 1.84298C12.9271 1.89163 12.9036 1.94639 12.8914 2.00412L11.6104 8.02294C8.93149 8.09731 6.52302 8.90025 4.78052 10.1556C4.51595 9.90164 4.19904 9.70864 3.85202 9.59008C3.505 9.47152 3.13626 9.43028 2.77162 9.46923C2.40698 9.50818 2.05527 9.6264 1.74112 9.81559C1.42698 10.0048 1.158 10.2604 0.953031 10.5644C0.748062 10.8685 0.612062 11.2138 0.554557 11.5759C0.497051 11.9381 0.519433 12.3085 0.620133 12.6611C0.720833 13.0137 0.897416 13.34 1.13751 13.6172C1.37761 13.8944 1.67541 14.1158 2.01005 14.2657C1.97045 14.5176 1.95035 14.7721 1.94992 15.027C1.94992 18.8993 6.45744 22.0385 12.0177 22.0385C17.578 22.0385 22.0854 18.8993 22.0854 15.027C22.085 14.7739 22.0652 14.5211 22.0261 14.271C22.4716 14.0738 22.8503 13.7514 23.1161 13.3431C23.3819 12.9348 23.5234 12.4581 23.5235 11.9708Z" fill="#080809" style="fill:#080809;fill:color(display-p3 0.0314 0.0314 0.0353);fill-opacity:1;"/>
</svg>
