<svg width="24" height="24" viewBox="0 0 24 24" fill="none" xmlns="http://www.w3.org/2000/svg">
<path fill-rule="evenodd" clip-rule="evenodd" d="M1 3.5C1 2.11929 2.11929 1 3.5 1H8.5C9.88071 1 11 2.11929 11 3.5V20.5C11 21.8807 9.88071 23 8.5 23H3.5C2.11929 23 1 21.8807 1 20.5V3.5ZM3.5 3C3.22386 3 3 3.22386 3 3.5V20.5C3 20.7761 3.22386 21 3.5 21H8.5C8.77614 21 9 20.7761 9 20.5V3.5C9 3.22386 8.77614 3 8.5 3H3.5Z" fill="#080809" style="fill:#080809;fill:color(display-p3 0.0314 0.0314 0.0353);fill-opacity:1;"/>
<path fill-rule="evenodd" clip-rule="evenodd" d="M13 3.5C13 2.11929 14.1193 1 15.5 1H20.5C21.8807 1 23 2.11929 23 3.5V11.5C23 12.8807 21.8807 14 20.5 14H15.5C14.1193 14 13 12.8807 13 11.5V3.5ZM15.5 3C15.2239 3 15 3.22386 15 3.5V11.5C15 11.7761 15.2239 12 15.5 12H20.5C20.7761 12 21 11.7761 21 11.5V3.5C21 3.22386 20.7761 3 20.5 3H15.5Z" fill="#080809" style="fill:#080809;fill:color(display-p3 0.0314 0.0314 0.0353);fill-opacity:1;"/>
<path fill-rule="evenodd" clip-rule="evenodd" d="M15.5 16C14.1193 16 13 17.1193 13 18.5V20.5C13 21.8807 14.1193 23 15.5 23H20.5C21.8807 23 23 21.8807 23 20.5V18.5C23 17.1193 21.8807 16 20.5 16H15.5ZM15 18.5C15 18.2239 15.2239 18 15.5 18H20.5C20.7761 18 21 18.2239 21 18.5V20.5C21 20.7761 20.7761 21 20.5 21H15.5C15.2239 21 15 20.7761 15 20.5V18.5Z" fill="#080809" style="fill:#080809;fill:color(display-p3 0.0314 0.0314 0.0353);fill-opacity:1;"/>
</svg>
