<svg width="24" height="24" viewBox="0 0 24 24" fill="none" xmlns="http://www.w3.org/2000/svg">
<g clip-path="url(#clip0_29901_28138)">
<path fill-rule="evenodd" clip-rule="evenodd" d="M12 23.5C18.3513 23.5 23.5 18.3513 23.5 12C23.5 5.64873 18.3513 0.5 12 0.5C5.64873 0.5 0.5 5.64873 0.5 12C0.5 18.3513 5.64873 23.5 12 23.5ZM7.95082 3.40368C5.0157 4.78865 2.90428 7.63258 2.552 11H6.02143C6.13444 8.37417 6.68936 5.97716 7.56161 4.14545C7.68233 3.89191 7.81212 3.64374 7.95082 3.40368ZM12 2.5C11.2279 2.5 10.2306 3.19236 9.36733 5.00531C8.64007 6.53255 8.13531 8.6259 8.02343 11H15.9766C15.8647 8.6259 15.3599 6.53255 14.6327 5.00531C13.7694 3.19236 12.7721 2.5 12 2.5ZM17.9786 11C17.8656 8.37417 17.3106 5.97716 16.4384 4.14545C16.3177 3.89191 16.1879 3.64374 16.0492 3.40368C18.9843 4.78865 21.0957 7.63258 21.448 11H17.9786ZM15.9766 13H8.02343C8.13531 15.3741 8.64007 17.4674 9.36733 18.9947C10.2306 20.8076 11.2279 21.5 12 21.5C12.7721 21.5 13.7694 20.8076 14.6327 18.9947C15.3599 17.4674 15.8647 15.3741 15.9766 13ZM16.0492 20.5963C16.1879 20.3563 16.3177 20.1081 16.4384 19.8546C17.3106 18.0228 17.8656 15.6258 17.9786 13H21.448C21.0957 16.3674 18.9843 19.2114 16.0492 20.5963ZM7.95082 20.5963C7.81212 20.3563 7.68233 20.1081 7.56161 19.8546C6.68936 18.0228 6.13444 15.6258 6.02143 13H2.552C2.90428 16.3674 5.01571 19.2114 7.95082 20.5963Z" fill="#080809" style="fill:#080809;fill:color(display-p3 0.0314 0.0314 0.0353);fill-opacity:1;"/>
</g>
<defs>
<clipPath id="clip0_29901_28138">
<rect width="24" height="24" fill="white" style="fill:white;fill-opacity:1;"/>
</clipPath>
</defs>
</svg>
