<svg width="24" height="24" viewBox="0 0 24 24" fill="none" xmlns="http://www.w3.org/2000/svg">
<path d="M12 2.75C6.89137 2.75 2.75 6.89137 2.75 12C2.75 17.1086 6.89137 21.25 12 21.25C12.6904 21.25 13.25 21.8096 13.25 22.5C13.25 23.1904 12.6904 23.75 12 23.75C5.51065 23.75 0.25 18.4893 0.25 12C0.25 5.51065 5.51065 0.25 12 0.25C12.6904 0.25 13.25 0.809644 13.25 1.5C13.25 2.19036 12.6904 2.75 12 2.75Z" fill="#080809" style="fill:#080809;fill:color(display-p3 0.0314 0.0314 0.0353);fill-opacity:1;"/>
<path d="M18.5408 5.45927C19.029 5.94743 19.8205 5.94743 20.3086 5.45927C20.7968 4.97112 20.7968 4.17966 20.3086 3.69151C19.8205 3.20335 19.029 3.20335 18.5408 3.69151C18.0527 4.17966 18.0527 4.97112 18.5408 5.45927Z" fill="#080809" style="fill:#080809;fill:color(display-p3 0.0314 0.0314 0.0353);fill-opacity:1;"/>
<path d="M21.2501 12C21.2501 12.6904 21.8097 13.25 22.5001 13.25C23.1904 13.25 23.7501 12.6904 23.7501 12C23.7501 11.3096 23.1904 10.75 22.5001 10.75C21.8097 10.75 21.2501 11.3096 21.2501 12Z" fill="#080809" style="fill:#080809;fill:color(display-p3 0.0314 0.0314 0.0353);fill-opacity:1;"/>
<path d="M18.5409 20.3085C18.0527 19.8203 18.0527 19.0289 18.5409 18.5407C19.029 18.0526 19.8205 18.0526 20.3086 18.5407C20.7968 19.0289 20.7968 19.8203 20.3086 20.3085C19.8205 20.7967 19.029 20.7967 18.5409 20.3085Z" fill="#080809" style="fill:#080809;fill:color(display-p3 0.0314 0.0314 0.0353);fill-opacity:1;"/>
<path d="M14.8633 1.82078C14.5991 2.45859 14.902 3.1898 15.5398 3.45399C16.1776 3.71817 16.9088 3.4153 17.173 2.77749C17.4372 2.13968 17.1343 1.40847 16.4965 1.14429C15.8587 0.880097 15.1275 1.18298 14.8633 1.82078Z" fill="#080809" style="fill:#080809;fill:color(display-p3 0.0314 0.0314 0.0353);fill-opacity:1;"/>
<path d="M22.1791 9.13657C21.5413 9.40076 20.8101 9.09788 20.5459 8.46008C20.2817 7.82227 20.5846 7.09106 21.2224 6.82687C21.8602 6.56269 22.5914 6.86556 22.8556 7.50337C23.1198 8.14117 22.8169 8.87238 22.1791 9.13657Z" fill="#080809" style="fill:#080809;fill:color(display-p3 0.0314 0.0314 0.0353);fill-opacity:1;"/>
<path d="M20.546 15.5397C20.2818 16.1775 20.5847 16.9088 21.2225 17.1729C21.8603 17.4371 22.5915 17.1343 22.8557 16.4964C23.1199 15.8586 22.817 15.1274 22.1792 14.8632C21.5414 14.5991 20.8102 14.9019 20.546 15.5397Z" fill="#080809" style="fill:#080809;fill:color(display-p3 0.0314 0.0314 0.0353);fill-opacity:1;"/>
<path d="M14.8634 22.1792C14.5992 21.5414 14.902 20.8102 15.5398 20.546C16.1777 20.2818 16.9089 20.5847 17.173 21.2225C17.4372 21.8603 17.1344 22.5915 16.4966 22.8557C15.8587 23.1199 15.1275 22.817 14.8634 22.1792Z" fill="#080809" style="fill:#080809;fill:color(display-p3 0.0314 0.0314 0.0353);fill-opacity:1;"/>
<path d="M11.4985 15.9996H13.3285V7.59961H10.1005L9.89648 9.16561H11.4985V15.9996Z" fill="#080809" style="fill:#080809;fill:color(display-p3 0.0314 0.0314 0.0353);fill-opacity:1;"/>
</svg>
