<svg width="24" height="24" viewBox="0 0 24 24" fill="none" xmlns="http://www.w3.org/2000/svg">
<path fill-rule="evenodd" clip-rule="evenodd" d="M11.123 3.00006C9.6726 2.99937 8.66467 2.99888 7.74283 3.38072C6.821 3.76256 6.10862 4.47561 5.08355 5.50166L4.89741 5.68789C3.60803 6.97723 2.56871 8.01652 1.86123 8.94379C1.12669 9.90651 0.65625 10.8651 0.65625 12.0001C0.65625 13.1351 1.12669 14.0937 1.86123 15.0564C2.56872 15.9837 3.60801 17.023 4.89741 18.3123L5.08355 18.4986C6.10862 19.5246 6.821 20.2377 7.74283 20.6195C8.66467 21.0014 9.6726 21.0009 11.123 21.0002L14.5725 21.0001C16.396 21.0001 17.8658 21.0002 19.0217 20.8448C20.2219 20.6834 21.2324 20.3382 22.0349 19.5357C22.8375 18.7331 23.1827 17.7226 23.344 16.5225C23.4994 15.3665 23.4994 13.8967 23.4994 12.0733V11.927C23.4994 10.1035 23.4994 8.63374 23.344 7.47778C23.1827 6.27764 22.8375 5.26714 22.0349 4.46458C21.2324 3.66203 20.2219 3.31684 19.0217 3.15548C17.8658 3.00007 16.396 3.00009 14.5726 3.00012L11.123 3.00006ZM17.7061 8.29289C18.0967 8.68342 18.0967 9.31658 17.7061 9.70711L15.4132 12L17.7061 14.2929C18.0967 14.6834 18.0967 15.3166 17.7061 15.7071C17.3156 16.0976 16.6824 16.0976 16.2919 15.7071L13.999 13.4142L11.7061 15.7071C11.3156 16.0976 10.6824 16.0976 10.2919 15.7071C9.90139 15.3166 9.90139 14.6834 10.2919 14.2929L12.5848 12L10.2919 9.70711C9.90139 9.31658 9.90139 8.68342 10.2919 8.29289C10.6824 7.90237 11.3156 7.90237 11.7061 8.29289L13.999 10.5858L16.2919 8.29289C16.6824 7.90237 17.3156 7.90237 17.7061 8.29289Z" fill="#080809" style="fill:#080809;fill:color(display-p3 0.0314 0.0314 0.0353);fill-opacity:1;"/>
</svg>
