<svg width="24" height="24" viewBox="0 0 24 24" fill="none" xmlns="http://www.w3.org/2000/svg">
<path d="M20 10C20.5523 10 21 10.4477 21 11C21 15.6325 17.4998 19.4448 13 19.9424V21.5H15C15.5523 21.5 16 21.9477 16 22.5C16 23.0523 15.5523 23.5 15 23.5H9C8.44772 23.5 8 23.0523 8 22.5C8 21.9477 8.44772 21.5 9 21.5H11V19.9424C6.50019 19.4448 3 15.6325 3 11C3 10.4477 3.44772 10 4 10C4.55228 10 5 10.4477 5 11C5 14.866 8.13401 18 12 18C15.866 18 19 14.866 19 11C19 10.4477 19.4477 10 20 10Z" fill="#080809" style="fill:#080809;fill:color(display-p3 0.0314 0.0314 0.0353);fill-opacity:1;"/>
<path d="M12 0.5C13.0535 0.5 14.0338 0.826791 14.8408 1.38477C15.2008 1.6337 15.3571 2.08811 15.2266 2.50586C15.0795 2.9764 15 3.47803 15 4C15 4.10205 15.0034 4.20569 15.0098 4.31055C15.035 4.7257 14.8004 5.11289 14.4209 5.2832C13.2866 5.79237 12.5 6.93049 12.5 8.25C12.5 10.0345 13.9384 11.4833 15.7188 11.5C16.0495 11.5031 16.3573 11.6693 16.541 11.9443C16.7246 12.2195 16.7608 12.5683 16.6367 12.875C15.8958 14.7057 14.1 16 12 16C9.23858 16 7 13.7614 7 11V5.5C7 2.73858 9.23858 0.5 12 0.5Z" fill="#080809" style="fill:#080809;fill:color(display-p3 0.0314 0.0314 0.0353);fill-opacity:1;"/>
<path d="M15.75 6C16.0708 6 16.3563 6.20422 16.46 6.50781L16.7227 7.27637L17.4922 7.54004C17.7958 7.64371 18 7.9292 18 8.25C18 8.5708 17.7958 8.85629 17.4922 8.95996L16.7227 9.22266L16.46 9.99219C16.3563 10.2958 16.0708 10.5 15.75 10.5C15.4292 10.5 15.1437 10.2958 15.04 9.99219L14.7764 9.22266L14.0078 8.95996C13.7042 8.85629 13.5 8.5708 13.5 8.25C13.5 7.9292 13.7042 7.64371 14.0078 7.54004L14.7764 7.27637L15.04 6.50781C15.1437 6.20422 15.4292 6 15.75 6Z" fill="#080809" style="fill:#080809;fill:color(display-p3 0.0314 0.0314 0.0353);fill-opacity:1;"/>
<path d="M20 0.5C20.4277 0.5 20.808 0.772019 20.9463 1.17676L21.4238 2.5752L22.8232 3.05371C23.228 3.19196 23.5 3.57229 23.5 4C23.5 4.42771 23.228 4.80804 22.8232 4.94629L21.4238 5.42383L20.9463 6.82324C20.808 7.22798 20.4277 7.5 20 7.5C19.5723 7.5 19.192 7.22798 19.0537 6.82324L18.5752 5.42383L17.1768 4.94629C16.772 4.80804 16.5 4.42771 16.5 4C16.5 3.57229 16.772 3.19196 17.1768 3.05371L18.5752 2.5752L19.0537 1.17676L19.1162 1.03125C19.2875 0.70807 19.6258 0.5 20 0.5Z" fill="#080809" style="fill:#080809;fill:color(display-p3 0.0314 0.0314 0.0353);fill-opacity:1;"/>
</svg>
