<svg width="24" height="24" viewBox="0 0 24 24" fill="none" xmlns="http://www.w3.org/2000/svg">
<g clip-path="url(#clip0_29901_28519)">
<path fill-rule="evenodd" clip-rule="evenodd" d="M12 0.5C18.3513 0.5 23.5 5.64873 23.5 12C23.5 13.9218 23.0278 15.7363 22.1922 17.3308C22.105 17.4973 22.092 17.6559 22.1233 17.7765L23.0047 21.1762C23.2918 22.2835 22.2835 23.2918 21.1762 23.0047L17.7765 22.1233C17.6559 22.092 17.4973 22.105 17.3308 22.1922C15.7363 23.0278 13.9218 23.5 12 23.5C5.64873 23.5 0.5 18.3513 0.5 12C0.5 5.64873 5.64873 0.5 12 0.5ZM12.9234 8.11597C12.7683 7.74301 12.4041 7.5 12.0001 7.5C11.5962 7.5 11.2319 7.74301 11.0768 8.11597L10.3856 9.77781L8.59152 9.92164C8.18888 9.95392 7.8452 10.2253 7.72037 10.6094C7.59555 10.9936 7.71411 11.4151 8.02087 11.6779L9.38778 12.8488L8.97017 14.5995C8.87645 14.9924 9.02831 15.4032 9.35509 15.6406C9.68188 15.878 10.1194 15.8955 10.4641 15.685L12.0001 14.7468L13.5361 15.685C13.8808 15.8955 14.3184 15.878 14.6452 15.6406C14.9719 15.4032 15.1238 14.9924 15.0301 14.5995L14.6125 12.8488L15.9794 11.6779C16.2862 11.4151 16.4047 10.9936 16.2799 10.6094C16.1551 10.2253 15.8114 9.95392 15.4087 9.92164L13.6146 9.77781L12.9234 8.11597Z" fill="#080809" style="fill:#080809;fill:color(display-p3 0.0314 0.0314 0.0353);fill-opacity:1;"/>
</g>
<defs>
<clipPath id="clip0_29901_28519">
<rect width="24" height="24" fill="white" style="fill:white;fill-opacity:1;"/>
</clipPath>
</defs>
</svg>
