<svg width="24" height="24" viewBox="0 0 24 24" fill="none" xmlns="http://www.w3.org/2000/svg">
<path fill-rule="evenodd" clip-rule="evenodd" d="M12 0.5C7.02944 0.5 3 4.52944 3 9.5V21C3 22.3807 4.11929 23.5 5.5 23.5H20C20.5523 23.5 21 23.0523 21 22.5C21 21.9477 20.5523 21.5 20 21.5H16.3262C19.1531 19.5093 21 16.2203 21 12.5V9.5C21 4.52944 16.9706 0.5 12 0.5ZM12.0002 6.49952C12.9125 5.28534 14.3646 4.5 16.0002 4.5C16.3423 4.5 16.6763 4.53434 16.999 4.59977C15.7286 3.30395 13.9583 2.5 12.0002 2.5C10.0422 2.5 8.2719 3.30395 7.00146 4.59977C7.3242 4.53434 7.65821 4.5 8.00024 4.5C9.63584 4.5 11.088 5.28534 12.0002 6.49952ZM9.5 9.5C9.5 10.3284 8.82843 11 8 11C7.17157 11 6.5 10.3284 6.5 9.5C6.5 8.67157 7.17157 8 8 8C8.82843 8 9.5 8.67157 9.5 9.5ZM17.5 9.5C17.5 10.3284 16.8284 11 16 11C15.1716 11 14.5 10.3284 14.5 9.5C14.5 8.67157 15.1716 8 16 8C16.8284 8 17.5 8.67157 17.5 9.5ZM12 8C12.5523 8 13 8.44772 13 9V12C13 12.5523 12.5523 13 12 13C11.4477 13 11 12.5523 11 12V9C11 8.44772 11.4477 8 12 8Z" fill="#080809" style="fill:#080809;fill:color(display-p3 0.0314 0.0314 0.0353);fill-opacity:1;"/>
</svg>
