<svg width="24" height="24" viewBox="0 0 24 24" fill="none" xmlns="http://www.w3.org/2000/svg">
<path fill-rule="evenodd" clip-rule="evenodd" d="M19.7355 18.381L16.6677 16.3678C17.4575 15.5583 18.2469 14.6346 18.9007 13.6381C19.8014 12.2655 20.4989 10.6726 20.4989 9C20.4989 4.30558 16.6933 0.5 11.9989 0.5C7.30447 0.5 3.49889 4.30558 3.49889 9C3.49889 10.6726 4.1964 12.2655 5.09705 13.6381C5.5721 14.3621 6.11871 15.0477 6.68505 15.679C8.24104 17.2614 10.0076 18.7086 12.0716 20.2503L16.5813 23.2568C17.5241 23.8853 18.8002 23.6059 19.394 22.6409L20.3415 21.1013C20.9085 20.1799 20.64 18.9746 19.7355 18.381ZM11.9991 13.2735C11.5935 12.969 11.0203 12.5066 10.4531 11.9444C9.92638 11.4223 9.42537 10.8345 9.06093 10.2239C8.69426 9.60959 8.49912 9.02827 8.49912 8.5C8.49912 6.567 10.0661 5 11.9991 5C13.9321 5 15.4991 6.567 15.4991 8.5C15.4991 9.02827 15.304 9.60959 14.9373 10.2239C14.5729 10.8345 14.0719 11.4223 13.5451 11.9444C12.9779 12.5066 12.4048 12.969 11.9991 13.2735Z" fill="#080809" style="fill:#080809;fill:color(display-p3 0.0314 0.0314 0.0353);fill-opacity:1;"/>
<path d="M10.6803 21.0809C8.98219 19.7945 7.4581 18.5399 6.07671 17.1903L4.2623 18.381C3.35777 18.9746 3.08927 20.1799 3.65629 21.1013L4.60373 22.6409C5.19757 23.6059 6.47367 23.8853 7.41644 23.2568L10.6803 21.0809Z" fill="#080809" style="fill:#080809;fill:color(display-p3 0.0314 0.0314 0.0353);fill-opacity:1;"/>
</svg>
