<svg width="24" height="24" viewBox="0 0 24 24" fill="none" xmlns="http://www.w3.org/2000/svg">
<g clip-path="url(#clip0_29901_26051)">
<path d="M4.63398 6C6.37687 3.86286 9.02978 2.5 12 2.5C17.2467 2.5 21.5 6.75329 21.5 12C21.5 14.6584 20.4094 17.0603 18.6486 18.7858C18.2541 19.1723 18.2477 19.8054 18.6342 20.1999C19.0208 20.5944 19.6539 20.6008 20.0484 20.2142C22.1772 18.1281 23.5 15.2176 23.5 12C23.5 5.64873 18.3513 0.5 12 0.5C8.35438 0.5 5.10606 2.19662 3 4.8406V3C3 2.44772 2.55228 2 2 2C1.44772 2 1 2.44772 1 3V6.5C1 7.32843 1.67157 8 2.5 8H2.74707C2.75821 8.00019 2.76934 8.00019 2.78046 8H6C6.55228 8 7 7.55228 7 7C7 6.44772 6.55228 6 6 6H4.63398Z" fill="#080809" style="fill:#080809;fill:color(display-p3 0.0314 0.0314 0.0353);fill-opacity:1;"/>
<path d="M2.5 12C2.5 11.4477 2.05228 11 1.5 11C0.947715 11 0.5 11.4477 0.5 12C0.5 12.3687 0.517387 12.7337 0.551433 13.0941C0.603381 13.6439 1.09122 14.0475 1.64106 13.9956C2.1909 13.9436 2.59451 13.4558 2.54257 12.9059C2.51442 12.608 2.5 12.3058 2.5 12Z" fill="#080809" style="fill:#080809;fill:color(display-p3 0.0314 0.0314 0.0353);fill-opacity:1;"/>
<path d="M3.64362 16.5231C3.38025 16.0377 2.77321 15.8577 2.28777 16.121C1.80233 16.3844 1.62231 16.9914 1.88568 17.4769C2.43614 18.4915 3.13451 19.4135 3.95165 20.2142C4.34612 20.6008 4.97925 20.5944 5.3658 20.1999C5.75234 19.8054 5.74592 19.1723 5.35145 18.7858C4.67545 18.1233 4.09821 17.361 3.64362 16.5231Z" fill="#080809" style="fill:#080809;fill:color(display-p3 0.0314 0.0314 0.0353);fill-opacity:1;"/>
<path d="M9.28525 21.1067C8.75591 20.9492 8.19909 21.2506 8.04155 21.7799C7.88401 22.3093 8.18541 22.8661 8.71475 23.0236C9.75691 23.3338 10.8599 23.5 12 23.5C13.1401 23.5 14.2431 23.3338 15.2853 23.0236C15.8146 22.8661 16.116 22.3093 15.9585 21.7799C15.8009 21.2506 15.2441 20.9492 14.7148 21.1067C13.8558 21.3624 12.9448 21.5 12 21.5C11.0552 21.5 10.1442 21.3624 9.28525 21.1067Z" fill="#080809" style="fill:#080809;fill:color(display-p3 0.0314 0.0314 0.0353);fill-opacity:1;"/>
<path d="M12 6C12.5523 6 13 6.44772 13 7V11.5858L15.7071 14.2929C16.0976 14.6834 16.0976 15.3166 15.7071 15.7071C15.3166 16.0976 14.6834 16.0976 14.2929 15.7071L11.2929 12.7071C11.1054 12.5196 11 12.2652 11 12V7C11 6.44772 11.4477 6 12 6Z" fill="#080809" style="fill:#080809;fill:color(display-p3 0.0314 0.0314 0.0353);fill-opacity:1;"/>
</g>
<defs>
<clipPath id="clip0_29901_26051">
<rect width="24" height="24" fill="white" style="fill:white;fill-opacity:1;"/>
</clipPath>
</defs>
</svg>
