<svg width="24" height="24" viewBox="0 0 24 24" fill="none" xmlns="http://www.w3.org/2000/svg">
<g clip-path="url(#clip0_29901_26206)">
<path fill-rule="evenodd" clip-rule="evenodd" d="M3.12118 1.46468C4.16703 0.418829 5.88724 0.504629 6.82384 1.64935L9.54768 4.9785C10.2624 5.85207 10.3032 7.09622 9.64712 8.01469L8.45222 9.68754C8.32556 9.86487 8.32834 10.1038 8.45909 10.2782L8.74316 10.6569C10.0508 12.4004 11.5996 13.9493 13.3432 15.2569L13.7219 15.541C13.8962 15.6717 14.1352 15.6745 14.3125 15.5478L15.9854 14.3529C16.9039 13.6969 18.148 13.7376 19.0216 14.4524L22.3507 17.1762C23.4954 18.1128 23.5812 19.833 22.5354 20.8789L21.8747 21.5396C19.6852 23.7291 16.3044 24.1899 13.6087 22.6663C8.47767 19.7661 4.23397 15.5224 1.3338 10.3913C-0.189829 7.69567 0.271004 4.31485 2.46052 2.12533L3.12118 1.46468ZM5.27592 2.91583C5.0886 2.68688 4.74456 2.66972 4.53539 2.87889L3.87474 3.53955C2.32049 5.09379 1.99337 7.49369 3.07493 9.40721C5.79624 14.2218 9.77822 18.2038 14.5929 20.9251C16.5064 22.0067 18.9063 21.6796 20.4605 20.1253L21.1212 19.4647C21.3303 19.2555 21.3132 18.9115 21.0842 18.7241L17.7551 16.0003C17.5804 15.8574 17.3316 15.8492 17.1479 15.9804L15.475 17.1753C14.5883 17.8086 13.3936 17.7948 12.5219 17.141L12.1432 16.8569C10.248 15.4356 8.56451 13.7521 7.14316 11.8569L6.85909 11.4782C6.20532 10.6065 6.19143 9.41173 6.82476 8.52506L8.01965 6.85221C8.15086 6.66851 8.14271 6.41969 7.99977 6.24497L5.27592 2.91583Z" fill="#080809" style="fill:#080809;fill:color(display-p3 0.0314 0.0314 0.0353);fill-opacity:1;"/>
<path d="M15.2929 8.70711C14.9024 8.31658 14.9024 7.68342 15.2929 7.29289L19.5858 3H17C16.4477 3 16 2.55228 16 2C16 1.44772 16.4477 1 17 1H21C22.1046 1 23 1.89543 23 3V7C23 7.55228 22.5523 8 22 8C21.4477 8 21 7.55228 21 7V4.41421L16.7071 8.70711C16.3166 9.09763 15.6834 9.09763 15.2929 8.70711Z" fill="#080809" style="fill:#080809;fill:color(display-p3 0.0314 0.0314 0.0353);fill-opacity:1;"/>
</g>
<defs>
<clipPath id="clip0_29901_26206">
<rect width="24" height="24" fill="white" style="fill:white;fill-opacity:1;"/>
</clipPath>
</defs>
</svg>
