<svg width="24" height="24" viewBox="0 0 24 24" fill="none" xmlns="http://www.w3.org/2000/svg">
<path fill-rule="evenodd" clip-rule="evenodd" d="M12.001 6.5C8.96348 6.5 6.50098 8.9625 6.50098 12C6.50098 15.0375 8.96348 17.5 12.001 17.5C15.0385 17.5 17.501 15.0375 17.501 12C17.501 8.9625 15.0385 6.5 12.001 6.5ZM12.001 15.5C10.068 15.5 8.50098 13.933 8.50098 12C8.50098 10.067 10.068 8.5 12.001 8.5C13.934 8.5 15.501 10.067 15.501 12C15.501 13.933 13.934 15.5 12.001 15.5Z" fill="#080809" style="fill:#080809;fill:color(display-p3 0.0314 0.0314 0.0353);fill-opacity:1;"/>
<path d="M19.001 6.25C19.001 6.94036 18.4413 7.5 17.751 7.5C17.0606 7.5 16.501 6.94036 16.501 6.25C16.501 5.55964 17.0606 5 17.751 5C18.4413 5 19.001 5.55964 19.001 6.25Z" fill="#080809" style="fill:#080809;fill:color(display-p3 0.0314 0.0314 0.0353);fill-opacity:1;"/>
<path fill-rule="evenodd" clip-rule="evenodd" d="M12.0005 1C9.013 1 8.6385 1.0125 7.465 1.066C6.294 1.1195 5.4945 1.3055 4.795 1.5775C4.0715 1.8585 3.458 2.2345 2.8465 2.8465C2.235 3.458 1.859 4.0715 1.5775 4.795C1.3055 5.4945 1.1195 6.2945 1.066 7.465C1.0125 8.6385 1 9.013 1 12.0005C1 14.988 1.0125 15.3625 1.066 16.536C1.1195 17.707 1.3055 18.5065 1.5775 19.206C1.8585 19.9295 2.2345 20.543 2.8465 21.1545C3.458 21.766 4.0715 22.142 4.795 22.4235C5.4945 22.6955 6.2945 22.8815 7.465 22.935C8.6385 22.9885 9.013 23.001 12.0005 23.001C14.988 23.001 15.3625 22.9885 16.536 22.935C17.707 22.8815 18.5065 22.6955 19.206 22.4235C19.9295 22.1425 20.543 21.7665 21.1545 21.1545C21.766 20.543 22.142 19.9295 22.4235 19.206C22.6955 18.5065 22.8815 17.7065 22.935 16.536C22.9885 15.3625 23.001 14.988 23.001 12.0005C23.001 9.013 22.9885 8.6385 22.935 7.465C22.8815 6.294 22.6955 5.4945 22.4235 4.795C22.1425 4.0715 21.7665 3.458 21.1545 2.8465C20.543 2.235 19.9295 1.859 19.206 1.5775C18.5065 1.3055 17.7065 1.1195 16.536 1.066C15.3625 1.0125 14.988 1 12.0005 1ZM12.0005 3C14.932 3 15.279 3.011 16.4365 3.064C17.507 3.113 18.088 3.2915 18.475 3.442C18.9875 3.641 19.353 3.879 19.7375 4.263C20.1215 4.647 20.3595 5.013 20.5585 5.5255C20.709 5.9125 20.8875 6.4935 20.9365 7.564C20.9895 8.7215 21.0005 9.069 21.0005 12C21.0005 14.931 20.9895 15.2785 20.9365 16.436C20.8875 17.5065 20.709 18.0875 20.5585 18.4745C20.3595 18.987 20.1215 19.3525 19.7375 19.737C19.3535 20.1215 18.9875 20.359 18.475 20.558C18.088 20.7085 17.507 20.887 16.4365 20.936C15.279 20.989 14.932 21 12.0005 21C9.069 21 8.722 20.989 7.5645 20.936C6.494 20.887 5.913 20.7085 5.526 20.558C5.0135 20.359 4.648 20.121 4.2635 19.737C3.8795 19.353 3.6415 18.987 3.4425 18.4745C3.292 18.0875 3.1135 17.5065 3.0645 16.436C3.0115 15.2785 3.0005 14.931 3.0005 12C3.0005 9.069 3.0115 8.7215 3.0645 7.564C3.1135 6.4935 3.292 5.9125 3.4425 5.5255C3.6415 5.013 3.8795 4.6475 4.2635 4.263C4.6475 3.8785 5.0135 3.641 5.526 3.442C5.913 3.2915 6.494 3.113 7.5645 3.064C8.722 3.011 9.0695 3 12.0005 3Z" fill="#080809" style="fill:#080809;fill:color(display-p3 0.0314 0.0314 0.0353);fill-opacity:1;"/>
</svg>
