<svg width="24" height="24" viewBox="0 0 24 24" fill="none" xmlns="http://www.w3.org/2000/svg">
<path d="M10.1156 3.11612C10.6038 2.62796 11.3953 2.62796 11.8834 3.11611C12.3716 3.60427 12.3716 4.39572 11.8834 4.88388C10.9906 5.77669 10.0983 6.66626 9.20684 7.55506C7.78115 8.97642 6.35745 10.3958 4.93679 11.8233C4.84162 11.9189 4.84073 12.0748 4.93801 12.1721C6.35804 13.5935 7.77864 15.0132 9.19963 16.4334L9.20103 16.4348C10.095 17.3282 10.9892 18.2219 11.8834 19.1161C12.3716 19.6043 12.3716 20.3957 11.8834 20.8839C11.3953 21.372 10.6038 21.372 10.1156 20.8839C9.22441 19.9926 8.33252 19.1013 7.44047 18.2098L7.43528 18.2046C6.01305 16.7832 4.59043 15.3614 3.16942 13.9391C2.10019 12.8688 2.09571 11.1339 3.16481 10.0597C4.58773 8.62998 6.01888 7.20317 7.44798 5.77839L7.44871 5.77767C8.33931 4.88976 9.22912 4.00265 10.1156 3.11612Z" fill="#080809" style="fill:#080809;fill:color(display-p3 0.0314 0.0314 0.0353);fill-opacity:1;"/>
<path d="M18.1156 3.11612C18.6038 2.62796 19.3953 2.62796 19.8834 3.11611C20.3716 3.60427 20.3716 4.39572 19.8834 4.88388C18.9906 5.77669 18.0983 6.66626 17.2068 7.55506C15.7811 8.97642 14.3574 10.3958 12.9368 11.8233C12.8416 11.9189 12.8407 12.0748 12.938 12.1721C14.3584 13.5938 15.7793 15.0139 17.2006 16.4343C18.0946 17.3278 18.9892 18.2219 19.8834 19.1161C20.3716 19.6043 20.3716 20.3957 19.8834 20.8839C19.3953 21.372 18.6038 21.372 18.1156 20.8839C17.2244 19.9926 16.3325 19.1013 15.4405 18.2098L15.4353 18.2046C14.0131 16.7832 12.5904 15.3614 11.1694 13.9391C10.1002 12.8688 10.0957 11.1339 11.1648 10.0597C12.5877 8.62998 14.0189 7.20317 15.448 5.77839L15.4492 5.7772C16.3396 4.88945 17.2293 4.0025 18.1156 3.11612Z" fill="#080809" style="fill:#080809;fill:color(display-p3 0.0314 0.0314 0.0353);fill-opacity:1;"/>
</svg>
