<svg width="24" height="24" viewBox="0 0 24 24" fill="none" xmlns="http://www.w3.org/2000/svg">
<path d="M20.0029 10C20.5552 10 21.0029 10.4477 21.0029 11C21.0029 15.6335 17.5013 19.4471 13 19.9434V21.5H15L15.1025 21.5049C15.6067 21.5562 16 21.9823 16 22.5C16 23.0523 15.5523 23.5 15 23.5H9C8.44772 23.5 8 23.0523 8 22.5C8 21.9477 8.44772 21.5 9 21.5H11V19.9424C6.50158 19.4435 3.00293 15.6315 3.00293 11C3.00293 10.4477 3.45064 10 4.00293 10C4.55521 10 5.00293 10.4477 5.00293 11C5.00293 14.866 8.13694 18 12.0029 18C15.8689 18 19.0029 14.866 19.0029 11C19.0029 10.4477 19.4506 10 20.0029 10Z" fill="#080809" style="fill:#080809;fill:color(display-p3 0.0314 0.0314 0.0353);fill-opacity:1;"/>
<path fill-rule="evenodd" clip-rule="evenodd" d="M12.0029 0.5C14.7644 0.5 17.0029 2.73858 17.0029 5.5V11C17.0029 13.7614 14.7644 16 12.0029 16C9.24151 16 7.00293 13.7614 7.00293 11V10.0166C7.00284 10.0111 7.00195 10.0055 7.00195 10C7.00195 9.99413 7.00283 9.98827 7.00293 9.98242V6.52051C7.00279 6.51368 7.00195 6.50686 7.00195 6.5C7.00195 6.49314 7.00279 6.48632 7.00293 6.47949V5.5C7.00293 2.73858 9.24151 0.5 12.0029 0.5ZM12.0029 2.5C10.3461 2.5 9.00293 3.84315 9.00293 5.5H10.002C10.5542 5.5 11.002 5.94772 11.002 6.5C11.002 7.05228 10.5542 7.5 10.002 7.5H9.00293V9H10.002C10.5542 9 11.002 9.44772 11.002 10C11.002 10.5523 10.5542 11 10.002 11H9.00293C9.00293 12.6569 10.3461 14 12.0029 14C13.6598 14 15.0029 12.6569 15.0029 11H14C13.4477 11 13 10.5523 13 10C13 9.44772 13.4477 9 14 9H15.0029V7.5H14C13.4477 7.5 13 7.05228 13 6.5C13 5.94772 13.4477 5.5 14 5.5H15.0029C15.0029 3.84315 13.6598 2.5 12.0029 2.5Z" fill="#080809" style="fill:#080809;fill:color(display-p3 0.0314 0.0314 0.0353);fill-opacity:1;"/>
</svg>
