<svg width="24" height="24" viewBox="0 0 24 24" fill="none" xmlns="http://www.w3.org/2000/svg">
<path fill-rule="evenodd" clip-rule="evenodd" d="M18.5 16.0002C19.8806 16.0002 20.9999 17.1196 21 18.5002V21.0002C21 21.5525 20.5523 22.0002 20 22.0002H4C3.44772 22.0002 3 21.5525 3 21.0002V18.5002C3.00012 17.1196 4.11936 16.0002 5.5 16.0002H18.5ZM5.5 18.0002C5.22393 18.0002 5.00012 18.2242 5 18.5002V20.0002H19V18.5002C18.9999 18.2242 18.7761 18.0002 18.5 18.0002H5.5Z" fill="#080809" style="fill:#080809;fill:color(display-p3 0.0314 0.0314 0.0353);fill-opacity:1;"/>
<path fill-rule="evenodd" clip-rule="evenodd" d="M2.81738 0.516802C3.29114 0.429041 3.76074 0.692097 3.93359 1.1418L4.5459 2.73653C5.25006 4.57078 6.9633 5.82315 8.9248 5.93672L10.0234 6.0002H17.75C20.0971 6.0002 21.9999 7.90309 22 10.2502C22 12.5974 20.0972 14.5002 17.75 14.5002H8C7.44772 14.5002 7 14.0525 7 13.5002C7.00012 12.948 7.44779 12.5002 8 12.5002H17.75C18.9926 12.5002 20 11.4928 20 10.2502C19.9999 9.00766 18.9926 8.0002 17.75 8.0002H10.0234L8.9248 8.06368C6.96343 8.17723 5.25016 9.42982 4.5459 11.2639L3.93359 12.8586C3.76085 13.3086 3.2913 13.5714 2.81738 13.4836C2.34367 13.3956 2 12.9821 2 12.5002V1.5002L2.00391 1.41036C2.04372 0.967915 2.3735 0.599228 2.81738 0.516802ZM4 8.38497C4.49175 7.83633 5.06623 7.36862 5.70117 7.0002C5.066 6.63162 4.49185 6.16338 4 5.61446V8.38497Z" fill="#080809" style="fill:#080809;fill:color(display-p3 0.0314 0.0314 0.0353);fill-opacity:1;"/>
</svg>
