<svg width="24" height="24" viewBox="0 0 24 24" fill="none" xmlns="http://www.w3.org/2000/svg">
<path d="M9.49902 14.4995C10.8797 14.4995 11.999 13.3802 11.999 11.9995C11.999 10.6188 10.8797 9.49951 9.49902 9.49951C8.11831 9.49951 6.99902 10.6188 6.99902 11.9995C6.99902 13.3802 8.11831 14.4995 9.49902 14.4995Z" fill="#080809" style="fill:#080809;fill:color(display-p3 0.0314 0.0314 0.0353);fill-opacity:1;"/>
<path fill-rule="evenodd" clip-rule="evenodd" d="M9.42684 3H9.57317C11.3966 2.99997 12.8664 2.99995 14.0223 3.15537C15.2225 3.31672 16.233 3.66191 17.0355 4.46447C17.8381 5.26702 18.1833 6.27752 18.3446 7.47767C18.3909 7.8221 18.4235 8.19439 18.4463 8.59559L21.1449 6.72309C22.1396 6.03289 23.5 6.74475 23.5 7.95548V16.0122C23.5 17.2414 22.1025 17.9488 21.1119 17.221L18.4536 15.268C18.4306 15.7215 18.3962 16.1392 18.3446 16.5223C18.1833 17.7225 17.8381 18.733 17.0355 19.5355C16.233 20.3381 15.2225 20.6833 14.0223 20.8446C12.8664 21.0001 11.3966 21 9.57314 21H9.42686C7.6034 21 6.13363 21.0001 4.97767 20.8446C3.77752 20.6833 2.76702 20.3381 1.96447 19.5355C1.16191 18.733 0.816721 17.7225 0.655366 16.5223C0.499952 15.3664 0.499974 13.8966 0.500001 12.0732V11.9268C0.499974 10.1034 0.499952 8.63362 0.655366 7.47767C0.816721 6.27752 1.16191 5.26702 1.96447 4.46447C2.76702 3.66191 3.77752 3.31672 4.97767 3.15537C6.13362 2.99995 7.60339 2.99997 9.42684 3ZM18.5 10.9926L21.5 8.91099V15.0244L18.5 12.8203V10.9926ZM16.3625 7.74416C16.4958 8.73608 16.4999 10.0458 16.5 11.9136V12.0864C16.4999 13.9542 16.4958 15.2639 16.3625 16.2558C16.2309 17.2342 15.9903 17.7523 15.6213 18.1213C15.2523 18.4903 14.7342 18.7309 13.7558 18.8625C12.7487 18.9979 11.4139 19 9.5 19C7.58611 19 6.2513 18.9979 5.24416 18.8625C4.2658 18.7309 3.7477 18.4903 3.37868 18.1213C3.00966 17.7523 2.76907 17.2342 2.63753 16.2558C2.50213 15.2487 2.5 13.9139 2.5 12C2.5 10.0861 2.50213 8.7513 2.63753 7.74416C2.76907 6.7658 3.00966 6.2477 3.37868 5.87868C3.7477 5.50966 4.2658 5.26907 5.24416 5.13753C6.2513 5.00213 7.58611 5 9.5 5C11.4139 5 12.7487 5.00213 13.7558 5.13753C14.7342 5.26907 15.2523 5.50966 15.6213 5.87868C15.9903 6.2477 16.2309 6.7658 16.3625 7.74416Z" fill="#080809" style="fill:#080809;fill:color(display-p3 0.0314 0.0314 0.0353);fill-opacity:1;"/>
</svg>
