<svg width="24" height="24" viewBox="0 0 24 24" fill="none" xmlns="http://www.w3.org/2000/svg">
<path d="M16.25 5.98223V3C16.25 2.30964 15.6904 1.75 15 1.75C14.3096 1.75 13.75 2.30964 13.75 3V7.5C13.75 9.01878 14.9812 10.25 16.5 10.25H21C21.6904 10.25 22.25 9.69036 22.25 9C22.25 8.30964 21.6904 7.75 21 7.75H18.0178L21.8839 3.88388C22.372 3.39573 22.372 2.60427 21.8839 2.11612C21.3957 1.62796 20.6043 1.62796 20.1161 2.11612L16.25 5.98223Z" fill="#080809" style="fill:#080809;fill:color(display-p3 0.0314 0.0314 0.0353);fill-opacity:1;"/>
<path d="M9 22.25C8.30964 22.25 7.75 21.6904 7.75 21V18.0178L3.88388 21.8839C3.39573 22.372 2.60427 22.372 2.11612 21.8839C1.62796 21.3957 1.62796 20.6043 2.11612 20.1161L5.98223 16.25H3C2.30964 16.25 1.75 15.6904 1.75 15C1.75 14.3096 2.30964 13.75 3 13.75H7.5C9.01878 13.75 10.25 14.9812 10.25 16.5V21C10.25 21.6904 9.69036 22.25 9 22.25Z" fill="#080809" style="fill:#080809;fill:color(display-p3 0.0314 0.0314 0.0353);fill-opacity:1;"/>
<path d="M22.25 15C22.25 15.6904 21.6904 16.25 21 16.25H18.0178L21.8839 20.1161C22.372 20.6043 22.372 21.3957 21.8839 21.8839C21.3957 22.372 20.6043 22.372 20.1161 21.8839L16.25 18.0178V21C16.25 21.6904 15.6904 22.25 15 22.25C14.3096 22.25 13.75 21.6904 13.75 21V16.5C13.75 14.9812 14.9812 13.75 16.5 13.75H21C21.6904 13.75 22.25 14.3096 22.25 15Z" fill="#080809" style="fill:#080809;fill:color(display-p3 0.0314 0.0314 0.0353);fill-opacity:1;"/>
<path d="M1.75 9C1.75 8.30964 2.30964 7.75 3 7.75L5.98223 7.75L2.11612 3.88388C1.62796 3.39573 1.62796 2.60427 2.11612 2.11612C2.60427 1.62796 3.39573 1.62796 3.88388 2.11612L7.75 5.98223L7.75 3C7.75 2.30964 8.30964 1.75 9 1.75C9.69036 1.75 10.25 2.30964 10.25 3V7.5C10.25 9.01878 9.01878 10.25 7.5 10.25H3C2.30964 10.25 1.75 9.69036 1.75 9Z" fill="#080809" style="fill:#080809;fill:color(display-p3 0.0314 0.0314 0.0353);fill-opacity:1;"/>
</svg>
