<svg width="24" height="24" viewBox="0 0 24 24" fill="none" xmlns="http://www.w3.org/2000/svg">
<path d="M3.0135 21.5633C2.13364 21.5633 1.4042 21.2759 0.816103 20.7012C0.528883 20.4048 0.533464 19.9513 0.825223 19.6774C1.30392 19.2239 1.62758 18.896 1.80082 18.694C1.97406 18.4919 2.21114 18.0608 2.50748 17.3962C1.59568 15.8022 1.07142 13.9611 1.07142 11.9988C1.07142 5.92787 6.06797 1.00195 12.2361 1.00195C18.3998 1.00641 23.3963 5.93237 23.3963 12.0033C23.3963 18.0743 18.3998 23.0002 12.2316 23.0002C9.84726 23.0002 7.63621 22.2638 5.82177 21.0065C4.94645 21.3792 4.01188 21.5633 3.0135 21.5633ZM3.34628 19.9423C4.12132 19.9423 4.83251 19.7986 5.49811 19.5157L5.96765 19.3136C6.12265 19.2463 6.30047 19.2643 6.44177 19.363L6.86121 19.6549C8.4249 20.7371 10.2804 21.3253 12.2361 21.3253C17.4059 21.3253 21.591 17.1987 21.591 12.1111C21.591 7.0235 17.4013 2.89238 12.2361 2.89238C7.07093 2.89238 2.87674 7.01904 2.87674 12.1066C2.87674 13.7142 3.29614 15.2588 4.0803 16.6284L4.30367 17.0236C4.37659 17.1538 4.38571 17.3154 4.32645 17.4501L4.13956 17.8632C3.8022 18.6221 3.52864 19.125 3.246 19.4573C3.14572 19.5741 3.0135 19.7133 2.8448 19.8839C2.99526 19.9198 3.15938 19.9423 3.34628 19.9423ZM6.86489 14.3039C6.86489 14.7754 6.64605 15.0134 6.20841 15.0134C5.77985 15.0134 5.56105 14.7754 5.56105 14.2949V10.9901C5.56105 10.779 5.62485 10.6174 5.74341 10.4961C5.86647 10.3749 6.02147 10.312 6.21295 10.312C6.64151 10.312 6.86031 10.541 6.86031 10.999V14.3039H6.86489ZM14.3232 14.3668C14.3232 14.7979 14.1044 15.0134 13.6667 15.0134C13.2291 15.0134 13.0103 14.7979 13.0103 14.3668V11.8881C13.0103 11.5289 12.8097 11.3537 12.4131 11.3537C12.2763 11.3537 12.1487 11.4077 12.0256 11.5154C11.907 11.6232 11.8523 11.7489 11.8523 11.8881V14.3623C11.8523 14.7934 11.6381 15.0089 11.205 15.0089C10.7627 15.0089 10.5394 14.7934 10.5394 14.3623V11.8387C10.5394 11.5109 10.3844 11.3493 10.0789 11.3493C9.9239 11.3493 9.77344 11.4121 9.61844 11.5289C9.46344 11.6456 9.38594 11.7713 9.38594 11.9106V14.3578C9.38594 14.7889 9.17168 15.0044 8.7477 15.0044C8.30094 15.0044 8.07298 14.7889 8.07298 14.3578V10.9182C8.07298 10.5141 8.28724 10.3075 8.71122 10.3075C9.04858 10.3075 9.26284 10.4422 9.35858 10.7161C9.64126 10.4422 9.99228 10.3075 10.4117 10.3075C10.8995 10.3075 11.2825 10.4916 11.5742 10.8598C11.8614 10.4916 12.2945 10.3075 12.8644 10.3075C13.3613 10.3075 13.7351 10.4602 13.9904 10.761C14.2138 11.0215 14.3232 11.3762 14.3232 11.8253V14.3668ZM17.209 15.0897C16.0009 15.0897 15.0253 14.021 15.0253 12.7009C15.0253 11.3807 16.0009 10.312 17.209 10.312C18.4171 10.312 19.3927 11.3807 19.3927 12.7009C19.3927 14.021 18.4171 15.0897 17.209 15.0897ZM17.209 13.8953C17.747 13.8953 18.1801 13.3071 18.1801 12.5796C18.1801 11.8522 17.747 11.2639 17.209 11.2639C16.671 11.2639 16.238 11.8522 16.238 12.5796C16.238 13.3071 16.6756 13.8953 17.209 13.8953ZM6.29045 10.0695C5.88929 10.0695 5.56105 9.75071 5.56105 9.35106C5.56105 8.95592 5.88471 8.63259 6.29045 8.63259C6.69165 8.63259 7.01989 8.95592 7.01989 9.35106C7.01989 9.74621 6.69165 10.0695 6.29045 10.0695Z" fill="#080809" style="fill:#080809;fill:color(display-p3 0.0314 0.0314 0.0353);fill-opacity:1;"/>
</svg>
