<svg width="24" height="24" viewBox="0 0 24 24" fill="none" xmlns="http://www.w3.org/2000/svg">
<path d="M17.5 8.5C16.3955 8.5 15.5 7.60457 15.5 6.5C15.5 5.39543 16.3955 4.5 17.5 4.5C18.6046 4.5 19.5 5.39543 19.5 6.5C19.5 7.60457 18.6046 8.5 17.5 8.5Z" fill="#080809" style="fill:#080809;fill:color(display-p3 0.0314 0.0314 0.0353);fill-opacity:1;"/>
<path fill-rule="evenodd" clip-rule="evenodd" d="M14.7491 13.75C14.7491 16.2353 12.7343 18.25 10.2491 18.25C7.76378 18.25 5.74906 16.2353 5.74906 13.75C5.74906 11.2647 7.76378 9.25 10.2491 9.25C12.7343 9.25 14.7491 11.2647 14.7491 13.75ZM10.2491 16.25C11.6298 16.25 12.7491 15.1307 12.7491 13.75C12.7491 13.4264 12.6876 13.1171 12.5756 12.8332L9.33228 16.0766C9.61615 16.1885 9.92542 16.25 10.2491 16.25ZM7.92 14.6604L11.1595 11.4209C10.8774 11.3106 10.5703 11.25 10.2491 11.25C8.86835 11.25 7.74906 12.3693 7.74906 13.75C7.74906 14.0712 7.80964 14.3783 7.92 14.6604Z" fill="#080809" style="fill:#080809;fill:color(display-p3 0.0314 0.0314 0.0353);fill-opacity:1;"/>
<path fill-rule="evenodd" clip-rule="evenodd" d="M20.5 1C21.8807 1 23 2.11929 23 3.5V10.7574C23 11.8182 22.5786 12.8356 21.8285 13.5858L13.0785 22.3358C11.5164 23.8979 8.98371 23.8979 7.42161 22.3358L1.66425 16.5784C0.102151 15.0163 0.102153 12.4837 1.66425 10.9216L10.4142 2.17157C11.1644 1.42143 12.1818 1 13.2427 1H20.5ZM21 3.5C21 3.22386 20.7762 3 20.5 3H13.2427C12.7122 3 12.2035 3.21071 11.8285 3.58579L3.07846 12.3358C2.29741 13.1168 2.29741 14.3832 3.07846 15.1642L8.83582 20.9216C9.61687 21.7026 10.8832 21.7026 11.6642 20.9216L20.4142 12.1716C20.7893 11.7965 21 11.2878 21 10.7574V3.5Z" fill="#080809" style="fill:#080809;fill:color(display-p3 0.0314 0.0314 0.0353);fill-opacity:1;"/>
</svg>
