<svg width="24" height="24" viewBox="0 0 24 24" fill="none" xmlns="http://www.w3.org/2000/svg">
<path d="M12.3034 23.5H12.2967C8.85102 23.477 6.20218 22.3452 4.42256 20.1362C2.83843 18.1707 2.02145 15.4356 1.99414 12.0081V11.9914C2.02145 8.56294 2.83843 5.82881 4.42256 3.86327C6.20266 1.65479 8.8515 0.523 12.2967 0.5H12.3101C14.9513 0.51725 17.1612 1.19431 18.8785 2.50962C20.4929 3.74635 21.629 5.50873 22.2562 7.74931L20.2935 8.29413C19.2312 4.4996 16.5436 2.55994 12.3034 2.52927C9.50412 2.54892 7.38764 3.42531 6.011 5.13354C4.72204 6.733 4.05552 9.04306 4.03156 11.999C4.05647 14.956 4.72252 17.266 6.011 18.8645C7.38764 20.5728 9.50412 21.4487 12.3034 21.4688C14.8267 21.4506 16.4966 20.8651 17.8857 19.51C19.4708 17.9637 19.4416 16.0667 18.9346 14.9129C18.6361 14.2329 18.0937 13.6665 17.3629 13.2372C17.1789 14.531 16.7659 15.5813 16.1272 16.3724C15.2757 17.4285 14.0677 18.0059 12.5392 18.0878C11.3825 18.1501 10.2679 17.8775 9.40302 17.3202C8.38 16.6609 7.78104 15.6522 7.71731 14.4792C7.65502 13.3388 8.10879 12.2899 8.99572 11.5266C9.84337 10.7968 11.0351 10.3684 12.4429 10.2899C13.4807 10.2319 14.4515 10.2774 15.3485 10.4264C15.2297 9.71485 14.9882 9.15087 14.6293 8.7431C14.1353 8.18248 13.371 7.89594 12.359 7.88923H12.3307C11.5181 7.88923 10.4145 8.11108 9.71112 9.15327L8.02014 8.021C8.9617 6.6271 10.4912 5.85996 12.3298 5.85996H12.3715C15.4463 5.87912 17.2767 7.75171 17.4588 11.0225C17.5637 11.0666 17.6658 11.1121 17.7674 11.1591C19.202 11.8309 20.2509 12.8481 20.8014 14.1002C21.5681 15.8463 21.639 18.6916 19.3112 20.9609C17.533 22.6955 15.3739 23.478 12.3111 23.499H12.3044V23.5H12.3034ZM13.268 12.2956C13.0351 12.2956 12.7989 12.3024 12.5579 12.3162C10.7907 12.4154 9.68956 13.2214 9.75185 14.3695C9.8175 15.5722 11.1501 16.1314 12.4299 16.0624C13.6082 15.9996 15.142 15.543 15.3988 12.5065C14.7486 12.368 14.0332 12.2952 13.268 12.2952V12.2956Z" fill="#080809" style="fill:#080809;fill:color(display-p3 0.0314 0.0314 0.0353);fill-opacity:1;"/>
</svg>
