<svg width="24" height="24" viewBox="0 0 24 24" fill="none" xmlns="http://www.w3.org/2000/svg">
<path d="M13 14.75C14.4496 14.75 15.411 14.7473 16.1253 14.6513C16.8036 14.5601 17.0691 14.4058 17.2374 14.2374C17.4058 14.0691 17.5601 13.8036 17.6513 13.1253C17.7473 12.411 17.75 11.4496 17.75 10V4C17.75 3.30964 18.3096 2.75 19 2.75C19.6904 2.75 20.25 3.30964 20.25 4L20.25 10.0852C20.2501 11.4267 20.2501 12.5578 20.129 13.4584C20.0005 14.4139 19.7155 15.2949 19.0052 16.0052C18.2949 16.7155 17.4139 17.0005 16.4584 17.129C15.5578 17.2501 14.4267 17.2501 13.0852 17.25L7.01754 17.25L8.88366 19.1161C9.37181 19.6043 9.37181 20.3957 8.88366 20.8839C8.3955 21.372 7.60405 21.372 7.11589 20.8839L4.17655 17.9445C3.10261 16.8706 3.10261 15.1294 4.17655 14.0555L7.11589 11.1161C7.60405 10.628 8.3955 10.628 8.88366 11.1161C9.37181 11.6043 9.37181 12.3957 8.88366 12.8839L7.01754 14.75H13Z" fill="#080809" style="fill:#080809;fill:color(display-p3 0.0314 0.0314 0.0353);fill-opacity:1;"/>
</svg>
