<svg width="24" height="24" viewBox="0 0 24 24" fill="none" xmlns="http://www.w3.org/2000/svg">
<g clip-path="url(#clip0_29901_27908)">
<path d="M13.8966 1.84231C13.2692 0.0499581 10.7345 0.0499591 10.1071 1.84231L8.84297 5.45421C8.28808 7.03961 7.04157 8.28613 5.45617 8.84102L1.84427 10.1052C0.051912 10.7325 0.0519116 13.2673 1.84426 13.8946L5.45617 15.1588C7.04157 15.7137 8.28808 16.9602 8.84297 18.5456L10.1071 22.1575C10.7345 23.9498 13.2692 23.9498 13.8966 22.1575L15.1607 18.5456C15.7156 16.9602 16.9621 15.7137 18.5475 15.1588L22.1594 13.8946C23.9518 13.2673 23.9518 10.7325 22.1594 10.1052L18.5475 8.84102C16.9621 8.28613 15.7156 7.03961 15.1607 5.45422L13.8966 1.84231Z" fill="#080809" style="fill:#080809;fill:color(display-p3 0.0314 0.0314 0.0353);fill-opacity:1;"/>
</g>
<defs>
<clipPath id="clip0_29901_27908">
<rect width="24" height="24" fill="white" style="fill:white;fill-opacity:1;"/>
</clipPath>
</defs>
</svg>
