<svg width="24" height="24" viewBox="0 0 24 24" fill="none" xmlns="http://www.w3.org/2000/svg">
<path d="M11 6.5C11 7.60457 10.1046 8.49999 9 8.49999C7.89543 8.49999 7 7.60457 7 6.5C7 5.39543 7.89543 4.5 9 4.5C10.1046 4.5 11 5.39543 11 6.5Z" fill="#080809" style="fill:#080809;fill:color(display-p3 0.0314 0.0314 0.0353);fill-opacity:1;"/>
<path fill-rule="evenodd" clip-rule="evenodd" d="M14.0706 0.500001H9.92943C8.57533 0.499967 7.45869 0.499939 6.57494 0.618756C5.64711 0.743499 4.82769 1.01547 4.17158 1.67158C3.51547 2.32769 3.2435 3.14711 3.11876 4.07494C2.99994 4.95869 2.99997 6.07529 3 7.42939V16.5706C2.99997 17.9247 2.99994 19.0413 3.11876 19.9251C3.2435 20.8529 3.51547 21.6723 4.17158 22.3284C4.82769 22.9845 5.64711 23.2565 6.57494 23.3813C6.68541 23.3961 6.79951 23.4091 6.91727 23.4205C7.49132 23.4759 8.15205 23.4927 8.90052 23.4978C9.22685 23.5 9.56987 23.5 9.92965 23.5H14.0708C15.4249 23.5001 16.5415 23.5001 17.4253 23.3813C18.3531 23.2565 19.1725 22.9846 19.8287 22.3284C20.4848 21.6723 20.7567 20.8529 20.8815 19.9251C21.0003 19.0413 21.0003 17.9247 21.0002 16.5706V14.5C21.0002 14.493 21.0002 14.486 21 14.479V7.4294C21 6.07532 21.0001 4.95868 20.8813 4.07494C20.7565 3.14711 20.4845 2.32769 19.8284 1.67158C19.1723 1.01547 18.3529 0.743499 17.4251 0.618756C16.5413 0.499939 15.4247 0.499967 14.0706 0.500001ZM19 12.0856V7.5C19 6.05752 18.9979 5.07626 18.8991 4.34144C18.8042 3.63538 18.6368 3.30836 18.4142 3.08579C18.1916 2.86322 17.8646 2.69585 17.1586 2.60092C16.4238 2.50213 15.4425 2.5 14 2.5H10C8.55752 2.5 7.57626 2.50213 6.84144 2.60092C6.13538 2.69585 5.80836 2.86322 5.58579 3.08579C5.36322 3.30836 5.19585 3.63538 5.10092 4.34144C5.00213 5.07626 5 6.05752 5 7.5L5 15.0862L6.09985 13.9864C7.14939 12.9368 8.85102 12.9368 9.90055 13.9864L10.5001 14.5859L14.2325 10.8536C15.2088 9.87726 16.7917 9.87726 17.768 10.8536L19 12.0856Z" fill="#080809" style="fill:#080809;fill:color(display-p3 0.0314 0.0314 0.0353);fill-opacity:1;"/>
</svg>
