<svg width="24" height="24" viewBox="0 0 24 24" fill="none" xmlns="http://www.w3.org/2000/svg">
<path fill-rule="evenodd" clip-rule="evenodd" d="M12.3762 4.37212L5.98503 13.0001H11.4998C11.7923 13.0001 12.0701 13.1281 12.2601 13.3504C12.45 13.5728 12.5332 13.8671 12.4876 14.156L11.6237 19.628L18.0147 11.0001H12.5C12.2075 11.0001 11.9297 10.872 11.7397 10.6497C11.5497 10.4273 11.4666 10.133 11.5122 9.84409L12.3762 4.37212ZM11.8007 1.789C12.7812 0.465354 14.8789 1.34502 14.622 2.97213L13.6702 9.00005H18.8585C20.152 9.00005 20.894 10.4731 20.1241 11.5125L12.1992 22.2111C11.2187 23.5348 9.12096 22.6551 9.37785 21.028L10.3295 15.0001H5.14131C3.84775 15.0001 3.10575 13.527 3.87572 12.4876L11.8007 1.789Z" fill="#080809" style="fill:#080809;fill:color(display-p3 0.0314 0.0314 0.0353);fill-opacity:1;"/>
</svg>
