<svg width="24" height="24" viewBox="0 0 24 24" fill="none" xmlns="http://www.w3.org/2000/svg">
<path d="M1.87166 4.07179C1.35887 3.86668 0.776903 4.11609 0.571789 4.62888C0.366676 5.14166 0.616092 5.72363 1.12888 5.92874C5.38195 7.62997 8.32098 11.5735 8.7357 16.1354L9.00437 19.0908C9.04774 19.5679 9.42338 19.9472 9.90004 19.9952C10.3767 20.0432 10.8204 19.7465 10.9581 19.2876L11.2165 18.4261C11.9296 16.0492 13.5925 14.0722 15.8121 12.9624L15.9475 12.8947C16.4415 12.6477 16.6417 12.047 16.3947 11.5531C16.1477 11.0591 15.547 10.8588 15.0531 11.1058L14.9176 11.1736C13.1484 12.0582 11.6686 13.3936 10.6115 15.0213C9.83522 10.1102 6.53067 5.93539 1.87166 4.07179Z" fill="#080809" style="fill:#080809;fill:color(display-p3 0.0314 0.0314 0.0353);fill-opacity:1;"/>
<path d="M17.5005 10.0002C17.5005 8.34339 18.8436 7.00024 20.5005 7.00024C22.1573 7.00024 23.5005 8.34339 23.5005 10.0002C23.5005 11.6571 22.1573 13.0002 20.5005 13.0002C18.8436 13.0002 17.5005 11.6571 17.5005 10.0002Z" fill="#080809" style="fill:#080809;fill:color(display-p3 0.0314 0.0314 0.0353);fill-opacity:1;"/>
</svg>
