<svg width="24" height="24" viewBox="0 0 24 24" fill="none" xmlns="http://www.w3.org/2000/svg">
<path fill-rule="evenodd" clip-rule="evenodd" d="M0.5 12C0.5 5.64873 5.64873 0.5 12 0.5C18.3513 0.5 23.5 5.64873 23.5 12C23.5 18.3513 18.3513 23.5 12 23.5C5.64873 23.5 0.5 18.3513 0.5 12ZM10.3432 6.75414C10.87 6.58832 11.1627 6.02684 10.9969 5.50004C10.831 4.97323 10.2696 4.68059 9.74276 4.84641C8.62751 5.19744 7.57846 5.81509 6.69682 6.69674C5.81517 7.57838 5.19753 8.62742 4.84649 9.74268C4.68068 10.2695 4.97332 10.831 5.50012 10.9968C6.02693 11.1626 6.58841 10.87 6.75422 10.3432C7.01092 9.5276 7.46232 8.75966 8.11103 8.11095C8.75974 7.46224 9.52768 7.01084 10.3432 6.75414ZM19.1537 14.2574C19.3196 13.7306 19.0269 13.1691 18.5001 13.0033C17.9733 12.8375 17.4118 13.1301 17.246 13.6569C16.9893 14.4725 16.5379 15.2404 15.8892 15.8891C15.2405 16.5378 14.4726 16.9892 13.657 17.2459C13.1302 17.4118 12.8376 17.9732 13.0034 18.5C13.1692 19.0268 13.7307 19.3195 14.2575 19.1537C15.3727 18.8026 16.4218 18.185 17.3034 17.3033C18.1851 16.4217 18.8027 15.3727 19.1537 14.2574ZM12 9C10.3431 9 9 10.3431 9 12C9 13.6569 10.3431 15 12 15C13.6569 15 15 13.6569 15 12C15 10.3431 13.6569 9 12 9Z" fill="#080809" style="fill:#080809;fill:color(display-p3 0.0314 0.0314 0.0353);fill-opacity:1;"/>
</svg>
