<svg width="24" height="24" viewBox="0 0 24 24" fill="none" xmlns="http://www.w3.org/2000/svg">
<path fill-rule="evenodd" clip-rule="evenodd" d="M12 7C8.82436 7 6.25 9.57436 6.25 12.75C6.25 15.9256 8.82436 18.5 12 18.5C15.1756 18.5 17.75 15.9256 17.75 12.75C17.75 9.57436 15.1756 7 12 7ZM8.25 12.75C8.25 10.6789 9.92893 9 12 9C14.0711 9 15.75 10.6789 15.75 12.75C15.75 14.8211 14.0711 16.5 12 16.5C9.92893 16.5 8.25 14.8211 8.25 12.75Z" fill="#080809" style="fill:#080809;fill:color(display-p3 0.0314 0.0314 0.0353);fill-opacity:1;"/>
<path fill-rule="evenodd" clip-rule="evenodd" d="M10.6569 2.00004L10.518 1.99989C9.83923 1.99885 9.23679 1.99793 8.68038 2.2284C8.12397 2.45887 7.69864 2.88551 7.21938 3.36624L7.12132 3.4645L6.58579 4.00004C5.62887 4.00002 4.83883 4.00021 4.19922 4.0623C3.53109 4.12715 2.92234 4.26686 2.37013 4.61424C1.86266 4.93347 1.43343 5.36269 1.1142 5.87016C0.766829 6.42238 0.627118 7.03112 0.562263 7.69925C0.499971 8.34097 0.499985 9.1341 0.500001 10.0953V15.0706C0.499967 16.4247 0.499939 17.5413 0.618756 18.4251C0.743499 19.3529 1.01547 20.1724 1.67158 20.8285C2.32769 21.4846 3.14711 21.7565 4.07494 21.8813C4.9587 22.0001 6.07531 22.0001 7.42944 22H16.5705C17.9247 22.0001 19.0413 22.0001 19.9251 21.8813C20.8529 21.7565 21.6723 21.4846 22.3284 20.8285C22.9845 20.1724 23.2565 19.3529 23.3813 18.4251C23.5001 17.5413 23.5 16.4247 23.5 15.0706V10.0953C23.5 9.13413 23.5 8.34098 23.4377 7.69925C23.3729 7.03112 23.2332 6.42238 22.8858 5.87016C22.5666 5.36269 22.1374 4.93347 21.6299 4.61424C21.0777 4.26686 20.4689 4.12715 19.8008 4.0623C19.1612 4.00021 18.3711 4.00002 17.4142 4.00004L16.8787 3.4645L16.7806 3.36624C16.3014 2.88551 15.876 2.45887 15.3196 2.2284C14.7632 1.99793 14.1608 1.99885 13.482 1.99989L13.3431 2.00004H10.6569ZM17.3267 6.0002L17.3552 6.00004C18.3783 6.00004 19.0739 6.00114 19.6076 6.05294C20.1258 6.10325 20.3849 6.19386 20.5649 6.30714C20.8187 6.46675 21.0333 6.68136 21.1929 6.9351C21.3062 7.11517 21.3968 7.37423 21.4471 7.89248C21.4989 8.42615 21.5 9.12175 21.5 10.1449V15C21.5 16.4425 21.4979 17.4238 21.3991 18.1586C21.3042 18.8647 21.1368 19.1917 20.9142 19.4142C20.6916 19.6368 20.3646 19.8042 19.6586 19.8991C18.9238 19.9979 17.9425 20 16.5 20H7.5C6.05752 20 5.07626 19.9979 4.34144 19.8991C3.63538 19.8042 3.30836 19.6368 3.08579 19.4142C2.86322 19.1917 2.69585 18.8647 2.60092 18.1586C2.50213 17.4238 2.5 16.4425 2.5 15V10.1449C2.5 9.12175 2.5011 8.42615 2.55291 7.89248C2.60321 7.37423 2.69383 7.11517 2.8071 6.9351C2.96672 6.68136 3.18133 6.46675 3.43507 6.30714C3.61514 6.19386 3.87419 6.10325 4.39245 6.05294C4.92612 6.00114 5.62172 6.00004 6.64483 6.00004L6.6733 6.0002C6.77799 6.00106 6.9951 6.00285 7.20852 5.9413C7.31619 5.91026 7.42005 5.86724 7.51814 5.81306C7.71256 5.70567 7.86482 5.55089 7.93824 5.47625L7.95826 5.456L8.53554 4.87872C9.17129 4.24296 9.30471 4.13458 9.44575 4.07616C9.58679 4.01774 9.75776 4.00004 10.6569 4.00004H13.3431C14.2422 4.00004 14.4132 4.01774 14.5543 4.07616C14.6953 4.13458 14.8287 4.24296 15.4645 4.87872L16.0417 5.456L16.0618 5.47625C16.1352 5.55089 16.2874 5.70567 16.4819 5.81306C16.58 5.86724 16.6838 5.91026 16.7915 5.9413C17.0049 6.00285 17.222 6.00106 17.3267 6.0002Z" fill="#080809" style="fill:#080809;fill:color(display-p3 0.0314 0.0314 0.0353);fill-opacity:1;"/>
</svg>
