<svg width="24" height="24" viewBox="0 0 24 24" fill="none" xmlns="http://www.w3.org/2000/svg">
<path fill-rule="evenodd" clip-rule="evenodd" d="M4.509 2.49512C0.939724 2.49512 -0.842373 6.81538 1.68888 9.33183L6.04307 13.6605C6.29466 13.9107 6.47519 14.2232 6.56615 14.5661L8.14151 20.5048C9.05665 23.9547 13.6892 24.5696 15.4726 21.478L22.9627 8.49386C24.5011 5.8272 22.5765 2.49512 19.4979 2.49512H4.509ZM3.09894 7.91347C1.83332 6.65525 2.72436 4.49512 4.509 4.49512H19.4979C21.0372 4.49512 21.9995 6.16116 21.2303 7.49449L13.7402 20.4786C12.8485 22.0244 10.5322 21.7169 10.0747 19.992L8.49929 14.0533C8.49564 14.0395 8.49191 14.0258 8.48811 14.012L13.6492 11.0322C14.1275 10.7561 14.2914 10.1445 14.0152 9.66617C13.7391 9.18788 13.1275 9.02401 12.6492 9.30016L7.48974 12.2791C7.47762 12.2667 7.46542 12.2544 7.45313 12.2422L3.09894 7.91347Z" fill="#080809" style="fill:#080809;fill:color(display-p3 0.0314 0.0314 0.0353);fill-opacity:1;"/>
</svg>
