<svg width="24" height="24" viewBox="0 0 24 24" fill="none" xmlns="http://www.w3.org/2000/svg">
<path fill-rule="evenodd" clip-rule="evenodd" d="M20.5 1C21.8807 1 23 2.11929 23 3.5V4.5C23 5.88071 21.8807 7 20.5 7L3.5 7C2.11929 7 1 5.88071 1 4.5V3.5C1 2.11929 2.11929 1 3.5 1H20.5ZM21 3.5C21 3.22386 20.7761 3 20.5 3L3.5 3C3.22386 3 3 3.22386 3 3.5V4.5C3 4.77614 3.22386 5 3.5 5L20.5 5C20.7761 5 21 4.77614 21 4.5V3.5Z" fill="#080809" style="fill:#080809;fill:color(display-p3 0.0314 0.0314 0.0353);fill-opacity:1;"/>
<path fill-rule="evenodd" clip-rule="evenodd" d="M16.5 17C17.8807 17 19 18.1193 19 19.5V20.5C19 21.8807 17.8807 23 16.5 23H7.5C6.11929 23 5 21.8807 5 20.5L5 19.5C5 18.1193 6.11929 17 7.5 17L16.5 17ZM17 19.5C17 19.2239 16.7761 19 16.5 19H7.5C7.22386 19 7 19.2239 7 19.5V20.5C7 20.7761 7.22386 21 7.5 21H16.5C16.7761 21 17 20.7761 17 20.5V19.5Z" fill="#080809" style="fill:#080809;fill:color(display-p3 0.0314 0.0314 0.0353);fill-opacity:1;"/>
<path fill-rule="evenodd" clip-rule="evenodd" d="M21 11.5C21 10.1193 19.8807 9 18.5 9L5.5 9C4.11929 9 3 10.1193 3 11.5V12.5C3 13.8807 4.11929 15 5.5 15L18.5 15C19.8807 15 21 13.8807 21 12.5V11.5ZM18.5 11C18.7761 11 19 11.2239 19 11.5V12.5C19 12.7761 18.7761 13 18.5 13L5.5 13C5.22386 13 5 12.7761 5 12.5L5 11.5C5 11.2239 5.22386 11 5.5 11L18.5 11Z" fill="#080809" style="fill:#080809;fill:color(display-p3 0.0314 0.0314 0.0353);fill-opacity:1;"/>
</svg>
