<svg width="24" height="24" viewBox="0 0 24 24" fill="none" xmlns="http://www.w3.org/2000/svg">
<path fill-rule="evenodd" clip-rule="evenodd" d="M16.4235 4.52316C15.4651 2.83685 13.0349 2.83684 12.0765 4.52316L9.26474 9.47057L9.17663 9.31457C8.2194 7.61975 5.77833 7.61975 4.8211 9.31457L0.89292 16.2696C-0.0487675 17.9369 1.15583 20.0007 3.07068 20.0007H13.4989C13.5214 20.0007 13.5438 19.9999 13.5661 19.9984H20.9222C22.8391 19.9984 24.0429 17.9298 23.0957 16.2632L16.4235 4.52316ZM14.0813 17.9984H20.9222C21.3056 17.9984 21.5463 17.5847 21.3569 17.2514L14.6847 5.51137C14.493 5.17411 14.007 5.17411 13.8153 5.51137L10.4114 11.5007L14.0813 17.9984ZM9.25932 13.5278L11.7843 17.9984H6.71855L9.25932 13.5278ZM8.11269 11.4977L4.41683 18.0007H3.07068C2.68703 18.0007 2.44569 17.5872 2.63436 17.2531L6.56254 10.2981C6.75433 9.95857 7.24341 9.95857 7.43519 10.2981L8.11269 11.4977Z" fill="#080809" style="fill:#080809;fill:color(display-p3 0.0314 0.0314 0.0353);fill-opacity:1;"/>
</svg>
