<svg width="24" height="24" viewBox="0 0 24 24" fill="none" xmlns="http://www.w3.org/2000/svg">
<path d="M15.7071 11.2929C16.0976 11.6834 16.0976 12.3166 15.7071 12.7071L13.4142 15L15.7071 17.2929C16.0976 17.6834 16.0976 18.3166 15.7071 18.7071C15.3166 19.0976 14.6834 19.0976 14.2929 18.7071L12 16.4142L9.70711 18.7071C9.31658 19.0976 8.68342 19.0976 8.29289 18.7071C7.90237 18.3166 7.90237 17.6834 8.29289 17.2929L10.5858 15L8.29289 12.7071C7.90237 12.3166 7.90237 11.6834 8.29289 11.2929C8.68342 10.9024 9.31658 10.9024 9.70711 11.2929L12 13.5858L14.2929 11.2929C14.6834 10.9024 15.3166 10.9024 15.7071 11.2929Z" fill="#080809" style="fill:#080809;fill:color(display-p3 0.0314 0.0314 0.0353);fill-opacity:1;"/>
<path fill-rule="evenodd" clip-rule="evenodd" d="M19.9713 4.51871C21.151 5.18813 21.9569 6.4398 21.9983 7.883C22.1125 7.96986 22.2226 8.06571 22.3284 8.17158C22.9845 8.82768 23.2565 9.64711 23.3813 10.5749C23.5001 11.4587 23.5 12.5753 23.5 13.9294V16.0705C23.5 17.4246 23.5001 18.5413 23.3813 19.4251C23.2565 20.3529 22.9845 21.1723 22.3284 21.8284C21.6723 22.4845 20.8529 22.7565 19.9251 22.8813C19.0413 23.0001 17.9247 23 16.5707 23H7.42943C6.07535 23 4.95868 23.0001 4.07494 22.8813C3.14711 22.7565 2.32769 22.4845 1.67158 21.8284C1.01547 21.1723 0.743501 20.3529 0.618758 19.4251C0.499943 18.5413 0.499969 17.4248 0.500001 16.0707V13.9294C0.499969 12.5754 0.499943 11.4587 0.618758 10.5749C0.743501 9.64711 1.01547 8.82768 1.67158 8.17158C1.77744 8.06572 1.88755 7.96986 2.00168 7.883C2.04314 6.4398 2.84904 5.18813 4.02866 4.51871C4.26637 2.5365 5.95375 1 8 1H16C18.0463 1 19.7336 2.5365 19.9713 4.51871ZM6.26757 4H17.7324C17.3866 3.4022 16.7403 3 16 3H8C7.25972 3 6.61338 3.4022 6.26757 4ZM7.42943 7C6.14476 6.99997 5.07386 6.99994 4.21276 7.10139C4.54186 6.44812 5.2186 6 6 6H18C18.7814 6 19.4581 6.44812 19.7873 7.10139C18.9261 6.99994 17.8552 6.99997 16.5706 7H7.42943ZM4.34144 9.10092C3.63538 9.19585 3.30836 9.36322 3.08579 9.58579C2.86322 9.80836 2.69585 10.1354 2.60092 10.8414C2.50213 11.5763 2.50001 12.5575 2.50001 14V16C2.50001 17.4425 2.50213 18.4238 2.60092 19.1586C2.69585 19.8646 2.86322 20.1916 3.08579 20.4142C3.30836 20.6368 3.63538 20.8042 4.34144 20.8991C5.07626 20.9979 6.05752 21 7.5 21H16.5C17.9425 21 18.9238 20.9979 19.6586 20.8991C20.3646 20.8042 20.6917 20.6368 20.9142 20.4142C21.1368 20.1916 21.3042 19.8646 21.3991 19.1586C21.4979 18.4238 21.5 17.4425 21.5 16V14C21.5 12.5575 21.4979 11.5763 21.3991 10.8414C21.3042 10.1354 21.1368 9.80836 20.9142 9.58579C20.6917 9.36322 20.3646 9.19585 19.6586 9.10092C18.9238 9.00213 17.9425 9 16.5 9H7.50001C6.05752 9 5.07626 9.00213 4.34144 9.10092Z" fill="#080809" style="fill:#080809;fill:color(display-p3 0.0314 0.0314 0.0353);fill-opacity:1;"/>
</svg>
