<svg width="24" height="24" viewBox="0 0 24 24" fill="none" xmlns="http://www.w3.org/2000/svg">
<path fill-rule="evenodd" clip-rule="evenodd" d="M12 0.5C12.6333 0.5 13.2525 0.565356 13.8506 0.69043C14.3911 0.803465 14.7379 1.3335 14.625 1.87402C14.512 2.41452 13.9819 2.76132 13.4414 2.64844C12.9772 2.55135 12.495 2.5 12 2.5C8.13401 2.5 5 5.63401 5 9.5C5 12.001 6.31114 14.1962 8.28809 15.4355L8.50391 15.585C8.99619 15.9591 9.39438 16.5093 9.52246 17.1924L9.67383 18H11V12.291C10.1159 11.9057 9.49707 11.026 9.49707 10C9.49707 8.61929 10.6164 7.5 11.9971 7.5C13.3778 7.5 14.4971 8.61929 14.4971 10C14.4971 11.0238 13.8811 11.9025 13 12.2891V18H14.3262L14.4775 17.1924L14.5098 17.0479C14.6873 16.3369 15.1597 15.7817 15.7119 15.4355L15.9883 15.2529C17.3481 14.3082 18.356 12.8949 18.7793 11.25C18.917 10.7153 19.4623 10.3937 19.9971 10.5312C20.5319 10.6689 20.8544 11.2142 20.7168 11.749C20.1712 13.869 18.8742 15.6842 17.1289 16.8965L16.7744 17.1309C16.6221 17.2263 16.5266 17.3425 16.4775 17.4531L16.4434 17.5605L15.7891 21.0527C15.5895 22.117 14.8423 22.9617 13.8721 23.3174C13.5488 23.436 13.2007 23.5 12.8398 23.5H11.1602C10.6527 23.5 10.1705 23.3729 9.74707 23.1465C9.56904 23.0513 9.40288 22.9368 9.24805 22.8086C9.11657 22.6997 8.99425 22.5802 8.88281 22.4502C8.60509 22.1263 8.39278 21.7421 8.27246 21.3145L8.21094 21.0527L7.55664 17.5605C7.53388 17.4394 7.45282 17.2983 7.29688 17.1797L7.22559 17.1309C4.68966 15.5412 3 12.7182 3 9.5C3 4.52944 7.02944 0.5 12 0.5ZM10.1768 20.6836L10.1973 20.7715C10.3019 21.1428 10.6113 21.4183 10.9863 21.4844C11.043 21.4943 11.101 21.5 11.1602 21.5H12.8398C13.3208 21.5 13.7345 21.1568 13.8232 20.6836L13.9512 20H10.0488L10.1768 20.6836Z" fill="#080809" style="fill:#080809;fill:color(display-p3 0.0314 0.0314 0.0353);fill-opacity:1;"/>
<path d="M18.5508 1.10449C18.9271 0.298571 20.0729 0.298592 20.4492 1.10449L20.6641 1.56445C21.0284 2.34477 21.6561 2.97173 22.4365 3.33594L22.8955 3.55078C23.7015 3.92708 23.7015 5.07291 22.8955 5.44922L22.4365 5.66406C21.656 6.02833 21.0283 6.656 20.6641 7.43652L20.4492 7.89551C20.0729 8.70149 18.9271 8.7015 18.5508 7.89551L18.3359 7.43652C17.9717 6.65615 17.3448 6.02836 16.5645 5.66406L16.1045 5.44922C15.2986 5.07289 15.2986 3.92709 16.1045 3.55078L16.5645 3.33594C17.3446 2.97171 17.9717 2.34461 18.3359 1.56445L18.5508 1.10449Z" fill="#080809" style="fill:#080809;fill:color(display-p3 0.0314 0.0314 0.0353);fill-opacity:1;"/>
</svg>
