<svg width="24" height="24" viewBox="0 0 24 24" fill="none" xmlns="http://www.w3.org/2000/svg">
<path d="M19.5 1.5C17.2909 1.5 15.5 3.29086 15.5 5.5C15.5 7.70914 17.2909 9.5 19.5 9.5C21.7091 9.5 23.5 7.70914 23.5 5.5C23.5 3.29086 21.7091 1.5 19.5 1.5Z" fill="#080809" style="fill:#080809;fill:color(display-p3 0.0314 0.0314 0.0353);fill-opacity:1;"/>
<path d="M9.42684 3H13.1739C13.4796 3 13.7685 3.13979 13.9581 3.37947C14.1478 3.61916 14.2174 3.93243 14.1472 4.22989C14.0511 4.63663 14 5.0617 14 5.5C14 7.25998 14.8267 8.82688 16.1129 9.8336L14.9064 10.6954C14.0457 11.3103 13.4673 11.7217 12.9871 11.9885C12.5293 12.2429 12.2492 12.3137 12 12.3137C11.7508 12.3137 11.4707 12.2429 11.0129 11.9885C10.5328 11.7216 9.95432 11.3103 9.09364 10.6954L5.58136 8.18637C5.13196 7.86534 4.50741 7.9694 4.18638 8.4188C3.86534 8.86819 3.9694 9.49275 4.4188 9.81378L7.97679 12.3555C8.7799 12.9292 9.45033 13.4082 10.0414 13.7367C10.666 14.0838 11.2877 14.3137 12 14.3137C12.7123 14.3137 13.334 14.0838 13.9586 13.7367C14.5497 13.4082 15.2201 12.9293 16.0232 12.3555L18.1533 10.8339C18.5842 10.9424 19.0354 11 19.5 11C20.4173 11 21.2794 10.7762 22.0375 10.3812C22.3473 10.2197 22.7188 10.2316 23.0176 10.4126C23.3164 10.5935 23.4991 10.9172 23.4996 11.2665C23.5 11.5032 23.5 11.7478 23.5 12V12.0731C23.5 13.8966 23.5001 15.3664 23.3446 16.5223C23.1833 17.7225 22.8381 18.733 22.0355 19.5355C21.233 20.3381 20.2225 20.6833 19.0223 20.8446C17.8664 21.0001 16.3966 21 14.5731 21H9.42687C7.6034 21 6.13363 21.0001 4.97767 20.8446C3.77752 20.6833 2.76703 20.3381 1.96447 19.5355C1.16191 18.733 0.816722 17.7225 0.655367 16.5223C0.499955 15.3664 0.499975 13.8966 0.500001 12.0732V11.9268C0.499975 10.1034 0.499955 8.63361 0.655367 7.47767C0.816722 6.27752 1.16191 5.26702 1.96447 4.46447C2.76703 3.66191 3.77752 3.31672 4.97767 3.15537C6.13362 2.99995 7.6034 2.99997 9.42684 3Z" fill="#080809" style="fill:#080809;fill:color(display-p3 0.0314 0.0314 0.0353);fill-opacity:1;"/>
</svg>
