<svg width="24" height="24" viewBox="0 0 24 24" fill="none" xmlns="http://www.w3.org/2000/svg">
<g clip-path="url(#clip0_29901_28316)">
<path d="M15.3719 13.2471C15.6419 13.3471 17.0914 14.0524 17.3863 14.1975C17.443 14.2253 17.4961 14.2506 17.5456 14.2742C17.7534 14.373 17.8955 14.4406 17.9561 14.5376C18.0311 14.6576 18.0311 15.2429 17.7862 15.9232C17.5362 16.6034 16.3566 17.2237 15.7918 17.3087C15.282 17.3838 14.6372 17.4138 13.9324 17.1937C13.5026 17.0586 12.9527 16.8786 12.248 16.5784C9.4922 15.4065 7.63081 12.7774 7.26232 12.257C7.23447 12.2176 7.21514 12.1903 7.20461 12.1766C7.20121 12.1721 7.1973 12.1668 7.19292 12.161C7.01053 11.9165 6 10.5623 6 9.1604C6 7.8164 6.67029 7.11249 6.97729 6.79008C6.99821 6.76811 7.01744 6.74792 7.03466 6.72941C7.30457 6.43929 7.62447 6.36426 7.81941 6.36426C8.01434 6.36426 8.21428 6.36426 8.38922 6.37926C8.41104 6.38048 8.43381 6.38037 8.45742 6.38025C8.62848 6.37942 8.84317 6.37838 9.054 6.87947C9.12177 7.04141 9.21595 7.26845 9.31832 7.51524C9.58591 8.16036 9.90948 8.94043 9.96371 9.04535C10.0387 9.19041 10.0887 9.36048 9.9887 9.55556C9.97056 9.59097 9.95422 9.6239 9.93875 9.65511C9.86895 9.79586 9.81653 9.90156 9.6938 10.0408C9.63996 10.1018 9.58484 10.168 9.53006 10.2338C9.43223 10.3514 9.33545 10.4676 9.24894 10.551C9.09899 10.696 8.94904 10.8561 9.11898 11.1462C9.28893 11.4363 9.87874 12.3917 10.7584 13.167C11.7063 13.9981 12.5274 14.3501 12.9414 14.5276C13.0208 14.5617 13.0852 14.5893 13.1327 14.6126C13.4276 14.7577 13.6025 14.7327 13.7725 14.5376C13.9424 14.3425 14.5122 13.6822 14.7072 13.3921C14.9071 13.102 15.102 13.152 15.3719 13.2471Z" fill="#080809" style="fill:#080809;fill:color(display-p3 0.0314 0.0314 0.0353);fill-opacity:1;"/>
<path fill-rule="evenodd" clip-rule="evenodd" d="M12 0.5C5.64873 0.5 0.5 5.64873 0.5 12C0.5 13.9218 0.972204 15.7363 1.80777 17.3308C1.89499 17.4973 1.908 17.6559 1.87673 17.7765L0.995321 21.1762C0.708248 22.2835 1.71647 23.2918 2.82376 23.0047L6.22347 22.1233C6.34411 22.092 6.50272 22.105 6.66917 22.1922C8.26373 23.0278 10.0782 23.5 12 23.5C18.3513 23.5 23.5 18.3513 23.5 12C23.5 5.64873 18.3513 0.5 12 0.5ZM2.5 12C2.5 6.75329 6.75329 2.5 12 2.5C17.2467 2.5 21.5 6.75329 21.5 12C21.5 17.2467 17.2467 21.5 12 21.5C10.4092 21.5 8.91247 21.1098 7.59747 20.4207C7.04889 20.1333 6.38232 20.016 5.72155 20.1873L3.14463 20.8554L3.81272 18.2785C3.98403 17.6177 3.86675 16.9511 3.57929 16.4025C2.89021 15.0875 2.5 13.5908 2.5 12Z" fill="#080809" style="fill:#080809;fill:color(display-p3 0.0314 0.0314 0.0353);fill-opacity:1;"/>
</g>
<defs>
<clipPath id="clip0_29901_28316">
<rect width="24" height="24" fill="white" style="fill:white;fill-opacity:1;"/>
</clipPath>
</defs>
</svg>
