<svg width="24" height="24" viewBox="0 0 24 24" fill="none" xmlns="http://www.w3.org/2000/svg">
<path fill-rule="evenodd" clip-rule="evenodd" d="M11.6367 2.56837C11.909 2.46217 12.217 2.47964 12.4775 2.62111C13.6925 3.28129 14.8268 4.72053 15.6641 6.33693C16.1917 7.35566 16.6324 8.51057 16.917 9.70607C18.5545 8.92541 20.4404 8.50009 22.499 8.50001C23.0513 8.50001 23.499 8.94774 23.499 9.50001V10C23.499 16.168 18.6437 21.2015 12.5459 21.4873C12.5426 21.4875 12.5394 21.4872 12.5361 21.4873C12.5319 21.4875 12.5277 21.4882 12.5234 21.4883C12.3491 21.4924 12.1744 21.5 12 21.5C5.64873 21.5 0.5 16.3513 0.5 10V9.50001C0.500009 8.94774 0.94772 8.50001 1.5 8.50001C3.552 8.50001 5.43855 8.92278 7.08203 9.70509C7.36674 8.50986 7.80837 7.35547 8.33594 6.33693C9.17321 4.72052 10.3075 3.28134 11.5225 2.62111L11.6367 2.56837ZM2.5166 10.542C2.78745 15.3567 6.64243 19.2111 11.457 19.4824C11.4193 19.0168 11.3547 18.5658 11.2666 18.1299C11.2626 18.1103 11.2589 18.0908 11.2549 18.0713C10.8533 16.1373 9.9695 14.5074 8.72754 13.2666C7.19576 11.7364 5.07239 10.749 2.5166 10.542ZM21.4814 10.542C17.2942 10.882 14.2291 13.3251 13.043 16.9502C13.0455 16.9596 13.0473 16.9692 13.0498 16.9785C13.1492 17.3515 13.2331 17.733 13.2998 18.1231C13.3017 18.1341 13.3038 18.1452 13.3057 18.1563C13.3381 18.3487 13.3663 18.543 13.3906 18.7393C13.3937 18.7643 13.3955 18.7894 13.3984 18.8145C13.4192 18.9898 13.437 19.1665 13.4512 19.3447C13.4523 19.3588 13.455 19.3727 13.4561 19.3867C17.8363 18.7127 21.2279 15.0479 21.4814 10.542ZM12 4.7129C11.3962 5.22068 10.7114 6.09829 10.1113 7.25685C9.5552 8.33061 9.11642 9.55924 8.89551 10.7852C9.33701 11.1095 9.75341 11.4648 10.1406 11.8516C10.8746 12.5848 11.4955 13.4219 12 14.3428C12.7753 12.928 13.8273 11.7285 15.1016 10.791C14.8816 9.56327 14.4456 8.33218 13.8887 7.25685C13.2885 6.09832 12.6038 5.22065 12 4.7129Z" fill="#080809" style="fill:#080809;fill:color(display-p3 0.0314 0.0314 0.0353);fill-opacity:1;"/>
</svg>
