<svg width="24" height="24" viewBox="0 0 24 24" fill="none" xmlns="http://www.w3.org/2000/svg">
<path fill-rule="evenodd" clip-rule="evenodd" d="M19.6367 2.5C21.7034 2.50025 23.3913 4.12314 23.4951 6.16406L23.5 6.36328V7C23.5 10.1834 21.8471 12.9785 19.3555 14.5781C20.3758 15.7015 20.9999 17.1938 21 18.833C21 20.8581 19.3581 22.5 17.333 22.5L17.0068 22.4922C14.9031 22.3854 13.0711 21.2511 12 19.582C10.9289 21.2511 9.09691 22.3854 6.99316 22.4922L6.66699 22.5C4.64195 22.5 3 20.8581 3 18.833C3.0001 17.1938 3.62416 15.7015 4.64453 14.5781C2.15292 12.9785 0.5 10.1834 0.5 7V6.36328L0.504883 6.16406C0.608727 4.12314 2.2966 2.50025 4.36328 2.5C7.67556 2.5 10.5511 4.36557 12 7.10254C13.4489 4.36557 16.3244 2.5 19.6367 2.5ZM4.36328 4.5C3.33431 4.50019 2.50019 5.33431 2.5 6.36328V7C2.5 9.90333 4.26807 12.3959 6.79004 13.4561C7.13014 13.5991 7.36422 13.9178 7.39844 14.2852C7.4325 14.6526 7.26118 15.0097 6.95312 15.2129C5.77472 15.9897 5.00011 17.321 5 18.833C5 19.7535 5.74652 20.5 6.66699 20.5L6.88965 20.4941C9.10539 20.3818 10.8818 18.6054 10.9941 16.3896L11 16.167V11.1367C11 7.47156 8.02844 4.5 4.36328 4.5ZM19.6367 4.5C15.9716 4.5 13 7.47156 13 11.1367V16.167L13.0059 16.3896C13.1182 18.6054 14.8946 20.3818 17.1104 20.4941L17.333 20.5C18.2535 20.5 19 19.7535 19 18.833C18.9999 17.321 18.2253 15.9897 17.0469 15.2129C16.7388 15.0097 16.5675 14.6526 16.6016 14.2852C16.6358 13.9178 16.8699 13.5991 17.21 13.4561C19.7319 12.3959 21.5 9.90333 21.5 7V6.36328C21.4998 5.33431 20.6657 4.50019 19.6367 4.5Z" fill="#080809" style="fill:#080809;fill:color(display-p3 0.0314 0.0314 0.0353);fill-opacity:1;"/>
</svg>
