<svg width="24" height="24" viewBox="0 0 24 24" fill="none" xmlns="http://www.w3.org/2000/svg">
<path d="M20.5255 20.435C21.4913 20.9926 22.7264 20.6617 23.284 19.6958C23.8416 18.7299 23.5106 17.495 22.5448 16.9374L15.5582 12.9036L11.5195 15.2354L20.5255 20.435Z" fill="#080809" style="fill:#080809;fill:color(display-p3 0.0314 0.0314 0.0353);fill-opacity:1;"/>
<path fill-rule="evenodd" clip-rule="evenodd" d="M22.5448 7.14235L15.1948 11.3859C15.1717 11.3963 15.1488 11.4079 15.1263 11.4209L10.048 14.3529C10.0255 14.3659 10.004 14.3798 9.98339 14.3947L9.79224 14.5051C9.55309 14.6431 9.47116 14.9489 9.60923 15.1881L9.83487 15.5789C11.2156 17.9704 10.3962 21.0283 8.00474 22.409C5.61328 23.7897 2.55533 22.9704 1.17461 20.5789C-0.206098 18.1874 0.613278 15.1295 3.00474 13.7488L5.96464 12.0399L3.00474 10.331C0.613278 8.95025 -0.206098 5.8923 1.17461 3.50083C2.55533 1.10937 5.61328 0.289996 8.00474 1.67071C10.3962 3.05142 11.2156 6.10937 9.83487 8.50083L9.60923 8.89165C9.47116 9.1308 9.55309 9.4366 9.79224 9.57467L10.0234 9.70811L20.5255 3.64472C21.4913 3.08707 22.7264 3.41804 23.284 4.38395C23.8416 5.34979 23.5106 6.58474 22.5448 7.14235ZM4.20512 5.24975C4.61933 4.53231 5.53672 4.2865 6.25416 4.70071C6.9716 5.11492 7.21741 6.03231 6.80319 6.74975C6.38898 7.46719 5.4716 7.713 4.75416 7.29879C4.03672 6.88457 3.7909 5.96719 4.20512 5.24975ZM4.20512 18.762C4.61933 19.4794 5.53672 19.7252 6.25416 19.311C6.9716 18.8968 7.21741 17.9794 6.80319 17.262C6.38898 16.5445 5.4716 16.2987 4.75416 16.7129C4.03672 17.1271 3.7909 18.0445 4.20512 18.762Z" fill="#080809" style="fill:#080809;fill:color(display-p3 0.0314 0.0314 0.0353);fill-opacity:1;"/>
</svg>
