<svg width="24" height="24" viewBox="0 0 24 24" fill="none" xmlns="http://www.w3.org/2000/svg">
<path fill-rule="evenodd" clip-rule="evenodd" d="M18 20C18 20.5523 18.4477 21 19 21C19.5523 21 20 20.5523 20 20V4C20 3.44772 19.5523 3 19 3C18.4477 3 18 3.44772 18 4V9.69061L7.75 3.77277C6.08334 2.81052 4 4.01333 4 5.93783V18.0622C4 19.9867 6.08333 21.1895 7.75 20.2273L18 14.3094V20ZM17.25 12.433C17.5833 12.2406 17.5833 11.7594 17.25 11.567L6.75 5.50482C6.41667 5.31237 6 5.55293 6 5.93783L6 18.0622C6 18.4471 6.41667 18.6877 6.75 18.4952L17.25 12.433Z" fill="#080809" style="fill:#080809;fill:color(display-p3 0.0314 0.0314 0.0353);fill-opacity:1;"/>
</svg>
