<svg width="24" height="24" viewBox="0 0 24 24" fill="none" xmlns="http://www.w3.org/2000/svg">
<path fill-rule="evenodd" clip-rule="evenodd" d="M2.10139 8.11136C4.24769 5.96288 7.72806 5.96288 9.87436 8.11136L11.9958 10.235L14.1173 8.11136C16.2636 5.96288 19.744 5.96288 21.8903 8.11136C24.0359 10.2591 24.0359 13.7409 21.8903 15.8886C19.744 18.0371 16.2636 18.0371 14.1173 15.8886L11.9958 13.765L9.87436 15.8886C7.72806 18.0371 4.24769 18.0371 2.10139 15.8886C-0.0442133 13.7409 -0.0442133 10.2591 2.10139 8.11136ZM8.1057 9.87823C6.93591 8.70726 5.03984 8.70726 3.87005 9.87823C2.69957 11.0499 2.69957 12.9501 3.87005 14.1218C5.03984 15.2927 6.93591 15.2927 8.1057 14.1218L10.2253 12L8.1057 9.87823ZM15.886 9.87823C17.0558 8.70726 18.9519 8.70726 20.1216 9.87823C21.2921 11.0499 21.2921 12.9501 20.1216 14.1218C18.9519 15.2927 17.0558 15.2927 15.886 14.1218L13.7664 12L15.886 9.87823Z" fill="#080809" style="fill:#080809;fill:color(display-p3 0.0314 0.0314 0.0353);fill-opacity:1;"/>
</svg>
