<svg width="24" height="24" viewBox="0 0 24 24" fill="none" xmlns="http://www.w3.org/2000/svg">
<path d="M10.3137 9.16065C9.59548 7.62174 7.40721 7.62175 6.689 9.16065L6.3031 9.98752C5.62186 11.4472 4.44855 12.6205 2.98886 13.3018L2.16199 13.6877C0.623084 14.4059 0.623089 16.5941 2.16199 17.3123L2.98886 17.6982C4.44855 18.3795 5.62186 19.5528 6.3031 21.0125L6.689 21.8394C7.40721 23.3783 9.59548 23.3783 10.3137 21.8394L10.6996 21.0125C11.3808 19.5528 12.5541 18.3795 14.0138 17.6982L14.8407 17.3123C16.3796 16.5941 16.3796 14.4059 14.8407 13.6877L14.0138 13.3018C12.5541 12.6205 11.3808 11.4472 10.6996 9.98752L10.3137 9.16065Z" fill="#080809" style="fill:#080809;fill:color(display-p3 0.0314 0.0314 0.0353);fill-opacity:1;"/>
<path d="M12.002 1C10.3451 1 9.00195 2.34315 9.00195 4C9.00195 5.65685 10.3451 7 12.002 7C13.6588 7 15.002 5.65685 15.002 4C15.002 2.34315 13.6588 1 12.002 1Z" fill="#080809" style="fill:#080809;fill:color(display-p3 0.0314 0.0314 0.0353);fill-opacity:1;"/>
<path d="M20.9417 13.0532C22.4288 13.4517 23.7896 12.0908 23.3911 10.6037L22.0463 5.5846C21.6478 4.09745 19.7889 3.59936 18.7002 4.68802L15.026 8.36226C13.9373 9.45092 14.4354 11.3098 15.9226 11.7083L20.9417 13.0532Z" fill="#080809" style="fill:#080809;fill:color(display-p3 0.0314 0.0314 0.0353);fill-opacity:1;"/>
</svg>
