<svg width="24" height="24" viewBox="0 0 24 24" fill="none" xmlns="http://www.w3.org/2000/svg">
<g clip-path="url(#clip0_29901_27889)">
<path d="M9.5 0.5C4.52944 0.5 0.5 4.52944 0.5 9.5C0.5 10.675 0.725688 11.7997 1.137 12.8315C1.29016 13.2156 1.39204 13.4719 1.4589 13.6646C1.50945 13.8104 1.52264 13.8733 1.52565 13.8876L1.52597 13.8891C1.52521 13.9036 1.52083 13.9471 1.49734 14.0445C1.46381 14.1836 1.40912 14.3646 1.3189 14.661L0.816546 16.3111C0.467046 17.4591 1.54014 18.5323 2.68819 18.183L4.3387 17.6807C4.63501 17.5906 4.81602 17.5359 4.95511 17.5024C5.05251 17.4789 5.09604 17.4745 5.11048 17.4738L5.11199 17.4741C5.12631 17.4771 5.1892 17.4903 5.33492 17.5409C5.52767 17.6077 5.78388 17.7096 6.16799 17.8628C7.19986 18.2742 8.32478 18.5 9.5 18.5C14.4706 18.5 18.5 14.4706 18.5 9.5C18.5 4.52944 14.4706 0.5 9.5 0.5Z" fill="#080809" style="fill:#080809;fill:color(display-p3 0.0314 0.0314 0.0353);fill-opacity:1;"/>
<path d="M21.8117 9.25155C21.4893 8.80313 20.8645 8.70095 20.416 9.02333C19.9676 9.34571 19.8654 9.97058 20.1878 10.419C21.0136 11.5677 21.4998 12.9756 21.4998 14.5C21.4998 15.4172 21.3239 16.2908 21.005 17.0908L20.9961 17.1129C20.8541 17.4692 20.7349 17.7682 20.6513 18.0093C20.5699 18.244 20.4873 18.5176 20.4754 18.7998C20.4573 19.2318 20.5942 19.678 20.7328 20.1298L20.7676 20.2435L20.9969 20.9967L20.2433 20.7673L20.1297 20.7326C19.6779 20.5941 19.2317 20.4573 18.7997 20.4754C18.5176 20.4873 18.244 20.5699 18.0094 20.6513C17.7683 20.735 17.4693 20.8542 17.1131 20.9962L17.091 21.005C16.2909 21.3241 15.4171 21.5 14.4998 21.5C12.9754 21.5 11.5675 21.0139 10.4188 20.1881C9.97034 19.8657 9.34547 19.9678 9.02309 20.4163C8.7007 20.8647 8.80288 21.4896 9.25131 21.812C10.7289 22.8742 12.5427 23.5 14.4998 23.5C15.675 23.5 16.7999 23.2742 17.8318 22.8628C18.2159 22.7096 18.4721 22.6077 18.6648 22.5409C18.8106 22.4903 18.8735 22.4771 18.8878 22.4741L18.8893 22.4738C18.9037 22.4745 18.9473 22.4789 19.0446 22.5024C19.1837 22.5359 19.3647 22.5906 19.6611 22.6807L21.3116 23.183C22.4596 23.5323 23.5327 22.4591 23.1832 21.3111L22.6809 19.661C22.5906 19.3646 22.536 19.1836 22.5024 19.0445C22.4789 18.9471 22.4746 18.9036 22.4738 18.8891L22.4741 18.8876C22.4771 18.8733 22.4903 18.8104 22.5409 18.6646C22.6077 18.4719 22.7096 18.2156 22.8628 17.8315C23.2741 16.7997 23.4998 15.675 23.4998 14.5C23.4998 12.543 22.874 10.7291 21.8117 9.25155Z" fill="#080809" style="fill:#080809;fill:color(display-p3 0.0314 0.0314 0.0353);fill-opacity:1;"/>
</g>
<defs>
<clipPath id="clip0_29901_27889">
<rect width="24" height="24" fill="white" style="fill:white;fill-opacity:1;"/>
</clipPath>
</defs>
</svg>
