<svg width="24" height="24" viewBox="0 0 24 24" fill="none" xmlns="http://www.w3.org/2000/svg">
<path fill-rule="evenodd" clip-rule="evenodd" d="M10.9294 0.500001H13.0706C14.4247 0.499968 15.5413 0.499941 16.4251 0.618757C17.3529 0.7435 18.1723 1.01547 18.8284 1.67158C19.4845 2.32769 19.7565 3.14711 19.8813 4.07494C20.0001 4.95868 20 6.07535 20 7.42943V16.5707C20 17.9247 20.0001 19.0413 19.8813 19.9251C19.7565 20.8529 19.4845 21.6723 18.8284 22.3284C18.1723 22.9845 17.3529 23.2565 16.4251 23.3813C15.5413 23.5001 14.4247 23.5 13.0706 23.5H10.9294C9.57535 23.5 8.45869 23.5001 7.57494 23.3813C6.64711 23.2565 5.82769 22.9845 5.17158 22.3284C4.51547 21.6723 4.2435 20.8529 4.11876 19.9251C3.99994 19.0413 3.99997 17.9247 4 16.5706V7.4294C3.99997 6.07531 3.99994 4.95868 4.11876 4.07494C4.2435 3.14711 4.51547 2.32769 5.17158 1.67158C5.82769 1.01547 6.64711 0.7435 7.57494 0.618757C8.45868 0.499941 9.57535 0.499968 10.9294 0.500001ZM11 18C10.4477 18 10 18.4477 10 19C10 19.5523 10.4477 20 11 20H13C13.5523 20 14 19.5523 14 19C14 18.4477 13.5523 18 13 18H11ZM8.29289 10.7929C8.68342 10.4024 9.31658 10.4024 9.70711 10.7929L11 12.0858V8C11 7.44772 11.4477 7 12 7C12.5523 7 13 7.44772 13 8V12.0858L14.2929 10.7929C14.6834 10.4024 15.3166 10.4024 15.7071 10.7929C16.0976 11.1834 16.0976 11.8166 15.7071 12.2071L13.4142 14.5C12.6332 15.2811 11.3668 15.281 10.5858 14.5L8.29289 12.2071C7.90237 11.8166 7.90237 11.1834 8.29289 10.7929Z" fill="#080809" style="fill:#080809;fill:color(display-p3 0.0314 0.0314 0.0353);fill-opacity:1;"/>
</svg>
