<svg width="24" height="24" viewBox="0 0 24 24" fill="none" xmlns="http://www.w3.org/2000/svg">
<path d="M8 2.7897C8 1.52513 9.02513 0.5 10.2897 0.5C11.4979 0.5 12.4983 1.43883 12.5748 2.64465L12.9532 8.6057L17.5904 9.91958C19.3118 10.4073 20.5 11.9789 20.5 13.7681V16C20.5 16.0256 20.499 16.0512 20.4971 16.0767C20.1748 20.2655 16.682 23.5 12.4808 23.5H11.2515C7.98972 23.5 5.11411 21.3605 4.17684 18.2362C4.05957 17.8454 4 17.4394 4 17.0314V15.272C4 13.4658 4.97091 11.8238 6.5 10.9416L6.5 14.75C6.5 15.1642 6.83579 15.5 7.25 15.5C7.66421 15.5 8 15.1642 8 14.75V2.7897Z" fill="#080809" style="fill:#080809;fill:color(display-p3 0.0314 0.0314 0.0353);fill-opacity:1;"/>
</svg>
