<svg width="24" height="24" viewBox="0 0 24 24" fill="none" xmlns="http://www.w3.org/2000/svg">
<g clip-path="url(#clip0_29901_26290)">
<path d="M14.0858 9.91471C14.8669 10.6958 16.1332 10.6958 16.9143 9.91471C17.6953 9.13366 17.6953 7.86733 16.9143 7.08628C16.1332 6.30524 14.8669 6.30524 14.0858 7.08628C13.3048 7.86733 13.3048 9.13366 14.0858 9.91471Z" fill="#080809" style="fill:#080809;fill:color(display-p3 0.0314 0.0314 0.0353);fill-opacity:1;"/>
<path fill-rule="evenodd" clip-rule="evenodd" d="M20.5867 0.696509C22.1622 0.502636 23.4977 1.83815 23.3039 3.41357C23.0193 5.72664 22.5807 7.78563 21.7132 9.66366C20.9781 11.2551 19.9505 12.6838 18.5005 14.0241V18.2578C18.5005 19.3187 18.0791 20.3362 17.3289 21.0863L15.768 22.6471C14.7917 23.6233 13.2088 23.6233 12.2326 22.647L1.35397 11.7684C0.37766 10.7921 0.377657 9.20917 1.35397 8.23286L2.91475 6.67208C3.6649 5.92193 4.68231 5.50051 5.74318 5.50051H9.97592C11.3164 4.0503 12.7451 3.02252 14.3368 2.28728C16.2148 1.41977 18.2738 0.981144 20.5867 0.696509ZM13.5075 18.2344C14.4462 17.4327 15.5296 16.5137 16.5005 15.7061V18.2578C16.5005 18.7883 16.2898 19.297 15.9147 19.6721L14.3539 21.2328C14.1586 21.428 13.842 21.428 13.6468 21.2328L11.9684 19.5544C12.3775 19.2022 12.9126 18.7425 13.5075 18.2344ZM5.76629 10.4933C5.25823 11.0882 4.79865 11.6234 4.44646 12.0325L2.76818 10.3542C2.57292 10.1589 2.57292 9.84234 2.76818 9.64708L4.32896 8.08629C4.70404 7.71122 5.21275 7.50051 5.74318 7.50051H8.29396C7.48651 8.47139 6.5678 9.5547 5.76629 10.4933ZM5.86461 13.4506L10.5503 18.1363C10.9729 17.7721 11.5547 17.2721 12.2086 16.7136C13.5366 15.5793 15.1699 14.197 16.3702 13.2235C18.0733 11.8423 19.1618 10.4179 19.8976 8.82498C20.6403 7.21704 21.0455 5.39107 21.3189 3.16935C21.3538 2.88524 21.1151 2.64657 20.831 2.68153C18.6094 2.95493 16.7835 3.36018 15.1755 4.10293C13.5826 4.83876 12.1582 5.92719 10.777 7.63026C9.8035 8.83055 8.42134 10.464 7.28719 11.7921C6.72871 12.446 6.2287 13.0279 5.86461 13.4506Z" fill="#080809" style="fill:#080809;fill:color(display-p3 0.0314 0.0314 0.0353);fill-opacity:1;"/>
<path d="M3.20716 15.7936C3.59768 16.1842 3.59768 16.8173 3.20716 17.2079L2.20716 18.2079C1.81663 18.5984 1.18347 18.5984 0.792943 18.2079C0.402418 17.8173 0.402418 17.1842 0.792943 16.7936L1.79294 15.7936C2.18347 15.4031 2.81663 15.4031 3.20716 15.7936Z" fill="#080809" style="fill:#080809;fill:color(display-p3 0.0314 0.0314 0.0353);fill-opacity:1;"/>
<path d="M5.70711 19.7081C6.09763 19.3175 6.09763 18.6844 5.70711 18.2939C5.31658 17.9033 4.68342 17.9033 4.29289 18.2939L0.792893 21.7939C0.402369 22.1844 0.402369 22.8175 0.792893 23.2081C1.18342 23.5986 1.81658 23.5986 2.20711 23.2081L5.70711 19.7081Z" fill="#080809" style="fill:#080809;fill:color(display-p3 0.0314 0.0314 0.0353);fill-opacity:1;"/>
<path d="M8.2072 22.2081C8.59772 21.8176 8.59772 21.1845 8.2072 20.7939C7.81667 20.4034 7.18351 20.4034 6.79298 20.7939L5.79298 21.7939C5.40246 22.1845 5.40246 22.8176 5.79298 23.2081C6.18351 23.5987 6.81667 23.5987 7.2072 23.2081L8.2072 22.2081Z" fill="#080809" style="fill:#080809;fill:color(display-p3 0.0314 0.0314 0.0353);fill-opacity:1;"/>
</g>
<defs>
<clipPath id="clip0_29901_26290">
<rect width="24" height="24" fill="white" style="fill:white;fill-opacity:1;"/>
</clipPath>
</defs>
</svg>
