<svg width="24" height="24" viewBox="0 0 24 24" fill="none" xmlns="http://www.w3.org/2000/svg">
<path d="M10 10C10.5523 10 11 10.4477 11 11V12C11 12.5523 10.5523 13 10 13C9.44771 13 9 12.5523 9 12V11C9 10.4477 9.44771 10 10 10Z" fill="#080809" style="fill:#080809;fill:color(display-p3 0.0314 0.0314 0.0353);fill-opacity:1;"/>
<path d="M11 16C11 15.4477 10.5523 15 10 15C9.44771 15 9 15.4477 9 16V17C9 17.5523 9.44771 18 10 18C10.5523 18 11 17.5523 11 17V16Z" fill="#080809" style="fill:#080809;fill:color(display-p3 0.0314 0.0314 0.0353);fill-opacity:1;"/>
<path d="M14 10C14.5523 10 15 10.4477 15 11V12C15 12.5523 14.5523 13 14 13C13.4477 13 13 12.5523 13 12V11C13 10.4477 13.4477 10 14 10Z" fill="#080809" style="fill:#080809;fill:color(display-p3 0.0314 0.0314 0.0353);fill-opacity:1;"/>
<path d="M15 16C15 15.4477 14.5523 15 14 15C13.4477 15 13 15.4477 13 16V17C13 17.5523 13.4477 18 14 18C14.5523 18 15 17.5523 15 17V16Z" fill="#080809" style="fill:#080809;fill:color(display-p3 0.0314 0.0314 0.0353);fill-opacity:1;"/>
<path fill-rule="evenodd" clip-rule="evenodd" d="M11 1.5C11 0.947715 11.4477 0.5 12 0.5H14C14.5523 0.5 15 0.947715 15 1.5V2.5C15 3.05228 14.5523 3.5 14 3.5H13V5H16.5C17.8807 5 19 6.11929 19 7.5V11H20.5C21.8807 11 23 12.1193 23 13.5V20.5C23 21.8807 21.8807 23 20.5 23H3.5C2.11929 23 1 21.8807 1 20.5V13.5C1 12.1193 2.11929 11 3.5 11H5V7.5C5 6.11929 6.11929 5 7.5 5H11V1.5ZM5 13H3.5C3.22386 13 3 13.2239 3 13.5V20.5C3 20.7761 3.22386 21 3.5 21H5V13ZM19 21H20.5C20.7761 21 21 20.7761 21 20.5V13.5C21 13.2239 20.7761 13 20.5 13H19V21ZM7 7.5C7 7.22386 7.22386 7 7.5 7H16.5C16.7761 7 17 7.22386 17 7.5V21H7V7.5Z" fill="#080809" style="fill:#080809;fill:color(display-p3 0.0314 0.0314 0.0353);fill-opacity:1;"/>
</svg>
