<svg width="24" height="24" viewBox="0 0 24 24" fill="none" xmlns="http://www.w3.org/2000/svg">
<g clip-path="url(#clip0_29901_26801)">
<path d="M10 12C9.44772 12 9 12.4477 9 13V15C9 15.5523 8.55229 16 8 16C7.44772 16 7 15.5523 7 15V13C7 11.3431 8.34315 10 10 10H14.5858L13.2929 8.70711C12.9024 8.31658 12.9024 7.68342 13.2929 7.29289C13.6834 6.90237 14.3166 6.90237 14.7071 7.29289L16.6464 9.23223C17.6228 10.2085 17.6228 11.7915 16.6464 12.7678L14.7071 14.7071C14.3166 15.0976 13.6834 15.0976 13.2929 14.7071C12.9024 14.3166 12.9024 13.6834 13.2929 13.2929L14.5858 12H10Z" fill="#080809" style="fill:#080809;fill:color(display-p3 0.0314 0.0314 0.0353);fill-opacity:1;"/>
<path fill-rule="evenodd" clip-rule="evenodd" d="M11.2411 0.119505C11.7451 0.0552172 12.2553 0.0552172 12.7593 0.119505C13.8622 0.260174 14.8039 0.782712 15.7818 1.56147C16.7335 2.31929 17.8098 3.39557 19.1635 4.74926L19.2512 4.83695C20.6048 6.19058 21.6812 7.26691 22.439 8.2186C23.2177 9.19659 23.7403 10.1382 23.8809 11.2411C23.9452 11.7451 23.9452 12.2553 23.8809 12.7593C23.7403 13.8622 23.2177 14.8039 22.439 15.7818C21.6812 16.7335 20.6049 17.8098 19.2512 19.1635L19.1635 19.2512C17.8098 20.6048 16.7335 21.6812 15.7818 22.439C14.8039 23.2177 13.8622 23.7403 12.7593 23.8809C12.2553 23.9452 11.7451 23.9452 11.2411 23.8809C10.1382 23.7403 9.19659 23.2177 8.2186 22.439C7.26691 21.6812 6.19067 20.6049 4.83704 19.2513L4.74929 19.1635C3.3956 17.8098 2.31929 16.7335 1.56147 15.7818C0.782712 14.8039 0.260174 13.8622 0.119505 12.7593C0.0552172 12.2553 0.0552172 11.7451 0.119505 11.2411C0.260174 10.1382 0.782712 9.19659 1.56147 8.2186C2.31929 7.26689 3.39558 6.19062 4.74928 4.83695L4.83694 4.74929C6.19061 3.3956 7.2669 2.31929 8.2186 1.56147C9.19659 0.782712 10.1382 0.260174 11.2411 0.119505ZM12.5063 2.10343C12.1703 2.06057 11.8302 2.06057 11.4941 2.10343C10.9022 2.17893 10.301 2.4599 9.46443 3.12605C8.61182 3.80497 7.61474 4.79991 6.20733 6.20733C4.79991 7.61474 3.80497 8.61182 3.12605 9.46443C2.4599 10.301 2.17893 10.9022 2.10343 11.4941C2.06057 11.8302 2.06057 12.1703 2.10343 12.5063C2.17893 13.0982 2.4599 13.6994 3.12605 14.536C3.80497 15.3886 4.79991 16.3857 6.20733 17.7931C7.61474 19.2005 8.61182 20.1955 9.46443 20.8744C10.301 21.5405 10.9022 21.8215 11.4941 21.897C11.8302 21.9399 12.1703 21.9399 12.5063 21.897C13.0982 21.8215 13.6994 21.5405 14.536 20.8744C15.3886 20.1955 16.3857 19.2005 17.7931 17.7931C19.2005 16.3857 20.1955 15.3886 20.8744 14.536C21.5405 13.6994 21.8215 13.0982 21.897 12.5063C21.9399 12.1703 21.9399 11.8302 21.897 11.4941C21.8215 10.9022 21.5405 10.301 20.8744 9.46443C20.1955 8.61182 19.2005 7.61474 17.7931 6.20733C16.3857 4.79991 15.3886 3.80497 14.536 3.12605C13.6994 2.4599 13.0982 2.17893 12.5063 2.10343Z" fill="#080809" style="fill:#080809;fill:color(display-p3 0.0314 0.0314 0.0353);fill-opacity:1;"/>
</g>
<defs>
<clipPath id="clip0_29901_26801">
<rect width="24" height="24" fill="white" style="fill:white;fill-opacity:1;"/>
</clipPath>
</defs>
</svg>
