<svg width="24" height="24" viewBox="0 0 24 24" fill="none" xmlns="http://www.w3.org/2000/svg">
<g clip-path="url(#clip0_29901_26595)">
<path d="M12.2929 7.29289C11.9024 7.68342 11.9024 8.31658 12.2929 8.70711L14.5852 10.9995L6.99978 10.9995C6.44749 10.9995 5.99978 11.4472 5.99978 11.9995C5.99978 12.5518 6.4475 12.9995 6.99978 12.9995L14.5863 12.9995L12.2929 15.2929C11.9024 15.6834 11.9024 16.3166 12.2929 16.7071C12.6834 17.0976 13.3166 17.0976 13.7071 16.7071L16.6464 13.7678C17.6228 12.7915 17.6228 11.2085 16.6464 10.2322L13.7071 7.29289C13.3166 6.90237 12.6834 6.90237 12.2929 7.29289Z" fill="#080809" style="fill:#080809;fill:color(display-p3 0.0314 0.0314 0.0353);fill-opacity:1;"/>
<path fill-rule="evenodd" clip-rule="evenodd" d="M0.5 12C0.5 5.64873 5.64873 0.5 12 0.5C18.3513 0.5 23.5 5.64873 23.5 12C23.5 18.3513 18.3513 23.5 12 23.5C5.64873 23.5 0.5 18.3513 0.5 12ZM12 2.5C6.75329 2.5 2.5 6.75329 2.5 12C2.5 17.2467 6.75329 21.5 12 21.5C17.2467 21.5 21.5 17.2467 21.5 12C21.5 6.75329 17.2467 2.5 12 2.5Z" fill="#080809" style="fill:#080809;fill:color(display-p3 0.0314 0.0314 0.0353);fill-opacity:1;"/>
</g>
<defs>
<clipPath id="clip0_29901_26595">
<rect width="24" height="24" fill="white" style="fill:white;fill-opacity:1;"/>
</clipPath>
</defs>
</svg>
