<svg width="24" height="24" viewBox="0 0 24 24" fill="none" xmlns="http://www.w3.org/2000/svg">
<path fill-rule="evenodd" clip-rule="evenodd" d="M3.00003 4C2.59557 4 2.23093 4.24364 2.07615 4.61732C1.92137 4.99099 2.00692 5.42111 2.29292 5.70711L11 14.4142V21H8C7.44772 21 7 21.4477 7 22C7 22.5523 7.44772 23 8 23H16C16.5523 23 17 22.5523 17 22C17 21.4477 16.5523 21 16 21H13V14.4142L21.7071 5.70711C21.9931 5.42111 22.0787 4.99099 21.9239 4.61732C21.7691 4.24364 21.4045 4 21 4H3.00003ZM7.41759 8.00335L5.41424 6H18.5858L16.5825 8.00335C16.5553 8.00113 16.5278 8 16.5 8H7.5C7.47225 8 7.44477 8.00113 7.41759 8.00335ZM9.41424 10L12 12.5858L14.5858 10H9.41424Z" fill="#080809" style="fill:#080809;fill:color(display-p3 0.0314 0.0314 0.0353);fill-opacity:1;"/>
</svg>
