<svg width="24" height="24" viewBox="0 0 24 24" fill="none" xmlns="http://www.w3.org/2000/svg">
<path d="M5.25283 6.12995C6.07118 3.17176 8.78114 1 12 1C14.675 1 16.9977 2.50036 18.1758 4.7021C21.2327 5.45344 23.5 8.21106 23.5 11.5C23.5 15.0556 20.8496 17.9915 17.416 18.4405C16.3321 19.9866 14.5349 21 12.5 21C10.2575 21 8.30413 19.77 7.27457 17.9504C7.0207 17.9831 6.76214 18 6.5 18C3.18629 18 0.5 15.3137 0.5 12C0.5 9.11379 2.5373 6.70429 5.25283 6.12995Z" fill="#080809" style="fill:#080809;fill:color(display-p3 0.0314 0.0314 0.0353);fill-opacity:1;"/>
<path d="M3.5 23C4.32843 23 5 22.3284 5 21.5C5 20.6716 4.32843 20 3.5 20C2.67157 20 2 20.6716 2 21.5C2 22.3284 2.67157 23 3.5 23Z" fill="#080809" style="fill:#080809;fill:color(display-p3 0.0314 0.0314 0.0353);fill-opacity:1;"/>
</svg>
