<svg width="24" height="24" viewBox="0 0 24 24" fill="none" xmlns="http://www.w3.org/2000/svg">
<path d="M16.8661 0.366117C16.378 0.854272 16.378 1.64573 16.8661 2.13388L16.9822 2.25H12C6.47715 2.25 2 6.72715 2 12.25C2 17.7728 6.47715 22.25 12 22.25C17.5228 22.25 22 17.7728 22 12.25C22 11.5596 21.4404 11 20.75 11C20.0596 11 19.5 11.5596 19.5 12.25C19.5 16.3921 16.1421 19.75 12 19.75C7.85786 19.75 4.5 16.3921 4.5 12.25C4.5 8.10786 7.85786 4.75 12 4.75H16.9822L16.8661 4.86612C16.378 5.35427 16.378 6.14573 16.8661 6.63388C17.3543 7.12204 18.1457 7.12204 18.6339 6.63388L20.5303 4.73744C21.2137 4.05402 21.2137 2.94598 20.5303 2.26256L18.6339 0.366117C18.1457 -0.122039 17.3543 -0.122039 16.8661 0.366117Z" fill="#080809" style="fill:#080809;fill:color(display-p3 0.0314 0.0314 0.0353);fill-opacity:1;"/>
<path fill-rule="evenodd" clip-rule="evenodd" d="M13.9661 15.3985C13.1711 15.3985 12.5516 15.109 12.1076 14.53C11.6666 13.948 11.4461 13.138 11.4461 12.1C11.4461 11.062 11.6666 10.2535 12.1076 9.67451C12.5516 9.09251 13.1711 8.80151 13.9661 8.80151C14.7611 8.80151 15.3791 9.09251 15.8201 9.67451C16.2641 10.2535 16.4861 11.062 16.4861 12.1C16.4861 13.138 16.2641 13.948 15.8201 14.53C15.3791 15.109 14.7611 15.3985 13.9661 15.3985ZM13.9661 14.206C14.3351 14.206 14.6156 14.0275 14.8076 13.6705C14.9996 13.3135 15.0956 12.79 15.0956 12.1C15.0956 11.41 14.9996 10.8865 14.8076 10.5295C14.6156 10.1725 14.3351 9.99401 13.9661 9.99401C13.5971 9.99401 13.3166 10.1725 13.1246 10.5295C12.9326 10.8865 12.8366 11.41 12.8366 12.1C12.8366 12.79 12.9326 13.3135 13.1246 13.6705C13.3166 14.0275 13.5971 14.206 13.9661 14.206Z" fill="#080809" style="fill:#080809;fill:color(display-p3 0.0314 0.0314 0.0353);fill-opacity:1;"/>
<path d="M10.1094 15.25H8.7369V10.1245H7.5354L7.6884 8.95001H10.1094V15.25Z" fill="#080809" style="fill:#080809;fill:color(display-p3 0.0314 0.0314 0.0353);fill-opacity:1;"/>
</svg>
