<svg width="24" height="24" viewBox="0 0 24 24" fill="none" xmlns="http://www.w3.org/2000/svg">
<g clip-path="url(#clip0_29901_26761)">
<path d="M16.7118 7.29306C17.1021 7.68378 17.1018 8.31694 16.7111 8.70728L13.4168 11.9984L16.7111 15.2899C17.1018 15.6802 17.1021 16.3134 16.7118 16.7041C16.3214 17.0948 15.6882 17.095 15.2975 16.7047L12.0019 13.4119L8.70676 16.7039C8.31605 17.0942 7.68289 17.0939 7.29255 16.7032C6.90222 16.3125 6.90252 15.6793 7.29324 15.289L10.5871 11.9983L7.2932 8.70716C6.9025 8.31681 6.90223 7.68364 7.29259 7.29295C7.68295 6.90226 8.31611 6.90199 8.7068 7.29235L12.002 10.5847L15.2976 7.29238C15.6883 6.90204 16.3215 6.90235 16.7118 7.29306Z" fill="#080809" style="fill:#080809;fill:color(display-p3 0.0314 0.0314 0.0353);fill-opacity:1;"/>
<path fill-rule="evenodd" clip-rule="evenodd" d="M23.5 12C23.5 5.64873 18.3513 0.5 12 0.5C5.64873 0.5 0.5 5.64873 0.5 12C0.5 18.3513 5.64873 23.5 12 23.5C13.9218 23.5 15.7363 23.0278 17.3308 22.1922C17.4973 22.105 17.6559 22.092 17.7765 22.1233L21.1762 23.0047C22.2835 23.2918 23.2918 22.2835 23.0047 21.1762L22.1233 17.7765C22.092 17.6559 22.105 17.4973 22.1922 17.3308C23.0278 15.7363 23.5 13.9218 23.5 12ZM12 2.5C17.2467 2.5 21.5 6.75329 21.5 12C21.5 13.5908 21.1098 15.0875 20.4207 16.4025C20.1333 16.9511 20.016 17.6177 20.1873 18.2785L20.8554 20.8554L18.2785 20.1873C17.6177 20.016 16.9511 20.1333 16.4025 20.4207C15.0875 21.1098 13.5908 21.5 12 21.5C6.75329 21.5 2.5 17.2467 2.5 12C2.5 6.75329 6.75329 2.5 12 2.5Z" fill="#080809" style="fill:#080809;fill:color(display-p3 0.0314 0.0314 0.0353);fill-opacity:1;"/>
</g>
<defs>
<clipPath id="clip0_29901_26761">
<rect width="24" height="24" fill="white" style="fill:white;fill-opacity:1;"/>
</clipPath>
</defs>
</svg>
