<svg width="24" height="24" viewBox="0 0 24 24" fill="none" xmlns="http://www.w3.org/2000/svg">
<path d="M8.5 2C7.41126 2 6.63799 2.68269 6.18711 3.39263C5.73583 4.10318 5.5 4.98609 5.5 5.78C5.5 7.46432 6.75459 9 8.5 9C10.2454 9 11.5 7.46432 11.5 5.78C11.5 4.98609 11.2642 4.10318 10.8129 3.39263C10.362 2.68269 9.58874 2 8.5 2Z" fill="#080809" style="fill:#080809;fill:color(display-p3 0.0314 0.0314 0.0353);fill-opacity:1;"/>
<path d="M15.5 2C14.4113 2 13.638 2.68269 13.1871 3.39263C12.7358 4.10318 12.5 4.98609 12.5 5.78C12.5 7.46432 13.7546 9 15.5 9C17.2454 9 18.5 7.46432 18.5 5.78C18.5 4.98609 18.2642 4.10318 17.8129 3.39263C17.362 2.68269 16.5887 2 15.5 2Z" fill="#080809" style="fill:#080809;fill:color(display-p3 0.0314 0.0314 0.0353);fill-opacity:1;"/>
<path d="M20.5 8C19.3829 8 18.5829 8.55535 18.1051 9.29478C17.6571 9.9881 17.5 10.8177 17.5 11.5C17.5 13.1523 18.8477 14.5 20.5 14.5C22.1523 14.5 23.5 13.1523 23.5 11.5C23.5 10.8177 23.3429 9.9881 22.8949 9.29478C22.4171 8.55535 21.6171 8 20.5 8Z" fill="#080809" style="fill:#080809;fill:color(display-p3 0.0314 0.0314 0.0353);fill-opacity:1;"/>
<path d="M3.5 8C2.38288 8 1.58287 8.55535 1.10508 9.29478C0.657092 9.9881 0.5 10.8177 0.5 11.5C0.5 13.1523 1.84772 14.5 3.5 14.5C5.15228 14.5 6.5 13.1523 6.5 11.5C6.5 10.8177 6.34291 9.9881 5.89492 9.29478C5.41713 8.55535 4.61712 8 3.5 8Z" fill="#080809" style="fill:#080809;fill:color(display-p3 0.0314 0.0314 0.0353);fill-opacity:1;"/>
<path d="M12 10C11.2851 10 10.6678 10.1342 10.1344 10.4027C9.60012 10.6717 9.20717 11.0467 8.90172 11.4447C8.60485 11.8315 8.37978 12.2556 8.19222 12.6241C8.15355 12.7001 8.11658 12.7735 8.0807 12.8447C7.93148 13.1407 7.80127 13.3991 7.64772 13.6501C7.02954 14.6541 6.30823 15.0486 5.34017 15.5781L5.33771 15.5794C4.25516 16.1754 3.5 17.282 3.5 18.5976C3.5 20.483 5.02949 22 6.9 22H17.1C18.9859 22 20.5 20.4675 20.5 18.5976C20.5 17.2892 19.7514 16.1669 18.6572 15.5767C17.6908 15.0481 16.9706 14.6536 16.3531 13.6514C16.2008 13.4005 16.0716 13.1437 15.9244 12.851C15.887 12.7766 15.8484 12.6999 15.808 12.6204C15.6202 12.2508 15.395 11.8267 15.0977 11.4402C14.7918 11.0424 14.3984 10.6685 13.8641 10.4006C13.3308 10.1332 12.714 10 12 10Z" fill="#080809" style="fill:#080809;fill:color(display-p3 0.0314 0.0314 0.0353);fill-opacity:1;"/>
</svg>
