<svg width="24" height="24" viewBox="0 0 24 24" fill="none" xmlns="http://www.w3.org/2000/svg">
<path fill-rule="evenodd" clip-rule="evenodd" d="M6.99989 5.5C6.99989 2.73858 9.23847 0.5 11.9999 0.5C14.7613 0.5 16.9999 2.73858 16.9999 5.5V9.07185C17.1472 9.08495 17.2889 9.10044 17.4251 9.11875C18.3529 9.24349 19.1723 9.51546 19.8284 10.1716C20.0965 10.4397 20.307 10.7421 20.469 11.0799C20.6132 11.3807 20.598 11.7335 20.4283 12.0208C20.2587 12.308 19.9571 12.4917 19.6241 12.5107C16.2096 12.7049 13.5 15.5364 13.5 19C13.5 19.9263 13.6932 20.8048 14.0404 21.5996C14.1755 21.9088 14.1456 22.2652 13.9608 22.5476C13.7761 22.8299 13.4615 23 13.1241 23H9.92943C8.57531 23 7.4587 23.0001 6.57494 22.8812C5.64711 22.7565 4.82768 22.4845 4.17157 21.8284C3.51547 21.1723 3.2435 20.3529 3.11875 19.4251C2.99994 18.5413 2.99997 17.4247 3 16.0707L3 15.9294C2.99997 14.5753 2.99994 13.4587 3.11875 12.5749C3.2435 11.6471 3.51546 10.8277 4.17157 10.1716C4.82768 9.51546 5.64711 9.24349 6.57494 9.11875C6.71106 9.10045 6.85271 9.08497 6.99989 9.07187V5.5ZM14.9999 9H8.99989V5.5C8.99989 3.84315 10.343 2.5 11.9999 2.5C13.6567 2.5 14.9999 3.84315 14.9999 5.5V9Z" fill="#080809" style="fill:#080809;fill:color(display-p3 0.0314 0.0314 0.0353);fill-opacity:1;"/>
<path d="M18.207 17.793C17.8165 17.4025 17.1833 17.4025 16.7928 17.793C16.4023 18.1836 16.4023 18.8167 16.7928 19.2073L18.5857 21.0002C19.3667 21.7812 20.6331 21.7812 21.4141 21.0002L23.207 19.2073C23.5975 18.8167 23.5975 18.1836 23.207 17.793C22.8165 17.4025 22.1833 17.4025 21.7928 17.793L19.9999 19.5859L18.207 17.793Z" fill="#080809" style="fill:#080809;fill:color(display-p3 0.0314 0.0314 0.0353);fill-opacity:1;"/>
</svg>
