<svg width="24" height="24" viewBox="0 0 24 24" fill="none" xmlns="http://www.w3.org/2000/svg">
<path fill-rule="evenodd" clip-rule="evenodd" d="M7.51316 9.21353C6.24928 9.14262 4.97582 9.29785 3.75505 9.67826C3.41584 9.82966 3.22803 10.2053 3.32002 10.5723L3.85279 12.7043C4.11534 13.7535 5.10326 14.4559 6.18029 14.3572L7.09347 14.2739C8.00569 14.1905 8.7713 13.5494 9.01181 12.666L9.63657 10.3739C9.71897 10.0711 9.55704 9.75396 9.26286 9.64377C8.69464 9.43104 8.10726 9.28731 7.51316 9.21257V9.21353ZM1.03372 11.1606L1.53966 11.4136L1.97948 13.1729C2.47296 15.1458 4.32998 16.4653 6.35564 16.2813L7.26882 16.1979C8.98402 16.0418 10.4223 14.8363 10.8755 13.1748C10.8755 13.1748 11.1113 12.1639 11.2483 11.8477C11.5108 11.2392 12.4901 11.2392 12.7527 11.8477C12.8887 12.1639 13.1254 13.1748 13.1254 13.1748C13.5787 14.8363 15.0169 16.0418 16.7321 16.1979L17.6453 16.2813C19.671 16.4653 21.528 15.1458 22.0215 13.1729L22.4613 11.4136L22.9663 11.1606C23.293 10.9968 23.5 10.6623 23.5 10.2973V9.24419C23.5 8.8015 23.1982 8.41534 22.7689 8.30706L20.7001 7.78962L20.4816 7.7168C19.1325 7.2674 17.7095 7.12462 16.3153 7.28848C15.3581 7.34693 14.4056 7.51557 13.4771 7.79441L12.9347 7.95731C12.3263 8.14033 11.6766 8.14033 11.0681 7.95731L10.5258 7.79441C9.59728 7.51557 8.64577 7.34789 7.68852 7.28848C6.29432 7.12462 4.87137 7.26644 3.52221 7.7168L3.30469 7.78962L1.23399 8.30706C0.801837 8.41438 0.5 8.80054 0.5 9.24419V10.2973C0.5 10.6633 0.706974 10.9977 1.03372 11.1606ZM20.244 9.67826C19.0232 9.29785 17.7498 9.14166 16.4849 9.21353C15.8908 9.28731 15.3025 9.43104 14.7343 9.64472C14.4401 9.75492 14.2782 10.0711 14.3606 10.3749L14.9853 12.6669C15.2268 13.5514 15.9914 14.1924 16.9037 14.2748L17.8168 14.3582C18.8939 14.4559 19.8818 13.7545 20.1443 12.7053L20.6771 10.5732C20.7691 10.2062 20.5813 9.83062 20.243 9.68018L20.244 9.67826Z" fill="#080809" style="fill:#080809;fill:color(display-p3 0.0314 0.0314 0.0353);fill-opacity:1;"/>
</svg>
