<svg width="24" height="24" viewBox="0 0 24 24" fill="none" xmlns="http://www.w3.org/2000/svg">
<g clip-path="url(#clip0_29901_26267)">
<path fill-rule="evenodd" clip-rule="evenodd" d="M12 0.5C5.64873 0.5 0.5 5.64873 0.5 12C0.5 18.3513 5.64873 23.5 12 23.5C18.3513 23.5 23.5 18.3513 23.5 12C23.5 5.64873 18.3513 0.5 12 0.5ZM2.5 12C2.5 6.75329 6.75329 2.5 12 2.5C14.2632 2.5 16.3415 3.29139 17.9734 4.61254L4.61254 17.9734C3.29139 16.3415 2.5 14.2632 2.5 12ZM6.02677 19.3876C7.65861 20.7087 9.73689 21.5 12 21.5C17.2467 21.5 21.5 17.2467 21.5 12C21.5 9.73689 20.7087 7.65861 19.3876 6.02677L6.02677 19.3876Z" fill="#080809" style="fill:#080809;fill:color(display-p3 0.0314 0.0314 0.0353);fill-opacity:1;"/>
</g>
<defs>
<clipPath id="clip0_29901_26267">
<rect width="24" height="24" fill="white" style="fill:white;fill-opacity:1;"/>
</clipPath>
</defs>
</svg>
