<svg width="24" height="24" viewBox="0 0 24 24" fill="none" xmlns="http://www.w3.org/2000/svg">
<path fill-rule="evenodd" clip-rule="evenodd" d="M16.0659 5.79336C16.5881 6.23425 17.263 6.5 18 6.5C19.6569 6.5 21 5.15685 21 3.5C21 1.84315 19.6569 0.5 18 0.5C16.3431 0.5 15 1.84315 15 3.5C15 3.69432 15.0185 3.88432 15.0538 4.06835L5.4347 9.70711C4.91237 9.26593 4.23724 9 3.5 9C1.84315 9 0.5 10.3431 0.5 12C0.5 13.6569 1.84315 15 3.5 15C4.23695 15 4.91184 14.7343 5.43408 14.2934L15.0536 19.9324C15.0184 20.1162 15 20.306 15 20.5C15 22.1569 16.3431 23.5 18 23.5C19.6569 23.5 21 22.1569 21 20.5C21 18.8431 19.6569 17.5 18 17.5C17.2627 17.5 16.5876 17.766 16.0652 18.2072L6.44622 12.5684C6.48152 12.3844 6.5 12.1943 6.5 12C6.5 11.8059 6.48157 11.6162 6.44637 11.4324L16.0659 5.79336ZM18 4.5C17.4477 4.5 17 4.05228 17 3.5C17 2.94772 17.4477 2.5 18 2.5C18.5523 2.5 19 2.94772 19 3.5C19 4.05228 18.5523 4.5 18 4.5ZM3.5 13C2.94772 13 2.5 12.5523 2.5 12C2.5 11.4477 2.94772 11 3.5 11C4.05228 11 4.5 11.4477 4.5 12C4.5 12.5523 4.05228 13 3.5 13ZM18 21.5C17.4477 21.5 17 21.0523 17 20.5C17 19.9477 17.4477 19.5 18 19.5C18.5523 19.5 19 19.9477 19 20.5C19 21.0523 18.5523 21.5 18 21.5Z" fill="#080809" style="fill:#080809;fill:color(display-p3 0.0314 0.0314 0.0353);fill-opacity:1;"/>
</svg>
