<svg width="24" height="24" viewBox="0 0 24 24" fill="none" xmlns="http://www.w3.org/2000/svg">
<path fill-rule="evenodd" clip-rule="evenodd" d="M6.18691 0.5C5.38716 0.5 4.65604 0.951855 4.29838 1.66718L2.89586 4.4722C2.75166 4.76061 2.56191 5.02388 2.3339 5.25188L1.37868 6.20711C0.816071 6.76972 0.5 7.53278 0.5 8.32843V10.5C0.5 12.1569 1.84315 13.5 3.5 13.5H8.52285C9.83986 13.5 11.0029 12.641 11.3902 11.3823L12.3585 8.23521C12.8532 6.62758 11.6511 5 9.96906 5H8.38743L8.71722 4.01061C9.29292 2.28353 8.00742 0.5 6.18691 0.5ZM6.08723 2.56161C6.10611 2.52385 6.1447 2.5 6.18691 2.5C6.6423 2.5 6.96386 2.94614 6.81986 3.37816L6.05132 5.68377C5.94967 5.98872 6.00081 6.32394 6.18876 6.58471C6.37671 6.84548 6.67856 7 7 7H9.96906C10.3055 7 10.5459 7.32552 10.447 7.64704L9.47863 10.7941C9.34953 11.2137 8.96185 11.5 8.52285 11.5H3.5C2.94772 11.5 2.5 11.0523 2.5 10.5V8.32843C2.5 8.06321 2.60536 7.80886 2.79289 7.62132L3.74812 6.6661C4.12812 6.28609 4.44438 5.84731 4.68472 5.36663L6.08723 2.56161Z" fill="#080809" style="fill:#080809;fill:color(display-p3 0.0314 0.0314 0.0353);fill-opacity:1;"/>
<path fill-rule="evenodd" clip-rule="evenodd" d="M17.8131 23.5C18.6128 23.5 19.344 23.0481 19.7016 22.3328L21.1041 19.5278C21.2483 19.2394 21.4381 18.9761 21.6661 18.7481L22.6213 17.7929C23.1839 17.2303 23.5 16.4672 23.5 15.6716V13.5C23.5 11.8431 22.1569 10.5 20.5 10.5H15.4771C14.1601 10.5 12.9971 11.359 12.6098 12.6177L11.6415 15.7648C11.1468 17.3724 12.3489 19 14.0309 19H15.6126L15.2828 19.9894C14.7071 21.7165 15.9926 23.5 17.8131 23.5ZM17.9128 21.4384C17.8939 21.4761 17.8553 21.5 17.8131 21.5C17.3577 21.5 17.0361 21.0539 17.1801 20.6218L17.9487 18.3162C18.0503 18.0113 17.9992 17.6761 17.8112 17.4153C17.6233 17.1545 17.3214 17 17 17H14.0309C13.6945 17 13.4541 16.6745 13.553 16.353L14.5214 13.2059C14.6505 12.7863 15.0381 12.5 15.4771 12.5H20.5C21.0523 12.5 21.5 12.9477 21.5 13.5V15.6716C21.5 15.9368 21.3946 16.1911 21.2071 16.3787L20.2519 17.3339C19.8719 17.7139 19.5556 18.1527 19.3153 18.6334L17.9128 21.4384Z" fill="#080809" style="fill:#080809;fill:color(display-p3 0.0314 0.0314 0.0353);fill-opacity:1;"/>
</svg>
