<svg width="24" height="24" viewBox="0 0 24 24" fill="none" xmlns="http://www.w3.org/2000/svg">
<path d="M20.7071 9.47286C21.0976 9.86338 21.0976 10.4965 20.7071 10.8871C20.3166 11.2776 19.6834 11.2776 19.2929 10.8871C17.1937 8.78785 15.102 6.68109 13 4.58457V21.0003C13 21.5526 12.5523 22.0003 12 22.0003C11.4477 22.0003 11 21.5526 11 21.0003V4.5923C8.90161 6.68963 6.8059 8.7883 4.7071 10.8871C4.31658 11.2776 3.68341 11.2776 3.29289 10.8871C2.90237 10.4965 2.90237 9.86338 3.2929 9.47286C5.49081 7.27496 7.68709 5.07543 9.88576 2.87829C11.0532 1.71169 12.9457 1.7069 14.1167 2.87378C16.3181 5.0674 18.514 7.27978 20.7071 9.47286Z" fill="#080809" style="fill:#080809;fill:color(display-p3 0.0314 0.0314 0.0353);fill-opacity:1;"/>
</svg>
