<svg width="24" height="24" viewBox="0 0 24 24" fill="none" xmlns="http://www.w3.org/2000/svg">
<path d="M3.94365 3.79289C4.33418 3.40237 4.96734 3.40237 5.35786 3.79289C5.74839 4.18342 5.74839 4.81658 5.35786 5.20711L5.28249 5.28249C1.5725 8.99247 1.5725 15.0075 5.28249 18.7175L5.35787 18.7929C5.74839 19.1834 5.74839 19.8166 5.35786 20.2071C4.96734 20.5976 4.33417 20.5976 3.94365 20.2071L3.86827 20.1317C-0.622757 15.6407 -0.622757 8.3593 3.86827 3.86827L3.94365 3.79289Z" fill="#080809" style="fill:#080809;fill:color(display-p3 0.0314 0.0314 0.0353);fill-opacity:1;"/>
<path d="M18.6421 3.7929C19.0326 3.40237 19.6658 3.40237 20.0563 3.79289L20.1317 3.86826C24.6228 8.35929 24.6228 15.6407 20.1317 20.1317L20.0563 20.2071C19.6658 20.5976 19.0327 20.5976 18.6421 20.2071C18.2516 19.8166 18.2516 19.1834 18.6421 18.7929L18.7175 18.7175C22.4275 15.0075 22.4275 8.99247 18.7175 5.28249L18.6421 5.20711C18.2516 4.81659 18.2516 4.18343 18.6421 3.7929Z" fill="#080809" style="fill:#080809;fill:color(display-p3 0.0314 0.0314 0.0353);fill-opacity:1;"/>
<path d="M8.11091 6.6967C8.50144 7.08723 8.50144 7.72039 8.11091 8.11092C7.11451 9.10731 6.5 10.4809 6.5 12C6.5 13.5191 7.11451 14.8927 8.11091 15.8891C8.50144 16.2796 8.50144 16.9128 8.11091 17.3033C7.72039 17.6938 7.08722 17.6938 6.6967 17.3033C5.34056 15.9472 4.5 14.0708 4.5 12C4.5 9.92921 5.34056 8.05284 6.6967 6.6967C7.08722 6.30618 7.72039 6.30618 8.11091 6.6967Z" fill="#080809" style="fill:#080809;fill:color(display-p3 0.0314 0.0314 0.0353);fill-opacity:1;"/>
<path d="M15.8891 6.6967C16.2796 6.30618 16.9128 6.30618 17.3033 6.6967C18.6594 8.05284 19.5 9.92921 19.5 12C19.5 14.0708 18.6594 15.9472 17.3033 17.3033C16.9128 17.6938 16.2796 17.6938 15.8891 17.3033C15.4986 16.9128 15.4986 16.2796 15.8891 15.8891C16.8855 14.8927 17.5 13.5191 17.5 12C17.5 10.4809 16.8855 9.10731 15.8891 8.11092C15.4986 7.72039 15.4986 7.08723 15.8891 6.6967Z" fill="#080809" style="fill:#080809;fill:color(display-p3 0.0314 0.0314 0.0353);fill-opacity:1;"/>
<path d="M12 14C13.1046 14 14 13.1046 14 12C14 10.8954 13.1046 10 12 10C10.8954 10 10 10.8954 10 12C10 13.1046 10.8954 14 12 14Z" fill="#080809" style="fill:#080809;fill:color(display-p3 0.0314 0.0314 0.0353);fill-opacity:1;"/>
</svg>
