<svg width="24" height="24" viewBox="0 0 24 24" fill="none" xmlns="http://www.w3.org/2000/svg">
<path d="M16 3.75C15.3096 3.75 14.75 4.30964 14.75 5C14.75 5.69036 15.3096 6.25 16 6.25H18.9822L13.1768 12.0555C13.0791 12.1531 12.9209 12.1531 12.8232 12.0555L10.9445 10.1768C9.8706 9.10283 8.1294 9.10284 7.05546 10.1768L1.11612 16.1161C0.627961 16.6043 0.627961 17.3957 1.11612 17.8839C1.60427 18.372 2.39573 18.372 2.88388 17.8839L8.82322 11.9445C8.92085 11.8469 9.07915 11.8469 9.17677 11.9445L11.0555 13.8232C12.1294 14.8972 13.8706 14.8972 14.9445 13.8232L20.75 8.01777V11C20.75 11.6904 21.3096 12.25 22 12.25C22.6904 12.25 23.25 11.6904 23.25 11V6.5C23.25 4.98122 22.0188 3.75 20.5 3.75H16Z" fill="#080809" style="fill:#080809;fill:color(display-p3 0.0314 0.0314 0.0353);fill-opacity:1;"/>
</svg>
