<svg width="24" height="24" viewBox="0 0 24 24" fill="none" xmlns="http://www.w3.org/2000/svg">
<path fill-rule="evenodd" clip-rule="evenodd" d="M9 4.5C9 3.11929 10.1193 2 11.5 2H12.5C13.8807 2 15 3.11929 15 4.5V19.5C15 20.8807 13.8807 22 12.5 22H11.5C10.1193 22 9 20.8807 9 19.5V4.5ZM11.5 4C11.2239 4 11 4.22386 11 4.5V19.5C11 19.7761 11.2239 20 11.5 20H12.5C12.7761 20 13 19.7761 13 19.5V4.5C13 4.22386 12.7761 4 12.5 4H11.5Z" fill="#080809" style="fill:#080809;fill:color(display-p3 0.0314 0.0314 0.0353);fill-opacity:1;"/>
<path fill-rule="evenodd" clip-rule="evenodd" d="M1 14.5C1 13.1193 2.11929 12 3.5 12H4.5C5.88071 12 7 13.1193 7 14.5V19.5C7 20.8807 5.88071 22 4.5 22H3.5C2.11929 22 1 20.8807 1 19.5V14.5ZM3.5 14C3.22386 14 3 14.2239 3 14.5V19.5C3 19.7761 3.22386 20 3.5 20H4.5C4.77614 20 5 19.7761 5 19.5V14.5C5 14.2239 4.77614 14 4.5 14H3.5Z" fill="#080809" style="fill:#080809;fill:color(display-p3 0.0314 0.0314 0.0353);fill-opacity:1;"/>
<path fill-rule="evenodd" clip-rule="evenodd" d="M19.5 7C18.1193 7 17 8.11929 17 9.5V19.5C17 20.8807 18.1193 22 19.5 22H20.5C21.8807 22 23 20.8807 23 19.5V9.5C23 8.11929 21.8807 7 20.5 7H19.5ZM19 9.5C19 9.22386 19.2239 9 19.5 9H20.5C20.7761 9 21 9.22386 21 9.5V19.5C21 19.7761 20.7761 20 20.5 20H19.5C19.2239 20 19 19.7761 19 19.5V9.5Z" fill="#080809" style="fill:#080809;fill:color(display-p3 0.0314 0.0314 0.0353);fill-opacity:1;"/>
</svg>
