<svg width="24" height="24" viewBox="0 0 24 24" fill="none" xmlns="http://www.w3.org/2000/svg">
<path fill-rule="evenodd" clip-rule="evenodd" d="M4.5 3C2.29086 3 0.5 4.79086 0.5 7V17C0.5 19.2091 2.29086 21 4.5 21H19.5C21.7091 21 23.5 19.2091 23.5 17V9C23.5 6.79086 21.7091 5 19.5 5H12.4142L11.1464 3.73223C10.6776 3.26339 10.0417 3 9.37868 3H4.5ZM15.7071 13.2929C16.0976 13.6834 16.0976 14.3166 15.7071 14.7071L13.4142 17C12.6332 17.781 11.3668 17.781 10.5858 17L8.29289 14.7071C7.90237 14.3166 7.90237 13.6834 8.29289 13.2929C8.68342 12.9024 9.31658 12.9024 9.70711 13.2929L11 14.5858V9.5C11 8.94772 11.4477 8.5 12 8.5C12.5523 8.5 13 8.94772 13 9.5V14.5858L14.2929 13.2929C14.6834 12.9024 15.3166 12.9024 15.7071 13.2929Z" fill="#080809" style="fill:#080809;fill:color(display-p3 0.0314 0.0314 0.0353);fill-opacity:1;"/>
</svg>
