<svg width="24" height="24" viewBox="0 0 24 24" fill="none" xmlns="http://www.w3.org/2000/svg">
<path fill-rule="evenodd" clip-rule="evenodd" d="M11.8007 1.789C12.7812 0.465354 14.8789 1.34502 14.622 2.97213L13.6702 9.00005H18.8585C20.152 9.00005 20.894 10.4731 20.1241 11.5125L12.1992 22.2111C11.2187 23.5348 9.12096 22.6551 9.37785 21.028L10.3295 15.0001H5.14131C3.84775 15.0001 3.10575 13.527 3.87572 12.4876L11.8007 1.789ZM12.3762 4.37212L5.98503 13.0001H11.4998C11.7923 13.0001 12.0701 13.1281 12.2601 13.3504C12.45 13.5728 12.5332 13.8671 12.4876 14.156L11.6237 19.628L18.0147 11.0001H12.5C12.2075 11.0001 11.9297 10.872 11.7397 10.6497C11.5497 10.4273 11.4666 10.133 11.5122 9.84409L12.3762 4.37212Z" fill="#080809" style="fill:#080809;fill:color(display-p3 0.0314 0.0314 0.0353);fill-opacity:1;"/>
<path fill-rule="evenodd" clip-rule="evenodd" d="M18.539 15.5289C18.636 15.2145 18.9266 15.0001 19.2557 15.0001H19.755C20.0844 15.0001 20.3752 15.2149 20.472 15.5298L22.4694 22.0298C22.5911 22.4257 22.3688 22.8453 21.9728 22.967C21.5769 23.0886 21.1573 22.8663 21.0356 22.4704L20.6968 21.3678H18.3071L17.9667 22.4712C17.8445 22.867 17.4247 23.0888 17.0289 22.9667C16.6331 22.8446 16.4112 22.4247 16.5333 22.0289L18.539 15.5289ZM18.77 19.8678H20.2358L19.5044 17.4877L18.77 19.8678Z" fill="#080809" style="fill:#080809;fill:color(display-p3 0.0314 0.0314 0.0353);fill-opacity:1;"/>
</svg>
