<svg width="24" height="24" viewBox="0 0 24 24" fill="none" xmlns="http://www.w3.org/2000/svg">
<path d="M9 2C9 1.44772 8.55228 1 8 1C7.44772 1 7 1.44772 7 2V3L2 3C1.44772 3 1 3.44772 1 4C1 4.55229 1.44772 5 2 5H3.22206L3.33645 5.4512C3.92882 7.78777 5.05575 9.9158 6.58996 11.6889C5.43791 12.6933 4.10615 13.5035 2.64129 14.0669C2.12582 14.2652 1.86867 14.8437 2.06692 15.3592C2.26518 15.8747 2.84378 16.1318 3.35925 15.9336C5.08499 15.2698 6.65023 14.3086 7.99744 13.1145C8.61018 13.6585 9.26809 14.1542 9.96577 14.5954C10.4326 14.8906 11.0503 14.7515 11.3454 14.2847C11.6406 13.8179 11.5015 13.2002 11.0347 12.905C10.4594 12.5413 9.91526 12.1348 9.40619 11.6902C10.9425 9.91786 12.0711 7.79018 12.6641 5.4512L12.7784 5H14C14.5523 5 15 4.55229 15 4C15 3.44772 14.5523 3 14 3L9 3V2ZM7.99871 10.259C6.72726 8.75332 5.78933 6.96193 5.2854 5L10.7151 5C10.2108 6.9633 9.27185 8.75405 7.99871 10.259Z" fill="#080809" style="fill:#080809;fill:color(display-p3 0.0314 0.0314 0.0353);fill-opacity:1;"/>
<path d="M20.1366 19.9908L21.0695 22.3655C21.2715 22.8796 21.8519 23.1326 22.3659 22.9306C22.88 22.7287 23.133 22.1483 22.931 21.6342L17.9629 8.98804C17.4407 7.65893 15.5598 7.65894 15.0377 8.98804L10.0695 21.6342C9.86757 22.1483 10.1206 22.7287 10.6346 22.9306C11.1487 23.1326 11.7291 22.8796 11.931 22.3655L12.8639 19.9908C12.9084 19.9969 12.9538 20 13 20H20C20.0463 20 20.0919 19.9968 20.1366 19.9908ZM19.3545 18H13.646L16.5003 10.7347L19.3545 18Z" fill="#080809" style="fill:#080809;fill:color(display-p3 0.0314 0.0314 0.0353);fill-opacity:1;"/>
</svg>
