<svg width="24" height="24" viewBox="0 0 24 24" fill="none" xmlns="http://www.w3.org/2000/svg">
<path fill-rule="evenodd" clip-rule="evenodd" d="M14 17C14 14.7909 15.7909 13 18 13C18.7286 13 19.4117 13.1948 20 13.5351V7.75708L9 10.2955V19C9 21.2091 7.20914 23 5 23C2.79086 23 1 21.2091 1 19C1 16.7909 2.79086 15 5 15C5.72857 15 6.41165 15.1948 7 15.5351V5.69329C7 4.52916 7.80352 3.51908 8.93785 3.25732L18.9379 0.949624C20.5044 0.588114 22 1.77789 22 3.3856V17C22 19.2091 20.2091 21 18 21C15.7909 21 14 19.2091 14 17ZM18 15C16.8954 15 16 15.8954 16 17C16 18.1046 16.8954 19 18 19C19.1046 19 20 18.1046 20 17C20 15.8954 19.1046 15 18 15ZM5 17C3.89543 17 3 17.8954 3 19C3 20.1046 3.89543 21 5 21C6.10457 21 7 20.1046 7 19C7 17.8954 6.10457 17 5 17ZM19.3876 2.89841C19.7009 2.8261 20 3.06406 20 3.3856V5.70451L9 8.24297V5.69329C9 5.46047 9.1607 5.25845 9.38757 5.2061L19.3876 2.89841Z" fill="#080809" style="fill:#080809;fill:color(display-p3 0.0314 0.0314 0.0353);fill-opacity:1;"/>
</svg>
