<svg width="24" height="24" viewBox="0 0 24 24" fill="none" xmlns="http://www.w3.org/2000/svg">
<path fill-rule="evenodd" clip-rule="evenodd" d="M9.17071 7H6.52902L8.54116 11.5992L8.54852 11.6165L9.23592 13.1876C9.51919 13.8351 9.34613 14.5917 8.80954 15.0516C6.61728 16.9307 3.38234 16.9307 1.19008 15.0516C0.653493 14.5917 0.480433 13.8351 0.763702 13.1876L1.45865 11.5992L1.46635 11.582L4.0746 5.62031C4.1101 5.5339 4.15734 5.45355 4.21435 5.38126C4.25275 5.33251 4.29542 5.28769 4.34168 5.24724C4.51757 5.09329 4.74789 5 5 5H9.17071C9.58254 3.83481 10.6938 3 12 3C13.3062 3 14.4175 3.83481 14.8293 5H19C19.2494 5 19.4775 5.0913 19.6526 5.24229C19.7709 5.34424 19.865 5.47341 19.9253 5.62006L22.5412 11.5992L22.5485 11.6164L23.2359 13.1876C23.5192 13.8351 23.3461 14.5917 22.8095 15.0516C20.6173 16.9307 17.3823 16.9307 15.1901 15.0516C14.6535 14.5917 14.4804 13.8351 14.7637 13.1876L15.4587 11.5992L15.4663 11.582L17.471 7H14.8293C14.528 7.85241 13.8524 8.52801 13 8.82929V19H16C16.5523 19 17 19.4477 17 20C17 20.5523 16.5523 21 16 21H8C7.44772 21 7 20.5523 7 20C7 19.4477 7.44772 19 8 19H11V8.82929C10.1476 8.52801 9.47199 7.85241 9.17071 7ZM11 6C11 5.44772 11.4477 5 12 5C12.5523 5 13 5.44772 13 6C13 6.55228 12.5523 7 12 7C11.4477 7 11 6.55228 11 6ZM3.90402 11H6.09599L5 8.49489L3.90402 11ZM19 8.49489L20.096 11H17.904L19 8.49489Z" fill="#080809" style="fill:#080809;fill:color(display-p3 0.0314 0.0314 0.0353);fill-opacity:1;"/>
</svg>
