<svg width="24" height="24" viewBox="0 0 24 24" fill="none" xmlns="http://www.w3.org/2000/svg">
<path d="M4.11611 9.88348C3.62796 9.39532 3.62796 8.60387 4.11612 8.11571C5.73109 6.50075 7.36806 4.8534 9.00191 3.22055C10.6593 1.56418 13.3411 1.57132 14.9945 3.22454C16.6254 4.85521 18.257 6.4889 19.8839 8.11571C20.372 8.60387 20.372 9.39532 19.8839 9.88348C19.3957 10.3716 18.6043 10.3716 18.1161 9.88349C16.4828 8.25018 14.8563 6.62169 13.2269 4.99241C12.546 4.31164 11.4466 4.3118 10.7691 4.98885C9.12975 6.62725 7.52666 8.24073 5.88388 9.88349C5.39572 10.3716 4.60427 10.3716 4.11611 9.88348Z" fill="#080809" style="fill:#080809;fill:color(display-p3 0.0314 0.0314 0.0353);fill-opacity:1;"/>
<path d="M12 22.2496C11.3096 22.2496 10.75 21.69 10.75 20.9996V10.008C9.12819 11.6289 7.51173 13.2557 5.88388 14.8835C5.39572 15.3716 4.60427 15.3716 4.11611 14.8835C3.62796 14.3953 3.62796 13.6039 4.11612 13.1157C6.32652 10.9053 8.54049 8.67217 10.7663 6.46266C11.4503 5.78362 12.5539 5.78617 13.2352 6.46643C14.67 7.89925 16.1039 9.33399 17.5373 10.7682C18.3195 11.5507 19.1015 12.3334 19.8839 13.1157C20.372 13.6039 20.372 14.3953 19.8839 14.8835C19.3957 15.3716 18.6043 15.3716 18.1161 14.8835C16.4929 13.2603 14.872 11.6374 13.25 10.0155V20.9996C13.25 21.69 12.6904 22.2496 12 22.2496Z" fill="#080809" style="fill:#080809;fill:color(display-p3 0.0314 0.0314 0.0353);fill-opacity:1;"/>
</svg>
