<svg width="24" height="24" viewBox="0 0 24 24" fill="none" xmlns="http://www.w3.org/2000/svg">
<path d="M9.46377 1.28575C10.2931 0.803007 11.092 0.5 12.0002 0.5C12.9083 0.5 13.7072 0.803006 14.5366 1.28575C15.3316 1.74856 16.2373 2.42784 17.3517 3.26361L19.5843 4.93796C20.9752 5.97995 21.9427 6.70471 22.4723 7.76393C22.9998 8.81898 23 10.0149 23.0001 11.7186L23.0002 11.8169L23.0002 11.8189C23.0004 11.8352 23.0018 11.9437 22.9869 12.0468C22.9704 12.1617 22.8969 12.5547 22.4974 12.7986C22.0944 13.0447 21.708 12.9263 21.6028 12.8899C21.5056 12.8562 21.4106 12.806 21.395 12.7977L21.393 12.7967C21.1852 12.6899 20.9666 12.6015 20.7394 12.5334L20.7381 12.533L20.7227 12.5284L20.6995 12.5211C20.682 12.5155 20.6467 12.5038 20.6049 12.4864C20.5169 12.4497 20.3512 12.3679 20.2051 12.1945C20.0588 12.0209 20.0063 11.8437 19.985 11.7509C19.9749 11.7068 19.9694 11.6701 19.9668 11.6518C19.9644 11.6348 19.9624 11.6181 19.9616 11.6116L19.9615 11.6104C19.6457 9.01394 17.4322 7.00195 14.7502 7.00195C11.8507 7.00195 9.50017 9.35246 9.50017 12.252C9.50017 12.9836 9.64924 13.6778 9.91772 14.3079L9.91843 14.3096C9.9216 14.317 9.92916 14.3347 9.93641 14.3528C9.9442 14.3723 9.9597 14.4121 9.97429 14.4618C10.0048 14.5661 10.0519 14.7817 9.97919 15.0412C9.90651 15.3006 9.75437 15.4603 9.67402 15.5336C9.63566 15.5686 9.60175 15.5945 9.58496 15.6071C9.56801 15.6199 9.55099 15.632 9.54563 15.6358C8.00244 16.7412 7.00017 18.5462 7.00017 20.5853C7.00017 20.9443 7.0428 21.292 7.12282 21.6242L7.12349 21.627C7.1265 21.6395 7.13251 21.6644 7.13782 21.6892C7.14332 21.715 7.15416 21.768 7.16038 21.8328C7.17231 21.957 7.18359 22.2891 6.93354 22.5975C6.68567 22.9032 6.36186 22.9627 6.23424 22.9773C6.16911 22.9848 6.11458 22.9852 6.08818 22.9851C6.06272 22.9851 6.03715 22.9844 6.0245 22.984L6.02168 22.9839C4.45868 22.9399 3.12993 22.7868 2.17174 21.8286C1.51563 21.1725 1.24366 20.3531 1.11892 19.4253C1.0001 18.5415 1.00013 17.4249 1.00017 16.0708L1.00008 11.77C0.999104 10.032 0.998423 8.82315 1.52803 7.76393C2.05764 6.70472 3.02512 5.97995 4.41608 4.93796L6.64865 3.26364C7.76298 2.42786 8.66869 1.74856 9.46377 1.28575Z" fill="#080809" style="fill:#080809;fill:color(display-p3 0.0314 0.0314 0.0353);fill-opacity:1;"/>
<path d="M11.5 12.25C11.5 10.4551 12.9551 9 14.75 9C16.5449 9 18 10.4551 18 12.25C18 14.0449 16.5449 15.5 14.75 15.5C12.9551 15.5 11.5 14.0449 11.5 12.25Z" fill="#080809" style="fill:#080809;fill:color(display-p3 0.0314 0.0314 0.0353);fill-opacity:1;"/>
<path d="M17.75 16.245C17.75 15.2095 18.5895 14.37 19.625 14.37C20.6605 14.37 21.5 15.2095 21.5 16.245C21.5 17.2805 20.6605 18.12 19.625 18.12C18.5895 18.12 17.75 17.2805 17.75 16.245Z" fill="#080809" style="fill:#080809;fill:color(display-p3 0.0314 0.0314 0.0353);fill-opacity:1;"/>
<path d="M13.0833 16.5C10.8282 16.5 9 18.3282 9 20.5833C9 21.918 10.082 23 11.4167 23H13.7767C14.4309 23 14.8522 22.4114 14.7769 21.8456C14.7592 21.7124 14.75 21.5761 14.75 21.4373C14.75 20.2229 15.2813 19.1336 16.1265 18.3872C16.4342 18.1155 16.5461 17.6882 16.4192 17.3039C16.4102 17.2766 16.4015 17.2491 16.3932 17.2215C16.2707 16.8154 15.8944 16.5 15.4282 16.5H13.0833Z" fill="#080809" style="fill:#080809;fill:color(display-p3 0.0314 0.0314 0.0353);fill-opacity:1;"/>
<path d="M16.25 21.4373C16.25 20.0194 17.3994 18.87 18.8173 18.87H20.4327C21.8506 18.87 23 20.0194 23 21.4373C23 22.2976 22.3026 22.995 21.4423 22.995H17.8077C16.9474 22.995 16.25 22.2976 16.25 21.4373Z" fill="#080809" style="fill:#080809;fill:color(display-p3 0.0314 0.0314 0.0353);fill-opacity:1;"/>
</svg>
