<svg width="24" height="24" viewBox="0 0 24 24" fill="none" xmlns="http://www.w3.org/2000/svg">
<path fill-rule="evenodd" clip-rule="evenodd" d="M12.001 23.5C6.75427 23.5 2.50098 19.2467 2.50098 14C2.50098 10.3174 3.55198 6.98872 5.24249 4.55457C6.92479 2.13225 9.32145 0.5 12.001 0.5C14.6805 0.5 17.0772 2.13225 18.7595 4.55457C20.45 6.98872 21.501 10.3174 21.501 14C21.501 19.2467 17.2477 23.5 12.001 23.5ZM4.50098 14C4.50098 18.1421 7.85884 21.5 12.001 21.5C16.1431 21.5 19.501 18.1421 19.501 14C19.501 10.6826 18.5515 7.76128 17.1168 5.69543C15.6738 3.61775 13.8205 2.5 12.001 2.5C10.1815 2.5 8.32814 3.61775 6.88519 5.69543C5.45046 7.76128 4.50098 10.6826 4.50098 14Z" fill="#080809" style="fill:#080809;fill:color(display-p3 0.0314 0.0314 0.0353);fill-opacity:1;"/>
</svg>
