<svg width="24" height="24" viewBox="0 0 24 24" fill="none" xmlns="http://www.w3.org/2000/svg">
<path d="M5.316 8.21753H4.48946L4.44836 8.22094C4.34144 8.23904 4.25996 8.32665 4.25996 8.4321V13.2403L4.26438 13.2824C4.27319 13.3232 4.29472 13.3597 4.32432 13.3886L4.32725 13.392L4.32895 13.3933C4.36149 13.4226 4.40066 13.4427 4.44421 13.4507L4.48922 13.4549H7.79044L7.83178 13.4514C7.9387 13.4331 8.01971 13.3453 8.01971 13.2398V12.4659L8.01603 12.4273C7.9967 12.3269 7.90324 12.2506 7.79044 12.2506H5.54503V8.4321L5.54135 8.39345C5.52202 8.29314 5.42832 8.21729 5.31552 8.21729L5.316 8.21753ZM9.75154 8.21753H8.86091L8.81661 8.22094C8.70137 8.23904 8.61378 8.32689 8.61378 8.4321V13.2406L8.61769 13.2792C8.63873 13.3793 8.73979 13.4551 8.86091 13.4551H9.75154L9.79604 13.4517C9.91129 13.4336 9.99891 13.346 9.99891 13.2408V8.43234L9.99499 8.39369C9.97395 8.29362 9.8729 8.21753 9.75154 8.21753ZM11.8249 8.21777H11.0136L10.9734 8.22094C10.8694 8.23904 10.7904 8.32689 10.7904 8.4321V13.2406L10.7941 13.2792C10.813 13.3793 10.9042 13.4551 11.0136 13.4551H11.8171L11.8572 13.4517C11.9612 13.4336 12.0402 13.346 12.0402 13.2408V10.3851L14.3304 13.3646L14.3571 13.3942L14.3894 13.4194L14.3962 13.4236L14.4034 13.4275C14.4051 13.4285 14.4073 13.4294 14.4097 13.4307L14.4149 13.4333L14.4202 13.4358C14.4239 13.4373 14.4273 13.4385 14.4313 13.4402C14.4337 13.4409 14.4357 13.4419 14.4379 13.4427C14.443 13.4444 14.4481 13.4458 14.453 13.4476C14.454 13.4476 14.4555 13.448 14.4564 13.448C14.4743 13.4529 14.4934 13.4554 14.5137 13.4554H15.317L15.3571 13.452C15.4611 13.4339 15.5401 13.3463 15.5401 13.2411V8.43258L15.5365 8.39393C15.5176 8.29386 15.4264 8.21777 15.317 8.21777H14.5137L14.4736 8.22118C14.3693 8.23928 14.2905 8.32713 14.2905 8.43234V11.289L12.003 8.31317L11.9945 8.30194L11.9845 8.28993L11.9708 8.27673L11.9668 8.27309C11.9629 8.27015 11.959 8.26646 11.9548 8.26377L11.949 8.25911C11.9453 8.25666 11.9414 8.25397 11.9375 8.25152L11.9306 8.24788L11.9248 8.24441L11.9189 8.24125C11.9164 8.24027 11.9142 8.23906 11.9118 8.23808L11.8988 8.23294C11.8961 8.23196 11.8942 8.23123 11.8915 8.23049C11.8873 8.22878 11.8829 8.22754 11.8783 8.22607L11.8704 8.22416C11.8663 8.22318 11.8621 8.22245 11.8575 8.22171L11.8479 8.22046L11.8423 8.21974L11.8249 8.21825V8.21777ZM19.6639 8.21753H16.3625L16.3172 8.22171C16.2734 8.23003 16.2343 8.25009 16.2034 8.27822C16.2027 8.2792 16.2015 8.2797 16.2007 8.28043L16.1973 8.28408C16.158 8.32249 16.1335 8.3746 16.1335 8.4321V13.2403L16.1379 13.2824C16.1467 13.3232 16.168 13.3597 16.1978 13.3886L16.2022 13.3935C16.245 13.4319 16.3008 13.4549 16.3625 13.4549H19.6639L19.7053 13.4514C19.8122 13.4331 19.8932 13.3453 19.8932 13.2398V12.4659L19.8895 12.4273C19.8702 12.3269 19.7767 12.2506 19.6639 12.2506H17.419V11.4377H19.6639L19.7053 11.4343C19.8122 11.4162 19.8932 11.3286 19.8932 11.2229V10.449L19.8895 10.4103C19.8702 10.31 19.7767 10.2337 19.6639 10.2337H17.419V9.4211H19.6639L19.7053 9.41769C19.8122 9.39959 19.8932 9.31174 19.8932 9.20629V8.4321L19.8895 8.39345C19.8702 8.29314 19.7767 8.21705 19.6639 8.21705V8.21753ZM11.9999 1.23413C18.3412 1.23413 23.5 5.3477 23.5 10.4035C23.5 12.4273 22.7016 14.2494 21.0354 16.0451C18.6231 18.7737 13.2277 22.0967 12.0001 22.6049C10.7731 23.1131 10.9539 22.2815 11.004 21.9959C11.0331 21.8259 11.168 21.0284 11.168 21.0284C11.2066 20.7402 11.247 20.2927 11.1308 20.007C11.0021 19.6923 10.4922 19.5293 10.1176 19.4498C4.59127 18.7322 0.5 14.936 0.5 10.4033C0.5 5.34746 5.65929 1.23389 11.9996 1.23389L11.9999 1.23413Z" fill="#080809" style="fill:#080809;fill:color(display-p3 0.0314 0.0314 0.0353);fill-opacity:1;"/>
</svg>
