<svg width="24" height="24" viewBox="0 0 24 24" fill="none" xmlns="http://www.w3.org/2000/svg">
<path d="M9.75 15.9996C10.1642 15.9996 10.5 15.6638 10.5 15.2496C10.5 14.8354 10.1642 14.4996 9.75 14.4996C9.33579 14.4996 9 14.8354 9 15.2496C9 15.6638 9.33579 15.9996 9.75 15.9996Z" fill="#080809" style="fill:#080809;fill:color(display-p3 0.0314 0.0314 0.0353);fill-opacity:1;"/>
<path fill-rule="evenodd" clip-rule="evenodd" d="M22 16.0701V9.76571C22.4209 10.0093 22.9679 9.91549 23.2809 9.52422C23.6259 9.09296 23.556 8.46367 23.1247 8.11866L17.5727 3.67704C16.4167 2.75222 15.4787 2.0018 14.6526 1.49059C13.7916 0.957775 12.9567 0.62207 12 0.62207C11.0434 0.62207 10.2085 0.957777 9.3475 1.4906C8.52139 2.00181 7.58339 2.75223 6.42736 3.67707L5 4.81896V2.99963C5 2.44735 4.55228 1.99963 4 1.99963C3.44772 1.99963 3 2.44735 3 2.99963V6.41894L0.875345 8.11866C0.444081 8.46366 0.374158 9.09296 0.719166 9.52422C1.03218 9.91549 1.57921 10.0093 2.00004 9.76571L2.00004 16.0702C2 17.4243 1.99997 18.5409 2.11879 19.4247C2.24353 20.3525 2.5155 21.1719 3.17161 21.828C3.82772 22.4841 4.64714 22.7561 5.57497 22.8808C6.45872 22.9997 7.57537 22.9996 8.92947 22.9996H15.0706C16.4247 22.9996 17.5413 22.9997 18.4251 22.8808C19.3529 22.7561 20.1724 22.4841 20.8285 21.828C21.4846 21.1719 21.7565 20.3525 21.8813 19.4247C22.0001 18.5409 22.0001 17.4242 22 16.0701ZM13.5 14.4996C13.5 16.1565 12.1569 17.4996 10.5 17.4996C8.84315 17.4996 7.5 16.1565 7.5 14.4996C7.5 12.8428 8.84315 11.4996 10.5 11.4996C10.7437 11.4996 10.981 11.5288 11.2086 11.5839L14 8.79253C14.1875 8.60499 14.4419 8.49963 14.7071 8.49963H15.5C16.0523 8.49963 16.5 8.94735 16.5 9.49963V10.2925C16.5 10.5577 16.3946 10.8121 16.2071 10.9996L13.4157 13.791C13.4708 14.0186 13.5 14.256 13.5 14.4996Z" fill="#080809" style="fill:#080809;fill:color(display-p3 0.0314 0.0314 0.0353);fill-opacity:1;"/>
</svg>
