<svg width="24" height="24" viewBox="0 0 24 24" fill="none" xmlns="http://www.w3.org/2000/svg">
<g clip-path="url(#clip0_29901_26024)">
<path fill-rule="evenodd" clip-rule="evenodd" d="M22.0654 1.00003C22.5224 1.03103 22.9004 1.36803 22.9824 1.81903C23.9934 7.38003 24.0504 13.347 19.6844 17.724C17.8697 19.5433 15.4777 20.6201 13 20.9095V22.5002C13 23.0525 12.5523 23.5002 12 23.5002C11.4477 23.5002 11 23.0525 11 22.5002V20.9716C8.15433 20.8163 5.36873 19.6153 3.37837 17.301C1.27937 14.86 0.711368 11.941 0.646368 9.70103C0.613368 8.57503 0.707368 7.59803 0.809368 6.90303C0.860368 6.55303 0.913368 6.27203 0.955368 6.07403C0.976368 5.97503 0.994368 5.89703 1.00737 5.84203C1.01188 5.82463 1.01556 5.80931 1.01867 5.79634L1.02337 5.77703L1.02837 5.75803L1.03037 5.75203L1.03137 5.75003V5.74803C1.14637 5.31103 1.54237 5.00603 1.99437 5.00403H2.04437C2.06733 5.00403 2.09673 5.00461 2.13302 5.00534L2.16837 5.00603C2.27437 5.00803 2.42437 5.01303 2.61037 5.02303C2.98137 5.04303 3.50037 5.08403 4.09437 5.16803C5.26237 5.33303 6.81337 5.67603 8.11437 6.41603C9.12337 6.99003 9.87537 7.49703 10.4114 7.89503C10.4704 7.78903 10.5354 7.67703 10.6064 7.56103C11.1934 6.59303 12.1794 5.28003 13.7994 3.80003C15.5354 2.21303 17.6154 1.52303 19.2144 1.22303C20.0204 1.07203 20.7204 1.01603 21.2234 0.998029C21.4754 0.989029 21.6784 0.989029 21.8224 0.992029C21.8944 0.993029 21.9514 0.995029 21.9924 0.997029C22.0036 0.997029 22.014 0.997664 22.023 0.998218C22.0299 0.998647 22.0361 0.999029 22.0414 0.999029L22.0564 1.00003H22.0654ZM11 18.9646C10.9882 17.5633 10.2795 16.1761 9.18083 14.9039C8.08076 13.6301 6.67164 12.5694 5.48566 11.8578C5.01207 11.5736 4.85851 10.9594 5.14266 10.4858C5.42681 10.0122 6.04107 9.85863 6.51465 10.1428C7.82866 10.9312 9.41954 12.1204 10.6945 13.5967C11.0781 14.0409 11.4408 14.5202 11.7601 15.0306C12.1392 13.9225 12.633 12.8162 13.1781 11.7836C14.3961 9.47562 15.9735 7.34089 17.3753 6.21947C17.8066 5.87447 18.4359 5.94441 18.7809 6.37568C19.1259 6.80696 19.056 7.43625 18.6247 7.78124C17.5265 8.65976 16.1037 10.525 14.9468 12.7171C13.8113 14.8687 13.0313 17.1484 13.0011 18.8955C14.9526 18.622 16.8295 17.7545 18.2684 16.312L18.2674 16.311C21.7074 12.862 21.9824 8.12603 21.1554 3.00103C20.7444 3.02103 20.1994 3.07103 19.5824 3.18703C18.1944 3.44703 16.5124 4.02703 15.1474 5.27403C13.7464 6.55303 12.8974 7.66603 12.3974 8.46203C12.3772 8.49399 12.358 8.52548 12.3391 8.55648L12.3144 8.59703C12.2714 8.66803 12.2304 8.73703 12.1934 8.80203C12.0184 9.10603 11.9034 9.34803 11.8324 9.51403C11.7894 9.61503 11.7614 9.68803 11.7464 9.73103C11.7429 9.74044 11.7403 9.74839 11.7381 9.75487C11.7352 9.76345 11.7331 9.76962 11.7314 9.77303V9.77503C11.6314 10.116 11.3584 10.379 11.0124 10.465C10.6654 10.551 10.2994 10.446 10.0514 10.188L10.0334 10.17C10.0144 10.151 9.98037 10.119 9.93037 10.074C9.83137 9.98503 9.66937 9.84603 9.43737 9.66503C8.97237 9.30403 8.22437 8.77703 7.12537 8.15203C6.14737 7.59603 4.88737 7.29803 3.81437 7.14603C3.43737 7.09303 3.09537 7.05903 2.81137 7.03803C2.80598 7.071 2.80105 7.10443 2.79597 7.13892L2.78837 7.19003C2.69937 7.80003 2.61737 8.65903 2.64537 9.64403C2.70237 11.627 3.20337 14.031 4.89437 15.997C6.47274 17.8325 8.70285 18.8124 11 18.9677V18.9646Z" fill="#080809" style="fill:#080809;fill:color(display-p3 0.0314 0.0314 0.0353);fill-opacity:1;"/>
</g>
<defs>
<clipPath id="clip0_29901_26024">
<rect width="24" height="24" fill="white" style="fill:white;fill-opacity:1;"/>
</clipPath>
</defs>
</svg>
