<svg width="24" height="24" viewBox="0 0 24 24" fill="none" xmlns="http://www.w3.org/2000/svg">
<path fill-rule="evenodd" clip-rule="evenodd" d="M14 4.6222C14 2.39493 11.3071 1.27952 9.73223 2.85443L5.58716 6.99951H3.5C1.84315 6.99951 0.5 8.34265 0.5 9.99951V13.9995C0.5 15.6564 1.84315 16.9995 3.5 16.9995H5.58441L9.73223 21.1473C11.3071 22.7222 14 21.6068 14 19.3796V4.6222ZM11.1464 4.26865C11.4614 3.95366 12 4.17675 12 4.6222V19.3796C12 19.825 11.4614 20.0481 11.1464 19.7331L6.70573 15.2924C6.5182 15.1049 6.26384 14.9995 5.99863 14.9995H3.5C2.94772 14.9995 2.5 14.5518 2.5 13.9995V9.99951C2.5 9.44722 2.94772 8.99951 3.5 8.99951H6.00137C6.26659 8.99951 6.52094 8.89415 6.70848 8.70661L11.1464 4.26865Z" fill="#080809" style="fill:#080809;fill:color(display-p3 0.0314 0.0314 0.0353);fill-opacity:1;"/>
<path d="M19.1384 9.69238C18.9686 9.16684 18.4049 8.87843 17.8794 9.0482C17.3538 9.21798 17.0654 9.78164 17.2352 10.3072C17.4071 10.8391 17.5003 11.4076 17.5003 11.9998C17.5003 12.592 17.4071 13.1604 17.2352 13.6924C17.0654 14.2179 17.3538 14.7816 17.8794 14.9514C18.4049 15.1211 18.9686 14.8327 19.1384 14.3072C19.3736 13.579 19.5003 12.8032 19.5003 11.9998C19.5003 11.1963 19.3736 10.4206 19.1384 9.69238Z" fill="#080809" style="fill:#080809;fill:color(display-p3 0.0314 0.0314 0.0353);fill-opacity:1;"/>
</svg>
