<svg width="24" height="24" viewBox="0 0 24 24" fill="none" xmlns="http://www.w3.org/2000/svg">
<g clip-path="url(#clip0_29901_28018)">
<path fill-rule="evenodd" clip-rule="evenodd" d="M12 0.25C5.51065 0.25 0.25 5.51065 0.25 12C0.25 18.4893 5.51065 23.75 12 23.75C18.4893 23.75 23.75 18.4893 23.75 12C23.75 5.51065 18.4893 0.25 12 0.25ZM2.75 12C2.75 6.89137 6.89137 2.75 12 2.75C14.1034 2.75 16.0429 3.45208 17.5968 4.63468L4.63468 17.5968C3.45208 16.0429 2.75 14.1034 2.75 12ZM6.40234 19.3646C7.9564 20.5477 9.89618 21.25 12 21.25C17.1086 21.25 21.25 17.1086 21.25 12C21.25 9.89618 20.5477 7.9564 19.3646 6.40234L6.40234 19.3646Z" fill="#080809" style="fill:#080809;fill:color(display-p3 0.0314 0.0314 0.0353);fill-opacity:1;"/>
</g>
<defs>
<clipPath id="clip0_29901_28018">
<rect width="24" height="24" fill="white" style="fill:white;fill-opacity:1;"/>
</clipPath>
</defs>
</svg>
