<svg width="24" height="24" viewBox="0 0 24 24" fill="none" xmlns="http://www.w3.org/2000/svg">
<path d="M16.2558 5.13753C15.2487 5.00213 13.9139 5 12 5H10C9.44772 5 9 4.55229 9 4C9 3.44772 9.44772 3 10 3H12.0732C13.8966 2.99997 15.3664 2.99995 16.5223 3.15537C17.7225 3.31672 18.733 3.66191 19.5355 4.46447C20.3381 5.26702 20.6833 6.27752 20.8446 7.47767C21 8.63361 21 10.1034 21 11.9268V15.0859L21.7929 14.293C22.1834 13.9025 22.8166 13.9025 23.2071 14.293C23.5976 14.6836 23.5976 15.3167 23.2071 15.7073L21.4142 17.5002C20.6332 18.2812 19.3668 18.2812 18.5858 17.5002L16.7929 15.7073C16.4024 15.3167 16.4024 14.6836 16.7929 14.293C17.1834 13.9025 17.8166 13.9025 18.2071 14.293L19 15.0859V12C19 10.0861 18.9979 8.7513 18.8625 7.74416C18.7309 6.7658 18.4903 6.2477 18.1213 5.87868C17.7523 5.50966 17.2342 5.26907 16.2558 5.13753Z" fill="#080809" style="fill:#080809;fill:color(display-p3 0.0314 0.0314 0.0353);fill-opacity:1;"/>
<path fill-rule="evenodd" clip-rule="evenodd" d="M8.07057 9H7.92943C6.57531 8.99997 5.4587 8.99994 4.57494 9.11875C3.64711 9.2435 2.82769 9.51547 2.17158 10.1716C1.51547 10.8277 1.2435 11.6471 1.11876 12.5749C0.999939 13.4587 0.999967 14.5753 1 15.9294V16.0706C0.999967 17.4247 0.999939 18.5413 1.11876 19.4251C1.2435 20.3529 1.51547 21.1723 2.17158 21.8284C2.82769 22.4845 3.64711 22.7565 4.57494 22.8813C5.4587 23.0001 6.57531 23 7.92943 23H8.07058C9.4247 23 10.5413 23.0001 11.4251 22.8813C12.3529 22.7565 13.1723 22.4845 13.8284 21.8284C14.4845 21.1723 14.7565 20.3529 14.8813 19.4251C15.0001 18.5413 15 17.4247 15 16.0706V15.9294C15 14.5753 15.0001 13.4587 14.8813 12.5749C14.7565 11.6471 14.4845 10.8277 13.8284 10.1716C13.1723 9.51547 12.3529 9.2435 11.4251 9.11875C10.5413 8.99994 9.4247 8.99997 8.07057 9ZM3.58579 11.5858C3.80836 11.3632 4.13538 11.1958 4.84144 11.1009C5.57626 11.0021 6.55752 11 8 11C9.44249 11 10.4238 11.0021 11.1586 11.1009C11.8646 11.1958 12.1916 11.3632 12.4142 11.5858C12.6368 11.8084 12.8042 12.1354 12.8991 12.8414C12.9979 13.5763 13 14.5575 13 16C13 17.4425 12.9979 18.4238 12.8991 19.1586C12.8042 19.8646 12.6368 20.1916 12.4142 20.4142C12.1916 20.6368 11.8646 20.8042 11.1586 20.8991C10.4238 20.9979 9.44249 21 8 21C6.55752 21 5.57626 20.9979 4.84144 20.8991C4.13538 20.8042 3.80836 20.6368 3.58579 20.4142C3.36322 20.1916 3.19585 19.8646 3.10092 19.1586C3.00213 18.4238 3 17.4425 3 16C3 14.5575 3.00213 13.5763 3.10092 12.8414C3.19585 12.1354 3.36322 11.8084 3.58579 11.5858Z" fill="#080809" style="fill:#080809;fill:color(display-p3 0.0314 0.0314 0.0353);fill-opacity:1;"/>
</svg>
