<svg width="24" height="24" viewBox="0 0 24 24" fill="none" xmlns="http://www.w3.org/2000/svg">
<path fill-rule="evenodd" clip-rule="evenodd" d="M3.27568 4.68891L1.29289 2.70613C0.902369 2.31561 0.902369 1.68244 1.29289 1.29192C1.68342 0.901392 2.31658 0.901392 2.70711 1.29192L3.40643 1.99124C3.92638 1.09937 4.8932 0.5 6 0.5H18C19.6569 0.5 21 1.84315 21 3.5V19.5848L22.7071 21.2919C23.0976 21.6824 23.0976 22.3156 22.7071 22.7061C22.3166 23.0967 21.6834 23.0967 21.2929 22.7061L19.3105 20.7237C19.2986 20.7124 19.287 20.7008 19.2757 20.6889L3.31054 4.72377C3.29863 4.71244 3.28701 4.70082 3.27568 4.68891ZM5 3.58481L19 17.5848V3.5C19 2.94772 18.5523 2.5 18 2.5H6C5.44772 2.5 5 2.94772 5 3.5V3.58481Z" fill="#080809" style="fill:#080809;fill:color(display-p3 0.0314 0.0314 0.0353);fill-opacity:1;"/>
<path d="M5 8.99945C5 8.44717 4.55228 7.99945 4 7.99945C3.44772 7.99945 3 8.44717 3 8.99945V20.9996C3 23.0597 5.35181 24.2356 6.99991 22.9997L11.7 19.4749C11.8778 19.3416 12.1222 19.3416 12.3 19.4749L17.4 23.2996C17.8419 23.631 18.4687 23.5414 18.8 23.0995C19.1314 22.6577 19.0418 22.0309 18.6 21.6996L13.4999 17.8749C12.6111 17.2083 11.3889 17.2083 10.5001 17.8749L5.79998 21.3996C5.47036 21.6468 5 21.4116 5 20.9996V8.99945Z" fill="#080809" style="fill:#080809;fill:color(display-p3 0.0314 0.0314 0.0353);fill-opacity:1;"/>
</svg>
