<svg width="24" height="24" viewBox="0 0 24 24" fill="none" xmlns="http://www.w3.org/2000/svg">
<path d="M20 16.5C20 17.8858 20.0017 19.0258 19.8809 19.9248C19.7639 20.7945 19.518 21.5692 18.9473 22.2031L18.8281 22.3281C18.172 22.9842 17.3526 23.2561 16.4248 23.3809C15.5258 23.5017 14.3858 23.5 13 23.5H11C9.61417 23.5 8.47423 23.5017 7.5752 23.3809C6.70552 23.2639 5.93085 23.018 5.29688 22.4473L5.17188 22.3281C4.51577 21.672 4.24388 20.8526 4.11914 19.9248C3.99829 19.0258 4 17.8858 4 16.5V13H20V16.5Z" fill="#080809" style="fill:#080809;fill:color(display-p3 0.0314 0.0314 0.0353);fill-opacity:1;"/>
<path d="M13 0.500001C14.3858 0.500001 15.5258 0.498295 16.4248 0.619142C17.3526 0.743885 18.172 1.01577 18.8281 1.67188L18.9473 1.79688C19.518 2.43085 19.7639 3.20551 19.8809 4.0752C20.0017 4.97423 20 6.11417 20 7.5V11H4V7.5C4 6.11417 3.99829 4.97423 4.11914 4.0752C4.24389 3.14737 4.51577 2.32798 5.17188 1.67188L5.29688 1.55274C5.93085 0.982003 6.70551 0.736068 7.5752 0.619142C8.47423 0.498294 9.61417 0.500001 11 0.500001H13Z" fill="#080809" style="fill:#080809;fill:color(display-p3 0.0314 0.0314 0.0353);fill-opacity:1;"/>
</svg>
