<svg width="24" height="24" viewBox="0 0 24 24" fill="none" xmlns="http://www.w3.org/2000/svg">
<path fill-rule="evenodd" clip-rule="evenodd" d="M9 14.5C9 12.8431 10.3431 11.5 12 11.5C12.4632 11.5 12.9019 11.605 13.2935 11.7924L16.293 8.79289C16.6836 8.40237 17.3167 8.40237 17.7073 8.79289C18.0978 9.18342 18.0978 9.81658 17.7073 10.2071L14.7077 13.2067C14.8951 13.5983 15 14.0369 15 14.5C15 16.1569 13.6569 17.5 12 17.5C10.3431 17.5 9 16.1569 9 14.5ZM12 13.5C11.4477 13.5 11 13.9477 11 14.5C11 15.0523 11.4477 15.5 12 15.5C12.5523 15.5 13 15.0523 13 14.5C13 13.9477 12.5523 13.5 12 13.5Z" fill="#080809" style="fill:#080809;fill:color(display-p3 0.0314 0.0314 0.0353);fill-opacity:1;"/>
<path fill-rule="evenodd" clip-rule="evenodd" d="M0.5 14C0.5 7.64873 5.64873 2.5 12 2.5C18.3513 2.5 23.5 7.64873 23.5 14C23.5 16.1348 22.9174 18.1365 21.9019 19.8516C21.4513 20.6125 20.6365 21 19.8354 21H4.1646C3.36346 21 2.54867 20.6125 2.09814 19.8516C1.08262 18.1365 0.5 16.1348 0.5 14ZM12 4.5C6.75329 4.5 2.5 8.75329 2.5 14C2.5 15.7665 2.9812 17.4175 3.81907 18.8326C3.86822 18.9156 3.98505 19 4.1646 19H19.8354C20.015 19 20.1318 18.9156 20.1809 18.8326C21.0188 17.4175 21.5 15.7665 21.5 14C21.5 8.75329 17.2467 4.5 12 4.5Z" fill="#080809" style="fill:#080809;fill:color(display-p3 0.0314 0.0314 0.0353);fill-opacity:1;"/>
</svg>
