<svg width="24" height="24" viewBox="0 0 24 24" fill="none" xmlns="http://www.w3.org/2000/svg">
<path fill-rule="evenodd" clip-rule="evenodd" d="M12.4961 5C12.4961 2.79086 14.287 1 16.4961 1C18.7052 1 20.4961 2.79086 20.4961 5C20.4961 7.20914 18.7052 9 16.4961 9C14.287 9 12.4961 7.20914 12.4961 5ZM16.4961 3C15.3915 3 14.4961 3.89543 14.4961 5C14.4961 6.10457 15.3915 7 16.4961 7C17.6007 7 18.4961 6.10457 18.4961 5C18.4961 3.89543 17.6007 3 16.4961 3Z" fill="#080809" style="fill:#080809;fill:color(display-p3 0.0314 0.0314 0.0353);fill-opacity:1;"/>
<path fill-rule="evenodd" clip-rule="evenodd" d="M7.49609 5.5C5.28695 5.5 3.49609 7.29086 3.49609 9.5C3.49609 11.7091 5.28695 13.5 7.49609 13.5C9.70523 13.5 11.4961 11.7091 11.4961 9.5C11.4961 7.29086 9.70523 5.5 7.49609 5.5ZM5.49609 9.5C5.49609 8.39543 6.39152 7.5 7.49609 7.5C8.60066 7.5 9.49609 8.39543 9.49609 9.5C9.49609 10.6046 8.60066 11.5 7.49609 11.5C6.39152 11.5 5.49609 10.6046 5.49609 9.5Z" fill="#080809" style="fill:#080809;fill:color(display-p3 0.0314 0.0314 0.0353);fill-opacity:1;"/>
<path fill-rule="evenodd" clip-rule="evenodd" d="M5.5 15C2.73858 15 0.5 17.2386 0.5 20C0.5 21.6569 1.84315 23 3.5 23H11.506C13.1629 23 14.506 21.6569 14.506 20C14.506 17.2386 12.2674 15 9.506 15H5.5ZM2.5 20C2.5 18.3431 3.84315 17 5.5 17H9.506C11.1629 17 12.506 18.3431 12.506 20C12.506 20.5523 12.0583 21 11.506 21H3.5C2.94772 21 2.5 20.5523 2.5 20Z" fill="#080809" style="fill:#080809;fill:color(display-p3 0.0314 0.0314 0.0353);fill-opacity:1;"/>
<path d="M14.5002 10.5C14.3758 10.5 14.2524 10.5046 14.13 10.5135C13.5792 10.554 13.1654 11.0333 13.2059 11.5841C13.2463 12.1349 13.7256 12.5486 14.2764 12.5082C14.3501 12.5028 14.4247 12.5 14.5002 12.5H18.5062C20.1631 12.5 21.5062 13.8431 21.5062 15.5C21.5062 16.0523 21.0585 16.5 20.5062 16.5H17.1078C16.5555 16.5 16.1078 16.9477 16.1078 17.5C16.1078 18.0523 16.5555 18.5 17.1078 18.5H20.5062C22.1631 18.5 23.5062 17.1569 23.5062 15.5C23.5062 12.7386 21.2676 10.5 18.5062 10.5H14.5002Z" fill="#080809" style="fill:#080809;fill:color(display-p3 0.0314 0.0314 0.0353);fill-opacity:1;"/>
</svg>
