<svg width="24" height="24" viewBox="0 0 24 24" fill="none" xmlns="http://www.w3.org/2000/svg">
<path fill-rule="evenodd" clip-rule="evenodd" d="M5 3.5V6H3.5C2.11929 6 1 7.11929 1 8.5V20C1 21.6569 2.34315 23 4 23H14.0731C15.8966 23 17.3664 23 18.5223 22.8446C19.7225 22.6833 20.733 22.3381 21.5355 21.5355C22.3381 20.733 22.6833 19.7225 22.8446 18.5223C23 17.3664 23 15.8966 23 14.0732V3.5C23 2.11929 21.8807 1 20.5 1H7.5C6.11929 1 5 2.11929 5 3.5ZM5 20C5 20.5501 4.55577 20.9965 4.00647 21L4 21C3.44772 21 3 20.5523 3 20V8.5C3 8.22386 3.22386 8 3.5 8H5L5 20ZM18 16C18.5523 16 19 16.4477 19 17C19 17.5523 18.5523 18 18 18H10C9.44771 18 9 17.5523 9 17C9 16.4477 9.44771 16 10 16H18ZM19 13C19 12.4477 18.5523 12 18 12H10C9.44771 12 9 12.4477 9 13C9 13.5523 9.44771 14 10 14H18C18.5523 14 19 13.5523 19 13ZM11 9C9.89543 9 9 8.10457 9 7C9 5.89543 9.89543 5 11 5C12.1046 5 13 5.89543 13 7C13 8.10457 12.1046 9 11 9Z" fill="#080809" style="fill:#080809;fill:color(display-p3 0.0314 0.0314 0.0353);fill-opacity:1;"/>
</svg>
