<svg width="24" height="24" viewBox="0 0 24 24" fill="none" xmlns="http://www.w3.org/2000/svg">
<path fill-rule="evenodd" clip-rule="evenodd" d="M2.04749 8.12306C4.13907 5.95898 7.54477 5.95898 9.63635 8.12306L11.9927 10.5611L14.349 8.12306C16.4406 5.95898 19.8463 5.95898 21.9379 8.12306C24.0109 10.268 24.0109 13.732 21.9379 15.8769C19.8463 18.041 16.4406 18.041 14.349 15.8769L11.9927 13.4389L9.63634 15.8769C7.54476 18.041 4.13907 18.041 2.04749 15.8769C-0.0255961 13.732 -0.0255961 10.268 2.04749 8.12306ZM8.19825 9.51298C6.89286 8.16234 4.79098 8.16234 3.48559 9.51298C2.16171 10.8828 2.16171 13.1172 3.48559 14.487C4.79098 15.8377 6.89286 15.8377 8.19825 14.487L10.6019 12L8.19825 9.51298ZM15.7871 9.51298C17.0925 8.16234 19.1944 8.16234 20.4998 9.51298C21.8236 10.8828 21.8236 13.1172 20.4998 14.487C19.1944 15.8377 17.0925 15.8377 15.7871 14.487L13.3834 12L15.7871 9.51298Z" fill="#080809" style="fill:#080809;fill:color(display-p3 0.0314 0.0314 0.0353);fill-opacity:1;"/>
</svg>
