<svg width="24" height="24" viewBox="0 0 24 24" fill="none" xmlns="http://www.w3.org/2000/svg">
<path d="M1.29289 1.29289C1.68342 0.902369 2.31658 0.902369 2.70711 1.29289L4.76917 3.35495C5.40072 3.13658 6.0641 3.01733 6.73101 3.00471C7.97708 2.98114 9.09829 3.24813 10.1324 3.88728C10.8113 4.30694 11.4242 4.86945 11.9998 5.56478C12.5753 4.86935 13.188 4.30638 13.8667 3.88616C14.9006 3.24605 16.022 2.97781 17.2688 3.00143C20.4559 3.06181 23.5612 5.56056 23.4991 9.66971C23.4578 12.5469 21.9337 15.1009 19.9401 17.227C19.7317 17.4492 19.5171 17.6679 19.2972 17.883L22.7071 21.2929C23.0976 21.6834 23.0976 22.3166 22.7071 22.7071C22.3166 23.0976 21.6834 23.0976 21.2929 22.7071L17.8091 19.2233L17.8082 19.2241L2.93373 4.34963L2.93468 4.34889L1.29289 2.70711C0.902369 2.31658 0.902369 1.68342 1.29289 1.29289Z" fill="#080809" style="fill:#080809;fill:color(display-p3 0.0314 0.0314 0.0353);fill-opacity:1;"/>
<path d="M1.86989 5.40712C1.0073 6.50274 0.47476 7.94395 0.500922 9.67016C0.542421 12.5472 2.06638 15.101 4.05983 17.227C6.06158 19.3618 8.63245 21.1692 10.9924 22.5692C11.6138 22.9379 12.386 22.9379 13.0075 22.5692C14.1928 21.866 15.4313 21.0601 16.6242 20.1615L1.86989 5.40712Z" fill="#080809" style="fill:#080809;fill:color(display-p3 0.0314 0.0314 0.0353);fill-opacity:1;"/>
</svg>
