<svg width="24" height="24" viewBox="0 0 24 24" fill="none" xmlns="http://www.w3.org/2000/svg">
<path fill-rule="evenodd" clip-rule="evenodd" d="M14.2704 1.92408C13.3769 -0.0131016 10.6236 -0.0131054 9.7301 1.92408L7.58357 6.57776L2.49433 7.18117C0.375851 7.43235 -0.474943 10.0508 1.09131 11.4992L4.85391 14.9788L3.85513 20.0054C3.43937 22.0978 5.66676 23.7161 7.52829 22.6741L12.0002 20.1709L16.4722 22.6741C18.3337 23.7161 20.5611 22.0978 20.1454 20.0054L19.1466 14.9788L22.9092 11.4992C24.4754 10.0508 23.6246 7.43235 21.5062 7.18117L16.4169 6.57776L14.2704 1.92408ZM12.0005 2.47119C12.1827 2.47128 12.365 2.56814 12.4543 2.76177L14.8353 7.92374C14.9809 8.23955 15.2802 8.45699 15.6256 8.49794L21.2707 9.16726C21.6944 9.21749 21.8645 9.74119 21.5513 10.0309L17.3777 13.8905C17.1224 14.1266 17.0081 14.4784 17.0758 14.8195L18.1837 20.3952C18.2669 20.8137 17.8214 21.1373 17.4491 20.9289L12.4887 18.1523C12.337 18.0674 12.1688 18.0249 12.0005 18.0249V2.47119Z" fill="#080809" style="fill:#080809;fill:color(display-p3 0.0314 0.0314 0.0353);fill-opacity:1;"/>
</svg>
