<svg width="24" height="24" viewBox="0 0 24 24" fill="none" xmlns="http://www.w3.org/2000/svg">
<path d="M7 3C5.89543 3 5 3.89543 5 5V19C5 20.1046 5.89543 21 7 21H9C10.1046 21 11 20.1046 11 19V5C11 3.89543 10.1046 3 9 3H7Z" fill="#080809" style="fill:#080809;fill:color(display-p3 0.0314 0.0314 0.0353);fill-opacity:1;"/>
<path d="M15 3C13.8954 3 13 3.89543 13 5V19C13 20.1046 13.8954 21 15 21H17C18.1046 21 19 20.1046 19 19V5C19 3.89543 18.1046 3 17 3H15Z" fill="#080809" style="fill:#080809;fill:color(display-p3 0.0314 0.0314 0.0353);fill-opacity:1;"/>
</svg>
