<svg width="24" height="24" viewBox="0 0 24 24" fill="none" xmlns="http://www.w3.org/2000/svg">
<path fill-rule="evenodd" clip-rule="evenodd" d="M9.42684 3H9.57317C11.3966 2.99997 12.8664 2.99995 14.0223 3.15537C15.2225 3.31672 16.233 3.66191 17.0355 4.46447C17.8381 5.26702 18.1833 6.27752 18.3446 7.47767C18.3909 7.8221 18.4235 8.19439 18.4463 8.59559L21.1449 6.72309C22.1396 6.03289 23.5 6.74475 23.5 7.95548V16.0122C23.5 17.2414 22.1025 17.9488 21.1119 17.221L18.4536 15.268C18.4306 15.7215 18.3962 16.1392 18.3446 16.5223C18.1833 17.7225 17.8381 18.733 17.0355 19.5355C16.233 20.3381 15.2225 20.6833 14.0223 20.8446C12.8664 21.0001 11.3966 21 9.57314 21H9.42687C7.6034 21 6.13363 21.0001 4.97767 20.8446C3.77752 20.6833 2.76702 20.3381 1.96447 19.5355C1.16191 18.733 0.816722 17.7225 0.655367 16.5223C0.499954 15.3664 0.499975 13.8966 0.500001 12.0732V11.9268C0.499975 10.1034 0.499954 8.63362 0.655367 7.47767C0.816722 6.27752 1.16191 5.26702 1.96447 4.46447C2.76702 3.66191 3.77752 3.31672 4.97767 3.15537C6.13362 2.99995 7.6034 2.99997 9.42684 3ZM9.49902 14.4995C10.8797 14.4995 11.999 13.3802 11.999 11.9995C11.999 10.6188 10.8797 9.49951 9.49902 9.49951C8.11831 9.49951 6.99902 10.6188 6.99902 11.9995C6.99902 13.3802 8.11831 14.4995 9.49902 14.4995Z" fill="#080809" style="fill:#080809;fill:color(display-p3 0.0314 0.0314 0.0353);fill-opacity:1;"/>
</svg>
