<svg width="24" height="24" viewBox="0 0 24 24" fill="none" xmlns="http://www.w3.org/2000/svg">
<path d="M16 14.5C16 13.9477 15.5523 13.5 15 13.5H8.60355C7.48992 13.5 6.93221 14.8464 7.71967 15.6339L9.29289 17.2071C9.68342 17.5976 10.3166 17.5976 10.7071 17.2071C11.0976 16.8166 11.0976 16.1834 10.7071 15.7929L10.4142 15.5H15C15.5523 15.5 16 15.0523 16 14.5Z" fill="#080809" style="fill:#080809;fill:color(display-p3 0.0314 0.0314 0.0353);fill-opacity:1;"/>
<path d="M8.5 12C7.94772 12 7.5 11.5523 7.5 11C7.5 10.4477 7.94772 10 8.5 10H13.0858L12.7929 9.70711C12.4024 9.31658 12.4024 8.68342 12.7929 8.29289C13.1834 7.90237 13.8166 7.90237 14.2071 8.29289L15.7803 9.86612C16.5678 10.6536 16.0101 12 14.8964 12H8.5Z" fill="#080809" style="fill:#080809;fill:color(display-p3 0.0314 0.0314 0.0353);fill-opacity:1;"/>
<path fill-rule="evenodd" clip-rule="evenodd" d="M8.87337 2.9997C9.36775 2.99851 9.86971 2.99729 10.3354 3.19019C10.8011 3.38308 11.1552 3.73887 11.5039 4.0893L11.5858 4.17146L12.4142 4.99989L16.5706 4.99988C17.9247 4.99985 19.0413 4.99982 19.9251 5.11864C20.8529 5.24338 21.6723 5.51535 22.3284 6.17146C22.9845 6.82757 23.2565 7.64699 23.3813 8.57482C23.5001 9.45858 23.5 10.5752 23.5 11.9293V14.0704C23.5 15.4245 23.5001 16.5412 23.3813 17.4249C23.2565 18.3528 22.9845 19.1722 22.3284 19.8283C21.6723 20.4844 20.8529 20.7564 19.9251 20.8811C19.0413 21 17.9247 20.9999 16.5706 20.9999H7.42946C6.07535 20.9999 4.95869 21 4.07494 20.8811C3.14711 20.7564 2.32769 20.4844 1.67158 19.8283C1.01547 19.1722 0.743499 18.3528 0.618756 17.4249C0.499939 16.5412 0.499967 15.4246 0.500001 14.0705V9.92932C0.499967 8.57521 0.499939 7.45857 0.618756 6.57482C0.743499 5.64699 1.01547 4.82757 1.67158 4.17146C2.32769 3.51535 3.14711 3.24338 4.07494 3.11864C4.9587 2.99982 6.07531 2.99985 7.42943 2.99988L8.75736 2.99989L8.87337 2.9997ZM9.57003 5.03795C9.52087 5.01759 9.45208 4.99989 8.75736 4.99989H7.5C6.05752 4.99989 5.07626 5.00201 4.34144 5.1008C3.63538 5.19573 3.30836 5.3631 3.08579 5.58567C2.86322 5.80824 2.69585 6.13526 2.60092 6.84132C2.50213 7.57614 2.5 8.5574 2.5 9.99989V13.9999C2.5 15.4424 2.50213 16.4236 2.60092 17.1585C2.69585 17.8645 2.86322 18.1915 3.08579 18.4141C3.30836 18.6367 3.63538 18.804 4.34144 18.899C5.07626 18.9978 6.05752 18.9999 7.5 18.9999H16.5C17.9425 18.9999 18.9238 18.9978 19.6586 18.899C20.3646 18.804 20.6916 18.6367 20.9142 18.4141C21.1368 18.1915 21.3042 17.8645 21.3991 17.1585C21.4979 16.4236 21.5 15.4424 21.5 13.9999V11.9999C21.5 10.5574 21.4979 9.57614 21.3991 8.84132C21.3042 8.13526 21.1368 7.80824 20.9142 7.58567C20.6916 7.3631 20.3646 7.19573 19.6586 7.1008C18.9238 7.00201 17.9425 6.99989 16.5 6.99989H12C11.7348 6.99989 11.4804 6.89453 11.2929 6.70699L10.1716 5.58567C9.68034 5.09443 9.61918 5.05831 9.57003 5.03795Z" fill="#080809" style="fill:#080809;fill:color(display-p3 0.0314 0.0314 0.0353);fill-opacity:1;"/>
</svg>
