<svg width="24" height="24" viewBox="0 0 24 24" fill="none" xmlns="http://www.w3.org/2000/svg">
<g clip-path="url(#clip0_29901_26508)">
<path d="M13.3935 23.4164C19.0876 22.7287 23.5 17.8796 23.5 12C23.5 5.64873 18.3513 0.5 12 0.5C5.64873 0.5 0.5 5.64873 0.5 12C0.5 17.3931 4.21246 21.9192 9.22126 23.162V15.5142H6.84766V11.9997H9.22126V10.4863C9.22126 6.57169 10.9923 4.75928 14.8333 4.75928C15.5601 4.75928 16.8159 4.90188 17.3311 5.04448V8.22771C17.0597 8.20011 16.5859 8.18631 16.0017 8.18631C14.1157 8.18631 13.3889 8.89931 13.3889 10.7577V11.9997H17.1471L16.5031 15.5142H13.3935V23.4164Z" fill="#080809" style="fill:#080809;fill:color(display-p3 0.0314 0.0314 0.0353);fill-opacity:1;"/>
</g>
<defs>
<clipPath id="clip0_29901_26508">
<rect width="24" height="24" fill="white" style="fill:white;fill-opacity:1;"/>
</clipPath>
</defs>
</svg>
