<svg width="24" height="24" viewBox="0 0 24 24" fill="none" xmlns="http://www.w3.org/2000/svg">
<path fill-rule="evenodd" clip-rule="evenodd" d="M14.2387 22.2029C13.8736 22.9939 13.082 23.5005 12.2108 23.5005C9.93301 23.5005 8.27417 21.3413 8.86108 19.1404L9.64228 16.2109C9.67061 16.1047 9.59054 16.0005 9.4806 16.0005C9.45306 16.0005 9.42556 16.0002 9.39812 15.9995H5.5C3.29086 15.9995 1.5 14.2087 1.5 11.9995C1.5 11.1627 1.75777 10.3848 2.19722 9.74261C2.06915 9.35065 2 8.93255 2 8.49951C2 7.22776 2.59367 6.09579 3.5164 5.36394C3.50554 5.24392 3.5 5.12252 3.5 5C3.5 2.79086 5.29086 1 7.5 1H11.75L11.7531 1.00001L11.7689 1.00006L17.0004 1.00013C19.7617 1.00037 22 3.23887 22 6.00013V10.5579C22 11.773 21.4477 12.9222 20.4989 13.6813L18.8367 15.0111C17.5033 16.078 16.4365 17.4406 15.7209 18.9911L14.2387 22.2029ZM12.2108 21.5005C12.3019 21.5005 12.3846 21.4476 12.4227 21.3649L13.905 18.1531C14.7507 16.3206 16.0114 14.7102 17.5873 13.4494L19.2494 12.1196C19.7238 11.7401 20 11.1655 20 10.5579V6.00013C20 4.34337 18.657 3.00027 17.0003 3.00013L11.7659 3.00006L11.75 3H7.5C6.39543 3 5.5 3.89543 5.5 5C5.5 5.19508 5.52764 5.382 5.57858 5.5579C5.71116 6.01571 5.50222 6.50346 5.07934 6.72332C4.4359 7.05785 4 7.72861 4 8.49951C4 8.84042 4.08448 9.15863 4.23281 9.43729C4.43715 9.82115 4.36999 10.2931 4.06666 10.6047C3.71498 10.966 3.5 11.4566 3.5 11.9995C3.5 13.1041 4.39543 13.9995 5.5 13.9995H9.4108C9.42001 13.9995 9.42922 13.9996 9.43842 13.9999C9.4524 14.0003 9.46646 14.0005 9.4806 14.0005C10.9046 14.0005 11.9417 15.3503 11.5748 16.7263L10.7935 19.6557C10.5452 20.5869 11.2471 21.5005 12.2108 21.5005Z" fill="#080809" style="fill:#080809;fill:color(display-p3 0.0314 0.0314 0.0353);fill-opacity:1;"/>
</svg>
