<svg width="24" height="24" viewBox="0 0 24 24" fill="none" xmlns="http://www.w3.org/2000/svg">
<path fill-rule="evenodd" clip-rule="evenodd" d="M6.61265 2C5.9578 2 5.32909 2.25694 4.86169 2.71558L1.3301 6.18095C0.370877 7.12219 0.32739 8.65336 1.23164 9.64753L10.1502 19.4529C11.142 20.5433 12.8572 20.5433 13.849 19.4529L22.7676 9.64753C23.6719 8.65336 23.6284 7.12219 22.6691 6.18095L19.1376 2.71558C18.6702 2.25694 18.0415 2 17.3866 2H6.61265ZM6.26245 4.14312C6.35593 4.05139 6.48168 4 6.61265 4H8.6L7.4 7H3.35098L6.26245 4.14312ZM16.6 7L15.4 4H17.3866C17.5176 4 17.6433 4.05139 17.7368 4.14312L20.6483 7H16.6ZM12 18L16.5 9H7.5L12 18Z" fill="#080809" style="fill:#080809;fill:color(display-p3 0.0314 0.0314 0.0353);fill-opacity:1;"/>
<path d="M6.0821 19.3321C6.47263 18.9416 6.47263 18.3084 6.0821 17.9179C5.69158 17.5274 5.05842 17.5274 4.66789 17.9179L0.792893 21.7929C0.402369 22.1834 0.402369 22.8166 0.792893 23.2071C1.18342 23.5976 1.81658 23.5976 2.20711 23.2071L6.0821 19.3321Z" fill="#080809" style="fill:#080809;fill:color(display-p3 0.0314 0.0314 0.0353);fill-opacity:1;"/>
<path d="M8.7071 20.7929C9.09763 21.1834 9.09763 21.8166 8.7071 22.2071L7.7071 23.2071C7.31658 23.5976 6.68341 23.5976 6.29289 23.2071C5.90237 22.8166 5.90237 22.1834 6.29289 21.7929L7.29289 20.7929C7.68341 20.4024 8.31658 20.4024 8.7071 20.7929Z" fill="#080809" style="fill:#080809;fill:color(display-p3 0.0314 0.0314 0.0353);fill-opacity:1;"/>
<path d="M3.7071 16.2071C4.09763 15.8166 4.09763 15.1834 3.7071 14.7929C3.31658 14.4024 2.68342 14.4024 2.29289 14.7929L0.792893 16.2929C0.402369 16.6834 0.402369 17.3166 0.792893 17.7071C1.18342 18.0976 1.81658 18.0976 2.20711 17.7071L3.7071 16.2071Z" fill="#080809" style="fill:#080809;fill:color(display-p3 0.0314 0.0314 0.0353);fill-opacity:1;"/>
</svg>
