<svg width="24" height="24" viewBox="0 0 24 24" fill="none" xmlns="http://www.w3.org/2000/svg">
<g clip-path="url(#clip0_29901_27770)">
<path d="M10.9714 7.82003C11.5848 7.3744 12.4153 7.3744 13.0287 7.82003L15.6573 9.72986C16.2707 10.1755 16.5273 10.9654 16.293 11.6864L15.289 14.7766C15.0547 15.4976 14.3828 15.9858 13.6246 15.9858H10.3754C9.61728 15.9858 8.94536 15.4976 8.71108 14.7766L7.70702 11.6864C7.47274 10.9654 7.7294 10.1755 8.34275 9.72986L10.9714 7.82003Z" fill="#080809" style="fill:#080809;fill:color(display-p3 0.0314 0.0314 0.0353);fill-opacity:1;"/>
<path fill-rule="evenodd" clip-rule="evenodd" d="M12 0.5C5.64873 0.5 0.5 5.64873 0.5 12C0.5 18.3513 5.64873 23.5 12 23.5C18.3513 23.5 23.5 18.3513 23.5 12C23.5 5.64873 18.3513 0.5 12 0.5ZM8.30858 3.24385C6.86612 3.85271 5.60541 4.8076 4.63048 6.00451L5.54303 8.81306C5.77731 9.5341 5.52066 10.324 4.90731 10.7696L2.5134 12.5089C2.60038 14.1568 3.10734 15.6935 3.92921 17.0137H7.12463C7.88277 17.0137 8.55469 17.5019 8.78897 18.2229L9.76811 21.2364C10.4839 21.4087 11.2313 21.5 12 21.5C12.7687 21.5 13.5161 21.4087 14.232 21.2363L15.2111 18.2229C15.4454 17.5019 16.1173 17.0137 16.8754 17.0137H20.0708C20.8927 15.6934 21.3996 14.1568 21.4866 12.5089L19.0927 10.7696C18.4794 10.324 18.2227 9.5341 18.457 8.81306L19.3696 6.00456C18.3946 4.80763 17.1339 3.85273 15.6915 3.24386C15.6802 3.25264 15.6689 3.26123 15.6573 3.26962L13.0287 5.17945C12.4153 5.62508 11.5848 5.62508 10.9714 5.17945L8.34275 3.26962C8.33119 3.26123 8.3198 3.25264 8.30858 3.24385Z" fill="#080809" style="fill:#080809;fill:color(display-p3 0.0314 0.0314 0.0353);fill-opacity:1;"/>
</g>
<defs>
<clipPath id="clip0_29901_27770">
<rect width="24" height="24" fill="white" style="fill:white;fill-opacity:1;"/>
</clipPath>
</defs>
</svg>
