<svg width="24" height="24" viewBox="0 0 24 24" fill="none" xmlns="http://www.w3.org/2000/svg">
<path fill-rule="evenodd" clip-rule="evenodd" d="M5.5 3C2.73858 3 0.5 5.23858 0.5 8V10C0.5 10.0332 0.501656 10.0664 0.504963 10.0995L1.36989 18.7488C1.49769 20.0268 2.5731 21 3.85748 21H20.1425C21.4269 21 22.5023 20.0268 22.6301 18.7488L23.495 10.0995C23.4983 10.0664 23.5 10.0332 23.5 10V8C23.5 5.23858 21.2614 3 18.5 3H5.5ZM2.5 8C2.5 6.34315 3.84315 5 5.5 5H18.5C20.1569 5 21.5 6.34315 21.5 8V9H2.5V8ZM13.5 11H21.395L20.64 18.5498C20.6145 18.8054 20.3994 19 20.1425 19H3.85748C3.60061 19 3.38552 18.8054 3.35996 18.5498L2.60499 11H10.5V13C10.5 13.8284 11.1716 14.5 12 14.5C12.8284 14.5 13.5 13.8284 13.5 13V11Z" fill="#080809" style="fill:#080809;fill:color(display-p3 0.0314 0.0314 0.0353);fill-opacity:1;"/>
</svg>
