<svg width="24" height="24" viewBox="0 0 24 24" fill="none" xmlns="http://www.w3.org/2000/svg">
<path d="M13.2234 1.27089C12.7408 0.224806 11.2541 0.224811 10.7716 1.27089L9.92022 3.11668L7.90168 3.35601C6.75769 3.49164 6.29827 4.90562 7.14404 5.68776L8.6364 7.06786L8.24025 9.06156C8.01574 10.1915 9.21854 11.0653 10.2238 10.5027L11.9975 9.50982L13.7712 10.5027C14.7764 11.0654 15.9792 10.1915 15.7547 9.06156L15.3585 7.06786L16.8509 5.68776C17.6967 4.90561 17.2373 3.49164 16.0933 3.35601L14.0747 3.11668L13.2234 1.27089Z" fill="#080809" style="fill:#080809;fill:color(display-p3 0.0314 0.0314 0.0353);fill-opacity:1;"/>
<path d="M4 14.001C2.89543 14.001 2 14.8964 2 16.001V20.001C2 21.1055 2.89543 22.001 4 22.001H5.5C6.60457 22.001 7.5 21.1055 7.5 20.001V16.001C7.5 14.8964 6.60457 14.001 5.5 14.001H4Z" fill="#080809" style="fill:#080809;fill:color(display-p3 0.0314 0.0314 0.0353);fill-opacity:1;"/>
<path d="M11 12.001C9.89543 12.001 9 12.8964 9 14.001V20.001C9 21.1055 9.89543 22.001 11 22.001H13C14.1046 22.001 15 21.1055 15 20.001V14.001C15 12.8964 14.1046 12.001 13 12.001H11Z" fill="#080809" style="fill:#080809;fill:color(display-p3 0.0314 0.0314 0.0353);fill-opacity:1;"/>
<path d="M18.5 15.001C17.3954 15.001 16.5 15.8964 16.5 17.001V20.001C16.5 21.1055 17.3954 22.001 18.5 22.001H20C21.1046 22.001 22 21.1055 22 20.001V17.001C22 15.8964 21.1046 15.001 20 15.001H18.5Z" fill="#080809" style="fill:#080809;fill:color(display-p3 0.0314 0.0314 0.0353);fill-opacity:1;"/>
</svg>
