<svg width="24" height="24" viewBox="0 0 24 24" fill="none" xmlns="http://www.w3.org/2000/svg">
<path fill-rule="evenodd" clip-rule="evenodd" d="M15.4999 8C16.3282 8.00008 16.9999 8.67162 16.9999 9.5V17.5H19.4999C19.8358 17.5001 20.1498 17.6688 20.3348 17.9492C20.5197 18.2297 20.551 18.5847 20.4188 18.8936L19.3084 21.4844C18.9145 22.4035 18.0106 22.9999 17.0106 23H6.98911C5.98908 23 5.08523 22.4035 4.69126 21.4844L3.58091 18.8936C3.44861 18.5846 3.4799 18.2298 3.6649 17.9492C3.84996 17.6688 4.16382 17.5 4.49986 17.5H6.99986V9.5C6.99986 8.67157 7.67143 8 8.49986 8H15.4999ZM8.99986 17.5H14.9999V10H8.99986V17.5Z" fill="#080809" style="fill:#080809;fill:color(display-p3 0.0314 0.0314 0.0353);fill-opacity:1;"/>
<path d="M11.9999 0.5C12.3207 0.5 12.6224 0.654064 12.8104 0.914062L14.1581 2.78027C15.4288 4.54054 14.171 7 11.9999 7C9.82895 6.99974 8.57117 4.54043 9.84165 2.78027L11.1893 0.914062L11.2645 0.822266C11.4525 0.618248 11.7189 0.500096 11.9999 0.5Z" fill="#080809" style="fill:#080809;fill:color(display-p3 0.0314 0.0314 0.0353);fill-opacity:1;"/>
</svg>
