<svg width="24" height="24" viewBox="0 0 24 24" fill="none" xmlns="http://www.w3.org/2000/svg">
<path fill-rule="evenodd" clip-rule="evenodd" d="M9.42684 3H14.5732C16.3966 2.99998 17.8664 2.99995 19.0223 3.15537C20.2225 3.31672 21.233 3.66191 22.0355 4.46447C22.8381 5.26702 23.1833 6.27752 23.3446 7.47767C23.5001 8.63363 23.5 10.1034 23.5 11.9269V12C23.5 12.3256 23.5 12.6386 23.4992 12.9386C23.4983 13.2955 23.3073 13.6249 22.9978 13.8029C22.6884 13.9808 22.3076 13.9804 21.9986 13.8017C21.1173 13.292 20.0943 13 19 13C15.6863 13 13 15.6863 13 19C13 19.292 13.0208 19.5786 13.0608 19.8584C13.1019 20.1454 13.0163 20.4361 12.8264 20.6551C12.6365 20.8742 12.3608 21 12.0709 21H9.42687C7.6034 21 6.13363 21.0001 4.97767 20.8446C3.77752 20.6833 2.76703 20.3381 1.96447 19.5355C1.16191 18.733 0.816722 17.7225 0.655367 16.5223C0.499955 15.3664 0.499975 13.8967 0.500001 12.0732V11.9268C0.499975 10.1034 0.499955 8.63361 0.655367 7.47767C0.816722 6.27752 1.16191 5.26703 1.96447 4.46447C2.76703 3.66191 3.77752 3.31672 4.97767 3.15537C6.13361 2.99995 7.60341 2.99998 9.42684 3ZM6 9C5.44772 9 5 9.44772 5 10C5 10.5523 5.44772 11 6 11H18C18.5523 11 19 10.5523 19 10C19 9.44772 18.5523 9 18 9H6ZM5 14C5 13.4477 5.44772 13 6 13H12C12.5523 13 13 13.4477 13 14C13 14.5523 12.5523 15 12 15H6C5.44772 15 5 14.5523 5 14Z" fill="#080809" style="fill:#080809;fill:color(display-p3 0.0314 0.0314 0.0353);fill-opacity:1;"/>
<path fill-rule="evenodd" clip-rule="evenodd" d="M23.5 19C23.5 21.4853 21.4853 23.5 19 23.5C16.5147 23.5 14.5 21.4853 14.5 19C14.5 16.5147 16.5147 14.5 19 14.5C21.4853 14.5 23.5 16.5147 23.5 19ZM19 16.5C19.4142 16.5 19.75 16.8358 19.75 17.25V18.6893L20.7803 19.7197C21.0732 20.0126 21.0732 20.4874 20.7803 20.7803C20.4874 21.0732 20.0126 21.0732 19.7197 20.7803L18.4697 19.5303C18.329 19.3897 18.25 19.1989 18.25 19V17.25C18.25 16.8358 18.5858 16.5 19 16.5Z" fill="#080809" style="fill:#080809;fill:color(display-p3 0.0314 0.0314 0.0353);fill-opacity:1;"/>
</svg>
