<svg width="24" height="24" viewBox="0 0 24 24" fill="none" xmlns="http://www.w3.org/2000/svg">
<path fill-rule="evenodd" clip-rule="evenodd" d="M11.9998 6C14.209 6 15.9998 7.79086 15.9998 10C15.9998 12.2091 14.209 14 11.9998 14C9.79078 13.9999 7.99984 12.2091 7.99984 10C7.99984 7.79091 9.79078 6.00009 11.9998 6ZM11.9998 8C10.8953 8.00009 9.99984 8.89548 9.99984 10C9.99984 11.1045 10.8953 11.9999 11.9998 12C13.1044 12 13.9998 11.1046 13.9998 10C13.9998 8.89543 13.1044 8 11.9998 8Z" fill="#080809" style="fill:#080809;fill:color(display-p3 0.0314 0.0314 0.0353);fill-opacity:1;"/>
<path fill-rule="evenodd" clip-rule="evenodd" d="M11.9998 0.5C12.9079 0.5 13.7067 0.803478 14.536 1.28613C15.3425 1.75561 16.2637 2.44742 17.4002 3.2998L19.4002 4.7998C20.8899 5.91704 21.9188 6.65866 22.4715 7.76367C23.0242 8.86901 22.9998 10.1375 22.9998 12V16C22.9998 17.3857 23.0015 18.5258 22.8807 19.4248C22.756 20.3526 22.4841 21.173 21.828 21.8291C21.172 22.4848 20.3522 22.7571 19.4246 22.8818C18.5257 23.0026 17.3855 23 15.9998 23H7.99984C6.6142 23 5.47398 23.0027 4.57504 22.8818C3.64752 22.7571 2.82769 22.4849 2.17172 21.8291C1.51572 21.173 1.24372 20.3526 1.11898 19.4248C0.998166 18.5258 0.999842 17.3857 0.999842 16V12C0.999842 10.1376 0.975561 8.86898 1.52816 7.76367C2.08083 6.65864 3.10985 5.917 4.59945 4.7998L6.59945 3.2998C7.73595 2.44743 8.65718 1.75564 9.46371 1.28613C10.2929 0.803454 11.0918 0.500071 11.9998 0.5ZM9.99984 17.5C8.34306 17.5001 6.99984 18.8432 6.99984 20.5V20.9385C6.99984 20.9585 7.00355 20.9783 7.00472 20.998C7.31004 20.9997 7.64064 21 7.99984 21H15.9998C16.3589 21 16.6897 20.9997 16.995 20.998C16.9961 20.9783 16.9998 20.9585 16.9998 20.9385V20.5C16.9998 18.8431 15.6567 17.5 13.9998 17.5H9.99984ZM11.9998 2.5C11.5747 2.50007 11.129 2.63082 10.4696 3.01465C9.78735 3.41181 8.97391 4.01969 7.79965 4.90039L5.79965 6.40039C4.14946 7.63803 3.60813 8.07443 3.31625 8.6582C3.02439 9.24201 2.99984 9.93692 2.99984 12V16C2.99984 17.4425 3.00164 18.4244 3.10043 19.1592C3.19533 19.8647 3.36337 20.1915 3.58578 20.4141C3.80832 20.6366 4.1358 20.8045 4.84164 20.8994C4.89298 20.9063 4.94603 20.911 4.99984 20.917V20.5C4.99984 17.7386 7.23849 15.5001 9.99984 15.5H13.9998C16.7613 15.5 18.9998 17.7386 18.9998 20.5V20.917C19.0538 20.911 19.1066 20.9063 19.158 20.8994C19.8639 20.8045 20.1913 20.6366 20.4139 20.4141C20.6364 20.1915 20.8043 19.8648 20.8993 19.1592C20.998 18.4244 20.9998 17.4425 20.9998 16V12C20.9998 9.93677 20.9754 9.24203 20.6834 8.6582C20.3915 8.07447 19.8503 7.63806 18.2 6.40039L16.2 4.90039C15.0257 4.01967 14.2123 3.41179 13.5301 3.01465C12.8707 2.63084 12.425 2.5 11.9998 2.5Z" fill="#080809" style="fill:#080809;fill:color(display-p3 0.0314 0.0314 0.0353);fill-opacity:1;"/>
</svg>
