<svg width="24" height="24" viewBox="0 0 24 24" fill="none" xmlns="http://www.w3.org/2000/svg">
<path d="M10 11.5C9.44771 11.5 9 11.9477 9 12.5C9 13.0523 9.44771 13.5 10 13.5H14C14.5523 13.5 15 13.0523 15 12.5C15 11.9477 14.5523 11.5 14 11.5H10Z" fill="#080809" style="fill:#080809;fill:color(display-p3 0.0314 0.0314 0.0353);fill-opacity:1;"/>
<path fill-rule="evenodd" clip-rule="evenodd" d="M0.5 4.5C0.5 3.11929 1.61929 2 3 2H21C22.3807 2 23.5 3.11929 23.5 4.5V8C23.5 8.74028 23.0978 9.38662 22.5 9.73243L22.5 17.0658C22.5001 17.9523 22.5001 18.7161 22.4179 19.3278C22.3297 19.9833 22.131 20.6117 21.6213 21.1213C21.1117 21.631 20.4833 21.8297 19.8278 21.9179C19.2161 22.0001 18.4523 22.0001 17.5658 22H6.43417C5.54769 22.0001 4.78387 22.0001 4.17221 21.9179C3.5167 21.8297 2.88835 21.631 2.37868 21.1213C1.86902 20.6117 1.67028 19.9833 1.58215 19.3278C1.49991 18.7161 1.49995 17.9523 1.5 17.0658L1.5 9.73244C0.902201 9.38663 0.5 8.74028 0.5 8V4.5ZM3.5 10H20.5V17C20.5 17.9711 20.4979 18.5988 20.4357 19.0613C20.3774 19.495 20.2832 19.631 20.2071 19.7071C20.131 19.7832 19.995 19.8774 19.5613 19.9357C19.0988 19.9979 18.4711 20 17.5 20H6.5C5.52893 20 4.90122 19.9979 4.43871 19.9357C4.00497 19.8774 3.86902 19.7832 3.7929 19.7071C3.71677 19.631 3.62263 19.495 3.56431 19.0613C3.50213 18.5988 3.5 17.9711 3.5 17V10ZM21.5 4.5V8H2.5L2.5 4.5C2.5 4.22386 2.72386 4 3 4H21C21.2761 4 21.5 4.22386 21.5 4.5Z" fill="#080809" style="fill:#080809;fill:color(display-p3 0.0314 0.0314 0.0353);fill-opacity:1;"/>
</svg>
