<svg width="24" height="24" viewBox="0 0 24 24" fill="none" xmlns="http://www.w3.org/2000/svg">
<path d="M21.0156 7.50781C21.4985 7.24028 22.1072 7.41569 22.375 7.89844C22.7267 8.53301 22.8678 9.26836 22.9346 10.0674C23.0013 10.867 23 11.8443 23 13C23 14.3856 23.0027 15.5259 22.8818 16.4248C22.757 17.3526 22.4841 18.1721 21.8281 18.8281C21.193 19.4632 20.4017 19.7403 19.5 19.8701V21.7568C19.4981 22.8647 18.1643 23.4209 17.375 22.6465L14.6777 20H12C10.8782 20 9.92095 20.0009 9.12598 19.9385L8.79492 19.9082L8.69336 19.8916C8.19801 19.7858 7.85319 19.32 7.90918 18.8057C7.96558 18.291 8.4033 17.91 8.91016 17.9141L9.01172 17.9199L9.29297 17.9463C9.97475 17.9995 10.8395 18 12 18H15.0859C15.3476 18 15.5992 18.103 15.7861 18.2861L17.5 19.9668V18.9609C17.5002 18.4307 17.9148 17.9926 18.4443 17.9629C19.6637 17.8945 20.1239 17.7042 20.4141 17.4141C20.6366 17.1914 20.8045 16.864 20.8994 16.1582C20.9982 15.4235 21 14.442 21 13C21 11.813 20.9996 10.932 20.9414 10.2344C20.8904 9.62398 20.8004 9.23965 20.6797 8.97461L20.626 8.86719L20.5811 8.77539C20.3817 8.30964 20.5629 7.75876 21.0156 7.50781Z" fill="#080809" style="fill:#080809;fill:color(display-p3 0.0314 0.0314 0.0353);fill-opacity:1;"/>
<path d="M12 1C13.3859 1 14.5258 0.998224 15.4248 1.11914C16.3526 1.24396 17.1721 1.51583 17.8281 2.17188C18.4842 2.82793 18.756 3.64737 18.8809 4.5752C19.0018 5.47421 19 6.61411 19 8C19 9.38589 19.0018 10.5258 18.8809 11.4248C18.756 12.3526 18.4842 13.1721 17.8281 13.8281C17.1721 14.4842 16.3526 14.756 15.4248 14.8809C14.5258 15.0018 13.3859 15 12 15H9.32227L6.625 17.6465C5.83571 18.4207 4.50207 17.8645 4.5 16.7568V14.8701C3.59843 14.7403 2.80698 14.4632 2.17188 13.8281C1.51583 13.1721 1.24396 12.3526 1.11914 11.4248C0.998224 10.5258 1 9.38589 1 8C1 6.61411 0.998223 5.47421 1.11914 4.5752C1.24396 3.64737 1.51583 2.82793 2.17188 2.17188C2.82793 1.51583 3.64737 1.24396 4.5752 1.11914C5.47421 0.998223 6.61411 1 8 1H12Z" fill="#080809" style="fill:#080809;fill:color(display-p3 0.0314 0.0314 0.0353);fill-opacity:1;"/>
</svg>
