<svg width="24" height="24" viewBox="0 0 24 24" fill="none" xmlns="http://www.w3.org/2000/svg">
<path fill-rule="evenodd" clip-rule="evenodd" d="M0.497746 9.50791C0.497746 5.68122 4.22029 2.5791 8.81143 2.5791V2.58353C12.9572 2.58353 16.3939 5.11398 17.021 8.42438C16.8703 8.41552 16.7196 8.41109 16.5689 8.41109C12.3811 8.41109 8.98648 11.2385 8.98648 14.7283C8.98648 15.3155 9.08397 15.885 9.26567 16.4256C9.11499 16.4323 8.9621 16.4367 8.80921 16.4367C7.85864 16.4367 6.94351 16.3016 6.09486 16.0578C6.01731 16.0334 5.93532 16.0201 5.85112 16.0201C5.69158 16.0201 5.54756 16.0689 5.41018 16.1487L3.591 17.199C3.54004 17.2278 3.49129 17.2499 3.43147 17.2499C3.27858 17.2499 3.15449 17.1258 3.15449 16.9729C3.15449 16.9211 3.16963 16.8705 3.18468 16.8203C3.18957 16.8039 3.19446 16.7876 3.19881 16.7713C3.20989 16.7314 3.43368 15.8961 3.57328 15.3731C3.58879 15.3133 3.60208 15.2579 3.60208 15.1959C3.60208 15.0097 3.51123 14.8436 3.36942 14.7438C1.61673 13.4742 0.497746 11.5952 0.497746 9.50791ZM10.4755 7.2899C10.4755 7.90146 10.9718 8.3978 11.5834 8.3978C12.195 8.3978 12.6913 7.90146 12.6913 7.2899C12.6913 6.67833 12.195 6.182 11.5834 6.182C10.9718 6.182 10.4755 6.67833 10.4755 7.2899ZM4.93378 7.2899C4.93378 7.90146 5.43012 8.3978 6.04168 8.3978C6.65324 8.3978 7.14958 7.90146 7.14958 7.2899C7.14958 6.67833 6.65324 6.182 6.04168 6.182C5.43012 6.182 4.93378 6.67833 4.93378 7.2899Z" fill="#080809" style="fill:#080809;fill:color(display-p3 0.0314 0.0314 0.0353);fill-opacity:1;"/>
<path fill-rule="evenodd" clip-rule="evenodd" d="M23.4976 14.7264C23.4976 16.4658 22.5647 18.0302 21.1045 19.0893H21.1023C20.9848 19.1735 20.9073 19.3109 20.9073 19.466C20.9073 19.517 20.9184 19.5635 20.9317 19.6123C21.0491 20.0488 21.2352 20.7445 21.2441 20.7778C21.2476 20.7903 21.2514 20.8027 21.2553 20.8153C21.2685 20.8583 21.2818 20.9016 21.2818 20.9462C21.2818 21.0725 21.1798 21.1766 21.0513 21.1766C21.0026 21.1766 20.9605 21.1567 20.9184 21.1323L19.4028 20.2571C19.2898 20.1906 19.1679 20.1507 19.0349 20.1507C18.964 20.1507 18.8953 20.1618 18.8311 20.1817C18.122 20.3856 17.3598 20.4986 16.5688 20.4986C12.7443 20.4986 9.64216 17.9128 9.64216 14.7264C9.64216 11.5401 12.7421 8.95427 16.5688 8.95427C20.3954 8.95427 23.4976 11.5379 23.4976 14.7264ZM17.9558 12.8785C17.9558 13.3881 18.3702 13.8024 18.8798 13.8024C19.3895 13.8024 19.8038 13.3881 19.8038 12.8785C19.8038 12.3688 19.3895 11.9545 18.8798 11.9545C18.3702 11.9545 17.9558 12.3688 17.9558 12.8785ZM13.3381 12.8785C13.3381 13.3881 13.7525 13.8024 14.2621 13.8024C14.7717 13.8024 15.1861 13.3881 15.1861 12.8785C15.1861 12.3688 14.7717 11.9545 14.2621 11.9545C13.7525 11.9545 13.3381 12.3688 13.3381 12.8785Z" fill="#080809" style="fill:#080809;fill:color(display-p3 0.0314 0.0314 0.0353);fill-opacity:1;"/>
</svg>
