<svg width="24" height="24" viewBox="0 0 24 24" fill="none" xmlns="http://www.w3.org/2000/svg">
<path fill-rule="evenodd" clip-rule="evenodd" d="M2.00168 7.883C1.88755 7.96986 1.77744 8.06572 1.67158 8.17158C1.01547 8.82768 0.7435 9.64711 0.618757 10.5749C0.499941 11.4587 0.499968 12.5753 0.500001 13.9294V16.0706C0.499968 17.4247 0.499941 18.5413 0.618757 19.4251C0.7435 20.3529 1.01547 21.1723 1.67158 21.8284C2.32769 22.4845 3.14711 22.7565 4.07494 22.8813C4.95868 23.0001 6.07527 23 7.42935 23H16.5706C17.9247 23 19.0413 23.0001 19.9251 22.8813C20.8529 22.7565 21.6723 22.4845 22.3284 21.8284C22.9845 21.1723 23.2565 20.3529 23.3813 19.4251C23.5001 18.5413 23.5 17.4247 23.5 16.0706V13.9295C23.5 12.5754 23.5001 11.4587 23.3813 10.5749C23.2565 9.64711 22.9845 8.82768 22.3284 8.17158C22.2226 8.06571 22.1125 7.96986 21.9983 7.883C21.9569 6.4398 21.151 5.18813 19.9713 4.51871C19.7336 2.5365 18.0463 1 16 1H8C5.95375 1 4.26637 2.5365 4.02866 4.51871C2.84904 5.18813 2.04313 6.4398 2.00168 7.883ZM6.26757 4H17.7324C17.3866 3.4022 16.7403 3 16 3H8C7.25972 3 6.61338 3.4022 6.26757 4ZM19.7872 7.10139C19.4581 6.44812 18.7814 6 18 6H6C5.2186 6 4.54186 6.44812 4.21276 7.1014C5.07386 6.99994 6.14476 6.99997 7.42943 7H16.5706C17.8552 6.99997 18.9261 6.99994 19.7872 7.10139ZM12 11C12.5523 11 13 11.4477 13 12V14H15C15.5523 14 16 14.4477 16 15C16 15.5523 15.5523 16 15 16H13V18C13 18.5523 12.5523 19 12 19C11.4477 19 11 18.5523 11 18V16H9C8.44772 16 8 15.5523 8 15C8 14.4477 8.44772 14 9 14H11V12C11 11.4477 11.4477 11 12 11Z" fill="#080809" style="fill:#080809;fill:color(display-p3 0.0314 0.0314 0.0353);fill-opacity:1;"/>
</svg>
