<svg width="24" height="24" viewBox="0 0 24 24" fill="none" xmlns="http://www.w3.org/2000/svg">
<path d="M7.5 0.5C6.94772 0.5 6.5 0.947715 6.5 1.5C6.5 2.05228 6.94772 2.5 7.5 2.5H18.5C19.0537 2.5 19.5 2.94697 19.5 3.49787V17.25C19.5 17.8023 19.9477 18.25 20.5 18.25C21.0523 18.25 21.5 17.8023 21.5 17.25V3.49787C21.5 1.83962 20.1555 0.5 18.5 0.5H7.5Z" fill="#080809" style="fill:#080809;fill:color(display-p3 0.0314 0.0314 0.0353);fill-opacity:1;"/>
<path fill-rule="evenodd" clip-rule="evenodd" d="M5 4C3.34315 4 2 5.34315 2 7V21C2 23.0601 4.35191 24.2361 6 23L9.7 20.225C9.87778 20.0917 10.1222 20.0917 10.3 20.225L14 23C15.6481 24.2361 18 23.0601 18 21V7C18 5.34315 16.6569 4 15 4H5ZM4 7C4 6.44772 4.44772 6 5 6H15C15.5523 6 16 6.44772 16 7V21C16 21.412 15.5296 21.6472 15.2 21.4L11.5 18.625C10.6111 17.9583 9.38889 17.9583 8.5 18.625L4.8 21.4C4.47038 21.6472 4 21.412 4 21V7Z" fill="#080809" style="fill:#080809;fill:color(display-p3 0.0314 0.0314 0.0353);fill-opacity:1;"/>
</svg>
