<svg width="24" height="24" viewBox="0 0 24 24" fill="none" xmlns="http://www.w3.org/2000/svg">
<path d="M6 5C6 5.55229 5.55229 6 5 6C4.44772 6 4 5.55229 4 5C4 4.44772 4.44772 4 5 4C5.55229 4 6 4.44772 6 5Z" fill="#080809" style="fill:#080809;fill:color(display-p3 0.0314 0.0314 0.0353);fill-opacity:1;"/>
<path d="M8 6C8.55229 6 9 5.55229 9 5C9 4.44772 8.55229 4 8 4C7.44772 4 7 4.44772 7 5C7 5.55229 7.44772 6 8 6Z" fill="#080809" style="fill:#080809;fill:color(display-p3 0.0314 0.0314 0.0353);fill-opacity:1;"/>
<path fill-rule="evenodd" clip-rule="evenodd" d="M16.0706 1H7.92943C6.57533 0.999967 5.45869 0.999939 4.57494 1.11876C3.64711 1.2435 2.82769 1.51547 2.17158 2.17158C1.51547 2.82769 1.2435 3.64711 1.11876 4.57494C0.999939 5.45869 0.999967 6.57529 1 7.92939V16.0706C0.999967 17.4247 0.999939 18.5413 1.11876 19.4251C1.2435 20.3529 1.51547 21.1723 2.17158 21.8284C2.82769 22.4845 3.64711 22.7565 4.57494 22.8813C5.45869 23.0001 6.57529 23 7.92939 23H16.0705C17.4246 23 18.5413 23.0001 19.4251 22.8813C20.3529 22.7565 21.1723 22.4845 21.8284 21.8284C22.4845 21.1723 22.7565 20.3529 22.8813 19.4251C23.0001 18.5413 23 17.4247 23 16.0706V7.92946C23 6.57536 23.0001 5.45869 22.8813 4.57494C22.7565 3.64711 22.4845 2.82769 21.8284 2.17158C21.1723 1.51547 20.3529 1.2435 19.4251 1.11876C18.5413 0.999939 17.4247 0.999967 16.0706 1ZM3.58579 3.58579C3.80836 3.36322 4.13538 3.19585 4.84144 3.10092C5.57626 3.00213 6.55752 3 8 3H16C17.4425 3 18.4238 3.00213 19.1586 3.10092C19.8646 3.19585 20.1916 3.36322 20.4142 3.58579C20.6368 3.80836 20.8042 4.13538 20.8991 4.84144C20.9731 5.3923 20.9929 6.08166 20.9981 7H3.00189C3.00713 6.08166 3.02686 5.3923 3.10092 4.84144C3.19585 4.13538 3.36322 3.80836 3.58579 3.58579ZM3 9V16C3 17.4425 3.00213 18.4238 3.10092 19.1586C3.19585 19.8646 3.36322 20.1916 3.58579 20.4142C3.80836 20.6368 4.13538 20.8042 4.84144 20.8991C5.57626 20.9979 6.55752 21 8 21H16C17.4425 21 18.4238 20.9979 19.1586 20.8991C19.8646 20.8042 20.1916 20.6368 20.4142 20.4142C20.6368 20.1916 20.8042 19.8646 20.8991 19.1586C20.9979 18.4238 21 17.4425 21 16V9H3Z" fill="#080809" style="fill:#080809;fill:color(display-p3 0.0314 0.0314 0.0353);fill-opacity:1;"/>
</svg>
