<svg width="24" height="24" viewBox="0 0 24 24" fill="none" xmlns="http://www.w3.org/2000/svg">
<path fill-rule="evenodd" clip-rule="evenodd" d="M12.5218 0.500006L9.92943 0.500001C8.57536 0.499969 7.45868 0.499943 6.57494 0.618758C5.64711 0.743501 4.82769 1.01547 4.17158 1.67158C3.51547 2.32769 3.2435 3.14711 3.11876 4.07494C2.99994 4.95868 2.99997 6.07526 3 7.42933V16.5706C2.99997 17.9247 2.99994 19.0413 3.11876 19.9251C3.2435 20.8529 3.51547 21.6723 4.17158 22.3284C4.82769 22.9845 5.64711 23.2565 6.57494 23.3813C7.45869 23.5001 8.57529 23.5 9.9294 23.5H14.0706C15.4246 23.5 16.5413 23.5001 17.4251 23.3813C18.3529 23.2565 19.1723 22.9845 19.8284 22.3284C20.4845 21.6723 20.7565 20.8529 20.8813 19.9251C21.0001 19.0413 21 17.9247 21 16.5706L21 11.1865C21 10.8667 20.847 10.5662 20.5885 10.378C20.3299 10.1898 19.9969 10.1366 19.6926 10.2349C19.1607 10.4068 18.5922 10.5 18 10.5C14.9624 10.5 12.5 8.03757 12.5 5.00001C12.5 3.90811 12.8172 2.89335 13.364 2.03919C13.5611 1.7314 13.5745 1.34062 13.3991 1.02C13.2237 0.699383 12.8873 0.500006 12.5218 0.500006ZM8 13C7.44772 13 7 13.4477 7 14C7 14.5523 7.44772 15 8 15H16C16.5523 15 17 14.5523 17 14C17 13.4477 16.5523 13 16 13H8ZM8 18C7.44772 18 7 18.4477 7 19C7 19.5523 7.44772 20 8 20H13C13.5523 20 14 19.5523 14 19C14 18.4477 13.5523 18 13 18H8Z" fill="#080809" style="fill:#080809;fill:color(display-p3 0.0314 0.0314 0.0353);fill-opacity:1;"/>
<path d="M17.0506 1.60465C17.4268 0.79845 18.5732 0.798454 18.9495 1.60465L19.1639 2.06402C19.5281 2.84454 20.1555 3.47193 20.9361 3.8362L21.3954 4.05059C22.2016 4.42684 22.2016 5.57323 21.3954 5.94948L20.9361 6.16387C20.1555 6.52814 19.5281 7.15553 19.1639 7.93605L18.9495 8.39542C18.5732 9.20162 17.4268 9.20162 17.0506 8.39542L16.8362 7.93605C16.4719 7.15553 15.8445 6.52814 15.064 6.16387L14.6046 5.94948C13.7984 5.57323 13.7985 4.42684 14.6046 4.05059L15.064 3.8362C15.8445 3.47193 16.4719 2.84454 16.8362 2.06402L17.0506 1.60465Z" fill="#080809" style="fill:#080809;fill:color(display-p3 0.0314 0.0314 0.0353);fill-opacity:1;"/>
</svg>
