<svg width="24" height="24" viewBox="0 0 24 24" fill="none" xmlns="http://www.w3.org/2000/svg">
<path fill-rule="evenodd" clip-rule="evenodd" d="M10.6284 0.952849C11.4611 0.406343 12.5389 0.406341 13.3716 0.952849L19.8716 5.21847C20.5758 5.68061 21 6.46629 21 7.30859V9.04903C22.1411 9.28067 23 10.2895 23 11.499V20.499C23 21.8797 21.8807 22.999 20.5 22.999H3.5C2.11929 22.999 1 21.8797 1 20.499V11.499C1 10.2895 1.85888 9.28067 3 9.04903V7.30859C3 6.46629 3.42415 5.68061 4.12836 5.21847L10.6284 0.952849ZM19 7.49902H5V8.99881H19V7.49902ZM8 13.999C8 13.4467 7.55228 12.999 7 12.999C6.44772 12.999 6 13.4467 6 13.999V20.999H8V13.999ZM12 12.999C12.5523 12.999 13 13.4467 13 13.999V20.999H11V13.999C11 13.4467 11.4477 12.999 12 12.999ZM17 12.999C17.5523 12.999 18 13.4467 18 13.999V20.999H16V13.999C16 13.4467 16.4477 12.999 17 12.999Z" fill="#080809" style="fill:#080809;fill:color(display-p3 0.0314 0.0314 0.0353);fill-opacity:1;"/>
</svg>
