<svg width="24" height="24" viewBox="0 0 24 24" fill="none" xmlns="http://www.w3.org/2000/svg">
<path d="M5.58132 8.18622C5.1319 7.86521 4.50735 7.96931 4.18634 8.41872C3.86534 8.86813 3.96943 9.49268 4.41884 9.81369L7.97848 12.3563C8.78125 12.9297 9.4514 13.4084 10.0422 13.7368C10.6666 14.0837 11.288 14.3136 12 14.3137C12.712 14.3139 13.3335 14.0842 13.958 13.7375C14.549 13.4094 15.2193 12.9309 16.0223 12.3578L19.581 9.81781C20.0305 9.49697 20.1349 8.87246 19.814 8.42292C19.4932 7.97339 18.8687 7.86907 18.4191 8.18991L14.9061 10.6972C14.0456 11.3114 13.4672 11.7224 12.9872 11.9889C12.5295 12.2431 12.2495 12.3138 12.0004 12.3137C11.7513 12.3137 11.4713 12.2429 11.0137 11.9886C10.5338 11.7218 9.95557 11.3107 9.09525 10.6962L5.58132 8.18622Z" fill="#080809" style="fill:#080809;fill:color(display-p3 0.0314 0.0314 0.0353);fill-opacity:1;"/>
<path fill-rule="evenodd" clip-rule="evenodd" d="M14.5732 3H9.42684C7.60339 2.99997 6.13362 2.99995 4.97767 3.15537C3.77752 3.31672 2.76702 3.66191 1.96447 4.46447C1.16191 5.26702 0.816721 6.27752 0.655366 7.47767C0.499952 8.63362 0.499974 10.1034 0.500001 11.9268V12.0732C0.499974 13.8966 0.499952 15.3664 0.655366 16.5223C0.816721 17.7225 1.16191 18.733 1.96447 19.5355C2.76702 20.3381 3.77752 20.6833 4.97767 20.8446C6.13363 21.0001 7.6034 21 9.42686 21H14.5731C16.3966 21 17.8664 21.0001 19.0223 20.8446C20.2225 20.6833 21.233 20.3381 22.0355 19.5355C22.8381 18.733 23.1833 17.7225 23.3446 16.5223C23.5001 15.3664 23.5 13.8966 23.5 12.0731V11.9269C23.5 10.1034 23.5001 8.63363 23.3446 7.47767C23.1833 6.27752 22.8381 5.26702 22.0355 4.46447C21.233 3.66191 20.2225 3.31672 19.0223 3.15537C17.8664 2.99995 16.3966 2.99997 14.5732 3ZM3.37868 5.87868C3.7477 5.50966 4.2658 5.26907 5.24416 5.13753C6.2513 5.00213 7.58611 5 9.5 5H14.5C16.4139 5 17.7487 5.00213 18.7558 5.13753C19.7342 5.26907 20.2523 5.50966 20.6213 5.87868C20.9903 6.2477 21.2309 6.7658 21.3625 7.74416C21.4979 8.7513 21.5 10.0861 21.5 12C21.5 13.9139 21.4979 15.2487 21.3625 16.2558C21.2309 17.2342 20.9903 17.7523 20.6213 18.1213C20.2523 18.4903 19.7342 18.7309 18.7558 18.8625C17.7487 18.9979 16.4139 19 14.5 19H9.5C7.58611 19 6.2513 18.9979 5.24416 18.8625C4.26579 18.7309 3.7477 18.4903 3.37868 18.1213C3.00966 17.7523 2.76907 17.2342 2.63753 16.2558C2.50213 15.2487 2.5 13.9139 2.5 12C2.5 10.0861 2.50213 8.7513 2.63753 7.74416C2.76907 6.7658 3.00966 6.2477 3.37868 5.87868Z" fill="#080809" style="fill:#080809;fill:color(display-p3 0.0314 0.0314 0.0353);fill-opacity:1;"/>
</svg>
