<svg width="24" height="24" viewBox="0 0 24 24" fill="none" xmlns="http://www.w3.org/2000/svg">
<path fill-rule="evenodd" clip-rule="evenodd" d="M11.6838 0.551317C11.889 0.482894 12.111 0.482894 12.3162 0.551317L21.3162 3.55132C21.7246 3.68743 22 4.06957 22 4.5V13.5C22 19.0228 17.5228 23.5 12 23.5C6.47715 23.5 2 19.0228 2 13.5V4.5C2 4.06957 2.27543 3.68743 2.68377 3.55132L11.6838 0.551317ZM11.9999 7.5C12.4038 7.5 12.7681 7.74301 12.9232 8.11597L13.6144 9.77781L15.4085 9.92164C15.8111 9.95392 16.1548 10.2253 16.2796 10.6094C16.4045 10.9936 16.2859 11.4151 15.9791 11.6779L14.6122 12.8488L15.0298 14.5995C15.1236 14.9924 14.9717 15.4032 14.6449 15.6406C14.3181 15.878 13.8806 15.8955 13.5359 15.685L11.9999 14.7468L10.4639 15.685C10.1192 15.8955 9.68164 15.878 9.35485 15.6406C9.02806 15.4032 8.8762 14.9924 8.96993 14.5995L9.38754 12.8488L8.02063 11.6779C7.71386 11.4151 7.59531 10.9936 7.72013 10.6094C7.84495 10.2253 8.18863 9.95392 8.59127 9.92164L10.3854 9.77781L11.0766 8.11597C11.2317 7.74301 11.596 7.5 11.9999 7.5Z" fill="#080809" style="fill:#080809;fill:color(display-p3 0.0314 0.0314 0.0353);fill-opacity:1;"/>
</svg>
