<svg width="24" height="24" viewBox="0 0 24 24" fill="none" xmlns="http://www.w3.org/2000/svg">
<path d="M17.2688 3.00143C16.022 2.97781 14.9006 3.24605 13.8667 3.88616C13.188 4.30638 12.5753 4.86935 11.9998 5.56478C11.4242 4.86945 10.8113 4.30694 10.1324 3.88728C9.09829 3.24813 7.97708 2.98114 6.73101 3.00471C3.54459 3.065 0.438622 5.55948 0.500922 9.67016C0.542421 12.5472 2.06638 15.101 4.05983 17.227C6.06158 19.3618 8.63245 21.1692 10.9924 22.5692C11.6138 22.9379 12.386 22.9379 13.0075 22.5692C15.3674 21.1692 17.9383 19.3618 19.9401 17.227C21.9337 15.1009 23.4578 12.5469 23.4991 9.66971C23.5612 5.56056 20.4559 3.06181 17.2688 3.00143Z" fill="#080809" style="fill:#080809;fill:color(display-p3 0.0314 0.0314 0.0353);fill-opacity:1;"/>
<path d="M23.2322 17.2314C23.6567 17.5847 23.7145 18.2152 23.3612 18.6397C22.9953 19.0794 22.6179 19.4964 22.237 19.8901C21.2128 20.9491 20.0893 21.9185 18.9446 22.7942C18.506 23.1298 17.8784 23.0463 17.5428 22.6077C17.2072 22.169 17.2907 21.5414 17.7293 21.2058C18.8119 20.3776 19.8575 19.4735 20.7994 18.4997C21.149 18.1383 21.4928 17.7583 21.8239 17.3604C22.1772 16.9358 22.8077 16.8781 23.2322 17.2314Z" fill="#080809" style="fill:#080809;fill:color(display-p3 0.0314 0.0314 0.0353);fill-opacity:1;"/>
<path d="M2.17883 17.3604C1.82555 16.9358 1.19502 16.8781 0.77051 17.2314C0.345997 17.5847 0.288253 18.2152 0.641534 18.6397C1.00743 19.0794 1.38488 19.4964 1.76575 19.8901C2.78998 20.9491 3.91348 21.9185 5.05814 22.7942C5.49676 23.1298 6.1244 23.0463 6.45999 22.6077C6.79558 22.169 6.71206 21.5414 6.27343 21.2058C5.19089 20.3776 4.1452 19.4735 3.20334 18.4997C2.85378 18.1383 2.50999 17.7583 2.17883 17.3604Z" fill="#080809" style="fill:#080809;fill:color(display-p3 0.0314 0.0314 0.0353);fill-opacity:1;"/>
</svg>
