<svg width="24" height="24" viewBox="0 0 24 24" fill="none" xmlns="http://www.w3.org/2000/svg">
<path fill-rule="evenodd" clip-rule="evenodd" d="M7.42943 3H16.5706C17.9247 2.99997 19.0413 2.99994 19.9251 3.11876C20.8529 3.2435 21.6723 3.51547 22.3284 4.17158C22.9845 4.82769 23.2565 5.64711 23.3813 6.57494C23.5001 7.45868 23.5 8.57526 23.5 9.92933V14.0705C23.5 15.4246 23.5001 16.5413 23.3813 17.4251C23.2565 18.3529 22.9845 19.1723 22.3284 19.8284C21.6723 20.4845 20.8529 20.7565 19.9251 20.8813C19.0413 21.0001 17.9247 21 16.5707 21H7.42946C6.07539 21 4.95867 21.0001 4.07494 20.8813C3.14711 20.7565 2.32769 20.4845 1.67158 19.8284C1.01547 19.1723 0.743499 18.3529 0.618756 17.4251C0.499939 16.5413 0.499967 15.4247 0.500001 14.0706V9.92943C0.499967 8.57533 0.499939 7.45869 0.618756 6.57494C0.743499 5.64711 1.01547 4.82769 1.67158 4.17158C2.32769 3.51547 3.14711 3.2435 4.07494 3.11876C4.95869 2.99994 6.07533 2.99997 7.42943 3ZM4.34144 5.10092C3.63538 5.19585 3.30836 5.36322 3.08579 5.58579C2.86322 5.80836 2.69585 6.13538 2.60092 6.84144C2.50213 7.57626 2.5 8.55752 2.5 10V12H4.62869C4.22303 11.4618 4 10.803 4 10.1213C4 8.39745 5.39748 7 7.12132 7C7.80305 7 8.4618 7.22303 9 7.62868V5H7.5C6.05752 5 5.07626 5.00213 4.34144 5.10092ZM7.95956 9.37377C8.62574 10.04 9 10.9435 9 11.8856V11.9999H8.88555C7.94346 11.9999 7.03996 11.6257 6.37379 10.9595L6.32844 10.9142C6.11814 10.7039 6 10.4187 6 10.1213C6 9.50203 6.50203 9 7.12132 9C7.41871 9 7.70393 9.11814 7.91421 9.32843L7.95956 9.37377ZM15.3713 12L21.5 12V10C21.5 8.55752 21.4979 7.57626 21.3991 6.84144C21.3042 6.13538 21.1368 5.80836 20.9142 5.58579C20.6916 5.36322 20.3646 5.19585 19.6586 5.10092C18.9238 5.00213 17.9425 5 16.5 5H11V7.62868C11.5382 7.22303 12.1969 7 12.8787 7C14.6025 7 16 8.39745 16 10.1213C16 10.8031 15.777 11.4618 15.3713 12ZM7.58579 14L2.5 14C2.5 15.4425 2.50213 16.4238 2.60092 17.1586C2.69585 17.8646 2.86322 18.1916 3.08579 18.4142C3.30836 18.6368 3.63538 18.8042 4.34144 18.8991C5.07626 18.9979 6.05752 19 7.5 19H9V15.4142L7.20711 17.2071C6.81658 17.5976 6.18342 17.5976 5.79289 17.2071C5.40237 16.8166 5.40237 16.1834 5.79289 15.7929L7.58579 14ZM14.2071 15.7929L12.4142 14L21.5 14C21.5 15.4425 21.4979 16.4238 21.3991 17.1586C21.3042 17.8646 21.1368 18.1916 20.9142 18.4142C20.6916 18.6368 20.3646 18.8042 19.6586 18.8991C18.9238 18.9979 17.9425 19 16.5 19H11V15.4142L12.7929 17.2071C13.1834 17.5976 13.8166 17.5976 14.2071 17.2071C14.5976 16.8166 14.5976 16.1834 14.2071 15.7929ZM12.0858 9.32843C12.2961 9.11814 12.5813 9 12.8787 9C13.498 9 14 9.50203 14 10.1213C14 10.4187 13.8819 10.7039 13.6716 10.9142L13.6262 10.9595C12.96 11.6257 12.0565 11.9999 11.1145 11.9999H11V11.8856C11 10.9435 11.3743 10.04 12.0404 9.37377L12.0858 9.32843Z" fill="#080809" style="fill:#080809;fill:color(display-p3 0.0314 0.0314 0.0353);fill-opacity:1;"/>
</svg>
