<svg width="24" height="24" viewBox="0 0 24 24" fill="none" xmlns="http://www.w3.org/2000/svg">
<path d="M18 16.0002C18.5523 16.0002 19 16.4479 19 17.0002C19 17.5525 18.5523 18.0002 18 18.0002H10C9.44772 18.0002 9 17.5525 9 17.0002C9 16.4479 9.44772 16.0002 10 16.0002H18Z" fill="#080809" style="fill:#080809;fill:color(display-p3 0.0314 0.0314 0.0353);fill-opacity:1;"/>
<path d="M19 13.0002C19 12.4479 18.5523 12.0002 18 12.0002H10C9.44772 12.0002 9 12.4479 9 13.0002C9 13.5525 9.44772 14.0002 10 14.0002H18C18.5523 14.0002 19 13.5525 19 13.0002Z" fill="#080809" style="fill:#080809;fill:color(display-p3 0.0314 0.0314 0.0353);fill-opacity:1;"/>
<path d="M10 5C9.44772 5 9 5.44772 9 6V9C9 9.55228 9.44772 10 10 10H18C18.5523 10 19 9.55228 19 9V6C19 5.44772 18.5523 5 18 5H10Z" fill="#080809" style="fill:#080809;fill:color(display-p3 0.0314 0.0314 0.0353);fill-opacity:1;"/>
<path fill-rule="evenodd" clip-rule="evenodd" d="M4 23.0002H14.0731C15.8966 23.0002 17.3664 23.0003 18.5223 22.8448C19.7225 22.6835 20.733 22.3383 21.5355 21.5357C22.3381 20.7332 22.6833 19.7227 22.8446 18.5225C23 17.3666 23 15.8969 23 14.0734L23 3.50021C23 2.11949 21.8807 1.00021 20.5 1.00021H8L7.90693 1.0001C7.5382 0.999489 7.17579 0.998886 6.85295 1.08539C5.99022 1.31656 5.31635 1.99043 5.08519 2.85316C4.99868 3.176 4.99928 3.53841 4.9999 3.90713L5 4.00021V6.00021H3.5C2.11929 6.00021 1 7.11949 1 8.50021V20.0002C1 21.6571 2.34315 23.0002 4 23.0002ZM8 3.00021C7.75844 3.00021 7.61063 3.00045 7.49861 3.00556C7.39195 3.01042 7.36685 3.01824 7.37059 3.01724C7.19804 3.06348 7.06327 3.19825 7.01704 3.3708C7.0162 3.3743 7.00963 3.40503 7.00535 3.49881C7.00024 3.61084 7 3.75865 7 4.00021V20.0002C7 20.3508 6.93985 20.6874 6.82929 21.0002H14C15.9139 21.0002 17.2487 20.9981 18.2558 20.8627C19.2342 20.7311 19.7523 20.4905 20.1213 20.1215C20.4903 19.7525 20.7309 19.2344 20.8625 18.256C20.9979 17.2489 21 15.9141 21 14.0002V3.50021C21 3.22406 20.7761 3.00021 20.5 3.00021H8ZM5 8.00021H3.5C3.22386 8.00021 3 8.22406 3 8.50021V20.0002C3 20.5525 3.44772 21.0002 4 21.0002C4.55228 21.0002 5 20.5525 5 20.0002V8.00021Z" fill="#080809" style="fill:#080809;fill:color(display-p3 0.0314 0.0314 0.0353);fill-opacity:1;"/>
</svg>
