<svg width="24" height="24" viewBox="0 0 24 24" fill="none" xmlns="http://www.w3.org/2000/svg">
<path fill-rule="evenodd" clip-rule="evenodd" d="M7 0.5C6.44772 0.5 6 0.947715 6 1.5V4C4.89543 4 4 4.89543 4 6V7H3.5C2.11929 7 1 8.11929 1 9.5V20.5C1 21.8807 2.11929 23 3.5 23H17L17.0199 22.9998H20.5C21.8807 22.9998 23 21.8805 23 20.4998V6.01536C23 4.99309 22.3776 4.07382 21.4285 3.69416L14.4285 0.894164C12.7863 0.2373 11 1.44669 11 3.21536V7H10V6C10 4.89543 9.10457 4 8 4V1.5C8 0.947715 7.55228 0.5 7 0.5ZM3.5 9H6.05001C6.01722 9.16156 6 9.32877 6 9.5V21H3.5C3.22386 21 3 20.7761 3 20.5V9.5C3 9.22386 3.22386 9 3.5 9ZM13.6857 2.75112C13.3573 2.61974 13 2.86162 13 3.21536V7H15.5C16.8807 7 18 8.11929 18 9.5V20.9998H20.5C20.7761 20.9998 21 20.7759 21 20.4998V6.01536C21 5.8109 20.8755 5.62705 20.6857 5.55112L13.6857 2.75112ZM10 12C10 11.4477 10.4477 11 11 11H13C13.5523 11 14 11.4477 14 12C14 12.5523 13.5523 13 13 13H11C10.4477 13 10 12.5523 10 12ZM10 15.5C10 14.9477 10.4477 14.5 11 14.5H13C13.5523 14.5 14 14.9477 14 15.5C14 16.0523 13.5523 16.5 13 16.5H11C10.4477 16.5 10 16.0523 10 15.5Z" fill="#080809" style="fill:#080809;fill:color(display-p3 0.0314 0.0314 0.0353);fill-opacity:1;"/>
</svg>
