<svg width="24" height="24" viewBox="0 0 24 24" fill="none" xmlns="http://www.w3.org/2000/svg">
<path d="M6 6C6 3.23858 8.23858 1 11 1C13.7614 1 16 3.23858 16 6C16 8.76142 13.7614 11 11 11C8.23858 11 6 8.76142 6 6Z" fill="#080809" style="fill:#080809;fill:color(display-p3 0.0314 0.0314 0.0353);fill-opacity:1;"/>
<path d="M2 19.3333C2 15.8355 4.83553 13 8.33333 13H13.4098C13.8042 13 14.1617 13.2318 14.3227 13.5919C14.4837 13.952 14.4179 14.373 14.1549 14.6669C13.125 15.8176 12.5 17.3346 12.5 19C12.5 19.9263 12.6931 20.8048 13.0404 21.5996C13.1755 21.9088 13.1456 22.2652 12.9608 22.5476C12.7761 22.8299 12.4614 23 12.1241 23H5.66667C3.64162 23 2 21.3584 2 19.3333Z" fill="#080809" style="fill:#080809;fill:color(display-p3 0.0314 0.0314 0.0353);fill-opacity:1;"/>
<path d="M20 15.5C20 14.9477 19.5523 14.5 19 14.5C18.4477 14.5 18 14.9477 18 15.5V18H15.5C14.9477 18 14.5 18.4477 14.5 19C14.5 19.5523 14.9477 20 15.5 20H18V22.5C18 23.0523 18.4477 23.5 19 23.5C19.5523 23.5 20 23.0523 20 22.5V20H22.5C23.0523 20 23.5 19.5523 23.5 19C23.5 18.4477 23.0523 18 22.5 18H20V15.5Z" fill="#080809" style="fill:#080809;fill:color(display-p3 0.0314 0.0314 0.0353);fill-opacity:1;"/>
</svg>
