<svg width="24" height="24" viewBox="0 0 24 24" fill="none" xmlns="http://www.w3.org/2000/svg">
<path fill-rule="evenodd" clip-rule="evenodd" d="M6 4C6 3.44772 5.55228 3 5 3C4.44772 3 4 3.44772 4 4V20C4 20.5523 4.44772 21 5 21C5.55228 21 6 20.5523 6 20V14.3094L16.25 20.2272C17.9167 21.1895 20 19.9867 20 18.0622V5.93781C20 4.01331 17.9167 2.8105 16.25 3.77275L6 9.69059V4ZM6.75 11.567C6.41667 11.7594 6.41667 12.2406 6.75 12.433L17.25 18.4952C17.5833 18.6876 18 18.4471 18 18.0622L18 5.93781C18 5.55291 17.5833 5.31235 17.25 5.5048L6.75 11.567Z" fill="#080809" style="fill:#080809;fill:color(display-p3 0.0314 0.0314 0.0353);fill-opacity:1;"/>
</svg>
