<svg width="24" height="24" viewBox="0 0 24 24" fill="none" xmlns="http://www.w3.org/2000/svg">
<path fill-rule="evenodd" clip-rule="evenodd" d="M15 4.5C15 3.11929 13.8807 2 12.5 2H11.5C10.1193 2 9 3.11929 9 4.5V19.5C9 20.8807 10.1193 22 11.5 22H12.5C13.8807 22 15 20.8807 15 19.5V4.5ZM12.5 4C12.7761 4 13 4.22386 13 4.5V19.5C13 19.7761 12.7761 20 12.5 20H11.5C11.2239 20 11 19.7761 11 19.5V4.5C11 4.22386 11.2239 4 11.5 4H12.5Z" fill="#080809" style="fill:#080809;fill:color(display-p3 0.0314 0.0314 0.0353);fill-opacity:1;"/>
<path fill-rule="evenodd" clip-rule="evenodd" d="M23 14.5C23 13.1193 21.8807 12 20.5 12H19.5C18.1193 12 17 13.1193 17 14.5V19.5C17 20.8807 18.1193 22 19.5 22H20.5C21.8807 22 23 20.8807 23 19.5V14.5ZM20.5 14C20.7761 14 21 14.2239 21 14.5V19.5C21 19.7761 20.7761 20 20.5 20H19.5C19.2239 20 19 19.7761 19 19.5V14.5C19 14.2239 19.2239 14 19.5 14H20.5Z" fill="#080809" style="fill:#080809;fill:color(display-p3 0.0314 0.0314 0.0353);fill-opacity:1;"/>
<path fill-rule="evenodd" clip-rule="evenodd" d="M4.5 7C5.88071 7 7 8.11929 7 9.5V19.5C7 20.8807 5.88071 22 4.5 22H3.5C2.11929 22 1 20.8807 1 19.5V9.5C1 8.11929 2.11929 7 3.5 7H4.5ZM5 9.5C5 9.22386 4.77614 9 4.5 9H3.5C3.22386 9 3 9.22386 3 9.5V19.5C3 19.7761 3.22386 20 3.5 20H4.5C4.77614 20 5 19.7761 5 19.5V9.5Z" fill="#080809" style="fill:#080809;fill:color(display-p3 0.0314 0.0314 0.0353);fill-opacity:1;"/>
</svg>
