<svg width="24" height="24" viewBox="0 0 24 24" fill="none" xmlns="http://www.w3.org/2000/svg">
<path fill-rule="evenodd" clip-rule="evenodd" d="M20.9832 4.38214C21.9725 4.64829 22.7518 5.43251 23.0162 6.4284C23.4968 8.23333 23.4968 11.9993 23.4968 11.9993C23.4968 11.9993 23.4968 15.7653 23.0162 17.5703C22.7518 18.566 21.9725 19.3504 20.9832 19.6165C19.1899 20.1002 11.9989 20.1002 11.9989 20.1002C11.9989 20.1002 4.80786 20.1002 3.01458 19.6165C2.02523 19.3504 1.24599 18.5661 0.981537 17.5703C0.500977 15.7653 0.500977 11.9993 0.500977 11.9993C0.500977 11.9993 0.500977 8.23333 0.981537 6.4284C1.24599 5.43264 2.02523 4.64829 3.01458 4.38214C4.80786 3.89844 11.9989 3.89844 11.9989 3.89844C11.9989 3.89844 19.1899 3.89844 20.9832 4.38214ZM15.6577 11.9996L9.64747 15.4187V8.58025L15.6577 11.9996Z" fill="#080809" style="fill:#080809;fill:color(display-p3 0.0314 0.0314 0.0353);fill-opacity:1;"/>
</svg>
