<svg width="24" height="24" viewBox="0 0 24 24" fill="none" xmlns="http://www.w3.org/2000/svg">
<g clip-path="url(#clip0_29901_28288)">
<path fill-rule="evenodd" clip-rule="evenodd" d="M0.5 12C0.5 5.64873 5.64873 0.5 12 0.5C18.3513 0.5 23.5 5.64873 23.5 12C23.5 18.3513 18.3513 23.5 12 23.5C10.0782 23.5 8.26373 23.0278 6.66917 22.1922C6.50272 22.105 6.34411 22.092 6.22347 22.1233L2.82376 23.0047C1.71647 23.2918 0.708248 22.2835 0.995321 21.1762L1.87673 17.7765C1.908 17.6559 1.89499 17.4973 1.80777 17.3308C0.972204 15.7363 0.5 13.9218 0.5 12ZM12 5.75C12.6904 5.75 13.25 6.30964 13.25 7V10.75H17C17.6904 10.75 18.25 11.3096 18.25 12C18.25 12.6904 17.6904 13.25 17 13.25H13.25V17C13.25 17.6904 12.6904 18.25 12 18.25C11.3096 18.25 10.75 17.6904 10.75 17V13.25H7C6.30964 13.25 5.75 12.6904 5.75 12C5.75 11.3096 6.30964 10.75 7 10.75H10.75V7C10.75 6.30964 11.3096 5.75 12 5.75Z" fill="#080809" style="fill:#080809;fill:color(display-p3 0.0314 0.0314 0.0353);fill-opacity:1;"/>
</g>
<defs>
<clipPath id="clip0_29901_28288">
<rect width="24" height="24" fill="white" style="fill:white;fill-opacity:1;"/>
</clipPath>
</defs>
</svg>
