<svg width="24" height="24" viewBox="0 0 24 24" fill="none" xmlns="http://www.w3.org/2000/svg">
<g clip-path="url(#clip0_29901_28025)">
<path d="M21.25 12C21.25 6.89137 17.1086 2.75 12 2.75C9.30186 2.75 6.87271 3.90467 5.18066 5.75H6C6.69036 5.75 7.25 6.30964 7.25 7C7.25 7.69036 6.69036 8.25 6 8.25H2.5C1.5335 8.25 0.75 7.4665 0.75 6.5V3C0.75 2.30964 1.30964 1.75 2 1.75C2.69036 1.75 3.25 2.30964 3.25 3V4.15783C5.40013 1.76054 8.5233 0.25 12 0.25C18.4893 0.25 23.75 5.51065 23.75 12C23.75 18.4893 18.4893 23.75 12 23.75C5.51065 23.75 0.25 18.4893 0.25 12C0.25 11.3096 0.809645 10.75 1.5 10.75C2.19036 10.75 2.75 11.3096 2.75 12C2.75 17.1086 6.89137 21.25 12 21.25C17.1086 21.25 21.25 17.1086 21.25 12Z" fill="#080809" style="fill:#080809;fill:color(display-p3 0.0314 0.0314 0.0353);fill-opacity:1;"/>
</g>
<defs>
<clipPath id="clip0_29901_28025">
<rect width="24" height="24" fill="white" style="fill:white;fill-opacity:1;"/>
</clipPath>
</defs>
</svg>
