<svg width="24" height="24" viewBox="0 0 24 24" fill="none" xmlns="http://www.w3.org/2000/svg">
<path fill-rule="evenodd" clip-rule="evenodd" d="M4.07494 3.11876C4.95868 2.99994 6.07527 2.99997 7.42936 3H16.5706L19.9251 3.11876C20.8529 3.2435 21.6723 3.51547 22.3284 4.17158C22.9845 4.82769 23.2565 5.64711 23.3813 6.57494C23.5001 7.45866 23.5 8.57522 23.5 9.92927V12.0705C23.5 13.4246 23.5001 14.5413 23.3813 15.4251C23.2565 16.3529 22.9845 17.1723 22.3284 17.8284C21.6723 18.4845 20.8529 18.7565 19.9251 18.8813C19.0413 19.0001 17.9247 19 16.5706 19H7.42943C6.07531 19 4.9587 19.0001 4.07494 18.8813C3.14711 18.7565 2.32769 18.4845 1.67158 17.8284C1.01547 17.1723 0.743501 16.3529 0.618757 15.4251C0.499941 14.5413 0.499968 13.4247 0.500001 12.0706V9.92943C0.499968 8.57535 0.499941 7.45868 0.618757 6.57494C0.7435 5.64711 1.01547 4.82769 1.67158 4.17158C2.32769 3.51547 3.14711 3.2435 4.07494 3.11876ZM20 14.5C20 15.0523 19.5523 15.5 19 15.5C18.4477 15.5 18 15.0523 18 14.5C18 13.9477 18.4477 13.5 19 13.5C19.5523 13.5 20 13.9477 20 14.5ZM15.5 15.5C16.0523 15.5 16.5 15.0523 16.5 14.5C16.5 13.9477 16.0523 13.5 15.5 13.5C14.9477 13.5 14.5 13.9477 14.5 14.5C14.5 15.0523 14.9477 15.5 15.5 15.5Z" fill="#080809" style="fill:#080809;fill:color(display-p3 0.0314 0.0314 0.0353);fill-opacity:1;"/>
<path d="M5 20.5C4.44772 20.5 4 20.9477 4 21.5C4 22.0523 4.44772 22.5 5 22.5H19C19.5523 22.5 20 22.0523 20 21.5C20 20.9477 19.5523 20.5 19 20.5H5Z" fill="#080809" style="fill:#080809;fill:color(display-p3 0.0314 0.0314 0.0353);fill-opacity:1;"/>
</svg>
