<svg width="24" height="24" viewBox="0 0 24 24" fill="none" xmlns="http://www.w3.org/2000/svg">
<path fill-rule="evenodd" clip-rule="evenodd" d="M7.2998 14.9707C9.2328 14.9707 10.7998 16.5377 10.7998 18.4707C10.7998 20.4037 9.2328 21.9707 7.2998 21.9707C5.36681 21.9707 3.7998 20.4037 3.7998 18.4707C3.7998 16.5377 5.36681 14.9707 7.2998 14.9707ZM7.2998 16.9707C6.47138 16.9707 5.7998 17.6423 5.7998 18.4707C5.7998 19.2991 6.47138 19.9707 7.2998 19.9707C8.12823 19.9707 8.7998 19.2991 8.7998 18.4707C8.7998 17.6423 8.12823 16.9707 7.2998 16.9707Z" fill="#080809" style="fill:#080809;fill:color(display-p3 0.0314 0.0314 0.0353);fill-opacity:1;"/>
<path fill-rule="evenodd" clip-rule="evenodd" d="M16.7002 14.9707C18.6332 14.9707 20.2002 16.5377 20.2002 18.4707C20.2002 20.4037 18.6332 21.9707 16.7002 21.9707C14.7672 21.9707 13.2002 20.4037 13.2002 18.4707C13.2002 16.5377 14.7672 14.9707 16.7002 14.9707ZM16.7002 16.9707C15.8718 16.9707 15.2002 17.6423 15.2002 18.4707C15.2002 19.2991 15.8718 19.9707 16.7002 19.9707C17.5286 19.9707 18.2002 19.2991 18.2002 18.4707C18.2002 17.6423 17.5286 16.9707 16.7002 16.9707Z" fill="#080809" style="fill:#080809;fill:color(display-p3 0.0314 0.0314 0.0353);fill-opacity:1;"/>
<path fill-rule="evenodd" clip-rule="evenodd" d="M4.38965 6.0293C6.32265 6.0293 7.88965 7.5963 7.88965 9.5293C7.88965 11.4623 6.32265 13.0293 4.38965 13.0293C2.45665 13.0293 0.889648 11.4623 0.889648 9.5293C0.889648 7.5963 2.45665 6.0293 4.38965 6.0293ZM4.38965 8.0293C3.56122 8.0293 2.88965 8.70087 2.88965 9.5293C2.88965 10.3577 3.56122 11.0293 4.38965 11.0293C5.21808 11.0293 5.88965 10.3577 5.88965 9.5293C5.88965 8.70087 5.21808 8.0293 4.38965 8.0293Z" fill="#080809" style="fill:#080809;fill:color(display-p3 0.0314 0.0314 0.0353);fill-opacity:1;"/>
<path fill-rule="evenodd" clip-rule="evenodd" d="M19.6104 6.0293C21.5433 6.0293 23.1104 7.5963 23.1104 9.5293C23.1104 11.4623 21.5433 13.0293 19.6104 13.0293C17.6774 13.0293 16.1104 11.4623 16.1104 9.5293C16.1104 7.5963 17.6774 6.0293 19.6104 6.0293ZM19.6104 8.0293C18.7819 8.0293 18.1104 8.70087 18.1104 9.5293C18.1104 10.3577 18.7819 11.0293 19.6104 11.0293C20.4388 11.0293 21.1104 10.3577 21.1104 9.5293C21.1104 8.70087 20.4388 8.0293 19.6104 8.0293Z" fill="#080809" style="fill:#080809;fill:color(display-p3 0.0314 0.0314 0.0353);fill-opacity:1;"/>
<path fill-rule="evenodd" clip-rule="evenodd" d="M12 0.5C13.933 0.5 15.5 2.067 15.5 4C15.5 5.933 13.933 7.5 12 7.5C10.067 7.5 8.5 5.933 8.5 4C8.5 2.067 10.067 0.5 12 0.5ZM12 2.5C11.1716 2.5 10.5 3.17157 10.5 4C10.5 4.82843 11.1716 5.5 12 5.5C12.8284 5.5 13.5 4.82843 13.5 4C13.5 3.17157 12.8284 2.5 12 2.5Z" fill="#080809" style="fill:#080809;fill:color(display-p3 0.0314 0.0314 0.0353);fill-opacity:1;"/>
</svg>
