<svg width="24" height="24" viewBox="0 0 24 24" fill="none" xmlns="http://www.w3.org/2000/svg">
<path fill-rule="evenodd" clip-rule="evenodd" d="M5.04786 9.17712C5.45515 5.6989 8.4124 3 12 3C14.9008 3 17.3873 4.76388 18.4496 7.27537C21.3669 8.11994 23.5 10.8099 23.5 14C23.5 17.5964 20.7885 20.5585 17.2976 20.955C17.2036 20.9842 17.1036 21 17 21H6C5.88205 21 5.76886 20.9796 5.66379 20.9421C2.74546 20.5347 0.5 18.0301 0.5 15C0.5 12.1868 2.43542 9.82669 5.04786 9.17712ZM8.75 13.5C9.44036 13.5 10 12.9404 10 12.25C10 11.5596 9.44036 11 8.75 11C8.05964 11 7.5 11.5596 7.5 12.25C7.5 12.9404 8.05964 13.5 8.75 13.5ZM16.5 12.25C16.5 12.9404 15.9404 13.5 15.25 13.5C14.5596 13.5 14 12.9404 14 12.25C14 11.5596 14.5596 11 15.25 11C15.9404 11 16.5 11.5596 16.5 12.25ZM9.29289 15.7929C8.90237 16.1834 8.90237 16.8166 9.29289 17.2071C9.68342 17.5976 10.3166 17.5976 10.7071 17.2071C11.4212 16.4931 12.5788 16.4931 13.2929 17.2071C13.6834 17.5976 14.3166 17.5976 14.7071 17.2071C15.0976 16.8166 15.0976 16.1834 14.7071 15.7929C13.212 14.2978 10.788 14.2978 9.29289 15.7929Z" fill="#080809" style="fill:#080809;fill:color(display-p3 0.0314 0.0314 0.0353);fill-opacity:1;"/>
</svg>
