<svg width="24" height="24" viewBox="0 0 24 24" fill="none" xmlns="http://www.w3.org/2000/svg">
<path d="M13.5 5.5C13.5 6.32843 12.8284 7 12 7C11.1716 7 10.5 6.32843 10.5 5.5C10.5 4.67157 11.1716 4 12 4C12.8284 4 13.5 4.67157 13.5 5.5Z" fill="#080809" style="fill:#080809;fill:color(display-p3 0.0314 0.0314 0.0353);fill-opacity:1;"/>
<path d="M11 9C10.4477 9 10 9.44772 10 10C10 10.5523 10.4477 11 11 11H11.5008L11.5008 19C11.5008 19.5523 11.9485 20 12.5008 20C13.0531 20 13.5008 19.5523 13.5008 19V11C13.5008 9.89543 12.6054 9 11.5008 9H11Z" fill="#080809" style="fill:#080809;fill:color(display-p3 0.0314 0.0314 0.0353);fill-opacity:1;"/>
</svg>
