<svg width="24" height="24" viewBox="0 0 24 24" fill="none" xmlns="http://www.w3.org/2000/svg">
<path fill-rule="evenodd" clip-rule="evenodd" d="M12.001 23.5C6.75427 23.5 2.50098 19.2467 2.50098 14C2.50098 10.3174 3.55198 6.98872 5.24249 4.55457C6.92479 2.13225 9.32145 0.5 12.001 0.5C14.6805 0.5 17.0772 2.13225 18.7595 4.55457C20.45 6.98872 21.501 10.3174 21.501 14C21.501 19.2467 17.2477 23.5 12.001 23.5ZM4.50098 14C4.50098 18.1421 7.85884 21.5 12.001 21.5C16.1431 21.5 19.501 18.1421 19.501 14C19.501 12.7947 19.3756 11.6416 19.1472 10.5628L18.3236 11.2217C17.5278 11.8583 16.3806 11.7948 15.66 11.0742L14.5 9.91418L10.4524 13.9618C9.64217 14.772 8.31816 14.7372 7.55161 13.8855L4.80079 10.829C4.60666 11.8306 4.50098 12.8932 4.50098 14ZM5.43172 8.54036L9.0382 12.5476L13.0858 8.49997C13.8668 7.71892 15.1332 7.71892 15.9142 8.49997L17.0742 9.65997L18.5483 8.48069C18.1636 7.43998 17.6772 6.50243 17.1168 5.69543C15.6738 3.61775 13.8205 2.5 12.001 2.5C10.1815 2.5 8.32814 3.61775 6.88519 5.69543C6.31404 6.51782 5.81978 7.4758 5.43172 8.54036Z" fill="#080809" style="fill:#080809;fill:color(display-p3 0.0314 0.0314 0.0353);fill-opacity:1;"/>
</svg>
