<svg width="24" height="24" viewBox="0 0 24 24" fill="none" xmlns="http://www.w3.org/2000/svg">
<path d="M2.70711 1.29289C2.31658 0.902369 1.68342 0.902369 1.29289 1.29289C0.902369 1.68342 0.902369 2.31658 1.29289 2.70711L4.75142 6.16563C4.76803 6.18351 4.78524 6.20071 4.80298 6.2172L10.3267 11.7409C10.3403 11.7553 10.3543 11.7693 10.3687 11.7829L21.2929 22.7071C21.6834 23.0976 22.3166 23.0976 22.7071 22.7071C23.0976 22.3166 23.0976 21.6834 22.7071 21.2929L13.5976 12.1834C14.7684 12.4565 15.8817 13.0343 16.8122 13.916C17.213 14.2959 17.846 14.2789 18.2259 13.878C18.6057 13.4772 18.5887 12.8442 18.1879 12.4643C16.3059 10.6809 13.8425 9.86615 11.4319 10.0177L7.24319 5.82898C12.1482 4.06119 17.8416 5.1202 21.7999 9.00158C22.1942 9.38825 22.8273 9.38204 23.214 8.9877C23.6007 8.59337 23.5945 7.96023 23.2001 7.57356C18.4398 2.90571 11.4887 1.81205 5.70161 4.2874L2.70711 1.29289Z" fill="#080809" style="fill:#080809;fill:color(display-p3 0.0314 0.0314 0.0353);fill-opacity:1;"/>
<path d="M3.23845 6.781C3.58992 7.20701 3.5295 7.83728 3.1035 8.18876C2.79379 8.44428 2.49234 8.71528 2.20015 9.0018C1.80583 9.38848 1.17269 9.38229 0.786007 8.98796C0.399324 8.59363 0.40552 7.9605 0.799848 7.57381C1.13293 7.24719 1.47693 6.93792 1.83069 6.64605C2.2567 6.29457 2.88697 6.35499 3.23845 6.781Z" fill="#080809" style="fill:#080809;fill:color(display-p3 0.0314 0.0314 0.0353);fill-opacity:1;"/>
<path d="M8.28338 11.8426C8.59724 12.297 8.48328 12.9198 8.02884 13.2337C7.73592 13.436 7.45461 13.6634 7.18788 13.9162C6.78702 14.2961 6.15408 14.2792 5.77418 13.8783C5.39427 13.4774 5.41126 12.8445 5.81212 12.4646C6.15381 12.1408 6.51513 11.8485 6.89226 11.588C7.3467 11.2742 7.96952 11.3881 8.28338 11.8426Z" fill="#080809" style="fill:#080809;fill:color(display-p3 0.0314 0.0314 0.0353);fill-opacity:1;"/>
<path d="M10 19C10 17.8954 10.8954 17 12 17C13.1046 17 14 17.8954 14 19C14 20.1046 13.1046 21 12 21C10.8954 21 10 20.1046 10 19Z" fill="#080809" style="fill:#080809;fill:color(display-p3 0.0314 0.0314 0.0353);fill-opacity:1;"/>
</svg>
