<svg width="24" height="24" viewBox="0 0 24 24" fill="none" xmlns="http://www.w3.org/2000/svg">
<path d="M14.286 1.75079C12.7132 0.157745 10 1.27147 10 3.51011V7.0128C6.68372 7.14929 4.17987 8.64553 2.51296 10.9097C0.789377 13.2509 0 16.3519 0 19.5026C0 20.4291 0.755147 20.8862 1.2696 21.0034C1.78571 21.1209 2.59207 21.0361 3.04864 20.3334C3.75465 19.247 4.63182 18.4332 5.79111 17.8804C6.86408 17.3688 8.22692 17.0581 10 17.0093V20.4902C10 22.7289 12.7132 23.8426 14.286 22.2496L22.6683 13.7595C23.6312 12.7843 23.6312 11.2162 22.6683 10.2409L14.286 1.75079Z" fill="#080809" style="fill:#080809;fill:color(display-p3 0.0314 0.0314 0.0353);fill-opacity:1;"/>
</svg>
