<svg width="24" height="24" viewBox="0 0 24 24" fill="none" xmlns="http://www.w3.org/2000/svg">
<path fill-rule="evenodd" clip-rule="evenodd" d="M12 7.5C9.51472 7.5 7.5 9.51472 7.5 12C7.5 14.4853 9.51472 16.5 12 16.5C14.4853 16.5 16.5 14.4853 16.5 12C16.5 9.51472 14.4853 7.5 12 7.5ZM9.5 12C9.5 10.6193 10.6193 9.5 12 9.5C13.3807 9.5 14.5 10.6193 14.5 12C14.5 13.3807 13.3807 14.5 12 14.5C10.6193 14.5 9.5 13.3807 9.5 12Z" fill="#080809" style="fill:#080809;fill:color(display-p3 0.0314 0.0314 0.0353);fill-opacity:1;"/>
<path fill-rule="evenodd" clip-rule="evenodd" d="M11.9998 3C8.68284 3 6.08831 4.54642 4.2302 6.2738C2.37688 7.99674 1.19532 9.95276 0.669593 10.9302C0.308052 11.6024 0.308053 12.3976 0.669594 13.0698C1.19532 14.0472 2.37688 16.0033 4.2302 17.7262C6.08831 19.4536 8.68284 21 11.9998 21C15.3168 21 17.9113 19.4536 19.7694 17.7262C21.6227 16.0033 22.8043 14.0472 23.33 13.0698C23.6916 12.3976 23.6915 11.6024 23.33 10.9302C22.8043 9.95276 21.6227 7.99674 19.7694 6.2738C17.9113 4.54642 15.3168 3 11.9998 3ZM2.43099 11.8776C2.90314 10.9997 3.9621 9.25379 5.59195 7.7386C7.21701 6.22787 9.34829 5 11.9998 5C14.6513 5 16.7826 6.22787 18.4077 7.7386C20.0375 9.25378 21.0965 10.9997 21.5686 11.8776C21.612 11.9583 21.612 12.0417 21.5686 12.1224C21.0965 13.0003 20.0375 14.7462 18.4077 16.2614C16.7826 17.7721 14.6513 19 11.9998 19C9.34829 19 7.21701 17.7721 5.59195 16.2614C3.9621 14.7462 2.90314 13.0003 2.43099 12.1224C2.38759 12.0417 2.38759 11.9583 2.43099 11.8776Z" fill="#080809" style="fill:#080809;fill:color(display-p3 0.0314 0.0314 0.0353);fill-opacity:1;"/>
</svg>
