<svg width="24" height="24" viewBox="0 0 24 24" fill="none" xmlns="http://www.w3.org/2000/svg">
<path d="M15.1163 4.88388C14.6282 4.39573 14.6282 3.60427 15.1163 3.11612C15.6045 2.62796 16.396 2.62796 16.8841 3.11612L19.8235 6.05546C20.8974 7.1294 20.8974 8.8706 19.8235 9.94454L16.8841 12.8839C16.396 13.372 15.6045 13.372 15.1163 12.8839C14.6282 12.3957 14.6282 11.6043 15.1163 11.1161L16.9825 9.25H11C9.55045 9.25 8.58904 9.25266 7.87475 9.34869C7.19642 9.43989 6.93095 9.59419 6.76257 9.76257C6.59419 9.93095 6.43989 10.1964 6.34869 10.8747C6.25266 11.589 6.25 12.5505 6.25 14V20C6.25 20.6904 5.69036 21.25 5 21.25C4.30965 21.25 3.75 20.6904 3.75 20L3.75 13.9148C3.74995 12.5733 3.7499 11.4422 3.87099 10.5416C3.99946 9.58608 4.2845 8.7051 4.9948 7.9948C5.7051 7.2845 6.58608 6.99946 7.54163 6.87099C8.44223 6.7499 9.57331 6.74995 10.9148 6.75L16.9825 6.75L15.1163 4.88388Z" fill="#080809" style="fill:#080809;fill:color(display-p3 0.0314 0.0314 0.0353);fill-opacity:1;"/>
</svg>
