<svg width="24" height="24" viewBox="0 0 24 24" fill="none" xmlns="http://www.w3.org/2000/svg">
<g clip-path="url(#clip0_29901_26722)">
<path d="M17.7071 9.70711C18.0976 9.31658 18.0976 8.68342 17.7071 8.29289C17.3166 7.90237 16.6834 7.90237 16.2929 8.29289L10.8536 13.7322C10.6583 13.9275 10.3417 13.9275 10.1464 13.7322L7.70711 11.2929C7.31658 10.9024 6.68342 10.9024 6.29289 11.2929C5.90237 11.6834 5.90237 12.3166 6.29289 12.7071L8.73223 15.1464C9.70854 16.1228 11.2915 16.1228 12.2678 15.1464L17.7071 9.70711Z" fill="#080809" style="fill:#080809;fill:color(display-p3 0.0314 0.0314 0.0353);fill-opacity:1;"/>
<path fill-rule="evenodd" clip-rule="evenodd" d="M12 0.5C5.64873 0.5 0.5 5.64873 0.5 12C0.5 18.3513 5.64873 23.5 12 23.5C18.3513 23.5 23.5 18.3513 23.5 12C23.5 5.64873 18.3513 0.5 12 0.5ZM2.5 12C2.5 6.75329 6.75329 2.5 12 2.5C17.2467 2.5 21.5 6.75329 21.5 12C21.5 17.2467 17.2467 21.5 12 21.5C6.75329 21.5 2.5 17.2467 2.5 12Z" fill="#080809" style="fill:#080809;fill:color(display-p3 0.0314 0.0314 0.0353);fill-opacity:1;"/>
</g>
<defs>
<clipPath id="clip0_29901_26722">
<rect width="24" height="24" fill="white" style="fill:white;fill-opacity:1;"/>
</clipPath>
</defs>
</svg>
