<svg width="24" height="24" viewBox="0 0 24 24" fill="none" xmlns="http://www.w3.org/2000/svg">
<path d="M3.5 1C2.11929 1 1 2.11929 1 3.5V20.5C1 21.8807 2.11929 23 3.5 23H8.5C9.88071 23 11 21.8807 11 20.5V3.5C11 2.11929 9.88071 1 8.5 1H3.5Z" fill="#080809" style="fill:#080809;fill:color(display-p3 0.0314 0.0314 0.0353);fill-opacity:1;"/>
<path d="M15.5 1C14.1193 1 13 2.11929 13 3.5V11.5C13 12.8807 14.1193 14 15.5 14H20.5C21.8807 14 23 12.8807 23 11.5V3.5C23 2.11929 21.8807 1 20.5 1H15.5Z" fill="#080809" style="fill:#080809;fill:color(display-p3 0.0314 0.0314 0.0353);fill-opacity:1;"/>
<path d="M15.5 16C14.1193 16 13 17.1193 13 18.5V20.5C13 21.8807 14.1193 23 15.5 23H20.5C21.8807 23 23 21.8807 23 20.5V18.5C23 17.1193 21.8807 16 20.5 16H15.5Z" fill="#080809" style="fill:#080809;fill:color(display-p3 0.0314 0.0314 0.0353);fill-opacity:1;"/>
</svg>
